<?xml version="1.0" encoding="utf-8" standalone="no"?>
<!DOCTYPE svg PUBLIC "-//W3C//DTD SVG 1.1//EN"
  "http://www.w3.org/Graphics/SVG/1.1/DTD/svg11.dtd">
<!-- Created with matplotlib (https://matplotlib.org/) -->
<svg height="288pt" version="1.1" viewBox="0 0 432 288" width="432pt" xmlns="http://www.w3.org/2000/svg" xmlns:xlink="http://www.w3.org/1999/xlink">
 <defs>
  <style type="text/css">
*{stroke-linecap:butt;stroke-linejoin:round;}
  </style>
 </defs>
 <g id="figure_1">
  <g id="patch_1">
   <path d="M 0 288 
L 432 288 
L 432 0 
L 0 0 
z
" style="fill:none;"/>
  </g>
  <g id="axes_1">
   <g id="patch_2">
    <path d="M 54 252 
L 388.8 252 
L 388.8 34.56 
L 54 34.56 
z
" style="fill:none;"/>
   </g>
   <g id="patch_3">
    <path clip-path="url(#p1e67f19ac1)" d="M 69.218182 252 
L 71.653091 252 
L 71.653091 252 
L 69.218182 252 
z
" style="fill:#1f77b4;"/>
   </g>
   <g id="patch_4">
    <path clip-path="url(#p1e67f19ac1)" d="M 71.653091 252 
L 74.088 252 
L 74.088 252 
L 71.653091 252 
z
" style="fill:#1f77b4;"/>
   </g>
   <g id="patch_5">
    <path clip-path="url(#p1e67f19ac1)" d="M 74.088 252 
L 76.522909 252 
L 76.522909 252 
L 74.088 252 
z
" style="fill:#1f77b4;"/>
   </g>
   <g id="patch_6">
    <path clip-path="url(#p1e67f19ac1)" d="M 76.522909 252 
L 78.957818 252 
L 78.957818 252 
L 76.522909 252 
z
" style="fill:#1f77b4;"/>
   </g>
   <g id="patch_7">
    <path clip-path="url(#p1e67f19ac1)" d="M 78.957818 252 
L 81.392727 252 
L 81.392727 252 
L 78.957818 252 
z
" style="fill:#1f77b4;"/>
   </g>
   <g id="patch_8">
    <path clip-path="url(#p1e67f19ac1)" d="M 81.392727 252 
L 83.827636 252 
L 83.827636 252 
L 81.392727 252 
z
" style="fill:#1f77b4;"/>
   </g>
   <g id="patch_9">
    <path clip-path="url(#p1e67f19ac1)" d="M 83.827636 252 
L 86.262545 252 
L 86.262545 252 
L 83.827636 252 
z
" style="fill:#1f77b4;"/>
   </g>
   <g id="patch_10">
    <path clip-path="url(#p1e67f19ac1)" d="M 86.262545 252 
L 88.697455 252 
L 88.697455 252 
L 86.262545 252 
z
" style="fill:#1f77b4;"/>
   </g>
   <g id="patch_11">
    <path clip-path="url(#p1e67f19ac1)" d="M 88.697455 252 
L 91.132364 252 
L 91.132364 252 
L 88.697455 252 
z
" style="fill:#1f77b4;"/>
   </g>
   <g id="patch_12">
    <path clip-path="url(#p1e67f19ac1)" d="M 91.132364 252 
L 93.567273 252 
L 93.567273 252 
L 91.132364 252 
z
" style="fill:#1f77b4;"/>
   </g>
   <g id="patch_13">
    <path clip-path="url(#p1e67f19ac1)" d="M 93.567273 252 
L 96.002182 252 
L 96.002182 252 
L 93.567273 252 
z
" style="fill:#1f77b4;"/>
   </g>
   <g id="patch_14">
    <path clip-path="url(#p1e67f19ac1)" d="M 96.002182 252 
L 98.437091 252 
L 98.437091 252 
L 96.002182 252 
z
" style="fill:#1f77b4;"/>
   </g>
   <g id="patch_15">
    <path clip-path="url(#p1e67f19ac1)" d="M 98.437091 252 
L 100.872 252 
L 100.872 252 
L 98.437091 252 
z
" style="fill:#1f77b4;"/>
   </g>
   <g id="patch_16">
    <path clip-path="url(#p1e67f19ac1)" d="M 100.872 252 
L 103.306909 252 
L 103.306909 252 
L 100.872 252 
z
" style="fill:#1f77b4;"/>
   </g>
   <g id="patch_17">
    <path clip-path="url(#p1e67f19ac1)" d="M 103.306909 252 
L 105.741818 252 
L 105.741818 252 
L 103.306909 252 
z
" style="fill:#1f77b4;"/>
   </g>
   <g id="patch_18">
    <path clip-path="url(#p1e67f19ac1)" d="M 105.741818 252 
L 108.176727 252 
L 108.176727 251.257757 
L 105.741818 251.257757 
z
" style="fill:#1f77b4;"/>
   </g>
   <g id="patch_19">
    <path clip-path="url(#p1e67f19ac1)" d="M 108.176727 252 
L 110.611636 252 
L 110.611636 252 
L 108.176727 252 
z
" style="fill:#1f77b4;"/>
   </g>
   <g id="patch_20">
    <path clip-path="url(#p1e67f19ac1)" d="M 110.611636 252 
L 113.046545 252 
L 113.046545 251.257757 
L 110.611636 251.257757 
z
" style="fill:#1f77b4;"/>
   </g>
   <g id="patch_21">
    <path clip-path="url(#p1e67f19ac1)" d="M 113.046545 252 
L 115.481455 252 
L 115.481455 249.773272 
L 113.046545 249.773272 
z
" style="fill:#1f77b4;"/>
   </g>
   <g id="patch_22">
    <path clip-path="url(#p1e67f19ac1)" d="M 115.481455 252 
L 117.916364 252 
L 117.916364 249.031029 
L 115.481455 249.031029 
z
" style="fill:#1f77b4;"/>
   </g>
   <g id="patch_23">
    <path clip-path="url(#p1e67f19ac1)" d="M 117.916364 252 
L 120.351273 252 
L 120.351273 251.257757 
L 117.916364 251.257757 
z
" style="fill:#1f77b4;"/>
   </g>
   <g id="patch_24">
    <path clip-path="url(#p1e67f19ac1)" d="M 120.351273 252 
L 122.786182 252 
L 122.786182 240.124117 
L 120.351273 240.124117 
z
" style="fill:#1f77b4;"/>
   </g>
   <g id="patch_25">
    <path clip-path="url(#p1e67f19ac1)" d="M 122.786182 252 
L 125.221091 252 
L 125.221091 248.288786 
L 122.786182 248.288786 
z
" style="fill:#1f77b4;"/>
   </g>
   <g id="patch_26">
    <path clip-path="url(#p1e67f19ac1)" d="M 125.221091 252 
L 127.656 252 
L 127.656 241.608602 
L 125.221091 241.608602 
z
" style="fill:#1f77b4;"/>
   </g>
   <g id="patch_27">
    <path clip-path="url(#p1e67f19ac1)" d="M 127.656 252 
L 130.090909 252 
L 130.090909 243.83533 
L 127.656 243.83533 
z
" style="fill:#1f77b4;"/>
   </g>
   <g id="patch_28">
    <path clip-path="url(#p1e67f19ac1)" d="M 130.090909 252 
L 132.525818 252 
L 132.525818 236.412903 
L 130.090909 236.412903 
z
" style="fill:#1f77b4;"/>
   </g>
   <g id="patch_29">
    <path clip-path="url(#p1e67f19ac1)" d="M 132.525818 252 
L 134.960727 252 
L 134.960727 240.866359 
L 132.525818 240.866359 
z
" style="fill:#1f77b4;"/>
   </g>
   <g id="patch_30">
    <path clip-path="url(#p1e67f19ac1)" d="M 134.960727 252 
L 137.395636 252 
L 137.395636 233.443932 
L 134.960727 233.443932 
z
" style="fill:#1f77b4;"/>
   </g>
   <g id="patch_31">
    <path clip-path="url(#p1e67f19ac1)" d="M 137.395636 252 
L 139.830545 252 
L 139.830545 223.052535 
L 137.395636 223.052535 
z
" style="fill:#1f77b4;"/>
   </g>
   <g id="patch_32">
    <path clip-path="url(#p1e67f19ac1)" d="M 139.830545 252 
L 142.265455 252 
L 142.265455 226.021505 
L 139.830545 226.021505 
z
" style="fill:#1f77b4;"/>
   </g>
   <g id="patch_33">
    <path clip-path="url(#p1e67f19ac1)" d="M 142.265455 252 
L 144.700364 252 
L 144.700364 219.341321 
L 142.265455 219.341321 
z
" style="fill:#1f77b4;"/>
   </g>
   <g id="patch_34">
    <path clip-path="url(#p1e67f19ac1)" d="M 144.700364 252 
L 147.135273 252 
L 147.135273 203.754224 
L 144.700364 203.754224 
z
" style="fill:#1f77b4;"/>
   </g>
   <g id="patch_35">
    <path clip-path="url(#p1e67f19ac1)" d="M 147.135273 252 
L 149.570182 252 
L 149.570182 199.300768 
L 147.135273 199.300768 
z
" style="fill:#1f77b4;"/>
   </g>
   <g id="patch_36">
    <path clip-path="url(#p1e67f19ac1)" d="M 149.570182 252 
L 152.005091 252 
L 152.005091 201.527496 
L 149.570182 201.527496 
z
" style="fill:#1f77b4;"/>
   </g>
   <g id="patch_37">
    <path clip-path="url(#p1e67f19ac1)" d="M 152.005091 252 
L 154.44 252 
L 154.44 181.486943 
L 152.005091 181.486943 
z
" style="fill:#1f77b4;"/>
   </g>
   <g id="patch_38">
    <path clip-path="url(#p1e67f19ac1)" d="M 154.44 252 
L 156.874909 252 
L 156.874909 170.353303 
L 154.44 170.353303 
z
" style="fill:#1f77b4;"/>
   </g>
   <g id="patch_39">
    <path clip-path="url(#p1e67f19ac1)" d="M 156.874909 252 
L 159.309818 252 
L 159.309818 159.219662 
L 156.874909 159.219662 
z
" style="fill:#1f77b4;"/>
   </g>
   <g id="patch_40">
    <path clip-path="url(#p1e67f19ac1)" d="M 159.309818 252 
L 161.744727 252 
L 161.744727 145.859293 
L 159.309818 145.859293 
z
" style="fill:#1f77b4;"/>
   </g>
   <g id="patch_41">
    <path clip-path="url(#p1e67f19ac1)" d="M 161.744727 252 
L 164.179636 252 
L 164.179636 161.44639 
L 161.744727 161.44639 
z
" style="fill:#1f77b4;"/>
   </g>
   <g id="patch_42">
    <path clip-path="url(#p1e67f19ac1)" d="M 164.179636 252 
L 166.614545 252 
L 166.614545 145.117051 
L 164.179636 145.117051 
z
" style="fill:#1f77b4;"/>
   </g>
   <g id="patch_43">
    <path clip-path="url(#p1e67f19ac1)" d="M 166.614545 252 
L 169.049455 252 
L 169.049455 116.911828 
L 166.614545 116.911828 
z
" style="fill:#1f77b4;"/>
   </g>
   <g id="patch_44">
    <path clip-path="url(#p1e67f19ac1)" d="M 169.049455 252 
L 171.484364 252 
L 171.484364 117.654071 
L 169.049455 117.654071 
z
" style="fill:#1f77b4;"/>
   </g>
   <g id="patch_45">
    <path clip-path="url(#p1e67f19ac1)" d="M 171.484364 252 
L 173.919273 252 
L 173.919273 110.973886 
L 171.484364 110.973886 
z
" style="fill:#1f77b4;"/>
   </g>
   <g id="patch_46">
    <path clip-path="url(#p1e67f19ac1)" d="M 173.919273 252 
L 176.354182 252 
L 176.354182 116.911828 
L 173.919273 116.911828 
z
" style="fill:#1f77b4;"/>
   </g>
   <g id="patch_47">
    <path clip-path="url(#p1e67f19ac1)" d="M 176.354182 252 
L 178.789091 252 
L 178.789091 98.35576 
L 176.354182 98.35576 
z
" style="fill:#1f77b4;"/>
   </g>
   <g id="patch_48">
    <path clip-path="url(#p1e67f19ac1)" d="M 178.789091 252 
L 181.224 252 
L 181.224 87.22212 
L 178.789091 87.22212 
z
" style="fill:#1f77b4;"/>
   </g>
   <g id="patch_49">
    <path clip-path="url(#p1e67f19ac1)" d="M 181.224 252 
L 183.658909 252 
L 183.658909 105.778187 
L 181.224 105.778187 
z
" style="fill:#1f77b4;"/>
   </g>
   <g id="patch_50">
    <path clip-path="url(#p1e67f19ac1)" d="M 183.658909 252 
L 186.093818 252 
L 186.093818 73.119508 
L 183.658909 73.119508 
z
" style="fill:#1f77b4;"/>
   </g>
   <g id="patch_51">
    <path clip-path="url(#p1e67f19ac1)" d="M 186.093818 252 
L 188.528727 252 
L 188.528727 79.799693 
L 186.093818 79.799693 
z
" style="fill:#1f77b4;"/>
   </g>
   <g id="patch_52">
    <path clip-path="url(#p1e67f19ac1)" d="M 188.528727 252 
L 190.963636 252 
L 190.963636 73.861751 
L 188.528727 73.861751 
z
" style="fill:#1f77b4;"/>
   </g>
   <g id="patch_53">
    <path clip-path="url(#p1e67f19ac1)" d="M 190.963636 252 
L 193.398545 252 
L 193.398545 71.635023 
L 190.963636 71.635023 
z
" style="fill:#1f77b4;"/>
   </g>
   <g id="patch_54">
    <path clip-path="url(#p1e67f19ac1)" d="M 193.398545 252 
L 195.833455 252 
L 195.833455 78.315207 
L 193.398545 78.315207 
z
" style="fill:#1f77b4;"/>
   </g>
   <g id="patch_55">
    <path clip-path="url(#p1e67f19ac1)" d="M 195.833455 252 
L 198.268364 252 
L 198.268364 44.914286 
L 195.833455 44.914286 
z
" style="fill:#1f77b4;"/>
   </g>
   <g id="patch_56">
    <path clip-path="url(#p1e67f19ac1)" d="M 198.268364 252 
L 200.703273 252 
L 200.703273 52.336713 
L 198.268364 52.336713 
z
" style="fill:#1f77b4;"/>
   </g>
   <g id="patch_57">
    <path clip-path="url(#p1e67f19ac1)" d="M 200.703273 252 
L 203.138182 252 
L 203.138182 72.377266 
L 200.703273 72.377266 
z
" style="fill:#1f77b4;"/>
   </g>
   <g id="patch_58">
    <path clip-path="url(#p1e67f19ac1)" d="M 203.138182 252 
L 205.573091 252 
L 205.573091 53.078955 
L 203.138182 53.078955 
z
" style="fill:#1f77b4;"/>
   </g>
   <g id="patch_59">
    <path clip-path="url(#p1e67f19ac1)" d="M 205.573091 252 
L 208.008 252 
L 208.008 47.141014 
L 205.573091 47.141014 
z
" style="fill:#1f77b4;"/>
   </g>
   <g id="patch_60">
    <path clip-path="url(#p1e67f19ac1)" d="M 208.008 252 
L 210.442909 252 
L 210.442909 50.109985 
L 208.008 50.109985 
z
" style="fill:#1f77b4;"/>
   </g>
   <g id="patch_61">
    <path clip-path="url(#p1e67f19ac1)" d="M 210.442909 252 
L 212.877818 252 
L 212.877818 54.563441 
L 210.442909 54.563441 
z
" style="fill:#1f77b4;"/>
   </g>
   <g id="patch_62">
    <path clip-path="url(#p1e67f19ac1)" d="M 212.877818 252 
L 215.312727 252 
L 215.312727 50.109985 
L 212.877818 50.109985 
z
" style="fill:#1f77b4;"/>
   </g>
   <g id="patch_63">
    <path clip-path="url(#p1e67f19ac1)" d="M 215.312727 252 
L 217.747636 252 
L 217.747636 77.572965 
L 215.312727 77.572965 
z
" style="fill:#1f77b4;"/>
   </g>
   <g id="patch_64">
    <path clip-path="url(#p1e67f19ac1)" d="M 217.747636 252 
L 220.182545 252 
L 220.182545 61.985868 
L 217.747636 61.985868 
z
" style="fill:#1f77b4;"/>
   </g>
   <g id="patch_65">
    <path clip-path="url(#p1e67f19ac1)" d="M 220.182545 252 
L 222.617455 252 
L 222.617455 95.38679 
L 220.182545 95.38679 
z
" style="fill:#1f77b4;"/>
   </g>
   <g id="patch_66">
    <path clip-path="url(#p1e67f19ac1)" d="M 222.617455 252 
L 225.052364 252 
L 225.052364 96.871275 
L 222.617455 96.871275 
z
" style="fill:#1f77b4;"/>
   </g>
   <g id="patch_67">
    <path clip-path="url(#p1e67f19ac1)" d="M 225.052364 252 
L 227.487273 252 
L 227.487273 89.448848 
L 225.052364 89.448848 
z
" style="fill:#1f77b4;"/>
   </g>
   <g id="patch_68">
    <path clip-path="url(#p1e67f19ac1)" d="M 227.487273 252 
L 229.922182 252 
L 229.922182 115.427343 
L 227.487273 115.427343 
z
" style="fill:#1f77b4;"/>
   </g>
   <g id="patch_69">
    <path clip-path="url(#p1e67f19ac1)" d="M 229.922182 252 
L 232.357091 252 
L 232.357091 88.706605 
L 229.922182 88.706605 
z
" style="fill:#1f77b4;"/>
   </g>
   <g id="patch_70">
    <path clip-path="url(#p1e67f19ac1)" d="M 232.357091 252 
L 234.792 252 
L 234.792 97.613518 
L 232.357091 97.613518 
z
" style="fill:#1f77b4;"/>
   </g>
   <g id="patch_71">
    <path clip-path="url(#p1e67f19ac1)" d="M 234.792 252 
L 237.226909 252 
L 237.226909 120.623041 
L 234.792 120.623041 
z
" style="fill:#1f77b4;"/>
   </g>
   <g id="patch_72">
    <path clip-path="url(#p1e67f19ac1)" d="M 237.226909 252 
L 239.661818 252 
L 239.661818 98.35576 
L 237.226909 98.35576 
z
" style="fill:#1f77b4;"/>
   </g>
   <g id="patch_73">
    <path clip-path="url(#p1e67f19ac1)" d="M 239.661818 252 
L 242.096727 252 
L 242.096727 141.405837 
L 239.661818 141.405837 
z
" style="fill:#1f77b4;"/>
   </g>
   <g id="patch_74">
    <path clip-path="url(#p1e67f19ac1)" d="M 242.096727 252 
L 244.531636 252 
L 244.531636 130.272197 
L 242.096727 130.272197 
z
" style="fill:#1f77b4;"/>
   </g>
   <g id="patch_75">
    <path clip-path="url(#p1e67f19ac1)" d="M 244.531636 252 
L 246.966545 252 
L 246.966545 133.98341 
L 244.531636 133.98341 
z
" style="fill:#1f77b4;"/>
   </g>
   <g id="patch_76">
    <path clip-path="url(#p1e67f19ac1)" d="M 246.966545 252 
L 249.401455 252 
L 249.401455 151.797235 
L 246.966545 151.797235 
z
" style="fill:#1f77b4;"/>
   </g>
   <g id="patch_77">
    <path clip-path="url(#p1e67f19ac1)" d="M 249.401455 252 
L 251.836364 252 
L 251.836364 161.44639 
L 249.401455 161.44639 
z
" style="fill:#1f77b4;"/>
   </g>
   <g id="patch_78">
    <path clip-path="url(#p1e67f19ac1)" d="M 251.836364 252 
L 254.271273 252 
L 254.271273 166.642089 
L 251.836364 166.642089 
z
" style="fill:#1f77b4;"/>
   </g>
   <g id="patch_79">
    <path clip-path="url(#p1e67f19ac1)" d="M 254.271273 252 
L 256.706182 252 
L 256.706182 165.157604 
L 254.271273 165.157604 
z
" style="fill:#1f77b4;"/>
   </g>
   <g id="patch_80">
    <path clip-path="url(#p1e67f19ac1)" d="M 256.706182 252 
L 259.141091 252 
L 259.141091 169.61106 
L 256.706182 169.61106 
z
" style="fill:#1f77b4;"/>
   </g>
   <g id="patch_81">
    <path clip-path="url(#p1e67f19ac1)" d="M 259.141091 252 
L 261.576 252 
L 261.576 186.682642 
L 259.141091 186.682642 
z
" style="fill:#1f77b4;"/>
   </g>
   <g id="patch_82">
    <path clip-path="url(#p1e67f19ac1)" d="M 261.576 252 
L 264.010909 252 
L 264.010909 189.651613 
L 261.576 189.651613 
z
" style="fill:#1f77b4;"/>
   </g>
   <g id="patch_83">
    <path clip-path="url(#p1e67f19ac1)" d="M 264.010909 252 
L 266.445818 252 
L 266.445818 189.651613 
L 264.010909 189.651613 
z
" style="fill:#1f77b4;"/>
   </g>
   <g id="patch_84">
    <path clip-path="url(#p1e67f19ac1)" d="M 266.445818 252 
L 268.880727 252 
L 268.880727 203.011982 
L 266.445818 203.011982 
z
" style="fill:#1f77b4;"/>
   </g>
   <g id="patch_85">
    <path clip-path="url(#p1e67f19ac1)" d="M 268.880727 252 
L 271.315636 252 
L 271.315636 195.589555 
L 268.880727 195.589555 
z
" style="fill:#1f77b4;"/>
   </g>
   <g id="patch_86">
    <path clip-path="url(#p1e67f19ac1)" d="M 271.315636 252 
L 273.750545 252 
L 273.750545 208.20768 
L 271.315636 208.20768 
z
" style="fill:#1f77b4;"/>
   </g>
   <g id="patch_87">
    <path clip-path="url(#p1e67f19ac1)" d="M 273.750545 252 
L 276.185455 252 
L 276.185455 214.145622 
L 273.750545 214.145622 
z
" style="fill:#1f77b4;"/>
   </g>
   <g id="patch_88">
    <path clip-path="url(#p1e67f19ac1)" d="M 276.185455 252 
L 278.620364 252 
L 278.620364 214.145622 
L 276.185455 214.145622 
z
" style="fill:#1f77b4;"/>
   </g>
   <g id="patch_89">
    <path clip-path="url(#p1e67f19ac1)" d="M 278.620364 252 
L 281.055273 252 
L 281.055273 216.37235 
L 278.620364 216.37235 
z
" style="fill:#1f77b4;"/>
   </g>
   <g id="patch_90">
    <path clip-path="url(#p1e67f19ac1)" d="M 281.055273 252 
L 283.490182 252 
L 283.490182 224.53702 
L 281.055273 224.53702 
z
" style="fill:#1f77b4;"/>
   </g>
   <g id="patch_91">
    <path clip-path="url(#p1e67f19ac1)" d="M 283.490182 252 
L 285.925091 252 
L 285.925091 231.959447 
L 283.490182 231.959447 
z
" style="fill:#1f77b4;"/>
   </g>
   <g id="patch_92">
    <path clip-path="url(#p1e67f19ac1)" d="M 285.925091 252 
L 288.36 252 
L 288.36 231.959447 
L 285.925091 231.959447 
z
" style="fill:#1f77b4;"/>
   </g>
   <g id="patch_93">
    <path clip-path="url(#p1e67f19ac1)" d="M 288.36 252 
L 290.794909 252 
L 290.794909 231.959447 
L 288.36 231.959447 
z
" style="fill:#1f77b4;"/>
   </g>
   <g id="patch_94">
    <path clip-path="url(#p1e67f19ac1)" d="M 290.794909 252 
L 293.229818 252 
L 293.229818 231.959447 
L 290.794909 231.959447 
z
" style="fill:#1f77b4;"/>
   </g>
   <g id="patch_95">
    <path clip-path="url(#p1e67f19ac1)" d="M 293.229818 252 
L 295.664727 252 
L 295.664727 231.217204 
L 293.229818 231.217204 
z
" style="fill:#1f77b4;"/>
   </g>
   <g id="patch_96">
    <path clip-path="url(#p1e67f19ac1)" d="M 295.664727 252 
L 298.099636 252 
L 298.099636 239.381874 
L 295.664727 239.381874 
z
" style="fill:#1f77b4;"/>
   </g>
   <g id="patch_97">
    <path clip-path="url(#p1e67f19ac1)" d="M 298.099636 252 
L 300.534545 252 
L 300.534545 240.866359 
L 298.099636 240.866359 
z
" style="fill:#1f77b4;"/>
   </g>
   <g id="patch_98">
    <path clip-path="url(#p1e67f19ac1)" d="M 300.534545 252 
L 302.969455 252 
L 302.969455 240.124117 
L 300.534545 240.124117 
z
" style="fill:#1f77b4;"/>
   </g>
   <g id="patch_99">
    <path clip-path="url(#p1e67f19ac1)" d="M 302.969455 252 
L 305.404364 252 
L 305.404364 243.83533 
L 302.969455 243.83533 
z
" style="fill:#1f77b4;"/>
   </g>
   <g id="patch_100">
    <path clip-path="url(#p1e67f19ac1)" d="M 305.404364 252 
L 307.839273 252 
L 307.839273 243.83533 
L 305.404364 243.83533 
z
" style="fill:#1f77b4;"/>
   </g>
   <g id="patch_101">
    <path clip-path="url(#p1e67f19ac1)" d="M 307.839273 252 
L 310.274182 252 
L 310.274182 240.124117 
L 307.839273 240.124117 
z
" style="fill:#1f77b4;"/>
   </g>
   <g id="patch_102">
    <path clip-path="url(#p1e67f19ac1)" d="M 310.274182 252 
L 312.709091 252 
L 312.709091 243.093088 
L 310.274182 243.093088 
z
" style="fill:#1f77b4;"/>
   </g>
   <g id="patch_103">
    <path clip-path="url(#p1e67f19ac1)" d="M 312.709091 252 
L 315.144 252 
L 315.144 244.577573 
L 312.709091 244.577573 
z
" style="fill:#1f77b4;"/>
   </g>
   <g id="patch_104">
    <path clip-path="url(#p1e67f19ac1)" d="M 315.144 252 
L 317.578909 252 
L 317.578909 249.773272 
L 315.144 249.773272 
z
" style="fill:#1f77b4;"/>
   </g>
   <g id="patch_105">
    <path clip-path="url(#p1e67f19ac1)" d="M 317.578909 252 
L 320.013818 252 
L 320.013818 248.288786 
L 317.578909 248.288786 
z
" style="fill:#1f77b4;"/>
   </g>
   <g id="patch_106">
    <path clip-path="url(#p1e67f19ac1)" d="M 320.013818 252 
L 322.448727 252 
L 322.448727 251.257757 
L 320.013818 251.257757 
z
" style="fill:#1f77b4;"/>
   </g>
   <g id="patch_107">
    <path clip-path="url(#p1e67f19ac1)" d="M 322.448727 252 
L 324.883636 252 
L 324.883636 249.773272 
L 322.448727 249.773272 
z
" style="fill:#1f77b4;"/>
   </g>
   <g id="patch_108">
    <path clip-path="url(#p1e67f19ac1)" d="M 324.883636 252 
L 327.318545 252 
L 327.318545 249.031029 
L 324.883636 249.031029 
z
" style="fill:#1f77b4;"/>
   </g>
   <g id="patch_109">
    <path clip-path="url(#p1e67f19ac1)" d="M 327.318545 252 
L 329.753455 252 
L 329.753455 246.062058 
L 327.318545 246.062058 
z
" style="fill:#1f77b4;"/>
   </g>
   <g id="patch_110">
    <path clip-path="url(#p1e67f19ac1)" d="M 329.753455 252 
L 332.188364 252 
L 332.188364 249.031029 
L 329.753455 249.031029 
z
" style="fill:#1f77b4;"/>
   </g>
   <g id="patch_111">
    <path clip-path="url(#p1e67f19ac1)" d="M 332.188364 252 
L 334.623273 252 
L 334.623273 249.773272 
L 332.188364 249.773272 
z
" style="fill:#1f77b4;"/>
   </g>
   <g id="patch_112">
    <path clip-path="url(#p1e67f19ac1)" d="M 334.623273 252 
L 337.058182 252 
L 337.058182 251.257757 
L 334.623273 251.257757 
z
" style="fill:#1f77b4;"/>
   </g>
   <g id="patch_113">
    <path clip-path="url(#p1e67f19ac1)" d="M 337.058182 252 
L 339.493091 252 
L 339.493091 251.257757 
L 337.058182 251.257757 
z
" style="fill:#1f77b4;"/>
   </g>
   <g id="patch_114">
    <path clip-path="url(#p1e67f19ac1)" d="M 339.493091 252 
L 341.928 252 
L 341.928 252 
L 339.493091 252 
z
" style="fill:#1f77b4;"/>
   </g>
   <g id="patch_115">
    <path clip-path="url(#p1e67f19ac1)" d="M 341.928 252 
L 344.362909 252 
L 344.362909 251.257757 
L 341.928 251.257757 
z
" style="fill:#1f77b4;"/>
   </g>
   <g id="patch_116">
    <path clip-path="url(#p1e67f19ac1)" d="M 344.362909 252 
L 346.797818 252 
L 346.797818 251.257757 
L 344.362909 251.257757 
z
" style="fill:#1f77b4;"/>
   </g>
   <g id="patch_117">
    <path clip-path="url(#p1e67f19ac1)" d="M 346.797818 252 
L 349.232727 252 
L 349.232727 251.257757 
L 346.797818 251.257757 
z
" style="fill:#1f77b4;"/>
   </g>
   <g id="patch_118">
    <path clip-path="url(#p1e67f19ac1)" d="M 349.232727 252 
L 351.667636 252 
L 351.667636 250.515515 
L 349.232727 250.515515 
z
" style="fill:#1f77b4;"/>
   </g>
   <g id="patch_119">
    <path clip-path="url(#p1e67f19ac1)" d="M 351.667636 252 
L 354.102545 252 
L 354.102545 252 
L 351.667636 252 
z
" style="fill:#1f77b4;"/>
   </g>
   <g id="patch_120">
    <path clip-path="url(#p1e67f19ac1)" d="M 354.102545 252 
L 356.537455 252 
L 356.537455 252 
L 354.102545 252 
z
" style="fill:#1f77b4;"/>
   </g>
   <g id="patch_121">
    <path clip-path="url(#p1e67f19ac1)" d="M 356.537455 252 
L 358.972364 252 
L 358.972364 251.257757 
L 356.537455 251.257757 
z
" style="fill:#1f77b4;"/>
   </g>
   <g id="patch_122">
    <path clip-path="url(#p1e67f19ac1)" d="M 358.972364 252 
L 361.407273 252 
L 361.407273 251.257757 
L 358.972364 251.257757 
z
" style="fill:#1f77b4;"/>
   </g>
   <g id="patch_123">
    <path clip-path="url(#p1e67f19ac1)" d="M 361.407273 252 
L 363.842182 252 
L 363.842182 252 
L 361.407273 252 
z
" style="fill:#1f77b4;"/>
   </g>
   <g id="patch_124">
    <path clip-path="url(#p1e67f19ac1)" d="M 363.842182 252 
L 366.277091 252 
L 366.277091 252 
L 363.842182 252 
z
" style="fill:#1f77b4;"/>
   </g>
   <g id="patch_125">
    <path clip-path="url(#p1e67f19ac1)" d="M 366.277091 252 
L 368.712 252 
L 368.712 252 
L 366.277091 252 
z
" style="fill:#1f77b4;"/>
   </g>
   <g id="patch_126">
    <path clip-path="url(#p1e67f19ac1)" d="M 368.712 252 
L 371.146909 252 
L 371.146909 252 
L 368.712 252 
z
" style="fill:#1f77b4;"/>
   </g>
   <g id="patch_127">
    <path clip-path="url(#p1e67f19ac1)" d="M 371.146909 252 
L 373.581818 252 
L 373.581818 252 
L 371.146909 252 
z
" style="fill:#1f77b4;"/>
   </g>
   <g id="matplotlib.axis_1">
    <g id="xtick_1">
     <g id="line2d_1">
      <defs>
       <path d="M 0 0 
L 0 3.5 
" id="m5882a15596" style="stroke:#000000;stroke-width:0.8;"/>
      </defs>
      <g>
       <use style="stroke:#000000;stroke-width:0.8;" x="69.218182" xlink:href="#m5882a15596" y="252"/>
      </g>
     </g>
     <g id="text_1">
      <!-- 0 -->
      <defs>
       <path d="M 23.921875 1.8125 
Q 31.109375 1.8125 33.78125 9.671875 
Q 36.46875 17.53125 36.46875 32.421875 
Q 36.46875 44.28125 34.859375 51.375 
Q 31.84375 64.546875 23.53125 64.546875 
Q 15.234375 64.546875 12.15625 50.984375 
Q 10.546875 43.75 10.546875 31.9375 
Q 10.546875 20.84375 12.203125 14.203125 
Q 15.328125 1.8125 23.921875 1.8125 
z
M 23.78125 67.1875 
Q 35.015625 67.1875 41.21875 55.421875 
Q 46.140625 45.90625 46.140625 33.546875 
Q 46.140625 23.828125 43.109375 15.234375 
Q 37.40625 -0.921875 23.34375 -0.921875 
Q 13.71875 -0.921875 7.515625 7.8125 
Q 0.875 17.140625 0.875 33.15625 
Q 0.875 45.75 5.328125 54.828125 
Q 11.328125 67.1875 23.78125 67.1875 
z
" id="Times-Roman-48"/>
      </defs>
      <g transform="translate(66.218182 267.2275)scale(0.12 -0.12)">
       <use xlink:href="#Times-Roman-48"/>
      </g>
     </g>
    </g>
    <g id="xtick_2">
     <g id="line2d_2">
      <g>
       <use style="stroke:#000000;stroke-width:0.8;" x="117.916364" xlink:href="#m5882a15596" y="252"/>
      </g>
     </g>
     <g id="text_2">
      <!-- 10 -->
      <defs>
       <path d="M 29.59375 67.09375 
Q 29.78125 66.84375 29.796875 66.71875 
Q 29.828125 66.609375 29.828125 66.15625 
L 29.828125 7.375 
Q 29.828125 3.609375 31.828125 2.578125 
Q 33.84375 1.5625 39.3125 1.375 
L 39.3125 0 
L 11.765625 0 
L 11.765625 1.46875 
Q 17.671875 1.765625 19.484375 3.078125 
Q 21.296875 4.390625 21.296875 8.796875 
L 21.296875 54 
Q 21.296875 56.34375 20.703125 57.5625 
Q 20.125 58.796875 18.171875 58.796875 
Q 16.890625 58.796875 14.859375 58.078125 
Q 12.84375 57.375 11.078125 56.59375 
L 11.078125 57.953125 
L 29 67.09375 
L 29.59375 67.09375 
z
" id="Times-Roman-49"/>
      </defs>
      <g transform="translate(111.916364 267.2275)scale(0.12 -0.12)">
       <use xlink:href="#Times-Roman-49"/>
       <use x="50" xlink:href="#Times-Roman-48"/>
      </g>
     </g>
    </g>
    <g id="xtick_3">
     <g id="line2d_3">
      <g>
       <use style="stroke:#000000;stroke-width:0.8;" x="166.614545" xlink:href="#m5882a15596" y="252"/>
      </g>
     </g>
     <g id="text_3">
      <!-- 20 -->
      <defs>
       <path d="M 2.984375 1.125 
Q 20.84375 19.671875 27.234375 28.359375 
Q 33.640625 37.0625 33.640625 45.3125 
Q 33.640625 52.546875 29.734375 56.328125 
Q 25.828125 60.109375 20.40625 60.109375 
Q 13.71875 60.109375 9.578125 55.21875 
Q 7.28125 52.546875 5.171875 46.96875 
L 3.078125 47.40625 
Q 5.515625 58.640625 11.34375 63.015625 
Q 17.1875 67.390625 23.875 67.390625 
Q 32.125 67.390625 37.21875 62.1875 
Q 42.328125 56.984375 42.328125 49.46875 
Q 42.328125 41.453125 36.8125 34.03125 
Q 31.296875 26.609375 12.84375 7.625 
L 35.25 7.625 
Q 39.9375 7.625 41.84375 8.734375 
Q 43.75 9.859375 46.140625 14.203125 
L 47.40625 13.625 
L 42 0 
L 2.984375 0 
z
" id="Times-Roman-50"/>
      </defs>
      <g transform="translate(160.614545 267.2275)scale(0.12 -0.12)">
       <use xlink:href="#Times-Roman-50"/>
       <use x="50" xlink:href="#Times-Roman-48"/>
      </g>
     </g>
    </g>
    <g id="xtick_4">
     <g id="line2d_4">
      <g>
       <use style="stroke:#000000;stroke-width:0.8;" x="215.312727" xlink:href="#m5882a15596" y="252"/>
      </g>
     </g>
     <g id="text_4">
      <!-- 30 -->
      <defs>
       <path d="M 7.765625 8.5 
Q 10.453125 8.5 14.859375 5.71875 
Q 19.28125 2.9375 22.359375 2.9375 
Q 29.203125 2.9375 32.515625 7.546875 
Q 35.84375 12.15625 35.84375 17.578125 
Q 35.84375 22.796875 33.15625 26.765625 
Q 28.609375 33.453125 17.828125 33.453125 
Q 17.1875 33.453125 16.59375 33.421875 
Q 16.015625 33.40625 15.234375 33.296875 
L 15.140625 34.578125 
Q 22.953125 37.40625 27.4375 41.0625 
Q 31.9375 44.734375 31.9375 50.734375 
Q 31.9375 56.0625 28.390625 58.84375 
Q 24.859375 61.625 20.3125 61.625 
Q 14.9375 61.625 10.84375 57.671875 
Q 8.59375 55.515625 6 51.03125 
L 4.5 51.375 
Q 6.453125 58.796875 11.765625 63.234375 
Q 17.09375 67.671875 24.078125 67.671875 
Q 31.546875 67.671875 35.625 63.5625 
Q 39.703125 59.46875 39.703125 54.109375 
Q 39.703125 49.359375 36.328125 45.40625 
Q 34.421875 43.171875 30.421875 40.375 
Q 35.109375 38.375 37.9375 35.6875 
Q 43.265625 30.5625 43.265625 22.703125 
Q 43.265625 13.421875 35.953125 6.34375 
Q 28.65625 -0.734375 15.1875 -0.734375 
Q 9.1875 -0.734375 6.765625 1.046875 
Q 4.34375 2.828125 4.34375 4.890625 
Q 4.34375 6.15625 5.140625 7.328125 
Q 5.953125 8.5 7.765625 8.5 
z
" id="Times-Roman-51"/>
      </defs>
      <g transform="translate(209.312727 267.2275)scale(0.12 -0.12)">
       <use xlink:href="#Times-Roman-51"/>
       <use x="50" xlink:href="#Times-Roman-48"/>
      </g>
     </g>
    </g>
    <g id="xtick_5">
     <g id="line2d_5">
      <g>
       <use style="stroke:#000000;stroke-width:0.8;" x="264.010909" xlink:href="#m5882a15596" y="252"/>
      </g>
     </g>
     <g id="text_5">
      <!-- 40 -->
      <defs>
       <path d="M 29.15625 57.03125 
L 5.171875 23.140625 
L 29.15625 23.140625 
z
M 32.375 67.09375 
L 37.015625 67.09375 
L 37.015625 23.140625 
L 47.21875 23.140625 
L 47.21875 16.65625 
L 37.015625 16.65625 
L 37.015625 0 
L 29.25 0 
L 29.25 16.65625 
L 1.125 16.65625 
L 1.125 23.140625 
z
" id="Times-Roman-52"/>
      </defs>
      <g transform="translate(258.010909 267.2275)scale(0.12 -0.12)">
       <use xlink:href="#Times-Roman-52"/>
       <use x="50" xlink:href="#Times-Roman-48"/>
      </g>
     </g>
    </g>
    <g id="xtick_6">
     <g id="line2d_6">
      <g>
       <use style="stroke:#000000;stroke-width:0.8;" x="312.709091" xlink:href="#m5882a15596" y="252"/>
      </g>
     </g>
     <g id="text_6">
      <!-- 50 -->
      <defs>
       <path d="M 7.46875 8.9375 
Q 10.25 8.9375 14.765625 5.78125 
Q 19.28125 2.640625 21.734375 2.640625 
Q 27.34375 2.640625 31.546875 7.59375 
Q 35.75 12.546875 35.75 19.78125 
Q 35.75 32.421875 22.265625 37.984375 
Q 14.796875 41.0625 8.34375 41.0625 
Q 7.28125 41.0625 7 41.140625 
Q 6.734375 41.21875 6.34375 41.65625 
Q 6.453125 42.046875 6.515625 42.3125 
Q 6.59375 42.578125 6.6875 42.828125 
L 17.328125 66.15625 
L 38.28125 66.15625 
Q 39.84375 66.15625 40.6875 66.6875 
Q 41.546875 67.234375 42.921875 68.703125 
L 43.703125 68.015625 
L 39.890625 58.984375 
Q 39.703125 58.546875 38.8125 58.421875 
Q 37.9375 58.296875 36.921875 58.296875 
L 18.015625 58.296875 
L 13.875 49.75 
Q 21.875 48.390625 25.59375 47.171875 
Q 31.6875 45.125 35.796875 41.109375 
Q 39.3125 37.640625 41.109375 33.3125 
Q 42.921875 29 42.921875 24.171875 
Q 42.921875 13.375 35.234375 6.140625 
Q 27.546875 -1.078125 15.765625 -1.078125 
Q 10.984375 -1.078125 8.0625 -0.140625 
Q 3.171875 1.375 3.171875 5.28125 
Q 3.171875 6.734375 4.21875 7.828125 
Q 5.28125 8.9375 7.46875 8.9375 
z
" id="Times-Roman-53"/>
      </defs>
      <g transform="translate(306.709091 267.2275)scale(0.12 -0.12)">
       <use xlink:href="#Times-Roman-53"/>
       <use x="50" xlink:href="#Times-Roman-48"/>
      </g>
     </g>
    </g>
    <g id="xtick_7">
     <g id="line2d_7">
      <g>
       <use style="stroke:#000000;stroke-width:0.8;" x="361.407273" xlink:href="#m5882a15596" y="252"/>
      </g>
     </g>
     <g id="text_7">
      <!-- 60 -->
      <defs>
       <path d="M 46.78125 22.21875 
Q 46.78125 13.28125 41.03125 6.09375 
Q 35.296875 -1.078125 26.125 -1.078125 
Q 17.53125 -1.078125 10.46875 6.984375 
Q 3.421875 15.046875 3.421875 28.421875 
Q 3.421875 45.65625 17.09375 58.015625 
Q 29.296875 68.359375 44.53125 68.359375 
L 44.78125 66.75 
Q 38.671875 65.625 34.25 63.6875 
Q 29.828125 61.765625 26.375 58.296875 
Q 22.796875 54.78125 19.671875 49.359375 
Q 16.546875 43.953125 15.375 38.625 
Q 18.40625 40.484375 20.609375 41.359375 
Q 24.515625 42.921875 28.46875 42.921875 
Q 36.234375 42.921875 41.5 37.546875 
Q 46.78125 32.171875 46.78125 22.21875 
z
M 37.84375 18.453125 
Q 37.84375 24.953125 35.796875 29.984375 
Q 32.375 38.375 24.171875 38.375 
Q 16.609375 38.375 14.109375 33.890625 
Q 12.640625 31.25 12.640625 25.09375 
Q 12.640625 17.140625 16.03125 9.515625 
Q 19.4375 1.90625 26.765625 1.90625 
Q 32.5625 1.90625 35.203125 6.859375 
Q 37.84375 11.8125 37.84375 18.453125 
z
" id="Times-Roman-54"/>
      </defs>
      <g transform="translate(355.407273 267.2275)scale(0.12 -0.12)">
       <use xlink:href="#Times-Roman-54"/>
       <use x="50" xlink:href="#Times-Roman-48"/>
      </g>
     </g>
    </g>
    <g id="text_8">
     <!-- $Y^*$ -->
     <defs>
      <path d="M 6.296875 72.90625 
L 16.890625 72.90625 
L 30.515625 42.921875 
L 56.5 72.90625 
L 67.578125 72.90625 
L 34.515625 34.71875 
L 27.78125 0 
L 17.921875 0 
L 24.609375 34.71875 
z
" id="DejaVuSans-Oblique-89"/>
      <path d="M 47.015625 60.890625 
L 29.5 51.421875 
L 47.015625 41.890625 
L 44.1875 37.109375 
L 27.78125 47.015625 
L 27.78125 28.609375 
L 22.21875 28.609375 
L 22.21875 47.015625 
L 5.8125 37.109375 
L 2.984375 41.890625 
L 20.515625 51.421875 
L 2.984375 60.890625 
L 5.8125 65.71875 
L 22.21875 55.8125 
L 22.21875 74.21875 
L 27.78125 74.21875 
L 27.78125 55.8125 
L 44.1875 65.71875 
z
" id="DejaVuSans-42"/>
     </defs>
     <g transform="translate(213.36 282.1475)scale(0.12 -0.12)">
      <use transform="translate(0 0.765625)" xlink:href="#DejaVuSans-Oblique-89"/>
      <use transform="translate(81.738451 39.046875)scale(0.7)" xlink:href="#DejaVuSans-42"/>
     </g>
    </g>
   </g>
   <g id="matplotlib.axis_2">
    <g id="ytick_1">
     <g id="line2d_8">
      <defs>
       <path d="M 0 0 
L -3.5 0 
" id="m7611fad11f" style="stroke:#000000;stroke-width:0.8;"/>
      </defs>
      <g>
       <use style="stroke:#000000;stroke-width:0.8;" x="54" xlink:href="#m7611fad11f" y="252"/>
      </g>
     </g>
     <g id="text_9">
      <!-- 0.00 -->
      <defs>
       <path d="M 16.3125 -1.171875 
Q 13.96875 -1.171875 12.359375 0.453125 
Q 10.75 2.09375 10.75 4.390625 
Q 10.75 6.6875 12.375 8.296875 
Q 14.015625 9.90625 16.3125 9.90625 
Q 18.609375 9.90625 20.21875 8.296875 
Q 21.828125 6.6875 21.828125 4.390625 
Q 21.828125 2.09375 20.234375 0.453125 
Q 18.65625 -1.171875 16.3125 -1.171875 
z
" id="Times-Roman-46"/>
      </defs>
      <g transform="translate(26 256.11375)scale(0.12 -0.12)">
       <use xlink:href="#Times-Roman-48"/>
       <use x="50" xlink:href="#Times-Roman-46"/>
       <use x="75" xlink:href="#Times-Roman-48"/>
       <use x="125" xlink:href="#Times-Roman-48"/>
      </g>
     </g>
    </g>
    <g id="ytick_2">
     <g id="line2d_9">
      <g>
       <use style="stroke:#000000;stroke-width:0.8;" x="54" xlink:href="#m7611fad11f" y="214.891576"/>
      </g>
     </g>
     <g id="text_10">
      <!-- 0.01 -->
      <g transform="translate(26 219.005326)scale(0.12 -0.12)">
       <use xlink:href="#Times-Roman-48"/>
       <use x="50" xlink:href="#Times-Roman-46"/>
       <use x="75" xlink:href="#Times-Roman-48"/>
       <use x="125" xlink:href="#Times-Roman-49"/>
      </g>
     </g>
    </g>
    <g id="ytick_3">
     <g id="line2d_10">
      <g>
       <use style="stroke:#000000;stroke-width:0.8;" x="54" xlink:href="#m7611fad11f" y="177.783152"/>
      </g>
     </g>
     <g id="text_11">
      <!-- 0.02 -->
      <g transform="translate(26 181.896902)scale(0.12 -0.12)">
       <use xlink:href="#Times-Roman-48"/>
       <use x="50" xlink:href="#Times-Roman-46"/>
       <use x="75" xlink:href="#Times-Roman-48"/>
       <use x="125" xlink:href="#Times-Roman-50"/>
      </g>
     </g>
    </g>
    <g id="ytick_4">
     <g id="line2d_11">
      <g>
       <use style="stroke:#000000;stroke-width:0.8;" x="54" xlink:href="#m7611fad11f" y="140.674728"/>
      </g>
     </g>
     <g id="text_12">
      <!-- 0.03 -->
      <g transform="translate(26 144.788478)scale(0.12 -0.12)">
       <use xlink:href="#Times-Roman-48"/>
       <use x="50" xlink:href="#Times-Roman-46"/>
       <use x="75" xlink:href="#Times-Roman-48"/>
       <use x="125" xlink:href="#Times-Roman-51"/>
      </g>
     </g>
    </g>
    <g id="ytick_5">
     <g id="line2d_12">
      <g>
       <use style="stroke:#000000;stroke-width:0.8;" x="54" xlink:href="#m7611fad11f" y="103.566304"/>
      </g>
     </g>
     <g id="text_13">
      <!-- 0.04 -->
      <g transform="translate(26 107.680054)scale(0.12 -0.12)">
       <use xlink:href="#Times-Roman-48"/>
       <use x="50" xlink:href="#Times-Roman-46"/>
       <use x="75" xlink:href="#Times-Roman-48"/>
       <use x="125" xlink:href="#Times-Roman-52"/>
      </g>
     </g>
    </g>
    <g id="ytick_6">
     <g id="line2d_13">
      <g>
       <use style="stroke:#000000;stroke-width:0.8;" x="54" xlink:href="#m7611fad11f" y="66.45788"/>
      </g>
     </g>
     <g id="text_14">
      <!-- 0.05 -->
      <g transform="translate(26 70.57163)scale(0.12 -0.12)">
       <use xlink:href="#Times-Roman-48"/>
       <use x="50" xlink:href="#Times-Roman-46"/>
       <use x="75" xlink:href="#Times-Roman-48"/>
       <use x="125" xlink:href="#Times-Roman-53"/>
      </g>
     </g>
    </g>
    <g id="text_15">
     <!-- pdf($Y^*$) -->
     <defs>
      <path d="M 15.96875 8.984375 
Q 17.234375 5.671875 19.75 4.03125 
Q 22.265625 2.390625 25.6875 2.390625 
Q 30.953125 2.390625 34.6875 7.640625 
Q 38.421875 12.890625 38.421875 22.265625 
Q 38.421875 31.25 34.546875 35.6875 
Q 30.671875 40.140625 25.53125 40.140625 
Q 21.921875 40.140625 18.9375 37.90625 
Q 15.96875 35.6875 15.96875 33.546875 
L 15.96875 8.984375 
z
M 0.4375 -20.171875 
Q 5.03125 -19.875 6.265625 -18.203125 
Q 7.515625 -16.546875 7.515625 -12.984375 
L 7.515625 33.890625 
Q 7.515625 37.59375 6.609375 38.640625 
Q 5.71875 39.703125 3.21875 39.703125 
Q 2.6875 39.703125 2.21875 39.640625 
Q 1.765625 39.59375 0.875 39.453125 
L 0.875 41.0625 
L 5.515625 42.578125 
Q 5.765625 42.625 15.328125 45.953125 
Q 15.578125 45.953125 15.703125 45.734375 
Q 15.828125 45.515625 15.828125 45.21875 
L 15.828125 38.625 
Q 19.046875 41.84375 21.484375 43.40625 
Q 25.875 46.140625 30.515625 46.140625 
Q 37.25 46.140625 42.109375 40.40625 
Q 46.96875 34.671875 46.96875 24.703125 
Q 46.96875 14.9375 41.125 6.96875 
Q 35.296875 -0.984375 26.46875 -0.984375 
Q 23.734375 -0.984375 21.734375 -0.296875 
Q 18.609375 0.734375 15.96875 3.46875 
L 15.96875 -12.5 
Q 15.96875 -17.4375 17.578125 -18.546875 
Q 19.1875 -19.671875 24.609375 -20.0625 
L 24.609375 -21.78125 
L 0.4375 -21.78125 
z
" id="Times-Roman-112"/>
      <path d="M 23.6875 46.140625 
Q 27.25 46.140625 30.21875 44.578125 
Q 32.171875 43.5625 33.984375 41.75 
L 33.984375 57.28125 
Q 33.984375 60.25 33.328125 61.375 
Q 32.671875 62.5 30.171875 62.5 
Q 29.59375 62.5 29.15625 62.453125 
Q 28.71875 62.40625 27.203125 62.25 
L 27.203125 63.875 
L 31.203125 64.890625 
Q 33.40625 65.484375 35.59375 66.109375 
Q 37.796875 66.75 39.453125 67.328125 
Q 40.234375 67.578125 42.046875 68.265625 
L 42.328125 68.171875 
L 42.234375 63.03125 
Q 42.1875 60.25 42.140625 57.296875 
Q 42.09375 54.34375 42.09375 51.46875 
L 42 11.578125 
Q 42 8.40625 42.78125 7.125 
Q 43.5625 5.859375 46.921875 5.859375 
Q 47.46875 5.859375 48 5.875 
Q 48.53125 5.90625 49.078125 6 
L 49.078125 4.390625 
Q 48.78125 4.296875 42 1.953125 
L 34.328125 -0.921875 
L 33.984375 -0.484375 
L 33.984375 5.515625 
Q 31.25 2.546875 29.25 1.265625 
Q 25.6875 -0.921875 21 -0.921875 
Q 12.703125 -0.921875 7.546875 5.5 
Q 2.390625 11.921875 2.390625 20.359375 
Q 2.390625 30.953125 8.5625 38.546875 
Q 14.75 46.140625 23.6875 46.140625 
z
M 25.484375 4.34375 
Q 29.296875 4.34375 31.640625 6.59375 
Q 33.984375 8.84375 33.984375 10.84375 
L 33.984375 31.78125 
Q 33.984375 38.140625 30.59375 40.75 
Q 27.203125 43.359375 23.96875 43.359375 
Q 17.828125 43.359375 14.40625 37.90625 
Q 10.984375 32.46875 10.984375 24.515625 
Q 10.984375 16.65625 14.625 10.5 
Q 18.265625 4.34375 25.484375 4.34375 
z
" id="Times-Roman-100"/>
      <path d="M 1.953125 1.375 
Q 7.125 1.609375 8.765625 3.296875 
Q 10.40625 4.984375 10.40625 10.40625 
L 10.40625 41.75 
L 2.046875 41.75 
L 2.046875 45.015625 
L 10.40625 45.015625 
Q 10.40625 52.734375 12.5 58.0625 
Q 16.5 68.265625 27.203125 68.265625 
Q 31.5 68.265625 34.890625 66.546875 
Q 38.28125 64.84375 38.28125 61.96875 
Q 38.28125 60.359375 37.109375 59.078125 
Q 35.9375 57.8125 34.28125 57.8125 
Q 32.859375 57.8125 31.828125 58.65625 
Q 30.8125 59.515625 29.390625 61.671875 
L 28.5625 62.9375 
Q 27.875 63.96875 26.953125 64.671875 
Q 26.03125 65.375 24.359375 65.375 
Q 20.65625 65.375 19.34375 61.71875 
Q 18.609375 59.765625 18.609375 56.59375 
L 18.609375 45.015625 
L 30.859375 45.015625 
L 30.859375 41.75 
L 18.703125 41.75 
L 18.703125 10.40625 
Q 18.703125 4.890625 20.1875 3.34375 
Q 21.6875 1.8125 27.984375 1.375 
L 27.984375 0 
L 1.953125 0 
z
" id="Times-Roman-102"/>
      <path d="M 4.59375 25.09375 
Q 4.59375 42.09375 14.75 54.9375 
Q 21 62.796875 29.5 67.578125 
L 30.421875 65.96875 
Q 22.5625 59.71875 19.1875 53.8125 
Q 13.28125 43.5 13.28125 26.375 
Q 13.28125 13.671875 15.53125 5.421875 
Q 19.484375 -9.03125 30.421875 -16.21875 
L 29.15625 -17.828125 
Q 23.140625 -14.9375 16.15625 -6.546875 
Q 4.59375 7.375 4.59375 25.09375 
z
" id="Times-Roman-40"/>
      <path d="M 28.46875 24.609375 
Q 28.46875 17.328125 26.5625 10.828125 
Q 24.65625 4.34375 21 -1.421875 
Q 17.140625 -7.5625 10.6875 -12.890625 
Q 6.453125 -16.40625 3.5625 -17.828125 
L 2.640625 -16.21875 
Q 10.15625 -10.5 13.625 -4.546875 
Q 19.78125 6 19.78125 23.34375 
Q 19.78125 37.359375 16.9375 46.234375 
Q 12.984375 58.796875 2.640625 65.96875 
L 3.90625 67.578125 
Q 11.625 63.28125 18.265625 54.59375 
Q 28.46875 41.21875 28.46875 24.609375 
z
" id="Times-Roman-41"/>
     </defs>
     <g transform="translate(19.36 163.32)rotate(-90)scale(0.12 -0.12)">
      <use transform="translate(0 0.765625)" xlink:href="#Times-Roman-112"/>
      <use transform="translate(50 0.765625)" xlink:href="#Times-Roman-100"/>
      <use transform="translate(100 0.765625)" xlink:href="#Times-Roman-102"/>
      <use transform="translate(133.300781 0.765625)" xlink:href="#Times-Roman-40"/>
      <use transform="translate(166.601562 0.765625)" xlink:href="#DejaVuSans-Oblique-89"/>
      <use transform="translate(248.340013 39.046875)scale(0.7)" xlink:href="#DejaVuSans-42"/>
      <use transform="translate(299.712083 0.765625)" xlink:href="#Times-Roman-41"/>
     </g>
    </g>
   </g>
   <g id="patch_128">
    <path d="M 54 252 
L 54 34.56 
" style="fill:none;stroke:#000000;stroke-linecap:square;stroke-linejoin:miter;stroke-width:0.8;"/>
   </g>
   <g id="patch_129">
    <path d="M 388.8 252 
L 388.8 34.56 
" style="fill:none;stroke:#000000;stroke-linecap:square;stroke-linejoin:miter;stroke-width:0.8;"/>
   </g>
   <g id="patch_130">
    <path d="M 54 252 
L 388.8 252 
" style="fill:none;stroke:#000000;stroke-linecap:square;stroke-linejoin:miter;stroke-width:0.8;"/>
   </g>
   <g id="patch_131">
    <path d="M 54 34.56 
L 388.8 34.56 
" style="fill:none;stroke:#000000;stroke-linecap:square;stroke-linejoin:miter;stroke-width:0.8;"/>
   </g>
   <g id="text_16">
    <!-- $Y^*=\sum_{i=1}^{20} X_i^{*2}$ ;   $X^*$ drawn with replacment -->
    <defs>
     <path d="M 10.59375 45.40625 
L 73.1875 45.40625 
L 73.1875 37.203125 
L 10.59375 37.203125 
z
M 10.59375 25.484375 
L 73.1875 25.484375 
L 73.1875 17.1875 
L 10.59375 17.1875 
z
" id="DejaVuSans-61"/>
     <path d="M 19.1875 8.296875 
L 53.609375 8.296875 
L 53.609375 0 
L 7.328125 0 
L 7.328125 8.296875 
Q 12.9375 14.109375 22.625 23.890625 
Q 32.328125 33.6875 34.8125 36.53125 
Q 39.546875 41.84375 41.421875 45.53125 
Q 43.3125 49.21875 43.3125 52.78125 
Q 43.3125 58.59375 39.234375 62.25 
Q 35.15625 65.921875 28.609375 65.921875 
Q 23.96875 65.921875 18.8125 64.3125 
Q 13.671875 62.703125 7.8125 59.421875 
L 7.8125 69.390625 
Q 13.765625 71.78125 18.9375 73 
Q 24.125 74.21875 28.421875 74.21875 
Q 39.75 74.21875 46.484375 68.546875 
Q 53.21875 62.890625 53.21875 53.421875 
Q 53.21875 48.921875 51.53125 44.890625 
Q 49.859375 40.875 45.40625 35.40625 
Q 44.1875 33.984375 37.640625 27.21875 
Q 31.109375 20.453125 19.1875 8.296875 
z
" id="DejaVuSans-50"/>
     <path d="M 31.78125 66.40625 
Q 24.171875 66.40625 20.328125 58.90625 
Q 16.5 51.421875 16.5 36.375 
Q 16.5 21.390625 20.328125 13.890625 
Q 24.171875 6.390625 31.78125 6.390625 
Q 39.453125 6.390625 43.28125 13.890625 
Q 47.125 21.390625 47.125 36.375 
Q 47.125 51.421875 43.28125 58.90625 
Q 39.453125 66.40625 31.78125 66.40625 
z
M 31.78125 74.21875 
Q 44.046875 74.21875 50.515625 64.515625 
Q 56.984375 54.828125 56.984375 36.375 
Q 56.984375 17.96875 50.515625 8.265625 
Q 44.046875 -1.421875 31.78125 -1.421875 
Q 19.53125 -1.421875 13.0625 8.265625 
Q 6.59375 17.96875 6.59375 36.375 
Q 6.59375 54.828125 13.0625 64.515625 
Q 19.53125 74.21875 31.78125 74.21875 
z
" id="DejaVuSans-48"/>
     <path d="M 3.8125 101.703125 
L 90.671875 101.703125 
L 90.671875 88.375 
L 24.46875 88.375 
L 70.84375 38.875 
L 22.953125 -13.875 
L 92.484375 -13.875 
L 92.484375 -27.15625 
L 1.703125 -27.15625 
L 1.703125 -16.84375 
L 51.8125 38.484375 
L 3.8125 89.5 
z
" id="DejaVuSansDisplay-8721"/>
     <path d="M 18.3125 75.984375 
L 27.296875 75.984375 
L 25.09375 64.59375 
L 16.109375 64.59375 
z
M 14.203125 54.6875 
L 23.1875 54.6875 
L 12.5 0 
L 3.515625 0 
z
" id="DejaVuSans-Oblique-105"/>
     <path d="M 12.40625 8.296875 
L 28.515625 8.296875 
L 28.515625 63.921875 
L 10.984375 60.40625 
L 10.984375 69.390625 
L 28.421875 72.90625 
L 38.28125 72.90625 
L 38.28125 8.296875 
L 54.390625 8.296875 
L 54.390625 0 
L 12.40625 0 
z
" id="DejaVuSans-49"/>
     <path d="M 13.71875 72.90625 
L 23.6875 72.90625 
L 36.1875 46.578125 
L 58.796875 72.90625 
L 70.3125 72.90625 
L 40.28125 38.09375 
L 58.40625 0 
L 48.484375 0 
L 33.796875 30.71875 
L 7.171875 0 
L -4.296875 0 
L 29.78125 39.203125 
z
" id="DejaVuSans-Oblique-88"/>
     <path id="Times-Roman-32"/>
     <path d="M 22.3125 1.03125 
Q 22.3125 -3.8125 18.796875 -8.078125 
Q 15.28125 -12.359375 11.078125 -14.265625 
L 10.15625 -12.3125 
Q 14.84375 -9.671875 16.625 -6.59375 
Q 18.40625 -3.515625 18.40625 -1.46875 
Q 18.40625 -0.78125 17.96875 -0.578125 
Q 17.53125 -0.390625 17.046875 -0.390625 
L 13.765625 -0.734375 
Q 11.71875 -0.734375 10 0.609375 
Q 8.296875 1.953125 8.296875 4.5 
Q 8.296875 6.453125 9.71875 8.296875 
Q 11.140625 10.15625 14.359375 10.15625 
Q 17.4375 10.15625 19.875 7.734375 
Q 22.3125 5.328125 22.3125 1.03125 
z
M 13.96875 34.8125 
Q 11.625 34.8125 10.03125 36.453125 
Q 8.453125 38.09375 8.453125 40.375 
Q 8.453125 42.671875 10.0625 44.3125 
Q 11.671875 45.953125 13.96875 45.953125 
Q 16.265625 45.953125 17.890625 44.3125 
Q 19.53125 42.671875 19.53125 40.375 
Q 19.53125 38.09375 17.921875 36.453125 
Q 16.3125 34.8125 13.96875 34.8125 
z
" id="Times-Roman-59"/>
     <path d="M 0.4375 1.609375 
Q 4.9375 2 6.390625 3.1875 
Q 7.859375 4.390625 7.859375 8.296875 
L 7.859375 30.328125 
Q 7.859375 35.15625 6.953125 37.234375 
Q 6.0625 39.3125 3.65625 39.3125 
Q 3.171875 39.3125 2.359375 39.1875 
Q 1.5625 39.0625 0.6875 38.875 
L 0.6875 40.484375 
Q 3.46875 41.453125 6.390625 42.46875 
Q 9.328125 43.5 10.453125 43.953125 
Q 12.890625 44.875 15.484375 46.046875 
Q 15.828125 46.046875 15.890625 45.796875 
Q 15.96875 45.5625 15.96875 44.78125 
L 15.96875 36.765625 
Q 19.09375 41.109375 22 43.546875 
Q 24.90625 46 28.03125 46 
Q 30.515625 46 32.078125 44.5 
Q 33.640625 43.015625 33.640625 40.765625 
Q 33.640625 38.765625 32.4375 37.390625 
Q 31.25 36.03125 29.4375 36.03125 
Q 27.59375 36.03125 25.703125 37.734375 
Q 23.828125 39.453125 22.75 39.453125 
Q 21.046875 39.453125 18.546875 36.6875 
Q 16.0625 33.9375 16.0625 31 
L 16.0625 8.984375 
Q 16.0625 4.78125 18.015625 3.140625 
Q 19.96875 1.515625 24.515625 1.609375 
L 24.515625 0 
L 0.4375 0 
z
" id="Times-Roman-114"/>
     <path d="M 28.65625 27.046875 
Q 23.046875 25.203125 19.390625 22.953125 
Q 12.359375 18.609375 12.359375 13.09375 
Q 12.359375 8.640625 15.28125 6.546875 
Q 17.1875 5.171875 19.53125 5.171875 
Q 22.75 5.171875 25.703125 6.984375 
Q 28.65625 8.796875 28.65625 11.578125 
z
M 3.65625 9.71875 
Q 3.65625 16.796875 10.75 21.53125 
Q 15.234375 24.46875 28.65625 29.5 
L 28.65625 33.640625 
Q 28.65625 38.625 27.6875 40.578125 
Q 26.03125 43.84375 20.796875 43.84375 
Q 18.3125 43.84375 16.0625 42.578125 
Q 13.8125 41.265625 13.8125 38.96875 
Q 13.8125 38.375 14.0625 36.984375 
Q 14.3125 35.59375 14.3125 35.203125 
Q 14.3125 32.46875 12.5 31.390625 
Q 11.46875 30.765625 10.0625 30.765625 
Q 7.859375 30.765625 6.6875 32.203125 
Q 5.515625 33.640625 5.515625 35.40625 
Q 5.515625 38.8125 9.734375 42.546875 
Q 13.96875 46.296875 22.125 46.296875 
Q 31.59375 46.296875 34.96875 40.140625 
Q 36.765625 36.765625 36.765625 30.328125 
L 36.765625 10.75 
Q 36.765625 7.90625 37.15625 6.84375 
Q 37.796875 4.9375 39.796875 4.9375 
Q 40.921875 4.9375 41.65625 5.265625 
Q 42.390625 5.609375 44.1875 6.9375 
L 44.1875 4.390625 
Q 42.625 2.484375 40.828125 1.265625 
Q 38.09375 -0.59375 35.25 -0.59375 
Q 31.9375 -0.59375 30.4375 1.5625 
Q 28.953125 3.71875 28.8125 6.6875 
Q 25.09375 3.46875 22.46875 1.90625 
Q 18.015625 -0.734375 14.015625 -0.734375 
Q 9.8125 -0.734375 6.734375 2.21875 
Q 3.65625 5.171875 3.65625 9.71875 
z
M 22.265625 46.296875 
z
" id="Times-Roman-97"/>
     <path d="M 46.484375 43.84375 
Q 43.5625 43.5 42.140625 42.859375 
Q 40.71875 42.234375 40.71875 40.328125 
Q 40.71875 39.3125 41.03125 38.203125 
Q 41.359375 37.109375 41.890625 35.640625 
L 50.78125 12.453125 
L 59.46875 33.640625 
Q 60.0625 35.015625 60.734375 37.234375 
Q 61.421875 39.453125 61.421875 40.578125 
Q 61.421875 42.390625 60.296875 43.015625 
Q 59.1875 43.65625 57.03125 43.953125 
L 57.03125 45.359375 
L 69.4375 45.359375 
L 69.4375 43.953125 
Q 68.21875 43.703125 67.4375 42.765625 
Q 66.65625 41.84375 65.234375 38.375 
L 49.609375 -0.140625 
Q 49.421875 -0.59375 49.265625 -0.78125 
Q 49.125 -0.984375 48.828125 -0.984375 
Q 48.25 -0.6875 48.140625 -0.484375 
L 37.109375 26.8125 
L 24.265625 -0.390625 
Q 24.171875 -0.640625 24 -0.8125 
Q 23.828125 -0.984375 23.578125 -0.984375 
Q 23 -0.6875 22.90625 -0.484375 
L 8.296875 35.5 
Q 5.90625 41.40625 5.125 42.453125 
Q 4.34375 43.5 2.046875 43.84375 
L 2.046875 45.359375 
L 20.125 45.359375 
L 20.125 43.84375 
Q 17.875 43.65625 16.671875 43.046875 
Q 15.484375 42.4375 15.484375 40.4375 
Q 15.484375 39.015625 17.484375 33.5 
Q 18.65625 30.328125 20.453125 25.78125 
L 26.03125 11.921875 
L 34.8125 30.765625 
L 34.90625 31.34375 
Q 34.90625 32.328125 33.859375 34.984375 
Q 32.8125 37.640625 31.84375 39.75 
Q 30.859375 41.9375 29.609375 42.796875 
Q 28.375 43.65625 26.125 43.84375 
L 26.125 45.359375 
L 46.484375 45.359375 
z
" id="Times-Roman-119"/>
     <path d="M 1.8125 1.375 
Q 5.28125 1.8125 6.671875 3.09375 
Q 8.0625 4.390625 8.0625 8.890625 
L 8.0625 33.640625 
Q 8.0625 36.765625 7.46875 38.03125 
Q 6.546875 39.890625 3.65625 39.890625 
Q 3.21875 39.890625 2.75 39.84375 
Q 2.296875 39.796875 1.609375 39.703125 
L 1.609375 41.40625 
Q 3.609375 42 11.078125 44.4375 
L 15.671875 45.953125 
Q 16.015625 45.953125 16.078125 45.703125 
Q 16.15625 45.453125 16.15625 45.015625 
L 16.15625 37.84375 
Q 20.65625 42.046875 23.1875 43.609375 
Q 27 46 31.109375 46 
Q 34.421875 46 37.15625 44.09375 
Q 42.4375 40.375 42.4375 30.859375 
L 42.4375 8.0625 
Q 42.4375 4.546875 43.84375 2.984375 
Q 45.265625 1.421875 48.578125 1.375 
L 48.578125 0 
L 27.734375 0 
L 27.734375 1.375 
Q 31.296875 1.859375 32.703125 3.34375 
Q 34.125 4.828125 34.125 9.8125 
L 34.125 30.671875 
Q 34.125 34.859375 32.5625 37.609375 
Q 31 40.375 26.8125 40.375 
Q 23.921875 40.375 20.953125 38.421875 
Q 19.28125 37.3125 16.65625 34.71875 
L 16.65625 7.375 
Q 16.65625 3.859375 18.21875 2.65625 
Q 19.78125 1.46875 23.140625 1.375 
L 23.140625 0 
L 1.8125 0 
z
M 25.046875 46 
z
" id="Times-Roman-110"/>
     <path d="M 8.203125 63.03125 
Q 8.203125 65.140625 9.671875 66.65625 
Q 11.140625 68.171875 13.28125 68.171875 
Q 15.375 68.171875 16.859375 66.671875 
Q 18.359375 65.1875 18.359375 63.03125 
Q 18.359375 60.9375 16.859375 59.4375 
Q 15.375 57.953125 13.28125 57.953125 
Q 11.140625 57.953125 9.671875 59.4375 
Q 8.203125 60.9375 8.203125 63.03125 
z
M 1.953125 1.375 
Q 7.171875 1.859375 8.53125 3.140625 
Q 9.90625 4.4375 9.90625 10.15625 
L 9.90625 33.453125 
Q 9.90625 36.625 9.46875 37.84375 
Q 8.734375 39.84375 6.390625 39.84375 
Q 5.859375 39.84375 5.34375 39.75 
Q 4.828125 39.65625 2.390625 38.96875 
L 2.390625 40.484375 
L 4.5 41.15625 
Q 13.03125 43.953125 16.40625 45.359375 
Q 17.78125 45.953125 18.171875 45.953125 
Q 18.265625 45.609375 18.265625 45.21875 
L 18.265625 10.15625 
Q 18.265625 4.59375 19.609375 3.171875 
Q 20.953125 1.765625 25.6875 1.375 
L 25.6875 0 
L 1.953125 0 
z
" id="Times-Roman-105"/>
     <path d="M 25.4375 45.015625 
L 25.4375 41.5 
L 15.484375 41.5 
L 15.375 13.375 
Q 15.375 9.671875 16.015625 7.765625 
Q 17.1875 4.390625 20.609375 4.390625 
Q 22.359375 4.390625 23.65625 5.21875 
Q 24.953125 6.0625 26.609375 7.859375 
L 27.875 6.78125 
L 26.8125 5.328125 
Q 24.265625 1.90625 21.4375 0.484375 
Q 18.609375 -0.921875 15.96875 -0.921875 
Q 10.203125 -0.921875 8.15625 4.203125 
Q 7.03125 6.984375 7.03125 11.921875 
L 7.03125 41.5 
L 1.703125 41.5 
Q 1.46875 41.65625 1.34375 41.796875 
Q 1.21875 41.9375 1.21875 42.1875 
Q 1.21875 42.671875 1.4375 42.9375 
Q 1.65625 43.21875 2.828125 44.1875 
Q 6.203125 46.96875 7.6875 48.703125 
Q 9.1875 50.4375 14.703125 57.859375 
Q 15.328125 57.859375 15.453125 57.765625 
Q 15.578125 57.671875 15.578125 57.03125 
L 15.578125 45.015625 
z
" id="Times-Roman-116"/>
     <path d="M 0.875 1.375 
Q 4.890625 1.90625 6.125 3.34375 
Q 7.375 4.78125 7.375 10.15625 
L 7.375 57.03125 
Q 7.375 59.765625 6.65625 61.0625 
Q 5.953125 62.359375 3.21875 62.359375 
Q 2.6875 62.359375 2.171875 62.28125 
Q 1.65625 62.203125 1.03125 62.109375 
L 1.03125 63.875 
Q 3.171875 64.5 6.3125 65.40625 
Q 9.46875 66.3125 10.6875 66.703125 
L 15.375 68.171875 
L 15.484375 67.828125 
L 15.484375 37.84375 
Q 18.5625 41.359375 20.953125 43.015625 
Q 25.25 45.953125 30.21875 45.953125 
Q 38.140625 45.953125 41.015625 39.3125 
Q 42.578125 35.796875 42.578125 30.078125 
L 42.578125 10.15625 
Q 42.578125 4.984375 43.765625 3.421875 
Q 44.96875 1.859375 48.6875 1.375 
L 48.6875 0 
L 27.546875 0 
L 27.546875 1.375 
Q 31.78125 1.953125 33 3.359375 
Q 34.234375 4.78125 34.234375 10.15625 
L 34.234375 29.9375 
Q 34.234375 34.671875 32.640625 37.59375 
Q 31.0625 40.53125 26.65625 40.53125 
Q 22.859375 40.53125 19.28125 37.796875 
Q 15.71875 35.0625 15.71875 34.234375 
L 15.71875 10.15625 
Q 15.71875 4.6875 16.984375 3.3125 
Q 18.265625 1.953125 22.40625 1.375 
L 22.40625 0 
L 0.875 0 
z
" id="Times-Roman-104"/>
     <path d="M 22.90625 45.796875 
Q 29.78125 45.796875 34.953125 41.03125 
Q 40.140625 36.28125 40.140625 27.546875 
L 9.125 27.546875 
Q 9.625 16.21875 14.25 11.03125 
Q 18.890625 5.859375 25.25 5.859375 
Q 30.375 5.859375 33.890625 8.546875 
Q 37.40625 11.234375 40.375 16.15625 
L 42.09375 15.578125 
Q 40.09375 9.375 34.59375 4.09375 
Q 29.109375 -1.171875 21.140625 -1.171875 
Q 11.96875 -1.171875 6.953125 5.765625 
Q 1.953125 12.703125 1.953125 21.734375 
Q 1.953125 31.546875 7.765625 38.671875 
Q 13.578125 45.796875 22.90625 45.796875 
z
M 20.0625 42.234375 
Q 14.5 42.234375 11.578125 37.3125 
Q 10.015625 34.671875 9.328125 30.671875 
L 29.9375 30.671875 
Q 29.390625 35.546875 28.078125 37.9375 
Q 25.6875 42.234375 20.0625 42.234375 
z
M 22.265625 45.796875 
z
" id="Times-Roman-101"/>
     <path d="M 2.046875 1.375 
Q 6.59375 1.8125 8.203125 3.203125 
Q 9.8125 4.59375 9.8125 8.640625 
L 9.8125 56.34375 
Q 9.8125 59.578125 9.28125 60.796875 
Q 8.296875 62.84375 5.328125 62.84375 
Q 4.640625 62.84375 3.828125 62.6875 
Q 3.03125 62.546875 1.8125 62.25 
L 1.8125 63.875 
Q 8.40625 65.625 17.671875 68.5625 
Q 18.015625 68.5625 18.09375 68.265625 
Q 18.171875 67.96875 18.171875 67 
L 18.171875 8.453125 
Q 18.171875 4.203125 19.625 2.953125 
Q 21.09375 1.703125 25.6875 1.375 
L 25.6875 0 
L 2.046875 0 
z
" id="Times-Roman-108"/>
     <path d="M 24.859375 46.046875 
Q 30.953125 46.046875 35.375 42.890625 
Q 39.796875 39.75 39.796875 35.984375 
Q 39.796875 34.375 38.671875 32.984375 
Q 37.546875 31.59375 35.203125 31.59375 
Q 33.5 31.59375 32.203125 32.765625 
Q 30.90625 33.9375 30.328125 36.1875 
L 29.734375 38.53125 
Q 29.109375 41.109375 27.546875 42.1875 
Q 25.921875 43.21875 23.296875 43.21875 
Q 17.71875 43.21875 13.890625 38.359375 
Q 10.0625 33.5 10.0625 25.4375 
Q 10.0625 18.0625 14.28125 12.203125 
Q 18.5 6.34375 25.6875 6.34375 
Q 30.765625 6.34375 34.71875 9.671875 
Q 36.96875 11.578125 39.796875 15.71875 
L 41.15625 14.890625 
Q 38.375 9.03125 35.296875 5.609375 
Q 29.390625 -0.921875 21.625 -0.921875 
Q 14.015625 -0.921875 8.15625 5.078125 
Q 2.296875 11.078125 2.296875 21.390625 
Q 2.296875 31.5 8.6875 38.765625 
Q 15.09375 46.046875 24.859375 46.046875 
z
M 22.703125 46.046875 
z
" id="Times-Roman-99"/>
     <path d="M 1.609375 1.265625 
Q 5.421875 1.609375 6.6875 2.546875 
Q 8.640625 3.953125 8.640625 8.203125 
L 8.640625 33.453125 
Q 8.640625 37.0625 7.6875 38.1875 
Q 6.734375 39.3125 4.546875 39.3125 
Q 3.515625 39.3125 3 39.203125 
Q 2.484375 39.109375 1.8125 38.875 
L 1.8125 40.578125 
L 5.328125 41.75 
Q 7.234375 42.390625 11.578125 44.046875 
Q 15.921875 45.703125 16.15625 45.703125 
Q 16.40625 45.703125 16.453125 45.453125 
Q 16.5 45.21875 16.5 44.53125 
L 16.5 37.9375 
Q 21.34375 42.328125 24.859375 44.015625 
Q 28.375 45.703125 32.078125 45.703125 
Q 37.109375 45.703125 40.09375 42.28125 
Q 41.65625 40.4375 42.671875 37.25 
Q 46.296875 40.921875 48.96875 42.671875 
Q 53.609375 45.703125 58.453125 45.703125 
Q 66.3125 45.703125 68.953125 39.3125 
Q 70.453125 35.6875 70.453125 27.875 
L 70.453125 7.625 
Q 70.453125 4.15625 71.984375 2.90625 
Q 73.53125 1.65625 77.546875 1.265625 
L 77.546875 0 
L 55.515625 0 
L 55.515625 1.375 
Q 59.765625 1.765625 61.109375 3.078125 
Q 62.453125 4.390625 62.453125 8.453125 
L 62.453125 29.5 
Q 62.453125 34.234375 61.421875 36.46875 
Q 59.625 40.484375 54.34375 40.484375 
Q 51.171875 40.484375 48.046875 38.375 
Q 46.234375 37.15625 43.609375 34.46875 
L 43.609375 9.46875 
Q 43.609375 5.515625 45 3.46875 
Q 46.390625 1.421875 50.875 1.265625 
L 50.875 0 
L 28.46875 0 
L 28.46875 1.265625 
Q 33.109375 1.859375 34.375 3.515625 
Q 35.640625 5.171875 35.640625 11.671875 
L 35.640625 25.34375 
Q 35.640625 32.859375 34.671875 35.6875 
Q 33.0625 40.484375 27.828125 40.484375 
Q 24.859375 40.484375 21.96875 38.84375 
Q 19.09375 37.203125 16.890625 34.578125 
L 16.890625 7.859375 
Q 16.890625 4.15625 18.1875 2.734375 
Q 19.484375 1.3125 23.828125 1.265625 
L 23.828125 0 
L 1.609375 0 
z
" id="Times-Roman-109"/>
    </defs>
    <g transform="translate(93.312 3.072)scale(0.144 -0.144)">
     <use transform="translate(0 0.848438)" xlink:href="#DejaVuSans-Oblique-89"/>
     <use transform="translate(81.738451 39.129688)scale(0.7)" xlink:href="#DejaVuSans-42"/>
     <use transform="translate(152.592943 0.848438)" xlink:href="#DejaVuSans-61"/>
     <use transform="translate(285.864427 141.046875)scale(0.7)" xlink:href="#DejaVuSans-50"/>
     <use transform="translate(330.40056 141.046875)scale(0.7)" xlink:href="#DejaVuSans-48"/>
     <use transform="translate(285.864427 19.598437)" xlink:href="#DejaVuSansDisplay-8721"/>
     <use transform="translate(255.864427 -79.496875)scale(0.7)" xlink:href="#DejaVuSans-Oblique-105"/>
     <use transform="translate(288.950365 -79.496875)scale(0.7)" xlink:href="#DejaVuSans-61"/>
     <use transform="translate(361.240404 -79.496875)scale(0.7)" xlink:href="#DejaVuSans-49"/>
     <use transform="translate(405.776536 0.848438)" xlink:href="#DejaVuSans-Oblique-88"/>
     <use transform="translate(481.299167 39.19375)scale(0.7)" xlink:href="#DejaVuSans-42"/>
     <use transform="translate(516.299167 39.19375)scale(0.7)" xlink:href="#DejaVuSans-50"/>
     <use transform="translate(474.282396 -26.495312)scale(0.7)" xlink:href="#DejaVuSans-Oblique-105"/>
     <use transform="translate(563.569674 0.848438)" xlink:href="#Times-Roman-32"/>
     <use transform="translate(588.569674 0.848438)" xlink:href="#Times-Roman-59"/>
     <use transform="translate(616.352878 0.848438)" xlink:href="#Times-Roman-32"/>
     <use transform="translate(641.352878 0.848438)" xlink:href="#Times-Roman-32"/>
     <use transform="translate(666.352878 0.848438)" xlink:href="#Times-Roman-32"/>
     <use transform="translate(691.352878 0.848438)" xlink:href="#DejaVuSans-Oblique-88"/>
     <use transform="translate(780.513203 39.129688)scale(0.7)" xlink:href="#DejaVuSans-42"/>
     <use transform="translate(831.885273 0.848438)" xlink:href="#Times-Roman-32"/>
     <use transform="translate(856.885273 0.848438)" xlink:href="#Times-Roman-100"/>
     <use transform="translate(906.885273 0.848438)" xlink:href="#Times-Roman-114"/>
     <use transform="translate(940.186055 0.848438)" xlink:href="#Times-Roman-97"/>
     <use transform="translate(984.57082 0.848438)" xlink:href="#Times-Roman-119"/>
     <use transform="translate(1056.787617 0.848438)" xlink:href="#Times-Roman-110"/>
     <use transform="translate(1106.787617 0.848438)" xlink:href="#Times-Roman-32"/>
     <use transform="translate(1131.787617 0.848438)" xlink:href="#Times-Roman-119"/>
     <use transform="translate(1204.004414 0.848438)" xlink:href="#Times-Roman-105"/>
     <use transform="translate(1231.787617 0.848438)" xlink:href="#Times-Roman-116"/>
     <use transform="translate(1259.57082 0.848438)" xlink:href="#Times-Roman-104"/>
     <use transform="translate(1309.57082 0.848438)" xlink:href="#Times-Roman-32"/>
     <use transform="translate(1334.57082 0.848438)" xlink:href="#Times-Roman-114"/>
     <use transform="translate(1367.871602 0.848438)" xlink:href="#Times-Roman-101"/>
     <use transform="translate(1412.256367 0.848438)" xlink:href="#Times-Roman-112"/>
     <use transform="translate(1462.256367 0.848438)" xlink:href="#Times-Roman-108"/>
     <use transform="translate(1490.03957 0.848438)" xlink:href="#Times-Roman-97"/>
     <use transform="translate(1534.424336 0.848438)" xlink:href="#Times-Roman-99"/>
     <use transform="translate(1578.809102 0.848438)" xlink:href="#Times-Roman-109"/>
     <use transform="translate(1656.592305 0.848438)" xlink:href="#Times-Roman-101"/>
     <use transform="translate(1700.97707 0.848438)" xlink:href="#Times-Roman-110"/>
     <use transform="translate(1750.97707 0.848438)" xlink:href="#Times-Roman-116"/>
    </g>
    <!-- from sample $[X_1, X_2, ..., X_{20}]$   $X \sim{\mathcal{N}(0, 1)}$ -->
    <defs>
     <path d="M 2.546875 22.65625 
Q 2.546875 32.375 8.71875 39.078125 
Q 14.890625 45.796875 24.609375 45.796875 
Q 34.28125 45.796875 40.625 39.453125 
Q 46.96875 33.109375 46.96875 22.5625 
Q 46.96875 12.84375 40.8125 5.65625 
Q 34.671875 -1.515625 24.90625 -1.515625 
Q 15.53125 -1.515625 9.03125 5.359375 
Q 2.546875 12.25 2.546875 22.65625 
z
M 23.25 42.875 
Q 19.390625 42.875 16.546875 40.328125 
Q 11.671875 35.890625 11.671875 25 
Q 11.671875 16.3125 15.59375 8.78125 
Q 19.53125 1.265625 26.515625 1.265625 
Q 31.984375 1.265625 34.9375 6.296875 
Q 37.890625 11.328125 37.890625 19.484375 
Q 37.890625 27.9375 34.125 35.40625 
Q 30.375 42.875 23.25 42.875 
z
M 25.046875 45.796875 
z
" id="Times-Roman-111"/>
     <path d="M 5.171875 15.375 
L 6.78125 15.375 
Q 7.90625 9.8125 9.8125 6.84375 
Q 13.234375 1.375 19.828125 1.375 
Q 23.484375 1.375 25.609375 3.390625 
Q 27.734375 5.421875 27.734375 8.640625 
Q 27.734375 10.6875 26.515625 12.59375 
Q 25.296875 14.5 22.21875 16.3125 
L 16.75 19.4375 
Q 10.75 22.65625 7.90625 25.921875 
Q 5.078125 29.203125 5.078125 33.640625 
Q 5.078125 39.109375 8.984375 42.625 
Q 12.890625 46.140625 18.796875 46.140625 
Q 21.390625 46.140625 24.484375 45.15625 
Q 27.59375 44.1875 27.984375 44.1875 
Q 28.859375 44.1875 29.25 44.421875 
Q 29.640625 44.671875 29.9375 45.21875 
L 31.109375 45.21875 
L 31.453125 31.59375 
L 29.9375 31.59375 
Q 28.953125 36.328125 27.296875 38.96875 
Q 24.265625 43.84375 18.5625 43.84375 
Q 15.140625 43.84375 13.1875 41.75 
Q 11.234375 39.65625 11.234375 36.8125 
Q 11.234375 32.328125 17.96875 28.8125 
L 24.421875 25.34375 
Q 34.8125 19.671875 34.8125 12.15625 
Q 34.8125 6.390625 30.484375 2.734375 
Q 26.171875 -0.921875 19.1875 -0.921875 
Q 16.265625 -0.921875 12.546875 0.046875 
Q 8.84375 1.03125 8.15625 1.03125 
Q 7.5625 1.03125 7.125 0.609375 
Q 6.6875 0.203125 6.453125 -0.390625 
L 5.171875 -0.390625 
z
M 19.484375 46.140625 
z
" id="Times-Roman-115"/>
     <path d="M 8.59375 75.984375 
L 29.296875 75.984375 
L 29.296875 69 
L 17.578125 69 
L 17.578125 -6.203125 
L 29.296875 -6.203125 
L 29.296875 -13.1875 
L 8.59375 -13.1875 
z
" id="DejaVuSans-91"/>
     <path d="M 11.71875 12.40625 
L 22.015625 12.40625 
L 22.015625 4 
L 14.015625 -11.625 
L 7.71875 -11.625 
L 11.71875 4 
z
" id="DejaVuSans-44"/>
     <path d="M 10.6875 12.40625 
L 21 12.40625 
L 21 0 
L 10.6875 0 
z
" id="DejaVuSans-46"/>
     <path d="M 30.421875 75.984375 
L 30.421875 -13.1875 
L 9.71875 -13.1875 
L 9.71875 -6.203125 
L 21.390625 -6.203125 
L 21.390625 69 
L 9.71875 69 
L 9.71875 75.984375 
z
" id="DejaVuSans-93"/>
     <path d="M 73.1875 39.9375 
L 73.1875 31.203125 
Q 68.0625 27.390625 63.6875 25.703125 
Q 59.328125 24.03125 54.59375 24.03125 
Q 49.21875 24.03125 42.09375 26.90625 
Q 41.609375 27.09375 41.265625 27.25 
Q 40.96875 27.34375 40.234375 27.640625 
Q 32.671875 30.609375 28.078125 30.609375 
Q 23.78125 30.609375 19.578125 28.75 
Q 15.375 26.90625 10.59375 22.796875 
L 10.59375 31.546875 
Q 15.71875 35.359375 20.09375 37.03125 
Q 24.46875 38.71875 29.203125 38.71875 
Q 34.578125 38.71875 41.75 35.84375 
Q 42.28125 35.59375 42.53125 35.5 
Q 42.828125 35.40625 43.5625 35.109375 
Q 51.125 32.125 55.71875 32.125 
Q 59.90625 32.125 64.03125 33.953125 
Q 68.171875 35.796875 73.1875 39.9375 
z
" id="DejaVuSans-8764"/>
     <path d="M 67.09375 12.5 
L 67.203125 12.5 
Q 82.703125 63.59375 84.5 68.40625 
Q 85.5 70.90625 86.296875 72.09375 
Q 91.09375 79.5 97.703125 79.5 
Q 101.40625 79.5 103.90625 77.046875 
Q 106.40625 74.59375 106.40625 71.09375 
Q 106.40625 68.40625 105 66.75 
Q 103.59375 65.09375 101.09375 65.09375 
Q 99.5 65.09375 98.390625 66 
Q 97.296875 66.90625 96.84375 67.953125 
Q 96.40625 69 95.59375 69.890625 
Q 94.796875 70.796875 93.796875 70.796875 
Q 92.796875 70.796875 91.890625 70.4375 
Q 91 70.09375 90.390625 69.640625 
Q 89.796875 69.203125 89.140625 68.296875 
Q 88.5 67.40625 88.09375 66.796875 
Q 87.703125 66.203125 87.25 65.046875 
Q 86.796875 63.90625 86.640625 63.40625 
Q 86.5 62.90625 86.09375 61.75 
Q 85.703125 60.59375 85.703125 60.40625 
L 66.59375 -2.40625 
L 64.59375 -2.40625 
Q 48.09375 20 38.796875 45.203125 
L 38.59375 45.203125 
Q 37.59375 40.296875 36.84375 36.890625 
Q 36.09375 33.5 34.59375 28 
Q 33.09375 22.5 31.6875 18.59375 
Q 30.296875 14.703125 28.1875 10.203125 
Q 26.09375 5.703125 23.890625 2.890625 
Q 21.703125 0.09375 18.796875 -1.796875 
Q 15.90625 -3.703125 12.703125 -3.703125 
Q 9 -3.703125 6.5 -1.25 
Q 4 1.203125 4 4.703125 
Q 4 7.40625 5.390625 9.046875 
Q 6.796875 10.703125 9.296875 10.703125 
Q 10.90625 10.703125 12 9.796875 
Q 13.09375 8.90625 13.546875 7.84375 
Q 14 6.796875 14.796875 5.890625 
Q 15.59375 5 16.59375 5 
Q 19.09375 5 21.390625 7.5 
Q 23.703125 10 25.59375 14.5 
Q 27.5 19 29.09375 24.09375 
Q 30.703125 29.203125 32.140625 35.75 
Q 33.59375 42.296875 34.59375 47.390625 
Q 35.59375 52.5 36.6875 58.453125 
Q 37.796875 64.40625 38.40625 67.09375 
L 41.09375 67.09375 
Q 41.90625 65.09375 44.90625 57.5 
Q 47.90625 49.90625 49.09375 47 
Q 50.296875 44.09375 53 37.84375 
Q 55.703125 31.59375 57.546875 28.09375 
Q 59.40625 24.59375 62 20.1875 
Q 64.59375 15.796875 67.09375 12.5 
z
" id="STIXNonUnicode-Italic-57914"/>
     <path d="M 31 75.875 
Q 24.46875 64.65625 21.28125 53.65625 
Q 18.109375 42.671875 18.109375 31.390625 
Q 18.109375 20.125 21.3125 9.0625 
Q 24.515625 -2 31 -13.1875 
L 23.1875 -13.1875 
Q 15.875 -1.703125 12.234375 9.375 
Q 8.59375 20.453125 8.59375 31.390625 
Q 8.59375 42.28125 12.203125 53.3125 
Q 15.828125 64.359375 23.1875 75.875 
z
" id="DejaVuSans-40"/>
     <path d="M 8.015625 75.875 
L 15.828125 75.875 
Q 23.140625 64.359375 26.78125 53.3125 
Q 30.421875 42.28125 30.421875 31.390625 
Q 30.421875 20.453125 26.78125 9.375 
Q 23.140625 -1.703125 15.828125 -13.1875 
L 8.015625 -13.1875 
Q 14.5 -2 17.703125 9.0625 
Q 20.90625 20.125 20.90625 31.390625 
Q 20.90625 42.671875 17.703125 53.65625 
Q 14.5 64.65625 8.015625 75.875 
z
" id="DejaVuSans-41"/>
    </defs>
    <g transform="translate(82.872 28.56)scale(0.144 -0.144)">
     <use transform="translate(0 0.5)" xlink:href="#Times-Roman-102"/>
     <use transform="translate(33.300781 0.5)" xlink:href="#Times-Roman-114"/>
     <use transform="translate(66.601562 0.5)" xlink:href="#Times-Roman-111"/>
     <use transform="translate(116.601562 0.5)" xlink:href="#Times-Roman-109"/>
     <use transform="translate(194.384766 0.5)" xlink:href="#Times-Roman-32"/>
     <use transform="translate(219.384766 0.5)" xlink:href="#Times-Roman-115"/>
     <use transform="translate(258.300781 0.5)" xlink:href="#Times-Roman-97"/>
     <use transform="translate(302.685547 0.5)" xlink:href="#Times-Roman-109"/>
     <use transform="translate(380.46875 0.5)" xlink:href="#Times-Roman-112"/>
     <use transform="translate(430.46875 0.5)" xlink:href="#Times-Roman-108"/>
     <use transform="translate(458.251953 0.5)" xlink:href="#Times-Roman-101"/>
     <use transform="translate(502.636719 0.5)" xlink:href="#Times-Roman-32"/>
     <use transform="translate(527.636719 0.5)" xlink:href="#DejaVuSans-91"/>
     <use transform="translate(566.650391 0.5)" xlink:href="#DejaVuSans-Oblique-88"/>
     <use transform="translate(635.15625 -15.90625)scale(0.7)" xlink:href="#DejaVuSans-49"/>
     <use transform="translate(682.426758 0.5)" xlink:href="#DejaVuSans-44"/>
     <use transform="translate(733.696289 0.5)" xlink:href="#DejaVuSans-Oblique-88"/>
     <use transform="translate(802.202148 -15.90625)scale(0.7)" xlink:href="#DejaVuSans-50"/>
     <use transform="translate(849.472656 0.5)" xlink:href="#DejaVuSans-44"/>
     <use transform="translate(900.742188 0.5)" xlink:href="#DejaVuSans-46"/>
     <use transform="translate(952.011719 0.5)" xlink:href="#DejaVuSans-46"/>
     <use transform="translate(1003.28125 0.5)" xlink:href="#DejaVuSans-46"/>
     <use transform="translate(1054.550781 0.5)" xlink:href="#DejaVuSans-44"/>
     <use transform="translate(1105.820312 0.5)" xlink:href="#DejaVuSans-Oblique-88"/>
     <use transform="translate(1174.326172 -15.90625)scale(0.7)" xlink:href="#DejaVuSans-50"/>
     <use transform="translate(1218.862305 -15.90625)scale(0.7)" xlink:href="#DejaVuSans-48"/>
     <use transform="translate(1266.132812 0.5)" xlink:href="#DejaVuSans-93"/>
     <use transform="translate(1305.146484 0.5)" xlink:href="#Times-Roman-32"/>
     <use transform="translate(1330.146484 0.5)" xlink:href="#Times-Roman-32"/>
     <use transform="translate(1355.146484 0.5)" xlink:href="#Times-Roman-32"/>
     <use transform="translate(1380.146484 0.5)" xlink:href="#DejaVuSans-Oblique-88"/>
     <use transform="translate(1468.134766 0.5)" xlink:href="#DejaVuSans-8764"/>
     <use transform="translate(1571.40625 0.5)" xlink:href="#STIXNonUnicode-Italic-57914"/>
     <use transform="translate(1667.106232 0.5)" xlink:href="#DejaVuSans-40"/>
     <use transform="translate(1706.119904 0.5)" xlink:href="#DejaVuSans-48"/>
     <use transform="translate(1769.74295 0.5)" xlink:href="#DejaVuSans-44"/>
     <use transform="translate(1821.012482 0.5)" xlink:href="#DejaVuSans-49"/>
     <use transform="translate(1884.635529 0.5)" xlink:href="#DejaVuSans-41"/>
    </g>
   </g>
  </g>
 </g>
 <defs>
  <clipPath id="p1e67f19ac1">
   <rect height="217.44" width="334.8" x="54" y="34.56"/>
  </clipPath>
 </defs>
</svg>
