<?xml version="1.0" encoding="utf-8" standalone="no"?>
<!DOCTYPE svg PUBLIC "-//W3C//DTD SVG 1.1//EN"
  "http://www.w3.org/Graphics/SVG/1.1/DTD/svg11.dtd">
<svg xmlns:xlink="http://www.w3.org/1999/xlink" width="432pt" height="288pt" viewBox="0 0 432 288" xmlns="http://www.w3.org/2000/svg" version="1.1">
 <metadata>
  <rdf:RDF xmlns:dc="http://purl.org/dc/elements/1.1/" xmlns:cc="http://creativecommons.org/ns#" xmlns:rdf="http://www.w3.org/1999/02/22-rdf-syntax-ns#">
   <cc:Work>
    <dc:type rdf:resource="http://purl.org/dc/dcmitype/StillImage"/>
    <dc:date>2023-03-02T13:21:55.407975</dc:date>
    <dc:format>image/svg+xml</dc:format>
    <dc:creator>
     <cc:Agent>
      <dc:title>Matplotlib v3.6.3, https://matplotlib.org/</dc:title>
     </cc:Agent>
    </dc:creator>
   </cc:Work>
  </rdf:RDF>
 </metadata>
 <defs>
  <style type="text/css">*{stroke-linejoin: round; stroke-linecap: butt}</style>
 </defs>
 <g id="figure_1">
  <g id="patch_1">
   <path d="M 0 288 
L 432 288 
L 432 0 
L 0 0 
L 0 288 
z
" style="fill: none"/>
  </g>
  <g id="axes_1">
   <g id="patch_2">
    <path d="M 54 252 
L 388.8 252 
L 388.8 34.56 
L 54 34.56 
L 54 252 
z
" style="fill: none"/>
   </g>
   <g id="matplotlib.axis_1">
    <g id="xtick_1">
     <g id="line2d_1">
      <path d="M 69.218182 252 
L 69.218182 34.56 
" clip-path="url(#pd646aa000a)" style="fill: none; stroke: #b0b0b0; stroke-width: 0.8; stroke-linecap: square"/>
     </g>
     <g id="line2d_2">
      <defs>
       <path id="mf13aea7463" d="M 0 0 
L 0 3.5 
" style="stroke: #000000; stroke-width: 0.8"/>
      </defs>
      <g>
       <use xlink:href="#mf13aea7463" x="69.218182" y="252" style="stroke: #000000; stroke-width: 0.8"/>
      </g>
     </g>
     <g id="text_1">
      <!-- 1 -->
      <g transform="translate(66.036932 266.598437) scale(0.1 -0.1)">
       <defs>
        <path id="DejaVuSans-31" d="M 794 531 
L 1825 531 
L 1825 4091 
L 703 3866 
L 703 4441 
L 1819 4666 
L 2450 4666 
L 2450 531 
L 3481 531 
L 3481 0 
L 794 0 
L 794 531 
z
" transform="scale(0.015625)"/>
       </defs>
       <use xlink:href="#DejaVuSans-31"/>
      </g>
     </g>
    </g>
    <g id="xtick_2">
     <g id="line2d_3">
      <path d="M 106.298016 252 
L 106.298016 34.56 
" clip-path="url(#pd646aa000a)" style="fill: none; stroke: #b0b0b0; stroke-width: 0.8; stroke-linecap: square"/>
     </g>
     <g id="line2d_4">
      <g>
       <use xlink:href="#mf13aea7463" x="106.298016" y="252" style="stroke: #000000; stroke-width: 0.8"/>
      </g>
     </g>
     <g id="text_2">
      <!-- 25 -->
      <g transform="translate(99.935516 266.598437) scale(0.1 -0.1)">
       <defs>
        <path id="DejaVuSans-32" d="M 1228 531 
L 3431 531 
L 3431 0 
L 469 0 
L 469 531 
Q 828 903 1448 1529 
Q 2069 2156 2228 2338 
Q 2531 2678 2651 2914 
Q 2772 3150 2772 3378 
Q 2772 3750 2511 3984 
Q 2250 4219 1831 4219 
Q 1534 4219 1204 4116 
Q 875 4013 500 3803 
L 500 4441 
Q 881 4594 1212 4672 
Q 1544 4750 1819 4750 
Q 2544 4750 2975 4387 
Q 3406 4025 3406 3419 
Q 3406 3131 3298 2873 
Q 3191 2616 2906 2266 
Q 2828 2175 2409 1742 
Q 1991 1309 1228 531 
z
" transform="scale(0.015625)"/>
        <path id="DejaVuSans-35" d="M 691 4666 
L 3169 4666 
L 3169 4134 
L 1269 4134 
L 1269 2991 
Q 1406 3038 1543 3061 
Q 1681 3084 1819 3084 
Q 2600 3084 3056 2656 
Q 3513 2228 3513 1497 
Q 3513 744 3044 326 
Q 2575 -91 1722 -91 
Q 1428 -91 1123 -41 
Q 819 9 494 109 
L 494 744 
Q 775 591 1075 516 
Q 1375 441 1709 441 
Q 2250 441 2565 725 
Q 2881 1009 2881 1497 
Q 2881 1984 2565 2268 
Q 2250 2553 1709 2553 
Q 1456 2553 1204 2497 
Q 953 2441 691 2322 
L 691 4666 
z
" transform="scale(0.015625)"/>
       </defs>
       <use xlink:href="#DejaVuSans-32"/>
       <use xlink:href="#DejaVuSans-35" x="63.623047"/>
      </g>
     </g>
    </g>
    <g id="xtick_3">
     <g id="line2d_5">
      <path d="M 144.922843 252 
L 144.922843 34.56 
" clip-path="url(#pd646aa000a)" style="fill: none; stroke: #b0b0b0; stroke-width: 0.8; stroke-linecap: square"/>
     </g>
     <g id="line2d_6">
      <g>
       <use xlink:href="#mf13aea7463" x="144.922843" y="252" style="stroke: #000000; stroke-width: 0.8"/>
      </g>
     </g>
     <g id="text_3">
      <!-- 50 -->
      <g transform="translate(138.560343 266.598437) scale(0.1 -0.1)">
       <defs>
        <path id="DejaVuSans-30" d="M 2034 4250 
Q 1547 4250 1301 3770 
Q 1056 3291 1056 2328 
Q 1056 1369 1301 889 
Q 1547 409 2034 409 
Q 2525 409 2770 889 
Q 3016 1369 3016 2328 
Q 3016 3291 2770 3770 
Q 2525 4250 2034 4250 
z
M 2034 4750 
Q 2819 4750 3233 4129 
Q 3647 3509 3647 2328 
Q 3647 1150 3233 529 
Q 2819 -91 2034 -91 
Q 1250 -91 836 529 
Q 422 1150 422 2328 
Q 422 3509 836 4129 
Q 1250 4750 2034 4750 
z
" transform="scale(0.015625)"/>
       </defs>
       <use xlink:href="#DejaVuSans-35"/>
       <use xlink:href="#DejaVuSans-30" x="63.623047"/>
      </g>
     </g>
    </g>
    <g id="xtick_4">
     <g id="line2d_7">
      <path d="M 183.54767 252 
L 183.54767 34.56 
" clip-path="url(#pd646aa000a)" style="fill: none; stroke: #b0b0b0; stroke-width: 0.8; stroke-linecap: square"/>
     </g>
     <g id="line2d_8">
      <g>
       <use xlink:href="#mf13aea7463" x="183.54767" y="252" style="stroke: #000000; stroke-width: 0.8"/>
      </g>
     </g>
     <g id="text_4">
      <!-- 75 -->
      <g transform="translate(177.18517 266.598437) scale(0.1 -0.1)">
       <defs>
        <path id="DejaVuSans-37" d="M 525 4666 
L 3525 4666 
L 3525 4397 
L 1831 0 
L 1172 0 
L 2766 4134 
L 525 4134 
L 525 4666 
z
" transform="scale(0.015625)"/>
       </defs>
       <use xlink:href="#DejaVuSans-37"/>
       <use xlink:href="#DejaVuSans-35" x="63.623047"/>
      </g>
     </g>
    </g>
    <g id="xtick_5">
     <g id="line2d_9">
      <path d="M 222.172497 252 
L 222.172497 34.56 
" clip-path="url(#pd646aa000a)" style="fill: none; stroke: #b0b0b0; stroke-width: 0.8; stroke-linecap: square"/>
     </g>
     <g id="line2d_10">
      <g>
       <use xlink:href="#mf13aea7463" x="222.172497" y="252" style="stroke: #000000; stroke-width: 0.8"/>
      </g>
     </g>
     <g id="text_5">
      <!-- 100 -->
      <g transform="translate(212.628747 266.598437) scale(0.1 -0.1)">
       <use xlink:href="#DejaVuSans-31"/>
       <use xlink:href="#DejaVuSans-30" x="63.623047"/>
       <use xlink:href="#DejaVuSans-30" x="127.246094"/>
      </g>
     </g>
    </g>
    <g id="xtick_6">
     <g id="line2d_11">
      <path d="M 260.797323 252 
L 260.797323 34.56 
" clip-path="url(#pd646aa000a)" style="fill: none; stroke: #b0b0b0; stroke-width: 0.8; stroke-linecap: square"/>
     </g>
     <g id="line2d_12">
      <g>
       <use xlink:href="#mf13aea7463" x="260.797323" y="252" style="stroke: #000000; stroke-width: 0.8"/>
      </g>
     </g>
     <g id="text_6">
      <!-- 125 -->
      <g transform="translate(251.253573 266.598437) scale(0.1 -0.1)">
       <use xlink:href="#DejaVuSans-31"/>
       <use xlink:href="#DejaVuSans-32" x="63.623047"/>
       <use xlink:href="#DejaVuSans-35" x="127.246094"/>
      </g>
     </g>
    </g>
    <g id="xtick_7">
     <g id="line2d_13">
      <path d="M 299.42215 252 
L 299.42215 34.56 
" clip-path="url(#pd646aa000a)" style="fill: none; stroke: #b0b0b0; stroke-width: 0.8; stroke-linecap: square"/>
     </g>
     <g id="line2d_14">
      <g>
       <use xlink:href="#mf13aea7463" x="299.42215" y="252" style="stroke: #000000; stroke-width: 0.8"/>
      </g>
     </g>
     <g id="text_7">
      <!-- 150 -->
      <g transform="translate(289.8784 266.598437) scale(0.1 -0.1)">
       <use xlink:href="#DejaVuSans-31"/>
       <use xlink:href="#DejaVuSans-35" x="63.623047"/>
       <use xlink:href="#DejaVuSans-30" x="127.246094"/>
      </g>
     </g>
    </g>
    <g id="xtick_8">
     <g id="line2d_15">
      <path d="M 338.046977 252 
L 338.046977 34.56 
" clip-path="url(#pd646aa000a)" style="fill: none; stroke: #b0b0b0; stroke-width: 0.8; stroke-linecap: square"/>
     </g>
     <g id="line2d_16">
      <g>
       <use xlink:href="#mf13aea7463" x="338.046977" y="252" style="stroke: #000000; stroke-width: 0.8"/>
      </g>
     </g>
     <g id="text_8">
      <!-- 175 -->
      <g transform="translate(328.503227 266.598437) scale(0.1 -0.1)">
       <use xlink:href="#DejaVuSans-31"/>
       <use xlink:href="#DejaVuSans-37" x="63.623047"/>
       <use xlink:href="#DejaVuSans-35" x="127.246094"/>
      </g>
     </g>
    </g>
    <g id="text_9">
     <!-- hours between flares -->
     <g transform="translate(168.705469 280.276563) scale(0.1 -0.1)">
      <defs>
       <path id="DejaVuSans-68" d="M 3513 2113 
L 3513 0 
L 2938 0 
L 2938 2094 
Q 2938 2591 2744 2837 
Q 2550 3084 2163 3084 
Q 1697 3084 1428 2787 
Q 1159 2491 1159 1978 
L 1159 0 
L 581 0 
L 581 4863 
L 1159 4863 
L 1159 2956 
Q 1366 3272 1645 3428 
Q 1925 3584 2291 3584 
Q 2894 3584 3203 3211 
Q 3513 2838 3513 2113 
z
" transform="scale(0.015625)"/>
       <path id="DejaVuSans-6f" d="M 1959 3097 
Q 1497 3097 1228 2736 
Q 959 2375 959 1747 
Q 959 1119 1226 758 
Q 1494 397 1959 397 
Q 2419 397 2687 759 
Q 2956 1122 2956 1747 
Q 2956 2369 2687 2733 
Q 2419 3097 1959 3097 
z
M 1959 3584 
Q 2709 3584 3137 3096 
Q 3566 2609 3566 1747 
Q 3566 888 3137 398 
Q 2709 -91 1959 -91 
Q 1206 -91 779 398 
Q 353 888 353 1747 
Q 353 2609 779 3096 
Q 1206 3584 1959 3584 
z
" transform="scale(0.015625)"/>
       <path id="DejaVuSans-75" d="M 544 1381 
L 544 3500 
L 1119 3500 
L 1119 1403 
Q 1119 906 1312 657 
Q 1506 409 1894 409 
Q 2359 409 2629 706 
Q 2900 1003 2900 1516 
L 2900 3500 
L 3475 3500 
L 3475 0 
L 2900 0 
L 2900 538 
Q 2691 219 2414 64 
Q 2138 -91 1772 -91 
Q 1169 -91 856 284 
Q 544 659 544 1381 
z
M 1991 3584 
L 1991 3584 
z
" transform="scale(0.015625)"/>
       <path id="DejaVuSans-72" d="M 2631 2963 
Q 2534 3019 2420 3045 
Q 2306 3072 2169 3072 
Q 1681 3072 1420 2755 
Q 1159 2438 1159 1844 
L 1159 0 
L 581 0 
L 581 3500 
L 1159 3500 
L 1159 2956 
Q 1341 3275 1631 3429 
Q 1922 3584 2338 3584 
Q 2397 3584 2469 3576 
Q 2541 3569 2628 3553 
L 2631 2963 
z
" transform="scale(0.015625)"/>
       <path id="DejaVuSans-73" d="M 2834 3397 
L 2834 2853 
Q 2591 2978 2328 3040 
Q 2066 3103 1784 3103 
Q 1356 3103 1142 2972 
Q 928 2841 928 2578 
Q 928 2378 1081 2264 
Q 1234 2150 1697 2047 
L 1894 2003 
Q 2506 1872 2764 1633 
Q 3022 1394 3022 966 
Q 3022 478 2636 193 
Q 2250 -91 1575 -91 
Q 1294 -91 989 -36 
Q 684 19 347 128 
L 347 722 
Q 666 556 975 473 
Q 1284 391 1588 391 
Q 1994 391 2212 530 
Q 2431 669 2431 922 
Q 2431 1156 2273 1281 
Q 2116 1406 1581 1522 
L 1381 1569 
Q 847 1681 609 1914 
Q 372 2147 372 2553 
Q 372 3047 722 3315 
Q 1072 3584 1716 3584 
Q 2034 3584 2315 3537 
Q 2597 3491 2834 3397 
z
" transform="scale(0.015625)"/>
       <path id="DejaVuSans-20" transform="scale(0.015625)"/>
       <path id="DejaVuSans-62" d="M 3116 1747 
Q 3116 2381 2855 2742 
Q 2594 3103 2138 3103 
Q 1681 3103 1420 2742 
Q 1159 2381 1159 1747 
Q 1159 1113 1420 752 
Q 1681 391 2138 391 
Q 2594 391 2855 752 
Q 3116 1113 3116 1747 
z
M 1159 2969 
Q 1341 3281 1617 3432 
Q 1894 3584 2278 3584 
Q 2916 3584 3314 3078 
Q 3713 2572 3713 1747 
Q 3713 922 3314 415 
Q 2916 -91 2278 -91 
Q 1894 -91 1617 61 
Q 1341 213 1159 525 
L 1159 0 
L 581 0 
L 581 4863 
L 1159 4863 
L 1159 2969 
z
" transform="scale(0.015625)"/>
       <path id="DejaVuSans-65" d="M 3597 1894 
L 3597 1613 
L 953 1613 
Q 991 1019 1311 708 
Q 1631 397 2203 397 
Q 2534 397 2845 478 
Q 3156 559 3463 722 
L 3463 178 
Q 3153 47 2828 -22 
Q 2503 -91 2169 -91 
Q 1331 -91 842 396 
Q 353 884 353 1716 
Q 353 2575 817 3079 
Q 1281 3584 2069 3584 
Q 2775 3584 3186 3129 
Q 3597 2675 3597 1894 
z
M 3022 2063 
Q 3016 2534 2758 2815 
Q 2500 3097 2075 3097 
Q 1594 3097 1305 2825 
Q 1016 2553 972 2059 
L 3022 2063 
z
" transform="scale(0.015625)"/>
       <path id="DejaVuSans-74" d="M 1172 4494 
L 1172 3500 
L 2356 3500 
L 2356 3053 
L 1172 3053 
L 1172 1153 
Q 1172 725 1289 603 
Q 1406 481 1766 481 
L 2356 481 
L 2356 0 
L 1766 0 
Q 1100 0 847 248 
Q 594 497 594 1153 
L 594 3053 
L 172 3053 
L 172 3500 
L 594 3500 
L 594 4494 
L 1172 4494 
z
" transform="scale(0.015625)"/>
       <path id="DejaVuSans-77" d="M 269 3500 
L 844 3500 
L 1563 769 
L 2278 3500 
L 2956 3500 
L 3675 769 
L 4391 3500 
L 4966 3500 
L 4050 0 
L 3372 0 
L 2619 2869 
L 1863 0 
L 1184 0 
L 269 3500 
z
" transform="scale(0.015625)"/>
       <path id="DejaVuSans-6e" d="M 3513 2113 
L 3513 0 
L 2938 0 
L 2938 2094 
Q 2938 2591 2744 2837 
Q 2550 3084 2163 3084 
Q 1697 3084 1428 2787 
Q 1159 2491 1159 1978 
L 1159 0 
L 581 0 
L 581 3500 
L 1159 3500 
L 1159 2956 
Q 1366 3272 1645 3428 
Q 1925 3584 2291 3584 
Q 2894 3584 3203 3211 
Q 3513 2838 3513 2113 
z
" transform="scale(0.015625)"/>
       <path id="DejaVuSans-66" d="M 2375 4863 
L 2375 4384 
L 1825 4384 
Q 1516 4384 1395 4259 
Q 1275 4134 1275 3809 
L 1275 3500 
L 2222 3500 
L 2222 3053 
L 1275 3053 
L 1275 0 
L 697 0 
L 697 3053 
L 147 3053 
L 147 3500 
L 697 3500 
L 697 3744 
Q 697 4328 969 4595 
Q 1241 4863 1831 4863 
L 2375 4863 
z
" transform="scale(0.015625)"/>
       <path id="DejaVuSans-6c" d="M 603 4863 
L 1178 4863 
L 1178 0 
L 603 0 
L 603 4863 
z
" transform="scale(0.015625)"/>
       <path id="DejaVuSans-61" d="M 2194 1759 
Q 1497 1759 1228 1600 
Q 959 1441 959 1056 
Q 959 750 1161 570 
Q 1363 391 1709 391 
Q 2188 391 2477 730 
Q 2766 1069 2766 1631 
L 2766 1759 
L 2194 1759 
z
M 3341 1997 
L 3341 0 
L 2766 0 
L 2766 531 
Q 2569 213 2275 61 
Q 1981 -91 1556 -91 
Q 1019 -91 701 211 
Q 384 513 384 1019 
Q 384 1609 779 1909 
Q 1175 2209 1959 2209 
L 2766 2209 
L 2766 2266 
Q 2766 2663 2505 2880 
Q 2244 3097 1772 3097 
Q 1472 3097 1187 3025 
Q 903 2953 641 2809 
L 641 3341 
Q 956 3463 1253 3523 
Q 1550 3584 1831 3584 
Q 2591 3584 2966 3190 
Q 3341 2797 3341 1997 
z
" transform="scale(0.015625)"/>
      </defs>
      <use xlink:href="#DejaVuSans-68"/>
      <use xlink:href="#DejaVuSans-6f" x="63.378906"/>
      <use xlink:href="#DejaVuSans-75" x="124.560547"/>
      <use xlink:href="#DejaVuSans-72" x="187.939453"/>
      <use xlink:href="#DejaVuSans-73" x="229.052734"/>
      <use xlink:href="#DejaVuSans-20" x="281.152344"/>
      <use xlink:href="#DejaVuSans-62" x="312.939453"/>
      <use xlink:href="#DejaVuSans-65" x="376.416016"/>
      <use xlink:href="#DejaVuSans-74" x="437.939453"/>
      <use xlink:href="#DejaVuSans-77" x="477.148438"/>
      <use xlink:href="#DejaVuSans-65" x="558.935547"/>
      <use xlink:href="#DejaVuSans-65" x="620.458984"/>
      <use xlink:href="#DejaVuSans-6e" x="681.982422"/>
      <use xlink:href="#DejaVuSans-20" x="745.361328"/>
      <use xlink:href="#DejaVuSans-66" x="777.148438"/>
      <use xlink:href="#DejaVuSans-6c" x="812.353516"/>
      <use xlink:href="#DejaVuSans-61" x="840.136719"/>
      <use xlink:href="#DejaVuSans-72" x="901.416016"/>
      <use xlink:href="#DejaVuSans-65" x="940.279297"/>
      <use xlink:href="#DejaVuSans-73" x="1001.802734"/>
     </g>
    </g>
   </g>
   <g id="matplotlib.axis_2">
    <g id="ytick_1">
     <g id="line2d_17">
      <path d="M 54 242.116364 
L 388.8 242.116364 
" clip-path="url(#pd646aa000a)" style="fill: none; stroke: #b0b0b0; stroke-width: 0.8; stroke-linecap: square"/>
     </g>
     <g id="line2d_18">
      <defs>
       <path id="m43a84b4eac" d="M 0 0 
L -3.5 0 
" style="stroke: #000000; stroke-width: 0.8"/>
      </defs>
      <g>
       <use xlink:href="#m43a84b4eac" x="54" y="242.116364" style="stroke: #000000; stroke-width: 0.8"/>
      </g>
     </g>
     <g id="text_10">
      <!-- 0.00 -->
      <g transform="translate(24.734375 245.915582) scale(0.1 -0.1)">
       <defs>
        <path id="DejaVuSans-2e" d="M 684 794 
L 1344 794 
L 1344 0 
L 684 0 
L 684 794 
z
" transform="scale(0.015625)"/>
       </defs>
       <use xlink:href="#DejaVuSans-30"/>
       <use xlink:href="#DejaVuSans-2e" x="63.623047"/>
       <use xlink:href="#DejaVuSans-30" x="95.410156"/>
       <use xlink:href="#DejaVuSans-30" x="159.033203"/>
      </g>
     </g>
    </g>
    <g id="ytick_2">
     <g id="line2d_19">
      <path d="M 54 194.726928 
L 388.8 194.726928 
" clip-path="url(#pd646aa000a)" style="fill: none; stroke: #b0b0b0; stroke-width: 0.8; stroke-linecap: square"/>
     </g>
     <g id="line2d_20">
      <g>
       <use xlink:href="#m43a84b4eac" x="54" y="194.726928" style="stroke: #000000; stroke-width: 0.8"/>
      </g>
     </g>
     <g id="text_11">
      <!-- 0.01 -->
      <g transform="translate(24.734375 198.526147) scale(0.1 -0.1)">
       <use xlink:href="#DejaVuSans-30"/>
       <use xlink:href="#DejaVuSans-2e" x="63.623047"/>
       <use xlink:href="#DejaVuSans-30" x="95.410156"/>
       <use xlink:href="#DejaVuSans-31" x="159.033203"/>
      </g>
     </g>
    </g>
    <g id="ytick_3">
     <g id="line2d_21">
      <path d="M 54 147.337493 
L 388.8 147.337493 
" clip-path="url(#pd646aa000a)" style="fill: none; stroke: #b0b0b0; stroke-width: 0.8; stroke-linecap: square"/>
     </g>
     <g id="line2d_22">
      <g>
       <use xlink:href="#m43a84b4eac" x="54" y="147.337493" style="stroke: #000000; stroke-width: 0.8"/>
      </g>
     </g>
     <g id="text_12">
      <!-- 0.02 -->
      <g transform="translate(24.734375 151.136712) scale(0.1 -0.1)">
       <use xlink:href="#DejaVuSans-30"/>
       <use xlink:href="#DejaVuSans-2e" x="63.623047"/>
       <use xlink:href="#DejaVuSans-30" x="95.410156"/>
       <use xlink:href="#DejaVuSans-32" x="159.033203"/>
      </g>
     </g>
    </g>
    <g id="ytick_4">
     <g id="line2d_23">
      <path d="M 54 99.948057 
L 388.8 99.948057 
" clip-path="url(#pd646aa000a)" style="fill: none; stroke: #b0b0b0; stroke-width: 0.8; stroke-linecap: square"/>
     </g>
     <g id="line2d_24">
      <g>
       <use xlink:href="#m43a84b4eac" x="54" y="99.948057" style="stroke: #000000; stroke-width: 0.8"/>
      </g>
     </g>
     <g id="text_13">
      <!-- 0.03 -->
      <g transform="translate(24.734375 103.747276) scale(0.1 -0.1)">
       <defs>
        <path id="DejaVuSans-33" d="M 2597 2516 
Q 3050 2419 3304 2112 
Q 3559 1806 3559 1356 
Q 3559 666 3084 287 
Q 2609 -91 1734 -91 
Q 1441 -91 1130 -33 
Q 819 25 488 141 
L 488 750 
Q 750 597 1062 519 
Q 1375 441 1716 441 
Q 2309 441 2620 675 
Q 2931 909 2931 1356 
Q 2931 1769 2642 2001 
Q 2353 2234 1838 2234 
L 1294 2234 
L 1294 2753 
L 1863 2753 
Q 2328 2753 2575 2939 
Q 2822 3125 2822 3475 
Q 2822 3834 2567 4026 
Q 2313 4219 1838 4219 
Q 1578 4219 1281 4162 
Q 984 4106 628 3988 
L 628 4550 
Q 988 4650 1302 4700 
Q 1616 4750 1894 4750 
Q 2613 4750 3031 4423 
Q 3450 4097 3450 3541 
Q 3450 3153 3228 2886 
Q 3006 2619 2597 2516 
z
" transform="scale(0.015625)"/>
       </defs>
       <use xlink:href="#DejaVuSans-30"/>
       <use xlink:href="#DejaVuSans-2e" x="63.623047"/>
       <use xlink:href="#DejaVuSans-30" x="95.410156"/>
       <use xlink:href="#DejaVuSans-33" x="159.033203"/>
      </g>
     </g>
    </g>
    <g id="ytick_5">
     <g id="line2d_25">
      <path d="M 54 52.558622 
L 388.8 52.558622 
" clip-path="url(#pd646aa000a)" style="fill: none; stroke: #b0b0b0; stroke-width: 0.8; stroke-linecap: square"/>
     </g>
     <g id="line2d_26">
      <g>
       <use xlink:href="#m43a84b4eac" x="54" y="52.558622" style="stroke: #000000; stroke-width: 0.8"/>
      </g>
     </g>
     <g id="text_14">
      <!-- 0.04 -->
      <g transform="translate(24.734375 56.357841) scale(0.1 -0.1)">
       <defs>
        <path id="DejaVuSans-34" d="M 2419 4116 
L 825 1625 
L 2419 1625 
L 2419 4116 
z
M 2253 4666 
L 3047 4666 
L 3047 1625 
L 3713 1625 
L 3713 1100 
L 3047 1100 
L 3047 0 
L 2419 0 
L 2419 1100 
L 313 1100 
L 313 1709 
L 2253 4666 
z
" transform="scale(0.015625)"/>
       </defs>
       <use xlink:href="#DejaVuSans-30"/>
       <use xlink:href="#DejaVuSans-2e" x="63.623047"/>
       <use xlink:href="#DejaVuSans-30" x="95.410156"/>
       <use xlink:href="#DejaVuSans-34" x="159.033203"/>
      </g>
     </g>
    </g>
    <g id="text_15">
     <!-- PMF -->
     <g transform="translate(18.654688 153.484688) rotate(-90) scale(0.1 -0.1)">
      <defs>
       <path id="DejaVuSans-50" d="M 1259 4147 
L 1259 2394 
L 2053 2394 
Q 2494 2394 2734 2622 
Q 2975 2850 2975 3272 
Q 2975 3691 2734 3919 
Q 2494 4147 2053 4147 
L 1259 4147 
z
M 628 4666 
L 2053 4666 
Q 2838 4666 3239 4311 
Q 3641 3956 3641 3272 
Q 3641 2581 3239 2228 
Q 2838 1875 2053 1875 
L 1259 1875 
L 1259 0 
L 628 0 
L 628 4666 
z
" transform="scale(0.015625)"/>
       <path id="DejaVuSans-4d" d="M 628 4666 
L 1569 4666 
L 2759 1491 
L 3956 4666 
L 4897 4666 
L 4897 0 
L 4281 0 
L 4281 4097 
L 3078 897 
L 2444 897 
L 1241 4097 
L 1241 0 
L 628 0 
L 628 4666 
z
" transform="scale(0.015625)"/>
       <path id="DejaVuSans-46" d="M 628 4666 
L 3309 4666 
L 3309 4134 
L 1259 4134 
L 1259 2759 
L 3109 2759 
L 3109 2228 
L 1259 2228 
L 1259 0 
L 628 0 
L 628 4666 
z
" transform="scale(0.015625)"/>
      </defs>
      <use xlink:href="#DejaVuSans-50"/>
      <use xlink:href="#DejaVuSans-4d" x="60.302734"/>
      <use xlink:href="#DejaVuSans-46" x="146.582031"/>
     </g>
    </g>
   </g>
   <g id="line2d_27">
    <defs>
     <path id="m5ad0251c28" d="M 0 1.5 
C 0.397805 1.5 0.77937 1.341951 1.06066 1.06066 
C 1.341951 0.77937 1.5 0.397805 1.5 0 
C 1.5 -0.397805 1.341951 -0.77937 1.06066 -1.06066 
C 0.77937 -1.341951 0.397805 -1.5 0 -1.5 
C -0.397805 -1.5 -0.77937 -1.341951 -1.06066 -1.06066 
C -1.341951 -0.77937 -1.5 -0.397805 -1.5 0 
C -1.5 0.397805 -1.341951 0.77937 -1.06066 1.06066 
C -0.77937 1.341951 -0.397805 1.5 0 1.5 
z
" style="stroke: #1f77b4"/>
    </defs>
    <g clip-path="url(#pd646aa000a)">
     <use xlink:href="#m5ad0251c28" x="69.218182" y="44.443636" style="fill: #1f77b4; stroke: #1f77b4"/>
     <use xlink:href="#m5ad0251c28" x="70.763175" y="54.847464" style="fill: #1f77b4; stroke: #1f77b4"/>
     <use xlink:href="#m5ad0251c28" x="72.308168" y="80.857033" style="fill: #1f77b4; stroke: #1f77b4"/>
     <use xlink:href="#m5ad0251c28" x="73.853161" y="70.453206" style="fill: #1f77b4; stroke: #1f77b4"/>
     <use xlink:href="#m5ad0251c28" x="75.398154" y="122.472344" style="fill: #1f77b4; stroke: #1f77b4"/>
     <use xlink:href="#m5ad0251c28" x="76.943147" y="65.251292" style="fill: #1f77b4; stroke: #1f77b4"/>
     <use xlink:href="#m5ad0251c28" x="78.48814" y="127.674258" style="fill: #1f77b4; stroke: #1f77b4"/>
     <use xlink:href="#m5ad0251c28" x="80.033133" y="49.64555" style="fill: #1f77b4; stroke: #1f77b4"/>
     <use xlink:href="#m5ad0251c28" x="81.578126" y="106.866603" style="fill: #1f77b4; stroke: #1f77b4"/>
     <use xlink:href="#m5ad0251c28" x="83.12312" y="132.876172" style="fill: #1f77b4; stroke: #1f77b4"/>
     <use xlink:href="#m5ad0251c28" x="84.668113" y="127.674258" style="fill: #1f77b4; stroke: #1f77b4"/>
     <use xlink:href="#m5ad0251c28" x="86.213106" y="148.481914" style="fill: #1f77b4; stroke: #1f77b4"/>
     <use xlink:href="#m5ad0251c28" x="87.758099" y="112.068517" style="fill: #1f77b4; stroke: #1f77b4"/>
     <use xlink:href="#m5ad0251c28" x="89.303092" y="117.270431" style="fill: #1f77b4; stroke: #1f77b4"/>
     <use xlink:href="#m5ad0251c28" x="90.848085" y="122.472344" style="fill: #1f77b4; stroke: #1f77b4"/>
     <use xlink:href="#m5ad0251c28" x="92.393078" y="117.270431" style="fill: #1f77b4; stroke: #1f77b4"/>
     <use xlink:href="#m5ad0251c28" x="93.938071" y="132.876172" style="fill: #1f77b4; stroke: #1f77b4"/>
     <use xlink:href="#m5ad0251c28" x="95.483064" y="174.491483" style="fill: #1f77b4; stroke: #1f77b4"/>
     <use xlink:href="#m5ad0251c28" x="97.028057" y="158.885742" style="fill: #1f77b4; stroke: #1f77b4"/>
     <use xlink:href="#m5ad0251c28" x="98.57305" y="153.683828" style="fill: #1f77b4; stroke: #1f77b4"/>
     <use xlink:href="#m5ad0251c28" x="100.118043" y="174.491483" style="fill: #1f77b4; stroke: #1f77b4"/>
     <use xlink:href="#m5ad0251c28" x="101.663036" y="153.683828" style="fill: #1f77b4; stroke: #1f77b4"/>
     <use xlink:href="#m5ad0251c28" x="103.20803" y="179.693397" style="fill: #1f77b4; stroke: #1f77b4"/>
     <use xlink:href="#m5ad0251c28" x="104.753023" y="195.299139" style="fill: #1f77b4; stroke: #1f77b4"/>
     <use xlink:href="#m5ad0251c28" x="106.298016" y="169.289569" style="fill: #1f77b4; stroke: #1f77b4"/>
     <use xlink:href="#m5ad0251c28" x="107.843009" y="184.895311" style="fill: #1f77b4; stroke: #1f77b4"/>
     <use xlink:href="#m5ad0251c28" x="109.388002" y="174.491483" style="fill: #1f77b4; stroke: #1f77b4"/>
     <use xlink:href="#m5ad0251c28" x="110.932995" y="174.491483" style="fill: #1f77b4; stroke: #1f77b4"/>
     <use xlink:href="#m5ad0251c28" x="112.477988" y="200.501053" style="fill: #1f77b4; stroke: #1f77b4"/>
     <use xlink:href="#m5ad0251c28" x="114.022981" y="190.097225" style="fill: #1f77b4; stroke: #1f77b4"/>
     <use xlink:href="#m5ad0251c28" x="115.567974" y="195.299139" style="fill: #1f77b4; stroke: #1f77b4"/>
     <use xlink:href="#m5ad0251c28" x="117.112967" y="169.289569" style="fill: #1f77b4; stroke: #1f77b4"/>
     <use xlink:href="#m5ad0251c28" x="118.65796" y="153.683828" style="fill: #1f77b4; stroke: #1f77b4"/>
     <use xlink:href="#m5ad0251c28" x="120.202953" y="205.702967" style="fill: #1f77b4; stroke: #1f77b4"/>
     <use xlink:href="#m5ad0251c28" x="121.747946" y="179.693397" style="fill: #1f77b4; stroke: #1f77b4"/>
     <use xlink:href="#m5ad0251c28" x="123.29294" y="179.693397" style="fill: #1f77b4; stroke: #1f77b4"/>
     <use xlink:href="#m5ad0251c28" x="124.837933" y="216.106794" style="fill: #1f77b4; stroke: #1f77b4"/>
     <use xlink:href="#m5ad0251c28" x="126.382926" y="190.097225" style="fill: #1f77b4; stroke: #1f77b4"/>
     <use xlink:href="#m5ad0251c28" x="127.927919" y="205.702967" style="fill: #1f77b4; stroke: #1f77b4"/>
     <use xlink:href="#m5ad0251c28" x="129.472912" y="221.308708" style="fill: #1f77b4; stroke: #1f77b4"/>
     <use xlink:href="#m5ad0251c28" x="131.017905" y="190.097225" style="fill: #1f77b4; stroke: #1f77b4"/>
     <use xlink:href="#m5ad0251c28" x="132.562898" y="231.712536" style="fill: #1f77b4; stroke: #1f77b4"/>
     <use xlink:href="#m5ad0251c28" x="134.107891" y="200.501053" style="fill: #1f77b4; stroke: #1f77b4"/>
     <use xlink:href="#m5ad0251c28" x="135.652884" y="190.097225" style="fill: #1f77b4; stroke: #1f77b4"/>
     <use xlink:href="#m5ad0251c28" x="137.197877" y="205.702967" style="fill: #1f77b4; stroke: #1f77b4"/>
     <use xlink:href="#m5ad0251c28" x="138.74287" y="221.308708" style="fill: #1f77b4; stroke: #1f77b4"/>
     <use xlink:href="#m5ad0251c28" x="140.287863" y="205.702967" style="fill: #1f77b4; stroke: #1f77b4"/>
     <use xlink:href="#m5ad0251c28" x="141.832856" y="221.308708" style="fill: #1f77b4; stroke: #1f77b4"/>
     <use xlink:href="#m5ad0251c28" x="143.37785" y="216.106794" style="fill: #1f77b4; stroke: #1f77b4"/>
     <use xlink:href="#m5ad0251c28" x="144.922843" y="226.510622" style="fill: #1f77b4; stroke: #1f77b4"/>
     <use xlink:href="#m5ad0251c28" x="146.467836" y="200.501053" style="fill: #1f77b4; stroke: #1f77b4"/>
     <use xlink:href="#m5ad0251c28" x="148.012829" y="231.712536" style="fill: #1f77b4; stroke: #1f77b4"/>
     <use xlink:href="#m5ad0251c28" x="149.557822" y="231.712536" style="fill: #1f77b4; stroke: #1f77b4"/>
     <use xlink:href="#m5ad0251c28" x="151.102815" y="221.308708" style="fill: #1f77b4; stroke: #1f77b4"/>
     <use xlink:href="#m5ad0251c28" x="152.647808" y="226.510622" style="fill: #1f77b4; stroke: #1f77b4"/>
     <use xlink:href="#m5ad0251c28" x="154.192801" y="221.308708" style="fill: #1f77b4; stroke: #1f77b4"/>
     <use xlink:href="#m5ad0251c28" x="155.737794" y="221.308708" style="fill: #1f77b4; stroke: #1f77b4"/>
     <use xlink:href="#m5ad0251c28" x="157.282787" y="205.702967" style="fill: #1f77b4; stroke: #1f77b4"/>
     <use xlink:href="#m5ad0251c28" x="158.82778" y="226.510622" style="fill: #1f77b4; stroke: #1f77b4"/>
     <use xlink:href="#m5ad0251c28" x="160.372773" y="221.308708" style="fill: #1f77b4; stroke: #1f77b4"/>
     <use xlink:href="#m5ad0251c28" x="161.917766" y="226.510622" style="fill: #1f77b4; stroke: #1f77b4"/>
     <use xlink:href="#m5ad0251c28" x="163.46276" y="231.712536" style="fill: #1f77b4; stroke: #1f77b4"/>
     <use xlink:href="#m5ad0251c28" x="165.007753" y="226.510622" style="fill: #1f77b4; stroke: #1f77b4"/>
     <use xlink:href="#m5ad0251c28" x="166.552746" y="226.510622" style="fill: #1f77b4; stroke: #1f77b4"/>
     <use xlink:href="#m5ad0251c28" x="168.097739" y="226.510622" style="fill: #1f77b4; stroke: #1f77b4"/>
     <use xlink:href="#m5ad0251c28" x="169.642732" y="226.510622" style="fill: #1f77b4; stroke: #1f77b4"/>
     <use xlink:href="#m5ad0251c28" x="171.187725" y="226.510622" style="fill: #1f77b4; stroke: #1f77b4"/>
     <use xlink:href="#m5ad0251c28" x="172.732718" y="226.510622" style="fill: #1f77b4; stroke: #1f77b4"/>
     <use xlink:href="#m5ad0251c28" x="174.277711" y="236.91445" style="fill: #1f77b4; stroke: #1f77b4"/>
     <use xlink:href="#m5ad0251c28" x="175.822704" y="226.510622" style="fill: #1f77b4; stroke: #1f77b4"/>
     <use xlink:href="#m5ad0251c28" x="177.367697" y="231.712536" style="fill: #1f77b4; stroke: #1f77b4"/>
     <use xlink:href="#m5ad0251c28" x="178.91269" y="236.91445" style="fill: #1f77b4; stroke: #1f77b4"/>
     <use xlink:href="#m5ad0251c28" x="180.457683" y="236.91445" style="fill: #1f77b4; stroke: #1f77b4"/>
     <use xlink:href="#m5ad0251c28" x="182.002677" y="231.712536" style="fill: #1f77b4; stroke: #1f77b4"/>
     <use xlink:href="#m5ad0251c28" x="183.54767" y="226.510622" style="fill: #1f77b4; stroke: #1f77b4"/>
     <use xlink:href="#m5ad0251c28" x="185.092663" y="231.712536" style="fill: #1f77b4; stroke: #1f77b4"/>
     <use xlink:href="#m5ad0251c28" x="186.637656" y="231.712536" style="fill: #1f77b4; stroke: #1f77b4"/>
     <use xlink:href="#m5ad0251c28" x="188.182649" y="236.91445" style="fill: #1f77b4; stroke: #1f77b4"/>
     <use xlink:href="#m5ad0251c28" x="189.727642" y="242.116364" style="fill: #1f77b4; stroke: #1f77b4"/>
     <use xlink:href="#m5ad0251c28" x="191.272635" y="226.510622" style="fill: #1f77b4; stroke: #1f77b4"/>
     <use xlink:href="#m5ad0251c28" x="192.817628" y="236.91445" style="fill: #1f77b4; stroke: #1f77b4"/>
     <use xlink:href="#m5ad0251c28" x="194.362621" y="226.510622" style="fill: #1f77b4; stroke: #1f77b4"/>
     <use xlink:href="#m5ad0251c28" x="195.907614" y="231.712536" style="fill: #1f77b4; stroke: #1f77b4"/>
     <use xlink:href="#m5ad0251c28" x="197.452607" y="231.712536" style="fill: #1f77b4; stroke: #1f77b4"/>
     <use xlink:href="#m5ad0251c28" x="198.9976" y="221.308708" style="fill: #1f77b4; stroke: #1f77b4"/>
     <use xlink:href="#m5ad0251c28" x="200.542593" y="231.712536" style="fill: #1f77b4; stroke: #1f77b4"/>
     <use xlink:href="#m5ad0251c28" x="202.087587" y="231.712536" style="fill: #1f77b4; stroke: #1f77b4"/>
     <use xlink:href="#m5ad0251c28" x="203.63258" y="242.116364" style="fill: #1f77b4; stroke: #1f77b4"/>
     <use xlink:href="#m5ad0251c28" x="205.177573" y="242.116364" style="fill: #1f77b4; stroke: #1f77b4"/>
     <use xlink:href="#m5ad0251c28" x="206.722566" y="236.91445" style="fill: #1f77b4; stroke: #1f77b4"/>
     <use xlink:href="#m5ad0251c28" x="208.267559" y="226.510622" style="fill: #1f77b4; stroke: #1f77b4"/>
     <use xlink:href="#m5ad0251c28" x="209.812552" y="242.116364" style="fill: #1f77b4; stroke: #1f77b4"/>
     <use xlink:href="#m5ad0251c28" x="211.357545" y="236.91445" style="fill: #1f77b4; stroke: #1f77b4"/>
     <use xlink:href="#m5ad0251c28" x="212.902538" y="236.91445" style="fill: #1f77b4; stroke: #1f77b4"/>
     <use xlink:href="#m5ad0251c28" x="214.447531" y="242.116364" style="fill: #1f77b4; stroke: #1f77b4"/>
     <use xlink:href="#m5ad0251c28" x="215.992524" y="242.116364" style="fill: #1f77b4; stroke: #1f77b4"/>
     <use xlink:href="#m5ad0251c28" x="217.537517" y="231.712536" style="fill: #1f77b4; stroke: #1f77b4"/>
     <use xlink:href="#m5ad0251c28" x="219.08251" y="242.116364" style="fill: #1f77b4; stroke: #1f77b4"/>
     <use xlink:href="#m5ad0251c28" x="220.627503" y="236.91445" style="fill: #1f77b4; stroke: #1f77b4"/>
     <use xlink:href="#m5ad0251c28" x="222.172497" y="231.712536" style="fill: #1f77b4; stroke: #1f77b4"/>
     <use xlink:href="#m5ad0251c28" x="223.71749" y="236.91445" style="fill: #1f77b4; stroke: #1f77b4"/>
     <use xlink:href="#m5ad0251c28" x="225.262483" y="242.116364" style="fill: #1f77b4; stroke: #1f77b4"/>
     <use xlink:href="#m5ad0251c28" x="226.807476" y="236.91445" style="fill: #1f77b4; stroke: #1f77b4"/>
     <use xlink:href="#m5ad0251c28" x="228.352469" y="242.116364" style="fill: #1f77b4; stroke: #1f77b4"/>
     <use xlink:href="#m5ad0251c28" x="229.897462" y="242.116364" style="fill: #1f77b4; stroke: #1f77b4"/>
     <use xlink:href="#m5ad0251c28" x="231.442455" y="236.91445" style="fill: #1f77b4; stroke: #1f77b4"/>
     <use xlink:href="#m5ad0251c28" x="232.987448" y="236.91445" style="fill: #1f77b4; stroke: #1f77b4"/>
     <use xlink:href="#m5ad0251c28" x="234.532441" y="242.116364" style="fill: #1f77b4; stroke: #1f77b4"/>
     <use xlink:href="#m5ad0251c28" x="236.077434" y="242.116364" style="fill: #1f77b4; stroke: #1f77b4"/>
     <use xlink:href="#m5ad0251c28" x="237.622427" y="242.116364" style="fill: #1f77b4; stroke: #1f77b4"/>
     <use xlink:href="#m5ad0251c28" x="239.16742" y="242.116364" style="fill: #1f77b4; stroke: #1f77b4"/>
     <use xlink:href="#m5ad0251c28" x="240.712413" y="236.91445" style="fill: #1f77b4; stroke: #1f77b4"/>
     <use xlink:href="#m5ad0251c28" x="242.257407" y="242.116364" style="fill: #1f77b4; stroke: #1f77b4"/>
     <use xlink:href="#m5ad0251c28" x="243.8024" y="242.116364" style="fill: #1f77b4; stroke: #1f77b4"/>
     <use xlink:href="#m5ad0251c28" x="245.347393" y="236.91445" style="fill: #1f77b4; stroke: #1f77b4"/>
     <use xlink:href="#m5ad0251c28" x="246.892386" y="236.91445" style="fill: #1f77b4; stroke: #1f77b4"/>
     <use xlink:href="#m5ad0251c28" x="248.437379" y="242.116364" style="fill: #1f77b4; stroke: #1f77b4"/>
     <use xlink:href="#m5ad0251c28" x="249.982372" y="242.116364" style="fill: #1f77b4; stroke: #1f77b4"/>
     <use xlink:href="#m5ad0251c28" x="251.527365" y="242.116364" style="fill: #1f77b4; stroke: #1f77b4"/>
     <use xlink:href="#m5ad0251c28" x="253.072358" y="236.91445" style="fill: #1f77b4; stroke: #1f77b4"/>
     <use xlink:href="#m5ad0251c28" x="254.617351" y="242.116364" style="fill: #1f77b4; stroke: #1f77b4"/>
     <use xlink:href="#m5ad0251c28" x="256.162344" y="242.116364" style="fill: #1f77b4; stroke: #1f77b4"/>
     <use xlink:href="#m5ad0251c28" x="257.707337" y="242.116364" style="fill: #1f77b4; stroke: #1f77b4"/>
     <use xlink:href="#m5ad0251c28" x="259.25233" y="236.91445" style="fill: #1f77b4; stroke: #1f77b4"/>
     <use xlink:href="#m5ad0251c28" x="260.797323" y="242.116364" style="fill: #1f77b4; stroke: #1f77b4"/>
     <use xlink:href="#m5ad0251c28" x="262.342317" y="242.116364" style="fill: #1f77b4; stroke: #1f77b4"/>
     <use xlink:href="#m5ad0251c28" x="263.88731" y="242.116364" style="fill: #1f77b4; stroke: #1f77b4"/>
     <use xlink:href="#m5ad0251c28" x="265.432303" y="242.116364" style="fill: #1f77b4; stroke: #1f77b4"/>
     <use xlink:href="#m5ad0251c28" x="266.977296" y="242.116364" style="fill: #1f77b4; stroke: #1f77b4"/>
     <use xlink:href="#m5ad0251c28" x="268.522289" y="242.116364" style="fill: #1f77b4; stroke: #1f77b4"/>
     <use xlink:href="#m5ad0251c28" x="270.067282" y="242.116364" style="fill: #1f77b4; stroke: #1f77b4"/>
     <use xlink:href="#m5ad0251c28" x="271.612275" y="242.116364" style="fill: #1f77b4; stroke: #1f77b4"/>
     <use xlink:href="#m5ad0251c28" x="273.157268" y="236.91445" style="fill: #1f77b4; stroke: #1f77b4"/>
     <use xlink:href="#m5ad0251c28" x="274.702261" y="242.116364" style="fill: #1f77b4; stroke: #1f77b4"/>
     <use xlink:href="#m5ad0251c28" x="276.247254" y="242.116364" style="fill: #1f77b4; stroke: #1f77b4"/>
     <use xlink:href="#m5ad0251c28" x="277.792247" y="242.116364" style="fill: #1f77b4; stroke: #1f77b4"/>
     <use xlink:href="#m5ad0251c28" x="279.33724" y="242.116364" style="fill: #1f77b4; stroke: #1f77b4"/>
     <use xlink:href="#m5ad0251c28" x="280.882234" y="242.116364" style="fill: #1f77b4; stroke: #1f77b4"/>
     <use xlink:href="#m5ad0251c28" x="282.427227" y="242.116364" style="fill: #1f77b4; stroke: #1f77b4"/>
     <use xlink:href="#m5ad0251c28" x="283.97222" y="242.116364" style="fill: #1f77b4; stroke: #1f77b4"/>
     <use xlink:href="#m5ad0251c28" x="285.517213" y="242.116364" style="fill: #1f77b4; stroke: #1f77b4"/>
     <use xlink:href="#m5ad0251c28" x="287.062206" y="242.116364" style="fill: #1f77b4; stroke: #1f77b4"/>
     <use xlink:href="#m5ad0251c28" x="288.607199" y="242.116364" style="fill: #1f77b4; stroke: #1f77b4"/>
     <use xlink:href="#m5ad0251c28" x="290.152192" y="242.116364" style="fill: #1f77b4; stroke: #1f77b4"/>
     <use xlink:href="#m5ad0251c28" x="291.697185" y="242.116364" style="fill: #1f77b4; stroke: #1f77b4"/>
     <use xlink:href="#m5ad0251c28" x="293.242178" y="242.116364" style="fill: #1f77b4; stroke: #1f77b4"/>
     <use xlink:href="#m5ad0251c28" x="294.787171" y="236.91445" style="fill: #1f77b4; stroke: #1f77b4"/>
     <use xlink:href="#m5ad0251c28" x="296.332164" y="242.116364" style="fill: #1f77b4; stroke: #1f77b4"/>
     <use xlink:href="#m5ad0251c28" x="297.877157" y="242.116364" style="fill: #1f77b4; stroke: #1f77b4"/>
     <use xlink:href="#m5ad0251c28" x="299.42215" y="242.116364" style="fill: #1f77b4; stroke: #1f77b4"/>
     <use xlink:href="#m5ad0251c28" x="300.967144" y="236.91445" style="fill: #1f77b4; stroke: #1f77b4"/>
     <use xlink:href="#m5ad0251c28" x="302.512137" y="236.91445" style="fill: #1f77b4; stroke: #1f77b4"/>
     <use xlink:href="#m5ad0251c28" x="304.05713" y="242.116364" style="fill: #1f77b4; stroke: #1f77b4"/>
     <use xlink:href="#m5ad0251c28" x="305.602123" y="242.116364" style="fill: #1f77b4; stroke: #1f77b4"/>
     <use xlink:href="#m5ad0251c28" x="307.147116" y="242.116364" style="fill: #1f77b4; stroke: #1f77b4"/>
     <use xlink:href="#m5ad0251c28" x="308.692109" y="242.116364" style="fill: #1f77b4; stroke: #1f77b4"/>
     <use xlink:href="#m5ad0251c28" x="310.237102" y="242.116364" style="fill: #1f77b4; stroke: #1f77b4"/>
     <use xlink:href="#m5ad0251c28" x="311.782095" y="242.116364" style="fill: #1f77b4; stroke: #1f77b4"/>
     <use xlink:href="#m5ad0251c28" x="313.327088" y="236.91445" style="fill: #1f77b4; stroke: #1f77b4"/>
     <use xlink:href="#m5ad0251c28" x="314.872081" y="242.116364" style="fill: #1f77b4; stroke: #1f77b4"/>
     <use xlink:href="#m5ad0251c28" x="316.417074" y="242.116364" style="fill: #1f77b4; stroke: #1f77b4"/>
     <use xlink:href="#m5ad0251c28" x="317.962067" y="242.116364" style="fill: #1f77b4; stroke: #1f77b4"/>
     <use xlink:href="#m5ad0251c28" x="319.50706" y="242.116364" style="fill: #1f77b4; stroke: #1f77b4"/>
     <use xlink:href="#m5ad0251c28" x="321.052054" y="242.116364" style="fill: #1f77b4; stroke: #1f77b4"/>
     <use xlink:href="#m5ad0251c28" x="322.597047" y="236.91445" style="fill: #1f77b4; stroke: #1f77b4"/>
     <use xlink:href="#m5ad0251c28" x="324.14204" y="242.116364" style="fill: #1f77b4; stroke: #1f77b4"/>
     <use xlink:href="#m5ad0251c28" x="325.687033" y="242.116364" style="fill: #1f77b4; stroke: #1f77b4"/>
     <use xlink:href="#m5ad0251c28" x="327.232026" y="242.116364" style="fill: #1f77b4; stroke: #1f77b4"/>
     <use xlink:href="#m5ad0251c28" x="328.777019" y="242.116364" style="fill: #1f77b4; stroke: #1f77b4"/>
     <use xlink:href="#m5ad0251c28" x="330.322012" y="242.116364" style="fill: #1f77b4; stroke: #1f77b4"/>
     <use xlink:href="#m5ad0251c28" x="331.867005" y="242.116364" style="fill: #1f77b4; stroke: #1f77b4"/>
     <use xlink:href="#m5ad0251c28" x="333.411998" y="242.116364" style="fill: #1f77b4; stroke: #1f77b4"/>
     <use xlink:href="#m5ad0251c28" x="334.956991" y="236.91445" style="fill: #1f77b4; stroke: #1f77b4"/>
     <use xlink:href="#m5ad0251c28" x="336.501984" y="242.116364" style="fill: #1f77b4; stroke: #1f77b4"/>
     <use xlink:href="#m5ad0251c28" x="338.046977" y="242.116364" style="fill: #1f77b4; stroke: #1f77b4"/>
     <use xlink:href="#m5ad0251c28" x="339.59197" y="242.116364" style="fill: #1f77b4; stroke: #1f77b4"/>
     <use xlink:href="#m5ad0251c28" x="341.136964" y="242.116364" style="fill: #1f77b4; stroke: #1f77b4"/>
     <use xlink:href="#m5ad0251c28" x="342.681957" y="242.116364" style="fill: #1f77b4; stroke: #1f77b4"/>
     <use xlink:href="#m5ad0251c28" x="344.22695" y="242.116364" style="fill: #1f77b4; stroke: #1f77b4"/>
     <use xlink:href="#m5ad0251c28" x="345.771943" y="242.116364" style="fill: #1f77b4; stroke: #1f77b4"/>
     <use xlink:href="#m5ad0251c28" x="347.316936" y="242.116364" style="fill: #1f77b4; stroke: #1f77b4"/>
     <use xlink:href="#m5ad0251c28" x="348.861929" y="242.116364" style="fill: #1f77b4; stroke: #1f77b4"/>
     <use xlink:href="#m5ad0251c28" x="350.406922" y="242.116364" style="fill: #1f77b4; stroke: #1f77b4"/>
     <use xlink:href="#m5ad0251c28" x="351.951915" y="242.116364" style="fill: #1f77b4; stroke: #1f77b4"/>
     <use xlink:href="#m5ad0251c28" x="353.496908" y="242.116364" style="fill: #1f77b4; stroke: #1f77b4"/>
     <use xlink:href="#m5ad0251c28" x="355.041901" y="242.116364" style="fill: #1f77b4; stroke: #1f77b4"/>
     <use xlink:href="#m5ad0251c28" x="356.586894" y="236.91445" style="fill: #1f77b4; stroke: #1f77b4"/>
     <use xlink:href="#m5ad0251c28" x="358.131887" y="242.116364" style="fill: #1f77b4; stroke: #1f77b4"/>
     <use xlink:href="#m5ad0251c28" x="359.67688" y="242.116364" style="fill: #1f77b4; stroke: #1f77b4"/>
     <use xlink:href="#m5ad0251c28" x="361.221874" y="242.116364" style="fill: #1f77b4; stroke: #1f77b4"/>
     <use xlink:href="#m5ad0251c28" x="362.766867" y="242.116364" style="fill: #1f77b4; stroke: #1f77b4"/>
     <use xlink:href="#m5ad0251c28" x="364.31186" y="242.116364" style="fill: #1f77b4; stroke: #1f77b4"/>
     <use xlink:href="#m5ad0251c28" x="365.856853" y="242.116364" style="fill: #1f77b4; stroke: #1f77b4"/>
     <use xlink:href="#m5ad0251c28" x="367.401846" y="242.116364" style="fill: #1f77b4; stroke: #1f77b4"/>
     <use xlink:href="#m5ad0251c28" x="368.946839" y="242.116364" style="fill: #1f77b4; stroke: #1f77b4"/>
     <use xlink:href="#m5ad0251c28" x="370.491832" y="242.116364" style="fill: #1f77b4; stroke: #1f77b4"/>
     <use xlink:href="#m5ad0251c28" x="372.036825" y="242.116364" style="fill: #1f77b4; stroke: #1f77b4"/>
     <use xlink:href="#m5ad0251c28" x="373.581818" y="236.91445" style="fill: #1f77b4; stroke: #1f77b4"/>
    </g>
   </g>
   <g id="patch_3">
    <path d="M 54 252 
L 54 34.56 
" style="fill: none; stroke: #000000; stroke-width: 0.8; stroke-linejoin: miter; stroke-linecap: square"/>
   </g>
   <g id="patch_4">
    <path d="M 388.8 252 
L 388.8 34.56 
" style="fill: none; stroke: #000000; stroke-width: 0.8; stroke-linejoin: miter; stroke-linecap: square"/>
   </g>
   <g id="patch_5">
    <path d="M 54 252 
L 388.8 252 
" style="fill: none; stroke: #000000; stroke-width: 0.8; stroke-linejoin: miter; stroke-linecap: square"/>
   </g>
   <g id="patch_6">
    <path d="M 54 34.56 
L 388.8 34.56 
" style="fill: none; stroke: #000000; stroke-width: 0.8; stroke-linejoin: miter; stroke-linecap: square"/>
   </g>
  </g>
 </g>
 <defs>
  <clipPath id="pd646aa000a">
   <rect x="54" y="34.56" width="334.8" height="217.44"/>
  </clipPath>
 </defs>
</svg>
