<?xml version="1.0" encoding="utf-8" standalone="no"?>
<!DOCTYPE svg PUBLIC "-//W3C//DTD SVG 1.1//EN"
  "http://www.w3.org/Graphics/SVG/1.1/DTD/svg11.dtd">
<!-- Created with matplotlib (https://matplotlib.org/) -->
<svg height="288pt" version="1.1" viewBox="0 0 432 288" width="432pt" xmlns="http://www.w3.org/2000/svg" xmlns:xlink="http://www.w3.org/1999/xlink">
 <defs>
  <style type="text/css">
*{stroke-linecap:butt;stroke-linejoin:round;}
  </style>
 </defs>
 <g id="figure_1">
  <g id="patch_1">
   <path d="M 0 288 
L 432 288 
L 432 0 
L 0 0 
z
" style="fill:none;"/>
  </g>
  <g id="axes_1">
   <g id="patch_2">
    <path d="M 54 252 
L 388.8 252 
L 388.8 34.56 
L 54 34.56 
z
" style="fill:none;"/>
   </g>
   <g id="patch_3">
    <path clip-path="url(#p5ace420df4)" d="M -133.814634 252 
L -125.64878 252 
L -125.64878 252 
L -133.814634 252 
z
" style="fill:#1f77b4;"/>
   </g>
   <g id="patch_4">
    <path clip-path="url(#p5ace420df4)" d="M -125.64878 252 
L -117.482927 252 
L -117.482927 252 
L -125.64878 252 
z
" style="fill:#1f77b4;"/>
   </g>
   <g id="patch_5">
    <path clip-path="url(#p5ace420df4)" d="M -117.482927 252 
L -109.317073 252 
L -109.317073 252 
L -117.482927 252 
z
" style="fill:#1f77b4;"/>
   </g>
   <g id="patch_6">
    <path clip-path="url(#p5ace420df4)" d="M -109.317073 252 
L -101.15122 252 
L -101.15122 252 
L -109.317073 252 
z
" style="fill:#1f77b4;"/>
   </g>
   <g id="patch_7">
    <path clip-path="url(#p5ace420df4)" d="M -101.15122 252 
L -92.985366 252 
L -92.985366 252 
L -101.15122 252 
z
" style="fill:#1f77b4;"/>
   </g>
   <g id="patch_8">
    <path clip-path="url(#p5ace420df4)" d="M -92.985366 252 
L -84.819512 252 
L -84.819512 252 
L -92.985366 252 
z
" style="fill:#1f77b4;"/>
   </g>
   <g id="patch_9">
    <path clip-path="url(#p5ace420df4)" d="M -84.819512 252 
L -76.653659 252 
L -76.653659 252 
L -84.819512 252 
z
" style="fill:#1f77b4;"/>
   </g>
   <g id="patch_10">
    <path clip-path="url(#p5ace420df4)" d="M -76.653659 252 
L -68.487805 252 
L -68.487805 252 
L -76.653659 252 
z
" style="fill:#1f77b4;"/>
   </g>
   <g id="patch_11">
    <path clip-path="url(#p5ace420df4)" d="M -68.487805 252 
L -60.321951 252 
L -60.321951 252 
L -68.487805 252 
z
" style="fill:#1f77b4;"/>
   </g>
   <g id="patch_12">
    <path clip-path="url(#p5ace420df4)" d="M -60.321951 252 
L -52.156098 252 
L -52.156098 252 
L -60.321951 252 
z
" style="fill:#1f77b4;"/>
   </g>
   <g id="patch_13">
    <path clip-path="url(#p5ace420df4)" d="M -52.156098 252 
L -43.990244 252 
L -43.990244 252 
L -52.156098 252 
z
" style="fill:#1f77b4;"/>
   </g>
   <g id="patch_14">
    <path clip-path="url(#p5ace420df4)" d="M -43.990244 252 
L -35.82439 252 
L -35.82439 252 
L -43.990244 252 
z
" style="fill:#1f77b4;"/>
   </g>
   <g id="patch_15">
    <path clip-path="url(#p5ace420df4)" d="M -35.82439 252 
L -27.658537 252 
L -27.658537 252 
L -35.82439 252 
z
" style="fill:#1f77b4;"/>
   </g>
   <g id="patch_16">
    <path clip-path="url(#p5ace420df4)" d="M -27.658537 252 
L -19.492683 252 
L -19.492683 252 
L -27.658537 252 
z
" style="fill:#1f77b4;"/>
   </g>
   <g id="patch_17">
    <path clip-path="url(#p5ace420df4)" d="M -19.492683 252 
L -11.326829 252 
L -11.326829 252 
L -19.492683 252 
z
" style="fill:#1f77b4;"/>
   </g>
   <g id="patch_18">
    <path clip-path="url(#p5ace420df4)" d="M -11.326829 252 
L -3.160976 252 
L -3.160976 252 
L -11.326829 252 
z
" style="fill:#1f77b4;"/>
   </g>
   <g id="patch_19">
    <path clip-path="url(#p5ace420df4)" d="M -3.160976 252 
L 5.004878 252 
L 5.004878 252 
L -3.160976 252 
z
" style="fill:#1f77b4;"/>
   </g>
   <g id="patch_20">
    <path clip-path="url(#p5ace420df4)" d="M 5.004878 252 
L 13.170732 252 
L 13.170732 252 
L 5.004878 252 
z
" style="fill:#1f77b4;"/>
   </g>
   <g id="patch_21">
    <path clip-path="url(#p5ace420df4)" d="M 13.170732 252 
L 21.336585 252 
L 21.336585 252 
L 13.170732 252 
z
" style="fill:#1f77b4;"/>
   </g>
   <g id="patch_22">
    <path clip-path="url(#p5ace420df4)" d="M 21.336585 252 
L 29.502439 252 
L 29.502439 252 
L 21.336585 252 
z
" style="fill:#1f77b4;"/>
   </g>
   <g id="patch_23">
    <path clip-path="url(#p5ace420df4)" d="M 29.502439 252 
L 37.668293 252 
L 37.668293 252 
L 29.502439 252 
z
" style="fill:#1f77b4;"/>
   </g>
   <g id="patch_24">
    <path clip-path="url(#p5ace420df4)" d="M 37.668293 252 
L 45.834146 252 
L 45.834146 252 
L 37.668293 252 
z
" style="fill:#1f77b4;"/>
   </g>
   <g id="patch_25">
    <path clip-path="url(#p5ace420df4)" d="M 45.834146 252 
L 54 252 
L 54 252 
L 45.834146 252 
z
" style="fill:#1f77b4;"/>
   </g>
   <g id="patch_26">
    <path clip-path="url(#p5ace420df4)" d="M 54 252 
L 62.165854 252 
L 62.165854 251.506351 
L 54 251.506351 
z
" style="fill:#1f77b4;"/>
   </g>
   <g id="patch_27">
    <path clip-path="url(#p5ace420df4)" d="M 62.165854 252 
L 70.331707 252 
L 70.331707 250.765878 
L 62.165854 250.765878 
z
" style="fill:#1f77b4;"/>
   </g>
   <g id="patch_28">
    <path clip-path="url(#p5ace420df4)" d="M 70.331707 252 
L 78.497561 252 
L 78.497561 250.025404 
L 70.331707 250.025404 
z
" style="fill:#1f77b4;"/>
   </g>
   <g id="patch_29">
    <path clip-path="url(#p5ace420df4)" d="M 78.497561 252 
L 86.663415 252 
L 86.663415 249.284931 
L 78.497561 249.284931 
z
" style="fill:#1f77b4;"/>
   </g>
   <g id="patch_30">
    <path clip-path="url(#p5ace420df4)" d="M 86.663415 252 
L 94.829268 252 
L 94.829268 246.323038 
L 86.663415 246.323038 
z
" style="fill:#1f77b4;"/>
   </g>
   <g id="patch_31">
    <path clip-path="url(#p5ace420df4)" d="M 94.829268 252 
L 102.995122 252 
L 102.995122 242.373846 
L 94.829268 242.373846 
z
" style="fill:#1f77b4;"/>
   </g>
   <g id="patch_32">
    <path clip-path="url(#p5ace420df4)" d="M 102.995122 252 
L 111.160976 252 
L 111.160976 237.437357 
L 102.995122 237.437357 
z
" style="fill:#1f77b4;"/>
   </g>
   <g id="patch_33">
    <path clip-path="url(#p5ace420df4)" d="M 111.160976 252 
L 119.326829 252 
L 119.326829 227.317555 
L 111.160976 227.317555 
z
" style="fill:#1f77b4;"/>
   </g>
   <g id="patch_34">
    <path clip-path="url(#p5ace420df4)" d="M 119.326829 252 
L 127.492683 252 
L 127.492683 219.912821 
L 119.326829 219.912821 
z
" style="fill:#1f77b4;"/>
   </g>
   <g id="patch_35">
    <path clip-path="url(#p5ace420df4)" d="M 127.492683 252 
L 135.658537 252 
L 135.658537 192.021658 
L 127.492683 192.021658 
z
" style="fill:#1f77b4;"/>
   </g>
   <g id="patch_36">
    <path clip-path="url(#p5ace420df4)" d="M 135.658537 252 
L 143.82439 252 
L 143.82439 183.135978 
L 135.658537 183.135978 
z
" style="fill:#1f77b4;"/>
   </g>
   <g id="patch_37">
    <path clip-path="url(#p5ace420df4)" d="M 143.82439 252 
L 151.990244 252 
L 151.990244 160.181304 
L 143.82439 160.181304 
z
" style="fill:#1f77b4;"/>
   </g>
   <g id="patch_38">
    <path clip-path="url(#p5ace420df4)" d="M 151.990244 252 
L 160.156098 252 
L 160.156098 124.391759 
L 151.990244 124.391759 
z
" style="fill:#1f77b4;"/>
   </g>
   <g id="patch_39">
    <path clip-path="url(#p5ace420df4)" d="M 160.156098 252 
L 168.321951 252 
L 168.321951 109.829116 
L 160.156098 109.829116 
z
" style="fill:#1f77b4;"/>
   </g>
   <g id="patch_40">
    <path clip-path="url(#p5ace420df4)" d="M 168.321951 252 
L 176.487805 252 
L 176.487805 83.665725 
L 168.321951 83.665725 
z
" style="fill:#1f77b4;"/>
   </g>
   <g id="patch_41">
    <path clip-path="url(#p5ace420df4)" d="M 176.487805 252 
L 184.653659 252 
L 184.653659 64.166593 
L 176.487805 64.166593 
z
" style="fill:#1f77b4;"/>
   </g>
   <g id="patch_42">
    <path clip-path="url(#p5ace420df4)" d="M 184.653659 252 
L 192.819512 252 
L 192.819512 44.914286 
L 184.653659 44.914286 
z
" style="fill:#1f77b4;"/>
   </g>
   <g id="patch_43">
    <path clip-path="url(#p5ace420df4)" d="M 192.819512 252 
L 200.985366 252 
L 200.985366 50.838073 
L 192.819512 50.838073 
z
" style="fill:#1f77b4;"/>
   </g>
   <g id="patch_44">
    <path clip-path="url(#p5ace420df4)" d="M 200.985366 252 
L 209.15122 252 
L 209.15122 52.812668 
L 200.985366 52.812668 
z
" style="fill:#1f77b4;"/>
   </g>
   <g id="patch_45">
    <path clip-path="url(#p5ace420df4)" d="M 209.15122 252 
L 217.317073 252 
L 217.317073 73.299098 
L 209.15122 73.299098 
z
" style="fill:#1f77b4;"/>
   </g>
   <g id="patch_46">
    <path clip-path="url(#p5ace420df4)" d="M 217.317073 252 
L 225.482927 252 
L 225.482927 82.431602 
L 217.317073 82.431602 
z
" style="fill:#1f77b4;"/>
   </g>
   <g id="patch_47">
    <path clip-path="url(#p5ace420df4)" d="M 225.482927 252 
L 233.64878 252 
L 233.64878 105.139452 
L 225.482927 105.139452 
z
" style="fill:#1f77b4;"/>
   </g>
   <g id="patch_48">
    <path clip-path="url(#p5ace420df4)" d="M 233.64878 252 
L 241.814634 252 
L 241.814634 136.732981 
L 233.64878 136.732981 
z
" style="fill:#1f77b4;"/>
   </g>
   <g id="patch_49">
    <path clip-path="url(#p5ace420df4)" d="M 241.814634 252 
L 249.980488 252 
L 249.980488 164.130495 
L 241.814634 164.130495 
z
" style="fill:#1f77b4;"/>
   </g>
   <g id="patch_50">
    <path clip-path="url(#p5ace420df4)" d="M 249.980488 252 
L 258.146341 252 
L 258.146341 173.016176 
L 249.980488 173.016176 
z
" style="fill:#1f77b4;"/>
   </g>
   <g id="patch_51">
    <path clip-path="url(#p5ace420df4)" d="M 258.146341 252 
L 266.312195 252 
L 266.312195 205.350179 
L 258.146341 205.350179 
z
" style="fill:#1f77b4;"/>
   </g>
   <g id="patch_52">
    <path clip-path="url(#p5ace420df4)" d="M 266.312195 252 
L 274.478049 252 
L 274.478049 217.444577 
L 266.312195 217.444577 
z
" style="fill:#1f77b4;"/>
   </g>
   <g id="patch_53">
    <path clip-path="url(#p5ace420df4)" d="M 274.478049 252 
L 282.643902 252 
L 282.643902 229.538975 
L 274.478049 229.538975 
z
" style="fill:#1f77b4;"/>
   </g>
   <g id="patch_54">
    <path clip-path="url(#p5ace420df4)" d="M 282.643902 252 
L 290.809756 252 
L 290.809756 237.437357 
L 282.643902 237.437357 
z
" style="fill:#1f77b4;"/>
   </g>
   <g id="patch_55">
    <path clip-path="url(#p5ace420df4)" d="M 290.809756 252 
L 298.97561 252 
L 298.97561 241.880198 
L 290.809756 241.880198 
z
" style="fill:#1f77b4;"/>
   </g>
   <g id="patch_56">
    <path clip-path="url(#p5ace420df4)" d="M 298.97561 252 
L 307.141463 252 
L 307.141463 243.854793 
L 298.97561 243.854793 
z
" style="fill:#1f77b4;"/>
   </g>
   <g id="patch_57">
    <path clip-path="url(#p5ace420df4)" d="M 307.141463 252 
L 315.307317 252 
L 315.307317 247.55716 
L 307.141463 247.55716 
z
" style="fill:#1f77b4;"/>
   </g>
   <g id="patch_58">
    <path clip-path="url(#p5ace420df4)" d="M 315.307317 252 
L 323.473171 252 
L 323.473171 251.012702 
L 315.307317 251.012702 
z
" style="fill:#1f77b4;"/>
   </g>
   <g id="patch_59">
    <path clip-path="url(#p5ace420df4)" d="M 323.473171 252 
L 331.639024 252 
L 331.639024 251.259527 
L 323.473171 251.259527 
z
" style="fill:#1f77b4;"/>
   </g>
   <g id="patch_60">
    <path clip-path="url(#p5ace420df4)" d="M 331.639024 252 
L 339.804878 252 
L 339.804878 251.506351 
L 331.639024 251.506351 
z
" style="fill:#1f77b4;"/>
   </g>
   <g id="patch_61">
    <path clip-path="url(#p5ace420df4)" d="M 339.804878 252 
L 347.970732 252 
L 347.970732 251.753176 
L 339.804878 251.753176 
z
" style="fill:#1f77b4;"/>
   </g>
   <g id="patch_62">
    <path clip-path="url(#p5ace420df4)" d="M 347.970732 252 
L 356.136585 252 
L 356.136585 251.753176 
L 347.970732 251.753176 
z
" style="fill:#1f77b4;"/>
   </g>
   <g id="patch_63">
    <path clip-path="url(#p5ace420df4)" d="M 356.136585 252 
L 364.302439 252 
L 364.302439 252 
L 356.136585 252 
z
" style="fill:#1f77b4;"/>
   </g>
   <g id="patch_64">
    <path clip-path="url(#p5ace420df4)" d="M 364.302439 252 
L 372.468293 252 
L 372.468293 252 
L 364.302439 252 
z
" style="fill:#1f77b4;"/>
   </g>
   <g id="patch_65">
    <path clip-path="url(#p5ace420df4)" d="M 372.468293 252 
L 380.634146 252 
L 380.634146 252 
L 372.468293 252 
z
" style="fill:#1f77b4;"/>
   </g>
   <g id="patch_66">
    <path clip-path="url(#p5ace420df4)" d="M 380.634146 252 
L 388.8 252 
L 388.8 251.753176 
L 380.634146 251.753176 
z
" style="fill:#1f77b4;"/>
   </g>
   <g id="patch_67">
    <path clip-path="url(#p5ace420df4)" d="M 388.8 252 
L 396.965854 252 
L 396.965854 252 
L 388.8 252 
z
" style="fill:#1f77b4;"/>
   </g>
   <g id="patch_68">
    <path clip-path="url(#p5ace420df4)" d="M 396.965854 252 
L 405.131707 252 
L 405.131707 252 
L 396.965854 252 
z
" style="fill:#1f77b4;"/>
   </g>
   <g id="patch_69">
    <path clip-path="url(#p5ace420df4)" d="M 405.131707 252 
L 413.297561 252 
L 413.297561 252 
L 405.131707 252 
z
" style="fill:#1f77b4;"/>
   </g>
   <g id="patch_70">
    <path clip-path="url(#p5ace420df4)" d="M 413.297561 252 
L 421.463415 252 
L 421.463415 252 
L 413.297561 252 
z
" style="fill:#1f77b4;"/>
   </g>
   <g id="patch_71">
    <path clip-path="url(#p5ace420df4)" d="M 421.463415 252 
L 429.629268 252 
L 429.629268 252 
L 421.463415 252 
z
" style="fill:#1f77b4;"/>
   </g>
   <g id="patch_72">
    <path clip-path="url(#p5ace420df4)" d="M 429.629268 252 
L 437.795122 252 
L 437.795122 252 
L 429.629268 252 
z
" style="fill:#1f77b4;"/>
   </g>
   <g id="patch_73">
    <path clip-path="url(#p5ace420df4)" d="M 437.795122 252 
L 445.960976 252 
L 445.960976 252 
L 437.795122 252 
z
" style="fill:#1f77b4;"/>
   </g>
   <g id="patch_74">
    <path clip-path="url(#p5ace420df4)" d="M 445.960976 252 
L 454.126829 252 
L 454.126829 252 
L 445.960976 252 
z
" style="fill:#1f77b4;"/>
   </g>
   <g id="patch_75">
    <path clip-path="url(#p5ace420df4)" d="M 454.126829 252 
L 462.292683 252 
L 462.292683 252 
L 454.126829 252 
z
" style="fill:#1f77b4;"/>
   </g>
   <g id="patch_76">
    <path clip-path="url(#p5ace420df4)" d="M 462.292683 252 
L 470.458537 252 
L 470.458537 252 
L 462.292683 252 
z
" style="fill:#1f77b4;"/>
   </g>
   <g id="patch_77">
    <path clip-path="url(#p5ace420df4)" d="M 470.458537 252 
L 478.62439 252 
L 478.62439 252 
L 470.458537 252 
z
" style="fill:#1f77b4;"/>
   </g>
   <g id="patch_78">
    <path clip-path="url(#p5ace420df4)" d="M 478.62439 252 
L 486.790244 252 
L 486.790244 252 
L 478.62439 252 
z
" style="fill:#1f77b4;"/>
   </g>
   <g id="patch_79">
    <path clip-path="url(#p5ace420df4)" d="M 486.790244 252 
L 494.956098 252 
L 494.956098 252 
L 486.790244 252 
z
" style="fill:#1f77b4;"/>
   </g>
   <g id="patch_80">
    <path clip-path="url(#p5ace420df4)" d="M 494.956098 252 
L 503.121951 252 
L 503.121951 252 
L 494.956098 252 
z
" style="fill:#1f77b4;"/>
   </g>
   <g id="patch_81">
    <path clip-path="url(#p5ace420df4)" d="M 503.121951 252 
L 511.287805 252 
L 511.287805 252 
L 503.121951 252 
z
" style="fill:#1f77b4;"/>
   </g>
   <g id="patch_82">
    <path clip-path="url(#p5ace420df4)" d="M 511.287805 252 
L 519.453659 252 
L 519.453659 252 
L 511.287805 252 
z
" style="fill:#1f77b4;"/>
   </g>
   <g id="patch_83">
    <path clip-path="url(#p5ace420df4)" d="M 519.453659 252 
L 527.619512 252 
L 527.619512 252 
L 519.453659 252 
z
" style="fill:#1f77b4;"/>
   </g>
   <g id="patch_84">
    <path clip-path="url(#p5ace420df4)" d="M 527.619512 252 
L 535.785366 252 
L 535.785366 252 
L 527.619512 252 
z
" style="fill:#1f77b4;"/>
   </g>
   <g id="patch_85">
    <path clip-path="url(#p5ace420df4)" d="M 535.785366 252 
L 543.95122 252 
L 543.95122 252 
L 535.785366 252 
z
" style="fill:#1f77b4;"/>
   </g>
   <g id="patch_86">
    <path clip-path="url(#p5ace420df4)" d="M 543.95122 252 
L 552.117073 252 
L 552.117073 252 
L 543.95122 252 
z
" style="fill:#1f77b4;"/>
   </g>
   <g id="patch_87">
    <path clip-path="url(#p5ace420df4)" d="M 552.117073 252 
L 560.282927 252 
L 560.282927 252 
L 552.117073 252 
z
" style="fill:#1f77b4;"/>
   </g>
   <g id="patch_88">
    <path clip-path="url(#p5ace420df4)" d="M 560.282927 252 
L 568.44878 252 
L 568.44878 252 
L 560.282927 252 
z
" style="fill:#1f77b4;"/>
   </g>
   <g id="patch_89">
    <path clip-path="url(#p5ace420df4)" d="M 568.44878 252 
L 576.614634 252 
L 576.614634 252 
L 568.44878 252 
z
" style="fill:#1f77b4;"/>
   </g>
   <g id="patch_90">
    <path clip-path="url(#p5ace420df4)" d="M 576.614634 252 
L 584.780488 252 
L 584.780488 252 
L 576.614634 252 
z
" style="fill:#1f77b4;"/>
   </g>
   <g id="patch_91">
    <path clip-path="url(#p5ace420df4)" d="M 584.780488 252 
L 592.946341 252 
L 592.946341 252 
L 584.780488 252 
z
" style="fill:#1f77b4;"/>
   </g>
   <g id="patch_92">
    <path clip-path="url(#p5ace420df4)" d="M 592.946341 252 
L 601.112195 252 
L 601.112195 252 
L 592.946341 252 
z
" style="fill:#1f77b4;"/>
   </g>
   <g id="patch_93">
    <path clip-path="url(#p5ace420df4)" d="M 601.112195 252 
L 609.278049 252 
L 609.278049 252 
L 601.112195 252 
z
" style="fill:#1f77b4;"/>
   </g>
   <g id="patch_94">
    <path clip-path="url(#p5ace420df4)" d="M 609.278049 252 
L 617.443902 252 
L 617.443902 252 
L 609.278049 252 
z
" style="fill:#1f77b4;"/>
   </g>
   <g id="patch_95">
    <path clip-path="url(#p5ace420df4)" d="M 617.443902 252 
L 625.609756 252 
L 625.609756 252 
L 617.443902 252 
z
" style="fill:#1f77b4;"/>
   </g>
   <g id="patch_96">
    <path clip-path="url(#p5ace420df4)" d="M 625.609756 252 
L 633.77561 252 
L 633.77561 252 
L 625.609756 252 
z
" style="fill:#1f77b4;"/>
   </g>
   <g id="patch_97">
    <path clip-path="url(#p5ace420df4)" d="M 633.77561 252 
L 641.941463 252 
L 641.941463 252 
L 633.77561 252 
z
" style="fill:#1f77b4;"/>
   </g>
   <g id="patch_98">
    <path clip-path="url(#p5ace420df4)" d="M 641.941463 252 
L 650.107317 252 
L 650.107317 252 
L 641.941463 252 
z
" style="fill:#1f77b4;"/>
   </g>
   <g id="patch_99">
    <path clip-path="url(#p5ace420df4)" d="M 650.107317 252 
L 658.273171 252 
L 658.273171 252 
L 650.107317 252 
z
" style="fill:#1f77b4;"/>
   </g>
   <g id="patch_100">
    <path clip-path="url(#p5ace420df4)" d="M 658.273171 252 
L 666.439024 252 
L 666.439024 252 
L 658.273171 252 
z
" style="fill:#1f77b4;"/>
   </g>
   <g id="patch_101">
    <path clip-path="url(#p5ace420df4)" d="M 666.439024 252 
L 674.604878 252 
L 674.604878 252 
L 666.439024 252 
z
" style="fill:#1f77b4;"/>
   </g>
   <g id="patch_102">
    <path clip-path="url(#p5ace420df4)" d="M 674.604878 252 
L 682.770732 252 
L 682.770732 252 
L 674.604878 252 
z
" style="fill:#1f77b4;"/>
   </g>
   <g id="patch_103">
    <path clip-path="url(#p5ace420df4)" d="M 682.770732 252 
L 690.936585 252 
L 690.936585 252 
L 682.770732 252 
z
" style="fill:#1f77b4;"/>
   </g>
   <g id="matplotlib.axis_1">
    <g id="xtick_1">
     <g id="line2d_1">
      <defs>
       <path d="M 0 0 
L 0 3.5 
" id="m83a86af3f0" style="stroke:#000000;stroke-width:0.8;"/>
      </defs>
      <g>
       <use style="stroke:#000000;stroke-width:0.8;" x="74.414634" xlink:href="#m83a86af3f0" y="252"/>
      </g>
     </g>
     <g id="text_1">
      <!-- 25 -->
      <defs>
       <path d="M 19.1875 8.296875 
L 53.609375 8.296875 
L 53.609375 0 
L 7.328125 0 
L 7.328125 8.296875 
Q 12.9375 14.109375 22.625 23.890625 
Q 32.328125 33.6875 34.8125 36.53125 
Q 39.546875 41.84375 41.421875 45.53125 
Q 43.3125 49.21875 43.3125 52.78125 
Q 43.3125 58.59375 39.234375 62.25 
Q 35.15625 65.921875 28.609375 65.921875 
Q 23.96875 65.921875 18.8125 64.3125 
Q 13.671875 62.703125 7.8125 59.421875 
L 7.8125 69.390625 
Q 13.765625 71.78125 18.9375 73 
Q 24.125 74.21875 28.421875 74.21875 
Q 39.75 74.21875 46.484375 68.546875 
Q 53.21875 62.890625 53.21875 53.421875 
Q 53.21875 48.921875 51.53125 44.890625 
Q 49.859375 40.875 45.40625 35.40625 
Q 44.1875 33.984375 37.640625 27.21875 
Q 31.109375 20.453125 19.1875 8.296875 
z
" id="DejaVuSans-50"/>
       <path d="M 10.796875 72.90625 
L 49.515625 72.90625 
L 49.515625 64.59375 
L 19.828125 64.59375 
L 19.828125 46.734375 
Q 21.96875 47.46875 24.109375 47.828125 
Q 26.265625 48.1875 28.421875 48.1875 
Q 40.625 48.1875 47.75 41.5 
Q 54.890625 34.8125 54.890625 23.390625 
Q 54.890625 11.625 47.5625 5.09375 
Q 40.234375 -1.421875 26.90625 -1.421875 
Q 22.3125 -1.421875 17.546875 -0.640625 
Q 12.796875 0.140625 7.71875 1.703125 
L 7.71875 11.625 
Q 12.109375 9.234375 16.796875 8.0625 
Q 21.484375 6.890625 26.703125 6.890625 
Q 35.15625 6.890625 40.078125 11.328125 
Q 45.015625 15.765625 45.015625 23.390625 
Q 45.015625 31 40.078125 35.4375 
Q 35.15625 39.890625 26.703125 39.890625 
Q 22.75 39.890625 18.8125 39.015625 
Q 14.890625 38.140625 10.796875 36.28125 
z
" id="DejaVuSans-53"/>
      </defs>
      <g transform="translate(68.052134 266.598437)scale(0.1 -0.1)">
       <use xlink:href="#DejaVuSans-50"/>
       <use x="63.623047" xlink:href="#DejaVuSans-53"/>
      </g>
     </g>
    </g>
    <g id="xtick_2">
     <g id="line2d_2">
      <g>
       <use style="stroke:#000000;stroke-width:0.8;" x="115.243902" xlink:href="#m83a86af3f0" y="252"/>
      </g>
     </g>
     <g id="text_2">
      <!-- 30 -->
      <defs>
       <path d="M 40.578125 39.3125 
Q 47.65625 37.796875 51.625 33 
Q 55.609375 28.21875 55.609375 21.1875 
Q 55.609375 10.40625 48.1875 4.484375 
Q 40.765625 -1.421875 27.09375 -1.421875 
Q 22.515625 -1.421875 17.65625 -0.515625 
Q 12.796875 0.390625 7.625 2.203125 
L 7.625 11.71875 
Q 11.71875 9.328125 16.59375 8.109375 
Q 21.484375 6.890625 26.8125 6.890625 
Q 36.078125 6.890625 40.9375 10.546875 
Q 45.796875 14.203125 45.796875 21.1875 
Q 45.796875 27.640625 41.28125 31.265625 
Q 36.765625 34.90625 28.71875 34.90625 
L 20.21875 34.90625 
L 20.21875 43.015625 
L 29.109375 43.015625 
Q 36.375 43.015625 40.234375 45.921875 
Q 44.09375 48.828125 44.09375 54.296875 
Q 44.09375 59.90625 40.109375 62.90625 
Q 36.140625 65.921875 28.71875 65.921875 
Q 24.65625 65.921875 20.015625 65.03125 
Q 15.375 64.15625 9.8125 62.3125 
L 9.8125 71.09375 
Q 15.4375 72.65625 20.34375 73.4375 
Q 25.25 74.21875 29.59375 74.21875 
Q 40.828125 74.21875 47.359375 69.109375 
Q 53.90625 64.015625 53.90625 55.328125 
Q 53.90625 49.265625 50.4375 45.09375 
Q 46.96875 40.921875 40.578125 39.3125 
z
" id="DejaVuSans-51"/>
       <path d="M 31.78125 66.40625 
Q 24.171875 66.40625 20.328125 58.90625 
Q 16.5 51.421875 16.5 36.375 
Q 16.5 21.390625 20.328125 13.890625 
Q 24.171875 6.390625 31.78125 6.390625 
Q 39.453125 6.390625 43.28125 13.890625 
Q 47.125 21.390625 47.125 36.375 
Q 47.125 51.421875 43.28125 58.90625 
Q 39.453125 66.40625 31.78125 66.40625 
z
M 31.78125 74.21875 
Q 44.046875 74.21875 50.515625 64.515625 
Q 56.984375 54.828125 56.984375 36.375 
Q 56.984375 17.96875 50.515625 8.265625 
Q 44.046875 -1.421875 31.78125 -1.421875 
Q 19.53125 -1.421875 13.0625 8.265625 
Q 6.59375 17.96875 6.59375 36.375 
Q 6.59375 54.828125 13.0625 64.515625 
Q 19.53125 74.21875 31.78125 74.21875 
z
" id="DejaVuSans-48"/>
      </defs>
      <g transform="translate(108.881402 266.598437)scale(0.1 -0.1)">
       <use xlink:href="#DejaVuSans-51"/>
       <use x="63.623047" xlink:href="#DejaVuSans-48"/>
      </g>
     </g>
    </g>
    <g id="xtick_3">
     <g id="line2d_3">
      <g>
       <use style="stroke:#000000;stroke-width:0.8;" x="156.073171" xlink:href="#m83a86af3f0" y="252"/>
      </g>
     </g>
     <g id="text_3">
      <!-- 35 -->
      <g transform="translate(149.710671 266.598437)scale(0.1 -0.1)">
       <use xlink:href="#DejaVuSans-51"/>
       <use x="63.623047" xlink:href="#DejaVuSans-53"/>
      </g>
     </g>
    </g>
    <g id="xtick_4">
     <g id="line2d_4">
      <g>
       <use style="stroke:#000000;stroke-width:0.8;" x="196.902439" xlink:href="#m83a86af3f0" y="252"/>
      </g>
     </g>
     <g id="text_4">
      <!-- 40 -->
      <defs>
       <path d="M 37.796875 64.3125 
L 12.890625 25.390625 
L 37.796875 25.390625 
z
M 35.203125 72.90625 
L 47.609375 72.90625 
L 47.609375 25.390625 
L 58.015625 25.390625 
L 58.015625 17.1875 
L 47.609375 17.1875 
L 47.609375 0 
L 37.796875 0 
L 37.796875 17.1875 
L 4.890625 17.1875 
L 4.890625 26.703125 
z
" id="DejaVuSans-52"/>
      </defs>
      <g transform="translate(190.539939 266.598437)scale(0.1 -0.1)">
       <use xlink:href="#DejaVuSans-52"/>
       <use x="63.623047" xlink:href="#DejaVuSans-48"/>
      </g>
     </g>
    </g>
    <g id="xtick_5">
     <g id="line2d_5">
      <g>
       <use style="stroke:#000000;stroke-width:0.8;" x="237.731707" xlink:href="#m83a86af3f0" y="252"/>
      </g>
     </g>
     <g id="text_5">
      <!-- 45 -->
      <g transform="translate(231.369207 266.598437)scale(0.1 -0.1)">
       <use xlink:href="#DejaVuSans-52"/>
       <use x="63.623047" xlink:href="#DejaVuSans-53"/>
      </g>
     </g>
    </g>
    <g id="xtick_6">
     <g id="line2d_6">
      <g>
       <use style="stroke:#000000;stroke-width:0.8;" x="278.560976" xlink:href="#m83a86af3f0" y="252"/>
      </g>
     </g>
     <g id="text_6">
      <!-- 50 -->
      <g transform="translate(272.198476 266.598437)scale(0.1 -0.1)">
       <use xlink:href="#DejaVuSans-53"/>
       <use x="63.623047" xlink:href="#DejaVuSans-48"/>
      </g>
     </g>
    </g>
    <g id="xtick_7">
     <g id="line2d_7">
      <g>
       <use style="stroke:#000000;stroke-width:0.8;" x="319.390244" xlink:href="#m83a86af3f0" y="252"/>
      </g>
     </g>
     <g id="text_7">
      <!-- 55 -->
      <g transform="translate(313.027744 266.598437)scale(0.1 -0.1)">
       <use xlink:href="#DejaVuSans-53"/>
       <use x="63.623047" xlink:href="#DejaVuSans-53"/>
      </g>
     </g>
    </g>
    <g id="xtick_8">
     <g id="line2d_8">
      <g>
       <use style="stroke:#000000;stroke-width:0.8;" x="360.219512" xlink:href="#m83a86af3f0" y="252"/>
      </g>
     </g>
     <g id="text_8">
      <!-- 60 -->
      <defs>
       <path d="M 33.015625 40.375 
Q 26.375 40.375 22.484375 35.828125 
Q 18.609375 31.296875 18.609375 23.390625 
Q 18.609375 15.53125 22.484375 10.953125 
Q 26.375 6.390625 33.015625 6.390625 
Q 39.65625 6.390625 43.53125 10.953125 
Q 47.40625 15.53125 47.40625 23.390625 
Q 47.40625 31.296875 43.53125 35.828125 
Q 39.65625 40.375 33.015625 40.375 
z
M 52.59375 71.296875 
L 52.59375 62.3125 
Q 48.875 64.0625 45.09375 64.984375 
Q 41.3125 65.921875 37.59375 65.921875 
Q 27.828125 65.921875 22.671875 59.328125 
Q 17.53125 52.734375 16.796875 39.40625 
Q 19.671875 43.65625 24.015625 45.921875 
Q 28.375 48.1875 33.59375 48.1875 
Q 44.578125 48.1875 50.953125 41.515625 
Q 57.328125 34.859375 57.328125 23.390625 
Q 57.328125 12.15625 50.6875 5.359375 
Q 44.046875 -1.421875 33.015625 -1.421875 
Q 20.359375 -1.421875 13.671875 8.265625 
Q 6.984375 17.96875 6.984375 36.375 
Q 6.984375 53.65625 15.1875 63.9375 
Q 23.390625 74.21875 37.203125 74.21875 
Q 40.921875 74.21875 44.703125 73.484375 
Q 48.484375 72.75 52.59375 71.296875 
z
" id="DejaVuSans-54"/>
      </defs>
      <g transform="translate(353.857012 266.598437)scale(0.1 -0.1)">
       <use xlink:href="#DejaVuSans-54"/>
       <use x="63.623047" xlink:href="#DejaVuSans-48"/>
      </g>
     </g>
    </g>
    <g id="text_9">
     <!-- # heads in experiment -->
     <defs>
      <path d="M 51.125 44 
L 36.921875 44 
L 32.8125 27.6875 
L 47.125 27.6875 
z
M 43.796875 71.78125 
L 38.71875 51.515625 
L 52.984375 51.515625 
L 58.109375 71.78125 
L 65.921875 71.78125 
L 60.890625 51.515625 
L 76.125 51.515625 
L 76.125 44 
L 58.984375 44 
L 54.984375 27.6875 
L 70.515625 27.6875 
L 70.515625 20.21875 
L 53.078125 20.21875 
L 48 0 
L 40.1875 0 
L 45.21875 20.21875 
L 30.90625 20.21875 
L 25.875 0 
L 18.015625 0 
L 23.09375 20.21875 
L 7.71875 20.21875 
L 7.71875 27.6875 
L 24.90625 27.6875 
L 29 44 
L 13.28125 44 
L 13.28125 51.515625 
L 30.90625 51.515625 
L 35.890625 71.78125 
z
" id="DejaVuSans-35"/>
      <path id="DejaVuSans-32"/>
      <path d="M 54.890625 33.015625 
L 54.890625 0 
L 45.90625 0 
L 45.90625 32.71875 
Q 45.90625 40.484375 42.875 44.328125 
Q 39.84375 48.1875 33.796875 48.1875 
Q 26.515625 48.1875 22.3125 43.546875 
Q 18.109375 38.921875 18.109375 30.90625 
L 18.109375 0 
L 9.078125 0 
L 9.078125 75.984375 
L 18.109375 75.984375 
L 18.109375 46.1875 
Q 21.34375 51.125 25.703125 53.5625 
Q 30.078125 56 35.796875 56 
Q 45.21875 56 50.046875 50.171875 
Q 54.890625 44.34375 54.890625 33.015625 
z
" id="DejaVuSans-104"/>
      <path d="M 56.203125 29.59375 
L 56.203125 25.203125 
L 14.890625 25.203125 
Q 15.484375 15.921875 20.484375 11.0625 
Q 25.484375 6.203125 34.421875 6.203125 
Q 39.59375 6.203125 44.453125 7.46875 
Q 49.3125 8.734375 54.109375 11.28125 
L 54.109375 2.78125 
Q 49.265625 0.734375 44.1875 -0.34375 
Q 39.109375 -1.421875 33.890625 -1.421875 
Q 20.796875 -1.421875 13.15625 6.1875 
Q 5.515625 13.8125 5.515625 26.8125 
Q 5.515625 40.234375 12.765625 48.109375 
Q 20.015625 56 32.328125 56 
Q 43.359375 56 49.78125 48.890625 
Q 56.203125 41.796875 56.203125 29.59375 
z
M 47.21875 32.234375 
Q 47.125 39.59375 43.09375 43.984375 
Q 39.0625 48.390625 32.421875 48.390625 
Q 24.90625 48.390625 20.390625 44.140625 
Q 15.875 39.890625 15.1875 32.171875 
z
" id="DejaVuSans-101"/>
      <path d="M 34.28125 27.484375 
Q 23.390625 27.484375 19.1875 25 
Q 14.984375 22.515625 14.984375 16.5 
Q 14.984375 11.71875 18.140625 8.90625 
Q 21.296875 6.109375 26.703125 6.109375 
Q 34.1875 6.109375 38.703125 11.40625 
Q 43.21875 16.703125 43.21875 25.484375 
L 43.21875 27.484375 
z
M 52.203125 31.203125 
L 52.203125 0 
L 43.21875 0 
L 43.21875 8.296875 
Q 40.140625 3.328125 35.546875 0.953125 
Q 30.953125 -1.421875 24.3125 -1.421875 
Q 15.921875 -1.421875 10.953125 3.296875 
Q 6 8.015625 6 15.921875 
Q 6 25.140625 12.171875 29.828125 
Q 18.359375 34.515625 30.609375 34.515625 
L 43.21875 34.515625 
L 43.21875 35.40625 
Q 43.21875 41.609375 39.140625 45 
Q 35.0625 48.390625 27.6875 48.390625 
Q 23 48.390625 18.546875 47.265625 
Q 14.109375 46.140625 10.015625 43.890625 
L 10.015625 52.203125 
Q 14.9375 54.109375 19.578125 55.046875 
Q 24.21875 56 28.609375 56 
Q 40.484375 56 46.34375 49.84375 
Q 52.203125 43.703125 52.203125 31.203125 
z
" id="DejaVuSans-97"/>
      <path d="M 45.40625 46.390625 
L 45.40625 75.984375 
L 54.390625 75.984375 
L 54.390625 0 
L 45.40625 0 
L 45.40625 8.203125 
Q 42.578125 3.328125 38.25 0.953125 
Q 33.9375 -1.421875 27.875 -1.421875 
Q 17.96875 -1.421875 11.734375 6.484375 
Q 5.515625 14.40625 5.515625 27.296875 
Q 5.515625 40.1875 11.734375 48.09375 
Q 17.96875 56 27.875 56 
Q 33.9375 56 38.25 53.625 
Q 42.578125 51.265625 45.40625 46.390625 
z
M 14.796875 27.296875 
Q 14.796875 17.390625 18.875 11.75 
Q 22.953125 6.109375 30.078125 6.109375 
Q 37.203125 6.109375 41.296875 11.75 
Q 45.40625 17.390625 45.40625 27.296875 
Q 45.40625 37.203125 41.296875 42.84375 
Q 37.203125 48.484375 30.078125 48.484375 
Q 22.953125 48.484375 18.875 42.84375 
Q 14.796875 37.203125 14.796875 27.296875 
z
" id="DejaVuSans-100"/>
      <path d="M 44.28125 53.078125 
L 44.28125 44.578125 
Q 40.484375 46.53125 36.375 47.5 
Q 32.28125 48.484375 27.875 48.484375 
Q 21.1875 48.484375 17.84375 46.4375 
Q 14.5 44.390625 14.5 40.28125 
Q 14.5 37.15625 16.890625 35.375 
Q 19.28125 33.59375 26.515625 31.984375 
L 29.59375 31.296875 
Q 39.15625 29.25 43.1875 25.515625 
Q 47.21875 21.78125 47.21875 15.09375 
Q 47.21875 7.46875 41.1875 3.015625 
Q 35.15625 -1.421875 24.609375 -1.421875 
Q 20.21875 -1.421875 15.453125 -0.5625 
Q 10.6875 0.296875 5.421875 2 
L 5.421875 11.28125 
Q 10.40625 8.6875 15.234375 7.390625 
Q 20.0625 6.109375 24.8125 6.109375 
Q 31.15625 6.109375 34.5625 8.28125 
Q 37.984375 10.453125 37.984375 14.40625 
Q 37.984375 18.0625 35.515625 20.015625 
Q 33.0625 21.96875 24.703125 23.78125 
L 21.578125 24.515625 
Q 13.234375 26.265625 9.515625 29.90625 
Q 5.8125 33.546875 5.8125 39.890625 
Q 5.8125 47.609375 11.28125 51.796875 
Q 16.75 56 26.8125 56 
Q 31.78125 56 36.171875 55.265625 
Q 40.578125 54.546875 44.28125 53.078125 
z
" id="DejaVuSans-115"/>
      <path d="M 9.421875 54.6875 
L 18.40625 54.6875 
L 18.40625 0 
L 9.421875 0 
z
M 9.421875 75.984375 
L 18.40625 75.984375 
L 18.40625 64.59375 
L 9.421875 64.59375 
z
" id="DejaVuSans-105"/>
      <path d="M 54.890625 33.015625 
L 54.890625 0 
L 45.90625 0 
L 45.90625 32.71875 
Q 45.90625 40.484375 42.875 44.328125 
Q 39.84375 48.1875 33.796875 48.1875 
Q 26.515625 48.1875 22.3125 43.546875 
Q 18.109375 38.921875 18.109375 30.90625 
L 18.109375 0 
L 9.078125 0 
L 9.078125 54.6875 
L 18.109375 54.6875 
L 18.109375 46.1875 
Q 21.34375 51.125 25.703125 53.5625 
Q 30.078125 56 35.796875 56 
Q 45.21875 56 50.046875 50.171875 
Q 54.890625 44.34375 54.890625 33.015625 
z
" id="DejaVuSans-110"/>
      <path d="M 54.890625 54.6875 
L 35.109375 28.078125 
L 55.90625 0 
L 45.3125 0 
L 29.390625 21.484375 
L 13.484375 0 
L 2.875 0 
L 24.125 28.609375 
L 4.6875 54.6875 
L 15.28125 54.6875 
L 29.78125 35.203125 
L 44.28125 54.6875 
z
" id="DejaVuSans-120"/>
      <path d="M 18.109375 8.203125 
L 18.109375 -20.796875 
L 9.078125 -20.796875 
L 9.078125 54.6875 
L 18.109375 54.6875 
L 18.109375 46.390625 
Q 20.953125 51.265625 25.265625 53.625 
Q 29.59375 56 35.59375 56 
Q 45.5625 56 51.78125 48.09375 
Q 58.015625 40.1875 58.015625 27.296875 
Q 58.015625 14.40625 51.78125 6.484375 
Q 45.5625 -1.421875 35.59375 -1.421875 
Q 29.59375 -1.421875 25.265625 0.953125 
Q 20.953125 3.328125 18.109375 8.203125 
z
M 48.6875 27.296875 
Q 48.6875 37.203125 44.609375 42.84375 
Q 40.53125 48.484375 33.40625 48.484375 
Q 26.265625 48.484375 22.1875 42.84375 
Q 18.109375 37.203125 18.109375 27.296875 
Q 18.109375 17.390625 22.1875 11.75 
Q 26.265625 6.109375 33.40625 6.109375 
Q 40.53125 6.109375 44.609375 11.75 
Q 48.6875 17.390625 48.6875 27.296875 
z
" id="DejaVuSans-112"/>
      <path d="M 41.109375 46.296875 
Q 39.59375 47.171875 37.8125 47.578125 
Q 36.03125 48 33.890625 48 
Q 26.265625 48 22.1875 43.046875 
Q 18.109375 38.09375 18.109375 28.8125 
L 18.109375 0 
L 9.078125 0 
L 9.078125 54.6875 
L 18.109375 54.6875 
L 18.109375 46.1875 
Q 20.953125 51.171875 25.484375 53.578125 
Q 30.03125 56 36.53125 56 
Q 37.453125 56 38.578125 55.875 
Q 39.703125 55.765625 41.0625 55.515625 
z
" id="DejaVuSans-114"/>
      <path d="M 52 44.1875 
Q 55.375 50.25 60.0625 53.125 
Q 64.75 56 71.09375 56 
Q 79.640625 56 84.28125 50.015625 
Q 88.921875 44.046875 88.921875 33.015625 
L 88.921875 0 
L 79.890625 0 
L 79.890625 32.71875 
Q 79.890625 40.578125 77.09375 44.375 
Q 74.3125 48.1875 68.609375 48.1875 
Q 61.625 48.1875 57.5625 43.546875 
Q 53.515625 38.921875 53.515625 30.90625 
L 53.515625 0 
L 44.484375 0 
L 44.484375 32.71875 
Q 44.484375 40.625 41.703125 44.40625 
Q 38.921875 48.1875 33.109375 48.1875 
Q 26.21875 48.1875 22.15625 43.53125 
Q 18.109375 38.875 18.109375 30.90625 
L 18.109375 0 
L 9.078125 0 
L 9.078125 54.6875 
L 18.109375 54.6875 
L 18.109375 46.1875 
Q 21.1875 51.21875 25.484375 53.609375 
Q 29.78125 56 35.6875 56 
Q 41.65625 56 45.828125 52.96875 
Q 50 49.953125 52 44.1875 
z
" id="DejaVuSans-109"/>
      <path d="M 18.3125 70.21875 
L 18.3125 54.6875 
L 36.8125 54.6875 
L 36.8125 47.703125 
L 18.3125 47.703125 
L 18.3125 18.015625 
Q 18.3125 11.328125 20.140625 9.421875 
Q 21.96875 7.515625 27.59375 7.515625 
L 36.8125 7.515625 
L 36.8125 0 
L 27.59375 0 
Q 17.1875 0 13.234375 3.875 
Q 9.28125 7.765625 9.28125 18.015625 
L 9.28125 47.703125 
L 2.6875 47.703125 
L 2.6875 54.6875 
L 9.28125 54.6875 
L 9.28125 70.21875 
z
" id="DejaVuSans-116"/>
     </defs>
     <g transform="translate(164.077344 280.276563)scale(0.1 -0.1)">
      <use xlink:href="#DejaVuSans-35"/>
      <use x="83.789062" xlink:href="#DejaVuSans-32"/>
      <use x="115.576172" xlink:href="#DejaVuSans-104"/>
      <use x="178.955078" xlink:href="#DejaVuSans-101"/>
      <use x="240.478516" xlink:href="#DejaVuSans-97"/>
      <use x="301.757812" xlink:href="#DejaVuSans-100"/>
      <use x="365.234375" xlink:href="#DejaVuSans-115"/>
      <use x="417.333984" xlink:href="#DejaVuSans-32"/>
      <use x="449.121094" xlink:href="#DejaVuSans-105"/>
      <use x="476.904297" xlink:href="#DejaVuSans-110"/>
      <use x="540.283203" xlink:href="#DejaVuSans-32"/>
      <use x="572.070312" xlink:href="#DejaVuSans-101"/>
      <use x="631.84375" xlink:href="#DejaVuSans-120"/>
      <use x="691.023438" xlink:href="#DejaVuSans-112"/>
      <use x="754.5" xlink:href="#DejaVuSans-101"/>
      <use x="816.023438" xlink:href="#DejaVuSans-114"/>
      <use x="857.136719" xlink:href="#DejaVuSans-105"/>
      <use x="884.919922" xlink:href="#DejaVuSans-109"/>
      <use x="982.332031" xlink:href="#DejaVuSans-101"/>
      <use x="1043.855469" xlink:href="#DejaVuSans-110"/>
      <use x="1107.234375" xlink:href="#DejaVuSans-116"/>
     </g>
    </g>
   </g>
   <g id="matplotlib.axis_2">
    <g id="ytick_1">
     <g id="line2d_9">
      <path clip-path="url(#p5ace420df4)" d="M 54 252 
L 388.8 252 
" style="fill:none;stroke:#000000;stroke-linecap:square;stroke-width:0.8;"/>
     </g>
     <g id="line2d_10">
      <defs>
       <path d="M 0 0 
L -3.5 0 
" id="mf1f021eff9" style="stroke:#000000;stroke-width:0.8;"/>
      </defs>
      <g>
       <use style="stroke:#000000;stroke-width:0.8;" x="54" xlink:href="#mf1f021eff9" y="252"/>
      </g>
     </g>
     <g id="text_10">
      <!-- 0.00 -->
      <defs>
       <path d="M 10.6875 12.40625 
L 21 12.40625 
L 21 0 
L 10.6875 0 
z
" id="DejaVuSans-46"/>
      </defs>
      <g transform="translate(24.734375 255.799219)scale(0.1 -0.1)">
       <use xlink:href="#DejaVuSans-48"/>
       <use x="63.623047" xlink:href="#DejaVuSans-46"/>
       <use x="95.410156" xlink:href="#DejaVuSans-48"/>
       <use x="159.033203" xlink:href="#DejaVuSans-48"/>
      </g>
     </g>
    </g>
    <g id="ytick_2">
     <g id="line2d_11">
      <path clip-path="url(#p5ace420df4)" d="M 54 227.317555 
L 388.8 227.317555 
" style="fill:none;stroke:#000000;stroke-linecap:square;stroke-width:0.8;"/>
     </g>
     <g id="line2d_12">
      <g>
       <use style="stroke:#000000;stroke-width:0.8;" x="54" xlink:href="#mf1f021eff9" y="227.317555"/>
      </g>
     </g>
     <g id="text_11">
      <!-- 0.01 -->
      <defs>
       <path d="M 12.40625 8.296875 
L 28.515625 8.296875 
L 28.515625 63.921875 
L 10.984375 60.40625 
L 10.984375 69.390625 
L 28.421875 72.90625 
L 38.28125 72.90625 
L 38.28125 8.296875 
L 54.390625 8.296875 
L 54.390625 0 
L 12.40625 0 
z
" id="DejaVuSans-49"/>
      </defs>
      <g transform="translate(24.734375 231.116774)scale(0.1 -0.1)">
       <use xlink:href="#DejaVuSans-48"/>
       <use x="63.623047" xlink:href="#DejaVuSans-46"/>
       <use x="95.410156" xlink:href="#DejaVuSans-48"/>
       <use x="159.033203" xlink:href="#DejaVuSans-49"/>
      </g>
     </g>
    </g>
    <g id="ytick_3">
     <g id="line2d_13">
      <path clip-path="url(#p5ace420df4)" d="M 54 202.63511 
L 388.8 202.63511 
" style="fill:none;stroke:#000000;stroke-linecap:square;stroke-width:0.8;"/>
     </g>
     <g id="line2d_14">
      <g>
       <use style="stroke:#000000;stroke-width:0.8;" x="54" xlink:href="#mf1f021eff9" y="202.63511"/>
      </g>
     </g>
     <g id="text_12">
      <!-- 0.02 -->
      <g transform="translate(24.734375 206.434329)scale(0.1 -0.1)">
       <use xlink:href="#DejaVuSans-48"/>
       <use x="63.623047" xlink:href="#DejaVuSans-46"/>
       <use x="95.410156" xlink:href="#DejaVuSans-48"/>
       <use x="159.033203" xlink:href="#DejaVuSans-50"/>
      </g>
     </g>
    </g>
    <g id="ytick_4">
     <g id="line2d_15">
      <path clip-path="url(#p5ace420df4)" d="M 54 177.952665 
L 388.8 177.952665 
" style="fill:none;stroke:#000000;stroke-linecap:square;stroke-width:0.8;"/>
     </g>
     <g id="line2d_16">
      <g>
       <use style="stroke:#000000;stroke-width:0.8;" x="54" xlink:href="#mf1f021eff9" y="177.952665"/>
      </g>
     </g>
     <g id="text_13">
      <!-- 0.03 -->
      <g transform="translate(24.734375 181.751883)scale(0.1 -0.1)">
       <use xlink:href="#DejaVuSans-48"/>
       <use x="63.623047" xlink:href="#DejaVuSans-46"/>
       <use x="95.410156" xlink:href="#DejaVuSans-48"/>
       <use x="159.033203" xlink:href="#DejaVuSans-51"/>
      </g>
     </g>
    </g>
    <g id="ytick_5">
     <g id="line2d_17">
      <path clip-path="url(#p5ace420df4)" d="M 54 153.27022 
L 388.8 153.27022 
" style="fill:none;stroke:#000000;stroke-linecap:square;stroke-width:0.8;"/>
     </g>
     <g id="line2d_18">
      <g>
       <use style="stroke:#000000;stroke-width:0.8;" x="54" xlink:href="#mf1f021eff9" y="153.27022"/>
      </g>
     </g>
     <g id="text_14">
      <!-- 0.04 -->
      <g transform="translate(24.734375 157.069438)scale(0.1 -0.1)">
       <use xlink:href="#DejaVuSans-48"/>
       <use x="63.623047" xlink:href="#DejaVuSans-46"/>
       <use x="95.410156" xlink:href="#DejaVuSans-48"/>
       <use x="159.033203" xlink:href="#DejaVuSans-52"/>
      </g>
     </g>
    </g>
    <g id="ytick_6">
     <g id="line2d_19">
      <path clip-path="url(#p5ace420df4)" d="M 54 128.587775 
L 388.8 128.587775 
" style="fill:none;stroke:#000000;stroke-linecap:square;stroke-width:0.8;"/>
     </g>
     <g id="line2d_20">
      <g>
       <use style="stroke:#000000;stroke-width:0.8;" x="54" xlink:href="#mf1f021eff9" y="128.587775"/>
      </g>
     </g>
     <g id="text_15">
      <!-- 0.05 -->
      <g transform="translate(24.734375 132.386993)scale(0.1 -0.1)">
       <use xlink:href="#DejaVuSans-48"/>
       <use x="63.623047" xlink:href="#DejaVuSans-46"/>
       <use x="95.410156" xlink:href="#DejaVuSans-48"/>
       <use x="159.033203" xlink:href="#DejaVuSans-53"/>
      </g>
     </g>
    </g>
    <g id="ytick_7">
     <g id="line2d_21">
      <path clip-path="url(#p5ace420df4)" d="M 54 103.905329 
L 388.8 103.905329 
" style="fill:none;stroke:#000000;stroke-linecap:square;stroke-width:0.8;"/>
     </g>
     <g id="line2d_22">
      <g>
       <use style="stroke:#000000;stroke-width:0.8;" x="54" xlink:href="#mf1f021eff9" y="103.905329"/>
      </g>
     </g>
     <g id="text_16">
      <!-- 0.06 -->
      <g transform="translate(24.734375 107.704548)scale(0.1 -0.1)">
       <use xlink:href="#DejaVuSans-48"/>
       <use x="63.623047" xlink:href="#DejaVuSans-46"/>
       <use x="95.410156" xlink:href="#DejaVuSans-48"/>
       <use x="159.033203" xlink:href="#DejaVuSans-54"/>
      </g>
     </g>
    </g>
    <g id="ytick_8">
     <g id="line2d_23">
      <path clip-path="url(#p5ace420df4)" d="M 54 79.222884 
L 388.8 79.222884 
" style="fill:none;stroke:#000000;stroke-linecap:square;stroke-width:0.8;"/>
     </g>
     <g id="line2d_24">
      <g>
       <use style="stroke:#000000;stroke-width:0.8;" x="54" xlink:href="#mf1f021eff9" y="79.222884"/>
      </g>
     </g>
     <g id="text_17">
      <!-- 0.07 -->
      <defs>
       <path d="M 8.203125 72.90625 
L 55.078125 72.90625 
L 55.078125 68.703125 
L 28.609375 0 
L 18.3125 0 
L 43.21875 64.59375 
L 8.203125 64.59375 
z
" id="DejaVuSans-55"/>
      </defs>
      <g transform="translate(24.734375 83.022103)scale(0.1 -0.1)">
       <use xlink:href="#DejaVuSans-48"/>
       <use x="63.623047" xlink:href="#DejaVuSans-46"/>
       <use x="95.410156" xlink:href="#DejaVuSans-48"/>
       <use x="159.033203" xlink:href="#DejaVuSans-55"/>
      </g>
     </g>
    </g>
    <g id="ytick_9">
     <g id="line2d_25">
      <path clip-path="url(#p5ace420df4)" d="M 54 54.540439 
L 388.8 54.540439 
" style="fill:none;stroke:#000000;stroke-linecap:square;stroke-width:0.8;"/>
     </g>
     <g id="line2d_26">
      <g>
       <use style="stroke:#000000;stroke-width:0.8;" x="54" xlink:href="#mf1f021eff9" y="54.540439"/>
      </g>
     </g>
     <g id="text_18">
      <!-- 0.08 -->
      <defs>
       <path d="M 31.78125 34.625 
Q 24.75 34.625 20.71875 30.859375 
Q 16.703125 27.09375 16.703125 20.515625 
Q 16.703125 13.921875 20.71875 10.15625 
Q 24.75 6.390625 31.78125 6.390625 
Q 38.8125 6.390625 42.859375 10.171875 
Q 46.921875 13.96875 46.921875 20.515625 
Q 46.921875 27.09375 42.890625 30.859375 
Q 38.875 34.625 31.78125 34.625 
z
M 21.921875 38.8125 
Q 15.578125 40.375 12.03125 44.71875 
Q 8.5 49.078125 8.5 55.328125 
Q 8.5 64.0625 14.71875 69.140625 
Q 20.953125 74.21875 31.78125 74.21875 
Q 42.671875 74.21875 48.875 69.140625 
Q 55.078125 64.0625 55.078125 55.328125 
Q 55.078125 49.078125 51.53125 44.71875 
Q 48 40.375 41.703125 38.8125 
Q 48.828125 37.15625 52.796875 32.3125 
Q 56.78125 27.484375 56.78125 20.515625 
Q 56.78125 9.90625 50.3125 4.234375 
Q 43.84375 -1.421875 31.78125 -1.421875 
Q 19.734375 -1.421875 13.25 4.234375 
Q 6.78125 9.90625 6.78125 20.515625 
Q 6.78125 27.484375 10.78125 32.3125 
Q 14.796875 37.15625 21.921875 38.8125 
z
M 18.3125 54.390625 
Q 18.3125 48.734375 21.84375 45.5625 
Q 25.390625 42.390625 31.78125 42.390625 
Q 38.140625 42.390625 41.71875 45.5625 
Q 45.3125 48.734375 45.3125 54.390625 
Q 45.3125 60.0625 41.71875 63.234375 
Q 38.140625 66.40625 31.78125 66.40625 
Q 25.390625 66.40625 21.84375 63.234375 
Q 18.3125 60.0625 18.3125 54.390625 
z
" id="DejaVuSans-56"/>
      </defs>
      <g transform="translate(24.734375 58.339658)scale(0.1 -0.1)">
       <use xlink:href="#DejaVuSans-48"/>
       <use x="63.623047" xlink:href="#DejaVuSans-46"/>
       <use x="95.410156" xlink:href="#DejaVuSans-48"/>
       <use x="159.033203" xlink:href="#DejaVuSans-56"/>
      </g>
     </g>
    </g>
    <g id="text_19">
     <!-- P of # heads in experiment -->
     <defs>
      <path d="M 19.671875 64.796875 
L 19.671875 37.40625 
L 32.078125 37.40625 
Q 38.96875 37.40625 42.71875 40.96875 
Q 46.484375 44.53125 46.484375 51.125 
Q 46.484375 57.671875 42.71875 61.234375 
Q 38.96875 64.796875 32.078125 64.796875 
z
M 9.8125 72.90625 
L 32.078125 72.90625 
Q 44.34375 72.90625 50.609375 67.359375 
Q 56.890625 61.8125 56.890625 51.125 
Q 56.890625 40.328125 50.609375 34.8125 
Q 44.34375 29.296875 32.078125 29.296875 
L 19.671875 29.296875 
L 19.671875 0 
L 9.8125 0 
z
" id="DejaVuSans-80"/>
      <path d="M 30.609375 48.390625 
Q 23.390625 48.390625 19.1875 42.75 
Q 14.984375 37.109375 14.984375 27.296875 
Q 14.984375 17.484375 19.15625 11.84375 
Q 23.34375 6.203125 30.609375 6.203125 
Q 37.796875 6.203125 41.984375 11.859375 
Q 46.1875 17.53125 46.1875 27.296875 
Q 46.1875 37.015625 41.984375 42.703125 
Q 37.796875 48.390625 30.609375 48.390625 
z
M 30.609375 56 
Q 42.328125 56 49.015625 48.375 
Q 55.71875 40.765625 55.71875 27.296875 
Q 55.71875 13.875 49.015625 6.21875 
Q 42.328125 -1.421875 30.609375 -1.421875 
Q 18.84375 -1.421875 12.171875 6.21875 
Q 5.515625 13.875 5.515625 27.296875 
Q 5.515625 40.765625 12.171875 48.375 
Q 18.84375 56 30.609375 56 
z
" id="DejaVuSans-111"/>
      <path d="M 37.109375 75.984375 
L 37.109375 68.5 
L 28.515625 68.5 
Q 23.6875 68.5 21.796875 66.546875 
Q 19.921875 64.59375 19.921875 59.515625 
L 19.921875 54.6875 
L 34.71875 54.6875 
L 34.71875 47.703125 
L 19.921875 47.703125 
L 19.921875 0 
L 10.890625 0 
L 10.890625 47.703125 
L 2.296875 47.703125 
L 2.296875 54.6875 
L 10.890625 54.6875 
L 10.890625 58.5 
Q 10.890625 67.625 15.140625 71.796875 
Q 19.390625 75.984375 28.609375 75.984375 
z
" id="DejaVuSans-102"/>
     </defs>
     <g transform="translate(18.654687 211.615156)rotate(-90)scale(0.1 -0.1)">
      <use xlink:href="#DejaVuSans-80"/>
      <use x="60.302734" xlink:href="#DejaVuSans-32"/>
      <use x="92.089844" xlink:href="#DejaVuSans-111"/>
      <use x="153.271484" xlink:href="#DejaVuSans-102"/>
      <use x="188.476562" xlink:href="#DejaVuSans-32"/>
      <use x="220.263672" xlink:href="#DejaVuSans-35"/>
      <use x="304.052734" xlink:href="#DejaVuSans-32"/>
      <use x="335.839844" xlink:href="#DejaVuSans-104"/>
      <use x="399.21875" xlink:href="#DejaVuSans-101"/>
      <use x="460.742188" xlink:href="#DejaVuSans-97"/>
      <use x="522.021484" xlink:href="#DejaVuSans-100"/>
      <use x="585.498047" xlink:href="#DejaVuSans-115"/>
      <use x="637.597656" xlink:href="#DejaVuSans-32"/>
      <use x="669.384766" xlink:href="#DejaVuSans-105"/>
      <use x="697.167969" xlink:href="#DejaVuSans-110"/>
      <use x="760.546875" xlink:href="#DejaVuSans-32"/>
      <use x="792.333984" xlink:href="#DejaVuSans-101"/>
      <use x="852.107422" xlink:href="#DejaVuSans-120"/>
      <use x="911.287109" xlink:href="#DejaVuSans-112"/>
      <use x="974.763672" xlink:href="#DejaVuSans-101"/>
      <use x="1036.287109" xlink:href="#DejaVuSans-114"/>
      <use x="1077.400391" xlink:href="#DejaVuSans-105"/>
      <use x="1105.183594" xlink:href="#DejaVuSans-109"/>
      <use x="1202.595703" xlink:href="#DejaVuSans-101"/>
      <use x="1264.119141" xlink:href="#DejaVuSans-110"/>
      <use x="1327.498047" xlink:href="#DejaVuSans-116"/>
     </g>
    </g>
   </g>
   <g id="line2d_27">
    <defs>
     <path d="M 0 -3 
L -0.673542 -0.927051 
L -2.85317 -0.927051 
L -1.089814 0.354102 
L -1.763356 2.427051 
L -0 1.145898 
L 1.763356 2.427051 
L 1.089814 0.354102 
L 2.85317 -0.927051 
L 0.673542 -0.927051 
z
" id="ma798bcb193" style="stroke:#000000;stroke-linejoin:bevel;"/>
    </defs>
    <g clip-path="url(#p5ace420df4)">
     <use style="stroke:#000000;stroke-linejoin:bevel;" x="-1" xlink:href="#ma798bcb193" y="251.999725"/>
     <use style="stroke:#000000;stroke-linejoin:bevel;" x="0.921951" xlink:href="#ma798bcb193" y="251.99967"/>
     <use style="stroke:#000000;stroke-linejoin:bevel;" x="9.087805" xlink:href="#ma798bcb193" y="251.998912"/>
     <use style="stroke:#000000;stroke-linejoin:bevel;" x="17.253659" xlink:href="#ma798bcb193" y="251.996654"/>
     <use style="stroke:#000000;stroke-linejoin:bevel;" x="25.419512" xlink:href="#ma798bcb193" y="251.990373"/>
     <use style="stroke:#000000;stroke-linejoin:bevel;" x="33.585366" xlink:href="#ma798bcb193" y="251.974008"/>
     <use style="stroke:#000000;stroke-linejoin:bevel;" x="41.75122" xlink:href="#ma798bcb193" y="251.933989"/>
     <use style="stroke:#000000;stroke-linejoin:bevel;" x="49.917073" xlink:href="#ma798bcb193" y="251.841973"/>
     <use style="stroke:#000000;stroke-linejoin:bevel;" x="58.082927" xlink:href="#ma798bcb193" y="251.642721"/>
     <use style="stroke:#000000;stroke-linejoin:bevel;" x="66.24878" xlink:href="#ma798bcb193" y="251.23582"/>
     <use style="stroke:#000000;stroke-linejoin:bevel;" x="74.414634" xlink:href="#ma798bcb193" y="250.451262"/>
     <use style="stroke:#000000;stroke-linejoin:bevel;" x="82.580488" xlink:href="#ma798bcb193" y="249.021657"/>
     <use style="stroke:#000000;stroke-linejoin:bevel;" x="90.746341" xlink:href="#ma798bcb193" y="246.55809"/>
     <use style="stroke:#000000;stroke-linejoin:bevel;" x="98.912195" xlink:href="#ma798bcb193" y="242.541442"/>
     <use style="stroke:#000000;stroke-linejoin:bevel;" x="107.078049" xlink:href="#ma798bcb193" y="236.344456"/>
     <use style="stroke:#000000;stroke-linejoin:bevel;" x="115.243902" xlink:href="#ma798bcb193" y="227.299031"/>
     <use style="stroke:#000000;stroke-linejoin:bevel;" x="123.409756" xlink:href="#ma798bcb193" y="214.815746"/>
     <use style="stroke:#000000;stroke-linejoin:bevel;" x="131.57561" xlink:href="#ma798bcb193" y="198.547634"/>
     <use style="stroke:#000000;stroke-linejoin:bevel;" x="139.741463" xlink:href="#ma798bcb193" y="178.570488"/>
     <use style="stroke:#000000;stroke-linejoin:bevel;" x="147.907317" xlink:href="#ma798bcb193" y="155.533778"/>
     <use style="stroke:#000000;stroke-linejoin:bevel;" x="156.073171" xlink:href="#ma798bcb193" y="130.728178"/>
     <use style="stroke:#000000;stroke-linejoin:bevel;" x="164.239024" xlink:href="#ma798bcb193" y="106.024658"/>
     <use style="stroke:#000000;stroke-linejoin:bevel;" x="172.404878" xlink:href="#ma798bcb193" y="83.668075"/>
     <use style="stroke:#000000;stroke-linejoin:bevel;" x="180.570732" xlink:href="#ma798bcb193" y="65.948925"/>
     <use style="stroke:#000000;stroke-linejoin:bevel;" x="188.736585" xlink:href="#ma798bcb193" y="54.817664"/>
     <use style="stroke:#000000;stroke-linejoin:bevel;" x="196.902439" xlink:href="#ma798bcb193" y="51.531291"/>
     <use style="stroke:#000000;stroke-linejoin:bevel;" x="205.068293" xlink:href="#ma798bcb193" y="56.420772"/>
     <use style="stroke:#000000;stroke-linejoin:bevel;" x="213.234146" xlink:href="#ma798bcb193" y="68.838501"/>
     <use style="stroke:#000000;stroke-linejoin:bevel;" x="221.4" xlink:href="#ma798bcb193" y="87.296636"/>
     <use style="stroke:#000000;stroke-linejoin:bevel;" x="229.565854" xlink:href="#ma798bcb193" y="109.756186"/>
     <use style="stroke:#000000;stroke-linejoin:bevel;" x="237.731707" xlink:href="#ma798bcb193" y="133.990317"/>
     <use style="stroke:#000000;stroke-linejoin:bevel;" x="245.897561" xlink:href="#ma798bcb193" y="157.934311"/>
     <use style="stroke:#000000;stroke-linejoin:bevel;" x="254.063415" xlink:href="#ma798bcb193" y="179.949685"/>
     <use style="stroke:#000000;stroke-linejoin:bevel;" x="262.229268" xlink:href="#ma798bcb193" y="198.962963"/>
     <use style="stroke:#000000;stroke-linejoin:bevel;" x="270.395122" xlink:href="#ma798bcb193" y="214.477198"/>
     <use style="stroke:#000000;stroke-linejoin:bevel;" x="278.560976" xlink:href="#ma798bcb193" y="226.484495"/>
     <use style="stroke:#000000;stroke-linejoin:bevel;" x="286.726829" xlink:href="#ma798bcb193" y="235.323199"/>
     <use style="stroke:#000000;stroke-linejoin:bevel;" x="294.892683" xlink:href="#ma798bcb193" y="241.523548"/>
     <use style="stroke:#000000;stroke-linejoin:bevel;" x="303.058537" xlink:href="#ma798bcb193" y="245.674595"/>
     <use style="stroke:#000000;stroke-linejoin:bevel;" x="311.22439" xlink:href="#ma798bcb193" y="248.329703"/>
     <use style="stroke:#000000;stroke-linejoin:bevel;" x="319.390244" xlink:href="#ma798bcb193" y="249.953532"/>
     <use style="stroke:#000000;stroke-linejoin:bevel;" x="327.556098" xlink:href="#ma798bcb193" y="250.903678"/>
     <use style="stroke:#000000;stroke-linejoin:bevel;" x="335.721951" xlink:href="#ma798bcb193" y="251.435811"/>
     <use style="stroke:#000000;stroke-linejoin:bevel;" x="343.887805" xlink:href="#ma798bcb193" y="251.721148"/>
     <use style="stroke:#000000;stroke-linejoin:bevel;" x="352.053659" xlink:href="#ma798bcb193" y="251.867663"/>
     <use style="stroke:#000000;stroke-linejoin:bevel;" x="360.219512" xlink:href="#ma798bcb193" y="251.939713"/>
     <use style="stroke:#000000;stroke-linejoin:bevel;" x="368.385366" xlink:href="#ma798bcb193" y="251.973645"/>
     <use style="stroke:#000000;stroke-linejoin:bevel;" x="376.55122" xlink:href="#ma798bcb193" y="251.988948"/>
     <use style="stroke:#000000;stroke-linejoin:bevel;" x="384.717073" xlink:href="#ma798bcb193" y="251.995556"/>
     <use style="stroke:#000000;stroke-linejoin:bevel;" x="392.882927" xlink:href="#ma798bcb193" y="251.998287"/>
     <use style="stroke:#000000;stroke-linejoin:bevel;" x="401.04878" xlink:href="#ma798bcb193" y="251.999368"/>
     <use style="stroke:#000000;stroke-linejoin:bevel;" x="409.214634" xlink:href="#ma798bcb193" y="251.999776"/>
     <use style="stroke:#000000;stroke-linejoin:bevel;" x="417.380488" xlink:href="#ma798bcb193" y="251.999924"/>
     <use style="stroke:#000000;stroke-linejoin:bevel;" x="425.546341" xlink:href="#ma798bcb193" y="251.999976"/>
     <use style="stroke:#000000;stroke-linejoin:bevel;" x="433.712195" xlink:href="#ma798bcb193" y="251.999992"/>
     <use style="stroke:#000000;stroke-linejoin:bevel;" x="441.878049" xlink:href="#ma798bcb193" y="251.999998"/>
     <use style="stroke:#000000;stroke-linejoin:bevel;" x="450.043902" xlink:href="#ma798bcb193" y="251.999999"/>
     <use style="stroke:#000000;stroke-linejoin:bevel;" x="458.209756" xlink:href="#ma798bcb193" y="252"/>
     <use style="stroke:#000000;stroke-linejoin:bevel;" x="466.37561" xlink:href="#ma798bcb193" y="252"/>
     <use style="stroke:#000000;stroke-linejoin:bevel;" x="474.541463" xlink:href="#ma798bcb193" y="252"/>
     <use style="stroke:#000000;stroke-linejoin:bevel;" x="482.707317" xlink:href="#ma798bcb193" y="252"/>
     <use style="stroke:#000000;stroke-linejoin:bevel;" x="490.873171" xlink:href="#ma798bcb193" y="252"/>
     <use style="stroke:#000000;stroke-linejoin:bevel;" x="499.039024" xlink:href="#ma798bcb193" y="252"/>
     <use style="stroke:#000000;stroke-linejoin:bevel;" x="507.204878" xlink:href="#ma798bcb193" y="252"/>
     <use style="stroke:#000000;stroke-linejoin:bevel;" x="515.370732" xlink:href="#ma798bcb193" y="252"/>
     <use style="stroke:#000000;stroke-linejoin:bevel;" x="523.536585" xlink:href="#ma798bcb193" y="252"/>
     <use style="stroke:#000000;stroke-linejoin:bevel;" x="531.702439" xlink:href="#ma798bcb193" y="252"/>
     <use style="stroke:#000000;stroke-linejoin:bevel;" x="539.868293" xlink:href="#ma798bcb193" y="252"/>
     <use style="stroke:#000000;stroke-linejoin:bevel;" x="548.034146" xlink:href="#ma798bcb193" y="252"/>
     <use style="stroke:#000000;stroke-linejoin:bevel;" x="556.2" xlink:href="#ma798bcb193" y="252"/>
     <use style="stroke:#000000;stroke-linejoin:bevel;" x="564.365854" xlink:href="#ma798bcb193" y="252"/>
     <use style="stroke:#000000;stroke-linejoin:bevel;" x="572.531707" xlink:href="#ma798bcb193" y="252"/>
     <use style="stroke:#000000;stroke-linejoin:bevel;" x="580.697561" xlink:href="#ma798bcb193" y="252"/>
     <use style="stroke:#000000;stroke-linejoin:bevel;" x="588.863415" xlink:href="#ma798bcb193" y="252"/>
     <use style="stroke:#000000;stroke-linejoin:bevel;" x="597.029268" xlink:href="#ma798bcb193" y="252"/>
     <use style="stroke:#000000;stroke-linejoin:bevel;" x="605.195122" xlink:href="#ma798bcb193" y="252"/>
     <use style="stroke:#000000;stroke-linejoin:bevel;" x="613.360976" xlink:href="#ma798bcb193" y="252"/>
     <use style="stroke:#000000;stroke-linejoin:bevel;" x="621.526829" xlink:href="#ma798bcb193" y="252"/>
     <use style="stroke:#000000;stroke-linejoin:bevel;" x="629.692683" xlink:href="#ma798bcb193" y="252"/>
     <use style="stroke:#000000;stroke-linejoin:bevel;" x="637.858537" xlink:href="#ma798bcb193" y="252"/>
     <use style="stroke:#000000;stroke-linejoin:bevel;" x="646.02439" xlink:href="#ma798bcb193" y="252"/>
     <use style="stroke:#000000;stroke-linejoin:bevel;" x="654.190244" xlink:href="#ma798bcb193" y="252"/>
     <use style="stroke:#000000;stroke-linejoin:bevel;" x="662.356098" xlink:href="#ma798bcb193" y="252"/>
     <use style="stroke:#000000;stroke-linejoin:bevel;" x="670.521951" xlink:href="#ma798bcb193" y="252"/>
     <use style="stroke:#000000;stroke-linejoin:bevel;" x="678.687805" xlink:href="#ma798bcb193" y="252"/>
    </g>
   </g>
   <g id="line2d_28">
    <path clip-path="url(#p5ace420df4)" d="M -1 252 
L 54 252 
L 54 251.506351 
L 62.165854 251.506351 
L 62.165854 250.765878 
L 70.331707 250.765878 
L 70.331707 250.025404 
L 78.497561 250.025404 
L 78.497561 249.284931 
L 86.663415 249.284931 
L 86.663415 246.323038 
L 94.829268 246.323038 
L 94.829268 242.373846 
L 102.995122 242.373846 
L 102.995122 237.437357 
L 111.160976 237.437357 
L 111.160976 227.317555 
L 119.326829 227.317555 
L 119.326829 219.912821 
L 127.492683 219.912821 
L 127.492683 192.021658 
L 135.658537 192.021658 
L 135.658537 183.135978 
L 143.82439 183.135978 
L 143.82439 160.181304 
L 151.990244 160.181304 
L 151.990244 124.391759 
L 160.156098 124.391759 
L 160.156098 109.829116 
L 168.321951 109.829116 
L 168.321951 83.665725 
L 176.487805 83.665725 
L 176.487805 64.166593 
L 184.653659 64.166593 
L 184.653659 44.914286 
L 192.819512 44.914286 
L 192.819512 50.838073 
L 200.985366 50.838073 
L 200.985366 52.812668 
L 209.15122 52.812668 
L 209.15122 73.299098 
L 217.317073 73.299098 
L 217.317073 82.431602 
L 225.482927 82.431602 
L 225.482927 105.139452 
L 233.64878 105.139452 
L 233.64878 136.732981 
L 241.814634 136.732981 
L 241.814634 164.130495 
L 249.980488 164.130495 
L 249.980488 173.016176 
L 258.146341 173.016176 
L 258.146341 205.350179 
L 266.312195 205.350179 
L 266.312195 217.444577 
L 274.478049 217.444577 
L 274.478049 229.538975 
L 282.643902 229.538975 
L 282.643902 237.437357 
L 290.809756 237.437357 
L 290.809756 241.880198 
L 298.97561 241.880198 
L 298.97561 243.854793 
L 307.141463 243.854793 
L 307.141463 247.55716 
L 315.307317 247.55716 
L 315.307317 251.012702 
L 323.473171 251.012702 
L 323.473171 251.259527 
L 331.639024 251.259527 
L 331.639024 251.506351 
L 339.804878 251.506351 
L 339.804878 251.753176 
L 356.136585 251.753176 
L 356.136585 252 
L 380.634146 252 
L 380.634146 251.753176 
L 388.8 251.753176 
L 388.8 252 
L 433 252 
L 433 252 
" style="fill:none;stroke:#ff7f0e;stroke-linecap:square;stroke-width:1.5;"/>
   </g>
   <g id="line2d_29">
    <path clip-path="url(#p5ace420df4)" d="M -1 252 
L 54 252 
L 54 251.753176 
L 62.165854 251.753176 
L 62.165854 251.259527 
L 70.331707 251.259527 
L 70.331707 249.77858 
L 78.497561 249.77858 
L 78.497561 249.531755 
L 86.663415 249.531755 
L 86.663415 247.310335 
L 94.829268 247.310335 
L 94.829268 244.595266 
L 102.995122 244.595266 
L 102.995122 239.411953 
L 111.160976 239.411953 
L 111.160976 231.266746 
L 119.326829 231.266746 
L 119.326829 223.368364 
L 127.492683 223.368364 
L 127.492683 206.090652 
L 135.658537 206.090652 
L 135.658537 187.085169 
L 143.82439 187.085169 
L 143.82439 170.547931 
L 151.990244 170.547931 
L 151.990244 143.644066 
L 160.156098 143.644066 
L 160.156098 124.144934 
L 168.321951 124.144934 
L 168.321951 98.722016 
L 176.487805 98.722016 
L 176.487805 80.950656 
L 184.653659 80.950656 
L 184.653659 55.280913 
L 192.819512 55.280913 
L 192.819512 52.565844 
L 200.985366 52.565844 
L 200.985366 53.553141 
L 209.15122 53.553141 
L 209.15122 73.299098 
L 217.317073 73.299098 
L 217.317073 76.75464 
L 225.482927 76.75464 
L 225.482927 91.070458 
L 233.64878 91.070458 
L 233.64878 122.910812 
L 241.814634 122.910812 
L 241.814634 151.295624 
L 249.980488 151.295624 
L 249.980488 165.611442 
L 258.146341 165.611442 
L 258.146341 183.135978 
L 266.312195 183.135978 
L 266.312195 203.128759 
L 274.478049 203.128759 
L 274.478049 220.900119 
L 282.643902 220.900119 
L 282.643902 229.785799 
L 290.809756 229.785799 
L 290.809756 238.424655 
L 298.97561 238.424655 
L 298.97561 242.867495 
L 307.141463 242.867495 
L 307.141463 243.361144 
L 315.307317 243.361144 
L 315.307317 248.297633 
L 323.473171 248.297633 
L 323.473171 250.272229 
L 331.639024 250.272229 
L 331.639024 251.012702 
L 339.804878 251.012702 
L 339.804878 251.506351 
L 347.970732 251.506351 
L 347.970732 251.753176 
L 364.302439 251.753176 
L 364.302439 252 
L 380.634146 252 
L 380.634146 251.753176 
L 388.8 251.753176 
L 388.8 252 
L 433 252 
L 433 252 
" style="fill:none;stroke:#2ca02c;stroke-linecap:square;stroke-width:1.5;"/>
   </g>
   <g id="patch_104">
    <path d="M 54 252 
L 54 34.56 
" style="fill:none;stroke:#000000;stroke-linecap:square;stroke-linejoin:miter;stroke-width:0.8;"/>
   </g>
   <g id="patch_105">
    <path d="M 388.8 252 
L 388.8 34.56 
" style="fill:none;stroke:#000000;stroke-linecap:square;stroke-linejoin:miter;stroke-width:0.8;"/>
   </g>
   <g id="patch_106">
    <path d="M 54 252 
L 388.8 252 
" style="fill:none;stroke:#000000;stroke-linecap:square;stroke-linejoin:miter;stroke-width:0.8;"/>
   </g>
   <g id="patch_107">
    <path d="M 54 34.56 
L 388.8 34.56 
" style="fill:none;stroke:#000000;stroke-linecap:square;stroke-linejoin:miter;stroke-width:0.8;"/>
   </g>
   <g id="text_20">
    <!-- # trials/experiment = 100; # experiments = 10000 -->
    <defs>
     <path d="M 9.421875 75.984375 
L 18.40625 75.984375 
L 18.40625 0 
L 9.421875 0 
z
" id="DejaVuSans-108"/>
     <path d="M 25.390625 72.90625 
L 33.6875 72.90625 
L 8.296875 -9.28125 
L 0 -9.28125 
z
" id="DejaVuSans-47"/>
     <path d="M 10.59375 45.40625 
L 73.1875 45.40625 
L 73.1875 37.203125 
L 10.59375 37.203125 
z
M 10.59375 25.484375 
L 73.1875 25.484375 
L 73.1875 17.1875 
L 10.59375 17.1875 
z
" id="DejaVuSans-61"/>
     <path d="M 11.71875 51.703125 
L 22.015625 51.703125 
L 22.015625 39.3125 
L 11.71875 39.3125 
z
M 11.71875 12.40625 
L 22.015625 12.40625 
L 22.015625 4 
L 14.015625 -11.625 
L 7.71875 -11.625 
L 11.71875 4 
z
" id="DejaVuSans-59"/>
    </defs>
    <g transform="translate(66.350625 28.56)scale(0.12 -0.12)">
     <use xlink:href="#DejaVuSans-35"/>
     <use x="83.789062" xlink:href="#DejaVuSans-32"/>
     <use x="115.576172" xlink:href="#DejaVuSans-116"/>
     <use x="154.785156" xlink:href="#DejaVuSans-114"/>
     <use x="195.898438" xlink:href="#DejaVuSans-105"/>
     <use x="223.681641" xlink:href="#DejaVuSans-97"/>
     <use x="284.960938" xlink:href="#DejaVuSans-108"/>
     <use x="312.744141" xlink:href="#DejaVuSans-115"/>
     <use x="364.84375" xlink:href="#DejaVuSans-47"/>
     <use x="398.535156" xlink:href="#DejaVuSans-101"/>
     <use x="458.308594" xlink:href="#DejaVuSans-120"/>
     <use x="517.488281" xlink:href="#DejaVuSans-112"/>
     <use x="580.964844" xlink:href="#DejaVuSans-101"/>
     <use x="642.488281" xlink:href="#DejaVuSans-114"/>
     <use x="683.601562" xlink:href="#DejaVuSans-105"/>
     <use x="711.384766" xlink:href="#DejaVuSans-109"/>
     <use x="808.796875" xlink:href="#DejaVuSans-101"/>
     <use x="870.320312" xlink:href="#DejaVuSans-110"/>
     <use x="933.699219" xlink:href="#DejaVuSans-116"/>
     <use x="972.908203" xlink:href="#DejaVuSans-32"/>
     <use x="1004.695312" xlink:href="#DejaVuSans-61"/>
     <use x="1088.484375" xlink:href="#DejaVuSans-32"/>
     <use x="1120.271484" xlink:href="#DejaVuSans-49"/>
     <use x="1183.894531" xlink:href="#DejaVuSans-48"/>
     <use x="1247.517578" xlink:href="#DejaVuSans-48"/>
     <use x="1311.140625" xlink:href="#DejaVuSans-59"/>
     <use x="1344.832031" xlink:href="#DejaVuSans-32"/>
     <use x="1376.619141" xlink:href="#DejaVuSans-35"/>
     <use x="1460.408203" xlink:href="#DejaVuSans-32"/>
     <use x="1492.195312" xlink:href="#DejaVuSans-101"/>
     <use x="1551.96875" xlink:href="#DejaVuSans-120"/>
     <use x="1611.148438" xlink:href="#DejaVuSans-112"/>
     <use x="1674.625" xlink:href="#DejaVuSans-101"/>
     <use x="1736.148438" xlink:href="#DejaVuSans-114"/>
     <use x="1777.261719" xlink:href="#DejaVuSans-105"/>
     <use x="1805.044922" xlink:href="#DejaVuSans-109"/>
     <use x="1902.457031" xlink:href="#DejaVuSans-101"/>
     <use x="1963.980469" xlink:href="#DejaVuSans-110"/>
     <use x="2027.359375" xlink:href="#DejaVuSans-116"/>
     <use x="2066.568359" xlink:href="#DejaVuSans-115"/>
     <use x="2118.667969" xlink:href="#DejaVuSans-32"/>
     <use x="2150.455078" xlink:href="#DejaVuSans-61"/>
     <use x="2234.244141" xlink:href="#DejaVuSans-32"/>
     <use x="2266.03125" xlink:href="#DejaVuSans-49"/>
     <use x="2329.654297" xlink:href="#DejaVuSans-48"/>
     <use x="2393.277344" xlink:href="#DejaVuSans-48"/>
     <use x="2456.900391" xlink:href="#DejaVuSans-48"/>
     <use x="2520.523438" xlink:href="#DejaVuSans-48"/>
    </g>
   </g>
   <g id="legend_1">
    <g id="patch_108">
     <path d="M 236.298438 86.594375 
L 381.8 86.594375 
Q 383.8 86.594375 383.8 84.594375 
L 383.8 41.56 
Q 383.8 39.56 381.8 39.56 
L 236.298438 39.56 
Q 234.298438 39.56 234.298438 41.56 
L 234.298438 84.594375 
Q 234.298438 86.594375 236.298438 86.594375 
z
" style="fill:#ffffff;opacity:0.8;stroke:#cccccc;stroke-linejoin:miter;"/>
    </g>
    <g id="line2d_30"/>
    <g id="line2d_31">
     <g>
      <use style="stroke:#000000;stroke-linejoin:bevel;" x="248.298438" xlink:href="#ma798bcb193" y="47.658438"/>
     </g>
    </g>
    <g id="text_21">
     <!-- Binomial Formula -->
     <defs>
      <path d="M 19.671875 34.8125 
L 19.671875 8.109375 
L 35.5 8.109375 
Q 43.453125 8.109375 47.28125 11.40625 
Q 51.125 14.703125 51.125 21.484375 
Q 51.125 28.328125 47.28125 31.5625 
Q 43.453125 34.8125 35.5 34.8125 
z
M 19.671875 64.796875 
L 19.671875 42.828125 
L 34.28125 42.828125 
Q 41.5 42.828125 45.03125 45.53125 
Q 48.578125 48.25 48.578125 53.8125 
Q 48.578125 59.328125 45.03125 62.0625 
Q 41.5 64.796875 34.28125 64.796875 
z
M 9.8125 72.90625 
L 35.015625 72.90625 
Q 46.296875 72.90625 52.390625 68.21875 
Q 58.5 63.53125 58.5 54.890625 
Q 58.5 48.1875 55.375 44.234375 
Q 52.25 40.28125 46.1875 39.3125 
Q 53.46875 37.75 57.5 32.78125 
Q 61.53125 27.828125 61.53125 20.40625 
Q 61.53125 10.640625 54.890625 5.3125 
Q 48.25 0 35.984375 0 
L 9.8125 0 
z
" id="DejaVuSans-66"/>
      <path d="M 9.8125 72.90625 
L 51.703125 72.90625 
L 51.703125 64.59375 
L 19.671875 64.59375 
L 19.671875 43.109375 
L 48.578125 43.109375 
L 48.578125 34.8125 
L 19.671875 34.8125 
L 19.671875 0 
L 9.8125 0 
z
" id="DejaVuSans-70"/>
      <path d="M 8.5 21.578125 
L 8.5 54.6875 
L 17.484375 54.6875 
L 17.484375 21.921875 
Q 17.484375 14.15625 20.5 10.265625 
Q 23.53125 6.390625 29.59375 6.390625 
Q 36.859375 6.390625 41.078125 11.03125 
Q 45.3125 15.671875 45.3125 23.6875 
L 45.3125 54.6875 
L 54.296875 54.6875 
L 54.296875 0 
L 45.3125 0 
L 45.3125 8.40625 
Q 42.046875 3.421875 37.71875 1 
Q 33.40625 -1.421875 27.6875 -1.421875 
Q 18.265625 -1.421875 13.375 4.4375 
Q 8.5 10.296875 8.5 21.578125 
z
M 31.109375 56 
z
" id="DejaVuSans-117"/>
     </defs>
     <g transform="translate(266.298437 51.158438)scale(0.1 -0.1)">
      <use xlink:href="#DejaVuSans-66"/>
      <use x="68.603516" xlink:href="#DejaVuSans-105"/>
      <use x="96.386719" xlink:href="#DejaVuSans-110"/>
      <use x="159.765625" xlink:href="#DejaVuSans-111"/>
      <use x="220.947266" xlink:href="#DejaVuSans-109"/>
      <use x="318.359375" xlink:href="#DejaVuSans-105"/>
      <use x="346.142578" xlink:href="#DejaVuSans-97"/>
      <use x="407.421875" xlink:href="#DejaVuSans-108"/>
      <use x="435.205078" xlink:href="#DejaVuSans-32"/>
      <use x="466.992188" xlink:href="#DejaVuSans-70"/>
      <use x="520.886719" xlink:href="#DejaVuSans-111"/>
      <use x="582.068359" xlink:href="#DejaVuSans-114"/>
      <use x="621.431641" xlink:href="#DejaVuSans-109"/>
      <use x="718.84375" xlink:href="#DejaVuSans-117"/>
      <use x="782.222656" xlink:href="#DejaVuSans-108"/>
      <use x="810.005859" xlink:href="#DejaVuSans-97"/>
     </g>
    </g>
    <g id="line2d_32">
     <path d="M 238.298438 62.336563 
L 258.298437 62.336563 
" style="fill:none;stroke:#ff7f0e;stroke-linecap:square;stroke-width:1.5;"/>
    </g>
    <g id="line2d_33"/>
    <g id="text_22">
     <!-- Experiment 1. p=0.4 -->
     <defs>
      <path d="M 9.8125 72.90625 
L 55.90625 72.90625 
L 55.90625 64.59375 
L 19.671875 64.59375 
L 19.671875 43.015625 
L 54.390625 43.015625 
L 54.390625 34.71875 
L 19.671875 34.71875 
L 19.671875 8.296875 
L 56.78125 8.296875 
L 56.78125 0 
L 9.8125 0 
z
" id="DejaVuSans-69"/>
     </defs>
     <g transform="translate(266.298437 65.836563)scale(0.1 -0.1)">
      <use xlink:href="#DejaVuSans-69"/>
      <use x="63.183594" xlink:href="#DejaVuSans-120"/>
      <use x="122.363281" xlink:href="#DejaVuSans-112"/>
      <use x="185.839844" xlink:href="#DejaVuSans-101"/>
      <use x="247.363281" xlink:href="#DejaVuSans-114"/>
      <use x="288.476562" xlink:href="#DejaVuSans-105"/>
      <use x="316.259766" xlink:href="#DejaVuSans-109"/>
      <use x="413.671875" xlink:href="#DejaVuSans-101"/>
      <use x="475.195312" xlink:href="#DejaVuSans-110"/>
      <use x="538.574219" xlink:href="#DejaVuSans-116"/>
      <use x="577.783203" xlink:href="#DejaVuSans-32"/>
      <use x="609.570312" xlink:href="#DejaVuSans-49"/>
      <use x="673.193359" xlink:href="#DejaVuSans-46"/>
      <use x="704.980469" xlink:href="#DejaVuSans-32"/>
      <use x="736.767578" xlink:href="#DejaVuSans-112"/>
      <use x="800.244141" xlink:href="#DejaVuSans-61"/>
      <use x="884.033203" xlink:href="#DejaVuSans-48"/>
      <use x="947.65625" xlink:href="#DejaVuSans-46"/>
      <use x="979.443359" xlink:href="#DejaVuSans-52"/>
     </g>
    </g>
    <g id="line2d_34">
     <path d="M 238.298438 77.014688 
L 258.298437 77.014688 
" style="fill:none;stroke:#2ca02c;stroke-linecap:square;stroke-width:1.5;"/>
    </g>
    <g id="line2d_35"/>
    <g id="text_23">
     <!-- Experiment 2. p varies -->
     <defs>
      <path d="M 2.984375 54.6875 
L 12.5 54.6875 
L 29.59375 8.796875 
L 46.6875 54.6875 
L 56.203125 54.6875 
L 35.6875 0 
L 23.484375 0 
z
" id="DejaVuSans-118"/>
     </defs>
     <g transform="translate(266.298437 80.514688)scale(0.1 -0.1)">
      <use xlink:href="#DejaVuSans-69"/>
      <use x="63.183594" xlink:href="#DejaVuSans-120"/>
      <use x="122.363281" xlink:href="#DejaVuSans-112"/>
      <use x="185.839844" xlink:href="#DejaVuSans-101"/>
      <use x="247.363281" xlink:href="#DejaVuSans-114"/>
      <use x="288.476562" xlink:href="#DejaVuSans-105"/>
      <use x="316.259766" xlink:href="#DejaVuSans-109"/>
      <use x="413.671875" xlink:href="#DejaVuSans-101"/>
      <use x="475.195312" xlink:href="#DejaVuSans-110"/>
      <use x="538.574219" xlink:href="#DejaVuSans-116"/>
      <use x="577.783203" xlink:href="#DejaVuSans-32"/>
      <use x="609.570312" xlink:href="#DejaVuSans-50"/>
      <use x="673.193359" xlink:href="#DejaVuSans-46"/>
      <use x="704.980469" xlink:href="#DejaVuSans-32"/>
      <use x="736.767578" xlink:href="#DejaVuSans-112"/>
      <use x="800.244141" xlink:href="#DejaVuSans-32"/>
      <use x="832.03125" xlink:href="#DejaVuSans-118"/>
      <use x="891.210938" xlink:href="#DejaVuSans-97"/>
      <use x="952.490234" xlink:href="#DejaVuSans-114"/>
      <use x="993.603516" xlink:href="#DejaVuSans-105"/>
      <use x="1021.386719" xlink:href="#DejaVuSans-101"/>
      <use x="1082.910156" xlink:href="#DejaVuSans-115"/>
     </g>
    </g>
   </g>
  </g>
 </g>
 <defs>
  <clipPath id="p5ace420df4">
   <rect height="217.44" width="334.8" x="54" y="34.56"/>
  </clipPath>
 </defs>
</svg>
