<?xml version="1.0" encoding="utf-8" standalone="no"?>
<!DOCTYPE svg PUBLIC "-//W3C//DTD SVG 1.1//EN"
  "http://www.w3.org/Graphics/SVG/1.1/DTD/svg11.dtd">
<!-- Created with matplotlib (https://matplotlib.org/) -->
<svg height="288pt" version="1.1" viewBox="0 0 432 288" width="432pt" xmlns="http://www.w3.org/2000/svg" xmlns:xlink="http://www.w3.org/1999/xlink">
 <defs>
  <style type="text/css">
*{stroke-linecap:butt;stroke-linejoin:round;}
  </style>
 </defs>
 <g id="figure_1">
  <g id="patch_1">
   <path d="M 0 288 
L 432 288 
L 432 0 
L 0 0 
z
" style="fill:none;"/>
  </g>
  <g id="axes_1">
   <g id="patch_2">
    <path d="M 54 252 
L 388.8 252 
L 388.8 34.56 
L 54 34.56 
z
" style="fill:none;"/>
   </g>
   <g id="patch_3">
    <path clip-path="url(#pad0df38055)" d="M -139.831579 252 
L -131.021053 252 
L -131.021053 252 
L -139.831579 252 
z
" style="fill:#1f77b4;"/>
   </g>
   <g id="patch_4">
    <path clip-path="url(#pad0df38055)" d="M -131.021053 252 
L -122.210526 252 
L -122.210526 252 
L -131.021053 252 
z
" style="fill:#1f77b4;"/>
   </g>
   <g id="patch_5">
    <path clip-path="url(#pad0df38055)" d="M -122.210526 252 
L -113.4 252 
L -113.4 252 
L -122.210526 252 
z
" style="fill:#1f77b4;"/>
   </g>
   <g id="patch_6">
    <path clip-path="url(#pad0df38055)" d="M -113.4 252 
L -104.589474 252 
L -104.589474 252 
L -113.4 252 
z
" style="fill:#1f77b4;"/>
   </g>
   <g id="patch_7">
    <path clip-path="url(#pad0df38055)" d="M -104.589474 252 
L -95.778947 252 
L -95.778947 252 
L -104.589474 252 
z
" style="fill:#1f77b4;"/>
   </g>
   <g id="patch_8">
    <path clip-path="url(#pad0df38055)" d="M -95.778947 252 
L -86.968421 252 
L -86.968421 252 
L -95.778947 252 
z
" style="fill:#1f77b4;"/>
   </g>
   <g id="patch_9">
    <path clip-path="url(#pad0df38055)" d="M -86.968421 252 
L -78.157895 252 
L -78.157895 252 
L -86.968421 252 
z
" style="fill:#1f77b4;"/>
   </g>
   <g id="patch_10">
    <path clip-path="url(#pad0df38055)" d="M -78.157895 252 
L -69.347368 252 
L -69.347368 252 
L -78.157895 252 
z
" style="fill:#1f77b4;"/>
   </g>
   <g id="patch_11">
    <path clip-path="url(#pad0df38055)" d="M -69.347368 252 
L -60.536842 252 
L -60.536842 252 
L -69.347368 252 
z
" style="fill:#1f77b4;"/>
   </g>
   <g id="patch_12">
    <path clip-path="url(#pad0df38055)" d="M -60.536842 252 
L -51.726316 252 
L -51.726316 252 
L -60.536842 252 
z
" style="fill:#1f77b4;"/>
   </g>
   <g id="patch_13">
    <path clip-path="url(#pad0df38055)" d="M -51.726316 252 
L -42.915789 252 
L -42.915789 252 
L -51.726316 252 
z
" style="fill:#1f77b4;"/>
   </g>
   <g id="patch_14">
    <path clip-path="url(#pad0df38055)" d="M -42.915789 252 
L -34.105263 252 
L -34.105263 252 
L -42.915789 252 
z
" style="fill:#1f77b4;"/>
   </g>
   <g id="patch_15">
    <path clip-path="url(#pad0df38055)" d="M -34.105263 252 
L -25.294737 252 
L -25.294737 252 
L -34.105263 252 
z
" style="fill:#1f77b4;"/>
   </g>
   <g id="patch_16">
    <path clip-path="url(#pad0df38055)" d="M -25.294737 252 
L -16.484211 252 
L -16.484211 252 
L -25.294737 252 
z
" style="fill:#1f77b4;"/>
   </g>
   <g id="patch_17">
    <path clip-path="url(#pad0df38055)" d="M -16.484211 252 
L -7.673684 252 
L -7.673684 252 
L -16.484211 252 
z
" style="fill:#1f77b4;"/>
   </g>
   <g id="patch_18">
    <path clip-path="url(#pad0df38055)" d="M -7.673684 252 
L 1.136842 252 
L 1.136842 252 
L -7.673684 252 
z
" style="fill:#1f77b4;"/>
   </g>
   <g id="patch_19">
    <path clip-path="url(#pad0df38055)" d="M 1.136842 252 
L 9.947368 252 
L 9.947368 252 
L 1.136842 252 
z
" style="fill:#1f77b4;"/>
   </g>
   <g id="patch_20">
    <path clip-path="url(#pad0df38055)" d="M 9.947368 252 
L 18.757895 252 
L 18.757895 252 
L 9.947368 252 
z
" style="fill:#1f77b4;"/>
   </g>
   <g id="patch_21">
    <path clip-path="url(#pad0df38055)" d="M 18.757895 252 
L 27.568421 252 
L 27.568421 252 
L 18.757895 252 
z
" style="fill:#1f77b4;"/>
   </g>
   <g id="patch_22">
    <path clip-path="url(#pad0df38055)" d="M 27.568421 252 
L 36.378947 252 
L 36.378947 252 
L 27.568421 252 
z
" style="fill:#1f77b4;"/>
   </g>
   <g id="patch_23">
    <path clip-path="url(#pad0df38055)" d="M 36.378947 252 
L 45.189474 252 
L 45.189474 252 
L 36.378947 252 
z
" style="fill:#1f77b4;"/>
   </g>
   <g id="patch_24">
    <path clip-path="url(#pad0df38055)" d="M 45.189474 252 
L 54 252 
L 54 252 
L 45.189474 252 
z
" style="fill:#1f77b4;"/>
   </g>
   <g id="patch_25">
    <path clip-path="url(#pad0df38055)" d="M 54 252 
L 62.810526 252 
L 62.810526 251.746218 
L 54 251.746218 
z
" style="fill:#1f77b4;"/>
   </g>
   <g id="patch_26">
    <path clip-path="url(#pad0df38055)" d="M 62.810526 252 
L 71.621053 252 
L 71.621053 251.746218 
L 62.810526 251.746218 
z
" style="fill:#1f77b4;"/>
   </g>
   <g id="patch_27">
    <path clip-path="url(#pad0df38055)" d="M 71.621053 252 
L 80.431579 252 
L 80.431579 251.746218 
L 71.621053 251.746218 
z
" style="fill:#1f77b4;"/>
   </g>
   <g id="patch_28">
    <path clip-path="url(#pad0df38055)" d="M 80.431579 252 
L 89.242105 252 
L 89.242105 250.223529 
L 80.431579 250.223529 
z
" style="fill:#1f77b4;"/>
   </g>
   <g id="patch_29">
    <path clip-path="url(#pad0df38055)" d="M 89.242105 252 
L 98.052632 252 
L 98.052632 248.954622 
L 89.242105 248.954622 
z
" style="fill:#1f77b4;"/>
   </g>
   <g id="patch_30">
    <path clip-path="url(#pad0df38055)" d="M 98.052632 252 
L 106.863158 252 
L 106.863158 246.163025 
L 98.052632 246.163025 
z
" style="fill:#1f77b4;"/>
   </g>
   <g id="patch_31">
    <path clip-path="url(#pad0df38055)" d="M 106.863158 252 
L 115.673684 252 
L 115.673684 242.102521 
L 106.863158 242.102521 
z
" style="fill:#1f77b4;"/>
   </g>
   <g id="patch_32">
    <path clip-path="url(#pad0df38055)" d="M 115.673684 252 
L 124.484211 252 
L 124.484211 233.47395 
L 115.673684 233.47395 
z
" style="fill:#1f77b4;"/>
   </g>
   <g id="patch_33">
    <path clip-path="url(#pad0df38055)" d="M 124.484211 252 
L 133.294737 252 
L 133.294737 226.621849 
L 124.484211 226.621849 
z
" style="fill:#1f77b4;"/>
   </g>
   <g id="patch_34">
    <path clip-path="url(#pad0df38055)" d="M 133.294737 252 
L 142.105263 252 
L 142.105263 208.603361 
L 133.294737 208.603361 
z
" style="fill:#1f77b4;"/>
   </g>
   <g id="patch_35">
    <path clip-path="url(#pad0df38055)" d="M 142.105263 252 
L 150.915789 252 
L 150.915789 199.721008 
L 142.105263 199.721008 
z
" style="fill:#1f77b4;"/>
   </g>
   <g id="patch_36">
    <path clip-path="url(#pad0df38055)" d="M 150.915789 252 
L 159.726316 252 
L 159.726316 179.418487 
L 150.915789 179.418487 
z
" style="fill:#1f77b4;"/>
   </g>
   <g id="patch_37">
    <path clip-path="url(#pad0df38055)" d="M 159.726316 252 
L 168.536842 252 
L 168.536842 147.442017 
L 159.726316 147.442017 
z
" style="fill:#1f77b4;"/>
   </g>
   <g id="patch_38">
    <path clip-path="url(#pad0df38055)" d="M 168.536842 252 
L 177.347368 252 
L 177.347368 126.885714 
L 168.536842 126.885714 
z
" style="fill:#1f77b4;"/>
   </g>
   <g id="patch_39">
    <path clip-path="url(#pad0df38055)" d="M 177.347368 252 
L 186.157895 252 
L 186.157895 107.090756 
L 177.347368 107.090756 
z
" style="fill:#1f77b4;"/>
   </g>
   <g id="patch_40">
    <path clip-path="url(#pad0df38055)" d="M 186.157895 252 
L 194.968421 252 
L 194.968421 80.951261 
L 186.157895 80.951261 
z
" style="fill:#1f77b4;"/>
   </g>
   <g id="patch_41">
    <path clip-path="url(#pad0df38055)" d="M 194.968421 252 
L 203.778947 252 
L 203.778947 51.512605 
L 194.968421 51.512605 
z
" style="fill:#1f77b4;"/>
   </g>
   <g id="patch_42">
    <path clip-path="url(#pad0df38055)" d="M 203.778947 252 
L 212.589474 252 
L 212.589474 46.183193 
L 203.778947 46.183193 
z
" style="fill:#1f77b4;"/>
   </g>
   <g id="patch_43">
    <path clip-path="url(#pad0df38055)" d="M 212.589474 252 
L 221.4 252 
L 221.4 51.766387 
L 212.589474 51.766387 
z
" style="fill:#1f77b4;"/>
   </g>
   <g id="patch_44">
    <path clip-path="url(#pad0df38055)" d="M 221.4 252 
L 230.210526 252 
L 230.210526 46.436975 
L 221.4 46.436975 
z
" style="fill:#1f77b4;"/>
   </g>
   <g id="patch_45">
    <path clip-path="url(#pad0df38055)" d="M 230.210526 252 
L 239.021053 252 
L 239.021053 56.842017 
L 230.210526 56.842017 
z
" style="fill:#1f77b4;"/>
   </g>
   <g id="patch_46">
    <path clip-path="url(#pad0df38055)" d="M 239.021053 252 
L 247.831579 252 
L 247.831579 86.788235 
L 239.021053 86.788235 
z
" style="fill:#1f77b4;"/>
   </g>
   <g id="patch_47">
    <path clip-path="url(#pad0df38055)" d="M 247.831579 252 
L 256.642105 252 
L 256.642105 110.897479 
L 247.831579 110.897479 
z
" style="fill:#1f77b4;"/>
   </g>
   <g id="patch_48">
    <path clip-path="url(#pad0df38055)" d="M 256.642105 252 
L 265.452632 252 
L 265.452632 139.57479 
L 256.642105 139.57479 
z
" style="fill:#1f77b4;"/>
   </g>
   <g id="patch_49">
    <path clip-path="url(#pad0df38055)" d="M 265.452632 252 
L 274.263158 252 
L 274.263158 155.563025 
L 265.452632 155.563025 
z
" style="fill:#1f77b4;"/>
   </g>
   <g id="patch_50">
    <path clip-path="url(#pad0df38055)" d="M 274.263158 252 
L 283.073684 252 
L 283.073684 176.626891 
L 274.263158 176.626891 
z
" style="fill:#1f77b4;"/>
   </g>
   <g id="patch_51">
    <path clip-path="url(#pad0df38055)" d="M 283.073684 252 
L 291.884211 252 
L 291.884211 195.914286 
L 283.073684 195.914286 
z
" style="fill:#1f77b4;"/>
   </g>
   <g id="patch_52">
    <path clip-path="url(#pad0df38055)" d="M 291.884211 252 
L 300.694737 252 
L 300.694737 213.42521 
L 291.884211 213.42521 
z
" style="fill:#1f77b4;"/>
   </g>
   <g id="patch_53">
    <path clip-path="url(#pad0df38055)" d="M 300.694737 252 
L 309.505263 252 
L 309.505263 225.352941 
L 300.694737 225.352941 
z
" style="fill:#1f77b4;"/>
   </g>
   <g id="patch_54">
    <path clip-path="url(#pad0df38055)" d="M 309.505263 252 
L 318.315789 252 
L 318.315789 236.773109 
L 309.505263 236.773109 
z
" style="fill:#1f77b4;"/>
   </g>
   <g id="patch_55">
    <path clip-path="url(#pad0df38055)" d="M 318.315789 252 
L 327.126316 252 
L 327.126316 239.564706 
L 318.315789 239.564706 
z
" style="fill:#1f77b4;"/>
   </g>
   <g id="patch_56">
    <path clip-path="url(#pad0df38055)" d="M 327.126316 252 
L 335.936842 252 
L 335.936842 246.670588 
L 327.126316 246.670588 
z
" style="fill:#1f77b4;"/>
   </g>
   <g id="patch_57">
    <path clip-path="url(#pad0df38055)" d="M 335.936842 252 
L 344.747368 252 
L 344.747368 248.193277 
L 335.936842 248.193277 
z
" style="fill:#1f77b4;"/>
   </g>
   <g id="patch_58">
    <path clip-path="url(#pad0df38055)" d="M 344.747368 252 
L 353.557895 252 
L 353.557895 250.477311 
L 344.747368 250.477311 
z
" style="fill:#1f77b4;"/>
   </g>
   <g id="patch_59">
    <path clip-path="url(#pad0df38055)" d="M 353.557895 252 
L 362.368421 252 
L 362.368421 251.746218 
L 353.557895 251.746218 
z
" style="fill:#1f77b4;"/>
   </g>
   <g id="patch_60">
    <path clip-path="url(#pad0df38055)" d="M 362.368421 252 
L 371.178947 252 
L 371.178947 251.238655 
L 362.368421 251.238655 
z
" style="fill:#1f77b4;"/>
   </g>
   <g id="patch_61">
    <path clip-path="url(#pad0df38055)" d="M 371.178947 252 
L 379.989474 252 
L 379.989474 252 
L 371.178947 252 
z
" style="fill:#1f77b4;"/>
   </g>
   <g id="patch_62">
    <path clip-path="url(#pad0df38055)" d="M 379.989474 252 
L 388.8 252 
L 388.8 251.746218 
L 379.989474 251.746218 
z
" style="fill:#1f77b4;"/>
   </g>
   <g id="patch_63">
    <path clip-path="url(#pad0df38055)" d="M 388.8 252 
L 397.610526 252 
L 397.610526 252 
L 388.8 252 
z
" style="fill:#1f77b4;"/>
   </g>
   <g id="patch_64">
    <path clip-path="url(#pad0df38055)" d="M 397.610526 252 
L 406.421053 252 
L 406.421053 252 
L 397.610526 252 
z
" style="fill:#1f77b4;"/>
   </g>
   <g id="patch_65">
    <path clip-path="url(#pad0df38055)" d="M 406.421053 252 
L 415.231579 252 
L 415.231579 252 
L 406.421053 252 
z
" style="fill:#1f77b4;"/>
   </g>
   <g id="patch_66">
    <path clip-path="url(#pad0df38055)" d="M 415.231579 252 
L 424.042105 252 
L 424.042105 252 
L 415.231579 252 
z
" style="fill:#1f77b4;"/>
   </g>
   <g id="patch_67">
    <path clip-path="url(#pad0df38055)" d="M 424.042105 252 
L 432.852632 252 
L 432.852632 252 
L 424.042105 252 
z
" style="fill:#1f77b4;"/>
   </g>
   <g id="patch_68">
    <path clip-path="url(#pad0df38055)" d="M 432.852632 252 
L 441.663158 252 
L 441.663158 252 
L 432.852632 252 
z
" style="fill:#1f77b4;"/>
   </g>
   <g id="patch_69">
    <path clip-path="url(#pad0df38055)" d="M 441.663158 252 
L 450.473684 252 
L 450.473684 252 
L 441.663158 252 
z
" style="fill:#1f77b4;"/>
   </g>
   <g id="patch_70">
    <path clip-path="url(#pad0df38055)" d="M 450.473684 252 
L 459.284211 252 
L 459.284211 252 
L 450.473684 252 
z
" style="fill:#1f77b4;"/>
   </g>
   <g id="patch_71">
    <path clip-path="url(#pad0df38055)" d="M 459.284211 252 
L 468.094737 252 
L 468.094737 252 
L 459.284211 252 
z
" style="fill:#1f77b4;"/>
   </g>
   <g id="patch_72">
    <path clip-path="url(#pad0df38055)" d="M 468.094737 252 
L 476.905263 252 
L 476.905263 252 
L 468.094737 252 
z
" style="fill:#1f77b4;"/>
   </g>
   <g id="patch_73">
    <path clip-path="url(#pad0df38055)" d="M 476.905263 252 
L 485.715789 252 
L 485.715789 252 
L 476.905263 252 
z
" style="fill:#1f77b4;"/>
   </g>
   <g id="patch_74">
    <path clip-path="url(#pad0df38055)" d="M 485.715789 252 
L 494.526316 252 
L 494.526316 252 
L 485.715789 252 
z
" style="fill:#1f77b4;"/>
   </g>
   <g id="patch_75">
    <path clip-path="url(#pad0df38055)" d="M 494.526316 252 
L 503.336842 252 
L 503.336842 252 
L 494.526316 252 
z
" style="fill:#1f77b4;"/>
   </g>
   <g id="patch_76">
    <path clip-path="url(#pad0df38055)" d="M 503.336842 252 
L 512.147368 252 
L 512.147368 252 
L 503.336842 252 
z
" style="fill:#1f77b4;"/>
   </g>
   <g id="patch_77">
    <path clip-path="url(#pad0df38055)" d="M 512.147368 252 
L 520.957895 252 
L 520.957895 252 
L 512.147368 252 
z
" style="fill:#1f77b4;"/>
   </g>
   <g id="patch_78">
    <path clip-path="url(#pad0df38055)" d="M 520.957895 252 
L 529.768421 252 
L 529.768421 252 
L 520.957895 252 
z
" style="fill:#1f77b4;"/>
   </g>
   <g id="patch_79">
    <path clip-path="url(#pad0df38055)" d="M 529.768421 252 
L 538.578947 252 
L 538.578947 252 
L 529.768421 252 
z
" style="fill:#1f77b4;"/>
   </g>
   <g id="patch_80">
    <path clip-path="url(#pad0df38055)" d="M 538.578947 252 
L 547.389474 252 
L 547.389474 252 
L 538.578947 252 
z
" style="fill:#1f77b4;"/>
   </g>
   <g id="patch_81">
    <path clip-path="url(#pad0df38055)" d="M 547.389474 252 
L 556.2 252 
L 556.2 252 
L 547.389474 252 
z
" style="fill:#1f77b4;"/>
   </g>
   <g id="patch_82">
    <path clip-path="url(#pad0df38055)" d="M 556.2 252 
L 565.010526 252 
L 565.010526 252 
L 556.2 252 
z
" style="fill:#1f77b4;"/>
   </g>
   <g id="patch_83">
    <path clip-path="url(#pad0df38055)" d="M 565.010526 252 
L 573.821053 252 
L 573.821053 252 
L 565.010526 252 
z
" style="fill:#1f77b4;"/>
   </g>
   <g id="patch_84">
    <path clip-path="url(#pad0df38055)" d="M 573.821053 252 
L 582.631579 252 
L 582.631579 252 
L 573.821053 252 
z
" style="fill:#1f77b4;"/>
   </g>
   <g id="patch_85">
    <path clip-path="url(#pad0df38055)" d="M 582.631579 252 
L 591.442105 252 
L 591.442105 252 
L 582.631579 252 
z
" style="fill:#1f77b4;"/>
   </g>
   <g id="patch_86">
    <path clip-path="url(#pad0df38055)" d="M 591.442105 252 
L 600.252632 252 
L 600.252632 252 
L 591.442105 252 
z
" style="fill:#1f77b4;"/>
   </g>
   <g id="patch_87">
    <path clip-path="url(#pad0df38055)" d="M 600.252632 252 
L 609.063158 252 
L 609.063158 252 
L 600.252632 252 
z
" style="fill:#1f77b4;"/>
   </g>
   <g id="patch_88">
    <path clip-path="url(#pad0df38055)" d="M 609.063158 252 
L 617.873684 252 
L 617.873684 252 
L 609.063158 252 
z
" style="fill:#1f77b4;"/>
   </g>
   <g id="patch_89">
    <path clip-path="url(#pad0df38055)" d="M 617.873684 252 
L 626.684211 252 
L 626.684211 252 
L 617.873684 252 
z
" style="fill:#1f77b4;"/>
   </g>
   <g id="patch_90">
    <path clip-path="url(#pad0df38055)" d="M 626.684211 252 
L 635.494737 252 
L 635.494737 252 
L 626.684211 252 
z
" style="fill:#1f77b4;"/>
   </g>
   <g id="patch_91">
    <path clip-path="url(#pad0df38055)" d="M 635.494737 252 
L 644.305263 252 
L 644.305263 252 
L 635.494737 252 
z
" style="fill:#1f77b4;"/>
   </g>
   <g id="patch_92">
    <path clip-path="url(#pad0df38055)" d="M 644.305263 252 
L 653.115789 252 
L 653.115789 252 
L 644.305263 252 
z
" style="fill:#1f77b4;"/>
   </g>
   <g id="patch_93">
    <path clip-path="url(#pad0df38055)" d="M 653.115789 252 
L 661.926316 252 
L 661.926316 252 
L 653.115789 252 
z
" style="fill:#1f77b4;"/>
   </g>
   <g id="patch_94">
    <path clip-path="url(#pad0df38055)" d="M 661.926316 252 
L 670.736842 252 
L 670.736842 252 
L 661.926316 252 
z
" style="fill:#1f77b4;"/>
   </g>
   <g id="patch_95">
    <path clip-path="url(#pad0df38055)" d="M 670.736842 252 
L 679.547368 252 
L 679.547368 252 
L 670.736842 252 
z
" style="fill:#1f77b4;"/>
   </g>
   <g id="patch_96">
    <path clip-path="url(#pad0df38055)" d="M 679.547368 252 
L 688.357895 252 
L 688.357895 252 
L 679.547368 252 
z
" style="fill:#1f77b4;"/>
   </g>
   <g id="patch_97">
    <path clip-path="url(#pad0df38055)" d="M 688.357895 252 
L 697.168421 252 
L 697.168421 252 
L 688.357895 252 
z
" style="fill:#1f77b4;"/>
   </g>
   <g id="patch_98">
    <path clip-path="url(#pad0df38055)" d="M 697.168421 252 
L 705.978947 252 
L 705.978947 252 
L 697.168421 252 
z
" style="fill:#1f77b4;"/>
   </g>
   <g id="patch_99">
    <path clip-path="url(#pad0df38055)" d="M 705.978947 252 
L 714.789474 252 
L 714.789474 252 
L 705.978947 252 
z
" style="fill:#1f77b4;"/>
   </g>
   <g id="patch_100">
    <path clip-path="url(#pad0df38055)" d="M 714.789474 252 
L 723.6 252 
L 723.6 252 
L 714.789474 252 
z
" style="fill:#1f77b4;"/>
   </g>
   <g id="patch_101">
    <path clip-path="url(#pad0df38055)" d="M 723.6 252 
L 732.410526 252 
L 732.410526 252 
L 723.6 252 
z
" style="fill:#1f77b4;"/>
   </g>
   <g id="patch_102">
    <path clip-path="url(#pad0df38055)" d="M 732.410526 252 
L 741.221053 252 
L 741.221053 252 
L 732.410526 252 
z
" style="fill:#1f77b4;"/>
   </g>
   <g id="patch_103">
    <path clip-path="url(#pad0df38055)" d="M 741.221053 252 
L 750.031579 252 
L 750.031579 252 
L 741.221053 252 
z
" style="fill:#1f77b4;"/>
   </g>
   <g id="matplotlib.axis_1">
    <g id="xtick_1">
     <g id="line2d_1">
      <defs>
       <path d="M 0 0 
L 0 3.5 
" id="m81d52b55b0" style="stroke:#000000;stroke-width:0.8;"/>
      </defs>
      <g>
       <use style="stroke:#000000;stroke-width:0.8;" x="84.836842" xlink:href="#m81d52b55b0" y="252"/>
      </g>
     </g>
     <g id="text_1">
      <!-- 25 -->
      <defs>
       <path d="M 19.1875 8.296875 
L 53.609375 8.296875 
L 53.609375 0 
L 7.328125 0 
L 7.328125 8.296875 
Q 12.9375 14.109375 22.625 23.890625 
Q 32.328125 33.6875 34.8125 36.53125 
Q 39.546875 41.84375 41.421875 45.53125 
Q 43.3125 49.21875 43.3125 52.78125 
Q 43.3125 58.59375 39.234375 62.25 
Q 35.15625 65.921875 28.609375 65.921875 
Q 23.96875 65.921875 18.8125 64.3125 
Q 13.671875 62.703125 7.8125 59.421875 
L 7.8125 69.390625 
Q 13.765625 71.78125 18.9375 73 
Q 24.125 74.21875 28.421875 74.21875 
Q 39.75 74.21875 46.484375 68.546875 
Q 53.21875 62.890625 53.21875 53.421875 
Q 53.21875 48.921875 51.53125 44.890625 
Q 49.859375 40.875 45.40625 35.40625 
Q 44.1875 33.984375 37.640625 27.21875 
Q 31.109375 20.453125 19.1875 8.296875 
z
" id="DejaVuSans-50"/>
       <path d="M 10.796875 72.90625 
L 49.515625 72.90625 
L 49.515625 64.59375 
L 19.828125 64.59375 
L 19.828125 46.734375 
Q 21.96875 47.46875 24.109375 47.828125 
Q 26.265625 48.1875 28.421875 48.1875 
Q 40.625 48.1875 47.75 41.5 
Q 54.890625 34.8125 54.890625 23.390625 
Q 54.890625 11.625 47.5625 5.09375 
Q 40.234375 -1.421875 26.90625 -1.421875 
Q 22.3125 -1.421875 17.546875 -0.640625 
Q 12.796875 0.140625 7.71875 1.703125 
L 7.71875 11.625 
Q 12.109375 9.234375 16.796875 8.0625 
Q 21.484375 6.890625 26.703125 6.890625 
Q 35.15625 6.890625 40.078125 11.328125 
Q 45.015625 15.765625 45.015625 23.390625 
Q 45.015625 31 40.078125 35.4375 
Q 35.15625 39.890625 26.703125 39.890625 
Q 22.75 39.890625 18.8125 39.015625 
Q 14.890625 38.140625 10.796875 36.28125 
z
" id="DejaVuSans-53"/>
      </defs>
      <g transform="translate(78.474342 266.598437)scale(0.1 -0.1)">
       <use xlink:href="#DejaVuSans-50"/>
       <use x="63.623047" xlink:href="#DejaVuSans-53"/>
      </g>
     </g>
    </g>
    <g id="xtick_2">
     <g id="line2d_2">
      <g>
       <use style="stroke:#000000;stroke-width:0.8;" x="128.889474" xlink:href="#m81d52b55b0" y="252"/>
      </g>
     </g>
     <g id="text_2">
      <!-- 30 -->
      <defs>
       <path d="M 40.578125 39.3125 
Q 47.65625 37.796875 51.625 33 
Q 55.609375 28.21875 55.609375 21.1875 
Q 55.609375 10.40625 48.1875 4.484375 
Q 40.765625 -1.421875 27.09375 -1.421875 
Q 22.515625 -1.421875 17.65625 -0.515625 
Q 12.796875 0.390625 7.625 2.203125 
L 7.625 11.71875 
Q 11.71875 9.328125 16.59375 8.109375 
Q 21.484375 6.890625 26.8125 6.890625 
Q 36.078125 6.890625 40.9375 10.546875 
Q 45.796875 14.203125 45.796875 21.1875 
Q 45.796875 27.640625 41.28125 31.265625 
Q 36.765625 34.90625 28.71875 34.90625 
L 20.21875 34.90625 
L 20.21875 43.015625 
L 29.109375 43.015625 
Q 36.375 43.015625 40.234375 45.921875 
Q 44.09375 48.828125 44.09375 54.296875 
Q 44.09375 59.90625 40.109375 62.90625 
Q 36.140625 65.921875 28.71875 65.921875 
Q 24.65625 65.921875 20.015625 65.03125 
Q 15.375 64.15625 9.8125 62.3125 
L 9.8125 71.09375 
Q 15.4375 72.65625 20.34375 73.4375 
Q 25.25 74.21875 29.59375 74.21875 
Q 40.828125 74.21875 47.359375 69.109375 
Q 53.90625 64.015625 53.90625 55.328125 
Q 53.90625 49.265625 50.4375 45.09375 
Q 46.96875 40.921875 40.578125 39.3125 
z
" id="DejaVuSans-51"/>
       <path d="M 31.78125 66.40625 
Q 24.171875 66.40625 20.328125 58.90625 
Q 16.5 51.421875 16.5 36.375 
Q 16.5 21.390625 20.328125 13.890625 
Q 24.171875 6.390625 31.78125 6.390625 
Q 39.453125 6.390625 43.28125 13.890625 
Q 47.125 21.390625 47.125 36.375 
Q 47.125 51.421875 43.28125 58.90625 
Q 39.453125 66.40625 31.78125 66.40625 
z
M 31.78125 74.21875 
Q 44.046875 74.21875 50.515625 64.515625 
Q 56.984375 54.828125 56.984375 36.375 
Q 56.984375 17.96875 50.515625 8.265625 
Q 44.046875 -1.421875 31.78125 -1.421875 
Q 19.53125 -1.421875 13.0625 8.265625 
Q 6.59375 17.96875 6.59375 36.375 
Q 6.59375 54.828125 13.0625 64.515625 
Q 19.53125 74.21875 31.78125 74.21875 
z
" id="DejaVuSans-48"/>
      </defs>
      <g transform="translate(122.526974 266.598437)scale(0.1 -0.1)">
       <use xlink:href="#DejaVuSans-51"/>
       <use x="63.623047" xlink:href="#DejaVuSans-48"/>
      </g>
     </g>
    </g>
    <g id="xtick_3">
     <g id="line2d_3">
      <g>
       <use style="stroke:#000000;stroke-width:0.8;" x="172.942105" xlink:href="#m81d52b55b0" y="252"/>
      </g>
     </g>
     <g id="text_3">
      <!-- 35 -->
      <g transform="translate(166.579605 266.598437)scale(0.1 -0.1)">
       <use xlink:href="#DejaVuSans-51"/>
       <use x="63.623047" xlink:href="#DejaVuSans-53"/>
      </g>
     </g>
    </g>
    <g id="xtick_4">
     <g id="line2d_4">
      <g>
       <use style="stroke:#000000;stroke-width:0.8;" x="216.994737" xlink:href="#m81d52b55b0" y="252"/>
      </g>
     </g>
     <g id="text_4">
      <!-- 40 -->
      <defs>
       <path d="M 37.796875 64.3125 
L 12.890625 25.390625 
L 37.796875 25.390625 
z
M 35.203125 72.90625 
L 47.609375 72.90625 
L 47.609375 25.390625 
L 58.015625 25.390625 
L 58.015625 17.1875 
L 47.609375 17.1875 
L 47.609375 0 
L 37.796875 0 
L 37.796875 17.1875 
L 4.890625 17.1875 
L 4.890625 26.703125 
z
" id="DejaVuSans-52"/>
      </defs>
      <g transform="translate(210.632237 266.598437)scale(0.1 -0.1)">
       <use xlink:href="#DejaVuSans-52"/>
       <use x="63.623047" xlink:href="#DejaVuSans-48"/>
      </g>
     </g>
    </g>
    <g id="xtick_5">
     <g id="line2d_5">
      <g>
       <use style="stroke:#000000;stroke-width:0.8;" x="261.047368" xlink:href="#m81d52b55b0" y="252"/>
      </g>
     </g>
     <g id="text_5">
      <!-- 45 -->
      <g transform="translate(254.684868 266.598437)scale(0.1 -0.1)">
       <use xlink:href="#DejaVuSans-52"/>
       <use x="63.623047" xlink:href="#DejaVuSans-53"/>
      </g>
     </g>
    </g>
    <g id="xtick_6">
     <g id="line2d_6">
      <g>
       <use style="stroke:#000000;stroke-width:0.8;" x="305.1" xlink:href="#m81d52b55b0" y="252"/>
      </g>
     </g>
     <g id="text_6">
      <!-- 50 -->
      <g transform="translate(298.7375 266.598437)scale(0.1 -0.1)">
       <use xlink:href="#DejaVuSans-53"/>
       <use x="63.623047" xlink:href="#DejaVuSans-48"/>
      </g>
     </g>
    </g>
    <g id="xtick_7">
     <g id="line2d_7">
      <g>
       <use style="stroke:#000000;stroke-width:0.8;" x="349.152632" xlink:href="#m81d52b55b0" y="252"/>
      </g>
     </g>
     <g id="text_7">
      <!-- 55 -->
      <g transform="translate(342.790132 266.598437)scale(0.1 -0.1)">
       <use xlink:href="#DejaVuSans-53"/>
       <use x="63.623047" xlink:href="#DejaVuSans-53"/>
      </g>
     </g>
    </g>
    <g id="text_8">
     <!-- # heads in experiment -->
     <defs>
      <path d="M 51.125 44 
L 36.921875 44 
L 32.8125 27.6875 
L 47.125 27.6875 
z
M 43.796875 71.78125 
L 38.71875 51.515625 
L 52.984375 51.515625 
L 58.109375 71.78125 
L 65.921875 71.78125 
L 60.890625 51.515625 
L 76.125 51.515625 
L 76.125 44 
L 58.984375 44 
L 54.984375 27.6875 
L 70.515625 27.6875 
L 70.515625 20.21875 
L 53.078125 20.21875 
L 48 0 
L 40.1875 0 
L 45.21875 20.21875 
L 30.90625 20.21875 
L 25.875 0 
L 18.015625 0 
L 23.09375 20.21875 
L 7.71875 20.21875 
L 7.71875 27.6875 
L 24.90625 27.6875 
L 29 44 
L 13.28125 44 
L 13.28125 51.515625 
L 30.90625 51.515625 
L 35.890625 71.78125 
z
" id="DejaVuSans-35"/>
      <path id="DejaVuSans-32"/>
      <path d="M 54.890625 33.015625 
L 54.890625 0 
L 45.90625 0 
L 45.90625 32.71875 
Q 45.90625 40.484375 42.875 44.328125 
Q 39.84375 48.1875 33.796875 48.1875 
Q 26.515625 48.1875 22.3125 43.546875 
Q 18.109375 38.921875 18.109375 30.90625 
L 18.109375 0 
L 9.078125 0 
L 9.078125 75.984375 
L 18.109375 75.984375 
L 18.109375 46.1875 
Q 21.34375 51.125 25.703125 53.5625 
Q 30.078125 56 35.796875 56 
Q 45.21875 56 50.046875 50.171875 
Q 54.890625 44.34375 54.890625 33.015625 
z
" id="DejaVuSans-104"/>
      <path d="M 56.203125 29.59375 
L 56.203125 25.203125 
L 14.890625 25.203125 
Q 15.484375 15.921875 20.484375 11.0625 
Q 25.484375 6.203125 34.421875 6.203125 
Q 39.59375 6.203125 44.453125 7.46875 
Q 49.3125 8.734375 54.109375 11.28125 
L 54.109375 2.78125 
Q 49.265625 0.734375 44.1875 -0.34375 
Q 39.109375 -1.421875 33.890625 -1.421875 
Q 20.796875 -1.421875 13.15625 6.1875 
Q 5.515625 13.8125 5.515625 26.8125 
Q 5.515625 40.234375 12.765625 48.109375 
Q 20.015625 56 32.328125 56 
Q 43.359375 56 49.78125 48.890625 
Q 56.203125 41.796875 56.203125 29.59375 
z
M 47.21875 32.234375 
Q 47.125 39.59375 43.09375 43.984375 
Q 39.0625 48.390625 32.421875 48.390625 
Q 24.90625 48.390625 20.390625 44.140625 
Q 15.875 39.890625 15.1875 32.171875 
z
" id="DejaVuSans-101"/>
      <path d="M 34.28125 27.484375 
Q 23.390625 27.484375 19.1875 25 
Q 14.984375 22.515625 14.984375 16.5 
Q 14.984375 11.71875 18.140625 8.90625 
Q 21.296875 6.109375 26.703125 6.109375 
Q 34.1875 6.109375 38.703125 11.40625 
Q 43.21875 16.703125 43.21875 25.484375 
L 43.21875 27.484375 
z
M 52.203125 31.203125 
L 52.203125 0 
L 43.21875 0 
L 43.21875 8.296875 
Q 40.140625 3.328125 35.546875 0.953125 
Q 30.953125 -1.421875 24.3125 -1.421875 
Q 15.921875 -1.421875 10.953125 3.296875 
Q 6 8.015625 6 15.921875 
Q 6 25.140625 12.171875 29.828125 
Q 18.359375 34.515625 30.609375 34.515625 
L 43.21875 34.515625 
L 43.21875 35.40625 
Q 43.21875 41.609375 39.140625 45 
Q 35.0625 48.390625 27.6875 48.390625 
Q 23 48.390625 18.546875 47.265625 
Q 14.109375 46.140625 10.015625 43.890625 
L 10.015625 52.203125 
Q 14.9375 54.109375 19.578125 55.046875 
Q 24.21875 56 28.609375 56 
Q 40.484375 56 46.34375 49.84375 
Q 52.203125 43.703125 52.203125 31.203125 
z
" id="DejaVuSans-97"/>
      <path d="M 45.40625 46.390625 
L 45.40625 75.984375 
L 54.390625 75.984375 
L 54.390625 0 
L 45.40625 0 
L 45.40625 8.203125 
Q 42.578125 3.328125 38.25 0.953125 
Q 33.9375 -1.421875 27.875 -1.421875 
Q 17.96875 -1.421875 11.734375 6.484375 
Q 5.515625 14.40625 5.515625 27.296875 
Q 5.515625 40.1875 11.734375 48.09375 
Q 17.96875 56 27.875 56 
Q 33.9375 56 38.25 53.625 
Q 42.578125 51.265625 45.40625 46.390625 
z
M 14.796875 27.296875 
Q 14.796875 17.390625 18.875 11.75 
Q 22.953125 6.109375 30.078125 6.109375 
Q 37.203125 6.109375 41.296875 11.75 
Q 45.40625 17.390625 45.40625 27.296875 
Q 45.40625 37.203125 41.296875 42.84375 
Q 37.203125 48.484375 30.078125 48.484375 
Q 22.953125 48.484375 18.875 42.84375 
Q 14.796875 37.203125 14.796875 27.296875 
z
" id="DejaVuSans-100"/>
      <path d="M 44.28125 53.078125 
L 44.28125 44.578125 
Q 40.484375 46.53125 36.375 47.5 
Q 32.28125 48.484375 27.875 48.484375 
Q 21.1875 48.484375 17.84375 46.4375 
Q 14.5 44.390625 14.5 40.28125 
Q 14.5 37.15625 16.890625 35.375 
Q 19.28125 33.59375 26.515625 31.984375 
L 29.59375 31.296875 
Q 39.15625 29.25 43.1875 25.515625 
Q 47.21875 21.78125 47.21875 15.09375 
Q 47.21875 7.46875 41.1875 3.015625 
Q 35.15625 -1.421875 24.609375 -1.421875 
Q 20.21875 -1.421875 15.453125 -0.5625 
Q 10.6875 0.296875 5.421875 2 
L 5.421875 11.28125 
Q 10.40625 8.6875 15.234375 7.390625 
Q 20.0625 6.109375 24.8125 6.109375 
Q 31.15625 6.109375 34.5625 8.28125 
Q 37.984375 10.453125 37.984375 14.40625 
Q 37.984375 18.0625 35.515625 20.015625 
Q 33.0625 21.96875 24.703125 23.78125 
L 21.578125 24.515625 
Q 13.234375 26.265625 9.515625 29.90625 
Q 5.8125 33.546875 5.8125 39.890625 
Q 5.8125 47.609375 11.28125 51.796875 
Q 16.75 56 26.8125 56 
Q 31.78125 56 36.171875 55.265625 
Q 40.578125 54.546875 44.28125 53.078125 
z
" id="DejaVuSans-115"/>
      <path d="M 9.421875 54.6875 
L 18.40625 54.6875 
L 18.40625 0 
L 9.421875 0 
z
M 9.421875 75.984375 
L 18.40625 75.984375 
L 18.40625 64.59375 
L 9.421875 64.59375 
z
" id="DejaVuSans-105"/>
      <path d="M 54.890625 33.015625 
L 54.890625 0 
L 45.90625 0 
L 45.90625 32.71875 
Q 45.90625 40.484375 42.875 44.328125 
Q 39.84375 48.1875 33.796875 48.1875 
Q 26.515625 48.1875 22.3125 43.546875 
Q 18.109375 38.921875 18.109375 30.90625 
L 18.109375 0 
L 9.078125 0 
L 9.078125 54.6875 
L 18.109375 54.6875 
L 18.109375 46.1875 
Q 21.34375 51.125 25.703125 53.5625 
Q 30.078125 56 35.796875 56 
Q 45.21875 56 50.046875 50.171875 
Q 54.890625 44.34375 54.890625 33.015625 
z
" id="DejaVuSans-110"/>
      <path d="M 54.890625 54.6875 
L 35.109375 28.078125 
L 55.90625 0 
L 45.3125 0 
L 29.390625 21.484375 
L 13.484375 0 
L 2.875 0 
L 24.125 28.609375 
L 4.6875 54.6875 
L 15.28125 54.6875 
L 29.78125 35.203125 
L 44.28125 54.6875 
z
" id="DejaVuSans-120"/>
      <path d="M 18.109375 8.203125 
L 18.109375 -20.796875 
L 9.078125 -20.796875 
L 9.078125 54.6875 
L 18.109375 54.6875 
L 18.109375 46.390625 
Q 20.953125 51.265625 25.265625 53.625 
Q 29.59375 56 35.59375 56 
Q 45.5625 56 51.78125 48.09375 
Q 58.015625 40.1875 58.015625 27.296875 
Q 58.015625 14.40625 51.78125 6.484375 
Q 45.5625 -1.421875 35.59375 -1.421875 
Q 29.59375 -1.421875 25.265625 0.953125 
Q 20.953125 3.328125 18.109375 8.203125 
z
M 48.6875 27.296875 
Q 48.6875 37.203125 44.609375 42.84375 
Q 40.53125 48.484375 33.40625 48.484375 
Q 26.265625 48.484375 22.1875 42.84375 
Q 18.109375 37.203125 18.109375 27.296875 
Q 18.109375 17.390625 22.1875 11.75 
Q 26.265625 6.109375 33.40625 6.109375 
Q 40.53125 6.109375 44.609375 11.75 
Q 48.6875 17.390625 48.6875 27.296875 
z
" id="DejaVuSans-112"/>
      <path d="M 41.109375 46.296875 
Q 39.59375 47.171875 37.8125 47.578125 
Q 36.03125 48 33.890625 48 
Q 26.265625 48 22.1875 43.046875 
Q 18.109375 38.09375 18.109375 28.8125 
L 18.109375 0 
L 9.078125 0 
L 9.078125 54.6875 
L 18.109375 54.6875 
L 18.109375 46.1875 
Q 20.953125 51.171875 25.484375 53.578125 
Q 30.03125 56 36.53125 56 
Q 37.453125 56 38.578125 55.875 
Q 39.703125 55.765625 41.0625 55.515625 
z
" id="DejaVuSans-114"/>
      <path d="M 52 44.1875 
Q 55.375 50.25 60.0625 53.125 
Q 64.75 56 71.09375 56 
Q 79.640625 56 84.28125 50.015625 
Q 88.921875 44.046875 88.921875 33.015625 
L 88.921875 0 
L 79.890625 0 
L 79.890625 32.71875 
Q 79.890625 40.578125 77.09375 44.375 
Q 74.3125 48.1875 68.609375 48.1875 
Q 61.625 48.1875 57.5625 43.546875 
Q 53.515625 38.921875 53.515625 30.90625 
L 53.515625 0 
L 44.484375 0 
L 44.484375 32.71875 
Q 44.484375 40.625 41.703125 44.40625 
Q 38.921875 48.1875 33.109375 48.1875 
Q 26.21875 48.1875 22.15625 43.53125 
Q 18.109375 38.875 18.109375 30.90625 
L 18.109375 0 
L 9.078125 0 
L 9.078125 54.6875 
L 18.109375 54.6875 
L 18.109375 46.1875 
Q 21.1875 51.21875 25.484375 53.609375 
Q 29.78125 56 35.6875 56 
Q 41.65625 56 45.828125 52.96875 
Q 50 49.953125 52 44.1875 
z
" id="DejaVuSans-109"/>
      <path d="M 18.3125 70.21875 
L 18.3125 54.6875 
L 36.8125 54.6875 
L 36.8125 47.703125 
L 18.3125 47.703125 
L 18.3125 18.015625 
Q 18.3125 11.328125 20.140625 9.421875 
Q 21.96875 7.515625 27.59375 7.515625 
L 36.8125 7.515625 
L 36.8125 0 
L 27.59375 0 
Q 17.1875 0 13.234375 3.875 
Q 9.28125 7.765625 9.28125 18.015625 
L 9.28125 47.703125 
L 2.6875 47.703125 
L 2.6875 54.6875 
L 9.28125 54.6875 
L 9.28125 70.21875 
z
" id="DejaVuSans-116"/>
     </defs>
     <g transform="translate(164.077344 280.276563)scale(0.1 -0.1)">
      <use xlink:href="#DejaVuSans-35"/>
      <use x="83.789062" xlink:href="#DejaVuSans-32"/>
      <use x="115.576172" xlink:href="#DejaVuSans-104"/>
      <use x="178.955078" xlink:href="#DejaVuSans-101"/>
      <use x="240.478516" xlink:href="#DejaVuSans-97"/>
      <use x="301.757812" xlink:href="#DejaVuSans-100"/>
      <use x="365.234375" xlink:href="#DejaVuSans-115"/>
      <use x="417.333984" xlink:href="#DejaVuSans-32"/>
      <use x="449.121094" xlink:href="#DejaVuSans-105"/>
      <use x="476.904297" xlink:href="#DejaVuSans-110"/>
      <use x="540.283203" xlink:href="#DejaVuSans-32"/>
      <use x="572.070312" xlink:href="#DejaVuSans-101"/>
      <use x="631.84375" xlink:href="#DejaVuSans-120"/>
      <use x="691.023438" xlink:href="#DejaVuSans-112"/>
      <use x="754.5" xlink:href="#DejaVuSans-101"/>
      <use x="816.023438" xlink:href="#DejaVuSans-114"/>
      <use x="857.136719" xlink:href="#DejaVuSans-105"/>
      <use x="884.919922" xlink:href="#DejaVuSans-109"/>
      <use x="982.332031" xlink:href="#DejaVuSans-101"/>
      <use x="1043.855469" xlink:href="#DejaVuSans-110"/>
      <use x="1107.234375" xlink:href="#DejaVuSans-116"/>
     </g>
    </g>
   </g>
   <g id="matplotlib.axis_2">
    <g id="ytick_1">
     <g id="line2d_8">
      <path clip-path="url(#pad0df38055)" d="M 54 252 
L 388.8 252 
" style="fill:none;stroke:#000000;stroke-linecap:square;stroke-width:0.8;"/>
     </g>
     <g id="line2d_9">
      <defs>
       <path d="M 0 0 
L -3.5 0 
" id="me7cdec6fee" style="stroke:#000000;stroke-width:0.8;"/>
      </defs>
      <g>
       <use style="stroke:#000000;stroke-width:0.8;" x="54" xlink:href="#me7cdec6fee" y="252"/>
      </g>
     </g>
     <g id="text_9">
      <!-- 0.00 -->
      <defs>
       <path d="M 10.6875 12.40625 
L 21 12.40625 
L 21 0 
L 10.6875 0 
z
" id="DejaVuSans-46"/>
      </defs>
      <g transform="translate(24.734375 255.799219)scale(0.1 -0.1)">
       <use xlink:href="#DejaVuSans-48"/>
       <use x="63.623047" xlink:href="#DejaVuSans-46"/>
       <use x="95.410156" xlink:href="#DejaVuSans-48"/>
       <use x="159.033203" xlink:href="#DejaVuSans-48"/>
      </g>
     </g>
    </g>
    <g id="ytick_2">
     <g id="line2d_10">
      <path clip-path="url(#pad0df38055)" d="M 54 226.621849 
L 388.8 226.621849 
" style="fill:none;stroke:#000000;stroke-linecap:square;stroke-width:0.8;"/>
     </g>
     <g id="line2d_11">
      <g>
       <use style="stroke:#000000;stroke-width:0.8;" x="54" xlink:href="#me7cdec6fee" y="226.621849"/>
      </g>
     </g>
     <g id="text_10">
      <!-- 0.01 -->
      <defs>
       <path d="M 12.40625 8.296875 
L 28.515625 8.296875 
L 28.515625 63.921875 
L 10.984375 60.40625 
L 10.984375 69.390625 
L 28.421875 72.90625 
L 38.28125 72.90625 
L 38.28125 8.296875 
L 54.390625 8.296875 
L 54.390625 0 
L 12.40625 0 
z
" id="DejaVuSans-49"/>
      </defs>
      <g transform="translate(24.734375 230.421067)scale(0.1 -0.1)">
       <use xlink:href="#DejaVuSans-48"/>
       <use x="63.623047" xlink:href="#DejaVuSans-46"/>
       <use x="95.410156" xlink:href="#DejaVuSans-48"/>
       <use x="159.033203" xlink:href="#DejaVuSans-49"/>
      </g>
     </g>
    </g>
    <g id="ytick_3">
     <g id="line2d_12">
      <path clip-path="url(#pad0df38055)" d="M 54 201.243697 
L 388.8 201.243697 
" style="fill:none;stroke:#000000;stroke-linecap:square;stroke-width:0.8;"/>
     </g>
     <g id="line2d_13">
      <g>
       <use style="stroke:#000000;stroke-width:0.8;" x="54" xlink:href="#me7cdec6fee" y="201.243697"/>
      </g>
     </g>
     <g id="text_11">
      <!-- 0.02 -->
      <g transform="translate(24.734375 205.042916)scale(0.1 -0.1)">
       <use xlink:href="#DejaVuSans-48"/>
       <use x="63.623047" xlink:href="#DejaVuSans-46"/>
       <use x="95.410156" xlink:href="#DejaVuSans-48"/>
       <use x="159.033203" xlink:href="#DejaVuSans-50"/>
      </g>
     </g>
    </g>
    <g id="ytick_4">
     <g id="line2d_14">
      <path clip-path="url(#pad0df38055)" d="M 54 175.865546 
L 388.8 175.865546 
" style="fill:none;stroke:#000000;stroke-linecap:square;stroke-width:0.8;"/>
     </g>
     <g id="line2d_15">
      <g>
       <use style="stroke:#000000;stroke-width:0.8;" x="54" xlink:href="#me7cdec6fee" y="175.865546"/>
      </g>
     </g>
     <g id="text_12">
      <!-- 0.03 -->
      <g transform="translate(24.734375 179.664765)scale(0.1 -0.1)">
       <use xlink:href="#DejaVuSans-48"/>
       <use x="63.623047" xlink:href="#DejaVuSans-46"/>
       <use x="95.410156" xlink:href="#DejaVuSans-48"/>
       <use x="159.033203" xlink:href="#DejaVuSans-51"/>
      </g>
     </g>
    </g>
    <g id="ytick_5">
     <g id="line2d_16">
      <path clip-path="url(#pad0df38055)" d="M 54 150.487395 
L 388.8 150.487395 
" style="fill:none;stroke:#000000;stroke-linecap:square;stroke-width:0.8;"/>
     </g>
     <g id="line2d_17">
      <g>
       <use style="stroke:#000000;stroke-width:0.8;" x="54" xlink:href="#me7cdec6fee" y="150.487395"/>
      </g>
     </g>
     <g id="text_13">
      <!-- 0.04 -->
      <g transform="translate(24.734375 154.286614)scale(0.1 -0.1)">
       <use xlink:href="#DejaVuSans-48"/>
       <use x="63.623047" xlink:href="#DejaVuSans-46"/>
       <use x="95.410156" xlink:href="#DejaVuSans-48"/>
       <use x="159.033203" xlink:href="#DejaVuSans-52"/>
      </g>
     </g>
    </g>
    <g id="ytick_6">
     <g id="line2d_18">
      <path clip-path="url(#pad0df38055)" d="M 54 125.109244 
L 388.8 125.109244 
" style="fill:none;stroke:#000000;stroke-linecap:square;stroke-width:0.8;"/>
     </g>
     <g id="line2d_19">
      <g>
       <use style="stroke:#000000;stroke-width:0.8;" x="54" xlink:href="#me7cdec6fee" y="125.109244"/>
      </g>
     </g>
     <g id="text_14">
      <!-- 0.05 -->
      <g transform="translate(24.734375 128.908462)scale(0.1 -0.1)">
       <use xlink:href="#DejaVuSans-48"/>
       <use x="63.623047" xlink:href="#DejaVuSans-46"/>
       <use x="95.410156" xlink:href="#DejaVuSans-48"/>
       <use x="159.033203" xlink:href="#DejaVuSans-53"/>
      </g>
     </g>
    </g>
    <g id="ytick_7">
     <g id="line2d_20">
      <path clip-path="url(#pad0df38055)" d="M 54 99.731092 
L 388.8 99.731092 
" style="fill:none;stroke:#000000;stroke-linecap:square;stroke-width:0.8;"/>
     </g>
     <g id="line2d_21">
      <g>
       <use style="stroke:#000000;stroke-width:0.8;" x="54" xlink:href="#me7cdec6fee" y="99.731092"/>
      </g>
     </g>
     <g id="text_15">
      <!-- 0.06 -->
      <defs>
       <path d="M 33.015625 40.375 
Q 26.375 40.375 22.484375 35.828125 
Q 18.609375 31.296875 18.609375 23.390625 
Q 18.609375 15.53125 22.484375 10.953125 
Q 26.375 6.390625 33.015625 6.390625 
Q 39.65625 6.390625 43.53125 10.953125 
Q 47.40625 15.53125 47.40625 23.390625 
Q 47.40625 31.296875 43.53125 35.828125 
Q 39.65625 40.375 33.015625 40.375 
z
M 52.59375 71.296875 
L 52.59375 62.3125 
Q 48.875 64.0625 45.09375 64.984375 
Q 41.3125 65.921875 37.59375 65.921875 
Q 27.828125 65.921875 22.671875 59.328125 
Q 17.53125 52.734375 16.796875 39.40625 
Q 19.671875 43.65625 24.015625 45.921875 
Q 28.375 48.1875 33.59375 48.1875 
Q 44.578125 48.1875 50.953125 41.515625 
Q 57.328125 34.859375 57.328125 23.390625 
Q 57.328125 12.15625 50.6875 5.359375 
Q 44.046875 -1.421875 33.015625 -1.421875 
Q 20.359375 -1.421875 13.671875 8.265625 
Q 6.984375 17.96875 6.984375 36.375 
Q 6.984375 53.65625 15.1875 63.9375 
Q 23.390625 74.21875 37.203125 74.21875 
Q 40.921875 74.21875 44.703125 73.484375 
Q 48.484375 72.75 52.59375 71.296875 
z
" id="DejaVuSans-54"/>
      </defs>
      <g transform="translate(24.734375 103.530311)scale(0.1 -0.1)">
       <use xlink:href="#DejaVuSans-48"/>
       <use x="63.623047" xlink:href="#DejaVuSans-46"/>
       <use x="95.410156" xlink:href="#DejaVuSans-48"/>
       <use x="159.033203" xlink:href="#DejaVuSans-54"/>
      </g>
     </g>
    </g>
    <g id="ytick_8">
     <g id="line2d_22">
      <path clip-path="url(#pad0df38055)" d="M 54 74.352941 
L 388.8 74.352941 
" style="fill:none;stroke:#000000;stroke-linecap:square;stroke-width:0.8;"/>
     </g>
     <g id="line2d_23">
      <g>
       <use style="stroke:#000000;stroke-width:0.8;" x="54" xlink:href="#me7cdec6fee" y="74.352941"/>
      </g>
     </g>
     <g id="text_16">
      <!-- 0.07 -->
      <defs>
       <path d="M 8.203125 72.90625 
L 55.078125 72.90625 
L 55.078125 68.703125 
L 28.609375 0 
L 18.3125 0 
L 43.21875 64.59375 
L 8.203125 64.59375 
z
" id="DejaVuSans-55"/>
      </defs>
      <g transform="translate(24.734375 78.15216)scale(0.1 -0.1)">
       <use xlink:href="#DejaVuSans-48"/>
       <use x="63.623047" xlink:href="#DejaVuSans-46"/>
       <use x="95.410156" xlink:href="#DejaVuSans-48"/>
       <use x="159.033203" xlink:href="#DejaVuSans-55"/>
      </g>
     </g>
    </g>
    <g id="ytick_9">
     <g id="line2d_24">
      <path clip-path="url(#pad0df38055)" d="M 54 48.97479 
L 388.8 48.97479 
" style="fill:none;stroke:#000000;stroke-linecap:square;stroke-width:0.8;"/>
     </g>
     <g id="line2d_25">
      <g>
       <use style="stroke:#000000;stroke-width:0.8;" x="54" xlink:href="#me7cdec6fee" y="48.97479"/>
      </g>
     </g>
     <g id="text_17">
      <!-- 0.08 -->
      <defs>
       <path d="M 31.78125 34.625 
Q 24.75 34.625 20.71875 30.859375 
Q 16.703125 27.09375 16.703125 20.515625 
Q 16.703125 13.921875 20.71875 10.15625 
Q 24.75 6.390625 31.78125 6.390625 
Q 38.8125 6.390625 42.859375 10.171875 
Q 46.921875 13.96875 46.921875 20.515625 
Q 46.921875 27.09375 42.890625 30.859375 
Q 38.875 34.625 31.78125 34.625 
z
M 21.921875 38.8125 
Q 15.578125 40.375 12.03125 44.71875 
Q 8.5 49.078125 8.5 55.328125 
Q 8.5 64.0625 14.71875 69.140625 
Q 20.953125 74.21875 31.78125 74.21875 
Q 42.671875 74.21875 48.875 69.140625 
Q 55.078125 64.0625 55.078125 55.328125 
Q 55.078125 49.078125 51.53125 44.71875 
Q 48 40.375 41.703125 38.8125 
Q 48.828125 37.15625 52.796875 32.3125 
Q 56.78125 27.484375 56.78125 20.515625 
Q 56.78125 9.90625 50.3125 4.234375 
Q 43.84375 -1.421875 31.78125 -1.421875 
Q 19.734375 -1.421875 13.25 4.234375 
Q 6.78125 9.90625 6.78125 20.515625 
Q 6.78125 27.484375 10.78125 32.3125 
Q 14.796875 37.15625 21.921875 38.8125 
z
M 18.3125 54.390625 
Q 18.3125 48.734375 21.84375 45.5625 
Q 25.390625 42.390625 31.78125 42.390625 
Q 38.140625 42.390625 41.71875 45.5625 
Q 45.3125 48.734375 45.3125 54.390625 
Q 45.3125 60.0625 41.71875 63.234375 
Q 38.140625 66.40625 31.78125 66.40625 
Q 25.390625 66.40625 21.84375 63.234375 
Q 18.3125 60.0625 18.3125 54.390625 
z
" id="DejaVuSans-56"/>
      </defs>
      <g transform="translate(24.734375 52.774009)scale(0.1 -0.1)">
       <use xlink:href="#DejaVuSans-48"/>
       <use x="63.623047" xlink:href="#DejaVuSans-46"/>
       <use x="95.410156" xlink:href="#DejaVuSans-48"/>
       <use x="159.033203" xlink:href="#DejaVuSans-56"/>
      </g>
     </g>
    </g>
    <g id="text_18">
     <!-- P of # heads in experiment -->
     <defs>
      <path d="M 19.671875 64.796875 
L 19.671875 37.40625 
L 32.078125 37.40625 
Q 38.96875 37.40625 42.71875 40.96875 
Q 46.484375 44.53125 46.484375 51.125 
Q 46.484375 57.671875 42.71875 61.234375 
Q 38.96875 64.796875 32.078125 64.796875 
z
M 9.8125 72.90625 
L 32.078125 72.90625 
Q 44.34375 72.90625 50.609375 67.359375 
Q 56.890625 61.8125 56.890625 51.125 
Q 56.890625 40.328125 50.609375 34.8125 
Q 44.34375 29.296875 32.078125 29.296875 
L 19.671875 29.296875 
L 19.671875 0 
L 9.8125 0 
z
" id="DejaVuSans-80"/>
      <path d="M 30.609375 48.390625 
Q 23.390625 48.390625 19.1875 42.75 
Q 14.984375 37.109375 14.984375 27.296875 
Q 14.984375 17.484375 19.15625 11.84375 
Q 23.34375 6.203125 30.609375 6.203125 
Q 37.796875 6.203125 41.984375 11.859375 
Q 46.1875 17.53125 46.1875 27.296875 
Q 46.1875 37.015625 41.984375 42.703125 
Q 37.796875 48.390625 30.609375 48.390625 
z
M 30.609375 56 
Q 42.328125 56 49.015625 48.375 
Q 55.71875 40.765625 55.71875 27.296875 
Q 55.71875 13.875 49.015625 6.21875 
Q 42.328125 -1.421875 30.609375 -1.421875 
Q 18.84375 -1.421875 12.171875 6.21875 
Q 5.515625 13.875 5.515625 27.296875 
Q 5.515625 40.765625 12.171875 48.375 
Q 18.84375 56 30.609375 56 
z
" id="DejaVuSans-111"/>
      <path d="M 37.109375 75.984375 
L 37.109375 68.5 
L 28.515625 68.5 
Q 23.6875 68.5 21.796875 66.546875 
Q 19.921875 64.59375 19.921875 59.515625 
L 19.921875 54.6875 
L 34.71875 54.6875 
L 34.71875 47.703125 
L 19.921875 47.703125 
L 19.921875 0 
L 10.890625 0 
L 10.890625 47.703125 
L 2.296875 47.703125 
L 2.296875 54.6875 
L 10.890625 54.6875 
L 10.890625 58.5 
Q 10.890625 67.625 15.140625 71.796875 
Q 19.390625 75.984375 28.609375 75.984375 
z
" id="DejaVuSans-102"/>
     </defs>
     <g transform="translate(18.654687 211.615156)rotate(-90)scale(0.1 -0.1)">
      <use xlink:href="#DejaVuSans-80"/>
      <use x="60.302734" xlink:href="#DejaVuSans-32"/>
      <use x="92.089844" xlink:href="#DejaVuSans-111"/>
      <use x="153.271484" xlink:href="#DejaVuSans-102"/>
      <use x="188.476562" xlink:href="#DejaVuSans-32"/>
      <use x="220.263672" xlink:href="#DejaVuSans-35"/>
      <use x="304.052734" xlink:href="#DejaVuSans-32"/>
      <use x="335.839844" xlink:href="#DejaVuSans-104"/>
      <use x="399.21875" xlink:href="#DejaVuSans-101"/>
      <use x="460.742188" xlink:href="#DejaVuSans-97"/>
      <use x="522.021484" xlink:href="#DejaVuSans-100"/>
      <use x="585.498047" xlink:href="#DejaVuSans-115"/>
      <use x="637.597656" xlink:href="#DejaVuSans-32"/>
      <use x="669.384766" xlink:href="#DejaVuSans-105"/>
      <use x="697.167969" xlink:href="#DejaVuSans-110"/>
      <use x="760.546875" xlink:href="#DejaVuSans-32"/>
      <use x="792.333984" xlink:href="#DejaVuSans-101"/>
      <use x="852.107422" xlink:href="#DejaVuSans-120"/>
      <use x="911.287109" xlink:href="#DejaVuSans-112"/>
      <use x="974.763672" xlink:href="#DejaVuSans-101"/>
      <use x="1036.287109" xlink:href="#DejaVuSans-114"/>
      <use x="1077.400391" xlink:href="#DejaVuSans-105"/>
      <use x="1105.183594" xlink:href="#DejaVuSans-109"/>
      <use x="1202.595703" xlink:href="#DejaVuSans-101"/>
      <use x="1264.119141" xlink:href="#DejaVuSans-110"/>
      <use x="1327.498047" xlink:href="#DejaVuSans-116"/>
     </g>
    </g>
   </g>
   <g id="line2d_26">
    <defs>
     <path d="M 0 -3 
L -0.673542 -0.927051 
L -2.85317 -0.927051 
L -1.089814 0.354102 
L -1.763356 2.427051 
L -0 1.145898 
L 1.763356 2.427051 
L 1.089814 0.354102 
L 2.85317 -0.927051 
L 0.673542 -0.927051 
z
" id="m4543647d4b" style="stroke:#000000;stroke-linejoin:bevel;"/>
    </defs>
    <g clip-path="url(#pad0df38055)">
     <use style="stroke:#000000;stroke-linejoin:bevel;" x="-1" xlink:href="#m4543647d4b" y="251.999841"/>
     <use style="stroke:#000000;stroke-linejoin:bevel;" x="5.542105" xlink:href="#m4543647d4b" y="251.99966"/>
     <use style="stroke:#000000;stroke-linejoin:bevel;" x="14.352632" xlink:href="#m4543647d4b" y="251.998881"/>
     <use style="stroke:#000000;stroke-linejoin:bevel;" x="23.163158" xlink:href="#m4543647d4b" y="251.99656"/>
     <use style="stroke:#000000;stroke-linejoin:bevel;" x="31.973684" xlink:href="#m4543647d4b" y="251.990102"/>
     <use style="stroke:#000000;stroke-linejoin:bevel;" x="40.784211" xlink:href="#m4543647d4b" y="251.973275"/>
     <use style="stroke:#000000;stroke-linejoin:bevel;" x="49.594737" xlink:href="#m4543647d4b" y="251.932128"/>
     <use style="stroke:#000000;stroke-linejoin:bevel;" x="58.405263" xlink:href="#m4543647d4b" y="251.837519"/>
     <use style="stroke:#000000;stroke-linejoin:bevel;" x="67.215789" xlink:href="#m4543647d4b" y="251.632651"/>
     <use style="stroke:#000000;stroke-linejoin:bevel;" x="76.026316" xlink:href="#m4543647d4b" y="251.214281"/>
     <use style="stroke:#000000;stroke-linejoin:bevel;" x="84.836842" xlink:href="#m4543647d4b" y="250.407609"/>
     <use style="stroke:#000000;stroke-linejoin:bevel;" x="93.647368" xlink:href="#m4543647d4b" y="248.937709"/>
     <use style="stroke:#000000;stroke-linejoin:bevel;" x="102.457895" xlink:href="#m4543647d4b" y="246.404703"/>
     <use style="stroke:#000000;stroke-linejoin:bevel;" x="111.268421" xlink:href="#m4543647d4b" y="242.274841"/>
     <use style="stroke:#000000;stroke-linejoin:bevel;" x="120.078947" xlink:href="#m4543647d4b" y="235.903185"/>
     <use style="stroke:#000000;stroke-linejoin:bevel;" x="128.889474" xlink:href="#m4543647d4b" y="226.602803"/>
     <use style="stroke:#000000;stroke-linejoin:bevel;" x="137.7" xlink:href="#m4543647d4b" y="213.76766"/>
     <use style="stroke:#000000;stroke-linejoin:bevel;" x="146.510526" xlink:href="#m4543647d4b" y="197.041011"/>
     <use style="stroke:#000000;stroke-linejoin:bevel;" x="155.321053" xlink:href="#m4543647d4b" y="176.500783"/>
     <use style="stroke:#000000;stroke-linejoin:bevel;" x="164.131579" xlink:href="#m4543647d4b" y="152.814754"/>
     <use style="stroke:#000000;stroke-linejoin:bevel;" x="172.942105" xlink:href="#m4543647d4b" y="127.309977"/>
     <use style="stroke:#000000;stroke-linejoin:bevel;" x="181.752632" xlink:href="#m4543647d4b" y="101.910157"/>
     <use style="stroke:#000000;stroke-linejoin:bevel;" x="190.563158" xlink:href="#m4543647d4b" y="78.923425"/>
     <use style="stroke:#000000;stroke-linejoin:bevel;" x="199.373684" xlink:href="#m4543647d4b" y="60.704838"/>
     <use style="stroke:#000000;stroke-linejoin:bevel;" x="208.184211" xlink:href="#m4543647d4b" y="49.259828"/>
     <use style="stroke:#000000;stroke-linejoin:bevel;" x="216.994737" xlink:href="#m4543647d4b" y="45.880825"/>
     <use style="stroke:#000000;stroke-linejoin:bevel;" x="225.805263" xlink:href="#m4543647d4b" y="50.908122"/>
     <use style="stroke:#000000;stroke-linejoin:bevel;" x="234.615789" xlink:href="#m4543647d4b" y="63.675861"/>
     <use style="stroke:#000000;stroke-linejoin:bevel;" x="243.426316" xlink:href="#m4543647d4b" y="82.654262"/>
     <use style="stroke:#000000;stroke-linejoin:bevel;" x="252.236842" xlink:href="#m4543647d4b" y="105.746863"/>
     <use style="stroke:#000000;stroke-linejoin:bevel;" x="261.047368" xlink:href="#m4543647d4b" y="130.664064"/>
     <use style="stroke:#000000;stroke-linejoin:bevel;" x="269.857895" xlink:href="#m4543647d4b" y="155.28295"/>
     <use style="stroke:#000000;stroke-linejoin:bevel;" x="278.668421" xlink:href="#m4543647d4b" y="177.918855"/>
     <use style="stroke:#000000;stroke-linejoin:bevel;" x="287.478947" xlink:href="#m4543647d4b" y="197.468046"/>
     <use style="stroke:#000000;stroke-linejoin:bevel;" x="296.289474" xlink:href="#m4543647d4b" y="213.41957"/>
     <use style="stroke:#000000;stroke-linejoin:bevel;" x="305.1" xlink:href="#m4543647d4b" y="225.765308"/>
     <use style="stroke:#000000;stroke-linejoin:bevel;" x="313.910526" xlink:href="#m4543647d4b" y="234.853142"/>
     <use style="stroke:#000000;stroke-linejoin:bevel;" x="322.721053" xlink:href="#m4543647d4b" y="241.228256"/>
     <use style="stroke:#000000;stroke-linejoin:bevel;" x="331.531579" xlink:href="#m4543647d4b" y="245.496306"/>
     <use style="stroke:#000000;stroke-linejoin:bevel;" x="340.342105" xlink:href="#m4543647d4b" y="248.226251"/>
     <use style="stroke:#000000;stroke-linejoin:bevel;" x="349.152632" xlink:href="#m4543647d4b" y="249.895849"/>
     <use style="stroke:#000000;stroke-linejoin:bevel;" x="357.963158" xlink:href="#m4543647d4b" y="250.872776"/>
     <use style="stroke:#000000;stroke-linejoin:bevel;" x="366.773684" xlink:href="#m4543647d4b" y="251.419908"/>
     <use style="stroke:#000000;stroke-linejoin:bevel;" x="375.584211" xlink:href="#m4543647d4b" y="251.713288"/>
     <use style="stroke:#000000;stroke-linejoin:bevel;" x="384.394737" xlink:href="#m4543647d4b" y="251.863933"/>
     <use style="stroke:#000000;stroke-linejoin:bevel;" x="393.205263" xlink:href="#m4543647d4b" y="251.938014"/>
     <use style="stroke:#000000;stroke-linejoin:bevel;" x="402.015789" xlink:href="#m4543647d4b" y="251.972902"/>
     <use style="stroke:#000000;stroke-linejoin:bevel;" x="410.826316" xlink:href="#m4543647d4b" y="251.988636"/>
     <use style="stroke:#000000;stroke-linejoin:bevel;" x="419.636842" xlink:href="#m4543647d4b" y="251.995431"/>
     <use style="stroke:#000000;stroke-linejoin:bevel;" x="428.447368" xlink:href="#m4543647d4b" y="251.998239"/>
     <use style="stroke:#000000;stroke-linejoin:bevel;" x="437.257895" xlink:href="#m4543647d4b" y="251.99935"/>
     <use style="stroke:#000000;stroke-linejoin:bevel;" x="446.068421" xlink:href="#m4543647d4b" y="251.99977"/>
     <use style="stroke:#000000;stroke-linejoin:bevel;" x="454.878947" xlink:href="#m4543647d4b" y="251.999922"/>
     <use style="stroke:#000000;stroke-linejoin:bevel;" x="463.689474" xlink:href="#m4543647d4b" y="251.999975"/>
     <use style="stroke:#000000;stroke-linejoin:bevel;" x="472.5" xlink:href="#m4543647d4b" y="251.999992"/>
     <use style="stroke:#000000;stroke-linejoin:bevel;" x="481.310526" xlink:href="#m4543647d4b" y="251.999998"/>
     <use style="stroke:#000000;stroke-linejoin:bevel;" x="490.121053" xlink:href="#m4543647d4b" y="251.999999"/>
     <use style="stroke:#000000;stroke-linejoin:bevel;" x="498.931579" xlink:href="#m4543647d4b" y="252"/>
     <use style="stroke:#000000;stroke-linejoin:bevel;" x="507.742105" xlink:href="#m4543647d4b" y="252"/>
     <use style="stroke:#000000;stroke-linejoin:bevel;" x="516.552632" xlink:href="#m4543647d4b" y="252"/>
     <use style="stroke:#000000;stroke-linejoin:bevel;" x="525.363158" xlink:href="#m4543647d4b" y="252"/>
     <use style="stroke:#000000;stroke-linejoin:bevel;" x="534.173684" xlink:href="#m4543647d4b" y="252"/>
     <use style="stroke:#000000;stroke-linejoin:bevel;" x="542.984211" xlink:href="#m4543647d4b" y="252"/>
     <use style="stroke:#000000;stroke-linejoin:bevel;" x="551.794737" xlink:href="#m4543647d4b" y="252"/>
     <use style="stroke:#000000;stroke-linejoin:bevel;" x="560.605263" xlink:href="#m4543647d4b" y="252"/>
     <use style="stroke:#000000;stroke-linejoin:bevel;" x="569.415789" xlink:href="#m4543647d4b" y="252"/>
     <use style="stroke:#000000;stroke-linejoin:bevel;" x="578.226316" xlink:href="#m4543647d4b" y="252"/>
     <use style="stroke:#000000;stroke-linejoin:bevel;" x="587.036842" xlink:href="#m4543647d4b" y="252"/>
     <use style="stroke:#000000;stroke-linejoin:bevel;" x="595.847368" xlink:href="#m4543647d4b" y="252"/>
     <use style="stroke:#000000;stroke-linejoin:bevel;" x="604.657895" xlink:href="#m4543647d4b" y="252"/>
     <use style="stroke:#000000;stroke-linejoin:bevel;" x="613.468421" xlink:href="#m4543647d4b" y="252"/>
     <use style="stroke:#000000;stroke-linejoin:bevel;" x="622.278947" xlink:href="#m4543647d4b" y="252"/>
     <use style="stroke:#000000;stroke-linejoin:bevel;" x="631.089474" xlink:href="#m4543647d4b" y="252"/>
     <use style="stroke:#000000;stroke-linejoin:bevel;" x="639.9" xlink:href="#m4543647d4b" y="252"/>
     <use style="stroke:#000000;stroke-linejoin:bevel;" x="648.710526" xlink:href="#m4543647d4b" y="252"/>
     <use style="stroke:#000000;stroke-linejoin:bevel;" x="657.521053" xlink:href="#m4543647d4b" y="252"/>
     <use style="stroke:#000000;stroke-linejoin:bevel;" x="666.331579" xlink:href="#m4543647d4b" y="252"/>
     <use style="stroke:#000000;stroke-linejoin:bevel;" x="675.142105" xlink:href="#m4543647d4b" y="252"/>
     <use style="stroke:#000000;stroke-linejoin:bevel;" x="683.952632" xlink:href="#m4543647d4b" y="252"/>
     <use style="stroke:#000000;stroke-linejoin:bevel;" x="692.763158" xlink:href="#m4543647d4b" y="252"/>
     <use style="stroke:#000000;stroke-linejoin:bevel;" x="701.573684" xlink:href="#m4543647d4b" y="252"/>
     <use style="stroke:#000000;stroke-linejoin:bevel;" x="710.384211" xlink:href="#m4543647d4b" y="252"/>
     <use style="stroke:#000000;stroke-linejoin:bevel;" x="719.194737" xlink:href="#m4543647d4b" y="252"/>
     <use style="stroke:#000000;stroke-linejoin:bevel;" x="728.005263" xlink:href="#m4543647d4b" y="252"/>
     <use style="stroke:#000000;stroke-linejoin:bevel;" x="736.815789" xlink:href="#m4543647d4b" y="252"/>
    </g>
   </g>
   <g id="line2d_27">
    <path clip-path="url(#pad0df38055)" d="M -1 252 
L 54 252 
L 54 251.746218 
L 80.431579 251.746218 
L 80.431579 250.223529 
L 89.242105 250.223529 
L 89.242105 248.954622 
L 98.052632 248.954622 
L 98.052632 246.163025 
L 106.863158 246.163025 
L 106.863158 242.102521 
L 115.673684 242.102521 
L 115.673684 233.47395 
L 124.484211 233.47395 
L 124.484211 226.621849 
L 133.294737 226.621849 
L 133.294737 208.603361 
L 142.105263 208.603361 
L 142.105263 199.721008 
L 150.915789 199.721008 
L 150.915789 179.418487 
L 159.726316 179.418487 
L 159.726316 147.442017 
L 168.536842 147.442017 
L 168.536842 126.885714 
L 177.347368 126.885714 
L 177.347368 107.090756 
L 186.157895 107.090756 
L 186.157895 80.951261 
L 194.968421 80.951261 
L 194.968421 51.512605 
L 203.778947 51.512605 
L 203.778947 46.183193 
L 212.589474 46.183193 
L 212.589474 51.766387 
L 221.4 51.766387 
L 221.4 46.436975 
L 230.210526 46.436975 
L 230.210526 56.842017 
L 239.021053 56.842017 
L 239.021053 86.788235 
L 247.831579 86.788235 
L 247.831579 110.897479 
L 256.642105 110.897479 
L 256.642105 139.57479 
L 265.452632 139.57479 
L 265.452632 155.563025 
L 274.263158 155.563025 
L 274.263158 176.626891 
L 283.073684 176.626891 
L 283.073684 195.914286 
L 291.884211 195.914286 
L 291.884211 213.42521 
L 300.694737 213.42521 
L 300.694737 225.352941 
L 309.505263 225.352941 
L 309.505263 236.773109 
L 318.315789 236.773109 
L 318.315789 239.564706 
L 327.126316 239.564706 
L 327.126316 246.670588 
L 335.936842 246.670588 
L 335.936842 248.193277 
L 344.747368 248.193277 
L 344.747368 250.477311 
L 353.557895 250.477311 
L 353.557895 251.746218 
L 362.368421 251.746218 
L 362.368421 251.238655 
L 371.178947 251.238655 
L 371.178947 252 
L 379.989474 252 
L 379.989474 251.746218 
L 388.8 251.746218 
L 388.8 252 
L 433 252 
L 433 252 
" style="fill:none;stroke:#ff7f0e;stroke-linecap:square;stroke-width:1.5;"/>
   </g>
   <g id="line2d_28">
    <path clip-path="url(#pad0df38055)" d="M -1 252 
L 54 252 
L 54 251.746218 
L 80.431579 251.746218 
L 80.431579 250.731092 
L 89.242105 250.731092 
L 89.242105 249.969748 
L 98.052632 249.969748 
L 98.052632 247.178151 
L 106.863158 247.178151 
L 106.863158 242.610084 
L 115.673684 242.610084 
L 115.673684 235.504202 
L 124.484211 235.504202 
L 124.484211 233.47395 
L 133.294737 233.47395 
L 133.294737 213.678992 
L 142.105263 213.678992 
L 142.105263 206.065546 
L 150.915789 206.065546 
L 150.915789 184.747899 
L 159.726316 184.747899 
L 159.726316 171.043697 
L 168.536842 171.043697 
L 168.536842 140.336134 
L 177.347368 140.336134 
L 177.347368 112.67395 
L 186.157895 112.67395 
L 186.157895 98.462185 
L 194.968421 98.462185 
L 194.968421 80.189916 
L 203.778947 80.189916 
L 203.778947 44.914286 
L 212.589474 44.914286 
L 212.589474 56.842017 
L 221.4 56.842017 
L 221.4 49.482353 
L 230.210526 49.482353 
L 230.210526 61.917647 
L 239.021053 61.917647 
L 239.021053 80.951261 
L 247.831579 80.951261 
L 247.831579 91.356303 
L 256.642105 91.356303 
L 256.642105 113.942857 
L 265.452632 113.942857 
L 265.452632 149.72605 
L 274.263158 149.72605 
L 274.263158 164.69916 
L 283.073684 164.69916 
L 283.073684 180.941176 
L 291.884211 180.941176 
L 291.884211 199.97479 
L 300.694737 199.97479 
L 300.694737 218.50084 
L 309.505263 218.50084 
L 309.505263 226.114286 
L 318.315789 226.114286 
L 318.315789 236.011765 
L 327.126316 236.011765 
L 327.126316 242.610084 
L 335.936842 242.610084 
L 335.936842 244.894118 
L 344.747368 244.894118 
L 344.747368 248.447059 
L 353.557895 248.447059 
L 353.557895 250.223529 
L 362.368421 250.223529 
L 362.368421 251.492437 
L 371.178947 251.492437 
L 371.178947 251.746218 
L 388.8 251.746218 
L 388.8 252 
L 406.421053 252 
L 406.421053 251.746218 
L 415.231579 251.746218 
L 415.231579 252 
L 433 252 
L 433 252 
" style="fill:none;stroke:#2ca02c;stroke-linecap:square;stroke-width:1.5;"/>
   </g>
   <g id="patch_104">
    <path d="M 54 252 
L 54 34.56 
" style="fill:none;stroke:#000000;stroke-linecap:square;stroke-linejoin:miter;stroke-width:0.8;"/>
   </g>
   <g id="patch_105">
    <path d="M 388.8 252 
L 388.8 34.56 
" style="fill:none;stroke:#000000;stroke-linecap:square;stroke-linejoin:miter;stroke-width:0.8;"/>
   </g>
   <g id="patch_106">
    <path d="M 54 252 
L 388.8 252 
" style="fill:none;stroke:#000000;stroke-linecap:square;stroke-linejoin:miter;stroke-width:0.8;"/>
   </g>
   <g id="patch_107">
    <path d="M 54 34.56 
L 388.8 34.56 
" style="fill:none;stroke:#000000;stroke-linecap:square;stroke-linejoin:miter;stroke-width:0.8;"/>
   </g>
   <g id="text_19">
    <!-- # trials/experiment = 100; # experiments = 10000 -->
    <defs>
     <path d="M 9.421875 75.984375 
L 18.40625 75.984375 
L 18.40625 0 
L 9.421875 0 
z
" id="DejaVuSans-108"/>
     <path d="M 25.390625 72.90625 
L 33.6875 72.90625 
L 8.296875 -9.28125 
L 0 -9.28125 
z
" id="DejaVuSans-47"/>
     <path d="M 10.59375 45.40625 
L 73.1875 45.40625 
L 73.1875 37.203125 
L 10.59375 37.203125 
z
M 10.59375 25.484375 
L 73.1875 25.484375 
L 73.1875 17.1875 
L 10.59375 17.1875 
z
" id="DejaVuSans-61"/>
     <path d="M 11.71875 51.703125 
L 22.015625 51.703125 
L 22.015625 39.3125 
L 11.71875 39.3125 
z
M 11.71875 12.40625 
L 22.015625 12.40625 
L 22.015625 4 
L 14.015625 -11.625 
L 7.71875 -11.625 
L 11.71875 4 
z
" id="DejaVuSans-59"/>
    </defs>
    <g transform="translate(66.350625 28.56)scale(0.12 -0.12)">
     <use xlink:href="#DejaVuSans-35"/>
     <use x="83.789062" xlink:href="#DejaVuSans-32"/>
     <use x="115.576172" xlink:href="#DejaVuSans-116"/>
     <use x="154.785156" xlink:href="#DejaVuSans-114"/>
     <use x="195.898438" xlink:href="#DejaVuSans-105"/>
     <use x="223.681641" xlink:href="#DejaVuSans-97"/>
     <use x="284.960938" xlink:href="#DejaVuSans-108"/>
     <use x="312.744141" xlink:href="#DejaVuSans-115"/>
     <use x="364.84375" xlink:href="#DejaVuSans-47"/>
     <use x="398.535156" xlink:href="#DejaVuSans-101"/>
     <use x="458.308594" xlink:href="#DejaVuSans-120"/>
     <use x="517.488281" xlink:href="#DejaVuSans-112"/>
     <use x="580.964844" xlink:href="#DejaVuSans-101"/>
     <use x="642.488281" xlink:href="#DejaVuSans-114"/>
     <use x="683.601562" xlink:href="#DejaVuSans-105"/>
     <use x="711.384766" xlink:href="#DejaVuSans-109"/>
     <use x="808.796875" xlink:href="#DejaVuSans-101"/>
     <use x="870.320312" xlink:href="#DejaVuSans-110"/>
     <use x="933.699219" xlink:href="#DejaVuSans-116"/>
     <use x="972.908203" xlink:href="#DejaVuSans-32"/>
     <use x="1004.695312" xlink:href="#DejaVuSans-61"/>
     <use x="1088.484375" xlink:href="#DejaVuSans-32"/>
     <use x="1120.271484" xlink:href="#DejaVuSans-49"/>
     <use x="1183.894531" xlink:href="#DejaVuSans-48"/>
     <use x="1247.517578" xlink:href="#DejaVuSans-48"/>
     <use x="1311.140625" xlink:href="#DejaVuSans-59"/>
     <use x="1344.832031" xlink:href="#DejaVuSans-32"/>
     <use x="1376.619141" xlink:href="#DejaVuSans-35"/>
     <use x="1460.408203" xlink:href="#DejaVuSans-32"/>
     <use x="1492.195312" xlink:href="#DejaVuSans-101"/>
     <use x="1551.96875" xlink:href="#DejaVuSans-120"/>
     <use x="1611.148438" xlink:href="#DejaVuSans-112"/>
     <use x="1674.625" xlink:href="#DejaVuSans-101"/>
     <use x="1736.148438" xlink:href="#DejaVuSans-114"/>
     <use x="1777.261719" xlink:href="#DejaVuSans-105"/>
     <use x="1805.044922" xlink:href="#DejaVuSans-109"/>
     <use x="1902.457031" xlink:href="#DejaVuSans-101"/>
     <use x="1963.980469" xlink:href="#DejaVuSans-110"/>
     <use x="2027.359375" xlink:href="#DejaVuSans-116"/>
     <use x="2066.568359" xlink:href="#DejaVuSans-115"/>
     <use x="2118.667969" xlink:href="#DejaVuSans-32"/>
     <use x="2150.455078" xlink:href="#DejaVuSans-61"/>
     <use x="2234.244141" xlink:href="#DejaVuSans-32"/>
     <use x="2266.03125" xlink:href="#DejaVuSans-49"/>
     <use x="2329.654297" xlink:href="#DejaVuSans-48"/>
     <use x="2393.277344" xlink:href="#DejaVuSans-48"/>
     <use x="2456.900391" xlink:href="#DejaVuSans-48"/>
     <use x="2520.523438" xlink:href="#DejaVuSans-48"/>
    </g>
   </g>
   <g id="legend_1">
    <g id="patch_108">
     <path d="M 236.298438 86.594375 
L 381.8 86.594375 
Q 383.8 86.594375 383.8 84.594375 
L 383.8 41.56 
Q 383.8 39.56 381.8 39.56 
L 236.298438 39.56 
Q 234.298438 39.56 234.298438 41.56 
L 234.298438 84.594375 
Q 234.298438 86.594375 236.298438 86.594375 
z
" style="fill:#ffffff;opacity:0.8;stroke:#cccccc;stroke-linejoin:miter;"/>
    </g>
    <g id="line2d_29"/>
    <g id="line2d_30">
     <g>
      <use style="stroke:#000000;stroke-linejoin:bevel;" x="248.298438" xlink:href="#m4543647d4b" y="47.658438"/>
     </g>
    </g>
    <g id="text_20">
     <!-- Binomial Formula -->
     <defs>
      <path d="M 19.671875 34.8125 
L 19.671875 8.109375 
L 35.5 8.109375 
Q 43.453125 8.109375 47.28125 11.40625 
Q 51.125 14.703125 51.125 21.484375 
Q 51.125 28.328125 47.28125 31.5625 
Q 43.453125 34.8125 35.5 34.8125 
z
M 19.671875 64.796875 
L 19.671875 42.828125 
L 34.28125 42.828125 
Q 41.5 42.828125 45.03125 45.53125 
Q 48.578125 48.25 48.578125 53.8125 
Q 48.578125 59.328125 45.03125 62.0625 
Q 41.5 64.796875 34.28125 64.796875 
z
M 9.8125 72.90625 
L 35.015625 72.90625 
Q 46.296875 72.90625 52.390625 68.21875 
Q 58.5 63.53125 58.5 54.890625 
Q 58.5 48.1875 55.375 44.234375 
Q 52.25 40.28125 46.1875 39.3125 
Q 53.46875 37.75 57.5 32.78125 
Q 61.53125 27.828125 61.53125 20.40625 
Q 61.53125 10.640625 54.890625 5.3125 
Q 48.25 0 35.984375 0 
L 9.8125 0 
z
" id="DejaVuSans-66"/>
      <path d="M 9.8125 72.90625 
L 51.703125 72.90625 
L 51.703125 64.59375 
L 19.671875 64.59375 
L 19.671875 43.109375 
L 48.578125 43.109375 
L 48.578125 34.8125 
L 19.671875 34.8125 
L 19.671875 0 
L 9.8125 0 
z
" id="DejaVuSans-70"/>
      <path d="M 8.5 21.578125 
L 8.5 54.6875 
L 17.484375 54.6875 
L 17.484375 21.921875 
Q 17.484375 14.15625 20.5 10.265625 
Q 23.53125 6.390625 29.59375 6.390625 
Q 36.859375 6.390625 41.078125 11.03125 
Q 45.3125 15.671875 45.3125 23.6875 
L 45.3125 54.6875 
L 54.296875 54.6875 
L 54.296875 0 
L 45.3125 0 
L 45.3125 8.40625 
Q 42.046875 3.421875 37.71875 1 
Q 33.40625 -1.421875 27.6875 -1.421875 
Q 18.265625 -1.421875 13.375 4.4375 
Q 8.5 10.296875 8.5 21.578125 
z
M 31.109375 56 
z
" id="DejaVuSans-117"/>
     </defs>
     <g transform="translate(266.298437 51.158438)scale(0.1 -0.1)">
      <use xlink:href="#DejaVuSans-66"/>
      <use x="68.603516" xlink:href="#DejaVuSans-105"/>
      <use x="96.386719" xlink:href="#DejaVuSans-110"/>
      <use x="159.765625" xlink:href="#DejaVuSans-111"/>
      <use x="220.947266" xlink:href="#DejaVuSans-109"/>
      <use x="318.359375" xlink:href="#DejaVuSans-105"/>
      <use x="346.142578" xlink:href="#DejaVuSans-97"/>
      <use x="407.421875" xlink:href="#DejaVuSans-108"/>
      <use x="435.205078" xlink:href="#DejaVuSans-32"/>
      <use x="466.992188" xlink:href="#DejaVuSans-70"/>
      <use x="520.886719" xlink:href="#DejaVuSans-111"/>
      <use x="582.068359" xlink:href="#DejaVuSans-114"/>
      <use x="621.431641" xlink:href="#DejaVuSans-109"/>
      <use x="718.84375" xlink:href="#DejaVuSans-117"/>
      <use x="782.222656" xlink:href="#DejaVuSans-108"/>
      <use x="810.005859" xlink:href="#DejaVuSans-97"/>
     </g>
    </g>
    <g id="line2d_31">
     <path d="M 238.298438 62.336563 
L 258.298437 62.336563 
" style="fill:none;stroke:#ff7f0e;stroke-linecap:square;stroke-width:1.5;"/>
    </g>
    <g id="line2d_32"/>
    <g id="text_21">
     <!-- Experiment 1. p=0.4 -->
     <defs>
      <path d="M 9.8125 72.90625 
L 55.90625 72.90625 
L 55.90625 64.59375 
L 19.671875 64.59375 
L 19.671875 43.015625 
L 54.390625 43.015625 
L 54.390625 34.71875 
L 19.671875 34.71875 
L 19.671875 8.296875 
L 56.78125 8.296875 
L 56.78125 0 
L 9.8125 0 
z
" id="DejaVuSans-69"/>
     </defs>
     <g transform="translate(266.298437 65.836563)scale(0.1 -0.1)">
      <use xlink:href="#DejaVuSans-69"/>
      <use x="63.183594" xlink:href="#DejaVuSans-120"/>
      <use x="122.363281" xlink:href="#DejaVuSans-112"/>
      <use x="185.839844" xlink:href="#DejaVuSans-101"/>
      <use x="247.363281" xlink:href="#DejaVuSans-114"/>
      <use x="288.476562" xlink:href="#DejaVuSans-105"/>
      <use x="316.259766" xlink:href="#DejaVuSans-109"/>
      <use x="413.671875" xlink:href="#DejaVuSans-101"/>
      <use x="475.195312" xlink:href="#DejaVuSans-110"/>
      <use x="538.574219" xlink:href="#DejaVuSans-116"/>
      <use x="577.783203" xlink:href="#DejaVuSans-32"/>
      <use x="609.570312" xlink:href="#DejaVuSans-49"/>
      <use x="673.193359" xlink:href="#DejaVuSans-46"/>
      <use x="704.980469" xlink:href="#DejaVuSans-32"/>
      <use x="736.767578" xlink:href="#DejaVuSans-112"/>
      <use x="800.244141" xlink:href="#DejaVuSans-61"/>
      <use x="884.033203" xlink:href="#DejaVuSans-48"/>
      <use x="947.65625" xlink:href="#DejaVuSans-46"/>
      <use x="979.443359" xlink:href="#DejaVuSans-52"/>
     </g>
    </g>
    <g id="line2d_33">
     <path d="M 238.298438 77.014688 
L 258.298437 77.014688 
" style="fill:none;stroke:#2ca02c;stroke-linecap:square;stroke-width:1.5;"/>
    </g>
    <g id="line2d_34"/>
    <g id="text_22">
     <!-- Experiment 2. p varies -->
     <defs>
      <path d="M 2.984375 54.6875 
L 12.5 54.6875 
L 29.59375 8.796875 
L 46.6875 54.6875 
L 56.203125 54.6875 
L 35.6875 0 
L 23.484375 0 
z
" id="DejaVuSans-118"/>
     </defs>
     <g transform="translate(266.298437 80.514688)scale(0.1 -0.1)">
      <use xlink:href="#DejaVuSans-69"/>
      <use x="63.183594" xlink:href="#DejaVuSans-120"/>
      <use x="122.363281" xlink:href="#DejaVuSans-112"/>
      <use x="185.839844" xlink:href="#DejaVuSans-101"/>
      <use x="247.363281" xlink:href="#DejaVuSans-114"/>
      <use x="288.476562" xlink:href="#DejaVuSans-105"/>
      <use x="316.259766" xlink:href="#DejaVuSans-109"/>
      <use x="413.671875" xlink:href="#DejaVuSans-101"/>
      <use x="475.195312" xlink:href="#DejaVuSans-110"/>
      <use x="538.574219" xlink:href="#DejaVuSans-116"/>
      <use x="577.783203" xlink:href="#DejaVuSans-32"/>
      <use x="609.570312" xlink:href="#DejaVuSans-50"/>
      <use x="673.193359" xlink:href="#DejaVuSans-46"/>
      <use x="704.980469" xlink:href="#DejaVuSans-32"/>
      <use x="736.767578" xlink:href="#DejaVuSans-112"/>
      <use x="800.244141" xlink:href="#DejaVuSans-32"/>
      <use x="832.03125" xlink:href="#DejaVuSans-118"/>
      <use x="891.210938" xlink:href="#DejaVuSans-97"/>
      <use x="952.490234" xlink:href="#DejaVuSans-114"/>
      <use x="993.603516" xlink:href="#DejaVuSans-105"/>
      <use x="1021.386719" xlink:href="#DejaVuSans-101"/>
      <use x="1082.910156" xlink:href="#DejaVuSans-115"/>
     </g>
    </g>
   </g>
  </g>
 </g>
 <defs>
  <clipPath id="pad0df38055">
   <rect height="217.44" width="334.8" x="54" y="34.56"/>
  </clipPath>
 </defs>
</svg>
