<?xml version="1.0" encoding="utf-8" standalone="no"?>
<!DOCTYPE svg PUBLIC "-//W3C//DTD SVG 1.1//EN"
  "http://www.w3.org/Graphics/SVG/1.1/DTD/svg11.dtd">
<!-- Created with matplotlib (https://matplotlib.org/) -->
<svg height="288pt" version="1.1" viewBox="0 0 432 288" width="432pt" xmlns="http://www.w3.org/2000/svg" xmlns:xlink="http://www.w3.org/1999/xlink">
 <defs>
  <style type="text/css">
*{stroke-linecap:butt;stroke-linejoin:round;}
  </style>
 </defs>
 <g id="figure_1">
  <g id="patch_1">
   <path d="M 0 288 
L 432 288 
L 432 0 
L 0 0 
z
" style="fill:none;"/>
  </g>
  <g id="axes_1">
   <g id="patch_2">
    <path d="M 54 252 
L 388.8 252 
L 388.8 34.56 
L 54 34.56 
z
" style="fill:none;"/>
   </g>
   <g id="patch_3">
    <path clip-path="url(#pd99a211f71)" d="M -113.4 252 
L -105.03 252 
L -105.03 252 
L -113.4 252 
z
" style="fill:#1f77b4;"/>
   </g>
   <g id="patch_4">
    <path clip-path="url(#pd99a211f71)" d="M -105.03 252 
L -96.66 252 
L -96.66 252 
L -105.03 252 
z
" style="fill:#1f77b4;"/>
   </g>
   <g id="patch_5">
    <path clip-path="url(#pd99a211f71)" d="M -96.66 252 
L -88.29 252 
L -88.29 252 
L -96.66 252 
z
" style="fill:#1f77b4;"/>
   </g>
   <g id="patch_6">
    <path clip-path="url(#pd99a211f71)" d="M -88.29 252 
L -79.92 252 
L -79.92 252 
L -88.29 252 
z
" style="fill:#1f77b4;"/>
   </g>
   <g id="patch_7">
    <path clip-path="url(#pd99a211f71)" d="M -79.92 252 
L -71.55 252 
L -71.55 252 
L -79.92 252 
z
" style="fill:#1f77b4;"/>
   </g>
   <g id="patch_8">
    <path clip-path="url(#pd99a211f71)" d="M -71.55 252 
L -63.18 252 
L -63.18 252 
L -71.55 252 
z
" style="fill:#1f77b4;"/>
   </g>
   <g id="patch_9">
    <path clip-path="url(#pd99a211f71)" d="M -63.18 252 
L -54.81 252 
L -54.81 252 
L -63.18 252 
z
" style="fill:#1f77b4;"/>
   </g>
   <g id="patch_10">
    <path clip-path="url(#pd99a211f71)" d="M -54.81 252 
L -46.44 252 
L -46.44 252 
L -54.81 252 
z
" style="fill:#1f77b4;"/>
   </g>
   <g id="patch_11">
    <path clip-path="url(#pd99a211f71)" d="M -46.44 252 
L -38.07 252 
L -38.07 252 
L -46.44 252 
z
" style="fill:#1f77b4;"/>
   </g>
   <g id="patch_12">
    <path clip-path="url(#pd99a211f71)" d="M -38.07 252 
L -29.7 252 
L -29.7 252 
L -38.07 252 
z
" style="fill:#1f77b4;"/>
   </g>
   <g id="patch_13">
    <path clip-path="url(#pd99a211f71)" d="M -29.7 252 
L -21.33 252 
L -21.33 252 
L -29.7 252 
z
" style="fill:#1f77b4;"/>
   </g>
   <g id="patch_14">
    <path clip-path="url(#pd99a211f71)" d="M -21.33 252 
L -12.96 252 
L -12.96 252 
L -21.33 252 
z
" style="fill:#1f77b4;"/>
   </g>
   <g id="patch_15">
    <path clip-path="url(#pd99a211f71)" d="M -12.96 252 
L -4.59 252 
L -4.59 252 
L -12.96 252 
z
" style="fill:#1f77b4;"/>
   </g>
   <g id="patch_16">
    <path clip-path="url(#pd99a211f71)" d="M -4.59 252 
L 3.78 252 
L 3.78 252 
L -4.59 252 
z
" style="fill:#1f77b4;"/>
   </g>
   <g id="patch_17">
    <path clip-path="url(#pd99a211f71)" d="M 3.78 252 
L 12.15 252 
L 12.15 252 
L 3.78 252 
z
" style="fill:#1f77b4;"/>
   </g>
   <g id="patch_18">
    <path clip-path="url(#pd99a211f71)" d="M 12.15 252 
L 20.52 252 
L 20.52 252 
L 12.15 252 
z
" style="fill:#1f77b4;"/>
   </g>
   <g id="patch_19">
    <path clip-path="url(#pd99a211f71)" d="M 20.52 252 
L 28.89 252 
L 28.89 252 
L 20.52 252 
z
" style="fill:#1f77b4;"/>
   </g>
   <g id="patch_20">
    <path clip-path="url(#pd99a211f71)" d="M 28.89 252 
L 37.26 252 
L 37.26 252 
L 28.89 252 
z
" style="fill:#1f77b4;"/>
   </g>
   <g id="patch_21">
    <path clip-path="url(#pd99a211f71)" d="M 37.26 252 
L 45.63 252 
L 45.63 252 
L 37.26 252 
z
" style="fill:#1f77b4;"/>
   </g>
   <g id="patch_22">
    <path clip-path="url(#pd99a211f71)" d="M 45.63 252 
L 54 252 
L 54 252 
L 45.63 252 
z
" style="fill:#1f77b4;"/>
   </g>
   <g id="patch_23">
    <path clip-path="url(#pd99a211f71)" d="M 54 252 
L 62.37 252 
L 62.37 251.751696 
L 54 251.751696 
z
" style="fill:#1f77b4;"/>
   </g>
   <g id="patch_24">
    <path clip-path="url(#pd99a211f71)" d="M 62.37 252 
L 70.74 252 
L 70.74 252 
L 62.37 252 
z
" style="fill:#1f77b4;"/>
   </g>
   <g id="patch_25">
    <path clip-path="url(#pd99a211f71)" d="M 70.74 252 
L 79.11 252 
L 79.11 251.503392 
L 70.74 251.503392 
z
" style="fill:#1f77b4;"/>
   </g>
   <g id="patch_26">
    <path clip-path="url(#pd99a211f71)" d="M 79.11 252 
L 87.48 252 
L 87.48 251.751696 
L 79.11 251.751696 
z
" style="fill:#1f77b4;"/>
   </g>
   <g id="patch_27">
    <path clip-path="url(#pd99a211f71)" d="M 87.48 252 
L 95.85 252 
L 95.85 251.255087 
L 87.48 251.255087 
z
" style="fill:#1f77b4;"/>
   </g>
   <g id="patch_28">
    <path clip-path="url(#pd99a211f71)" d="M 95.85 252 
L 104.22 252 
L 104.22 250.758479 
L 95.85 250.758479 
z
" style="fill:#1f77b4;"/>
   </g>
   <g id="patch_29">
    <path clip-path="url(#pd99a211f71)" d="M 104.22 252 
L 112.59 252 
L 112.59 249.516958 
L 104.22 249.516958 
z
" style="fill:#1f77b4;"/>
   </g>
   <g id="patch_30">
    <path clip-path="url(#pd99a211f71)" d="M 112.59 252 
L 120.96 252 
L 120.96 246.785612 
L 112.59 246.785612 
z
" style="fill:#1f77b4;"/>
   </g>
   <g id="patch_31">
    <path clip-path="url(#pd99a211f71)" d="M 120.96 252 
L 129.33 252 
L 129.33 241.571223 
L 120.96 241.571223 
z
" style="fill:#1f77b4;"/>
   </g>
   <g id="patch_32">
    <path clip-path="url(#pd99a211f71)" d="M 129.33 252 
L 137.7 252 
L 137.7 233.377184 
L 129.33 233.377184 
z
" style="fill:#1f77b4;"/>
   </g>
   <g id="patch_33">
    <path clip-path="url(#pd99a211f71)" d="M 137.7 252 
L 146.07 252 
L 146.07 228.4111 
L 137.7 228.4111 
z
" style="fill:#1f77b4;"/>
   </g>
   <g id="patch_34">
    <path clip-path="url(#pd99a211f71)" d="M 146.07 252 
L 154.44 252 
L 154.44 219.472148 
L 146.07 219.472148 
z
" style="fill:#1f77b4;"/>
   </g>
   <g id="patch_35">
    <path clip-path="url(#pd99a211f71)" d="M 154.44 252 
L 162.81 252 
L 162.81 199.111202 
L 154.44 199.111202 
z
" style="fill:#1f77b4;"/>
   </g>
   <g id="patch_36">
    <path clip-path="url(#pd99a211f71)" d="M 162.81 252 
L 171.18 252 
L 171.18 179.246865 
L 162.81 179.246865 
z
" style="fill:#1f77b4;"/>
   </g>
   <g id="patch_37">
    <path clip-path="url(#pd99a211f71)" d="M 171.18 252 
L 179.55 252 
L 179.55 159.879137 
L 171.18 159.879137 
z
" style="fill:#1f77b4;"/>
   </g>
   <g id="patch_38">
    <path clip-path="url(#pd99a211f71)" d="M 179.55 252 
L 187.92 252 
L 187.92 129.834327 
L 179.55 129.834327 
z
" style="fill:#1f77b4;"/>
   </g>
   <g id="patch_39">
    <path clip-path="url(#pd99a211f71)" d="M 187.92 252 
L 196.29 252 
L 196.29 105.748818 
L 187.92 105.748818 
z
" style="fill:#1f77b4;"/>
   </g>
   <g id="patch_40">
    <path clip-path="url(#pd99a211f71)" d="M 196.29 252 
L 204.66 252 
L 204.66 82.656526 
L 196.29 82.656526 
z
" style="fill:#1f77b4;"/>
   </g>
   <g id="patch_41">
    <path clip-path="url(#pd99a211f71)" d="M 204.66 252 
L 213.03 252 
L 213.03 60.805755 
L 204.66 60.805755 
z
" style="fill:#1f77b4;"/>
   </g>
   <g id="patch_42">
    <path clip-path="url(#pd99a211f71)" d="M 213.03 252 
L 221.4 252 
L 221.4 47.149024 
L 213.03 47.149024 
z
" style="fill:#1f77b4;"/>
   </g>
   <g id="patch_43">
    <path clip-path="url(#pd99a211f71)" d="M 221.4 252 
L 229.77 252 
L 229.77 47.893936 
L 221.4 47.893936 
z
" style="fill:#1f77b4;"/>
   </g>
   <g id="patch_44">
    <path clip-path="url(#pd99a211f71)" d="M 229.77 252 
L 238.14 252 
L 238.14 58.819322 
L 229.77 58.819322 
z
" style="fill:#1f77b4;"/>
   </g>
   <g id="patch_45">
    <path clip-path="url(#pd99a211f71)" d="M 238.14 252 
L 246.51 252 
L 246.51 72.972662 
L 238.14 72.972662 
z
" style="fill:#1f77b4;"/>
   </g>
   <g id="patch_46">
    <path clip-path="url(#pd99a211f71)" d="M 246.51 252 
L 254.88 252 
L 254.88 81.663309 
L 246.51 81.663309 
z
" style="fill:#1f77b4;"/>
   </g>
   <g id="patch_47">
    <path clip-path="url(#pd99a211f71)" d="M 254.88 252 
L 263.25 252 
L 263.25 105.500514 
L 254.88 105.500514 
z
" style="fill:#1f77b4;"/>
   </g>
   <g id="patch_48">
    <path clip-path="url(#pd99a211f71)" d="M 263.25 252 
L 271.62 252 
L 271.62 134.055498 
L 263.25 134.055498 
z
" style="fill:#1f77b4;"/>
   </g>
   <g id="patch_49">
    <path clip-path="url(#pd99a211f71)" d="M 271.62 252 
L 279.99 252 
L 279.99 161.120658 
L 271.62 161.120658 
z
" style="fill:#1f77b4;"/>
   </g>
   <g id="patch_50">
    <path clip-path="url(#pd99a211f71)" d="M 279.99 252 
L 288.36 252 
L 288.36 178.750257 
L 279.99 178.750257 
z
" style="fill:#1f77b4;"/>
   </g>
   <g id="patch_51">
    <path clip-path="url(#pd99a211f71)" d="M 288.36 252 
L 296.73 252 
L 296.73 198.36629 
L 288.36 198.36629 
z
" style="fill:#1f77b4;"/>
   </g>
   <g id="patch_52">
    <path clip-path="url(#pd99a211f71)" d="M 296.73 252 
L 305.1 252 
L 305.1 213.016238 
L 296.73 213.016238 
z
" style="fill:#1f77b4;"/>
   </g>
   <g id="patch_53">
    <path clip-path="url(#pd99a211f71)" d="M 305.1 252 
L 313.47 252 
L 313.47 225.183145 
L 305.1 225.183145 
z
" style="fill:#1f77b4;"/>
   </g>
   <g id="patch_54">
    <path clip-path="url(#pd99a211f71)" d="M 313.47 252 
L 321.84 252 
L 321.84 234.122097 
L 313.47 234.122097 
z
" style="fill:#1f77b4;"/>
   </g>
   <g id="patch_55">
    <path clip-path="url(#pd99a211f71)" d="M 321.84 252 
L 330.21 252 
L 330.21 239.336485 
L 321.84 239.336485 
z
" style="fill:#1f77b4;"/>
   </g>
   <g id="patch_56">
    <path clip-path="url(#pd99a211f71)" d="M 330.21 252 
L 338.58 252 
L 338.58 247.778828 
L 330.21 247.778828 
z
" style="fill:#1f77b4;"/>
   </g>
   <g id="patch_57">
    <path clip-path="url(#pd99a211f71)" d="M 338.58 252 
L 346.95 252 
L 346.95 248.772045 
L 338.58 248.772045 
z
" style="fill:#1f77b4;"/>
   </g>
   <g id="patch_58">
    <path clip-path="url(#pd99a211f71)" d="M 346.95 252 
L 355.32 252 
L 355.32 250.758479 
L 346.95 250.758479 
z
" style="fill:#1f77b4;"/>
   </g>
   <g id="patch_59">
    <path clip-path="url(#pd99a211f71)" d="M 355.32 252 
L 363.69 252 
L 363.69 251.503392 
L 355.32 251.503392 
z
" style="fill:#1f77b4;"/>
   </g>
   <g id="patch_60">
    <path clip-path="url(#pd99a211f71)" d="M 363.69 252 
L 372.06 252 
L 372.06 250.758479 
L 363.69 250.758479 
z
" style="fill:#1f77b4;"/>
   </g>
   <g id="patch_61">
    <path clip-path="url(#pd99a211f71)" d="M 372.06 252 
L 380.43 252 
L 380.43 252 
L 372.06 252 
z
" style="fill:#1f77b4;"/>
   </g>
   <g id="patch_62">
    <path clip-path="url(#pd99a211f71)" d="M 380.43 252 
L 388.8 252 
L 388.8 252 
L 380.43 252 
z
" style="fill:#1f77b4;"/>
   </g>
   <g id="patch_63">
    <path clip-path="url(#pd99a211f71)" d="M 388.8 252 
L 397.17 252 
L 397.17 252 
L 388.8 252 
z
" style="fill:#1f77b4;"/>
   </g>
   <g id="patch_64">
    <path clip-path="url(#pd99a211f71)" d="M 397.17 252 
L 405.54 252 
L 405.54 252 
L 397.17 252 
z
" style="fill:#1f77b4;"/>
   </g>
   <g id="patch_65">
    <path clip-path="url(#pd99a211f71)" d="M 405.54 252 
L 413.91 252 
L 413.91 252 
L 405.54 252 
z
" style="fill:#1f77b4;"/>
   </g>
   <g id="patch_66">
    <path clip-path="url(#pd99a211f71)" d="M 413.91 252 
L 422.28 252 
L 422.28 252 
L 413.91 252 
z
" style="fill:#1f77b4;"/>
   </g>
   <g id="patch_67">
    <path clip-path="url(#pd99a211f71)" d="M 422.28 252 
L 430.65 252 
L 430.65 252 
L 422.28 252 
z
" style="fill:#1f77b4;"/>
   </g>
   <g id="patch_68">
    <path clip-path="url(#pd99a211f71)" d="M 430.65 252 
L 439.02 252 
L 439.02 252 
L 430.65 252 
z
" style="fill:#1f77b4;"/>
   </g>
   <g id="patch_69">
    <path clip-path="url(#pd99a211f71)" d="M 439.02 252 
L 447.39 252 
L 447.39 252 
L 439.02 252 
z
" style="fill:#1f77b4;"/>
   </g>
   <g id="patch_70">
    <path clip-path="url(#pd99a211f71)" d="M 447.39 252 
L 455.76 252 
L 455.76 252 
L 447.39 252 
z
" style="fill:#1f77b4;"/>
   </g>
   <g id="patch_71">
    <path clip-path="url(#pd99a211f71)" d="M 455.76 252 
L 464.13 252 
L 464.13 252 
L 455.76 252 
z
" style="fill:#1f77b4;"/>
   </g>
   <g id="patch_72">
    <path clip-path="url(#pd99a211f71)" d="M 464.13 252 
L 472.5 252 
L 472.5 252 
L 464.13 252 
z
" style="fill:#1f77b4;"/>
   </g>
   <g id="patch_73">
    <path clip-path="url(#pd99a211f71)" d="M 472.5 252 
L 480.87 252 
L 480.87 252 
L 472.5 252 
z
" style="fill:#1f77b4;"/>
   </g>
   <g id="patch_74">
    <path clip-path="url(#pd99a211f71)" d="M 480.87 252 
L 489.24 252 
L 489.24 252 
L 480.87 252 
z
" style="fill:#1f77b4;"/>
   </g>
   <g id="patch_75">
    <path clip-path="url(#pd99a211f71)" d="M 489.24 252 
L 497.61 252 
L 497.61 252 
L 489.24 252 
z
" style="fill:#1f77b4;"/>
   </g>
   <g id="patch_76">
    <path clip-path="url(#pd99a211f71)" d="M 497.61 252 
L 505.98 252 
L 505.98 252 
L 497.61 252 
z
" style="fill:#1f77b4;"/>
   </g>
   <g id="patch_77">
    <path clip-path="url(#pd99a211f71)" d="M 505.98 252 
L 514.35 252 
L 514.35 252 
L 505.98 252 
z
" style="fill:#1f77b4;"/>
   </g>
   <g id="patch_78">
    <path clip-path="url(#pd99a211f71)" d="M 514.35 252 
L 522.72 252 
L 522.72 252 
L 514.35 252 
z
" style="fill:#1f77b4;"/>
   </g>
   <g id="patch_79">
    <path clip-path="url(#pd99a211f71)" d="M 522.72 252 
L 531.09 252 
L 531.09 252 
L 522.72 252 
z
" style="fill:#1f77b4;"/>
   </g>
   <g id="patch_80">
    <path clip-path="url(#pd99a211f71)" d="M 531.09 252 
L 539.46 252 
L 539.46 252 
L 531.09 252 
z
" style="fill:#1f77b4;"/>
   </g>
   <g id="patch_81">
    <path clip-path="url(#pd99a211f71)" d="M 539.46 252 
L 547.83 252 
L 547.83 252 
L 539.46 252 
z
" style="fill:#1f77b4;"/>
   </g>
   <g id="patch_82">
    <path clip-path="url(#pd99a211f71)" d="M 547.83 252 
L 556.2 252 
L 556.2 252 
L 547.83 252 
z
" style="fill:#1f77b4;"/>
   </g>
   <g id="patch_83">
    <path clip-path="url(#pd99a211f71)" d="M 556.2 252 
L 564.57 252 
L 564.57 252 
L 556.2 252 
z
" style="fill:#1f77b4;"/>
   </g>
   <g id="patch_84">
    <path clip-path="url(#pd99a211f71)" d="M 564.57 252 
L 572.94 252 
L 572.94 252 
L 564.57 252 
z
" style="fill:#1f77b4;"/>
   </g>
   <g id="patch_85">
    <path clip-path="url(#pd99a211f71)" d="M 572.94 252 
L 581.31 252 
L 581.31 252 
L 572.94 252 
z
" style="fill:#1f77b4;"/>
   </g>
   <g id="patch_86">
    <path clip-path="url(#pd99a211f71)" d="M 581.31 252 
L 589.68 252 
L 589.68 252 
L 581.31 252 
z
" style="fill:#1f77b4;"/>
   </g>
   <g id="patch_87">
    <path clip-path="url(#pd99a211f71)" d="M 589.68 252 
L 598.05 252 
L 598.05 252 
L 589.68 252 
z
" style="fill:#1f77b4;"/>
   </g>
   <g id="patch_88">
    <path clip-path="url(#pd99a211f71)" d="M 598.05 252 
L 606.42 252 
L 606.42 252 
L 598.05 252 
z
" style="fill:#1f77b4;"/>
   </g>
   <g id="patch_89">
    <path clip-path="url(#pd99a211f71)" d="M 606.42 252 
L 614.79 252 
L 614.79 252 
L 606.42 252 
z
" style="fill:#1f77b4;"/>
   </g>
   <g id="patch_90">
    <path clip-path="url(#pd99a211f71)" d="M 614.79 252 
L 623.16 252 
L 623.16 252 
L 614.79 252 
z
" style="fill:#1f77b4;"/>
   </g>
   <g id="patch_91">
    <path clip-path="url(#pd99a211f71)" d="M 623.16 252 
L 631.53 252 
L 631.53 252 
L 623.16 252 
z
" style="fill:#1f77b4;"/>
   </g>
   <g id="patch_92">
    <path clip-path="url(#pd99a211f71)" d="M 631.53 252 
L 639.9 252 
L 639.9 252 
L 631.53 252 
z
" style="fill:#1f77b4;"/>
   </g>
   <g id="patch_93">
    <path clip-path="url(#pd99a211f71)" d="M 639.9 252 
L 648.27 252 
L 648.27 252 
L 639.9 252 
z
" style="fill:#1f77b4;"/>
   </g>
   <g id="patch_94">
    <path clip-path="url(#pd99a211f71)" d="M 648.27 252 
L 656.64 252 
L 656.64 252 
L 648.27 252 
z
" style="fill:#1f77b4;"/>
   </g>
   <g id="patch_95">
    <path clip-path="url(#pd99a211f71)" d="M 656.64 252 
L 665.01 252 
L 665.01 252 
L 656.64 252 
z
" style="fill:#1f77b4;"/>
   </g>
   <g id="patch_96">
    <path clip-path="url(#pd99a211f71)" d="M 665.01 252 
L 673.38 252 
L 673.38 252 
L 665.01 252 
z
" style="fill:#1f77b4;"/>
   </g>
   <g id="patch_97">
    <path clip-path="url(#pd99a211f71)" d="M 673.38 252 
L 681.75 252 
L 681.75 252 
L 673.38 252 
z
" style="fill:#1f77b4;"/>
   </g>
   <g id="patch_98">
    <path clip-path="url(#pd99a211f71)" d="M 681.75 252 
L 690.12 252 
L 690.12 252 
L 681.75 252 
z
" style="fill:#1f77b4;"/>
   </g>
   <g id="patch_99">
    <path clip-path="url(#pd99a211f71)" d="M 690.12 252 
L 698.49 252 
L 698.49 252 
L 690.12 252 
z
" style="fill:#1f77b4;"/>
   </g>
   <g id="patch_100">
    <path clip-path="url(#pd99a211f71)" d="M 698.49 252 
L 706.86 252 
L 706.86 252 
L 698.49 252 
z
" style="fill:#1f77b4;"/>
   </g>
   <g id="patch_101">
    <path clip-path="url(#pd99a211f71)" d="M 706.86 252 
L 715.23 252 
L 715.23 252 
L 706.86 252 
z
" style="fill:#1f77b4;"/>
   </g>
   <g id="patch_102">
    <path clip-path="url(#pd99a211f71)" d="M 715.23 252 
L 723.6 252 
L 723.6 252 
L 715.23 252 
z
" style="fill:#1f77b4;"/>
   </g>
   <g id="patch_103">
    <path clip-path="url(#pd99a211f71)" d="M 723.6 252 
L 731.97 252 
L 731.97 252 
L 723.6 252 
z
" style="fill:#1f77b4;"/>
   </g>
   <g id="matplotlib.axis_1">
    <g id="xtick_1">
     <g id="line2d_1">
      <defs>
       <path d="M 0 0 
L 0 3.5 
" id="m8af447a74e" style="stroke:#000000;stroke-width:0.8;"/>
      </defs>
      <g>
       <use style="stroke:#000000;stroke-width:0.8;" x="58.185" xlink:href="#m8af447a74e" y="252"/>
      </g>
     </g>
     <g id="text_1">
      <!-- 20 -->
      <defs>
       <path d="M 19.1875 8.296875 
L 53.609375 8.296875 
L 53.609375 0 
L 7.328125 0 
L 7.328125 8.296875 
Q 12.9375 14.109375 22.625 23.890625 
Q 32.328125 33.6875 34.8125 36.53125 
Q 39.546875 41.84375 41.421875 45.53125 
Q 43.3125 49.21875 43.3125 52.78125 
Q 43.3125 58.59375 39.234375 62.25 
Q 35.15625 65.921875 28.609375 65.921875 
Q 23.96875 65.921875 18.8125 64.3125 
Q 13.671875 62.703125 7.8125 59.421875 
L 7.8125 69.390625 
Q 13.765625 71.78125 18.9375 73 
Q 24.125 74.21875 28.421875 74.21875 
Q 39.75 74.21875 46.484375 68.546875 
Q 53.21875 62.890625 53.21875 53.421875 
Q 53.21875 48.921875 51.53125 44.890625 
Q 49.859375 40.875 45.40625 35.40625 
Q 44.1875 33.984375 37.640625 27.21875 
Q 31.109375 20.453125 19.1875 8.296875 
z
" id="DejaVuSans-50"/>
       <path d="M 31.78125 66.40625 
Q 24.171875 66.40625 20.328125 58.90625 
Q 16.5 51.421875 16.5 36.375 
Q 16.5 21.390625 20.328125 13.890625 
Q 24.171875 6.390625 31.78125 6.390625 
Q 39.453125 6.390625 43.28125 13.890625 
Q 47.125 21.390625 47.125 36.375 
Q 47.125 51.421875 43.28125 58.90625 
Q 39.453125 66.40625 31.78125 66.40625 
z
M 31.78125 74.21875 
Q 44.046875 74.21875 50.515625 64.515625 
Q 56.984375 54.828125 56.984375 36.375 
Q 56.984375 17.96875 50.515625 8.265625 
Q 44.046875 -1.421875 31.78125 -1.421875 
Q 19.53125 -1.421875 13.0625 8.265625 
Q 6.59375 17.96875 6.59375 36.375 
Q 6.59375 54.828125 13.0625 64.515625 
Q 19.53125 74.21875 31.78125 74.21875 
z
" id="DejaVuSans-48"/>
      </defs>
      <g transform="translate(51.8225 266.598437)scale(0.1 -0.1)">
       <use xlink:href="#DejaVuSans-50"/>
       <use x="63.623047" xlink:href="#DejaVuSans-48"/>
      </g>
     </g>
    </g>
    <g id="xtick_2">
     <g id="line2d_2">
      <g>
       <use style="stroke:#000000;stroke-width:0.8;" x="100.035" xlink:href="#m8af447a74e" y="252"/>
      </g>
     </g>
     <g id="text_2">
      <!-- 25 -->
      <defs>
       <path d="M 10.796875 72.90625 
L 49.515625 72.90625 
L 49.515625 64.59375 
L 19.828125 64.59375 
L 19.828125 46.734375 
Q 21.96875 47.46875 24.109375 47.828125 
Q 26.265625 48.1875 28.421875 48.1875 
Q 40.625 48.1875 47.75 41.5 
Q 54.890625 34.8125 54.890625 23.390625 
Q 54.890625 11.625 47.5625 5.09375 
Q 40.234375 -1.421875 26.90625 -1.421875 
Q 22.3125 -1.421875 17.546875 -0.640625 
Q 12.796875 0.140625 7.71875 1.703125 
L 7.71875 11.625 
Q 12.109375 9.234375 16.796875 8.0625 
Q 21.484375 6.890625 26.703125 6.890625 
Q 35.15625 6.890625 40.078125 11.328125 
Q 45.015625 15.765625 45.015625 23.390625 
Q 45.015625 31 40.078125 35.4375 
Q 35.15625 39.890625 26.703125 39.890625 
Q 22.75 39.890625 18.8125 39.015625 
Q 14.890625 38.140625 10.796875 36.28125 
z
" id="DejaVuSans-53"/>
      </defs>
      <g transform="translate(93.6725 266.598437)scale(0.1 -0.1)">
       <use xlink:href="#DejaVuSans-50"/>
       <use x="63.623047" xlink:href="#DejaVuSans-53"/>
      </g>
     </g>
    </g>
    <g id="xtick_3">
     <g id="line2d_3">
      <g>
       <use style="stroke:#000000;stroke-width:0.8;" x="141.885" xlink:href="#m8af447a74e" y="252"/>
      </g>
     </g>
     <g id="text_3">
      <!-- 30 -->
      <defs>
       <path d="M 40.578125 39.3125 
Q 47.65625 37.796875 51.625 33 
Q 55.609375 28.21875 55.609375 21.1875 
Q 55.609375 10.40625 48.1875 4.484375 
Q 40.765625 -1.421875 27.09375 -1.421875 
Q 22.515625 -1.421875 17.65625 -0.515625 
Q 12.796875 0.390625 7.625 2.203125 
L 7.625 11.71875 
Q 11.71875 9.328125 16.59375 8.109375 
Q 21.484375 6.890625 26.8125 6.890625 
Q 36.078125 6.890625 40.9375 10.546875 
Q 45.796875 14.203125 45.796875 21.1875 
Q 45.796875 27.640625 41.28125 31.265625 
Q 36.765625 34.90625 28.71875 34.90625 
L 20.21875 34.90625 
L 20.21875 43.015625 
L 29.109375 43.015625 
Q 36.375 43.015625 40.234375 45.921875 
Q 44.09375 48.828125 44.09375 54.296875 
Q 44.09375 59.90625 40.109375 62.90625 
Q 36.140625 65.921875 28.71875 65.921875 
Q 24.65625 65.921875 20.015625 65.03125 
Q 15.375 64.15625 9.8125 62.3125 
L 9.8125 71.09375 
Q 15.4375 72.65625 20.34375 73.4375 
Q 25.25 74.21875 29.59375 74.21875 
Q 40.828125 74.21875 47.359375 69.109375 
Q 53.90625 64.015625 53.90625 55.328125 
Q 53.90625 49.265625 50.4375 45.09375 
Q 46.96875 40.921875 40.578125 39.3125 
z
" id="DejaVuSans-51"/>
      </defs>
      <g transform="translate(135.5225 266.598437)scale(0.1 -0.1)">
       <use xlink:href="#DejaVuSans-51"/>
       <use x="63.623047" xlink:href="#DejaVuSans-48"/>
      </g>
     </g>
    </g>
    <g id="xtick_4">
     <g id="line2d_4">
      <g>
       <use style="stroke:#000000;stroke-width:0.8;" x="183.735" xlink:href="#m8af447a74e" y="252"/>
      </g>
     </g>
     <g id="text_4">
      <!-- 35 -->
      <g transform="translate(177.3725 266.598437)scale(0.1 -0.1)">
       <use xlink:href="#DejaVuSans-51"/>
       <use x="63.623047" xlink:href="#DejaVuSans-53"/>
      </g>
     </g>
    </g>
    <g id="xtick_5">
     <g id="line2d_5">
      <g>
       <use style="stroke:#000000;stroke-width:0.8;" x="225.585" xlink:href="#m8af447a74e" y="252"/>
      </g>
     </g>
     <g id="text_5">
      <!-- 40 -->
      <defs>
       <path d="M 37.796875 64.3125 
L 12.890625 25.390625 
L 37.796875 25.390625 
z
M 35.203125 72.90625 
L 47.609375 72.90625 
L 47.609375 25.390625 
L 58.015625 25.390625 
L 58.015625 17.1875 
L 47.609375 17.1875 
L 47.609375 0 
L 37.796875 0 
L 37.796875 17.1875 
L 4.890625 17.1875 
L 4.890625 26.703125 
z
" id="DejaVuSans-52"/>
      </defs>
      <g transform="translate(219.2225 266.598437)scale(0.1 -0.1)">
       <use xlink:href="#DejaVuSans-52"/>
       <use x="63.623047" xlink:href="#DejaVuSans-48"/>
      </g>
     </g>
    </g>
    <g id="xtick_6">
     <g id="line2d_6">
      <g>
       <use style="stroke:#000000;stroke-width:0.8;" x="267.435" xlink:href="#m8af447a74e" y="252"/>
      </g>
     </g>
     <g id="text_6">
      <!-- 45 -->
      <g transform="translate(261.0725 266.598437)scale(0.1 -0.1)">
       <use xlink:href="#DejaVuSans-52"/>
       <use x="63.623047" xlink:href="#DejaVuSans-53"/>
      </g>
     </g>
    </g>
    <g id="xtick_7">
     <g id="line2d_7">
      <g>
       <use style="stroke:#000000;stroke-width:0.8;" x="309.285" xlink:href="#m8af447a74e" y="252"/>
      </g>
     </g>
     <g id="text_7">
      <!-- 50 -->
      <g transform="translate(302.9225 266.598437)scale(0.1 -0.1)">
       <use xlink:href="#DejaVuSans-53"/>
       <use x="63.623047" xlink:href="#DejaVuSans-48"/>
      </g>
     </g>
    </g>
    <g id="xtick_8">
     <g id="line2d_8">
      <g>
       <use style="stroke:#000000;stroke-width:0.8;" x="351.135" xlink:href="#m8af447a74e" y="252"/>
      </g>
     </g>
     <g id="text_8">
      <!-- 55 -->
      <g transform="translate(344.7725 266.598437)scale(0.1 -0.1)">
       <use xlink:href="#DejaVuSans-53"/>
       <use x="63.623047" xlink:href="#DejaVuSans-53"/>
      </g>
     </g>
    </g>
    <g id="text_9">
     <!-- # heads in experiment -->
     <defs>
      <path d="M 51.125 44 
L 36.921875 44 
L 32.8125 27.6875 
L 47.125 27.6875 
z
M 43.796875 71.78125 
L 38.71875 51.515625 
L 52.984375 51.515625 
L 58.109375 71.78125 
L 65.921875 71.78125 
L 60.890625 51.515625 
L 76.125 51.515625 
L 76.125 44 
L 58.984375 44 
L 54.984375 27.6875 
L 70.515625 27.6875 
L 70.515625 20.21875 
L 53.078125 20.21875 
L 48 0 
L 40.1875 0 
L 45.21875 20.21875 
L 30.90625 20.21875 
L 25.875 0 
L 18.015625 0 
L 23.09375 20.21875 
L 7.71875 20.21875 
L 7.71875 27.6875 
L 24.90625 27.6875 
L 29 44 
L 13.28125 44 
L 13.28125 51.515625 
L 30.90625 51.515625 
L 35.890625 71.78125 
z
" id="DejaVuSans-35"/>
      <path id="DejaVuSans-32"/>
      <path d="M 54.890625 33.015625 
L 54.890625 0 
L 45.90625 0 
L 45.90625 32.71875 
Q 45.90625 40.484375 42.875 44.328125 
Q 39.84375 48.1875 33.796875 48.1875 
Q 26.515625 48.1875 22.3125 43.546875 
Q 18.109375 38.921875 18.109375 30.90625 
L 18.109375 0 
L 9.078125 0 
L 9.078125 75.984375 
L 18.109375 75.984375 
L 18.109375 46.1875 
Q 21.34375 51.125 25.703125 53.5625 
Q 30.078125 56 35.796875 56 
Q 45.21875 56 50.046875 50.171875 
Q 54.890625 44.34375 54.890625 33.015625 
z
" id="DejaVuSans-104"/>
      <path d="M 56.203125 29.59375 
L 56.203125 25.203125 
L 14.890625 25.203125 
Q 15.484375 15.921875 20.484375 11.0625 
Q 25.484375 6.203125 34.421875 6.203125 
Q 39.59375 6.203125 44.453125 7.46875 
Q 49.3125 8.734375 54.109375 11.28125 
L 54.109375 2.78125 
Q 49.265625 0.734375 44.1875 -0.34375 
Q 39.109375 -1.421875 33.890625 -1.421875 
Q 20.796875 -1.421875 13.15625 6.1875 
Q 5.515625 13.8125 5.515625 26.8125 
Q 5.515625 40.234375 12.765625 48.109375 
Q 20.015625 56 32.328125 56 
Q 43.359375 56 49.78125 48.890625 
Q 56.203125 41.796875 56.203125 29.59375 
z
M 47.21875 32.234375 
Q 47.125 39.59375 43.09375 43.984375 
Q 39.0625 48.390625 32.421875 48.390625 
Q 24.90625 48.390625 20.390625 44.140625 
Q 15.875 39.890625 15.1875 32.171875 
z
" id="DejaVuSans-101"/>
      <path d="M 34.28125 27.484375 
Q 23.390625 27.484375 19.1875 25 
Q 14.984375 22.515625 14.984375 16.5 
Q 14.984375 11.71875 18.140625 8.90625 
Q 21.296875 6.109375 26.703125 6.109375 
Q 34.1875 6.109375 38.703125 11.40625 
Q 43.21875 16.703125 43.21875 25.484375 
L 43.21875 27.484375 
z
M 52.203125 31.203125 
L 52.203125 0 
L 43.21875 0 
L 43.21875 8.296875 
Q 40.140625 3.328125 35.546875 0.953125 
Q 30.953125 -1.421875 24.3125 -1.421875 
Q 15.921875 -1.421875 10.953125 3.296875 
Q 6 8.015625 6 15.921875 
Q 6 25.140625 12.171875 29.828125 
Q 18.359375 34.515625 30.609375 34.515625 
L 43.21875 34.515625 
L 43.21875 35.40625 
Q 43.21875 41.609375 39.140625 45 
Q 35.0625 48.390625 27.6875 48.390625 
Q 23 48.390625 18.546875 47.265625 
Q 14.109375 46.140625 10.015625 43.890625 
L 10.015625 52.203125 
Q 14.9375 54.109375 19.578125 55.046875 
Q 24.21875 56 28.609375 56 
Q 40.484375 56 46.34375 49.84375 
Q 52.203125 43.703125 52.203125 31.203125 
z
" id="DejaVuSans-97"/>
      <path d="M 45.40625 46.390625 
L 45.40625 75.984375 
L 54.390625 75.984375 
L 54.390625 0 
L 45.40625 0 
L 45.40625 8.203125 
Q 42.578125 3.328125 38.25 0.953125 
Q 33.9375 -1.421875 27.875 -1.421875 
Q 17.96875 -1.421875 11.734375 6.484375 
Q 5.515625 14.40625 5.515625 27.296875 
Q 5.515625 40.1875 11.734375 48.09375 
Q 17.96875 56 27.875 56 
Q 33.9375 56 38.25 53.625 
Q 42.578125 51.265625 45.40625 46.390625 
z
M 14.796875 27.296875 
Q 14.796875 17.390625 18.875 11.75 
Q 22.953125 6.109375 30.078125 6.109375 
Q 37.203125 6.109375 41.296875 11.75 
Q 45.40625 17.390625 45.40625 27.296875 
Q 45.40625 37.203125 41.296875 42.84375 
Q 37.203125 48.484375 30.078125 48.484375 
Q 22.953125 48.484375 18.875 42.84375 
Q 14.796875 37.203125 14.796875 27.296875 
z
" id="DejaVuSans-100"/>
      <path d="M 44.28125 53.078125 
L 44.28125 44.578125 
Q 40.484375 46.53125 36.375 47.5 
Q 32.28125 48.484375 27.875 48.484375 
Q 21.1875 48.484375 17.84375 46.4375 
Q 14.5 44.390625 14.5 40.28125 
Q 14.5 37.15625 16.890625 35.375 
Q 19.28125 33.59375 26.515625 31.984375 
L 29.59375 31.296875 
Q 39.15625 29.25 43.1875 25.515625 
Q 47.21875 21.78125 47.21875 15.09375 
Q 47.21875 7.46875 41.1875 3.015625 
Q 35.15625 -1.421875 24.609375 -1.421875 
Q 20.21875 -1.421875 15.453125 -0.5625 
Q 10.6875 0.296875 5.421875 2 
L 5.421875 11.28125 
Q 10.40625 8.6875 15.234375 7.390625 
Q 20.0625 6.109375 24.8125 6.109375 
Q 31.15625 6.109375 34.5625 8.28125 
Q 37.984375 10.453125 37.984375 14.40625 
Q 37.984375 18.0625 35.515625 20.015625 
Q 33.0625 21.96875 24.703125 23.78125 
L 21.578125 24.515625 
Q 13.234375 26.265625 9.515625 29.90625 
Q 5.8125 33.546875 5.8125 39.890625 
Q 5.8125 47.609375 11.28125 51.796875 
Q 16.75 56 26.8125 56 
Q 31.78125 56 36.171875 55.265625 
Q 40.578125 54.546875 44.28125 53.078125 
z
" id="DejaVuSans-115"/>
      <path d="M 9.421875 54.6875 
L 18.40625 54.6875 
L 18.40625 0 
L 9.421875 0 
z
M 9.421875 75.984375 
L 18.40625 75.984375 
L 18.40625 64.59375 
L 9.421875 64.59375 
z
" id="DejaVuSans-105"/>
      <path d="M 54.890625 33.015625 
L 54.890625 0 
L 45.90625 0 
L 45.90625 32.71875 
Q 45.90625 40.484375 42.875 44.328125 
Q 39.84375 48.1875 33.796875 48.1875 
Q 26.515625 48.1875 22.3125 43.546875 
Q 18.109375 38.921875 18.109375 30.90625 
L 18.109375 0 
L 9.078125 0 
L 9.078125 54.6875 
L 18.109375 54.6875 
L 18.109375 46.1875 
Q 21.34375 51.125 25.703125 53.5625 
Q 30.078125 56 35.796875 56 
Q 45.21875 56 50.046875 50.171875 
Q 54.890625 44.34375 54.890625 33.015625 
z
" id="DejaVuSans-110"/>
      <path d="M 54.890625 54.6875 
L 35.109375 28.078125 
L 55.90625 0 
L 45.3125 0 
L 29.390625 21.484375 
L 13.484375 0 
L 2.875 0 
L 24.125 28.609375 
L 4.6875 54.6875 
L 15.28125 54.6875 
L 29.78125 35.203125 
L 44.28125 54.6875 
z
" id="DejaVuSans-120"/>
      <path d="M 18.109375 8.203125 
L 18.109375 -20.796875 
L 9.078125 -20.796875 
L 9.078125 54.6875 
L 18.109375 54.6875 
L 18.109375 46.390625 
Q 20.953125 51.265625 25.265625 53.625 
Q 29.59375 56 35.59375 56 
Q 45.5625 56 51.78125 48.09375 
Q 58.015625 40.1875 58.015625 27.296875 
Q 58.015625 14.40625 51.78125 6.484375 
Q 45.5625 -1.421875 35.59375 -1.421875 
Q 29.59375 -1.421875 25.265625 0.953125 
Q 20.953125 3.328125 18.109375 8.203125 
z
M 48.6875 27.296875 
Q 48.6875 37.203125 44.609375 42.84375 
Q 40.53125 48.484375 33.40625 48.484375 
Q 26.265625 48.484375 22.1875 42.84375 
Q 18.109375 37.203125 18.109375 27.296875 
Q 18.109375 17.390625 22.1875 11.75 
Q 26.265625 6.109375 33.40625 6.109375 
Q 40.53125 6.109375 44.609375 11.75 
Q 48.6875 17.390625 48.6875 27.296875 
z
" id="DejaVuSans-112"/>
      <path d="M 41.109375 46.296875 
Q 39.59375 47.171875 37.8125 47.578125 
Q 36.03125 48 33.890625 48 
Q 26.265625 48 22.1875 43.046875 
Q 18.109375 38.09375 18.109375 28.8125 
L 18.109375 0 
L 9.078125 0 
L 9.078125 54.6875 
L 18.109375 54.6875 
L 18.109375 46.1875 
Q 20.953125 51.171875 25.484375 53.578125 
Q 30.03125 56 36.53125 56 
Q 37.453125 56 38.578125 55.875 
Q 39.703125 55.765625 41.0625 55.515625 
z
" id="DejaVuSans-114"/>
      <path d="M 52 44.1875 
Q 55.375 50.25 60.0625 53.125 
Q 64.75 56 71.09375 56 
Q 79.640625 56 84.28125 50.015625 
Q 88.921875 44.046875 88.921875 33.015625 
L 88.921875 0 
L 79.890625 0 
L 79.890625 32.71875 
Q 79.890625 40.578125 77.09375 44.375 
Q 74.3125 48.1875 68.609375 48.1875 
Q 61.625 48.1875 57.5625 43.546875 
Q 53.515625 38.921875 53.515625 30.90625 
L 53.515625 0 
L 44.484375 0 
L 44.484375 32.71875 
Q 44.484375 40.625 41.703125 44.40625 
Q 38.921875 48.1875 33.109375 48.1875 
Q 26.21875 48.1875 22.15625 43.53125 
Q 18.109375 38.875 18.109375 30.90625 
L 18.109375 0 
L 9.078125 0 
L 9.078125 54.6875 
L 18.109375 54.6875 
L 18.109375 46.1875 
Q 21.1875 51.21875 25.484375 53.609375 
Q 29.78125 56 35.6875 56 
Q 41.65625 56 45.828125 52.96875 
Q 50 49.953125 52 44.1875 
z
" id="DejaVuSans-109"/>
      <path d="M 18.3125 70.21875 
L 18.3125 54.6875 
L 36.8125 54.6875 
L 36.8125 47.703125 
L 18.3125 47.703125 
L 18.3125 18.015625 
Q 18.3125 11.328125 20.140625 9.421875 
Q 21.96875 7.515625 27.59375 7.515625 
L 36.8125 7.515625 
L 36.8125 0 
L 27.59375 0 
Q 17.1875 0 13.234375 3.875 
Q 9.28125 7.765625 9.28125 18.015625 
L 9.28125 47.703125 
L 2.6875 47.703125 
L 2.6875 54.6875 
L 9.28125 54.6875 
L 9.28125 70.21875 
z
" id="DejaVuSans-116"/>
     </defs>
     <g transform="translate(164.077344 280.276563)scale(0.1 -0.1)">
      <use xlink:href="#DejaVuSans-35"/>
      <use x="83.789062" xlink:href="#DejaVuSans-32"/>
      <use x="115.576172" xlink:href="#DejaVuSans-104"/>
      <use x="178.955078" xlink:href="#DejaVuSans-101"/>
      <use x="240.478516" xlink:href="#DejaVuSans-97"/>
      <use x="301.757812" xlink:href="#DejaVuSans-100"/>
      <use x="365.234375" xlink:href="#DejaVuSans-115"/>
      <use x="417.333984" xlink:href="#DejaVuSans-32"/>
      <use x="449.121094" xlink:href="#DejaVuSans-105"/>
      <use x="476.904297" xlink:href="#DejaVuSans-110"/>
      <use x="540.283203" xlink:href="#DejaVuSans-32"/>
      <use x="572.070312" xlink:href="#DejaVuSans-101"/>
      <use x="631.84375" xlink:href="#DejaVuSans-120"/>
      <use x="691.023438" xlink:href="#DejaVuSans-112"/>
      <use x="754.5" xlink:href="#DejaVuSans-101"/>
      <use x="816.023438" xlink:href="#DejaVuSans-114"/>
      <use x="857.136719" xlink:href="#DejaVuSans-105"/>
      <use x="884.919922" xlink:href="#DejaVuSans-109"/>
      <use x="982.332031" xlink:href="#DejaVuSans-101"/>
      <use x="1043.855469" xlink:href="#DejaVuSans-110"/>
      <use x="1107.234375" xlink:href="#DejaVuSans-116"/>
     </g>
    </g>
   </g>
   <g id="matplotlib.axis_2">
    <g id="ytick_1">
     <g id="line2d_9">
      <path clip-path="url(#pd99a211f71)" d="M 54 252 
L 388.8 252 
" style="fill:none;stroke:#000000;stroke-linecap:square;stroke-width:0.8;"/>
     </g>
     <g id="line2d_10">
      <defs>
       <path d="M 0 0 
L -3.5 0 
" id="mea6a658116" style="stroke:#000000;stroke-width:0.8;"/>
      </defs>
      <g>
       <use style="stroke:#000000;stroke-width:0.8;" x="54" xlink:href="#mea6a658116" y="252"/>
      </g>
     </g>
     <g id="text_10">
      <!-- 0.00 -->
      <defs>
       <path d="M 10.6875 12.40625 
L 21 12.40625 
L 21 0 
L 10.6875 0 
z
" id="DejaVuSans-46"/>
      </defs>
      <g transform="translate(24.734375 255.799219)scale(0.1 -0.1)">
       <use xlink:href="#DejaVuSans-48"/>
       <use x="63.623047" xlink:href="#DejaVuSans-46"/>
       <use x="95.410156" xlink:href="#DejaVuSans-48"/>
       <use x="159.033203" xlink:href="#DejaVuSans-48"/>
      </g>
     </g>
    </g>
    <g id="ytick_2">
     <g id="line2d_11">
      <path clip-path="url(#pd99a211f71)" d="M 54 227.169579 
L 388.8 227.169579 
" style="fill:none;stroke:#000000;stroke-linecap:square;stroke-width:0.8;"/>
     </g>
     <g id="line2d_12">
      <g>
       <use style="stroke:#000000;stroke-width:0.8;" x="54" xlink:href="#mea6a658116" y="227.169579"/>
      </g>
     </g>
     <g id="text_11">
      <!-- 0.01 -->
      <defs>
       <path d="M 12.40625 8.296875 
L 28.515625 8.296875 
L 28.515625 63.921875 
L 10.984375 60.40625 
L 10.984375 69.390625 
L 28.421875 72.90625 
L 38.28125 72.90625 
L 38.28125 8.296875 
L 54.390625 8.296875 
L 54.390625 0 
L 12.40625 0 
z
" id="DejaVuSans-49"/>
      </defs>
      <g transform="translate(24.734375 230.968797)scale(0.1 -0.1)">
       <use xlink:href="#DejaVuSans-48"/>
       <use x="63.623047" xlink:href="#DejaVuSans-46"/>
       <use x="95.410156" xlink:href="#DejaVuSans-48"/>
       <use x="159.033203" xlink:href="#DejaVuSans-49"/>
      </g>
     </g>
    </g>
    <g id="ytick_3">
     <g id="line2d_13">
      <path clip-path="url(#pd99a211f71)" d="M 54 202.339157 
L 388.8 202.339157 
" style="fill:none;stroke:#000000;stroke-linecap:square;stroke-width:0.8;"/>
     </g>
     <g id="line2d_14">
      <g>
       <use style="stroke:#000000;stroke-width:0.8;" x="54" xlink:href="#mea6a658116" y="202.339157"/>
      </g>
     </g>
     <g id="text_12">
      <!-- 0.02 -->
      <g transform="translate(24.734375 206.138376)scale(0.1 -0.1)">
       <use xlink:href="#DejaVuSans-48"/>
       <use x="63.623047" xlink:href="#DejaVuSans-46"/>
       <use x="95.410156" xlink:href="#DejaVuSans-48"/>
       <use x="159.033203" xlink:href="#DejaVuSans-50"/>
      </g>
     </g>
    </g>
    <g id="ytick_4">
     <g id="line2d_15">
      <path clip-path="url(#pd99a211f71)" d="M 54 177.508736 
L 388.8 177.508736 
" style="fill:none;stroke:#000000;stroke-linecap:square;stroke-width:0.8;"/>
     </g>
     <g id="line2d_16">
      <g>
       <use style="stroke:#000000;stroke-width:0.8;" x="54" xlink:href="#mea6a658116" y="177.508736"/>
      </g>
     </g>
     <g id="text_13">
      <!-- 0.03 -->
      <g transform="translate(24.734375 181.307955)scale(0.1 -0.1)">
       <use xlink:href="#DejaVuSans-48"/>
       <use x="63.623047" xlink:href="#DejaVuSans-46"/>
       <use x="95.410156" xlink:href="#DejaVuSans-48"/>
       <use x="159.033203" xlink:href="#DejaVuSans-51"/>
      </g>
     </g>
    </g>
    <g id="ytick_5">
     <g id="line2d_17">
      <path clip-path="url(#pd99a211f71)" d="M 54 152.678314 
L 388.8 152.678314 
" style="fill:none;stroke:#000000;stroke-linecap:square;stroke-width:0.8;"/>
     </g>
     <g id="line2d_18">
      <g>
       <use style="stroke:#000000;stroke-width:0.8;" x="54" xlink:href="#mea6a658116" y="152.678314"/>
      </g>
     </g>
     <g id="text_14">
      <!-- 0.04 -->
      <g transform="translate(24.734375 156.477533)scale(0.1 -0.1)">
       <use xlink:href="#DejaVuSans-48"/>
       <use x="63.623047" xlink:href="#DejaVuSans-46"/>
       <use x="95.410156" xlink:href="#DejaVuSans-48"/>
       <use x="159.033203" xlink:href="#DejaVuSans-52"/>
      </g>
     </g>
    </g>
    <g id="ytick_6">
     <g id="line2d_19">
      <path clip-path="url(#pd99a211f71)" d="M 54 127.847893 
L 388.8 127.847893 
" style="fill:none;stroke:#000000;stroke-linecap:square;stroke-width:0.8;"/>
     </g>
     <g id="line2d_20">
      <g>
       <use style="stroke:#000000;stroke-width:0.8;" x="54" xlink:href="#mea6a658116" y="127.847893"/>
      </g>
     </g>
     <g id="text_15">
      <!-- 0.05 -->
      <g transform="translate(24.734375 131.647112)scale(0.1 -0.1)">
       <use xlink:href="#DejaVuSans-48"/>
       <use x="63.623047" xlink:href="#DejaVuSans-46"/>
       <use x="95.410156" xlink:href="#DejaVuSans-48"/>
       <use x="159.033203" xlink:href="#DejaVuSans-53"/>
      </g>
     </g>
    </g>
    <g id="ytick_7">
     <g id="line2d_21">
      <path clip-path="url(#pd99a211f71)" d="M 54 103.017472 
L 388.8 103.017472 
" style="fill:none;stroke:#000000;stroke-linecap:square;stroke-width:0.8;"/>
     </g>
     <g id="line2d_22">
      <g>
       <use style="stroke:#000000;stroke-width:0.8;" x="54" xlink:href="#mea6a658116" y="103.017472"/>
      </g>
     </g>
     <g id="text_16">
      <!-- 0.06 -->
      <defs>
       <path d="M 33.015625 40.375 
Q 26.375 40.375 22.484375 35.828125 
Q 18.609375 31.296875 18.609375 23.390625 
Q 18.609375 15.53125 22.484375 10.953125 
Q 26.375 6.390625 33.015625 6.390625 
Q 39.65625 6.390625 43.53125 10.953125 
Q 47.40625 15.53125 47.40625 23.390625 
Q 47.40625 31.296875 43.53125 35.828125 
Q 39.65625 40.375 33.015625 40.375 
z
M 52.59375 71.296875 
L 52.59375 62.3125 
Q 48.875 64.0625 45.09375 64.984375 
Q 41.3125 65.921875 37.59375 65.921875 
Q 27.828125 65.921875 22.671875 59.328125 
Q 17.53125 52.734375 16.796875 39.40625 
Q 19.671875 43.65625 24.015625 45.921875 
Q 28.375 48.1875 33.59375 48.1875 
Q 44.578125 48.1875 50.953125 41.515625 
Q 57.328125 34.859375 57.328125 23.390625 
Q 57.328125 12.15625 50.6875 5.359375 
Q 44.046875 -1.421875 33.015625 -1.421875 
Q 20.359375 -1.421875 13.671875 8.265625 
Q 6.984375 17.96875 6.984375 36.375 
Q 6.984375 53.65625 15.1875 63.9375 
Q 23.390625 74.21875 37.203125 74.21875 
Q 40.921875 74.21875 44.703125 73.484375 
Q 48.484375 72.75 52.59375 71.296875 
z
" id="DejaVuSans-54"/>
      </defs>
      <g transform="translate(24.734375 106.81669)scale(0.1 -0.1)">
       <use xlink:href="#DejaVuSans-48"/>
       <use x="63.623047" xlink:href="#DejaVuSans-46"/>
       <use x="95.410156" xlink:href="#DejaVuSans-48"/>
       <use x="159.033203" xlink:href="#DejaVuSans-54"/>
      </g>
     </g>
    </g>
    <g id="ytick_8">
     <g id="line2d_23">
      <path clip-path="url(#pd99a211f71)" d="M 54 78.18705 
L 388.8 78.18705 
" style="fill:none;stroke:#000000;stroke-linecap:square;stroke-width:0.8;"/>
     </g>
     <g id="line2d_24">
      <g>
       <use style="stroke:#000000;stroke-width:0.8;" x="54" xlink:href="#mea6a658116" y="78.18705"/>
      </g>
     </g>
     <g id="text_17">
      <!-- 0.07 -->
      <defs>
       <path d="M 8.203125 72.90625 
L 55.078125 72.90625 
L 55.078125 68.703125 
L 28.609375 0 
L 18.3125 0 
L 43.21875 64.59375 
L 8.203125 64.59375 
z
" id="DejaVuSans-55"/>
      </defs>
      <g transform="translate(24.734375 81.986269)scale(0.1 -0.1)">
       <use xlink:href="#DejaVuSans-48"/>
       <use x="63.623047" xlink:href="#DejaVuSans-46"/>
       <use x="95.410156" xlink:href="#DejaVuSans-48"/>
       <use x="159.033203" xlink:href="#DejaVuSans-55"/>
      </g>
     </g>
    </g>
    <g id="ytick_9">
     <g id="line2d_25">
      <path clip-path="url(#pd99a211f71)" d="M 54 53.356629 
L 388.8 53.356629 
" style="fill:none;stroke:#000000;stroke-linecap:square;stroke-width:0.8;"/>
     </g>
     <g id="line2d_26">
      <g>
       <use style="stroke:#000000;stroke-width:0.8;" x="54" xlink:href="#mea6a658116" y="53.356629"/>
      </g>
     </g>
     <g id="text_18">
      <!-- 0.08 -->
      <defs>
       <path d="M 31.78125 34.625 
Q 24.75 34.625 20.71875 30.859375 
Q 16.703125 27.09375 16.703125 20.515625 
Q 16.703125 13.921875 20.71875 10.15625 
Q 24.75 6.390625 31.78125 6.390625 
Q 38.8125 6.390625 42.859375 10.171875 
Q 46.921875 13.96875 46.921875 20.515625 
Q 46.921875 27.09375 42.890625 30.859375 
Q 38.875 34.625 31.78125 34.625 
z
M 21.921875 38.8125 
Q 15.578125 40.375 12.03125 44.71875 
Q 8.5 49.078125 8.5 55.328125 
Q 8.5 64.0625 14.71875 69.140625 
Q 20.953125 74.21875 31.78125 74.21875 
Q 42.671875 74.21875 48.875 69.140625 
Q 55.078125 64.0625 55.078125 55.328125 
Q 55.078125 49.078125 51.53125 44.71875 
Q 48 40.375 41.703125 38.8125 
Q 48.828125 37.15625 52.796875 32.3125 
Q 56.78125 27.484375 56.78125 20.515625 
Q 56.78125 9.90625 50.3125 4.234375 
Q 43.84375 -1.421875 31.78125 -1.421875 
Q 19.734375 -1.421875 13.25 4.234375 
Q 6.78125 9.90625 6.78125 20.515625 
Q 6.78125 27.484375 10.78125 32.3125 
Q 14.796875 37.15625 21.921875 38.8125 
z
M 18.3125 54.390625 
Q 18.3125 48.734375 21.84375 45.5625 
Q 25.390625 42.390625 31.78125 42.390625 
Q 38.140625 42.390625 41.71875 45.5625 
Q 45.3125 48.734375 45.3125 54.390625 
Q 45.3125 60.0625 41.71875 63.234375 
Q 38.140625 66.40625 31.78125 66.40625 
Q 25.390625 66.40625 21.84375 63.234375 
Q 18.3125 60.0625 18.3125 54.390625 
z
" id="DejaVuSans-56"/>
      </defs>
      <g transform="translate(24.734375 57.155848)scale(0.1 -0.1)">
       <use xlink:href="#DejaVuSans-48"/>
       <use x="63.623047" xlink:href="#DejaVuSans-46"/>
       <use x="95.410156" xlink:href="#DejaVuSans-48"/>
       <use x="159.033203" xlink:href="#DejaVuSans-56"/>
      </g>
     </g>
    </g>
    <g id="text_19">
     <!-- P of # heads in experiment -->
     <defs>
      <path d="M 19.671875 64.796875 
L 19.671875 37.40625 
L 32.078125 37.40625 
Q 38.96875 37.40625 42.71875 40.96875 
Q 46.484375 44.53125 46.484375 51.125 
Q 46.484375 57.671875 42.71875 61.234375 
Q 38.96875 64.796875 32.078125 64.796875 
z
M 9.8125 72.90625 
L 32.078125 72.90625 
Q 44.34375 72.90625 50.609375 67.359375 
Q 56.890625 61.8125 56.890625 51.125 
Q 56.890625 40.328125 50.609375 34.8125 
Q 44.34375 29.296875 32.078125 29.296875 
L 19.671875 29.296875 
L 19.671875 0 
L 9.8125 0 
z
" id="DejaVuSans-80"/>
      <path d="M 30.609375 48.390625 
Q 23.390625 48.390625 19.1875 42.75 
Q 14.984375 37.109375 14.984375 27.296875 
Q 14.984375 17.484375 19.15625 11.84375 
Q 23.34375 6.203125 30.609375 6.203125 
Q 37.796875 6.203125 41.984375 11.859375 
Q 46.1875 17.53125 46.1875 27.296875 
Q 46.1875 37.015625 41.984375 42.703125 
Q 37.796875 48.390625 30.609375 48.390625 
z
M 30.609375 56 
Q 42.328125 56 49.015625 48.375 
Q 55.71875 40.765625 55.71875 27.296875 
Q 55.71875 13.875 49.015625 6.21875 
Q 42.328125 -1.421875 30.609375 -1.421875 
Q 18.84375 -1.421875 12.171875 6.21875 
Q 5.515625 13.875 5.515625 27.296875 
Q 5.515625 40.765625 12.171875 48.375 
Q 18.84375 56 30.609375 56 
z
" id="DejaVuSans-111"/>
      <path d="M 37.109375 75.984375 
L 37.109375 68.5 
L 28.515625 68.5 
Q 23.6875 68.5 21.796875 66.546875 
Q 19.921875 64.59375 19.921875 59.515625 
L 19.921875 54.6875 
L 34.71875 54.6875 
L 34.71875 47.703125 
L 19.921875 47.703125 
L 19.921875 0 
L 10.890625 0 
L 10.890625 47.703125 
L 2.296875 47.703125 
L 2.296875 54.6875 
L 10.890625 54.6875 
L 10.890625 58.5 
Q 10.890625 67.625 15.140625 71.796875 
Q 19.390625 75.984375 28.609375 75.984375 
z
" id="DejaVuSans-102"/>
     </defs>
     <g transform="translate(18.654687 211.615156)rotate(-90)scale(0.1 -0.1)">
      <use xlink:href="#DejaVuSans-80"/>
      <use x="60.302734" xlink:href="#DejaVuSans-32"/>
      <use x="92.089844" xlink:href="#DejaVuSans-111"/>
      <use x="153.271484" xlink:href="#DejaVuSans-102"/>
      <use x="188.476562" xlink:href="#DejaVuSans-32"/>
      <use x="220.263672" xlink:href="#DejaVuSans-35"/>
      <use x="304.052734" xlink:href="#DejaVuSans-32"/>
      <use x="335.839844" xlink:href="#DejaVuSans-104"/>
      <use x="399.21875" xlink:href="#DejaVuSans-101"/>
      <use x="460.742188" xlink:href="#DejaVuSans-97"/>
      <use x="522.021484" xlink:href="#DejaVuSans-100"/>
      <use x="585.498047" xlink:href="#DejaVuSans-115"/>
      <use x="637.597656" xlink:href="#DejaVuSans-32"/>
      <use x="669.384766" xlink:href="#DejaVuSans-105"/>
      <use x="697.167969" xlink:href="#DejaVuSans-110"/>
      <use x="760.546875" xlink:href="#DejaVuSans-32"/>
      <use x="792.333984" xlink:href="#DejaVuSans-101"/>
      <use x="852.107422" xlink:href="#DejaVuSans-120"/>
      <use x="911.287109" xlink:href="#DejaVuSans-112"/>
      <use x="974.763672" xlink:href="#DejaVuSans-101"/>
      <use x="1036.287109" xlink:href="#DejaVuSans-114"/>
      <use x="1077.400391" xlink:href="#DejaVuSans-105"/>
      <use x="1105.183594" xlink:href="#DejaVuSans-109"/>
      <use x="1202.595703" xlink:href="#DejaVuSans-101"/>
      <use x="1264.119141" xlink:href="#DejaVuSans-110"/>
      <use x="1327.498047" xlink:href="#DejaVuSans-116"/>
     </g>
    </g>
   </g>
   <g id="line2d_27">
    <defs>
     <path d="M 0 -3 
L -0.673542 -0.927051 
L -2.85317 -0.927051 
L -1.089814 0.354102 
L -1.763356 2.427051 
L -0 1.145898 
L 1.763356 2.427051 
L 1.089814 0.354102 
L 2.85317 -0.927051 
L 0.673542 -0.927051 
z
" id="mdfa76c4972" style="stroke:#000000;stroke-linejoin:bevel;"/>
    </defs>
    <g clip-path="url(#pd99a211f71)">
     <use style="stroke:#000000;stroke-linejoin:bevel;" x="-1" xlink:href="#mdfa76c4972" y="251.999994"/>
     <use style="stroke:#000000;stroke-linejoin:bevel;" x="-0.405" xlink:href="#mdfa76c4972" y="251.999994"/>
     <use style="stroke:#000000;stroke-linejoin:bevel;" x="7.965" xlink:href="#mdfa76c4972" y="251.999975"/>
     <use style="stroke:#000000;stroke-linejoin:bevel;" x="16.335" xlink:href="#mdfa76c4972" y="251.999906"/>
     <use style="stroke:#000000;stroke-linejoin:bevel;" x="24.705" xlink:href="#mdfa76c4972" y="251.999668"/>
     <use style="stroke:#000000;stroke-linejoin:bevel;" x="33.075" xlink:href="#mdfa76c4972" y="251.998905"/>
     <use style="stroke:#000000;stroke-linejoin:bevel;" x="41.445" xlink:href="#mdfa76c4972" y="251.996634"/>
     <use style="stroke:#000000;stroke-linejoin:bevel;" x="49.815" xlink:href="#mdfa76c4972" y="251.990316"/>
     <use style="stroke:#000000;stroke-linejoin:bevel;" x="58.185" xlink:href="#mdfa76c4972" y="251.973852"/>
     <use style="stroke:#000000;stroke-linejoin:bevel;" x="66.555" xlink:href="#mdfa76c4972" y="251.933593"/>
     <use style="stroke:#000000;stroke-linejoin:bevel;" x="74.925" xlink:href="#mdfa76c4972" y="251.841025"/>
     <use style="stroke:#000000;stroke-linejoin:bevel;" x="83.295" xlink:href="#mdfa76c4972" y="251.640579"/>
     <use style="stroke:#000000;stroke-linejoin:bevel;" x="91.665" xlink:href="#mdfa76c4972" y="251.231239"/>
     <use style="stroke:#000000;stroke-linejoin:bevel;" x="100.035" xlink:href="#mdfa76c4972" y="250.441977"/>
     <use style="stroke:#000000;stroke-linejoin:bevel;" x="108.405" xlink:href="#mdfa76c4972" y="249.003802"/>
     <use style="stroke:#000000;stroke-linejoin:bevel;" x="116.775" xlink:href="#mdfa76c4972" y="246.525465"/>
     <use style="stroke:#000000;stroke-linejoin:bevel;" x="125.145" xlink:href="#mdfa76c4972" y="242.484736"/>
     <use style="stroke:#000000;stroke-linejoin:bevel;" x="133.515" xlink:href="#mdfa76c4972" y="236.250598"/>
     <use style="stroke:#000000;stroke-linejoin:bevel;" x="141.885" xlink:href="#mdfa76c4972" y="227.150944"/>
     <use style="stroke:#000000;stroke-linejoin:bevel;" x="150.255" xlink:href="#mdfa76c4972" y="214.592818"/>
     <use style="stroke:#000000;stroke-linejoin:bevel;" x="158.625" xlink:href="#mdfa76c4972" y="198.227177"/>
     <use style="stroke:#000000;stroke-linejoin:bevel;" x="166.995" xlink:href="#mdfa76c4972" y="178.130263"/>
     <use style="stroke:#000000;stroke-linejoin:bevel;" x="175.365" xlink:href="#mdfa76c4972" y="154.955443"/>
     <use style="stroke:#000000;stroke-linejoin:bevel;" x="183.735" xlink:href="#mdfa76c4972" y="130.001128"/>
     <use style="stroke:#000000;stroke-linejoin:bevel;" x="192.105" xlink:href="#mdfa76c4972" y="105.149507"/>
     <use style="stroke:#000000;stroke-linejoin:bevel;" x="200.475" xlink:href="#mdfa76c4972" y="82.65889"/>
     <use style="stroke:#000000;stroke-linejoin:bevel;" x="208.845" xlink:href="#mdfa76c4972" y="64.83351"/>
     <use style="stroke:#000000;stroke-linejoin:bevel;" x="217.215" xlink:href="#mdfa76c4972" y="53.635515"/>
     <use style="stroke:#000000;stroke-linejoin:bevel;" x="225.585" xlink:href="#mdfa76c4972" y="50.329441"/>
     <use style="stroke:#000000;stroke-linejoin:bevel;" x="233.955" xlink:href="#mdfa76c4972" y="55.248235"/>
     <use style="stroke:#000000;stroke-linejoin:bevel;" x="242.325" xlink:href="#mdfa76c4972" y="67.74041"/>
     <use style="stroke:#000000;stroke-linejoin:bevel;" x="250.695" xlink:href="#mdfa76c4972" y="86.309206"/>
     <use style="stroke:#000000;stroke-linejoin:bevel;" x="259.065" xlink:href="#mdfa76c4972" y="108.903405"/>
     <use style="stroke:#000000;stroke-linejoin:bevel;" x="267.435" xlink:href="#mdfa76c4972" y="133.282825"/>
     <use style="stroke:#000000;stroke-linejoin:bevel;" x="275.805" xlink:href="#mdfa76c4972" y="157.370368"/>
     <use style="stroke:#000000;stroke-linejoin:bevel;" x="284.175" xlink:href="#mdfa76c4972" y="179.517729"/>
     <use style="stroke:#000000;stroke-linejoin:bevel;" x="292.545" xlink:href="#mdfa76c4972" y="198.644995"/>
     <use style="stroke:#000000;stroke-linejoin:bevel;" x="300.915" xlink:href="#mdfa76c4972" y="214.252241"/>
     <use style="stroke:#000000;stroke-linejoin:bevel;" x="309.285" xlink:href="#mdfa76c4972" y="226.331524"/>
     <use style="stroke:#000000;stroke-linejoin:bevel;" x="317.655" xlink:href="#mdfa76c4972" y="235.223218"/>
     <use style="stroke:#000000;stroke-linejoin:bevel;" x="326.025" xlink:href="#mdfa76c4972" y="241.46074"/>
     <use style="stroke:#000000;stroke-linejoin:bevel;" x="334.395" xlink:href="#mdfa76c4972" y="245.636673"/>
     <use style="stroke:#000000;stroke-linejoin:bevel;" x="342.765" xlink:href="#mdfa76c4972" y="248.307699"/>
     <use style="stroke:#000000;stroke-linejoin:bevel;" x="351.135" xlink:href="#mdfa76c4972" y="249.941263"/>
     <use style="stroke:#000000;stroke-linejoin:bevel;" x="359.505" xlink:href="#mdfa76c4972" y="250.897105"/>
     <use style="stroke:#000000;stroke-linejoin:bevel;" x="367.875" xlink:href="#mdfa76c4972" y="251.432428"/>
     <use style="stroke:#000000;stroke-linejoin:bevel;" x="376.245" xlink:href="#mdfa76c4972" y="251.719476"/>
     <use style="stroke:#000000;stroke-linejoin:bevel;" x="384.615" xlink:href="#mdfa76c4972" y="251.86687"/>
     <use style="stroke:#000000;stroke-linejoin:bevel;" x="392.985" xlink:href="#mdfa76c4972" y="251.939352"/>
     <use style="stroke:#000000;stroke-linejoin:bevel;" x="401.355" xlink:href="#mdfa76c4972" y="251.973487"/>
     <use style="stroke:#000000;stroke-linejoin:bevel;" x="409.725" xlink:href="#mdfa76c4972" y="251.988882"/>
     <use style="stroke:#000000;stroke-linejoin:bevel;" x="418.095" xlink:href="#mdfa76c4972" y="251.995529"/>
     <use style="stroke:#000000;stroke-linejoin:bevel;" x="426.465" xlink:href="#mdfa76c4972" y="251.998277"/>
     <use style="stroke:#000000;stroke-linejoin:bevel;" x="434.835" xlink:href="#mdfa76c4972" y="251.999364"/>
     <use style="stroke:#000000;stroke-linejoin:bevel;" x="443.205" xlink:href="#mdfa76c4972" y="251.999775"/>
     <use style="stroke:#000000;stroke-linejoin:bevel;" x="451.575" xlink:href="#mdfa76c4972" y="251.999924"/>
     <use style="stroke:#000000;stroke-linejoin:bevel;" x="459.945" xlink:href="#mdfa76c4972" y="251.999975"/>
     <use style="stroke:#000000;stroke-linejoin:bevel;" x="468.315" xlink:href="#mdfa76c4972" y="251.999992"/>
     <use style="stroke:#000000;stroke-linejoin:bevel;" x="476.685" xlink:href="#mdfa76c4972" y="251.999998"/>
     <use style="stroke:#000000;stroke-linejoin:bevel;" x="485.055" xlink:href="#mdfa76c4972" y="251.999999"/>
     <use style="stroke:#000000;stroke-linejoin:bevel;" x="493.425" xlink:href="#mdfa76c4972" y="252"/>
     <use style="stroke:#000000;stroke-linejoin:bevel;" x="501.795" xlink:href="#mdfa76c4972" y="252"/>
     <use style="stroke:#000000;stroke-linejoin:bevel;" x="510.165" xlink:href="#mdfa76c4972" y="252"/>
     <use style="stroke:#000000;stroke-linejoin:bevel;" x="518.535" xlink:href="#mdfa76c4972" y="252"/>
     <use style="stroke:#000000;stroke-linejoin:bevel;" x="526.905" xlink:href="#mdfa76c4972" y="252"/>
     <use style="stroke:#000000;stroke-linejoin:bevel;" x="535.275" xlink:href="#mdfa76c4972" y="252"/>
     <use style="stroke:#000000;stroke-linejoin:bevel;" x="543.645" xlink:href="#mdfa76c4972" y="252"/>
     <use style="stroke:#000000;stroke-linejoin:bevel;" x="552.015" xlink:href="#mdfa76c4972" y="252"/>
     <use style="stroke:#000000;stroke-linejoin:bevel;" x="560.385" xlink:href="#mdfa76c4972" y="252"/>
     <use style="stroke:#000000;stroke-linejoin:bevel;" x="568.755" xlink:href="#mdfa76c4972" y="252"/>
     <use style="stroke:#000000;stroke-linejoin:bevel;" x="577.125" xlink:href="#mdfa76c4972" y="252"/>
     <use style="stroke:#000000;stroke-linejoin:bevel;" x="585.495" xlink:href="#mdfa76c4972" y="252"/>
     <use style="stroke:#000000;stroke-linejoin:bevel;" x="593.865" xlink:href="#mdfa76c4972" y="252"/>
     <use style="stroke:#000000;stroke-linejoin:bevel;" x="602.235" xlink:href="#mdfa76c4972" y="252"/>
     <use style="stroke:#000000;stroke-linejoin:bevel;" x="610.605" xlink:href="#mdfa76c4972" y="252"/>
     <use style="stroke:#000000;stroke-linejoin:bevel;" x="618.975" xlink:href="#mdfa76c4972" y="252"/>
     <use style="stroke:#000000;stroke-linejoin:bevel;" x="627.345" xlink:href="#mdfa76c4972" y="252"/>
     <use style="stroke:#000000;stroke-linejoin:bevel;" x="635.715" xlink:href="#mdfa76c4972" y="252"/>
     <use style="stroke:#000000;stroke-linejoin:bevel;" x="644.085" xlink:href="#mdfa76c4972" y="252"/>
     <use style="stroke:#000000;stroke-linejoin:bevel;" x="652.455" xlink:href="#mdfa76c4972" y="252"/>
     <use style="stroke:#000000;stroke-linejoin:bevel;" x="660.825" xlink:href="#mdfa76c4972" y="252"/>
     <use style="stroke:#000000;stroke-linejoin:bevel;" x="669.195" xlink:href="#mdfa76c4972" y="252"/>
     <use style="stroke:#000000;stroke-linejoin:bevel;" x="677.565" xlink:href="#mdfa76c4972" y="252"/>
     <use style="stroke:#000000;stroke-linejoin:bevel;" x="685.935" xlink:href="#mdfa76c4972" y="252"/>
     <use style="stroke:#000000;stroke-linejoin:bevel;" x="694.305" xlink:href="#mdfa76c4972" y="252"/>
     <use style="stroke:#000000;stroke-linejoin:bevel;" x="702.675" xlink:href="#mdfa76c4972" y="252"/>
     <use style="stroke:#000000;stroke-linejoin:bevel;" x="711.045" xlink:href="#mdfa76c4972" y="252"/>
     <use style="stroke:#000000;stroke-linejoin:bevel;" x="719.415" xlink:href="#mdfa76c4972" y="252"/>
    </g>
   </g>
   <g id="line2d_28">
    <path clip-path="url(#pd99a211f71)" d="M -1 252 
L 54 252 
L 54 251.751696 
L 62.37 251.751696 
L 62.37 252 
L 70.74 252 
L 70.74 251.503392 
L 79.11 251.503392 
L 79.11 251.751696 
L 87.48 251.751696 
L 87.48 251.255087 
L 95.85 251.255087 
L 95.85 250.758479 
L 104.22 250.758479 
L 104.22 249.516958 
L 112.59 249.516958 
L 112.59 246.785612 
L 120.96 246.785612 
L 120.96 241.571223 
L 129.33 241.571223 
L 129.33 233.377184 
L 137.7 233.377184 
L 137.7 228.4111 
L 146.07 228.4111 
L 146.07 219.472148 
L 154.44 219.472148 
L 154.44 199.111202 
L 162.81 199.111202 
L 162.81 179.246865 
L 171.18 179.246865 
L 171.18 159.879137 
L 179.55 159.879137 
L 179.55 129.834327 
L 187.92 129.834327 
L 187.92 105.748818 
L 196.29 105.748818 
L 196.29 82.656526 
L 204.66 82.656526 
L 204.66 60.805755 
L 213.03 60.805755 
L 213.03 47.149024 
L 221.4 47.149024 
L 221.4 47.893936 
L 229.77 47.893936 
L 229.77 58.819322 
L 238.14 58.819322 
L 238.14 72.972662 
L 246.51 72.972662 
L 246.51 81.663309 
L 254.88 81.663309 
L 254.88 105.500514 
L 263.25 105.500514 
L 263.25 134.055498 
L 271.62 134.055498 
L 271.62 161.120658 
L 279.99 161.120658 
L 279.99 178.750257 
L 288.36 178.750257 
L 288.36 198.36629 
L 296.73 198.36629 
L 296.73 213.016238 
L 305.1 213.016238 
L 305.1 225.183145 
L 313.47 225.183145 
L 313.47 234.122097 
L 321.84 234.122097 
L 321.84 239.336485 
L 330.21 239.336485 
L 330.21 247.778828 
L 338.58 247.778828 
L 338.58 248.772045 
L 346.95 248.772045 
L 346.95 250.758479 
L 355.32 250.758479 
L 355.32 251.503392 
L 363.69 251.503392 
L 363.69 250.758479 
L 372.06 250.758479 
L 372.06 252 
L 433 252 
L 433 252 
" style="fill:none;stroke:#ff7f0e;stroke-linecap:square;stroke-width:1.5;"/>
   </g>
   <g id="line2d_29">
    <path clip-path="url(#pd99a211f71)" d="M -1 252 
L 54 252 
L 54 251.751696 
L 62.37 251.751696 
L 62.37 252 
L 70.74 252 
L 70.74 251.503392 
L 79.11 251.503392 
L 79.11 251.751696 
L 87.48 251.751696 
L 87.48 251.503392 
L 95.85 251.503392 
L 95.85 251.006783 
L 104.22 251.006783 
L 104.22 250.261871 
L 112.59 250.261871 
L 112.59 247.033916 
L 120.96 247.033916 
L 120.96 244.054265 
L 129.33 244.054265 
L 129.33 235.115313 
L 137.7 235.115313 
L 137.7 231.887359 
L 146.07 231.887359 
L 146.07 223.445015 
L 154.44 223.445015 
L 154.44 207.80185 
L 162.81 207.80185 
L 162.81 189.179034 
L 171.18 189.179034 
L 171.18 174.77739 
L 179.55 174.77739 
L 179.55 138.27667 
L 187.92 138.27667 
L 187.92 123.130113 
L 196.29 123.130113 
L 196.29 106.742035 
L 204.66 106.742035 
L 204.66 68.006578 
L 213.03 68.006578 
L 213.03 63.785406 
L 221.4 63.785406 
L 221.4 44.914286 
L 229.77 44.914286 
L 229.77 64.530319 
L 238.14 64.530319 
L 238.14 70.241316 
L 246.51 70.241316 
L 246.51 80.173484 
L 254.88 80.173484 
L 254.88 97.058171 
L 263.25 97.058171 
L 263.25 113.942857 
L 271.62 113.942857 
L 271.62 142.99445 
L 279.99 142.99445 
L 279.99 165.341829 
L 288.36 165.341829 
L 288.36 185.206166 
L 296.73 185.206166 
L 296.73 202.339157 
L 305.1 202.339157 
L 305.1 217.734018 
L 313.47 217.734018 
L 313.47 224.686536 
L 321.84 224.686536 
L 321.84 233.873792 
L 330.21 233.873792 
L 330.21 241.819527 
L 338.58 241.819527 
L 338.58 246.289003 
L 346.95 246.289003 
L 346.95 249.020349 
L 355.32 249.020349 
L 355.32 250.261871 
L 363.69 250.261871 
L 363.69 250.510175 
L 372.06 250.510175 
L 372.06 251.503392 
L 388.8 251.503392 
L 388.8 252 
L 433 252 
L 433 252 
" style="fill:none;stroke:#2ca02c;stroke-linecap:square;stroke-width:1.5;"/>
   </g>
   <g id="patch_104">
    <path d="M 54 252 
L 54 34.56 
" style="fill:none;stroke:#000000;stroke-linecap:square;stroke-linejoin:miter;stroke-width:0.8;"/>
   </g>
   <g id="patch_105">
    <path d="M 388.8 252 
L 388.8 34.56 
" style="fill:none;stroke:#000000;stroke-linecap:square;stroke-linejoin:miter;stroke-width:0.8;"/>
   </g>
   <g id="patch_106">
    <path d="M 54 252 
L 388.8 252 
" style="fill:none;stroke:#000000;stroke-linecap:square;stroke-linejoin:miter;stroke-width:0.8;"/>
   </g>
   <g id="patch_107">
    <path d="M 54 34.56 
L 388.8 34.56 
" style="fill:none;stroke:#000000;stroke-linecap:square;stroke-linejoin:miter;stroke-width:0.8;"/>
   </g>
   <g id="text_20">
    <!-- # trials/experiment = 100; # experiments = 10000 -->
    <defs>
     <path d="M 9.421875 75.984375 
L 18.40625 75.984375 
L 18.40625 0 
L 9.421875 0 
z
" id="DejaVuSans-108"/>
     <path d="M 25.390625 72.90625 
L 33.6875 72.90625 
L 8.296875 -9.28125 
L 0 -9.28125 
z
" id="DejaVuSans-47"/>
     <path d="M 10.59375 45.40625 
L 73.1875 45.40625 
L 73.1875 37.203125 
L 10.59375 37.203125 
z
M 10.59375 25.484375 
L 73.1875 25.484375 
L 73.1875 17.1875 
L 10.59375 17.1875 
z
" id="DejaVuSans-61"/>
     <path d="M 11.71875 51.703125 
L 22.015625 51.703125 
L 22.015625 39.3125 
L 11.71875 39.3125 
z
M 11.71875 12.40625 
L 22.015625 12.40625 
L 22.015625 4 
L 14.015625 -11.625 
L 7.71875 -11.625 
L 11.71875 4 
z
" id="DejaVuSans-59"/>
    </defs>
    <g transform="translate(66.350625 28.56)scale(0.12 -0.12)">
     <use xlink:href="#DejaVuSans-35"/>
     <use x="83.789062" xlink:href="#DejaVuSans-32"/>
     <use x="115.576172" xlink:href="#DejaVuSans-116"/>
     <use x="154.785156" xlink:href="#DejaVuSans-114"/>
     <use x="195.898438" xlink:href="#DejaVuSans-105"/>
     <use x="223.681641" xlink:href="#DejaVuSans-97"/>
     <use x="284.960938" xlink:href="#DejaVuSans-108"/>
     <use x="312.744141" xlink:href="#DejaVuSans-115"/>
     <use x="364.84375" xlink:href="#DejaVuSans-47"/>
     <use x="398.535156" xlink:href="#DejaVuSans-101"/>
     <use x="458.308594" xlink:href="#DejaVuSans-120"/>
     <use x="517.488281" xlink:href="#DejaVuSans-112"/>
     <use x="580.964844" xlink:href="#DejaVuSans-101"/>
     <use x="642.488281" xlink:href="#DejaVuSans-114"/>
     <use x="683.601562" xlink:href="#DejaVuSans-105"/>
     <use x="711.384766" xlink:href="#DejaVuSans-109"/>
     <use x="808.796875" xlink:href="#DejaVuSans-101"/>
     <use x="870.320312" xlink:href="#DejaVuSans-110"/>
     <use x="933.699219" xlink:href="#DejaVuSans-116"/>
     <use x="972.908203" xlink:href="#DejaVuSans-32"/>
     <use x="1004.695312" xlink:href="#DejaVuSans-61"/>
     <use x="1088.484375" xlink:href="#DejaVuSans-32"/>
     <use x="1120.271484" xlink:href="#DejaVuSans-49"/>
     <use x="1183.894531" xlink:href="#DejaVuSans-48"/>
     <use x="1247.517578" xlink:href="#DejaVuSans-48"/>
     <use x="1311.140625" xlink:href="#DejaVuSans-59"/>
     <use x="1344.832031" xlink:href="#DejaVuSans-32"/>
     <use x="1376.619141" xlink:href="#DejaVuSans-35"/>
     <use x="1460.408203" xlink:href="#DejaVuSans-32"/>
     <use x="1492.195312" xlink:href="#DejaVuSans-101"/>
     <use x="1551.96875" xlink:href="#DejaVuSans-120"/>
     <use x="1611.148438" xlink:href="#DejaVuSans-112"/>
     <use x="1674.625" xlink:href="#DejaVuSans-101"/>
     <use x="1736.148438" xlink:href="#DejaVuSans-114"/>
     <use x="1777.261719" xlink:href="#DejaVuSans-105"/>
     <use x="1805.044922" xlink:href="#DejaVuSans-109"/>
     <use x="1902.457031" xlink:href="#DejaVuSans-101"/>
     <use x="1963.980469" xlink:href="#DejaVuSans-110"/>
     <use x="2027.359375" xlink:href="#DejaVuSans-116"/>
     <use x="2066.568359" xlink:href="#DejaVuSans-115"/>
     <use x="2118.667969" xlink:href="#DejaVuSans-32"/>
     <use x="2150.455078" xlink:href="#DejaVuSans-61"/>
     <use x="2234.244141" xlink:href="#DejaVuSans-32"/>
     <use x="2266.03125" xlink:href="#DejaVuSans-49"/>
     <use x="2329.654297" xlink:href="#DejaVuSans-48"/>
     <use x="2393.277344" xlink:href="#DejaVuSans-48"/>
     <use x="2456.900391" xlink:href="#DejaVuSans-48"/>
     <use x="2520.523438" xlink:href="#DejaVuSans-48"/>
    </g>
   </g>
   <g id="legend_1">
    <g id="patch_108">
     <path d="M 61 86.594375 
L 206.501563 86.594375 
Q 208.501563 86.594375 208.501563 84.594375 
L 208.501563 41.56 
Q 208.501563 39.56 206.501563 39.56 
L 61 39.56 
Q 59 39.56 59 41.56 
L 59 84.594375 
Q 59 86.594375 61 86.594375 
z
" style="fill:#ffffff;opacity:0.8;stroke:#cccccc;stroke-linejoin:miter;"/>
    </g>
    <g id="line2d_30"/>
    <g id="line2d_31">
     <g>
      <use style="stroke:#000000;stroke-linejoin:bevel;" x="73" xlink:href="#mdfa76c4972" y="47.658438"/>
     </g>
    </g>
    <g id="text_21">
     <!-- Binomial Formula -->
     <defs>
      <path d="M 19.671875 34.8125 
L 19.671875 8.109375 
L 35.5 8.109375 
Q 43.453125 8.109375 47.28125 11.40625 
Q 51.125 14.703125 51.125 21.484375 
Q 51.125 28.328125 47.28125 31.5625 
Q 43.453125 34.8125 35.5 34.8125 
z
M 19.671875 64.796875 
L 19.671875 42.828125 
L 34.28125 42.828125 
Q 41.5 42.828125 45.03125 45.53125 
Q 48.578125 48.25 48.578125 53.8125 
Q 48.578125 59.328125 45.03125 62.0625 
Q 41.5 64.796875 34.28125 64.796875 
z
M 9.8125 72.90625 
L 35.015625 72.90625 
Q 46.296875 72.90625 52.390625 68.21875 
Q 58.5 63.53125 58.5 54.890625 
Q 58.5 48.1875 55.375 44.234375 
Q 52.25 40.28125 46.1875 39.3125 
Q 53.46875 37.75 57.5 32.78125 
Q 61.53125 27.828125 61.53125 20.40625 
Q 61.53125 10.640625 54.890625 5.3125 
Q 48.25 0 35.984375 0 
L 9.8125 0 
z
" id="DejaVuSans-66"/>
      <path d="M 9.8125 72.90625 
L 51.703125 72.90625 
L 51.703125 64.59375 
L 19.671875 64.59375 
L 19.671875 43.109375 
L 48.578125 43.109375 
L 48.578125 34.8125 
L 19.671875 34.8125 
L 19.671875 0 
L 9.8125 0 
z
" id="DejaVuSans-70"/>
      <path d="M 8.5 21.578125 
L 8.5 54.6875 
L 17.484375 54.6875 
L 17.484375 21.921875 
Q 17.484375 14.15625 20.5 10.265625 
Q 23.53125 6.390625 29.59375 6.390625 
Q 36.859375 6.390625 41.078125 11.03125 
Q 45.3125 15.671875 45.3125 23.6875 
L 45.3125 54.6875 
L 54.296875 54.6875 
L 54.296875 0 
L 45.3125 0 
L 45.3125 8.40625 
Q 42.046875 3.421875 37.71875 1 
Q 33.40625 -1.421875 27.6875 -1.421875 
Q 18.265625 -1.421875 13.375 4.4375 
Q 8.5 10.296875 8.5 21.578125 
z
M 31.109375 56 
z
" id="DejaVuSans-117"/>
     </defs>
     <g transform="translate(91 51.158438)scale(0.1 -0.1)">
      <use xlink:href="#DejaVuSans-66"/>
      <use x="68.603516" xlink:href="#DejaVuSans-105"/>
      <use x="96.386719" xlink:href="#DejaVuSans-110"/>
      <use x="159.765625" xlink:href="#DejaVuSans-111"/>
      <use x="220.947266" xlink:href="#DejaVuSans-109"/>
      <use x="318.359375" xlink:href="#DejaVuSans-105"/>
      <use x="346.142578" xlink:href="#DejaVuSans-97"/>
      <use x="407.421875" xlink:href="#DejaVuSans-108"/>
      <use x="435.205078" xlink:href="#DejaVuSans-32"/>
      <use x="466.992188" xlink:href="#DejaVuSans-70"/>
      <use x="520.886719" xlink:href="#DejaVuSans-111"/>
      <use x="582.068359" xlink:href="#DejaVuSans-114"/>
      <use x="621.431641" xlink:href="#DejaVuSans-109"/>
      <use x="718.84375" xlink:href="#DejaVuSans-117"/>
      <use x="782.222656" xlink:href="#DejaVuSans-108"/>
      <use x="810.005859" xlink:href="#DejaVuSans-97"/>
     </g>
    </g>
    <g id="line2d_32">
     <path d="M 63 62.336563 
L 83 62.336563 
" style="fill:none;stroke:#ff7f0e;stroke-linecap:square;stroke-width:1.5;"/>
    </g>
    <g id="line2d_33"/>
    <g id="text_22">
     <!-- Experiment 1. p=0.4 -->
     <defs>
      <path d="M 9.8125 72.90625 
L 55.90625 72.90625 
L 55.90625 64.59375 
L 19.671875 64.59375 
L 19.671875 43.015625 
L 54.390625 43.015625 
L 54.390625 34.71875 
L 19.671875 34.71875 
L 19.671875 8.296875 
L 56.78125 8.296875 
L 56.78125 0 
L 9.8125 0 
z
" id="DejaVuSans-69"/>
     </defs>
     <g transform="translate(91 65.836563)scale(0.1 -0.1)">
      <use xlink:href="#DejaVuSans-69"/>
      <use x="63.183594" xlink:href="#DejaVuSans-120"/>
      <use x="122.363281" xlink:href="#DejaVuSans-112"/>
      <use x="185.839844" xlink:href="#DejaVuSans-101"/>
      <use x="247.363281" xlink:href="#DejaVuSans-114"/>
      <use x="288.476562" xlink:href="#DejaVuSans-105"/>
      <use x="316.259766" xlink:href="#DejaVuSans-109"/>
      <use x="413.671875" xlink:href="#DejaVuSans-101"/>
      <use x="475.195312" xlink:href="#DejaVuSans-110"/>
      <use x="538.574219" xlink:href="#DejaVuSans-116"/>
      <use x="577.783203" xlink:href="#DejaVuSans-32"/>
      <use x="609.570312" xlink:href="#DejaVuSans-49"/>
      <use x="673.193359" xlink:href="#DejaVuSans-46"/>
      <use x="704.980469" xlink:href="#DejaVuSans-32"/>
      <use x="736.767578" xlink:href="#DejaVuSans-112"/>
      <use x="800.244141" xlink:href="#DejaVuSans-61"/>
      <use x="884.033203" xlink:href="#DejaVuSans-48"/>
      <use x="947.65625" xlink:href="#DejaVuSans-46"/>
      <use x="979.443359" xlink:href="#DejaVuSans-52"/>
     </g>
    </g>
    <g id="line2d_34">
     <path d="M 63 77.014688 
L 83 77.014688 
" style="fill:none;stroke:#2ca02c;stroke-linecap:square;stroke-width:1.5;"/>
    </g>
    <g id="line2d_35"/>
    <g id="text_23">
     <!-- Experiment 2. p varies -->
     <defs>
      <path d="M 2.984375 54.6875 
L 12.5 54.6875 
L 29.59375 8.796875 
L 46.6875 54.6875 
L 56.203125 54.6875 
L 35.6875 0 
L 23.484375 0 
z
" id="DejaVuSans-118"/>
     </defs>
     <g transform="translate(91 80.514688)scale(0.1 -0.1)">
      <use xlink:href="#DejaVuSans-69"/>
      <use x="63.183594" xlink:href="#DejaVuSans-120"/>
      <use x="122.363281" xlink:href="#DejaVuSans-112"/>
      <use x="185.839844" xlink:href="#DejaVuSans-101"/>
      <use x="247.363281" xlink:href="#DejaVuSans-114"/>
      <use x="288.476562" xlink:href="#DejaVuSans-105"/>
      <use x="316.259766" xlink:href="#DejaVuSans-109"/>
      <use x="413.671875" xlink:href="#DejaVuSans-101"/>
      <use x="475.195312" xlink:href="#DejaVuSans-110"/>
      <use x="538.574219" xlink:href="#DejaVuSans-116"/>
      <use x="577.783203" xlink:href="#DejaVuSans-32"/>
      <use x="609.570312" xlink:href="#DejaVuSans-50"/>
      <use x="673.193359" xlink:href="#DejaVuSans-46"/>
      <use x="704.980469" xlink:href="#DejaVuSans-32"/>
      <use x="736.767578" xlink:href="#DejaVuSans-112"/>
      <use x="800.244141" xlink:href="#DejaVuSans-32"/>
      <use x="832.03125" xlink:href="#DejaVuSans-118"/>
      <use x="891.210938" xlink:href="#DejaVuSans-97"/>
      <use x="952.490234" xlink:href="#DejaVuSans-114"/>
      <use x="993.603516" xlink:href="#DejaVuSans-105"/>
      <use x="1021.386719" xlink:href="#DejaVuSans-101"/>
      <use x="1082.910156" xlink:href="#DejaVuSans-115"/>
     </g>
    </g>
   </g>
  </g>
 </g>
 <defs>
  <clipPath id="pd99a211f71">
   <rect height="217.44" width="334.8" x="54" y="34.56"/>
  </clipPath>
 </defs>
</svg>
