<?xml version="1.0" encoding="utf-8" standalone="no"?>
<!DOCTYPE svg PUBLIC "-//W3C//DTD SVG 1.1//EN"
  "http://www.w3.org/Graphics/SVG/1.1/DTD/svg11.dtd">
<svg xmlns:xlink="http://www.w3.org/1999/xlink" width="460.8pt" height="345.6pt" viewBox="0 0 460.8 345.6" xmlns="http://www.w3.org/2000/svg" version="1.1">
 <metadata>
  <rdf:RDF xmlns:dc="http://purl.org/dc/elements/1.1/" xmlns:cc="http://creativecommons.org/ns#" xmlns:rdf="http://www.w3.org/1999/02/22-rdf-syntax-ns#">
   <cc:Work>
    <dc:type rdf:resource="http://purl.org/dc/dcmitype/StillImage"/>
    <dc:date>2023-04-05T13:50:24.819181</dc:date>
    <dc:format>image/svg+xml</dc:format>
    <dc:creator>
     <cc:Agent>
      <dc:title>Matplotlib v3.5.2, https://matplotlib.org/</dc:title>
     </cc:Agent>
    </dc:creator>
   </cc:Work>
  </rdf:RDF>
 </metadata>
 <defs>
  <style type="text/css">*{stroke-linejoin: round; stroke-linecap: butt}</style>
 </defs>
 <g id="figure_1">
  <g id="patch_1">
   <path d="M 0 345.6 
L 460.8 345.6 
L 460.8 0 
L 0 0 
L 0 345.6 
z
" style="fill: none"/>
  </g>
  <g id="axes_1">
   <g id="patch_2">
    <path d="M 57.6 307.584 
L 414.72 307.584 
L 414.72 41.472 
L 57.6 41.472 
L 57.6 307.584 
z
" style="fill: none"/>
   </g>
   <g id="patch_3">
    <path d="M 73.832727 307.584 
L 80.45833 307.584 
L 80.45833 307.584 
L 73.832727 307.584 
z
" clip-path="url(#pa39e71575d)" style="opacity: 0.5"/>
   </g>
   <g id="patch_4">
    <path d="M 80.45833 307.584 
L 87.083933 307.584 
L 87.083933 307.584 
L 80.45833 307.584 
z
" clip-path="url(#pa39e71575d)" style="opacity: 0.5"/>
   </g>
   <g id="patch_5">
    <path d="M 87.083933 307.584 
L 93.709536 307.584 
L 93.709536 307.584 
L 87.083933 307.584 
z
" clip-path="url(#pa39e71575d)" style="opacity: 0.5"/>
   </g>
   <g id="patch_6">
    <path d="M 93.709536 307.584 
L 100.335139 307.584 
L 100.335139 307.584 
L 93.709536 307.584 
z
" clip-path="url(#pa39e71575d)" style="opacity: 0.5"/>
   </g>
   <g id="patch_7">
    <path d="M 100.335139 307.584 
L 106.960742 307.584 
L 106.960742 307.258242 
L 100.335139 307.258242 
z
" clip-path="url(#pa39e71575d)" style="opacity: 0.5"/>
   </g>
   <g id="patch_8">
    <path d="M 106.960742 307.584 
L 113.586345 307.584 
L 113.586345 307.258242 
L 106.960742 307.258242 
z
" clip-path="url(#pa39e71575d)" style="opacity: 0.5"/>
   </g>
   <g id="patch_9">
    <path d="M 113.586345 307.584 
L 120.211948 307.584 
L 120.211948 306.280967 
L 113.586345 306.280967 
z
" clip-path="url(#pa39e71575d)" style="opacity: 0.5"/>
   </g>
   <g id="patch_10">
    <path d="M 120.211948 307.584 
L 126.837551 307.584 
L 126.837551 306.280967 
L 120.211948 306.280967 
z
" clip-path="url(#pa39e71575d)" style="opacity: 0.5"/>
   </g>
   <g id="patch_11">
    <path d="M 126.837551 307.584 
L 133.463154 307.584 
L 133.463154 306.280967 
L 126.837551 306.280967 
z
" clip-path="url(#pa39e71575d)" style="opacity: 0.5"/>
   </g>
   <g id="patch_12">
    <path d="M 133.463154 307.584 
L 140.088757 307.584 
L 140.088757 303.6749 
L 133.463154 303.6749 
z
" clip-path="url(#pa39e71575d)" style="opacity: 0.5"/>
   </g>
   <g id="patch_13">
    <path d="M 140.088757 307.584 
L 146.71436 307.584 
L 146.71436 302.371866 
L 140.088757 302.371866 
z
" clip-path="url(#pa39e71575d)" style="opacity: 0.5"/>
   </g>
   <g id="patch_14">
    <path d="M 146.71436 307.584 
L 153.339963 307.584 
L 153.339963 294.879424 
L 146.71436 294.879424 
z
" clip-path="url(#pa39e71575d)" style="opacity: 0.5"/>
   </g>
   <g id="patch_15">
    <path d="M 153.339963 307.584 
L 159.965566 307.584 
L 159.965566 291.296082 
L 153.339963 291.296082 
z
" clip-path="url(#pa39e71575d)" style="opacity: 0.5"/>
   </g>
   <g id="patch_16">
    <path d="M 159.965566 307.584 
L 166.591169 307.584 
L 166.591169 275.98544 
L 159.965566 275.98544 
z
" clip-path="url(#pa39e71575d)" style="opacity: 0.5"/>
   </g>
   <g id="patch_17">
    <path d="M 166.591169 307.584 
L 173.216772 307.584 
L 173.216772 268.492997 
L 166.591169 268.492997 
z
" clip-path="url(#pa39e71575d)" style="opacity: 0.5"/>
   </g>
   <g id="patch_18">
    <path d="M 173.216772 307.584 
L 179.842375 307.584 
L 179.842375 249.599013 
L 173.216772 249.599013 
z
" clip-path="url(#pa39e71575d)" style="opacity: 0.5"/>
   </g>
   <g id="patch_19">
    <path d="M 179.842375 307.584 
L 186.467978 307.584 
L 186.467978 229.727753 
L 179.842375 229.727753 
z
" clip-path="url(#pa39e71575d)" style="opacity: 0.5"/>
   </g>
   <g id="patch_20">
    <path d="M 186.467978 307.584 
L 193.093581 307.584 
L 193.093581 208.227702 
L 186.467978 208.227702 
z
" clip-path="url(#pa39e71575d)" style="opacity: 0.5"/>
   </g>
   <g id="patch_21">
    <path d="M 193.093581 307.584 
L 199.719184 307.584 
L 199.719184 189.007959 
L 193.093581 189.007959 
z
" clip-path="url(#pa39e71575d)" style="opacity: 0.5"/>
   </g>
   <g id="patch_22">
    <path d="M 199.719184 307.584 
L 206.344787 307.584 
L 206.344787 159.03819 
L 199.719184 159.03819 
z
" clip-path="url(#pa39e71575d)" style="opacity: 0.5"/>
   </g>
   <g id="patch_23">
    <path d="M 206.344787 307.584 
L 212.97039 307.584 
L 212.97039 108.545645 
L 206.344787 108.545645 
z
" clip-path="url(#pa39e71575d)" style="opacity: 0.5"/>
   </g>
   <g id="patch_24">
    <path d="M 212.97039 307.584 
L 219.595993 307.584 
L 219.595993 96.492586 
L 212.97039 96.492586 
z
" clip-path="url(#pa39e71575d)" style="opacity: 0.5"/>
   </g>
   <g id="patch_25">
    <path d="M 219.595993 307.584 
L 226.221596 307.584 
L 226.221596 57.401584 
L 219.595993 57.401584 
z
" clip-path="url(#pa39e71575d)" style="opacity: 0.5"/>
   </g>
   <g id="patch_26">
    <path d="M 226.221596 307.584 
L 232.847199 307.584 
L 232.847199 54.144 
L 226.221596 54.144 
z
" clip-path="url(#pa39e71575d)" style="opacity: 0.5"/>
   </g>
   <g id="patch_27">
    <path d="M 232.847199 307.584 
L 239.472801 307.584 
L 239.472801 67.174334 
L 232.847199 67.174334 
z
" clip-path="url(#pa39e71575d)" style="opacity: 0.5"/>
   </g>
   <g id="patch_28">
    <path d="M 239.472801 307.584 
L 246.098404 307.584 
L 246.098404 54.144 
L 239.472801 54.144 
z
" clip-path="url(#pa39e71575d)" style="opacity: 0.5"/>
   </g>
   <g id="patch_29">
    <path d="M 246.098404 307.584 
L 252.724007 307.584 
L 252.724007 68.803126 
L 246.098404 68.803126 
z
" clip-path="url(#pa39e71575d)" style="opacity: 0.5"/>
   </g>
   <g id="patch_30">
    <path d="M 252.724007 307.584 
L 259.34961 307.584 
L 259.34961 94.212278 
L 252.724007 94.212278 
z
" clip-path="url(#pa39e71575d)" style="opacity: 0.5"/>
   </g>
   <g id="patch_31">
    <path d="M 259.34961 307.584 
L 265.975213 307.584 
L 265.975213 132.651763 
L 259.34961 132.651763 
z
" clip-path="url(#pa39e71575d)" style="opacity: 0.5"/>
   </g>
   <g id="patch_32">
    <path d="M 265.975213 307.584 
L 272.600816 307.584 
L 272.600816 153.500298 
L 265.975213 153.500298 
z
" clip-path="url(#pa39e71575d)" style="opacity: 0.5"/>
   </g>
   <g id="patch_33">
    <path d="M 272.600816 307.584 
L 279.226419 307.584 
L 279.226419 187.704925 
L 272.600816 187.704925 
z
" clip-path="url(#pa39e71575d)" style="opacity: 0.5"/>
   </g>
   <g id="patch_34">
    <path d="M 279.226419 307.584 
L 285.852022 307.584 
L 285.852022 195.848884 
L 279.226419 195.848884 
z
" clip-path="url(#pa39e71575d)" style="opacity: 0.5"/>
   </g>
   <g id="patch_35">
    <path d="M 285.852022 307.584 
L 292.477625 307.584 
L 292.477625 237.220195 
L 285.852022 237.220195 
z
" clip-path="url(#pa39e71575d)" style="opacity: 0.5"/>
   </g>
   <g id="patch_36">
    <path d="M 292.477625 307.584 
L 299.103228 307.584 
L 299.103228 251.553563 
L 292.477625 251.553563 
z
" clip-path="url(#pa39e71575d)" style="opacity: 0.5"/>
   </g>
   <g id="patch_37">
    <path d="M 299.103228 307.584 
L 305.728831 307.584 
L 305.728831 274.682406 
L 299.103228 274.682406 
z
" clip-path="url(#pa39e71575d)" style="opacity: 0.5"/>
   </g>
   <g id="patch_38">
    <path d="M 305.728831 307.584 
L 312.354434 307.584 
L 312.354434 286.735465 
L 305.728831 286.735465 
z
" clip-path="url(#pa39e71575d)" style="opacity: 0.5"/>
   </g>
   <g id="patch_39">
    <path d="M 312.354434 307.584 
L 318.980037 307.584 
L 318.980037 290.970324 
L 312.354434 290.970324 
z
" clip-path="url(#pa39e71575d)" style="opacity: 0.5"/>
   </g>
   <g id="patch_40">
    <path d="M 318.980037 307.584 
L 325.60564 307.584 
L 325.60564 297.485491 
L 318.980037 297.485491 
z
" clip-path="url(#pa39e71575d)" style="opacity: 0.5"/>
   </g>
   <g id="patch_41">
    <path d="M 325.60564 307.584 
L 332.231243 307.584 
L 332.231243 299.765799 
L 325.60564 299.765799 
z
" clip-path="url(#pa39e71575d)" style="opacity: 0.5"/>
   </g>
   <g id="patch_42">
    <path d="M 332.231243 307.584 
L 338.856846 307.584 
L 338.856846 304.326416 
L 332.231243 304.326416 
z
" clip-path="url(#pa39e71575d)" style="opacity: 0.5"/>
   </g>
   <g id="patch_43">
    <path d="M 338.856846 307.584 
L 345.482449 307.584 
L 345.482449 304.652175 
L 338.856846 304.652175 
z
" clip-path="url(#pa39e71575d)" style="opacity: 0.5"/>
   </g>
   <g id="patch_44">
    <path d="M 345.482449 307.584 
L 352.108052 307.584 
L 352.108052 306.932483 
L 345.482449 306.932483 
z
" clip-path="url(#pa39e71575d)" style="opacity: 0.5"/>
   </g>
   <g id="patch_45">
    <path d="M 352.108052 307.584 
L 358.733655 307.584 
L 358.733655 307.584 
L 352.108052 307.584 
z
" clip-path="url(#pa39e71575d)" style="opacity: 0.5"/>
   </g>
   <g id="patch_46">
    <path d="M 358.733655 307.584 
L 365.359258 307.584 
L 365.359258 307.584 
L 358.733655 307.584 
z
" clip-path="url(#pa39e71575d)" style="opacity: 0.5"/>
   </g>
   <g id="patch_47">
    <path d="M 365.359258 307.584 
L 371.984861 307.584 
L 371.984861 307.584 
L 365.359258 307.584 
z
" clip-path="url(#pa39e71575d)" style="opacity: 0.5"/>
   </g>
   <g id="patch_48">
    <path d="M 371.984861 307.584 
L 378.610464 307.584 
L 378.610464 307.584 
L 371.984861 307.584 
z
" clip-path="url(#pa39e71575d)" style="opacity: 0.5"/>
   </g>
   <g id="patch_49">
    <path d="M 378.610464 307.584 
L 385.236067 307.584 
L 385.236067 307.584 
L 378.610464 307.584 
z
" clip-path="url(#pa39e71575d)" style="opacity: 0.5"/>
   </g>
   <g id="patch_50">
    <path d="M 385.236067 307.584 
L 391.86167 307.584 
L 391.86167 307.584 
L 385.236067 307.584 
z
" clip-path="url(#pa39e71575d)" style="opacity: 0.5"/>
   </g>
   <g id="patch_51">
    <path d="M 391.86167 307.584 
L 398.487273 307.584 
L 398.487273 307.584 
L 391.86167 307.584 
z
" clip-path="url(#pa39e71575d)" style="opacity: 0.5"/>
   </g>
   <g id="matplotlib.axis_1">
    <g id="xtick_1">
     <g id="line2d_1">
      <defs>
       <path id="mb44c55f47a" d="M 0 0 
L 0 3.5 
" style="stroke: #000000; stroke-width: 0.8"/>
      </defs>
      <g>
       <use xlink:href="#mb44c55f47a" x="73.832727" y="307.584" style="stroke: #000000; stroke-width: 0.8"/>
      </g>
     </g>
     <g id="text_1">
      <!-- 8.5 -->
      <g transform="translate(65.881165 322.182437)scale(0.1 -0.1)">
       <defs>
        <path id="DejaVuSans-38" d="M 2034 2216 
Q 1584 2216 1326 1975 
Q 1069 1734 1069 1313 
Q 1069 891 1326 650 
Q 1584 409 2034 409 
Q 2484 409 2743 651 
Q 3003 894 3003 1313 
Q 3003 1734 2745 1975 
Q 2488 2216 2034 2216 
z
M 1403 2484 
Q 997 2584 770 2862 
Q 544 3141 544 3541 
Q 544 4100 942 4425 
Q 1341 4750 2034 4750 
Q 2731 4750 3128 4425 
Q 3525 4100 3525 3541 
Q 3525 3141 3298 2862 
Q 3072 2584 2669 2484 
Q 3125 2378 3379 2068 
Q 3634 1759 3634 1313 
Q 3634 634 3220 271 
Q 2806 -91 2034 -91 
Q 1263 -91 848 271 
Q 434 634 434 1313 
Q 434 1759 690 2068 
Q 947 2378 1403 2484 
z
M 1172 3481 
Q 1172 3119 1398 2916 
Q 1625 2713 2034 2713 
Q 2441 2713 2670 2916 
Q 2900 3119 2900 3481 
Q 2900 3844 2670 4047 
Q 2441 4250 2034 4250 
Q 1625 4250 1398 4047 
Q 1172 3844 1172 3481 
z
" transform="scale(0.015625)"/>
        <path id="DejaVuSans-2e" d="M 684 794 
L 1344 794 
L 1344 0 
L 684 0 
L 684 794 
z
" transform="scale(0.015625)"/>
        <path id="DejaVuSans-35" d="M 691 4666 
L 3169 4666 
L 3169 4134 
L 1269 4134 
L 1269 2991 
Q 1406 3038 1543 3061 
Q 1681 3084 1819 3084 
Q 2600 3084 3056 2656 
Q 3513 2228 3513 1497 
Q 3513 744 3044 326 
Q 2575 -91 1722 -91 
Q 1428 -91 1123 -41 
Q 819 9 494 109 
L 494 744 
Q 775 591 1075 516 
Q 1375 441 1709 441 
Q 2250 441 2565 725 
Q 2881 1009 2881 1497 
Q 2881 1984 2565 2268 
Q 2250 2553 1709 2553 
Q 1456 2553 1204 2497 
Q 953 2441 691 2322 
L 691 4666 
z
" transform="scale(0.015625)"/>
       </defs>
       <use xlink:href="#DejaVuSans-38"/>
       <use xlink:href="#DejaVuSans-2e" x="63.623047"/>
       <use xlink:href="#DejaVuSans-35" x="95.410156"/>
      </g>
     </g>
    </g>
    <g id="xtick_2">
     <g id="line2d_2">
      <g>
       <use xlink:href="#mb44c55f47a" x="127.941818" y="307.584" style="stroke: #000000; stroke-width: 0.8"/>
      </g>
     </g>
     <g id="text_2">
      <!-- 9.0 -->
      <g transform="translate(119.990256 322.182437)scale(0.1 -0.1)">
       <defs>
        <path id="DejaVuSans-39" d="M 703 97 
L 703 672 
Q 941 559 1184 500 
Q 1428 441 1663 441 
Q 2288 441 2617 861 
Q 2947 1281 2994 2138 
Q 2813 1869 2534 1725 
Q 2256 1581 1919 1581 
Q 1219 1581 811 2004 
Q 403 2428 403 3163 
Q 403 3881 828 4315 
Q 1253 4750 1959 4750 
Q 2769 4750 3195 4129 
Q 3622 3509 3622 2328 
Q 3622 1225 3098 567 
Q 2575 -91 1691 -91 
Q 1453 -91 1209 -44 
Q 966 3 703 97 
z
M 1959 2075 
Q 2384 2075 2632 2365 
Q 2881 2656 2881 3163 
Q 2881 3666 2632 3958 
Q 2384 4250 1959 4250 
Q 1534 4250 1286 3958 
Q 1038 3666 1038 3163 
Q 1038 2656 1286 2365 
Q 1534 2075 1959 2075 
z
" transform="scale(0.015625)"/>
        <path id="DejaVuSans-30" d="M 2034 4250 
Q 1547 4250 1301 3770 
Q 1056 3291 1056 2328 
Q 1056 1369 1301 889 
Q 1547 409 2034 409 
Q 2525 409 2770 889 
Q 3016 1369 3016 2328 
Q 3016 3291 2770 3770 
Q 2525 4250 2034 4250 
z
M 2034 4750 
Q 2819 4750 3233 4129 
Q 3647 3509 3647 2328 
Q 3647 1150 3233 529 
Q 2819 -91 2034 -91 
Q 1250 -91 836 529 
Q 422 1150 422 2328 
Q 422 3509 836 4129 
Q 1250 4750 2034 4750 
z
" transform="scale(0.015625)"/>
       </defs>
       <use xlink:href="#DejaVuSans-39"/>
       <use xlink:href="#DejaVuSans-2e" x="63.623047"/>
       <use xlink:href="#DejaVuSans-30" x="95.410156"/>
      </g>
     </g>
    </g>
    <g id="xtick_3">
     <g id="line2d_3">
      <g>
       <use xlink:href="#mb44c55f47a" x="182.050909" y="307.584" style="stroke: #000000; stroke-width: 0.8"/>
      </g>
     </g>
     <g id="text_3">
      <!-- 9.5 -->
      <g transform="translate(174.099347 322.182437)scale(0.1 -0.1)">
       <use xlink:href="#DejaVuSans-39"/>
       <use xlink:href="#DejaVuSans-2e" x="63.623047"/>
       <use xlink:href="#DejaVuSans-35" x="95.410156"/>
      </g>
     </g>
    </g>
    <g id="xtick_4">
     <g id="line2d_4">
      <g>
       <use xlink:href="#mb44c55f47a" x="236.16" y="307.584" style="stroke: #000000; stroke-width: 0.8"/>
      </g>
     </g>
     <g id="text_4">
      <!-- 10.0 -->
      <g transform="translate(225.027187 322.182437)scale(0.1 -0.1)">
       <defs>
        <path id="DejaVuSans-31" d="M 794 531 
L 1825 531 
L 1825 4091 
L 703 3866 
L 703 4441 
L 1819 4666 
L 2450 4666 
L 2450 531 
L 3481 531 
L 3481 0 
L 794 0 
L 794 531 
z
" transform="scale(0.015625)"/>
       </defs>
       <use xlink:href="#DejaVuSans-31"/>
       <use xlink:href="#DejaVuSans-30" x="63.623047"/>
       <use xlink:href="#DejaVuSans-2e" x="127.246094"/>
       <use xlink:href="#DejaVuSans-30" x="159.033203"/>
      </g>
     </g>
    </g>
    <g id="xtick_5">
     <g id="line2d_5">
      <g>
       <use xlink:href="#mb44c55f47a" x="290.269091" y="307.584" style="stroke: #000000; stroke-width: 0.8"/>
      </g>
     </g>
     <g id="text_5">
      <!-- 10.5 -->
      <g transform="translate(279.136278 322.182437)scale(0.1 -0.1)">
       <use xlink:href="#DejaVuSans-31"/>
       <use xlink:href="#DejaVuSans-30" x="63.623047"/>
       <use xlink:href="#DejaVuSans-2e" x="127.246094"/>
       <use xlink:href="#DejaVuSans-35" x="159.033203"/>
      </g>
     </g>
    </g>
    <g id="xtick_6">
     <g id="line2d_6">
      <g>
       <use xlink:href="#mb44c55f47a" x="344.378182" y="307.584" style="stroke: #000000; stroke-width: 0.8"/>
      </g>
     </g>
     <g id="text_6">
      <!-- 11.0 -->
      <g transform="translate(333.245369 322.182437)scale(0.1 -0.1)">
       <use xlink:href="#DejaVuSans-31"/>
       <use xlink:href="#DejaVuSans-31" x="63.623047"/>
       <use xlink:href="#DejaVuSans-2e" x="127.246094"/>
       <use xlink:href="#DejaVuSans-30" x="159.033203"/>
      </g>
     </g>
    </g>
    <g id="xtick_7">
     <g id="line2d_7">
      <g>
       <use xlink:href="#mb44c55f47a" x="398.487273" y="307.584" style="stroke: #000000; stroke-width: 0.8"/>
      </g>
     </g>
     <g id="text_7">
      <!-- 11.5 -->
      <g transform="translate(387.35446 322.182437)scale(0.1 -0.1)">
       <use xlink:href="#DejaVuSans-31"/>
       <use xlink:href="#DejaVuSans-31" x="63.623047"/>
       <use xlink:href="#DejaVuSans-2e" x="127.246094"/>
       <use xlink:href="#DejaVuSans-35" x="159.033203"/>
      </g>
     </g>
    </g>
    <g id="text_8">
     <!-- $\overline{X}$ -->
     <g transform="translate(232.71 335.982438)scale(0.1 -0.1)">
      <defs>
       <path id="DejaVuSans-Oblique-58" d="M 878 4666 
L 1516 4666 
L 2316 2981 
L 3763 4666 
L 4500 4666 
L 2578 2438 
L 3738 0 
L 3103 0 
L 2163 1966 
L 459 0 
L -275 0 
L 1906 2509 
L 878 4666 
z
" transform="scale(0.015625)"/>
      </defs>
      <use xlink:href="#DejaVuSans-Oblique-58" transform="translate(0 0.84375)"/>
      <path d="M 0 85.5 
L 0 91.75 
L 68.505859 91.75 
L 68.505859 85.5 
L 0 85.5 
z
"/>
     </g>
    </g>
   </g>
   <g id="matplotlib.axis_2">
    <g id="ytick_1">
     <g id="line2d_8">
      <defs>
       <path id="mc66e5b79d4" d="M 0 0 
L -3.5 0 
" style="stroke: #000000; stroke-width: 0.8"/>
      </defs>
      <g>
       <use xlink:href="#mc66e5b79d4" x="57.6" y="307.584" style="stroke: #000000; stroke-width: 0.8"/>
      </g>
     </g>
     <g id="text_9">
      <!-- 0.0 -->
      <g transform="translate(34.696875 311.383219)scale(0.1 -0.1)">
       <use xlink:href="#DejaVuSans-30"/>
       <use xlink:href="#DejaVuSans-2e" x="63.623047"/>
       <use xlink:href="#DejaVuSans-30" x="95.410156"/>
      </g>
     </g>
    </g>
    <g id="ytick_2">
     <g id="line2d_9">
      <g>
       <use xlink:href="#mc66e5b79d4" x="57.6" y="267.695222" style="stroke: #000000; stroke-width: 0.8"/>
      </g>
     </g>
     <g id="text_10">
      <!-- 0.2 -->
      <g transform="translate(34.696875 271.494441)scale(0.1 -0.1)">
       <defs>
        <path id="DejaVuSans-32" d="M 1228 531 
L 3431 531 
L 3431 0 
L 469 0 
L 469 531 
Q 828 903 1448 1529 
Q 2069 2156 2228 2338 
Q 2531 2678 2651 2914 
Q 2772 3150 2772 3378 
Q 2772 3750 2511 3984 
Q 2250 4219 1831 4219 
Q 1534 4219 1204 4116 
Q 875 4013 500 3803 
L 500 4441 
Q 881 4594 1212 4672 
Q 1544 4750 1819 4750 
Q 2544 4750 2975 4387 
Q 3406 4025 3406 3419 
Q 3406 3131 3298 2873 
Q 3191 2616 2906 2266 
Q 2828 2175 2409 1742 
Q 1991 1309 1228 531 
z
" transform="scale(0.015625)"/>
       </defs>
       <use xlink:href="#DejaVuSans-30"/>
       <use xlink:href="#DejaVuSans-2e" x="63.623047"/>
       <use xlink:href="#DejaVuSans-32" x="95.410156"/>
      </g>
     </g>
    </g>
    <g id="ytick_3">
     <g id="line2d_10">
      <g>
       <use xlink:href="#mc66e5b79d4" x="57.6" y="227.806444" style="stroke: #000000; stroke-width: 0.8"/>
      </g>
     </g>
     <g id="text_11">
      <!-- 0.4 -->
      <g transform="translate(34.696875 231.605662)scale(0.1 -0.1)">
       <defs>
        <path id="DejaVuSans-34" d="M 2419 4116 
L 825 1625 
L 2419 1625 
L 2419 4116 
z
M 2253 4666 
L 3047 4666 
L 3047 1625 
L 3713 1625 
L 3713 1100 
L 3047 1100 
L 3047 0 
L 2419 0 
L 2419 1100 
L 313 1100 
L 313 1709 
L 2253 4666 
z
" transform="scale(0.015625)"/>
       </defs>
       <use xlink:href="#DejaVuSans-30"/>
       <use xlink:href="#DejaVuSans-2e" x="63.623047"/>
       <use xlink:href="#DejaVuSans-34" x="95.410156"/>
      </g>
     </g>
    </g>
    <g id="ytick_4">
     <g id="line2d_11">
      <g>
       <use xlink:href="#mc66e5b79d4" x="57.6" y="187.917666" style="stroke: #000000; stroke-width: 0.8"/>
      </g>
     </g>
     <g id="text_12">
      <!-- 0.6 -->
      <g transform="translate(34.696875 191.716884)scale(0.1 -0.1)">
       <defs>
        <path id="DejaVuSans-36" d="M 2113 2584 
Q 1688 2584 1439 2293 
Q 1191 2003 1191 1497 
Q 1191 994 1439 701 
Q 1688 409 2113 409 
Q 2538 409 2786 701 
Q 3034 994 3034 1497 
Q 3034 2003 2786 2293 
Q 2538 2584 2113 2584 
z
M 3366 4563 
L 3366 3988 
Q 3128 4100 2886 4159 
Q 2644 4219 2406 4219 
Q 1781 4219 1451 3797 
Q 1122 3375 1075 2522 
Q 1259 2794 1537 2939 
Q 1816 3084 2150 3084 
Q 2853 3084 3261 2657 
Q 3669 2231 3669 1497 
Q 3669 778 3244 343 
Q 2819 -91 2113 -91 
Q 1303 -91 875 529 
Q 447 1150 447 2328 
Q 447 3434 972 4092 
Q 1497 4750 2381 4750 
Q 2619 4750 2861 4703 
Q 3103 4656 3366 4563 
z
" transform="scale(0.015625)"/>
       </defs>
       <use xlink:href="#DejaVuSans-30"/>
       <use xlink:href="#DejaVuSans-2e" x="63.623047"/>
       <use xlink:href="#DejaVuSans-36" x="95.410156"/>
      </g>
     </g>
    </g>
    <g id="ytick_5">
     <g id="line2d_12">
      <g>
       <use xlink:href="#mc66e5b79d4" x="57.6" y="148.028887" style="stroke: #000000; stroke-width: 0.8"/>
      </g>
     </g>
     <g id="text_13">
      <!-- 0.8 -->
      <g transform="translate(34.696875 151.828106)scale(0.1 -0.1)">
       <use xlink:href="#DejaVuSans-30"/>
       <use xlink:href="#DejaVuSans-2e" x="63.623047"/>
       <use xlink:href="#DejaVuSans-38" x="95.410156"/>
      </g>
     </g>
    </g>
    <g id="ytick_6">
     <g id="line2d_13">
      <g>
       <use xlink:href="#mc66e5b79d4" x="57.6" y="108.140109" style="stroke: #000000; stroke-width: 0.8"/>
      </g>
     </g>
     <g id="text_14">
      <!-- 1.0 -->
      <g transform="translate(34.696875 111.939328)scale(0.1 -0.1)">
       <use xlink:href="#DejaVuSans-31"/>
       <use xlink:href="#DejaVuSans-2e" x="63.623047"/>
       <use xlink:href="#DejaVuSans-30" x="95.410156"/>
      </g>
     </g>
    </g>
    <g id="ytick_7">
     <g id="line2d_14">
      <g>
       <use xlink:href="#mc66e5b79d4" x="57.6" y="68.251331" style="stroke: #000000; stroke-width: 0.8"/>
      </g>
     </g>
     <g id="text_15">
      <!-- 1.2 -->
      <g transform="translate(34.696875 72.05055)scale(0.1 -0.1)">
       <use xlink:href="#DejaVuSans-31"/>
       <use xlink:href="#DejaVuSans-2e" x="63.623047"/>
       <use xlink:href="#DejaVuSans-32" x="95.410156"/>
      </g>
     </g>
    </g>
    <g id="text_16">
     <!-- $pdf(\overline{X})$ -->
     <g transform="translate(28.596875 189.978)rotate(-90)scale(0.1 -0.1)">
      <defs>
       <path id="DejaVuSans-Oblique-70" d="M 3175 2156 
Q 3175 2616 2975 2859 
Q 2775 3103 2400 3103 
Q 2144 3103 1911 2972 
Q 1678 2841 1497 2591 
Q 1319 2344 1212 1994 
Q 1106 1644 1106 1300 
Q 1106 863 1306 627 
Q 1506 391 1875 391 
Q 2147 391 2380 519 
Q 2613 647 2778 891 
Q 2956 1147 3065 1494 
Q 3175 1841 3175 2156 
z
M 1394 2969 
Q 1625 3272 1939 3428 
Q 2253 3584 2638 3584 
Q 3175 3584 3472 3232 
Q 3769 2881 3769 2247 
Q 3769 1728 3584 1258 
Q 3400 788 3053 416 
Q 2822 169 2531 39 
Q 2241 -91 1919 -91 
Q 1547 -91 1294 64 
Q 1041 219 916 525 
L 556 -1331 
L -19 -1331 
L 922 3500 
L 1497 3500 
L 1394 2969 
z
" transform="scale(0.015625)"/>
       <path id="DejaVuSans-Oblique-64" d="M 2675 525 
Q 2444 222 2128 65 
Q 1813 -91 1428 -91 
Q 903 -91 598 267 
Q 294 625 294 1247 
Q 294 1766 478 2236 
Q 663 2706 1013 3078 
Q 1244 3325 1534 3454 
Q 1825 3584 2144 3584 
Q 2481 3584 2739 3421 
Q 2997 3259 3138 2956 
L 3513 4863 
L 4091 4863 
L 3144 0 
L 2566 0 
L 2675 525 
z
M 891 1350 
Q 891 897 1095 644 
Q 1300 391 1663 391 
Q 1931 391 2161 520 
Q 2391 650 2566 903 
Q 2750 1166 2856 1509 
Q 2963 1853 2963 2188 
Q 2963 2622 2758 2865 
Q 2553 3109 2194 3109 
Q 1922 3109 1687 2981 
Q 1453 2853 1288 2613 
Q 1106 2353 998 2009 
Q 891 1666 891 1350 
z
" transform="scale(0.015625)"/>
       <path id="DejaVuSans-Oblique-66" d="M 3059 4863 
L 2969 4384 
L 2419 4384 
Q 2106 4384 1964 4261 
Q 1822 4138 1753 3809 
L 1691 3500 
L 2638 3500 
L 2553 3053 
L 1606 3053 
L 1013 0 
L 434 0 
L 1031 3053 
L 481 3053 
L 563 3500 
L 1113 3500 
L 1159 3744 
Q 1278 4363 1576 4613 
Q 1875 4863 2516 4863 
L 3059 4863 
z
" transform="scale(0.015625)"/>
       <path id="DejaVuSans-28" d="M 1984 4856 
Q 1566 4138 1362 3434 
Q 1159 2731 1159 2009 
Q 1159 1288 1364 580 
Q 1569 -128 1984 -844 
L 1484 -844 
Q 1016 -109 783 600 
Q 550 1309 550 2009 
Q 550 2706 781 3412 
Q 1013 4119 1484 4856 
L 1984 4856 
z
" transform="scale(0.015625)"/>
       <path id="DejaVuSans-29" d="M 513 4856 
L 1013 4856 
Q 1481 4119 1714 3412 
Q 1947 2706 1947 2009 
Q 1947 1309 1714 600 
Q 1481 -109 1013 -844 
L 513 -844 
Q 928 -128 1133 580 
Q 1338 1288 1338 2009 
Q 1338 2731 1133 3434 
Q 928 4138 513 4856 
z
" transform="scale(0.015625)"/>
      </defs>
      <use xlink:href="#DejaVuSans-Oblique-70" transform="translate(0 0.34375)"/>
      <use xlink:href="#DejaVuSans-Oblique-64" transform="translate(63.476562 0.34375)"/>
      <use xlink:href="#DejaVuSans-Oblique-66" transform="translate(126.953125 0.34375)"/>
      <use xlink:href="#DejaVuSans-28" transform="translate(162.158203 0.34375)"/>
      <use xlink:href="#DejaVuSans-Oblique-58" transform="translate(201.171875 0.84375)"/>
      <use xlink:href="#DejaVuSans-29" transform="translate(269.677734 0.34375)"/>
      <path d="M 201.171875 85.5 
L 201.171875 91.75 
L 269.677734 91.75 
L 269.677734 85.5 
L 201.171875 85.5 
z
"/>
     </g>
    </g>
   </g>
   <g id="patch_52">
    <path d="M 57.6 307.584 
L 57.6 41.472 
" style="fill: none; stroke: #000000; stroke-width: 0.8; stroke-linejoin: miter; stroke-linecap: square"/>
   </g>
   <g id="patch_53">
    <path d="M 414.72 307.584 
L 414.72 41.472 
" style="fill: none; stroke: #000000; stroke-width: 0.8; stroke-linejoin: miter; stroke-linecap: square"/>
   </g>
   <g id="patch_54">
    <path d="M 57.6 307.584 
L 414.72 307.584 
" style="fill: none; stroke: #000000; stroke-width: 0.8; stroke-linejoin: miter; stroke-linecap: square"/>
   </g>
   <g id="patch_55">
    <path d="M 57.6 41.472 
L 414.72 41.472 
" style="fill: none; stroke: #000000; stroke-width: 0.8; stroke-linejoin: miter; stroke-linecap: square"/>
   </g>
   <g id="text_17">
    <!-- 94.9% of time $\mu$ in CI range given by eqn. 7.15: -->
    <g transform="translate(93.72 18.84)scale(0.12 -0.12)">
     <defs>
      <path id="DejaVuSans-25" d="M 4653 2053 
Q 4381 2053 4226 1822 
Q 4072 1591 4072 1178 
Q 4072 772 4226 539 
Q 4381 306 4653 306 
Q 4919 306 5073 539 
Q 5228 772 5228 1178 
Q 5228 1588 5073 1820 
Q 4919 2053 4653 2053 
z
M 4653 2450 
Q 5147 2450 5437 2106 
Q 5728 1763 5728 1178 
Q 5728 594 5436 251 
Q 5144 -91 4653 -91 
Q 4153 -91 3862 251 
Q 3572 594 3572 1178 
Q 3572 1766 3864 2108 
Q 4156 2450 4653 2450 
z
M 1428 4353 
Q 1159 4353 1004 4120 
Q 850 3888 850 3481 
Q 850 3069 1003 2837 
Q 1156 2606 1428 2606 
Q 1700 2606 1854 2837 
Q 2009 3069 2009 3481 
Q 2009 3884 1853 4118 
Q 1697 4353 1428 4353 
z
M 4250 4750 
L 4750 4750 
L 1831 -91 
L 1331 -91 
L 4250 4750 
z
M 1428 4750 
Q 1922 4750 2215 4408 
Q 2509 4066 2509 3481 
Q 2509 2891 2217 2550 
Q 1925 2209 1428 2209 
Q 931 2209 642 2551 
Q 353 2894 353 3481 
Q 353 4063 643 4406 
Q 934 4750 1428 4750 
z
" transform="scale(0.015625)"/>
      <path id="DejaVuSans-20" transform="scale(0.015625)"/>
      <path id="DejaVuSans-6f" d="M 1959 3097 
Q 1497 3097 1228 2736 
Q 959 2375 959 1747 
Q 959 1119 1226 758 
Q 1494 397 1959 397 
Q 2419 397 2687 759 
Q 2956 1122 2956 1747 
Q 2956 2369 2687 2733 
Q 2419 3097 1959 3097 
z
M 1959 3584 
Q 2709 3584 3137 3096 
Q 3566 2609 3566 1747 
Q 3566 888 3137 398 
Q 2709 -91 1959 -91 
Q 1206 -91 779 398 
Q 353 888 353 1747 
Q 353 2609 779 3096 
Q 1206 3584 1959 3584 
z
" transform="scale(0.015625)"/>
      <path id="DejaVuSans-66" d="M 2375 4863 
L 2375 4384 
L 1825 4384 
Q 1516 4384 1395 4259 
Q 1275 4134 1275 3809 
L 1275 3500 
L 2222 3500 
L 2222 3053 
L 1275 3053 
L 1275 0 
L 697 0 
L 697 3053 
L 147 3053 
L 147 3500 
L 697 3500 
L 697 3744 
Q 697 4328 969 4595 
Q 1241 4863 1831 4863 
L 2375 4863 
z
" transform="scale(0.015625)"/>
      <path id="DejaVuSans-74" d="M 1172 4494 
L 1172 3500 
L 2356 3500 
L 2356 3053 
L 1172 3053 
L 1172 1153 
Q 1172 725 1289 603 
Q 1406 481 1766 481 
L 2356 481 
L 2356 0 
L 1766 0 
Q 1100 0 847 248 
Q 594 497 594 1153 
L 594 3053 
L 172 3053 
L 172 3500 
L 594 3500 
L 594 4494 
L 1172 4494 
z
" transform="scale(0.015625)"/>
      <path id="DejaVuSans-69" d="M 603 3500 
L 1178 3500 
L 1178 0 
L 603 0 
L 603 3500 
z
M 603 4863 
L 1178 4863 
L 1178 4134 
L 603 4134 
L 603 4863 
z
" transform="scale(0.015625)"/>
      <path id="DejaVuSans-6d" d="M 3328 2828 
Q 3544 3216 3844 3400 
Q 4144 3584 4550 3584 
Q 5097 3584 5394 3201 
Q 5691 2819 5691 2113 
L 5691 0 
L 5113 0 
L 5113 2094 
Q 5113 2597 4934 2840 
Q 4756 3084 4391 3084 
Q 3944 3084 3684 2787 
Q 3425 2491 3425 1978 
L 3425 0 
L 2847 0 
L 2847 2094 
Q 2847 2600 2669 2842 
Q 2491 3084 2119 3084 
Q 1678 3084 1418 2786 
Q 1159 2488 1159 1978 
L 1159 0 
L 581 0 
L 581 3500 
L 1159 3500 
L 1159 2956 
Q 1356 3278 1631 3431 
Q 1906 3584 2284 3584 
Q 2666 3584 2933 3390 
Q 3200 3197 3328 2828 
z
" transform="scale(0.015625)"/>
      <path id="DejaVuSans-65" d="M 3597 1894 
L 3597 1613 
L 953 1613 
Q 991 1019 1311 708 
Q 1631 397 2203 397 
Q 2534 397 2845 478 
Q 3156 559 3463 722 
L 3463 178 
Q 3153 47 2828 -22 
Q 2503 -91 2169 -91 
Q 1331 -91 842 396 
Q 353 884 353 1716 
Q 353 2575 817 3079 
Q 1281 3584 2069 3584 
Q 2775 3584 3186 3129 
Q 3597 2675 3597 1894 
z
M 3022 2063 
Q 3016 2534 2758 2815 
Q 2500 3097 2075 3097 
Q 1594 3097 1305 2825 
Q 1016 2553 972 2059 
L 3022 2063 
z
" transform="scale(0.015625)"/>
      <path id="DejaVuSans-Oblique-3bc" d="M -84 -1331 
L 856 3500 
L 1434 3500 
L 1009 1322 
Q 997 1256 987 1175 
Q 978 1094 978 1013 
Q 978 722 1161 565 
Q 1344 409 1684 409 
Q 2147 409 2431 671 
Q 2716 934 2816 1459 
L 3213 3500 
L 3788 3500 
L 3266 809 
Q 3253 750 3248 706 
Q 3244 663 3244 628 
Q 3244 531 3283 486 
Q 3322 441 3406 441 
Q 3438 441 3492 456 
Q 3547 472 3647 513 
L 3559 50 
Q 3422 -19 3297 -55 
Q 3172 -91 3053 -91 
Q 2847 -91 2730 40 
Q 2613 172 2613 403 
Q 2438 153 2195 31 
Q 1953 -91 1625 -91 
Q 1334 -91 1117 43 
Q 900 178 831 397 
L 494 -1331 
L -84 -1331 
z
" transform="scale(0.015625)"/>
      <path id="DejaVuSans-6e" d="M 3513 2113 
L 3513 0 
L 2938 0 
L 2938 2094 
Q 2938 2591 2744 2837 
Q 2550 3084 2163 3084 
Q 1697 3084 1428 2787 
Q 1159 2491 1159 1978 
L 1159 0 
L 581 0 
L 581 3500 
L 1159 3500 
L 1159 2956 
Q 1366 3272 1645 3428 
Q 1925 3584 2291 3584 
Q 2894 3584 3203 3211 
Q 3513 2838 3513 2113 
z
" transform="scale(0.015625)"/>
      <path id="DejaVuSans-43" d="M 4122 4306 
L 4122 3641 
Q 3803 3938 3442 4084 
Q 3081 4231 2675 4231 
Q 1875 4231 1450 3742 
Q 1025 3253 1025 2328 
Q 1025 1406 1450 917 
Q 1875 428 2675 428 
Q 3081 428 3442 575 
Q 3803 722 4122 1019 
L 4122 359 
Q 3791 134 3420 21 
Q 3050 -91 2638 -91 
Q 1578 -91 968 557 
Q 359 1206 359 2328 
Q 359 3453 968 4101 
Q 1578 4750 2638 4750 
Q 3056 4750 3426 4639 
Q 3797 4528 4122 4306 
z
" transform="scale(0.015625)"/>
      <path id="DejaVuSans-49" d="M 628 4666 
L 1259 4666 
L 1259 0 
L 628 0 
L 628 4666 
z
" transform="scale(0.015625)"/>
      <path id="DejaVuSans-72" d="M 2631 2963 
Q 2534 3019 2420 3045 
Q 2306 3072 2169 3072 
Q 1681 3072 1420 2755 
Q 1159 2438 1159 1844 
L 1159 0 
L 581 0 
L 581 3500 
L 1159 3500 
L 1159 2956 
Q 1341 3275 1631 3429 
Q 1922 3584 2338 3584 
Q 2397 3584 2469 3576 
Q 2541 3569 2628 3553 
L 2631 2963 
z
" transform="scale(0.015625)"/>
      <path id="DejaVuSans-61" d="M 2194 1759 
Q 1497 1759 1228 1600 
Q 959 1441 959 1056 
Q 959 750 1161 570 
Q 1363 391 1709 391 
Q 2188 391 2477 730 
Q 2766 1069 2766 1631 
L 2766 1759 
L 2194 1759 
z
M 3341 1997 
L 3341 0 
L 2766 0 
L 2766 531 
Q 2569 213 2275 61 
Q 1981 -91 1556 -91 
Q 1019 -91 701 211 
Q 384 513 384 1019 
Q 384 1609 779 1909 
Q 1175 2209 1959 2209 
L 2766 2209 
L 2766 2266 
Q 2766 2663 2505 2880 
Q 2244 3097 1772 3097 
Q 1472 3097 1187 3025 
Q 903 2953 641 2809 
L 641 3341 
Q 956 3463 1253 3523 
Q 1550 3584 1831 3584 
Q 2591 3584 2966 3190 
Q 3341 2797 3341 1997 
z
" transform="scale(0.015625)"/>
      <path id="DejaVuSans-67" d="M 2906 1791 
Q 2906 2416 2648 2759 
Q 2391 3103 1925 3103 
Q 1463 3103 1205 2759 
Q 947 2416 947 1791 
Q 947 1169 1205 825 
Q 1463 481 1925 481 
Q 2391 481 2648 825 
Q 2906 1169 2906 1791 
z
M 3481 434 
Q 3481 -459 3084 -895 
Q 2688 -1331 1869 -1331 
Q 1566 -1331 1297 -1286 
Q 1028 -1241 775 -1147 
L 775 -588 
Q 1028 -725 1275 -790 
Q 1522 -856 1778 -856 
Q 2344 -856 2625 -561 
Q 2906 -266 2906 331 
L 2906 616 
Q 2728 306 2450 153 
Q 2172 0 1784 0 
Q 1141 0 747 490 
Q 353 981 353 1791 
Q 353 2603 747 3093 
Q 1141 3584 1784 3584 
Q 2172 3584 2450 3431 
Q 2728 3278 2906 2969 
L 2906 3500 
L 3481 3500 
L 3481 434 
z
" transform="scale(0.015625)"/>
      <path id="DejaVuSans-76" d="M 191 3500 
L 800 3500 
L 1894 563 
L 2988 3500 
L 3597 3500 
L 2284 0 
L 1503 0 
L 191 3500 
z
" transform="scale(0.015625)"/>
      <path id="DejaVuSans-62" d="M 3116 1747 
Q 3116 2381 2855 2742 
Q 2594 3103 2138 3103 
Q 1681 3103 1420 2742 
Q 1159 2381 1159 1747 
Q 1159 1113 1420 752 
Q 1681 391 2138 391 
Q 2594 391 2855 752 
Q 3116 1113 3116 1747 
z
M 1159 2969 
Q 1341 3281 1617 3432 
Q 1894 3584 2278 3584 
Q 2916 3584 3314 3078 
Q 3713 2572 3713 1747 
Q 3713 922 3314 415 
Q 2916 -91 2278 -91 
Q 1894 -91 1617 61 
Q 1341 213 1159 525 
L 1159 0 
L 581 0 
L 581 4863 
L 1159 4863 
L 1159 2969 
z
" transform="scale(0.015625)"/>
      <path id="DejaVuSans-79" d="M 2059 -325 
Q 1816 -950 1584 -1140 
Q 1353 -1331 966 -1331 
L 506 -1331 
L 506 -850 
L 844 -850 
Q 1081 -850 1212 -737 
Q 1344 -625 1503 -206 
L 1606 56 
L 191 3500 
L 800 3500 
L 1894 763 
L 2988 3500 
L 3597 3500 
L 2059 -325 
z
" transform="scale(0.015625)"/>
      <path id="DejaVuSans-71" d="M 947 1747 
Q 947 1113 1208 752 
Q 1469 391 1925 391 
Q 2381 391 2643 752 
Q 2906 1113 2906 1747 
Q 2906 2381 2643 2742 
Q 2381 3103 1925 3103 
Q 1469 3103 1208 2742 
Q 947 2381 947 1747 
z
M 2906 525 
Q 2725 213 2448 61 
Q 2172 -91 1784 -91 
Q 1150 -91 751 415 
Q 353 922 353 1747 
Q 353 2572 751 3078 
Q 1150 3584 1784 3584 
Q 2172 3584 2448 3432 
Q 2725 3281 2906 2969 
L 2906 3500 
L 3481 3500 
L 3481 -1331 
L 2906 -1331 
L 2906 525 
z
" transform="scale(0.015625)"/>
      <path id="DejaVuSans-37" d="M 525 4666 
L 3525 4666 
L 3525 4397 
L 1831 0 
L 1172 0 
L 2766 4134 
L 525 4134 
L 525 4666 
z
" transform="scale(0.015625)"/>
      <path id="DejaVuSans-3a" d="M 750 794 
L 1409 794 
L 1409 0 
L 750 0 
L 750 794 
z
M 750 3309 
L 1409 3309 
L 1409 2516 
L 750 2516 
L 750 3309 
z
" transform="scale(0.015625)"/>
     </defs>
     <use xlink:href="#DejaVuSans-39" transform="translate(0 0.015625)"/>
     <use xlink:href="#DejaVuSans-34" transform="translate(63.623047 0.015625)"/>
     <use xlink:href="#DejaVuSans-2e" transform="translate(127.246094 0.015625)"/>
     <use xlink:href="#DejaVuSans-39" transform="translate(159.033203 0.015625)"/>
     <use xlink:href="#DejaVuSans-25" transform="translate(222.65625 0.015625)"/>
     <use xlink:href="#DejaVuSans-20" transform="translate(317.675781 0.015625)"/>
     <use xlink:href="#DejaVuSans-6f" transform="translate(349.462891 0.015625)"/>
     <use xlink:href="#DejaVuSans-66" transform="translate(410.644531 0.015625)"/>
     <use xlink:href="#DejaVuSans-20" transform="translate(445.849609 0.015625)"/>
     <use xlink:href="#DejaVuSans-74" transform="translate(477.636719 0.015625)"/>
     <use xlink:href="#DejaVuSans-69" transform="translate(516.845703 0.015625)"/>
     <use xlink:href="#DejaVuSans-6d" transform="translate(544.628906 0.015625)"/>
     <use xlink:href="#DejaVuSans-65" transform="translate(642.041016 0.015625)"/>
     <use xlink:href="#DejaVuSans-20" transform="translate(703.564453 0.015625)"/>
     <use xlink:href="#DejaVuSans-Oblique-3bc" transform="translate(735.351562 0.015625)"/>
     <use xlink:href="#DejaVuSans-20" transform="translate(798.974609 0.015625)"/>
     <use xlink:href="#DejaVuSans-69" transform="translate(830.761719 0.015625)"/>
     <use xlink:href="#DejaVuSans-6e" transform="translate(858.544922 0.015625)"/>
     <use xlink:href="#DejaVuSans-20" transform="translate(921.923828 0.015625)"/>
     <use xlink:href="#DejaVuSans-43" transform="translate(953.710938 0.015625)"/>
     <use xlink:href="#DejaVuSans-49" transform="translate(1023.535156 0.015625)"/>
     <use xlink:href="#DejaVuSans-20" transform="translate(1053.027344 0.015625)"/>
     <use xlink:href="#DejaVuSans-72" transform="translate(1084.814453 0.015625)"/>
     <use xlink:href="#DejaVuSans-61" transform="translate(1125.927734 0.015625)"/>
     <use xlink:href="#DejaVuSans-6e" transform="translate(1187.207031 0.015625)"/>
     <use xlink:href="#DejaVuSans-67" transform="translate(1250.585938 0.015625)"/>
     <use xlink:href="#DejaVuSans-65" transform="translate(1314.0625 0.015625)"/>
     <use xlink:href="#DejaVuSans-20" transform="translate(1375.585938 0.015625)"/>
     <use xlink:href="#DejaVuSans-67" transform="translate(1407.373047 0.015625)"/>
     <use xlink:href="#DejaVuSans-69" transform="translate(1470.849609 0.015625)"/>
     <use xlink:href="#DejaVuSans-76" transform="translate(1498.632812 0.015625)"/>
     <use xlink:href="#DejaVuSans-65" transform="translate(1557.8125 0.015625)"/>
     <use xlink:href="#DejaVuSans-6e" transform="translate(1619.335938 0.015625)"/>
     <use xlink:href="#DejaVuSans-20" transform="translate(1682.714844 0.015625)"/>
     <use xlink:href="#DejaVuSans-62" transform="translate(1714.501953 0.015625)"/>
     <use xlink:href="#DejaVuSans-79" transform="translate(1777.978516 0.015625)"/>
     <use xlink:href="#DejaVuSans-20" transform="translate(1837.158203 0.015625)"/>
     <use xlink:href="#DejaVuSans-65" transform="translate(1868.945312 0.015625)"/>
     <use xlink:href="#DejaVuSans-71" transform="translate(1930.46875 0.015625)"/>
     <use xlink:href="#DejaVuSans-6e" transform="translate(1993.945312 0.015625)"/>
     <use xlink:href="#DejaVuSans-2e" transform="translate(2057.324219 0.015625)"/>
     <use xlink:href="#DejaVuSans-20" transform="translate(2089.111328 0.015625)"/>
     <use xlink:href="#DejaVuSans-37" transform="translate(2120.898438 0.015625)"/>
     <use xlink:href="#DejaVuSans-2e" transform="translate(2184.521484 0.015625)"/>
     <use xlink:href="#DejaVuSans-31" transform="translate(2216.308594 0.015625)"/>
     <use xlink:href="#DejaVuSans-35" transform="translate(2279.931641 0.015625)"/>
     <use xlink:href="#DejaVuSans-3a" transform="translate(2339.554688 0.015625)"/>
    </g>
    <!-- $[\overline{X}-t_{.025, 9}s/\sqrt{n},\overline{X}+t_{.025, 9}s/\sqrt{n}]$ -->
    <g transform="translate(141.84 35.472)scale(0.12 -0.12)">
     <defs>
      <path id="DejaVuSans-5b" d="M 550 4863 
L 1875 4863 
L 1875 4416 
L 1125 4416 
L 1125 -397 
L 1875 -397 
L 1875 -844 
L 550 -844 
L 550 4863 
z
" transform="scale(0.015625)"/>
      <path id="DejaVuSans-2212" d="M 678 2272 
L 4684 2272 
L 4684 1741 
L 678 1741 
L 678 2272 
z
" transform="scale(0.015625)"/>
      <path id="DejaVuSans-Oblique-74" d="M 2706 3500 
L 2619 3053 
L 1472 3053 
L 1100 1153 
Q 1081 1047 1072 975 
Q 1063 903 1063 863 
Q 1063 663 1183 572 
Q 1303 481 1569 481 
L 2150 481 
L 2053 0 
L 1503 0 
Q 991 0 739 200 
Q 488 400 488 806 
Q 488 878 497 964 
Q 506 1050 525 1153 
L 897 3053 
L 409 3053 
L 500 3500 
L 978 3500 
L 1172 4494 
L 1747 4494 
L 1556 3500 
L 2706 3500 
z
" transform="scale(0.015625)"/>
      <path id="DejaVuSans-2c" d="M 750 794 
L 1409 794 
L 1409 256 
L 897 -744 
L 494 -744 
L 750 256 
L 750 794 
z
" transform="scale(0.015625)"/>
      <path id="DejaVuSans-Oblique-73" d="M 3200 3397 
L 3091 2853 
Q 2863 2978 2609 3040 
Q 2356 3103 2088 3103 
Q 1634 3103 1373 2948 
Q 1113 2794 1113 2528 
Q 1113 2219 1719 2053 
Q 1766 2041 1788 2034 
L 1972 1978 
Q 2547 1819 2739 1644 
Q 2931 1469 2931 1166 
Q 2931 609 2489 259 
Q 2047 -91 1331 -91 
Q 1053 -91 747 -37 
Q 441 16 72 128 
L 184 722 
Q 500 559 806 475 
Q 1113 391 1394 391 
Q 1816 391 2080 572 
Q 2344 753 2344 1031 
Q 2344 1331 1650 1516 
L 1591 1531 
L 1394 1581 
Q 956 1697 753 1886 
Q 550 2075 550 2369 
Q 550 2928 970 3256 
Q 1391 3584 2113 3584 
Q 2397 3584 2667 3537 
Q 2938 3491 3200 3397 
z
" transform="scale(0.015625)"/>
      <path id="DejaVuSans-2f" d="M 1625 4666 
L 2156 4666 
L 531 -594 
L 0 -594 
L 1625 4666 
z
" transform="scale(0.015625)"/>
      <path id="DejaVuSans-221a" d="M 3488 5191 
L 4078 5191 
L 4078 4891 
L 3719 4891 
L 1863 -128 
L 1656 -128 
L 659 2631 
L 269 2491 
L 191 2741 
L 1075 3047 
L 1875 831 
L 3488 5191 
z
" transform="scale(0.015625)"/>
      <path id="DejaVuSans-Oblique-6e" d="M 3566 2113 
L 3156 0 
L 2578 0 
L 2988 2091 
Q 3016 2238 3031 2350 
Q 3047 2463 3047 2528 
Q 3047 2791 2881 2937 
Q 2716 3084 2419 3084 
Q 1956 3084 1622 2776 
Q 1288 2469 1184 1941 
L 800 0 
L 225 0 
L 903 3500 
L 1478 3500 
L 1363 2950 
Q 1603 3253 1940 3418 
Q 2278 3584 2650 3584 
Q 3113 3584 3367 3334 
Q 3622 3084 3622 2631 
Q 3622 2519 3608 2391 
Q 3594 2263 3566 2113 
z
" transform="scale(0.015625)"/>
      <path id="DejaVuSans-2b" d="M 2944 4013 
L 2944 2272 
L 4684 2272 
L 4684 1741 
L 2944 1741 
L 2944 0 
L 2419 0 
L 2419 1741 
L 678 1741 
L 678 2272 
L 2419 2272 
L 2419 4013 
L 2944 4013 
z
" transform="scale(0.015625)"/>
      <path id="DejaVuSans-5d" d="M 1947 4863 
L 1947 -844 
L 622 -844 
L 622 -397 
L 1369 -397 
L 1369 4416 
L 622 4416 
L 622 4863 
L 1947 4863 
z
" transform="scale(0.015625)"/>
     </defs>
     <use xlink:href="#DejaVuSans-5b" transform="translate(0 0.34375)"/>
     <use xlink:href="#DejaVuSans-Oblique-58" transform="translate(39.013672 0.84375)"/>
     <use xlink:href="#DejaVuSans-2212" transform="translate(127.001953 0.34375)"/>
     <use xlink:href="#DejaVuSans-Oblique-74" transform="translate(230.273438 0.34375)"/>
     <use xlink:href="#DejaVuSans-2e" transform="translate(269.482422 -16.0625)scale(0.7)"/>
     <use xlink:href="#DejaVuSans-30" transform="translate(305.371094 -16.0625)scale(0.7)"/>
     <use xlink:href="#DejaVuSans-32" transform="translate(349.907227 -16.0625)scale(0.7)"/>
     <use xlink:href="#DejaVuSans-35" transform="translate(394.443359 -16.0625)scale(0.7)"/>
     <use xlink:href="#DejaVuSans-2c" transform="translate(438.979492 -16.0625)scale(0.7)"/>
     <use xlink:href="#DejaVuSans-39" transform="translate(474.868164 -16.0625)scale(0.7)"/>
     <use xlink:href="#DejaVuSans-Oblique-73" transform="translate(522.138672 0.34375)"/>
     <use xlink:href="#DejaVuSans-2f" transform="translate(574.238281 0.34375)"/>
     <use xlink:href="#DejaVuSans-221a" transform="translate(607.929688 0.34375)"/>
     <use xlink:href="#DejaVuSans-Oblique-6e" transform="translate(684.150391 0.203125)"/>
     <use xlink:href="#DejaVuSans-2c" transform="translate(760.029297 0.34375)"/>
     <use xlink:href="#DejaVuSans-Oblique-58" transform="translate(811.298828 0.84375)"/>
     <use xlink:href="#DejaVuSans-2b" transform="translate(899.287109 0.34375)"/>
     <use xlink:href="#DejaVuSans-Oblique-74" transform="translate(1002.558594 0.34375)"/>
     <use xlink:href="#DejaVuSans-2e" transform="translate(1041.767578 -16.0625)scale(0.7)"/>
     <use xlink:href="#DejaVuSans-30" transform="translate(1077.65625 -16.0625)scale(0.7)"/>
     <use xlink:href="#DejaVuSans-32" transform="translate(1122.192383 -16.0625)scale(0.7)"/>
     <use xlink:href="#DejaVuSans-35" transform="translate(1166.728516 -16.0625)scale(0.7)"/>
     <use xlink:href="#DejaVuSans-2c" transform="translate(1211.264648 -16.0625)scale(0.7)"/>
     <use xlink:href="#DejaVuSans-39" transform="translate(1247.15332 -16.0625)scale(0.7)"/>
     <use xlink:href="#DejaVuSans-Oblique-73" transform="translate(1294.423828 0.34375)"/>
     <use xlink:href="#DejaVuSans-2f" transform="translate(1346.523438 0.34375)"/>
     <use xlink:href="#DejaVuSans-221a" transform="translate(1380.214844 0.34375)"/>
     <use xlink:href="#DejaVuSans-Oblique-6e" transform="translate(1456.435547 0.203125)"/>
     <use xlink:href="#DejaVuSans-5d" transform="translate(1532.314453 0.34375)"/>
     <path d="M 39.013672 85.5 
L 39.013672 91.75 
L 107.519531 91.75 
L 107.519531 85.5 
L 39.013672 85.5 
z
"/>
     <path d="M 671.650391 74.953125 
L 671.650391 81.203125 
L 760.029297 81.203125 
L 760.029297 74.953125 
L 671.650391 74.953125 
z
"/>
     <path d="M 811.298828 85.5 
L 811.298828 91.75 
L 879.804688 91.75 
L 879.804688 85.5 
L 811.298828 85.5 
z
"/>
     <path d="M 1443.935547 74.953125 
L 1443.935547 81.203125 
L 1532.314453 81.203125 
L 1532.314453 74.953125 
L 1443.935547 74.953125 
z
"/>
    </g>
   </g>
   <g id="legend_1">
    <g id="patch_56">
     <path d="M 250.774687 64.150125 
L 407.72 64.150125 
Q 409.72 64.150125 409.72 62.150125 
L 409.72 48.472 
Q 409.72 46.472 407.72 46.472 
L 250.774687 46.472 
Q 248.774687 46.472 248.774687 48.472 
L 248.774687 62.150125 
Q 248.774687 64.150125 250.774687 64.150125 
z
" style="fill: #ffffff; opacity: 0.8; stroke: #cccccc; stroke-linejoin: miter"/>
    </g>
    <g id="patch_57">
     <path d="M 252.774687 58.070438 
L 272.774688 58.070438 
L 272.774688 51.070438 
L 252.774687 51.070438 
z
" style="opacity: 0.5"/>
    </g>
    <g id="text_18">
     <!-- Parametric bootstrap pdf -->
     <g transform="translate(280.774688 58.070438)scale(0.1 -0.1)">
      <defs>
       <path id="DejaVuSans-50" d="M 1259 4147 
L 1259 2394 
L 2053 2394 
Q 2494 2394 2734 2622 
Q 2975 2850 2975 3272 
Q 2975 3691 2734 3919 
Q 2494 4147 2053 4147 
L 1259 4147 
z
M 628 4666 
L 2053 4666 
Q 2838 4666 3239 4311 
Q 3641 3956 3641 3272 
Q 3641 2581 3239 2228 
Q 2838 1875 2053 1875 
L 1259 1875 
L 1259 0 
L 628 0 
L 628 4666 
z
" transform="scale(0.015625)"/>
       <path id="DejaVuSans-63" d="M 3122 3366 
L 3122 2828 
Q 2878 2963 2633 3030 
Q 2388 3097 2138 3097 
Q 1578 3097 1268 2742 
Q 959 2388 959 1747 
Q 959 1106 1268 751 
Q 1578 397 2138 397 
Q 2388 397 2633 464 
Q 2878 531 3122 666 
L 3122 134 
Q 2881 22 2623 -34 
Q 2366 -91 2075 -91 
Q 1284 -91 818 406 
Q 353 903 353 1747 
Q 353 2603 823 3093 
Q 1294 3584 2113 3584 
Q 2378 3584 2631 3529 
Q 2884 3475 3122 3366 
z
" transform="scale(0.015625)"/>
       <path id="DejaVuSans-73" d="M 2834 3397 
L 2834 2853 
Q 2591 2978 2328 3040 
Q 2066 3103 1784 3103 
Q 1356 3103 1142 2972 
Q 928 2841 928 2578 
Q 928 2378 1081 2264 
Q 1234 2150 1697 2047 
L 1894 2003 
Q 2506 1872 2764 1633 
Q 3022 1394 3022 966 
Q 3022 478 2636 193 
Q 2250 -91 1575 -91 
Q 1294 -91 989 -36 
Q 684 19 347 128 
L 347 722 
Q 666 556 975 473 
Q 1284 391 1588 391 
Q 1994 391 2212 530 
Q 2431 669 2431 922 
Q 2431 1156 2273 1281 
Q 2116 1406 1581 1522 
L 1381 1569 
Q 847 1681 609 1914 
Q 372 2147 372 2553 
Q 372 3047 722 3315 
Q 1072 3584 1716 3584 
Q 2034 3584 2315 3537 
Q 2597 3491 2834 3397 
z
" transform="scale(0.015625)"/>
       <path id="DejaVuSans-70" d="M 1159 525 
L 1159 -1331 
L 581 -1331 
L 581 3500 
L 1159 3500 
L 1159 2969 
Q 1341 3281 1617 3432 
Q 1894 3584 2278 3584 
Q 2916 3584 3314 3078 
Q 3713 2572 3713 1747 
Q 3713 922 3314 415 
Q 2916 -91 2278 -91 
Q 1894 -91 1617 61 
Q 1341 213 1159 525 
z
M 3116 1747 
Q 3116 2381 2855 2742 
Q 2594 3103 2138 3103 
Q 1681 3103 1420 2742 
Q 1159 2381 1159 1747 
Q 1159 1113 1420 752 
Q 1681 391 2138 391 
Q 2594 391 2855 752 
Q 3116 1113 3116 1747 
z
" transform="scale(0.015625)"/>
       <path id="DejaVuSans-64" d="M 2906 2969 
L 2906 4863 
L 3481 4863 
L 3481 0 
L 2906 0 
L 2906 525 
Q 2725 213 2448 61 
Q 2172 -91 1784 -91 
Q 1150 -91 751 415 
Q 353 922 353 1747 
Q 353 2572 751 3078 
Q 1150 3584 1784 3584 
Q 2172 3584 2448 3432 
Q 2725 3281 2906 2969 
z
M 947 1747 
Q 947 1113 1208 752 
Q 1469 391 1925 391 
Q 2381 391 2643 752 
Q 2906 1113 2906 1747 
Q 2906 2381 2643 2742 
Q 2381 3103 1925 3103 
Q 1469 3103 1208 2742 
Q 947 2381 947 1747 
z
" transform="scale(0.015625)"/>
      </defs>
      <use xlink:href="#DejaVuSans-50"/>
      <use xlink:href="#DejaVuSans-61" x="55.802734"/>
      <use xlink:href="#DejaVuSans-72" x="117.082031"/>
      <use xlink:href="#DejaVuSans-61" x="158.195312"/>
      <use xlink:href="#DejaVuSans-6d" x="219.474609"/>
      <use xlink:href="#DejaVuSans-65" x="316.886719"/>
      <use xlink:href="#DejaVuSans-74" x="378.410156"/>
      <use xlink:href="#DejaVuSans-72" x="417.619141"/>
      <use xlink:href="#DejaVuSans-69" x="458.732422"/>
      <use xlink:href="#DejaVuSans-63" x="486.515625"/>
      <use xlink:href="#DejaVuSans-20" x="541.496094"/>
      <use xlink:href="#DejaVuSans-62" x="573.283203"/>
      <use xlink:href="#DejaVuSans-6f" x="636.759766"/>
      <use xlink:href="#DejaVuSans-6f" x="697.941406"/>
      <use xlink:href="#DejaVuSans-74" x="759.123047"/>
      <use xlink:href="#DejaVuSans-73" x="798.332031"/>
      <use xlink:href="#DejaVuSans-74" x="850.431641"/>
      <use xlink:href="#DejaVuSans-72" x="889.640625"/>
      <use xlink:href="#DejaVuSans-61" x="930.753906"/>
      <use xlink:href="#DejaVuSans-70" x="992.033203"/>
      <use xlink:href="#DejaVuSans-20" x="1055.509766"/>
      <use xlink:href="#DejaVuSans-70" x="1087.296875"/>
      <use xlink:href="#DejaVuSans-64" x="1150.773438"/>
      <use xlink:href="#DejaVuSans-66" x="1214.25"/>
     </g>
    </g>
   </g>
  </g>
 </g>
 <defs>
  <clipPath id="pa39e71575d">
   <rect x="57.6" y="41.472" width="357.12" height="266.112"/>
  </clipPath>
 </defs>
</svg>
