<?xml version="1.0" encoding="utf-8" standalone="no"?>
<!DOCTYPE svg PUBLIC "-//W3C//DTD SVG 1.1//EN"
  "http://www.w3.org/Graphics/SVG/1.1/DTD/svg11.dtd">
<svg xmlns:xlink="http://www.w3.org/1999/xlink" width="460.8pt" height="345.6pt" viewBox="0 0 460.8 345.6" xmlns="http://www.w3.org/2000/svg" version="1.1">
 <metadata>
  <rdf:RDF xmlns:dc="http://purl.org/dc/elements/1.1/" xmlns:cc="http://creativecommons.org/ns#" xmlns:rdf="http://www.w3.org/1999/02/22-rdf-syntax-ns#">
   <cc:Work>
    <dc:type rdf:resource="http://purl.org/dc/dcmitype/StillImage"/>
    <dc:date>2023-03-09T13:50:50.894267</dc:date>
    <dc:format>image/svg+xml</dc:format>
    <dc:creator>
     <cc:Agent>
      <dc:title>Matplotlib v3.5.2, https://matplotlib.org/</dc:title>
     </cc:Agent>
    </dc:creator>
   </cc:Work>
  </rdf:RDF>
 </metadata>
 <defs>
  <style type="text/css">*{stroke-linejoin: round; stroke-linecap: butt}</style>
 </defs>
 <g id="figure_1">
  <g id="patch_1">
   <path d="M 0 345.6 
L 460.8 345.6 
L 460.8 0 
L 0 0 
L 0 345.6 
z
" style="fill: none"/>
  </g>
  <g id="axes_1">
   <g id="patch_2">
    <path d="M 57.6 307.584 
L 414.72 307.584 
L 414.72 41.472 
L 57.6 41.472 
L 57.6 307.584 
z
" style="fill: none"/>
   </g>
   <g id="patch_3">
    <path d="M -148.213895 307.584 
L -140.695579 307.584 
L -140.695579 307.584 
L -148.213895 307.584 
z
" clip-path="url(#pdbf1e4b7e5)" style="fill: #1f77b4"/>
   </g>
   <g id="patch_4">
    <path d="M -138.816 307.584 
L -131.297684 307.584 
L -131.297684 307.584 
L -138.816 307.584 
z
" clip-path="url(#pdbf1e4b7e5)" style="fill: #1f77b4"/>
   </g>
   <g id="patch_5">
    <path d="M -129.418105 307.584 
L -121.899789 307.584 
L -121.899789 307.584 
L -129.418105 307.584 
z
" clip-path="url(#pdbf1e4b7e5)" style="fill: #1f77b4"/>
   </g>
   <g id="patch_6">
    <path d="M -120.020211 307.584 
L -112.501895 307.584 
L -112.501895 307.584 
L -120.020211 307.584 
z
" clip-path="url(#pdbf1e4b7e5)" style="fill: #1f77b4"/>
   </g>
   <g id="patch_7">
    <path d="M -110.622316 307.584 
L -103.104 307.584 
L -103.104 307.584 
L -110.622316 307.584 
z
" clip-path="url(#pdbf1e4b7e5)" style="fill: #1f77b4"/>
   </g>
   <g id="patch_8">
    <path d="M -101.224421 307.584 
L -93.706105 307.584 
L -93.706105 307.584 
L -101.224421 307.584 
z
" clip-path="url(#pdbf1e4b7e5)" style="fill: #1f77b4"/>
   </g>
   <g id="patch_9">
    <path d="M -91.826526 307.584 
L -84.308211 307.584 
L -84.308211 307.584 
L -91.826526 307.584 
z
" clip-path="url(#pdbf1e4b7e5)" style="fill: #1f77b4"/>
   </g>
   <g id="patch_10">
    <path d="M -82.428632 307.584 
L -74.910316 307.584 
L -74.910316 307.584 
L -82.428632 307.584 
z
" clip-path="url(#pdbf1e4b7e5)" style="fill: #1f77b4"/>
   </g>
   <g id="patch_11">
    <path d="M -73.030737 307.584 
L -65.512421 307.584 
L -65.512421 307.584 
L -73.030737 307.584 
z
" clip-path="url(#pdbf1e4b7e5)" style="fill: #1f77b4"/>
   </g>
   <g id="patch_12">
    <path d="M -63.632842 307.584 
L -56.114526 307.584 
L -56.114526 307.584 
L -63.632842 307.584 
z
" clip-path="url(#pdbf1e4b7e5)" style="fill: #1f77b4"/>
   </g>
   <g id="patch_13">
    <path d="M -54.234947 307.584 
L -46.716632 307.584 
L -46.716632 307.584 
L -54.234947 307.584 
z
" clip-path="url(#pdbf1e4b7e5)" style="fill: #1f77b4"/>
   </g>
   <g id="patch_14">
    <path d="M -44.837053 307.584 
L -37.318737 307.584 
L -37.318737 307.584 
L -44.837053 307.584 
z
" clip-path="url(#pdbf1e4b7e5)" style="fill: #1f77b4"/>
   </g>
   <g id="patch_15">
    <path d="M -35.439158 307.584 
L -27.920842 307.584 
L -27.920842 307.583998 
L -35.439158 307.583998 
z
" clip-path="url(#pdbf1e4b7e5)" style="fill: #1f77b4"/>
   </g>
   <g id="patch_16">
    <path d="M -26.041263 307.584 
L -18.522947 307.584 
L -18.522947 307.583993 
L -26.041263 307.583993 
z
" clip-path="url(#pdbf1e4b7e5)" style="fill: #1f77b4"/>
   </g>
   <g id="patch_17">
    <path d="M -16.643368 307.584 
L -9.125053 307.584 
L -9.125053 307.583969 
L -16.643368 307.583969 
z
" clip-path="url(#pdbf1e4b7e5)" style="fill: #1f77b4"/>
   </g>
   <g id="patch_18">
    <path d="M -7.245474 307.584 
L 0.272842 307.584 
L 0.272842 307.583883 
L -7.245474 307.583883 
z
" clip-path="url(#pdbf1e4b7e5)" style="fill: #1f77b4"/>
   </g>
   <g id="patch_19">
    <path d="M 2.152421 307.584 
L 9.670737 307.584 
L 9.670737 307.583585 
L 2.152421 307.583585 
z
" clip-path="url(#pdbf1e4b7e5)" style="fill: #1f77b4"/>
   </g>
   <g id="patch_20">
    <path d="M 11.550316 307.584 
L 19.068632 307.584 
L 19.068632 307.582632 
L 11.550316 307.582632 
z
" clip-path="url(#pdbf1e4b7e5)" style="fill: #1f77b4"/>
   </g>
   <g id="patch_21">
    <path d="M 20.948211 307.584 
L 28.466526 307.584 
L 28.466526 307.579795 
L 20.948211 307.579795 
z
" clip-path="url(#pdbf1e4b7e5)" style="fill: #1f77b4"/>
   </g>
   <g id="patch_22">
    <path d="M 30.346105 307.584 
L 37.864421 307.584 
L 37.864421 307.571901 
L 30.346105 307.571901 
z
" clip-path="url(#pdbf1e4b7e5)" style="fill: #1f77b4"/>
   </g>
   <g id="patch_23">
    <path d="M 39.744 307.584 
L 47.262316 307.584 
L 47.262316 307.551333 
L 39.744 307.551333 
z
" clip-path="url(#pdbf1e4b7e5)" style="fill: #1f77b4"/>
   </g>
   <g id="patch_24">
    <path d="M 49.141895 307.584 
L 56.660211 307.584 
L 56.660211 307.501037 
L 49.141895 307.501037 
z
" clip-path="url(#pdbf1e4b7e5)" style="fill: #1f77b4"/>
   </g>
   <g id="patch_25">
    <path d="M 58.539789 307.584 
L 66.058105 307.584 
L 66.058105 307.385392 
L 58.539789 307.385392 
z
" clip-path="url(#pdbf1e4b7e5)" style="fill: #1f77b4"/>
   </g>
   <g id="patch_26">
    <path d="M 67.937684 307.584 
L 75.456 307.584 
L 75.456 307.134973 
L 67.937684 307.134973 
z
" clip-path="url(#pdbf1e4b7e5)" style="fill: #1f77b4"/>
   </g>
   <g id="patch_27">
    <path d="M 77.335579 307.584 
L 84.853895 307.584 
L 84.853895 306.623581 
L 77.335579 306.623581 
z
" clip-path="url(#pdbf1e4b7e5)" style="fill: #1f77b4"/>
   </g>
   <g id="patch_28">
    <path d="M 86.733474 307.584 
L 94.251789 307.584 
L 94.251789 305.637552 
L 86.733474 305.637552 
z
" clip-path="url(#pdbf1e4b7e5)" style="fill: #1f77b4"/>
   </g>
   <g id="patch_29">
    <path d="M 96.131368 307.584 
L 103.649684 307.584 
L 103.649684 303.84083 
L 96.131368 303.84083 
z
" clip-path="url(#pdbf1e4b7e5)" style="fill: #1f77b4"/>
   </g>
   <g id="patch_30">
    <path d="M 105.529263 307.584 
L 113.047579 307.584 
L 113.047579 300.744627 
L 105.529263 300.744627 
z
" clip-path="url(#pdbf1e4b7e5)" style="fill: #1f77b4"/>
   </g>
   <g id="patch_31">
    <path d="M 114.927158 307.584 
L 122.445474 307.584 
L 122.445474 295.696519 
L 114.927158 295.696519 
z
" clip-path="url(#pdbf1e4b7e5)" style="fill: #1f77b4"/>
   </g>
   <g id="patch_32">
    <path d="M 124.325053 307.584 
L 131.843368 307.584 
L 131.843368 287.908169 
L 124.325053 287.908169 
z
" clip-path="url(#pdbf1e4b7e5)" style="fill: #1f77b4"/>
   </g>
   <g id="patch_33">
    <path d="M 133.722947 307.584 
L 141.241263 307.584 
L 141.241263 276.539911 
L 133.722947 276.539911 
z
" clip-path="url(#pdbf1e4b7e5)" style="fill: #1f77b4"/>
   </g>
   <g id="patch_34">
    <path d="M 143.120842 307.584 
L 150.639158 307.584 
L 150.639158 260.850963 
L 143.120842 260.850963 
z
" clip-path="url(#pdbf1e4b7e5)" style="fill: #1f77b4"/>
   </g>
   <g id="patch_35">
    <path d="M 152.518737 307.584 
L 160.037053 307.584 
L 160.037053 240.40526 
L 152.518737 240.40526 
z
" clip-path="url(#pdbf1e4b7e5)" style="fill: #1f77b4"/>
   </g>
   <g id="patch_36">
    <path d="M 161.916632 307.584 
L 169.434947 307.584 
L 169.434947 215.298054 
L 161.916632 215.298054 
z
" clip-path="url(#pdbf1e4b7e5)" style="fill: #1f77b4"/>
   </g>
   <g id="patch_37">
    <path d="M 171.314526 307.584 
L 178.832842 307.584 
L 178.832842 186.3456 
L 171.314526 186.3456 
z
" clip-path="url(#pdbf1e4b7e5)" style="fill: #1f77b4"/>
   </g>
   <g id="patch_38">
    <path d="M 180.712421 307.584 
L 188.230737 307.584 
L 188.230737 155.170012 
L 180.712421 155.170012 
z
" clip-path="url(#pdbf1e4b7e5)" style="fill: #1f77b4"/>
   </g>
   <g id="patch_39">
    <path d="M 190.110316 307.584 
L 197.628632 307.584 
L 197.628632 124.122718 
L 190.110316 124.122718 
z
" clip-path="url(#pdbf1e4b7e5)" style="fill: #1f77b4"/>
   </g>
   <g id="patch_40">
    <path d="M 199.508211 307.584 
L 207.026526 307.584 
L 207.026526 96.025044 
L 199.508211 96.025044 
z
" clip-path="url(#pdbf1e4b7e5)" style="fill: #1f77b4"/>
   </g>
   <g id="patch_41">
    <path d="M 208.906105 307.584 
L 216.424421 307.584 
L 216.424421 73.75568 
L 208.906105 73.75568 
z
" clip-path="url(#pdbf1e4b7e5)" style="fill: #1f77b4"/>
   </g>
   <g id="patch_42">
    <path d="M 218.304 307.584 
L 225.822316 307.584 
L 225.822316 59.765952 
L 218.304 59.765952 
z
" clip-path="url(#pdbf1e4b7e5)" style="fill: #1f77b4"/>
   </g>
   <g id="patch_43">
    <path d="M 227.701895 307.584 
L 235.220211 307.584 
L 235.220211 55.635651 
L 227.701895 55.635651 
z
" clip-path="url(#pdbf1e4b7e5)" style="fill: #1f77b4"/>
   </g>
   <g id="patch_44">
    <path d="M 237.099789 307.584 
L 244.618105 307.584 
L 244.618105 61.780733 
L 237.099789 61.780733 
z
" clip-path="url(#pdbf1e4b7e5)" style="fill: #1f77b4"/>
   </g>
   <g id="patch_45">
    <path d="M 246.497684 307.584 
L 254.016 307.584 
L 254.016 77.387289 
L 246.497684 77.387289 
z
" clip-path="url(#pdbf1e4b7e5)" style="fill: #1f77b4"/>
   </g>
   <g id="patch_46">
    <path d="M 255.895579 307.584 
L 263.413895 307.584 
L 263.413895 100.585408 
L 255.895579 100.585408 
z
" clip-path="url(#pdbf1e4b7e5)" style="fill: #1f77b4"/>
   </g>
   <g id="patch_47">
    <path d="M 265.293474 307.584 
L 272.811789 307.584 
L 272.811789 128.812488 
L 265.293474 128.812488 
z
" clip-path="url(#pdbf1e4b7e5)" style="fill: #1f77b4"/>
   </g>
   <g id="patch_48">
    <path d="M 274.691368 307.584 
L 282.209684 307.584 
L 282.209684 159.269857 
L 274.691368 159.269857 
z
" clip-path="url(#pdbf1e4b7e5)" style="fill: #1f77b4"/>
   </g>
   <g id="patch_49">
    <path d="M 284.089263 307.584 
L 291.607579 307.584 
L 291.607579 189.362582 
L 284.089263 189.362582 
z
" clip-path="url(#pdbf1e4b7e5)" style="fill: #1f77b4"/>
   </g>
   <g id="patch_50">
    <path d="M 293.487158 307.584 
L 301.005474 307.584 
L 301.005474 217.031424 
L 293.487158 217.031424 
z
" clip-path="url(#pdbf1e4b7e5)" style="fill: #1f77b4"/>
   </g>
   <g id="patch_51">
    <path d="M 302.885053 307.584 
L 310.403368 307.584 
L 310.403368 240.927243 
L 302.885053 240.927243 
z
" clip-path="url(#pdbf1e4b7e5)" style="fill: #1f77b4"/>
   </g>
   <g id="patch_52">
    <path d="M 312.282947 307.584 
L 319.801263 307.584 
L 319.801263 260.425478 
L 312.282947 260.425478 
z
" clip-path="url(#pdbf1e4b7e5)" style="fill: #1f77b4"/>
   </g>
   <g id="patch_53">
    <path d="M 321.680842 307.584 
L 329.199158 307.584 
L 329.199158 275.516205 
L 321.680842 275.516205 
z
" clip-path="url(#pdbf1e4b7e5)" style="fill: #1f77b4"/>
   </g>
   <g id="patch_54">
    <path d="M 331.078737 307.584 
L 338.597053 307.584 
L 338.597053 286.624657 
L 331.078737 286.624657 
z
" clip-path="url(#pdbf1e4b7e5)" style="fill: #1f77b4"/>
   </g>
   <g id="patch_55">
    <path d="M 340.476632 307.584 
L 347.994947 307.584 
L 347.994947 294.417233 
L 340.476632 294.417233 
z
" clip-path="url(#pdbf1e4b7e5)" style="fill: #1f77b4"/>
   </g>
   <g id="patch_56">
    <path d="M 349.874526 307.584 
L 357.392842 307.584 
L 357.392842 299.634254 
L 349.874526 299.634254 
z
" clip-path="url(#pdbf1e4b7e5)" style="fill: #1f77b4"/>
   </g>
   <g id="patch_57">
    <path d="M 359.272421 307.584 
L 366.790737 307.584 
L 366.790737 302.971184 
L 359.272421 302.971184 
z
" clip-path="url(#pdbf1e4b7e5)" style="fill: #1f77b4"/>
   </g>
   <g id="patch_58">
    <path d="M 368.670316 307.584 
L 376.188632 307.584 
L 376.188632 305.012006 
L 368.670316 305.012006 
z
" clip-path="url(#pdbf1e4b7e5)" style="fill: #1f77b4"/>
   </g>
   <g id="patch_59">
    <path d="M 378.068211 307.584 
L 385.586526 307.584 
L 385.586526 306.206146 
L 378.068211 306.206146 
z
" clip-path="url(#pdbf1e4b7e5)" style="fill: #1f77b4"/>
   </g>
   <g id="patch_60">
    <path d="M 387.466105 307.584 
L 394.984421 307.584 
L 394.984421 306.874929 
L 387.466105 306.874929 
z
" clip-path="url(#pdbf1e4b7e5)" style="fill: #1f77b4"/>
   </g>
   <g id="patch_61">
    <path d="M 396.864 307.584 
L 404.382316 307.584 
L 404.382316 307.23354 
L 396.864 307.23354 
z
" clip-path="url(#pdbf1e4b7e5)" style="fill: #1f77b4"/>
   </g>
   <g id="patch_62">
    <path d="M 406.261895 307.584 
L 413.780211 307.584 
L 413.780211 307.41768 
L 406.261895 307.41768 
z
" clip-path="url(#pdbf1e4b7e5)" style="fill: #1f77b4"/>
   </g>
   <g id="patch_63">
    <path d="M 415.659789 307.584 
L 423.178105 307.584 
L 423.178105 307.508232 
L 415.659789 307.508232 
z
" clip-path="url(#pdbf1e4b7e5)" style="fill: #1f77b4"/>
   </g>
   <g id="patch_64">
    <path d="M 425.057684 307.584 
L 432.576 307.584 
L 432.576 307.550877 
L 425.057684 307.550877 
z
" clip-path="url(#pdbf1e4b7e5)" style="fill: #1f77b4"/>
   </g>
   <g id="patch_65">
    <path d="M 434.455579 307.584 
L 441.973895 307.584 
L 441.973895 307.57011 
L 434.455579 307.57011 
z
" clip-path="url(#pdbf1e4b7e5)" style="fill: #1f77b4"/>
   </g>
   <g id="patch_66">
    <path d="M 443.853474 307.584 
L 451.371789 307.584 
L 451.371789 307.578415 
L 443.853474 307.578415 
z
" clip-path="url(#pdbf1e4b7e5)" style="fill: #1f77b4"/>
   </g>
   <g id="patch_67">
    <path d="M 453.251368 307.584 
L 460.769684 307.584 
L 460.769684 307.581847 
L 453.251368 307.581847 
z
" clip-path="url(#pdbf1e4b7e5)" style="fill: #1f77b4"/>
   </g>
   <g id="patch_68">
    <path d="M 462.649263 307.584 
L 470.167579 307.584 
L 470.167579 307.583205 
L 462.649263 307.583205 
z
" clip-path="url(#pdbf1e4b7e5)" style="fill: #1f77b4"/>
   </g>
   <g id="patch_69">
    <path d="M 472.047158 307.584 
L 479.565474 307.584 
L 479.565474 307.583719 
L 472.047158 307.583719 
z
" clip-path="url(#pdbf1e4b7e5)" style="fill: #1f77b4"/>
   </g>
   <g id="patch_70">
    <path d="M 481.445053 307.584 
L 488.963368 307.584 
L 488.963368 307.583905 
L 481.445053 307.583905 
z
" clip-path="url(#pdbf1e4b7e5)" style="fill: #1f77b4"/>
   </g>
   <g id="patch_71">
    <path d="M 490.842947 307.584 
L 498.361263 307.584 
L 498.361263 307.583969 
L 490.842947 307.583969 
z
" clip-path="url(#pdbf1e4b7e5)" style="fill: #1f77b4"/>
   </g>
   <g id="patch_72">
    <path d="M 500.240842 307.584 
L 507.759158 307.584 
L 507.759158 307.58399 
L 500.240842 307.58399 
z
" clip-path="url(#pdbf1e4b7e5)" style="fill: #1f77b4"/>
   </g>
   <g id="patch_73">
    <path d="M 509.638737 307.584 
L 517.157053 307.584 
L 517.157053 307.583997 
L 509.638737 307.583997 
z
" clip-path="url(#pdbf1e4b7e5)" style="fill: #1f77b4"/>
   </g>
   <g id="patch_74">
    <path d="M 519.036632 307.584 
L 526.554947 307.584 
L 526.554947 307.583999 
L 519.036632 307.583999 
z
" clip-path="url(#pdbf1e4b7e5)" style="fill: #1f77b4"/>
   </g>
   <g id="patch_75">
    <path d="M 528.434526 307.584 
L 535.952842 307.584 
L 535.952842 307.584 
L 528.434526 307.584 
z
" clip-path="url(#pdbf1e4b7e5)" style="fill: #1f77b4"/>
   </g>
   <g id="patch_76">
    <path d="M 537.832421 307.584 
L 545.350737 307.584 
L 545.350737 307.584 
L 537.832421 307.584 
z
" clip-path="url(#pdbf1e4b7e5)" style="fill: #1f77b4"/>
   </g>
   <g id="patch_77">
    <path d="M 547.230316 307.584 
L 554.748632 307.584 
L 554.748632 307.584 
L 547.230316 307.584 
z
" clip-path="url(#pdbf1e4b7e5)" style="fill: #1f77b4"/>
   </g>
   <g id="patch_78">
    <path d="M 556.628211 307.584 
L 564.146526 307.584 
L 564.146526 307.584 
L 556.628211 307.584 
z
" clip-path="url(#pdbf1e4b7e5)" style="fill: #1f77b4"/>
   </g>
   <g id="patch_79">
    <path d="M 566.026105 307.584 
L 573.544421 307.584 
L 573.544421 307.584 
L 566.026105 307.584 
z
" clip-path="url(#pdbf1e4b7e5)" style="fill: #1f77b4"/>
   </g>
   <g id="patch_80">
    <path d="M 575.424 307.584 
L 582.942316 307.584 
L 582.942316 307.584 
L 575.424 307.584 
z
" clip-path="url(#pdbf1e4b7e5)" style="fill: #1f77b4"/>
   </g>
   <g id="patch_81">
    <path d="M 584.821895 307.584 
L 592.340211 307.584 
L 592.340211 307.584 
L 584.821895 307.584 
z
" clip-path="url(#pdbf1e4b7e5)" style="fill: #1f77b4"/>
   </g>
   <g id="patch_82">
    <path d="M 594.219789 307.584 
L 601.738105 307.584 
L 601.738105 307.584 
L 594.219789 307.584 
z
" clip-path="url(#pdbf1e4b7e5)" style="fill: #1f77b4"/>
   </g>
   <g id="patch_83">
    <path d="M 603.617684 307.584 
L 611.136 307.584 
L 611.136 307.584 
L 603.617684 307.584 
z
" clip-path="url(#pdbf1e4b7e5)" style="fill: #1f77b4"/>
   </g>
   <g id="patch_84">
    <path d="M 613.015579 307.584 
L 620.533895 307.584 
L 620.533895 307.584 
L 613.015579 307.584 
z
" clip-path="url(#pdbf1e4b7e5)" style="fill: #1f77b4"/>
   </g>
   <g id="patch_85">
    <path d="M 622.413474 307.584 
L 629.931789 307.584 
L 629.931789 307.584 
L 622.413474 307.584 
z
" clip-path="url(#pdbf1e4b7e5)" style="fill: #1f77b4"/>
   </g>
   <g id="patch_86">
    <path d="M 631.811368 307.584 
L 639.329684 307.584 
L 639.329684 307.584 
L 631.811368 307.584 
z
" clip-path="url(#pdbf1e4b7e5)" style="fill: #1f77b4"/>
   </g>
   <g id="patch_87">
    <path d="M 641.209263 307.584 
L 648.727579 307.584 
L 648.727579 307.584 
L 641.209263 307.584 
z
" clip-path="url(#pdbf1e4b7e5)" style="fill: #1f77b4"/>
   </g>
   <g id="patch_88">
    <path d="M 650.607158 307.584 
L 658.125474 307.584 
L 658.125474 307.584 
L 650.607158 307.584 
z
" clip-path="url(#pdbf1e4b7e5)" style="fill: #1f77b4"/>
   </g>
   <g id="patch_89">
    <path d="M 660.005053 307.584 
L 667.523368 307.584 
L 667.523368 307.584 
L 660.005053 307.584 
z
" clip-path="url(#pdbf1e4b7e5)" style="fill: #1f77b4"/>
   </g>
   <g id="patch_90">
    <path d="M 669.402947 307.584 
L 676.921263 307.584 
L 676.921263 307.584 
L 669.402947 307.584 
z
" clip-path="url(#pdbf1e4b7e5)" style="fill: #1f77b4"/>
   </g>
   <g id="patch_91">
    <path d="M 678.800842 307.584 
L 686.319158 307.584 
L 686.319158 307.584 
L 678.800842 307.584 
z
" clip-path="url(#pdbf1e4b7e5)" style="fill: #1f77b4"/>
   </g>
   <g id="patch_92">
    <path d="M 688.198737 307.584 
L 695.717053 307.584 
L 695.717053 307.584 
L 688.198737 307.584 
z
" clip-path="url(#pdbf1e4b7e5)" style="fill: #1f77b4"/>
   </g>
   <g id="patch_93">
    <path d="M 697.596632 307.584 
L 705.114947 307.584 
L 705.114947 307.584 
L 697.596632 307.584 
z
" clip-path="url(#pdbf1e4b7e5)" style="fill: #1f77b4"/>
   </g>
   <g id="patch_94">
    <path d="M 706.994526 307.584 
L 714.512842 307.584 
L 714.512842 307.584 
L 706.994526 307.584 
z
" clip-path="url(#pdbf1e4b7e5)" style="fill: #1f77b4"/>
   </g>
   <g id="patch_95">
    <path d="M 716.392421 307.584 
L 723.910737 307.584 
L 723.910737 307.584 
L 716.392421 307.584 
z
" clip-path="url(#pdbf1e4b7e5)" style="fill: #1f77b4"/>
   </g>
   <g id="patch_96">
    <path d="M 725.790316 307.584 
L 733.308632 307.584 
L 733.308632 307.584 
L 725.790316 307.584 
z
" clip-path="url(#pdbf1e4b7e5)" style="fill: #1f77b4"/>
   </g>
   <g id="patch_97">
    <path d="M 735.188211 307.584 
L 742.706526 307.584 
L 742.706526 307.584 
L 735.188211 307.584 
z
" clip-path="url(#pdbf1e4b7e5)" style="fill: #1f77b4"/>
   </g>
   <g id="patch_98">
    <path d="M 744.586105 307.584 
L 752.104421 307.584 
L 752.104421 307.584 
L 744.586105 307.584 
z
" clip-path="url(#pdbf1e4b7e5)" style="fill: #1f77b4"/>
   </g>
   <g id="patch_99">
    <path d="M 753.984 307.584 
L 761.502316 307.584 
L 761.502316 307.584 
L 753.984 307.584 
z
" clip-path="url(#pdbf1e4b7e5)" style="fill: #1f77b4"/>
   </g>
   <g id="patch_100">
    <path d="M 763.381895 307.584 
L 770.900211 307.584 
L 770.900211 307.584 
L 763.381895 307.584 
z
" clip-path="url(#pdbf1e4b7e5)" style="fill: #1f77b4"/>
   </g>
   <g id="patch_101">
    <path d="M 772.779789 307.584 
L 780.298105 307.584 
L 780.298105 307.584 
L 772.779789 307.584 
z
" clip-path="url(#pdbf1e4b7e5)" style="fill: #1f77b4"/>
   </g>
   <g id="patch_102">
    <path d="M 782.177684 307.584 
L 789.696 307.584 
L 789.696 307.584 
L 782.177684 307.584 
z
" clip-path="url(#pdbf1e4b7e5)" style="fill: #1f77b4"/>
   </g>
   <g id="matplotlib.axis_1">
    <g id="xtick_1">
     <g id="line2d_1">
      <defs>
       <path id="m18bc7151d5" d="M 0 0 
L 0 3.5 
" style="stroke: #000000; stroke-width: 0.8"/>
      </defs>
      <g>
       <use xlink:href="#m18bc7151d5" x="90.492632" y="307.584" style="stroke: #000000; stroke-width: 0.8"/>
      </g>
     </g>
     <g id="text_1">
      <!-- 25 -->
      <g transform="translate(84.130132 322.182437)scale(0.1 -0.1)">
       <defs>
        <path id="DejaVuSans-32" d="M 1228 531 
L 3431 531 
L 3431 0 
L 469 0 
L 469 531 
Q 828 903 1448 1529 
Q 2069 2156 2228 2338 
Q 2531 2678 2651 2914 
Q 2772 3150 2772 3378 
Q 2772 3750 2511 3984 
Q 2250 4219 1831 4219 
Q 1534 4219 1204 4116 
Q 875 4013 500 3803 
L 500 4441 
Q 881 4594 1212 4672 
Q 1544 4750 1819 4750 
Q 2544 4750 2975 4387 
Q 3406 4025 3406 3419 
Q 3406 3131 3298 2873 
Q 3191 2616 2906 2266 
Q 2828 2175 2409 1742 
Q 1991 1309 1228 531 
z
" transform="scale(0.015625)"/>
        <path id="DejaVuSans-35" d="M 691 4666 
L 3169 4666 
L 3169 4134 
L 1269 4134 
L 1269 2991 
Q 1406 3038 1543 3061 
Q 1681 3084 1819 3084 
Q 2600 3084 3056 2656 
Q 3513 2228 3513 1497 
Q 3513 744 3044 326 
Q 2575 -91 1722 -91 
Q 1428 -91 1123 -41 
Q 819 9 494 109 
L 494 744 
Q 775 591 1075 516 
Q 1375 441 1709 441 
Q 2250 441 2565 725 
Q 2881 1009 2881 1497 
Q 2881 1984 2565 2268 
Q 2250 2553 1709 2553 
Q 1456 2553 1204 2497 
Q 953 2441 691 2322 
L 691 4666 
z
" transform="scale(0.015625)"/>
       </defs>
       <use xlink:href="#DejaVuSans-32"/>
       <use xlink:href="#DejaVuSans-35" x="63.623047"/>
      </g>
     </g>
    </g>
    <g id="xtick_2">
     <g id="line2d_2">
      <g>
       <use xlink:href="#m18bc7151d5" x="137.482105" y="307.584" style="stroke: #000000; stroke-width: 0.8"/>
      </g>
     </g>
     <g id="text_2">
      <!-- 30 -->
      <g transform="translate(131.119605 322.182437)scale(0.1 -0.1)">
       <defs>
        <path id="DejaVuSans-33" d="M 2597 2516 
Q 3050 2419 3304 2112 
Q 3559 1806 3559 1356 
Q 3559 666 3084 287 
Q 2609 -91 1734 -91 
Q 1441 -91 1130 -33 
Q 819 25 488 141 
L 488 750 
Q 750 597 1062 519 
Q 1375 441 1716 441 
Q 2309 441 2620 675 
Q 2931 909 2931 1356 
Q 2931 1769 2642 2001 
Q 2353 2234 1838 2234 
L 1294 2234 
L 1294 2753 
L 1863 2753 
Q 2328 2753 2575 2939 
Q 2822 3125 2822 3475 
Q 2822 3834 2567 4026 
Q 2313 4219 1838 4219 
Q 1578 4219 1281 4162 
Q 984 4106 628 3988 
L 628 4550 
Q 988 4650 1302 4700 
Q 1616 4750 1894 4750 
Q 2613 4750 3031 4423 
Q 3450 4097 3450 3541 
Q 3450 3153 3228 2886 
Q 3006 2619 2597 2516 
z
" transform="scale(0.015625)"/>
        <path id="DejaVuSans-30" d="M 2034 4250 
Q 1547 4250 1301 3770 
Q 1056 3291 1056 2328 
Q 1056 1369 1301 889 
Q 1547 409 2034 409 
Q 2525 409 2770 889 
Q 3016 1369 3016 2328 
Q 3016 3291 2770 3770 
Q 2525 4250 2034 4250 
z
M 2034 4750 
Q 2819 4750 3233 4129 
Q 3647 3509 3647 2328 
Q 3647 1150 3233 529 
Q 2819 -91 2034 -91 
Q 1250 -91 836 529 
Q 422 1150 422 2328 
Q 422 3509 836 4129 
Q 1250 4750 2034 4750 
z
" transform="scale(0.015625)"/>
       </defs>
       <use xlink:href="#DejaVuSans-33"/>
       <use xlink:href="#DejaVuSans-30" x="63.623047"/>
      </g>
     </g>
    </g>
    <g id="xtick_3">
     <g id="line2d_3">
      <g>
       <use xlink:href="#m18bc7151d5" x="184.471579" y="307.584" style="stroke: #000000; stroke-width: 0.8"/>
      </g>
     </g>
     <g id="text_3">
      <!-- 35 -->
      <g transform="translate(178.109079 322.182437)scale(0.1 -0.1)">
       <use xlink:href="#DejaVuSans-33"/>
       <use xlink:href="#DejaVuSans-35" x="63.623047"/>
      </g>
     </g>
    </g>
    <g id="xtick_4">
     <g id="line2d_4">
      <g>
       <use xlink:href="#m18bc7151d5" x="231.461053" y="307.584" style="stroke: #000000; stroke-width: 0.8"/>
      </g>
     </g>
     <g id="text_4">
      <!-- 40 -->
      <g transform="translate(225.098553 322.182437)scale(0.1 -0.1)">
       <defs>
        <path id="DejaVuSans-34" d="M 2419 4116 
L 825 1625 
L 2419 1625 
L 2419 4116 
z
M 2253 4666 
L 3047 4666 
L 3047 1625 
L 3713 1625 
L 3713 1100 
L 3047 1100 
L 3047 0 
L 2419 0 
L 2419 1100 
L 313 1100 
L 313 1709 
L 2253 4666 
z
" transform="scale(0.015625)"/>
       </defs>
       <use xlink:href="#DejaVuSans-34"/>
       <use xlink:href="#DejaVuSans-30" x="63.623047"/>
      </g>
     </g>
    </g>
    <g id="xtick_5">
     <g id="line2d_5">
      <g>
       <use xlink:href="#m18bc7151d5" x="278.450526" y="307.584" style="stroke: #000000; stroke-width: 0.8"/>
      </g>
     </g>
     <g id="text_5">
      <!-- 45 -->
      <g transform="translate(272.088026 322.182437)scale(0.1 -0.1)">
       <use xlink:href="#DejaVuSans-34"/>
       <use xlink:href="#DejaVuSans-35" x="63.623047"/>
      </g>
     </g>
    </g>
    <g id="xtick_6">
     <g id="line2d_6">
      <g>
       <use xlink:href="#m18bc7151d5" x="325.44" y="307.584" style="stroke: #000000; stroke-width: 0.8"/>
      </g>
     </g>
     <g id="text_6">
      <!-- 50 -->
      <g transform="translate(319.0775 322.182437)scale(0.1 -0.1)">
       <use xlink:href="#DejaVuSans-35"/>
       <use xlink:href="#DejaVuSans-30" x="63.623047"/>
      </g>
     </g>
    </g>
    <g id="xtick_7">
     <g id="line2d_7">
      <g>
       <use xlink:href="#m18bc7151d5" x="372.429474" y="307.584" style="stroke: #000000; stroke-width: 0.8"/>
      </g>
     </g>
     <g id="text_7">
      <!-- 55 -->
      <g transform="translate(366.066974 322.182437)scale(0.1 -0.1)">
       <use xlink:href="#DejaVuSans-35"/>
       <use xlink:href="#DejaVuSans-35" x="63.623047"/>
      </g>
     </g>
    </g>
    <g id="text_8">
     <!-- # heads in experiment -->
     <g transform="translate(178.837344 335.860562)scale(0.1 -0.1)">
      <defs>
       <path id="DejaVuSans-23" d="M 3272 2816 
L 2363 2816 
L 2100 1772 
L 3016 1772 
L 3272 2816 
z
M 2803 4594 
L 2478 3297 
L 3391 3297 
L 3719 4594 
L 4219 4594 
L 3897 3297 
L 4872 3297 
L 4872 2816 
L 3775 2816 
L 3519 1772 
L 4513 1772 
L 4513 1294 
L 3397 1294 
L 3072 0 
L 2572 0 
L 2894 1294 
L 1978 1294 
L 1656 0 
L 1153 0 
L 1478 1294 
L 494 1294 
L 494 1772 
L 1594 1772 
L 1856 2816 
L 850 2816 
L 850 3297 
L 1978 3297 
L 2297 4594 
L 2803 4594 
z
" transform="scale(0.015625)"/>
       <path id="DejaVuSans-20" transform="scale(0.015625)"/>
       <path id="DejaVuSans-68" d="M 3513 2113 
L 3513 0 
L 2938 0 
L 2938 2094 
Q 2938 2591 2744 2837 
Q 2550 3084 2163 3084 
Q 1697 3084 1428 2787 
Q 1159 2491 1159 1978 
L 1159 0 
L 581 0 
L 581 4863 
L 1159 4863 
L 1159 2956 
Q 1366 3272 1645 3428 
Q 1925 3584 2291 3584 
Q 2894 3584 3203 3211 
Q 3513 2838 3513 2113 
z
" transform="scale(0.015625)"/>
       <path id="DejaVuSans-65" d="M 3597 1894 
L 3597 1613 
L 953 1613 
Q 991 1019 1311 708 
Q 1631 397 2203 397 
Q 2534 397 2845 478 
Q 3156 559 3463 722 
L 3463 178 
Q 3153 47 2828 -22 
Q 2503 -91 2169 -91 
Q 1331 -91 842 396 
Q 353 884 353 1716 
Q 353 2575 817 3079 
Q 1281 3584 2069 3584 
Q 2775 3584 3186 3129 
Q 3597 2675 3597 1894 
z
M 3022 2063 
Q 3016 2534 2758 2815 
Q 2500 3097 2075 3097 
Q 1594 3097 1305 2825 
Q 1016 2553 972 2059 
L 3022 2063 
z
" transform="scale(0.015625)"/>
       <path id="DejaVuSans-61" d="M 2194 1759 
Q 1497 1759 1228 1600 
Q 959 1441 959 1056 
Q 959 750 1161 570 
Q 1363 391 1709 391 
Q 2188 391 2477 730 
Q 2766 1069 2766 1631 
L 2766 1759 
L 2194 1759 
z
M 3341 1997 
L 3341 0 
L 2766 0 
L 2766 531 
Q 2569 213 2275 61 
Q 1981 -91 1556 -91 
Q 1019 -91 701 211 
Q 384 513 384 1019 
Q 384 1609 779 1909 
Q 1175 2209 1959 2209 
L 2766 2209 
L 2766 2266 
Q 2766 2663 2505 2880 
Q 2244 3097 1772 3097 
Q 1472 3097 1187 3025 
Q 903 2953 641 2809 
L 641 3341 
Q 956 3463 1253 3523 
Q 1550 3584 1831 3584 
Q 2591 3584 2966 3190 
Q 3341 2797 3341 1997 
z
" transform="scale(0.015625)"/>
       <path id="DejaVuSans-64" d="M 2906 2969 
L 2906 4863 
L 3481 4863 
L 3481 0 
L 2906 0 
L 2906 525 
Q 2725 213 2448 61 
Q 2172 -91 1784 -91 
Q 1150 -91 751 415 
Q 353 922 353 1747 
Q 353 2572 751 3078 
Q 1150 3584 1784 3584 
Q 2172 3584 2448 3432 
Q 2725 3281 2906 2969 
z
M 947 1747 
Q 947 1113 1208 752 
Q 1469 391 1925 391 
Q 2381 391 2643 752 
Q 2906 1113 2906 1747 
Q 2906 2381 2643 2742 
Q 2381 3103 1925 3103 
Q 1469 3103 1208 2742 
Q 947 2381 947 1747 
z
" transform="scale(0.015625)"/>
       <path id="DejaVuSans-73" d="M 2834 3397 
L 2834 2853 
Q 2591 2978 2328 3040 
Q 2066 3103 1784 3103 
Q 1356 3103 1142 2972 
Q 928 2841 928 2578 
Q 928 2378 1081 2264 
Q 1234 2150 1697 2047 
L 1894 2003 
Q 2506 1872 2764 1633 
Q 3022 1394 3022 966 
Q 3022 478 2636 193 
Q 2250 -91 1575 -91 
Q 1294 -91 989 -36 
Q 684 19 347 128 
L 347 722 
Q 666 556 975 473 
Q 1284 391 1588 391 
Q 1994 391 2212 530 
Q 2431 669 2431 922 
Q 2431 1156 2273 1281 
Q 2116 1406 1581 1522 
L 1381 1569 
Q 847 1681 609 1914 
Q 372 2147 372 2553 
Q 372 3047 722 3315 
Q 1072 3584 1716 3584 
Q 2034 3584 2315 3537 
Q 2597 3491 2834 3397 
z
" transform="scale(0.015625)"/>
       <path id="DejaVuSans-69" d="M 603 3500 
L 1178 3500 
L 1178 0 
L 603 0 
L 603 3500 
z
M 603 4863 
L 1178 4863 
L 1178 4134 
L 603 4134 
L 603 4863 
z
" transform="scale(0.015625)"/>
       <path id="DejaVuSans-6e" d="M 3513 2113 
L 3513 0 
L 2938 0 
L 2938 2094 
Q 2938 2591 2744 2837 
Q 2550 3084 2163 3084 
Q 1697 3084 1428 2787 
Q 1159 2491 1159 1978 
L 1159 0 
L 581 0 
L 581 3500 
L 1159 3500 
L 1159 2956 
Q 1366 3272 1645 3428 
Q 1925 3584 2291 3584 
Q 2894 3584 3203 3211 
Q 3513 2838 3513 2113 
z
" transform="scale(0.015625)"/>
       <path id="DejaVuSans-78" d="M 3513 3500 
L 2247 1797 
L 3578 0 
L 2900 0 
L 1881 1375 
L 863 0 
L 184 0 
L 1544 1831 
L 300 3500 
L 978 3500 
L 1906 2253 
L 2834 3500 
L 3513 3500 
z
" transform="scale(0.015625)"/>
       <path id="DejaVuSans-70" d="M 1159 525 
L 1159 -1331 
L 581 -1331 
L 581 3500 
L 1159 3500 
L 1159 2969 
Q 1341 3281 1617 3432 
Q 1894 3584 2278 3584 
Q 2916 3584 3314 3078 
Q 3713 2572 3713 1747 
Q 3713 922 3314 415 
Q 2916 -91 2278 -91 
Q 1894 -91 1617 61 
Q 1341 213 1159 525 
z
M 3116 1747 
Q 3116 2381 2855 2742 
Q 2594 3103 2138 3103 
Q 1681 3103 1420 2742 
Q 1159 2381 1159 1747 
Q 1159 1113 1420 752 
Q 1681 391 2138 391 
Q 2594 391 2855 752 
Q 3116 1113 3116 1747 
z
" transform="scale(0.015625)"/>
       <path id="DejaVuSans-72" d="M 2631 2963 
Q 2534 3019 2420 3045 
Q 2306 3072 2169 3072 
Q 1681 3072 1420 2755 
Q 1159 2438 1159 1844 
L 1159 0 
L 581 0 
L 581 3500 
L 1159 3500 
L 1159 2956 
Q 1341 3275 1631 3429 
Q 1922 3584 2338 3584 
Q 2397 3584 2469 3576 
Q 2541 3569 2628 3553 
L 2631 2963 
z
" transform="scale(0.015625)"/>
       <path id="DejaVuSans-6d" d="M 3328 2828 
Q 3544 3216 3844 3400 
Q 4144 3584 4550 3584 
Q 5097 3584 5394 3201 
Q 5691 2819 5691 2113 
L 5691 0 
L 5113 0 
L 5113 2094 
Q 5113 2597 4934 2840 
Q 4756 3084 4391 3084 
Q 3944 3084 3684 2787 
Q 3425 2491 3425 1978 
L 3425 0 
L 2847 0 
L 2847 2094 
Q 2847 2600 2669 2842 
Q 2491 3084 2119 3084 
Q 1678 3084 1418 2786 
Q 1159 2488 1159 1978 
L 1159 0 
L 581 0 
L 581 3500 
L 1159 3500 
L 1159 2956 
Q 1356 3278 1631 3431 
Q 1906 3584 2284 3584 
Q 2666 3584 2933 3390 
Q 3200 3197 3328 2828 
z
" transform="scale(0.015625)"/>
       <path id="DejaVuSans-74" d="M 1172 4494 
L 1172 3500 
L 2356 3500 
L 2356 3053 
L 1172 3053 
L 1172 1153 
Q 1172 725 1289 603 
Q 1406 481 1766 481 
L 2356 481 
L 2356 0 
L 1766 0 
Q 1100 0 847 248 
Q 594 497 594 1153 
L 594 3053 
L 172 3053 
L 172 3500 
L 594 3500 
L 594 4494 
L 1172 4494 
z
" transform="scale(0.015625)"/>
      </defs>
      <use xlink:href="#DejaVuSans-23"/>
      <use xlink:href="#DejaVuSans-20" x="83.789062"/>
      <use xlink:href="#DejaVuSans-68" x="115.576172"/>
      <use xlink:href="#DejaVuSans-65" x="178.955078"/>
      <use xlink:href="#DejaVuSans-61" x="240.478516"/>
      <use xlink:href="#DejaVuSans-64" x="301.757812"/>
      <use xlink:href="#DejaVuSans-73" x="365.234375"/>
      <use xlink:href="#DejaVuSans-20" x="417.333984"/>
      <use xlink:href="#DejaVuSans-69" x="449.121094"/>
      <use xlink:href="#DejaVuSans-6e" x="476.904297"/>
      <use xlink:href="#DejaVuSans-20" x="540.283203"/>
      <use xlink:href="#DejaVuSans-65" x="572.070312"/>
      <use xlink:href="#DejaVuSans-78" x="631.84375"/>
      <use xlink:href="#DejaVuSans-70" x="691.023438"/>
      <use xlink:href="#DejaVuSans-65" x="754.5"/>
      <use xlink:href="#DejaVuSans-72" x="816.023438"/>
      <use xlink:href="#DejaVuSans-69" x="857.136719"/>
      <use xlink:href="#DejaVuSans-6d" x="884.919922"/>
      <use xlink:href="#DejaVuSans-65" x="982.332031"/>
      <use xlink:href="#DejaVuSans-6e" x="1043.855469"/>
      <use xlink:href="#DejaVuSans-74" x="1107.234375"/>
     </g>
    </g>
   </g>
   <g id="matplotlib.axis_2">
    <g id="ytick_1">
     <g id="line2d_8">
      <path d="M 57.6 307.584 
L 414.72 307.584 
" clip-path="url(#pdbf1e4b7e5)" style="fill: none; stroke: #000000; stroke-width: 0.8; stroke-linecap: square"/>
     </g>
     <g id="line2d_9">
      <defs>
       <path id="mfde1ce27e6" d="M 0 0 
L -3.5 0 
" style="stroke: #000000; stroke-width: 0.8"/>
      </defs>
      <g>
       <use xlink:href="#mfde1ce27e6" x="57.6" y="307.584" style="stroke: #000000; stroke-width: 0.8"/>
      </g>
     </g>
     <g id="text_9">
      <!-- 0.00 -->
      <g transform="translate(28.334375 311.383219)scale(0.1 -0.1)">
       <defs>
        <path id="DejaVuSans-2e" d="M 684 794 
L 1344 794 
L 1344 0 
L 684 0 
L 684 794 
z
" transform="scale(0.015625)"/>
       </defs>
       <use xlink:href="#DejaVuSans-30"/>
       <use xlink:href="#DejaVuSans-2e" x="63.623047"/>
       <use xlink:href="#DejaVuSans-30" x="95.410156"/>
       <use xlink:href="#DejaVuSans-30" x="159.033203"/>
      </g>
     </g>
    </g>
    <g id="ytick_2">
     <g id="line2d_10">
      <path d="M 57.6 276.563192 
L 414.72 276.563192 
" clip-path="url(#pdbf1e4b7e5)" style="fill: none; stroke: #000000; stroke-width: 0.8; stroke-linecap: square"/>
     </g>
     <g id="line2d_11">
      <g>
       <use xlink:href="#mfde1ce27e6" x="57.6" y="276.563192" style="stroke: #000000; stroke-width: 0.8"/>
      </g>
     </g>
     <g id="text_10">
      <!-- 0.01 -->
      <g transform="translate(28.334375 280.362411)scale(0.1 -0.1)">
       <defs>
        <path id="DejaVuSans-31" d="M 794 531 
L 1825 531 
L 1825 4091 
L 703 3866 
L 703 4441 
L 1819 4666 
L 2450 4666 
L 2450 531 
L 3481 531 
L 3481 0 
L 794 0 
L 794 531 
z
" transform="scale(0.015625)"/>
       </defs>
       <use xlink:href="#DejaVuSans-30"/>
       <use xlink:href="#DejaVuSans-2e" x="63.623047"/>
       <use xlink:href="#DejaVuSans-30" x="95.410156"/>
       <use xlink:href="#DejaVuSans-31" x="159.033203"/>
      </g>
     </g>
    </g>
    <g id="ytick_3">
     <g id="line2d_12">
      <path d="M 57.6 245.542384 
L 414.72 245.542384 
" clip-path="url(#pdbf1e4b7e5)" style="fill: none; stroke: #000000; stroke-width: 0.8; stroke-linecap: square"/>
     </g>
     <g id="line2d_13">
      <g>
       <use xlink:href="#mfde1ce27e6" x="57.6" y="245.542384" style="stroke: #000000; stroke-width: 0.8"/>
      </g>
     </g>
     <g id="text_11">
      <!-- 0.02 -->
      <g transform="translate(28.334375 249.341603)scale(0.1 -0.1)">
       <use xlink:href="#DejaVuSans-30"/>
       <use xlink:href="#DejaVuSans-2e" x="63.623047"/>
       <use xlink:href="#DejaVuSans-30" x="95.410156"/>
       <use xlink:href="#DejaVuSans-32" x="159.033203"/>
      </g>
     </g>
    </g>
    <g id="ytick_4">
     <g id="line2d_14">
      <path d="M 57.6 214.521576 
L 414.72 214.521576 
" clip-path="url(#pdbf1e4b7e5)" style="fill: none; stroke: #000000; stroke-width: 0.8; stroke-linecap: square"/>
     </g>
     <g id="line2d_15">
      <g>
       <use xlink:href="#mfde1ce27e6" x="57.6" y="214.521576" style="stroke: #000000; stroke-width: 0.8"/>
      </g>
     </g>
     <g id="text_12">
      <!-- 0.03 -->
      <g transform="translate(28.334375 218.320795)scale(0.1 -0.1)">
       <use xlink:href="#DejaVuSans-30"/>
       <use xlink:href="#DejaVuSans-2e" x="63.623047"/>
       <use xlink:href="#DejaVuSans-30" x="95.410156"/>
       <use xlink:href="#DejaVuSans-33" x="159.033203"/>
      </g>
     </g>
    </g>
    <g id="ytick_5">
     <g id="line2d_16">
      <path d="M 57.6 183.500769 
L 414.72 183.500769 
" clip-path="url(#pdbf1e4b7e5)" style="fill: none; stroke: #000000; stroke-width: 0.8; stroke-linecap: square"/>
     </g>
     <g id="line2d_17">
      <g>
       <use xlink:href="#mfde1ce27e6" x="57.6" y="183.500769" style="stroke: #000000; stroke-width: 0.8"/>
      </g>
     </g>
     <g id="text_13">
      <!-- 0.04 -->
      <g transform="translate(28.334375 187.299987)scale(0.1 -0.1)">
       <use xlink:href="#DejaVuSans-30"/>
       <use xlink:href="#DejaVuSans-2e" x="63.623047"/>
       <use xlink:href="#DejaVuSans-30" x="95.410156"/>
       <use xlink:href="#DejaVuSans-34" x="159.033203"/>
      </g>
     </g>
    </g>
    <g id="ytick_6">
     <g id="line2d_18">
      <path d="M 57.6 152.479961 
L 414.72 152.479961 
" clip-path="url(#pdbf1e4b7e5)" style="fill: none; stroke: #000000; stroke-width: 0.8; stroke-linecap: square"/>
     </g>
     <g id="line2d_19">
      <g>
       <use xlink:href="#mfde1ce27e6" x="57.6" y="152.479961" style="stroke: #000000; stroke-width: 0.8"/>
      </g>
     </g>
     <g id="text_14">
      <!-- 0.05 -->
      <g transform="translate(28.334375 156.27918)scale(0.1 -0.1)">
       <use xlink:href="#DejaVuSans-30"/>
       <use xlink:href="#DejaVuSans-2e" x="63.623047"/>
       <use xlink:href="#DejaVuSans-30" x="95.410156"/>
       <use xlink:href="#DejaVuSans-35" x="159.033203"/>
      </g>
     </g>
    </g>
    <g id="ytick_7">
     <g id="line2d_20">
      <path d="M 57.6 121.459153 
L 414.72 121.459153 
" clip-path="url(#pdbf1e4b7e5)" style="fill: none; stroke: #000000; stroke-width: 0.8; stroke-linecap: square"/>
     </g>
     <g id="line2d_21">
      <g>
       <use xlink:href="#mfde1ce27e6" x="57.6" y="121.459153" style="stroke: #000000; stroke-width: 0.8"/>
      </g>
     </g>
     <g id="text_15">
      <!-- 0.06 -->
      <g transform="translate(28.334375 125.258372)scale(0.1 -0.1)">
       <defs>
        <path id="DejaVuSans-36" d="M 2113 2584 
Q 1688 2584 1439 2293 
Q 1191 2003 1191 1497 
Q 1191 994 1439 701 
Q 1688 409 2113 409 
Q 2538 409 2786 701 
Q 3034 994 3034 1497 
Q 3034 2003 2786 2293 
Q 2538 2584 2113 2584 
z
M 3366 4563 
L 3366 3988 
Q 3128 4100 2886 4159 
Q 2644 4219 2406 4219 
Q 1781 4219 1451 3797 
Q 1122 3375 1075 2522 
Q 1259 2794 1537 2939 
Q 1816 3084 2150 3084 
Q 2853 3084 3261 2657 
Q 3669 2231 3669 1497 
Q 3669 778 3244 343 
Q 2819 -91 2113 -91 
Q 1303 -91 875 529 
Q 447 1150 447 2328 
Q 447 3434 972 4092 
Q 1497 4750 2381 4750 
Q 2619 4750 2861 4703 
Q 3103 4656 3366 4563 
z
" transform="scale(0.015625)"/>
       </defs>
       <use xlink:href="#DejaVuSans-30"/>
       <use xlink:href="#DejaVuSans-2e" x="63.623047"/>
       <use xlink:href="#DejaVuSans-30" x="95.410156"/>
       <use xlink:href="#DejaVuSans-36" x="159.033203"/>
      </g>
     </g>
    </g>
    <g id="ytick_8">
     <g id="line2d_22">
      <path d="M 57.6 90.438345 
L 414.72 90.438345 
" clip-path="url(#pdbf1e4b7e5)" style="fill: none; stroke: #000000; stroke-width: 0.8; stroke-linecap: square"/>
     </g>
     <g id="line2d_23">
      <g>
       <use xlink:href="#mfde1ce27e6" x="57.6" y="90.438345" style="stroke: #000000; stroke-width: 0.8"/>
      </g>
     </g>
     <g id="text_16">
      <!-- 0.07 -->
      <g transform="translate(28.334375 94.237564)scale(0.1 -0.1)">
       <defs>
        <path id="DejaVuSans-37" d="M 525 4666 
L 3525 4666 
L 3525 4397 
L 1831 0 
L 1172 0 
L 2766 4134 
L 525 4134 
L 525 4666 
z
" transform="scale(0.015625)"/>
       </defs>
       <use xlink:href="#DejaVuSans-30"/>
       <use xlink:href="#DejaVuSans-2e" x="63.623047"/>
       <use xlink:href="#DejaVuSans-30" x="95.410156"/>
       <use xlink:href="#DejaVuSans-37" x="159.033203"/>
      </g>
     </g>
    </g>
    <g id="ytick_9">
     <g id="line2d_24">
      <path d="M 57.6 59.417537 
L 414.72 59.417537 
" clip-path="url(#pdbf1e4b7e5)" style="fill: none; stroke: #000000; stroke-width: 0.8; stroke-linecap: square"/>
     </g>
     <g id="line2d_25">
      <g>
       <use xlink:href="#mfde1ce27e6" x="57.6" y="59.417537" style="stroke: #000000; stroke-width: 0.8"/>
      </g>
     </g>
     <g id="text_17">
      <!-- 0.08 -->
      <g transform="translate(28.334375 63.216756)scale(0.1 -0.1)">
       <defs>
        <path id="DejaVuSans-38" d="M 2034 2216 
Q 1584 2216 1326 1975 
Q 1069 1734 1069 1313 
Q 1069 891 1326 650 
Q 1584 409 2034 409 
Q 2484 409 2743 651 
Q 3003 894 3003 1313 
Q 3003 1734 2745 1975 
Q 2488 2216 2034 2216 
z
M 1403 2484 
Q 997 2584 770 2862 
Q 544 3141 544 3541 
Q 544 4100 942 4425 
Q 1341 4750 2034 4750 
Q 2731 4750 3128 4425 
Q 3525 4100 3525 3541 
Q 3525 3141 3298 2862 
Q 3072 2584 2669 2484 
Q 3125 2378 3379 2068 
Q 3634 1759 3634 1313 
Q 3634 634 3220 271 
Q 2806 -91 2034 -91 
Q 1263 -91 848 271 
Q 434 634 434 1313 
Q 434 1759 690 2068 
Q 947 2378 1403 2484 
z
M 1172 3481 
Q 1172 3119 1398 2916 
Q 1625 2713 2034 2713 
Q 2441 2713 2670 2916 
Q 2900 3119 2900 3481 
Q 2900 3844 2670 4047 
Q 2441 4250 2034 4250 
Q 1625 4250 1398 4047 
Q 1172 3844 1172 3481 
z
" transform="scale(0.015625)"/>
       </defs>
       <use xlink:href="#DejaVuSans-30"/>
       <use xlink:href="#DejaVuSans-2e" x="63.623047"/>
       <use xlink:href="#DejaVuSans-30" x="95.410156"/>
       <use xlink:href="#DejaVuSans-38" x="159.033203"/>
      </g>
     </g>
    </g>
    <g id="text_18">
     <!-- P of # heads in experiment -->
     <g transform="translate(22.254687 242.863156)rotate(-90)scale(0.1 -0.1)">
      <defs>
       <path id="DejaVuSans-50" d="M 1259 4147 
L 1259 2394 
L 2053 2394 
Q 2494 2394 2734 2622 
Q 2975 2850 2975 3272 
Q 2975 3691 2734 3919 
Q 2494 4147 2053 4147 
L 1259 4147 
z
M 628 4666 
L 2053 4666 
Q 2838 4666 3239 4311 
Q 3641 3956 3641 3272 
Q 3641 2581 3239 2228 
Q 2838 1875 2053 1875 
L 1259 1875 
L 1259 0 
L 628 0 
L 628 4666 
z
" transform="scale(0.015625)"/>
       <path id="DejaVuSans-6f" d="M 1959 3097 
Q 1497 3097 1228 2736 
Q 959 2375 959 1747 
Q 959 1119 1226 758 
Q 1494 397 1959 397 
Q 2419 397 2687 759 
Q 2956 1122 2956 1747 
Q 2956 2369 2687 2733 
Q 2419 3097 1959 3097 
z
M 1959 3584 
Q 2709 3584 3137 3096 
Q 3566 2609 3566 1747 
Q 3566 888 3137 398 
Q 2709 -91 1959 -91 
Q 1206 -91 779 398 
Q 353 888 353 1747 
Q 353 2609 779 3096 
Q 1206 3584 1959 3584 
z
" transform="scale(0.015625)"/>
       <path id="DejaVuSans-66" d="M 2375 4863 
L 2375 4384 
L 1825 4384 
Q 1516 4384 1395 4259 
Q 1275 4134 1275 3809 
L 1275 3500 
L 2222 3500 
L 2222 3053 
L 1275 3053 
L 1275 0 
L 697 0 
L 697 3053 
L 147 3053 
L 147 3500 
L 697 3500 
L 697 3744 
Q 697 4328 969 4595 
Q 1241 4863 1831 4863 
L 2375 4863 
z
" transform="scale(0.015625)"/>
      </defs>
      <use xlink:href="#DejaVuSans-50"/>
      <use xlink:href="#DejaVuSans-20" x="60.302734"/>
      <use xlink:href="#DejaVuSans-6f" x="92.089844"/>
      <use xlink:href="#DejaVuSans-66" x="153.271484"/>
      <use xlink:href="#DejaVuSans-20" x="188.476562"/>
      <use xlink:href="#DejaVuSans-23" x="220.263672"/>
      <use xlink:href="#DejaVuSans-20" x="304.052734"/>
      <use xlink:href="#DejaVuSans-68" x="335.839844"/>
      <use xlink:href="#DejaVuSans-65" x="399.21875"/>
      <use xlink:href="#DejaVuSans-61" x="460.742188"/>
      <use xlink:href="#DejaVuSans-64" x="522.021484"/>
      <use xlink:href="#DejaVuSans-73" x="585.498047"/>
      <use xlink:href="#DejaVuSans-20" x="637.597656"/>
      <use xlink:href="#DejaVuSans-69" x="669.384766"/>
      <use xlink:href="#DejaVuSans-6e" x="697.167969"/>
      <use xlink:href="#DejaVuSans-20" x="760.546875"/>
      <use xlink:href="#DejaVuSans-65" x="792.333984"/>
      <use xlink:href="#DejaVuSans-78" x="852.107422"/>
      <use xlink:href="#DejaVuSans-70" x="911.287109"/>
      <use xlink:href="#DejaVuSans-65" x="974.763672"/>
      <use xlink:href="#DejaVuSans-72" x="1036.287109"/>
      <use xlink:href="#DejaVuSans-69" x="1077.400391"/>
      <use xlink:href="#DejaVuSans-6d" x="1105.183594"/>
      <use xlink:href="#DejaVuSans-65" x="1202.595703"/>
      <use xlink:href="#DejaVuSans-6e" x="1264.119141"/>
      <use xlink:href="#DejaVuSans-74" x="1327.498047"/>
     </g>
    </g>
   </g>
   <g id="line2d_26">
    <path d="M -1 307.584 
L 57.6 307.584 
L 57.6 307.273792 
L 66.997895 307.273792 
L 66.997895 307.584 
L 76.395789 307.584 
L 76.395789 307.273792 
L 85.793684 307.273792 
L 85.793684 305.722752 
L 95.191579 305.722752 
L 95.191579 304.171711 
L 104.589474 304.171711 
L 104.589474 299.828798 
L 113.987368 299.828798 
L 113.987368 293.624636 
L 123.385263 293.624636 
L 123.385263 292.694012 
L 132.783158 292.694012 
L 132.783158 275.942776 
L 142.181053 275.942776 
L 142.181053 256.399667 
L 151.578947 256.399667 
L 151.578947 239.958639 
L 160.976842 239.958639 
L 160.976842 221.035946 
L 170.374737 221.035946 
L 170.374737 185.362017 
L 179.772632 185.362017 
L 179.772632 152.790169 
L 189.170526 152.790169 
L 189.170526 118.046864 
L 198.568421 118.046864 
L 198.568421 109.05083 
L 207.966316 109.05083 
L 207.966316 74.927941 
L 217.364211 74.927941 
L 217.364211 61.278786 
L 226.762105 61.278786 
L 226.762105 60.348162 
L 236.16 60.348162 
L 236.16 66.552323 
L 245.557895 66.552323 
L 245.557895 79.891271 
L 254.955789 79.891271 
L 254.955789 92.299594 
L 264.353684 92.299594 
L 264.353684 131.385812 
L 273.751579 131.385812 
L 273.751579 153.100377 
L 283.149474 153.100377 
L 283.149474 174.194526 
L 292.547368 174.194526 
L 292.547368 216.072617 
L 301.945263 216.072617 
L 301.945263 238.717807 
L 311.343158 238.717807 
L 311.343158 264.775285 
L 320.741053 264.775285 
L 320.741053 275.632568 
L 330.138947 275.632568 
L 330.138947 286.179643 
L 339.536842 286.179643 
L 339.536842 296.726717 
L 348.934737 296.726717 
L 348.934737 298.898174 
L 358.332632 298.898174 
L 358.332632 304.792127 
L 367.730526 304.792127 
L 367.730526 305.102335 
L 377.128421 305.102335 
L 377.128421 306.653376 
L 386.526316 306.653376 
L 386.526316 306.963584 
L 395.924211 306.963584 
L 395.924211 307.273792 
L 405.322105 307.273792 
L 405.322105 307.584 
L 461.8 307.584 
L 461.8 307.584 
" clip-path="url(#pdbf1e4b7e5)" style="fill: none; stroke: #000000; stroke-width: 1.5; stroke-linecap: square"/>
   </g>
   <g id="line2d_27">
    <path d="M -1 307.584 
L 48.202105 307.584 
L 48.202105 307.273792 
L 57.6 307.273792 
L 57.6 306.963584 
L 85.793684 306.963584 
L 85.793684 306.343168 
L 95.191579 306.343168 
L 95.191579 303.861503 
L 104.589474 303.861503 
L 104.589474 302.310463 
L 113.987368 302.310463 
L 113.987368 297.036925 
L 123.385263 297.036925 
L 123.385263 293.314428 
L 132.783158 293.314428 
L 132.783158 284.318394 
L 142.181053 284.318394 
L 142.181053 269.428406 
L 151.578947 269.428406 
L 151.578947 254.538419 
L 160.976842 254.538419 
L 160.976842 233.134061 
L 170.374737 233.134061 
L 170.374737 206.145958 
L 179.772632 206.145958 
L 179.772632 183.500769 
L 189.170526 183.500769 
L 189.170526 140.692054 
L 198.568421 140.692054 
L 198.568421 108.120206 
L 207.966316 108.120206 
L 207.966316 97.262923 
L 217.364211 97.262923 
L 217.364211 72.136069 
L 226.762105 72.136069 
L 226.762105 67.172739 
L 236.16 67.172739 
L 236.16 71.515652 
L 245.557895 71.515652 
L 245.557895 54.144 
L 254.955789 54.144 
L 254.955789 87.956681 
L 264.353684 87.956681 
L 264.353684 114.944783 
L 273.751579 114.944783 
L 273.751579 136.659349 
L 283.149474 136.659349 
L 283.149474 173.57411 
L 292.547368 173.57411 
L 292.547368 195.288676 
L 301.945263 195.288676 
L 301.945263 227.550316 
L 311.343158 227.550316 
L 311.343158 236.236142 
L 320.741053 236.236142 
L 320.741053 261.673204 
L 330.138947 261.673204 
L 330.138947 276.563192 
L 339.536842 276.563192 
L 339.536842 286.179643 
L 348.934737 286.179643 
L 348.934737 296.726717 
L 358.332632 296.726717 
L 358.332632 299.828798 
L 367.730526 299.828798 
L 367.730526 303.861503 
L 377.128421 303.861503 
L 377.128421 304.481919 
L 386.526316 304.481919 
L 386.526316 306.03296 
L 395.924211 306.03296 
L 395.924211 306.653376 
L 405.322105 306.653376 
L 405.322105 307.273792 
L 424.117895 307.273792 
L 424.117895 306.963584 
L 433.515789 306.963584 
L 433.515789 307.584 
L 461.8 307.584 
L 461.8 307.584 
" clip-path="url(#pdbf1e4b7e5)" style="fill: none; stroke: #ff0000; stroke-width: 1.5; stroke-linecap: square"/>
   </g>
   <g id="patch_103">
    <path d="M 57.6 307.584 
L 57.6 41.472 
" style="fill: none; stroke: #000000; stroke-width: 0.8; stroke-linejoin: miter; stroke-linecap: square"/>
   </g>
   <g id="patch_104">
    <path d="M 414.72 307.584 
L 414.72 41.472 
" style="fill: none; stroke: #000000; stroke-width: 0.8; stroke-linejoin: miter; stroke-linecap: square"/>
   </g>
   <g id="patch_105">
    <path d="M 57.6 307.584 
L 414.72 307.584 
" style="fill: none; stroke: #000000; stroke-width: 0.8; stroke-linejoin: miter; stroke-linecap: square"/>
   </g>
   <g id="patch_106">
    <path d="M 57.6 41.472 
L 414.72 41.472 
" style="fill: none; stroke: #000000; stroke-width: 0.8; stroke-linejoin: miter; stroke-linecap: square"/>
   </g>
   <g id="text_19">
    <!-- # trials/experiment = 100; # experiments = 10000 -->
    <g transform="translate(81.110625 35.472)scale(0.12 -0.12)">
     <defs>
      <path id="DejaVuSans-6c" d="M 603 4863 
L 1178 4863 
L 1178 0 
L 603 0 
L 603 4863 
z
" transform="scale(0.015625)"/>
      <path id="DejaVuSans-2f" d="M 1625 4666 
L 2156 4666 
L 531 -594 
L 0 -594 
L 1625 4666 
z
" transform="scale(0.015625)"/>
      <path id="DejaVuSans-3d" d="M 678 2906 
L 4684 2906 
L 4684 2381 
L 678 2381 
L 678 2906 
z
M 678 1631 
L 4684 1631 
L 4684 1100 
L 678 1100 
L 678 1631 
z
" transform="scale(0.015625)"/>
      <path id="DejaVuSans-3b" d="M 750 3309 
L 1409 3309 
L 1409 2516 
L 750 2516 
L 750 3309 
z
M 750 794 
L 1409 794 
L 1409 256 
L 897 -744 
L 494 -744 
L 750 256 
L 750 794 
z
" transform="scale(0.015625)"/>
     </defs>
     <use xlink:href="#DejaVuSans-23"/>
     <use xlink:href="#DejaVuSans-20" x="83.789062"/>
     <use xlink:href="#DejaVuSans-74" x="115.576172"/>
     <use xlink:href="#DejaVuSans-72" x="154.785156"/>
     <use xlink:href="#DejaVuSans-69" x="195.898438"/>
     <use xlink:href="#DejaVuSans-61" x="223.681641"/>
     <use xlink:href="#DejaVuSans-6c" x="284.960938"/>
     <use xlink:href="#DejaVuSans-73" x="312.744141"/>
     <use xlink:href="#DejaVuSans-2f" x="364.84375"/>
     <use xlink:href="#DejaVuSans-65" x="398.535156"/>
     <use xlink:href="#DejaVuSans-78" x="458.308594"/>
     <use xlink:href="#DejaVuSans-70" x="517.488281"/>
     <use xlink:href="#DejaVuSans-65" x="580.964844"/>
     <use xlink:href="#DejaVuSans-72" x="642.488281"/>
     <use xlink:href="#DejaVuSans-69" x="683.601562"/>
     <use xlink:href="#DejaVuSans-6d" x="711.384766"/>
     <use xlink:href="#DejaVuSans-65" x="808.796875"/>
     <use xlink:href="#DejaVuSans-6e" x="870.320312"/>
     <use xlink:href="#DejaVuSans-74" x="933.699219"/>
     <use xlink:href="#DejaVuSans-20" x="972.908203"/>
     <use xlink:href="#DejaVuSans-3d" x="1004.695312"/>
     <use xlink:href="#DejaVuSans-20" x="1088.484375"/>
     <use xlink:href="#DejaVuSans-31" x="1120.271484"/>
     <use xlink:href="#DejaVuSans-30" x="1183.894531"/>
     <use xlink:href="#DejaVuSans-30" x="1247.517578"/>
     <use xlink:href="#DejaVuSans-3b" x="1311.140625"/>
     <use xlink:href="#DejaVuSans-20" x="1344.832031"/>
     <use xlink:href="#DejaVuSans-23" x="1376.619141"/>
     <use xlink:href="#DejaVuSans-20" x="1460.408203"/>
     <use xlink:href="#DejaVuSans-65" x="1492.195312"/>
     <use xlink:href="#DejaVuSans-78" x="1551.96875"/>
     <use xlink:href="#DejaVuSans-70" x="1611.148438"/>
     <use xlink:href="#DejaVuSans-65" x="1674.625"/>
     <use xlink:href="#DejaVuSans-72" x="1736.148438"/>
     <use xlink:href="#DejaVuSans-69" x="1777.261719"/>
     <use xlink:href="#DejaVuSans-6d" x="1805.044922"/>
     <use xlink:href="#DejaVuSans-65" x="1902.457031"/>
     <use xlink:href="#DejaVuSans-6e" x="1963.980469"/>
     <use xlink:href="#DejaVuSans-74" x="2027.359375"/>
     <use xlink:href="#DejaVuSans-73" x="2066.568359"/>
     <use xlink:href="#DejaVuSans-20" x="2118.667969"/>
     <use xlink:href="#DejaVuSans-3d" x="2150.455078"/>
     <use xlink:href="#DejaVuSans-20" x="2234.244141"/>
     <use xlink:href="#DejaVuSans-31" x="2266.03125"/>
     <use xlink:href="#DejaVuSans-30" x="2329.654297"/>
     <use xlink:href="#DejaVuSans-30" x="2393.277344"/>
     <use xlink:href="#DejaVuSans-30" x="2456.900391"/>
     <use xlink:href="#DejaVuSans-30" x="2520.523438"/>
    </g>
   </g>
   <g id="legend_1">
    <g id="patch_107">
     <path d="M 64.6 93.506375 
L 210.101562 93.506375 
Q 212.101562 93.506375 212.101562 91.506375 
L 212.101562 48.472 
Q 212.101562 46.472 210.101562 46.472 
L 64.6 46.472 
Q 62.6 46.472 62.6 48.472 
L 62.6 91.506375 
Q 62.6 93.506375 64.6 93.506375 
z
" style="fill: #ffffff; opacity: 0.8; stroke: #cccccc; stroke-linejoin: miter"/>
    </g>
    <g id="line2d_28">
     <path d="M 66.6 54.570438 
L 71.6 54.570438 
L 71.6 54.570438 
L 81.6 54.570438 
L 81.6 54.570438 
L 86.6 54.570438 
" style="fill: none; stroke: #000000; stroke-width: 1.5; stroke-linecap: square"/>
    </g>
    <g id="text_20">
     <!-- Experiment 1. p=0.4 -->
     <g transform="translate(94.6 58.070438)scale(0.1 -0.1)">
      <defs>
       <path id="DejaVuSans-45" d="M 628 4666 
L 3578 4666 
L 3578 4134 
L 1259 4134 
L 1259 2753 
L 3481 2753 
L 3481 2222 
L 1259 2222 
L 1259 531 
L 3634 531 
L 3634 0 
L 628 0 
L 628 4666 
z
" transform="scale(0.015625)"/>
      </defs>
      <use xlink:href="#DejaVuSans-45"/>
      <use xlink:href="#DejaVuSans-78" x="63.183594"/>
      <use xlink:href="#DejaVuSans-70" x="122.363281"/>
      <use xlink:href="#DejaVuSans-65" x="185.839844"/>
      <use xlink:href="#DejaVuSans-72" x="247.363281"/>
      <use xlink:href="#DejaVuSans-69" x="288.476562"/>
      <use xlink:href="#DejaVuSans-6d" x="316.259766"/>
      <use xlink:href="#DejaVuSans-65" x="413.671875"/>
      <use xlink:href="#DejaVuSans-6e" x="475.195312"/>
      <use xlink:href="#DejaVuSans-74" x="538.574219"/>
      <use xlink:href="#DejaVuSans-20" x="577.783203"/>
      <use xlink:href="#DejaVuSans-31" x="609.570312"/>
      <use xlink:href="#DejaVuSans-2e" x="673.193359"/>
      <use xlink:href="#DejaVuSans-20" x="704.980469"/>
      <use xlink:href="#DejaVuSans-70" x="736.767578"/>
      <use xlink:href="#DejaVuSans-3d" x="800.244141"/>
      <use xlink:href="#DejaVuSans-30" x="884.033203"/>
      <use xlink:href="#DejaVuSans-2e" x="947.65625"/>
      <use xlink:href="#DejaVuSans-34" x="979.443359"/>
     </g>
    </g>
    <g id="line2d_29">
     <path d="M 66.6 69.248563 
L 71.6 69.248563 
L 71.6 69.248563 
L 81.6 69.248563 
L 81.6 69.248563 
L 86.6 69.248563 
" style="fill: none; stroke: #ff0000; stroke-width: 1.5; stroke-linecap: square"/>
    </g>
    <g id="text_21">
     <!-- Experiment 2. p varies -->
     <g transform="translate(94.6 72.748563)scale(0.1 -0.1)">
      <defs>
       <path id="DejaVuSans-76" d="M 191 3500 
L 800 3500 
L 1894 563 
L 2988 3500 
L 3597 3500 
L 2284 0 
L 1503 0 
L 191 3500 
z
" transform="scale(0.015625)"/>
      </defs>
      <use xlink:href="#DejaVuSans-45"/>
      <use xlink:href="#DejaVuSans-78" x="63.183594"/>
      <use xlink:href="#DejaVuSans-70" x="122.363281"/>
      <use xlink:href="#DejaVuSans-65" x="185.839844"/>
      <use xlink:href="#DejaVuSans-72" x="247.363281"/>
      <use xlink:href="#DejaVuSans-69" x="288.476562"/>
      <use xlink:href="#DejaVuSans-6d" x="316.259766"/>
      <use xlink:href="#DejaVuSans-65" x="413.671875"/>
      <use xlink:href="#DejaVuSans-6e" x="475.195312"/>
      <use xlink:href="#DejaVuSans-74" x="538.574219"/>
      <use xlink:href="#DejaVuSans-20" x="577.783203"/>
      <use xlink:href="#DejaVuSans-32" x="609.570312"/>
      <use xlink:href="#DejaVuSans-2e" x="673.193359"/>
      <use xlink:href="#DejaVuSans-20" x="704.980469"/>
      <use xlink:href="#DejaVuSans-70" x="736.767578"/>
      <use xlink:href="#DejaVuSans-20" x="800.244141"/>
      <use xlink:href="#DejaVuSans-76" x="832.03125"/>
      <use xlink:href="#DejaVuSans-61" x="891.210938"/>
      <use xlink:href="#DejaVuSans-72" x="952.490234"/>
      <use xlink:href="#DejaVuSans-69" x="993.603516"/>
      <use xlink:href="#DejaVuSans-65" x="1021.386719"/>
      <use xlink:href="#DejaVuSans-73" x="1082.910156"/>
     </g>
    </g>
    <g id="patch_108">
     <path d="M 66.6 87.426688 
L 86.6 87.426688 
L 86.6 80.426688 
L 66.6 80.426688 
z
" style="fill: #1f77b4"/>
    </g>
    <g id="text_22">
     <!-- Binomial Formula -->
     <g transform="translate(94.6 87.426688)scale(0.1 -0.1)">
      <defs>
       <path id="DejaVuSans-42" d="M 1259 2228 
L 1259 519 
L 2272 519 
Q 2781 519 3026 730 
Q 3272 941 3272 1375 
Q 3272 1813 3026 2020 
Q 2781 2228 2272 2228 
L 1259 2228 
z
M 1259 4147 
L 1259 2741 
L 2194 2741 
Q 2656 2741 2882 2914 
Q 3109 3088 3109 3444 
Q 3109 3797 2882 3972 
Q 2656 4147 2194 4147 
L 1259 4147 
z
M 628 4666 
L 2241 4666 
Q 2963 4666 3353 4366 
Q 3744 4066 3744 3513 
Q 3744 3084 3544 2831 
Q 3344 2578 2956 2516 
Q 3422 2416 3680 2098 
Q 3938 1781 3938 1306 
Q 3938 681 3513 340 
Q 3088 0 2303 0 
L 628 0 
L 628 4666 
z
" transform="scale(0.015625)"/>
       <path id="DejaVuSans-46" d="M 628 4666 
L 3309 4666 
L 3309 4134 
L 1259 4134 
L 1259 2759 
L 3109 2759 
L 3109 2228 
L 1259 2228 
L 1259 0 
L 628 0 
L 628 4666 
z
" transform="scale(0.015625)"/>
       <path id="DejaVuSans-75" d="M 544 1381 
L 544 3500 
L 1119 3500 
L 1119 1403 
Q 1119 906 1312 657 
Q 1506 409 1894 409 
Q 2359 409 2629 706 
Q 2900 1003 2900 1516 
L 2900 3500 
L 3475 3500 
L 3475 0 
L 2900 0 
L 2900 538 
Q 2691 219 2414 64 
Q 2138 -91 1772 -91 
Q 1169 -91 856 284 
Q 544 659 544 1381 
z
M 1991 3584 
L 1991 3584 
z
" transform="scale(0.015625)"/>
      </defs>
      <use xlink:href="#DejaVuSans-42"/>
      <use xlink:href="#DejaVuSans-69" x="68.603516"/>
      <use xlink:href="#DejaVuSans-6e" x="96.386719"/>
      <use xlink:href="#DejaVuSans-6f" x="159.765625"/>
      <use xlink:href="#DejaVuSans-6d" x="220.947266"/>
      <use xlink:href="#DejaVuSans-69" x="318.359375"/>
      <use xlink:href="#DejaVuSans-61" x="346.142578"/>
      <use xlink:href="#DejaVuSans-6c" x="407.421875"/>
      <use xlink:href="#DejaVuSans-20" x="435.205078"/>
      <use xlink:href="#DejaVuSans-46" x="466.992188"/>
      <use xlink:href="#DejaVuSans-6f" x="520.886719"/>
      <use xlink:href="#DejaVuSans-72" x="582.068359"/>
      <use xlink:href="#DejaVuSans-6d" x="621.431641"/>
      <use xlink:href="#DejaVuSans-75" x="718.84375"/>
      <use xlink:href="#DejaVuSans-6c" x="782.222656"/>
      <use xlink:href="#DejaVuSans-61" x="810.005859"/>
     </g>
    </g>
   </g>
  </g>
 </g>
 <defs>
  <clipPath id="pdbf1e4b7e5">
   <rect x="57.6" y="41.472" width="357.12" height="266.112"/>
  </clipPath>
 </defs>
</svg>
