<?xml version="1.0" encoding="utf-8" standalone="no"?>
<!DOCTYPE svg PUBLIC "-//W3C//DTD SVG 1.1//EN"
  "http://www.w3.org/Graphics/SVG/1.1/DTD/svg11.dtd">
<!-- Created with matplotlib (https://matplotlib.org/) -->
<svg height="288pt" version="1.1" viewBox="0 0 432 288" width="432pt" xmlns="http://www.w3.org/2000/svg" xmlns:xlink="http://www.w3.org/1999/xlink">
 <defs>
  <style type="text/css">
*{stroke-linecap:butt;stroke-linejoin:round;}
  </style>
 </defs>
 <g id="figure_1">
  <g id="patch_1">
   <path d="M 0 288 
L 432 288 
L 432 0 
L 0 0 
z
" style="fill:none;"/>
  </g>
  <g id="axes_1">
   <g id="patch_2">
    <path d="M 54 252 
L 388.8 252 
L 388.8 34.56 
L 54 34.56 
z
" style="fill:none;"/>
   </g>
   <g id="matplotlib.axis_1">
    <g id="xtick_1">
     <g id="line2d_1">
      <defs>
       <path d="M 0 0 
L 0 3.5 
" id="mc08121258f" style="stroke:#000000;stroke-width:0.8;"/>
      </defs>
      <g>
       <use style="stroke:#000000;stroke-width:0.8;" x="56.732233" xlink:href="#mc08121258f" y="252"/>
      </g>
     </g>
     <g id="text_1">
      <!-- 0 -->
      <defs>
       <path d="M 31.78125 66.40625 
Q 24.171875 66.40625 20.328125 58.90625 
Q 16.5 51.421875 16.5 36.375 
Q 16.5 21.390625 20.328125 13.890625 
Q 24.171875 6.390625 31.78125 6.390625 
Q 39.453125 6.390625 43.28125 13.890625 
Q 47.125 21.390625 47.125 36.375 
Q 47.125 51.421875 43.28125 58.90625 
Q 39.453125 66.40625 31.78125 66.40625 
z
M 31.78125 74.21875 
Q 44.046875 74.21875 50.515625 64.515625 
Q 56.984375 54.828125 56.984375 36.375 
Q 56.984375 17.96875 50.515625 8.265625 
Q 44.046875 -1.421875 31.78125 -1.421875 
Q 19.53125 -1.421875 13.0625 8.265625 
Q 6.59375 17.96875 6.59375 36.375 
Q 6.59375 54.828125 13.0625 64.515625 
Q 19.53125 74.21875 31.78125 74.21875 
z
" id="DejaVuSans-48"/>
      </defs>
      <g transform="translate(53.550983 266.598437)scale(0.1 -0.1)">
       <use xlink:href="#DejaVuSans-48"/>
      </g>
     </g>
    </g>
    <g id="xtick_2">
     <g id="line2d_2">
      <g>
       <use style="stroke:#000000;stroke-width:0.8;" x="109.437781" xlink:href="#mc08121258f" y="252"/>
      </g>
     </g>
     <g id="text_2">
      <!-- 10 -->
      <defs>
       <path d="M 12.40625 8.296875 
L 28.515625 8.296875 
L 28.515625 63.921875 
L 10.984375 60.40625 
L 10.984375 69.390625 
L 28.421875 72.90625 
L 38.28125 72.90625 
L 38.28125 8.296875 
L 54.390625 8.296875 
L 54.390625 0 
L 12.40625 0 
z
" id="DejaVuSans-49"/>
      </defs>
      <g transform="translate(103.075281 266.598437)scale(0.1 -0.1)">
       <use xlink:href="#DejaVuSans-49"/>
       <use x="63.623047" xlink:href="#DejaVuSans-48"/>
      </g>
     </g>
    </g>
    <g id="xtick_3">
     <g id="line2d_3">
      <g>
       <use style="stroke:#000000;stroke-width:0.8;" x="162.14333" xlink:href="#mc08121258f" y="252"/>
      </g>
     </g>
     <g id="text_3">
      <!-- 20 -->
      <defs>
       <path d="M 19.1875 8.296875 
L 53.609375 8.296875 
L 53.609375 0 
L 7.328125 0 
L 7.328125 8.296875 
Q 12.9375 14.109375 22.625 23.890625 
Q 32.328125 33.6875 34.8125 36.53125 
Q 39.546875 41.84375 41.421875 45.53125 
Q 43.3125 49.21875 43.3125 52.78125 
Q 43.3125 58.59375 39.234375 62.25 
Q 35.15625 65.921875 28.609375 65.921875 
Q 23.96875 65.921875 18.8125 64.3125 
Q 13.671875 62.703125 7.8125 59.421875 
L 7.8125 69.390625 
Q 13.765625 71.78125 18.9375 73 
Q 24.125 74.21875 28.421875 74.21875 
Q 39.75 74.21875 46.484375 68.546875 
Q 53.21875 62.890625 53.21875 53.421875 
Q 53.21875 48.921875 51.53125 44.890625 
Q 49.859375 40.875 45.40625 35.40625 
Q 44.1875 33.984375 37.640625 27.21875 
Q 31.109375 20.453125 19.1875 8.296875 
z
" id="DejaVuSans-50"/>
      </defs>
      <g transform="translate(155.78083 266.598437)scale(0.1 -0.1)">
       <use xlink:href="#DejaVuSans-50"/>
       <use x="63.623047" xlink:href="#DejaVuSans-48"/>
      </g>
     </g>
    </g>
    <g id="xtick_4">
     <g id="line2d_4">
      <g>
       <use style="stroke:#000000;stroke-width:0.8;" x="214.848879" xlink:href="#mc08121258f" y="252"/>
      </g>
     </g>
     <g id="text_4">
      <!-- 30 -->
      <defs>
       <path d="M 40.578125 39.3125 
Q 47.65625 37.796875 51.625 33 
Q 55.609375 28.21875 55.609375 21.1875 
Q 55.609375 10.40625 48.1875 4.484375 
Q 40.765625 -1.421875 27.09375 -1.421875 
Q 22.515625 -1.421875 17.65625 -0.515625 
Q 12.796875 0.390625 7.625 2.203125 
L 7.625 11.71875 
Q 11.71875 9.328125 16.59375 8.109375 
Q 21.484375 6.890625 26.8125 6.890625 
Q 36.078125 6.890625 40.9375 10.546875 
Q 45.796875 14.203125 45.796875 21.1875 
Q 45.796875 27.640625 41.28125 31.265625 
Q 36.765625 34.90625 28.71875 34.90625 
L 20.21875 34.90625 
L 20.21875 43.015625 
L 29.109375 43.015625 
Q 36.375 43.015625 40.234375 45.921875 
Q 44.09375 48.828125 44.09375 54.296875 
Q 44.09375 59.90625 40.109375 62.90625 
Q 36.140625 65.921875 28.71875 65.921875 
Q 24.65625 65.921875 20.015625 65.03125 
Q 15.375 64.15625 9.8125 62.3125 
L 9.8125 71.09375 
Q 15.4375 72.65625 20.34375 73.4375 
Q 25.25 74.21875 29.59375 74.21875 
Q 40.828125 74.21875 47.359375 69.109375 
Q 53.90625 64.015625 53.90625 55.328125 
Q 53.90625 49.265625 50.4375 45.09375 
Q 46.96875 40.921875 40.578125 39.3125 
z
" id="DejaVuSans-51"/>
      </defs>
      <g transform="translate(208.486379 266.598437)scale(0.1 -0.1)">
       <use xlink:href="#DejaVuSans-51"/>
       <use x="63.623047" xlink:href="#DejaVuSans-48"/>
      </g>
     </g>
    </g>
    <g id="xtick_5">
     <g id="line2d_5">
      <g>
       <use style="stroke:#000000;stroke-width:0.8;" x="267.554427" xlink:href="#mc08121258f" y="252"/>
      </g>
     </g>
     <g id="text_5">
      <!-- 40 -->
      <defs>
       <path d="M 37.796875 64.3125 
L 12.890625 25.390625 
L 37.796875 25.390625 
z
M 35.203125 72.90625 
L 47.609375 72.90625 
L 47.609375 25.390625 
L 58.015625 25.390625 
L 58.015625 17.1875 
L 47.609375 17.1875 
L 47.609375 0 
L 37.796875 0 
L 37.796875 17.1875 
L 4.890625 17.1875 
L 4.890625 26.703125 
z
" id="DejaVuSans-52"/>
      </defs>
      <g transform="translate(261.191927 266.598437)scale(0.1 -0.1)">
       <use xlink:href="#DejaVuSans-52"/>
       <use x="63.623047" xlink:href="#DejaVuSans-48"/>
      </g>
     </g>
    </g>
    <g id="xtick_6">
     <g id="line2d_6">
      <g>
       <use style="stroke:#000000;stroke-width:0.8;" x="320.259976" xlink:href="#mc08121258f" y="252"/>
      </g>
     </g>
     <g id="text_6">
      <!-- 50 -->
      <defs>
       <path d="M 10.796875 72.90625 
L 49.515625 72.90625 
L 49.515625 64.59375 
L 19.828125 64.59375 
L 19.828125 46.734375 
Q 21.96875 47.46875 24.109375 47.828125 
Q 26.265625 48.1875 28.421875 48.1875 
Q 40.625 48.1875 47.75 41.5 
Q 54.890625 34.8125 54.890625 23.390625 
Q 54.890625 11.625 47.5625 5.09375 
Q 40.234375 -1.421875 26.90625 -1.421875 
Q 22.3125 -1.421875 17.546875 -0.640625 
Q 12.796875 0.140625 7.71875 1.703125 
L 7.71875 11.625 
Q 12.109375 9.234375 16.796875 8.0625 
Q 21.484375 6.890625 26.703125 6.890625 
Q 35.15625 6.890625 40.078125 11.328125 
Q 45.015625 15.765625 45.015625 23.390625 
Q 45.015625 31 40.078125 35.4375 
Q 35.15625 39.890625 26.703125 39.890625 
Q 22.75 39.890625 18.8125 39.015625 
Q 14.890625 38.140625 10.796875 36.28125 
z
" id="DejaVuSans-53"/>
      </defs>
      <g transform="translate(313.897476 266.598437)scale(0.1 -0.1)">
       <use xlink:href="#DejaVuSans-53"/>
       <use x="63.623047" xlink:href="#DejaVuSans-48"/>
      </g>
     </g>
    </g>
    <g id="xtick_7">
     <g id="line2d_7">
      <g>
       <use style="stroke:#000000;stroke-width:0.8;" x="372.965524" xlink:href="#mc08121258f" y="252"/>
      </g>
     </g>
     <g id="text_7">
      <!-- 60 -->
      <defs>
       <path d="M 33.015625 40.375 
Q 26.375 40.375 22.484375 35.828125 
Q 18.609375 31.296875 18.609375 23.390625 
Q 18.609375 15.53125 22.484375 10.953125 
Q 26.375 6.390625 33.015625 6.390625 
Q 39.65625 6.390625 43.53125 10.953125 
Q 47.40625 15.53125 47.40625 23.390625 
Q 47.40625 31.296875 43.53125 35.828125 
Q 39.65625 40.375 33.015625 40.375 
z
M 52.59375 71.296875 
L 52.59375 62.3125 
Q 48.875 64.0625 45.09375 64.984375 
Q 41.3125 65.921875 37.59375 65.921875 
Q 27.828125 65.921875 22.671875 59.328125 
Q 17.53125 52.734375 16.796875 39.40625 
Q 19.671875 43.65625 24.015625 45.921875 
Q 28.375 48.1875 33.59375 48.1875 
Q 44.578125 48.1875 50.953125 41.515625 
Q 57.328125 34.859375 57.328125 23.390625 
Q 57.328125 12.15625 50.6875 5.359375 
Q 44.046875 -1.421875 33.015625 -1.421875 
Q 20.359375 -1.421875 13.671875 8.265625 
Q 6.984375 17.96875 6.984375 36.375 
Q 6.984375 53.65625 15.1875 63.9375 
Q 23.390625 74.21875 37.203125 74.21875 
Q 40.921875 74.21875 44.703125 73.484375 
Q 48.484375 72.75 52.59375 71.296875 
z
" id="DejaVuSans-54"/>
      </defs>
      <g transform="translate(366.603024 266.598437)scale(0.1 -0.1)">
       <use xlink:href="#DejaVuSans-54"/>
       <use x="63.623047" xlink:href="#DejaVuSans-48"/>
      </g>
     </g>
    </g>
    <g id="text_8">
     <!-- $Y_m$, $Y$, or $Y^*$ -->
     <defs>
      <path d="M 6.296875 72.90625 
L 16.890625 72.90625 
L 30.515625 42.921875 
L 56.5 72.90625 
L 67.578125 72.90625 
L 34.515625 34.71875 
L 27.78125 0 
L 17.921875 0 
L 24.609375 34.71875 
z
" id="DejaVuSans-Oblique-89"/>
      <path d="M 89.796875 33.015625 
L 83.40625 0 
L 74.421875 0 
L 80.71875 32.71875 
Q 81.109375 34.8125 81.296875 36.328125 
Q 81.5 37.84375 81.5 38.921875 
Q 81.5 43.3125 79.046875 45.75 
Q 76.609375 48.1875 72.21875 48.1875 
Q 65.671875 48.1875 60.546875 43.28125 
Q 55.421875 38.375 53.90625 30.515625 
L 47.90625 0 
L 38.921875 0 
L 45.3125 32.71875 
Q 45.703125 34.515625 45.890625 36.046875 
Q 46.09375 37.59375 46.09375 38.8125 
Q 46.09375 43.265625 43.65625 45.71875 
Q 41.21875 48.1875 36.921875 48.1875 
Q 30.28125 48.1875 25.140625 43.28125 
Q 20.015625 38.375 18.5 30.515625 
L 12.5 0 
L 3.515625 0 
L 14.203125 54.6875 
L 23.1875 54.6875 
L 21.484375 46.1875 
Q 25.140625 50.984375 30.046875 53.484375 
Q 34.96875 56 40.578125 56 
Q 46.53125 56 50.359375 52.875 
Q 54.203125 49.75 54.984375 44.1875 
Q 59.078125 49.953125 64.46875 52.96875 
Q 69.875 56 75.875 56 
Q 82.90625 56 86.734375 51.953125 
Q 90.578125 47.90625 90.578125 40.484375 
Q 90.578125 38.875 90.375 36.9375 
Q 90.1875 35.015625 89.796875 33.015625 
z
" id="DejaVuSans-Oblique-109"/>
      <path d="M 11.71875 12.40625 
L 22.015625 12.40625 
L 22.015625 4 
L 14.015625 -11.625 
L 7.71875 -11.625 
L 11.71875 4 
z
" id="DejaVuSans-44"/>
      <path id="DejaVuSans-32"/>
      <path d="M 30.609375 48.390625 
Q 23.390625 48.390625 19.1875 42.75 
Q 14.984375 37.109375 14.984375 27.296875 
Q 14.984375 17.484375 19.15625 11.84375 
Q 23.34375 6.203125 30.609375 6.203125 
Q 37.796875 6.203125 41.984375 11.859375 
Q 46.1875 17.53125 46.1875 27.296875 
Q 46.1875 37.015625 41.984375 42.703125 
Q 37.796875 48.390625 30.609375 48.390625 
z
M 30.609375 56 
Q 42.328125 56 49.015625 48.375 
Q 55.71875 40.765625 55.71875 27.296875 
Q 55.71875 13.875 49.015625 6.21875 
Q 42.328125 -1.421875 30.609375 -1.421875 
Q 18.84375 -1.421875 12.171875 6.21875 
Q 5.515625 13.875 5.515625 27.296875 
Q 5.515625 40.765625 12.171875 48.375 
Q 18.84375 56 30.609375 56 
z
" id="DejaVuSans-111"/>
      <path d="M 41.109375 46.296875 
Q 39.59375 47.171875 37.8125 47.578125 
Q 36.03125 48 33.890625 48 
Q 26.265625 48 22.1875 43.046875 
Q 18.109375 38.09375 18.109375 28.8125 
L 18.109375 0 
L 9.078125 0 
L 9.078125 54.6875 
L 18.109375 54.6875 
L 18.109375 46.1875 
Q 20.953125 51.171875 25.484375 53.578125 
Q 30.03125 56 36.53125 56 
Q 37.453125 56 38.578125 55.875 
Q 39.703125 55.765625 41.0625 55.515625 
z
" id="DejaVuSans-114"/>
      <path d="M 47.015625 60.890625 
L 29.5 51.421875 
L 47.015625 41.890625 
L 44.1875 37.109375 
L 27.78125 47.015625 
L 27.78125 28.609375 
L 22.21875 28.609375 
L 22.21875 47.015625 
L 5.8125 37.109375 
L 2.984375 41.890625 
L 20.515625 51.421875 
L 2.984375 60.890625 
L 5.8125 65.71875 
L 22.21875 55.8125 
L 22.21875 74.21875 
L 27.78125 74.21875 
L 27.78125 55.8125 
L 44.1875 65.71875 
z
" id="DejaVuSans-42"/>
     </defs>
     <g transform="translate(192 281.398438)scale(0.1 -0.1)">
      <use transform="translate(0 0.765625)" xlink:href="#DejaVuSans-Oblique-89"/>
      <use transform="translate(61.083984 -15.640625)scale(0.7)" xlink:href="#DejaVuSans-Oblique-109"/>
      <use transform="translate(132.006836 0.765625)" xlink:href="#DejaVuSans-44"/>
      <use transform="translate(163.793945 0.765625)" xlink:href="#DejaVuSans-32"/>
      <use transform="translate(195.581055 0.765625)" xlink:href="#DejaVuSans-Oblique-89"/>
      <use transform="translate(256.665039 0.765625)" xlink:href="#DejaVuSans-44"/>
      <use transform="translate(288.452148 0.765625)" xlink:href="#DejaVuSans-32"/>
      <use transform="translate(320.239258 0.765625)" xlink:href="#DejaVuSans-111"/>
      <use transform="translate(381.420898 0.765625)" xlink:href="#DejaVuSans-114"/>
      <use transform="translate(422.53418 0.765625)" xlink:href="#DejaVuSans-32"/>
      <use transform="translate(454.321289 0.765625)" xlink:href="#DejaVuSans-Oblique-89"/>
      <use transform="translate(536.05974 39.046875)scale(0.7)" xlink:href="#DejaVuSans-42"/>
     </g>
    </g>
   </g>
   <g id="matplotlib.axis_2">
    <g id="ytick_1">
     <g id="line2d_8">
      <defs>
       <path d="M 0 0 
L -3.5 0 
" id="mfd79ccbd2e" style="stroke:#000000;stroke-width:0.8;"/>
      </defs>
      <g>
       <use style="stroke:#000000;stroke-width:0.8;" x="54" xlink:href="#mfd79ccbd2e" y="252"/>
      </g>
     </g>
     <g id="text_9">
      <!-- 0.00 -->
      <defs>
       <path d="M 10.6875 12.40625 
L 21 12.40625 
L 21 0 
L 10.6875 0 
z
" id="DejaVuSans-46"/>
      </defs>
      <g transform="translate(24.734375 255.799219)scale(0.1 -0.1)">
       <use xlink:href="#DejaVuSans-48"/>
       <use x="63.623047" xlink:href="#DejaVuSans-46"/>
       <use x="95.410156" xlink:href="#DejaVuSans-48"/>
       <use x="159.033203" xlink:href="#DejaVuSans-48"/>
      </g>
     </g>
    </g>
    <g id="ytick_2">
     <g id="line2d_9">
      <g>
       <use style="stroke:#000000;stroke-width:0.8;" x="54" xlink:href="#mfd79ccbd2e" y="220.937143"/>
      </g>
     </g>
     <g id="text_10">
      <!-- 0.01 -->
      <g transform="translate(24.734375 224.736362)scale(0.1 -0.1)">
       <use xlink:href="#DejaVuSans-48"/>
       <use x="63.623047" xlink:href="#DejaVuSans-46"/>
       <use x="95.410156" xlink:href="#DejaVuSans-48"/>
       <use x="159.033203" xlink:href="#DejaVuSans-49"/>
      </g>
     </g>
    </g>
    <g id="ytick_3">
     <g id="line2d_10">
      <g>
       <use style="stroke:#000000;stroke-width:0.8;" x="54" xlink:href="#mfd79ccbd2e" y="189.874286"/>
      </g>
     </g>
     <g id="text_11">
      <!-- 0.02 -->
      <g transform="translate(24.734375 193.673504)scale(0.1 -0.1)">
       <use xlink:href="#DejaVuSans-48"/>
       <use x="63.623047" xlink:href="#DejaVuSans-46"/>
       <use x="95.410156" xlink:href="#DejaVuSans-48"/>
       <use x="159.033203" xlink:href="#DejaVuSans-50"/>
      </g>
     </g>
    </g>
    <g id="ytick_4">
     <g id="line2d_11">
      <g>
       <use style="stroke:#000000;stroke-width:0.8;" x="54" xlink:href="#mfd79ccbd2e" y="158.811429"/>
      </g>
     </g>
     <g id="text_12">
      <!-- 0.03 -->
      <g transform="translate(24.734375 162.610647)scale(0.1 -0.1)">
       <use xlink:href="#DejaVuSans-48"/>
       <use x="63.623047" xlink:href="#DejaVuSans-46"/>
       <use x="95.410156" xlink:href="#DejaVuSans-48"/>
       <use x="159.033203" xlink:href="#DejaVuSans-51"/>
      </g>
     </g>
    </g>
    <g id="ytick_5">
     <g id="line2d_12">
      <g>
       <use style="stroke:#000000;stroke-width:0.8;" x="54" xlink:href="#mfd79ccbd2e" y="127.748571"/>
      </g>
     </g>
     <g id="text_13">
      <!-- 0.04 -->
      <g transform="translate(24.734375 131.54779)scale(0.1 -0.1)">
       <use xlink:href="#DejaVuSans-48"/>
       <use x="63.623047" xlink:href="#DejaVuSans-46"/>
       <use x="95.410156" xlink:href="#DejaVuSans-48"/>
       <use x="159.033203" xlink:href="#DejaVuSans-52"/>
      </g>
     </g>
    </g>
    <g id="ytick_6">
     <g id="line2d_13">
      <g>
       <use style="stroke:#000000;stroke-width:0.8;" x="54" xlink:href="#mfd79ccbd2e" y="96.685714"/>
      </g>
     </g>
     <g id="text_14">
      <!-- 0.05 -->
      <g transform="translate(24.734375 100.484933)scale(0.1 -0.1)">
       <use xlink:href="#DejaVuSans-48"/>
       <use x="63.623047" xlink:href="#DejaVuSans-46"/>
       <use x="95.410156" xlink:href="#DejaVuSans-48"/>
       <use x="159.033203" xlink:href="#DejaVuSans-53"/>
      </g>
     </g>
    </g>
    <g id="ytick_7">
     <g id="line2d_14">
      <g>
       <use style="stroke:#000000;stroke-width:0.8;" x="54" xlink:href="#mfd79ccbd2e" y="65.622857"/>
      </g>
     </g>
     <g id="text_15">
      <!-- 0.06 -->
      <g transform="translate(24.734375 69.422076)scale(0.1 -0.1)">
       <use xlink:href="#DejaVuSans-48"/>
       <use x="63.623047" xlink:href="#DejaVuSans-46"/>
       <use x="95.410156" xlink:href="#DejaVuSans-48"/>
       <use x="159.033203" xlink:href="#DejaVuSans-54"/>
      </g>
     </g>
    </g>
    <g id="ytick_8">
     <g id="line2d_15">
      <g>
       <use style="stroke:#000000;stroke-width:0.8;" x="54" xlink:href="#mfd79ccbd2e" y="34.56"/>
      </g>
     </g>
     <g id="text_16">
      <!-- 0.07 -->
      <defs>
       <path d="M 8.203125 72.90625 
L 55.078125 72.90625 
L 55.078125 68.703125 
L 28.609375 0 
L 18.3125 0 
L 43.21875 64.59375 
L 8.203125 64.59375 
z
" id="DejaVuSans-55"/>
      </defs>
      <g transform="translate(24.734375 38.359219)scale(0.1 -0.1)">
       <use xlink:href="#DejaVuSans-48"/>
       <use x="63.623047" xlink:href="#DejaVuSans-46"/>
       <use x="95.410156" xlink:href="#DejaVuSans-48"/>
       <use x="159.033203" xlink:href="#DejaVuSans-55"/>
      </g>
     </g>
    </g>
    <g id="text_17">
     <!-- PDF -->
     <defs>
      <path d="M 19.671875 64.796875 
L 19.671875 37.40625 
L 32.078125 37.40625 
Q 38.96875 37.40625 42.71875 40.96875 
Q 46.484375 44.53125 46.484375 51.125 
Q 46.484375 57.671875 42.71875 61.234375 
Q 38.96875 64.796875 32.078125 64.796875 
z
M 9.8125 72.90625 
L 32.078125 72.90625 
Q 44.34375 72.90625 50.609375 67.359375 
Q 56.890625 61.8125 56.890625 51.125 
Q 56.890625 40.328125 50.609375 34.8125 
Q 44.34375 29.296875 32.078125 29.296875 
L 19.671875 29.296875 
L 19.671875 0 
L 9.8125 0 
z
" id="DejaVuSans-80"/>
      <path d="M 19.671875 64.796875 
L 19.671875 8.109375 
L 31.59375 8.109375 
Q 46.6875 8.109375 53.6875 14.9375 
Q 60.6875 21.78125 60.6875 36.53125 
Q 60.6875 51.171875 53.6875 57.984375 
Q 46.6875 64.796875 31.59375 64.796875 
z
M 9.8125 72.90625 
L 30.078125 72.90625 
Q 51.265625 72.90625 61.171875 64.09375 
Q 71.09375 55.28125 71.09375 36.53125 
Q 71.09375 17.671875 61.125 8.828125 
Q 51.171875 0 30.078125 0 
L 9.8125 0 
z
" id="DejaVuSans-68"/>
      <path d="M 9.8125 72.90625 
L 51.703125 72.90625 
L 51.703125 64.59375 
L 19.671875 64.59375 
L 19.671875 43.109375 
L 48.578125 43.109375 
L 48.578125 34.8125 
L 19.671875 34.8125 
L 19.671875 0 
L 9.8125 0 
z
" id="DejaVuSans-70"/>
     </defs>
     <g transform="translate(18.654688 153.020625)rotate(-90)scale(0.1 -0.1)">
      <use xlink:href="#DejaVuSans-80"/>
      <use x="60.302734" xlink:href="#DejaVuSans-68"/>
      <use x="137.304688" xlink:href="#DejaVuSans-70"/>
     </g>
    </g>
   </g>
   <g id="line2d_16">
    <path clip-path="url(#p467f65f23b)" d="M 165.543534 252 
L 165.543534 34.56 
" style="fill:none;stroke:#1f77b4;stroke-linecap:square;stroke-width:1.5;"/>
   </g>
   <g id="line2d_17">
    <path clip-path="url(#p467f65f23b)" d="M 69.218182 249.364269 
L 69.218182 250.945708 
L 72.323933 250.945708 
L 72.323933 247.782831 
L 75.429685 247.782831 
L 75.429685 239.348492 
L 78.535436 239.348492 
L 78.535436 238.2942 
L 81.641187 238.2942 
L 81.641187 231.968446 
L 84.746939 231.968446 
L 84.746939 223.006961 
L 87.85269 223.006961 
L 87.85269 213.51833 
L 90.958442 213.51833 
L 90.958442 216.681207 
L 94.064193 216.681207 
L 94.064193 197.703945 
L 97.169944 197.703945 
L 97.169944 194.013922 
L 100.275696 194.013922 
L 100.275696 176.090953 
L 103.381447 176.090953 
L 103.381447 172.928076 
L 106.487199 172.928076 
L 106.487199 163.966591 
L 109.59295 163.966591 
L 109.59295 153.950814 
L 112.698701 153.950814 
L 112.698701 124.957775 
L 115.804453 124.957775 
L 115.804453 124.430629 
L 118.910204 124.430629 
L 118.910204 118.632021 
L 122.015955 118.632021 
L 122.015955 102.817636 
L 125.121707 102.817636 
L 125.121707 87.530397 
L 128.227458 87.530397 
L 128.227458 96.491882 
L 131.33321 96.491882 
L 131.33321 85.948959 
L 134.438961 85.948959 
L 134.438961 104.399075 
L 137.544712 104.399075 
L 137.544712 62.227382 
L 140.650464 62.227382 
L 140.650464 84.894667 
L 143.756215 84.894667 
L 143.756215 74.351743 
L 146.861967 74.351743 
L 146.861967 83.313228 
L 149.967718 83.313228 
L 149.967718 88.58469 
L 153.073469 88.58469 
L 153.073469 92.274713 
L 156.179221 92.274713 
L 156.179221 97.546175 
L 159.284972 97.546175 
L 159.284972 90.166128 
L 162.390724 90.166128 
L 162.390724 104.399075 
L 165.496475 104.399075 
L 165.496475 98.600467 
L 168.602226 98.600467 
L 168.602226 117.577729 
L 171.707978 117.577729 
L 171.707978 127.593506 
L 174.813729 127.593506 
L 174.813729 129.174944 
L 177.919481 129.174944 
L 177.919481 136.027844 
L 181.025232 136.027844 
L 181.025232 132.864967 
L 184.130983 132.864967 
L 184.130983 143.935037 
L 187.236735 143.935037 
L 187.236735 153.950814 
L 190.342486 153.950814 
L 190.342486 163.439445 
L 193.448237 163.439445 
L 193.448237 175.563807 
L 196.553989 175.563807 
L 196.553989 166.075176 
L 199.65974 166.075176 
L 199.65974 175.03666 
L 202.765492 175.03666 
L 202.765492 188.215314 
L 205.871243 188.215314 
L 205.871243 192.432484 
L 208.976994 192.432484 
L 208.976994 195.595361 
L 212.082746 195.595361 
L 212.082746 198.231091 
L 215.188497 198.231091 
L 215.188497 202.975407 
L 218.294249 202.975407 
L 218.294249 217.208353 
L 221.4 217.208353 
L 221.4 213.51833 
L 224.505751 213.51833 
L 224.505751 217.735499 
L 227.611503 217.735499 
L 227.611503 216.681207 
L 230.717254 216.681207 
L 230.717254 223.534107 
L 233.823006 223.534107 
L 233.823006 220.898376 
L 236.928757 220.898376 
L 236.928757 219.844084 
L 240.034508 219.844084 
L 240.034508 230.387007 
L 243.14026 230.387007 
L 243.14026 234.07703 
L 246.246011 234.07703 
L 246.246011 241.984223 
L 249.351763 241.984223 
L 249.351763 236.712761 
L 252.457514 236.712761 
L 252.457514 239.348492 
L 255.563265 239.348492 
L 255.563265 240.929931 
L 261.774768 240.929931 
L 261.774768 241.984223 
L 264.880519 241.984223 
L 264.880519 248.309977 
L 267.986271 248.309977 
L 267.986271 247.255685 
L 271.092022 247.255685 
L 271.092022 244.619954 
L 274.197774 244.619954 
L 274.197774 247.255685 
L 277.303525 247.255685 
L 277.303525 249.891415 
L 280.409276 249.891415 
L 280.409276 245.1471 
L 283.515028 245.1471 
L 283.515028 248.309977 
L 286.620779 248.309977 
L 286.620779 245.1471 
L 289.726531 245.1471 
L 289.726531 246.728538 
L 292.832282 246.728538 
L 292.832282 250.945708 
L 295.938033 250.945708 
L 295.938033 248.837123 
L 299.043785 248.837123 
L 299.043785 248.309977 
L 302.149536 248.309977 
L 302.149536 250.418562 
L 308.361039 250.418562 
L 308.361039 249.891415 
L 311.46679 249.891415 
L 311.46679 250.945708 
L 320.784045 250.945708 
L 320.784045 251.472854 
L 323.889796 251.472854 
L 323.889796 250.945708 
L 326.995547 250.945708 
L 326.995547 252 
L 330.101299 252 
L 330.101299 250.945708 
L 333.20705 250.945708 
L 333.20705 252 
L 336.312801 252 
L 336.312801 251.472854 
L 339.418553 251.472854 
L 339.418553 250.945708 
L 342.524304 250.945708 
L 342.524304 252 
L 348.735807 252 
L 348.735807 251.472854 
L 351.841558 251.472854 
L 351.841558 250.418562 
L 354.94731 250.418562 
L 354.94731 252 
L 361.158813 252 
L 361.158813 251.472854 
L 364.264564 251.472854 
L 364.264564 252 
L 367.370315 252 
L 367.370315 251.472854 
L 370.476067 251.472854 
L 370.476067 252 
L 373.581818 252 
L 373.581818 252 
" style="fill:none;stroke:#ff7f0e;stroke-linecap:square;stroke-width:1.5;"/>
   </g>
   <g id="line2d_18">
    <path clip-path="url(#p467f65f23b)" d="M 69.218182 252 
L 75.429685 252 
L 75.429685 249.891415 
L 78.535436 249.891415 
L 78.535436 250.418562 
L 81.641187 250.418562 
L 81.641187 246.201392 
L 84.746939 246.201392 
L 84.746939 244.619954 
L 87.85269 244.619954 
L 87.85269 237.767054 
L 90.958442 237.767054 
L 90.958442 234.07703 
L 94.064193 234.07703 
L 94.064193 210.355453 
L 97.169944 210.355453 
L 97.169944 198.231091 
L 100.275696 198.231091 
L 100.275696 185.579584 
L 103.381447 185.579584 
L 103.381447 166.602322 
L 106.487199 166.602322 
L 106.487199 143.407891 
L 109.59295 143.407891 
L 109.59295 127.593506 
L 112.698701 127.593506 
L 112.698701 103.871929 
L 115.804453 103.871929 
L 115.804453 89.111836 
L 118.910204 89.111836 
L 118.910204 101.236198 
L 122.015955 101.236198 
L 122.015955 95.964736 
L 125.121707 95.964736 
L 125.121707 84.894667 
L 128.227458 84.894667 
L 128.227458 115.99629 
L 131.33321 115.99629 
L 131.33321 122.322044 
L 134.438961 122.322044 
L 134.438961 131.283529 
L 137.544712 131.283529 
L 137.544712 129.174944 
L 140.650464 129.174944 
L 140.650464 135.500698 
L 143.756215 135.500698 
L 143.756215 140.77216 
L 146.861967 140.77216 
L 146.861967 103.344782 
L 149.967718 103.344782 
L 149.967718 91.220421 
L 153.073469 91.220421 
L 153.073469 75.933182 
L 156.179221 75.933182 
L 156.179221 85.421813 
L 159.284972 85.421813 
L 159.284972 65.390259 
L 162.390724 65.390259 
L 162.390724 59.591651 
L 165.496475 59.591651 
L 165.496475 72.770305 
L 168.602226 72.770305 
L 168.602226 93.329005 
L 171.707978 93.329005 
L 171.707978 112.306267 
L 174.813729 112.306267 
L 174.813729 137.609283 
L 177.919481 137.609283 
L 177.919481 151.842229 
L 181.025232 151.842229 
L 181.025232 173.982368 
L 184.130983 173.982368 
L 184.130983 169.238053 
L 187.236735 169.238053 
L 187.236735 178.199537 
L 190.342486 178.199537 
L 190.342486 175.03666 
L 193.448237 175.03666 
L 193.448237 158.167983 
L 196.553989 158.167983 
L 196.553989 163.966591 
L 199.65974 163.966591 
L 199.65974 147.62506 
L 202.765492 147.62506 
L 202.765492 161.33086 
L 205.871243 161.33086 
L 205.871243 153.950814 
L 208.976994 153.950814 
L 208.976994 162.912299 
L 212.082746 162.912299 
L 212.082746 181.88956 
L 215.188497 181.88956 
L 215.188497 191.378191 
L 218.294249 191.378191 
L 218.294249 204.556845 
L 221.4 204.556845 
L 221.4 209.828307 
L 224.505751 209.828307 
L 224.505751 218.262646 
L 227.611503 218.262646 
L 227.611503 223.534107 
L 233.823006 223.534107 
L 233.823006 227.22413 
L 236.928757 227.22413 
L 236.928757 218.789792 
L 240.034508 218.789792 
L 240.034508 229.859861 
L 246.246011 229.859861 
L 246.246011 229.332715 
L 249.351763 229.332715 
L 249.351763 226.169838 
L 252.457514 226.169838 
L 252.457514 227.22413 
L 255.563265 227.22413 
L 255.563265 228.278423 
L 258.669017 228.278423 
L 258.669017 237.239907 
L 261.774768 237.239907 
L 261.774768 239.348492 
L 264.880519 239.348492 
L 264.880519 240.402784 
L 267.986271 240.402784 
L 267.986271 243.565661 
L 271.092022 243.565661 
L 271.092022 245.1471 
L 274.197774 245.1471 
L 274.197774 251.472854 
L 277.303525 251.472854 
L 277.303525 245.1471 
L 280.409276 245.1471 
L 280.409276 245.674246 
L 283.515028 245.674246 
L 283.515028 247.782831 
L 286.620779 247.782831 
L 286.620779 245.1471 
L 289.726531 245.1471 
L 289.726531 246.201392 
L 292.832282 246.201392 
L 292.832282 247.782831 
L 295.938033 247.782831 
L 295.938033 245.674246 
L 299.043785 245.674246 
L 299.043785 249.364269 
L 302.149536 249.364269 
L 302.149536 247.255685 
L 305.255288 247.255685 
L 305.255288 250.418562 
L 308.361039 250.418562 
L 308.361039 251.472854 
L 314.572542 251.472854 
L 314.572542 252 
L 320.784045 252 
L 320.784045 251.472854 
L 323.889796 251.472854 
L 323.889796 252 
L 326.995547 252 
L 326.995547 250.945708 
L 330.101299 250.945708 
L 330.101299 250.418562 
L 333.20705 250.418562 
L 333.20705 250.945708 
L 336.312801 250.945708 
L 336.312801 252 
L 342.524304 252 
L 342.524304 251.472854 
L 345.630056 251.472854 
L 345.630056 252 
L 351.841558 252 
L 351.841558 251.472854 
L 354.94731 251.472854 
L 354.94731 252 
L 370.476067 252 
L 370.476067 251.472854 
L 373.581818 251.472854 
L 373.581818 251.472854 
" style="fill:none;stroke:#2ca02c;stroke-linecap:square;stroke-width:1.5;"/>
   </g>
   <g id="patch_3">
    <path d="M 54 252 
L 54 34.56 
" style="fill:none;stroke:#000000;stroke-linecap:square;stroke-linejoin:miter;stroke-width:0.8;"/>
   </g>
   <g id="patch_4">
    <path d="M 388.8 252 
L 388.8 34.56 
" style="fill:none;stroke:#000000;stroke-linecap:square;stroke-linejoin:miter;stroke-width:0.8;"/>
   </g>
   <g id="patch_5">
    <path d="M 54 252 
L 388.8 252 
" style="fill:none;stroke:#000000;stroke-linecap:square;stroke-linejoin:miter;stroke-width:0.8;"/>
   </g>
   <g id="patch_6">
    <path d="M 54 34.56 
L 388.8 34.56 
" style="fill:none;stroke:#000000;stroke-linecap:square;stroke-linejoin:miter;stroke-width:0.8;"/>
   </g>
   <g id="text_18">
    <!-- N=10000; n=10; $Y_m$ = 20.6; $\overline{Y} = $ = 19.7; $\overline{Y^*}$ = 20.5 -->
    <defs>
     <path d="M 9.8125 72.90625 
L 23.09375 72.90625 
L 55.421875 11.921875 
L 55.421875 72.90625 
L 64.984375 72.90625 
L 64.984375 0 
L 51.703125 0 
L 19.390625 60.984375 
L 19.390625 0 
L 9.8125 0 
z
" id="DejaVuSans-78"/>
     <path d="M 10.59375 45.40625 
L 73.1875 45.40625 
L 73.1875 37.203125 
L 10.59375 37.203125 
z
M 10.59375 25.484375 
L 73.1875 25.484375 
L 73.1875 17.1875 
L 10.59375 17.1875 
z
" id="DejaVuSans-61"/>
     <path d="M 11.71875 51.703125 
L 22.015625 51.703125 
L 22.015625 39.3125 
L 11.71875 39.3125 
z
M 11.71875 12.40625 
L 22.015625 12.40625 
L 22.015625 4 
L 14.015625 -11.625 
L 7.71875 -11.625 
L 11.71875 4 
z
" id="DejaVuSans-59"/>
     <path d="M 54.890625 33.015625 
L 54.890625 0 
L 45.90625 0 
L 45.90625 32.71875 
Q 45.90625 40.484375 42.875 44.328125 
Q 39.84375 48.1875 33.796875 48.1875 
Q 26.515625 48.1875 22.3125 43.546875 
Q 18.109375 38.921875 18.109375 30.90625 
L 18.109375 0 
L 9.078125 0 
L 9.078125 54.6875 
L 18.109375 54.6875 
L 18.109375 46.1875 
Q 21.34375 51.125 25.703125 53.5625 
Q 30.078125 56 35.796875 56 
Q 45.21875 56 50.046875 50.171875 
Q 54.890625 44.34375 54.890625 33.015625 
z
" id="DejaVuSans-110"/>
     <path d="M 10.984375 1.515625 
L 10.984375 10.5 
Q 14.703125 8.734375 18.5 7.8125 
Q 22.3125 6.890625 25.984375 6.890625 
Q 35.75 6.890625 40.890625 13.453125 
Q 46.046875 20.015625 46.78125 33.40625 
Q 43.953125 29.203125 39.59375 26.953125 
Q 35.25 24.703125 29.984375 24.703125 
Q 19.046875 24.703125 12.671875 31.3125 
Q 6.296875 37.9375 6.296875 49.421875 
Q 6.296875 60.640625 12.9375 67.421875 
Q 19.578125 74.21875 30.609375 74.21875 
Q 43.265625 74.21875 49.921875 64.515625 
Q 56.59375 54.828125 56.59375 36.375 
Q 56.59375 19.140625 48.40625 8.859375 
Q 40.234375 -1.421875 26.421875 -1.421875 
Q 22.703125 -1.421875 18.890625 -0.6875 
Q 15.09375 0.046875 10.984375 1.515625 
z
M 30.609375 32.421875 
Q 37.25 32.421875 41.125 36.953125 
Q 45.015625 41.5 45.015625 49.421875 
Q 45.015625 57.28125 41.125 61.84375 
Q 37.25 66.40625 30.609375 66.40625 
Q 23.96875 66.40625 20.09375 61.84375 
Q 16.21875 57.28125 16.21875 49.421875 
Q 16.21875 41.5 20.09375 36.953125 
Q 23.96875 32.421875 30.609375 32.421875 
z
" id="DejaVuSans-57"/>
    </defs>
    <g transform="translate(67.5 28.56)scale(0.12 -0.12)">
     <use transform="translate(0 0.015625)" xlink:href="#DejaVuSans-78"/>
     <use transform="translate(74.804688 0.015625)" xlink:href="#DejaVuSans-61"/>
     <use transform="translate(158.59375 0.015625)" xlink:href="#DejaVuSans-49"/>
     <use transform="translate(222.216797 0.015625)" xlink:href="#DejaVuSans-48"/>
     <use transform="translate(285.839844 0.015625)" xlink:href="#DejaVuSans-48"/>
     <use transform="translate(349.462891 0.015625)" xlink:href="#DejaVuSans-48"/>
     <use transform="translate(413.085938 0.015625)" xlink:href="#DejaVuSans-48"/>
     <use transform="translate(476.708984 0.015625)" xlink:href="#DejaVuSans-59"/>
     <use transform="translate(510.400391 0.015625)" xlink:href="#DejaVuSans-32"/>
     <use transform="translate(542.1875 0.015625)" xlink:href="#DejaVuSans-110"/>
     <use transform="translate(605.566406 0.015625)" xlink:href="#DejaVuSans-61"/>
     <use transform="translate(689.355469 0.015625)" xlink:href="#DejaVuSans-49"/>
     <use transform="translate(752.978516 0.015625)" xlink:href="#DejaVuSans-48"/>
     <use transform="translate(816.601562 0.015625)" xlink:href="#DejaVuSans-59"/>
     <use transform="translate(850.292969 0.015625)" xlink:href="#DejaVuSans-32"/>
     <use transform="translate(882.080078 0.015625)" xlink:href="#DejaVuSans-Oblique-89"/>
     <use transform="translate(943.164062 -16.390625)scale(0.7)" xlink:href="#DejaVuSans-Oblique-109"/>
     <use transform="translate(1014.086914 0.015625)" xlink:href="#DejaVuSans-32"/>
     <use transform="translate(1045.874023 0.015625)" xlink:href="#DejaVuSans-61"/>
     <use transform="translate(1129.663086 0.015625)" xlink:href="#DejaVuSans-32"/>
     <use transform="translate(1161.450195 0.015625)" xlink:href="#DejaVuSans-50"/>
     <use transform="translate(1225.073242 0.015625)" xlink:href="#DejaVuSans-48"/>
     <use transform="translate(1288.696289 0.015625)" xlink:href="#DejaVuSans-46"/>
     <use transform="translate(1320.483398 0.015625)" xlink:href="#DejaVuSans-54"/>
     <use transform="translate(1384.106445 0.015625)" xlink:href="#DejaVuSans-59"/>
     <use transform="translate(1417.797852 0.015625)" xlink:href="#DejaVuSans-32"/>
     <use transform="translate(1449.584961 0.515625)" xlink:href="#DejaVuSans-Oblique-89"/>
     <use transform="translate(1530.151367 0.015625)" xlink:href="#DejaVuSans-61"/>
     <use transform="translate(1633.422852 0.015625)" xlink:href="#DejaVuSans-32"/>
     <use transform="translate(1665.209961 0.015625)" xlink:href="#DejaVuSans-61"/>
     <use transform="translate(1748.999023 0.015625)" xlink:href="#DejaVuSans-32"/>
     <use transform="translate(1780.786133 0.015625)" xlink:href="#DejaVuSans-49"/>
     <use transform="translate(1844.40918 0.015625)" xlink:href="#DejaVuSans-57"/>
     <use transform="translate(1908.032227 0.015625)" xlink:href="#DejaVuSans-46"/>
     <use transform="translate(1932.069336 0.015625)" xlink:href="#DejaVuSans-55"/>
     <use transform="translate(1995.692383 0.015625)" xlink:href="#DejaVuSans-59"/>
     <use transform="translate(2029.383789 0.015625)" xlink:href="#DejaVuSans-32"/>
     <use transform="translate(2061.170898 0.515625)" xlink:href="#DejaVuSans-Oblique-89"/>
     <use transform="translate(2142.909349 38.796875)scale(0.7)" xlink:href="#DejaVuSans-42"/>
     <use transform="translate(2194.281419 0.015625)" xlink:href="#DejaVuSans-32"/>
     <use transform="translate(2226.068529 0.015625)" xlink:href="#DejaVuSans-61"/>
     <use transform="translate(2309.857591 0.015625)" xlink:href="#DejaVuSans-32"/>
     <use transform="translate(2341.644701 0.015625)" xlink:href="#DejaVuSans-50"/>
     <use transform="translate(2405.267747 0.015625)" xlink:href="#DejaVuSans-48"/>
     <use transform="translate(2468.890794 0.015625)" xlink:href="#DejaVuSans-46"/>
     <use transform="translate(2500.677904 0.015625)" xlink:href="#DejaVuSans-53"/>
     <path d="M 1449.584961 85.171875 
L 1449.584961 91.421875 
L 1510.668945 91.421875 
L 1510.668945 85.171875 
L 1449.584961 85.171875 
z
"/>
     <path d="M 2061.170898 102.5 
L 2061.170898 108.75 
L 2194.281419 108.75 
L 2194.281419 102.5 
L 2061.170898 102.5 
z
"/>
    </g>
   </g>
   <g id="legend_1">
    <g id="patch_7">
     <path d="M 196.7 88.138125 
L 381.8 88.138125 
Q 383.8 88.138125 383.8 86.138125 
L 383.8 41.56 
Q 383.8 39.56 381.8 39.56 
L 196.7 39.56 
Q 194.7 39.56 194.7 41.56 
L 194.7 86.138125 
Q 194.7 88.138125 196.7 88.138125 
z
" style="fill:#ffffff;opacity:0.8;stroke:#cccccc;stroke-linejoin:miter;"/>
    </g>
    <g id="line2d_19">
     <path d="M 198.7 47.658437 
L 218.7 47.658437 
" style="fill:none;stroke:#1f77b4;stroke-linecap:square;stroke-width:1.5;"/>
    </g>
    <g id="line2d_20"/>
    <g id="text_19">
     <!-- $Y_m$ ($Y$ from $n$ measurements) -->
     <defs>
      <path d="M 31 75.875 
Q 24.46875 64.65625 21.28125 53.65625 
Q 18.109375 42.671875 18.109375 31.390625 
Q 18.109375 20.125 21.3125 9.0625 
Q 24.515625 -2 31 -13.1875 
L 23.1875 -13.1875 
Q 15.875 -1.703125 12.234375 9.375 
Q 8.59375 20.453125 8.59375 31.390625 
Q 8.59375 42.28125 12.203125 53.3125 
Q 15.828125 64.359375 23.1875 75.875 
z
" id="DejaVuSans-40"/>
      <path d="M 37.109375 75.984375 
L 37.109375 68.5 
L 28.515625 68.5 
Q 23.6875 68.5 21.796875 66.546875 
Q 19.921875 64.59375 19.921875 59.515625 
L 19.921875 54.6875 
L 34.71875 54.6875 
L 34.71875 47.703125 
L 19.921875 47.703125 
L 19.921875 0 
L 10.890625 0 
L 10.890625 47.703125 
L 2.296875 47.703125 
L 2.296875 54.6875 
L 10.890625 54.6875 
L 10.890625 58.5 
Q 10.890625 67.625 15.140625 71.796875 
Q 19.390625 75.984375 28.609375 75.984375 
z
" id="DejaVuSans-102"/>
      <path d="M 52 44.1875 
Q 55.375 50.25 60.0625 53.125 
Q 64.75 56 71.09375 56 
Q 79.640625 56 84.28125 50.015625 
Q 88.921875 44.046875 88.921875 33.015625 
L 88.921875 0 
L 79.890625 0 
L 79.890625 32.71875 
Q 79.890625 40.578125 77.09375 44.375 
Q 74.3125 48.1875 68.609375 48.1875 
Q 61.625 48.1875 57.5625 43.546875 
Q 53.515625 38.921875 53.515625 30.90625 
L 53.515625 0 
L 44.484375 0 
L 44.484375 32.71875 
Q 44.484375 40.625 41.703125 44.40625 
Q 38.921875 48.1875 33.109375 48.1875 
Q 26.21875 48.1875 22.15625 43.53125 
Q 18.109375 38.875 18.109375 30.90625 
L 18.109375 0 
L 9.078125 0 
L 9.078125 54.6875 
L 18.109375 54.6875 
L 18.109375 46.1875 
Q 21.1875 51.21875 25.484375 53.609375 
Q 29.78125 56 35.6875 56 
Q 41.65625 56 45.828125 52.96875 
Q 50 49.953125 52 44.1875 
z
" id="DejaVuSans-109"/>
      <path d="M 55.71875 33.015625 
L 49.3125 0 
L 40.28125 0 
L 46.6875 32.671875 
Q 47.125 34.96875 47.359375 36.71875 
Q 47.609375 38.484375 47.609375 39.5 
Q 47.609375 43.609375 45.015625 45.890625 
Q 42.4375 48.1875 37.796875 48.1875 
Q 30.5625 48.1875 25.34375 43.375 
Q 20.125 38.578125 18.5 30.328125 
L 12.5 0 
L 3.515625 0 
L 14.109375 54.6875 
L 23.09375 54.6875 
L 21.296875 46.09375 
Q 25.046875 50.828125 30.3125 53.40625 
Q 35.59375 56 41.40625 56 
Q 48.640625 56 52.609375 52.09375 
Q 56.59375 48.1875 56.59375 41.109375 
Q 56.59375 39.359375 56.375 37.359375 
Q 56.15625 35.359375 55.71875 33.015625 
z
" id="DejaVuSans-Oblique-110"/>
      <path d="M 56.203125 29.59375 
L 56.203125 25.203125 
L 14.890625 25.203125 
Q 15.484375 15.921875 20.484375 11.0625 
Q 25.484375 6.203125 34.421875 6.203125 
Q 39.59375 6.203125 44.453125 7.46875 
Q 49.3125 8.734375 54.109375 11.28125 
L 54.109375 2.78125 
Q 49.265625 0.734375 44.1875 -0.34375 
Q 39.109375 -1.421875 33.890625 -1.421875 
Q 20.796875 -1.421875 13.15625 6.1875 
Q 5.515625 13.8125 5.515625 26.8125 
Q 5.515625 40.234375 12.765625 48.109375 
Q 20.015625 56 32.328125 56 
Q 43.359375 56 49.78125 48.890625 
Q 56.203125 41.796875 56.203125 29.59375 
z
M 47.21875 32.234375 
Q 47.125 39.59375 43.09375 43.984375 
Q 39.0625 48.390625 32.421875 48.390625 
Q 24.90625 48.390625 20.390625 44.140625 
Q 15.875 39.890625 15.1875 32.171875 
z
" id="DejaVuSans-101"/>
      <path d="M 34.28125 27.484375 
Q 23.390625 27.484375 19.1875 25 
Q 14.984375 22.515625 14.984375 16.5 
Q 14.984375 11.71875 18.140625 8.90625 
Q 21.296875 6.109375 26.703125 6.109375 
Q 34.1875 6.109375 38.703125 11.40625 
Q 43.21875 16.703125 43.21875 25.484375 
L 43.21875 27.484375 
z
M 52.203125 31.203125 
L 52.203125 0 
L 43.21875 0 
L 43.21875 8.296875 
Q 40.140625 3.328125 35.546875 0.953125 
Q 30.953125 -1.421875 24.3125 -1.421875 
Q 15.921875 -1.421875 10.953125 3.296875 
Q 6 8.015625 6 15.921875 
Q 6 25.140625 12.171875 29.828125 
Q 18.359375 34.515625 30.609375 34.515625 
L 43.21875 34.515625 
L 43.21875 35.40625 
Q 43.21875 41.609375 39.140625 45 
Q 35.0625 48.390625 27.6875 48.390625 
Q 23 48.390625 18.546875 47.265625 
Q 14.109375 46.140625 10.015625 43.890625 
L 10.015625 52.203125 
Q 14.9375 54.109375 19.578125 55.046875 
Q 24.21875 56 28.609375 56 
Q 40.484375 56 46.34375 49.84375 
Q 52.203125 43.703125 52.203125 31.203125 
z
" id="DejaVuSans-97"/>
      <path d="M 44.28125 53.078125 
L 44.28125 44.578125 
Q 40.484375 46.53125 36.375 47.5 
Q 32.28125 48.484375 27.875 48.484375 
Q 21.1875 48.484375 17.84375 46.4375 
Q 14.5 44.390625 14.5 40.28125 
Q 14.5 37.15625 16.890625 35.375 
Q 19.28125 33.59375 26.515625 31.984375 
L 29.59375 31.296875 
Q 39.15625 29.25 43.1875 25.515625 
Q 47.21875 21.78125 47.21875 15.09375 
Q 47.21875 7.46875 41.1875 3.015625 
Q 35.15625 -1.421875 24.609375 -1.421875 
Q 20.21875 -1.421875 15.453125 -0.5625 
Q 10.6875 0.296875 5.421875 2 
L 5.421875 11.28125 
Q 10.40625 8.6875 15.234375 7.390625 
Q 20.0625 6.109375 24.8125 6.109375 
Q 31.15625 6.109375 34.5625 8.28125 
Q 37.984375 10.453125 37.984375 14.40625 
Q 37.984375 18.0625 35.515625 20.015625 
Q 33.0625 21.96875 24.703125 23.78125 
L 21.578125 24.515625 
Q 13.234375 26.265625 9.515625 29.90625 
Q 5.8125 33.546875 5.8125 39.890625 
Q 5.8125 47.609375 11.28125 51.796875 
Q 16.75 56 26.8125 56 
Q 31.78125 56 36.171875 55.265625 
Q 40.578125 54.546875 44.28125 53.078125 
z
" id="DejaVuSans-115"/>
      <path d="M 8.5 21.578125 
L 8.5 54.6875 
L 17.484375 54.6875 
L 17.484375 21.921875 
Q 17.484375 14.15625 20.5 10.265625 
Q 23.53125 6.390625 29.59375 6.390625 
Q 36.859375 6.390625 41.078125 11.03125 
Q 45.3125 15.671875 45.3125 23.6875 
L 45.3125 54.6875 
L 54.296875 54.6875 
L 54.296875 0 
L 45.3125 0 
L 45.3125 8.40625 
Q 42.046875 3.421875 37.71875 1 
Q 33.40625 -1.421875 27.6875 -1.421875 
Q 18.265625 -1.421875 13.375 4.4375 
Q 8.5 10.296875 8.5 21.578125 
z
M 31.109375 56 
z
" id="DejaVuSans-117"/>
      <path d="M 18.3125 70.21875 
L 18.3125 54.6875 
L 36.8125 54.6875 
L 36.8125 47.703125 
L 18.3125 47.703125 
L 18.3125 18.015625 
Q 18.3125 11.328125 20.140625 9.421875 
Q 21.96875 7.515625 27.59375 7.515625 
L 36.8125 7.515625 
L 36.8125 0 
L 27.59375 0 
Q 17.1875 0 13.234375 3.875 
Q 9.28125 7.765625 9.28125 18.015625 
L 9.28125 47.703125 
L 2.6875 47.703125 
L 2.6875 54.6875 
L 9.28125 54.6875 
L 9.28125 70.21875 
z
" id="DejaVuSans-116"/>
      <path d="M 8.015625 75.875 
L 15.828125 75.875 
Q 23.140625 64.359375 26.78125 53.3125 
Q 30.421875 42.28125 30.421875 31.390625 
Q 30.421875 20.453125 26.78125 9.375 
Q 23.140625 -1.703125 15.828125 -13.1875 
L 8.015625 -13.1875 
Q 14.5 -2 17.703125 9.0625 
Q 20.90625 20.125 20.90625 31.390625 
Q 20.90625 42.671875 17.703125 53.65625 
Q 14.5 64.65625 8.015625 75.875 
z
" id="DejaVuSans-41"/>
     </defs>
     <g transform="translate(226.7 51.158437)scale(0.1 -0.1)">
      <use transform="translate(0 0.015625)" xlink:href="#DejaVuSans-Oblique-89"/>
      <use transform="translate(61.083984 -16.390625)scale(0.7)" xlink:href="#DejaVuSans-Oblique-109"/>
      <use transform="translate(132.006836 0.015625)" xlink:href="#DejaVuSans-32"/>
      <use transform="translate(163.793945 0.015625)" xlink:href="#DejaVuSans-40"/>
      <use transform="translate(202.807617 0.015625)" xlink:href="#DejaVuSans-Oblique-89"/>
      <use transform="translate(263.891602 0.015625)" xlink:href="#DejaVuSans-32"/>
      <use transform="translate(295.678711 0.015625)" xlink:href="#DejaVuSans-102"/>
      <use transform="translate(330.883789 0.015625)" xlink:href="#DejaVuSans-114"/>
      <use transform="translate(371.99707 0.015625)" xlink:href="#DejaVuSans-111"/>
      <use transform="translate(433.178711 0.015625)" xlink:href="#DejaVuSans-109"/>
      <use transform="translate(530.59082 0.015625)" xlink:href="#DejaVuSans-32"/>
      <use transform="translate(562.37793 0.015625)" xlink:href="#DejaVuSans-Oblique-110"/>
      <use transform="translate(625.756836 0.015625)" xlink:href="#DejaVuSans-32"/>
      <use transform="translate(657.543945 0.015625)" xlink:href="#DejaVuSans-109"/>
      <use transform="translate(754.956055 0.015625)" xlink:href="#DejaVuSans-101"/>
      <use transform="translate(816.479492 0.015625)" xlink:href="#DejaVuSans-97"/>
      <use transform="translate(877.758789 0.015625)" xlink:href="#DejaVuSans-115"/>
      <use transform="translate(929.858398 0.015625)" xlink:href="#DejaVuSans-117"/>
      <use transform="translate(993.237305 0.015625)" xlink:href="#DejaVuSans-114"/>
      <use transform="translate(1034.350586 0.015625)" xlink:href="#DejaVuSans-101"/>
      <use transform="translate(1095.874023 0.015625)" xlink:href="#DejaVuSans-109"/>
      <use transform="translate(1193.286133 0.015625)" xlink:href="#DejaVuSans-101"/>
      <use transform="translate(1254.80957 0.015625)" xlink:href="#DejaVuSans-110"/>
      <use transform="translate(1318.188477 0.015625)" xlink:href="#DejaVuSans-116"/>
      <use transform="translate(1357.397461 0.015625)" xlink:href="#DejaVuSans-115"/>
      <use transform="translate(1409.49707 0.015625)" xlink:href="#DejaVuSans-41"/>
     </g>
    </g>
    <g id="line2d_21">
     <path d="M 198.7 62.338125 
L 218.7 62.338125 
" style="fill:none;stroke:#ff7f0e;stroke-linecap:square;stroke-width:1.5;"/>
    </g>
    <g id="line2d_22"/>
    <g id="text_20">
     <!-- $Y$ (parametric bootstrap) -->
     <defs>
      <path d="M 18.109375 8.203125 
L 18.109375 -20.796875 
L 9.078125 -20.796875 
L 9.078125 54.6875 
L 18.109375 54.6875 
L 18.109375 46.390625 
Q 20.953125 51.265625 25.265625 53.625 
Q 29.59375 56 35.59375 56 
Q 45.5625 56 51.78125 48.09375 
Q 58.015625 40.1875 58.015625 27.296875 
Q 58.015625 14.40625 51.78125 6.484375 
Q 45.5625 -1.421875 35.59375 -1.421875 
Q 29.59375 -1.421875 25.265625 0.953125 
Q 20.953125 3.328125 18.109375 8.203125 
z
M 48.6875 27.296875 
Q 48.6875 37.203125 44.609375 42.84375 
Q 40.53125 48.484375 33.40625 48.484375 
Q 26.265625 48.484375 22.1875 42.84375 
Q 18.109375 37.203125 18.109375 27.296875 
Q 18.109375 17.390625 22.1875 11.75 
Q 26.265625 6.109375 33.40625 6.109375 
Q 40.53125 6.109375 44.609375 11.75 
Q 48.6875 17.390625 48.6875 27.296875 
z
" id="DejaVuSans-112"/>
      <path d="M 9.421875 54.6875 
L 18.40625 54.6875 
L 18.40625 0 
L 9.421875 0 
z
M 9.421875 75.984375 
L 18.40625 75.984375 
L 18.40625 64.59375 
L 9.421875 64.59375 
z
" id="DejaVuSans-105"/>
      <path d="M 48.78125 52.59375 
L 48.78125 44.1875 
Q 44.96875 46.296875 41.140625 47.34375 
Q 37.3125 48.390625 33.40625 48.390625 
Q 24.65625 48.390625 19.8125 42.84375 
Q 14.984375 37.3125 14.984375 27.296875 
Q 14.984375 17.28125 19.8125 11.734375 
Q 24.65625 6.203125 33.40625 6.203125 
Q 37.3125 6.203125 41.140625 7.25 
Q 44.96875 8.296875 48.78125 10.40625 
L 48.78125 2.09375 
Q 45.015625 0.34375 40.984375 -0.53125 
Q 36.96875 -1.421875 32.421875 -1.421875 
Q 20.0625 -1.421875 12.78125 6.34375 
Q 5.515625 14.109375 5.515625 27.296875 
Q 5.515625 40.671875 12.859375 48.328125 
Q 20.21875 56 33.015625 56 
Q 37.15625 56 41.109375 55.140625 
Q 45.0625 54.296875 48.78125 52.59375 
z
" id="DejaVuSans-99"/>
      <path d="M 48.6875 27.296875 
Q 48.6875 37.203125 44.609375 42.84375 
Q 40.53125 48.484375 33.40625 48.484375 
Q 26.265625 48.484375 22.1875 42.84375 
Q 18.109375 37.203125 18.109375 27.296875 
Q 18.109375 17.390625 22.1875 11.75 
Q 26.265625 6.109375 33.40625 6.109375 
Q 40.53125 6.109375 44.609375 11.75 
Q 48.6875 17.390625 48.6875 27.296875 
z
M 18.109375 46.390625 
Q 20.953125 51.265625 25.265625 53.625 
Q 29.59375 56 35.59375 56 
Q 45.5625 56 51.78125 48.09375 
Q 58.015625 40.1875 58.015625 27.296875 
Q 58.015625 14.40625 51.78125 6.484375 
Q 45.5625 -1.421875 35.59375 -1.421875 
Q 29.59375 -1.421875 25.265625 0.953125 
Q 20.953125 3.328125 18.109375 8.203125 
L 18.109375 0 
L 9.078125 0 
L 9.078125 75.984375 
L 18.109375 75.984375 
z
" id="DejaVuSans-98"/>
     </defs>
     <g transform="translate(226.7 65.838125)scale(0.1 -0.1)">
      <use transform="translate(0 0.015625)" xlink:href="#DejaVuSans-Oblique-89"/>
      <use transform="translate(61.083984 0.015625)" xlink:href="#DejaVuSans-32"/>
      <use transform="translate(92.871094 0.015625)" xlink:href="#DejaVuSans-40"/>
      <use transform="translate(131.884766 0.015625)" xlink:href="#DejaVuSans-112"/>
      <use transform="translate(195.361328 0.015625)" xlink:href="#DejaVuSans-97"/>
      <use transform="translate(256.640625 0.015625)" xlink:href="#DejaVuSans-114"/>
      <use transform="translate(297.753906 0.015625)" xlink:href="#DejaVuSans-97"/>
      <use transform="translate(359.033203 0.015625)" xlink:href="#DejaVuSans-109"/>
      <use transform="translate(456.445312 0.015625)" xlink:href="#DejaVuSans-101"/>
      <use transform="translate(517.96875 0.015625)" xlink:href="#DejaVuSans-116"/>
      <use transform="translate(557.177734 0.015625)" xlink:href="#DejaVuSans-114"/>
      <use transform="translate(598.291016 0.015625)" xlink:href="#DejaVuSans-105"/>
      <use transform="translate(626.074219 0.015625)" xlink:href="#DejaVuSans-99"/>
      <use transform="translate(681.054688 0.015625)" xlink:href="#DejaVuSans-32"/>
      <use transform="translate(712.841797 0.015625)" xlink:href="#DejaVuSans-98"/>
      <use transform="translate(776.318359 0.015625)" xlink:href="#DejaVuSans-111"/>
      <use transform="translate(837.5 0.015625)" xlink:href="#DejaVuSans-111"/>
      <use transform="translate(898.681641 0.015625)" xlink:href="#DejaVuSans-116"/>
      <use transform="translate(937.890625 0.015625)" xlink:href="#DejaVuSans-115"/>
      <use transform="translate(989.990234 0.015625)" xlink:href="#DejaVuSans-116"/>
      <use transform="translate(1029.199219 0.015625)" xlink:href="#DejaVuSans-114"/>
      <use transform="translate(1070.3125 0.015625)" xlink:href="#DejaVuSans-97"/>
      <use transform="translate(1131.591797 0.015625)" xlink:href="#DejaVuSans-112"/>
      <use transform="translate(1195.068359 0.015625)" xlink:href="#DejaVuSans-41"/>
     </g>
    </g>
    <g id="line2d_23">
     <path d="M 198.7 78.538125 
L 218.7 78.538125 
" style="fill:none;stroke:#2ca02c;stroke-linecap:square;stroke-width:1.5;"/>
    </g>
    <g id="line2d_24"/>
    <g id="text_21">
     <!-- $Y^*$ (non-parametric bootstrap) -->
     <defs>
      <path d="M 4.890625 31.390625 
L 31.203125 31.390625 
L 31.203125 23.390625 
L 4.890625 23.390625 
z
" id="DejaVuSans-45"/>
     </defs>
     <g transform="translate(226.7 82.038125)scale(0.1 -0.1)">
      <use transform="translate(0 0.765625)" xlink:href="#DejaVuSans-Oblique-89"/>
      <use transform="translate(81.738451 39.046875)scale(0.7)" xlink:href="#DejaVuSans-42"/>
      <use transform="translate(133.110521 0.765625)" xlink:href="#DejaVuSans-32"/>
      <use transform="translate(164.89763 0.765625)" xlink:href="#DejaVuSans-40"/>
      <use transform="translate(203.911302 0.765625)" xlink:href="#DejaVuSans-110"/>
      <use transform="translate(267.290208 0.765625)" xlink:href="#DejaVuSans-111"/>
      <use transform="translate(328.471849 0.765625)" xlink:href="#DejaVuSans-110"/>
      <use transform="translate(391.850755 0.765625)" xlink:href="#DejaVuSans-45"/>
      <use transform="translate(427.93474 0.765625)" xlink:href="#DejaVuSans-112"/>
      <use transform="translate(491.411302 0.765625)" xlink:href="#DejaVuSans-97"/>
      <use transform="translate(552.690599 0.765625)" xlink:href="#DejaVuSans-114"/>
      <use transform="translate(593.80388 0.765625)" xlink:href="#DejaVuSans-97"/>
      <use transform="translate(655.083177 0.765625)" xlink:href="#DejaVuSans-109"/>
      <use transform="translate(752.495286 0.765625)" xlink:href="#DejaVuSans-101"/>
      <use transform="translate(814.018724 0.765625)" xlink:href="#DejaVuSans-116"/>
      <use transform="translate(853.227708 0.765625)" xlink:href="#DejaVuSans-114"/>
      <use transform="translate(894.34099 0.765625)" xlink:href="#DejaVuSans-105"/>
      <use transform="translate(922.124193 0.765625)" xlink:href="#DejaVuSans-99"/>
      <use transform="translate(977.104661 0.765625)" xlink:href="#DejaVuSans-32"/>
      <use transform="translate(1008.891771 0.765625)" xlink:href="#DejaVuSans-98"/>
      <use transform="translate(1072.368333 0.765625)" xlink:href="#DejaVuSans-111"/>
      <use transform="translate(1133.549974 0.765625)" xlink:href="#DejaVuSans-111"/>
      <use transform="translate(1194.731615 0.765625)" xlink:href="#DejaVuSans-116"/>
      <use transform="translate(1233.940599 0.765625)" xlink:href="#DejaVuSans-115"/>
      <use transform="translate(1286.040208 0.765625)" xlink:href="#DejaVuSans-116"/>
      <use transform="translate(1325.249193 0.765625)" xlink:href="#DejaVuSans-114"/>
      <use transform="translate(1366.362474 0.765625)" xlink:href="#DejaVuSans-97"/>
      <use transform="translate(1427.641771 0.765625)" xlink:href="#DejaVuSans-112"/>
      <use transform="translate(1491.118333 0.765625)" xlink:href="#DejaVuSans-41"/>
     </g>
    </g>
   </g>
  </g>
 </g>
 <defs>
  <clipPath id="p467f65f23b">
   <rect height="217.44" width="334.8" x="54" y="34.56"/>
  </clipPath>
 </defs>
</svg>
