<?xml version="1.0" encoding="utf-8" standalone="no"?>
<!DOCTYPE svg PUBLIC "-//W3C//DTD SVG 1.1//EN"
  "http://www.w3.org/Graphics/SVG/1.1/DTD/svg11.dtd">
<!-- Created with matplotlib (https://matplotlib.org/) -->
<svg height="288pt" version="1.1" viewBox="0 0 432 288" width="432pt" xmlns="http://www.w3.org/2000/svg" xmlns:xlink="http://www.w3.org/1999/xlink">
 <defs>
  <style type="text/css">
*{stroke-linecap:butt;stroke-linejoin:round;}
  </style>
 </defs>
 <g id="figure_1">
  <g id="patch_1">
   <path d="M 0 288 
L 432 288 
L 432 0 
L 0 0 
z
" style="fill:none;"/>
  </g>
  <g id="axes_1">
   <g id="patch_2">
    <path d="M 54 252 
L 388.8 252 
L 388.8 34.56 
L 54 34.56 
z
" style="fill:none;"/>
   </g>
   <g id="patch_3">
    <path clip-path="url(#p537a342c9f)" d="M 69.218182 252 
L 75.429685 252 
L 75.429685 252 
L 69.218182 252 
z
" style="opacity:0.5;"/>
   </g>
   <g id="patch_4">
    <path clip-path="url(#p537a342c9f)" d="M 75.429685 252 
L 81.641187 252 
L 81.641187 252 
L 75.429685 252 
z
" style="opacity:0.5;"/>
   </g>
   <g id="patch_5">
    <path clip-path="url(#p537a342c9f)" d="M 81.641187 252 
L 87.85269 252 
L 87.85269 252 
L 81.641187 252 
z
" style="opacity:0.5;"/>
   </g>
   <g id="patch_6">
    <path clip-path="url(#p537a342c9f)" d="M 87.85269 252 
L 94.064193 252 
L 94.064193 252 
L 87.85269 252 
z
" style="opacity:0.5;"/>
   </g>
   <g id="patch_7">
    <path clip-path="url(#p537a342c9f)" d="M 94.064193 252 
L 100.275696 252 
L 100.275696 251.746218 
L 94.064193 251.746218 
z
" style="opacity:0.5;"/>
   </g>
   <g id="patch_8">
    <path clip-path="url(#p537a342c9f)" d="M 100.275696 252 
L 106.487199 252 
L 106.487199 251.238655 
L 100.275696 251.238655 
z
" style="opacity:0.5;"/>
   </g>
   <g id="patch_9">
    <path clip-path="url(#p537a342c9f)" d="M 106.487199 252 
L 112.698701 252 
L 112.698701 251.238655 
L 106.487199 251.238655 
z
" style="opacity:0.5;"/>
   </g>
   <g id="patch_10">
    <path clip-path="url(#p537a342c9f)" d="M 112.698701 252 
L 118.910204 252 
L 118.910204 251.492437 
L 112.698701 251.492437 
z
" style="opacity:0.5;"/>
   </g>
   <g id="patch_11">
    <path clip-path="url(#p537a342c9f)" d="M 118.910204 252 
L 125.121707 252 
L 125.121707 250.223529 
L 118.910204 250.223529 
z
" style="opacity:0.5;"/>
   </g>
   <g id="patch_12">
    <path clip-path="url(#p537a342c9f)" d="M 125.121707 252 
L 131.33321 252 
L 131.33321 248.447059 
L 125.121707 248.447059 
z
" style="opacity:0.5;"/>
   </g>
   <g id="patch_13">
    <path clip-path="url(#p537a342c9f)" d="M 131.33321 252 
L 137.544712 252 
L 137.544712 246.416807 
L 131.33321 246.416807 
z
" style="opacity:0.5;"/>
   </g>
   <g id="patch_14">
    <path clip-path="url(#p537a342c9f)" d="M 137.544712 252 
L 143.756215 252 
L 143.756215 242.610084 
L 137.544712 242.610084 
z
" style="opacity:0.5;"/>
   </g>
   <g id="patch_15">
    <path clip-path="url(#p537a342c9f)" d="M 143.756215 252 
L 149.967718 252 
L 149.967718 240.579832 
L 143.756215 240.579832 
z
" style="opacity:0.5;"/>
   </g>
   <g id="patch_16">
    <path clip-path="url(#p537a342c9f)" d="M 149.967718 252 
L 156.179221 252 
L 156.179221 230.936134 
L 149.967718 230.936134 
z
" style="opacity:0.5;"/>
   </g>
   <g id="patch_17">
    <path clip-path="url(#p537a342c9f)" d="M 156.179221 252 
L 162.390724 252 
L 162.390724 223.322689 
L 156.179221 223.322689 
z
" style="opacity:0.5;"/>
   </g>
   <g id="patch_18">
    <path clip-path="url(#p537a342c9f)" d="M 162.390724 252 
L 168.602226 252 
L 168.602226 209.872269 
L 162.390724 209.872269 
z
" style="opacity:0.5;"/>
   </g>
   <g id="patch_19">
    <path clip-path="url(#p537a342c9f)" d="M 168.602226 252 
L 174.813729 252 
L 174.813729 193.122689 
L 168.602226 193.122689 
z
" style="opacity:0.5;"/>
   </g>
   <g id="patch_20">
    <path clip-path="url(#p537a342c9f)" d="M 174.813729 252 
L 181.025232 252 
L 181.025232 179.672269 
L 174.813729 179.672269 
z
" style="opacity:0.5;"/>
   </g>
   <g id="patch_21">
    <path clip-path="url(#p537a342c9f)" d="M 181.025232 252 
L 187.236735 252 
L 187.236735 156.32437 
L 181.025232 156.32437 
z
" style="opacity:0.5;"/>
   </g>
   <g id="patch_22">
    <path clip-path="url(#p537a342c9f)" d="M 187.236735 252 
L 193.448237 252 
L 193.448237 123.586555 
L 187.236735 123.586555 
z
" style="opacity:0.5;"/>
   </g>
   <g id="patch_23">
    <path clip-path="url(#p537a342c9f)" d="M 193.448237 252 
L 199.65974 252 
L 199.65974 119.018487 
L 193.448237 119.018487 
z
" style="opacity:0.5;"/>
   </g>
   <g id="patch_24">
    <path clip-path="url(#p537a342c9f)" d="M 199.65974 252 
L 205.871243 252 
L 205.871243 94.655462 
L 199.65974 94.655462 
z
" style="opacity:0.5;"/>
   </g>
   <g id="patch_25">
    <path clip-path="url(#p537a342c9f)" d="M 205.871243 252 
L 212.082746 252 
L 212.082746 65.978151 
L 205.871243 65.978151 
z
" style="opacity:0.5;"/>
   </g>
   <g id="patch_26">
    <path clip-path="url(#p537a342c9f)" d="M 212.082746 252 
L 218.294249 252 
L 218.294249 53.035294 
L 212.082746 53.035294 
z
" style="opacity:0.5;"/>
   </g>
   <g id="patch_27">
    <path clip-path="url(#p537a342c9f)" d="M 218.294249 252 
L 224.505751 252 
L 224.505751 44.914286 
L 218.294249 44.914286 
z
" style="opacity:0.5;"/>
   </g>
   <g id="patch_28">
    <path clip-path="url(#p537a342c9f)" d="M 224.505751 252 
L 230.717254 252 
L 230.717254 55.826891 
L 224.505751 55.826891 
z
" style="opacity:0.5;"/>
   </g>
   <g id="patch_29">
    <path clip-path="url(#p537a342c9f)" d="M 230.717254 252 
L 236.928757 252 
L 236.928757 68.008403 
L 230.717254 68.008403 
z
" style="opacity:0.5;"/>
   </g>
   <g id="patch_30">
    <path clip-path="url(#p537a342c9f)" d="M 236.928757 252 
L 243.14026 252 
L 243.14026 86.788235 
L 236.928757 86.788235 
z
" style="opacity:0.5;"/>
   </g>
   <g id="patch_31">
    <path clip-path="url(#p537a342c9f)" d="M 243.14026 252 
L 249.351763 252 
L 249.351763 106.329412 
L 243.14026 106.329412 
z
" style="opacity:0.5;"/>
   </g>
   <g id="patch_32">
    <path clip-path="url(#p537a342c9f)" d="M 249.351763 252 
L 255.563265 252 
L 255.563265 128.408403 
L 249.351763 128.408403 
z
" style="opacity:0.5;"/>
   </g>
   <g id="patch_33">
    <path clip-path="url(#p537a342c9f)" d="M 255.563265 252 
L 261.774768 252 
L 261.774768 156.578151 
L 255.563265 156.578151 
z
" style="opacity:0.5;"/>
   </g>
   <g id="patch_34">
    <path clip-path="url(#p537a342c9f)" d="M 261.774768 252 
L 267.986271 252 
L 267.986271 173.581513 
L 261.774768 173.581513 
z
" style="opacity:0.5;"/>
   </g>
   <g id="patch_35">
    <path clip-path="url(#p537a342c9f)" d="M 267.986271 252 
L 274.197774 252 
L 274.197774 192.107563 
L 267.986271 192.107563 
z
" style="opacity:0.5;"/>
   </g>
   <g id="patch_36">
    <path clip-path="url(#p537a342c9f)" d="M 274.197774 252 
L 280.409276 252 
L 280.409276 209.618487 
L 274.197774 209.618487 
z
" style="opacity:0.5;"/>
   </g>
   <g id="patch_37">
    <path clip-path="url(#p537a342c9f)" d="M 280.409276 252 
L 286.620779 252 
L 286.620779 222.561345 
L 280.409276 222.561345 
z
" style="opacity:0.5;"/>
   </g>
   <g id="patch_38">
    <path clip-path="url(#p537a342c9f)" d="M 286.620779 252 
L 292.832282 252 
L 292.832282 232.458824 
L 286.620779 232.458824 
z
" style="opacity:0.5;"/>
   </g>
   <g id="patch_39">
    <path clip-path="url(#p537a342c9f)" d="M 292.832282 252 
L 299.043785 252 
L 299.043785 238.803361 
L 292.832282 238.803361 
z
" style="opacity:0.5;"/>
   </g>
   <g id="patch_40">
    <path clip-path="url(#p537a342c9f)" d="M 299.043785 252 
L 305.255288 252 
L 305.255288 243.878992 
L 299.043785 243.878992 
z
" style="opacity:0.5;"/>
   </g>
   <g id="patch_41">
    <path clip-path="url(#p537a342c9f)" d="M 305.255288 252 
L 311.46679 252 
L 311.46679 247.178151 
L 305.255288 247.178151 
z
" style="opacity:0.5;"/>
   </g>
   <g id="patch_42">
    <path clip-path="url(#p537a342c9f)" d="M 311.46679 252 
L 317.678293 252 
L 317.678293 249.715966 
L 311.46679 249.715966 
z
" style="opacity:0.5;"/>
   </g>
   <g id="patch_43">
    <path clip-path="url(#p537a342c9f)" d="M 317.678293 252 
L 323.889796 252 
L 323.889796 250.731092 
L 317.678293 250.731092 
z
" style="opacity:0.5;"/>
   </g>
   <g id="patch_44">
    <path clip-path="url(#p537a342c9f)" d="M 323.889796 252 
L 330.101299 252 
L 330.101299 249.462185 
L 323.889796 249.462185 
z
" style="opacity:0.5;"/>
   </g>
   <g id="patch_45">
    <path clip-path="url(#p537a342c9f)" d="M 330.101299 252 
L 336.312801 252 
L 336.312801 250.984874 
L 330.101299 250.984874 
z
" style="opacity:0.5;"/>
   </g>
   <g id="patch_46">
    <path clip-path="url(#p537a342c9f)" d="M 336.312801 252 
L 342.524304 252 
L 342.524304 251.238655 
L 336.312801 251.238655 
z
" style="opacity:0.5;"/>
   </g>
   <g id="patch_47">
    <path clip-path="url(#p537a342c9f)" d="M 342.524304 252 
L 348.735807 252 
L 348.735807 252 
L 342.524304 252 
z
" style="opacity:0.5;"/>
   </g>
   <g id="patch_48">
    <path clip-path="url(#p537a342c9f)" d="M 348.735807 252 
L 354.94731 252 
L 354.94731 251.492437 
L 348.735807 251.492437 
z
" style="opacity:0.5;"/>
   </g>
   <g id="patch_49">
    <path clip-path="url(#p537a342c9f)" d="M 354.94731 252 
L 361.158813 252 
L 361.158813 252 
L 354.94731 252 
z
" style="opacity:0.5;"/>
   </g>
   <g id="patch_50">
    <path clip-path="url(#p537a342c9f)" d="M 361.158813 252 
L 367.370315 252 
L 367.370315 252 
L 361.158813 252 
z
" style="opacity:0.5;"/>
   </g>
   <g id="patch_51">
    <path clip-path="url(#p537a342c9f)" d="M 367.370315 252 
L 373.581818 252 
L 373.581818 252 
L 367.370315 252 
z
" style="opacity:0.5;"/>
   </g>
   <g id="matplotlib.axis_1">
    <g id="xtick_1">
     <g id="line2d_1">
      <defs>
       <path d="M 0 0 
L 0 3.5 
" id="m60aa8f6a3b" style="stroke:#000000;stroke-width:0.8;"/>
      </defs>
      <g>
       <use style="stroke:#000000;stroke-width:0.8;" x="69.218182" xlink:href="#m60aa8f6a3b" y="252"/>
      </g>
     </g>
     <g id="text_1">
      <!-- 8.5 -->
      <defs>
       <path d="M 25.140625 1.65625 
Q 30.765625 1.65625 33.640625 4.78125 
Q 36.53125 7.90625 36.53125 12.59375 
Q 36.53125 17.921875 33.46875 21.21875 
Q 30.421875 24.515625 20.953125 31.203125 
Q 16.75 28.5625 14.84375 24.359375 
Q 12.9375 20.171875 12.9375 16.265625 
Q 12.9375 9.578125 16.375 5.609375 
Q 19.828125 1.65625 25.140625 1.65625 
z
M 25.78125 38.96875 
Q 30.375 42.1875 32.125 44.390625 
Q 35.15625 48.140625 35.15625 53.46875 
Q 35.15625 58.109375 32.296875 61.34375 
Q 29.4375 64.59375 23.640625 64.59375 
Q 19.140625 64.59375 16.203125 61.765625 
Q 13.28125 58.9375 13.28125 54.890625 
Q 13.28125 50.296875 16.71875 46.359375 
Q 20.171875 42.4375 25.78125 38.96875 
z
M 18.265625 33.296875 
Q 11.8125 38.484375 9.46875 41.546875 
Q 5.859375 46.234375 5.859375 51.90625 
Q 5.859375 58.34375 11.203125 62.828125 
Q 16.546875 67.328125 25.09375 67.328125 
Q 32.953125 67.328125 37.59375 63.078125 
Q 42.234375 58.84375 42.234375 53.21875 
Q 42.234375 47.515625 37.5 42.96875 
Q 34.765625 40.375 28.65625 37.015625 
Q 36.96875 30.859375 40.546875 26.296875 
Q 44.140625 21.734375 44.140625 15.53125 
Q 44.140625 8.5 38.84375 3.703125 
Q 33.546875 -1.078125 24.65625 -1.078125 
Q 16.703125 -1.078125 11.015625 3.34375 
Q 5.328125 7.765625 5.328125 14.984375 
Q 5.328125 21.1875 9.28125 25.921875 
Q 11.859375 29 18.265625 33.296875 
z
" id="Times-Roman-56"/>
       <path d="M 16.3125 -1.171875 
Q 13.96875 -1.171875 12.359375 0.453125 
Q 10.75 2.09375 10.75 4.390625 
Q 10.75 6.6875 12.375 8.296875 
Q 14.015625 9.90625 16.3125 9.90625 
Q 18.609375 9.90625 20.21875 8.296875 
Q 21.828125 6.6875 21.828125 4.390625 
Q 21.828125 2.09375 20.234375 0.453125 
Q 18.65625 -1.171875 16.3125 -1.171875 
z
" id="Times-Roman-46"/>
       <path d="M 7.46875 8.9375 
Q 10.25 8.9375 14.765625 5.78125 
Q 19.28125 2.640625 21.734375 2.640625 
Q 27.34375 2.640625 31.546875 7.59375 
Q 35.75 12.546875 35.75 19.78125 
Q 35.75 32.421875 22.265625 37.984375 
Q 14.796875 41.0625 8.34375 41.0625 
Q 7.28125 41.0625 7 41.140625 
Q 6.734375 41.21875 6.34375 41.65625 
Q 6.453125 42.046875 6.515625 42.3125 
Q 6.59375 42.578125 6.6875 42.828125 
L 17.328125 66.15625 
L 38.28125 66.15625 
Q 39.84375 66.15625 40.6875 66.6875 
Q 41.546875 67.234375 42.921875 68.703125 
L 43.703125 68.015625 
L 39.890625 58.984375 
Q 39.703125 58.546875 38.8125 58.421875 
Q 37.9375 58.296875 36.921875 58.296875 
L 18.015625 58.296875 
L 13.875 49.75 
Q 21.875 48.390625 25.59375 47.171875 
Q 31.6875 45.125 35.796875 41.109375 
Q 39.3125 37.640625 41.109375 33.3125 
Q 42.921875 29 42.921875 24.171875 
Q 42.921875 13.375 35.234375 6.140625 
Q 27.546875 -1.078125 15.765625 -1.078125 
Q 10.984375 -1.078125 8.0625 -0.140625 
Q 3.171875 1.375 3.171875 5.28125 
Q 3.171875 6.734375 4.21875 7.828125 
Q 5.28125 8.9375 7.46875 8.9375 
z
" id="Times-Roman-53"/>
      </defs>
      <g transform="translate(61.718182 267.2275)scale(0.12 -0.12)">
       <use xlink:href="#Times-Roman-56"/>
       <use x="50" xlink:href="#Times-Roman-46"/>
       <use x="75" xlink:href="#Times-Roman-53"/>
      </g>
     </g>
    </g>
    <g id="xtick_2">
     <g id="line2d_2">
      <g>
       <use style="stroke:#000000;stroke-width:0.8;" x="119.945455" xlink:href="#m60aa8f6a3b" y="252"/>
      </g>
     </g>
     <g id="text_2">
      <!-- 9.0 -->
      <defs>
       <path d="M 24.953125 27.984375 
Q 28.265625 27.984375 31.8125 29.828125 
Q 35.359375 31.6875 35.84375 32.953125 
Q 36.03125 33.453125 36.171875 36.59375 
Q 36.328125 39.75 36.328125 41.703125 
Q 36.328125 51.859375 32.90625 58.203125 
Q 29.5 64.546875 22.90625 64.546875 
Q 18.109375 64.546875 15.15625 60.203125 
Q 12.203125 55.859375 12.203125 47.21875 
Q 12.203125 40.09375 14.953125 34.03125 
Q 17.71875 27.984375 24.953125 27.984375 
z
M 23.578125 67.328125 
Q 34.328125 67.328125 40.1875 58.765625 
Q 46.046875 50.203125 46.046875 39.65625 
Q 46.046875 32.234375 43.265625 24.5625 
Q 40.484375 16.890625 35.15625 10.890625 
Q 28.953125 3.953125 19.4375 0.59375 
Q 14.109375 -1.3125 6 -2.34375 
L 5.515625 -0.390625 
Q 10.59375 0.78125 13.96875 2.09375 
Q 20.015625 4.5 23.6875 7.953125 
Q 28.859375 12.890625 31.953125 18.96875 
Q 35.0625 25.046875 35.84375 29.15625 
L 34.125 27.875 
Q 30.515625 25.140625 25.640625 24.125 
Q 23.09375 23.53125 21 23.53125 
Q 12.703125 23.53125 7.84375 29.40625 
Q 2.984375 35.296875 2.984375 43.453125 
Q 2.984375 53.859375 8.765625 60.59375 
Q 14.546875 67.328125 23.578125 67.328125 
z
" id="Times-Roman-57"/>
       <path d="M 23.921875 1.8125 
Q 31.109375 1.8125 33.78125 9.671875 
Q 36.46875 17.53125 36.46875 32.421875 
Q 36.46875 44.28125 34.859375 51.375 
Q 31.84375 64.546875 23.53125 64.546875 
Q 15.234375 64.546875 12.15625 50.984375 
Q 10.546875 43.75 10.546875 31.9375 
Q 10.546875 20.84375 12.203125 14.203125 
Q 15.328125 1.8125 23.921875 1.8125 
z
M 23.78125 67.1875 
Q 35.015625 67.1875 41.21875 55.421875 
Q 46.140625 45.90625 46.140625 33.546875 
Q 46.140625 23.828125 43.109375 15.234375 
Q 37.40625 -0.921875 23.34375 -0.921875 
Q 13.71875 -0.921875 7.515625 7.8125 
Q 0.875 17.140625 0.875 33.15625 
Q 0.875 45.75 5.328125 54.828125 
Q 11.328125 67.1875 23.78125 67.1875 
z
" id="Times-Roman-48"/>
      </defs>
      <g transform="translate(112.445455 267.2275)scale(0.12 -0.12)">
       <use xlink:href="#Times-Roman-57"/>
       <use x="50" xlink:href="#Times-Roman-46"/>
       <use x="75" xlink:href="#Times-Roman-48"/>
      </g>
     </g>
    </g>
    <g id="xtick_3">
     <g id="line2d_3">
      <g>
       <use style="stroke:#000000;stroke-width:0.8;" x="170.672727" xlink:href="#m60aa8f6a3b" y="252"/>
      </g>
     </g>
     <g id="text_3">
      <!-- 9.5 -->
      <g transform="translate(163.172727 267.2275)scale(0.12 -0.12)">
       <use xlink:href="#Times-Roman-57"/>
       <use x="50" xlink:href="#Times-Roman-46"/>
       <use x="75" xlink:href="#Times-Roman-53"/>
      </g>
     </g>
    </g>
    <g id="xtick_4">
     <g id="line2d_4">
      <g>
       <use style="stroke:#000000;stroke-width:0.8;" x="221.4" xlink:href="#m60aa8f6a3b" y="252"/>
      </g>
     </g>
     <g id="text_4">
      <!-- 10.0 -->
      <defs>
       <path d="M 29.59375 67.09375 
Q 29.78125 66.84375 29.796875 66.71875 
Q 29.828125 66.609375 29.828125 66.15625 
L 29.828125 7.375 
Q 29.828125 3.609375 31.828125 2.578125 
Q 33.84375 1.5625 39.3125 1.375 
L 39.3125 0 
L 11.765625 0 
L 11.765625 1.46875 
Q 17.671875 1.765625 19.484375 3.078125 
Q 21.296875 4.390625 21.296875 8.796875 
L 21.296875 54 
Q 21.296875 56.34375 20.703125 57.5625 
Q 20.125 58.796875 18.171875 58.796875 
Q 16.890625 58.796875 14.859375 58.078125 
Q 12.84375 57.375 11.078125 56.59375 
L 11.078125 57.953125 
L 29 67.09375 
L 29.59375 67.09375 
z
" id="Times-Roman-49"/>
      </defs>
      <g transform="translate(210.9 267.2275)scale(0.12 -0.12)">
       <use xlink:href="#Times-Roman-49"/>
       <use x="50" xlink:href="#Times-Roman-48"/>
       <use x="100" xlink:href="#Times-Roman-46"/>
       <use x="125" xlink:href="#Times-Roman-48"/>
      </g>
     </g>
    </g>
    <g id="xtick_5">
     <g id="line2d_5">
      <g>
       <use style="stroke:#000000;stroke-width:0.8;" x="272.127273" xlink:href="#m60aa8f6a3b" y="252"/>
      </g>
     </g>
     <g id="text_5">
      <!-- 10.5 -->
      <g transform="translate(261.627273 267.2275)scale(0.12 -0.12)">
       <use xlink:href="#Times-Roman-49"/>
       <use x="50" xlink:href="#Times-Roman-48"/>
       <use x="100" xlink:href="#Times-Roman-46"/>
       <use x="125" xlink:href="#Times-Roman-53"/>
      </g>
     </g>
    </g>
    <g id="xtick_6">
     <g id="line2d_6">
      <g>
       <use style="stroke:#000000;stroke-width:0.8;" x="322.854545" xlink:href="#m60aa8f6a3b" y="252"/>
      </g>
     </g>
     <g id="text_6">
      <!-- 11.0 -->
      <g transform="translate(312.354545 267.2275)scale(0.12 -0.12)">
       <use xlink:href="#Times-Roman-49"/>
       <use x="50" xlink:href="#Times-Roman-49"/>
       <use x="100" xlink:href="#Times-Roman-46"/>
       <use x="125" xlink:href="#Times-Roman-48"/>
      </g>
     </g>
    </g>
    <g id="xtick_7">
     <g id="line2d_7">
      <g>
       <use style="stroke:#000000;stroke-width:0.8;" x="373.581818" xlink:href="#m60aa8f6a3b" y="252"/>
      </g>
     </g>
     <g id="text_7">
      <!-- 11.5 -->
      <g transform="translate(363.081818 267.2275)scale(0.12 -0.12)">
       <use xlink:href="#Times-Roman-49"/>
       <use x="50" xlink:href="#Times-Roman-49"/>
       <use x="100" xlink:href="#Times-Roman-46"/>
       <use x="125" xlink:href="#Times-Roman-53"/>
      </g>
     </g>
    </g>
    <g id="text_8">
     <!-- $\overline{X}$ -->
     <defs>
      <path d="M 13.71875 72.90625 
L 23.6875 72.90625 
L 36.1875 46.578125 
L 58.796875 72.90625 
L 70.3125 72.90625 
L 40.28125 38.09375 
L 58.40625 0 
L 48.484375 0 
L 33.796875 30.71875 
L 7.171875 0 
L -4.296875 0 
L 29.78125 39.203125 
z
" id="DejaVuSans-Oblique-88"/>
     </defs>
     <g transform="translate(217.26 282.9875)scale(0.12 -0.12)">
      <use transform="translate(0 0.84375)" xlink:href="#DejaVuSans-Oblique-88"/>
      <path d="M 0 85.5 
L 0 91.75 
L 68.505859 91.75 
L 68.505859 85.5 
L 0 85.5 
z
"/>
     </g>
    </g>
   </g>
   <g id="matplotlib.axis_2">
    <g id="ytick_1">
     <g id="line2d_8">
      <defs>
       <path d="M 0 0 
L -3.5 0 
" id="m4bfccb17ad" style="stroke:#000000;stroke-width:0.8;"/>
      </defs>
      <g>
       <use style="stroke:#000000;stroke-width:0.8;" x="54" xlink:href="#m4bfccb17ad" y="252"/>
      </g>
     </g>
     <g id="text_9">
      <!-- 0.0 -->
      <g transform="translate(32 256.11375)scale(0.12 -0.12)">
       <use xlink:href="#Times-Roman-48"/>
       <use x="50" xlink:href="#Times-Roman-46"/>
       <use x="75" xlink:href="#Times-Roman-48"/>
      </g>
     </g>
    </g>
    <g id="ytick_2">
     <g id="line2d_9">
      <g>
       <use style="stroke:#000000;stroke-width:0.8;" x="54" xlink:href="#m4bfccb17ad" y="220.924713"/>
      </g>
     </g>
     <g id="text_10">
      <!-- 0.2 -->
      <defs>
       <path d="M 2.984375 1.125 
Q 20.84375 19.671875 27.234375 28.359375 
Q 33.640625 37.0625 33.640625 45.3125 
Q 33.640625 52.546875 29.734375 56.328125 
Q 25.828125 60.109375 20.40625 60.109375 
Q 13.71875 60.109375 9.578125 55.21875 
Q 7.28125 52.546875 5.171875 46.96875 
L 3.078125 47.40625 
Q 5.515625 58.640625 11.34375 63.015625 
Q 17.1875 67.390625 23.875 67.390625 
Q 32.125 67.390625 37.21875 62.1875 
Q 42.328125 56.984375 42.328125 49.46875 
Q 42.328125 41.453125 36.8125 34.03125 
Q 31.296875 26.609375 12.84375 7.625 
L 35.25 7.625 
Q 39.9375 7.625 41.84375 8.734375 
Q 43.75 9.859375 46.140625 14.203125 
L 47.40625 13.625 
L 42 0 
L 2.984375 0 
z
" id="Times-Roman-50"/>
      </defs>
      <g transform="translate(32 225.038463)scale(0.12 -0.12)">
       <use xlink:href="#Times-Roman-48"/>
       <use x="50" xlink:href="#Times-Roman-46"/>
       <use x="75" xlink:href="#Times-Roman-50"/>
      </g>
     </g>
    </g>
    <g id="ytick_3">
     <g id="line2d_10">
      <g>
       <use style="stroke:#000000;stroke-width:0.8;" x="54" xlink:href="#m4bfccb17ad" y="189.849425"/>
      </g>
     </g>
     <g id="text_11">
      <!-- 0.4 -->
      <defs>
       <path d="M 29.15625 57.03125 
L 5.171875 23.140625 
L 29.15625 23.140625 
z
M 32.375 67.09375 
L 37.015625 67.09375 
L 37.015625 23.140625 
L 47.21875 23.140625 
L 47.21875 16.65625 
L 37.015625 16.65625 
L 37.015625 0 
L 29.25 0 
L 29.25 16.65625 
L 1.125 16.65625 
L 1.125 23.140625 
z
" id="Times-Roman-52"/>
      </defs>
      <g transform="translate(32 193.963175)scale(0.12 -0.12)">
       <use xlink:href="#Times-Roman-48"/>
       <use x="50" xlink:href="#Times-Roman-46"/>
       <use x="75" xlink:href="#Times-Roman-52"/>
      </g>
     </g>
    </g>
    <g id="ytick_4">
     <g id="line2d_11">
      <g>
       <use style="stroke:#000000;stroke-width:0.8;" x="54" xlink:href="#m4bfccb17ad" y="158.774138"/>
      </g>
     </g>
     <g id="text_12">
      <!-- 0.6 -->
      <defs>
       <path d="M 46.78125 22.21875 
Q 46.78125 13.28125 41.03125 6.09375 
Q 35.296875 -1.078125 26.125 -1.078125 
Q 17.53125 -1.078125 10.46875 6.984375 
Q 3.421875 15.046875 3.421875 28.421875 
Q 3.421875 45.65625 17.09375 58.015625 
Q 29.296875 68.359375 44.53125 68.359375 
L 44.78125 66.75 
Q 38.671875 65.625 34.25 63.6875 
Q 29.828125 61.765625 26.375 58.296875 
Q 22.796875 54.78125 19.671875 49.359375 
Q 16.546875 43.953125 15.375 38.625 
Q 18.40625 40.484375 20.609375 41.359375 
Q 24.515625 42.921875 28.46875 42.921875 
Q 36.234375 42.921875 41.5 37.546875 
Q 46.78125 32.171875 46.78125 22.21875 
z
M 37.84375 18.453125 
Q 37.84375 24.953125 35.796875 29.984375 
Q 32.375 38.375 24.171875 38.375 
Q 16.609375 38.375 14.109375 33.890625 
Q 12.640625 31.25 12.640625 25.09375 
Q 12.640625 17.140625 16.03125 9.515625 
Q 19.4375 1.90625 26.765625 1.90625 
Q 32.5625 1.90625 35.203125 6.859375 
Q 37.84375 11.8125 37.84375 18.453125 
z
" id="Times-Roman-54"/>
      </defs>
      <g transform="translate(32 162.887888)scale(0.12 -0.12)">
       <use xlink:href="#Times-Roman-48"/>
       <use x="50" xlink:href="#Times-Roman-46"/>
       <use x="75" xlink:href="#Times-Roman-54"/>
      </g>
     </g>
    </g>
    <g id="ytick_5">
     <g id="line2d_12">
      <g>
       <use style="stroke:#000000;stroke-width:0.8;" x="54" xlink:href="#m4bfccb17ad" y="127.698851"/>
      </g>
     </g>
     <g id="text_13">
      <!-- 0.8 -->
      <g transform="translate(32 131.812601)scale(0.12 -0.12)">
       <use xlink:href="#Times-Roman-48"/>
       <use x="50" xlink:href="#Times-Roman-46"/>
       <use x="75" xlink:href="#Times-Roman-56"/>
      </g>
     </g>
    </g>
    <g id="ytick_6">
     <g id="line2d_13">
      <g>
       <use style="stroke:#000000;stroke-width:0.8;" x="54" xlink:href="#m4bfccb17ad" y="96.623564"/>
      </g>
     </g>
     <g id="text_14">
      <!-- 1.0 -->
      <g transform="translate(32 100.737314)scale(0.12 -0.12)">
       <use xlink:href="#Times-Roman-49"/>
       <use x="50" xlink:href="#Times-Roman-46"/>
       <use x="75" xlink:href="#Times-Roman-48"/>
      </g>
     </g>
    </g>
    <g id="ytick_7">
     <g id="line2d_14">
      <g>
       <use style="stroke:#000000;stroke-width:0.8;" x="54" xlink:href="#m4bfccb17ad" y="65.548276"/>
      </g>
     </g>
     <g id="text_15">
      <!-- 1.2 -->
      <g transform="translate(32 69.662026)scale(0.12 -0.12)">
       <use xlink:href="#Times-Roman-49"/>
       <use x="50" xlink:href="#Times-Roman-46"/>
       <use x="75" xlink:href="#Times-Roman-50"/>
      </g>
     </g>
    </g>
    <g id="text_16">
     <!-- $pdf(\overline{X})$ -->
     <defs>
      <path d="M 49.609375 33.6875 
Q 49.609375 40.875 46.484375 44.671875 
Q 43.359375 48.484375 37.5 48.484375 
Q 33.5 48.484375 29.859375 46.4375 
Q 26.21875 44.390625 23.390625 40.484375 
Q 20.609375 36.625 18.9375 31.15625 
Q 17.28125 25.6875 17.28125 20.3125 
Q 17.28125 13.484375 20.40625 9.796875 
Q 23.53125 6.109375 29.296875 6.109375 
Q 33.546875 6.109375 37.1875 8.109375 
Q 40.828125 10.109375 43.40625 13.921875 
Q 46.1875 17.921875 47.890625 23.34375 
Q 49.609375 28.765625 49.609375 33.6875 
z
M 21.78125 46.390625 
Q 25.390625 51.125 30.296875 53.5625 
Q 35.203125 56 41.21875 56 
Q 49.609375 56 54.25 50.5 
Q 58.890625 45.015625 58.890625 35.109375 
Q 58.890625 27 56 19.65625 
Q 53.125 12.3125 47.703125 6.5 
Q 44.09375 2.640625 39.546875 0.609375 
Q 35.015625 -1.421875 29.984375 -1.421875 
Q 24.171875 -1.421875 20.21875 1 
Q 16.265625 3.421875 14.3125 8.203125 
L 8.6875 -20.796875 
L -0.296875 -20.796875 
L 14.40625 54.6875 
L 23.390625 54.6875 
z
" id="DejaVuSans-Oblique-112"/>
      <path d="M 41.796875 8.203125 
Q 38.1875 3.46875 33.25 1.015625 
Q 28.328125 -1.421875 22.3125 -1.421875 
Q 14.109375 -1.421875 9.34375 4.171875 
Q 4.59375 9.765625 4.59375 19.484375 
Q 4.59375 27.59375 7.46875 34.9375 
Q 10.359375 42.28125 15.828125 48.09375 
Q 19.4375 51.953125 23.96875 53.96875 
Q 28.515625 56 33.5 56 
Q 38.765625 56 42.796875 53.453125 
Q 46.828125 50.921875 49.03125 46.1875 
L 54.890625 75.984375 
L 63.921875 75.984375 
L 49.125 0 
L 40.09375 0 
z
M 13.921875 21.09375 
Q 13.921875 14.015625 17.109375 10.0625 
Q 20.3125 6.109375 25.984375 6.109375 
Q 30.171875 6.109375 33.765625 8.125 
Q 37.359375 10.15625 40.09375 14.109375 
Q 42.96875 18.21875 44.625 23.578125 
Q 46.296875 28.953125 46.296875 34.1875 
Q 46.296875 40.96875 43.09375 44.765625 
Q 39.890625 48.578125 34.28125 48.578125 
Q 30.03125 48.578125 26.359375 46.578125 
Q 22.703125 44.578125 20.125 40.828125 
Q 17.28125 36.765625 15.59375 31.390625 
Q 13.921875 26.03125 13.921875 21.09375 
z
" id="DejaVuSans-Oblique-100"/>
      <path d="M 47.796875 75.984375 
L 46.390625 68.5 
L 37.796875 68.5 
Q 32.90625 68.5 30.6875 66.578125 
Q 28.46875 64.65625 27.390625 59.515625 
L 26.421875 54.6875 
L 41.21875 54.6875 
L 39.890625 47.703125 
L 25.09375 47.703125 
L 15.828125 0 
L 6.78125 0 
L 16.109375 47.703125 
L 7.515625 47.703125 
L 8.796875 54.6875 
L 17.390625 54.6875 
L 18.109375 58.5 
Q 19.96875 68.171875 24.625 72.078125 
Q 29.296875 75.984375 39.3125 75.984375 
z
" id="DejaVuSans-Oblique-102"/>
      <path d="M 31 75.875 
Q 24.46875 64.65625 21.28125 53.65625 
Q 18.109375 42.671875 18.109375 31.390625 
Q 18.109375 20.125 21.3125 9.0625 
Q 24.515625 -2 31 -13.1875 
L 23.1875 -13.1875 
Q 15.875 -1.703125 12.234375 9.375 
Q 8.59375 20.453125 8.59375 31.390625 
Q 8.59375 42.28125 12.203125 53.3125 
Q 15.828125 64.359375 23.1875 75.875 
z
" id="DejaVuSans-40"/>
      <path d="M 8.015625 75.875 
L 15.828125 75.875 
Q 23.140625 64.359375 26.78125 53.3125 
Q 30.421875 42.28125 30.421875 31.390625 
Q 30.421875 20.453125 26.78125 9.375 
Q 23.140625 -1.703125 15.828125 -13.1875 
L 8.015625 -13.1875 
Q 14.5 -2 17.703125 9.0625 
Q 20.90625 20.125 20.90625 31.390625 
Q 20.90625 42.671875 17.703125 53.65625 
Q 14.5 64.65625 8.015625 75.875 
z
" id="DejaVuSans-41"/>
     </defs>
     <g transform="translate(25.38625 161.82)rotate(-90)scale(0.12 -0.12)">
      <use transform="translate(0 0.34375)" xlink:href="#DejaVuSans-Oblique-112"/>
      <use transform="translate(63.476562 0.34375)" xlink:href="#DejaVuSans-Oblique-100"/>
      <use transform="translate(126.953125 0.34375)" xlink:href="#DejaVuSans-Oblique-102"/>
      <use transform="translate(162.158203 0.34375)" xlink:href="#DejaVuSans-40"/>
      <use transform="translate(201.171875 0.84375)" xlink:href="#DejaVuSans-Oblique-88"/>
      <use transform="translate(269.677734 0.34375)" xlink:href="#DejaVuSans-41"/>
      <path d="M 201.171875 85.5 
L 201.171875 91.75 
L 269.677734 91.75 
L 269.677734 85.5 
L 201.171875 85.5 
z
"/>
     </g>
    </g>
   </g>
   <g id="patch_52">
    <path d="M 54 252 
L 54 34.56 
" style="fill:none;stroke:#000000;stroke-linecap:square;stroke-linejoin:miter;stroke-width:0.8;"/>
   </g>
   <g id="patch_53">
    <path d="M 388.8 252 
L 388.8 34.56 
" style="fill:none;stroke:#000000;stroke-linecap:square;stroke-linejoin:miter;stroke-width:0.8;"/>
   </g>
   <g id="patch_54">
    <path d="M 54 252 
L 388.8 252 
" style="fill:none;stroke:#000000;stroke-linecap:square;stroke-linejoin:miter;stroke-width:0.8;"/>
   </g>
   <g id="patch_55">
    <path d="M 54 34.56 
L 388.8 34.56 
" style="fill:none;stroke:#000000;stroke-linecap:square;stroke-linejoin:miter;stroke-width:0.8;"/>
   </g>
   <g id="text_17">
    <!-- 94.8% of time $\mu$ in CI range given by eqn. 7.15: -->
    <defs>
     <path d="M 27.640625 66.15625 
Q 30.671875 66.15625 32.5625 65.375 
Q 33.59375 64.984375 34.578125 64.109375 
L 36.421875 62.453125 
Q 37.546875 61.46875 39.59375 61.078125 
Q 41.65625 60.6875 43.796875 60.6875 
Q 49.421875 60.6875 54.15625 63.421875 
Q 56.6875 64.84375 59.46875 67.578125 
L 63.375 67.578125 
L 24.859375 -1.421875 
L 20.125 -1.421875 
L 54.9375 61.078125 
Q 51.265625 59.375 49.453125 58.828125 
Q 47.65625 58.296875 44.671875 58.296875 
Q 42.046875 58.296875 40.140625 58.640625 
Q 38.921875 58.84375 37.703125 59.234375 
Q 38.09375 57.90625 38.234375 57.046875 
Q 38.375 56.203125 38.375 54.390625 
Q 38.375 45.609375 32.484375 37.234375 
Q 26.609375 28.859375 18.0625 28.859375 
Q 13.53125 28.859375 9.8125 32.328125 
Q 6.109375 35.796875 6.109375 42.484375 
Q 6.109375 50.53125 12.640625 58.34375 
Q 19.1875 66.15625 27.640625 66.15625 
z
M 59.078125 2.984375 
Q 65.046875 2.984375 69.796875 10.765625 
Q 74.5625 18.5625 74.5625 25.203125 
Q 74.5625 29.296875 72.5625 31.59375 
Q 70.5625 33.890625 67.328125 33.890625 
Q 61.53125 33.890625 56.984375 25 
Q 52.4375 16.109375 52.4375 9.625 
Q 52.4375 6.390625 54.296875 4.6875 
Q 56.15625 2.984375 59.078125 2.984375 
z
M 44.875 13.625 
Q 44.875 22.078125 51.578125 29.5625 
Q 58.296875 37.0625 66.453125 37.0625 
Q 70.703125 37.0625 73.96875 34.515625 
Q 77.25 31.984375 77.25 25.09375 
Q 77.25 17.71875 71.671875 8.78125 
Q 66.109375 -0.140625 56.984375 -0.140625 
Q 52.046875 -0.140625 48.453125 3.203125 
Q 44.875 6.546875 44.875 13.625 
z
M 19.875 32.28125 
Q 25.875 32.28125 30.859375 39.546875 
Q 35.84375 46.828125 35.84375 55.421875 
Q 35.84375 58.5 35.171875 59.375 
Q 34.515625 60.25 32.859375 60.640625 
Q 31.6875 60.9375 30.09375 62.078125 
Q 28.515625 63.234375 28.171875 63.234375 
Q 23.4375 63.234375 18.53125 54.765625 
Q 13.625 46.296875 13.625 39.15625 
Q 13.625 35.9375 15.15625 34.109375 
Q 16.703125 32.28125 19.875 32.28125 
z
" id="Times-Roman-37"/>
     <path id="Times-Roman-32"/>
     <path d="M 2.546875 22.65625 
Q 2.546875 32.375 8.71875 39.078125 
Q 14.890625 45.796875 24.609375 45.796875 
Q 34.28125 45.796875 40.625 39.453125 
Q 46.96875 33.109375 46.96875 22.5625 
Q 46.96875 12.84375 40.8125 5.65625 
Q 34.671875 -1.515625 24.90625 -1.515625 
Q 15.53125 -1.515625 9.03125 5.359375 
Q 2.546875 12.25 2.546875 22.65625 
z
M 23.25 42.875 
Q 19.390625 42.875 16.546875 40.328125 
Q 11.671875 35.890625 11.671875 25 
Q 11.671875 16.3125 15.59375 8.78125 
Q 19.53125 1.265625 26.515625 1.265625 
Q 31.984375 1.265625 34.9375 6.296875 
Q 37.890625 11.328125 37.890625 19.484375 
Q 37.890625 27.9375 34.125 35.40625 
Q 30.375 42.875 23.25 42.875 
z
M 25.046875 45.796875 
z
" id="Times-Roman-111"/>
     <path d="M 1.953125 1.375 
Q 7.125 1.609375 8.765625 3.296875 
Q 10.40625 4.984375 10.40625 10.40625 
L 10.40625 41.75 
L 2.046875 41.75 
L 2.046875 45.015625 
L 10.40625 45.015625 
Q 10.40625 52.734375 12.5 58.0625 
Q 16.5 68.265625 27.203125 68.265625 
Q 31.5 68.265625 34.890625 66.546875 
Q 38.28125 64.84375 38.28125 61.96875 
Q 38.28125 60.359375 37.109375 59.078125 
Q 35.9375 57.8125 34.28125 57.8125 
Q 32.859375 57.8125 31.828125 58.65625 
Q 30.8125 59.515625 29.390625 61.671875 
L 28.5625 62.9375 
Q 27.875 63.96875 26.953125 64.671875 
Q 26.03125 65.375 24.359375 65.375 
Q 20.65625 65.375 19.34375 61.71875 
Q 18.609375 59.765625 18.609375 56.59375 
L 18.609375 45.015625 
L 30.859375 45.015625 
L 30.859375 41.75 
L 18.703125 41.75 
L 18.703125 10.40625 
Q 18.703125 4.890625 20.1875 3.34375 
Q 21.6875 1.8125 27.984375 1.375 
L 27.984375 0 
L 1.953125 0 
z
" id="Times-Roman-102"/>
     <path d="M 25.4375 45.015625 
L 25.4375 41.5 
L 15.484375 41.5 
L 15.375 13.375 
Q 15.375 9.671875 16.015625 7.765625 
Q 17.1875 4.390625 20.609375 4.390625 
Q 22.359375 4.390625 23.65625 5.21875 
Q 24.953125 6.0625 26.609375 7.859375 
L 27.875 6.78125 
L 26.8125 5.328125 
Q 24.265625 1.90625 21.4375 0.484375 
Q 18.609375 -0.921875 15.96875 -0.921875 
Q 10.203125 -0.921875 8.15625 4.203125 
Q 7.03125 6.984375 7.03125 11.921875 
L 7.03125 41.5 
L 1.703125 41.5 
Q 1.46875 41.65625 1.34375 41.796875 
Q 1.21875 41.9375 1.21875 42.1875 
Q 1.21875 42.671875 1.4375 42.9375 
Q 1.65625 43.21875 2.828125 44.1875 
Q 6.203125 46.96875 7.6875 48.703125 
Q 9.1875 50.4375 14.703125 57.859375 
Q 15.328125 57.859375 15.453125 57.765625 
Q 15.578125 57.671875 15.578125 57.03125 
L 15.578125 45.015625 
z
" id="Times-Roman-116"/>
     <path d="M 8.203125 63.03125 
Q 8.203125 65.140625 9.671875 66.65625 
Q 11.140625 68.171875 13.28125 68.171875 
Q 15.375 68.171875 16.859375 66.671875 
Q 18.359375 65.1875 18.359375 63.03125 
Q 18.359375 60.9375 16.859375 59.4375 
Q 15.375 57.953125 13.28125 57.953125 
Q 11.140625 57.953125 9.671875 59.4375 
Q 8.203125 60.9375 8.203125 63.03125 
z
M 1.953125 1.375 
Q 7.171875 1.859375 8.53125 3.140625 
Q 9.90625 4.4375 9.90625 10.15625 
L 9.90625 33.453125 
Q 9.90625 36.625 9.46875 37.84375 
Q 8.734375 39.84375 6.390625 39.84375 
Q 5.859375 39.84375 5.34375 39.75 
Q 4.828125 39.65625 2.390625 38.96875 
L 2.390625 40.484375 
L 4.5 41.15625 
Q 13.03125 43.953125 16.40625 45.359375 
Q 17.78125 45.953125 18.171875 45.953125 
Q 18.265625 45.609375 18.265625 45.21875 
L 18.265625 10.15625 
Q 18.265625 4.59375 19.609375 3.171875 
Q 20.953125 1.765625 25.6875 1.375 
L 25.6875 0 
L 1.953125 0 
z
" id="Times-Roman-105"/>
     <path d="M 1.609375 1.265625 
Q 5.421875 1.609375 6.6875 2.546875 
Q 8.640625 3.953125 8.640625 8.203125 
L 8.640625 33.453125 
Q 8.640625 37.0625 7.6875 38.1875 
Q 6.734375 39.3125 4.546875 39.3125 
Q 3.515625 39.3125 3 39.203125 
Q 2.484375 39.109375 1.8125 38.875 
L 1.8125 40.578125 
L 5.328125 41.75 
Q 7.234375 42.390625 11.578125 44.046875 
Q 15.921875 45.703125 16.15625 45.703125 
Q 16.40625 45.703125 16.453125 45.453125 
Q 16.5 45.21875 16.5 44.53125 
L 16.5 37.9375 
Q 21.34375 42.328125 24.859375 44.015625 
Q 28.375 45.703125 32.078125 45.703125 
Q 37.109375 45.703125 40.09375 42.28125 
Q 41.65625 40.4375 42.671875 37.25 
Q 46.296875 40.921875 48.96875 42.671875 
Q 53.609375 45.703125 58.453125 45.703125 
Q 66.3125 45.703125 68.953125 39.3125 
Q 70.453125 35.6875 70.453125 27.875 
L 70.453125 7.625 
Q 70.453125 4.15625 71.984375 2.90625 
Q 73.53125 1.65625 77.546875 1.265625 
L 77.546875 0 
L 55.515625 0 
L 55.515625 1.375 
Q 59.765625 1.765625 61.109375 3.078125 
Q 62.453125 4.390625 62.453125 8.453125 
L 62.453125 29.5 
Q 62.453125 34.234375 61.421875 36.46875 
Q 59.625 40.484375 54.34375 40.484375 
Q 51.171875 40.484375 48.046875 38.375 
Q 46.234375 37.15625 43.609375 34.46875 
L 43.609375 9.46875 
Q 43.609375 5.515625 45 3.46875 
Q 46.390625 1.421875 50.875 1.265625 
L 50.875 0 
L 28.46875 0 
L 28.46875 1.265625 
Q 33.109375 1.859375 34.375 3.515625 
Q 35.640625 5.171875 35.640625 11.671875 
L 35.640625 25.34375 
Q 35.640625 32.859375 34.671875 35.6875 
Q 33.0625 40.484375 27.828125 40.484375 
Q 24.859375 40.484375 21.96875 38.84375 
Q 19.09375 37.203125 16.890625 34.578125 
L 16.890625 7.859375 
Q 16.890625 4.15625 18.1875 2.734375 
Q 19.484375 1.3125 23.828125 1.265625 
L 23.828125 0 
L 1.609375 0 
z
" id="Times-Roman-109"/>
     <path d="M 22.90625 45.796875 
Q 29.78125 45.796875 34.953125 41.03125 
Q 40.140625 36.28125 40.140625 27.546875 
L 9.125 27.546875 
Q 9.625 16.21875 14.25 11.03125 
Q 18.890625 5.859375 25.25 5.859375 
Q 30.375 5.859375 33.890625 8.546875 
Q 37.40625 11.234375 40.375 16.15625 
L 42.09375 15.578125 
Q 40.09375 9.375 34.59375 4.09375 
Q 29.109375 -1.171875 21.140625 -1.171875 
Q 11.96875 -1.171875 6.953125 5.765625 
Q 1.953125 12.703125 1.953125 21.734375 
Q 1.953125 31.546875 7.765625 38.671875 
Q 13.578125 45.796875 22.90625 45.796875 
z
M 20.0625 42.234375 
Q 14.5 42.234375 11.578125 37.3125 
Q 10.015625 34.671875 9.328125 30.671875 
L 29.9375 30.671875 
Q 29.390625 35.546875 28.078125 37.9375 
Q 25.6875 42.234375 20.0625 42.234375 
z
M 22.265625 45.796875 
z
" id="Times-Roman-101"/>
     <path d="M -1.3125 -20.796875 
L 13.375 54.6875 
L 22.40625 54.6875 
L 15.765625 20.65625 
Q 15.578125 19.625 15.421875 18.359375 
Q 15.28125 17.09375 15.28125 15.828125 
Q 15.28125 11.28125 18.140625 8.828125 
Q 21 6.390625 26.3125 6.390625 
Q 33.546875 6.390625 37.984375 10.484375 
Q 42.4375 14.59375 44 22.796875 
L 50.203125 54.6875 
L 59.1875 54.6875 
L 51.03125 12.640625 
Q 50.828125 11.71875 50.75 11.03125 
Q 50.6875 10.359375 50.6875 9.8125 
Q 50.6875 8.296875 51.296875 7.59375 
Q 51.90625 6.890625 53.21875 6.890625 
Q 53.71875 6.890625 54.5625 7.125 
Q 55.421875 7.375 56.984375 8.015625 
L 55.609375 0.78125 
Q 53.46875 -0.296875 51.515625 -0.859375 
Q 49.5625 -1.421875 47.703125 -1.421875 
Q 44.484375 -1.421875 42.65625 0.625 
Q 40.828125 2.6875 40.828125 6.296875 
Q 38.09375 2.390625 34.296875 0.484375 
Q 30.515625 -1.421875 25.390625 -1.421875 
Q 20.84375 -1.421875 17.453125 0.671875 
Q 14.0625 2.78125 12.984375 6.203125 
L 7.71875 -20.796875 
z
" id="DejaVuSans-Oblique-956"/>
     <path d="M 1.8125 1.375 
Q 5.28125 1.8125 6.671875 3.09375 
Q 8.0625 4.390625 8.0625 8.890625 
L 8.0625 33.640625 
Q 8.0625 36.765625 7.46875 38.03125 
Q 6.546875 39.890625 3.65625 39.890625 
Q 3.21875 39.890625 2.75 39.84375 
Q 2.296875 39.796875 1.609375 39.703125 
L 1.609375 41.40625 
Q 3.609375 42 11.078125 44.4375 
L 15.671875 45.953125 
Q 16.015625 45.953125 16.078125 45.703125 
Q 16.15625 45.453125 16.15625 45.015625 
L 16.15625 37.84375 
Q 20.65625 42.046875 23.1875 43.609375 
Q 27 46 31.109375 46 
Q 34.421875 46 37.15625 44.09375 
Q 42.4375 40.375 42.4375 30.859375 
L 42.4375 8.0625 
Q 42.4375 4.546875 43.84375 2.984375 
Q 45.265625 1.421875 48.578125 1.375 
L 48.578125 0 
L 27.734375 0 
L 27.734375 1.375 
Q 31.296875 1.859375 32.703125 3.34375 
Q 34.125 4.828125 34.125 9.8125 
L 34.125 30.671875 
Q 34.125 34.859375 32.5625 37.609375 
Q 31 40.375 26.8125 40.375 
Q 23.921875 40.375 20.953125 38.421875 
Q 19.28125 37.3125 16.65625 34.71875 
L 16.65625 7.375 
Q 16.65625 3.859375 18.21875 2.65625 
Q 19.78125 1.46875 23.140625 1.375 
L 23.140625 0 
L 1.8125 0 
z
M 25.046875 46 
z
" id="Times-Roman-110"/>
     <path d="M 37.015625 67.328125 
Q 42.4375 67.328125 48.140625 65.71875 
Q 53.859375 64.109375 54.546875 64.109375 
Q 55.953125 64.109375 57.21875 64.890625 
Q 58.5 65.671875 58.984375 67.328125 
L 61.078125 67.328125 
L 62.015625 44.875 
L 59.71875 44.875 
Q 57.71875 51.5625 54.5 55.671875 
Q 48.34375 63.375 37.9375 63.375 
Q 27.4375 63.375 20.765625 55.078125 
Q 14.109375 46.78125 14.109375 32.234375 
Q 14.109375 18.84375 21.109375 10.859375 
Q 28.125 2.875 38.875 2.875 
Q 46.625 2.875 53.171875 6.59375 
Q 56.9375 8.6875 61.421875 12.9375 
L 63.28125 11.078125 
Q 59.96875 6.890625 55.03125 3.71875 
Q 46.625 -1.65625 36.8125 -1.65625 
Q 20.703125 -1.65625 11.234375 8.640625 
Q 2.484375 18.171875 2.484375 32.421875 
Q 2.484375 47.015625 11.71875 56.9375 
Q 21.4375 67.328125 37.015625 67.328125 
z
M 36.671875 67.328125 
z
" id="Times-Roman-67"/>
     <path d="M 1.609375 1.8125 
Q 7.71875 2.25 9.515625 3.640625 
Q 11.328125 5.03125 11.328125 10.84375 
L 11.328125 55.328125 
Q 11.328125 60.84375 9.515625 62.421875 
Q 7.71875 64.015625 1.609375 64.3125 
L 1.609375 66.15625 
L 31.203125 66.15625 
L 31.203125 64.3125 
Q 25.09375 64.015625 23.28125 62.421875 
Q 21.484375 60.84375 21.484375 55.328125 
L 21.484375 10.84375 
Q 21.484375 5.03125 23.28125 3.640625 
Q 25.09375 2.25 31.203125 1.8125 
L 31.203125 0 
L 1.609375 0 
z
M 16.40625 66.15625 
z
" id="Times-Roman-73"/>
     <path d="M 0.4375 1.609375 
Q 4.9375 2 6.390625 3.1875 
Q 7.859375 4.390625 7.859375 8.296875 
L 7.859375 30.328125 
Q 7.859375 35.15625 6.953125 37.234375 
Q 6.0625 39.3125 3.65625 39.3125 
Q 3.171875 39.3125 2.359375 39.1875 
Q 1.5625 39.0625 0.6875 38.875 
L 0.6875 40.484375 
Q 3.46875 41.453125 6.390625 42.46875 
Q 9.328125 43.5 10.453125 43.953125 
Q 12.890625 44.875 15.484375 46.046875 
Q 15.828125 46.046875 15.890625 45.796875 
Q 15.96875 45.5625 15.96875 44.78125 
L 15.96875 36.765625 
Q 19.09375 41.109375 22 43.546875 
Q 24.90625 46 28.03125 46 
Q 30.515625 46 32.078125 44.5 
Q 33.640625 43.015625 33.640625 40.765625 
Q 33.640625 38.765625 32.4375 37.390625 
Q 31.25 36.03125 29.4375 36.03125 
Q 27.59375 36.03125 25.703125 37.734375 
Q 23.828125 39.453125 22.75 39.453125 
Q 21.046875 39.453125 18.546875 36.6875 
Q 16.0625 33.9375 16.0625 31 
L 16.0625 8.984375 
Q 16.0625 4.78125 18.015625 3.140625 
Q 19.96875 1.515625 24.515625 1.609375 
L 24.515625 0 
L 0.4375 0 
z
" id="Times-Roman-114"/>
     <path d="M 28.65625 27.046875 
Q 23.046875 25.203125 19.390625 22.953125 
Q 12.359375 18.609375 12.359375 13.09375 
Q 12.359375 8.640625 15.28125 6.546875 
Q 17.1875 5.171875 19.53125 5.171875 
Q 22.75 5.171875 25.703125 6.984375 
Q 28.65625 8.796875 28.65625 11.578125 
z
M 3.65625 9.71875 
Q 3.65625 16.796875 10.75 21.53125 
Q 15.234375 24.46875 28.65625 29.5 
L 28.65625 33.640625 
Q 28.65625 38.625 27.6875 40.578125 
Q 26.03125 43.84375 20.796875 43.84375 
Q 18.3125 43.84375 16.0625 42.578125 
Q 13.8125 41.265625 13.8125 38.96875 
Q 13.8125 38.375 14.0625 36.984375 
Q 14.3125 35.59375 14.3125 35.203125 
Q 14.3125 32.46875 12.5 31.390625 
Q 11.46875 30.765625 10.0625 30.765625 
Q 7.859375 30.765625 6.6875 32.203125 
Q 5.515625 33.640625 5.515625 35.40625 
Q 5.515625 38.8125 9.734375 42.546875 
Q 13.96875 46.296875 22.125 46.296875 
Q 31.59375 46.296875 34.96875 40.140625 
Q 36.765625 36.765625 36.765625 30.328125 
L 36.765625 10.75 
Q 36.765625 7.90625 37.15625 6.84375 
Q 37.796875 4.9375 39.796875 4.9375 
Q 40.921875 4.9375 41.65625 5.265625 
Q 42.390625 5.609375 44.1875 6.9375 
L 44.1875 4.390625 
Q 42.625 2.484375 40.828125 1.265625 
Q 38.09375 -0.59375 35.25 -0.59375 
Q 31.9375 -0.59375 30.4375 1.5625 
Q 28.953125 3.71875 28.8125 6.6875 
Q 25.09375 3.46875 22.46875 1.90625 
Q 18.015625 -0.734375 14.015625 -0.734375 
Q 9.8125 -0.734375 6.734375 2.21875 
Q 3.65625 5.171875 3.65625 9.71875 
z
M 22.265625 46.296875 
z
" id="Times-Roman-97"/>
     <path d="M 9.8125 -9.03125 
Q 9.8125 -13.140625 14.421875 -14.703125 
Q 19.046875 -16.265625 25 -16.265625 
Q 33.109375 -16.265625 38.1875 -13.453125 
Q 43.265625 -10.640625 43.265625 -6.546875 
Q 43.265625 -3.265625 39.15625 -2.203125 
Q 36.625 -1.5625 29.546875 -1.46875 
Q 27.734375 -1.421875 25.734375 -1.34375 
Q 23.734375 -1.265625 22.078125 -1.171875 
Q 21 -1.125 18.609375 -0.78125 
Q 16.21875 -0.4375 15.046875 -0.203125 
Q 14.453125 -0.203125 12.15625 -3.265625 
Q 9.8125 -6.390625 9.8125 -9.03125 
z
M 16.15625 16.40625 
Q 11.71875 17.875 9.25 21.625 
Q 6.78125 25.390625 6.78125 30.078125 
Q 6.78125 35.796875 11.328125 40.921875 
Q 15.875 46.046875 24.171875 46.046875 
Q 27.734375 46.046875 32.03125 44.359375 
Q 36.328125 42.671875 40.28125 42.671875 
Q 41.3125 42.671875 43.375 42.75 
Q 45.453125 42.828125 46.390625 42.828125 
L 46.96875 42.828125 
L 46.96875 38.875 
L 38.53125 38.875 
Q 39.40625 36.8125 39.890625 35.296875 
Q 40.71875 32.46875 40.71875 29.9375 
Q 40.71875 24.359375 36.109375 19.703125 
Q 31.5 15.046875 23.6875 15.046875 
Q 22.46875 15.046875 19.28125 15.484375 
Q 17.875 15.484375 15.546875 13.078125 
Q 13.234375 10.6875 13.234375 9.1875 
Q 13.234375 7.625 16.65625 6.890625 
Q 18.890625 6.390625 21.625 6.390625 
Q 34.1875 6.390625 38.671875 4.984375 
Q 46.046875 2.6875 46.046875 -4.890625 
Q 46.046875 -12.59375 37.421875 -17.1875 
Q 28.8125 -21.78125 20.015625 -21.78125 
Q 12.015625 -21.78125 7.328125 -18.53125 
Q 2.640625 -15.28125 2.640625 -11.71875 
Q 2.640625 -9.96875 3.875 -8.28125 
Q 5.125 -6.59375 8.796875 -3.265625 
L 12.015625 -0.390625 
L 12.59375 0.203125 
Q 10.359375 1.078125 9.234375 1.90625 
Q 7.28125 3.421875 7.28125 5.375 
Q 7.28125 7.171875 8.953125 9.34375 
Q 10.640625 11.53125 16.15625 16.40625 
z
M 25.4375 17.390625 
Q 28.125 17.390625 29.9375 18.84375 
Q 32.859375 21.1875 32.859375 27 
Q 32.859375 31.640625 30.484375 37.453125 
Q 28.125 43.265625 22.609375 43.265625 
Q 17.828125 43.265625 16.015625 38.71875 
Q 15.09375 36.328125 15.09375 32.8125 
Q 15.09375 26.859375 17.96875 22.125 
Q 20.84375 17.390625 25.4375 17.390625 
z
M 25.046875 46.046875 
z
" id="Times-Roman-103"/>
     <path d="M 21.484375 45.359375 
L 21.484375 43.84375 
Q 18.953125 43.5625 17.890625 43.0625 
Q 16.84375 42.578125 16.84375 40.921875 
Q 16.84375 40.140625 17.0625 39.421875 
Q 17.28125 38.71875 17.828125 37.359375 
L 27.984375 12.109375 
L 36.765625 34.46875 
Q 37.40625 36.078125 37.96875 37.828125 
Q 38.53125 39.59375 38.53125 40.53125 
Q 38.53125 42.4375 36.71875 43.265625 
Q 35.640625 43.703125 33.796875 43.84375 
L 33.796875 45.359375 
L 47.65625 45.359375 
L 47.65625 43.84375 
Q 45.265625 43.65625 44.21875 42.265625 
Q 43.171875 40.875 41.15625 35.84375 
L 27.046875 0.6875 
Q 26.65625 -0.25 26.40625 -0.578125 
Q 26.171875 -0.921875 25.734375 -0.921875 
Q 25.25 -0.921875 24.90625 -0.359375 
Q 24.5625 0.203125 24.171875 1.03125 
L 9.234375 36.765625 
Q 7.421875 41.109375 5.375 42.671875 
Q 4.15625 43.5625 1.8125 43.84375 
L 1.8125 45.359375 
z
" id="Times-Roman-118"/>
     <path d="M 0.34375 62.109375 
L 0.34375 63.765625 
Q 5.90625 65.046875 10.34375 66.609375 
Q 14.796875 68.171875 15.140625 68.171875 
Q 15.234375 67.875 15.234375 67.578125 
L 15.234375 37.84375 
Q 16.5 40.1875 19.046875 42.28125 
Q 23.53125 45.953125 29.390625 45.953125 
Q 36.578125 45.953125 41.65625 39.890625 
Q 46.734375 33.84375 46.734375 24.171875 
Q 46.734375 13.8125 40.140625 6.4375 
Q 33.546875 -0.921875 22.796875 -0.921875 
Q 17.390625 -0.921875 12.15625 1.21875 
Q 6.9375 3.375 6.9375 5.515625 
L 6.9375 57.125 
Q 6.9375 59.96875 6.15625 61.15625 
Q 5.375 62.359375 2.546875 62.359375 
z
M 15.046875 7.125 
Q 15.484375 4.59375 18.84375 3.484375 
Q 22.21875 2.390625 24.75 2.390625 
Q 31.59375 2.390625 34.890625 7.515625 
Q 38.1875 12.640625 38.1875 19.921875 
Q 38.1875 27.203125 35.109375 33.375 
Q 32.03125 39.546875 25.140625 39.546875 
Q 21.6875 39.546875 18.359375 37.421875 
Q 15.046875 35.296875 15.046875 32.03125 
L 15.046875 7.125 
z
" id="Times-Roman-98"/>
     <path d="M 1.375 44.875 
L 21.96875 44.875 
L 21.96875 43.359375 
Q 19.53125 43.3125 18.359375 42.921875 
Q 16.109375 42.28125 16.109375 40.4375 
Q 16.109375 39.75 16.359375 39.03125 
Q 16.609375 38.328125 17.234375 36.921875 
L 28.65625 11.578125 
L 37.84375 37.109375 
Q 37.984375 37.5 38.296875 38.859375 
Q 38.625 40.234375 38.625 40.71875 
Q 38.625 42 37.734375 42.578125 
Q 36.859375 43.171875 35.5 43.265625 
L 33.984375 43.359375 
L 33.984375 44.875 
L 47.40625 44.875 
L 47.40625 43.359375 
Q 45.40625 43.109375 44.40625 41.984375 
Q 43.40625 40.875 42.671875 38.875 
L 27.296875 -1.859375 
Q 23.296875 -12.40625 19.625 -17.140625 
Q 15.96875 -21.875 10.359375 -21.875 
Q 7.625 -21.875 5.21875 -20.5 
Q 2.828125 -19.140625 2.828125 -16.15625 
Q 2.828125 -14.203125 4.265625 -12.953125 
Q 5.71875 -11.71875 7.90625 -11.71875 
Q 9.1875 -11.71875 11.6875 -12.640625 
Q 14.203125 -13.578125 15.28125 -13.578125 
Q 18.015625 -13.578125 21.046875 -7.21875 
Q 24.078125 -0.875 24.078125 1.265625 
Q 24.078125 1.703125 23.921875 2.34375 
Q 23.78125 2.984375 23.578125 3.46875 
L 7.953125 37.25 
Q 6.296875 40.875 5.046875 42.015625 
Q 3.8125 43.171875 1.375 43.5 
z
M 24.609375 45.796875 
z
" id="Times-Roman-121"/>
     <path d="M 23.828125 5.21875 
Q 25 5.21875 26.96875 5.609375 
Q 28.953125 6 30.671875 6.9375 
Q 33.015625 8.203125 33.5 9.171875 
Q 33.984375 10.15625 33.984375 12.84375 
L 33.984375 33.453125 
Q 33.984375 37.3125 32.8125 39.453125 
Q 30.609375 43.359375 24.515625 43.359375 
Q 17.578125 43.359375 14.28125 37.625 
Q 10.984375 31.890625 10.984375 24.515625 
Q 10.984375 15.875 14.328125 10.546875 
Q 17.671875 5.21875 23.828125 5.21875 
z
M 24.953125 46.046875 
Q 28.265625 46.046875 30.8125 45.125 
Q 32.515625 44.53125 35.984375 42.578125 
L 41.40625 45.796875 
Q 41.84375 46 42.09375 46.046875 
Q 42.328125 45.84375 42.375 45.75 
Q 42.4375 45.65625 42.4375 45.125 
L 42.4375 -14.265625 
Q 42.4375 -16.84375 43.359375 -18.109375 
Q 44.78125 -20.015625 48.828125 -20.40625 
L 48.828125 -21.78125 
L 25.203125 -21.78125 
L 25.203125 -20.171875 
Q 29.546875 -20.125 31.671875 -18.703125 
Q 33.796875 -17.28125 33.796875 -12.40625 
L 33.796875 6.203125 
Q 30.375 2.828125 27.875 1.375 
Q 23.78125 -1.03125 18.65625 -1.03125 
Q 12.546875 -1.03125 7.46875 4.609375 
Q 2.390625 10.25 2.390625 21.1875 
Q 2.390625 31.25 8.65625 38.640625 
Q 14.9375 46.046875 24.953125 46.046875 
z
" id="Times-Roman-113"/>
     <path d="M 44.875 66.15625 
L 44.875 64.546875 
L 23.6875 -0.921875 
L 17.234375 -0.921875 
L 37.015625 58.796875 
L 15.71875 58.796875 
Q 10.984375 58.796875 8.90625 57.234375 
Q 6.84375 55.671875 3.65625 50.6875 
L 1.953125 51.46875 
Q 5.125 59.28125 5.875 61.109375 
Q 6.640625 62.9375 7.859375 66.15625 
z
" id="Times-Roman-55"/>
     <path d="M 18.953125 40.578125 
Q 18.953125 38.140625 17.265625 36.59375 
Q 15.578125 35.0625 13.421875 35.0625 
Q 11.078125 35.0625 9.5625 36.71875 
Q 8.0625 38.375 8.0625 40.53125 
Q 8.0625 42.78125 9.625 44.359375 
Q 11.1875 45.953125 13.421875 45.953125 
Q 15.578125 45.953125 17.265625 44.40625 
Q 18.953125 42.875 18.953125 40.578125 
z
M 13.28125 -0.828125 
Q 11.234375 -0.828125 9.640625 0.78125 
Q 8.0625 2.390625 8.0625 4.6875 
Q 8.0625 6.890625 9.625 8.515625 
Q 11.1875 10.15625 13.484375 10.15625 
Q 15.765625 10.15625 17.46875 8.5625 
Q 19.1875 6.984375 19.1875 4.734375 
Q 19.1875 2.59375 17.578125 0.875 
Q 15.96875 -0.828125 13.28125 -0.828125 
z
" id="Times-Roman-58"/>
    </defs>
    <g transform="translate(82.584 8.4576)scale(0.144 -0.144)">
     <use transform="translate(0 0.296875)" xlink:href="#Times-Roman-57"/>
     <use transform="translate(50 0.296875)" xlink:href="#Times-Roman-52"/>
     <use transform="translate(100 0.296875)" xlink:href="#Times-Roman-46"/>
     <use transform="translate(125 0.296875)" xlink:href="#Times-Roman-56"/>
     <use transform="translate(175 0.296875)" xlink:href="#Times-Roman-37"/>
     <use transform="translate(258.300781 0.296875)" xlink:href="#Times-Roman-32"/>
     <use transform="translate(283.300781 0.296875)" xlink:href="#Times-Roman-111"/>
     <use transform="translate(333.300781 0.296875)" xlink:href="#Times-Roman-102"/>
     <use transform="translate(366.601562 0.296875)" xlink:href="#Times-Roman-32"/>
     <use transform="translate(391.601562 0.296875)" xlink:href="#Times-Roman-116"/>
     <use transform="translate(419.384766 0.296875)" xlink:href="#Times-Roman-105"/>
     <use transform="translate(447.167969 0.296875)" xlink:href="#Times-Roman-109"/>
     <use transform="translate(524.951172 0.296875)" xlink:href="#Times-Roman-101"/>
     <use transform="translate(569.335938 0.296875)" xlink:href="#Times-Roman-32"/>
     <use transform="translate(594.335938 0.296875)" xlink:href="#DejaVuSans-Oblique-956"/>
     <use transform="translate(657.958984 0.296875)" xlink:href="#Times-Roman-32"/>
     <use transform="translate(682.958984 0.296875)" xlink:href="#Times-Roman-105"/>
     <use transform="translate(710.742188 0.296875)" xlink:href="#Times-Roman-110"/>
     <use transform="translate(760.742188 0.296875)" xlink:href="#Times-Roman-32"/>
     <use transform="translate(785.742188 0.296875)" xlink:href="#Times-Roman-67"/>
     <use transform="translate(852.441406 0.296875)" xlink:href="#Times-Roman-73"/>
     <use transform="translate(885.742188 0.296875)" xlink:href="#Times-Roman-32"/>
     <use transform="translate(910.742188 0.296875)" xlink:href="#Times-Roman-114"/>
     <use transform="translate(944.042969 0.296875)" xlink:href="#Times-Roman-97"/>
     <use transform="translate(988.427734 0.296875)" xlink:href="#Times-Roman-110"/>
     <use transform="translate(1038.427734 0.296875)" xlink:href="#Times-Roman-103"/>
     <use transform="translate(1088.427734 0.296875)" xlink:href="#Times-Roman-101"/>
     <use transform="translate(1132.8125 0.296875)" xlink:href="#Times-Roman-32"/>
     <use transform="translate(1157.8125 0.296875)" xlink:href="#Times-Roman-103"/>
     <use transform="translate(1207.8125 0.296875)" xlink:href="#Times-Roman-105"/>
     <use transform="translate(1235.595703 0.296875)" xlink:href="#Times-Roman-118"/>
     <use transform="translate(1285.595703 0.296875)" xlink:href="#Times-Roman-101"/>
     <use transform="translate(1329.980469 0.296875)" xlink:href="#Times-Roman-110"/>
     <use transform="translate(1379.980469 0.296875)" xlink:href="#Times-Roman-32"/>
     <use transform="translate(1404.980469 0.296875)" xlink:href="#Times-Roman-98"/>
     <use transform="translate(1454.980469 0.296875)" xlink:href="#Times-Roman-121"/>
     <use transform="translate(1504.980469 0.296875)" xlink:href="#Times-Roman-32"/>
     <use transform="translate(1529.980469 0.296875)" xlink:href="#Times-Roman-101"/>
     <use transform="translate(1574.365234 0.296875)" xlink:href="#Times-Roman-113"/>
     <use transform="translate(1624.365234 0.296875)" xlink:href="#Times-Roman-110"/>
     <use transform="translate(1674.365234 0.296875)" xlink:href="#Times-Roman-46"/>
     <use transform="translate(1699.365234 0.296875)" xlink:href="#Times-Roman-32"/>
     <use transform="translate(1724.365234 0.296875)" xlink:href="#Times-Roman-55"/>
     <use transform="translate(1774.365234 0.296875)" xlink:href="#Times-Roman-46"/>
     <use transform="translate(1799.365234 0.296875)" xlink:href="#Times-Roman-49"/>
     <use transform="translate(1849.365234 0.296875)" xlink:href="#Times-Roman-53"/>
     <use transform="translate(1899.365234 0.296875)" xlink:href="#Times-Roman-58"/>
    </g>
    <!-- $[\overline{X}-t_{.025, 9}s/\sqrt{n},\overline{X}+t_{.025, 9}s/\sqrt{n}]$ -->
    <defs>
     <path d="M 8.59375 75.984375 
L 29.296875 75.984375 
L 29.296875 69 
L 17.578125 69 
L 17.578125 -6.203125 
L 29.296875 -6.203125 
L 29.296875 -13.1875 
L 8.59375 -13.1875 
z
" id="DejaVuSans-91"/>
     <path d="M 10.59375 35.5 
L 73.1875 35.5 
L 73.1875 27.203125 
L 10.59375 27.203125 
z
" id="DejaVuSans-8722"/>
     <path d="M 42.28125 54.6875 
L 40.921875 47.703125 
L 23 47.703125 
L 17.1875 18.015625 
Q 16.890625 16.359375 16.75 15.234375 
Q 16.609375 14.109375 16.609375 13.484375 
Q 16.609375 10.359375 18.484375 8.9375 
Q 20.359375 7.515625 24.515625 7.515625 
L 33.59375 7.515625 
L 32.078125 0 
L 23.484375 0 
Q 15.484375 0 11.546875 3.125 
Q 7.625 6.25 7.625 12.59375 
Q 7.625 13.71875 7.765625 15.0625 
Q 7.90625 16.40625 8.203125 18.015625 
L 14.015625 47.703125 
L 6.390625 47.703125 
L 7.8125 54.6875 
L 15.28125 54.6875 
L 18.3125 70.21875 
L 27.296875 70.21875 
L 24.3125 54.6875 
z
" id="DejaVuSans-Oblique-116"/>
     <path d="M 10.6875 12.40625 
L 21 12.40625 
L 21 0 
L 10.6875 0 
z
" id="DejaVuSans-46"/>
     <path d="M 31.78125 66.40625 
Q 24.171875 66.40625 20.328125 58.90625 
Q 16.5 51.421875 16.5 36.375 
Q 16.5 21.390625 20.328125 13.890625 
Q 24.171875 6.390625 31.78125 6.390625 
Q 39.453125 6.390625 43.28125 13.890625 
Q 47.125 21.390625 47.125 36.375 
Q 47.125 51.421875 43.28125 58.90625 
Q 39.453125 66.40625 31.78125 66.40625 
z
M 31.78125 74.21875 
Q 44.046875 74.21875 50.515625 64.515625 
Q 56.984375 54.828125 56.984375 36.375 
Q 56.984375 17.96875 50.515625 8.265625 
Q 44.046875 -1.421875 31.78125 -1.421875 
Q 19.53125 -1.421875 13.0625 8.265625 
Q 6.59375 17.96875 6.59375 36.375 
Q 6.59375 54.828125 13.0625 64.515625 
Q 19.53125 74.21875 31.78125 74.21875 
z
" id="DejaVuSans-48"/>
     <path d="M 19.1875 8.296875 
L 53.609375 8.296875 
L 53.609375 0 
L 7.328125 0 
L 7.328125 8.296875 
Q 12.9375 14.109375 22.625 23.890625 
Q 32.328125 33.6875 34.8125 36.53125 
Q 39.546875 41.84375 41.421875 45.53125 
Q 43.3125 49.21875 43.3125 52.78125 
Q 43.3125 58.59375 39.234375 62.25 
Q 35.15625 65.921875 28.609375 65.921875 
Q 23.96875 65.921875 18.8125 64.3125 
Q 13.671875 62.703125 7.8125 59.421875 
L 7.8125 69.390625 
Q 13.765625 71.78125 18.9375 73 
Q 24.125 74.21875 28.421875 74.21875 
Q 39.75 74.21875 46.484375 68.546875 
Q 53.21875 62.890625 53.21875 53.421875 
Q 53.21875 48.921875 51.53125 44.890625 
Q 49.859375 40.875 45.40625 35.40625 
Q 44.1875 33.984375 37.640625 27.21875 
Q 31.109375 20.453125 19.1875 8.296875 
z
" id="DejaVuSans-50"/>
     <path d="M 10.796875 72.90625 
L 49.515625 72.90625 
L 49.515625 64.59375 
L 19.828125 64.59375 
L 19.828125 46.734375 
Q 21.96875 47.46875 24.109375 47.828125 
Q 26.265625 48.1875 28.421875 48.1875 
Q 40.625 48.1875 47.75 41.5 
Q 54.890625 34.8125 54.890625 23.390625 
Q 54.890625 11.625 47.5625 5.09375 
Q 40.234375 -1.421875 26.90625 -1.421875 
Q 22.3125 -1.421875 17.546875 -0.640625 
Q 12.796875 0.140625 7.71875 1.703125 
L 7.71875 11.625 
Q 12.109375 9.234375 16.796875 8.0625 
Q 21.484375 6.890625 26.703125 6.890625 
Q 35.15625 6.890625 40.078125 11.328125 
Q 45.015625 15.765625 45.015625 23.390625 
Q 45.015625 31 40.078125 35.4375 
Q 35.15625 39.890625 26.703125 39.890625 
Q 22.75 39.890625 18.8125 39.015625 
Q 14.890625 38.140625 10.796875 36.28125 
z
" id="DejaVuSans-53"/>
     <path d="M 11.71875 12.40625 
L 22.015625 12.40625 
L 22.015625 4 
L 14.015625 -11.625 
L 7.71875 -11.625 
L 11.71875 4 
z
" id="DejaVuSans-44"/>
     <path d="M 10.984375 1.515625 
L 10.984375 10.5 
Q 14.703125 8.734375 18.5 7.8125 
Q 22.3125 6.890625 25.984375 6.890625 
Q 35.75 6.890625 40.890625 13.453125 
Q 46.046875 20.015625 46.78125 33.40625 
Q 43.953125 29.203125 39.59375 26.953125 
Q 35.25 24.703125 29.984375 24.703125 
Q 19.046875 24.703125 12.671875 31.3125 
Q 6.296875 37.9375 6.296875 49.421875 
Q 6.296875 60.640625 12.9375 67.421875 
Q 19.578125 74.21875 30.609375 74.21875 
Q 43.265625 74.21875 49.921875 64.515625 
Q 56.59375 54.828125 56.59375 36.375 
Q 56.59375 19.140625 48.40625 8.859375 
Q 40.234375 -1.421875 26.421875 -1.421875 
Q 22.703125 -1.421875 18.890625 -0.6875 
Q 15.09375 0.046875 10.984375 1.515625 
z
M 30.609375 32.421875 
Q 37.25 32.421875 41.125 36.953125 
Q 45.015625 41.5 45.015625 49.421875 
Q 45.015625 57.28125 41.125 61.84375 
Q 37.25 66.40625 30.609375 66.40625 
Q 23.96875 66.40625 20.09375 61.84375 
Q 16.21875 57.28125 16.21875 49.421875 
Q 16.21875 41.5 20.09375 36.953125 
Q 23.96875 32.421875 30.609375 32.421875 
z
" id="DejaVuSans-57"/>
     <path d="M 50 53.078125 
L 48.296875 44.578125 
Q 44.734375 46.53125 40.765625 47.5 
Q 36.8125 48.484375 32.625 48.484375 
Q 25.53125 48.484375 21.453125 46.0625 
Q 17.390625 43.65625 17.390625 39.5 
Q 17.390625 34.671875 26.859375 32.078125 
Q 27.59375 31.890625 27.9375 31.78125 
L 30.8125 30.90625 
Q 39.796875 28.421875 42.796875 25.6875 
Q 45.796875 22.953125 45.796875 18.21875 
Q 45.796875 9.515625 38.890625 4.046875 
Q 31.984375 -1.421875 20.796875 -1.421875 
Q 16.453125 -1.421875 11.671875 -0.578125 
Q 6.890625 0.25 1.125 2 
L 2.875 11.28125 
Q 7.8125 8.734375 12.59375 7.421875 
Q 17.390625 6.109375 21.78125 6.109375 
Q 28.375 6.109375 32.5 8.9375 
Q 36.625 11.765625 36.625 16.109375 
Q 36.625 20.796875 25.78125 23.6875 
L 24.859375 23.921875 
L 21.78125 24.703125 
Q 14.9375 26.515625 11.765625 29.46875 
Q 8.59375 32.421875 8.59375 37.015625 
Q 8.59375 45.75 15.15625 50.875 
Q 21.734375 56 33.015625 56 
Q 37.453125 56 41.671875 55.265625 
Q 45.90625 54.546875 50 53.078125 
z
" id="DejaVuSans-Oblique-115"/>
     <path d="M 25.390625 72.90625 
L 33.6875 72.90625 
L 8.296875 -9.28125 
L 0 -9.28125 
z
" id="DejaVuSans-47"/>
     <path d="M 54.5 81.109375 
L 63.71875 81.109375 
L 63.71875 76.421875 
L 58.109375 76.421875 
L 29.109375 -2 
L 25.875 -2 
L 10.296875 41.109375 
L 4.203125 38.921875 
L 2.984375 42.828125 
L 16.796875 47.609375 
L 29.296875 12.984375 
z
" id="DejaVuSans-8730"/>
     <path d="M 55.71875 33.015625 
L 49.3125 0 
L 40.28125 0 
L 46.6875 32.671875 
Q 47.125 34.96875 47.359375 36.71875 
Q 47.609375 38.484375 47.609375 39.5 
Q 47.609375 43.609375 45.015625 45.890625 
Q 42.4375 48.1875 37.796875 48.1875 
Q 30.5625 48.1875 25.34375 43.375 
Q 20.125 38.578125 18.5 30.328125 
L 12.5 0 
L 3.515625 0 
L 14.109375 54.6875 
L 23.09375 54.6875 
L 21.296875 46.09375 
Q 25.046875 50.828125 30.3125 53.40625 
Q 35.59375 56 41.40625 56 
Q 48.640625 56 52.609375 52.09375 
Q 56.59375 48.1875 56.59375 41.109375 
Q 56.59375 39.359375 56.375 37.359375 
Q 56.15625 35.359375 55.71875 33.015625 
z
" id="DejaVuSans-Oblique-110"/>
     <path d="M 46 62.703125 
L 46 35.5 
L 73.1875 35.5 
L 73.1875 27.203125 
L 46 27.203125 
L 46 0 
L 37.796875 0 
L 37.796875 27.203125 
L 10.59375 27.203125 
L 10.59375 35.5 
L 37.796875 35.5 
L 37.796875 62.703125 
z
" id="DejaVuSans-43"/>
     <path d="M 30.421875 75.984375 
L 30.421875 -13.1875 
L 9.71875 -13.1875 
L 9.71875 -6.203125 
L 21.390625 -6.203125 
L 21.390625 69 
L 9.71875 69 
L 9.71875 75.984375 
z
" id="DejaVuSans-93"/>
    </defs>
    <g transform="translate(108.216 28.56)scale(0.144 -0.144)">
     <use transform="translate(0 0.34375)" xlink:href="#DejaVuSans-91"/>
     <use transform="translate(39.013672 0.84375)" xlink:href="#DejaVuSans-Oblique-88"/>
     <use transform="translate(127.001953 0.34375)" xlink:href="#DejaVuSans-8722"/>
     <use transform="translate(230.273438 0.34375)" xlink:href="#DejaVuSans-Oblique-116"/>
     <use transform="translate(269.482422 -16.0625)scale(0.7)" xlink:href="#DejaVuSans-46"/>
     <use transform="translate(305.371094 -16.0625)scale(0.7)" xlink:href="#DejaVuSans-48"/>
     <use transform="translate(349.907227 -16.0625)scale(0.7)" xlink:href="#DejaVuSans-50"/>
     <use transform="translate(394.443359 -16.0625)scale(0.7)" xlink:href="#DejaVuSans-53"/>
     <use transform="translate(438.979492 -16.0625)scale(0.7)" xlink:href="#DejaVuSans-44"/>
     <use transform="translate(474.868164 -16.0625)scale(0.7)" xlink:href="#DejaVuSans-57"/>
     <use transform="translate(522.138672 0.34375)" xlink:href="#DejaVuSans-Oblique-115"/>
     <use transform="translate(574.238281 0.34375)" xlink:href="#DejaVuSans-47"/>
     <use transform="translate(607.929688 0.34375)" xlink:href="#DejaVuSans-8730"/>
     <use transform="translate(684.150391 0.203125)" xlink:href="#DejaVuSans-Oblique-110"/>
     <use transform="translate(760.029297 0.34375)" xlink:href="#DejaVuSans-44"/>
     <use transform="translate(811.298828 0.84375)" xlink:href="#DejaVuSans-Oblique-88"/>
     <use transform="translate(899.287109 0.34375)" xlink:href="#DejaVuSans-43"/>
     <use transform="translate(1002.558594 0.34375)" xlink:href="#DejaVuSans-Oblique-116"/>
     <use transform="translate(1041.767578 -16.0625)scale(0.7)" xlink:href="#DejaVuSans-46"/>
     <use transform="translate(1077.65625 -16.0625)scale(0.7)" xlink:href="#DejaVuSans-48"/>
     <use transform="translate(1122.192383 -16.0625)scale(0.7)" xlink:href="#DejaVuSans-50"/>
     <use transform="translate(1166.728516 -16.0625)scale(0.7)" xlink:href="#DejaVuSans-53"/>
     <use transform="translate(1211.264648 -16.0625)scale(0.7)" xlink:href="#DejaVuSans-44"/>
     <use transform="translate(1247.15332 -16.0625)scale(0.7)" xlink:href="#DejaVuSans-57"/>
     <use transform="translate(1294.423828 0.34375)" xlink:href="#DejaVuSans-Oblique-115"/>
     <use transform="translate(1346.523438 0.34375)" xlink:href="#DejaVuSans-47"/>
     <use transform="translate(1380.214844 0.34375)" xlink:href="#DejaVuSans-8730"/>
     <use transform="translate(1456.435547 0.203125)" xlink:href="#DejaVuSans-Oblique-110"/>
     <use transform="translate(1532.314453 0.34375)" xlink:href="#DejaVuSans-93"/>
     <path d="M 39.013672 85.5 
L 39.013672 91.75 
L 107.519531 91.75 
L 107.519531 85.5 
L 39.013672 85.5 
z
"/>
     <path d="M 671.650391 74.953125 
L 671.650391 81.203125 
L 760.029297 81.203125 
L 760.029297 74.953125 
L 671.650391 74.953125 
z
"/>
     <path d="M 811.298828 85.5 
L 811.298828 91.75 
L 879.804688 91.75 
L 879.804688 85.5 
L 811.298828 85.5 
z
"/>
     <path d="M 1443.935547 74.953125 
L 1443.935547 81.203125 
L 1532.314453 81.203125 
L 1532.314453 74.953125 
L 1443.935547 74.953125 
z
"/>
    </g>
   </g>
   <g id="legend_1">
    <g id="patch_56">
     <path d="M 223.370625 61.17375 
L 380.4 61.17375 
Q 382.8 61.17375 382.8 58.77375 
L 382.8 42.96 
Q 382.8 40.56 380.4 40.56 
L 223.370625 40.56 
Q 220.970625 40.56 220.970625 42.96 
L 220.970625 58.77375 
Q 220.970625 61.17375 223.370625 61.17375 
z
" style="fill:#ffffff;opacity:0.8;stroke:#cccccc;stroke-linejoin:miter;"/>
    </g>
    <g id="patch_57">
     <path d="M 225.770625 53.76 
L 249.770625 53.76 
L 249.770625 45.36 
L 225.770625 45.36 
z
" style="opacity:0.5;"/>
    </g>
    <g id="text_18">
     <!-- Parametric bootstrap pdf -->
     <defs>
      <path d="M 43.265625 48 
Q 43.265625 57.171875 35.359375 60.59375 
Q 31.109375 62.453125 24.609375 62.453125 
Q 21.53125 62.453125 20.828125 61.84375 
Q 20.125 61.234375 20.125 59.125 
L 20.125 33.0625 
Q 22.796875 32.8125 23.625 32.765625 
Q 24.46875 32.71875 25.25 32.71875 
Q 32.125 32.71875 36.078125 34.671875 
Q 43.265625 38.234375 43.265625 48 
z
M 1.609375 1.8125 
Q 7.328125 2.34375 8.734375 4.078125 
Q 10.15625 5.8125 10.15625 12.015625 
L 10.15625 55.328125 
Q 10.15625 60.546875 8.5625 62.203125 
Q 6.984375 63.875 1.609375 64.3125 
L 1.609375 66.15625 
L 27.984375 66.15625 
Q 40.671875 66.15625 47.40625 61.21875 
Q 54.15625 56.296875 54.15625 48.25 
Q 54.15625 38.03125 46.671875 33.4375 
Q 39.203125 28.859375 27.984375 28.859375 
Q 26.375 28.859375 23.859375 28.921875 
Q 21.34375 29 20.125 29 
L 20.125 10.84375 
Q 20.125 5.171875 21.84375 3.703125 
Q 23.578125 2.25 29.59375 1.8125 
L 29.59375 0 
L 1.609375 0 
z
" id="Times-Roman-80"/>
      <path d="M 24.859375 46.046875 
Q 30.953125 46.046875 35.375 42.890625 
Q 39.796875 39.75 39.796875 35.984375 
Q 39.796875 34.375 38.671875 32.984375 
Q 37.546875 31.59375 35.203125 31.59375 
Q 33.5 31.59375 32.203125 32.765625 
Q 30.90625 33.9375 30.328125 36.1875 
L 29.734375 38.53125 
Q 29.109375 41.109375 27.546875 42.1875 
Q 25.921875 43.21875 23.296875 43.21875 
Q 17.71875 43.21875 13.890625 38.359375 
Q 10.0625 33.5 10.0625 25.4375 
Q 10.0625 18.0625 14.28125 12.203125 
Q 18.5 6.34375 25.6875 6.34375 
Q 30.765625 6.34375 34.71875 9.671875 
Q 36.96875 11.578125 39.796875 15.71875 
L 41.15625 14.890625 
Q 38.375 9.03125 35.296875 5.609375 
Q 29.390625 -0.921875 21.625 -0.921875 
Q 14.015625 -0.921875 8.15625 5.078125 
Q 2.296875 11.078125 2.296875 21.390625 
Q 2.296875 31.5 8.6875 38.765625 
Q 15.09375 46.046875 24.859375 46.046875 
z
M 22.703125 46.046875 
z
" id="Times-Roman-99"/>
      <path d="M 5.171875 15.375 
L 6.78125 15.375 
Q 7.90625 9.8125 9.8125 6.84375 
Q 13.234375 1.375 19.828125 1.375 
Q 23.484375 1.375 25.609375 3.390625 
Q 27.734375 5.421875 27.734375 8.640625 
Q 27.734375 10.6875 26.515625 12.59375 
Q 25.296875 14.5 22.21875 16.3125 
L 16.75 19.4375 
Q 10.75 22.65625 7.90625 25.921875 
Q 5.078125 29.203125 5.078125 33.640625 
Q 5.078125 39.109375 8.984375 42.625 
Q 12.890625 46.140625 18.796875 46.140625 
Q 21.390625 46.140625 24.484375 45.15625 
Q 27.59375 44.1875 27.984375 44.1875 
Q 28.859375 44.1875 29.25 44.421875 
Q 29.640625 44.671875 29.9375 45.21875 
L 31.109375 45.21875 
L 31.453125 31.59375 
L 29.9375 31.59375 
Q 28.953125 36.328125 27.296875 38.96875 
Q 24.265625 43.84375 18.5625 43.84375 
Q 15.140625 43.84375 13.1875 41.75 
Q 11.234375 39.65625 11.234375 36.8125 
Q 11.234375 32.328125 17.96875 28.8125 
L 24.421875 25.34375 
Q 34.8125 19.671875 34.8125 12.15625 
Q 34.8125 6.390625 30.484375 2.734375 
Q 26.171875 -0.921875 19.1875 -0.921875 
Q 16.265625 -0.921875 12.546875 0.046875 
Q 8.84375 1.03125 8.15625 1.03125 
Q 7.5625 1.03125 7.125 0.609375 
Q 6.6875 0.203125 6.453125 -0.390625 
L 5.171875 -0.390625 
z
M 19.484375 46.140625 
z
" id="Times-Roman-115"/>
      <path d="M 15.96875 8.984375 
Q 17.234375 5.671875 19.75 4.03125 
Q 22.265625 2.390625 25.6875 2.390625 
Q 30.953125 2.390625 34.6875 7.640625 
Q 38.421875 12.890625 38.421875 22.265625 
Q 38.421875 31.25 34.546875 35.6875 
Q 30.671875 40.140625 25.53125 40.140625 
Q 21.921875 40.140625 18.9375 37.90625 
Q 15.96875 35.6875 15.96875 33.546875 
L 15.96875 8.984375 
z
M 0.4375 -20.171875 
Q 5.03125 -19.875 6.265625 -18.203125 
Q 7.515625 -16.546875 7.515625 -12.984375 
L 7.515625 33.890625 
Q 7.515625 37.59375 6.609375 38.640625 
Q 5.71875 39.703125 3.21875 39.703125 
Q 2.6875 39.703125 2.21875 39.640625 
Q 1.765625 39.59375 0.875 39.453125 
L 0.875 41.0625 
L 5.515625 42.578125 
Q 5.765625 42.625 15.328125 45.953125 
Q 15.578125 45.953125 15.703125 45.734375 
Q 15.828125 45.515625 15.828125 45.21875 
L 15.828125 38.625 
Q 19.046875 41.84375 21.484375 43.40625 
Q 25.875 46.140625 30.515625 46.140625 
Q 37.25 46.140625 42.109375 40.40625 
Q 46.96875 34.671875 46.96875 24.703125 
Q 46.96875 14.9375 41.125 6.96875 
Q 35.296875 -0.984375 26.46875 -0.984375 
Q 23.734375 -0.984375 21.734375 -0.296875 
Q 18.609375 0.734375 15.96875 3.46875 
L 15.96875 -12.5 
Q 15.96875 -17.4375 17.578125 -18.546875 
Q 19.1875 -19.671875 24.609375 -20.0625 
L 24.609375 -21.78125 
L 0.4375 -21.78125 
z
" id="Times-Roman-112"/>
      <path d="M 23.6875 46.140625 
Q 27.25 46.140625 30.21875 44.578125 
Q 32.171875 43.5625 33.984375 41.75 
L 33.984375 57.28125 
Q 33.984375 60.25 33.328125 61.375 
Q 32.671875 62.5 30.171875 62.5 
Q 29.59375 62.5 29.15625 62.453125 
Q 28.71875 62.40625 27.203125 62.25 
L 27.203125 63.875 
L 31.203125 64.890625 
Q 33.40625 65.484375 35.59375 66.109375 
Q 37.796875 66.75 39.453125 67.328125 
Q 40.234375 67.578125 42.046875 68.265625 
L 42.328125 68.171875 
L 42.234375 63.03125 
Q 42.1875 60.25 42.140625 57.296875 
Q 42.09375 54.34375 42.09375 51.46875 
L 42 11.578125 
Q 42 8.40625 42.78125 7.125 
Q 43.5625 5.859375 46.921875 5.859375 
Q 47.46875 5.859375 48 5.875 
Q 48.53125 5.90625 49.078125 6 
L 49.078125 4.390625 
Q 48.78125 4.296875 42 1.953125 
L 34.328125 -0.921875 
L 33.984375 -0.484375 
L 33.984375 5.515625 
Q 31.25 2.546875 29.25 1.265625 
Q 25.6875 -0.921875 21 -0.921875 
Q 12.703125 -0.921875 7.546875 5.5 
Q 2.390625 11.921875 2.390625 20.359375 
Q 2.390625 30.953125 8.5625 38.546875 
Q 14.75 46.140625 23.6875 46.140625 
z
M 25.484375 4.34375 
Q 29.296875 4.34375 31.640625 6.59375 
Q 33.984375 8.84375 33.984375 10.84375 
L 33.984375 31.78125 
Q 33.984375 38.140625 30.59375 40.75 
Q 27.203125 43.359375 23.96875 43.359375 
Q 17.828125 43.359375 14.40625 37.90625 
Q 10.984375 32.46875 10.984375 24.515625 
Q 10.984375 16.65625 14.625 10.5 
Q 18.265625 4.34375 25.484375 4.34375 
z
" id="Times-Roman-100"/>
     </defs>
     <g transform="translate(259.370625 53.76)scale(0.12 -0.12)">
      <use xlink:href="#Times-Roman-80"/>
      <use x="55.615234" xlink:href="#Times-Roman-97"/>
      <use x="100" xlink:href="#Times-Roman-114"/>
      <use x="133.300781" xlink:href="#Times-Roman-97"/>
      <use x="177.685547" xlink:href="#Times-Roman-109"/>
      <use x="255.46875" xlink:href="#Times-Roman-101"/>
      <use x="299.853516" xlink:href="#Times-Roman-116"/>
      <use x="327.636719" xlink:href="#Times-Roman-114"/>
      <use x="360.9375" xlink:href="#Times-Roman-105"/>
      <use x="388.720703" xlink:href="#Times-Roman-99"/>
      <use x="433.105469" xlink:href="#Times-Roman-32"/>
      <use x="458.105469" xlink:href="#Times-Roman-98"/>
      <use x="508.105469" xlink:href="#Times-Roman-111"/>
      <use x="558.105469" xlink:href="#Times-Roman-111"/>
      <use x="608.105469" xlink:href="#Times-Roman-116"/>
      <use x="635.888672" xlink:href="#Times-Roman-115"/>
      <use x="674.804688" xlink:href="#Times-Roman-116"/>
      <use x="702.587891" xlink:href="#Times-Roman-114"/>
      <use x="735.888672" xlink:href="#Times-Roman-97"/>
      <use x="780.273438" xlink:href="#Times-Roman-112"/>
      <use x="830.273438" xlink:href="#Times-Roman-32"/>
      <use x="855.273438" xlink:href="#Times-Roman-112"/>
      <use x="905.273438" xlink:href="#Times-Roman-100"/>
      <use x="955.273438" xlink:href="#Times-Roman-102"/>
     </g>
    </g>
   </g>
  </g>
 </g>
 <defs>
  <clipPath id="p537a342c9f">
   <rect height="217.44" width="334.8" x="54" y="34.56"/>
  </clipPath>
 </defs>
</svg>
