<?xml version="1.0" encoding="utf-8" standalone="no"?>
<!DOCTYPE svg PUBLIC "-//W3C//DTD SVG 1.1//EN"
  "http://www.w3.org/Graphics/SVG/1.1/DTD/svg11.dtd">
<!-- Created with matplotlib (https://matplotlib.org/) -->
<svg height="288pt" version="1.1" viewBox="0 0 432 288" width="432pt" xmlns="http://www.w3.org/2000/svg" xmlns:xlink="http://www.w3.org/1999/xlink">
 <defs>
  <style type="text/css">
*{stroke-linecap:butt;stroke-linejoin:round;}
  </style>
 </defs>
 <g id="figure_1">
  <g id="patch_1">
   <path d="M 0 288 
L 432 288 
L 432 0 
L 0 0 
z
" style="fill:none;"/>
  </g>
  <g id="axes_1">
   <g id="patch_2">
    <path d="M 54 252 
L 388.8 252 
L 388.8 34.56 
L 54 34.56 
z
" style="fill:none;"/>
   </g>
   <g id="matplotlib.axis_1">
    <g id="xtick_1">
     <g id="line2d_1">
      <defs>
       <path d="M 0 0 
L 0 3.5 
" id="mb9a502e3cf" style="stroke:#000000;stroke-width:0.8;"/>
      </defs>
      <g>
       <use style="stroke:#000000;stroke-width:0.8;" x="59.540543" xlink:href="#mb9a502e3cf" y="252"/>
      </g>
     </g>
     <g id="text_1">
      <!-- 0 -->
      <defs>
       <path d="M 31.78125 66.40625 
Q 24.171875 66.40625 20.328125 58.90625 
Q 16.5 51.421875 16.5 36.375 
Q 16.5 21.390625 20.328125 13.890625 
Q 24.171875 6.390625 31.78125 6.390625 
Q 39.453125 6.390625 43.28125 13.890625 
Q 47.125 21.390625 47.125 36.375 
Q 47.125 51.421875 43.28125 58.90625 
Q 39.453125 66.40625 31.78125 66.40625 
z
M 31.78125 74.21875 
Q 44.046875 74.21875 50.515625 64.515625 
Q 56.984375 54.828125 56.984375 36.375 
Q 56.984375 17.96875 50.515625 8.265625 
Q 44.046875 -1.421875 31.78125 -1.421875 
Q 19.53125 -1.421875 13.0625 8.265625 
Q 6.59375 17.96875 6.59375 36.375 
Q 6.59375 54.828125 13.0625 64.515625 
Q 19.53125 74.21875 31.78125 74.21875 
z
" id="DejaVuSans-48"/>
      </defs>
      <g transform="translate(56.359293 266.598437)scale(0.1 -0.1)">
       <use xlink:href="#DejaVuSans-48"/>
      </g>
     </g>
    </g>
    <g id="xtick_2">
     <g id="line2d_2">
      <g>
       <use style="stroke:#000000;stroke-width:0.8;" x="111.048309" xlink:href="#mb9a502e3cf" y="252"/>
      </g>
     </g>
     <g id="text_2">
      <!-- 10 -->
      <defs>
       <path d="M 12.40625 8.296875 
L 28.515625 8.296875 
L 28.515625 63.921875 
L 10.984375 60.40625 
L 10.984375 69.390625 
L 28.421875 72.90625 
L 38.28125 72.90625 
L 38.28125 8.296875 
L 54.390625 8.296875 
L 54.390625 0 
L 12.40625 0 
z
" id="DejaVuSans-49"/>
      </defs>
      <g transform="translate(104.685809 266.598437)scale(0.1 -0.1)">
       <use xlink:href="#DejaVuSans-49"/>
       <use x="63.623047" xlink:href="#DejaVuSans-48"/>
      </g>
     </g>
    </g>
    <g id="xtick_3">
     <g id="line2d_3">
      <g>
       <use style="stroke:#000000;stroke-width:0.8;" x="162.556075" xlink:href="#mb9a502e3cf" y="252"/>
      </g>
     </g>
     <g id="text_3">
      <!-- 20 -->
      <defs>
       <path d="M 19.1875 8.296875 
L 53.609375 8.296875 
L 53.609375 0 
L 7.328125 0 
L 7.328125 8.296875 
Q 12.9375 14.109375 22.625 23.890625 
Q 32.328125 33.6875 34.8125 36.53125 
Q 39.546875 41.84375 41.421875 45.53125 
Q 43.3125 49.21875 43.3125 52.78125 
Q 43.3125 58.59375 39.234375 62.25 
Q 35.15625 65.921875 28.609375 65.921875 
Q 23.96875 65.921875 18.8125 64.3125 
Q 13.671875 62.703125 7.8125 59.421875 
L 7.8125 69.390625 
Q 13.765625 71.78125 18.9375 73 
Q 24.125 74.21875 28.421875 74.21875 
Q 39.75 74.21875 46.484375 68.546875 
Q 53.21875 62.890625 53.21875 53.421875 
Q 53.21875 48.921875 51.53125 44.890625 
Q 49.859375 40.875 45.40625 35.40625 
Q 44.1875 33.984375 37.640625 27.21875 
Q 31.109375 20.453125 19.1875 8.296875 
z
" id="DejaVuSans-50"/>
      </defs>
      <g transform="translate(156.193575 266.598437)scale(0.1 -0.1)">
       <use xlink:href="#DejaVuSans-50"/>
       <use x="63.623047" xlink:href="#DejaVuSans-48"/>
      </g>
     </g>
    </g>
    <g id="xtick_4">
     <g id="line2d_4">
      <g>
       <use style="stroke:#000000;stroke-width:0.8;" x="214.063842" xlink:href="#mb9a502e3cf" y="252"/>
      </g>
     </g>
     <g id="text_4">
      <!-- 30 -->
      <defs>
       <path d="M 40.578125 39.3125 
Q 47.65625 37.796875 51.625 33 
Q 55.609375 28.21875 55.609375 21.1875 
Q 55.609375 10.40625 48.1875 4.484375 
Q 40.765625 -1.421875 27.09375 -1.421875 
Q 22.515625 -1.421875 17.65625 -0.515625 
Q 12.796875 0.390625 7.625 2.203125 
L 7.625 11.71875 
Q 11.71875 9.328125 16.59375 8.109375 
Q 21.484375 6.890625 26.8125 6.890625 
Q 36.078125 6.890625 40.9375 10.546875 
Q 45.796875 14.203125 45.796875 21.1875 
Q 45.796875 27.640625 41.28125 31.265625 
Q 36.765625 34.90625 28.71875 34.90625 
L 20.21875 34.90625 
L 20.21875 43.015625 
L 29.109375 43.015625 
Q 36.375 43.015625 40.234375 45.921875 
Q 44.09375 48.828125 44.09375 54.296875 
Q 44.09375 59.90625 40.109375 62.90625 
Q 36.140625 65.921875 28.71875 65.921875 
Q 24.65625 65.921875 20.015625 65.03125 
Q 15.375 64.15625 9.8125 62.3125 
L 9.8125 71.09375 
Q 15.4375 72.65625 20.34375 73.4375 
Q 25.25 74.21875 29.59375 74.21875 
Q 40.828125 74.21875 47.359375 69.109375 
Q 53.90625 64.015625 53.90625 55.328125 
Q 53.90625 49.265625 50.4375 45.09375 
Q 46.96875 40.921875 40.578125 39.3125 
z
" id="DejaVuSans-51"/>
      </defs>
      <g transform="translate(207.701342 266.598437)scale(0.1 -0.1)">
       <use xlink:href="#DejaVuSans-51"/>
       <use x="63.623047" xlink:href="#DejaVuSans-48"/>
      </g>
     </g>
    </g>
    <g id="xtick_5">
     <g id="line2d_5">
      <g>
       <use style="stroke:#000000;stroke-width:0.8;" x="265.571608" xlink:href="#mb9a502e3cf" y="252"/>
      </g>
     </g>
     <g id="text_5">
      <!-- 40 -->
      <defs>
       <path d="M 37.796875 64.3125 
L 12.890625 25.390625 
L 37.796875 25.390625 
z
M 35.203125 72.90625 
L 47.609375 72.90625 
L 47.609375 25.390625 
L 58.015625 25.390625 
L 58.015625 17.1875 
L 47.609375 17.1875 
L 47.609375 0 
L 37.796875 0 
L 37.796875 17.1875 
L 4.890625 17.1875 
L 4.890625 26.703125 
z
" id="DejaVuSans-52"/>
      </defs>
      <g transform="translate(259.209108 266.598437)scale(0.1 -0.1)">
       <use xlink:href="#DejaVuSans-52"/>
       <use x="63.623047" xlink:href="#DejaVuSans-48"/>
      </g>
     </g>
    </g>
    <g id="xtick_6">
     <g id="line2d_6">
      <g>
       <use style="stroke:#000000;stroke-width:0.8;" x="317.079374" xlink:href="#mb9a502e3cf" y="252"/>
      </g>
     </g>
     <g id="text_6">
      <!-- 50 -->
      <defs>
       <path d="M 10.796875 72.90625 
L 49.515625 72.90625 
L 49.515625 64.59375 
L 19.828125 64.59375 
L 19.828125 46.734375 
Q 21.96875 47.46875 24.109375 47.828125 
Q 26.265625 48.1875 28.421875 48.1875 
Q 40.625 48.1875 47.75 41.5 
Q 54.890625 34.8125 54.890625 23.390625 
Q 54.890625 11.625 47.5625 5.09375 
Q 40.234375 -1.421875 26.90625 -1.421875 
Q 22.3125 -1.421875 17.546875 -0.640625 
Q 12.796875 0.140625 7.71875 1.703125 
L 7.71875 11.625 
Q 12.109375 9.234375 16.796875 8.0625 
Q 21.484375 6.890625 26.703125 6.890625 
Q 35.15625 6.890625 40.078125 11.328125 
Q 45.015625 15.765625 45.015625 23.390625 
Q 45.015625 31 40.078125 35.4375 
Q 35.15625 39.890625 26.703125 39.890625 
Q 22.75 39.890625 18.8125 39.015625 
Q 14.890625 38.140625 10.796875 36.28125 
z
" id="DejaVuSans-53"/>
      </defs>
      <g transform="translate(310.716874 266.598437)scale(0.1 -0.1)">
       <use xlink:href="#DejaVuSans-53"/>
       <use x="63.623047" xlink:href="#DejaVuSans-48"/>
      </g>
     </g>
    </g>
    <g id="xtick_7">
     <g id="line2d_7">
      <g>
       <use style="stroke:#000000;stroke-width:0.8;" x="368.58714" xlink:href="#mb9a502e3cf" y="252"/>
      </g>
     </g>
     <g id="text_7">
      <!-- 60 -->
      <defs>
       <path d="M 33.015625 40.375 
Q 26.375 40.375 22.484375 35.828125 
Q 18.609375 31.296875 18.609375 23.390625 
Q 18.609375 15.53125 22.484375 10.953125 
Q 26.375 6.390625 33.015625 6.390625 
Q 39.65625 6.390625 43.53125 10.953125 
Q 47.40625 15.53125 47.40625 23.390625 
Q 47.40625 31.296875 43.53125 35.828125 
Q 39.65625 40.375 33.015625 40.375 
z
M 52.59375 71.296875 
L 52.59375 62.3125 
Q 48.875 64.0625 45.09375 64.984375 
Q 41.3125 65.921875 37.59375 65.921875 
Q 27.828125 65.921875 22.671875 59.328125 
Q 17.53125 52.734375 16.796875 39.40625 
Q 19.671875 43.65625 24.015625 45.921875 
Q 28.375 48.1875 33.59375 48.1875 
Q 44.578125 48.1875 50.953125 41.515625 
Q 57.328125 34.859375 57.328125 23.390625 
Q 57.328125 12.15625 50.6875 5.359375 
Q 44.046875 -1.421875 33.015625 -1.421875 
Q 20.359375 -1.421875 13.671875 8.265625 
Q 6.984375 17.96875 6.984375 36.375 
Q 6.984375 53.65625 15.1875 63.9375 
Q 23.390625 74.21875 37.203125 74.21875 
Q 40.921875 74.21875 44.703125 73.484375 
Q 48.484375 72.75 52.59375 71.296875 
z
" id="DejaVuSans-54"/>
      </defs>
      <g transform="translate(362.22464 266.598437)scale(0.1 -0.1)">
       <use xlink:href="#DejaVuSans-54"/>
       <use x="63.623047" xlink:href="#DejaVuSans-48"/>
      </g>
     </g>
    </g>
    <g id="text_8">
     <!-- $Y_o$, $Y$, or $Y^*$ -->
     <defs>
      <path d="M 6.296875 72.90625 
L 16.890625 72.90625 
L 30.515625 42.921875 
L 56.5 72.90625 
L 67.578125 72.90625 
L 34.515625 34.71875 
L 27.78125 0 
L 17.921875 0 
L 24.609375 34.71875 
z
" id="DejaVuSans-Oblique-89"/>
      <path d="M 25.390625 -1.421875 
Q 15.765625 -1.421875 10.171875 4.515625 
Q 4.59375 10.453125 4.59375 20.703125 
Q 4.59375 26.65625 6.515625 32.828125 
Q 8.453125 39.015625 11.53125 43.21875 
Q 16.359375 49.75 22.3125 52.875 
Q 28.265625 56 35.796875 56 
Q 45.125 56 50.859375 50.1875 
Q 56.59375 44.390625 56.59375 35.015625 
Q 56.59375 28.515625 54.6875 22.0625 
Q 52.78125 15.625 49.703125 11.375 
Q 44.921875 4.828125 38.96875 1.703125 
Q 33.015625 -1.421875 25.390625 -1.421875 
z
M 13.921875 21 
Q 13.921875 13.578125 17.015625 9.890625 
Q 20.125 6.203125 26.421875 6.203125 
Q 35.453125 6.203125 41.375 14.078125 
Q 47.3125 21.96875 47.3125 34.078125 
Q 47.3125 41.15625 44.140625 44.765625 
Q 40.96875 48.390625 34.8125 48.390625 
Q 29.734375 48.390625 25.78125 46.015625 
Q 21.828125 43.65625 18.703125 38.8125 
Q 16.40625 35.203125 15.15625 30.5625 
Q 13.921875 25.921875 13.921875 21 
z
" id="DejaVuSans-Oblique-111"/>
      <path d="M 11.71875 12.40625 
L 22.015625 12.40625 
L 22.015625 4 
L 14.015625 -11.625 
L 7.71875 -11.625 
L 11.71875 4 
z
" id="DejaVuSans-44"/>
      <path id="DejaVuSans-32"/>
      <path d="M 30.609375 48.390625 
Q 23.390625 48.390625 19.1875 42.75 
Q 14.984375 37.109375 14.984375 27.296875 
Q 14.984375 17.484375 19.15625 11.84375 
Q 23.34375 6.203125 30.609375 6.203125 
Q 37.796875 6.203125 41.984375 11.859375 
Q 46.1875 17.53125 46.1875 27.296875 
Q 46.1875 37.015625 41.984375 42.703125 
Q 37.796875 48.390625 30.609375 48.390625 
z
M 30.609375 56 
Q 42.328125 56 49.015625 48.375 
Q 55.71875 40.765625 55.71875 27.296875 
Q 55.71875 13.875 49.015625 6.21875 
Q 42.328125 -1.421875 30.609375 -1.421875 
Q 18.84375 -1.421875 12.171875 6.21875 
Q 5.515625 13.875 5.515625 27.296875 
Q 5.515625 40.765625 12.171875 48.375 
Q 18.84375 56 30.609375 56 
z
" id="DejaVuSans-111"/>
      <path d="M 41.109375 46.296875 
Q 39.59375 47.171875 37.8125 47.578125 
Q 36.03125 48 33.890625 48 
Q 26.265625 48 22.1875 43.046875 
Q 18.109375 38.09375 18.109375 28.8125 
L 18.109375 0 
L 9.078125 0 
L 9.078125 54.6875 
L 18.109375 54.6875 
L 18.109375 46.1875 
Q 20.953125 51.171875 25.484375 53.578125 
Q 30.03125 56 36.53125 56 
Q 37.453125 56 38.578125 55.875 
Q 39.703125 55.765625 41.0625 55.515625 
z
" id="DejaVuSans-114"/>
      <path d="M 47.015625 60.890625 
L 29.5 51.421875 
L 47.015625 41.890625 
L 44.1875 37.109375 
L 27.78125 47.015625 
L 27.78125 28.609375 
L 22.21875 28.609375 
L 22.21875 47.015625 
L 5.8125 37.109375 
L 2.984375 41.890625 
L 20.515625 51.421875 
L 2.984375 60.890625 
L 5.8125 65.71875 
L 22.21875 55.8125 
L 22.21875 74.21875 
L 27.78125 74.21875 
L 27.78125 55.8125 
L 44.1875 65.71875 
z
" id="DejaVuSans-42"/>
     </defs>
     <g transform="translate(193.25 281.498438)scale(0.1 -0.1)">
      <use transform="translate(0 0.765625)" xlink:href="#DejaVuSans-Oblique-89"/>
      <use transform="translate(61.083984 -15.640625)scale(0.7)" xlink:href="#DejaVuSans-Oblique-111"/>
      <use transform="translate(106.645508 0.765625)" xlink:href="#DejaVuSans-44"/>
      <use transform="translate(138.432617 0.765625)" xlink:href="#DejaVuSans-32"/>
      <use transform="translate(170.219727 0.765625)" xlink:href="#DejaVuSans-Oblique-89"/>
      <use transform="translate(231.303711 0.765625)" xlink:href="#DejaVuSans-44"/>
      <use transform="translate(263.09082 0.765625)" xlink:href="#DejaVuSans-32"/>
      <use transform="translate(294.87793 0.765625)" xlink:href="#DejaVuSans-111"/>
      <use transform="translate(356.05957 0.765625)" xlink:href="#DejaVuSans-114"/>
      <use transform="translate(397.172852 0.765625)" xlink:href="#DejaVuSans-32"/>
      <use transform="translate(428.959961 0.765625)" xlink:href="#DejaVuSans-Oblique-89"/>
      <use transform="translate(510.698411 39.046875)scale(0.7)" xlink:href="#DejaVuSans-42"/>
     </g>
    </g>
   </g>
   <g id="matplotlib.axis_2">
    <g id="ytick_1">
     <g id="line2d_8">
      <defs>
       <path d="M 0 0 
L -3.5 0 
" id="m38f80ba5d5" style="stroke:#000000;stroke-width:0.8;"/>
      </defs>
      <g>
       <use style="stroke:#000000;stroke-width:0.8;" x="54" xlink:href="#m38f80ba5d5" y="252"/>
      </g>
     </g>
     <g id="text_9">
      <!-- 0.00 -->
      <defs>
       <path d="M 10.6875 12.40625 
L 21 12.40625 
L 21 0 
L 10.6875 0 
z
" id="DejaVuSans-46"/>
      </defs>
      <g transform="translate(24.734375 255.799219)scale(0.1 -0.1)">
       <use xlink:href="#DejaVuSans-48"/>
       <use x="63.623047" xlink:href="#DejaVuSans-46"/>
       <use x="95.410156" xlink:href="#DejaVuSans-48"/>
       <use x="159.033203" xlink:href="#DejaVuSans-48"/>
      </g>
     </g>
    </g>
    <g id="ytick_2">
     <g id="line2d_9">
      <g>
       <use style="stroke:#000000;stroke-width:0.8;" x="54" xlink:href="#m38f80ba5d5" y="220.937143"/>
      </g>
     </g>
     <g id="text_10">
      <!-- 0.01 -->
      <g transform="translate(24.734375 224.736362)scale(0.1 -0.1)">
       <use xlink:href="#DejaVuSans-48"/>
       <use x="63.623047" xlink:href="#DejaVuSans-46"/>
       <use x="95.410156" xlink:href="#DejaVuSans-48"/>
       <use x="159.033203" xlink:href="#DejaVuSans-49"/>
      </g>
     </g>
    </g>
    <g id="ytick_3">
     <g id="line2d_10">
      <g>
       <use style="stroke:#000000;stroke-width:0.8;" x="54" xlink:href="#m38f80ba5d5" y="189.874286"/>
      </g>
     </g>
     <g id="text_11">
      <!-- 0.02 -->
      <g transform="translate(24.734375 193.673504)scale(0.1 -0.1)">
       <use xlink:href="#DejaVuSans-48"/>
       <use x="63.623047" xlink:href="#DejaVuSans-46"/>
       <use x="95.410156" xlink:href="#DejaVuSans-48"/>
       <use x="159.033203" xlink:href="#DejaVuSans-50"/>
      </g>
     </g>
    </g>
    <g id="ytick_4">
     <g id="line2d_11">
      <g>
       <use style="stroke:#000000;stroke-width:0.8;" x="54" xlink:href="#m38f80ba5d5" y="158.811429"/>
      </g>
     </g>
     <g id="text_12">
      <!-- 0.03 -->
      <g transform="translate(24.734375 162.610647)scale(0.1 -0.1)">
       <use xlink:href="#DejaVuSans-48"/>
       <use x="63.623047" xlink:href="#DejaVuSans-46"/>
       <use x="95.410156" xlink:href="#DejaVuSans-48"/>
       <use x="159.033203" xlink:href="#DejaVuSans-51"/>
      </g>
     </g>
    </g>
    <g id="ytick_5">
     <g id="line2d_12">
      <g>
       <use style="stroke:#000000;stroke-width:0.8;" x="54" xlink:href="#m38f80ba5d5" y="127.748571"/>
      </g>
     </g>
     <g id="text_13">
      <!-- 0.04 -->
      <g transform="translate(24.734375 131.54779)scale(0.1 -0.1)">
       <use xlink:href="#DejaVuSans-48"/>
       <use x="63.623047" xlink:href="#DejaVuSans-46"/>
       <use x="95.410156" xlink:href="#DejaVuSans-48"/>
       <use x="159.033203" xlink:href="#DejaVuSans-52"/>
      </g>
     </g>
    </g>
    <g id="ytick_6">
     <g id="line2d_13">
      <g>
       <use style="stroke:#000000;stroke-width:0.8;" x="54" xlink:href="#m38f80ba5d5" y="96.685714"/>
      </g>
     </g>
     <g id="text_14">
      <!-- 0.05 -->
      <g transform="translate(24.734375 100.484933)scale(0.1 -0.1)">
       <use xlink:href="#DejaVuSans-48"/>
       <use x="63.623047" xlink:href="#DejaVuSans-46"/>
       <use x="95.410156" xlink:href="#DejaVuSans-48"/>
       <use x="159.033203" xlink:href="#DejaVuSans-53"/>
      </g>
     </g>
    </g>
    <g id="ytick_7">
     <g id="line2d_14">
      <g>
       <use style="stroke:#000000;stroke-width:0.8;" x="54" xlink:href="#m38f80ba5d5" y="65.622857"/>
      </g>
     </g>
     <g id="text_15">
      <!-- 0.06 -->
      <g transform="translate(24.734375 69.422076)scale(0.1 -0.1)">
       <use xlink:href="#DejaVuSans-48"/>
       <use x="63.623047" xlink:href="#DejaVuSans-46"/>
       <use x="95.410156" xlink:href="#DejaVuSans-48"/>
       <use x="159.033203" xlink:href="#DejaVuSans-54"/>
      </g>
     </g>
    </g>
    <g id="ytick_8">
     <g id="line2d_15">
      <g>
       <use style="stroke:#000000;stroke-width:0.8;" x="54" xlink:href="#m38f80ba5d5" y="34.56"/>
      </g>
     </g>
     <g id="text_16">
      <!-- 0.07 -->
      <defs>
       <path d="M 8.203125 72.90625 
L 55.078125 72.90625 
L 55.078125 68.703125 
L 28.609375 0 
L 18.3125 0 
L 43.21875 64.59375 
L 8.203125 64.59375 
z
" id="DejaVuSans-55"/>
      </defs>
      <g transform="translate(24.734375 38.359219)scale(0.1 -0.1)">
       <use xlink:href="#DejaVuSans-48"/>
       <use x="63.623047" xlink:href="#DejaVuSans-46"/>
       <use x="95.410156" xlink:href="#DejaVuSans-48"/>
       <use x="159.033203" xlink:href="#DejaVuSans-55"/>
      </g>
     </g>
    </g>
    <g id="text_17">
     <!-- pdf -->
     <defs>
      <path d="M 18.109375 8.203125 
L 18.109375 -20.796875 
L 9.078125 -20.796875 
L 9.078125 54.6875 
L 18.109375 54.6875 
L 18.109375 46.390625 
Q 20.953125 51.265625 25.265625 53.625 
Q 29.59375 56 35.59375 56 
Q 45.5625 56 51.78125 48.09375 
Q 58.015625 40.1875 58.015625 27.296875 
Q 58.015625 14.40625 51.78125 6.484375 
Q 45.5625 -1.421875 35.59375 -1.421875 
Q 29.59375 -1.421875 25.265625 0.953125 
Q 20.953125 3.328125 18.109375 8.203125 
z
M 48.6875 27.296875 
Q 48.6875 37.203125 44.609375 42.84375 
Q 40.53125 48.484375 33.40625 48.484375 
Q 26.265625 48.484375 22.1875 42.84375 
Q 18.109375 37.203125 18.109375 27.296875 
Q 18.109375 17.390625 22.1875 11.75 
Q 26.265625 6.109375 33.40625 6.109375 
Q 40.53125 6.109375 44.609375 11.75 
Q 48.6875 17.390625 48.6875 27.296875 
z
" id="DejaVuSans-112"/>
      <path d="M 45.40625 46.390625 
L 45.40625 75.984375 
L 54.390625 75.984375 
L 54.390625 0 
L 45.40625 0 
L 45.40625 8.203125 
Q 42.578125 3.328125 38.25 0.953125 
Q 33.9375 -1.421875 27.875 -1.421875 
Q 17.96875 -1.421875 11.734375 6.484375 
Q 5.515625 14.40625 5.515625 27.296875 
Q 5.515625 40.1875 11.734375 48.09375 
Q 17.96875 56 27.875 56 
Q 33.9375 56 38.25 53.625 
Q 42.578125 51.265625 45.40625 46.390625 
z
M 14.796875 27.296875 
Q 14.796875 17.390625 18.875 11.75 
Q 22.953125 6.109375 30.078125 6.109375 
Q 37.203125 6.109375 41.296875 11.75 
Q 45.40625 17.390625 45.40625 27.296875 
Q 45.40625 37.203125 41.296875 42.84375 
Q 37.203125 48.484375 30.078125 48.484375 
Q 22.953125 48.484375 18.875 42.84375 
Q 14.796875 37.203125 14.796875 27.296875 
z
" id="DejaVuSans-100"/>
      <path d="M 37.109375 75.984375 
L 37.109375 68.5 
L 28.515625 68.5 
Q 23.6875 68.5 21.796875 66.546875 
Q 19.921875 64.59375 19.921875 59.515625 
L 19.921875 54.6875 
L 34.71875 54.6875 
L 34.71875 47.703125 
L 19.921875 47.703125 
L 19.921875 0 
L 10.890625 0 
L 10.890625 47.703125 
L 2.296875 47.703125 
L 2.296875 54.6875 
L 10.890625 54.6875 
L 10.890625 58.5 
Q 10.890625 67.625 15.140625 71.796875 
Q 19.390625 75.984375 28.609375 75.984375 
z
" id="DejaVuSans-102"/>
     </defs>
     <g transform="translate(18.654688 151.388594)rotate(-90)scale(0.1 -0.1)">
      <use xlink:href="#DejaVuSans-112"/>
      <use x="63.476562" xlink:href="#DejaVuSans-100"/>
      <use x="126.953125" xlink:href="#DejaVuSans-102"/>
     </g>
    </g>
   </g>
   <g id="line2d_16">
    <path clip-path="url(#p9f0daa11ba)" d="M 165.879007 252 
L 165.879007 34.56 
" style="fill:none;stroke:#1f77b4;stroke-linecap:square;stroke-width:1.5;"/>
   </g>
   <g id="line2d_17">
    <path clip-path="url(#p9f0daa11ba)" d="M 69.218182 251.484834 
L 69.218182 250.969667 
L 72.323933 250.969667 
L 72.323933 248.393836 
L 75.429685 248.393836 
L 75.429685 246.848337 
L 78.535436 246.848337 
L 78.535436 242.727007 
L 81.641187 242.727007 
L 81.641187 242.211841 
L 84.746939 242.211841 
L 84.746939 233.96918 
L 87.85269 233.96918 
L 87.85269 228.302351 
L 90.958442 228.302351 
L 90.958442 222.120356 
L 94.064193 222.120356 
L 94.064193 204.089536 
L 97.169944 204.089536 
L 97.169944 204.604703 
L 100.275696 204.604703 
L 100.275696 190.695213 
L 103.381447 190.695213 
L 103.381447 176.785724 
L 106.487199 176.785724 
L 106.487199 164.421733 
L 109.59295 164.421733 
L 109.59295 160.300403 
L 112.698701 160.300403 
L 112.698701 149.997077 
L 115.804453 149.997077 
L 115.804453 125.784262 
L 118.910204 125.784262 
L 118.910204 129.905592 
L 122.015955 129.905592 
L 122.015955 121.662932 
L 125.121707 121.662932 
L 125.121707 105.177611 
L 128.227458 105.177611 
L 128.227458 95.389452 
L 131.33321 95.389452 
L 131.33321 83.540627 
L 134.438961 83.540627 
L 134.438961 85.601292 
L 137.544712 85.601292 
L 137.544712 87.661958 
L 140.650464 87.661958 
L 140.650464 80.44963 
L 143.756215 80.44963 
L 143.756215 87.661958 
L 146.861967 87.661958 
L 146.861967 92.81362 
L 149.967718 92.81362 
L 149.967718 95.904618 
L 153.073469 95.904618 
L 153.073469 74.267634 
L 156.179221 74.267634 
L 156.179221 93.328787 
L 159.284972 93.328787 
L 159.284972 111.359606 
L 162.390724 111.359606 
L 162.390724 96.934951 
L 165.496475 96.934951 
L 165.496475 114.450604 
L 168.602226 114.450604 
L 168.602226 96.934951 
L 171.707978 96.934951 
L 171.707978 115.996103 
L 174.813729 115.996103 
L 174.813729 125.784262 
L 177.919481 125.784262 
L 177.919481 125.269096 
L 181.025232 125.269096 
L 181.025232 125.784262 
L 184.130983 125.784262 
L 184.130983 155.663906 
L 187.236735 155.663906 
L 187.236735 160.815569 
L 190.342486 160.815569 
L 190.342486 158.239738 
L 193.448237 158.239738 
L 193.448237 160.300403 
L 196.553989 160.300403 
L 196.553989 153.603241 
L 199.65974 153.603241 
L 199.65974 177.30089 
L 202.765492 177.30089 
L 202.765492 177.816056 
L 205.871243 177.816056 
L 205.871243 186.058717 
L 208.976994 186.058717 
L 208.976994 195.846876 
L 212.082746 195.846876 
L 212.082746 198.937873 
L 215.188497 198.937873 
L 215.188497 205.635035 
L 218.294249 205.635035 
L 218.294249 209.756365 
L 221.4 209.756365 
L 221.4 203.059204 
L 224.505751 203.059204 
L 224.505751 224.181021 
L 227.611503 224.181021 
L 227.611503 219.029358 
L 230.717254 219.029358 
L 230.717254 217.999026 
L 233.823006 217.999026 
L 233.823006 226.241686 
L 236.928757 226.241686 
L 236.928757 221.090023 
L 240.034508 221.090023 
L 240.034508 231.393349 
L 246.246011 231.393349 
L 246.246011 234.484347 
L 249.351763 234.484347 
L 249.351763 237.575344 
L 252.457514 237.575344 
L 252.457514 238.605677 
L 255.563265 238.605677 
L 255.563265 237.060178 
L 258.669017 237.060178 
L 258.669017 239.120843 
L 261.774768 239.120843 
L 261.774768 245.302838 
L 264.880519 245.302838 
L 264.880519 245.818005 
L 267.986271 245.818005 
L 267.986271 247.363504 
L 271.092022 247.363504 
L 271.092022 243.75734 
L 274.197774 243.75734 
L 274.197774 246.333171 
L 277.303525 246.333171 
L 277.303525 247.87867 
L 280.409276 247.87867 
L 280.409276 248.393836 
L 283.515028 248.393836 
L 283.515028 246.848337 
L 286.620779 246.848337 
L 286.620779 250.969667 
L 289.726531 250.969667 
L 289.726531 247.87867 
L 292.832282 247.87867 
L 292.832282 248.393836 
L 295.938033 248.393836 
L 295.938033 249.939335 
L 299.043785 249.939335 
L 299.043785 250.454501 
L 302.149536 250.454501 
L 302.149536 251.484834 
L 305.255288 251.484834 
L 305.255288 250.969667 
L 311.46679 250.969667 
L 311.46679 249.939335 
L 314.572542 249.939335 
L 314.572542 251.484834 
L 320.784045 251.484834 
L 320.784045 252 
L 323.889796 252 
L 323.889796 251.484834 
L 339.418553 251.484834 
L 339.418553 252 
L 348.735807 252 
L 348.735807 251.484834 
L 354.94731 251.484834 
L 354.94731 252 
L 370.476067 252 
L 370.476067 251.484834 
L 373.581818 251.484834 
L 373.581818 251.484834 
" style="fill:none;stroke:#ff7f0e;stroke-linecap:square;stroke-width:1.5;"/>
   </g>
   <g id="line2d_18">
    <path clip-path="url(#p9f0daa11ba)" d="M 69.218182 252 
L 72.323933 252 
L 72.323933 251.484834 
L 75.429685 251.484834 
L 75.429685 250.969667 
L 81.641187 250.969667 
L 81.641187 247.363504 
L 84.746939 247.363504 
L 84.746939 246.333171 
L 87.85269 246.333171 
L 87.85269 238.605677 
L 90.958442 238.605677 
L 90.958442 233.454014 
L 94.064193 233.454014 
L 94.064193 223.150688 
L 97.169944 223.150688 
L 97.169944 208.210866 
L 100.275696 208.210866 
L 100.275696 189.66488 
L 103.381447 189.66488 
L 103.381447 184.513218 
L 106.487199 184.513218 
L 106.487199 160.300403 
L 109.59295 160.300403 
L 109.59295 141.23925 
L 112.698701 141.23925 
L 112.698701 109.298941 
L 115.804453 109.298941 
L 115.804453 95.389452 
L 118.910204 95.389452 
L 118.910204 96.419784 
L 122.015955 96.419784 
L 122.015955 89.207456 
L 125.121707 89.207456 
L 125.121707 119.0871 
L 128.227458 119.0871 
L 128.227458 102.60178 
L 131.33321 102.60178 
L 131.33321 124.238763 
L 134.438961 124.238763 
L 134.438961 123.208431 
L 137.544712 123.208431 
L 137.544712 122.178098 
L 140.650464 122.178098 
L 140.650464 135.057255 
L 143.756215 135.057255 
L 143.756215 117.026435 
L 146.861967 117.026435 
L 146.861967 120.117433 
L 149.967718 120.117433 
L 149.967718 93.328787 
L 153.073469 93.328787 
L 153.073469 102.086613 
L 156.179221 102.086613 
L 156.179221 85.086126 
L 159.284972 85.086126 
L 159.284972 66.54014 
L 162.390724 66.54014 
L 162.390724 83.540627 
L 165.496475 83.540627 
L 165.496475 85.086126 
L 168.602226 85.086126 
L 168.602226 89.207456 
L 171.707978 89.207456 
L 171.707978 108.268609 
L 174.813729 108.268609 
L 174.813729 116.511269 
L 177.919481 116.511269 
L 177.919481 158.754904 
L 181.025232 158.754904 
L 181.025232 153.603241 
L 184.130983 153.603241 
L 184.130983 166.482398 
L 187.236735 166.482398 
L 187.236735 165.967232 
L 190.342486 165.967232 
L 190.342486 159.785236 
L 193.448237 159.785236 
L 193.448237 174.209892 
L 196.553989 174.209892 
L 196.553989 164.421733 
L 199.65974 164.421733 
L 199.65974 153.088075 
L 202.765492 153.088075 
L 202.765492 152.572909 
L 205.871243 152.572909 
L 205.871243 167.512731 
L 208.976994 167.512731 
L 208.976994 169.058229 
L 212.082746 169.058229 
L 212.082746 175.755391 
L 215.188497 175.755391 
L 215.188497 188.119382 
L 218.294249 188.119382 
L 218.294249 207.6957 
L 221.4 207.6957 
L 221.4 216.453527 
L 224.505751 216.453527 
L 224.505751 217.999026 
L 227.611503 217.999026 
L 227.611503 229.332684 
L 230.717254 229.332684 
L 230.717254 228.302351 
L 233.823006 228.302351 
L 233.823006 222.635522 
L 240.034508 222.635522 
L 240.034508 224.181021 
L 243.14026 224.181021 
L 243.14026 221.60519 
L 246.246011 221.60519 
L 246.246011 225.72652 
L 249.351763 225.72652 
L 249.351763 221.60519 
L 252.457514 221.60519 
L 252.457514 231.908515 
L 255.563265 231.908515 
L 255.563265 231.393349 
L 258.669017 231.393349 
L 258.669017 239.120843 
L 261.774768 239.120843 
L 261.774768 240.151176 
L 264.880519 240.151176 
L 264.880519 243.242173 
L 267.986271 243.242173 
L 267.986271 249.424169 
L 271.092022 249.424169 
L 271.092022 248.393836 
L 274.197774 248.393836 
L 274.197774 244.787672 
L 280.409276 244.787672 
L 280.409276 248.393836 
L 283.515028 248.393836 
L 283.515028 245.818005 
L 286.620779 245.818005 
L 286.620779 247.363504 
L 289.726531 247.363504 
L 289.726531 248.393836 
L 292.832282 248.393836 
L 292.832282 246.333171 
L 295.938033 246.333171 
L 295.938033 249.939335 
L 299.043785 249.939335 
L 299.043785 247.363504 
L 302.149536 247.363504 
L 302.149536 250.969667 
L 305.255288 250.969667 
L 305.255288 251.484834 
L 311.46679 251.484834 
L 311.46679 250.454501 
L 317.678293 250.454501 
L 317.678293 252 
L 320.784045 252 
L 320.784045 251.484834 
L 326.995547 251.484834 
L 326.995547 252 
L 330.101299 252 
L 330.101299 250.969667 
L 333.20705 250.969667 
L 333.20705 252 
L 358.053061 252 
L 358.053061 251.484834 
L 361.158813 251.484834 
L 361.158813 252 
L 373.581818 252 
L 373.581818 252 
" style="fill:none;stroke:#2ca02c;stroke-linecap:square;stroke-width:1.5;"/>
   </g>
   <g id="patch_3">
    <path d="M 54 252 
L 54 34.56 
" style="fill:none;stroke:#000000;stroke-linecap:square;stroke-linejoin:miter;stroke-width:0.8;"/>
   </g>
   <g id="patch_4">
    <path d="M 388.8 252 
L 388.8 34.56 
" style="fill:none;stroke:#000000;stroke-linecap:square;stroke-linejoin:miter;stroke-width:0.8;"/>
   </g>
   <g id="patch_5">
    <path d="M 54 252 
L 388.8 252 
" style="fill:none;stroke:#000000;stroke-linecap:square;stroke-linejoin:miter;stroke-width:0.8;"/>
   </g>
   <g id="patch_6">
    <path d="M 54 34.56 
L 388.8 34.56 
" style="fill:none;stroke:#000000;stroke-linecap:square;stroke-linejoin:miter;stroke-width:0.8;"/>
   </g>
   <g id="text_18">
    <!-- N=10000; n=10; $Y_o$ = 20.6; $\overline{Y} = $ = 20.1; $\overline{Y^*}$ = 20.6 -->
    <defs>
     <path d="M 9.8125 72.90625 
L 23.09375 72.90625 
L 55.421875 11.921875 
L 55.421875 72.90625 
L 64.984375 72.90625 
L 64.984375 0 
L 51.703125 0 
L 19.390625 60.984375 
L 19.390625 0 
L 9.8125 0 
z
" id="DejaVuSans-78"/>
     <path d="M 10.59375 45.40625 
L 73.1875 45.40625 
L 73.1875 37.203125 
L 10.59375 37.203125 
z
M 10.59375 25.484375 
L 73.1875 25.484375 
L 73.1875 17.1875 
L 10.59375 17.1875 
z
" id="DejaVuSans-61"/>
     <path d="M 11.71875 51.703125 
L 22.015625 51.703125 
L 22.015625 39.3125 
L 11.71875 39.3125 
z
M 11.71875 12.40625 
L 22.015625 12.40625 
L 22.015625 4 
L 14.015625 -11.625 
L 7.71875 -11.625 
L 11.71875 4 
z
" id="DejaVuSans-59"/>
     <path d="M 54.890625 33.015625 
L 54.890625 0 
L 45.90625 0 
L 45.90625 32.71875 
Q 45.90625 40.484375 42.875 44.328125 
Q 39.84375 48.1875 33.796875 48.1875 
Q 26.515625 48.1875 22.3125 43.546875 
Q 18.109375 38.921875 18.109375 30.90625 
L 18.109375 0 
L 9.078125 0 
L 9.078125 54.6875 
L 18.109375 54.6875 
L 18.109375 46.1875 
Q 21.34375 51.125 25.703125 53.5625 
Q 30.078125 56 35.796875 56 
Q 45.21875 56 50.046875 50.171875 
Q 54.890625 44.34375 54.890625 33.015625 
z
" id="DejaVuSans-110"/>
    </defs>
    <g transform="translate(68.58 28.56)scale(0.12 -0.12)">
     <use transform="translate(0 0.015625)" xlink:href="#DejaVuSans-78"/>
     <use transform="translate(74.804688 0.015625)" xlink:href="#DejaVuSans-61"/>
     <use transform="translate(158.59375 0.015625)" xlink:href="#DejaVuSans-49"/>
     <use transform="translate(222.216797 0.015625)" xlink:href="#DejaVuSans-48"/>
     <use transform="translate(285.839844 0.015625)" xlink:href="#DejaVuSans-48"/>
     <use transform="translate(349.462891 0.015625)" xlink:href="#DejaVuSans-48"/>
     <use transform="translate(413.085938 0.015625)" xlink:href="#DejaVuSans-48"/>
     <use transform="translate(476.708984 0.015625)" xlink:href="#DejaVuSans-59"/>
     <use transform="translate(510.400391 0.015625)" xlink:href="#DejaVuSans-32"/>
     <use transform="translate(542.1875 0.015625)" xlink:href="#DejaVuSans-110"/>
     <use transform="translate(605.566406 0.015625)" xlink:href="#DejaVuSans-61"/>
     <use transform="translate(689.355469 0.015625)" xlink:href="#DejaVuSans-49"/>
     <use transform="translate(752.978516 0.015625)" xlink:href="#DejaVuSans-48"/>
     <use transform="translate(816.601562 0.015625)" xlink:href="#DejaVuSans-59"/>
     <use transform="translate(850.292969 0.015625)" xlink:href="#DejaVuSans-32"/>
     <use transform="translate(882.080078 0.015625)" xlink:href="#DejaVuSans-Oblique-89"/>
     <use transform="translate(943.164062 -16.390625)scale(0.7)" xlink:href="#DejaVuSans-Oblique-111"/>
     <use transform="translate(988.725586 0.015625)" xlink:href="#DejaVuSans-32"/>
     <use transform="translate(1020.512695 0.015625)" xlink:href="#DejaVuSans-61"/>
     <use transform="translate(1104.301758 0.015625)" xlink:href="#DejaVuSans-32"/>
     <use transform="translate(1136.088867 0.015625)" xlink:href="#DejaVuSans-50"/>
     <use transform="translate(1199.711914 0.015625)" xlink:href="#DejaVuSans-48"/>
     <use transform="translate(1263.334961 0.015625)" xlink:href="#DejaVuSans-46"/>
     <use transform="translate(1295.12207 0.015625)" xlink:href="#DejaVuSans-54"/>
     <use transform="translate(1358.745117 0.015625)" xlink:href="#DejaVuSans-59"/>
     <use transform="translate(1392.436523 0.015625)" xlink:href="#DejaVuSans-32"/>
     <use transform="translate(1424.223633 0.515625)" xlink:href="#DejaVuSans-Oblique-89"/>
     <use transform="translate(1504.790039 0.015625)" xlink:href="#DejaVuSans-61"/>
     <use transform="translate(1608.061523 0.015625)" xlink:href="#DejaVuSans-32"/>
     <use transform="translate(1639.848633 0.015625)" xlink:href="#DejaVuSans-61"/>
     <use transform="translate(1723.637695 0.015625)" xlink:href="#DejaVuSans-32"/>
     <use transform="translate(1755.424805 0.015625)" xlink:href="#DejaVuSans-50"/>
     <use transform="translate(1819.047852 0.015625)" xlink:href="#DejaVuSans-48"/>
     <use transform="translate(1882.670898 0.015625)" xlink:href="#DejaVuSans-46"/>
     <use transform="translate(1914.458008 0.015625)" xlink:href="#DejaVuSans-49"/>
     <use transform="translate(1978.081055 0.015625)" xlink:href="#DejaVuSans-59"/>
     <use transform="translate(2011.772461 0.015625)" xlink:href="#DejaVuSans-32"/>
     <use transform="translate(2043.55957 0.515625)" xlink:href="#DejaVuSans-Oblique-89"/>
     <use transform="translate(2125.298021 38.796875)scale(0.7)" xlink:href="#DejaVuSans-42"/>
     <use transform="translate(2176.670091 0.015625)" xlink:href="#DejaVuSans-32"/>
     <use transform="translate(2208.457201 0.015625)" xlink:href="#DejaVuSans-61"/>
     <use transform="translate(2292.246263 0.015625)" xlink:href="#DejaVuSans-32"/>
     <use transform="translate(2324.033372 0.015625)" xlink:href="#DejaVuSans-50"/>
     <use transform="translate(2387.656419 0.015625)" xlink:href="#DejaVuSans-48"/>
     <use transform="translate(2451.279466 0.015625)" xlink:href="#DejaVuSans-46"/>
     <use transform="translate(2483.066576 0.015625)" xlink:href="#DejaVuSans-54"/>
     <path d="M 1424.223633 85.171875 
L 1424.223633 91.421875 
L 1485.307617 91.421875 
L 1485.307617 85.171875 
L 1424.223633 85.171875 
z
"/>
     <path d="M 2043.55957 102.5 
L 2043.55957 108.75 
L 2176.670091 108.75 
L 2176.670091 102.5 
L 2043.55957 102.5 
z
"/>
    </g>
   </g>
   <g id="legend_1">
    <g id="patch_7">
     <path d="M 196.7 88.138125 
L 381.8 88.138125 
Q 383.8 88.138125 383.8 86.138125 
L 383.8 41.56 
Q 383.8 39.56 381.8 39.56 
L 196.7 39.56 
Q 194.7 39.56 194.7 41.56 
L 194.7 86.138125 
Q 194.7 88.138125 196.7 88.138125 
z
" style="fill:#ffffff;opacity:0.8;stroke:#cccccc;stroke-linejoin:miter;"/>
    </g>
    <g id="line2d_19">
     <path d="M 198.7 47.658437 
L 218.7 47.658437 
" style="fill:none;stroke:#1f77b4;stroke-linecap:square;stroke-width:1.5;"/>
    </g>
    <g id="line2d_20"/>
    <g id="text_19">
     <!-- $Y_o$ ($Y$ from $n$ measurements) -->
     <defs>
      <path d="M 31 75.875 
Q 24.46875 64.65625 21.28125 53.65625 
Q 18.109375 42.671875 18.109375 31.390625 
Q 18.109375 20.125 21.3125 9.0625 
Q 24.515625 -2 31 -13.1875 
L 23.1875 -13.1875 
Q 15.875 -1.703125 12.234375 9.375 
Q 8.59375 20.453125 8.59375 31.390625 
Q 8.59375 42.28125 12.203125 53.3125 
Q 15.828125 64.359375 23.1875 75.875 
z
" id="DejaVuSans-40"/>
      <path d="M 52 44.1875 
Q 55.375 50.25 60.0625 53.125 
Q 64.75 56 71.09375 56 
Q 79.640625 56 84.28125 50.015625 
Q 88.921875 44.046875 88.921875 33.015625 
L 88.921875 0 
L 79.890625 0 
L 79.890625 32.71875 
Q 79.890625 40.578125 77.09375 44.375 
Q 74.3125 48.1875 68.609375 48.1875 
Q 61.625 48.1875 57.5625 43.546875 
Q 53.515625 38.921875 53.515625 30.90625 
L 53.515625 0 
L 44.484375 0 
L 44.484375 32.71875 
Q 44.484375 40.625 41.703125 44.40625 
Q 38.921875 48.1875 33.109375 48.1875 
Q 26.21875 48.1875 22.15625 43.53125 
Q 18.109375 38.875 18.109375 30.90625 
L 18.109375 0 
L 9.078125 0 
L 9.078125 54.6875 
L 18.109375 54.6875 
L 18.109375 46.1875 
Q 21.1875 51.21875 25.484375 53.609375 
Q 29.78125 56 35.6875 56 
Q 41.65625 56 45.828125 52.96875 
Q 50 49.953125 52 44.1875 
z
" id="DejaVuSans-109"/>
      <path d="M 55.71875 33.015625 
L 49.3125 0 
L 40.28125 0 
L 46.6875 32.671875 
Q 47.125 34.96875 47.359375 36.71875 
Q 47.609375 38.484375 47.609375 39.5 
Q 47.609375 43.609375 45.015625 45.890625 
Q 42.4375 48.1875 37.796875 48.1875 
Q 30.5625 48.1875 25.34375 43.375 
Q 20.125 38.578125 18.5 30.328125 
L 12.5 0 
L 3.515625 0 
L 14.109375 54.6875 
L 23.09375 54.6875 
L 21.296875 46.09375 
Q 25.046875 50.828125 30.3125 53.40625 
Q 35.59375 56 41.40625 56 
Q 48.640625 56 52.609375 52.09375 
Q 56.59375 48.1875 56.59375 41.109375 
Q 56.59375 39.359375 56.375 37.359375 
Q 56.15625 35.359375 55.71875 33.015625 
z
" id="DejaVuSans-Oblique-110"/>
      <path d="M 56.203125 29.59375 
L 56.203125 25.203125 
L 14.890625 25.203125 
Q 15.484375 15.921875 20.484375 11.0625 
Q 25.484375 6.203125 34.421875 6.203125 
Q 39.59375 6.203125 44.453125 7.46875 
Q 49.3125 8.734375 54.109375 11.28125 
L 54.109375 2.78125 
Q 49.265625 0.734375 44.1875 -0.34375 
Q 39.109375 -1.421875 33.890625 -1.421875 
Q 20.796875 -1.421875 13.15625 6.1875 
Q 5.515625 13.8125 5.515625 26.8125 
Q 5.515625 40.234375 12.765625 48.109375 
Q 20.015625 56 32.328125 56 
Q 43.359375 56 49.78125 48.890625 
Q 56.203125 41.796875 56.203125 29.59375 
z
M 47.21875 32.234375 
Q 47.125 39.59375 43.09375 43.984375 
Q 39.0625 48.390625 32.421875 48.390625 
Q 24.90625 48.390625 20.390625 44.140625 
Q 15.875 39.890625 15.1875 32.171875 
z
" id="DejaVuSans-101"/>
      <path d="M 34.28125 27.484375 
Q 23.390625 27.484375 19.1875 25 
Q 14.984375 22.515625 14.984375 16.5 
Q 14.984375 11.71875 18.140625 8.90625 
Q 21.296875 6.109375 26.703125 6.109375 
Q 34.1875 6.109375 38.703125 11.40625 
Q 43.21875 16.703125 43.21875 25.484375 
L 43.21875 27.484375 
z
M 52.203125 31.203125 
L 52.203125 0 
L 43.21875 0 
L 43.21875 8.296875 
Q 40.140625 3.328125 35.546875 0.953125 
Q 30.953125 -1.421875 24.3125 -1.421875 
Q 15.921875 -1.421875 10.953125 3.296875 
Q 6 8.015625 6 15.921875 
Q 6 25.140625 12.171875 29.828125 
Q 18.359375 34.515625 30.609375 34.515625 
L 43.21875 34.515625 
L 43.21875 35.40625 
Q 43.21875 41.609375 39.140625 45 
Q 35.0625 48.390625 27.6875 48.390625 
Q 23 48.390625 18.546875 47.265625 
Q 14.109375 46.140625 10.015625 43.890625 
L 10.015625 52.203125 
Q 14.9375 54.109375 19.578125 55.046875 
Q 24.21875 56 28.609375 56 
Q 40.484375 56 46.34375 49.84375 
Q 52.203125 43.703125 52.203125 31.203125 
z
" id="DejaVuSans-97"/>
      <path d="M 44.28125 53.078125 
L 44.28125 44.578125 
Q 40.484375 46.53125 36.375 47.5 
Q 32.28125 48.484375 27.875 48.484375 
Q 21.1875 48.484375 17.84375 46.4375 
Q 14.5 44.390625 14.5 40.28125 
Q 14.5 37.15625 16.890625 35.375 
Q 19.28125 33.59375 26.515625 31.984375 
L 29.59375 31.296875 
Q 39.15625 29.25 43.1875 25.515625 
Q 47.21875 21.78125 47.21875 15.09375 
Q 47.21875 7.46875 41.1875 3.015625 
Q 35.15625 -1.421875 24.609375 -1.421875 
Q 20.21875 -1.421875 15.453125 -0.5625 
Q 10.6875 0.296875 5.421875 2 
L 5.421875 11.28125 
Q 10.40625 8.6875 15.234375 7.390625 
Q 20.0625 6.109375 24.8125 6.109375 
Q 31.15625 6.109375 34.5625 8.28125 
Q 37.984375 10.453125 37.984375 14.40625 
Q 37.984375 18.0625 35.515625 20.015625 
Q 33.0625 21.96875 24.703125 23.78125 
L 21.578125 24.515625 
Q 13.234375 26.265625 9.515625 29.90625 
Q 5.8125 33.546875 5.8125 39.890625 
Q 5.8125 47.609375 11.28125 51.796875 
Q 16.75 56 26.8125 56 
Q 31.78125 56 36.171875 55.265625 
Q 40.578125 54.546875 44.28125 53.078125 
z
" id="DejaVuSans-115"/>
      <path d="M 8.5 21.578125 
L 8.5 54.6875 
L 17.484375 54.6875 
L 17.484375 21.921875 
Q 17.484375 14.15625 20.5 10.265625 
Q 23.53125 6.390625 29.59375 6.390625 
Q 36.859375 6.390625 41.078125 11.03125 
Q 45.3125 15.671875 45.3125 23.6875 
L 45.3125 54.6875 
L 54.296875 54.6875 
L 54.296875 0 
L 45.3125 0 
L 45.3125 8.40625 
Q 42.046875 3.421875 37.71875 1 
Q 33.40625 -1.421875 27.6875 -1.421875 
Q 18.265625 -1.421875 13.375 4.4375 
Q 8.5 10.296875 8.5 21.578125 
z
M 31.109375 56 
z
" id="DejaVuSans-117"/>
      <path d="M 18.3125 70.21875 
L 18.3125 54.6875 
L 36.8125 54.6875 
L 36.8125 47.703125 
L 18.3125 47.703125 
L 18.3125 18.015625 
Q 18.3125 11.328125 20.140625 9.421875 
Q 21.96875 7.515625 27.59375 7.515625 
L 36.8125 7.515625 
L 36.8125 0 
L 27.59375 0 
Q 17.1875 0 13.234375 3.875 
Q 9.28125 7.765625 9.28125 18.015625 
L 9.28125 47.703125 
L 2.6875 47.703125 
L 2.6875 54.6875 
L 9.28125 54.6875 
L 9.28125 70.21875 
z
" id="DejaVuSans-116"/>
      <path d="M 8.015625 75.875 
L 15.828125 75.875 
Q 23.140625 64.359375 26.78125 53.3125 
Q 30.421875 42.28125 30.421875 31.390625 
Q 30.421875 20.453125 26.78125 9.375 
Q 23.140625 -1.703125 15.828125 -13.1875 
L 8.015625 -13.1875 
Q 14.5 -2 17.703125 9.0625 
Q 20.90625 20.125 20.90625 31.390625 
Q 20.90625 42.671875 17.703125 53.65625 
Q 14.5 64.65625 8.015625 75.875 
z
" id="DejaVuSans-41"/>
     </defs>
     <g transform="translate(226.7 51.158437)scale(0.1 -0.1)">
      <use transform="translate(0 0.015625)" xlink:href="#DejaVuSans-Oblique-89"/>
      <use transform="translate(61.083984 -16.390625)scale(0.7)" xlink:href="#DejaVuSans-Oblique-111"/>
      <use transform="translate(106.645508 0.015625)" xlink:href="#DejaVuSans-32"/>
      <use transform="translate(138.432617 0.015625)" xlink:href="#DejaVuSans-40"/>
      <use transform="translate(177.446289 0.015625)" xlink:href="#DejaVuSans-Oblique-89"/>
      <use transform="translate(238.530273 0.015625)" xlink:href="#DejaVuSans-32"/>
      <use transform="translate(270.317383 0.015625)" xlink:href="#DejaVuSans-102"/>
      <use transform="translate(305.522461 0.015625)" xlink:href="#DejaVuSans-114"/>
      <use transform="translate(346.635742 0.015625)" xlink:href="#DejaVuSans-111"/>
      <use transform="translate(407.817383 0.015625)" xlink:href="#DejaVuSans-109"/>
      <use transform="translate(505.229492 0.015625)" xlink:href="#DejaVuSans-32"/>
      <use transform="translate(537.016602 0.015625)" xlink:href="#DejaVuSans-Oblique-110"/>
      <use transform="translate(600.395508 0.015625)" xlink:href="#DejaVuSans-32"/>
      <use transform="translate(632.182617 0.015625)" xlink:href="#DejaVuSans-109"/>
      <use transform="translate(729.594727 0.015625)" xlink:href="#DejaVuSans-101"/>
      <use transform="translate(791.118164 0.015625)" xlink:href="#DejaVuSans-97"/>
      <use transform="translate(852.397461 0.015625)" xlink:href="#DejaVuSans-115"/>
      <use transform="translate(904.49707 0.015625)" xlink:href="#DejaVuSans-117"/>
      <use transform="translate(967.875977 0.015625)" xlink:href="#DejaVuSans-114"/>
      <use transform="translate(1008.989258 0.015625)" xlink:href="#DejaVuSans-101"/>
      <use transform="translate(1070.512695 0.015625)" xlink:href="#DejaVuSans-109"/>
      <use transform="translate(1167.924805 0.015625)" xlink:href="#DejaVuSans-101"/>
      <use transform="translate(1229.448242 0.015625)" xlink:href="#DejaVuSans-110"/>
      <use transform="translate(1292.827148 0.015625)" xlink:href="#DejaVuSans-116"/>
      <use transform="translate(1332.036133 0.015625)" xlink:href="#DejaVuSans-115"/>
      <use transform="translate(1384.135742 0.015625)" xlink:href="#DejaVuSans-41"/>
     </g>
    </g>
    <g id="line2d_21">
     <path d="M 198.7 62.338125 
L 218.7 62.338125 
" style="fill:none;stroke:#ff7f0e;stroke-linecap:square;stroke-width:1.5;"/>
    </g>
    <g id="line2d_22"/>
    <g id="text_20">
     <!-- $Y$ (parametric bootstrap) -->
     <defs>
      <path d="M 9.421875 54.6875 
L 18.40625 54.6875 
L 18.40625 0 
L 9.421875 0 
z
M 9.421875 75.984375 
L 18.40625 75.984375 
L 18.40625 64.59375 
L 9.421875 64.59375 
z
" id="DejaVuSans-105"/>
      <path d="M 48.78125 52.59375 
L 48.78125 44.1875 
Q 44.96875 46.296875 41.140625 47.34375 
Q 37.3125 48.390625 33.40625 48.390625 
Q 24.65625 48.390625 19.8125 42.84375 
Q 14.984375 37.3125 14.984375 27.296875 
Q 14.984375 17.28125 19.8125 11.734375 
Q 24.65625 6.203125 33.40625 6.203125 
Q 37.3125 6.203125 41.140625 7.25 
Q 44.96875 8.296875 48.78125 10.40625 
L 48.78125 2.09375 
Q 45.015625 0.34375 40.984375 -0.53125 
Q 36.96875 -1.421875 32.421875 -1.421875 
Q 20.0625 -1.421875 12.78125 6.34375 
Q 5.515625 14.109375 5.515625 27.296875 
Q 5.515625 40.671875 12.859375 48.328125 
Q 20.21875 56 33.015625 56 
Q 37.15625 56 41.109375 55.140625 
Q 45.0625 54.296875 48.78125 52.59375 
z
" id="DejaVuSans-99"/>
      <path d="M 48.6875 27.296875 
Q 48.6875 37.203125 44.609375 42.84375 
Q 40.53125 48.484375 33.40625 48.484375 
Q 26.265625 48.484375 22.1875 42.84375 
Q 18.109375 37.203125 18.109375 27.296875 
Q 18.109375 17.390625 22.1875 11.75 
Q 26.265625 6.109375 33.40625 6.109375 
Q 40.53125 6.109375 44.609375 11.75 
Q 48.6875 17.390625 48.6875 27.296875 
z
M 18.109375 46.390625 
Q 20.953125 51.265625 25.265625 53.625 
Q 29.59375 56 35.59375 56 
Q 45.5625 56 51.78125 48.09375 
Q 58.015625 40.1875 58.015625 27.296875 
Q 58.015625 14.40625 51.78125 6.484375 
Q 45.5625 -1.421875 35.59375 -1.421875 
Q 29.59375 -1.421875 25.265625 0.953125 
Q 20.953125 3.328125 18.109375 8.203125 
L 18.109375 0 
L 9.078125 0 
L 9.078125 75.984375 
L 18.109375 75.984375 
z
" id="DejaVuSans-98"/>
     </defs>
     <g transform="translate(226.7 65.838125)scale(0.1 -0.1)">
      <use transform="translate(0 0.015625)" xlink:href="#DejaVuSans-Oblique-89"/>
      <use transform="translate(61.083984 0.015625)" xlink:href="#DejaVuSans-32"/>
      <use transform="translate(92.871094 0.015625)" xlink:href="#DejaVuSans-40"/>
      <use transform="translate(131.884766 0.015625)" xlink:href="#DejaVuSans-112"/>
      <use transform="translate(195.361328 0.015625)" xlink:href="#DejaVuSans-97"/>
      <use transform="translate(256.640625 0.015625)" xlink:href="#DejaVuSans-114"/>
      <use transform="translate(297.753906 0.015625)" xlink:href="#DejaVuSans-97"/>
      <use transform="translate(359.033203 0.015625)" xlink:href="#DejaVuSans-109"/>
      <use transform="translate(456.445312 0.015625)" xlink:href="#DejaVuSans-101"/>
      <use transform="translate(517.96875 0.015625)" xlink:href="#DejaVuSans-116"/>
      <use transform="translate(557.177734 0.015625)" xlink:href="#DejaVuSans-114"/>
      <use transform="translate(598.291016 0.015625)" xlink:href="#DejaVuSans-105"/>
      <use transform="translate(626.074219 0.015625)" xlink:href="#DejaVuSans-99"/>
      <use transform="translate(681.054688 0.015625)" xlink:href="#DejaVuSans-32"/>
      <use transform="translate(712.841797 0.015625)" xlink:href="#DejaVuSans-98"/>
      <use transform="translate(776.318359 0.015625)" xlink:href="#DejaVuSans-111"/>
      <use transform="translate(837.5 0.015625)" xlink:href="#DejaVuSans-111"/>
      <use transform="translate(898.681641 0.015625)" xlink:href="#DejaVuSans-116"/>
      <use transform="translate(937.890625 0.015625)" xlink:href="#DejaVuSans-115"/>
      <use transform="translate(989.990234 0.015625)" xlink:href="#DejaVuSans-116"/>
      <use transform="translate(1029.199219 0.015625)" xlink:href="#DejaVuSans-114"/>
      <use transform="translate(1070.3125 0.015625)" xlink:href="#DejaVuSans-97"/>
      <use transform="translate(1131.591797 0.015625)" xlink:href="#DejaVuSans-112"/>
      <use transform="translate(1195.068359 0.015625)" xlink:href="#DejaVuSans-41"/>
     </g>
    </g>
    <g id="line2d_23">
     <path d="M 198.7 78.538125 
L 218.7 78.538125 
" style="fill:none;stroke:#2ca02c;stroke-linecap:square;stroke-width:1.5;"/>
    </g>
    <g id="line2d_24"/>
    <g id="text_21">
     <!-- $Y^*$ (non-parametric bootstrap) -->
     <defs>
      <path d="M 4.890625 31.390625 
L 31.203125 31.390625 
L 31.203125 23.390625 
L 4.890625 23.390625 
z
" id="DejaVuSans-45"/>
     </defs>
     <g transform="translate(226.7 82.038125)scale(0.1 -0.1)">
      <use transform="translate(0 0.765625)" xlink:href="#DejaVuSans-Oblique-89"/>
      <use transform="translate(81.738451 39.046875)scale(0.7)" xlink:href="#DejaVuSans-42"/>
      <use transform="translate(133.110521 0.765625)" xlink:href="#DejaVuSans-32"/>
      <use transform="translate(164.89763 0.765625)" xlink:href="#DejaVuSans-40"/>
      <use transform="translate(203.911302 0.765625)" xlink:href="#DejaVuSans-110"/>
      <use transform="translate(267.290208 0.765625)" xlink:href="#DejaVuSans-111"/>
      <use transform="translate(328.471849 0.765625)" xlink:href="#DejaVuSans-110"/>
      <use transform="translate(391.850755 0.765625)" xlink:href="#DejaVuSans-45"/>
      <use transform="translate(427.93474 0.765625)" xlink:href="#DejaVuSans-112"/>
      <use transform="translate(491.411302 0.765625)" xlink:href="#DejaVuSans-97"/>
      <use transform="translate(552.690599 0.765625)" xlink:href="#DejaVuSans-114"/>
      <use transform="translate(593.80388 0.765625)" xlink:href="#DejaVuSans-97"/>
      <use transform="translate(655.083177 0.765625)" xlink:href="#DejaVuSans-109"/>
      <use transform="translate(752.495286 0.765625)" xlink:href="#DejaVuSans-101"/>
      <use transform="translate(814.018724 0.765625)" xlink:href="#DejaVuSans-116"/>
      <use transform="translate(853.227708 0.765625)" xlink:href="#DejaVuSans-114"/>
      <use transform="translate(894.34099 0.765625)" xlink:href="#DejaVuSans-105"/>
      <use transform="translate(922.124193 0.765625)" xlink:href="#DejaVuSans-99"/>
      <use transform="translate(977.104661 0.765625)" xlink:href="#DejaVuSans-32"/>
      <use transform="translate(1008.891771 0.765625)" xlink:href="#DejaVuSans-98"/>
      <use transform="translate(1072.368333 0.765625)" xlink:href="#DejaVuSans-111"/>
      <use transform="translate(1133.549974 0.765625)" xlink:href="#DejaVuSans-111"/>
      <use transform="translate(1194.731615 0.765625)" xlink:href="#DejaVuSans-116"/>
      <use transform="translate(1233.940599 0.765625)" xlink:href="#DejaVuSans-115"/>
      <use transform="translate(1286.040208 0.765625)" xlink:href="#DejaVuSans-116"/>
      <use transform="translate(1325.249193 0.765625)" xlink:href="#DejaVuSans-114"/>
      <use transform="translate(1366.362474 0.765625)" xlink:href="#DejaVuSans-97"/>
      <use transform="translate(1427.641771 0.765625)" xlink:href="#DejaVuSans-112"/>
      <use transform="translate(1491.118333 0.765625)" xlink:href="#DejaVuSans-41"/>
     </g>
    </g>
   </g>
  </g>
 </g>
 <defs>
  <clipPath id="p9f0daa11ba">
   <rect height="217.44" width="334.8" x="54" y="34.56"/>
  </clipPath>
 </defs>
</svg>
