<?xml version="1.0" encoding="utf-8" standalone="no"?>
<!DOCTYPE svg PUBLIC "-//W3C//DTD SVG 1.1//EN"
  "http://www.w3.org/Graphics/SVG/1.1/DTD/svg11.dtd">
<!-- Created with matplotlib (https://matplotlib.org/) -->
<svg height="288pt" version="1.1" viewBox="0 0 432 288" width="432pt" xmlns="http://www.w3.org/2000/svg" xmlns:xlink="http://www.w3.org/1999/xlink">
 <defs>
  <style type="text/css">
*{stroke-linecap:butt;stroke-linejoin:round;}
  </style>
 </defs>
 <g id="figure_1">
  <g id="patch_1">
   <path d="M 0 288 
L 432 288 
L 432 0 
L 0 0 
z
" style="fill:none;"/>
  </g>
  <g id="axes_1">
   <g id="patch_2">
    <path d="M 54 252 
L 388.8 252 
L 388.8 34.56 
L 54 34.56 
z
" style="fill:none;"/>
   </g>
   <g id="PolyCollection_1">
    <defs>
     <path d="M 54 -36 
L 54 -36 
L 59.772414 -36 
L 59.772414 -36 
L 71.317241 -36 
L 71.317241 -36.10872 
L 82.862069 -36.10872 
L 82.862069 -36 
L 94.406897 -36 
L 94.406897 -37.52208 
L 105.951724 -37.52208 
L 105.951724 -42.5232 
L 117.496552 -42.5232 
L 117.496552 -54.4824 
L 129.041379 -54.4824 
L 129.041379 -85.57632 
L 140.586207 -85.57632 
L 140.586207 -126.34632 
L 152.131034 -126.34632 
L 152.131034 -172.87848 
L 163.675862 -172.87848 
L 163.675862 -220.17168 
L 175.22069 -220.17168 
L 175.22069 -217.23624 
L 186.765517 -217.23624 
L 186.765517 -199.73232 
L 198.310345 -199.73232 
L 198.310345 -148.63392 
L 209.855172 -148.63392 
L 209.855172 -111.34296 
L 221.4 -111.34296 
L 221.4 -77.96592 
L 232.944828 -77.96592 
L 232.944828 -51.87312 
L 244.489655 -51.87312 
L 244.489655 -42.95808 
L 256.034483 -42.95808 
L 256.034483 -37.52208 
L 267.57931 -37.52208 
L 267.57931 -36.32616 
L 279.124138 -36.32616 
L 279.124138 -36 
L 290.668966 -36 
L 290.668966 -36 
L 302.213793 -36 
L 302.213793 -36 
L 313.758621 -36 
L 313.758621 -36 
L 325.303448 -36 
L 325.303448 -36 
L 336.848276 -36 
L 336.848276 -36 
L 348.393103 -36 
L 348.393103 -36 
L 359.937931 -36 
L 359.937931 -36 
L 371.482759 -36 
L 371.482759 -36 
L 377.255172 -36 
L 377.255172 -36 
L 377.255172 -36 
L 371.482759 -36 
L 371.482759 -36 
L 359.937931 -36 
L 359.937931 -36 
L 348.393103 -36 
L 348.393103 -36 
L 336.848276 -36 
L 336.848276 -36 
L 325.303448 -36 
L 325.303448 -36 
L 313.758621 -36 
L 313.758621 -36 
L 302.213793 -36 
L 302.213793 -36 
L 290.668966 -36 
L 290.668966 -36 
L 279.124138 -36 
L 279.124138 -36 
L 267.57931 -36 
L 267.57931 -36 
L 256.034483 -36 
L 256.034483 -36 
L 244.489655 -36 
L 244.489655 -36 
L 232.944828 -36 
L 232.944828 -36 
L 221.4 -36 
L 221.4 -36 
L 209.855172 -36 
L 209.855172 -36 
L 198.310345 -36 
L 198.310345 -36 
L 186.765517 -36 
L 186.765517 -36 
L 175.22069 -36 
L 175.22069 -36 
L 163.675862 -36 
L 163.675862 -36 
L 152.131034 -36 
L 152.131034 -36 
L 140.586207 -36 
L 140.586207 -36 
L 129.041379 -36 
L 129.041379 -36 
L 117.496552 -36 
L 117.496552 -36 
L 105.951724 -36 
L 105.951724 -36 
L 94.406897 -36 
L 94.406897 -36 
L 82.862069 -36 
L 82.862069 -36 
L 71.317241 -36 
L 71.317241 -36 
L 59.772414 -36 
L 59.772414 -36 
L 54 -36 
z
" id="m3508ae6fab" style="stroke:#000000;stroke-opacity:0.5;"/>
    </defs>
    <g clip-path="url(#pba935c3699)">
     <use style="fill-opacity:0.5;stroke:#000000;stroke-opacity:0.5;" x="0" xlink:href="#m3508ae6fab" y="288"/>
    </g>
   </g>
   <g id="matplotlib.axis_1">
    <g id="xtick_1">
     <g id="line2d_1">
      <path clip-path="url(#pba935c3699)" d="M 54 252 
L 54 34.56 
" style="fill:none;stroke:#b0b0b0;stroke-linecap:square;stroke-width:0.8;"/>
     </g>
     <g id="line2d_2">
      <defs>
       <path d="M 0 0 
L 0 3.5 
" id="ma988b87e70" style="stroke:#000000;stroke-width:0.8;"/>
      </defs>
      <g>
       <use style="stroke:#000000;stroke-width:0.8;" x="54" xlink:href="#ma988b87e70" y="252"/>
      </g>
     </g>
     <g id="text_1">
      <!-- $\mathdefault{-1.5}$ -->
      <defs>
       <path d="M 65.90625 23 
C 67.59375 23 69.40625 23 69.40625 25 
C 69.40625 27 67.59375 27 65.90625 27 
L 11.796875 27 
C 10.09375 27 8.296875 27 8.296875 25 
C 8.296875 23 10.09375 23 11.796875 23 
z
" id="CMSY10-0"/>
       <path d="M 29.09375 67.796875 
L 11.09375 58.703125 
L 11.09375 57.296875 
C 12.296875 57.796875 13.40625 58.203125 13.796875 58.40625 
C 15.59375 59.109375 17.296875 59.5 18.296875 59.5 
C 20.40625 59.5 21.296875 57.984375 21.296875 54.765625 
L 21.296875 9.25 
C 21.296875 5.921875 20.5 3.625 18.90625 2.703125 
C 17.40625 1.8125 16 1.5 11.796875 1.5 
L 11.796875 0 
L 39.40625 0 
L 39.40625 1.5 
C 31.5 1.5 29.90625 2.5 29.90625 7.34375 
L 29.90625 67.609375 
z
" id="Nimbus_Roman_No9_L_Regular-49"/>
       <path d="M 19.203125 5.28125 
C 19.203125 8.15625 16.796875 10.546875 13.90625 10.546875 
C 11 10.546875 8.59375 8.15625 8.59375 5.28125 
C 8.59375 2.390625 11 0 13.90625 0 
C 16.796875 0 19.203125 2.390625 19.203125 5.28125 
z
" id="CMMI10-58"/>
       <path d="M 18.09375 59 
L 37.703125 59 
C 39.296875 59 39.703125 59.203125 40 59.90625 
L 43.796875 68.796875 
L 42.90625 69.5 
C 41.40625 67.40625 40.40625 66.90625 38.296875 66.90625 
L 17.40625 66.90625 
L 6.5 43.109375 
C 6.40625 42.90625 6.40625 42.8125 6.40625 42.609375 
C 6.40625 42.109375 6.796875 41.8125 7.59375 41.8125 
C 10.796875 41.8125 14.796875 41.109375 18.90625 39.796875 
C 30.40625 36.078125 35.703125 29.84375 35.703125 19.90625 
C 35.703125 10.25 29.59375 2.703125 21.796875 2.703125 
C 19.796875 2.703125 18.09375 3.40625 15.09375 5.625 
C 11.90625 7.9375 9.59375 8.9375 7.5 8.9375 
C 4.59375 8.9375 3.203125 7.734375 3.203125 5.21875 
C 3.203125 1.40625 7.90625 -1 15.40625 -1 
C 23.796875 -1 31 1.71875 36 6.84375 
C 40.59375 11.375 42.703125 17.09375 42.703125 24.734375 
C 42.703125 31.96875 40.796875 36.59375 35.796875 41.609375 
C 31.40625 46.046875 25.703125 48.34375 13.90625 50.453125 
z
" id="Nimbus_Roman_No9_L_Regular-53"/>
      </defs>
      <g transform="translate(41.722174 267.105484)scale(0.12 -0.12)">
       <use transform="scale(0.996264)" xlink:href="#CMSY10-0"/>
       <use transform="translate(77.408707 0)scale(0.996264)" xlink:href="#Nimbus_Roman_No9_L_Regular-49"/>
       <use transform="translate(127.221908 0)scale(0.996264)" xlink:href="#CMMI10-58"/>
       <use transform="translate(154.817414 0)scale(0.996264)" xlink:href="#Nimbus_Roman_No9_L_Regular-53"/>
      </g>
     </g>
    </g>
    <g id="xtick_2">
     <g id="line2d_3">
      <path clip-path="url(#pba935c3699)" d="M 109.8 252 
L 109.8 34.56 
" style="fill:none;stroke:#b0b0b0;stroke-linecap:square;stroke-width:0.8;"/>
     </g>
     <g id="line2d_4">
      <g>
       <use style="stroke:#000000;stroke-width:0.8;" x="109.8" xlink:href="#ma988b87e70" y="252"/>
      </g>
     </g>
     <g id="text_2">
      <!-- $\mathdefault{-1.0}$ -->
      <defs>
       <path d="M 25.40625 68 
C 19.90625 68 15.703125 66.3125 12 62.8125 
C 6.203125 57.203125 2.40625 45.703125 2.40625 34 
C 2.40625 23.109375 5.703125 11.40625 10.40625 5.8125 
C 14.09375 1.40625 19.203125 -1 25 -1 
C 30.09375 -1 34.40625 0.703125 38 4.203125 
C 43.796875 9.703125 47.59375 21.3125 47.59375 33.40625 
C 47.59375 53.90625 38.5 68 25.40625 68 
z
M 25.09375 65.40625 
C 33.5 65.40625 38 54.109375 38 33.203125 
C 38 12.3125 33.59375 1.609375 25 1.609375 
C 16.40625 1.609375 12 12.3125 12 33.109375 
C 12 54.3125 16.5 65.40625 25.09375 65.40625 
z
" id="Nimbus_Roman_No9_L_Regular-48"/>
      </defs>
      <g transform="translate(97.522174 267.105484)scale(0.12 -0.12)">
       <use transform="scale(0.996264)" xlink:href="#CMSY10-0"/>
       <use transform="translate(77.408707 0)scale(0.996264)" xlink:href="#Nimbus_Roman_No9_L_Regular-49"/>
       <use transform="translate(127.221908 0)scale(0.996264)" xlink:href="#CMMI10-58"/>
       <use transform="translate(154.817414 0)scale(0.996264)" xlink:href="#Nimbus_Roman_No9_L_Regular-48"/>
      </g>
     </g>
    </g>
    <g id="xtick_3">
     <g id="line2d_5">
      <path clip-path="url(#pba935c3699)" d="M 165.6 252 
L 165.6 34.56 
" style="fill:none;stroke:#b0b0b0;stroke-linecap:square;stroke-width:0.8;"/>
     </g>
     <g id="line2d_6">
      <g>
       <use style="stroke:#000000;stroke-width:0.8;" x="165.6" xlink:href="#ma988b87e70" y="252"/>
      </g>
     </g>
     <g id="text_3">
      <!-- $\mathdefault{-0.5}$ -->
      <g transform="translate(153.322174 267.105484)scale(0.12 -0.12)">
       <use transform="scale(0.996264)" xlink:href="#CMSY10-0"/>
       <use transform="translate(77.408707 0)scale(0.996264)" xlink:href="#Nimbus_Roman_No9_L_Regular-48"/>
       <use transform="translate(127.221908 0)scale(0.996264)" xlink:href="#CMMI10-58"/>
       <use transform="translate(154.817414 0)scale(0.996264)" xlink:href="#Nimbus_Roman_No9_L_Regular-53"/>
      </g>
     </g>
    </g>
    <g id="xtick_4">
     <g id="line2d_7">
      <path clip-path="url(#pba935c3699)" d="M 221.4 252 
L 221.4 34.56 
" style="fill:none;stroke:#b0b0b0;stroke-linecap:square;stroke-width:0.8;"/>
     </g>
     <g id="line2d_8">
      <g>
       <use style="stroke:#000000;stroke-width:0.8;" x="221.4" xlink:href="#ma988b87e70" y="252"/>
      </g>
     </g>
     <g id="text_4">
      <!-- $\mathdefault{0.0}$ -->
      <g transform="translate(213.766691 267.105484)scale(0.12 -0.12)">
       <use transform="scale(0.996264)" xlink:href="#Nimbus_Roman_No9_L_Regular-48"/>
       <use transform="translate(49.8132 0)scale(0.996264)" xlink:href="#CMMI10-58"/>
       <use transform="translate(77.408707 0)scale(0.996264)" xlink:href="#Nimbus_Roman_No9_L_Regular-48"/>
      </g>
     </g>
    </g>
    <g id="xtick_5">
     <g id="line2d_9">
      <path clip-path="url(#pba935c3699)" d="M 277.2 252 
L 277.2 34.56 
" style="fill:none;stroke:#b0b0b0;stroke-linecap:square;stroke-width:0.8;"/>
     </g>
     <g id="line2d_10">
      <g>
       <use style="stroke:#000000;stroke-width:0.8;" x="277.2" xlink:href="#ma988b87e70" y="252"/>
      </g>
     </g>
     <g id="text_5">
      <!-- $\mathdefault{0.5}$ -->
      <g transform="translate(269.566691 267.105484)scale(0.12 -0.12)">
       <use transform="scale(0.996264)" xlink:href="#Nimbus_Roman_No9_L_Regular-48"/>
       <use transform="translate(49.8132 0)scale(0.996264)" xlink:href="#CMMI10-58"/>
       <use transform="translate(77.408707 0)scale(0.996264)" xlink:href="#Nimbus_Roman_No9_L_Regular-53"/>
      </g>
     </g>
    </g>
    <g id="xtick_6">
     <g id="line2d_11">
      <path clip-path="url(#pba935c3699)" d="M 333 252 
L 333 34.56 
" style="fill:none;stroke:#b0b0b0;stroke-linecap:square;stroke-width:0.8;"/>
     </g>
     <g id="line2d_12">
      <g>
       <use style="stroke:#000000;stroke-width:0.8;" x="333" xlink:href="#ma988b87e70" y="252"/>
      </g>
     </g>
     <g id="text_6">
      <!-- $\mathdefault{1.0}$ -->
      <g transform="translate(325.366691 267.105484)scale(0.12 -0.12)">
       <use transform="scale(0.996264)" xlink:href="#Nimbus_Roman_No9_L_Regular-49"/>
       <use transform="translate(49.8132 0)scale(0.996264)" xlink:href="#CMMI10-58"/>
       <use transform="translate(77.408707 0)scale(0.996264)" xlink:href="#Nimbus_Roman_No9_L_Regular-48"/>
      </g>
     </g>
    </g>
    <g id="xtick_7">
     <g id="line2d_13">
      <path clip-path="url(#pba935c3699)" d="M 388.8 252 
L 388.8 34.56 
" style="fill:none;stroke:#b0b0b0;stroke-linecap:square;stroke-width:0.8;"/>
     </g>
     <g id="line2d_14">
      <g>
       <use style="stroke:#000000;stroke-width:0.8;" x="388.8" xlink:href="#ma988b87e70" y="252"/>
      </g>
     </g>
     <g id="text_7">
      <!-- $\mathdefault{1.5}$ -->
      <g transform="translate(381.166691 267.105484)scale(0.12 -0.12)">
       <use transform="scale(0.996264)" xlink:href="#Nimbus_Roman_No9_L_Regular-49"/>
       <use transform="translate(49.8132 0)scale(0.996264)" xlink:href="#CMMI10-58"/>
       <use transform="translate(77.408707 0)scale(0.996264)" xlink:href="#Nimbus_Roman_No9_L_Regular-53"/>
      </g>
     </g>
    </g>
    <g id="text_8">
     <!-- $\overline{X}^*$ -->
     <defs>
      <path d="M 65.5 65 
L 44.703125 65 
L 44.703125 63.40625 
C 49.59375 62.8125 50.796875 62.109375 50.796875 59.828125 
C 50.796875 58.53125 50.203125 57.34375 48.796875 55.734375 
L 34.296875 39.125 
L 28.40625 53.765625 
C 27.296875 56.34375 26.90625 58.03125 26.90625 59.328125 
C 26.90625 61.8125 28.5 62.703125 34 63.40625 
L 34 65 
L 7.59375 65 
L 7.59375 63.40625 
C 13.40625 62.90625 14.90625 61.90625 16.796875 57.34375 
L 27.40625 31.15625 
C 23.703125 26.984375 20.40625 23.09375 19.09375 21.5 
C 5.203125 5.171875 2.40625 2.6875 -2.90625 1.59375 
L -2.90625 0 
L 18.5 0 
L 18.5 1.59375 
C 13.703125 1.59375 12 2.5 12 4.96875 
C 12 6.46875 12.796875 8.171875 14.09375 9.65625 
L 29.203125 26.78125 
L 35.90625 10.359375 
C 36.59375 8.5625 37 6.96875 37 5.46875 
C 37 2.59375 36 2.09375 29.40625 1.59375 
L 29.40625 0 
L 56.703125 0 
L 56.703125 1.59375 
C 49.703125 2.390625 48.796875 3 46.296875 8.96875 
L 36.09375 34.640625 
L 53 53.953125 
C 58.203125 59.734375 61.203125 62.015625 65.5 63.40625 
z
" id="Nimbus_Roman_No9_L_Regular_Italic-88"/>
      <path d="M 27.5 42.484375 
C 27.59375 43.875 27.59375 46.28125 25 46.28125 
C 23.40625 46.28125 22.09375 44.984375 22.40625 43.671875 
L 22.40625 42.375 
L 23.796875 26.875 
L 11 36.1875 
C 10.09375 36.6875 9.90625 36.875 9.203125 36.875 
C 7.796875 36.875 6.5 35.484375 6.5 34.078125 
C 6.5 32.484375 7.5 32.078125 8.5 31.578125 
L 22.703125 24.78125 
L 8.90625 18.09375 
C 7.296875 17.296875 6.5 16.890625 6.5 15.390625 
C 6.5 13.890625 7.796875 12.59375 9.203125 12.59375 
C 9.90625 12.59375 10.09375 12.59375 12.59375 14.5 
L 23.796875 22.59375 
L 22.296875 5.796875 
C 22.296875 3.6875 24.09375 3.1875 24.90625 3.1875 
C 26.09375 3.1875 27.59375 3.875 27.59375 5.796875 
L 26.09375 22.59375 
L 38.90625 13.296875 
C 39.796875 12.796875 40 12.59375 40.703125 12.59375 
C 42.09375 12.59375 43.40625 14 43.40625 15.390625 
C 43.40625 16.890625 42.5 17.390625 41.296875 18 
C 35.296875 20.984375 35.09375 20.984375 27.203125 24.6875 
L 41 31.375 
C 42.59375 32.1875 43.40625 32.578125 43.40625 34.078125 
C 43.40625 35.578125 42.09375 36.875 40.703125 36.875 
C 40 36.875 39.796875 36.875 37.296875 34.984375 
L 26.09375 26.875 
z
" id="CMSY10-3"/>
     </defs>
     <g transform="translate(214.944251 281.965561)scale(0.12 -0.12)">
      <use transform="scale(0.996264)" xlink:href="#Nimbus_Roman_No9_L_Regular_Italic-88"/>
      <use transform="translate(70.235929 56.119964)scale(0.737241)" xlink:href="#CMSY10-3"/>
      <path d="M 0 76.609169 
L 70.235929 76.609169 
L 70.235929 80.593268 
L 0 80.593268 
L 0 76.609169 
z
"/>
     </g>
    </g>
   </g>
   <g id="matplotlib.axis_2">
    <g id="ytick_1">
     <g id="line2d_15">
      <path clip-path="url(#pba935c3699)" d="M 54 252 
L 388.8 252 
" style="fill:none;stroke:#b0b0b0;stroke-linecap:square;stroke-width:0.8;"/>
     </g>
     <g id="line2d_16">
      <defs>
       <path d="M 0 0 
L -3.5 0 
" id="mfc4295a456" style="stroke:#000000;stroke-width:0.8;"/>
      </defs>
      <g>
       <use style="stroke:#000000;stroke-width:0.8;" x="54" xlink:href="#mfc4295a456" y="252"/>
      </g>
     </g>
     <g id="text_9">
      <!-- $\mathdefault{0.000}$ -->
      <g transform="translate(19.778214 256.052742)scale(0.12 -0.12)">
       <use transform="scale(0.996264)" xlink:href="#Nimbus_Roman_No9_L_Regular-48"/>
       <use transform="translate(49.8132 0)scale(0.996264)" xlink:href="#CMMI10-58"/>
       <use transform="translate(77.408707 0)scale(0.996264)" xlink:href="#Nimbus_Roman_No9_L_Regular-48"/>
       <use transform="translate(127.221908 0)scale(0.996264)" xlink:href="#Nimbus_Roman_No9_L_Regular-48"/>
       <use transform="translate(177.035108 0)scale(0.996264)" xlink:href="#Nimbus_Roman_No9_L_Regular-48"/>
      </g>
     </g>
    </g>
    <g id="ytick_2">
     <g id="line2d_17">
      <path clip-path="url(#pba935c3699)" d="M 54 224.82 
L 388.8 224.82 
" style="fill:none;stroke:#b0b0b0;stroke-linecap:square;stroke-width:0.8;"/>
     </g>
     <g id="line2d_18">
      <g>
       <use style="stroke:#000000;stroke-width:0.8;" x="54" xlink:href="#mfc4295a456" y="224.82"/>
      </g>
     </g>
     <g id="text_10">
      <!-- $\mathdefault{0.025}$ -->
      <defs>
       <path d="M 47.5 13.671875 
L 46.203125 14.171875 
C 42.5 8.5 41.203125 7.59375 36.703125 7.59375 
L 12.796875 7.59375 
L 29.59375 25.140625 
C 38.5 34.40625 42.40625 41.984375 42.40625 49.765625 
C 42.40625 59.734375 34.296875 67.390625 23.90625 67.390625 
C 18.40625 67.390625 13.203125 65.203125 9.5 61.21875 
C 6.296875 57.8125 4.796875 54.625 3.09375 47.546875 
L 5.203125 47.046875 
C 9.203125 56.8125 12.796875 60 19.703125 60 
C 28.09375 60 33.796875 54.3125 33.796875 45.9375 
C 33.796875 38.171875 29.203125 28.90625 20.796875 20.03125 
L 3 1.203125 
L 3 0 
L 42 0 
z
" id="Nimbus_Roman_No9_L_Regular-50"/>
      </defs>
      <g transform="translate(19.778214 228.872742)scale(0.12 -0.12)">
       <use transform="scale(0.996264)" xlink:href="#Nimbus_Roman_No9_L_Regular-48"/>
       <use transform="translate(49.8132 0)scale(0.996264)" xlink:href="#CMMI10-58"/>
       <use transform="translate(77.408707 0)scale(0.996264)" xlink:href="#Nimbus_Roman_No9_L_Regular-48"/>
       <use transform="translate(127.221908 0)scale(0.996264)" xlink:href="#Nimbus_Roman_No9_L_Regular-50"/>
       <use transform="translate(177.035108 0)scale(0.996264)" xlink:href="#Nimbus_Roman_No9_L_Regular-53"/>
      </g>
     </g>
    </g>
    <g id="ytick_3">
     <g id="line2d_19">
      <path clip-path="url(#pba935c3699)" d="M 54 197.64 
L 388.8 197.64 
" style="fill:none;stroke:#b0b0b0;stroke-linecap:square;stroke-width:0.8;"/>
     </g>
     <g id="line2d_20">
      <g>
       <use style="stroke:#000000;stroke-width:0.8;" x="54" xlink:href="#mfc4295a456" y="197.64"/>
      </g>
     </g>
     <g id="text_11">
      <!-- $\mathdefault{0.050}$ -->
      <g transform="translate(19.778214 201.692742)scale(0.12 -0.12)">
       <use transform="scale(0.996264)" xlink:href="#Nimbus_Roman_No9_L_Regular-48"/>
       <use transform="translate(49.8132 0)scale(0.996264)" xlink:href="#CMMI10-58"/>
       <use transform="translate(77.408707 0)scale(0.996264)" xlink:href="#Nimbus_Roman_No9_L_Regular-48"/>
       <use transform="translate(127.221908 0)scale(0.996264)" xlink:href="#Nimbus_Roman_No9_L_Regular-53"/>
       <use transform="translate(177.035108 0)scale(0.996264)" xlink:href="#Nimbus_Roman_No9_L_Regular-48"/>
      </g>
     </g>
    </g>
    <g id="ytick_4">
     <g id="line2d_21">
      <path clip-path="url(#pba935c3699)" d="M 54 170.46 
L 388.8 170.46 
" style="fill:none;stroke:#b0b0b0;stroke-linecap:square;stroke-width:0.8;"/>
     </g>
     <g id="line2d_22">
      <g>
       <use style="stroke:#000000;stroke-width:0.8;" x="54" xlink:href="#mfc4295a456" y="170.46"/>
      </g>
     </g>
     <g id="text_12">
      <!-- $\mathdefault{0.075}$ -->
      <defs>
       <path d="M 44.90625 66.40625 
L 7.90625 66.40625 
L 2 51.71875 
L 3.703125 50.90625 
C 8 57.703125 9.796875 59 15.296875 59 
L 37 59 
L 17.203125 -0.5 
L 23.703125 -0.5 
L 44.90625 64.8125 
z
" id="Nimbus_Roman_No9_L_Regular-55"/>
      </defs>
      <g transform="translate(19.778214 174.512742)scale(0.12 -0.12)">
       <use transform="scale(0.996264)" xlink:href="#Nimbus_Roman_No9_L_Regular-48"/>
       <use transform="translate(49.8132 0)scale(0.996264)" xlink:href="#CMMI10-58"/>
       <use transform="translate(77.408707 0)scale(0.996264)" xlink:href="#Nimbus_Roman_No9_L_Regular-48"/>
       <use transform="translate(127.221908 0)scale(0.996264)" xlink:href="#Nimbus_Roman_No9_L_Regular-55"/>
       <use transform="translate(177.035108 0)scale(0.996264)" xlink:href="#Nimbus_Roman_No9_L_Regular-53"/>
      </g>
     </g>
    </g>
    <g id="ytick_5">
     <g id="line2d_23">
      <path clip-path="url(#pba935c3699)" d="M 54 143.28 
L 388.8 143.28 
" style="fill:none;stroke:#b0b0b0;stroke-linecap:square;stroke-width:0.8;"/>
     </g>
     <g id="line2d_24">
      <g>
       <use style="stroke:#000000;stroke-width:0.8;" x="54" xlink:href="#mfc4295a456" y="143.28"/>
      </g>
     </g>
     <g id="text_13">
      <!-- $\mathdefault{0.100}$ -->
      <g transform="translate(19.778214 147.332742)scale(0.12 -0.12)">
       <use transform="scale(0.996264)" xlink:href="#Nimbus_Roman_No9_L_Regular-48"/>
       <use transform="translate(49.8132 0)scale(0.996264)" xlink:href="#CMMI10-58"/>
       <use transform="translate(77.408707 0)scale(0.996264)" xlink:href="#Nimbus_Roman_No9_L_Regular-49"/>
       <use transform="translate(127.221908 0)scale(0.996264)" xlink:href="#Nimbus_Roman_No9_L_Regular-48"/>
       <use transform="translate(177.035108 0)scale(0.996264)" xlink:href="#Nimbus_Roman_No9_L_Regular-48"/>
      </g>
     </g>
    </g>
    <g id="ytick_6">
     <g id="line2d_25">
      <path clip-path="url(#pba935c3699)" d="M 54 116.1 
L 388.8 116.1 
" style="fill:none;stroke:#b0b0b0;stroke-linecap:square;stroke-width:0.8;"/>
     </g>
     <g id="line2d_26">
      <g>
       <use style="stroke:#000000;stroke-width:0.8;" x="54" xlink:href="#mfc4295a456" y="116.1"/>
      </g>
     </g>
     <g id="text_14">
      <!-- $\mathdefault{0.125}$ -->
      <g transform="translate(19.778214 120.152742)scale(0.12 -0.12)">
       <use transform="scale(0.996264)" xlink:href="#Nimbus_Roman_No9_L_Regular-48"/>
       <use transform="translate(49.8132 0)scale(0.996264)" xlink:href="#CMMI10-58"/>
       <use transform="translate(77.408707 0)scale(0.996264)" xlink:href="#Nimbus_Roman_No9_L_Regular-49"/>
       <use transform="translate(127.221908 0)scale(0.996264)" xlink:href="#Nimbus_Roman_No9_L_Regular-50"/>
       <use transform="translate(177.035108 0)scale(0.996264)" xlink:href="#Nimbus_Roman_No9_L_Regular-53"/>
      </g>
     </g>
    </g>
    <g id="ytick_7">
     <g id="line2d_27">
      <path clip-path="url(#pba935c3699)" d="M 54 88.92 
L 388.8 88.92 
" style="fill:none;stroke:#b0b0b0;stroke-linecap:square;stroke-width:0.8;"/>
     </g>
     <g id="line2d_28">
      <g>
       <use style="stroke:#000000;stroke-width:0.8;" x="54" xlink:href="#mfc4295a456" y="88.92"/>
      </g>
     </g>
     <g id="text_15">
      <!-- $\mathdefault{0.150}$ -->
      <g transform="translate(19.778214 92.972742)scale(0.12 -0.12)">
       <use transform="scale(0.996264)" xlink:href="#Nimbus_Roman_No9_L_Regular-48"/>
       <use transform="translate(49.8132 0)scale(0.996264)" xlink:href="#CMMI10-58"/>
       <use transform="translate(77.408707 0)scale(0.996264)" xlink:href="#Nimbus_Roman_No9_L_Regular-49"/>
       <use transform="translate(127.221908 0)scale(0.996264)" xlink:href="#Nimbus_Roman_No9_L_Regular-53"/>
       <use transform="translate(177.035108 0)scale(0.996264)" xlink:href="#Nimbus_Roman_No9_L_Regular-48"/>
      </g>
     </g>
    </g>
    <g id="ytick_8">
     <g id="line2d_29">
      <path clip-path="url(#pba935c3699)" d="M 54 61.74 
L 388.8 61.74 
" style="fill:none;stroke:#b0b0b0;stroke-linecap:square;stroke-width:0.8;"/>
     </g>
     <g id="line2d_30">
      <g>
       <use style="stroke:#000000;stroke-width:0.8;" x="54" xlink:href="#mfc4295a456" y="61.74"/>
      </g>
     </g>
     <g id="text_16">
      <!-- $\mathdefault{0.175}$ -->
      <g transform="translate(19.778214 65.792742)scale(0.12 -0.12)">
       <use transform="scale(0.996264)" xlink:href="#Nimbus_Roman_No9_L_Regular-48"/>
       <use transform="translate(49.8132 0)scale(0.996264)" xlink:href="#CMMI10-58"/>
       <use transform="translate(77.408707 0)scale(0.996264)" xlink:href="#Nimbus_Roman_No9_L_Regular-49"/>
       <use transform="translate(127.221908 0)scale(0.996264)" xlink:href="#Nimbus_Roman_No9_L_Regular-55"/>
       <use transform="translate(177.035108 0)scale(0.996264)" xlink:href="#Nimbus_Roman_No9_L_Regular-53"/>
      </g>
     </g>
    </g>
    <g id="ytick_9">
     <g id="line2d_31">
      <path clip-path="url(#pba935c3699)" d="M 54 34.56 
L 388.8 34.56 
" style="fill:none;stroke:#b0b0b0;stroke-linecap:square;stroke-width:0.8;"/>
     </g>
     <g id="line2d_32">
      <g>
       <use style="stroke:#000000;stroke-width:0.8;" x="54" xlink:href="#mfc4295a456" y="34.56"/>
      </g>
     </g>
     <g id="text_17">
      <!-- $\mathdefault{0.200}$ -->
      <g transform="translate(19.778214 38.612742)scale(0.12 -0.12)">
       <use transform="scale(0.996264)" xlink:href="#Nimbus_Roman_No9_L_Regular-48"/>
       <use transform="translate(49.8132 0)scale(0.996264)" xlink:href="#CMMI10-58"/>
       <use transform="translate(77.408707 0)scale(0.996264)" xlink:href="#Nimbus_Roman_No9_L_Regular-50"/>
       <use transform="translate(127.221908 0)scale(0.996264)" xlink:href="#Nimbus_Roman_No9_L_Regular-48"/>
       <use transform="translate(177.035108 0)scale(0.996264)" xlink:href="#Nimbus_Roman_No9_L_Regular-48"/>
      </g>
     </g>
    </g>
    <g id="text_18">
     <!-- $P(\overline{X}^*)$ -->
     <defs>
      <path d="M 14.59375 63.390625 
C 20.296875 62.6875 21.703125 61.78125 21.703125 59.1875 
C 21.703125 57.765625 21.296875 55.65625 20 51.15625 
L 8.203125 8.53125 
C 6.40625 2.5 5.703125 1.890625 0 1.09375 
L 0 -0.5 
L 24.5 -0.5 
L 24.5 1.09375 
C 18.203125 2 17.703125 2.296875 17.703125 5.703125 
C 17.703125 6.90625 17.90625 7.890625 18.90625 11.5 
L 24.203125 30.796875 
C 26.703125 30.203125 29.296875 30 33.40625 30 
C 41.59375 30 48.296875 31.703125 52.59375 34.8125 
C 57.59375 38.546875 60.5 44.078125 60.5 50.015625 
C 60.5 59.65625 53 64.984375 39.40625 64.984375 
L 14.59375 64.984375 
z
M 32.203125 59.171875 
C 32.796875 61.296875 34 62 36.796875 62 
C 40.703125 62 44.5 60.984375 46.5 59.578125 
C 49.09375 57.75 50.203125 54.75 50.203125 50.015625 
C 50.203125 43.46875 47.90625 38.828125 43.5 36.21875 
C 40.40625 34.484375 36.5 33.6875 30.296875 33.6875 
C 28.59375 33.6875 27.796875 33.796875 25.09375 34.1875 
z
" id="Nimbus_Roman_No9_L_Regular_Italic-80"/>
      <path d="M 33.09375 -24 
C 33.09375 -23.703125 33.09375 -23.5 31.40625 -21.796875 
C 18.90625 -9.125 15.703125 9.875 15.703125 25.25 
C 15.703125 42.734375 19.5 60.234375 31.796875 72.78125 
C 33.09375 73.984375 33.09375 74.1875 33.09375 74.484375 
C 33.09375 75.1875 32.703125 75.5 32.09375 75.5 
C 31.09375 75.5 22.09375 68.671875 16.203125 55.890625 
C 11.09375 44.84375 9.90625 33.6875 9.90625 25.25 
C 9.90625 17.40625 11 5.25 16.5 -6.109375 
C 22.5 -18.46875 31.09375 -25 32.09375 -25 
C 32.703125 -25 33.09375 -24.703125 33.09375 -24 
z
" id="CMR10-40"/>
      <path d="M 28.90625 25.25 
C 28.90625 33.09375 27.796875 45.25 22.296875 56.59375 
C 16.296875 68.96875 7.703125 75.5 6.703125 75.5 
C 6.09375 75.5 5.703125 75.09375 5.703125 74.484375 
C 5.703125 74.1875 5.703125 73.984375 7.59375 72.1875 
C 17.40625 62.234375 23.09375 46.25 23.09375 25.25 
C 23.09375 8.0625 19.40625 -9.640625 7 -22.296875 
C 5.703125 -23.5 5.703125 -23.703125 5.703125 -24 
C 5.703125 -24.609375 6.09375 -25 6.703125 -25 
C 7.703125 -25 16.703125 -18.171875 22.59375 -5.40625 
C 27.703125 5.65625 28.90625 16.796875 28.90625 25.25 
z
" id="CMR10-41"/>
     </defs>
     <g transform="translate(12.789422 158.280952)rotate(-90)scale(0.12 -0.12)">
      <use transform="scale(0.996264)" xlink:href="#Nimbus_Roman_No9_L_Regular_Italic-80"/>
      <use transform="translate(60.871631 0)scale(0.996264)" xlink:href="#CMR10-40"/>
      <use transform="translate(99.525476 0)scale(0.996264)" xlink:href="#Nimbus_Roman_No9_L_Regular_Italic-88"/>
      <use transform="translate(169.761405 56.119964)scale(0.737241)" xlink:href="#CMSY10-3"/>
      <use transform="translate(207.121579 0)scale(0.996264)" xlink:href="#CMR10-41"/>
      <path d="M 99.525476 76.609169 
L 169.761405 76.609169 
L 169.761405 80.593268 
L 99.525476 80.593268 
L 99.525476 76.609169 
z
"/>
     </g>
    </g>
   </g>
   <g id="line2d_33">
    <path clip-path="url(#pba935c3699)" d="M 134.900865 252 
L 134.900865 34.56 
" style="fill:none;stroke:#000000;stroke-dasharray:1.5,2.475;stroke-dashoffset:0;stroke-width:1.5;"/>
   </g>
   <g id="line2d_34">
    <path clip-path="url(#pba935c3699)" d="M 185.131357 252 
L 185.131357 34.56 
" style="fill:none;stroke:#000000;stroke-linecap:square;stroke-width:1.5;"/>
   </g>
   <g id="line2d_35">
    <path clip-path="url(#pba935c3699)" d="M 237.713036 252 
L 237.713036 34.56 
" style="fill:none;stroke:#000000;stroke-dasharray:1.5,2.475;stroke-dashoffset:0;stroke-width:1.5;"/>
   </g>
   <g id="patch_3">
    <path d="M 54 252 
L 54 34.56 
" style="fill:none;stroke:#000000;stroke-linecap:square;stroke-linejoin:miter;stroke-width:0.8;"/>
   </g>
   <g id="patch_4">
    <path d="M 388.8 252 
L 388.8 34.56 
" style="fill:none;stroke:#000000;stroke-linecap:square;stroke-linejoin:miter;stroke-width:0.8;"/>
   </g>
   <g id="patch_5">
    <path d="M 54 252 
L 388.8 252 
" style="fill:none;stroke:#000000;stroke-linecap:square;stroke-linejoin:miter;stroke-width:0.8;"/>
   </g>
   <g id="patch_6">
    <path d="M 54 34.56 
L 388.8 34.56 
" style="fill:none;stroke:#000000;stroke-linecap:square;stroke-linejoin:miter;stroke-width:0.8;"/>
   </g>
   <g id="text_19">
    <!-- $\overline{X}$ = -0.32; 95\% CI from Eqn 7.15: [-0.90, 0.25] -->
    <defs>
     <path d="M 53.40625 38.59375 
L 3 38.59375 
L 3 32 
L 53.40625 32 
z
M 53.40625 18.59375 
L 3 18.59375 
L 3 12 
L 53.40625 12 
z
" id="Nimbus_Roman_No9_L_Regular-61"/>
     <path d="M 3.90625 25.296875 
L 3.90625 19 
L 28.5 19 
L 28.5 25.296875 
z
" id="Nimbus_Roman_No9_L_Regular-45"/>
     <path d="M 12.5 10.09375 
C 9.5 10.09375 7 7.5 7 4.390625 
C 7 1.5 9.5 -1 12.40625 -1 
C 15.5 -1 18.09375 1.5 18.09375 4.390625 
C 18.09375 7.5 15.5 10.09375 12.5 10.09375 
z
" id="Nimbus_Roman_No9_L_Regular-46"/>
     <path d="M 15.296875 33.40625 
C 21.203125 33.40625 23.5 33.203125 25.90625 32.3125 
C 32.09375 30.109375 36 24.40625 36 17.5 
C 36 9.109375 30.296875 2.609375 22.90625 2.609375 
C 20.203125 2.609375 18.203125 3.3125 14.5 5.703125 
C 11.5 7.5 9.796875 8.203125 8.09375 8.203125 
C 5.796875 8.203125 4.296875 6.8125 4.296875 4.703125 
C 4.296875 1.203125 8.59375 -1 15.59375 -1 
C 23.296875 -1 31.203125 1.609375 35.90625 5.703125 
C 40.59375 9.8125 43.203125 15.609375 43.203125 22.3125 
C 43.203125 27.40625 41.59375 32.109375 38.703125 35.203125 
C 36.703125 37.40625 34.796875 38.609375 30.40625 40.5 
C 37.296875 45.203125 39.796875 48.90625 39.796875 54.3125 
C 39.796875 62.40625 33.40625 68 24.203125 68 
C 19.203125 68 14.796875 66.3125 11.203125 63.109375 
C 8.203125 60.40625 6.703125 57.796875 4.5 51.796875 
L 6 51.40625 
C 10.09375 58.703125 14.59375 62 20.90625 62 
C 27.40625 62 31.90625 57.609375 31.90625 51.3125 
C 31.90625 47.703125 30.40625 44.109375 27.90625 41.609375 
C 24.90625 38.609375 22.09375 37.109375 15.296875 34.703125 
z
" id="Nimbus_Roman_No9_L_Regular-51"/>
     <path d="M 10.703125 -13.890625 
C 17.59375 -10.5 21.90625 -4.5 21.90625 1.5 
C 21.90625 6.5 18.40625 10.40625 13.90625 10.40625 
C 10.40625 10.40625 8 8.203125 8 4.796875 
C 8 1.5 10.203125 -0.390625 13.90625 -0.390625 
C 14.5 -0.390625 15.203125 -0.296875 15.796875 -0.203125 
C 16.5 0 16.5 0 16.59375 0 
C 17.40625 0 18 -0.59375 18 -1.390625 
C 18 -4.59375 15.203125 -8.296875 9.796875 -12 
z
M 13.59375 46.109375 
C 10.59375 46.109375 8.09375 43.5 8.09375 40.40625 
C 8.09375 37.5 10.59375 35 13.5 35 
C 16.59375 35 19.203125 37.5 19.203125 40.40625 
C 19.203125 43.5 16.59375 46.109375 13.59375 46.109375 
z
" id="Nimbus_Roman_No9_L_Regular-59"/>
     <path d="M 5.90625 -1.921875 
C 17.09375 -0.625 22.59375 1.28125 29.40625 6.1875 
C 39.796875 13.78125 45.90625 26.1875 45.90625 39.671875 
C 45.90625 56.140625 36.703125 67.796875 23.796875 67.796875 
C 11.90625 67.796875 3 57.71875 3 44.25 
C 3 32.078125 10.203125 24 21 24 
C 26.5 24 30.703125 25.59375 36 29.6875 
C 31.90625 13.375 20.796875 2.6875 5.59375 0.078125 
z
M 36.203125 35.78125 
C 36.203125 33.78125 35.796875 32.875 34.703125 31.984375 
C 31.90625 29.59375 28.203125 28.296875 24.59375 28.296875 
C 17 28.296875 12.203125 35.78125 12.203125 47.65625 
C 12.203125 53.328125 13.796875 59.3125 15.90625 61.921875 
C 17.59375 63.90625 20.09375 65 23 65 
C 31.703125 65 36.203125 56.421875 36.203125 39.671875 
z
" id="Nimbus_Roman_No9_L_Regular-57"/>
     <path d="M 66.90625 37 
C 55.59375 37 44.90625 25.34375 44.90625 12.875 
C 44.90625 5.078125 49.703125 0 56.90625 0 
C 61.40625 0 65.09375 1.59375 68.59375 5.078125 
C 73.90625 10.46875 77.203125 18.546875 77.203125 26.34375 
C 77.203125 33.125 73.40625 37 66.90625 37 
z
M 67.59375 33.8125 
C 71.40625 33.8125 74.59375 30.21875 74.59375 25.84375 
C 74.59375 20.15625 72.09375 13.375 68.296875 8.6875 
C 65.09375 4.703125 62.203125 3 58.59375 3 
C 55 3 52.5 5.578125 52.5 9.390625 
C 52.5 14.671875 55.296875 22.84375 59 28.015625 
C 61.703125 32 64.5 33.8125 67.59375 33.8125 
z
M 63.40625 67.5 
L 59.5 67.5 
C 54.09375 62.625 50.09375 61 43.90625 61 
C 39.90625 61 37.59375 61.65625 35.203125 63.5 
C 32.59375 65.53125 31.296875 66 28.203125 66 
C 16.796875 66 6.09375 54.1875 6.09375 41.59375 
C 6.09375 34.640625 11.40625 29 17.90625 29 
C 22.203125 29 26.703125 31 30 34.515625 
C 35.203125 39.828125 38.40625 47.75 38.40625 55.09375 
C 38.40625 56.484375 38.203125 57.703125 37.703125 59.5 
C 39.5 58.796875 41.296875 58.5 44.203125 58.5 
C 48.59375 58.5 51.203125 59.1875 55.203125 61.421875 
L 20.09375 -1.5 
L 24.90625 -1.5 
z
M 35 59.828125 
C 35.59375 57.84375 35.90625 56.359375 35.90625 54.96875 
C 35.90625 43.78125 27.703125 32.390625 19.59375 32.390625 
C 16.09375 32.390625 13.703125 34.859375 13.703125 38.4375 
C 13.703125 42.59375 15.703125 49.328125 18.40625 54.28125 
C 21.296875 59.625 25.09375 63 28.203125 63 
C 28.703125 63 28.90625 62.890625 29.5 62.390625 
C 30.90625 61.109375 32.09375 60.609375 35 59.828125 
z
" id="Nimbus_Roman_No9_L_Regular-37"/>
     <path d="M 62 45.40625 
L 61.09375 68 
L 59 68 
C 58.40625 65.90625 56.796875 64.703125 54.796875 64.703125 
C 53.90625 64.703125 52.40625 65 50.90625 65.609375 
C 46 67.203125 41 68 36.296875 68 
C 28.09375 68 19.796875 64.90625 13.59375 59.40625 
C 6.59375 53.203125 2.796875 43.90625 2.796875 32.90625 
C 2.796875 23.609375 5.796875 15 10.90625 9.3125 
C 16.90625 2.8125 26.09375 -1 36 -1 
C 47.296875 -1 57.203125 3.609375 63.296875 11.703125 
L 61.5 13.5 
C 54.09375 6.40625 47.5 3.40625 39.203125 3.40625 
C 32.90625 3.40625 27.296875 5.40625 23 9.203125 
C 17.5 14.109375 14.40625 23.109375 14.40625 34.203125 
C 14.40625 52.3125 23.703125 64 38.203125 64 
C 43.90625 64 49.09375 61.90625 53.09375 57.90625 
C 56.296875 54.703125 57.796875 51.90625 59.703125 45.40625 
z
" id="Nimbus_Roman_No9_L_Regular-67"/>
     <path d="M 11.5 10.765625 
C 11.5 3.21875 10.203125 2 1.796875 2 
L 1.796875 0 
L 31.5 0 
L 31.5 2 
C 23.296875 2 21.703125 3.390625 21.703125 10.75 
L 21.703125 55.34375 
C 21.703125 62.6875 23.09375 64 31.5 64 
L 31.5 66.109375 
L 1.796875 66.109375 
L 1.796875 64 
C 10.296875 64 11.5 62.90625 11.5 55.4375 
z
" id="Nimbus_Roman_No9_L_Regular-73"/>
     <path d="M 30.90625 45 
L 18.59375 45 
L 18.59375 56.421875 
C 18.59375 62.15625 20.5 65.203125 24.296875 65.203125 
C 26.40625 65.203125 27.796875 64.21875 29.59375 61.359375 
C 31.203125 58.796875 32.40625 57.8125 34.09375 57.8125 
C 36.40625 57.8125 38.296875 59.59375 38.296875 61.859375 
C 38.296875 65.4375 33.90625 68 27.90625 68 
C 21.703125 68 16.40625 65.328125 13.796875 60.796875 
C 11.203125 56.453125 10.40625 52.890625 10.296875 45 
L 2.09375 45 
L 2.09375 41.796875 
L 10.296875 41.796875 
L 10.296875 10.25 
C 10.296875 2.890625 9.203125 1.703125 2 1.703125 
L 2 0 
L 28 0 
L 28 1.703125 
C 19.796875 1.703125 18.703125 2.8125 18.703125 10.328125 
L 18.703125 41.796875 
L 30.90625 41.796875 
z
" id="Nimbus_Roman_No9_L_Regular-102"/>
     <path d="M 0.703125 39 
C 2.09375 39.296875 3 39.40625 4.203125 39.40625 
C 6.703125 39.40625 7.59375 37.796875 7.59375 33.40625 
L 7.59375 8.40625 
C 7.59375 3.40625 6.90625 2.703125 0.5 1.5 
L 0.5 0 
L 24.5 0 
L 24.5 1.59375 
C 17.703125 1.59375 16 3.109375 16 8.828125 
L 16 31.453125 
C 16 34.671875 20.296875 39.703125 23 39.703125 
C 23.59375 39.703125 24.5 39.203125 25.59375 38.203125 
C 27.203125 36.796875 28.296875 36.203125 29.59375 36.203125 
C 32 36.203125 33.5 37.90625 33.5 40.703125 
C 33.5 44 31.40625 46 28 46 
C 23.796875 46 20.90625 43.703125 16 36.609375 
L 16 45.796875 
L 15.5 46 
C 10.203125 43.796875 6.59375 42.515625 0.703125 40.609375 
z
" id="Nimbus_Roman_No9_L_Regular-114"/>
     <path d="M 25 46 
C 12 46 2.90625 36.40625 2.90625 22.59375 
C 2.90625 9.09375 12.203125 -1 24.796875 -1 
C 37.40625 -1 47 9.59375 47 23.40625 
C 47 36.5 37.796875 46 25 46 
z
M 23.703125 43.203125 
C 32.09375 43.203125 38 33.59375 38 19.90625 
C 38 8.59375 33.5 1.796875 26 1.796875 
C 22.09375 1.796875 18.40625 4.203125 16.296875 8.203125 
C 13.5 13.40625 11.90625 20.40625 11.90625 27.5 
C 11.90625 37 16.59375 43.203125 23.703125 43.203125 
z
" id="Nimbus_Roman_No9_L_Regular-111"/>
     <path d="M 1.90625 39.796875 
C 3.203125 40.09375 4 40.203125 5.09375 40.203125 
C 7.703125 40.203125 8.59375 38.59375 8.59375 33.78125 
L 8.59375 8.421875 
C 8.59375 3 7.203125 1.5 1.59375 1.5 
L 1.59375 0 
L 23.796875 0 
L 23.796875 1.5 
C 18.5 1.5 17 2.59375 17 6.53125 
L 17 34.90625 
C 17 35.09375 17.796875 36.09375 18.5 36.796875 
C 21 39.09375 25.296875 40.796875 28.796875 40.796875 
C 33.203125 40.796875 35.40625 37.265625 35.40625 30.1875 
L 35.40625 8.25 
C 35.40625 2.609375 34.296875 1.5 28.59375 1.5 
L 28.59375 0 
L 51 0 
L 51 1.5 
C 45.296875 1.5 43.796875 3.203125 43.796875 9.421875 
L 43.796875 34.703125 
C 46.796875 39 50.09375 40.796875 54.703125 40.796875 
C 60.40625 40.796875 62.203125 38.09375 62.203125 29.796875 
L 62.203125 8.703125 
C 62.203125 3 61.40625 2.203125 55.59375 1.5 
L 55.59375 0 
L 77.5 0 
L 77.5 1.5 
L 74.90625 1.796875 
C 71.90625 1.796875 70.59375 3.59375 70.59375 7.5 
L 70.59375 28.15625 
C 70.59375 39.984375 66.703125 46 59 46 
C 53.203125 46 48.09375 43.40625 42.703125 37.609375 
C 40.90625 43.296875 37.5 46 32.09375 46 
C 27.703125 46 24.90625 44.59375 16.59375 38.296875 
L 16.59375 45.796875 
L 15.90625 46 
C 10.796875 44.09375 7.40625 43 1.90625 41.5 
z
" id="Nimbus_Roman_No9_L_Regular-109"/>
     <path d="M 59.703125 16.84375 
L 56.90625 16.84375 
C 51.90625 6.078125 47.59375 3.703125 33.296875 3.703125 
L 30.59375 3.703125 
C 25.703125 3.703125 21.5 4.203125 20.796875 4.921875 
C 20.296875 5.21875 20.09375 6.3125 20.09375 8.03125 
L 20.09375 32.90625 
L 35.5 32.90625 
C 43.703125 32.90625 45.203125 31.5625 46.5 23 
L 48.796875 23 
L 48.796875 46.203125 
L 46.5 46.203125 
C 45.796875 42.234375 45.40625 40.78125 44.296875 39.421875 
C 43 37.765625 40.203125 37 35.5 37 
L 20.09375 37 
L 20.09375 58.84375 
C 20.09375 61.609375 20.703125 62.203125 23.40625 62.203125 
L 36.90625 62.203125 
C 48.203125 62.203125 50.40625 60.71875 52.09375 51.78125 
L 54.59375 51.78125 
L 54.296875 66 
L 1.203125 66 
L 1.203125 64.09375 
C 8.59375 63.5 9.90625 62.09375 9.90625 55.078125 
L 9.90625 10.609375 
C 9.90625 3.59375 8.5 2.09375 1.203125 2.09375 
L 1.203125 0 
L 55.203125 0 
z
" id="Nimbus_Roman_No9_L_Regular-69"/>
     <path d="M 36 42.203125 
C 31.40625 44.90625 28.40625 45.796875 24.5 45.796875 
C 12 45.796875 2.40625 34.65625 2.40625 20.3125 
C 2.40625 7.78125 9 -1.09375 18.40625 -1.09375 
C 24.203125 -1.09375 29.703125 1.5 34.09375 6.296875 
L 34.09375 -12.875 
C 34.09375 -18.5625 32.296875 -20.09375 25.203125 -20.09375 
L 25.203125 -22 
L 48.796875 -22 
L 48.796875 -20.59375 
C 43.296875 -19.390625 42.5 -18.59375 42.5 -14.390625 
L 42.5 45.40625 
L 41.40625 45.40625 
z
M 34.09375 12.5625 
C 34.09375 10.171875 33.703125 8.890625 32.703125 8.09375 
C 30.5 6.203125 27.203125 5 24.09375 5 
C 21 5 18.296875 6 16.296875 7.984375 
C 13.09375 10.875 11 17.34375 11 23.90625 
C 11 35.65625 16.296875 43 24.796875 43 
C 31 43 34.09375 39.71875 34.09375 33.046875 
z
" id="Nimbus_Roman_No9_L_Regular-113"/>
     <path d="M 1.59375 40.296875 
C 2.203125 40.59375 3.203125 40.703125 4.296875 40.703125 
C 7.09375 40.703125 8 39.203125 8 34.296875 
L 8 9.5 
C 8 3.796875 6.90625 2.40625 1.796875 2 
L 1.796875 0.5 
L 23 0.5 
L 23 2 
C 17.90625 2.40625 16.40625 3.59375 16.40625 7.203125 
L 16.40625 35.296875 
C 21.203125 39.796875 23.40625 41 26.703125 41 
C 31.59375 41 34 37.90625 34 31.296875 
L 34 10.40625 
C 34 4.09375 32.703125 2.40625 27.703125 2 
L 27.703125 0.5 
L 48.5 0.5 
L 48.5 2 
C 43.59375 2.5 42.40625 3.703125 42.40625 8.59375 
L 42.40625 31.5 
C 42.40625 40.90625 38 46.5 30.59375 46.5 
C 26 46.5 22.90625 44.796875 16.09375 38.40625 
L 16.09375 46.296875 
L 15.40625 46.5 
C 10.5 44.703125 7.09375 43.59375 1.59375 42 
z
" id="Nimbus_Roman_No9_L_Regular-110"/>
     <path d="M 13.59375 46 
C 10.59375 46 8.09375 43.390625 8.09375 40.296875 
C 8.09375 37.390625 10.59375 34.890625 13.5 34.890625 
C 16.59375 34.890625 19.203125 37.390625 19.203125 40.296875 
C 19.203125 43.390625 16.59375 46 13.59375 46 
z
M 13.59375 10.09375 
C 10.59375 10.09375 8.09375 7.5 8.09375 4.390625 
C 8.09375 1.5 10.59375 -1 13.5 -1 
C 16.59375 -1 19.203125 1.5 19.203125 4.390625 
C 19.203125 7.5 16.59375 10.09375 13.59375 10.09375 
z
" id="Nimbus_Roman_No9_L_Regular-58"/>
     <path d="M 29.90625 -13.5 
L 21.296875 -13.5 
C 18 -13.5 16.40625 -11.8125 16.40625 -8.296875 
L 16.40625 59.078125 
C 16.40625 62.203125 17.703125 63.5 20.90625 63.5 
L 29.90625 63.5 
L 29.90625 66 
L 8.796875 66 
L 8.796875 -16 
L 29.90625 -16 
z
" id="Nimbus_Roman_No9_L_Regular-91"/>
     <path d="M 8.296875 -13.890625 
C 15 -10.59375 19.5 -4.5 19.5 1.5 
C 19.5 6.5 16 10.40625 11.5 10.40625 
C 8 10.40625 5.59375 8.109375 5.59375 4.703125 
C 5.59375 1.5 7.90625 -0.390625 11.5 -0.390625 
C 12.09375 -0.390625 12.796875 -0.296875 13.40625 -0.203125 
C 14.09375 0 14.09375 0 14.203125 0 
C 15 0 15.59375 -0.59375 15.59375 -1.390625 
C 15.59375 -4.59375 12.796875 -8.296875 7.40625 -12 
z
" id="Nimbus_Roman_No9_L_Regular-44"/>
     <path d="M 3.40625 -13.5 
L 3.40625 -16 
L 24.5 -16 
L 24.5 66 
L 3.40625 66 
L 3.40625 63.5 
L 12 63.5 
C 15.296875 63.5 16.90625 61.796875 16.90625 58.28125 
L 16.90625 -9.09375 
C 16.90625 -12.203125 15.5 -13.5 12.40625 -13.5 
z
" id="Nimbus_Roman_No9_L_Regular-93"/>
    </defs>
    <g transform="translate(84.358706 28.56)scale(0.144 -0.144)">
     <use transform="scale(0.996264)" xlink:href="#Nimbus_Roman_No9_L_Regular_Italic-88"/>
     <use transform="translate(95.142529 0)scale(0.996264)" xlink:href="#Nimbus_Roman_No9_L_Regular-61"/>
     <use transform="translate(176.237379 0)scale(0.996264)" xlink:href="#Nimbus_Roman_No9_L_Regular-45"/>
     <use transform="translate(209.412609 0)scale(0.996264)" xlink:href="#Nimbus_Roman_No9_L_Regular-48"/>
     <use transform="translate(259.22581 0)scale(0.996264)" xlink:href="#Nimbus_Roman_No9_L_Regular-46"/>
     <use transform="translate(284.13241 0)scale(0.996264)" xlink:href="#Nimbus_Roman_No9_L_Regular-51"/>
     <use transform="translate(333.94561 0)scale(0.996264)" xlink:href="#Nimbus_Roman_No9_L_Regular-50"/>
     <use transform="translate(383.758811 0)scale(0.996264)" xlink:href="#Nimbus_Roman_No9_L_Regular-59"/>
     <use transform="translate(436.360581 0)scale(0.996264)" xlink:href="#Nimbus_Roman_No9_L_Regular-57"/>
     <use transform="translate(486.173781 0)scale(0.996264)" xlink:href="#Nimbus_Roman_No9_L_Regular-53"/>
     <use transform="translate(535.986982 0)scale(0.996264)" xlink:href="#Nimbus_Roman_No9_L_Regular-37"/>
     <use transform="translate(643.882012 0)scale(0.996264)" xlink:href="#Nimbus_Roman_No9_L_Regular-67"/>
     <use transform="translate(710.332043 0)scale(0.996264)" xlink:href="#Nimbus_Roman_No9_L_Regular-73"/>
     <use transform="translate(768.413873 0)scale(0.996264)" xlink:href="#Nimbus_Roman_No9_L_Regular-102"/>
     <use transform="translate(801.589103 0)scale(0.996264)" xlink:href="#Nimbus_Roman_No9_L_Regular-114"/>
     <use transform="translate(834.764333 0)scale(0.996264)" xlink:href="#Nimbus_Roman_No9_L_Regular-111"/>
     <use transform="translate(884.577533 0)scale(0.996264)" xlink:href="#Nimbus_Roman_No9_L_Regular-109"/>
     <use transform="translate(986.992504 0)scale(0.996264)" xlink:href="#Nimbus_Roman_No9_L_Regular-69"/>
     <use transform="translate(1047.864134 0)scale(0.996264)" xlink:href="#Nimbus_Roman_No9_L_Regular-113"/>
     <use transform="translate(1097.677335 0)scale(0.996264)" xlink:href="#Nimbus_Roman_No9_L_Regular-110"/>
     <use transform="translate(1172.397136 0)scale(0.996264)" xlink:href="#Nimbus_Roman_No9_L_Regular-55"/>
     <use transform="translate(1222.210336 0)scale(0.996264)" xlink:href="#Nimbus_Roman_No9_L_Regular-46"/>
     <use transform="translate(1247.116936 0)scale(0.996264)" xlink:href="#Nimbus_Roman_No9_L_Regular-49"/>
     <use transform="translate(1296.930137 0)scale(0.996264)" xlink:href="#Nimbus_Roman_No9_L_Regular-53"/>
     <use transform="translate(1346.743337 0)scale(0.996264)" xlink:href="#Nimbus_Roman_No9_L_Regular-58"/>
     <use transform="translate(1405.322539 0)scale(0.996264)" xlink:href="#Nimbus_Roman_No9_L_Regular-91"/>
     <use transform="translate(1438.497769 0)scale(0.996264)" xlink:href="#Nimbus_Roman_No9_L_Regular-45"/>
     <use transform="translate(1471.672999 0)scale(0.996264)" xlink:href="#Nimbus_Roman_No9_L_Regular-48"/>
     <use transform="translate(1521.486199 0)scale(0.996264)" xlink:href="#Nimbus_Roman_No9_L_Regular-46"/>
     <use transform="translate(1546.392799 0)scale(0.996264)" xlink:href="#Nimbus_Roman_No9_L_Regular-57"/>
     <use transform="translate(1596.206 0)scale(0.996264)" xlink:href="#Nimbus_Roman_No9_L_Regular-48"/>
     <use transform="translate(1646.0192 0)scale(0.996264)" xlink:href="#Nimbus_Roman_No9_L_Regular-44"/>
     <use transform="translate(1695.832401 0)scale(0.996264)" xlink:href="#Nimbus_Roman_No9_L_Regular-48"/>
     <use transform="translate(1745.645601 0)scale(0.996264)" xlink:href="#Nimbus_Roman_No9_L_Regular-46"/>
     <use transform="translate(1770.552202 0)scale(0.996264)" xlink:href="#Nimbus_Roman_No9_L_Regular-50"/>
     <use transform="translate(1820.365402 0)scale(0.996264)" xlink:href="#Nimbus_Roman_No9_L_Regular-53"/>
     <use transform="translate(1870.178603 0)scale(0.996264)" xlink:href="#Nimbus_Roman_No9_L_Regular-93"/>
     <path d="M 0 76.609169 
L 70.235929 76.609169 
L 70.235929 80.593268 
L 0 80.593268 
L 0 76.609169 
z
"/>
    </g>
   </g>
   <g id="legend_1">
    <g id="patch_7">
     <path d="M 225.426667 95.601209 
L 380.4 95.601209 
Q 382.8 95.601209 382.8 93.201209 
L 382.8 42.96 
Q 382.8 40.56 380.4 40.56 
L 225.426667 40.56 
Q 223.026667 40.56 223.026667 42.96 
L 223.026667 93.201209 
Q 223.026667 95.601209 225.426667 95.601209 
z
" style="fill:#ffffff;opacity:0.8;stroke:#cccccc;stroke-linejoin:miter;"/>
    </g>
    <g id="line2d_36">
     <path d="M 227.826667 49.56 
L 251.826667 49.56 
" style="fill:none;stroke:#000000;stroke-dasharray:1.5,2.475;stroke-dashoffset:0;stroke-width:1.5;"/>
    </g>
    <g id="line2d_37"/>
    <g id="text_20">
     <!-- 95\% CI = [-0.78, 0.15] -->
     <defs>
      <path d="M 29 37.5 
C 38.90625 42.8125 42.40625 47 42.40625 53.8125 
C 42.40625 62 35.203125 68 25.203125 68 
C 14.296875 68 6.203125 61.3125 6.203125 52.203125 
C 6.203125 45.703125 8.09375 42.8125 18.59375 33.609375 
C 7.796875 25.40625 5.59375 22.3125 5.59375 15.5 
C 5.59375 5.8125 13.5 -1 24.796875 -1 
C 36.796875 -1 44.5 5.609375 44.5 15.90625 
C 44.5 23.609375 41.09375 28.5 29 37.5 
z
M 27.203125 27.203125 
C 34.5 22 36.90625 18.40625 36.90625 12.8125 
C 36.90625 6.3125 32.40625 1.8125 25.90625 1.8125 
C 18.296875 1.8125 13.203125 7.609375 13.203125 16.3125 
C 13.203125 22.703125 15.40625 26.90625 21.203125 31.609375 
z
M 26.09375 39.3125 
C 17.203125 45.109375 13.59375 49.703125 13.59375 55.3125 
C 13.59375 61.109375 18.09375 65.203125 24.40625 65.203125 
C 31.203125 65.203125 35.5 60.8125 35.5 53.90625 
C 35.5 48.203125 32.703125 43.703125 27 39.90625 
C 26.5 39.609375 26.5 39.609375 26.09375 39.3125 
z
" id="Nimbus_Roman_No9_L_Regular-56"/>
     </defs>
     <g transform="translate(261.426667 53.76)scale(0.12 -0.12)">
      <use transform="scale(0.996264)" xlink:href="#Nimbus_Roman_No9_L_Regular-57"/>
      <use transform="translate(49.8132 0)scale(0.996264)" xlink:href="#Nimbus_Roman_No9_L_Regular-53"/>
      <use transform="translate(99.626401 0)scale(0.996264)" xlink:href="#Nimbus_Roman_No9_L_Regular-37"/>
      <use transform="translate(207.521431 0)scale(0.996264)" xlink:href="#Nimbus_Roman_No9_L_Regular-67"/>
      <use transform="translate(273.971463 0)scale(0.996264)" xlink:href="#Nimbus_Roman_No9_L_Regular-73"/>
      <use transform="translate(332.053293 0)scale(0.996264)" xlink:href="#Nimbus_Roman_No9_L_Regular-61"/>
      <use transform="translate(413.148143 0)scale(0.996264)" xlink:href="#Nimbus_Roman_No9_L_Regular-91"/>
      <use transform="translate(446.323373 0)scale(0.996264)" xlink:href="#Nimbus_Roman_No9_L_Regular-45"/>
      <use transform="translate(479.498603 0)scale(0.996264)" xlink:href="#Nimbus_Roman_No9_L_Regular-48"/>
      <use transform="translate(529.311803 0)scale(0.996264)" xlink:href="#Nimbus_Roman_No9_L_Regular-46"/>
      <use transform="translate(554.218403 0)scale(0.996264)" xlink:href="#Nimbus_Roman_No9_L_Regular-55"/>
      <use transform="translate(604.031604 0)scale(0.996264)" xlink:href="#Nimbus_Roman_No9_L_Regular-56"/>
      <use transform="translate(653.844804 0)scale(0.996264)" xlink:href="#Nimbus_Roman_No9_L_Regular-44"/>
      <use transform="translate(703.658005 0)scale(0.996264)" xlink:href="#Nimbus_Roman_No9_L_Regular-48"/>
      <use transform="translate(753.471205 0)scale(0.996264)" xlink:href="#Nimbus_Roman_No9_L_Regular-46"/>
      <use transform="translate(778.377806 0)scale(0.996264)" xlink:href="#Nimbus_Roman_No9_L_Regular-49"/>
      <use transform="translate(828.191006 0)scale(0.996264)" xlink:href="#Nimbus_Roman_No9_L_Regular-53"/>
      <use transform="translate(878.004207 0)scale(0.996264)" xlink:href="#Nimbus_Roman_No9_L_Regular-93"/>
     </g>
    </g>
    <g id="line2d_38">
     <path d="M 227.826667 66.773732 
L 251.826667 66.773732 
" style="fill:none;stroke:#000000;stroke-linecap:square;stroke-width:1.5;"/>
    </g>
    <g id="line2d_39"/>
    <g id="text_21">
     <!-- $\hat{\mu} = -0.32$ -->
     <defs>
      <path d="M 32.203125 51 
L 19.703125 67.5 
L 13.5 67.5 
L 1.09375 51 
L 4.5 51 
L 16.59375 61.171875 
L 28.796875 51 
z
" id="Nimbus_Roman_No9_L_Regular-136"/>
      <path d="M 44.203125 49.5 
L 35.296875 49.5 
L 35.40625 12.78125 
C 31.796875 8.078125 28.40625 6.0625 24.203125 6.0625 
C 18.40625 6.0625 15 10.09375 15 16.96875 
L 15 49.5 
L 6.203125 49.5 
L 6.203125 1.765625 
C 6.203125 -0.3125 5.796875 -2.796875 5.09375 -5.796875 
C 3.40625 -11.96875 3.296875 -12.5625 3.296875 -14.84375 
C 3.296875 -19.03125 5.40625 -22 8.296875 -22 
C 11.203125 -22 13.203125 -18.96875 13.203125 -14.5 
C 13.203125 -12.359375 12.90625 -11.03125 11.296875 -5.15625 
C 10.296875 -1.5 10.09375 -0.484375 10.09375 2.359375 
L 10.09375 3.578125 
C 14.296875 0.09375 16.59375 -1 20 -1 
C 25 -1 30.09375 2.015625 35.40625 8.015625 
C 36.203125 4.90625 36.703125 3.75 37.703125 2.3125 
C 39.203125 0.265625 41.90625 -1 44.796875 -1 
C 51 -1 55.296875 3.1875 56.703125 10.5 
L 54 10.5 
C 53.59375 7.078125 51.5 4.375 49.203125 4.375 
C 46.203125 4.375 44.203125 7.90625 44.203125 13.234375 
z
" id="Standard_Symbols_L-109"/>
      <path d="M 68.703125 32 
C 70.203125 32 72.09375 32 72.09375 34.015625 
C 72.09375 36.015625 70.203125 36.015625 68.796875 36.015625 
L 8.90625 36.015625 
C 7.5 36.015625 5.59375 36.015625 5.59375 34.015625 
C 5.59375 32 7.5 32 9 32 
z
M 68.796875 13 
C 70.203125 13 72.09375 13 72.09375 15.015625 
C 72.09375 17.015625 70.203125 17.015625 68.703125 17.015625 
L 9 17.015625 
C 7.5 17.015625 5.59375 17.015625 5.59375 15.015625 
C 5.59375 13 7.5 13 8.90625 13 
z
" id="CMR10-61"/>
     </defs>
     <g transform="translate(261.426667 70.973732)scale(0.12 -0.12)">
      <use transform="translate(14.99329 4.333755)scale(0.996264)" xlink:href="#Nimbus_Roman_No9_L_Regular-136"/>
      <use transform="scale(0.996264)" xlink:href="#Standard_Symbols_L-109"/>
      <use transform="translate(87.791555 0)scale(0.996264)" xlink:href="#CMR10-61"/>
      <use transform="translate(187.339408 0)scale(0.996264)" xlink:href="#CMSY10-0"/>
      <use transform="translate(264.748116 0)scale(0.996264)" xlink:href="#Nimbus_Roman_No9_L_Regular-48"/>
      <use transform="translate(314.561316 0)scale(0.996264)" xlink:href="#CMMI10-58"/>
      <use transform="translate(342.156823 0)scale(0.996264)" xlink:href="#Nimbus_Roman_No9_L_Regular-51"/>
      <use transform="translate(391.970023 0)scale(0.996264)" xlink:href="#Nimbus_Roman_No9_L_Regular-50"/>
     </g>
    </g>
    <g id="patch_8">
     <path d="M 227.826667 88.213014 
L 251.826667 88.213014 
L 251.826667 79.813014 
L 227.826667 79.813014 
z
" style="opacity:0.5;stroke:#000000;stroke-linejoin:miter;"/>
    </g>
    <g id="text_22">
     <!-- Bootstrap sampling dist. -->
     <defs>
      <path d="M 1.703125 66.203125 
L 1.703125 64 
C 10.09375 64 11.296875 62.90625 11.296875 55.4375 
L 11.296875 10.765625 
C 11.296875 3.3125 10 2 1.703125 2 
L 1.703125 0 
L 35.09375 0 
C 42.90625 0 50 2.125 53.703125 5.5625 
C 57.296875 8.8125 59.296875 13.359375 59.296875 18.203125 
C 59.296875 22.671875 57.5 26.71875 54.40625 29.640625 
C 51.40625 32.375 48.703125 33.59375 42.203125 35.203125 
C 47.40625 36.484375 49.5 37.46875 51.90625 39.546875 
C 54.40625 41.734375 55.90625 45.359375 55.90625 49.421875 
C 55.90625 60.484375 47 66.203125 29.703125 66.203125 
z
M 21.5 33 
C 31.203125 33 35.796875 32.5 39.40625 30.96875 
C 45.09375 28.546875 47.796875 24.5 47.796875 18.109375 
C 47.796875 12.640625 45.703125 8.671875 41.703125 6.34375 
C 38.5 4.53125 34.40625 3.71875 27.796875 3.71875 
C 22.90625 3.71875 21.5 4.625 21.5 7.875 
z
M 21.5 37 
L 21.5 59.5625 
C 21.5 61.625 22.203125 62.515625 23.703125 62.515625 
L 28.09375 62.515625 
C 39.59375 62.515625 45.703125 57.796875 45.703125 49.015625 
C 45.703125 41.34375 40.40625 37 31 37 
z
" id="Nimbus_Roman_No9_L_Regular-66"/>
      <path d="M 25.5 45 
L 15.40625 45 
L 15.40625 56.59375 
C 15.40625 57.59375 15.296875 57.90625 14.703125 57.90625 
C 14 57 13.40625 56.09375 12.703125 55.09375 
C 8.90625 49.59375 4.59375 44.796875 3 44.390625 
C 1.90625 43.65625 1.296875 42.9375 1.296875 42.421875 
C 1.296875 42.109375 1.40625 41.90625 1.703125 41.90625 
L 7 41.90625 
L 7 11.734375 
C 7 3.3125 10 -1 15.90625 -1 
C 20.796875 -1 24.59375 1.40625 27.90625 6.609375 
L 26.59375 7.703125 
C 24.5 5.203125 22.796875 4.203125 20.59375 4.203125 
C 16.90625 4.203125 15.40625 6.921875 15.40625 13.234375 
L 15.40625 41.90625 
L 25.5 41.90625 
z
" id="Nimbus_Roman_No9_L_Regular-116"/>
      <path d="M 31.5 31.40625 
L 31.09375 45 
L 30 45 
L 29.796875 44.796875 
C 28.90625 44.09375 28.796875 44 28.40625 44 
C 27.796875 44 26.796875 44.203125 25.703125 44.703125 
C 23.5 45.546875 21.296875 46 18.703125 46 
C 10.796875 46 5.09375 40.875 5.09375 33.65625 
C 5.09375 28.0625 8.296875 24.046875 16.796875 19.234375 
L 22.59375 15.9375 
C 26.09375 13.9375 27.796875 11.515625 27.796875 8.421875 
C 27.796875 4 24.59375 1.203125 19.5 1.203125 
C 16.09375 1.203125 13 2.484375 11.09375 4.65625 
C 9 7.109375 8.09375 9.375 6.796875 15 
L 5.203125 15 
L 5.203125 -0.609375 
L 6.5 -0.609375 
C 7.203125 0.515625 7.59375 0.75 8.796875 0.75 
C 9.703125 0.75 11.09375 0.546875 13.40625 -0.03125 
C 16.203125 -0.609375 18.90625 -1 20.703125 -1 
C 28.40625 -1 34.796875 4.8125 34.796875 11.828125 
C 34.796875 16.828125 32.40625 20.140625 26.40625 23.75 
L 15.59375 30.15625 
C 12.796875 31.765625 11.296875 34.28125 11.296875 36.984375 
C 11.296875 41 14.40625 43.796875 19 43.796875 
C 24.703125 43.796875 27.703125 40.359375 30 31.40625 
z
" id="Nimbus_Roman_No9_L_Regular-115"/>
      <path d="M 44.203125 6.609375 
C 42.5 5.203125 41.296875 4.703125 39.796875 4.703125 
C 37.5 4.703125 36.796875 6.09375 36.796875 10.5 
L 36.796875 30 
C 36.796875 35.203125 36.296875 38.09375 34.796875 40.5 
C 32.59375 44.09375 28.296875 46 22.40625 46 
C 13 46 5.59375 41.09375 5.59375 34.796875 
C 5.59375 32.5 7.59375 30.5 9.90625 30.5 
C 12.296875 30.5 14.40625 32.5 14.40625 34.703125 
C 14.40625 35.09375 14.296875 35.59375 14.203125 36.296875 
C 14 37.203125 13.90625 38 13.90625 38.703125 
C 13.90625 41.40625 17.09375 43.59375 21.09375 43.59375 
C 26 43.59375 28.703125 40.703125 28.703125 35.296875 
L 28.703125 29.203125 
C 13.296875 23 11.59375 22.203125 7.296875 18.40625 
C 5.09375 16.40625 3.703125 13 3.703125 9.703125 
C 3.703125 3.40625 8.09375 -1 14.203125 -1 
C 18.59375 -1 22.703125 1.09375 28.796875 6.296875 
C 29.296875 1.09375 31.09375 -1 35.203125 -1 
C 38.59375 -1 40.703125 0.203125 44.203125 4 
z
M 28.703125 12.234375 
C 28.703125 9.125 28.203125 8.21875 26.09375 7.015625 
C 23.703125 5.609375 20.90625 4.703125 18.796875 4.703125 
C 15.296875 4.703125 12.5 8.125 12.5 12.4375 
L 12.5 12.84375 
C 12.5 18.765625 16.59375 22.390625 28.703125 26.796875 
z
" id="Nimbus_Roman_No9_L_Regular-97"/>
      <path d="M 0.90625 39.3125 
C 1.796875 39.40625 2.5 39.40625 3.40625 39.40625 
C 6.796875 39.40625 7.5 38.40625 7.5 33.671875 
L 7.5 -13.359375 
C 7.5 -18.578125 6.40625 -19.703125 0.5 -20.296875 
L 0.5 -22 
L 24.703125 -22 
L 24.703125 -20.203125 
C 17.203125 -20.203125 15.90625 -19.09375 15.90625 -12.75 
L 15.90625 3.109375 
C 19.40625 -0.203125 21.796875 -1.203125 26 -1.203125 
C 37.796875 -1.203125 47 10.046875 47 24.609375 
C 47 37.0625 40 46 30.296875 46 
C 24.703125 46 20.296875 43.5 15.90625 38.09375 
L 15.90625 45.796875 
L 15.296875 46 
C 9.90625 43.90625 6.40625 42.59375 0.90625 40.90625 
z
M 15.90625 33.375 
C 15.90625 36.390625 21.5 40 26.09375 40 
C 33.5 40 38.40625 32.359375 38.40625 20.6875 
C 38.40625 9.546875 33.5 2 26.296875 2 
C 21.59375 2 15.90625 5.609375 15.90625 8.625 
z
" id="Nimbus_Roman_No9_L_Regular-112"/>
      <path d="M 1.90625 62.5 
L 2.5 62.5 
C 3.59375 62.5 4.796875 62.5 5.59375 62.5 
C 8.796875 62.5 9.796875 61.09375 9.796875 56.40625 
L 9.796875 8.703125 
C 9.796875 3.296875 8.40625 2 2.09375 1.5 
L 2.09375 0 
L 25.703125 0 
L 25.703125 1.703125 
C 19.40625 1.703125 18.203125 2.703125 18.203125 8.25 
L 18.203125 68.296875 
L 17.796875 68.5 
C 12.59375 66.796875 8.796875 65.796875 1.90625 64.109375 
z
" id="Nimbus_Roman_No9_L_Regular-108"/>
      <path d="M 17.5 45.765625 
L 2 40.296875 
L 2 38.8125 
L 2.796875 38.90625 
C 4 39.09375 5.296875 39.203125 6.203125 39.203125 
C 8.59375 39.203125 9.5 37.59375 9.5 33.203125 
L 9.5 10 
C 9.5 2.796875 8.5 1.703125 1.59375 1.703125 
L 1.59375 0 
L 25.296875 0 
L 25.296875 1.5 
C 18.703125 2 17.90625 2.984375 17.90625 10.15625 
L 17.90625 45.46875 
z
M 12.796875 68 
C 10.09375 68 7.796875 65.703125 7.796875 62.90625 
C 7.796875 60.109375 10 57.796875 12.796875 57.796875 
C 15.703125 57.796875 18 60 18 62.90625 
C 18 65.703125 15.703125 68 12.796875 68 
z
" id="Nimbus_Roman_No9_L_Regular-105"/>
      <path d="M 47 39 
L 47 42.90625 
L 39.296875 42.90625 
C 37.296875 42.90625 35.796875 43.171875 33.796875 43.78125 
L 31.59375 44.484375 
C 28.90625 45.359375 26.203125 45.796875 23.59375 45.796875 
C 14.296875 45.796875 6.90625 38.546875 6.90625 29.390625 
C 6.90625 23.0625 9.59375 19.21875 16.203125 15.90625 
C 14.296875 14.15625 12.5 12.484375 11.90625 12 
C 8.59375 9.1875 7.296875 7.234375 7.296875 5.28125 
C 7.296875 3.21875 8.5 2.046875 12.59375 0.09375 
C 5.5 -5.140625 2.796875 -8.484375 2.796875 -12.203125 
C 2.796875 -17.5625 10.59375 -22 20.09375 -22 
C 27.59375 -22 35.40625 -19.34375 40.59375 -15.03125 
C 44.40625 -11.859375 46.09375 -8.5625 46.09375 -4.671875 
C 46.09375 1.6875 41.40625 6 34 6 
L 21.09375 6 
C 15.796875 6 13.296875 6.921875 13.296875 8.5625 
C 13.296875 10.59375 16.59375 14.1875 19.296875 15 
C 20.203125 14.890625 20.90625 14.796875 21.203125 14.796875 
C 23.09375 14.59375 24.40625 14.5 25 14.5 
C 28.703125 14.5 32.703125 16.03125 35.796875 18.796875 
C 39.09375 21.671875 40.59375 25.265625 40.59375 30.390625 
C 40.59375 33.359375 40.09375 35.71875 38.703125 39 
z
M 14.703125 -0.203125 
C 18 -0.90625 26 -1.5 30.90625 -1.5 
C 40 -1.5 43.296875 -2.8125 43.296875 -6.46875 
C 43.296875 -12.359375 35.703125 -16.296875 24.40625 -16.296875 
C 15.59375 -16.296875 9.796875 -13.359375 9.796875 -8.90625 
C 9.796875 -6.5625 10.5 -5.25 14.703125 -0.203125 
z
M 15.203125 33.515625 
C 15.203125 39.46875 18 43 22.59375 43 
C 25.703125 43 28.296875 41.28125 29.90625 38.265625 
C 31.703125 34.734375 32.90625 30.109375 32.90625 26.171875 
C 32.90625 20.53125 30 17 25.40625 17 
C 19.40625 17 15.203125 23.546875 15.203125 33.21875 
z
" id="Nimbus_Roman_No9_L_Regular-103"/>
      <path d="M 34.40625 -1 
L 49.09375 4.203125 
L 49.09375 5.703125 
C 47.296875 5.703125 47.09375 5.703125 46.796875 5.703125 
C 43.203125 5.703125 42.40625 6.796875 42.40625 11.421875 
L 42.40625 68.1875 
L 41.90625 68.390625 
C 37.09375 66.6875 33.59375 65.6875 27.203125 64 
L 27.203125 62.40625 
C 28 62.5 28.59375 62.5 29.40625 62.5 
C 33.09375 62.5 34 61.5 34 57.375 
L 34 41.703125 
C 30.203125 44.90625 27.5 46 23.5 46 
C 12 46 2.703125 34.703125 2.703125 20.5 
C 2.703125 7.703125 10.203125 -1 21.203125 -1 
C 26.796875 -1 30.59375 1 34 5.703125 
L 34 -0.703125 
z
M 34 10.203125 
C 34 9.5 33.296875 8.296875 32.296875 7.203125 
C 30.5 5.203125 28 4.203125 25.09375 4.203125 
C 16.796875 4.203125 11.296875 12.203125 11.296875 24.5 
C 11.296875 35.796875 16.203125 43.203125 23.796875 43.203125 
C 29.09375 43.203125 34 38.5 34 33.203125 
z
" id="Nimbus_Roman_No9_L_Regular-100"/>
     </defs>
     <g transform="translate(261.426667 88.213014)scale(0.12 -0.12)">
      <use transform="scale(0.996264)" xlink:href="#Nimbus_Roman_No9_L_Regular-66"/>
      <use transform="translate(66.450031 0)scale(0.996264)" xlink:href="#Nimbus_Roman_No9_L_Regular-111"/>
      <use transform="translate(116.263232 0)scale(0.996264)" xlink:href="#Nimbus_Roman_No9_L_Regular-111"/>
      <use transform="translate(166.076432 0)scale(0.996264)" xlink:href="#Nimbus_Roman_No9_L_Regular-116"/>
      <use transform="translate(193.771602 0)scale(0.996264)" xlink:href="#Nimbus_Roman_No9_L_Regular-115"/>
      <use transform="translate(232.525308 0)scale(0.996264)" xlink:href="#Nimbus_Roman_No9_L_Regular-116"/>
      <use transform="translate(260.220478 0)scale(0.996264)" xlink:href="#Nimbus_Roman_No9_L_Regular-114"/>
      <use transform="translate(293.395707 0)scale(0.996264)" xlink:href="#Nimbus_Roman_No9_L_Regular-97"/>
      <use transform="translate(337.629276 0)scale(0.996264)" xlink:href="#Nimbus_Roman_No9_L_Regular-112"/>
      <use transform="translate(412.349077 0)scale(0.996264)" xlink:href="#Nimbus_Roman_No9_L_Regular-115"/>
      <use transform="translate(451.102783 0)scale(0.996264)" xlink:href="#Nimbus_Roman_No9_L_Regular-97"/>
      <use transform="translate(495.336352 0)scale(0.996264)" xlink:href="#Nimbus_Roman_No9_L_Regular-109"/>
      <use transform="translate(572.844722 0)scale(0.996264)" xlink:href="#Nimbus_Roman_No9_L_Regular-112"/>
      <use transform="translate(622.657922 0)scale(0.996264)" xlink:href="#Nimbus_Roman_No9_L_Regular-108"/>
      <use transform="translate(650.353092 0)scale(0.996264)" xlink:href="#Nimbus_Roman_No9_L_Regular-105"/>
      <use transform="translate(678.048261 0)scale(0.996264)" xlink:href="#Nimbus_Roman_No9_L_Regular-110"/>
      <use transform="translate(727.861462 0)scale(0.996264)" xlink:href="#Nimbus_Roman_No9_L_Regular-103"/>
      <use transform="translate(802.581263 0)scale(0.996264)" xlink:href="#Nimbus_Roman_No9_L_Regular-100"/>
      <use transform="translate(852.394463 0)scale(0.996264)" xlink:href="#Nimbus_Roman_No9_L_Regular-105"/>
      <use transform="translate(880.089633 0)scale(0.996264)" xlink:href="#Nimbus_Roman_No9_L_Regular-115"/>
      <use transform="translate(918.843339 0)scale(0.996264)" xlink:href="#Nimbus_Roman_No9_L_Regular-116"/>
      <use transform="translate(946.538509 0)scale(0.996264)" xlink:href="#Nimbus_Roman_No9_L_Regular-46"/>
     </g>
    </g>
   </g>
  </g>
 </g>
 <defs>
  <clipPath id="pba935c3699">
   <rect height="217.44" width="334.8" x="54" y="34.56"/>
  </clipPath>
 </defs>
</svg>
