<?xml version="1.0" encoding="utf-8" standalone="no"?>
<!DOCTYPE svg PUBLIC "-//W3C//DTD SVG 1.1//EN"
  "http://www.w3.org/Graphics/SVG/1.1/DTD/svg11.dtd">
<!-- Created with matplotlib (https://matplotlib.org/) -->
<svg height="288pt" version="1.1" viewBox="0 0 432 288" width="432pt" xmlns="http://www.w3.org/2000/svg" xmlns:xlink="http://www.w3.org/1999/xlink">
 <defs>
  <style type="text/css">
*{stroke-linecap:butt;stroke-linejoin:round;}
  </style>
 </defs>
 <g id="figure_1">
  <g id="patch_1">
   <path d="M 0 288 
L 432 288 
L 432 0 
L 0 0 
z
" style="fill:none;"/>
  </g>
  <g id="axes_1">
   <g id="patch_2">
    <path d="M 54 252 
L 388.8 252 
L 388.8 34.56 
L 54 34.56 
z
" style="fill:none;"/>
   </g>
   <g id="patch_3">
    <path clip-path="url(#p2873939b7a)" d="M 69.218182 252 
L 75.429685 252 
L 75.429685 252 
L 69.218182 252 
z
" style="opacity:0.5;"/>
   </g>
   <g id="patch_4">
    <path clip-path="url(#p2873939b7a)" d="M 75.429685 252 
L 81.641187 252 
L 81.641187 252 
L 75.429685 252 
z
" style="opacity:0.5;"/>
   </g>
   <g id="patch_5">
    <path clip-path="url(#p2873939b7a)" d="M 81.641187 252 
L 87.85269 252 
L 87.85269 252 
L 81.641187 252 
z
" style="opacity:0.5;"/>
   </g>
   <g id="patch_6">
    <path clip-path="url(#p2873939b7a)" d="M 87.85269 252 
L 94.064193 252 
L 94.064193 252 
L 87.85269 252 
z
" style="opacity:0.5;"/>
   </g>
   <g id="patch_7">
    <path clip-path="url(#p2873939b7a)" d="M 94.064193 252 
L 100.275696 252 
L 100.275696 252 
L 94.064193 252 
z
" style="opacity:0.5;"/>
   </g>
   <g id="patch_8">
    <path clip-path="url(#p2873939b7a)" d="M 100.275696 252 
L 106.487199 252 
L 106.487199 251.715878 
L 100.275696 251.715878 
z
" style="opacity:0.5;"/>
   </g>
   <g id="patch_9">
    <path clip-path="url(#p2873939b7a)" d="M 106.487199 252 
L 112.698701 252 
L 112.698701 251.715878 
L 106.487199 251.715878 
z
" style="opacity:0.5;"/>
   </g>
   <g id="patch_10">
    <path clip-path="url(#p2873939b7a)" d="M 112.698701 252 
L 118.910204 252 
L 118.910204 250.579392 
L 112.698701 250.579392 
z
" style="opacity:0.5;"/>
   </g>
   <g id="patch_11">
    <path clip-path="url(#p2873939b7a)" d="M 118.910204 252 
L 125.121707 252 
L 125.121707 248.590541 
L 118.910204 248.590541 
z
" style="opacity:0.5;"/>
   </g>
   <g id="patch_12">
    <path clip-path="url(#p2873939b7a)" d="M 125.121707 252 
L 131.33321 252 
L 131.33321 244.328717 
L 125.121707 244.328717 
z
" style="opacity:0.5;"/>
   </g>
   <g id="patch_13">
    <path clip-path="url(#p2873939b7a)" d="M 131.33321 252 
L 137.544712 252 
L 137.544712 238.646285 
L 131.33321 238.646285 
z
" style="opacity:0.5;"/>
   </g>
   <g id="patch_14">
    <path clip-path="url(#p2873939b7a)" d="M 137.544712 252 
L 143.756215 252 
L 143.756215 229.270272 
L 137.544712 229.270272 
z
" style="opacity:0.5;"/>
   </g>
   <g id="patch_15">
    <path clip-path="url(#p2873939b7a)" d="M 143.756215 252 
L 149.967718 252 
L 149.967718 219.326016 
L 143.756215 219.326016 
z
" style="opacity:0.5;"/>
   </g>
   <g id="patch_16">
    <path clip-path="url(#p2873939b7a)" d="M 149.967718 252 
L 156.179221 252 
L 156.179221 202.27872 
L 149.967718 202.27872 
z
" style="opacity:0.5;"/>
   </g>
   <g id="patch_17">
    <path clip-path="url(#p2873939b7a)" d="M 156.179221 252 
L 162.390724 252 
L 162.390724 185.231424 
L 156.179221 185.231424 
z
" style="opacity:0.5;"/>
   </g>
   <g id="patch_18">
    <path clip-path="url(#p2873939b7a)" d="M 162.390724 252 
L 168.602226 252 
L 168.602226 153.978048 
L 162.390724 153.978048 
z
" style="opacity:0.5;"/>
   </g>
   <g id="patch_19">
    <path clip-path="url(#p2873939b7a)" d="M 168.602226 252 
L 174.813729 252 
L 174.813729 128.975347 
L 168.602226 128.975347 
z
" style="opacity:0.5;"/>
   </g>
   <g id="patch_20">
    <path clip-path="url(#p2873939b7a)" d="M 174.813729 252 
L 181.025232 252 
L 181.025232 115.053389 
L 174.813729 115.053389 
z
" style="opacity:0.5;"/>
   </g>
   <g id="patch_21">
    <path clip-path="url(#p2873939b7a)" d="M 181.025232 252 
L 187.236735 252 
L 187.236735 87.493594 
L 181.025232 87.493594 
z
" style="opacity:0.5;"/>
   </g>
   <g id="patch_22">
    <path clip-path="url(#p2873939b7a)" d="M 187.236735 252 
L 193.448237 252 
L 193.448237 60.502042 
L 187.236735 60.502042 
z
" style="opacity:0.5;"/>
   </g>
   <g id="patch_23">
    <path clip-path="url(#p2873939b7a)" d="M 193.448237 252 
L 199.65974 252 
L 199.65974 51.978394 
L 193.448237 51.978394 
z
" style="opacity:0.5;"/>
   </g>
   <g id="patch_24">
    <path clip-path="url(#p2873939b7a)" d="M 199.65974 252 
L 205.871243 252 
L 205.871243 53.11488 
L 199.65974 53.11488 
z
" style="opacity:0.5;"/>
   </g>
   <g id="patch_25">
    <path clip-path="url(#p2873939b7a)" d="M 205.871243 252 
L 212.082746 252 
L 212.082746 47.148326 
L 205.871243 47.148326 
z
" style="opacity:0.5;"/>
   </g>
   <g id="patch_26">
    <path clip-path="url(#p2873939b7a)" d="M 212.082746 252 
L 218.294249 252 
L 218.294249 50.557786 
L 212.082746 50.557786 
z
" style="opacity:0.5;"/>
   </g>
   <g id="patch_27">
    <path clip-path="url(#p2873939b7a)" d="M 218.294249 252 
L 224.505751 252 
L 224.505751 71.298662 
L 218.294249 71.298662 
z
" style="opacity:0.5;"/>
   </g>
   <g id="patch_28">
    <path clip-path="url(#p2873939b7a)" d="M 224.505751 252 
L 230.717254 252 
L 230.717254 78.117581 
L 224.505751 78.117581 
z
" style="opacity:0.5;"/>
   </g>
   <g id="patch_29">
    <path clip-path="url(#p2873939b7a)" d="M 230.717254 252 
L 236.928757 252 
L 236.928757 98.006093 
L 230.717254 98.006093 
z
" style="opacity:0.5;"/>
   </g>
   <g id="patch_30">
    <path clip-path="url(#p2873939b7a)" d="M 236.928757 252 
L 243.14026 252 
L 243.14026 117.610483 
L 236.928757 117.610483 
z
" style="opacity:0.5;"/>
   </g>
   <g id="patch_31">
    <path clip-path="url(#p2873939b7a)" d="M 243.14026 252 
L 249.351763 252 
L 249.351763 133.805414 
L 243.14026 133.805414 
z
" style="opacity:0.5;"/>
   </g>
   <g id="patch_32">
    <path clip-path="url(#p2873939b7a)" d="M 249.351763 252 
L 255.563265 252 
L 255.563265 164.774669 
L 249.351763 164.774669 
z
" style="opacity:0.5;"/>
   </g>
   <g id="patch_33">
    <path clip-path="url(#p2873939b7a)" d="M 255.563265 252 
L 261.774768 252 
L 261.774768 176.139533 
L 255.563265 176.139533 
z
" style="opacity:0.5;"/>
   </g>
   <g id="patch_34">
    <path clip-path="url(#p2873939b7a)" d="M 261.774768 252 
L 267.986271 252 
L 267.986271 190.913856 
L 261.774768 190.913856 
z
" style="opacity:0.5;"/>
   </g>
   <g id="patch_35">
    <path clip-path="url(#p2873939b7a)" d="M 267.986271 252 
L 274.197774 252 
L 274.197774 213.359462 
L 267.986271 213.359462 
z
" style="opacity:0.5;"/>
   </g>
   <g id="patch_36">
    <path clip-path="url(#p2873939b7a)" d="M 274.197774 252 
L 280.409276 252 
L 280.409276 218.757773 
L 274.197774 218.757773 
z
" style="opacity:0.5;"/>
   </g>
   <g id="patch_37">
    <path clip-path="url(#p2873939b7a)" d="M 280.409276 252 
L 286.620779 252 
L 286.620779 230.406758 
L 280.409276 230.406758 
z
" style="opacity:0.5;"/>
   </g>
   <g id="patch_38">
    <path clip-path="url(#p2873939b7a)" d="M 286.620779 252 
L 292.832282 252 
L 292.832282 238.078042 
L 286.620779 238.078042 
z
" style="opacity:0.5;"/>
   </g>
   <g id="patch_39">
    <path clip-path="url(#p2873939b7a)" d="M 292.832282 252 
L 299.043785 252 
L 299.043785 237.225677 
L 292.832282 237.225677 
z
" style="opacity:0.5;"/>
   </g>
   <g id="patch_40">
    <path clip-path="url(#p2873939b7a)" d="M 299.043785 252 
L 305.255288 252 
L 305.255288 245.465203 
L 299.043785 245.465203 
z
" style="opacity:0.5;"/>
   </g>
   <g id="patch_41">
    <path clip-path="url(#p2873939b7a)" d="M 305.255288 252 
L 311.46679 252 
L 311.46679 248.306419 
L 305.255288 248.306419 
z
" style="opacity:0.5;"/>
   </g>
   <g id="patch_42">
    <path clip-path="url(#p2873939b7a)" d="M 311.46679 252 
L 317.678293 252 
L 317.678293 249.158784 
L 311.46679 249.158784 
z
" style="opacity:0.5;"/>
   </g>
   <g id="patch_43">
    <path clip-path="url(#p2873939b7a)" d="M 317.678293 252 
L 323.889796 252 
L 323.889796 250.863514 
L 317.678293 250.863514 
z
" style="opacity:0.5;"/>
   </g>
   <g id="patch_44">
    <path clip-path="url(#p2873939b7a)" d="M 323.889796 252 
L 330.101299 252 
L 330.101299 250.579392 
L 323.889796 250.579392 
z
" style="opacity:0.5;"/>
   </g>
   <g id="patch_45">
    <path clip-path="url(#p2873939b7a)" d="M 330.101299 252 
L 336.312801 252 
L 336.312801 252 
L 330.101299 252 
z
" style="opacity:0.5;"/>
   </g>
   <g id="patch_46">
    <path clip-path="url(#p2873939b7a)" d="M 336.312801 252 
L 342.524304 252 
L 342.524304 251.715878 
L 336.312801 251.715878 
z
" style="opacity:0.5;"/>
   </g>
   <g id="patch_47">
    <path clip-path="url(#p2873939b7a)" d="M 342.524304 252 
L 348.735807 252 
L 348.735807 251.715878 
L 342.524304 251.715878 
z
" style="opacity:0.5;"/>
   </g>
   <g id="patch_48">
    <path clip-path="url(#p2873939b7a)" d="M 348.735807 252 
L 354.94731 252 
L 354.94731 252 
L 348.735807 252 
z
" style="opacity:0.5;"/>
   </g>
   <g id="patch_49">
    <path clip-path="url(#p2873939b7a)" d="M 354.94731 252 
L 361.158813 252 
L 361.158813 252 
L 354.94731 252 
z
" style="opacity:0.5;"/>
   </g>
   <g id="patch_50">
    <path clip-path="url(#p2873939b7a)" d="M 361.158813 252 
L 367.370315 252 
L 367.370315 252 
L 361.158813 252 
z
" style="opacity:0.5;"/>
   </g>
   <g id="patch_51">
    <path clip-path="url(#p2873939b7a)" d="M 367.370315 252 
L 373.581818 252 
L 373.581818 252 
L 367.370315 252 
z
" style="opacity:0.5;"/>
   </g>
   <g id="matplotlib.axis_1">
    <g id="xtick_1">
     <g id="line2d_1">
      <defs>
       <path d="M 0 0 
L 0 3.5 
" id="m69e6b92bee" style="stroke:#000000;stroke-width:0.8;"/>
      </defs>
      <g>
       <use style="stroke:#000000;stroke-width:0.8;" x="69.218182" xlink:href="#m69e6b92bee" y="252"/>
      </g>
     </g>
     <g id="text_1">
      <!-- 0.0 -->
      <defs>
       <path d="M 23.921875 1.8125 
Q 31.109375 1.8125 33.78125 9.671875 
Q 36.46875 17.53125 36.46875 32.421875 
Q 36.46875 44.28125 34.859375 51.375 
Q 31.84375 64.546875 23.53125 64.546875 
Q 15.234375 64.546875 12.15625 50.984375 
Q 10.546875 43.75 10.546875 31.9375 
Q 10.546875 20.84375 12.203125 14.203125 
Q 15.328125 1.8125 23.921875 1.8125 
z
M 23.78125 67.1875 
Q 35.015625 67.1875 41.21875 55.421875 
Q 46.140625 45.90625 46.140625 33.546875 
Q 46.140625 23.828125 43.109375 15.234375 
Q 37.40625 -0.921875 23.34375 -0.921875 
Q 13.71875 -0.921875 7.515625 7.8125 
Q 0.875 17.140625 0.875 33.15625 
Q 0.875 45.75 5.328125 54.828125 
Q 11.328125 67.1875 23.78125 67.1875 
z
" id="Times-Roman-48"/>
       <path d="M 16.3125 -1.171875 
Q 13.96875 -1.171875 12.359375 0.453125 
Q 10.75 2.09375 10.75 4.390625 
Q 10.75 6.6875 12.375 8.296875 
Q 14.015625 9.90625 16.3125 9.90625 
Q 18.609375 9.90625 20.21875 8.296875 
Q 21.828125 6.6875 21.828125 4.390625 
Q 21.828125 2.09375 20.234375 0.453125 
Q 18.65625 -1.171875 16.3125 -1.171875 
z
" id="Times-Roman-46"/>
      </defs>
      <g transform="translate(61.718182 267.2275)scale(0.12 -0.12)">
       <use xlink:href="#Times-Roman-48"/>
       <use x="50" xlink:href="#Times-Roman-46"/>
       <use x="75" xlink:href="#Times-Roman-48"/>
      </g>
     </g>
    </g>
    <g id="xtick_2">
     <g id="line2d_2">
      <g>
       <use style="stroke:#000000;stroke-width:0.8;" x="109.8" xlink:href="#m69e6b92bee" y="252"/>
      </g>
     </g>
     <g id="text_2">
      <!-- 0.2 -->
      <defs>
       <path d="M 2.984375 1.125 
Q 20.84375 19.671875 27.234375 28.359375 
Q 33.640625 37.0625 33.640625 45.3125 
Q 33.640625 52.546875 29.734375 56.328125 
Q 25.828125 60.109375 20.40625 60.109375 
Q 13.71875 60.109375 9.578125 55.21875 
Q 7.28125 52.546875 5.171875 46.96875 
L 3.078125 47.40625 
Q 5.515625 58.640625 11.34375 63.015625 
Q 17.1875 67.390625 23.875 67.390625 
Q 32.125 67.390625 37.21875 62.1875 
Q 42.328125 56.984375 42.328125 49.46875 
Q 42.328125 41.453125 36.8125 34.03125 
Q 31.296875 26.609375 12.84375 7.625 
L 35.25 7.625 
Q 39.9375 7.625 41.84375 8.734375 
Q 43.75 9.859375 46.140625 14.203125 
L 47.40625 13.625 
L 42 0 
L 2.984375 0 
z
" id="Times-Roman-50"/>
      </defs>
      <g transform="translate(102.3 267.2275)scale(0.12 -0.12)">
       <use xlink:href="#Times-Roman-48"/>
       <use x="50" xlink:href="#Times-Roman-46"/>
       <use x="75" xlink:href="#Times-Roman-50"/>
      </g>
     </g>
    </g>
    <g id="xtick_3">
     <g id="line2d_3">
      <g>
       <use style="stroke:#000000;stroke-width:0.8;" x="150.381818" xlink:href="#m69e6b92bee" y="252"/>
      </g>
     </g>
     <g id="text_3">
      <!-- 0.4 -->
      <defs>
       <path d="M 29.15625 57.03125 
L 5.171875 23.140625 
L 29.15625 23.140625 
z
M 32.375 67.09375 
L 37.015625 67.09375 
L 37.015625 23.140625 
L 47.21875 23.140625 
L 47.21875 16.65625 
L 37.015625 16.65625 
L 37.015625 0 
L 29.25 0 
L 29.25 16.65625 
L 1.125 16.65625 
L 1.125 23.140625 
z
" id="Times-Roman-52"/>
      </defs>
      <g transform="translate(142.881818 267.2275)scale(0.12 -0.12)">
       <use xlink:href="#Times-Roman-48"/>
       <use x="50" xlink:href="#Times-Roman-46"/>
       <use x="75" xlink:href="#Times-Roman-52"/>
      </g>
     </g>
    </g>
    <g id="xtick_4">
     <g id="line2d_4">
      <g>
       <use style="stroke:#000000;stroke-width:0.8;" x="190.963636" xlink:href="#m69e6b92bee" y="252"/>
      </g>
     </g>
     <g id="text_4">
      <!-- 0.6 -->
      <defs>
       <path d="M 46.78125 22.21875 
Q 46.78125 13.28125 41.03125 6.09375 
Q 35.296875 -1.078125 26.125 -1.078125 
Q 17.53125 -1.078125 10.46875 6.984375 
Q 3.421875 15.046875 3.421875 28.421875 
Q 3.421875 45.65625 17.09375 58.015625 
Q 29.296875 68.359375 44.53125 68.359375 
L 44.78125 66.75 
Q 38.671875 65.625 34.25 63.6875 
Q 29.828125 61.765625 26.375 58.296875 
Q 22.796875 54.78125 19.671875 49.359375 
Q 16.546875 43.953125 15.375 38.625 
Q 18.40625 40.484375 20.609375 41.359375 
Q 24.515625 42.921875 28.46875 42.921875 
Q 36.234375 42.921875 41.5 37.546875 
Q 46.78125 32.171875 46.78125 22.21875 
z
M 37.84375 18.453125 
Q 37.84375 24.953125 35.796875 29.984375 
Q 32.375 38.375 24.171875 38.375 
Q 16.609375 38.375 14.109375 33.890625 
Q 12.640625 31.25 12.640625 25.09375 
Q 12.640625 17.140625 16.03125 9.515625 
Q 19.4375 1.90625 26.765625 1.90625 
Q 32.5625 1.90625 35.203125 6.859375 
Q 37.84375 11.8125 37.84375 18.453125 
z
" id="Times-Roman-54"/>
      </defs>
      <g transform="translate(183.463636 267.2275)scale(0.12 -0.12)">
       <use xlink:href="#Times-Roman-48"/>
       <use x="50" xlink:href="#Times-Roman-46"/>
       <use x="75" xlink:href="#Times-Roman-54"/>
      </g>
     </g>
    </g>
    <g id="xtick_5">
     <g id="line2d_5">
      <g>
       <use style="stroke:#000000;stroke-width:0.8;" x="231.545455" xlink:href="#m69e6b92bee" y="252"/>
      </g>
     </g>
     <g id="text_5">
      <!-- 0.8 -->
      <defs>
       <path d="M 25.140625 1.65625 
Q 30.765625 1.65625 33.640625 4.78125 
Q 36.53125 7.90625 36.53125 12.59375 
Q 36.53125 17.921875 33.46875 21.21875 
Q 30.421875 24.515625 20.953125 31.203125 
Q 16.75 28.5625 14.84375 24.359375 
Q 12.9375 20.171875 12.9375 16.265625 
Q 12.9375 9.578125 16.375 5.609375 
Q 19.828125 1.65625 25.140625 1.65625 
z
M 25.78125 38.96875 
Q 30.375 42.1875 32.125 44.390625 
Q 35.15625 48.140625 35.15625 53.46875 
Q 35.15625 58.109375 32.296875 61.34375 
Q 29.4375 64.59375 23.640625 64.59375 
Q 19.140625 64.59375 16.203125 61.765625 
Q 13.28125 58.9375 13.28125 54.890625 
Q 13.28125 50.296875 16.71875 46.359375 
Q 20.171875 42.4375 25.78125 38.96875 
z
M 18.265625 33.296875 
Q 11.8125 38.484375 9.46875 41.546875 
Q 5.859375 46.234375 5.859375 51.90625 
Q 5.859375 58.34375 11.203125 62.828125 
Q 16.546875 67.328125 25.09375 67.328125 
Q 32.953125 67.328125 37.59375 63.078125 
Q 42.234375 58.84375 42.234375 53.21875 
Q 42.234375 47.515625 37.5 42.96875 
Q 34.765625 40.375 28.65625 37.015625 
Q 36.96875 30.859375 40.546875 26.296875 
Q 44.140625 21.734375 44.140625 15.53125 
Q 44.140625 8.5 38.84375 3.703125 
Q 33.546875 -1.078125 24.65625 -1.078125 
Q 16.703125 -1.078125 11.015625 3.34375 
Q 5.328125 7.765625 5.328125 14.984375 
Q 5.328125 21.1875 9.28125 25.921875 
Q 11.859375 29 18.265625 33.296875 
z
" id="Times-Roman-56"/>
      </defs>
      <g transform="translate(224.045455 267.2275)scale(0.12 -0.12)">
       <use xlink:href="#Times-Roman-48"/>
       <use x="50" xlink:href="#Times-Roman-46"/>
       <use x="75" xlink:href="#Times-Roman-56"/>
      </g>
     </g>
    </g>
    <g id="xtick_6">
     <g id="line2d_6">
      <g>
       <use style="stroke:#000000;stroke-width:0.8;" x="272.127273" xlink:href="#m69e6b92bee" y="252"/>
      </g>
     </g>
     <g id="text_6">
      <!-- 1.0 -->
      <defs>
       <path d="M 29.59375 67.09375 
Q 29.78125 66.84375 29.796875 66.71875 
Q 29.828125 66.609375 29.828125 66.15625 
L 29.828125 7.375 
Q 29.828125 3.609375 31.828125 2.578125 
Q 33.84375 1.5625 39.3125 1.375 
L 39.3125 0 
L 11.765625 0 
L 11.765625 1.46875 
Q 17.671875 1.765625 19.484375 3.078125 
Q 21.296875 4.390625 21.296875 8.796875 
L 21.296875 54 
Q 21.296875 56.34375 20.703125 57.5625 
Q 20.125 58.796875 18.171875 58.796875 
Q 16.890625 58.796875 14.859375 58.078125 
Q 12.84375 57.375 11.078125 56.59375 
L 11.078125 57.953125 
L 29 67.09375 
L 29.59375 67.09375 
z
" id="Times-Roman-49"/>
      </defs>
      <g transform="translate(264.627273 267.2275)scale(0.12 -0.12)">
       <use xlink:href="#Times-Roman-49"/>
       <use x="50" xlink:href="#Times-Roman-46"/>
       <use x="75" xlink:href="#Times-Roman-48"/>
      </g>
     </g>
    </g>
    <g id="xtick_7">
     <g id="line2d_7">
      <g>
       <use style="stroke:#000000;stroke-width:0.8;" x="312.709091" xlink:href="#m69e6b92bee" y="252"/>
      </g>
     </g>
     <g id="text_7">
      <!-- 1.2 -->
      <g transform="translate(305.209091 267.2275)scale(0.12 -0.12)">
       <use xlink:href="#Times-Roman-49"/>
       <use x="50" xlink:href="#Times-Roman-46"/>
       <use x="75" xlink:href="#Times-Roman-50"/>
      </g>
     </g>
    </g>
    <g id="xtick_8">
     <g id="line2d_8">
      <g>
       <use style="stroke:#000000;stroke-width:0.8;" x="353.290909" xlink:href="#m69e6b92bee" y="252"/>
      </g>
     </g>
     <g id="text_8">
      <!-- 1.4 -->
      <g transform="translate(345.790909 267.2275)scale(0.12 -0.12)">
       <use xlink:href="#Times-Roman-49"/>
       <use x="50" xlink:href="#Times-Roman-46"/>
       <use x="75" xlink:href="#Times-Roman-52"/>
      </g>
     </g>
    </g>
    <g id="text_9">
     <!-- CI width -->
     <defs>
      <path d="M 37.015625 67.328125 
Q 42.4375 67.328125 48.140625 65.71875 
Q 53.859375 64.109375 54.546875 64.109375 
Q 55.953125 64.109375 57.21875 64.890625 
Q 58.5 65.671875 58.984375 67.328125 
L 61.078125 67.328125 
L 62.015625 44.875 
L 59.71875 44.875 
Q 57.71875 51.5625 54.5 55.671875 
Q 48.34375 63.375 37.9375 63.375 
Q 27.4375 63.375 20.765625 55.078125 
Q 14.109375 46.78125 14.109375 32.234375 
Q 14.109375 18.84375 21.109375 10.859375 
Q 28.125 2.875 38.875 2.875 
Q 46.625 2.875 53.171875 6.59375 
Q 56.9375 8.6875 61.421875 12.9375 
L 63.28125 11.078125 
Q 59.96875 6.890625 55.03125 3.71875 
Q 46.625 -1.65625 36.8125 -1.65625 
Q 20.703125 -1.65625 11.234375 8.640625 
Q 2.484375 18.171875 2.484375 32.421875 
Q 2.484375 47.015625 11.71875 56.9375 
Q 21.4375 67.328125 37.015625 67.328125 
z
M 36.671875 67.328125 
z
" id="Times-Roman-67"/>
      <path d="M 1.609375 1.8125 
Q 7.71875 2.25 9.515625 3.640625 
Q 11.328125 5.03125 11.328125 10.84375 
L 11.328125 55.328125 
Q 11.328125 60.84375 9.515625 62.421875 
Q 7.71875 64.015625 1.609375 64.3125 
L 1.609375 66.15625 
L 31.203125 66.15625 
L 31.203125 64.3125 
Q 25.09375 64.015625 23.28125 62.421875 
Q 21.484375 60.84375 21.484375 55.328125 
L 21.484375 10.84375 
Q 21.484375 5.03125 23.28125 3.640625 
Q 25.09375 2.25 31.203125 1.8125 
L 31.203125 0 
L 1.609375 0 
z
M 16.40625 66.15625 
z
" id="Times-Roman-73"/>
      <path id="Times-Roman-32"/>
      <path d="M 46.484375 43.84375 
Q 43.5625 43.5 42.140625 42.859375 
Q 40.71875 42.234375 40.71875 40.328125 
Q 40.71875 39.3125 41.03125 38.203125 
Q 41.359375 37.109375 41.890625 35.640625 
L 50.78125 12.453125 
L 59.46875 33.640625 
Q 60.0625 35.015625 60.734375 37.234375 
Q 61.421875 39.453125 61.421875 40.578125 
Q 61.421875 42.390625 60.296875 43.015625 
Q 59.1875 43.65625 57.03125 43.953125 
L 57.03125 45.359375 
L 69.4375 45.359375 
L 69.4375 43.953125 
Q 68.21875 43.703125 67.4375 42.765625 
Q 66.65625 41.84375 65.234375 38.375 
L 49.609375 -0.140625 
Q 49.421875 -0.59375 49.265625 -0.78125 
Q 49.125 -0.984375 48.828125 -0.984375 
Q 48.25 -0.6875 48.140625 -0.484375 
L 37.109375 26.8125 
L 24.265625 -0.390625 
Q 24.171875 -0.640625 24 -0.8125 
Q 23.828125 -0.984375 23.578125 -0.984375 
Q 23 -0.6875 22.90625 -0.484375 
L 8.296875 35.5 
Q 5.90625 41.40625 5.125 42.453125 
Q 4.34375 43.5 2.046875 43.84375 
L 2.046875 45.359375 
L 20.125 45.359375 
L 20.125 43.84375 
Q 17.875 43.65625 16.671875 43.046875 
Q 15.484375 42.4375 15.484375 40.4375 
Q 15.484375 39.015625 17.484375 33.5 
Q 18.65625 30.328125 20.453125 25.78125 
L 26.03125 11.921875 
L 34.8125 30.765625 
L 34.90625 31.34375 
Q 34.90625 32.328125 33.859375 34.984375 
Q 32.8125 37.640625 31.84375 39.75 
Q 30.859375 41.9375 29.609375 42.796875 
Q 28.375 43.65625 26.125 43.84375 
L 26.125 45.359375 
L 46.484375 45.359375 
z
" id="Times-Roman-119"/>
      <path d="M 8.203125 63.03125 
Q 8.203125 65.140625 9.671875 66.65625 
Q 11.140625 68.171875 13.28125 68.171875 
Q 15.375 68.171875 16.859375 66.671875 
Q 18.359375 65.1875 18.359375 63.03125 
Q 18.359375 60.9375 16.859375 59.4375 
Q 15.375 57.953125 13.28125 57.953125 
Q 11.140625 57.953125 9.671875 59.4375 
Q 8.203125 60.9375 8.203125 63.03125 
z
M 1.953125 1.375 
Q 7.171875 1.859375 8.53125 3.140625 
Q 9.90625 4.4375 9.90625 10.15625 
L 9.90625 33.453125 
Q 9.90625 36.625 9.46875 37.84375 
Q 8.734375 39.84375 6.390625 39.84375 
Q 5.859375 39.84375 5.34375 39.75 
Q 4.828125 39.65625 2.390625 38.96875 
L 2.390625 40.484375 
L 4.5 41.15625 
Q 13.03125 43.953125 16.40625 45.359375 
Q 17.78125 45.953125 18.171875 45.953125 
Q 18.265625 45.609375 18.265625 45.21875 
L 18.265625 10.15625 
Q 18.265625 4.59375 19.609375 3.171875 
Q 20.953125 1.765625 25.6875 1.375 
L 25.6875 0 
L 1.953125 0 
z
" id="Times-Roman-105"/>
      <path d="M 23.6875 46.140625 
Q 27.25 46.140625 30.21875 44.578125 
Q 32.171875 43.5625 33.984375 41.75 
L 33.984375 57.28125 
Q 33.984375 60.25 33.328125 61.375 
Q 32.671875 62.5 30.171875 62.5 
Q 29.59375 62.5 29.15625 62.453125 
Q 28.71875 62.40625 27.203125 62.25 
L 27.203125 63.875 
L 31.203125 64.890625 
Q 33.40625 65.484375 35.59375 66.109375 
Q 37.796875 66.75 39.453125 67.328125 
Q 40.234375 67.578125 42.046875 68.265625 
L 42.328125 68.171875 
L 42.234375 63.03125 
Q 42.1875 60.25 42.140625 57.296875 
Q 42.09375 54.34375 42.09375 51.46875 
L 42 11.578125 
Q 42 8.40625 42.78125 7.125 
Q 43.5625 5.859375 46.921875 5.859375 
Q 47.46875 5.859375 48 5.875 
Q 48.53125 5.90625 49.078125 6 
L 49.078125 4.390625 
Q 48.78125 4.296875 42 1.953125 
L 34.328125 -0.921875 
L 33.984375 -0.484375 
L 33.984375 5.515625 
Q 31.25 2.546875 29.25 1.265625 
Q 25.6875 -0.921875 21 -0.921875 
Q 12.703125 -0.921875 7.546875 5.5 
Q 2.390625 11.921875 2.390625 20.359375 
Q 2.390625 30.953125 8.5625 38.546875 
Q 14.75 46.140625 23.6875 46.140625 
z
M 25.484375 4.34375 
Q 29.296875 4.34375 31.640625 6.59375 
Q 33.984375 8.84375 33.984375 10.84375 
L 33.984375 31.78125 
Q 33.984375 38.140625 30.59375 40.75 
Q 27.203125 43.359375 23.96875 43.359375 
Q 17.828125 43.359375 14.40625 37.90625 
Q 10.984375 32.46875 10.984375 24.515625 
Q 10.984375 16.65625 14.625 10.5 
Q 18.265625 4.34375 25.484375 4.34375 
z
" id="Times-Roman-100"/>
      <path d="M 25.4375 45.015625 
L 25.4375 41.5 
L 15.484375 41.5 
L 15.375 13.375 
Q 15.375 9.671875 16.015625 7.765625 
Q 17.1875 4.390625 20.609375 4.390625 
Q 22.359375 4.390625 23.65625 5.21875 
Q 24.953125 6.0625 26.609375 7.859375 
L 27.875 6.78125 
L 26.8125 5.328125 
Q 24.265625 1.90625 21.4375 0.484375 
Q 18.609375 -0.921875 15.96875 -0.921875 
Q 10.203125 -0.921875 8.15625 4.203125 
Q 7.03125 6.984375 7.03125 11.921875 
L 7.03125 41.5 
L 1.703125 41.5 
Q 1.46875 41.65625 1.34375 41.796875 
Q 1.21875 41.9375 1.21875 42.1875 
Q 1.21875 42.671875 1.4375 42.9375 
Q 1.65625 43.21875 2.828125 44.1875 
Q 6.203125 46.96875 7.6875 48.703125 
Q 9.1875 50.4375 14.703125 57.859375 
Q 15.328125 57.859375 15.453125 57.765625 
Q 15.578125 57.671875 15.578125 57.03125 
L 15.578125 45.015625 
z
" id="Times-Roman-116"/>
      <path d="M 0.875 1.375 
Q 4.890625 1.90625 6.125 3.34375 
Q 7.375 4.78125 7.375 10.15625 
L 7.375 57.03125 
Q 7.375 59.765625 6.65625 61.0625 
Q 5.953125 62.359375 3.21875 62.359375 
Q 2.6875 62.359375 2.171875 62.28125 
Q 1.65625 62.203125 1.03125 62.109375 
L 1.03125 63.875 
Q 3.171875 64.5 6.3125 65.40625 
Q 9.46875 66.3125 10.6875 66.703125 
L 15.375 68.171875 
L 15.484375 67.828125 
L 15.484375 37.84375 
Q 18.5625 41.359375 20.953125 43.015625 
Q 25.25 45.953125 30.21875 45.953125 
Q 38.140625 45.953125 41.015625 39.3125 
Q 42.578125 35.796875 42.578125 30.078125 
L 42.578125 10.15625 
Q 42.578125 4.984375 43.765625 3.421875 
Q 44.96875 1.859375 48.6875 1.375 
L 48.6875 0 
L 27.546875 0 
L 27.546875 1.375 
Q 31.78125 1.953125 33 3.359375 
Q 34.234375 4.78125 34.234375 10.15625 
L 34.234375 29.9375 
Q 34.234375 34.671875 32.640625 37.59375 
Q 31.0625 40.53125 26.65625 40.53125 
Q 22.859375 40.53125 19.28125 37.796875 
Q 15.71875 35.0625 15.71875 34.234375 
L 15.71875 10.15625 
Q 15.71875 4.6875 16.984375 3.3125 
Q 18.265625 1.953125 22.40625 1.375 
L 22.40625 0 
L 0.875 0 
z
" id="Times-Roman-104"/>
     </defs>
     <g transform="translate(200.233125 282.06875)scale(0.12 -0.12)">
      <use xlink:href="#Times-Roman-67"/>
      <use x="66.699219" xlink:href="#Times-Roman-73"/>
      <use x="100" xlink:href="#Times-Roman-32"/>
      <use x="125" xlink:href="#Times-Roman-119"/>
      <use x="197.216797" xlink:href="#Times-Roman-105"/>
      <use x="225" xlink:href="#Times-Roman-100"/>
      <use x="275" xlink:href="#Times-Roman-116"/>
      <use x="302.783203" xlink:href="#Times-Roman-104"/>
     </g>
    </g>
   </g>
   <g id="matplotlib.axis_2">
    <g id="ytick_1">
     <g id="line2d_9">
      <defs>
       <path d="M 0 0 
L -3.5 0 
" id="mc894c5df11" style="stroke:#000000;stroke-width:0.8;"/>
      </defs>
      <g>
       <use style="stroke:#000000;stroke-width:0.8;" x="54" xlink:href="#mc894c5df11" y="252"/>
      </g>
     </g>
     <g id="text_10">
      <!-- 0.0 -->
      <g transform="translate(32 256.11375)scale(0.12 -0.12)">
       <use xlink:href="#Times-Roman-48"/>
       <use x="50" xlink:href="#Times-Roman-46"/>
       <use x="75" xlink:href="#Times-Roman-48"/>
      </g>
     </g>
    </g>
    <g id="ytick_2">
     <g id="line2d_10">
      <g>
       <use style="stroke:#000000;stroke-width:0.8;" x="54" xlink:href="#mc894c5df11" y="208.512"/>
      </g>
     </g>
     <g id="text_11">
      <!-- 0.5 -->
      <defs>
       <path d="M 7.46875 8.9375 
Q 10.25 8.9375 14.765625 5.78125 
Q 19.28125 2.640625 21.734375 2.640625 
Q 27.34375 2.640625 31.546875 7.59375 
Q 35.75 12.546875 35.75 19.78125 
Q 35.75 32.421875 22.265625 37.984375 
Q 14.796875 41.0625 8.34375 41.0625 
Q 7.28125 41.0625 7 41.140625 
Q 6.734375 41.21875 6.34375 41.65625 
Q 6.453125 42.046875 6.515625 42.3125 
Q 6.59375 42.578125 6.6875 42.828125 
L 17.328125 66.15625 
L 38.28125 66.15625 
Q 39.84375 66.15625 40.6875 66.6875 
Q 41.546875 67.234375 42.921875 68.703125 
L 43.703125 68.015625 
L 39.890625 58.984375 
Q 39.703125 58.546875 38.8125 58.421875 
Q 37.9375 58.296875 36.921875 58.296875 
L 18.015625 58.296875 
L 13.875 49.75 
Q 21.875 48.390625 25.59375 47.171875 
Q 31.6875 45.125 35.796875 41.109375 
Q 39.3125 37.640625 41.109375 33.3125 
Q 42.921875 29 42.921875 24.171875 
Q 42.921875 13.375 35.234375 6.140625 
Q 27.546875 -1.078125 15.765625 -1.078125 
Q 10.984375 -1.078125 8.0625 -0.140625 
Q 3.171875 1.375 3.171875 5.28125 
Q 3.171875 6.734375 4.21875 7.828125 
Q 5.28125 8.9375 7.46875 8.9375 
z
" id="Times-Roman-53"/>
      </defs>
      <g transform="translate(32 212.62575)scale(0.12 -0.12)">
       <use xlink:href="#Times-Roman-48"/>
       <use x="50" xlink:href="#Times-Roman-46"/>
       <use x="75" xlink:href="#Times-Roman-53"/>
      </g>
     </g>
    </g>
    <g id="ytick_3">
     <g id="line2d_11">
      <g>
       <use style="stroke:#000000;stroke-width:0.8;" x="54" xlink:href="#mc894c5df11" y="165.024"/>
      </g>
     </g>
     <g id="text_12">
      <!-- 1.0 -->
      <g transform="translate(32 169.13775)scale(0.12 -0.12)">
       <use xlink:href="#Times-Roman-49"/>
       <use x="50" xlink:href="#Times-Roman-46"/>
       <use x="75" xlink:href="#Times-Roman-48"/>
      </g>
     </g>
    </g>
    <g id="ytick_4">
     <g id="line2d_12">
      <g>
       <use style="stroke:#000000;stroke-width:0.8;" x="54" xlink:href="#mc894c5df11" y="121.536"/>
      </g>
     </g>
     <g id="text_13">
      <!-- 1.5 -->
      <g transform="translate(32 125.64975)scale(0.12 -0.12)">
       <use xlink:href="#Times-Roman-49"/>
       <use x="50" xlink:href="#Times-Roman-46"/>
       <use x="75" xlink:href="#Times-Roman-53"/>
      </g>
     </g>
    </g>
    <g id="ytick_5">
     <g id="line2d_13">
      <g>
       <use style="stroke:#000000;stroke-width:0.8;" x="54" xlink:href="#mc894c5df11" y="78.048"/>
      </g>
     </g>
     <g id="text_14">
      <!-- 2.0 -->
      <g transform="translate(32 82.16175)scale(0.12 -0.12)">
       <use xlink:href="#Times-Roman-50"/>
       <use x="50" xlink:href="#Times-Roman-46"/>
       <use x="75" xlink:href="#Times-Roman-48"/>
      </g>
     </g>
    </g>
    <g id="ytick_6">
     <g id="line2d_14">
      <g>
       <use style="stroke:#000000;stroke-width:0.8;" x="54" xlink:href="#mc894c5df11" y="34.56"/>
      </g>
     </g>
     <g id="text_15">
      <!-- 2.5 -->
      <g transform="translate(32 38.67375)scale(0.12 -0.12)">
       <use xlink:href="#Times-Roman-50"/>
       <use x="50" xlink:href="#Times-Roman-46"/>
       <use x="75" xlink:href="#Times-Roman-53"/>
      </g>
     </g>
    </g>
    <g id="text_16">
     <!-- pdf -->
     <defs>
      <path d="M 15.96875 8.984375 
Q 17.234375 5.671875 19.75 4.03125 
Q 22.265625 2.390625 25.6875 2.390625 
Q 30.953125 2.390625 34.6875 7.640625 
Q 38.421875 12.890625 38.421875 22.265625 
Q 38.421875 31.25 34.546875 35.6875 
Q 30.671875 40.140625 25.53125 40.140625 
Q 21.921875 40.140625 18.9375 37.90625 
Q 15.96875 35.6875 15.96875 33.546875 
L 15.96875 8.984375 
z
M 0.4375 -20.171875 
Q 5.03125 -19.875 6.265625 -18.203125 
Q 7.515625 -16.546875 7.515625 -12.984375 
L 7.515625 33.890625 
Q 7.515625 37.59375 6.609375 38.640625 
Q 5.71875 39.703125 3.21875 39.703125 
Q 2.6875 39.703125 2.21875 39.640625 
Q 1.765625 39.59375 0.875 39.453125 
L 0.875 41.0625 
L 5.515625 42.578125 
Q 5.765625 42.625 15.328125 45.953125 
Q 15.578125 45.953125 15.703125 45.734375 
Q 15.828125 45.515625 15.828125 45.21875 
L 15.828125 38.625 
Q 19.046875 41.84375 21.484375 43.40625 
Q 25.875 46.140625 30.515625 46.140625 
Q 37.25 46.140625 42.109375 40.40625 
Q 46.96875 34.671875 46.96875 24.703125 
Q 46.96875 14.9375 41.125 6.96875 
Q 35.296875 -0.984375 26.46875 -0.984375 
Q 23.734375 -0.984375 21.734375 -0.296875 
Q 18.609375 0.734375 15.96875 3.46875 
L 15.96875 -12.5 
Q 15.96875 -17.4375 17.578125 -18.546875 
Q 19.1875 -19.671875 24.609375 -20.0625 
L 24.609375 -21.78125 
L 0.4375 -21.78125 
z
" id="Times-Roman-112"/>
      <path d="M 1.953125 1.375 
Q 7.125 1.609375 8.765625 3.296875 
Q 10.40625 4.984375 10.40625 10.40625 
L 10.40625 41.75 
L 2.046875 41.75 
L 2.046875 45.015625 
L 10.40625 45.015625 
Q 10.40625 52.734375 12.5 58.0625 
Q 16.5 68.265625 27.203125 68.265625 
Q 31.5 68.265625 34.890625 66.546875 
Q 38.28125 64.84375 38.28125 61.96875 
Q 38.28125 60.359375 37.109375 59.078125 
Q 35.9375 57.8125 34.28125 57.8125 
Q 32.859375 57.8125 31.828125 58.65625 
Q 30.8125 59.515625 29.390625 61.671875 
L 28.5625 62.9375 
Q 27.875 63.96875 26.953125 64.671875 
Q 26.03125 65.375 24.359375 65.375 
Q 20.65625 65.375 19.34375 61.71875 
Q 18.609375 59.765625 18.609375 56.59375 
L 18.609375 45.015625 
L 30.859375 45.015625 
L 30.859375 41.75 
L 18.703125 41.75 
L 18.703125 10.40625 
Q 18.703125 4.890625 20.1875 3.34375 
Q 21.6875 1.8125 27.984375 1.375 
L 27.984375 0 
L 1.953125 0 
z
" id="Times-Roman-102"/>
     </defs>
     <g transform="translate(25.38625 151.277813)rotate(-90)scale(0.12 -0.12)">
      <use xlink:href="#Times-Roman-112"/>
      <use x="50" xlink:href="#Times-Roman-100"/>
      <use x="100" xlink:href="#Times-Roman-102"/>
     </g>
    </g>
   </g>
   <g id="line2d_15">
    <path clip-path="url(#p2873939b7a)" d="M 194.982539 252 
L 194.982539 34.56 
" style="fill:none;stroke:#000000;stroke-linecap:square;stroke-width:1.5;"/>
   </g>
   <g id="line2d_16">
    <path clip-path="url(#p2873939b7a)" d="M 209.265661 252 
L 209.265661 34.56 
" style="fill:none;stroke:#ff0000;stroke-linecap:square;stroke-width:1.5;"/>
   </g>
   <g id="patch_52">
    <path d="M 54 252 
L 54 34.56 
" style="fill:none;stroke:#000000;stroke-linecap:square;stroke-linejoin:miter;stroke-width:0.8;"/>
   </g>
   <g id="patch_53">
    <path d="M 388.8 252 
L 388.8 34.56 
" style="fill:none;stroke:#000000;stroke-linecap:square;stroke-linejoin:miter;stroke-width:0.8;"/>
   </g>
   <g id="patch_54">
    <path d="M 54 252 
L 388.8 252 
" style="fill:none;stroke:#000000;stroke-linecap:square;stroke-linejoin:miter;stroke-width:0.8;"/>
   </g>
   <g id="patch_55">
    <path d="M 54 34.56 
L 388.8 34.56 
" style="fill:none;stroke:#000000;stroke-linecap:square;stroke-linejoin:miter;stroke-width:0.8;"/>
   </g>
   <g id="legend_1">
    <g id="patch_56">
     <path d="M 236.355 95.20125 
L 380.4 95.20125 
Q 382.8 95.20125 382.8 92.80125 
L 382.8 42.96 
Q 382.8 40.56 380.4 40.56 
L 236.355 40.56 
Q 233.955 40.56 233.955 42.96 
L 233.955 92.80125 
Q 233.955 95.20125 236.355 95.20125 
z
" style="fill:#ffffff;opacity:0.8;stroke:#cccccc;stroke-linejoin:miter;"/>
    </g>
    <g id="line2d_17">
     <path d="M 238.755 49.56 
L 262.755 49.56 
" style="fill:none;stroke:#000000;stroke-linecap:square;stroke-width:1.5;"/>
    </g>
    <g id="line2d_18"/>
    <g id="text_17">
     <!-- Equation 7.4 -->
     <defs>
      <path d="M 1.125 1.8125 
Q 6.640625 2.390625 8.265625 3.78125 
Q 9.90625 5.171875 9.90625 10.84375 
L 9.90625 55.328125 
Q 9.90625 60.640625 8.296875 62.28125 
Q 6.6875 63.921875 1.125 64.3125 
L 1.125 66.15625 
L 54.25 66.15625 
L 54.59375 51.8125 
L 52.046875 51.8125 
Q 50.78125 58.453125 48.234375 60.40625 
Q 45.703125 62.359375 36.921875 62.359375 
L 23.34375 62.359375 
Q 21.140625 62.359375 20.625 61.640625 
Q 20.125 60.9375 20.125 58.984375 
L 20.125 36.671875 
L 35.5 36.671875 
Q 41.890625 36.671875 43.640625 38.578125 
Q 45.40625 40.484375 46.484375 46.296875 
L 48.828125 46.296875 
L 48.828125 23.140625 
L 46.484375 23.140625 
Q 45.359375 28.953125 43.59375 30.828125 
Q 41.84375 32.71875 35.5 32.71875 
L 20.125 32.71875 
L 20.125 7.953125 
Q 20.125 4.984375 22 4.4375 
Q 23.875 3.90625 33.25 3.90625 
Q 43.40625 3.90625 48.234375 6.125 
Q 53.078125 8.34375 56.9375 16.890625 
L 59.71875 16.890625 
L 55.171875 0 
L 1.125 0 
z
M 30.609375 66.15625 
z
" id="Times-Roman-69"/>
      <path d="M 23.828125 5.21875 
Q 25 5.21875 26.96875 5.609375 
Q 28.953125 6 30.671875 6.9375 
Q 33.015625 8.203125 33.5 9.171875 
Q 33.984375 10.15625 33.984375 12.84375 
L 33.984375 33.453125 
Q 33.984375 37.3125 32.8125 39.453125 
Q 30.609375 43.359375 24.515625 43.359375 
Q 17.578125 43.359375 14.28125 37.625 
Q 10.984375 31.890625 10.984375 24.515625 
Q 10.984375 15.875 14.328125 10.546875 
Q 17.671875 5.21875 23.828125 5.21875 
z
M 24.953125 46.046875 
Q 28.265625 46.046875 30.8125 45.125 
Q 32.515625 44.53125 35.984375 42.578125 
L 41.40625 45.796875 
Q 41.84375 46 42.09375 46.046875 
Q 42.328125 45.84375 42.375 45.75 
Q 42.4375 45.65625 42.4375 45.125 
L 42.4375 -14.265625 
Q 42.4375 -16.84375 43.359375 -18.109375 
Q 44.78125 -20.015625 48.828125 -20.40625 
L 48.828125 -21.78125 
L 25.203125 -21.78125 
L 25.203125 -20.171875 
Q 29.546875 -20.125 31.671875 -18.703125 
Q 33.796875 -17.28125 33.796875 -12.40625 
L 33.796875 6.203125 
Q 30.375 2.828125 27.875 1.375 
Q 23.78125 -1.03125 18.65625 -1.03125 
Q 12.546875 -1.03125 7.46875 4.609375 
Q 2.390625 10.25 2.390625 21.1875 
Q 2.390625 31.25 8.65625 38.640625 
Q 14.9375 46.046875 24.953125 46.046875 
z
" id="Times-Roman-113"/>
      <path d="M 15.484375 45.21875 
L 15.484375 13.96875 
Q 15.484375 10.640625 16.40625 8.640625 
Q 18.21875 4.9375 23.046875 4.9375 
Q 26.375 4.9375 29.546875 7.125 
Q 31.34375 8.34375 33.203125 10.5 
L 33.203125 37.25 
Q 33.203125 41.015625 31.734375 42.1875 
Q 30.28125 43.359375 25.875 43.609375 
L 25.875 45.21875 
L 41.65625 45.21875 
L 41.65625 10.84375 
Q 41.65625 7.515625 42.84375 6.265625 
Q 44.046875 5.03125 47.90625 5.171875 
L 47.90625 3.8125 
Q 45.21875 3.078125 43.9375 2.703125 
Q 42.671875 2.34375 39.703125 1.375 
Q 38.421875 0.921875 34.125 -0.734375 
Q 33.890625 -0.734375 33.84375 -0.515625 
Q 33.796875 -0.296875 33.796875 0 
L 33.796875 7.859375 
Q 30.46875 3.90625 27.734375 2 
Q 23.578125 -0.921875 18.953125 -0.921875 
Q 14.703125 -0.921875 10.9375 2.09375 
Q 7.125 5.078125 7.125 12.109375 
L 7.125 37.453125 
Q 7.125 41.359375 5.46875 42.671875 
Q 4.390625 43.5 0.875 43.84375 
L 0.875 45.21875 
z
M 25.046875 45.796875 
z
" id="Times-Roman-117"/>
      <path d="M 28.65625 27.046875 
Q 23.046875 25.203125 19.390625 22.953125 
Q 12.359375 18.609375 12.359375 13.09375 
Q 12.359375 8.640625 15.28125 6.546875 
Q 17.1875 5.171875 19.53125 5.171875 
Q 22.75 5.171875 25.703125 6.984375 
Q 28.65625 8.796875 28.65625 11.578125 
z
M 3.65625 9.71875 
Q 3.65625 16.796875 10.75 21.53125 
Q 15.234375 24.46875 28.65625 29.5 
L 28.65625 33.640625 
Q 28.65625 38.625 27.6875 40.578125 
Q 26.03125 43.84375 20.796875 43.84375 
Q 18.3125 43.84375 16.0625 42.578125 
Q 13.8125 41.265625 13.8125 38.96875 
Q 13.8125 38.375 14.0625 36.984375 
Q 14.3125 35.59375 14.3125 35.203125 
Q 14.3125 32.46875 12.5 31.390625 
Q 11.46875 30.765625 10.0625 30.765625 
Q 7.859375 30.765625 6.6875 32.203125 
Q 5.515625 33.640625 5.515625 35.40625 
Q 5.515625 38.8125 9.734375 42.546875 
Q 13.96875 46.296875 22.125 46.296875 
Q 31.59375 46.296875 34.96875 40.140625 
Q 36.765625 36.765625 36.765625 30.328125 
L 36.765625 10.75 
Q 36.765625 7.90625 37.15625 6.84375 
Q 37.796875 4.9375 39.796875 4.9375 
Q 40.921875 4.9375 41.65625 5.265625 
Q 42.390625 5.609375 44.1875 6.9375 
L 44.1875 4.390625 
Q 42.625 2.484375 40.828125 1.265625 
Q 38.09375 -0.59375 35.25 -0.59375 
Q 31.9375 -0.59375 30.4375 1.5625 
Q 28.953125 3.71875 28.8125 6.6875 
Q 25.09375 3.46875 22.46875 1.90625 
Q 18.015625 -0.734375 14.015625 -0.734375 
Q 9.8125 -0.734375 6.734375 2.21875 
Q 3.65625 5.171875 3.65625 9.71875 
z
M 22.265625 46.296875 
z
" id="Times-Roman-97"/>
      <path d="M 2.546875 22.65625 
Q 2.546875 32.375 8.71875 39.078125 
Q 14.890625 45.796875 24.609375 45.796875 
Q 34.28125 45.796875 40.625 39.453125 
Q 46.96875 33.109375 46.96875 22.5625 
Q 46.96875 12.84375 40.8125 5.65625 
Q 34.671875 -1.515625 24.90625 -1.515625 
Q 15.53125 -1.515625 9.03125 5.359375 
Q 2.546875 12.25 2.546875 22.65625 
z
M 23.25 42.875 
Q 19.390625 42.875 16.546875 40.328125 
Q 11.671875 35.890625 11.671875 25 
Q 11.671875 16.3125 15.59375 8.78125 
Q 19.53125 1.265625 26.515625 1.265625 
Q 31.984375 1.265625 34.9375 6.296875 
Q 37.890625 11.328125 37.890625 19.484375 
Q 37.890625 27.9375 34.125 35.40625 
Q 30.375 42.875 23.25 42.875 
z
M 25.046875 45.796875 
z
" id="Times-Roman-111"/>
      <path d="M 1.8125 1.375 
Q 5.28125 1.8125 6.671875 3.09375 
Q 8.0625 4.390625 8.0625 8.890625 
L 8.0625 33.640625 
Q 8.0625 36.765625 7.46875 38.03125 
Q 6.546875 39.890625 3.65625 39.890625 
Q 3.21875 39.890625 2.75 39.84375 
Q 2.296875 39.796875 1.609375 39.703125 
L 1.609375 41.40625 
Q 3.609375 42 11.078125 44.4375 
L 15.671875 45.953125 
Q 16.015625 45.953125 16.078125 45.703125 
Q 16.15625 45.453125 16.15625 45.015625 
L 16.15625 37.84375 
Q 20.65625 42.046875 23.1875 43.609375 
Q 27 46 31.109375 46 
Q 34.421875 46 37.15625 44.09375 
Q 42.4375 40.375 42.4375 30.859375 
L 42.4375 8.0625 
Q 42.4375 4.546875 43.84375 2.984375 
Q 45.265625 1.421875 48.578125 1.375 
L 48.578125 0 
L 27.734375 0 
L 27.734375 1.375 
Q 31.296875 1.859375 32.703125 3.34375 
Q 34.125 4.828125 34.125 9.8125 
L 34.125 30.671875 
Q 34.125 34.859375 32.5625 37.609375 
Q 31 40.375 26.8125 40.375 
Q 23.921875 40.375 20.953125 38.421875 
Q 19.28125 37.3125 16.65625 34.71875 
L 16.65625 7.375 
Q 16.65625 3.859375 18.21875 2.65625 
Q 19.78125 1.46875 23.140625 1.375 
L 23.140625 0 
L 1.8125 0 
z
M 25.046875 46 
z
" id="Times-Roman-110"/>
      <path d="M 44.875 66.15625 
L 44.875 64.546875 
L 23.6875 -0.921875 
L 17.234375 -0.921875 
L 37.015625 58.796875 
L 15.71875 58.796875 
Q 10.984375 58.796875 8.90625 57.234375 
Q 6.84375 55.671875 3.65625 50.6875 
L 1.953125 51.46875 
Q 5.125 59.28125 5.875 61.109375 
Q 6.640625 62.9375 7.859375 66.15625 
z
" id="Times-Roman-55"/>
     </defs>
     <g transform="translate(272.355 53.76)scale(0.12 -0.12)">
      <use xlink:href="#Times-Roman-69"/>
      <use x="61.083984" xlink:href="#Times-Roman-113"/>
      <use x="111.083984" xlink:href="#Times-Roman-117"/>
      <use x="161.083984" xlink:href="#Times-Roman-97"/>
      <use x="205.46875" xlink:href="#Times-Roman-116"/>
      <use x="233.251953" xlink:href="#Times-Roman-105"/>
      <use x="261.035156" xlink:href="#Times-Roman-111"/>
      <use x="311.035156" xlink:href="#Times-Roman-110"/>
      <use x="361.035156" xlink:href="#Times-Roman-32"/>
      <use x="386.035156" xlink:href="#Times-Roman-55"/>
      <use x="436.035156" xlink:href="#Times-Roman-46"/>
      <use x="461.035156" xlink:href="#Times-Roman-52"/>
     </g>
    </g>
    <g id="line2d_19">
     <path d="M 238.755 66.57375 
L 262.755 66.57375 
" style="fill:none;stroke:#ff0000;stroke-linecap:square;stroke-width:1.5;"/>
    </g>
    <g id="line2d_20"/>
    <g id="text_18">
     <!-- Equation 7.15 median -->
     <defs>
      <path d="M 1.609375 1.265625 
Q 5.421875 1.609375 6.6875 2.546875 
Q 8.640625 3.953125 8.640625 8.203125 
L 8.640625 33.453125 
Q 8.640625 37.0625 7.6875 38.1875 
Q 6.734375 39.3125 4.546875 39.3125 
Q 3.515625 39.3125 3 39.203125 
Q 2.484375 39.109375 1.8125 38.875 
L 1.8125 40.578125 
L 5.328125 41.75 
Q 7.234375 42.390625 11.578125 44.046875 
Q 15.921875 45.703125 16.15625 45.703125 
Q 16.40625 45.703125 16.453125 45.453125 
Q 16.5 45.21875 16.5 44.53125 
L 16.5 37.9375 
Q 21.34375 42.328125 24.859375 44.015625 
Q 28.375 45.703125 32.078125 45.703125 
Q 37.109375 45.703125 40.09375 42.28125 
Q 41.65625 40.4375 42.671875 37.25 
Q 46.296875 40.921875 48.96875 42.671875 
Q 53.609375 45.703125 58.453125 45.703125 
Q 66.3125 45.703125 68.953125 39.3125 
Q 70.453125 35.6875 70.453125 27.875 
L 70.453125 7.625 
Q 70.453125 4.15625 71.984375 2.90625 
Q 73.53125 1.65625 77.546875 1.265625 
L 77.546875 0 
L 55.515625 0 
L 55.515625 1.375 
Q 59.765625 1.765625 61.109375 3.078125 
Q 62.453125 4.390625 62.453125 8.453125 
L 62.453125 29.5 
Q 62.453125 34.234375 61.421875 36.46875 
Q 59.625 40.484375 54.34375 40.484375 
Q 51.171875 40.484375 48.046875 38.375 
Q 46.234375 37.15625 43.609375 34.46875 
L 43.609375 9.46875 
Q 43.609375 5.515625 45 3.46875 
Q 46.390625 1.421875 50.875 1.265625 
L 50.875 0 
L 28.46875 0 
L 28.46875 1.265625 
Q 33.109375 1.859375 34.375 3.515625 
Q 35.640625 5.171875 35.640625 11.671875 
L 35.640625 25.34375 
Q 35.640625 32.859375 34.671875 35.6875 
Q 33.0625 40.484375 27.828125 40.484375 
Q 24.859375 40.484375 21.96875 38.84375 
Q 19.09375 37.203125 16.890625 34.578125 
L 16.890625 7.859375 
Q 16.890625 4.15625 18.1875 2.734375 
Q 19.484375 1.3125 23.828125 1.265625 
L 23.828125 0 
L 1.609375 0 
z
" id="Times-Roman-109"/>
      <path d="M 22.90625 45.796875 
Q 29.78125 45.796875 34.953125 41.03125 
Q 40.140625 36.28125 40.140625 27.546875 
L 9.125 27.546875 
Q 9.625 16.21875 14.25 11.03125 
Q 18.890625 5.859375 25.25 5.859375 
Q 30.375 5.859375 33.890625 8.546875 
Q 37.40625 11.234375 40.375 16.15625 
L 42.09375 15.578125 
Q 40.09375 9.375 34.59375 4.09375 
Q 29.109375 -1.171875 21.140625 -1.171875 
Q 11.96875 -1.171875 6.953125 5.765625 
Q 1.953125 12.703125 1.953125 21.734375 
Q 1.953125 31.546875 7.765625 38.671875 
Q 13.578125 45.796875 22.90625 45.796875 
z
M 20.0625 42.234375 
Q 14.5 42.234375 11.578125 37.3125 
Q 10.015625 34.671875 9.328125 30.671875 
L 29.9375 30.671875 
Q 29.390625 35.546875 28.078125 37.9375 
Q 25.6875 42.234375 20.0625 42.234375 
z
M 22.265625 45.796875 
z
" id="Times-Roman-101"/>
     </defs>
     <g transform="translate(272.355 70.77375)scale(0.12 -0.12)">
      <use xlink:href="#Times-Roman-69"/>
      <use x="61.083984" xlink:href="#Times-Roman-113"/>
      <use x="111.083984" xlink:href="#Times-Roman-117"/>
      <use x="161.083984" xlink:href="#Times-Roman-97"/>
      <use x="205.46875" xlink:href="#Times-Roman-116"/>
      <use x="233.251953" xlink:href="#Times-Roman-105"/>
      <use x="261.035156" xlink:href="#Times-Roman-111"/>
      <use x="311.035156" xlink:href="#Times-Roman-110"/>
      <use x="361.035156" xlink:href="#Times-Roman-32"/>
      <use x="386.035156" xlink:href="#Times-Roman-55"/>
      <use x="436.035156" xlink:href="#Times-Roman-46"/>
      <use x="461.035156" xlink:href="#Times-Roman-49"/>
      <use x="511.035156" xlink:href="#Times-Roman-53"/>
      <use x="561.035156" xlink:href="#Times-Roman-32"/>
      <use x="586.035156" xlink:href="#Times-Roman-109"/>
      <use x="663.818359" xlink:href="#Times-Roman-101"/>
      <use x="708.203125" xlink:href="#Times-Roman-100"/>
      <use x="758.203125" xlink:href="#Times-Roman-105"/>
      <use x="785.986328" xlink:href="#Times-Roman-97"/>
      <use x="830.371094" xlink:href="#Times-Roman-110"/>
     </g>
    </g>
    <g id="patch_57">
     <path d="M 238.755 87.7875 
L 262.755 87.7875 
L 262.755 79.3875 
L 238.755 79.3875 
z
" style="opacity:0.5;"/>
    </g>
    <g id="text_19">
     <!-- Equation 7.15 -->
     <g transform="translate(272.355 87.7875)scale(0.12 -0.12)">
      <use xlink:href="#Times-Roman-69"/>
      <use x="61.083984" xlink:href="#Times-Roman-113"/>
      <use x="111.083984" xlink:href="#Times-Roman-117"/>
      <use x="161.083984" xlink:href="#Times-Roman-97"/>
      <use x="205.46875" xlink:href="#Times-Roman-116"/>
      <use x="233.251953" xlink:href="#Times-Roman-105"/>
      <use x="261.035156" xlink:href="#Times-Roman-111"/>
      <use x="311.035156" xlink:href="#Times-Roman-110"/>
      <use x="361.035156" xlink:href="#Times-Roman-32"/>
      <use x="386.035156" xlink:href="#Times-Roman-55"/>
      <use x="436.035156" xlink:href="#Times-Roman-46"/>
      <use x="461.035156" xlink:href="#Times-Roman-49"/>
      <use x="511.035156" xlink:href="#Times-Roman-53"/>
     </g>
    </g>
   </g>
  </g>
 </g>
 <defs>
  <clipPath id="p2873939b7a">
   <rect height="217.44" width="334.8" x="54" y="34.56"/>
  </clipPath>
 </defs>
</svg>
