<?xml version="1.0" encoding="utf-8" standalone="no"?>
<!DOCTYPE svg PUBLIC "-//W3C//DTD SVG 1.1//EN"
  "http://www.w3.org/Graphics/SVG/1.1/DTD/svg11.dtd">
<!-- Created with matplotlib (https://matplotlib.org/) -->
<svg height="288pt" version="1.1" viewBox="0 0 432 288" width="432pt" xmlns="http://www.w3.org/2000/svg" xmlns:xlink="http://www.w3.org/1999/xlink">
 <defs>
  <style type="text/css">
*{stroke-linecap:butt;stroke-linejoin:round;}
  </style>
 </defs>
 <g id="figure_1">
  <g id="patch_1">
   <path d="M 0 288 
L 432 288 
L 432 0 
L 0 0 
z
" style="fill:none;"/>
  </g>
  <g id="axes_1">
   <g id="patch_2">
    <path d="M 54 252 
L 388.8 252 
L 388.8 34.56 
L 54 34.56 
z
" style="fill:none;"/>
   </g>
   <g id="matplotlib.axis_1">
    <g id="xtick_1">
     <g id="line2d_1">
      <path clip-path="url(#pb0b651af5a)" d="M 69.218182 252 
L 69.218182 34.56 
" style="fill:none;stroke:#b0b0b0;stroke-linecap:square;stroke-width:0.8;"/>
     </g>
     <g id="line2d_2">
      <defs>
       <path d="M 0 0 
L 0 3.5 
" id="m839ae65735" style="stroke:#000000;stroke-width:0.8;"/>
      </defs>
      <g>
       <use style="stroke:#000000;stroke-width:0.8;" x="69.218182" xlink:href="#m839ae65735" y="252"/>
      </g>
     </g>
     <g id="text_1">
      <!-- 0.00 -->
      <defs>
       <path d="M 31.78125 66.40625 
Q 24.171875 66.40625 20.328125 58.90625 
Q 16.5 51.421875 16.5 36.375 
Q 16.5 21.390625 20.328125 13.890625 
Q 24.171875 6.390625 31.78125 6.390625 
Q 39.453125 6.390625 43.28125 13.890625 
Q 47.125 21.390625 47.125 36.375 
Q 47.125 51.421875 43.28125 58.90625 
Q 39.453125 66.40625 31.78125 66.40625 
z
M 31.78125 74.21875 
Q 44.046875 74.21875 50.515625 64.515625 
Q 56.984375 54.828125 56.984375 36.375 
Q 56.984375 17.96875 50.515625 8.265625 
Q 44.046875 -1.421875 31.78125 -1.421875 
Q 19.53125 -1.421875 13.0625 8.265625 
Q 6.59375 17.96875 6.59375 36.375 
Q 6.59375 54.828125 13.0625 64.515625 
Q 19.53125 74.21875 31.78125 74.21875 
z
" id="DejaVuSans-48"/>
       <path d="M 10.6875 12.40625 
L 21 12.40625 
L 21 0 
L 10.6875 0 
z
" id="DejaVuSans-46"/>
      </defs>
      <g transform="translate(58.085369 266.598437)scale(0.1 -0.1)">
       <use xlink:href="#DejaVuSans-48"/>
       <use x="63.623047" xlink:href="#DejaVuSans-46"/>
       <use x="95.410156" xlink:href="#DejaVuSans-48"/>
       <use x="159.033203" xlink:href="#DejaVuSans-48"/>
      </g>
     </g>
    </g>
    <g id="xtick_2">
     <g id="line2d_3">
      <path clip-path="url(#pb0b651af5a)" d="M 122.412793 252 
L 122.412793 34.56 
" style="fill:none;stroke:#b0b0b0;stroke-linecap:square;stroke-width:0.8;"/>
     </g>
     <g id="line2d_4">
      <g>
       <use style="stroke:#000000;stroke-width:0.8;" x="122.412793" xlink:href="#m839ae65735" y="252"/>
      </g>
     </g>
     <g id="text_2">
      <!-- 0.01 -->
      <defs>
       <path d="M 12.40625 8.296875 
L 28.515625 8.296875 
L 28.515625 63.921875 
L 10.984375 60.40625 
L 10.984375 69.390625 
L 28.421875 72.90625 
L 38.28125 72.90625 
L 38.28125 8.296875 
L 54.390625 8.296875 
L 54.390625 0 
L 12.40625 0 
z
" id="DejaVuSans-49"/>
      </defs>
      <g transform="translate(111.279981 266.598437)scale(0.1 -0.1)">
       <use xlink:href="#DejaVuSans-48"/>
       <use x="63.623047" xlink:href="#DejaVuSans-46"/>
       <use x="95.410156" xlink:href="#DejaVuSans-48"/>
       <use x="159.033203" xlink:href="#DejaVuSans-49"/>
      </g>
     </g>
    </g>
    <g id="xtick_3">
     <g id="line2d_5">
      <path clip-path="url(#pb0b651af5a)" d="M 175.607405 252 
L 175.607405 34.56 
" style="fill:none;stroke:#b0b0b0;stroke-linecap:square;stroke-width:0.8;"/>
     </g>
     <g id="line2d_6">
      <g>
       <use style="stroke:#000000;stroke-width:0.8;" x="175.607405" xlink:href="#m839ae65735" y="252"/>
      </g>
     </g>
     <g id="text_3">
      <!-- 0.02 -->
      <defs>
       <path d="M 19.1875 8.296875 
L 53.609375 8.296875 
L 53.609375 0 
L 7.328125 0 
L 7.328125 8.296875 
Q 12.9375 14.109375 22.625 23.890625 
Q 32.328125 33.6875 34.8125 36.53125 
Q 39.546875 41.84375 41.421875 45.53125 
Q 43.3125 49.21875 43.3125 52.78125 
Q 43.3125 58.59375 39.234375 62.25 
Q 35.15625 65.921875 28.609375 65.921875 
Q 23.96875 65.921875 18.8125 64.3125 
Q 13.671875 62.703125 7.8125 59.421875 
L 7.8125 69.390625 
Q 13.765625 71.78125 18.9375 73 
Q 24.125 74.21875 28.421875 74.21875 
Q 39.75 74.21875 46.484375 68.546875 
Q 53.21875 62.890625 53.21875 53.421875 
Q 53.21875 48.921875 51.53125 44.890625 
Q 49.859375 40.875 45.40625 35.40625 
Q 44.1875 33.984375 37.640625 27.21875 
Q 31.109375 20.453125 19.1875 8.296875 
z
" id="DejaVuSans-50"/>
      </defs>
      <g transform="translate(164.474592 266.598437)scale(0.1 -0.1)">
       <use xlink:href="#DejaVuSans-48"/>
       <use x="63.623047" xlink:href="#DejaVuSans-46"/>
       <use x="95.410156" xlink:href="#DejaVuSans-48"/>
       <use x="159.033203" xlink:href="#DejaVuSans-50"/>
      </g>
     </g>
    </g>
    <g id="xtick_4">
     <g id="line2d_7">
      <path clip-path="url(#pb0b651af5a)" d="M 228.802017 252 
L 228.802017 34.56 
" style="fill:none;stroke:#b0b0b0;stroke-linecap:square;stroke-width:0.8;"/>
     </g>
     <g id="line2d_8">
      <g>
       <use style="stroke:#000000;stroke-width:0.8;" x="228.802017" xlink:href="#m839ae65735" y="252"/>
      </g>
     </g>
     <g id="text_4">
      <!-- 0.03 -->
      <defs>
       <path d="M 40.578125 39.3125 
Q 47.65625 37.796875 51.625 33 
Q 55.609375 28.21875 55.609375 21.1875 
Q 55.609375 10.40625 48.1875 4.484375 
Q 40.765625 -1.421875 27.09375 -1.421875 
Q 22.515625 -1.421875 17.65625 -0.515625 
Q 12.796875 0.390625 7.625 2.203125 
L 7.625 11.71875 
Q 11.71875 9.328125 16.59375 8.109375 
Q 21.484375 6.890625 26.8125 6.890625 
Q 36.078125 6.890625 40.9375 10.546875 
Q 45.796875 14.203125 45.796875 21.1875 
Q 45.796875 27.640625 41.28125 31.265625 
Q 36.765625 34.90625 28.71875 34.90625 
L 20.21875 34.90625 
L 20.21875 43.015625 
L 29.109375 43.015625 
Q 36.375 43.015625 40.234375 45.921875 
Q 44.09375 48.828125 44.09375 54.296875 
Q 44.09375 59.90625 40.109375 62.90625 
Q 36.140625 65.921875 28.71875 65.921875 
Q 24.65625 65.921875 20.015625 65.03125 
Q 15.375 64.15625 9.8125 62.3125 
L 9.8125 71.09375 
Q 15.4375 72.65625 20.34375 73.4375 
Q 25.25 74.21875 29.59375 74.21875 
Q 40.828125 74.21875 47.359375 69.109375 
Q 53.90625 64.015625 53.90625 55.328125 
Q 53.90625 49.265625 50.4375 45.09375 
Q 46.96875 40.921875 40.578125 39.3125 
z
" id="DejaVuSans-51"/>
      </defs>
      <g transform="translate(217.669204 266.598437)scale(0.1 -0.1)">
       <use xlink:href="#DejaVuSans-48"/>
       <use x="63.623047" xlink:href="#DejaVuSans-46"/>
       <use x="95.410156" xlink:href="#DejaVuSans-48"/>
       <use x="159.033203" xlink:href="#DejaVuSans-51"/>
      </g>
     </g>
    </g>
    <g id="xtick_5">
     <g id="line2d_9">
      <path clip-path="url(#pb0b651af5a)" d="M 281.996628 252 
L 281.996628 34.56 
" style="fill:none;stroke:#b0b0b0;stroke-linecap:square;stroke-width:0.8;"/>
     </g>
     <g id="line2d_10">
      <g>
       <use style="stroke:#000000;stroke-width:0.8;" x="281.996628" xlink:href="#m839ae65735" y="252"/>
      </g>
     </g>
     <g id="text_5">
      <!-- 0.04 -->
      <defs>
       <path d="M 37.796875 64.3125 
L 12.890625 25.390625 
L 37.796875 25.390625 
z
M 35.203125 72.90625 
L 47.609375 72.90625 
L 47.609375 25.390625 
L 58.015625 25.390625 
L 58.015625 17.1875 
L 47.609375 17.1875 
L 47.609375 0 
L 37.796875 0 
L 37.796875 17.1875 
L 4.890625 17.1875 
L 4.890625 26.703125 
z
" id="DejaVuSans-52"/>
      </defs>
      <g transform="translate(270.863816 266.598437)scale(0.1 -0.1)">
       <use xlink:href="#DejaVuSans-48"/>
       <use x="63.623047" xlink:href="#DejaVuSans-46"/>
       <use x="95.410156" xlink:href="#DejaVuSans-48"/>
       <use x="159.033203" xlink:href="#DejaVuSans-52"/>
      </g>
     </g>
    </g>
    <g id="xtick_6">
     <g id="line2d_11">
      <path clip-path="url(#pb0b651af5a)" d="M 335.19124 252 
L 335.19124 34.56 
" style="fill:none;stroke:#b0b0b0;stroke-linecap:square;stroke-width:0.8;"/>
     </g>
     <g id="line2d_12">
      <g>
       <use style="stroke:#000000;stroke-width:0.8;" x="335.19124" xlink:href="#m839ae65735" y="252"/>
      </g>
     </g>
     <g id="text_6">
      <!-- 0.05 -->
      <defs>
       <path d="M 10.796875 72.90625 
L 49.515625 72.90625 
L 49.515625 64.59375 
L 19.828125 64.59375 
L 19.828125 46.734375 
Q 21.96875 47.46875 24.109375 47.828125 
Q 26.265625 48.1875 28.421875 48.1875 
Q 40.625 48.1875 47.75 41.5 
Q 54.890625 34.8125 54.890625 23.390625 
Q 54.890625 11.625 47.5625 5.09375 
Q 40.234375 -1.421875 26.90625 -1.421875 
Q 22.3125 -1.421875 17.546875 -0.640625 
Q 12.796875 0.140625 7.71875 1.703125 
L 7.71875 11.625 
Q 12.109375 9.234375 16.796875 8.0625 
Q 21.484375 6.890625 26.703125 6.890625 
Q 35.15625 6.890625 40.078125 11.328125 
Q 45.015625 15.765625 45.015625 23.390625 
Q 45.015625 31 40.078125 35.4375 
Q 35.15625 39.890625 26.703125 39.890625 
Q 22.75 39.890625 18.8125 39.015625 
Q 14.890625 38.140625 10.796875 36.28125 
z
" id="DejaVuSans-53"/>
      </defs>
      <g transform="translate(324.058427 266.598437)scale(0.1 -0.1)">
       <use xlink:href="#DejaVuSans-48"/>
       <use x="63.623047" xlink:href="#DejaVuSans-46"/>
       <use x="95.410156" xlink:href="#DejaVuSans-48"/>
       <use x="159.033203" xlink:href="#DejaVuSans-53"/>
      </g>
     </g>
    </g>
    <g id="xtick_7">
     <g id="line2d_13">
      <path clip-path="url(#pb0b651af5a)" d="M 388.385851 252 
L 388.385851 34.56 
" style="fill:none;stroke:#b0b0b0;stroke-linecap:square;stroke-width:0.8;"/>
     </g>
     <g id="line2d_14">
      <g>
       <use style="stroke:#000000;stroke-width:0.8;" x="388.385851" xlink:href="#m839ae65735" y="252"/>
      </g>
     </g>
     <g id="text_7">
      <!-- 0.06 -->
      <defs>
       <path d="M 33.015625 40.375 
Q 26.375 40.375 22.484375 35.828125 
Q 18.609375 31.296875 18.609375 23.390625 
Q 18.609375 15.53125 22.484375 10.953125 
Q 26.375 6.390625 33.015625 6.390625 
Q 39.65625 6.390625 43.53125 10.953125 
Q 47.40625 15.53125 47.40625 23.390625 
Q 47.40625 31.296875 43.53125 35.828125 
Q 39.65625 40.375 33.015625 40.375 
z
M 52.59375 71.296875 
L 52.59375 62.3125 
Q 48.875 64.0625 45.09375 64.984375 
Q 41.3125 65.921875 37.59375 65.921875 
Q 27.828125 65.921875 22.671875 59.328125 
Q 17.53125 52.734375 16.796875 39.40625 
Q 19.671875 43.65625 24.015625 45.921875 
Q 28.375 48.1875 33.59375 48.1875 
Q 44.578125 48.1875 50.953125 41.515625 
Q 57.328125 34.859375 57.328125 23.390625 
Q 57.328125 12.15625 50.6875 5.359375 
Q 44.046875 -1.421875 33.015625 -1.421875 
Q 20.359375 -1.421875 13.671875 8.265625 
Q 6.984375 17.96875 6.984375 36.375 
Q 6.984375 53.65625 15.1875 63.9375 
Q 23.390625 74.21875 37.203125 74.21875 
Q 40.921875 74.21875 44.703125 73.484375 
Q 48.484375 72.75 52.59375 71.296875 
z
" id="DejaVuSans-54"/>
      </defs>
      <g transform="translate(377.253039 266.598437)scale(0.1 -0.1)">
       <use xlink:href="#DejaVuSans-48"/>
       <use x="63.623047" xlink:href="#DejaVuSans-46"/>
       <use x="95.410156" xlink:href="#DejaVuSans-48"/>
       <use x="159.033203" xlink:href="#DejaVuSans-54"/>
      </g>
     </g>
    </g>
    <g id="text_8">
     <!-- pdf$(Y)$ -->
     <defs>
      <path d="M 18.109375 8.203125 
L 18.109375 -20.796875 
L 9.078125 -20.796875 
L 9.078125 54.6875 
L 18.109375 54.6875 
L 18.109375 46.390625 
Q 20.953125 51.265625 25.265625 53.625 
Q 29.59375 56 35.59375 56 
Q 45.5625 56 51.78125 48.09375 
Q 58.015625 40.1875 58.015625 27.296875 
Q 58.015625 14.40625 51.78125 6.484375 
Q 45.5625 -1.421875 35.59375 -1.421875 
Q 29.59375 -1.421875 25.265625 0.953125 
Q 20.953125 3.328125 18.109375 8.203125 
z
M 48.6875 27.296875 
Q 48.6875 37.203125 44.609375 42.84375 
Q 40.53125 48.484375 33.40625 48.484375 
Q 26.265625 48.484375 22.1875 42.84375 
Q 18.109375 37.203125 18.109375 27.296875 
Q 18.109375 17.390625 22.1875 11.75 
Q 26.265625 6.109375 33.40625 6.109375 
Q 40.53125 6.109375 44.609375 11.75 
Q 48.6875 17.390625 48.6875 27.296875 
z
" id="DejaVuSans-112"/>
      <path d="M 45.40625 46.390625 
L 45.40625 75.984375 
L 54.390625 75.984375 
L 54.390625 0 
L 45.40625 0 
L 45.40625 8.203125 
Q 42.578125 3.328125 38.25 0.953125 
Q 33.9375 -1.421875 27.875 -1.421875 
Q 17.96875 -1.421875 11.734375 6.484375 
Q 5.515625 14.40625 5.515625 27.296875 
Q 5.515625 40.1875 11.734375 48.09375 
Q 17.96875 56 27.875 56 
Q 33.9375 56 38.25 53.625 
Q 42.578125 51.265625 45.40625 46.390625 
z
M 14.796875 27.296875 
Q 14.796875 17.390625 18.875 11.75 
Q 22.953125 6.109375 30.078125 6.109375 
Q 37.203125 6.109375 41.296875 11.75 
Q 45.40625 17.390625 45.40625 27.296875 
Q 45.40625 37.203125 41.296875 42.84375 
Q 37.203125 48.484375 30.078125 48.484375 
Q 22.953125 48.484375 18.875 42.84375 
Q 14.796875 37.203125 14.796875 27.296875 
z
" id="DejaVuSans-100"/>
      <path d="M 37.109375 75.984375 
L 37.109375 68.5 
L 28.515625 68.5 
Q 23.6875 68.5 21.796875 66.546875 
Q 19.921875 64.59375 19.921875 59.515625 
L 19.921875 54.6875 
L 34.71875 54.6875 
L 34.71875 47.703125 
L 19.921875 47.703125 
L 19.921875 0 
L 10.890625 0 
L 10.890625 47.703125 
L 2.296875 47.703125 
L 2.296875 54.6875 
L 10.890625 54.6875 
L 10.890625 58.5 
Q 10.890625 67.625 15.140625 71.796875 
Q 19.390625 75.984375 28.609375 75.984375 
z
" id="DejaVuSans-102"/>
      <path d="M 31 75.875 
Q 24.46875 64.65625 21.28125 53.65625 
Q 18.109375 42.671875 18.109375 31.390625 
Q 18.109375 20.125 21.3125 9.0625 
Q 24.515625 -2 31 -13.1875 
L 23.1875 -13.1875 
Q 15.875 -1.703125 12.234375 9.375 
Q 8.59375 20.453125 8.59375 31.390625 
Q 8.59375 42.28125 12.203125 53.3125 
Q 15.828125 64.359375 23.1875 75.875 
z
" id="DejaVuSans-40"/>
      <path d="M 6.296875 72.90625 
L 16.890625 72.90625 
L 30.515625 42.921875 
L 56.5 72.90625 
L 67.578125 72.90625 
L 34.515625 34.71875 
L 27.78125 0 
L 17.921875 0 
L 24.609375 34.71875 
z
" id="DejaVuSans-Oblique-89"/>
      <path d="M 8.015625 75.875 
L 15.828125 75.875 
Q 23.140625 64.359375 26.78125 53.3125 
Q 30.421875 42.28125 30.421875 31.390625 
Q 30.421875 20.453125 26.78125 9.375 
Q 23.140625 -1.703125 15.828125 -13.1875 
L 8.015625 -13.1875 
Q 14.5 -2 17.703125 9.0625 
Q 20.90625 20.125 20.90625 31.390625 
Q 20.90625 42.671875 17.703125 53.65625 
Q 14.5 64.65625 8.015625 75.875 
z
" id="DejaVuSans-41"/>
     </defs>
     <g transform="translate(206.3 280.278125)scale(0.1 -0.1)">
      <use transform="translate(0 0.015625)" xlink:href="#DejaVuSans-112"/>
      <use transform="translate(63.476562 0.015625)" xlink:href="#DejaVuSans-100"/>
      <use transform="translate(126.953125 0.015625)" xlink:href="#DejaVuSans-102"/>
      <use transform="translate(162.158203 0.015625)" xlink:href="#DejaVuSans-40"/>
      <use transform="translate(201.171875 0.015625)" xlink:href="#DejaVuSans-Oblique-89"/>
      <use transform="translate(262.255859 0.015625)" xlink:href="#DejaVuSans-41"/>
     </g>
    </g>
   </g>
   <g id="matplotlib.axis_2">
    <g id="ytick_1">
     <g id="line2d_15">
      <path clip-path="url(#pb0b651af5a)" d="M 54 242.116364 
L 388.8 242.116364 
" style="fill:none;stroke:#b0b0b0;stroke-linecap:square;stroke-width:0.8;"/>
     </g>
     <g id="line2d_16">
      <defs>
       <path d="M 0 0 
L -3.5 0 
" id="m8dcad31e94" style="stroke:#000000;stroke-width:0.8;"/>
      </defs>
      <g>
       <use style="stroke:#000000;stroke-width:0.8;" x="54" xlink:href="#m8dcad31e94" y="242.116364"/>
      </g>
     </g>
     <g id="text_9">
      <!-- 0.00 -->
      <g transform="translate(24.734375 245.915582)scale(0.1 -0.1)">
       <use xlink:href="#DejaVuSans-48"/>
       <use x="63.623047" xlink:href="#DejaVuSans-46"/>
       <use x="95.410156" xlink:href="#DejaVuSans-48"/>
       <use x="159.033203" xlink:href="#DejaVuSans-48"/>
      </g>
     </g>
    </g>
    <g id="ytick_2">
     <g id="line2d_17">
      <path clip-path="url(#pb0b651af5a)" d="M 54 209.007961 
L 388.8 209.007961 
" style="fill:none;stroke:#b0b0b0;stroke-linecap:square;stroke-width:0.8;"/>
     </g>
     <g id="line2d_18">
      <g>
       <use style="stroke:#000000;stroke-width:0.8;" x="54" xlink:href="#m8dcad31e94" y="209.007961"/>
      </g>
     </g>
     <g id="text_10">
      <!-- 0.01 -->
      <g transform="translate(24.734375 212.80718)scale(0.1 -0.1)">
       <use xlink:href="#DejaVuSans-48"/>
       <use x="63.623047" xlink:href="#DejaVuSans-46"/>
       <use x="95.410156" xlink:href="#DejaVuSans-48"/>
       <use x="159.033203" xlink:href="#DejaVuSans-49"/>
      </g>
     </g>
    </g>
    <g id="ytick_3">
     <g id="line2d_19">
      <path clip-path="url(#pb0b651af5a)" d="M 54 175.899559 
L 388.8 175.899559 
" style="fill:none;stroke:#b0b0b0;stroke-linecap:square;stroke-width:0.8;"/>
     </g>
     <g id="line2d_20">
      <g>
       <use style="stroke:#000000;stroke-width:0.8;" x="54" xlink:href="#m8dcad31e94" y="175.899559"/>
      </g>
     </g>
     <g id="text_11">
      <!-- 0.02 -->
      <g transform="translate(24.734375 179.698777)scale(0.1 -0.1)">
       <use xlink:href="#DejaVuSans-48"/>
       <use x="63.623047" xlink:href="#DejaVuSans-46"/>
       <use x="95.410156" xlink:href="#DejaVuSans-48"/>
       <use x="159.033203" xlink:href="#DejaVuSans-50"/>
      </g>
     </g>
    </g>
    <g id="ytick_4">
     <g id="line2d_21">
      <path clip-path="url(#pb0b651af5a)" d="M 54 142.791156 
L 388.8 142.791156 
" style="fill:none;stroke:#b0b0b0;stroke-linecap:square;stroke-width:0.8;"/>
     </g>
     <g id="line2d_22">
      <g>
       <use style="stroke:#000000;stroke-width:0.8;" x="54" xlink:href="#m8dcad31e94" y="142.791156"/>
      </g>
     </g>
     <g id="text_12">
      <!-- 0.03 -->
      <g transform="translate(24.734375 146.590375)scale(0.1 -0.1)">
       <use xlink:href="#DejaVuSans-48"/>
       <use x="63.623047" xlink:href="#DejaVuSans-46"/>
       <use x="95.410156" xlink:href="#DejaVuSans-48"/>
       <use x="159.033203" xlink:href="#DejaVuSans-51"/>
      </g>
     </g>
    </g>
    <g id="ytick_5">
     <g id="line2d_23">
      <path clip-path="url(#pb0b651af5a)" d="M 54 109.682754 
L 388.8 109.682754 
" style="fill:none;stroke:#b0b0b0;stroke-linecap:square;stroke-width:0.8;"/>
     </g>
     <g id="line2d_24">
      <g>
       <use style="stroke:#000000;stroke-width:0.8;" x="54" xlink:href="#m8dcad31e94" y="109.682754"/>
      </g>
     </g>
     <g id="text_13">
      <!-- 0.04 -->
      <g transform="translate(24.734375 113.481972)scale(0.1 -0.1)">
       <use xlink:href="#DejaVuSans-48"/>
       <use x="63.623047" xlink:href="#DejaVuSans-46"/>
       <use x="95.410156" xlink:href="#DejaVuSans-48"/>
       <use x="159.033203" xlink:href="#DejaVuSans-52"/>
      </g>
     </g>
    </g>
    <g id="ytick_6">
     <g id="line2d_25">
      <path clip-path="url(#pb0b651af5a)" d="M 54 76.574351 
L 388.8 76.574351 
" style="fill:none;stroke:#b0b0b0;stroke-linecap:square;stroke-width:0.8;"/>
     </g>
     <g id="line2d_26">
      <g>
       <use style="stroke:#000000;stroke-width:0.8;" x="54" xlink:href="#m8dcad31e94" y="76.574351"/>
      </g>
     </g>
     <g id="text_14">
      <!-- 0.05 -->
      <g transform="translate(24.734375 80.37357)scale(0.1 -0.1)">
       <use xlink:href="#DejaVuSans-48"/>
       <use x="63.623047" xlink:href="#DejaVuSans-46"/>
       <use x="95.410156" xlink:href="#DejaVuSans-48"/>
       <use x="159.033203" xlink:href="#DejaVuSans-53"/>
      </g>
     </g>
    </g>
    <g id="ytick_7">
     <g id="line2d_27">
      <path clip-path="url(#pb0b651af5a)" d="M 54 43.465949 
L 388.8 43.465949 
" style="fill:none;stroke:#b0b0b0;stroke-linecap:square;stroke-width:0.8;"/>
     </g>
     <g id="line2d_28">
      <g>
       <use style="stroke:#000000;stroke-width:0.8;" x="54" xlink:href="#m8dcad31e94" y="43.465949"/>
      </g>
     </g>
     <g id="text_15">
      <!-- 0.06 -->
      <g transform="translate(24.734375 47.265167)scale(0.1 -0.1)">
       <use xlink:href="#DejaVuSans-48"/>
       <use x="63.623047" xlink:href="#DejaVuSans-46"/>
       <use x="95.410156" xlink:href="#DejaVuSans-48"/>
       <use x="159.033203" xlink:href="#DejaVuSans-54"/>
      </g>
     </g>
    </g>
    <g id="text_16">
     <!-- pdf$(Y^*)$ -->
     <defs>
      <path d="M 47.015625 60.890625 
L 29.5 51.421875 
L 47.015625 41.890625 
L 44.1875 37.109375 
L 27.78125 47.015625 
L 27.78125 28.609375 
L 22.21875 28.609375 
L 22.21875 47.015625 
L 5.8125 37.109375 
L 2.984375 41.890625 
L 20.515625 51.421875 
L 2.984375 60.890625 
L 5.8125 65.71875 
L 22.21875 55.8125 
L 22.21875 74.21875 
L 27.78125 74.21875 
L 27.78125 55.8125 
L 44.1875 65.71875 
z
" id="DejaVuSans-42"/>
     </defs>
     <g transform="translate(18.634375 161.98)rotate(-90)scale(0.1 -0.1)">
      <use transform="translate(0 0.765625)" xlink:href="#DejaVuSans-112"/>
      <use transform="translate(63.476562 0.765625)" xlink:href="#DejaVuSans-100"/>
      <use transform="translate(126.953125 0.765625)" xlink:href="#DejaVuSans-102"/>
      <use transform="translate(162.158203 0.765625)" xlink:href="#DejaVuSans-40"/>
      <use transform="translate(201.171875 0.765625)" xlink:href="#DejaVuSans-Oblique-89"/>
      <use transform="translate(282.910326 39.046875)scale(0.7)" xlink:href="#DejaVuSans-42"/>
      <use transform="translate(334.282396 0.765625)" xlink:href="#DejaVuSans-41"/>
     </g>
    </g>
   </g>
   <g id="line2d_29">
    <defs>
     <path d="M 0 1.5 
C 0.397805 1.5 0.77937 1.341951 1.06066 1.06066 
C 1.341951 0.77937 1.5 0.397805 1.5 0 
C 1.5 -0.397805 1.341951 -0.77937 1.06066 -1.06066 
C 0.77937 -1.341951 0.397805 -1.5 0 -1.5 
C -0.397805 -1.5 -0.77937 -1.341951 -1.06066 -1.06066 
C -1.341951 -0.77937 -1.5 -0.397805 -1.5 0 
C -1.5 0.397805 -1.341951 0.77937 -1.06066 1.06066 
C -0.77937 1.341951 -0.397805 1.5 0 1.5 
z
" id="m1728561cff" style="stroke:#1f77b4;"/>
    </defs>
    <g clip-path="url(#pb0b651af5a)">
     <use style="fill:#1f77b4;stroke:#1f77b4;" x="70.100395" xlink:href="#m1728561cff" y="242.116364"/>
     <use style="fill:#1f77b4;stroke:#1f77b4;" x="70.982609" xlink:href="#m1728561cff" y="242.116364"/>
     <use style="fill:#1f77b4;stroke:#1f77b4;" x="75.393676" xlink:href="#m1728561cff" y="241.567273"/>
     <use style="fill:#1f77b4;stroke:#1f77b4;" x="78.040316" xlink:href="#m1728561cff" y="241.018182"/>
     <use style="fill:#1f77b4;stroke:#1f77b4;" x="85.098024" xlink:href="#m1728561cff" y="241.018182"/>
     <use style="fill:#1f77b4;stroke:#1f77b4;" x="85.980237" xlink:href="#m1728561cff" y="237.174545"/>
     <use style="fill:#1f77b4;stroke:#1f77b4;" x="100.095652" xlink:href="#m1728561cff" y="236.076364"/>
     <use style="fill:#1f77b4;stroke:#1f77b4;" x="109.8" xlink:href="#m1728561cff" y="227.84"/>
     <use style="fill:#1f77b4;stroke:#1f77b4;" x="120.386561" xlink:href="#m1728561cff" y="222.349091"/>
     <use style="fill:#1f77b4;stroke:#1f77b4;" x="151.264032" xlink:href="#m1728561cff" y="211.367273"/>
     <use style="fill:#1f77b4;stroke:#1f77b4;" x="150.381818" xlink:href="#m1728561cff" y="195.443636"/>
     <use style="fill:#1f77b4;stroke:#1f77b4;" x="174.201581" xlink:href="#m1728561cff" y="175.676364"/>
     <use style="fill:#1f77b4;stroke:#1f77b4;" x="198.021344" xlink:href="#m1728561cff" y="170.185455"/>
     <use style="fill:#1f77b4;stroke:#1f77b4;" x="219.194466" xlink:href="#m1728561cff" y="144.378182"/>
     <use style="fill:#1f77b4;stroke:#1f77b4;" x="226.252174" xlink:href="#m1728561cff" y="124.061818"/>
     <use style="fill:#1f77b4;stroke:#1f77b4;" x="243.896443" xlink:href="#m1728561cff" y="90.018182"/>
     <use style="fill:#1f77b4;stroke:#1f77b4;" x="285.360474" xlink:href="#m1728561cff" y="75.192727"/>
     <use style="fill:#1f77b4;stroke:#1f77b4;" x="278.302767" xlink:href="#m1728561cff" y="76.290909"/>
     <use style="fill:#1f77b4;stroke:#1f77b4;" x="292.418182" xlink:href="#m1728561cff" y="68.603636"/>
     <use style="fill:#1f77b4;stroke:#1f77b4;" x="320.649012" xlink:href="#m1728561cff" y="100.450909"/>
     <use style="fill:#1f77b4;stroke:#1f77b4;" x="337.411067" xlink:href="#m1728561cff" y="82.88"/>
     <use style="fill:#1f77b4;stroke:#1f77b4;" x="357.701976" xlink:href="#m1728561cff" y="105.941818"/>
     <use style="fill:#1f77b4;stroke:#1f77b4;" x="354.173123" xlink:href="#m1728561cff" y="104.843636"/>
     <use style="fill:#1f77b4;stroke:#1f77b4;" x="350.644269" xlink:href="#m1728561cff" y="103.745455"/>
     <use style="fill:#1f77b4;stroke:#1f77b4;" x="362.995257" xlink:href="#m1728561cff" y="117.472727"/>
     <use style="fill:#1f77b4;stroke:#1f77b4;" x="350.644269" xlink:href="#m1728561cff" y="98.254545"/>
     <use style="fill:#1f77b4;stroke:#1f77b4;" x="341.822134" xlink:href="#m1728561cff" y="101.549091"/>
     <use style="fill:#1f77b4;stroke:#1f77b4;" x="336.528854" xlink:href="#m1728561cff" y="72.996364"/>
     <use style="fill:#1f77b4;stroke:#1f77b4;" x="373.581818" xlink:href="#m1728561cff" y="82.330909"/>
     <use style="fill:#1f77b4;stroke:#1f77b4;" x="340.939921" xlink:href="#m1728561cff" y="64.210909"/>
     <use style="fill:#1f77b4;stroke:#1f77b4;" x="310.062451" xlink:href="#m1728561cff" y="44.443636"/>
     <use style="fill:#1f77b4;stroke:#1f77b4;" x="334.764427" xlink:href="#m1728561cff" y="62.563636"/>
     <use style="fill:#1f77b4;stroke:#1f77b4;" x="304.76917" xlink:href="#m1728561cff" y="64.210909"/>
     <use style="fill:#1f77b4;stroke:#1f77b4;" x="334.764427" xlink:href="#m1728561cff" y="68.603636"/>
     <use style="fill:#1f77b4;stroke:#1f77b4;" x="302.12253" xlink:href="#m1728561cff" y="88.92"/>
     <use style="fill:#1f77b4;stroke:#1f77b4;" x="285.360474" xlink:href="#m1728561cff" y="97.705455"/>
     <use style="fill:#1f77b4;stroke:#1f77b4;" x="286.242688" xlink:href="#m1728561cff" y="142.730909"/>
     <use style="fill:#1f77b4;stroke:#1f77b4;" x="285.360474" xlink:href="#m1728561cff" y="137.24"/>
     <use style="fill:#1f77b4;stroke:#1f77b4;" x="234.192095" xlink:href="#m1728561cff" y="150.967273"/>
     <use style="fill:#1f77b4;stroke:#1f77b4;" x="225.36996" xlink:href="#m1728561cff" y="150.418182"/>
     <use style="fill:#1f77b4;stroke:#1f77b4;" x="229.781028" xlink:href="#m1728561cff" y="143.829091"/>
     <use style="fill:#1f77b4;stroke:#1f77b4;" x="226.252174" xlink:href="#m1728561cff" y="159.203636"/>
     <use style="fill:#1f77b4;stroke:#1f77b4;" x="237.720949" xlink:href="#m1728561cff" y="148.770909"/>
     <use style="fill:#1f77b4;stroke:#1f77b4;" x="197.13913" xlink:href="#m1728561cff" y="136.690909"/>
     <use style="fill:#1f77b4;stroke:#1f77b4;" x="196.256917" xlink:href="#m1728561cff" y="136.141818"/>
     <use style="fill:#1f77b4;stroke:#1f77b4;" x="182.141502" xlink:href="#m1728561cff" y="152.065455"/>
     <use style="fill:#1f77b4;stroke:#1f77b4;" x="165.379447" xlink:href="#m1728561cff" y="153.712727"/>
     <use style="fill:#1f77b4;stroke:#1f77b4;" x="160.086166" xlink:href="#m1728561cff" y="160.850909"/>
     <use style="fill:#1f77b4;stroke:#1f77b4;" x="148.617391" xlink:href="#m1728561cff" y="174.029091"/>
     <use style="fill:#1f77b4;stroke:#1f77b4;" x="141.559684" xlink:href="#m1728561cff" y="194.894545"/>
     <use style="fill:#1f77b4;stroke:#1f77b4;" x="153.028458" xlink:href="#m1728561cff" y="204.229091"/>
     <use style="fill:#1f77b4;stroke:#1f77b4;" x="116.857708" xlink:href="#m1728561cff" y="205.876364"/>
     <use style="fill:#1f77b4;stroke:#1f77b4;" x="125.679842" xlink:href="#m1728561cff" y="217.956364"/>
     <use style="fill:#1f77b4;stroke:#1f77b4;" x="127.444269" xlink:href="#m1728561cff" y="216.858182"/>
     <use style="fill:#1f77b4;stroke:#1f77b4;" x="113.328854" xlink:href="#m1728561cff" y="210.818182"/>
     <use style="fill:#1f77b4;stroke:#1f77b4;" x="122.150988" xlink:href="#m1728561cff" y="210.818182"/>
     <use style="fill:#1f77b4;stroke:#1f77b4;" x="104.506719" xlink:href="#m1728561cff" y="212.465455"/>
     <use style="fill:#1f77b4;stroke:#1f77b4;" x="104.506719" xlink:href="#m1728561cff" y="209.72"/>
     <use style="fill:#1f77b4;stroke:#1f77b4;" x="99.213439" xlink:href="#m1728561cff" y="214.112727"/>
     <use style="fill:#1f77b4;stroke:#1f77b4;" x="93.920158" xlink:href="#m1728561cff" y="209.72"/>
     <use style="fill:#1f77b4;stroke:#1f77b4;" x="92.155731" xlink:href="#m1728561cff" y="220.701818"/>
     <use style="fill:#1f77b4;stroke:#1f77b4;" x="94.802372" xlink:href="#m1728561cff" y="220.152727"/>
     <use style="fill:#1f77b4;stroke:#1f77b4;" x="91.273518" xlink:href="#m1728561cff" y="228.389091"/>
     <use style="fill:#1f77b4;stroke:#1f77b4;" x="80.686957" xlink:href="#m1728561cff" y="229.487273"/>
     <use style="fill:#1f77b4;stroke:#1f77b4;" x="79.804743" xlink:href="#m1728561cff" y="232.781818"/>
     <use style="fill:#1f77b4;stroke:#1f77b4;" x="77.158103" xlink:href="#m1728561cff" y="239.370909"/>
     <use style="fill:#1f77b4;stroke:#1f77b4;" x="83.333597" xlink:href="#m1728561cff" y="238.272727"/>
     <use style="fill:#1f77b4;stroke:#1f77b4;" x="78.92253" xlink:href="#m1728561cff" y="234.429091"/>
     <use style="fill:#1f77b4;stroke:#1f77b4;" x="76.275889" xlink:href="#m1728561cff" y="234.429091"/>
     <use style="fill:#1f77b4;stroke:#1f77b4;" x="75.393676" xlink:href="#m1728561cff" y="238.272727"/>
     <use style="fill:#1f77b4;stroke:#1f77b4;" x="78.040316" xlink:href="#m1728561cff" y="235.527273"/>
     <use style="fill:#1f77b4;stroke:#1f77b4;" x="70.982609" xlink:href="#m1728561cff" y="237.174545"/>
     <use style="fill:#1f77b4;stroke:#1f77b4;" x="76.275889" xlink:href="#m1728561cff" y="238.272727"/>
     <use style="fill:#1f77b4;stroke:#1f77b4;" x="75.393676" xlink:href="#m1728561cff" y="236.076364"/>
     <use style="fill:#1f77b4;stroke:#1f77b4;" x="72.747036" xlink:href="#m1728561cff" y="239.92"/>
     <use style="fill:#1f77b4;stroke:#1f77b4;" x="71.864822" xlink:href="#m1728561cff" y="237.174545"/>
     <use style="fill:#1f77b4;stroke:#1f77b4;" x="70.100395" xlink:href="#m1728561cff" y="241.018182"/>
     <use style="fill:#1f77b4;stroke:#1f77b4;" x="70.982609" xlink:href="#m1728561cff" y="241.567273"/>
     <use style="fill:#1f77b4;stroke:#1f77b4;" x="70.982609" xlink:href="#m1728561cff" y="241.567273"/>
     <use style="fill:#1f77b4;stroke:#1f77b4;" x="72.747036" xlink:href="#m1728561cff" y="240.469091"/>
     <use style="fill:#1f77b4;stroke:#1f77b4;" x="70.100395" xlink:href="#m1728561cff" y="240.469091"/>
     <use style="fill:#1f77b4;stroke:#1f77b4;" x="70.100395" xlink:href="#m1728561cff" y="242.116364"/>
     <use style="fill:#1f77b4;stroke:#1f77b4;" x="69.218182" xlink:href="#m1728561cff" y="241.567273"/>
     <use style="fill:#1f77b4;stroke:#1f77b4;" x="70.100395" xlink:href="#m1728561cff" y="241.567273"/>
     <use style="fill:#1f77b4;stroke:#1f77b4;" x="70.100395" xlink:href="#m1728561cff" y="242.116364"/>
     <use style="fill:#1f77b4;stroke:#1f77b4;" x="70.100395" xlink:href="#m1728561cff" y="241.018182"/>
     <use style="fill:#1f77b4;stroke:#1f77b4;" x="70.100395" xlink:href="#m1728561cff" y="242.116364"/>
     <use style="fill:#1f77b4;stroke:#1f77b4;" x="70.100395" xlink:href="#m1728561cff" y="242.116364"/>
     <use style="fill:#1f77b4;stroke:#1f77b4;" x="69.218182" xlink:href="#m1728561cff" y="242.116364"/>
     <use style="fill:#1f77b4;stroke:#1f77b4;" x="69.218182" xlink:href="#m1728561cff" y="242.116364"/>
     <use style="fill:#1f77b4;stroke:#1f77b4;" x="69.218182" xlink:href="#m1728561cff" y="242.116364"/>
     <use style="fill:#1f77b4;stroke:#1f77b4;" x="70.100395" xlink:href="#m1728561cff" y="242.116364"/>
     <use style="fill:#1f77b4;stroke:#1f77b4;" x="70.100395" xlink:href="#m1728561cff" y="242.116364"/>
     <use style="fill:#1f77b4;stroke:#1f77b4;" x="69.218182" xlink:href="#m1728561cff" y="242.116364"/>
     <use style="fill:#1f77b4;stroke:#1f77b4;" x="69.218182" xlink:href="#m1728561cff" y="241.567273"/>
     <use style="fill:#1f77b4;stroke:#1f77b4;" x="69.218182" xlink:href="#m1728561cff" y="242.116364"/>
     <use style="fill:#1f77b4;stroke:#1f77b4;" x="69.218182" xlink:href="#m1728561cff" y="242.116364"/>
     <use style="fill:#1f77b4;stroke:#1f77b4;" x="69.218182" xlink:href="#m1728561cff" y="242.116364"/>
     <use style="fill:#1f77b4;stroke:#1f77b4;" x="70.100395" xlink:href="#m1728561cff" y="242.116364"/>
    </g>
   </g>
   <g id="patch_3">
    <path d="M 54 252 
L 54 34.56 
" style="fill:none;stroke:#000000;stroke-linecap:square;stroke-linejoin:miter;stroke-width:0.8;"/>
   </g>
   <g id="patch_4">
    <path d="M 388.8 252 
L 388.8 34.56 
" style="fill:none;stroke:#000000;stroke-linecap:square;stroke-linejoin:miter;stroke-width:0.8;"/>
   </g>
   <g id="patch_5">
    <path d="M 54 252 
L 388.8 252 
" style="fill:none;stroke:#000000;stroke-linecap:square;stroke-linejoin:miter;stroke-width:0.8;"/>
   </g>
   <g id="patch_6">
    <path d="M 54 34.56 
L 388.8 34.56 
" style="fill:none;stroke:#000000;stroke-linecap:square;stroke-linejoin:miter;stroke-width:0.8;"/>
   </g>
   <g id="text_17">
    <!-- non-parametric bootstrap vs parametric bootstrap pdf -->
    <defs>
     <path d="M 54.890625 33.015625 
L 54.890625 0 
L 45.90625 0 
L 45.90625 32.71875 
Q 45.90625 40.484375 42.875 44.328125 
Q 39.84375 48.1875 33.796875 48.1875 
Q 26.515625 48.1875 22.3125 43.546875 
Q 18.109375 38.921875 18.109375 30.90625 
L 18.109375 0 
L 9.078125 0 
L 9.078125 54.6875 
L 18.109375 54.6875 
L 18.109375 46.1875 
Q 21.34375 51.125 25.703125 53.5625 
Q 30.078125 56 35.796875 56 
Q 45.21875 56 50.046875 50.171875 
Q 54.890625 44.34375 54.890625 33.015625 
z
" id="DejaVuSans-110"/>
     <path d="M 30.609375 48.390625 
Q 23.390625 48.390625 19.1875 42.75 
Q 14.984375 37.109375 14.984375 27.296875 
Q 14.984375 17.484375 19.15625 11.84375 
Q 23.34375 6.203125 30.609375 6.203125 
Q 37.796875 6.203125 41.984375 11.859375 
Q 46.1875 17.53125 46.1875 27.296875 
Q 46.1875 37.015625 41.984375 42.703125 
Q 37.796875 48.390625 30.609375 48.390625 
z
M 30.609375 56 
Q 42.328125 56 49.015625 48.375 
Q 55.71875 40.765625 55.71875 27.296875 
Q 55.71875 13.875 49.015625 6.21875 
Q 42.328125 -1.421875 30.609375 -1.421875 
Q 18.84375 -1.421875 12.171875 6.21875 
Q 5.515625 13.875 5.515625 27.296875 
Q 5.515625 40.765625 12.171875 48.375 
Q 18.84375 56 30.609375 56 
z
" id="DejaVuSans-111"/>
     <path d="M 4.890625 31.390625 
L 31.203125 31.390625 
L 31.203125 23.390625 
L 4.890625 23.390625 
z
" id="DejaVuSans-45"/>
     <path d="M 34.28125 27.484375 
Q 23.390625 27.484375 19.1875 25 
Q 14.984375 22.515625 14.984375 16.5 
Q 14.984375 11.71875 18.140625 8.90625 
Q 21.296875 6.109375 26.703125 6.109375 
Q 34.1875 6.109375 38.703125 11.40625 
Q 43.21875 16.703125 43.21875 25.484375 
L 43.21875 27.484375 
z
M 52.203125 31.203125 
L 52.203125 0 
L 43.21875 0 
L 43.21875 8.296875 
Q 40.140625 3.328125 35.546875 0.953125 
Q 30.953125 -1.421875 24.3125 -1.421875 
Q 15.921875 -1.421875 10.953125 3.296875 
Q 6 8.015625 6 15.921875 
Q 6 25.140625 12.171875 29.828125 
Q 18.359375 34.515625 30.609375 34.515625 
L 43.21875 34.515625 
L 43.21875 35.40625 
Q 43.21875 41.609375 39.140625 45 
Q 35.0625 48.390625 27.6875 48.390625 
Q 23 48.390625 18.546875 47.265625 
Q 14.109375 46.140625 10.015625 43.890625 
L 10.015625 52.203125 
Q 14.9375 54.109375 19.578125 55.046875 
Q 24.21875 56 28.609375 56 
Q 40.484375 56 46.34375 49.84375 
Q 52.203125 43.703125 52.203125 31.203125 
z
" id="DejaVuSans-97"/>
     <path d="M 41.109375 46.296875 
Q 39.59375 47.171875 37.8125 47.578125 
Q 36.03125 48 33.890625 48 
Q 26.265625 48 22.1875 43.046875 
Q 18.109375 38.09375 18.109375 28.8125 
L 18.109375 0 
L 9.078125 0 
L 9.078125 54.6875 
L 18.109375 54.6875 
L 18.109375 46.1875 
Q 20.953125 51.171875 25.484375 53.578125 
Q 30.03125 56 36.53125 56 
Q 37.453125 56 38.578125 55.875 
Q 39.703125 55.765625 41.0625 55.515625 
z
" id="DejaVuSans-114"/>
     <path d="M 52 44.1875 
Q 55.375 50.25 60.0625 53.125 
Q 64.75 56 71.09375 56 
Q 79.640625 56 84.28125 50.015625 
Q 88.921875 44.046875 88.921875 33.015625 
L 88.921875 0 
L 79.890625 0 
L 79.890625 32.71875 
Q 79.890625 40.578125 77.09375 44.375 
Q 74.3125 48.1875 68.609375 48.1875 
Q 61.625 48.1875 57.5625 43.546875 
Q 53.515625 38.921875 53.515625 30.90625 
L 53.515625 0 
L 44.484375 0 
L 44.484375 32.71875 
Q 44.484375 40.625 41.703125 44.40625 
Q 38.921875 48.1875 33.109375 48.1875 
Q 26.21875 48.1875 22.15625 43.53125 
Q 18.109375 38.875 18.109375 30.90625 
L 18.109375 0 
L 9.078125 0 
L 9.078125 54.6875 
L 18.109375 54.6875 
L 18.109375 46.1875 
Q 21.1875 51.21875 25.484375 53.609375 
Q 29.78125 56 35.6875 56 
Q 41.65625 56 45.828125 52.96875 
Q 50 49.953125 52 44.1875 
z
" id="DejaVuSans-109"/>
     <path d="M 56.203125 29.59375 
L 56.203125 25.203125 
L 14.890625 25.203125 
Q 15.484375 15.921875 20.484375 11.0625 
Q 25.484375 6.203125 34.421875 6.203125 
Q 39.59375 6.203125 44.453125 7.46875 
Q 49.3125 8.734375 54.109375 11.28125 
L 54.109375 2.78125 
Q 49.265625 0.734375 44.1875 -0.34375 
Q 39.109375 -1.421875 33.890625 -1.421875 
Q 20.796875 -1.421875 13.15625 6.1875 
Q 5.515625 13.8125 5.515625 26.8125 
Q 5.515625 40.234375 12.765625 48.109375 
Q 20.015625 56 32.328125 56 
Q 43.359375 56 49.78125 48.890625 
Q 56.203125 41.796875 56.203125 29.59375 
z
M 47.21875 32.234375 
Q 47.125 39.59375 43.09375 43.984375 
Q 39.0625 48.390625 32.421875 48.390625 
Q 24.90625 48.390625 20.390625 44.140625 
Q 15.875 39.890625 15.1875 32.171875 
z
" id="DejaVuSans-101"/>
     <path d="M 18.3125 70.21875 
L 18.3125 54.6875 
L 36.8125 54.6875 
L 36.8125 47.703125 
L 18.3125 47.703125 
L 18.3125 18.015625 
Q 18.3125 11.328125 20.140625 9.421875 
Q 21.96875 7.515625 27.59375 7.515625 
L 36.8125 7.515625 
L 36.8125 0 
L 27.59375 0 
Q 17.1875 0 13.234375 3.875 
Q 9.28125 7.765625 9.28125 18.015625 
L 9.28125 47.703125 
L 2.6875 47.703125 
L 2.6875 54.6875 
L 9.28125 54.6875 
L 9.28125 70.21875 
z
" id="DejaVuSans-116"/>
     <path d="M 9.421875 54.6875 
L 18.40625 54.6875 
L 18.40625 0 
L 9.421875 0 
z
M 9.421875 75.984375 
L 18.40625 75.984375 
L 18.40625 64.59375 
L 9.421875 64.59375 
z
" id="DejaVuSans-105"/>
     <path d="M 48.78125 52.59375 
L 48.78125 44.1875 
Q 44.96875 46.296875 41.140625 47.34375 
Q 37.3125 48.390625 33.40625 48.390625 
Q 24.65625 48.390625 19.8125 42.84375 
Q 14.984375 37.3125 14.984375 27.296875 
Q 14.984375 17.28125 19.8125 11.734375 
Q 24.65625 6.203125 33.40625 6.203125 
Q 37.3125 6.203125 41.140625 7.25 
Q 44.96875 8.296875 48.78125 10.40625 
L 48.78125 2.09375 
Q 45.015625 0.34375 40.984375 -0.53125 
Q 36.96875 -1.421875 32.421875 -1.421875 
Q 20.0625 -1.421875 12.78125 6.34375 
Q 5.515625 14.109375 5.515625 27.296875 
Q 5.515625 40.671875 12.859375 48.328125 
Q 20.21875 56 33.015625 56 
Q 37.15625 56 41.109375 55.140625 
Q 45.0625 54.296875 48.78125 52.59375 
z
" id="DejaVuSans-99"/>
     <path id="DejaVuSans-32"/>
     <path d="M 48.6875 27.296875 
Q 48.6875 37.203125 44.609375 42.84375 
Q 40.53125 48.484375 33.40625 48.484375 
Q 26.265625 48.484375 22.1875 42.84375 
Q 18.109375 37.203125 18.109375 27.296875 
Q 18.109375 17.390625 22.1875 11.75 
Q 26.265625 6.109375 33.40625 6.109375 
Q 40.53125 6.109375 44.609375 11.75 
Q 48.6875 17.390625 48.6875 27.296875 
z
M 18.109375 46.390625 
Q 20.953125 51.265625 25.265625 53.625 
Q 29.59375 56 35.59375 56 
Q 45.5625 56 51.78125 48.09375 
Q 58.015625 40.1875 58.015625 27.296875 
Q 58.015625 14.40625 51.78125 6.484375 
Q 45.5625 -1.421875 35.59375 -1.421875 
Q 29.59375 -1.421875 25.265625 0.953125 
Q 20.953125 3.328125 18.109375 8.203125 
L 18.109375 0 
L 9.078125 0 
L 9.078125 75.984375 
L 18.109375 75.984375 
z
" id="DejaVuSans-98"/>
     <path d="M 44.28125 53.078125 
L 44.28125 44.578125 
Q 40.484375 46.53125 36.375 47.5 
Q 32.28125 48.484375 27.875 48.484375 
Q 21.1875 48.484375 17.84375 46.4375 
Q 14.5 44.390625 14.5 40.28125 
Q 14.5 37.15625 16.890625 35.375 
Q 19.28125 33.59375 26.515625 31.984375 
L 29.59375 31.296875 
Q 39.15625 29.25 43.1875 25.515625 
Q 47.21875 21.78125 47.21875 15.09375 
Q 47.21875 7.46875 41.1875 3.015625 
Q 35.15625 -1.421875 24.609375 -1.421875 
Q 20.21875 -1.421875 15.453125 -0.5625 
Q 10.6875 0.296875 5.421875 2 
L 5.421875 11.28125 
Q 10.40625 8.6875 15.234375 7.390625 
Q 20.0625 6.109375 24.8125 6.109375 
Q 31.15625 6.109375 34.5625 8.28125 
Q 37.984375 10.453125 37.984375 14.40625 
Q 37.984375 18.0625 35.515625 20.015625 
Q 33.0625 21.96875 24.703125 23.78125 
L 21.578125 24.515625 
Q 13.234375 26.265625 9.515625 29.90625 
Q 5.8125 33.546875 5.8125 39.890625 
Q 5.8125 47.609375 11.28125 51.796875 
Q 16.75 56 26.8125 56 
Q 31.78125 56 36.171875 55.265625 
Q 40.578125 54.546875 44.28125 53.078125 
z
" id="DejaVuSans-115"/>
     <path d="M 2.984375 54.6875 
L 12.5 54.6875 
L 29.59375 8.796875 
L 46.6875 54.6875 
L 56.203125 54.6875 
L 35.6875 0 
L 23.484375 0 
z
" id="DejaVuSans-118"/>
    </defs>
    <g transform="translate(58.24875 28.56)scale(0.12 -0.12)">
     <use xlink:href="#DejaVuSans-110"/>
     <use x="63.378906" xlink:href="#DejaVuSans-111"/>
     <use x="124.560547" xlink:href="#DejaVuSans-110"/>
     <use x="187.939453" xlink:href="#DejaVuSans-45"/>
     <use x="224.023438" xlink:href="#DejaVuSans-112"/>
     <use x="287.5" xlink:href="#DejaVuSans-97"/>
     <use x="348.779297" xlink:href="#DejaVuSans-114"/>
     <use x="389.892578" xlink:href="#DejaVuSans-97"/>
     <use x="451.171875" xlink:href="#DejaVuSans-109"/>
     <use x="548.583984" xlink:href="#DejaVuSans-101"/>
     <use x="610.107422" xlink:href="#DejaVuSans-116"/>
     <use x="649.316406" xlink:href="#DejaVuSans-114"/>
     <use x="690.429688" xlink:href="#DejaVuSans-105"/>
     <use x="718.212891" xlink:href="#DejaVuSans-99"/>
     <use x="773.193359" xlink:href="#DejaVuSans-32"/>
     <use x="804.980469" xlink:href="#DejaVuSans-98"/>
     <use x="868.457031" xlink:href="#DejaVuSans-111"/>
     <use x="929.638672" xlink:href="#DejaVuSans-111"/>
     <use x="990.820312" xlink:href="#DejaVuSans-116"/>
     <use x="1030.029297" xlink:href="#DejaVuSans-115"/>
     <use x="1082.128906" xlink:href="#DejaVuSans-116"/>
     <use x="1121.337891" xlink:href="#DejaVuSans-114"/>
     <use x="1162.451172" xlink:href="#DejaVuSans-97"/>
     <use x="1223.730469" xlink:href="#DejaVuSans-112"/>
     <use x="1287.207031" xlink:href="#DejaVuSans-32"/>
     <use x="1318.994141" xlink:href="#DejaVuSans-118"/>
     <use x="1378.173828" xlink:href="#DejaVuSans-115"/>
     <use x="1430.273438" xlink:href="#DejaVuSans-32"/>
     <use x="1462.060547" xlink:href="#DejaVuSans-112"/>
     <use x="1525.537109" xlink:href="#DejaVuSans-97"/>
     <use x="1586.816406" xlink:href="#DejaVuSans-114"/>
     <use x="1627.929688" xlink:href="#DejaVuSans-97"/>
     <use x="1689.208984" xlink:href="#DejaVuSans-109"/>
     <use x="1786.621094" xlink:href="#DejaVuSans-101"/>
     <use x="1848.144531" xlink:href="#DejaVuSans-116"/>
     <use x="1887.353516" xlink:href="#DejaVuSans-114"/>
     <use x="1928.466797" xlink:href="#DejaVuSans-105"/>
     <use x="1956.25" xlink:href="#DejaVuSans-99"/>
     <use x="2011.230469" xlink:href="#DejaVuSans-32"/>
     <use x="2043.017578" xlink:href="#DejaVuSans-98"/>
     <use x="2106.494141" xlink:href="#DejaVuSans-111"/>
     <use x="2167.675781" xlink:href="#DejaVuSans-111"/>
     <use x="2228.857422" xlink:href="#DejaVuSans-116"/>
     <use x="2268.066406" xlink:href="#DejaVuSans-115"/>
     <use x="2320.166016" xlink:href="#DejaVuSans-116"/>
     <use x="2359.375" xlink:href="#DejaVuSans-114"/>
     <use x="2400.488281" xlink:href="#DejaVuSans-97"/>
     <use x="2461.767578" xlink:href="#DejaVuSans-112"/>
     <use x="2525.244141" xlink:href="#DejaVuSans-32"/>
     <use x="2557.03125" xlink:href="#DejaVuSans-112"/>
     <use x="2620.507812" xlink:href="#DejaVuSans-100"/>
     <use x="2683.984375" xlink:href="#DejaVuSans-102"/>
    </g>
   </g>
  </g>
 </g>
 <defs>
  <clipPath id="pb0b651af5a">
   <rect height="217.44" width="334.8" x="54" y="34.56"/>
  </clipPath>
 </defs>
</svg>
