<?xml version="1.0" encoding="utf-8" standalone="no"?>
<!DOCTYPE svg PUBLIC "-//W3C//DTD SVG 1.1//EN"
  "http://www.w3.org/Graphics/SVG/1.1/DTD/svg11.dtd">
<!-- Created with matplotlib (https://matplotlib.org/) -->
<svg height="288pt" version="1.1" viewBox="0 0 432 288" width="432pt" xmlns="http://www.w3.org/2000/svg" xmlns:xlink="http://www.w3.org/1999/xlink">
 <metadata>
  <rdf:RDF xmlns:cc="http://creativecommons.org/ns#" xmlns:dc="http://purl.org/dc/elements/1.1/" xmlns:rdf="http://www.w3.org/1999/02/22-rdf-syntax-ns#">
   <cc:Work>
    <dc:type rdf:resource="http://purl.org/dc/dcmitype/StillImage"/>
    <dc:date>2021-04-13T18:34:29.021344</dc:date>
    <dc:format>image/svg+xml</dc:format>
    <dc:creator>
     <cc:Agent>
      <dc:title>Matplotlib v3.3.2, https://matplotlib.org/</dc:title>
     </cc:Agent>
    </dc:creator>
   </cc:Work>
  </rdf:RDF>
 </metadata>
 <defs>
  <style type="text/css">*{stroke-linecap:butt;stroke-linejoin:round;}</style>
 </defs>
 <g id="figure_1">
  <g id="patch_1">
   <path d="M 0 288 
L 432 288 
L 432 0 
L 0 0 
z
" style="fill:none;"/>
  </g>
  <g id="axes_1">
   <g id="patch_2">
    <path d="M 54 252 
L 388.8 252 
L 388.8 34.56 
L 54 34.56 
z
" style="fill:none;"/>
   </g>
   <g id="patch_3">
    <path clip-path="url(#pef7c95f7cc)" d="M 87.48 252 
L 90.185455 252 
L 90.185455 252 
L 87.48 252 
z
" style="fill:#1f77b4;opacity:0.5;"/>
   </g>
   <g id="patch_4">
    <path clip-path="url(#pef7c95f7cc)" d="M 90.185455 252 
L 92.890909 252 
L 92.890909 251.55153 
L 90.185455 251.55153 
z
" style="fill:#1f77b4;opacity:0.5;"/>
   </g>
   <g id="patch_5">
    <path clip-path="url(#pef7c95f7cc)" d="M 92.890909 252 
L 95.596364 252 
L 95.596364 251.55153 
L 92.890909 251.55153 
z
" style="fill:#1f77b4;opacity:0.5;"/>
   </g>
   <g id="patch_6">
    <path clip-path="url(#pef7c95f7cc)" d="M 95.596364 252 
L 98.301818 252 
L 98.301818 252 
L 95.596364 252 
z
" style="fill:#1f77b4;opacity:0.5;"/>
   </g>
   <g id="patch_7">
    <path clip-path="url(#pef7c95f7cc)" d="M 98.301818 252 
L 101.007273 252 
L 101.007273 252 
L 98.301818 252 
z
" style="fill:#1f77b4;opacity:0.5;"/>
   </g>
   <g id="patch_8">
    <path clip-path="url(#pef7c95f7cc)" d="M 101.007273 252 
L 103.712727 252 
L 103.712727 252 
L 101.007273 252 
z
" style="fill:#1f77b4;opacity:0.5;"/>
   </g>
   <g id="patch_9">
    <path clip-path="url(#pef7c95f7cc)" d="M 103.712727 252 
L 106.418182 252 
L 106.418182 250.65459 
L 103.712727 250.65459 
z
" style="fill:#1f77b4;opacity:0.5;"/>
   </g>
   <g id="patch_10">
    <path clip-path="url(#pef7c95f7cc)" d="M 106.418182 252 
L 109.123636 252 
L 109.123636 251.10306 
L 106.418182 251.10306 
z
" style="fill:#1f77b4;opacity:0.5;"/>
   </g>
   <g id="patch_11">
    <path clip-path="url(#pef7c95f7cc)" d="M 109.123636 252 
L 111.829091 252 
L 111.829091 251.55153 
L 109.123636 251.55153 
z
" style="fill:#1f77b4;opacity:0.5;"/>
   </g>
   <g id="patch_12">
    <path clip-path="url(#pef7c95f7cc)" d="M 111.829091 252 
L 114.534545 252 
L 114.534545 250.65459 
L 111.829091 250.65459 
z
" style="fill:#1f77b4;opacity:0.5;"/>
   </g>
   <g id="patch_13">
    <path clip-path="url(#pef7c95f7cc)" d="M 114.534545 252 
L 117.24 252 
L 117.24 251.10306 
L 114.534545 251.10306 
z
" style="fill:#1f77b4;opacity:0.5;"/>
   </g>
   <g id="patch_14">
    <path clip-path="url(#pef7c95f7cc)" d="M 117.24 252 
L 119.945455 252 
L 119.945455 249.75765 
L 117.24 249.75765 
z
" style="fill:#1f77b4;opacity:0.5;"/>
   </g>
   <g id="patch_15">
    <path clip-path="url(#pef7c95f7cc)" d="M 119.945455 252 
L 122.650909 252 
L 122.650909 250.20612 
L 119.945455 250.20612 
z
" style="fill:#1f77b4;opacity:0.5;"/>
   </g>
   <g id="patch_16">
    <path clip-path="url(#pef7c95f7cc)" d="M 122.650909 252 
L 125.356364 252 
L 125.356364 250.20612 
L 122.650909 250.20612 
z
" style="fill:#1f77b4;opacity:0.5;"/>
   </g>
   <g id="patch_17">
    <path clip-path="url(#pef7c95f7cc)" d="M 125.356364 252 
L 128.061818 252 
L 128.061818 247.06683 
L 125.356364 247.06683 
z
" style="fill:#1f77b4;opacity:0.5;"/>
   </g>
   <g id="patch_18">
    <path clip-path="url(#pef7c95f7cc)" d="M 128.061818 252 
L 130.767273 252 
L 130.767273 249.30918 
L 128.061818 249.30918 
z
" style="fill:#1f77b4;opacity:0.5;"/>
   </g>
   <g id="patch_19">
    <path clip-path="url(#pef7c95f7cc)" d="M 130.767273 252 
L 133.472727 252 
L 133.472727 247.96377 
L 130.767273 247.96377 
z
" style="fill:#1f77b4;opacity:0.5;"/>
   </g>
   <g id="patch_20">
    <path clip-path="url(#pef7c95f7cc)" d="M 133.472727 252 
L 136.178182 252 
L 136.178182 248.41224 
L 133.472727 248.41224 
z
" style="fill:#1f77b4;opacity:0.5;"/>
   </g>
   <g id="patch_21">
    <path clip-path="url(#pef7c95f7cc)" d="M 136.178182 252 
L 138.883636 252 
L 138.883636 246.16989 
L 136.178182 246.16989 
z
" style="fill:#1f77b4;opacity:0.5;"/>
   </g>
   <g id="patch_22">
    <path clip-path="url(#pef7c95f7cc)" d="M 138.883636 252 
L 141.589091 252 
L 141.589091 244.37601 
L 138.883636 244.37601 
z
" style="fill:#1f77b4;opacity:0.5;"/>
   </g>
   <g id="patch_23">
    <path clip-path="url(#pef7c95f7cc)" d="M 141.589091 252 
L 144.294545 252 
L 144.294545 239.89131 
L 141.589091 239.89131 
z
" style="fill:#1f77b4;opacity:0.5;"/>
   </g>
   <g id="patch_24">
    <path clip-path="url(#pef7c95f7cc)" d="M 144.294545 252 
L 147 252 
L 147 239.44284 
L 144.294545 239.44284 
z
" style="fill:#1f77b4;opacity:0.5;"/>
   </g>
   <g id="patch_25">
    <path clip-path="url(#pef7c95f7cc)" d="M 147 252 
L 149.705455 252 
L 149.705455 240.33978 
L 147 240.33978 
z
" style="fill:#1f77b4;opacity:0.5;"/>
   </g>
   <g id="patch_26">
    <path clip-path="url(#pef7c95f7cc)" d="M 149.705455 252 
L 152.410909 252 
L 152.410909 231.37038 
L 149.705455 231.37038 
z
" style="fill:#1f77b4;opacity:0.5;"/>
   </g>
   <g id="patch_27">
    <path clip-path="url(#pef7c95f7cc)" d="M 152.410909 252 
L 155.116364 252 
L 155.116364 234.50967 
L 152.410909 234.50967 
z
" style="fill:#1f77b4;opacity:0.5;"/>
   </g>
   <g id="patch_28">
    <path clip-path="url(#pef7c95f7cc)" d="M 155.116364 252 
L 157.821818 252 
L 157.821818 233.61273 
L 155.116364 233.61273 
z
" style="fill:#1f77b4;opacity:0.5;"/>
   </g>
   <g id="patch_29">
    <path clip-path="url(#pef7c95f7cc)" d="M 157.821818 252 
L 160.527273 252 
L 160.527273 229.5765 
L 157.821818 229.5765 
z
" style="fill:#1f77b4;opacity:0.5;"/>
   </g>
   <g id="patch_30">
    <path clip-path="url(#pef7c95f7cc)" d="M 160.527273 252 
L 163.232727 252 
L 163.232727 226.43721 
L 160.527273 226.43721 
z
" style="fill:#1f77b4;opacity:0.5;"/>
   </g>
   <g id="patch_31">
    <path clip-path="url(#pef7c95f7cc)" d="M 163.232727 252 
L 165.938182 252 
L 165.938182 217.91628 
L 163.232727 217.91628 
z
" style="fill:#1f77b4;opacity:0.5;"/>
   </g>
   <g id="patch_32">
    <path clip-path="url(#pef7c95f7cc)" d="M 165.938182 252 
L 168.643636 252 
L 168.643636 210.29229 
L 165.938182 210.29229 
z
" style="fill:#1f77b4;opacity:0.5;"/>
   </g>
   <g id="patch_33">
    <path clip-path="url(#pef7c95f7cc)" d="M 168.643636 252 
L 171.349091 252 
L 171.349091 199.08054 
L 168.643636 199.08054 
z
" style="fill:#1f77b4;opacity:0.5;"/>
   </g>
   <g id="patch_34">
    <path clip-path="url(#pef7c95f7cc)" d="M 171.349091 252 
L 174.054545 252 
L 174.054545 200.87442 
L 171.349091 200.87442 
z
" style="fill:#1f77b4;opacity:0.5;"/>
   </g>
   <g id="patch_35">
    <path clip-path="url(#pef7c95f7cc)" d="M 174.054545 252 
L 176.76 252 
L 176.76 196.38972 
L 174.054545 196.38972 
z
" style="fill:#1f77b4;opacity:0.5;"/>
   </g>
   <g id="patch_36">
    <path clip-path="url(#pef7c95f7cc)" d="M 176.76 252 
L 179.465455 252 
L 179.465455 204.01371 
L 176.76 204.01371 
z
" style="fill:#1f77b4;opacity:0.5;"/>
   </g>
   <g id="patch_37">
    <path clip-path="url(#pef7c95f7cc)" d="M 179.465455 252 
L 182.170909 252 
L 182.170909 172.62081 
L 179.465455 172.62081 
z
" style="fill:#1f77b4;opacity:0.5;"/>
   </g>
   <g id="patch_38">
    <path clip-path="url(#pef7c95f7cc)" d="M 182.170909 252 
L 184.876364 252 
L 184.876364 182.48715 
L 182.170909 182.48715 
z
" style="fill:#1f77b4;opacity:0.5;"/>
   </g>
   <g id="patch_39">
    <path clip-path="url(#pef7c95f7cc)" d="M 184.876364 252 
L 187.581818 252 
L 187.581818 182.03868 
L 184.876364 182.03868 
z
" style="fill:#1f77b4;opacity:0.5;"/>
   </g>
   <g id="patch_40">
    <path clip-path="url(#pef7c95f7cc)" d="M 187.581818 252 
L 190.287273 252 
L 190.287273 157.8213 
L 187.581818 157.8213 
z
" style="fill:#1f77b4;opacity:0.5;"/>
   </g>
   <g id="patch_41">
    <path clip-path="url(#pef7c95f7cc)" d="M 190.287273 252 
L 192.992727 252 
L 192.992727 150.19731 
L 190.287273 150.19731 
z
" style="fill:#1f77b4;opacity:0.5;"/>
   </g>
   <g id="patch_42">
    <path clip-path="url(#pef7c95f7cc)" d="M 192.992727 252 
L 195.698182 252 
L 195.698182 151.99119 
L 192.992727 151.99119 
z
" style="fill:#1f77b4;opacity:0.5;"/>
   </g>
   <g id="patch_43">
    <path clip-path="url(#pef7c95f7cc)" d="M 195.698182 252 
L 198.403636 252 
L 198.403636 141.67638 
L 195.698182 141.67638 
z
" style="fill:#1f77b4;opacity:0.5;"/>
   </g>
   <g id="patch_44">
    <path clip-path="url(#pef7c95f7cc)" d="M 198.403636 252 
L 201.109091 252 
L 201.109091 140.77944 
L 198.403636 140.77944 
z
" style="fill:#1f77b4;opacity:0.5;"/>
   </g>
   <g id="patch_45">
    <path clip-path="url(#pef7c95f7cc)" d="M 201.109091 252 
L 203.814545 252 
L 203.814545 130.01616 
L 201.109091 130.01616 
z
" style="fill:#1f77b4;opacity:0.5;"/>
   </g>
   <g id="patch_46">
    <path clip-path="url(#pef7c95f7cc)" d="M 203.814545 252 
L 206.52 252 
L 206.52 130.9131 
L 203.814545 130.9131 
z
" style="fill:#1f77b4;opacity:0.5;"/>
   </g>
   <g id="patch_47">
    <path clip-path="url(#pef7c95f7cc)" d="M 206.52 252 
L 209.225455 252 
L 209.225455 115.66512 
L 206.52 115.66512 
z
" style="fill:#1f77b4;opacity:0.5;"/>
   </g>
   <g id="patch_48">
    <path clip-path="url(#pef7c95f7cc)" d="M 209.225455 252 
L 211.930909 252 
L 211.930909 113.87124 
L 209.225455 113.87124 
z
" style="fill:#1f77b4;opacity:0.5;"/>
   </g>
   <g id="patch_49">
    <path clip-path="url(#pef7c95f7cc)" d="M 211.930909 252 
L 214.636364 252 
L 214.636364 104.0049 
L 211.930909 104.0049 
z
" style="fill:#1f77b4;opacity:0.5;"/>
   </g>
   <g id="patch_50">
    <path clip-path="url(#pef7c95f7cc)" d="M 214.636364 252 
L 217.341818 252 
L 217.341818 108.4896 
L 214.636364 108.4896 
z
" style="fill:#1f77b4;opacity:0.5;"/>
   </g>
   <g id="patch_51">
    <path clip-path="url(#pef7c95f7cc)" d="M 217.341818 252 
L 220.047273 252 
L 220.047273 103.55643 
L 217.341818 103.55643 
z
" style="fill:#1f77b4;opacity:0.5;"/>
   </g>
   <g id="patch_52">
    <path clip-path="url(#pef7c95f7cc)" d="M 220.047273 252 
L 222.752727 252 
L 222.752727 103.55643 
L 220.047273 103.55643 
z
" style="fill:#1f77b4;opacity:0.5;"/>
   </g>
   <g id="patch_53">
    <path clip-path="url(#pef7c95f7cc)" d="M 222.752727 252 
L 225.458182 252 
L 225.458182 98.62326 
L 222.752727 98.62326 
z
" style="fill:#1f77b4;opacity:0.5;"/>
   </g>
   <g id="patch_54">
    <path clip-path="url(#pef7c95f7cc)" d="M 225.458182 252 
L 228.163636 252 
L 228.163636 122.39217 
L 225.458182 122.39217 
z
" style="fill:#1f77b4;opacity:0.5;"/>
   </g>
   <g id="patch_55">
    <path clip-path="url(#pef7c95f7cc)" d="M 228.163636 252 
L 230.869091 252 
L 230.869091 113.87124 
L 228.163636 113.87124 
z
" style="fill:#1f77b4;opacity:0.5;"/>
   </g>
   <g id="patch_56">
    <path clip-path="url(#pef7c95f7cc)" d="M 230.869091 252 
L 233.574545 252 
L 233.574545 121.9437 
L 230.869091 121.9437 
z
" style="fill:#1f77b4;opacity:0.5;"/>
   </g>
   <g id="patch_57">
    <path clip-path="url(#pef7c95f7cc)" d="M 233.574545 252 
L 236.28 252 
L 236.28 119.25288 
L 233.574545 119.25288 
z
" style="fill:#1f77b4;opacity:0.5;"/>
   </g>
   <g id="patch_58">
    <path clip-path="url(#pef7c95f7cc)" d="M 236.28 252 
L 238.985455 252 
L 238.985455 113.87124 
L 236.28 113.87124 
z
" style="fill:#1f77b4;opacity:0.5;"/>
   </g>
   <g id="patch_59">
    <path clip-path="url(#pef7c95f7cc)" d="M 238.985455 252 
L 241.690909 252 
L 241.690909 126.87687 
L 238.985455 126.87687 
z
" style="fill:#1f77b4;opacity:0.5;"/>
   </g>
   <g id="patch_60">
    <path clip-path="url(#pef7c95f7cc)" d="M 241.690909 252 
L 244.396364 252 
L 244.396364 125.97993 
L 241.690909 125.97993 
z
" style="fill:#1f77b4;opacity:0.5;"/>
   </g>
   <g id="patch_61">
    <path clip-path="url(#pef7c95f7cc)" d="M 244.396364 252 
L 247.101818 252 
L 247.101818 138.98556 
L 244.396364 138.98556 
z
" style="fill:#1f77b4;opacity:0.5;"/>
   </g>
   <g id="patch_62">
    <path clip-path="url(#pef7c95f7cc)" d="M 247.101818 252 
L 249.807273 252 
L 249.807273 152.43966 
L 247.101818 152.43966 
z
" style="fill:#1f77b4;opacity:0.5;"/>
   </g>
   <g id="patch_63">
    <path clip-path="url(#pef7c95f7cc)" d="M 249.807273 252 
L 252.512727 252 
L 252.512727 157.8213 
L 249.807273 157.8213 
z
" style="fill:#1f77b4;opacity:0.5;"/>
   </g>
   <g id="patch_64">
    <path clip-path="url(#pef7c95f7cc)" d="M 252.512727 252 
L 255.218182 252 
L 255.218182 158.71824 
L 252.512727 158.71824 
z
" style="fill:#1f77b4;opacity:0.5;"/>
   </g>
   <g id="patch_65">
    <path clip-path="url(#pef7c95f7cc)" d="M 255.218182 252 
L 257.923636 252 
L 257.923636 164.54835 
L 255.218182 164.54835 
z
" style="fill:#1f77b4;opacity:0.5;"/>
   </g>
   <g id="patch_66">
    <path clip-path="url(#pef7c95f7cc)" d="M 257.923636 252 
L 260.629091 252 
L 260.629091 167.23917 
L 257.923636 167.23917 
z
" style="fill:#1f77b4;opacity:0.5;"/>
   </g>
   <g id="patch_67">
    <path clip-path="url(#pef7c95f7cc)" d="M 260.629091 252 
L 263.334545 252 
L 263.334545 192.35349 
L 260.629091 192.35349 
z
" style="fill:#1f77b4;opacity:0.5;"/>
   </g>
   <g id="patch_68">
    <path clip-path="url(#pef7c95f7cc)" d="M 263.334545 252 
L 266.04 252 
L 266.04 187.42032 
L 263.334545 187.42032 
z
" style="fill:#1f77b4;opacity:0.5;"/>
   </g>
   <g id="patch_69">
    <path clip-path="url(#pef7c95f7cc)" d="M 266.04 252 
L 268.745455 252 
L 268.745455 195.49278 
L 266.04 195.49278 
z
" style="fill:#1f77b4;opacity:0.5;"/>
   </g>
   <g id="patch_70">
    <path clip-path="url(#pef7c95f7cc)" d="M 268.745455 252 
L 271.450909 252 
L 271.450909 204.01371 
L 268.745455 204.01371 
z
" style="fill:#1f77b4;opacity:0.5;"/>
   </g>
   <g id="patch_71">
    <path clip-path="url(#pef7c95f7cc)" d="M 271.450909 252 
L 274.156364 252 
L 274.156364 211.6377 
L 271.450909 211.6377 
z
" style="fill:#1f77b4;opacity:0.5;"/>
   </g>
   <g id="patch_72">
    <path clip-path="url(#pef7c95f7cc)" d="M 274.156364 252 
L 276.861818 252 
L 276.861818 204.46218 
L 274.156364 204.46218 
z
" style="fill:#1f77b4;opacity:0.5;"/>
   </g>
   <g id="patch_73">
    <path clip-path="url(#pef7c95f7cc)" d="M 276.861818 252 
L 279.567273 252 
L 279.567273 217.46781 
L 276.861818 217.46781 
z
" style="fill:#1f77b4;opacity:0.5;"/>
   </g>
   <g id="patch_74">
    <path clip-path="url(#pef7c95f7cc)" d="M 279.567273 252 
L 282.272727 252 
L 282.272727 224.64333 
L 279.567273 224.64333 
z
" style="fill:#1f77b4;opacity:0.5;"/>
   </g>
   <g id="patch_75">
    <path clip-path="url(#pef7c95f7cc)" d="M 282.272727 252 
L 284.978182 252 
L 284.978182 225.0918 
L 282.272727 225.0918 
z
" style="fill:#1f77b4;opacity:0.5;"/>
   </g>
   <g id="patch_76">
    <path clip-path="url(#pef7c95f7cc)" d="M 284.978182 252 
L 287.683636 252 
L 287.683636 230.47344 
L 284.978182 230.47344 
z
" style="fill:#1f77b4;opacity:0.5;"/>
   </g>
   <g id="patch_77">
    <path clip-path="url(#pef7c95f7cc)" d="M 287.683636 252 
L 290.389091 252 
L 290.389091 234.50967 
L 287.683636 234.50967 
z
" style="fill:#1f77b4;opacity:0.5;"/>
   </g>
   <g id="patch_78">
    <path clip-path="url(#pef7c95f7cc)" d="M 290.389091 252 
L 293.094545 252 
L 293.094545 232.26732 
L 290.389091 232.26732 
z
" style="fill:#1f77b4;opacity:0.5;"/>
   </g>
   <g id="patch_79">
    <path clip-path="url(#pef7c95f7cc)" d="M 293.094545 252 
L 295.8 252 
L 295.8 238.99437 
L 293.094545 238.99437 
z
" style="fill:#1f77b4;opacity:0.5;"/>
   </g>
   <g id="patch_80">
    <path clip-path="url(#pef7c95f7cc)" d="M 295.8 252 
L 298.505455 252 
L 298.505455 240.78825 
L 295.8 240.78825 
z
" style="fill:#1f77b4;opacity:0.5;"/>
   </g>
   <g id="patch_81">
    <path clip-path="url(#pef7c95f7cc)" d="M 298.505455 252 
L 301.210909 252 
L 301.210909 245.72142 
L 298.505455 245.72142 
z
" style="fill:#1f77b4;opacity:0.5;"/>
   </g>
   <g id="patch_82">
    <path clip-path="url(#pef7c95f7cc)" d="M 301.210909 252 
L 303.916364 252 
L 303.916364 243.92754 
L 301.210909 243.92754 
z
" style="fill:#1f77b4;opacity:0.5;"/>
   </g>
   <g id="patch_83">
    <path clip-path="url(#pef7c95f7cc)" d="M 303.916364 252 
L 306.621818 252 
L 306.621818 242.58213 
L 303.916364 242.58213 
z
" style="fill:#1f77b4;opacity:0.5;"/>
   </g>
   <g id="patch_84">
    <path clip-path="url(#pef7c95f7cc)" d="M 306.621818 252 
L 309.327273 252 
L 309.327273 250.20612 
L 306.621818 250.20612 
z
" style="fill:#1f77b4;opacity:0.5;"/>
   </g>
   <g id="patch_85">
    <path clip-path="url(#pef7c95f7cc)" d="M 309.327273 252 
L 312.032727 252 
L 312.032727 248.86071 
L 309.327273 248.86071 
z
" style="fill:#1f77b4;opacity:0.5;"/>
   </g>
   <g id="patch_86">
    <path clip-path="url(#pef7c95f7cc)" d="M 312.032727 252 
L 314.738182 252 
L 314.738182 245.72142 
L 312.032727 245.72142 
z
" style="fill:#1f77b4;opacity:0.5;"/>
   </g>
   <g id="patch_87">
    <path clip-path="url(#pef7c95f7cc)" d="M 314.738182 252 
L 317.443636 252 
L 317.443636 251.10306 
L 314.738182 251.10306 
z
" style="fill:#1f77b4;opacity:0.5;"/>
   </g>
   <g id="patch_88">
    <path clip-path="url(#pef7c95f7cc)" d="M 317.443636 252 
L 320.149091 252 
L 320.149091 250.65459 
L 317.443636 250.65459 
z
" style="fill:#1f77b4;opacity:0.5;"/>
   </g>
   <g id="patch_89">
    <path clip-path="url(#pef7c95f7cc)" d="M 320.149091 252 
L 322.854545 252 
L 322.854545 249.30918 
L 320.149091 249.30918 
z
" style="fill:#1f77b4;opacity:0.5;"/>
   </g>
   <g id="patch_90">
    <path clip-path="url(#pef7c95f7cc)" d="M 322.854545 252 
L 325.56 252 
L 325.56 251.10306 
L 322.854545 251.10306 
z
" style="fill:#1f77b4;opacity:0.5;"/>
   </g>
   <g id="patch_91">
    <path clip-path="url(#pef7c95f7cc)" d="M 325.56 252 
L 328.265455 252 
L 328.265455 250.65459 
L 325.56 250.65459 
z
" style="fill:#1f77b4;opacity:0.5;"/>
   </g>
   <g id="patch_92">
    <path clip-path="url(#pef7c95f7cc)" d="M 328.265455 252 
L 330.970909 252 
L 330.970909 251.10306 
L 328.265455 251.10306 
z
" style="fill:#1f77b4;opacity:0.5;"/>
   </g>
   <g id="patch_93">
    <path clip-path="url(#pef7c95f7cc)" d="M 330.970909 252 
L 333.676364 252 
L 333.676364 252 
L 330.970909 252 
z
" style="fill:#1f77b4;opacity:0.5;"/>
   </g>
   <g id="patch_94">
    <path clip-path="url(#pef7c95f7cc)" d="M 333.676364 252 
L 336.381818 252 
L 336.381818 252 
L 333.676364 252 
z
" style="fill:#1f77b4;opacity:0.5;"/>
   </g>
   <g id="patch_95">
    <path clip-path="url(#pef7c95f7cc)" d="M 336.381818 252 
L 339.087273 252 
L 339.087273 251.10306 
L 336.381818 251.10306 
z
" style="fill:#1f77b4;opacity:0.5;"/>
   </g>
   <g id="patch_96">
    <path clip-path="url(#pef7c95f7cc)" d="M 339.087273 252 
L 341.792727 252 
L 341.792727 252 
L 339.087273 252 
z
" style="fill:#1f77b4;opacity:0.5;"/>
   </g>
   <g id="patch_97">
    <path clip-path="url(#pef7c95f7cc)" d="M 341.792727 252 
L 344.498182 252 
L 344.498182 252 
L 341.792727 252 
z
" style="fill:#1f77b4;opacity:0.5;"/>
   </g>
   <g id="patch_98">
    <path clip-path="url(#pef7c95f7cc)" d="M 344.498182 252 
L 347.203636 252 
L 347.203636 252 
L 344.498182 252 
z
" style="fill:#1f77b4;opacity:0.5;"/>
   </g>
   <g id="patch_99">
    <path clip-path="url(#pef7c95f7cc)" d="M 347.203636 252 
L 349.909091 252 
L 349.909091 252 
L 347.203636 252 
z
" style="fill:#1f77b4;opacity:0.5;"/>
   </g>
   <g id="patch_100">
    <path clip-path="url(#pef7c95f7cc)" d="M 349.909091 252 
L 352.614545 252 
L 352.614545 252 
L 349.909091 252 
z
" style="fill:#1f77b4;opacity:0.5;"/>
   </g>
   <g id="patch_101">
    <path clip-path="url(#pef7c95f7cc)" d="M 352.614545 252 
L 355.32 252 
L 355.32 252 
L 352.614545 252 
z
" style="fill:#1f77b4;opacity:0.5;"/>
   </g>
   <g id="matplotlib.axis_1">
    <g id="xtick_1">
     <g id="line2d_1">
      <defs>
       <path d="M 0 0 
L 0 3.5 
" id="m2a34ce9e8e" style="stroke:#000000;stroke-width:0.8;"/>
      </defs>
      <g>
       <use style="stroke:#000000;stroke-width:0.8;" x="87.48" xlink:href="#m2a34ce9e8e" y="252"/>
      </g>
     </g>
     <g id="text_1">
      <!-- −4 -->
      <g transform="translate(80.108906 266.598437)scale(0.1 -0.1)">
       <defs>
        <path d="M 10.59375 35.5 
L 73.1875 35.5 
L 73.1875 27.203125 
L 10.59375 27.203125 
z
" id="DejaVuSans-8722"/>
        <path d="M 37.796875 64.3125 
L 12.890625 25.390625 
L 37.796875 25.390625 
z
M 35.203125 72.90625 
L 47.609375 72.90625 
L 47.609375 25.390625 
L 58.015625 25.390625 
L 58.015625 17.1875 
L 47.609375 17.1875 
L 47.609375 0 
L 37.796875 0 
L 37.796875 17.1875 
L 4.890625 17.1875 
L 4.890625 26.703125 
z
" id="DejaVuSans-52"/>
       </defs>
       <use xlink:href="#DejaVuSans-8722"/>
       <use x="83.789062" xlink:href="#DejaVuSans-52"/>
      </g>
     </g>
    </g>
    <g id="xtick_2">
     <g id="line2d_2">
      <g>
       <use style="stroke:#000000;stroke-width:0.8;" x="154.44" xlink:href="#m2a34ce9e8e" y="252"/>
      </g>
     </g>
     <g id="text_2">
      <!-- −2 -->
      <g transform="translate(147.068906 266.598437)scale(0.1 -0.1)">
       <defs>
        <path d="M 19.1875 8.296875 
L 53.609375 8.296875 
L 53.609375 0 
L 7.328125 0 
L 7.328125 8.296875 
Q 12.9375 14.109375 22.625 23.890625 
Q 32.328125 33.6875 34.8125 36.53125 
Q 39.546875 41.84375 41.421875 45.53125 
Q 43.3125 49.21875 43.3125 52.78125 
Q 43.3125 58.59375 39.234375 62.25 
Q 35.15625 65.921875 28.609375 65.921875 
Q 23.96875 65.921875 18.8125 64.3125 
Q 13.671875 62.703125 7.8125 59.421875 
L 7.8125 69.390625 
Q 13.765625 71.78125 18.9375 73 
Q 24.125 74.21875 28.421875 74.21875 
Q 39.75 74.21875 46.484375 68.546875 
Q 53.21875 62.890625 53.21875 53.421875 
Q 53.21875 48.921875 51.53125 44.890625 
Q 49.859375 40.875 45.40625 35.40625 
Q 44.1875 33.984375 37.640625 27.21875 
Q 31.109375 20.453125 19.1875 8.296875 
z
" id="DejaVuSans-50"/>
       </defs>
       <use xlink:href="#DejaVuSans-8722"/>
       <use x="83.789062" xlink:href="#DejaVuSans-50"/>
      </g>
     </g>
    </g>
    <g id="xtick_3">
     <g id="line2d_3">
      <g>
       <use style="stroke:#000000;stroke-width:0.8;" x="221.4" xlink:href="#m2a34ce9e8e" y="252"/>
      </g>
     </g>
     <g id="text_3">
      <!-- 0 -->
      <g transform="translate(218.21875 266.598437)scale(0.1 -0.1)">
       <defs>
        <path d="M 31.78125 66.40625 
Q 24.171875 66.40625 20.328125 58.90625 
Q 16.5 51.421875 16.5 36.375 
Q 16.5 21.390625 20.328125 13.890625 
Q 24.171875 6.390625 31.78125 6.390625 
Q 39.453125 6.390625 43.28125 13.890625 
Q 47.125 21.390625 47.125 36.375 
Q 47.125 51.421875 43.28125 58.90625 
Q 39.453125 66.40625 31.78125 66.40625 
z
M 31.78125 74.21875 
Q 44.046875 74.21875 50.515625 64.515625 
Q 56.984375 54.828125 56.984375 36.375 
Q 56.984375 17.96875 50.515625 8.265625 
Q 44.046875 -1.421875 31.78125 -1.421875 
Q 19.53125 -1.421875 13.0625 8.265625 
Q 6.59375 17.96875 6.59375 36.375 
Q 6.59375 54.828125 13.0625 64.515625 
Q 19.53125 74.21875 31.78125 74.21875 
z
" id="DejaVuSans-48"/>
       </defs>
       <use xlink:href="#DejaVuSans-48"/>
      </g>
     </g>
    </g>
    <g id="xtick_4">
     <g id="line2d_4">
      <g>
       <use style="stroke:#000000;stroke-width:0.8;" x="288.36" xlink:href="#m2a34ce9e8e" y="252"/>
      </g>
     </g>
     <g id="text_4">
      <!-- 2 -->
      <g transform="translate(285.17875 266.598437)scale(0.1 -0.1)">
       <use xlink:href="#DejaVuSans-50"/>
      </g>
     </g>
    </g>
    <g id="xtick_5">
     <g id="line2d_5">
      <g>
       <use style="stroke:#000000;stroke-width:0.8;" x="355.32" xlink:href="#m2a34ce9e8e" y="252"/>
      </g>
     </g>
     <g id="text_5">
      <!-- 4 -->
      <g transform="translate(352.13875 266.598437)scale(0.1 -0.1)">
       <use xlink:href="#DejaVuSans-52"/>
      </g>
     </g>
    </g>
    <g id="text_6">
     <!-- $z=(\mu-\overline{T})/(\sigma\sqrt{n})$ -->
     <g transform="translate(180 282.478125)scale(0.1 -0.1)">
      <defs>
       <path d="M 11.625 54.6875 
L 54.296875 54.6875 
L 52.6875 46.484375 
L 11.53125 7.171875 
L 45.515625 7.171875 
L 44.09375 0 
L -0.296875 0 
L 1.3125 8.203125 
L 42.484375 47.515625 
L 10.203125 47.515625 
z
" id="DejaVuSans-Oblique-122"/>
       <path d="M 10.59375 45.40625 
L 73.1875 45.40625 
L 73.1875 37.203125 
L 10.59375 37.203125 
z
M 10.59375 25.484375 
L 73.1875 25.484375 
L 73.1875 17.1875 
L 10.59375 17.1875 
z
" id="DejaVuSans-61"/>
       <path d="M 31 75.875 
Q 24.46875 64.65625 21.28125 53.65625 
Q 18.109375 42.671875 18.109375 31.390625 
Q 18.109375 20.125 21.3125 9.0625 
Q 24.515625 -2 31 -13.1875 
L 23.1875 -13.1875 
Q 15.875 -1.703125 12.234375 9.375 
Q 8.59375 20.453125 8.59375 31.390625 
Q 8.59375 42.28125 12.203125 53.3125 
Q 15.828125 64.359375 23.1875 75.875 
z
" id="DejaVuSans-40"/>
       <path d="M -1.3125 -20.796875 
L 13.375 54.6875 
L 22.40625 54.6875 
L 15.765625 20.65625 
Q 15.578125 19.625 15.421875 18.359375 
Q 15.28125 17.09375 15.28125 15.828125 
Q 15.28125 11.28125 18.140625 8.828125 
Q 21 6.390625 26.3125 6.390625 
Q 33.546875 6.390625 37.984375 10.484375 
Q 42.4375 14.59375 44 22.796875 
L 50.203125 54.6875 
L 59.1875 54.6875 
L 51.03125 12.640625 
Q 50.828125 11.71875 50.75 11.03125 
Q 50.6875 10.359375 50.6875 9.8125 
Q 50.6875 8.296875 51.296875 7.59375 
Q 51.90625 6.890625 53.21875 6.890625 
Q 53.71875 6.890625 54.5625 7.125 
Q 55.421875 7.375 56.984375 8.015625 
L 55.609375 0.78125 
Q 53.46875 -0.296875 51.515625 -0.859375 
Q 49.5625 -1.421875 47.703125 -1.421875 
Q 44.484375 -1.421875 42.65625 0.625 
Q 40.828125 2.6875 40.828125 6.296875 
Q 38.09375 2.390625 34.296875 0.484375 
Q 30.515625 -1.421875 25.390625 -1.421875 
Q 20.84375 -1.421875 17.453125 0.671875 
Q 14.0625 2.78125 12.984375 6.203125 
L 7.71875 -20.796875 
z
" id="DejaVuSans-Oblique-956"/>
       <path d="M 5.90625 72.90625 
L 67.578125 72.90625 
L 66.015625 64.59375 
L 39.984375 64.59375 
L 27.484375 0 
L 17.578125 0 
L 30.078125 64.59375 
L 4.296875 64.59375 
z
" id="DejaVuSans-Oblique-84"/>
       <path d="M 8.015625 75.875 
L 15.828125 75.875 
Q 23.140625 64.359375 26.78125 53.3125 
Q 30.421875 42.28125 30.421875 31.390625 
Q 30.421875 20.453125 26.78125 9.375 
Q 23.140625 -1.703125 15.828125 -13.1875 
L 8.015625 -13.1875 
Q 14.5 -2 17.703125 9.0625 
Q 20.90625 20.125 20.90625 31.390625 
Q 20.90625 42.671875 17.703125 53.65625 
Q 14.5 64.65625 8.015625 75.875 
z
" id="DejaVuSans-41"/>
       <path d="M 25.390625 72.90625 
L 33.6875 72.90625 
L 8.296875 -9.28125 
L 0 -9.28125 
z
" id="DejaVuSans-47"/>
       <path d="M 34.671875 47.5625 
Q 27.25 47.5625 22.21875 42.1875 
Q 16.890625 36.578125 15.140625 27.296875 
Q 13.1875 17.484375 16.3125 11.8125 
Q 19.390625 6.203125 26.65625 6.203125 
Q 33.84375 6.203125 39.109375 11.859375 
Q 44.4375 17.53125 46.34375 27.296875 
Q 48.046875 36.234375 45.015625 42.1875 
Q 42.1875 47.5625 34.671875 47.5625 
z
M 36.078125 54.734375 
L 65.921875 54.6875 
L 64.15625 45.703125 
L 54.109375 45.703125 
Q 57.90625 38.09375 55.859375 27.296875 
Q 53.21875 13.875 45.0625 6.25 
Q 36.859375 -1.421875 25.140625 -1.421875 
Q 13.375 -1.421875 8.203125 6.25 
Q 3.03125 13.875 5.671875 27.296875 
Q 8.25 40.765625 16.40625 48.390625 
Q 23.1875 54.734375 36.078125 54.734375 
z
" id="DejaVuSans-Oblique-963"/>
       <path d="M 54.5 81.109375 
L 63.71875 81.109375 
L 63.71875 76.421875 
L 58.109375 76.421875 
L 29.109375 -2 
L 25.875 -2 
L 10.296875 41.109375 
L 4.203125 38.921875 
L 2.984375 42.828125 
L 16.796875 47.609375 
L 29.296875 12.984375 
z
" id="DejaVuSans-8730"/>
       <path d="M 55.71875 33.015625 
L 49.3125 0 
L 40.28125 0 
L 46.6875 32.671875 
Q 47.125 34.96875 47.359375 36.71875 
Q 47.609375 38.484375 47.609375 39.5 
Q 47.609375 43.609375 45.015625 45.890625 
Q 42.4375 48.1875 37.796875 48.1875 
Q 30.5625 48.1875 25.34375 43.375 
Q 20.125 38.578125 18.5 30.328125 
L 12.5 0 
L 3.515625 0 
L 14.109375 54.6875 
L 23.09375 54.6875 
L 21.296875 46.09375 
Q 25.046875 50.828125 30.3125 53.40625 
Q 35.59375 56 41.40625 56 
Q 48.640625 56 52.609375 52.09375 
Q 56.59375 48.1875 56.59375 41.109375 
Q 56.59375 39.359375 56.375 37.359375 
Q 56.15625 35.359375 55.71875 33.015625 
z
" id="DejaVuSans-Oblique-110"/>
      </defs>
      <use transform="translate(0 0.34375)" xlink:href="#DejaVuSans-Oblique-122"/>
      <use transform="translate(71.972656 0.34375)" xlink:href="#DejaVuSans-61"/>
      <use transform="translate(175.244141 0.34375)" xlink:href="#DejaVuSans-40"/>
      <use transform="translate(214.257812 0.34375)" xlink:href="#DejaVuSans-Oblique-956"/>
      <use transform="translate(297.363281 0.34375)" xlink:href="#DejaVuSans-8722"/>
      <use transform="translate(400.634766 0.84375)" xlink:href="#DejaVuSans-Oblique-84"/>
      <use transform="translate(461.71875 0.34375)" xlink:href="#DejaVuSans-41"/>
      <use transform="translate(500.732422 0.34375)" xlink:href="#DejaVuSans-47"/>
      <use transform="translate(534.423828 0.34375)" xlink:href="#DejaVuSans-40"/>
      <use transform="translate(573.4375 0.34375)" xlink:href="#DejaVuSans-Oblique-963"/>
      <use transform="translate(636.816406 0.34375)" xlink:href="#DejaVuSans-8730"/>
      <use transform="translate(713.037109 0.203125)" xlink:href="#DejaVuSans-Oblique-110"/>
      <use transform="translate(788.916016 0.34375)" xlink:href="#DejaVuSans-41"/>
      <path d="M 400.634766 85.5 
L 400.634766 91.75 
L 461.71875 91.75 
L 461.71875 85.5 
L 400.634766 85.5 
z
"/>
      <path d="M 700.537109 74.953125 
L 700.537109 81.203125 
L 788.916016 81.203125 
L 788.916016 74.953125 
L 700.537109 74.953125 
z
"/>
     </g>
    </g>
   </g>
   <g id="matplotlib.axis_2">
    <g id="ytick_1">
     <g id="line2d_6">
      <defs>
       <path d="M 0 0 
L -3.5 0 
" id="m634735ac66" style="stroke:#000000;stroke-width:0.8;"/>
      </defs>
      <g>
       <use style="stroke:#000000;stroke-width:0.8;" x="54" xlink:href="#m634735ac66" y="252"/>
      </g>
     </g>
     <g id="text_7">
      <!-- 0.0 -->
      <g transform="translate(31.096875 255.799219)scale(0.1 -0.1)">
       <defs>
        <path d="M 10.6875 12.40625 
L 21 12.40625 
L 21 0 
L 10.6875 0 
z
" id="DejaVuSans-46"/>
       </defs>
       <use xlink:href="#DejaVuSans-48"/>
       <use x="63.623047" xlink:href="#DejaVuSans-46"/>
       <use x="95.410156" xlink:href="#DejaVuSans-48"/>
      </g>
     </g>
    </g>
    <g id="ytick_2">
     <g id="line2d_7">
      <g>
       <use style="stroke:#000000;stroke-width:0.8;" x="54" xlink:href="#m634735ac66" y="215.76"/>
      </g>
     </g>
     <g id="text_8">
      <!-- 0.1 -->
      <g transform="translate(31.096875 219.559219)scale(0.1 -0.1)">
       <defs>
        <path d="M 12.40625 8.296875 
L 28.515625 8.296875 
L 28.515625 63.921875 
L 10.984375 60.40625 
L 10.984375 69.390625 
L 28.421875 72.90625 
L 38.28125 72.90625 
L 38.28125 8.296875 
L 54.390625 8.296875 
L 54.390625 0 
L 12.40625 0 
z
" id="DejaVuSans-49"/>
       </defs>
       <use xlink:href="#DejaVuSans-48"/>
       <use x="63.623047" xlink:href="#DejaVuSans-46"/>
       <use x="95.410156" xlink:href="#DejaVuSans-49"/>
      </g>
     </g>
    </g>
    <g id="ytick_3">
     <g id="line2d_8">
      <g>
       <use style="stroke:#000000;stroke-width:0.8;" x="54" xlink:href="#m634735ac66" y="179.52"/>
      </g>
     </g>
     <g id="text_9">
      <!-- 0.2 -->
      <g transform="translate(31.096875 183.319219)scale(0.1 -0.1)">
       <use xlink:href="#DejaVuSans-48"/>
       <use x="63.623047" xlink:href="#DejaVuSans-46"/>
       <use x="95.410156" xlink:href="#DejaVuSans-50"/>
      </g>
     </g>
    </g>
    <g id="ytick_4">
     <g id="line2d_9">
      <g>
       <use style="stroke:#000000;stroke-width:0.8;" x="54" xlink:href="#m634735ac66" y="143.28"/>
      </g>
     </g>
     <g id="text_10">
      <!-- 0.3 -->
      <g transform="translate(31.096875 147.079219)scale(0.1 -0.1)">
       <defs>
        <path d="M 40.578125 39.3125 
Q 47.65625 37.796875 51.625 33 
Q 55.609375 28.21875 55.609375 21.1875 
Q 55.609375 10.40625 48.1875 4.484375 
Q 40.765625 -1.421875 27.09375 -1.421875 
Q 22.515625 -1.421875 17.65625 -0.515625 
Q 12.796875 0.390625 7.625 2.203125 
L 7.625 11.71875 
Q 11.71875 9.328125 16.59375 8.109375 
Q 21.484375 6.890625 26.8125 6.890625 
Q 36.078125 6.890625 40.9375 10.546875 
Q 45.796875 14.203125 45.796875 21.1875 
Q 45.796875 27.640625 41.28125 31.265625 
Q 36.765625 34.90625 28.71875 34.90625 
L 20.21875 34.90625 
L 20.21875 43.015625 
L 29.109375 43.015625 
Q 36.375 43.015625 40.234375 45.921875 
Q 44.09375 48.828125 44.09375 54.296875 
Q 44.09375 59.90625 40.109375 62.90625 
Q 36.140625 65.921875 28.71875 65.921875 
Q 24.65625 65.921875 20.015625 65.03125 
Q 15.375 64.15625 9.8125 62.3125 
L 9.8125 71.09375 
Q 15.4375 72.65625 20.34375 73.4375 
Q 25.25 74.21875 29.59375 74.21875 
Q 40.828125 74.21875 47.359375 69.109375 
Q 53.90625 64.015625 53.90625 55.328125 
Q 53.90625 49.265625 50.4375 45.09375 
Q 46.96875 40.921875 40.578125 39.3125 
z
" id="DejaVuSans-51"/>
       </defs>
       <use xlink:href="#DejaVuSans-48"/>
       <use x="63.623047" xlink:href="#DejaVuSans-46"/>
       <use x="95.410156" xlink:href="#DejaVuSans-51"/>
      </g>
     </g>
    </g>
    <g id="ytick_5">
     <g id="line2d_10">
      <g>
       <use style="stroke:#000000;stroke-width:0.8;" x="54" xlink:href="#m634735ac66" y="107.04"/>
      </g>
     </g>
     <g id="text_11">
      <!-- 0.4 -->
      <g transform="translate(31.096875 110.839219)scale(0.1 -0.1)">
       <use xlink:href="#DejaVuSans-48"/>
       <use x="63.623047" xlink:href="#DejaVuSans-46"/>
       <use x="95.410156" xlink:href="#DejaVuSans-52"/>
      </g>
     </g>
    </g>
    <g id="ytick_6">
     <g id="line2d_11">
      <g>
       <use style="stroke:#000000;stroke-width:0.8;" x="54" xlink:href="#m634735ac66" y="70.8"/>
      </g>
     </g>
     <g id="text_12">
      <!-- 0.5 -->
      <g transform="translate(31.096875 74.599219)scale(0.1 -0.1)">
       <defs>
        <path d="M 10.796875 72.90625 
L 49.515625 72.90625 
L 49.515625 64.59375 
L 19.828125 64.59375 
L 19.828125 46.734375 
Q 21.96875 47.46875 24.109375 47.828125 
Q 26.265625 48.1875 28.421875 48.1875 
Q 40.625 48.1875 47.75 41.5 
Q 54.890625 34.8125 54.890625 23.390625 
Q 54.890625 11.625 47.5625 5.09375 
Q 40.234375 -1.421875 26.90625 -1.421875 
Q 22.3125 -1.421875 17.546875 -0.640625 
Q 12.796875 0.140625 7.71875 1.703125 
L 7.71875 11.625 
Q 12.109375 9.234375 16.796875 8.0625 
Q 21.484375 6.890625 26.703125 6.890625 
Q 35.15625 6.890625 40.078125 11.328125 
Q 45.015625 15.765625 45.015625 23.390625 
Q 45.015625 31 40.078125 35.4375 
Q 35.15625 39.890625 26.703125 39.890625 
Q 22.75 39.890625 18.8125 39.015625 
Q 14.890625 38.140625 10.796875 36.28125 
z
" id="DejaVuSans-53"/>
       </defs>
       <use xlink:href="#DejaVuSans-48"/>
       <use x="63.623047" xlink:href="#DejaVuSans-46"/>
       <use x="95.410156" xlink:href="#DejaVuSans-53"/>
      </g>
     </g>
    </g>
    <g id="ytick_7">
     <g id="line2d_12">
      <g>
       <use style="stroke:#000000;stroke-width:0.8;" x="54" xlink:href="#m634735ac66" y="34.56"/>
      </g>
     </g>
     <g id="text_13">
      <!-- 0.6 -->
      <g transform="translate(31.096875 38.359219)scale(0.1 -0.1)">
       <defs>
        <path d="M 33.015625 40.375 
Q 26.375 40.375 22.484375 35.828125 
Q 18.609375 31.296875 18.609375 23.390625 
Q 18.609375 15.53125 22.484375 10.953125 
Q 26.375 6.390625 33.015625 6.390625 
Q 39.65625 6.390625 43.53125 10.953125 
Q 47.40625 15.53125 47.40625 23.390625 
Q 47.40625 31.296875 43.53125 35.828125 
Q 39.65625 40.375 33.015625 40.375 
z
M 52.59375 71.296875 
L 52.59375 62.3125 
Q 48.875 64.0625 45.09375 64.984375 
Q 41.3125 65.921875 37.59375 65.921875 
Q 27.828125 65.921875 22.671875 59.328125 
Q 17.53125 52.734375 16.796875 39.40625 
Q 19.671875 43.65625 24.015625 45.921875 
Q 28.375 48.1875 33.59375 48.1875 
Q 44.578125 48.1875 50.953125 41.515625 
Q 57.328125 34.859375 57.328125 23.390625 
Q 57.328125 12.15625 50.6875 5.359375 
Q 44.046875 -1.421875 33.015625 -1.421875 
Q 20.359375 -1.421875 13.671875 8.265625 
Q 6.984375 17.96875 6.984375 36.375 
Q 6.984375 53.65625 15.1875 63.9375 
Q 23.390625 74.21875 37.203125 74.21875 
Q 40.921875 74.21875 44.703125 73.484375 
Q 48.484375 72.75 52.59375 71.296875 
z
" id="DejaVuSans-54"/>
       </defs>
       <use xlink:href="#DejaVuSans-48"/>
       <use x="63.623047" xlink:href="#DejaVuSans-46"/>
       <use x="95.410156" xlink:href="#DejaVuSans-54"/>
      </g>
     </g>
    </g>
    <g id="text_14">
     <!-- pdf(z) -->
     <g transform="translate(25.017187 157.914375)rotate(-90)scale(0.1 -0.1)">
      <defs>
       <path d="M 18.109375 8.203125 
L 18.109375 -20.796875 
L 9.078125 -20.796875 
L 9.078125 54.6875 
L 18.109375 54.6875 
L 18.109375 46.390625 
Q 20.953125 51.265625 25.265625 53.625 
Q 29.59375 56 35.59375 56 
Q 45.5625 56 51.78125 48.09375 
Q 58.015625 40.1875 58.015625 27.296875 
Q 58.015625 14.40625 51.78125 6.484375 
Q 45.5625 -1.421875 35.59375 -1.421875 
Q 29.59375 -1.421875 25.265625 0.953125 
Q 20.953125 3.328125 18.109375 8.203125 
z
M 48.6875 27.296875 
Q 48.6875 37.203125 44.609375 42.84375 
Q 40.53125 48.484375 33.40625 48.484375 
Q 26.265625 48.484375 22.1875 42.84375 
Q 18.109375 37.203125 18.109375 27.296875 
Q 18.109375 17.390625 22.1875 11.75 
Q 26.265625 6.109375 33.40625 6.109375 
Q 40.53125 6.109375 44.609375 11.75 
Q 48.6875 17.390625 48.6875 27.296875 
z
" id="DejaVuSans-112"/>
       <path d="M 45.40625 46.390625 
L 45.40625 75.984375 
L 54.390625 75.984375 
L 54.390625 0 
L 45.40625 0 
L 45.40625 8.203125 
Q 42.578125 3.328125 38.25 0.953125 
Q 33.9375 -1.421875 27.875 -1.421875 
Q 17.96875 -1.421875 11.734375 6.484375 
Q 5.515625 14.40625 5.515625 27.296875 
Q 5.515625 40.1875 11.734375 48.09375 
Q 17.96875 56 27.875 56 
Q 33.9375 56 38.25 53.625 
Q 42.578125 51.265625 45.40625 46.390625 
z
M 14.796875 27.296875 
Q 14.796875 17.390625 18.875 11.75 
Q 22.953125 6.109375 30.078125 6.109375 
Q 37.203125 6.109375 41.296875 11.75 
Q 45.40625 17.390625 45.40625 27.296875 
Q 45.40625 37.203125 41.296875 42.84375 
Q 37.203125 48.484375 30.078125 48.484375 
Q 22.953125 48.484375 18.875 42.84375 
Q 14.796875 37.203125 14.796875 27.296875 
z
" id="DejaVuSans-100"/>
       <path d="M 37.109375 75.984375 
L 37.109375 68.5 
L 28.515625 68.5 
Q 23.6875 68.5 21.796875 66.546875 
Q 19.921875 64.59375 19.921875 59.515625 
L 19.921875 54.6875 
L 34.71875 54.6875 
L 34.71875 47.703125 
L 19.921875 47.703125 
L 19.921875 0 
L 10.890625 0 
L 10.890625 47.703125 
L 2.296875 47.703125 
L 2.296875 54.6875 
L 10.890625 54.6875 
L 10.890625 58.5 
Q 10.890625 67.625 15.140625 71.796875 
Q 19.390625 75.984375 28.609375 75.984375 
z
" id="DejaVuSans-102"/>
       <path d="M 5.515625 54.6875 
L 48.1875 54.6875 
L 48.1875 46.484375 
L 14.40625 7.171875 
L 48.1875 7.171875 
L 48.1875 0 
L 4.296875 0 
L 4.296875 8.203125 
L 38.09375 47.515625 
L 5.515625 47.515625 
z
" id="DejaVuSans-122"/>
      </defs>
      <use xlink:href="#DejaVuSans-112"/>
      <use x="63.476562" xlink:href="#DejaVuSans-100"/>
      <use x="126.953125" xlink:href="#DejaVuSans-102"/>
      <use x="162.158203" xlink:href="#DejaVuSans-40"/>
      <use x="201.171875" xlink:href="#DejaVuSans-122"/>
      <use x="253.662109" xlink:href="#DejaVuSans-41"/>
     </g>
    </g>
   </g>
   <g id="line2d_13">
    <path clip-path="url(#pef7c95f7cc)" d="M 87.48 251.9515 
L 90.185455 251.933211 
L 92.890909 251.908625 
L 95.596364 251.875802 
L 98.301818 251.832287 
L 101.007273 251.775 
L 103.712727 251.700109 
L 106.418182 251.602892 
L 109.123636 251.477583 
L 111.829091 251.317206 
L 114.534545 251.113402 
L 117.24 250.85626 
L 119.945455 250.53414 
L 122.650909 250.133528 
L 125.356364 249.638899 
L 128.061818 249.03263 
L 130.767273 248.29496 
L 133.472727 247.404018 
L 136.178182 246.335942 
L 138.883636 245.065084 
L 141.589091 243.564345 
L 144.294545 241.805629 
L 147 239.760429 
L 149.705455 237.400566 
L 152.410909 234.699051 
L 155.116364 231.631084 
L 157.821818 228.17516 
L 160.527273 224.31426 
L 163.232727 220.037086 
L 165.938182 215.339307 
L 168.643636 210.224749 
L 171.349091 204.706492 
L 174.054545 198.807784 
L 176.76 192.562749 
L 179.465455 186.016792 
L 182.170909 179.226675 
L 184.876364 172.260209 
L 187.581818 165.195539 
L 190.287273 158.12 
L 192.992727 151.128566 
L 195.698182 144.321899 
L 198.403636 137.80406 
L 201.109091 131.679946 
L 203.814545 126.052528 
L 206.52 121.020004 
L 209.225455 116.672964 
L 211.930909 113.091683 
L 214.636364 110.343663 
L 217.341818 108.481514 
L 220.047273 107.541279 
L 222.752727 107.541279 
L 225.458182 108.481514 
L 228.163636 110.343663 
L 230.869091 113.091683 
L 233.574545 116.672964 
L 236.28 121.020004 
L 238.985455 126.052528 
L 241.690909 131.679946 
L 244.396364 137.80406 
L 247.101818 144.321899 
L 249.807273 151.128566 
L 252.512727 158.12 
L 255.218182 165.195539 
L 257.923636 172.260209 
L 260.629091 179.226675 
L 263.334545 186.016792 
L 266.04 192.562749 
L 268.745455 198.807784 
L 271.450909 204.706492 
L 274.156364 210.224749 
L 276.861818 215.339307 
L 279.567273 220.037086 
L 282.272727 224.31426 
L 284.978182 228.17516 
L 287.683636 231.631084 
L 290.389091 234.699051 
L 293.094545 237.400566 
L 295.8 239.760429 
L 298.505455 241.805629 
L 301.210909 243.564345 
L 303.916364 245.065084 
L 306.621818 246.335942 
L 309.327273 247.404018 
L 312.032727 248.29496 
L 314.738182 249.03263 
L 317.443636 249.638899 
L 320.149091 250.133528 
L 322.854545 250.53414 
L 325.56 250.85626 
L 328.265455 251.113402 
L 330.970909 251.317206 
L 333.676364 251.477583 
L 336.381818 251.602892 
L 339.087273 251.700109 
L 341.792727 251.775 
L 344.498182 251.832287 
L 347.203636 251.875802 
L 349.909091 251.908625 
L 352.614545 251.933211 
L 355.32 251.9515 
" style="fill:none;stroke:#000000;stroke-linecap:square;stroke-width:1.5;"/>
   </g>
   <g id="line2d_14">
    <path clip-path="url(#pef7c95f7cc)" d="M 135.0216 252 
L 307.7784 252 
" style="fill:none;stroke:#ff0000;stroke-linecap:square;stroke-width:2;"/>
   </g>
   <g id="patch_102">
    <path d="M 54 252 
L 54 34.56 
" style="fill:none;stroke:#000000;stroke-linecap:square;stroke-linejoin:miter;stroke-width:0.8;"/>
   </g>
   <g id="patch_103">
    <path d="M 388.8 252 
L 388.8 34.56 
" style="fill:none;stroke:#000000;stroke-linecap:square;stroke-linejoin:miter;stroke-width:0.8;"/>
   </g>
   <g id="patch_104">
    <path d="M 54 252 
L 388.8 252 
" style="fill:none;stroke:#000000;stroke-linecap:square;stroke-linejoin:miter;stroke-width:0.8;"/>
   </g>
   <g id="patch_105">
    <path d="M 54 34.56 
L 388.8 34.56 
" style="fill:none;stroke:#000000;stroke-linecap:square;stroke-linejoin:miter;stroke-width:0.8;"/>
   </g>
   <g id="legend_1">
    <g id="patch_106">
     <path d="M 174.326562 88.81625 
L 381.8 88.81625 
Q 383.8 88.81625 383.8 86.81625 
L 383.8 41.56 
Q 383.8 39.56 381.8 39.56 
L 174.326562 39.56 
Q 172.326562 39.56 172.326562 41.56 
L 172.326562 86.81625 
Q 172.326562 88.81625 174.326562 88.81625 
z
" style="fill:#ffffff;opacity:0.8;stroke:#cccccc;stroke-linejoin:miter;"/>
    </g>
    <g id="line2d_15">
     <path d="M 176.326562 47.658437 
L 196.326562 47.658437 
" style="fill:none;stroke:#000000;stroke-linecap:square;stroke-width:1.5;"/>
    </g>
    <g id="line2d_16"/>
    <g id="text_15">
     <!-- Null hypothesis distribution (exact) -->
     <g transform="translate(204.326562 51.158437)scale(0.1 -0.1)">
      <defs>
       <path d="M 9.8125 72.90625 
L 23.09375 72.90625 
L 55.421875 11.921875 
L 55.421875 72.90625 
L 64.984375 72.90625 
L 64.984375 0 
L 51.703125 0 
L 19.390625 60.984375 
L 19.390625 0 
L 9.8125 0 
z
" id="DejaVuSans-78"/>
       <path d="M 8.5 21.578125 
L 8.5 54.6875 
L 17.484375 54.6875 
L 17.484375 21.921875 
Q 17.484375 14.15625 20.5 10.265625 
Q 23.53125 6.390625 29.59375 6.390625 
Q 36.859375 6.390625 41.078125 11.03125 
Q 45.3125 15.671875 45.3125 23.6875 
L 45.3125 54.6875 
L 54.296875 54.6875 
L 54.296875 0 
L 45.3125 0 
L 45.3125 8.40625 
Q 42.046875 3.421875 37.71875 1 
Q 33.40625 -1.421875 27.6875 -1.421875 
Q 18.265625 -1.421875 13.375 4.4375 
Q 8.5 10.296875 8.5 21.578125 
z
M 31.109375 56 
z
" id="DejaVuSans-117"/>
       <path d="M 9.421875 75.984375 
L 18.40625 75.984375 
L 18.40625 0 
L 9.421875 0 
z
" id="DejaVuSans-108"/>
       <path id="DejaVuSans-32"/>
       <path d="M 54.890625 33.015625 
L 54.890625 0 
L 45.90625 0 
L 45.90625 32.71875 
Q 45.90625 40.484375 42.875 44.328125 
Q 39.84375 48.1875 33.796875 48.1875 
Q 26.515625 48.1875 22.3125 43.546875 
Q 18.109375 38.921875 18.109375 30.90625 
L 18.109375 0 
L 9.078125 0 
L 9.078125 75.984375 
L 18.109375 75.984375 
L 18.109375 46.1875 
Q 21.34375 51.125 25.703125 53.5625 
Q 30.078125 56 35.796875 56 
Q 45.21875 56 50.046875 50.171875 
Q 54.890625 44.34375 54.890625 33.015625 
z
" id="DejaVuSans-104"/>
       <path d="M 32.171875 -5.078125 
Q 28.375 -14.84375 24.75 -17.8125 
Q 21.140625 -20.796875 15.09375 -20.796875 
L 7.90625 -20.796875 
L 7.90625 -13.28125 
L 13.1875 -13.28125 
Q 16.890625 -13.28125 18.9375 -11.515625 
Q 21 -9.765625 23.484375 -3.21875 
L 25.09375 0.875 
L 2.984375 54.6875 
L 12.5 54.6875 
L 29.59375 11.921875 
L 46.6875 54.6875 
L 56.203125 54.6875 
z
" id="DejaVuSans-121"/>
       <path d="M 30.609375 48.390625 
Q 23.390625 48.390625 19.1875 42.75 
Q 14.984375 37.109375 14.984375 27.296875 
Q 14.984375 17.484375 19.15625 11.84375 
Q 23.34375 6.203125 30.609375 6.203125 
Q 37.796875 6.203125 41.984375 11.859375 
Q 46.1875 17.53125 46.1875 27.296875 
Q 46.1875 37.015625 41.984375 42.703125 
Q 37.796875 48.390625 30.609375 48.390625 
z
M 30.609375 56 
Q 42.328125 56 49.015625 48.375 
Q 55.71875 40.765625 55.71875 27.296875 
Q 55.71875 13.875 49.015625 6.21875 
Q 42.328125 -1.421875 30.609375 -1.421875 
Q 18.84375 -1.421875 12.171875 6.21875 
Q 5.515625 13.875 5.515625 27.296875 
Q 5.515625 40.765625 12.171875 48.375 
Q 18.84375 56 30.609375 56 
z
" id="DejaVuSans-111"/>
       <path d="M 18.3125 70.21875 
L 18.3125 54.6875 
L 36.8125 54.6875 
L 36.8125 47.703125 
L 18.3125 47.703125 
L 18.3125 18.015625 
Q 18.3125 11.328125 20.140625 9.421875 
Q 21.96875 7.515625 27.59375 7.515625 
L 36.8125 7.515625 
L 36.8125 0 
L 27.59375 0 
Q 17.1875 0 13.234375 3.875 
Q 9.28125 7.765625 9.28125 18.015625 
L 9.28125 47.703125 
L 2.6875 47.703125 
L 2.6875 54.6875 
L 9.28125 54.6875 
L 9.28125 70.21875 
z
" id="DejaVuSans-116"/>
       <path d="M 56.203125 29.59375 
L 56.203125 25.203125 
L 14.890625 25.203125 
Q 15.484375 15.921875 20.484375 11.0625 
Q 25.484375 6.203125 34.421875 6.203125 
Q 39.59375 6.203125 44.453125 7.46875 
Q 49.3125 8.734375 54.109375 11.28125 
L 54.109375 2.78125 
Q 49.265625 0.734375 44.1875 -0.34375 
Q 39.109375 -1.421875 33.890625 -1.421875 
Q 20.796875 -1.421875 13.15625 6.1875 
Q 5.515625 13.8125 5.515625 26.8125 
Q 5.515625 40.234375 12.765625 48.109375 
Q 20.015625 56 32.328125 56 
Q 43.359375 56 49.78125 48.890625 
Q 56.203125 41.796875 56.203125 29.59375 
z
M 47.21875 32.234375 
Q 47.125 39.59375 43.09375 43.984375 
Q 39.0625 48.390625 32.421875 48.390625 
Q 24.90625 48.390625 20.390625 44.140625 
Q 15.875 39.890625 15.1875 32.171875 
z
" id="DejaVuSans-101"/>
       <path d="M 44.28125 53.078125 
L 44.28125 44.578125 
Q 40.484375 46.53125 36.375 47.5 
Q 32.28125 48.484375 27.875 48.484375 
Q 21.1875 48.484375 17.84375 46.4375 
Q 14.5 44.390625 14.5 40.28125 
Q 14.5 37.15625 16.890625 35.375 
Q 19.28125 33.59375 26.515625 31.984375 
L 29.59375 31.296875 
Q 39.15625 29.25 43.1875 25.515625 
Q 47.21875 21.78125 47.21875 15.09375 
Q 47.21875 7.46875 41.1875 3.015625 
Q 35.15625 -1.421875 24.609375 -1.421875 
Q 20.21875 -1.421875 15.453125 -0.5625 
Q 10.6875 0.296875 5.421875 2 
L 5.421875 11.28125 
Q 10.40625 8.6875 15.234375 7.390625 
Q 20.0625 6.109375 24.8125 6.109375 
Q 31.15625 6.109375 34.5625 8.28125 
Q 37.984375 10.453125 37.984375 14.40625 
Q 37.984375 18.0625 35.515625 20.015625 
Q 33.0625 21.96875 24.703125 23.78125 
L 21.578125 24.515625 
Q 13.234375 26.265625 9.515625 29.90625 
Q 5.8125 33.546875 5.8125 39.890625 
Q 5.8125 47.609375 11.28125 51.796875 
Q 16.75 56 26.8125 56 
Q 31.78125 56 36.171875 55.265625 
Q 40.578125 54.546875 44.28125 53.078125 
z
" id="DejaVuSans-115"/>
       <path d="M 9.421875 54.6875 
L 18.40625 54.6875 
L 18.40625 0 
L 9.421875 0 
z
M 9.421875 75.984375 
L 18.40625 75.984375 
L 18.40625 64.59375 
L 9.421875 64.59375 
z
" id="DejaVuSans-105"/>
       <path d="M 41.109375 46.296875 
Q 39.59375 47.171875 37.8125 47.578125 
Q 36.03125 48 33.890625 48 
Q 26.265625 48 22.1875 43.046875 
Q 18.109375 38.09375 18.109375 28.8125 
L 18.109375 0 
L 9.078125 0 
L 9.078125 54.6875 
L 18.109375 54.6875 
L 18.109375 46.1875 
Q 20.953125 51.171875 25.484375 53.578125 
Q 30.03125 56 36.53125 56 
Q 37.453125 56 38.578125 55.875 
Q 39.703125 55.765625 41.0625 55.515625 
z
" id="DejaVuSans-114"/>
       <path d="M 48.6875 27.296875 
Q 48.6875 37.203125 44.609375 42.84375 
Q 40.53125 48.484375 33.40625 48.484375 
Q 26.265625 48.484375 22.1875 42.84375 
Q 18.109375 37.203125 18.109375 27.296875 
Q 18.109375 17.390625 22.1875 11.75 
Q 26.265625 6.109375 33.40625 6.109375 
Q 40.53125 6.109375 44.609375 11.75 
Q 48.6875 17.390625 48.6875 27.296875 
z
M 18.109375 46.390625 
Q 20.953125 51.265625 25.265625 53.625 
Q 29.59375 56 35.59375 56 
Q 45.5625 56 51.78125 48.09375 
Q 58.015625 40.1875 58.015625 27.296875 
Q 58.015625 14.40625 51.78125 6.484375 
Q 45.5625 -1.421875 35.59375 -1.421875 
Q 29.59375 -1.421875 25.265625 0.953125 
Q 20.953125 3.328125 18.109375 8.203125 
L 18.109375 0 
L 9.078125 0 
L 9.078125 75.984375 
L 18.109375 75.984375 
z
" id="DejaVuSans-98"/>
       <path d="M 54.890625 33.015625 
L 54.890625 0 
L 45.90625 0 
L 45.90625 32.71875 
Q 45.90625 40.484375 42.875 44.328125 
Q 39.84375 48.1875 33.796875 48.1875 
Q 26.515625 48.1875 22.3125 43.546875 
Q 18.109375 38.921875 18.109375 30.90625 
L 18.109375 0 
L 9.078125 0 
L 9.078125 54.6875 
L 18.109375 54.6875 
L 18.109375 46.1875 
Q 21.34375 51.125 25.703125 53.5625 
Q 30.078125 56 35.796875 56 
Q 45.21875 56 50.046875 50.171875 
Q 54.890625 44.34375 54.890625 33.015625 
z
" id="DejaVuSans-110"/>
       <path d="M 54.890625 54.6875 
L 35.109375 28.078125 
L 55.90625 0 
L 45.3125 0 
L 29.390625 21.484375 
L 13.484375 0 
L 2.875 0 
L 24.125 28.609375 
L 4.6875 54.6875 
L 15.28125 54.6875 
L 29.78125 35.203125 
L 44.28125 54.6875 
z
" id="DejaVuSans-120"/>
       <path d="M 34.28125 27.484375 
Q 23.390625 27.484375 19.1875 25 
Q 14.984375 22.515625 14.984375 16.5 
Q 14.984375 11.71875 18.140625 8.90625 
Q 21.296875 6.109375 26.703125 6.109375 
Q 34.1875 6.109375 38.703125 11.40625 
Q 43.21875 16.703125 43.21875 25.484375 
L 43.21875 27.484375 
z
M 52.203125 31.203125 
L 52.203125 0 
L 43.21875 0 
L 43.21875 8.296875 
Q 40.140625 3.328125 35.546875 0.953125 
Q 30.953125 -1.421875 24.3125 -1.421875 
Q 15.921875 -1.421875 10.953125 3.296875 
Q 6 8.015625 6 15.921875 
Q 6 25.140625 12.171875 29.828125 
Q 18.359375 34.515625 30.609375 34.515625 
L 43.21875 34.515625 
L 43.21875 35.40625 
Q 43.21875 41.609375 39.140625 45 
Q 35.0625 48.390625 27.6875 48.390625 
Q 23 48.390625 18.546875 47.265625 
Q 14.109375 46.140625 10.015625 43.890625 
L 10.015625 52.203125 
Q 14.9375 54.109375 19.578125 55.046875 
Q 24.21875 56 28.609375 56 
Q 40.484375 56 46.34375 49.84375 
Q 52.203125 43.703125 52.203125 31.203125 
z
" id="DejaVuSans-97"/>
       <path d="M 48.78125 52.59375 
L 48.78125 44.1875 
Q 44.96875 46.296875 41.140625 47.34375 
Q 37.3125 48.390625 33.40625 48.390625 
Q 24.65625 48.390625 19.8125 42.84375 
Q 14.984375 37.3125 14.984375 27.296875 
Q 14.984375 17.28125 19.8125 11.734375 
Q 24.65625 6.203125 33.40625 6.203125 
Q 37.3125 6.203125 41.140625 7.25 
Q 44.96875 8.296875 48.78125 10.40625 
L 48.78125 2.09375 
Q 45.015625 0.34375 40.984375 -0.53125 
Q 36.96875 -1.421875 32.421875 -1.421875 
Q 20.0625 -1.421875 12.78125 6.34375 
Q 5.515625 14.109375 5.515625 27.296875 
Q 5.515625 40.671875 12.859375 48.328125 
Q 20.21875 56 33.015625 56 
Q 37.15625 56 41.109375 55.140625 
Q 45.0625 54.296875 48.78125 52.59375 
z
" id="DejaVuSans-99"/>
      </defs>
      <use xlink:href="#DejaVuSans-78"/>
      <use x="74.804688" xlink:href="#DejaVuSans-117"/>
      <use x="138.183594" xlink:href="#DejaVuSans-108"/>
      <use x="165.966797" xlink:href="#DejaVuSans-108"/>
      <use x="193.75" xlink:href="#DejaVuSans-32"/>
      <use x="225.537109" xlink:href="#DejaVuSans-104"/>
      <use x="288.916016" xlink:href="#DejaVuSans-121"/>
      <use x="348.095703" xlink:href="#DejaVuSans-112"/>
      <use x="411.572266" xlink:href="#DejaVuSans-111"/>
      <use x="472.753906" xlink:href="#DejaVuSans-116"/>
      <use x="511.962891" xlink:href="#DejaVuSans-104"/>
      <use x="575.341797" xlink:href="#DejaVuSans-101"/>
      <use x="636.865234" xlink:href="#DejaVuSans-115"/>
      <use x="688.964844" xlink:href="#DejaVuSans-105"/>
      <use x="716.748047" xlink:href="#DejaVuSans-115"/>
      <use x="768.847656" xlink:href="#DejaVuSans-32"/>
      <use x="800.634766" xlink:href="#DejaVuSans-100"/>
      <use x="864.111328" xlink:href="#DejaVuSans-105"/>
      <use x="891.894531" xlink:href="#DejaVuSans-115"/>
      <use x="943.994141" xlink:href="#DejaVuSans-116"/>
      <use x="983.203125" xlink:href="#DejaVuSans-114"/>
      <use x="1024.316406" xlink:href="#DejaVuSans-105"/>
      <use x="1052.099609" xlink:href="#DejaVuSans-98"/>
      <use x="1115.576172" xlink:href="#DejaVuSans-117"/>
      <use x="1178.955078" xlink:href="#DejaVuSans-116"/>
      <use x="1218.164062" xlink:href="#DejaVuSans-105"/>
      <use x="1245.947266" xlink:href="#DejaVuSans-111"/>
      <use x="1307.128906" xlink:href="#DejaVuSans-110"/>
      <use x="1370.507812" xlink:href="#DejaVuSans-32"/>
      <use x="1402.294922" xlink:href="#DejaVuSans-40"/>
      <use x="1441.308594" xlink:href="#DejaVuSans-101"/>
      <use x="1501.082031" xlink:href="#DejaVuSans-120"/>
      <use x="1560.261719" xlink:href="#DejaVuSans-97"/>
      <use x="1621.541016" xlink:href="#DejaVuSans-99"/>
      <use x="1676.521484" xlink:href="#DejaVuSans-116"/>
      <use x="1715.730469" xlink:href="#DejaVuSans-41"/>
     </g>
    </g>
    <g id="line2d_17">
     <path d="M 176.326562 64.538125 
L 196.326562 64.538125 
" style="fill:none;stroke:#ff0000;stroke-linecap:square;stroke-width:2;"/>
    </g>
    <g id="line2d_18"/>
    <g id="text_16">
     <!-- Do not reject null if $\overline{T}$ in this range -->
     <g transform="translate(204.326562 68.038125)scale(0.1 -0.1)">
      <defs>
       <path d="M 19.671875 64.796875 
L 19.671875 8.109375 
L 31.59375 8.109375 
Q 46.6875 8.109375 53.6875 14.9375 
Q 60.6875 21.78125 60.6875 36.53125 
Q 60.6875 51.171875 53.6875 57.984375 
Q 46.6875 64.796875 31.59375 64.796875 
z
M 9.8125 72.90625 
L 30.078125 72.90625 
Q 51.265625 72.90625 61.171875 64.09375 
Q 71.09375 55.28125 71.09375 36.53125 
Q 71.09375 17.671875 61.125 8.828125 
Q 51.171875 0 30.078125 0 
L 9.8125 0 
z
" id="DejaVuSans-68"/>
       <path d="M 9.421875 54.6875 
L 18.40625 54.6875 
L 18.40625 -0.984375 
Q 18.40625 -11.421875 14.421875 -16.109375 
Q 10.453125 -20.796875 1.609375 -20.796875 
L -1.8125 -20.796875 
L -1.8125 -13.1875 
L 0.59375 -13.1875 
Q 5.71875 -13.1875 7.5625 -10.8125 
Q 9.421875 -8.453125 9.421875 -0.984375 
z
M 9.421875 75.984375 
L 18.40625 75.984375 
L 18.40625 64.59375 
L 9.421875 64.59375 
z
" id="DejaVuSans-106"/>
       <path d="M 45.40625 27.984375 
Q 45.40625 37.75 41.375 43.109375 
Q 37.359375 48.484375 30.078125 48.484375 
Q 22.859375 48.484375 18.828125 43.109375 
Q 14.796875 37.75 14.796875 27.984375 
Q 14.796875 18.265625 18.828125 12.890625 
Q 22.859375 7.515625 30.078125 7.515625 
Q 37.359375 7.515625 41.375 12.890625 
Q 45.40625 18.265625 45.40625 27.984375 
z
M 54.390625 6.78125 
Q 54.390625 -7.171875 48.1875 -13.984375 
Q 42 -20.796875 29.203125 -20.796875 
Q 24.46875 -20.796875 20.265625 -20.09375 
Q 16.0625 -19.390625 12.109375 -17.921875 
L 12.109375 -9.1875 
Q 16.0625 -11.328125 19.921875 -12.34375 
Q 23.78125 -13.375 27.78125 -13.375 
Q 36.625 -13.375 41.015625 -8.765625 
Q 45.40625 -4.15625 45.40625 5.171875 
L 45.40625 9.625 
Q 42.625 4.78125 38.28125 2.390625 
Q 33.9375 0 27.875 0 
Q 17.828125 0 11.671875 7.65625 
Q 5.515625 15.328125 5.515625 27.984375 
Q 5.515625 40.671875 11.671875 48.328125 
Q 17.828125 56 27.875 56 
Q 33.9375 56 38.28125 53.609375 
Q 42.625 51.21875 45.40625 46.390625 
L 45.40625 54.6875 
L 54.390625 54.6875 
z
" id="DejaVuSans-103"/>
      </defs>
      <use transform="translate(0 0.34375)" xlink:href="#DejaVuSans-68"/>
      <use transform="translate(77.001953 0.34375)" xlink:href="#DejaVuSans-111"/>
      <use transform="translate(138.183594 0.34375)" xlink:href="#DejaVuSans-32"/>
      <use transform="translate(169.970703 0.34375)" xlink:href="#DejaVuSans-110"/>
      <use transform="translate(233.349609 0.34375)" xlink:href="#DejaVuSans-111"/>
      <use transform="translate(294.53125 0.34375)" xlink:href="#DejaVuSans-116"/>
      <use transform="translate(333.740234 0.34375)" xlink:href="#DejaVuSans-32"/>
      <use transform="translate(365.527344 0.34375)" xlink:href="#DejaVuSans-114"/>
      <use transform="translate(406.640625 0.34375)" xlink:href="#DejaVuSans-101"/>
      <use transform="translate(468.164062 0.34375)" xlink:href="#DejaVuSans-106"/>
      <use transform="translate(495.947266 0.34375)" xlink:href="#DejaVuSans-101"/>
      <use transform="translate(557.470703 0.34375)" xlink:href="#DejaVuSans-99"/>
      <use transform="translate(612.451172 0.34375)" xlink:href="#DejaVuSans-116"/>
      <use transform="translate(651.660156 0.34375)" xlink:href="#DejaVuSans-32"/>
      <use transform="translate(683.447266 0.34375)" xlink:href="#DejaVuSans-110"/>
      <use transform="translate(746.826172 0.34375)" xlink:href="#DejaVuSans-117"/>
      <use transform="translate(810.205078 0.34375)" xlink:href="#DejaVuSans-108"/>
      <use transform="translate(837.988281 0.34375)" xlink:href="#DejaVuSans-108"/>
      <use transform="translate(865.771484 0.34375)" xlink:href="#DejaVuSans-32"/>
      <use transform="translate(897.558594 0.34375)" xlink:href="#DejaVuSans-105"/>
      <use transform="translate(925.341797 0.34375)" xlink:href="#DejaVuSans-102"/>
      <use transform="translate(960.546875 0.34375)" xlink:href="#DejaVuSans-32"/>
      <use transform="translate(992.333984 0.84375)" xlink:href="#DejaVuSans-Oblique-84"/>
      <use transform="translate(1053.417969 0.34375)" xlink:href="#DejaVuSans-32"/>
      <use transform="translate(1085.205078 0.34375)" xlink:href="#DejaVuSans-105"/>
      <use transform="translate(1112.988281 0.34375)" xlink:href="#DejaVuSans-110"/>
      <use transform="translate(1176.367188 0.34375)" xlink:href="#DejaVuSans-32"/>
      <use transform="translate(1208.154297 0.34375)" xlink:href="#DejaVuSans-116"/>
      <use transform="translate(1247.363281 0.34375)" xlink:href="#DejaVuSans-104"/>
      <use transform="translate(1310.742188 0.34375)" xlink:href="#DejaVuSans-105"/>
      <use transform="translate(1338.525391 0.34375)" xlink:href="#DejaVuSans-115"/>
      <use transform="translate(1390.625 0.34375)" xlink:href="#DejaVuSans-32"/>
      <use transform="translate(1422.412109 0.34375)" xlink:href="#DejaVuSans-114"/>
      <use transform="translate(1463.525391 0.34375)" xlink:href="#DejaVuSans-97"/>
      <use transform="translate(1524.804688 0.34375)" xlink:href="#DejaVuSans-110"/>
      <use transform="translate(1588.183594 0.34375)" xlink:href="#DejaVuSans-103"/>
      <use transform="translate(1651.660156 0.34375)" xlink:href="#DejaVuSans-101"/>
      <path d="M 992.333984 85.5 
L 992.333984 91.75 
L 1053.417969 91.75 
L 1053.417969 85.5 
L 992.333984 85.5 
z
"/>
     </g>
    </g>
    <g id="patch_107">
     <path d="M 176.326562 82.736562 
L 196.326562 82.736562 
L 196.326562 75.736562 
L 176.326562 75.736562 
z
" style="fill:#1f77b4;opacity:0.5;"/>
    </g>
    <g id="text_17">
     <!-- Null distribution (bootstrapped) -->
     <g transform="translate(204.326562 82.736562)scale(0.1 -0.1)">
      <use xlink:href="#DejaVuSans-78"/>
      <use x="74.804688" xlink:href="#DejaVuSans-117"/>
      <use x="138.183594" xlink:href="#DejaVuSans-108"/>
      <use x="165.966797" xlink:href="#DejaVuSans-108"/>
      <use x="193.75" xlink:href="#DejaVuSans-32"/>
      <use x="225.537109" xlink:href="#DejaVuSans-100"/>
      <use x="289.013672" xlink:href="#DejaVuSans-105"/>
      <use x="316.796875" xlink:href="#DejaVuSans-115"/>
      <use x="368.896484" xlink:href="#DejaVuSans-116"/>
      <use x="408.105469" xlink:href="#DejaVuSans-114"/>
      <use x="449.21875" xlink:href="#DejaVuSans-105"/>
      <use x="477.001953" xlink:href="#DejaVuSans-98"/>
      <use x="540.478516" xlink:href="#DejaVuSans-117"/>
      <use x="603.857422" xlink:href="#DejaVuSans-116"/>
      <use x="643.066406" xlink:href="#DejaVuSans-105"/>
      <use x="670.849609" xlink:href="#DejaVuSans-111"/>
      <use x="732.03125" xlink:href="#DejaVuSans-110"/>
      <use x="795.410156" xlink:href="#DejaVuSans-32"/>
      <use x="827.197266" xlink:href="#DejaVuSans-40"/>
      <use x="866.210938" xlink:href="#DejaVuSans-98"/>
      <use x="929.6875" xlink:href="#DejaVuSans-111"/>
      <use x="990.869141" xlink:href="#DejaVuSans-111"/>
      <use x="1052.050781" xlink:href="#DejaVuSans-116"/>
      <use x="1091.259766" xlink:href="#DejaVuSans-115"/>
      <use x="1143.359375" xlink:href="#DejaVuSans-116"/>
      <use x="1182.568359" xlink:href="#DejaVuSans-114"/>
      <use x="1223.681641" xlink:href="#DejaVuSans-97"/>
      <use x="1284.960938" xlink:href="#DejaVuSans-112"/>
      <use x="1348.4375" xlink:href="#DejaVuSans-112"/>
      <use x="1411.914062" xlink:href="#DejaVuSans-101"/>
      <use x="1473.4375" xlink:href="#DejaVuSans-100"/>
      <use x="1536.914062" xlink:href="#DejaVuSans-41"/>
     </g>
    </g>
   </g>
  </g>
 </g>
 <defs>
  <clipPath id="pef7c95f7cc">
   <rect height="217.44" width="334.8" x="54" y="34.56"/>
  </clipPath>
 </defs>
</svg>
