<?xml version="1.0" encoding="utf-8" standalone="no"?>
<!DOCTYPE svg PUBLIC "-//W3C//DTD SVG 1.1//EN"
  "http://www.w3.org/Graphics/SVG/1.1/DTD/svg11.dtd">
<svg xmlns:xlink="http://www.w3.org/1999/xlink" width="460.8pt" height="345.6pt" viewBox="0 0 460.8 345.6" xmlns="http://www.w3.org/2000/svg" version="1.1">
 <metadata>
  <rdf:RDF xmlns:dc="http://purl.org/dc/elements/1.1/" xmlns:cc="http://creativecommons.org/ns#" xmlns:rdf="http://www.w3.org/1999/02/22-rdf-syntax-ns#">
   <cc:Work>
    <dc:type rdf:resource="http://purl.org/dc/dcmitype/StillImage"/>
    <dc:date>2023-04-05T13:09:24.259562</dc:date>
    <dc:format>image/svg+xml</dc:format>
    <dc:creator>
     <cc:Agent>
      <dc:title>Matplotlib v3.5.2, https://matplotlib.org/</dc:title>
     </cc:Agent>
    </dc:creator>
   </cc:Work>
  </rdf:RDF>
 </metadata>
 <defs>
  <style type="text/css">*{stroke-linejoin: round; stroke-linecap: butt}</style>
 </defs>
 <g id="figure_1">
  <g id="patch_1">
   <path d="M 0 345.6 
L 460.8 345.6 
L 460.8 0 
L 0 0 
L 0 345.6 
z
" style="fill: none"/>
  </g>
  <g id="axes_1">
   <g id="patch_2">
    <path d="M 57.6 307.584 
L 414.72 307.584 
L 414.72 41.472 
L 57.6 41.472 
L 57.6 307.584 
z
" style="fill: none"/>
   </g>
   <g id="patch_3">
    <path d="M 93.312 307.584 
L 96.197818 307.584 
L 96.197818 307.035089 
L 93.312 307.035089 
z
" clip-path="url(#p71d5d4a80b)" style="fill: #1f77b4; opacity: 0.5"/>
   </g>
   <g id="patch_4">
    <path d="M 96.197818 307.584 
L 99.083636 307.584 
L 99.083636 307.584 
L 96.197818 307.584 
z
" clip-path="url(#p71d5d4a80b)" style="fill: #1f77b4; opacity: 0.5"/>
   </g>
   <g id="patch_5">
    <path d="M 99.083636 307.584 
L 101.969455 307.584 
L 101.969455 307.584 
L 99.083636 307.584 
z
" clip-path="url(#p71d5d4a80b)" style="fill: #1f77b4; opacity: 0.5"/>
   </g>
   <g id="patch_6">
    <path d="M 101.969455 307.584 
L 104.855273 307.584 
L 104.855273 307.584 
L 101.969455 307.584 
z
" clip-path="url(#p71d5d4a80b)" style="fill: #1f77b4; opacity: 0.5"/>
   </g>
   <g id="patch_7">
    <path d="M 104.855273 307.584 
L 107.741091 307.584 
L 107.741091 307.584 
L 104.855273 307.584 
z
" clip-path="url(#p71d5d4a80b)" style="fill: #1f77b4; opacity: 0.5"/>
   </g>
   <g id="patch_8">
    <path d="M 107.741091 307.584 
L 110.626909 307.584 
L 110.626909 307.584 
L 107.741091 307.584 
z
" clip-path="url(#p71d5d4a80b)" style="fill: #1f77b4; opacity: 0.5"/>
   </g>
   <g id="patch_9">
    <path d="M 110.626909 307.584 
L 113.512727 307.584 
L 113.512727 307.584 
L 110.626909 307.584 
z
" clip-path="url(#p71d5d4a80b)" style="fill: #1f77b4; opacity: 0.5"/>
   </g>
   <g id="patch_10">
    <path d="M 113.512727 307.584 
L 116.398545 307.584 
L 116.398545 306.486178 
L 113.512727 306.486178 
z
" clip-path="url(#p71d5d4a80b)" style="fill: #1f77b4; opacity: 0.5"/>
   </g>
   <g id="patch_11">
    <path d="M 116.398545 307.584 
L 119.284364 307.584 
L 119.284364 306.486178 
L 116.398545 306.486178 
z
" clip-path="url(#p71d5d4a80b)" style="fill: #1f77b4; opacity: 0.5"/>
   </g>
   <g id="patch_12">
    <path d="M 119.284364 307.584 
L 122.170182 307.584 
L 122.170182 305.937267 
L 119.284364 305.937267 
z
" clip-path="url(#p71d5d4a80b)" style="fill: #1f77b4; opacity: 0.5"/>
   </g>
   <g id="patch_13">
    <path d="M 122.170182 307.584 
L 125.056 307.584 
L 125.056 307.035089 
L 122.170182 307.035089 
z
" clip-path="url(#p71d5d4a80b)" style="fill: #1f77b4; opacity: 0.5"/>
   </g>
   <g id="patch_14">
    <path d="M 125.056 307.584 
L 127.941818 307.584 
L 127.941818 306.486178 
L 125.056 306.486178 
z
" clip-path="url(#p71d5d4a80b)" style="fill: #1f77b4; opacity: 0.5"/>
   </g>
   <g id="patch_15">
    <path d="M 127.941818 307.584 
L 130.827636 307.584 
L 130.827636 305.388356 
L 127.941818 305.388356 
z
" clip-path="url(#p71d5d4a80b)" style="fill: #1f77b4; opacity: 0.5"/>
   </g>
   <g id="patch_16">
    <path d="M 130.827636 307.584 
L 133.713455 307.584 
L 133.713455 304.839446 
L 130.827636 304.839446 
z
" clip-path="url(#p71d5d4a80b)" style="fill: #1f77b4; opacity: 0.5"/>
   </g>
   <g id="patch_17">
    <path d="M 133.713455 307.584 
L 136.599273 307.584 
L 136.599273 304.290535 
L 133.713455 304.290535 
z
" clip-path="url(#p71d5d4a80b)" style="fill: #1f77b4; opacity: 0.5"/>
   </g>
   <g id="patch_18">
    <path d="M 136.599273 307.584 
L 139.485091 307.584 
L 139.485091 304.290535 
L 136.599273 304.290535 
z
" clip-path="url(#p71d5d4a80b)" style="fill: #1f77b4; opacity: 0.5"/>
   </g>
   <g id="patch_19">
    <path d="M 139.485091 307.584 
L 142.370909 307.584 
L 142.370909 304.290535 
L 139.485091 304.290535 
z
" clip-path="url(#p71d5d4a80b)" style="fill: #1f77b4; opacity: 0.5"/>
   </g>
   <g id="patch_20">
    <path d="M 142.370909 307.584 
L 145.256727 307.584 
L 145.256727 303.192713 
L 142.370909 303.192713 
z
" clip-path="url(#p71d5d4a80b)" style="fill: #1f77b4; opacity: 0.5"/>
   </g>
   <g id="patch_21">
    <path d="M 145.256727 307.584 
L 148.142545 307.584 
L 148.142545 297.703604 
L 145.256727 297.703604 
z
" clip-path="url(#p71d5d4a80b)" style="fill: #1f77b4; opacity: 0.5"/>
   </g>
   <g id="patch_22">
    <path d="M 148.142545 307.584 
L 151.028364 307.584 
L 151.028364 293.312317 
L 148.142545 293.312317 
z
" clip-path="url(#p71d5d4a80b)" style="fill: #1f77b4; opacity: 0.5"/>
   </g>
   <g id="patch_23">
    <path d="M 151.028364 307.584 
L 153.914182 307.584 
L 153.914182 294.95905 
L 151.028364 294.95905 
z
" clip-path="url(#p71d5d4a80b)" style="fill: #1f77b4; opacity: 0.5"/>
   </g>
   <g id="patch_24">
    <path d="M 153.914182 307.584 
L 156.8 307.584 
L 156.8 294.410139 
L 153.914182 294.410139 
z
" clip-path="url(#p71d5d4a80b)" style="fill: #1f77b4; opacity: 0.5"/>
   </g>
   <g id="patch_25">
    <path d="M 156.8 307.584 
L 159.685818 307.584 
L 159.685818 292.763406 
L 156.8 292.763406 
z
" clip-path="url(#p71d5d4a80b)" style="fill: #1f77b4; opacity: 0.5"/>
   </g>
   <g id="patch_26">
    <path d="M 159.685818 307.584 
L 162.571636 307.584 
L 162.571636 287.823208 
L 159.685818 287.823208 
z
" clip-path="url(#p71d5d4a80b)" style="fill: #1f77b4; opacity: 0.5"/>
   </g>
   <g id="patch_27">
    <path d="M 162.571636 307.584 
L 165.457455 307.584 
L 165.457455 278.491723 
L 162.571636 278.491723 
z
" clip-path="url(#p71d5d4a80b)" style="fill: #1f77b4; opacity: 0.5"/>
   </g>
   <g id="patch_28">
    <path d="M 165.457455 307.584 
L 168.343273 307.584 
L 168.343273 281.785188 
L 165.457455 281.785188 
z
" clip-path="url(#p71d5d4a80b)" style="fill: #1f77b4; opacity: 0.5"/>
   </g>
   <g id="patch_29">
    <path d="M 168.343273 307.584 
L 171.229091 307.584 
L 171.229091 274.649347 
L 168.343273 274.649347 
z
" clip-path="url(#p71d5d4a80b)" style="fill: #1f77b4; opacity: 0.5"/>
   </g>
   <g id="patch_30">
    <path d="M 171.229091 307.584 
L 174.114909 307.584 
L 174.114909 277.942812 
L 171.229091 277.942812 
z
" clip-path="url(#p71d5d4a80b)" style="fill: #1f77b4; opacity: 0.5"/>
   </g>
   <g id="patch_31">
    <path d="M 174.114909 307.584 
L 177.000727 307.584 
L 177.000727 262.573307 
L 174.114909 262.573307 
z
" clip-path="url(#p71d5d4a80b)" style="fill: #1f77b4; opacity: 0.5"/>
   </g>
   <g id="patch_32">
    <path d="M 177.000727 307.584 
L 179.886545 307.584 
L 179.886545 262.024396 
L 177.000727 262.024396 
z
" clip-path="url(#p71d5d4a80b)" style="fill: #1f77b4; opacity: 0.5"/>
   </g>
   <g id="patch_33">
    <path d="M 179.886545 307.584 
L 182.772364 307.584 
L 182.772364 248.850535 
L 179.886545 248.850535 
z
" clip-path="url(#p71d5d4a80b)" style="fill: #1f77b4; opacity: 0.5"/>
   </g>
   <g id="patch_34">
    <path d="M 182.772364 307.584 
L 185.658182 307.584 
L 185.658182 254.339644 
L 182.772364 254.339644 
z
" clip-path="url(#p71d5d4a80b)" style="fill: #1f77b4; opacity: 0.5"/>
   </g>
   <g id="patch_35">
    <path d="M 185.658182 307.584 
L 188.544 307.584 
L 188.544 234.029941 
L 185.658182 234.029941 
z
" clip-path="url(#p71d5d4a80b)" style="fill: #1f77b4; opacity: 0.5"/>
   </g>
   <g id="patch_36">
    <path d="M 188.544 307.584 
L 191.429818 307.584 
L 191.429818 227.44301 
L 188.544 227.44301 
z
" clip-path="url(#p71d5d4a80b)" style="fill: #1f77b4; opacity: 0.5"/>
   </g>
   <g id="patch_37">
    <path d="M 191.429818 307.584 
L 194.315636 307.584 
L 194.315636 216.464792 
L 191.429818 216.464792 
z
" clip-path="url(#p71d5d4a80b)" style="fill: #1f77b4; opacity: 0.5"/>
   </g>
   <g id="patch_38">
    <path d="M 194.315636 307.584 
L 197.201455 307.584 
L 197.201455 200.546376 
L 194.315636 200.546376 
z
" clip-path="url(#p71d5d4a80b)" style="fill: #1f77b4; opacity: 0.5"/>
   </g>
   <g id="patch_39">
    <path d="M 197.201455 307.584 
L 200.087273 307.584 
L 200.087273 192.861624 
L 197.201455 192.861624 
z
" clip-path="url(#p71d5d4a80b)" style="fill: #1f77b4; opacity: 0.5"/>
   </g>
   <g id="patch_40">
    <path d="M 200.087273 307.584 
L 202.973091 307.584 
L 202.973091 199.448554 
L 200.087273 199.448554 
z
" clip-path="url(#p71d5d4a80b)" style="fill: #1f77b4; opacity: 0.5"/>
   </g>
   <g id="patch_41">
    <path d="M 202.973091 307.584 
L 205.858909 307.584 
L 205.858909 181.883406 
L 202.973091 181.883406 
z
" clip-path="url(#p71d5d4a80b)" style="fill: #1f77b4; opacity: 0.5"/>
   </g>
   <g id="patch_42">
    <path d="M 205.858909 307.584 
L 208.744727 307.584 
L 208.744727 180.236673 
L 205.858909 180.236673 
z
" clip-path="url(#p71d5d4a80b)" style="fill: #1f77b4; opacity: 0.5"/>
   </g>
   <g id="patch_43">
    <path d="M 208.744727 307.584 
L 211.630545 307.584 
L 211.630545 161.573703 
L 208.744727 161.573703 
z
" clip-path="url(#p71d5d4a80b)" style="fill: #1f77b4; opacity: 0.5"/>
   </g>
   <g id="patch_44">
    <path d="M 211.630545 307.584 
L 214.516364 307.584 
L 214.516364 184.07905 
L 211.630545 184.07905 
z
" clip-path="url(#p71d5d4a80b)" style="fill: #1f77b4; opacity: 0.5"/>
   </g>
   <g id="patch_45">
    <path d="M 214.516364 307.584 
L 217.402182 307.584 
L 217.402182 162.671525 
L 214.516364 162.671525 
z
" clip-path="url(#p71d5d4a80b)" style="fill: #1f77b4; opacity: 0.5"/>
   </g>
   <g id="patch_46">
    <path d="M 217.402182 307.584 
L 220.288 307.584 
L 220.288 152.791129 
L 217.402182 152.791129 
z
" clip-path="url(#p71d5d4a80b)" style="fill: #1f77b4; opacity: 0.5"/>
   </g>
   <g id="patch_47">
    <path d="M 220.288 307.584 
L 223.173818 307.584 
L 223.173818 140.166178 
L 220.288 140.166178 
z
" clip-path="url(#p71d5d4a80b)" style="fill: #1f77b4; opacity: 0.5"/>
   </g>
   <g id="patch_48">
    <path d="M 223.173818 307.584 
L 226.059636 307.584 
L 226.059636 127.541228 
L 223.173818 127.541228 
z
" clip-path="url(#p71d5d4a80b)" style="fill: #1f77b4; opacity: 0.5"/>
   </g>
   <g id="patch_49">
    <path d="M 226.059636 307.584 
L 228.945455 307.584 
L 228.945455 149.497663 
L 226.059636 149.497663 
z
" clip-path="url(#p71d5d4a80b)" style="fill: #1f77b4; opacity: 0.5"/>
   </g>
   <g id="patch_50">
    <path d="M 228.945455 307.584 
L 231.831273 307.584 
L 231.831273 131.383604 
L 228.945455 131.383604 
z
" clip-path="url(#p71d5d4a80b)" style="fill: #1f77b4; opacity: 0.5"/>
   </g>
   <g id="patch_51">
    <path d="M 231.831273 307.584 
L 234.717091 307.584 
L 234.717091 125.345584 
L 231.831273 125.345584 
z
" clip-path="url(#p71d5d4a80b)" style="fill: #1f77b4; opacity: 0.5"/>
   </g>
   <g id="patch_52">
    <path d="M 234.717091 307.584 
L 237.602909 307.584 
L 237.602909 134.677069 
L 234.717091 134.677069 
z
" clip-path="url(#p71d5d4a80b)" style="fill: #1f77b4; opacity: 0.5"/>
   </g>
   <g id="patch_53">
    <path d="M 237.602909 307.584 
L 240.488727 307.584 
L 240.488727 125.894495 
L 237.602909 125.894495 
z
" clip-path="url(#p71d5d4a80b)" style="fill: #1f77b4; opacity: 0.5"/>
   </g>
   <g id="patch_54">
    <path d="M 240.488727 307.584 
L 243.374545 307.584 
L 243.374545 158.280238 
L 240.488727 158.280238 
z
" clip-path="url(#p71d5d4a80b)" style="fill: #1f77b4; opacity: 0.5"/>
   </g>
   <g id="patch_55">
    <path d="M 243.374545 307.584 
L 246.260364 307.584 
L 246.260364 136.323802 
L 243.374545 136.323802 
z
" clip-path="url(#p71d5d4a80b)" style="fill: #1f77b4; opacity: 0.5"/>
   </g>
   <g id="patch_56">
    <path d="M 246.260364 307.584 
L 249.146182 307.584 
L 249.146182 129.18796 
L 246.260364 129.18796 
z
" clip-path="url(#p71d5d4a80b)" style="fill: #1f77b4; opacity: 0.5"/>
   </g>
   <g id="patch_57">
    <path d="M 249.146182 307.584 
L 252.032 307.584 
L 252.032 154.986772 
L 249.146182 154.986772 
z
" clip-path="url(#p71d5d4a80b)" style="fill: #1f77b4; opacity: 0.5"/>
   </g>
   <g id="patch_58">
    <path d="M 252.032 307.584 
L 254.917818 307.584 
L 254.917818 126.992317 
L 252.032 126.992317 
z
" clip-path="url(#p71d5d4a80b)" style="fill: #1f77b4; opacity: 0.5"/>
   </g>
   <g id="patch_59">
    <path d="M 254.917818 307.584 
L 257.803636 307.584 
L 257.803636 153.34004 
L 254.917818 153.34004 
z
" clip-path="url(#p71d5d4a80b)" style="fill: #1f77b4; opacity: 0.5"/>
   </g>
   <g id="patch_60">
    <path d="M 257.803636 307.584 
L 260.689455 307.584 
L 260.689455 167.611723 
L 257.803636 167.611723 
z
" clip-path="url(#p71d5d4a80b)" style="fill: #1f77b4; opacity: 0.5"/>
   </g>
   <g id="patch_61">
    <path d="M 260.689455 307.584 
L 263.575273 307.584 
L 263.575273 170.356277 
L 260.689455 170.356277 
z
" clip-path="url(#p71d5d4a80b)" style="fill: #1f77b4; opacity: 0.5"/>
   </g>
   <g id="patch_62">
    <path d="M 263.575273 307.584 
L 266.461091 307.584 
L 266.461091 179.687762 
L 263.575273 179.687762 
z
" clip-path="url(#p71d5d4a80b)" style="fill: #1f77b4; opacity: 0.5"/>
   </g>
   <g id="patch_63">
    <path d="M 266.461091 307.584 
L 269.346909 307.584 
L 269.346909 196.155089 
L 266.461091 196.155089 
z
" clip-path="url(#p71d5d4a80b)" style="fill: #1f77b4; opacity: 0.5"/>
   </g>
   <g id="patch_64">
    <path d="M 269.346909 307.584 
L 272.232727 307.584 
L 272.232727 206.584396 
L 269.346909 206.584396 
z
" clip-path="url(#p71d5d4a80b)" style="fill: #1f77b4; opacity: 0.5"/>
   </g>
   <g id="patch_65">
    <path d="M 272.232727 307.584 
L 275.118545 307.584 
L 275.118545 208.78004 
L 272.232727 208.78004 
z
" clip-path="url(#p71d5d4a80b)" style="fill: #1f77b4; opacity: 0.5"/>
   </g>
   <g id="patch_66">
    <path d="M 275.118545 307.584 
L 278.004364 307.584 
L 278.004364 219.209347 
L 275.118545 219.209347 
z
" clip-path="url(#p71d5d4a80b)" style="fill: #1f77b4; opacity: 0.5"/>
   </g>
   <g id="patch_67">
    <path d="M 278.004364 307.584 
L 280.890182 307.584 
L 280.890182 220.856079 
L 278.004364 220.856079 
z
" clip-path="url(#p71d5d4a80b)" style="fill: #1f77b4; opacity: 0.5"/>
   </g>
   <g id="patch_68">
    <path d="M 280.890182 307.584 
L 283.776 307.584 
L 283.776 231.285386 
L 280.890182 231.285386 
z
" clip-path="url(#p71d5d4a80b)" style="fill: #1f77b4; opacity: 0.5"/>
   </g>
   <g id="patch_69">
    <path d="M 283.776 307.584 
L 286.661818 307.584 
L 286.661818 247.203802 
L 283.776 247.203802 
z
" clip-path="url(#p71d5d4a80b)" style="fill: #1f77b4; opacity: 0.5"/>
   </g>
   <g id="patch_70">
    <path d="M 286.661818 307.584 
L 289.547636 307.584 
L 289.547636 248.301624 
L 286.661818 248.301624 
z
" clip-path="url(#p71d5d4a80b)" style="fill: #1f77b4; opacity: 0.5"/>
   </g>
   <g id="patch_71">
    <path d="M 289.547636 307.584 
L 292.433455 307.584 
L 292.433455 251.595089 
L 289.547636 251.595089 
z
" clip-path="url(#p71d5d4a80b)" style="fill: #1f77b4; opacity: 0.5"/>
   </g>
   <g id="patch_72">
    <path d="M 292.433455 307.584 
L 295.319273 307.584 
L 295.319273 259.279842 
L 292.433455 259.279842 
z
" clip-path="url(#p71d5d4a80b)" style="fill: #1f77b4; opacity: 0.5"/>
   </g>
   <g id="patch_73">
    <path d="M 295.319273 307.584 
L 298.205091 307.584 
L 298.205091 257.084198 
L 295.319273 257.084198 
z
" clip-path="url(#p71d5d4a80b)" style="fill: #1f77b4; opacity: 0.5"/>
   </g>
   <g id="patch_74">
    <path d="M 298.205091 307.584 
L 301.090909 307.584 
L 301.090909 276.296079 
L 298.205091 276.296079 
z
" clip-path="url(#p71d5d4a80b)" style="fill: #1f77b4; opacity: 0.5"/>
   </g>
   <g id="patch_75">
    <path d="M 301.090909 307.584 
L 303.976727 307.584 
L 303.976727 276.84499 
L 301.090909 276.84499 
z
" clip-path="url(#p71d5d4a80b)" style="fill: #1f77b4; opacity: 0.5"/>
   </g>
   <g id="patch_76">
    <path d="M 303.976727 307.584 
L 306.862545 307.584 
L 306.862545 280.138455 
L 303.976727 280.138455 
z
" clip-path="url(#p71d5d4a80b)" style="fill: #1f77b4; opacity: 0.5"/>
   </g>
   <g id="patch_77">
    <path d="M 306.862545 307.584 
L 309.748364 307.584 
L 309.748364 289.469941 
L 306.862545 289.469941 
z
" clip-path="url(#p71d5d4a80b)" style="fill: #1f77b4; opacity: 0.5"/>
   </g>
   <g id="patch_78">
    <path d="M 309.748364 307.584 
L 312.634182 307.584 
L 312.634182 286.176475 
L 309.748364 286.176475 
z
" clip-path="url(#p71d5d4a80b)" style="fill: #1f77b4; opacity: 0.5"/>
   </g>
   <g id="patch_79">
    <path d="M 312.634182 307.584 
L 315.52 307.584 
L 315.52 287.823208 
L 312.634182 287.823208 
z
" clip-path="url(#p71d5d4a80b)" style="fill: #1f77b4; opacity: 0.5"/>
   </g>
   <g id="patch_80">
    <path d="M 315.52 307.584 
L 318.405818 307.584 
L 318.405818 297.703604 
L 315.52 297.703604 
z
" clip-path="url(#p71d5d4a80b)" style="fill: #1f77b4; opacity: 0.5"/>
   </g>
   <g id="patch_81">
    <path d="M 318.405818 307.584 
L 321.291636 307.584 
L 321.291636 297.703604 
L 318.405818 297.703604 
z
" clip-path="url(#p71d5d4a80b)" style="fill: #1f77b4; opacity: 0.5"/>
   </g>
   <g id="patch_82">
    <path d="M 321.291636 307.584 
L 324.177455 307.584 
L 324.177455 299.899248 
L 321.291636 299.899248 
z
" clip-path="url(#p71d5d4a80b)" style="fill: #1f77b4; opacity: 0.5"/>
   </g>
   <g id="patch_83">
    <path d="M 324.177455 307.584 
L 327.063273 307.584 
L 327.063273 299.350337 
L 324.177455 299.350337 
z
" clip-path="url(#p71d5d4a80b)" style="fill: #1f77b4; opacity: 0.5"/>
   </g>
   <g id="patch_84">
    <path d="M 327.063273 307.584 
L 329.949091 307.584 
L 329.949091 299.899248 
L 327.063273 299.899248 
z
" clip-path="url(#p71d5d4a80b)" style="fill: #1f77b4; opacity: 0.5"/>
   </g>
   <g id="patch_85">
    <path d="M 329.949091 307.584 
L 332.834909 307.584 
L 332.834909 300.997069 
L 329.949091 300.997069 
z
" clip-path="url(#p71d5d4a80b)" style="fill: #1f77b4; opacity: 0.5"/>
   </g>
   <g id="patch_86">
    <path d="M 332.834909 307.584 
L 335.720727 307.584 
L 335.720727 302.643802 
L 332.834909 302.643802 
z
" clip-path="url(#p71d5d4a80b)" style="fill: #1f77b4; opacity: 0.5"/>
   </g>
   <g id="patch_87">
    <path d="M 335.720727 307.584 
L 338.606545 307.584 
L 338.606545 304.290535 
L 335.720727 304.290535 
z
" clip-path="url(#p71d5d4a80b)" style="fill: #1f77b4; opacity: 0.5"/>
   </g>
   <g id="patch_88">
    <path d="M 338.606545 307.584 
L 341.492364 307.584 
L 341.492364 304.839446 
L 338.606545 304.839446 
z
" clip-path="url(#p71d5d4a80b)" style="fill: #1f77b4; opacity: 0.5"/>
   </g>
   <g id="patch_89">
    <path d="M 341.492364 307.584 
L 344.378182 307.584 
L 344.378182 305.388356 
L 341.492364 305.388356 
z
" clip-path="url(#p71d5d4a80b)" style="fill: #1f77b4; opacity: 0.5"/>
   </g>
   <g id="patch_90">
    <path d="M 344.378182 307.584 
L 347.264 307.584 
L 347.264 307.584 
L 344.378182 307.584 
z
" clip-path="url(#p71d5d4a80b)" style="fill: #1f77b4; opacity: 0.5"/>
   </g>
   <g id="patch_91">
    <path d="M 347.264 307.584 
L 350.149818 307.584 
L 350.149818 306.486178 
L 347.264 306.486178 
z
" clip-path="url(#p71d5d4a80b)" style="fill: #1f77b4; opacity: 0.5"/>
   </g>
   <g id="patch_92">
    <path d="M 350.149818 307.584 
L 353.035636 307.584 
L 353.035636 306.486178 
L 350.149818 306.486178 
z
" clip-path="url(#p71d5d4a80b)" style="fill: #1f77b4; opacity: 0.5"/>
   </g>
   <g id="patch_93">
    <path d="M 353.035636 307.584 
L 355.921455 307.584 
L 355.921455 307.584 
L 353.035636 307.584 
z
" clip-path="url(#p71d5d4a80b)" style="fill: #1f77b4; opacity: 0.5"/>
   </g>
   <g id="patch_94">
    <path d="M 355.921455 307.584 
L 358.807273 307.584 
L 358.807273 307.035089 
L 355.921455 307.035089 
z
" clip-path="url(#p71d5d4a80b)" style="fill: #1f77b4; opacity: 0.5"/>
   </g>
   <g id="patch_95">
    <path d="M 358.807273 307.584 
L 361.693091 307.584 
L 361.693091 307.584 
L 358.807273 307.584 
z
" clip-path="url(#p71d5d4a80b)" style="fill: #1f77b4; opacity: 0.5"/>
   </g>
   <g id="patch_96">
    <path d="M 361.693091 307.584 
L 364.578909 307.584 
L 364.578909 307.584 
L 361.693091 307.584 
z
" clip-path="url(#p71d5d4a80b)" style="fill: #1f77b4; opacity: 0.5"/>
   </g>
   <g id="patch_97">
    <path d="M 364.578909 307.584 
L 367.464727 307.584 
L 367.464727 307.584 
L 364.578909 307.584 
z
" clip-path="url(#p71d5d4a80b)" style="fill: #1f77b4; opacity: 0.5"/>
   </g>
   <g id="patch_98">
    <path d="M 367.464727 307.584 
L 370.350545 307.584 
L 370.350545 307.584 
L 367.464727 307.584 
z
" clip-path="url(#p71d5d4a80b)" style="fill: #1f77b4; opacity: 0.5"/>
   </g>
   <g id="patch_99">
    <path d="M 370.350545 307.584 
L 373.236364 307.584 
L 373.236364 307.584 
L 370.350545 307.584 
z
" clip-path="url(#p71d5d4a80b)" style="fill: #1f77b4; opacity: 0.5"/>
   </g>
   <g id="patch_100">
    <path d="M 373.236364 307.584 
L 376.122182 307.584 
L 376.122182 307.584 
L 373.236364 307.584 
z
" clip-path="url(#p71d5d4a80b)" style="fill: #1f77b4; opacity: 0.5"/>
   </g>
   <g id="patch_101">
    <path d="M 376.122182 307.584 
L 379.008 307.584 
L 379.008 307.584 
L 376.122182 307.584 
z
" clip-path="url(#p71d5d4a80b)" style="fill: #1f77b4; opacity: 0.5"/>
   </g>
   <g id="matplotlib.axis_1">
    <g id="xtick_1">
     <g id="line2d_1">
      <defs>
       <path id="m3a392d0070" d="M 0 0 
L 0 3.5 
" style="stroke: #000000; stroke-width: 0.8"/>
      </defs>
      <g>
       <use xlink:href="#m3a392d0070" x="93.312" y="307.584" style="stroke: #000000; stroke-width: 0.8"/>
      </g>
     </g>
     <g id="text_1">
      <!-- −4 -->
      <g transform="translate(85.940906 322.182437)scale(0.1 -0.1)">
       <defs>
        <path id="DejaVuSans-2212" d="M 678 2272 
L 4684 2272 
L 4684 1741 
L 678 1741 
L 678 2272 
z
" transform="scale(0.015625)"/>
        <path id="DejaVuSans-34" d="M 2419 4116 
L 825 1625 
L 2419 1625 
L 2419 4116 
z
M 2253 4666 
L 3047 4666 
L 3047 1625 
L 3713 1625 
L 3713 1100 
L 3047 1100 
L 3047 0 
L 2419 0 
L 2419 1100 
L 313 1100 
L 313 1709 
L 2253 4666 
z
" transform="scale(0.015625)"/>
       </defs>
       <use xlink:href="#DejaVuSans-2212"/>
       <use xlink:href="#DejaVuSans-34" x="83.789062"/>
      </g>
     </g>
    </g>
    <g id="xtick_2">
     <g id="line2d_2">
      <g>
       <use xlink:href="#m3a392d0070" x="164.736" y="307.584" style="stroke: #000000; stroke-width: 0.8"/>
      </g>
     </g>
     <g id="text_2">
      <!-- −2 -->
      <g transform="translate(157.364906 322.182437)scale(0.1 -0.1)">
       <defs>
        <path id="DejaVuSans-32" d="M 1228 531 
L 3431 531 
L 3431 0 
L 469 0 
L 469 531 
Q 828 903 1448 1529 
Q 2069 2156 2228 2338 
Q 2531 2678 2651 2914 
Q 2772 3150 2772 3378 
Q 2772 3750 2511 3984 
Q 2250 4219 1831 4219 
Q 1534 4219 1204 4116 
Q 875 4013 500 3803 
L 500 4441 
Q 881 4594 1212 4672 
Q 1544 4750 1819 4750 
Q 2544 4750 2975 4387 
Q 3406 4025 3406 3419 
Q 3406 3131 3298 2873 
Q 3191 2616 2906 2266 
Q 2828 2175 2409 1742 
Q 1991 1309 1228 531 
z
" transform="scale(0.015625)"/>
       </defs>
       <use xlink:href="#DejaVuSans-2212"/>
       <use xlink:href="#DejaVuSans-32" x="83.789062"/>
      </g>
     </g>
    </g>
    <g id="xtick_3">
     <g id="line2d_3">
      <g>
       <use xlink:href="#m3a392d0070" x="236.16" y="307.584" style="stroke: #000000; stroke-width: 0.8"/>
      </g>
     </g>
     <g id="text_3">
      <!-- 0 -->
      <g transform="translate(232.97875 322.182437)scale(0.1 -0.1)">
       <defs>
        <path id="DejaVuSans-30" d="M 2034 4250 
Q 1547 4250 1301 3770 
Q 1056 3291 1056 2328 
Q 1056 1369 1301 889 
Q 1547 409 2034 409 
Q 2525 409 2770 889 
Q 3016 1369 3016 2328 
Q 3016 3291 2770 3770 
Q 2525 4250 2034 4250 
z
M 2034 4750 
Q 2819 4750 3233 4129 
Q 3647 3509 3647 2328 
Q 3647 1150 3233 529 
Q 2819 -91 2034 -91 
Q 1250 -91 836 529 
Q 422 1150 422 2328 
Q 422 3509 836 4129 
Q 1250 4750 2034 4750 
z
" transform="scale(0.015625)"/>
       </defs>
       <use xlink:href="#DejaVuSans-30"/>
      </g>
     </g>
    </g>
    <g id="xtick_4">
     <g id="line2d_4">
      <g>
       <use xlink:href="#m3a392d0070" x="307.584" y="307.584" style="stroke: #000000; stroke-width: 0.8"/>
      </g>
     </g>
     <g id="text_4">
      <!-- 2 -->
      <g transform="translate(304.40275 322.182437)scale(0.1 -0.1)">
       <use xlink:href="#DejaVuSans-32"/>
      </g>
     </g>
    </g>
    <g id="xtick_5">
     <g id="line2d_5">
      <g>
       <use xlink:href="#m3a392d0070" x="379.008" y="307.584" style="stroke: #000000; stroke-width: 0.8"/>
      </g>
     </g>
     <g id="text_5">
      <!-- 4 -->
      <g transform="translate(375.82675 322.182437)scale(0.1 -0.1)">
       <use xlink:href="#DejaVuSans-34"/>
      </g>
     </g>
    </g>
    <g id="text_6">
     <!-- $z=(\mu-\overline{T})/(\sigma\sqrt{n})$ -->
     <g transform="translate(194.76 338.062125)scale(0.1 -0.1)">
      <defs>
       <path id="DejaVuSans-Oblique-7a" d="M 744 3500 
L 3475 3500 
L 3372 2975 
L 738 459 
L 2913 459 
L 2822 0 
L -19 0 
L 84 525 
L 2719 3041 
L 653 3041 
L 744 3500 
z
" transform="scale(0.015625)"/>
       <path id="DejaVuSans-3d" d="M 678 2906 
L 4684 2906 
L 4684 2381 
L 678 2381 
L 678 2906 
z
M 678 1631 
L 4684 1631 
L 4684 1100 
L 678 1100 
L 678 1631 
z
" transform="scale(0.015625)"/>
       <path id="DejaVuSans-28" d="M 1984 4856 
Q 1566 4138 1362 3434 
Q 1159 2731 1159 2009 
Q 1159 1288 1364 580 
Q 1569 -128 1984 -844 
L 1484 -844 
Q 1016 -109 783 600 
Q 550 1309 550 2009 
Q 550 2706 781 3412 
Q 1013 4119 1484 4856 
L 1984 4856 
z
" transform="scale(0.015625)"/>
       <path id="DejaVuSans-Oblique-3bc" d="M -84 -1331 
L 856 3500 
L 1434 3500 
L 1009 1322 
Q 997 1256 987 1175 
Q 978 1094 978 1013 
Q 978 722 1161 565 
Q 1344 409 1684 409 
Q 2147 409 2431 671 
Q 2716 934 2816 1459 
L 3213 3500 
L 3788 3500 
L 3266 809 
Q 3253 750 3248 706 
Q 3244 663 3244 628 
Q 3244 531 3283 486 
Q 3322 441 3406 441 
Q 3438 441 3492 456 
Q 3547 472 3647 513 
L 3559 50 
Q 3422 -19 3297 -55 
Q 3172 -91 3053 -91 
Q 2847 -91 2730 40 
Q 2613 172 2613 403 
Q 2438 153 2195 31 
Q 1953 -91 1625 -91 
Q 1334 -91 1117 43 
Q 900 178 831 397 
L 494 -1331 
L -84 -1331 
z
" transform="scale(0.015625)"/>
       <path id="DejaVuSans-Oblique-54" d="M 378 4666 
L 4325 4666 
L 4225 4134 
L 2559 4134 
L 1759 0 
L 1125 0 
L 1925 4134 
L 275 4134 
L 378 4666 
z
" transform="scale(0.015625)"/>
       <path id="DejaVuSans-29" d="M 513 4856 
L 1013 4856 
Q 1481 4119 1714 3412 
Q 1947 2706 1947 2009 
Q 1947 1309 1714 600 
Q 1481 -109 1013 -844 
L 513 -844 
Q 928 -128 1133 580 
Q 1338 1288 1338 2009 
Q 1338 2731 1133 3434 
Q 928 4138 513 4856 
z
" transform="scale(0.015625)"/>
       <path id="DejaVuSans-2f" d="M 1625 4666 
L 2156 4666 
L 531 -594 
L 0 -594 
L 1625 4666 
z
" transform="scale(0.015625)"/>
       <path id="DejaVuSans-Oblique-3c3" d="M 2219 3044 
Q 1744 3044 1422 2700 
Q 1081 2341 969 1747 
Q 844 1119 1044 756 
Q 1241 397 1706 397 
Q 2166 397 2503 759 
Q 2844 1122 2966 1747 
Q 3075 2319 2881 2700 
Q 2700 3044 2219 3044 
z
M 2309 3503 
L 4219 3500 
L 4106 2925 
L 3463 2925 
Q 3706 2438 3575 1747 
Q 3406 888 2884 400 
Q 2359 -91 1609 -91 
Q 856 -91 525 400 
Q 194 888 363 1747 
Q 528 2609 1050 3097 
Q 1484 3503 2309 3503 
z
" transform="scale(0.015625)"/>
       <path id="DejaVuSans-221a" d="M 3488 5191 
L 4078 5191 
L 4078 4891 
L 3719 4891 
L 1863 -128 
L 1656 -128 
L 659 2631 
L 269 2491 
L 191 2741 
L 1075 3047 
L 1875 831 
L 3488 5191 
z
" transform="scale(0.015625)"/>
       <path id="DejaVuSans-Oblique-6e" d="M 3566 2113 
L 3156 0 
L 2578 0 
L 2988 2091 
Q 3016 2238 3031 2350 
Q 3047 2463 3047 2528 
Q 3047 2791 2881 2937 
Q 2716 3084 2419 3084 
Q 1956 3084 1622 2776 
Q 1288 2469 1184 1941 
L 800 0 
L 225 0 
L 903 3500 
L 1478 3500 
L 1363 2950 
Q 1603 3253 1940 3418 
Q 2278 3584 2650 3584 
Q 3113 3584 3367 3334 
Q 3622 3084 3622 2631 
Q 3622 2519 3608 2391 
Q 3594 2263 3566 2113 
z
" transform="scale(0.015625)"/>
      </defs>
      <use xlink:href="#DejaVuSans-Oblique-7a" transform="translate(0 0.34375)"/>
      <use xlink:href="#DejaVuSans-3d" transform="translate(71.972656 0.34375)"/>
      <use xlink:href="#DejaVuSans-28" transform="translate(175.244141 0.34375)"/>
      <use xlink:href="#DejaVuSans-Oblique-3bc" transform="translate(214.257812 0.34375)"/>
      <use xlink:href="#DejaVuSans-2212" transform="translate(297.363281 0.34375)"/>
      <use xlink:href="#DejaVuSans-Oblique-54" transform="translate(400.634766 0.84375)"/>
      <use xlink:href="#DejaVuSans-29" transform="translate(461.71875 0.34375)"/>
      <use xlink:href="#DejaVuSans-2f" transform="translate(500.732422 0.34375)"/>
      <use xlink:href="#DejaVuSans-28" transform="translate(534.423828 0.34375)"/>
      <use xlink:href="#DejaVuSans-Oblique-3c3" transform="translate(573.4375 0.34375)"/>
      <use xlink:href="#DejaVuSans-221a" transform="translate(636.816406 0.34375)"/>
      <use xlink:href="#DejaVuSans-Oblique-6e" transform="translate(713.037109 0.203125)"/>
      <use xlink:href="#DejaVuSans-29" transform="translate(788.916016 0.34375)"/>
      <path d="M 400.634766 85.5 
L 400.634766 91.75 
L 461.71875 91.75 
L 461.71875 85.5 
L 400.634766 85.5 
z
"/>
      <path d="M 700.537109 74.953125 
L 700.537109 81.203125 
L 788.916016 81.203125 
L 788.916016 74.953125 
L 700.537109 74.953125 
z
"/>
     </g>
    </g>
   </g>
   <g id="matplotlib.axis_2">
    <g id="ytick_1">
     <g id="line2d_6">
      <defs>
       <path id="m62213a0e0e" d="M 0 0 
L -3.5 0 
" style="stroke: #000000; stroke-width: 0.8"/>
      </defs>
      <g>
       <use xlink:href="#m62213a0e0e" x="57.6" y="307.584" style="stroke: #000000; stroke-width: 0.8"/>
      </g>
     </g>
     <g id="text_7">
      <!-- 0.0 -->
      <g transform="translate(34.696875 311.383219)scale(0.1 -0.1)">
       <defs>
        <path id="DejaVuSans-2e" d="M 684 794 
L 1344 794 
L 1344 0 
L 684 0 
L 684 794 
z
" transform="scale(0.015625)"/>
       </defs>
       <use xlink:href="#DejaVuSans-30"/>
       <use xlink:href="#DejaVuSans-2e" x="63.623047"/>
       <use xlink:href="#DejaVuSans-30" x="95.410156"/>
      </g>
     </g>
    </g>
    <g id="ytick_2">
     <g id="line2d_7">
      <g>
       <use xlink:href="#m62213a0e0e" x="57.6" y="263.232" style="stroke: #000000; stroke-width: 0.8"/>
      </g>
     </g>
     <g id="text_8">
      <!-- 0.1 -->
      <g transform="translate(34.696875 267.031219)scale(0.1 -0.1)">
       <defs>
        <path id="DejaVuSans-31" d="M 794 531 
L 1825 531 
L 1825 4091 
L 703 3866 
L 703 4441 
L 1819 4666 
L 2450 4666 
L 2450 531 
L 3481 531 
L 3481 0 
L 794 0 
L 794 531 
z
" transform="scale(0.015625)"/>
       </defs>
       <use xlink:href="#DejaVuSans-30"/>
       <use xlink:href="#DejaVuSans-2e" x="63.623047"/>
       <use xlink:href="#DejaVuSans-31" x="95.410156"/>
      </g>
     </g>
    </g>
    <g id="ytick_3">
     <g id="line2d_8">
      <g>
       <use xlink:href="#m62213a0e0e" x="57.6" y="218.88" style="stroke: #000000; stroke-width: 0.8"/>
      </g>
     </g>
     <g id="text_9">
      <!-- 0.2 -->
      <g transform="translate(34.696875 222.679219)scale(0.1 -0.1)">
       <use xlink:href="#DejaVuSans-30"/>
       <use xlink:href="#DejaVuSans-2e" x="63.623047"/>
       <use xlink:href="#DejaVuSans-32" x="95.410156"/>
      </g>
     </g>
    </g>
    <g id="ytick_4">
     <g id="line2d_9">
      <g>
       <use xlink:href="#m62213a0e0e" x="57.6" y="174.528" style="stroke: #000000; stroke-width: 0.8"/>
      </g>
     </g>
     <g id="text_10">
      <!-- 0.3 -->
      <g transform="translate(34.696875 178.327219)scale(0.1 -0.1)">
       <defs>
        <path id="DejaVuSans-33" d="M 2597 2516 
Q 3050 2419 3304 2112 
Q 3559 1806 3559 1356 
Q 3559 666 3084 287 
Q 2609 -91 1734 -91 
Q 1441 -91 1130 -33 
Q 819 25 488 141 
L 488 750 
Q 750 597 1062 519 
Q 1375 441 1716 441 
Q 2309 441 2620 675 
Q 2931 909 2931 1356 
Q 2931 1769 2642 2001 
Q 2353 2234 1838 2234 
L 1294 2234 
L 1294 2753 
L 1863 2753 
Q 2328 2753 2575 2939 
Q 2822 3125 2822 3475 
Q 2822 3834 2567 4026 
Q 2313 4219 1838 4219 
Q 1578 4219 1281 4162 
Q 984 4106 628 3988 
L 628 4550 
Q 988 4650 1302 4700 
Q 1616 4750 1894 4750 
Q 2613 4750 3031 4423 
Q 3450 4097 3450 3541 
Q 3450 3153 3228 2886 
Q 3006 2619 2597 2516 
z
" transform="scale(0.015625)"/>
       </defs>
       <use xlink:href="#DejaVuSans-30"/>
       <use xlink:href="#DejaVuSans-2e" x="63.623047"/>
       <use xlink:href="#DejaVuSans-33" x="95.410156"/>
      </g>
     </g>
    </g>
    <g id="ytick_5">
     <g id="line2d_10">
      <g>
       <use xlink:href="#m62213a0e0e" x="57.6" y="130.176" style="stroke: #000000; stroke-width: 0.8"/>
      </g>
     </g>
     <g id="text_11">
      <!-- 0.4 -->
      <g transform="translate(34.696875 133.975219)scale(0.1 -0.1)">
       <use xlink:href="#DejaVuSans-30"/>
       <use xlink:href="#DejaVuSans-2e" x="63.623047"/>
       <use xlink:href="#DejaVuSans-34" x="95.410156"/>
      </g>
     </g>
    </g>
    <g id="ytick_6">
     <g id="line2d_11">
      <g>
       <use xlink:href="#m62213a0e0e" x="57.6" y="85.824" style="stroke: #000000; stroke-width: 0.8"/>
      </g>
     </g>
     <g id="text_12">
      <!-- 0.5 -->
      <g transform="translate(34.696875 89.623219)scale(0.1 -0.1)">
       <defs>
        <path id="DejaVuSans-35" d="M 691 4666 
L 3169 4666 
L 3169 4134 
L 1269 4134 
L 1269 2991 
Q 1406 3038 1543 3061 
Q 1681 3084 1819 3084 
Q 2600 3084 3056 2656 
Q 3513 2228 3513 1497 
Q 3513 744 3044 326 
Q 2575 -91 1722 -91 
Q 1428 -91 1123 -41 
Q 819 9 494 109 
L 494 744 
Q 775 591 1075 516 
Q 1375 441 1709 441 
Q 2250 441 2565 725 
Q 2881 1009 2881 1497 
Q 2881 1984 2565 2268 
Q 2250 2553 1709 2553 
Q 1456 2553 1204 2497 
Q 953 2441 691 2322 
L 691 4666 
z
" transform="scale(0.015625)"/>
       </defs>
       <use xlink:href="#DejaVuSans-30"/>
       <use xlink:href="#DejaVuSans-2e" x="63.623047"/>
       <use xlink:href="#DejaVuSans-35" x="95.410156"/>
      </g>
     </g>
    </g>
    <g id="ytick_7">
     <g id="line2d_12">
      <g>
       <use xlink:href="#m62213a0e0e" x="57.6" y="41.472" style="stroke: #000000; stroke-width: 0.8"/>
      </g>
     </g>
     <g id="text_13">
      <!-- 0.6 -->
      <g transform="translate(34.696875 45.271219)scale(0.1 -0.1)">
       <defs>
        <path id="DejaVuSans-36" d="M 2113 2584 
Q 1688 2584 1439 2293 
Q 1191 2003 1191 1497 
Q 1191 994 1439 701 
Q 1688 409 2113 409 
Q 2538 409 2786 701 
Q 3034 994 3034 1497 
Q 3034 2003 2786 2293 
Q 2538 2584 2113 2584 
z
M 3366 4563 
L 3366 3988 
Q 3128 4100 2886 4159 
Q 2644 4219 2406 4219 
Q 1781 4219 1451 3797 
Q 1122 3375 1075 2522 
Q 1259 2794 1537 2939 
Q 1816 3084 2150 3084 
Q 2853 3084 3261 2657 
Q 3669 2231 3669 1497 
Q 3669 778 3244 343 
Q 2819 -91 2113 -91 
Q 1303 -91 875 529 
Q 447 1150 447 2328 
Q 447 3434 972 4092 
Q 1497 4750 2381 4750 
Q 2619 4750 2861 4703 
Q 3103 4656 3366 4563 
z
" transform="scale(0.015625)"/>
       </defs>
       <use xlink:href="#DejaVuSans-30"/>
       <use xlink:href="#DejaVuSans-2e" x="63.623047"/>
       <use xlink:href="#DejaVuSans-36" x="95.410156"/>
      </g>
     </g>
    </g>
    <g id="text_14">
     <!-- pdf(z) -->
     <g transform="translate(28.617187 189.162375)rotate(-90)scale(0.1 -0.1)">
      <defs>
       <path id="DejaVuSans-70" d="M 1159 525 
L 1159 -1331 
L 581 -1331 
L 581 3500 
L 1159 3500 
L 1159 2969 
Q 1341 3281 1617 3432 
Q 1894 3584 2278 3584 
Q 2916 3584 3314 3078 
Q 3713 2572 3713 1747 
Q 3713 922 3314 415 
Q 2916 -91 2278 -91 
Q 1894 -91 1617 61 
Q 1341 213 1159 525 
z
M 3116 1747 
Q 3116 2381 2855 2742 
Q 2594 3103 2138 3103 
Q 1681 3103 1420 2742 
Q 1159 2381 1159 1747 
Q 1159 1113 1420 752 
Q 1681 391 2138 391 
Q 2594 391 2855 752 
Q 3116 1113 3116 1747 
z
" transform="scale(0.015625)"/>
       <path id="DejaVuSans-64" d="M 2906 2969 
L 2906 4863 
L 3481 4863 
L 3481 0 
L 2906 0 
L 2906 525 
Q 2725 213 2448 61 
Q 2172 -91 1784 -91 
Q 1150 -91 751 415 
Q 353 922 353 1747 
Q 353 2572 751 3078 
Q 1150 3584 1784 3584 
Q 2172 3584 2448 3432 
Q 2725 3281 2906 2969 
z
M 947 1747 
Q 947 1113 1208 752 
Q 1469 391 1925 391 
Q 2381 391 2643 752 
Q 2906 1113 2906 1747 
Q 2906 2381 2643 2742 
Q 2381 3103 1925 3103 
Q 1469 3103 1208 2742 
Q 947 2381 947 1747 
z
" transform="scale(0.015625)"/>
       <path id="DejaVuSans-66" d="M 2375 4863 
L 2375 4384 
L 1825 4384 
Q 1516 4384 1395 4259 
Q 1275 4134 1275 3809 
L 1275 3500 
L 2222 3500 
L 2222 3053 
L 1275 3053 
L 1275 0 
L 697 0 
L 697 3053 
L 147 3053 
L 147 3500 
L 697 3500 
L 697 3744 
Q 697 4328 969 4595 
Q 1241 4863 1831 4863 
L 2375 4863 
z
" transform="scale(0.015625)"/>
       <path id="DejaVuSans-7a" d="M 353 3500 
L 3084 3500 
L 3084 2975 
L 922 459 
L 3084 459 
L 3084 0 
L 275 0 
L 275 525 
L 2438 3041 
L 353 3041 
L 353 3500 
z
" transform="scale(0.015625)"/>
      </defs>
      <use xlink:href="#DejaVuSans-70"/>
      <use xlink:href="#DejaVuSans-64" x="63.476562"/>
      <use xlink:href="#DejaVuSans-66" x="126.953125"/>
      <use xlink:href="#DejaVuSans-28" x="162.158203"/>
      <use xlink:href="#DejaVuSans-7a" x="201.171875"/>
      <use xlink:href="#DejaVuSans-29" x="253.662109"/>
     </g>
    </g>
   </g>
   <g id="line2d_13">
    <path d="M 93.312 307.524644 
L 96.197818 307.502261 
L 99.083636 307.472172 
L 101.969455 307.432001 
L 104.855273 307.378746 
L 107.741091 307.308635 
L 110.626909 307.216981 
L 113.512727 307.098003 
L 116.398545 306.944645 
L 119.284364 306.748368 
L 122.170182 306.498945 
L 125.056 306.184244 
L 127.941818 305.790021 
L 130.827636 305.299735 
L 133.713455 304.694388 
L 136.599273 303.952411 
L 139.485091 303.04962 
L 142.370909 301.959249 
L 145.256727 300.652093 
L 148.142545 299.096765 
L 151.028364 297.2601 
L 153.914182 295.10771 
L 156.8 292.60471 
L 159.685818 289.716613 
L 162.571636 286.410388 
L 165.457455 282.655684 
L 168.343273 278.426183 
L 171.229091 273.701055 
L 174.114909 268.466474 
L 177.000727 262.717138 
L 179.886545 256.457733 
L 182.772364 249.704262 
L 185.658182 242.485182 
L 188.544 234.842252 
L 191.429818 226.831041 
L 194.315636 218.521017 
L 197.201455 209.99517 
L 200.087273 201.349136 
L 202.973091 192.689802 
L 205.858909 184.133398 
L 208.744727 175.803119 
L 211.630545 167.82632 
L 214.516364 160.331377 
L 217.402182 153.444312 
L 220.288 147.285303 
L 223.173818 141.965217 
L 226.059636 137.582299 
L 228.945455 134.219159 
L 231.831273 131.940184 
L 234.717091 130.789486 
L 237.602909 130.789486 
L 240.488727 131.940184 
L 243.374545 134.219159 
L 246.260364 137.582299 
L 249.146182 141.965217 
L 252.032 147.285303 
L 254.917818 153.444312 
L 257.803636 160.331377 
L 260.689455 167.82632 
L 263.575273 175.803119 
L 266.461091 184.133398 
L 269.346909 192.689802 
L 272.232727 201.349136 
L 275.118545 209.99517 
L 278.004364 218.521017 
L 280.890182 226.831041 
L 283.776 234.842252 
L 286.661818 242.485182 
L 289.547636 249.704262 
L 292.433455 256.457733 
L 295.319273 262.717138 
L 298.205091 268.466474 
L 301.090909 273.701055 
L 303.976727 278.426183 
L 306.862545 282.655684 
L 309.748364 286.410388 
L 312.634182 289.716613 
L 315.52 292.60471 
L 318.405818 295.10771 
L 321.291636 297.2601 
L 324.177455 299.096765 
L 327.063273 300.652093 
L 329.949091 301.959249 
L 332.834909 303.04962 
L 335.720727 303.952411 
L 338.606545 304.694388 
L 341.492364 305.299735 
L 344.378182 305.790021 
L 347.264 306.184244 
L 350.149818 306.498945 
L 353.035636 306.748368 
L 355.921455 306.944645 
L 358.807273 307.098003 
L 361.693091 307.216981 
L 364.578909 307.308635 
L 367.464727 307.378746 
L 370.350545 307.432001 
L 373.236364 307.472172 
L 376.122182 307.502261 
L 379.008 307.524644 
" clip-path="url(#p71d5d4a80b)" style="fill: none; stroke: #000000; stroke-width: 1.5; stroke-linecap: square"/>
   </g>
   <g id="line2d_14">
    <path d="M 144.02304 305.3664 
L 328.29696 305.3664 
" clip-path="url(#p71d5d4a80b)" style="fill: none; stroke: #ff0000; stroke-width: 2; stroke-linecap: square"/>
   </g>
   <g id="patch_102">
    <path d="M 57.6 307.584 
L 57.6 41.472 
" style="fill: none; stroke: #000000; stroke-width: 0.8; stroke-linejoin: miter; stroke-linecap: square"/>
   </g>
   <g id="patch_103">
    <path d="M 414.72 307.584 
L 414.72 41.472 
" style="fill: none; stroke: #000000; stroke-width: 0.8; stroke-linejoin: miter; stroke-linecap: square"/>
   </g>
   <g id="patch_104">
    <path d="M 57.6 307.584 
L 414.72 307.584 
" style="fill: none; stroke: #000000; stroke-width: 0.8; stroke-linejoin: miter; stroke-linecap: square"/>
   </g>
   <g id="patch_105">
    <path d="M 57.6 41.472 
L 414.72 41.472 
" style="fill: none; stroke: #000000; stroke-width: 0.8; stroke-linejoin: miter; stroke-linecap: square"/>
   </g>
   <g id="legend_1">
    <g id="patch_106">
     <path d="M 190.693437 95.72825 
L 407.72 95.72825 
Q 409.72 95.72825 409.72 93.72825 
L 409.72 48.472 
Q 409.72 46.472 407.72 46.472 
L 190.693437 46.472 
Q 188.693437 46.472 188.693437 48.472 
L 188.693437 93.72825 
Q 188.693437 95.72825 190.693437 95.72825 
z
" style="fill: #ffffff; opacity: 0.8; stroke: #cccccc; stroke-linejoin: miter"/>
    </g>
    <g id="line2d_15">
     <path d="M 192.693437 54.570438 
L 202.693437 54.570438 
L 212.693437 54.570438 
" style="fill: none; stroke: #000000; stroke-width: 1.5; stroke-linecap: square"/>
    </g>
    <g id="text_15">
     <!-- Sampling distribution (exact) -->
     <g transform="translate(220.693437 58.070438)scale(0.1 -0.1)">
      <defs>
       <path id="DejaVuSans-53" d="M 3425 4513 
L 3425 3897 
Q 3066 4069 2747 4153 
Q 2428 4238 2131 4238 
Q 1616 4238 1336 4038 
Q 1056 3838 1056 3469 
Q 1056 3159 1242 3001 
Q 1428 2844 1947 2747 
L 2328 2669 
Q 3034 2534 3370 2195 
Q 3706 1856 3706 1288 
Q 3706 609 3251 259 
Q 2797 -91 1919 -91 
Q 1588 -91 1214 -16 
Q 841 59 441 206 
L 441 856 
Q 825 641 1194 531 
Q 1563 422 1919 422 
Q 2459 422 2753 634 
Q 3047 847 3047 1241 
Q 3047 1584 2836 1778 
Q 2625 1972 2144 2069 
L 1759 2144 
Q 1053 2284 737 2584 
Q 422 2884 422 3419 
Q 422 4038 858 4394 
Q 1294 4750 2059 4750 
Q 2388 4750 2728 4690 
Q 3069 4631 3425 4513 
z
" transform="scale(0.015625)"/>
       <path id="DejaVuSans-61" d="M 2194 1759 
Q 1497 1759 1228 1600 
Q 959 1441 959 1056 
Q 959 750 1161 570 
Q 1363 391 1709 391 
Q 2188 391 2477 730 
Q 2766 1069 2766 1631 
L 2766 1759 
L 2194 1759 
z
M 3341 1997 
L 3341 0 
L 2766 0 
L 2766 531 
Q 2569 213 2275 61 
Q 1981 -91 1556 -91 
Q 1019 -91 701 211 
Q 384 513 384 1019 
Q 384 1609 779 1909 
Q 1175 2209 1959 2209 
L 2766 2209 
L 2766 2266 
Q 2766 2663 2505 2880 
Q 2244 3097 1772 3097 
Q 1472 3097 1187 3025 
Q 903 2953 641 2809 
L 641 3341 
Q 956 3463 1253 3523 
Q 1550 3584 1831 3584 
Q 2591 3584 2966 3190 
Q 3341 2797 3341 1997 
z
" transform="scale(0.015625)"/>
       <path id="DejaVuSans-6d" d="M 3328 2828 
Q 3544 3216 3844 3400 
Q 4144 3584 4550 3584 
Q 5097 3584 5394 3201 
Q 5691 2819 5691 2113 
L 5691 0 
L 5113 0 
L 5113 2094 
Q 5113 2597 4934 2840 
Q 4756 3084 4391 3084 
Q 3944 3084 3684 2787 
Q 3425 2491 3425 1978 
L 3425 0 
L 2847 0 
L 2847 2094 
Q 2847 2600 2669 2842 
Q 2491 3084 2119 3084 
Q 1678 3084 1418 2786 
Q 1159 2488 1159 1978 
L 1159 0 
L 581 0 
L 581 3500 
L 1159 3500 
L 1159 2956 
Q 1356 3278 1631 3431 
Q 1906 3584 2284 3584 
Q 2666 3584 2933 3390 
Q 3200 3197 3328 2828 
z
" transform="scale(0.015625)"/>
       <path id="DejaVuSans-6c" d="M 603 4863 
L 1178 4863 
L 1178 0 
L 603 0 
L 603 4863 
z
" transform="scale(0.015625)"/>
       <path id="DejaVuSans-69" d="M 603 3500 
L 1178 3500 
L 1178 0 
L 603 0 
L 603 3500 
z
M 603 4863 
L 1178 4863 
L 1178 4134 
L 603 4134 
L 603 4863 
z
" transform="scale(0.015625)"/>
       <path id="DejaVuSans-6e" d="M 3513 2113 
L 3513 0 
L 2938 0 
L 2938 2094 
Q 2938 2591 2744 2837 
Q 2550 3084 2163 3084 
Q 1697 3084 1428 2787 
Q 1159 2491 1159 1978 
L 1159 0 
L 581 0 
L 581 3500 
L 1159 3500 
L 1159 2956 
Q 1366 3272 1645 3428 
Q 1925 3584 2291 3584 
Q 2894 3584 3203 3211 
Q 3513 2838 3513 2113 
z
" transform="scale(0.015625)"/>
       <path id="DejaVuSans-67" d="M 2906 1791 
Q 2906 2416 2648 2759 
Q 2391 3103 1925 3103 
Q 1463 3103 1205 2759 
Q 947 2416 947 1791 
Q 947 1169 1205 825 
Q 1463 481 1925 481 
Q 2391 481 2648 825 
Q 2906 1169 2906 1791 
z
M 3481 434 
Q 3481 -459 3084 -895 
Q 2688 -1331 1869 -1331 
Q 1566 -1331 1297 -1286 
Q 1028 -1241 775 -1147 
L 775 -588 
Q 1028 -725 1275 -790 
Q 1522 -856 1778 -856 
Q 2344 -856 2625 -561 
Q 2906 -266 2906 331 
L 2906 616 
Q 2728 306 2450 153 
Q 2172 0 1784 0 
Q 1141 0 747 490 
Q 353 981 353 1791 
Q 353 2603 747 3093 
Q 1141 3584 1784 3584 
Q 2172 3584 2450 3431 
Q 2728 3278 2906 2969 
L 2906 3500 
L 3481 3500 
L 3481 434 
z
" transform="scale(0.015625)"/>
       <path id="DejaVuSans-20" transform="scale(0.015625)"/>
       <path id="DejaVuSans-73" d="M 2834 3397 
L 2834 2853 
Q 2591 2978 2328 3040 
Q 2066 3103 1784 3103 
Q 1356 3103 1142 2972 
Q 928 2841 928 2578 
Q 928 2378 1081 2264 
Q 1234 2150 1697 2047 
L 1894 2003 
Q 2506 1872 2764 1633 
Q 3022 1394 3022 966 
Q 3022 478 2636 193 
Q 2250 -91 1575 -91 
Q 1294 -91 989 -36 
Q 684 19 347 128 
L 347 722 
Q 666 556 975 473 
Q 1284 391 1588 391 
Q 1994 391 2212 530 
Q 2431 669 2431 922 
Q 2431 1156 2273 1281 
Q 2116 1406 1581 1522 
L 1381 1569 
Q 847 1681 609 1914 
Q 372 2147 372 2553 
Q 372 3047 722 3315 
Q 1072 3584 1716 3584 
Q 2034 3584 2315 3537 
Q 2597 3491 2834 3397 
z
" transform="scale(0.015625)"/>
       <path id="DejaVuSans-74" d="M 1172 4494 
L 1172 3500 
L 2356 3500 
L 2356 3053 
L 1172 3053 
L 1172 1153 
Q 1172 725 1289 603 
Q 1406 481 1766 481 
L 2356 481 
L 2356 0 
L 1766 0 
Q 1100 0 847 248 
Q 594 497 594 1153 
L 594 3053 
L 172 3053 
L 172 3500 
L 594 3500 
L 594 4494 
L 1172 4494 
z
" transform="scale(0.015625)"/>
       <path id="DejaVuSans-72" d="M 2631 2963 
Q 2534 3019 2420 3045 
Q 2306 3072 2169 3072 
Q 1681 3072 1420 2755 
Q 1159 2438 1159 1844 
L 1159 0 
L 581 0 
L 581 3500 
L 1159 3500 
L 1159 2956 
Q 1341 3275 1631 3429 
Q 1922 3584 2338 3584 
Q 2397 3584 2469 3576 
Q 2541 3569 2628 3553 
L 2631 2963 
z
" transform="scale(0.015625)"/>
       <path id="DejaVuSans-62" d="M 3116 1747 
Q 3116 2381 2855 2742 
Q 2594 3103 2138 3103 
Q 1681 3103 1420 2742 
Q 1159 2381 1159 1747 
Q 1159 1113 1420 752 
Q 1681 391 2138 391 
Q 2594 391 2855 752 
Q 3116 1113 3116 1747 
z
M 1159 2969 
Q 1341 3281 1617 3432 
Q 1894 3584 2278 3584 
Q 2916 3584 3314 3078 
Q 3713 2572 3713 1747 
Q 3713 922 3314 415 
Q 2916 -91 2278 -91 
Q 1894 -91 1617 61 
Q 1341 213 1159 525 
L 1159 0 
L 581 0 
L 581 4863 
L 1159 4863 
L 1159 2969 
z
" transform="scale(0.015625)"/>
       <path id="DejaVuSans-75" d="M 544 1381 
L 544 3500 
L 1119 3500 
L 1119 1403 
Q 1119 906 1312 657 
Q 1506 409 1894 409 
Q 2359 409 2629 706 
Q 2900 1003 2900 1516 
L 2900 3500 
L 3475 3500 
L 3475 0 
L 2900 0 
L 2900 538 
Q 2691 219 2414 64 
Q 2138 -91 1772 -91 
Q 1169 -91 856 284 
Q 544 659 544 1381 
z
M 1991 3584 
L 1991 3584 
z
" transform="scale(0.015625)"/>
       <path id="DejaVuSans-6f" d="M 1959 3097 
Q 1497 3097 1228 2736 
Q 959 2375 959 1747 
Q 959 1119 1226 758 
Q 1494 397 1959 397 
Q 2419 397 2687 759 
Q 2956 1122 2956 1747 
Q 2956 2369 2687 2733 
Q 2419 3097 1959 3097 
z
M 1959 3584 
Q 2709 3584 3137 3096 
Q 3566 2609 3566 1747 
Q 3566 888 3137 398 
Q 2709 -91 1959 -91 
Q 1206 -91 779 398 
Q 353 888 353 1747 
Q 353 2609 779 3096 
Q 1206 3584 1959 3584 
z
" transform="scale(0.015625)"/>
       <path id="DejaVuSans-65" d="M 3597 1894 
L 3597 1613 
L 953 1613 
Q 991 1019 1311 708 
Q 1631 397 2203 397 
Q 2534 397 2845 478 
Q 3156 559 3463 722 
L 3463 178 
Q 3153 47 2828 -22 
Q 2503 -91 2169 -91 
Q 1331 -91 842 396 
Q 353 884 353 1716 
Q 353 2575 817 3079 
Q 1281 3584 2069 3584 
Q 2775 3584 3186 3129 
Q 3597 2675 3597 1894 
z
M 3022 2063 
Q 3016 2534 2758 2815 
Q 2500 3097 2075 3097 
Q 1594 3097 1305 2825 
Q 1016 2553 972 2059 
L 3022 2063 
z
" transform="scale(0.015625)"/>
       <path id="DejaVuSans-78" d="M 3513 3500 
L 2247 1797 
L 3578 0 
L 2900 0 
L 1881 1375 
L 863 0 
L 184 0 
L 1544 1831 
L 300 3500 
L 978 3500 
L 1906 2253 
L 2834 3500 
L 3513 3500 
z
" transform="scale(0.015625)"/>
       <path id="DejaVuSans-63" d="M 3122 3366 
L 3122 2828 
Q 2878 2963 2633 3030 
Q 2388 3097 2138 3097 
Q 1578 3097 1268 2742 
Q 959 2388 959 1747 
Q 959 1106 1268 751 
Q 1578 397 2138 397 
Q 2388 397 2633 464 
Q 2878 531 3122 666 
L 3122 134 
Q 2881 22 2623 -34 
Q 2366 -91 2075 -91 
Q 1284 -91 818 406 
Q 353 903 353 1747 
Q 353 2603 823 3093 
Q 1294 3584 2113 3584 
Q 2378 3584 2631 3529 
Q 2884 3475 3122 3366 
z
" transform="scale(0.015625)"/>
      </defs>
      <use xlink:href="#DejaVuSans-53"/>
      <use xlink:href="#DejaVuSans-61" x="63.476562"/>
      <use xlink:href="#DejaVuSans-6d" x="124.755859"/>
      <use xlink:href="#DejaVuSans-70" x="222.167969"/>
      <use xlink:href="#DejaVuSans-6c" x="285.644531"/>
      <use xlink:href="#DejaVuSans-69" x="313.427734"/>
      <use xlink:href="#DejaVuSans-6e" x="341.210938"/>
      <use xlink:href="#DejaVuSans-67" x="404.589844"/>
      <use xlink:href="#DejaVuSans-20" x="468.066406"/>
      <use xlink:href="#DejaVuSans-64" x="499.853516"/>
      <use xlink:href="#DejaVuSans-69" x="563.330078"/>
      <use xlink:href="#DejaVuSans-73" x="591.113281"/>
      <use xlink:href="#DejaVuSans-74" x="643.212891"/>
      <use xlink:href="#DejaVuSans-72" x="682.421875"/>
      <use xlink:href="#DejaVuSans-69" x="723.535156"/>
      <use xlink:href="#DejaVuSans-62" x="751.318359"/>
      <use xlink:href="#DejaVuSans-75" x="814.794922"/>
      <use xlink:href="#DejaVuSans-74" x="878.173828"/>
      <use xlink:href="#DejaVuSans-69" x="917.382812"/>
      <use xlink:href="#DejaVuSans-6f" x="945.166016"/>
      <use xlink:href="#DejaVuSans-6e" x="1006.347656"/>
      <use xlink:href="#DejaVuSans-20" x="1069.726562"/>
      <use xlink:href="#DejaVuSans-28" x="1101.513672"/>
      <use xlink:href="#DejaVuSans-65" x="1140.527344"/>
      <use xlink:href="#DejaVuSans-78" x="1200.300781"/>
      <use xlink:href="#DejaVuSans-61" x="1259.480469"/>
      <use xlink:href="#DejaVuSans-63" x="1320.759766"/>
      <use xlink:href="#DejaVuSans-74" x="1375.740234"/>
      <use xlink:href="#DejaVuSans-29" x="1414.949219"/>
     </g>
    </g>
    <g id="patch_107">
     <path d="M 192.693437 72.748563 
L 212.693437 72.748563 
L 212.693437 65.748563 
L 192.693437 65.748563 
z
" style="fill: #1f77b4; opacity: 0.5"/>
    </g>
    <g id="text_16">
     <!-- Sampling distribution (bootstrapped) -->
     <g transform="translate(220.693437 72.748563)scale(0.1 -0.1)">
      <use xlink:href="#DejaVuSans-53"/>
      <use xlink:href="#DejaVuSans-61" x="63.476562"/>
      <use xlink:href="#DejaVuSans-6d" x="124.755859"/>
      <use xlink:href="#DejaVuSans-70" x="222.167969"/>
      <use xlink:href="#DejaVuSans-6c" x="285.644531"/>
      <use xlink:href="#DejaVuSans-69" x="313.427734"/>
      <use xlink:href="#DejaVuSans-6e" x="341.210938"/>
      <use xlink:href="#DejaVuSans-67" x="404.589844"/>
      <use xlink:href="#DejaVuSans-20" x="468.066406"/>
      <use xlink:href="#DejaVuSans-64" x="499.853516"/>
      <use xlink:href="#DejaVuSans-69" x="563.330078"/>
      <use xlink:href="#DejaVuSans-73" x="591.113281"/>
      <use xlink:href="#DejaVuSans-74" x="643.212891"/>
      <use xlink:href="#DejaVuSans-72" x="682.421875"/>
      <use xlink:href="#DejaVuSans-69" x="723.535156"/>
      <use xlink:href="#DejaVuSans-62" x="751.318359"/>
      <use xlink:href="#DejaVuSans-75" x="814.794922"/>
      <use xlink:href="#DejaVuSans-74" x="878.173828"/>
      <use xlink:href="#DejaVuSans-69" x="917.382812"/>
      <use xlink:href="#DejaVuSans-6f" x="945.166016"/>
      <use xlink:href="#DejaVuSans-6e" x="1006.347656"/>
      <use xlink:href="#DejaVuSans-20" x="1069.726562"/>
      <use xlink:href="#DejaVuSans-28" x="1101.513672"/>
      <use xlink:href="#DejaVuSans-62" x="1140.527344"/>
      <use xlink:href="#DejaVuSans-6f" x="1204.003906"/>
      <use xlink:href="#DejaVuSans-6f" x="1265.185547"/>
      <use xlink:href="#DejaVuSans-74" x="1326.367188"/>
      <use xlink:href="#DejaVuSans-73" x="1365.576172"/>
      <use xlink:href="#DejaVuSans-74" x="1417.675781"/>
      <use xlink:href="#DejaVuSans-72" x="1456.884766"/>
      <use xlink:href="#DejaVuSans-61" x="1497.998047"/>
      <use xlink:href="#DejaVuSans-70" x="1559.277344"/>
      <use xlink:href="#DejaVuSans-70" x="1622.753906"/>
      <use xlink:href="#DejaVuSans-65" x="1686.230469"/>
      <use xlink:href="#DejaVuSans-64" x="1747.753906"/>
      <use xlink:href="#DejaVuSans-29" x="1811.230469"/>
     </g>
    </g>
    <g id="line2d_16">
     <path d="M 192.693437 86.12825 
L 202.693437 86.12825 
L 212.693437 86.12825 
" style="fill: none; stroke: #ff0000; stroke-width: 2; stroke-linecap: square"/>
    </g>
    <g id="text_17">
     <!-- Do not reject null if $\overline{T}$ in this range -->
     <g transform="translate(220.693437 89.62825)scale(0.1 -0.1)">
      <defs>
       <path id="DejaVuSans-44" d="M 1259 4147 
L 1259 519 
L 2022 519 
Q 2988 519 3436 956 
Q 3884 1394 3884 2338 
Q 3884 3275 3436 3711 
Q 2988 4147 2022 4147 
L 1259 4147 
z
M 628 4666 
L 1925 4666 
Q 3281 4666 3915 4102 
Q 4550 3538 4550 2338 
Q 4550 1131 3912 565 
Q 3275 0 1925 0 
L 628 0 
L 628 4666 
z
" transform="scale(0.015625)"/>
       <path id="DejaVuSans-6a" d="M 603 3500 
L 1178 3500 
L 1178 -63 
Q 1178 -731 923 -1031 
Q 669 -1331 103 -1331 
L -116 -1331 
L -116 -844 
L 38 -844 
Q 366 -844 484 -692 
Q 603 -541 603 -63 
L 603 3500 
z
M 603 4863 
L 1178 4863 
L 1178 4134 
L 603 4134 
L 603 4863 
z
" transform="scale(0.015625)"/>
       <path id="DejaVuSans-68" d="M 3513 2113 
L 3513 0 
L 2938 0 
L 2938 2094 
Q 2938 2591 2744 2837 
Q 2550 3084 2163 3084 
Q 1697 3084 1428 2787 
Q 1159 2491 1159 1978 
L 1159 0 
L 581 0 
L 581 4863 
L 1159 4863 
L 1159 2956 
Q 1366 3272 1645 3428 
Q 1925 3584 2291 3584 
Q 2894 3584 3203 3211 
Q 3513 2838 3513 2113 
z
" transform="scale(0.015625)"/>
      </defs>
      <use xlink:href="#DejaVuSans-44" transform="translate(0 0.34375)"/>
      <use xlink:href="#DejaVuSans-6f" transform="translate(77.001953 0.34375)"/>
      <use xlink:href="#DejaVuSans-20" transform="translate(138.183594 0.34375)"/>
      <use xlink:href="#DejaVuSans-6e" transform="translate(169.970703 0.34375)"/>
      <use xlink:href="#DejaVuSans-6f" transform="translate(233.349609 0.34375)"/>
      <use xlink:href="#DejaVuSans-74" transform="translate(294.53125 0.34375)"/>
      <use xlink:href="#DejaVuSans-20" transform="translate(333.740234 0.34375)"/>
      <use xlink:href="#DejaVuSans-72" transform="translate(365.527344 0.34375)"/>
      <use xlink:href="#DejaVuSans-65" transform="translate(406.640625 0.34375)"/>
      <use xlink:href="#DejaVuSans-6a" transform="translate(468.164062 0.34375)"/>
      <use xlink:href="#DejaVuSans-65" transform="translate(495.947266 0.34375)"/>
      <use xlink:href="#DejaVuSans-63" transform="translate(557.470703 0.34375)"/>
      <use xlink:href="#DejaVuSans-74" transform="translate(612.451172 0.34375)"/>
      <use xlink:href="#DejaVuSans-20" transform="translate(651.660156 0.34375)"/>
      <use xlink:href="#DejaVuSans-6e" transform="translate(683.447266 0.34375)"/>
      <use xlink:href="#DejaVuSans-75" transform="translate(746.826172 0.34375)"/>
      <use xlink:href="#DejaVuSans-6c" transform="translate(810.205078 0.34375)"/>
      <use xlink:href="#DejaVuSans-6c" transform="translate(837.988281 0.34375)"/>
      <use xlink:href="#DejaVuSans-20" transform="translate(865.771484 0.34375)"/>
      <use xlink:href="#DejaVuSans-69" transform="translate(897.558594 0.34375)"/>
      <use xlink:href="#DejaVuSans-66" transform="translate(925.341797 0.34375)"/>
      <use xlink:href="#DejaVuSans-20" transform="translate(960.546875 0.34375)"/>
      <use xlink:href="#DejaVuSans-Oblique-54" transform="translate(992.333984 0.84375)"/>
      <use xlink:href="#DejaVuSans-20" transform="translate(1053.417969 0.34375)"/>
      <use xlink:href="#DejaVuSans-69" transform="translate(1085.205078 0.34375)"/>
      <use xlink:href="#DejaVuSans-6e" transform="translate(1112.988281 0.34375)"/>
      <use xlink:href="#DejaVuSans-20" transform="translate(1176.367188 0.34375)"/>
      <use xlink:href="#DejaVuSans-74" transform="translate(1208.154297 0.34375)"/>
      <use xlink:href="#DejaVuSans-68" transform="translate(1247.363281 0.34375)"/>
      <use xlink:href="#DejaVuSans-69" transform="translate(1310.742188 0.34375)"/>
      <use xlink:href="#DejaVuSans-73" transform="translate(1338.525391 0.34375)"/>
      <use xlink:href="#DejaVuSans-20" transform="translate(1390.625 0.34375)"/>
      <use xlink:href="#DejaVuSans-72" transform="translate(1422.412109 0.34375)"/>
      <use xlink:href="#DejaVuSans-61" transform="translate(1463.525391 0.34375)"/>
      <use xlink:href="#DejaVuSans-6e" transform="translate(1524.804688 0.34375)"/>
      <use xlink:href="#DejaVuSans-67" transform="translate(1588.183594 0.34375)"/>
      <use xlink:href="#DejaVuSans-65" transform="translate(1651.660156 0.34375)"/>
      <path d="M 992.333984 85.5 
L 992.333984 91.75 
L 1053.417969 91.75 
L 1053.417969 85.5 
L 992.333984 85.5 
z
"/>
     </g>
    </g>
   </g>
  </g>
 </g>
 <defs>
  <clipPath id="p71d5d4a80b">
   <rect x="57.6" y="41.472" width="357.12" height="266.112"/>
  </clipPath>
 </defs>
</svg>
