<?xml version="1.0" encoding="utf-8" standalone="no"?>
<!DOCTYPE svg PUBLIC "-//W3C//DTD SVG 1.1//EN"
  "http://www.w3.org/Graphics/SVG/1.1/DTD/svg11.dtd">
<svg xmlns:xlink="http://www.w3.org/1999/xlink" width="460.8pt" height="345.6pt" viewBox="0 0 460.8 345.6" xmlns="http://www.w3.org/2000/svg" version="1.1">
 <metadata>
  <rdf:RDF xmlns:dc="http://purl.org/dc/elements/1.1/" xmlns:cc="http://creativecommons.org/ns#" xmlns:rdf="http://www.w3.org/1999/02/22-rdf-syntax-ns#">
   <cc:Work>
    <dc:type rdf:resource="http://purl.org/dc/dcmitype/StillImage"/>
    <dc:date>2023-04-05T12:30:44.500699</dc:date>
    <dc:format>image/svg+xml</dc:format>
    <dc:creator>
     <cc:Agent>
      <dc:title>Matplotlib v3.5.2, https://matplotlib.org/</dc:title>
     </cc:Agent>
    </dc:creator>
   </cc:Work>
  </rdf:RDF>
 </metadata>
 <defs>
  <style type="text/css">*{stroke-linejoin: round; stroke-linecap: butt}</style>
 </defs>
 <g id="figure_1">
  <g id="patch_1">
   <path d="M 0 345.6 
L 460.8 345.6 
L 460.8 0 
L 0 0 
L 0 345.6 
z
" style="fill: none"/>
  </g>
  <g id="axes_1">
   <g id="patch_2">
    <path d="M 57.6 307.584 
L 414.72 307.584 
L 414.72 41.472 
L 57.6 41.472 
L 57.6 307.584 
z
" style="fill: none"/>
   </g>
   <g id="patch_3">
    <path d="M 57.6 307.584 
L 61.207273 307.584 
L 61.207273 307.584 
L 57.6 307.584 
z
" clip-path="url(#p853148be5d)" style="fill: #00ff00; opacity: 0.5"/>
   </g>
   <g id="patch_4">
    <path d="M 61.207273 307.584 
L 64.814545 307.584 
L 64.814545 307.584 
L 61.207273 307.584 
z
" clip-path="url(#p853148be5d)" style="fill: #00ff00; opacity: 0.5"/>
   </g>
   <g id="patch_5">
    <path d="M 64.814545 307.584 
L 68.421818 307.584 
L 68.421818 307.584 
L 64.814545 307.584 
z
" clip-path="url(#p853148be5d)" style="fill: #00ff00; opacity: 0.5"/>
   </g>
   <g id="patch_6">
    <path d="M 68.421818 307.584 
L 72.029091 307.584 
L 72.029091 307.584 
L 68.421818 307.584 
z
" clip-path="url(#p853148be5d)" style="fill: #00ff00; opacity: 0.5"/>
   </g>
   <g id="patch_7">
    <path d="M 72.029091 307.584 
L 75.636364 307.584 
L 75.636364 307.584 
L 72.029091 307.584 
z
" clip-path="url(#p853148be5d)" style="fill: #00ff00; opacity: 0.5"/>
   </g>
   <g id="patch_8">
    <path d="M 75.636364 307.584 
L 79.243636 307.584 
L 79.243636 307.584 
L 75.636364 307.584 
z
" clip-path="url(#p853148be5d)" style="fill: #00ff00; opacity: 0.5"/>
   </g>
   <g id="patch_9">
    <path d="M 79.243636 307.584 
L 82.850909 307.584 
L 82.850909 307.584 
L 79.243636 307.584 
z
" clip-path="url(#p853148be5d)" style="fill: #00ff00; opacity: 0.5"/>
   </g>
   <g id="patch_10">
    <path d="M 82.850909 307.584 
L 86.458182 307.584 
L 86.458182 307.584 
L 82.850909 307.584 
z
" clip-path="url(#p853148be5d)" style="fill: #00ff00; opacity: 0.5"/>
   </g>
   <g id="patch_11">
    <path d="M 86.458182 307.584 
L 90.065455 307.584 
L 90.065455 307.584 
L 86.458182 307.584 
z
" clip-path="url(#p853148be5d)" style="fill: #00ff00; opacity: 0.5"/>
   </g>
   <g id="patch_12">
    <path d="M 90.065455 307.584 
L 93.672727 307.584 
L 93.672727 307.584 
L 90.065455 307.584 
z
" clip-path="url(#p853148be5d)" style="fill: #00ff00; opacity: 0.5"/>
   </g>
   <g id="patch_13">
    <path d="M 93.672727 307.584 
L 97.28 307.584 
L 97.28 307.584 
L 93.672727 307.584 
z
" clip-path="url(#p853148be5d)" style="fill: #00ff00; opacity: 0.5"/>
   </g>
   <g id="patch_14">
    <path d="M 97.28 307.584 
L 100.887273 307.584 
L 100.887273 307.584 
L 97.28 307.584 
z
" clip-path="url(#p853148be5d)" style="fill: #00ff00; opacity: 0.5"/>
   </g>
   <g id="patch_15">
    <path d="M 100.887273 307.584 
L 104.494545 307.584 
L 104.494545 307.584 
L 100.887273 307.584 
z
" clip-path="url(#p853148be5d)" style="fill: #00ff00; opacity: 0.5"/>
   </g>
   <g id="patch_16">
    <path d="M 104.494545 307.584 
L 108.101818 307.584 
L 108.101818 307.584 
L 104.494545 307.584 
z
" clip-path="url(#p853148be5d)" style="fill: #00ff00; opacity: 0.5"/>
   </g>
   <g id="patch_17">
    <path d="M 108.101818 307.584 
L 111.709091 307.584 
L 111.709091 307.584 
L 108.101818 307.584 
z
" clip-path="url(#p853148be5d)" style="fill: #00ff00; opacity: 0.5"/>
   </g>
   <g id="patch_18">
    <path d="M 111.709091 307.584 
L 115.316364 307.584 
L 115.316364 307.584 
L 111.709091 307.584 
z
" clip-path="url(#p853148be5d)" style="fill: #00ff00; opacity: 0.5"/>
   </g>
   <g id="patch_19">
    <path d="M 115.316364 307.584 
L 118.923636 307.584 
L 118.923636 307.584 
L 115.316364 307.584 
z
" clip-path="url(#p853148be5d)" style="fill: #00ff00; opacity: 0.5"/>
   </g>
   <g id="patch_20">
    <path d="M 118.923636 307.584 
L 122.530909 307.584 
L 122.530909 307.584 
L 118.923636 307.584 
z
" clip-path="url(#p853148be5d)" style="fill: #00ff00; opacity: 0.5"/>
   </g>
   <g id="patch_21">
    <path d="M 122.530909 307.584 
L 126.138182 307.584 
L 126.138182 307.584 
L 122.530909 307.584 
z
" clip-path="url(#p853148be5d)" style="fill: #00ff00; opacity: 0.5"/>
   </g>
   <g id="patch_22">
    <path d="M 126.138182 307.584 
L 129.745455 307.584 
L 129.745455 307.584 
L 126.138182 307.584 
z
" clip-path="url(#p853148be5d)" style="fill: #00ff00; opacity: 0.5"/>
   </g>
   <g id="patch_23">
    <path d="M 129.745455 307.584 
L 133.352727 307.584 
L 133.352727 307.584 
L 129.745455 307.584 
z
" clip-path="url(#p853148be5d)" style="fill: #00ff00; opacity: 0.5"/>
   </g>
   <g id="patch_24">
    <path d="M 133.352727 307.584 
L 136.96 307.584 
L 136.96 307.584 
L 133.352727 307.584 
z
" clip-path="url(#p853148be5d)" style="fill: #00ff00; opacity: 0.5"/>
   </g>
   <g id="patch_25">
    <path d="M 136.96 307.584 
L 140.567273 307.584 
L 140.567273 307.584 
L 136.96 307.584 
z
" clip-path="url(#p853148be5d)" style="fill: #00ff00; opacity: 0.5"/>
   </g>
   <g id="patch_26">
    <path d="M 140.567273 307.584 
L 144.174545 307.584 
L 144.174545 307.584 
L 140.567273 307.584 
z
" clip-path="url(#p853148be5d)" style="fill: #00ff00; opacity: 0.5"/>
   </g>
   <g id="patch_27">
    <path d="M 144.174545 307.584 
L 147.781818 307.584 
L 147.781818 307.584 
L 144.174545 307.584 
z
" clip-path="url(#p853148be5d)" style="fill: #00ff00; opacity: 0.5"/>
   </g>
   <g id="patch_28">
    <path d="M 147.781818 307.584 
L 151.389091 307.584 
L 151.389091 307.584 
L 147.781818 307.584 
z
" clip-path="url(#p853148be5d)" style="fill: #00ff00; opacity: 0.5"/>
   </g>
   <g id="patch_29">
    <path d="M 151.389091 307.584 
L 154.996364 307.584 
L 154.996364 307.584 
L 151.389091 307.584 
z
" clip-path="url(#p853148be5d)" style="fill: #00ff00; opacity: 0.5"/>
   </g>
   <g id="patch_30">
    <path d="M 154.996364 307.584 
L 158.603636 307.584 
L 158.603636 307.584 
L 154.996364 307.584 
z
" clip-path="url(#p853148be5d)" style="fill: #00ff00; opacity: 0.5"/>
   </g>
   <g id="patch_31">
    <path d="M 158.603636 307.584 
L 162.210909 307.584 
L 162.210909 307.584 
L 158.603636 307.584 
z
" clip-path="url(#p853148be5d)" style="fill: #00ff00; opacity: 0.5"/>
   </g>
   <g id="patch_32">
    <path d="M 162.210909 307.584 
L 165.818182 307.584 
L 165.818182 307.584 
L 162.210909 307.584 
z
" clip-path="url(#p853148be5d)" style="fill: #00ff00; opacity: 0.5"/>
   </g>
   <g id="patch_33">
    <path d="M 165.818182 307.584 
L 169.425455 307.584 
L 169.425455 307.584 
L 165.818182 307.584 
z
" clip-path="url(#p853148be5d)" style="fill: #00ff00; opacity: 0.5"/>
   </g>
   <g id="patch_34">
    <path d="M 169.425455 307.584 
L 173.032727 307.584 
L 173.032727 307.584 
L 169.425455 307.584 
z
" clip-path="url(#p853148be5d)" style="fill: #00ff00; opacity: 0.5"/>
   </g>
   <g id="patch_35">
    <path d="M 173.032727 307.584 
L 176.64 307.584 
L 176.64 307.584 
L 173.032727 307.584 
z
" clip-path="url(#p853148be5d)" style="fill: #00ff00; opacity: 0.5"/>
   </g>
   <g id="patch_36">
    <path d="M 176.64 307.584 
L 180.247273 307.584 
L 180.247273 307.584 
L 176.64 307.584 
z
" clip-path="url(#p853148be5d)" style="fill: #00ff00; opacity: 0.5"/>
   </g>
   <g id="patch_37">
    <path d="M 180.247273 307.584 
L 183.854545 307.584 
L 183.854545 307.584 
L 180.247273 307.584 
z
" clip-path="url(#p853148be5d)" style="fill: #00ff00; opacity: 0.5"/>
   </g>
   <g id="patch_38">
    <path d="M 183.854545 307.584 
L 187.461818 307.584 
L 187.461818 307.218096 
L 183.854545 307.218096 
z
" clip-path="url(#p853148be5d)" style="fill: #00ff00; opacity: 0.5"/>
   </g>
   <g id="patch_39">
    <path d="M 187.461818 307.584 
L 191.069091 307.584 
L 191.069091 307.218096 
L 187.461818 307.218096 
z
" clip-path="url(#p853148be5d)" style="fill: #00ff00; opacity: 0.5"/>
   </g>
   <g id="patch_40">
    <path d="M 191.069091 307.584 
L 194.676364 307.584 
L 194.676364 307.218096 
L 191.069091 307.218096 
z
" clip-path="url(#p853148be5d)" style="fill: #00ff00; opacity: 0.5"/>
   </g>
   <g id="patch_41">
    <path d="M 194.676364 307.584 
L 198.283636 307.584 
L 198.283636 307.218096 
L 194.676364 307.218096 
z
" clip-path="url(#p853148be5d)" style="fill: #00ff00; opacity: 0.5"/>
   </g>
   <g id="patch_42">
    <path d="M 198.283636 307.584 
L 201.890909 307.584 
L 201.890909 305.75448 
L 198.283636 305.75448 
z
" clip-path="url(#p853148be5d)" style="fill: #00ff00; opacity: 0.5"/>
   </g>
   <g id="patch_43">
    <path d="M 201.890909 307.584 
L 205.498182 307.584 
L 205.498182 305.75448 
L 201.890909 305.75448 
z
" clip-path="url(#p853148be5d)" style="fill: #00ff00; opacity: 0.5"/>
   </g>
   <g id="patch_44">
    <path d="M 205.498182 307.584 
L 209.105455 307.584 
L 209.105455 306.120384 
L 205.498182 306.120384 
z
" clip-path="url(#p853148be5d)" style="fill: #00ff00; opacity: 0.5"/>
   </g>
   <g id="patch_45">
    <path d="M 209.105455 307.584 
L 212.712727 307.584 
L 212.712727 304.656768 
L 209.105455 304.656768 
z
" clip-path="url(#p853148be5d)" style="fill: #00ff00; opacity: 0.5"/>
   </g>
   <g id="patch_46">
    <path d="M 212.712727 307.584 
L 216.32 307.584 
L 216.32 302.461344 
L 212.712727 302.461344 
z
" clip-path="url(#p853148be5d)" style="fill: #00ff00; opacity: 0.5"/>
   </g>
   <g id="patch_47">
    <path d="M 216.32 307.584 
L 219.927273 307.584 
L 219.927273 303.559056 
L 216.32 303.559056 
z
" clip-path="url(#p853148be5d)" style="fill: #00ff00; opacity: 0.5"/>
   </g>
   <g id="patch_48">
    <path d="M 219.927273 307.584 
L 223.534545 307.584 
L 223.534545 298.802304 
L 219.927273 298.802304 
z
" clip-path="url(#p853148be5d)" style="fill: #00ff00; opacity: 0.5"/>
   </g>
   <g id="patch_49">
    <path d="M 223.534545 307.584 
L 227.141818 307.584 
L 227.141818 298.802304 
L 223.534545 298.802304 
z
" clip-path="url(#p853148be5d)" style="fill: #00ff00; opacity: 0.5"/>
   </g>
   <g id="patch_50">
    <path d="M 227.141818 307.584 
L 230.749091 307.584 
L 230.749091 292.94784 
L 227.141818 292.94784 
z
" clip-path="url(#p853148be5d)" style="fill: #00ff00; opacity: 0.5"/>
   </g>
   <g id="patch_51">
    <path d="M 230.749091 307.584 
L 234.356364 307.584 
L 234.356364 289.2888 
L 230.749091 289.2888 
z
" clip-path="url(#p853148be5d)" style="fill: #00ff00; opacity: 0.5"/>
   </g>
   <g id="patch_52">
    <path d="M 234.356364 307.584 
L 237.963636 307.584 
L 237.963636 285.263856 
L 234.356364 285.263856 
z
" clip-path="url(#p853148be5d)" style="fill: #00ff00; opacity: 0.5"/>
   </g>
   <g id="patch_53">
    <path d="M 237.963636 307.584 
L 241.570909 307.584 
L 241.570909 279.043488 
L 237.963636 279.043488 
z
" clip-path="url(#p853148be5d)" style="fill: #00ff00; opacity: 0.5"/>
   </g>
   <g id="patch_54">
    <path d="M 241.570909 307.584 
L 245.178182 307.584 
L 245.178182 268.432272 
L 241.570909 268.432272 
z
" clip-path="url(#p853148be5d)" style="fill: #00ff00; opacity: 0.5"/>
   </g>
   <g id="patch_55">
    <path d="M 245.178182 307.584 
L 248.785455 307.584 
L 248.785455 260.382384 
L 245.178182 260.382384 
z
" clip-path="url(#p853148be5d)" style="fill: #00ff00; opacity: 0.5"/>
   </g>
   <g id="patch_56">
    <path d="M 248.785455 307.584 
L 252.392727 307.584 
L 252.392727 241.355376 
L 248.785455 241.355376 
z
" clip-path="url(#p853148be5d)" style="fill: #00ff00; opacity: 0.5"/>
   </g>
   <g id="patch_57">
    <path d="M 252.392727 307.584 
L 256 307.584 
L 256 243.184896 
L 252.392727 243.184896 
z
" clip-path="url(#p853148be5d)" style="fill: #0000ff; opacity: 0.5"/>
   </g>
   <g id="patch_58">
    <path d="M 256 307.584 
L 259.607273 307.584 
L 259.607273 225.987408 
L 256 225.987408 
z
" clip-path="url(#p853148be5d)" style="fill: #0000ff; opacity: 0.5"/>
   </g>
   <g id="patch_59">
    <path d="M 259.607273 307.584 
L 263.214545 307.584 
L 263.214545 217.93752 
L 259.607273 217.93752 
z
" clip-path="url(#p853148be5d)" style="fill: #0000ff; opacity: 0.5"/>
   </g>
   <g id="patch_60">
    <path d="M 263.214545 307.584 
L 266.821818 307.584 
L 266.821818 193.056048 
L 263.214545 193.056048 
z
" clip-path="url(#p853148be5d)" style="fill: #0000ff; opacity: 0.5"/>
   </g>
   <g id="patch_61">
    <path d="M 266.821818 307.584 
L 270.429091 307.584 
L 270.429091 185.737968 
L 266.821818 185.737968 
z
" clip-path="url(#p853148be5d)" style="fill: #0000ff; opacity: 0.5"/>
   </g>
   <g id="patch_62">
    <path d="M 270.429091 307.584 
L 274.036364 307.584 
L 274.036364 181.34712 
L 270.429091 181.34712 
z
" clip-path="url(#p853148be5d)" style="fill: #0000ff; opacity: 0.5"/>
   </g>
   <g id="patch_63">
    <path d="M 274.036364 307.584 
L 277.643636 307.584 
L 277.643636 170.735904 
L 274.036364 170.735904 
z
" clip-path="url(#p853148be5d)" style="fill: #0000ff; opacity: 0.5"/>
   </g>
   <g id="patch_64">
    <path d="M 277.643636 307.584 
L 281.250909 307.584 
L 281.250909 161.954208 
L 277.643636 161.954208 
z
" clip-path="url(#p853148be5d)" style="fill: #0000ff; opacity: 0.5"/>
   </g>
   <g id="patch_65">
    <path d="M 281.250909 307.584 
L 284.858182 307.584 
L 284.858182 137.072736 
L 281.250909 137.072736 
z
" clip-path="url(#p853148be5d)" style="fill: #0000ff; opacity: 0.5"/>
   </g>
   <g id="patch_66">
    <path d="M 284.858182 307.584 
L 288.465455 307.584 
L 288.465455 138.902256 
L 284.858182 138.902256 
z
" clip-path="url(#p853148be5d)" style="fill: #0000ff; opacity: 0.5"/>
   </g>
   <g id="patch_67">
    <path d="M 288.465455 307.584 
L 292.072727 307.584 
L 292.072727 139.26816 
L 288.465455 139.26816 
z
" clip-path="url(#p853148be5d)" style="fill: #0000ff; opacity: 0.5"/>
   </g>
   <g id="patch_68">
    <path d="M 292.072727 307.584 
L 295.68 307.584 
L 295.68 135.975024 
L 292.072727 135.975024 
z
" clip-path="url(#p853148be5d)" style="fill: #0000ff; opacity: 0.5"/>
   </g>
   <g id="patch_69">
    <path d="M 295.68 307.584 
L 299.287273 307.584 
L 299.287273 133.413696 
L 295.68 133.413696 
z
" clip-path="url(#p853148be5d)" style="fill: #0000ff; opacity: 0.5"/>
   </g>
   <g id="patch_70">
    <path d="M 299.287273 307.584 
L 302.894545 307.584 
L 302.894545 131.218272 
L 299.287273 131.218272 
z
" clip-path="url(#p853148be5d)" style="fill: #0000ff; opacity: 0.5"/>
   </g>
   <g id="patch_71">
    <path d="M 302.894545 307.584 
L 306.501818 307.584 
L 306.501818 133.047792 
L 302.894545 133.047792 
z
" clip-path="url(#p853148be5d)" style="fill: #0000ff; opacity: 0.5"/>
   </g>
   <g id="patch_72">
    <path d="M 306.501818 307.584 
L 310.109091 307.584 
L 310.109091 146.952144 
L 306.501818 146.952144 
z
" clip-path="url(#p853148be5d)" style="fill: #0000ff; opacity: 0.5"/>
   </g>
   <g id="patch_73">
    <path d="M 310.109091 307.584 
L 313.716364 307.584 
L 313.716364 163.417824 
L 310.109091 163.417824 
z
" clip-path="url(#p853148be5d)" style="fill: #0000ff; opacity: 0.5"/>
   </g>
   <g id="patch_74">
    <path d="M 313.716364 307.584 
L 317.323636 307.584 
L 317.323636 169.638192 
L 313.716364 169.638192 
z
" clip-path="url(#p853148be5d)" style="fill: #0000ff; opacity: 0.5"/>
   </g>
   <g id="patch_75">
    <path d="M 317.323636 307.584 
L 320.930909 307.584 
L 320.930909 172.565424 
L 317.323636 172.565424 
z
" clip-path="url(#p853148be5d)" style="fill: #0000ff; opacity: 0.5"/>
   </g>
   <g id="patch_76">
    <path d="M 320.930909 307.584 
L 324.538182 307.584 
L 324.538182 191.592432 
L 320.930909 191.592432 
z
" clip-path="url(#p853148be5d)" style="fill: #0000ff; opacity: 0.5"/>
   </g>
   <g id="patch_77">
    <path d="M 324.538182 307.584 
L 328.145455 307.584 
L 328.145455 206.9604 
L 324.538182 206.9604 
z
" clip-path="url(#p853148be5d)" style="fill: #0000ff; opacity: 0.5"/>
   </g>
   <g id="patch_78">
    <path d="M 328.145455 307.584 
L 331.752727 307.584 
L 331.752727 215.376192 
L 328.145455 215.376192 
z
" clip-path="url(#p853148be5d)" style="fill: #0000ff; opacity: 0.5"/>
   </g>
   <g id="patch_79">
    <path d="M 331.752727 307.584 
L 335.36 307.584 
L 335.36 222.694272 
L 331.752727 222.694272 
z
" clip-path="url(#p853148be5d)" style="fill: #0000ff; opacity: 0.5"/>
   </g>
   <g id="patch_80">
    <path d="M 335.36 307.584 
L 338.967273 307.584 
L 338.967273 240.623568 
L 335.36 240.623568 
z
" clip-path="url(#p853148be5d)" style="fill: #0000ff; opacity: 0.5"/>
   </g>
   <g id="patch_81">
    <path d="M 338.967273 307.584 
L 342.574545 307.584 
L 342.574545 255.991536 
L 338.967273 255.991536 
z
" clip-path="url(#p853148be5d)" style="fill: #0000ff; opacity: 0.5"/>
   </g>
   <g id="patch_82">
    <path d="M 342.574545 307.584 
L 346.181818 307.584 
L 346.181818 262.943712 
L 342.574545 262.943712 
z
" clip-path="url(#p853148be5d)" style="fill: #0000ff; opacity: 0.5"/>
   </g>
   <g id="patch_83">
    <path d="M 346.181818 307.584 
L 349.789091 307.584 
L 349.789091 265.50504 
L 346.181818 265.50504 
z
" clip-path="url(#p853148be5d)" style="fill: #0000ff; opacity: 0.5"/>
   </g>
   <g id="patch_84">
    <path d="M 349.789091 307.584 
L 353.396364 307.584 
L 353.396364 276.848064 
L 349.789091 276.848064 
z
" clip-path="url(#p853148be5d)" style="fill: #0000ff; opacity: 0.5"/>
   </g>
   <g id="patch_85">
    <path d="M 353.396364 307.584 
L 357.003636 307.584 
L 357.003636 287.825184 
L 353.396364 287.825184 
z
" clip-path="url(#p853148be5d)" style="fill: #0000ff; opacity: 0.5"/>
   </g>
   <g id="patch_86">
    <path d="M 357.003636 307.584 
L 360.610909 307.584 
L 360.610909 287.825184 
L 357.003636 287.825184 
z
" clip-path="url(#p853148be5d)" style="fill: #0000ff; opacity: 0.5"/>
   </g>
   <g id="patch_87">
    <path d="M 360.610909 307.584 
L 364.218182 307.584 
L 364.218182 291.484224 
L 360.610909 291.484224 
z
" clip-path="url(#p853148be5d)" style="fill: #0000ff; opacity: 0.5"/>
   </g>
   <g id="patch_88">
    <path d="M 364.218182 307.584 
L 367.825455 307.584 
L 367.825455 300.26592 
L 364.218182 300.26592 
z
" clip-path="url(#p853148be5d)" style="fill: #0000ff; opacity: 0.5"/>
   </g>
   <g id="patch_89">
    <path d="M 367.825455 307.584 
L 371.432727 307.584 
L 371.432727 298.4364 
L 367.825455 298.4364 
z
" clip-path="url(#p853148be5d)" style="fill: #0000ff; opacity: 0.5"/>
   </g>
   <g id="patch_90">
    <path d="M 371.432727 307.584 
L 375.04 307.584 
L 375.04 298.4364 
L 371.432727 298.4364 
z
" clip-path="url(#p853148be5d)" style="fill: #0000ff; opacity: 0.5"/>
   </g>
   <g id="patch_91">
    <path d="M 375.04 307.584 
L 378.647273 307.584 
L 378.647273 301.363632 
L 375.04 301.363632 
z
" clip-path="url(#p853148be5d)" style="fill: #0000ff; opacity: 0.5"/>
   </g>
   <g id="patch_92">
    <path d="M 378.647273 307.584 
L 382.254545 307.584 
L 382.254545 305.022672 
L 378.647273 305.022672 
z
" clip-path="url(#p853148be5d)" style="fill: #0000ff; opacity: 0.5"/>
   </g>
   <g id="patch_93">
    <path d="M 382.254545 307.584 
L 385.861818 307.584 
L 385.861818 306.852192 
L 382.254545 306.852192 
z
" clip-path="url(#p853148be5d)" style="fill: #0000ff; opacity: 0.5"/>
   </g>
   <g id="patch_94">
    <path d="M 385.861818 307.584 
L 389.469091 307.584 
L 389.469091 306.120384 
L 385.861818 306.120384 
z
" clip-path="url(#p853148be5d)" style="fill: #0000ff; opacity: 0.5"/>
   </g>
   <g id="patch_95">
    <path d="M 389.469091 307.584 
L 393.076364 307.584 
L 393.076364 306.852192 
L 389.469091 306.852192 
z
" clip-path="url(#p853148be5d)" style="fill: #0000ff; opacity: 0.5"/>
   </g>
   <g id="patch_96">
    <path d="M 393.076364 307.584 
L 396.683636 307.584 
L 396.683636 307.218096 
L 393.076364 307.218096 
z
" clip-path="url(#p853148be5d)" style="fill: #0000ff; opacity: 0.5"/>
   </g>
   <g id="patch_97">
    <path d="M 396.683636 307.584 
L 400.290909 307.584 
L 400.290909 307.218096 
L 396.683636 307.218096 
z
" clip-path="url(#p853148be5d)" style="fill: #0000ff; opacity: 0.5"/>
   </g>
   <g id="patch_98">
    <path d="M 400.290909 307.584 
L 403.898182 307.584 
L 403.898182 307.218096 
L 400.290909 307.218096 
z
" clip-path="url(#p853148be5d)" style="fill: #0000ff; opacity: 0.5"/>
   </g>
   <g id="patch_99">
    <path d="M 403.898182 307.584 
L 407.505455 307.584 
L 407.505455 307.584 
L 403.898182 307.584 
z
" clip-path="url(#p853148be5d)" style="fill: #0000ff; opacity: 0.5"/>
   </g>
   <g id="patch_100">
    <path d="M 407.505455 307.584 
L 411.112727 307.584 
L 411.112727 307.584 
L 407.505455 307.584 
z
" clip-path="url(#p853148be5d)" style="fill: #0000ff; opacity: 0.5"/>
   </g>
   <g id="patch_101">
    <path d="M 411.112727 307.584 
L 414.72 307.584 
L 414.72 307.584 
L 411.112727 307.584 
z
" clip-path="url(#p853148be5d)" style="fill: #0000ff; opacity: 0.5"/>
   </g>
   <g id="patch_102">
    <path d="M 99.8592 307.584 
L 253.4208 307.584 
L 253.4208 307.584 
L 99.8592 307.584 
z
" clip-path="url(#p853148be5d)" style="fill: #00ff00; fill-opacity: 0.5; stroke: #00ff00; stroke-opacity: 0.5; stroke-linejoin: miter"/>
   </g>
   <g id="matplotlib.axis_1">
    <g id="xtick_1">
     <g id="line2d_1">
      <defs>
       <path id="m810585f9dd" d="M 0 0 
L 0 3.5 
" style="stroke: #000000; stroke-width: 0.8"/>
      </defs>
      <g>
       <use xlink:href="#m810585f9dd" x="57.6" y="307.584" style="stroke: #000000; stroke-width: 0.8"/>
      </g>
     </g>
     <g id="text_1">
      <!-- 128 -->
      <g transform="translate(48.05625 322.182437)scale(0.1 -0.1)">
       <defs>
        <path id="DejaVuSans-31" d="M 794 531 
L 1825 531 
L 1825 4091 
L 703 3866 
L 703 4441 
L 1819 4666 
L 2450 4666 
L 2450 531 
L 3481 531 
L 3481 0 
L 794 0 
L 794 531 
z
" transform="scale(0.015625)"/>
        <path id="DejaVuSans-32" d="M 1228 531 
L 3431 531 
L 3431 0 
L 469 0 
L 469 531 
Q 828 903 1448 1529 
Q 2069 2156 2228 2338 
Q 2531 2678 2651 2914 
Q 2772 3150 2772 3378 
Q 2772 3750 2511 3984 
Q 2250 4219 1831 4219 
Q 1534 4219 1204 4116 
Q 875 4013 500 3803 
L 500 4441 
Q 881 4594 1212 4672 
Q 1544 4750 1819 4750 
Q 2544 4750 2975 4387 
Q 3406 4025 3406 3419 
Q 3406 3131 3298 2873 
Q 3191 2616 2906 2266 
Q 2828 2175 2409 1742 
Q 1991 1309 1228 531 
z
" transform="scale(0.015625)"/>
        <path id="DejaVuSans-38" d="M 2034 2216 
Q 1584 2216 1326 1975 
Q 1069 1734 1069 1313 
Q 1069 891 1326 650 
Q 1584 409 2034 409 
Q 2484 409 2743 651 
Q 3003 894 3003 1313 
Q 3003 1734 2745 1975 
Q 2488 2216 2034 2216 
z
M 1403 2484 
Q 997 2584 770 2862 
Q 544 3141 544 3541 
Q 544 4100 942 4425 
Q 1341 4750 2034 4750 
Q 2731 4750 3128 4425 
Q 3525 4100 3525 3541 
Q 3525 3141 3298 2862 
Q 3072 2584 2669 2484 
Q 3125 2378 3379 2068 
Q 3634 1759 3634 1313 
Q 3634 634 3220 271 
Q 2806 -91 2034 -91 
Q 1263 -91 848 271 
Q 434 634 434 1313 
Q 434 1759 690 2068 
Q 947 2378 1403 2484 
z
M 1172 3481 
Q 1172 3119 1398 2916 
Q 1625 2713 2034 2713 
Q 2441 2713 2670 2916 
Q 2900 3119 2900 3481 
Q 2900 3844 2670 4047 
Q 2441 4250 2034 4250 
Q 1625 4250 1398 4047 
Q 1172 3844 1172 3481 
z
" transform="scale(0.015625)"/>
       </defs>
       <use xlink:href="#DejaVuSans-31"/>
       <use xlink:href="#DejaVuSans-32" x="63.623047"/>
       <use xlink:href="#DejaVuSans-38" x="127.246094"/>
      </g>
     </g>
    </g>
    <g id="xtick_2">
     <g id="line2d_2">
      <g>
       <use xlink:href="#m810585f9dd" x="117.12" y="307.584" style="stroke: #000000; stroke-width: 0.8"/>
      </g>
     </g>
     <g id="text_2">
      <!-- 129 -->
      <g transform="translate(107.57625 322.182437)scale(0.1 -0.1)">
       <defs>
        <path id="DejaVuSans-39" d="M 703 97 
L 703 672 
Q 941 559 1184 500 
Q 1428 441 1663 441 
Q 2288 441 2617 861 
Q 2947 1281 2994 2138 
Q 2813 1869 2534 1725 
Q 2256 1581 1919 1581 
Q 1219 1581 811 2004 
Q 403 2428 403 3163 
Q 403 3881 828 4315 
Q 1253 4750 1959 4750 
Q 2769 4750 3195 4129 
Q 3622 3509 3622 2328 
Q 3622 1225 3098 567 
Q 2575 -91 1691 -91 
Q 1453 -91 1209 -44 
Q 966 3 703 97 
z
M 1959 2075 
Q 2384 2075 2632 2365 
Q 2881 2656 2881 3163 
Q 2881 3666 2632 3958 
Q 2384 4250 1959 4250 
Q 1534 4250 1286 3958 
Q 1038 3666 1038 3163 
Q 1038 2656 1286 2365 
Q 1534 2075 1959 2075 
z
" transform="scale(0.015625)"/>
       </defs>
       <use xlink:href="#DejaVuSans-31"/>
       <use xlink:href="#DejaVuSans-32" x="63.623047"/>
       <use xlink:href="#DejaVuSans-39" x="127.246094"/>
      </g>
     </g>
    </g>
    <g id="xtick_3">
     <g id="line2d_3">
      <g>
       <use xlink:href="#m810585f9dd" x="176.64" y="307.584" style="stroke: #000000; stroke-width: 0.8"/>
      </g>
     </g>
     <g id="text_3">
      <!-- 130 -->
      <g transform="translate(167.09625 322.182437)scale(0.1 -0.1)">
       <defs>
        <path id="DejaVuSans-33" d="M 2597 2516 
Q 3050 2419 3304 2112 
Q 3559 1806 3559 1356 
Q 3559 666 3084 287 
Q 2609 -91 1734 -91 
Q 1441 -91 1130 -33 
Q 819 25 488 141 
L 488 750 
Q 750 597 1062 519 
Q 1375 441 1716 441 
Q 2309 441 2620 675 
Q 2931 909 2931 1356 
Q 2931 1769 2642 2001 
Q 2353 2234 1838 2234 
L 1294 2234 
L 1294 2753 
L 1863 2753 
Q 2328 2753 2575 2939 
Q 2822 3125 2822 3475 
Q 2822 3834 2567 4026 
Q 2313 4219 1838 4219 
Q 1578 4219 1281 4162 
Q 984 4106 628 3988 
L 628 4550 
Q 988 4650 1302 4700 
Q 1616 4750 1894 4750 
Q 2613 4750 3031 4423 
Q 3450 4097 3450 3541 
Q 3450 3153 3228 2886 
Q 3006 2619 2597 2516 
z
" transform="scale(0.015625)"/>
        <path id="DejaVuSans-30" d="M 2034 4250 
Q 1547 4250 1301 3770 
Q 1056 3291 1056 2328 
Q 1056 1369 1301 889 
Q 1547 409 2034 409 
Q 2525 409 2770 889 
Q 3016 1369 3016 2328 
Q 3016 3291 2770 3770 
Q 2525 4250 2034 4250 
z
M 2034 4750 
Q 2819 4750 3233 4129 
Q 3647 3509 3647 2328 
Q 3647 1150 3233 529 
Q 2819 -91 2034 -91 
Q 1250 -91 836 529 
Q 422 1150 422 2328 
Q 422 3509 836 4129 
Q 1250 4750 2034 4750 
z
" transform="scale(0.015625)"/>
       </defs>
       <use xlink:href="#DejaVuSans-31"/>
       <use xlink:href="#DejaVuSans-33" x="63.623047"/>
       <use xlink:href="#DejaVuSans-30" x="127.246094"/>
      </g>
     </g>
    </g>
    <g id="xtick_4">
     <g id="line2d_4">
      <g>
       <use xlink:href="#m810585f9dd" x="236.16" y="307.584" style="stroke: #000000; stroke-width: 0.8"/>
      </g>
     </g>
     <g id="text_4">
      <!-- 131 -->
      <g transform="translate(226.61625 322.182437)scale(0.1 -0.1)">
       <use xlink:href="#DejaVuSans-31"/>
       <use xlink:href="#DejaVuSans-33" x="63.623047"/>
       <use xlink:href="#DejaVuSans-31" x="127.246094"/>
      </g>
     </g>
    </g>
    <g id="xtick_5">
     <g id="line2d_5">
      <g>
       <use xlink:href="#m810585f9dd" x="295.68" y="307.584" style="stroke: #000000; stroke-width: 0.8"/>
      </g>
     </g>
     <g id="text_5">
      <!-- 132 -->
      <g transform="translate(286.13625 322.182437)scale(0.1 -0.1)">
       <use xlink:href="#DejaVuSans-31"/>
       <use xlink:href="#DejaVuSans-33" x="63.623047"/>
       <use xlink:href="#DejaVuSans-32" x="127.246094"/>
      </g>
     </g>
    </g>
    <g id="xtick_6">
     <g id="line2d_6">
      <g>
       <use xlink:href="#m810585f9dd" x="355.2" y="307.584" style="stroke: #000000; stroke-width: 0.8"/>
      </g>
     </g>
     <g id="text_6">
      <!-- 133 -->
      <g transform="translate(345.65625 322.182437)scale(0.1 -0.1)">
       <use xlink:href="#DejaVuSans-31"/>
       <use xlink:href="#DejaVuSans-33" x="63.623047"/>
       <use xlink:href="#DejaVuSans-33" x="127.246094"/>
      </g>
     </g>
    </g>
    <g id="xtick_7">
     <g id="line2d_7">
      <g>
       <use xlink:href="#m810585f9dd" x="414.72" y="307.584" style="stroke: #000000; stroke-width: 0.8"/>
      </g>
     </g>
     <g id="text_7">
      <!-- 134 -->
      <g transform="translate(405.17625 322.182437)scale(0.1 -0.1)">
       <defs>
        <path id="DejaVuSans-34" d="M 2419 4116 
L 825 1625 
L 2419 1625 
L 2419 4116 
z
M 2253 4666 
L 3047 4666 
L 3047 1625 
L 3713 1625 
L 3713 1100 
L 3047 1100 
L 3047 0 
L 2419 0 
L 2419 1100 
L 313 1100 
L 313 1709 
L 2253 4666 
z
" transform="scale(0.015625)"/>
       </defs>
       <use xlink:href="#DejaVuSans-31"/>
       <use xlink:href="#DejaVuSans-33" x="63.623047"/>
       <use xlink:href="#DejaVuSans-34" x="127.246094"/>
      </g>
     </g>
    </g>
    <g id="text_8">
     <!-- $\overline{T}$ [degrees] -->
     <g transform="translate(207.36 338.062125)scale(0.1 -0.1)">
      <defs>
       <path id="DejaVuSans-Oblique-54" d="M 378 4666 
L 4325 4666 
L 4225 4134 
L 2559 4134 
L 1759 0 
L 1125 0 
L 1925 4134 
L 275 4134 
L 378 4666 
z
" transform="scale(0.015625)"/>
       <path id="DejaVuSans-20" transform="scale(0.015625)"/>
       <path id="DejaVuSans-5b" d="M 550 4863 
L 1875 4863 
L 1875 4416 
L 1125 4416 
L 1125 -397 
L 1875 -397 
L 1875 -844 
L 550 -844 
L 550 4863 
z
" transform="scale(0.015625)"/>
       <path id="DejaVuSans-64" d="M 2906 2969 
L 2906 4863 
L 3481 4863 
L 3481 0 
L 2906 0 
L 2906 525 
Q 2725 213 2448 61 
Q 2172 -91 1784 -91 
Q 1150 -91 751 415 
Q 353 922 353 1747 
Q 353 2572 751 3078 
Q 1150 3584 1784 3584 
Q 2172 3584 2448 3432 
Q 2725 3281 2906 2969 
z
M 947 1747 
Q 947 1113 1208 752 
Q 1469 391 1925 391 
Q 2381 391 2643 752 
Q 2906 1113 2906 1747 
Q 2906 2381 2643 2742 
Q 2381 3103 1925 3103 
Q 1469 3103 1208 2742 
Q 947 2381 947 1747 
z
" transform="scale(0.015625)"/>
       <path id="DejaVuSans-65" d="M 3597 1894 
L 3597 1613 
L 953 1613 
Q 991 1019 1311 708 
Q 1631 397 2203 397 
Q 2534 397 2845 478 
Q 3156 559 3463 722 
L 3463 178 
Q 3153 47 2828 -22 
Q 2503 -91 2169 -91 
Q 1331 -91 842 396 
Q 353 884 353 1716 
Q 353 2575 817 3079 
Q 1281 3584 2069 3584 
Q 2775 3584 3186 3129 
Q 3597 2675 3597 1894 
z
M 3022 2063 
Q 3016 2534 2758 2815 
Q 2500 3097 2075 3097 
Q 1594 3097 1305 2825 
Q 1016 2553 972 2059 
L 3022 2063 
z
" transform="scale(0.015625)"/>
       <path id="DejaVuSans-67" d="M 2906 1791 
Q 2906 2416 2648 2759 
Q 2391 3103 1925 3103 
Q 1463 3103 1205 2759 
Q 947 2416 947 1791 
Q 947 1169 1205 825 
Q 1463 481 1925 481 
Q 2391 481 2648 825 
Q 2906 1169 2906 1791 
z
M 3481 434 
Q 3481 -459 3084 -895 
Q 2688 -1331 1869 -1331 
Q 1566 -1331 1297 -1286 
Q 1028 -1241 775 -1147 
L 775 -588 
Q 1028 -725 1275 -790 
Q 1522 -856 1778 -856 
Q 2344 -856 2625 -561 
Q 2906 -266 2906 331 
L 2906 616 
Q 2728 306 2450 153 
Q 2172 0 1784 0 
Q 1141 0 747 490 
Q 353 981 353 1791 
Q 353 2603 747 3093 
Q 1141 3584 1784 3584 
Q 2172 3584 2450 3431 
Q 2728 3278 2906 2969 
L 2906 3500 
L 3481 3500 
L 3481 434 
z
" transform="scale(0.015625)"/>
       <path id="DejaVuSans-72" d="M 2631 2963 
Q 2534 3019 2420 3045 
Q 2306 3072 2169 3072 
Q 1681 3072 1420 2755 
Q 1159 2438 1159 1844 
L 1159 0 
L 581 0 
L 581 3500 
L 1159 3500 
L 1159 2956 
Q 1341 3275 1631 3429 
Q 1922 3584 2338 3584 
Q 2397 3584 2469 3576 
Q 2541 3569 2628 3553 
L 2631 2963 
z
" transform="scale(0.015625)"/>
       <path id="DejaVuSans-73" d="M 2834 3397 
L 2834 2853 
Q 2591 2978 2328 3040 
Q 2066 3103 1784 3103 
Q 1356 3103 1142 2972 
Q 928 2841 928 2578 
Q 928 2378 1081 2264 
Q 1234 2150 1697 2047 
L 1894 2003 
Q 2506 1872 2764 1633 
Q 3022 1394 3022 966 
Q 3022 478 2636 193 
Q 2250 -91 1575 -91 
Q 1294 -91 989 -36 
Q 684 19 347 128 
L 347 722 
Q 666 556 975 473 
Q 1284 391 1588 391 
Q 1994 391 2212 530 
Q 2431 669 2431 922 
Q 2431 1156 2273 1281 
Q 2116 1406 1581 1522 
L 1381 1569 
Q 847 1681 609 1914 
Q 372 2147 372 2553 
Q 372 3047 722 3315 
Q 1072 3584 1716 3584 
Q 2034 3584 2315 3537 
Q 2597 3491 2834 3397 
z
" transform="scale(0.015625)"/>
       <path id="DejaVuSans-5d" d="M 1947 4863 
L 1947 -844 
L 622 -844 
L 622 -397 
L 1369 -397 
L 1369 4416 
L 622 4416 
L 622 4863 
L 1947 4863 
z
" transform="scale(0.015625)"/>
      </defs>
      <use xlink:href="#DejaVuSans-Oblique-54" transform="translate(0 0.84375)"/>
      <use xlink:href="#DejaVuSans-20" transform="translate(61.083984 0.34375)"/>
      <use xlink:href="#DejaVuSans-5b" transform="translate(92.871094 0.34375)"/>
      <use xlink:href="#DejaVuSans-64" transform="translate(131.884766 0.34375)"/>
      <use xlink:href="#DejaVuSans-65" transform="translate(195.361328 0.34375)"/>
      <use xlink:href="#DejaVuSans-67" transform="translate(256.884766 0.34375)"/>
      <use xlink:href="#DejaVuSans-72" transform="translate(320.361328 0.34375)"/>
      <use xlink:href="#DejaVuSans-65" transform="translate(361.474609 0.34375)"/>
      <use xlink:href="#DejaVuSans-65" transform="translate(422.998047 0.34375)"/>
      <use xlink:href="#DejaVuSans-73" transform="translate(484.521484 0.34375)"/>
      <use xlink:href="#DejaVuSans-5d" transform="translate(536.621094 0.34375)"/>
      <path d="M 0 85.5 
L 0 91.75 
L 61.083984 91.75 
L 61.083984 85.5 
L 0 85.5 
z
"/>
     </g>
    </g>
   </g>
   <g id="matplotlib.axis_2">
    <g id="ytick_1">
     <g id="line2d_8">
      <defs>
       <path id="m9751a4dc42" d="M 0 0 
L -3.5 0 
" style="stroke: #000000; stroke-width: 0.8"/>
      </defs>
      <g>
       <use xlink:href="#m9751a4dc42" x="57.6" y="307.584" style="stroke: #000000; stroke-width: 0.8"/>
      </g>
     </g>
     <g id="text_9">
      <!-- 0.0 -->
      <g transform="translate(34.696875 311.383219)scale(0.1 -0.1)">
       <defs>
        <path id="DejaVuSans-2e" d="M 684 794 
L 1344 794 
L 1344 0 
L 684 0 
L 684 794 
z
" transform="scale(0.015625)"/>
       </defs>
       <use xlink:href="#DejaVuSans-30"/>
       <use xlink:href="#DejaVuSans-2e" x="63.623047"/>
       <use xlink:href="#DejaVuSans-30" x="95.410156"/>
      </g>
     </g>
    </g>
    <g id="ytick_2">
     <g id="line2d_9">
      <g>
       <use xlink:href="#m9751a4dc42" x="57.6" y="263.232" style="stroke: #000000; stroke-width: 0.8"/>
      </g>
     </g>
     <g id="text_10">
      <!-- 0.2 -->
      <g transform="translate(34.696875 267.031219)scale(0.1 -0.1)">
       <use xlink:href="#DejaVuSans-30"/>
       <use xlink:href="#DejaVuSans-2e" x="63.623047"/>
       <use xlink:href="#DejaVuSans-32" x="95.410156"/>
      </g>
     </g>
    </g>
    <g id="ytick_3">
     <g id="line2d_10">
      <g>
       <use xlink:href="#m9751a4dc42" x="57.6" y="218.88" style="stroke: #000000; stroke-width: 0.8"/>
      </g>
     </g>
     <g id="text_11">
      <!-- 0.4 -->
      <g transform="translate(34.696875 222.679219)scale(0.1 -0.1)">
       <use xlink:href="#DejaVuSans-30"/>
       <use xlink:href="#DejaVuSans-2e" x="63.623047"/>
       <use xlink:href="#DejaVuSans-34" x="95.410156"/>
      </g>
     </g>
    </g>
    <g id="ytick_4">
     <g id="line2d_11">
      <g>
       <use xlink:href="#m9751a4dc42" x="57.6" y="174.528" style="stroke: #000000; stroke-width: 0.8"/>
      </g>
     </g>
     <g id="text_12">
      <!-- 0.6 -->
      <g transform="translate(34.696875 178.327219)scale(0.1 -0.1)">
       <defs>
        <path id="DejaVuSans-36" d="M 2113 2584 
Q 1688 2584 1439 2293 
Q 1191 2003 1191 1497 
Q 1191 994 1439 701 
Q 1688 409 2113 409 
Q 2538 409 2786 701 
Q 3034 994 3034 1497 
Q 3034 2003 2786 2293 
Q 2538 2584 2113 2584 
z
M 3366 4563 
L 3366 3988 
Q 3128 4100 2886 4159 
Q 2644 4219 2406 4219 
Q 1781 4219 1451 3797 
Q 1122 3375 1075 2522 
Q 1259 2794 1537 2939 
Q 1816 3084 2150 3084 
Q 2853 3084 3261 2657 
Q 3669 2231 3669 1497 
Q 3669 778 3244 343 
Q 2819 -91 2113 -91 
Q 1303 -91 875 529 
Q 447 1150 447 2328 
Q 447 3434 972 4092 
Q 1497 4750 2381 4750 
Q 2619 4750 2861 4703 
Q 3103 4656 3366 4563 
z
" transform="scale(0.015625)"/>
       </defs>
       <use xlink:href="#DejaVuSans-30"/>
       <use xlink:href="#DejaVuSans-2e" x="63.623047"/>
       <use xlink:href="#DejaVuSans-36" x="95.410156"/>
      </g>
     </g>
    </g>
    <g id="ytick_5">
     <g id="line2d_12">
      <g>
       <use xlink:href="#m9751a4dc42" x="57.6" y="130.176" style="stroke: #000000; stroke-width: 0.8"/>
      </g>
     </g>
     <g id="text_13">
      <!-- 0.8 -->
      <g transform="translate(34.696875 133.975219)scale(0.1 -0.1)">
       <use xlink:href="#DejaVuSans-30"/>
       <use xlink:href="#DejaVuSans-2e" x="63.623047"/>
       <use xlink:href="#DejaVuSans-38" x="95.410156"/>
      </g>
     </g>
    </g>
    <g id="ytick_6">
     <g id="line2d_13">
      <g>
       <use xlink:href="#m9751a4dc42" x="57.6" y="85.824" style="stroke: #000000; stroke-width: 0.8"/>
      </g>
     </g>
     <g id="text_14">
      <!-- 1.0 -->
      <g transform="translate(34.696875 89.623219)scale(0.1 -0.1)">
       <use xlink:href="#DejaVuSans-31"/>
       <use xlink:href="#DejaVuSans-2e" x="63.623047"/>
       <use xlink:href="#DejaVuSans-30" x="95.410156"/>
      </g>
     </g>
    </g>
    <g id="ytick_7">
     <g id="line2d_14">
      <g>
       <use xlink:href="#m9751a4dc42" x="57.6" y="41.472" style="stroke: #000000; stroke-width: 0.8"/>
      </g>
     </g>
     <g id="text_15">
      <!-- 1.2 -->
      <g transform="translate(34.696875 45.271219)scale(0.1 -0.1)">
       <use xlink:href="#DejaVuSans-31"/>
       <use xlink:href="#DejaVuSans-2e" x="63.623047"/>
       <use xlink:href="#DejaVuSans-32" x="95.410156"/>
      </g>
     </g>
    </g>
    <g id="text_16">
     <!-- pdf($\overline{T}$) [1/degrees] -->
     <g transform="translate(28.596875 220.228)rotate(-90)scale(0.1 -0.1)">
      <defs>
       <path id="DejaVuSans-70" d="M 1159 525 
L 1159 -1331 
L 581 -1331 
L 581 3500 
L 1159 3500 
L 1159 2969 
Q 1341 3281 1617 3432 
Q 1894 3584 2278 3584 
Q 2916 3584 3314 3078 
Q 3713 2572 3713 1747 
Q 3713 922 3314 415 
Q 2916 -91 2278 -91 
Q 1894 -91 1617 61 
Q 1341 213 1159 525 
z
M 3116 1747 
Q 3116 2381 2855 2742 
Q 2594 3103 2138 3103 
Q 1681 3103 1420 2742 
Q 1159 2381 1159 1747 
Q 1159 1113 1420 752 
Q 1681 391 2138 391 
Q 2594 391 2855 752 
Q 3116 1113 3116 1747 
z
" transform="scale(0.015625)"/>
       <path id="DejaVuSans-66" d="M 2375 4863 
L 2375 4384 
L 1825 4384 
Q 1516 4384 1395 4259 
Q 1275 4134 1275 3809 
L 1275 3500 
L 2222 3500 
L 2222 3053 
L 1275 3053 
L 1275 0 
L 697 0 
L 697 3053 
L 147 3053 
L 147 3500 
L 697 3500 
L 697 3744 
Q 697 4328 969 4595 
Q 1241 4863 1831 4863 
L 2375 4863 
z
" transform="scale(0.015625)"/>
       <path id="DejaVuSans-28" d="M 1984 4856 
Q 1566 4138 1362 3434 
Q 1159 2731 1159 2009 
Q 1159 1288 1364 580 
Q 1569 -128 1984 -844 
L 1484 -844 
Q 1016 -109 783 600 
Q 550 1309 550 2009 
Q 550 2706 781 3412 
Q 1013 4119 1484 4856 
L 1984 4856 
z
" transform="scale(0.015625)"/>
       <path id="DejaVuSans-29" d="M 513 4856 
L 1013 4856 
Q 1481 4119 1714 3412 
Q 1947 2706 1947 2009 
Q 1947 1309 1714 600 
Q 1481 -109 1013 -844 
L 513 -844 
Q 928 -128 1133 580 
Q 1338 1288 1338 2009 
Q 1338 2731 1133 3434 
Q 928 4138 513 4856 
z
" transform="scale(0.015625)"/>
       <path id="DejaVuSans-2f" d="M 1625 4666 
L 2156 4666 
L 531 -594 
L 0 -594 
L 1625 4666 
z
" transform="scale(0.015625)"/>
      </defs>
      <use xlink:href="#DejaVuSans-70" transform="translate(0 0.34375)"/>
      <use xlink:href="#DejaVuSans-64" transform="translate(63.476562 0.34375)"/>
      <use xlink:href="#DejaVuSans-66" transform="translate(126.953125 0.34375)"/>
      <use xlink:href="#DejaVuSans-28" transform="translate(162.158203 0.34375)"/>
      <use xlink:href="#DejaVuSans-Oblique-54" transform="translate(201.171875 0.84375)"/>
      <use xlink:href="#DejaVuSans-29" transform="translate(262.255859 0.34375)"/>
      <use xlink:href="#DejaVuSans-20" transform="translate(301.269531 0.34375)"/>
      <use xlink:href="#DejaVuSans-5b" transform="translate(333.056641 0.34375)"/>
      <use xlink:href="#DejaVuSans-31" transform="translate(372.070312 0.34375)"/>
      <use xlink:href="#DejaVuSans-2f" transform="translate(435.693359 0.34375)"/>
      <use xlink:href="#DejaVuSans-64" transform="translate(469.384766 0.34375)"/>
      <use xlink:href="#DejaVuSans-65" transform="translate(532.861328 0.34375)"/>
      <use xlink:href="#DejaVuSans-67" transform="translate(594.384766 0.34375)"/>
      <use xlink:href="#DejaVuSans-72" transform="translate(657.861328 0.34375)"/>
      <use xlink:href="#DejaVuSans-65" transform="translate(698.974609 0.34375)"/>
      <use xlink:href="#DejaVuSans-65" transform="translate(760.498047 0.34375)"/>
      <use xlink:href="#DejaVuSans-73" transform="translate(822.021484 0.34375)"/>
      <use xlink:href="#DejaVuSans-5d" transform="translate(874.121094 0.34375)"/>
      <path d="M 201.171875 85.5 
L 201.171875 91.75 
L 262.255859 91.75 
L 262.255859 85.5 
L 201.171875 85.5 
z
"/>
     </g>
    </g>
   </g>
   <g id="line2d_15">
    <path d="M 57.6 307.524644 
L 61.207273 307.488315 
L 64.814545 307.432001 
L 68.421818 307.346067 
L 72.029091 307.216981 
L 75.636364 307.026118 
L 79.243636 306.748368 
L 82.850909 306.350593 
L 86.458182 305.790021 
L 90.065455 305.012731 
L 93.672727 303.952411 
L 97.28 302.529652 
L 100.887273 300.652093 
L 104.494545 298.215728 
L 108.101818 295.10771 
L 111.709091 291.210911 
L 115.316364 286.410388 
L 118.923636 280.601731 
L 122.530909 273.701055 
L 126.138182 265.656108 
L 129.745455 256.457733 
L 133.352727 246.150633 
L 136.96 234.842252 
L 140.567273 222.708503 
L 144.174545 209.99517 
L 147.781818 197.014061 
L 151.389091 184.133398 
L 154.996364 171.762496 
L 158.603636 160.331377 
L 162.210909 150.266613 
L 165.818182 141.965217 
L 169.425455 135.768778 
L 173.032727 131.940184 
L 176.64 130.64512 
L 180.247273 131.940184 
L 183.854545 135.768778 
L 187.461818 141.965217 
L 191.069091 150.266613 
L 194.676364 160.331377 
L 198.283636 171.762496 
L 201.890909 184.133398 
L 205.498182 197.014061 
L 209.105455 209.99517 
L 212.712727 222.708503 
L 216.32 234.842252 
L 219.927273 246.150633 
L 223.534545 256.457733 
L 227.141818 265.656108 
L 230.749091 273.701055 
L 234.356364 280.601731 
L 237.963636 286.410388 
L 241.570909 291.210911 
L 245.178182 295.10771 
L 248.785455 298.215728 
L 252.392727 300.652093 
L 256 302.529652 
L 259.607273 303.952411 
L 263.214545 305.012731 
L 266.821818 305.790021 
L 270.429091 306.350593 
L 274.036364 306.748368 
L 277.643636 307.026118 
L 281.250909 307.216981 
L 284.858182 307.346067 
L 288.465455 307.432001 
L 292.072727 307.488315 
L 295.68 307.524644 
L 299.287273 307.547716 
L 302.894545 307.562144 
L 306.501818 307.571027 
L 310.109091 307.576412 
L 313.716364 307.579626 
L 317.323636 307.581516 
L 320.930909 307.58261 
L 324.538182 307.583233 
L 328.145455 307.583583 
L 331.752727 307.583777 
L 335.36 307.583882 
L 338.967273 307.583939 
L 342.574545 307.583969 
L 346.181818 307.583984 
L 349.789091 307.583992 
L 353.396364 307.583996 
L 357.003636 307.583998 
L 360.610909 307.583999 
L 364.218182 307.584 
L 367.825455 307.584 
L 371.432727 307.584 
L 375.04 307.584 
L 378.647273 307.584 
L 382.254545 307.584 
L 385.861818 307.584 
L 389.469091 307.584 
L 393.076364 307.584 
L 396.683636 307.584 
L 400.290909 307.584 
L 403.898182 307.584 
L 407.505455 307.584 
L 411.112727 307.584 
L 414.72 307.584 
" clip-path="url(#p853148be5d)" style="fill: none; stroke: #000000; stroke-width: 1.5; stroke-linecap: square"/>
   </g>
   <g id="line2d_16">
    <path d="M 99.8592 306.4752 
L 253.4208 306.4752 
" clip-path="url(#p853148be5d)" style="fill: none; stroke: #ff0000; stroke-width: 2; stroke-linecap: square"/>
   </g>
   <g id="patch_103">
    <path d="M 57.6 307.584 
L 57.6 41.472 
" style="fill: none; stroke: #000000; stroke-width: 0.8; stroke-linejoin: miter; stroke-linecap: square"/>
   </g>
   <g id="patch_104">
    <path d="M 414.72 307.584 
L 414.72 41.472 
" style="fill: none; stroke: #000000; stroke-width: 0.8; stroke-linejoin: miter; stroke-linecap: square"/>
   </g>
   <g id="patch_105">
    <path d="M 57.6 307.584 
L 414.72 307.584 
" style="fill: none; stroke: #000000; stroke-width: 0.8; stroke-linejoin: miter; stroke-linecap: square"/>
   </g>
   <g id="patch_106">
    <path d="M 57.6 41.472 
L 414.72 41.472 
" style="fill: none; stroke: #000000; stroke-width: 0.8; stroke-linejoin: miter; stroke-linecap: square"/>
   </g>
   <g id="text_17">
    <!-- $\mu'=132$ -->
    <g transform="translate(211.92 35.472)scale(0.12 -0.12)">
     <defs>
      <path id="DejaVuSans-Oblique-3bc" d="M -84 -1331 
L 856 3500 
L 1434 3500 
L 1009 1322 
Q 997 1256 987 1175 
Q 978 1094 978 1013 
Q 978 722 1161 565 
Q 1344 409 1684 409 
Q 2147 409 2431 671 
Q 2716 934 2816 1459 
L 3213 3500 
L 3788 3500 
L 3266 809 
Q 3253 750 3248 706 
Q 3244 663 3244 628 
Q 3244 531 3283 486 
Q 3322 441 3406 441 
Q 3438 441 3492 456 
Q 3547 472 3647 513 
L 3559 50 
Q 3422 -19 3297 -55 
Q 3172 -91 3053 -91 
Q 2847 -91 2730 40 
Q 2613 172 2613 403 
Q 2438 153 2195 31 
Q 1953 -91 1625 -91 
Q 1334 -91 1117 43 
Q 900 178 831 397 
L 494 -1331 
L -84 -1331 
z
" transform="scale(0.015625)"/>
      <path id="Cmsy10-30" d="M 225 347 
Q 184 359 184 409 
L 966 3316 
Q 1003 3434 1093 3506 
Q 1184 3578 1300 3578 
Q 1450 3578 1564 3479 
Q 1678 3381 1678 3231 
Q 1678 3166 1644 3084 
L 488 319 
Q 466 275 428 275 
Q 394 275 320 306 
Q 247 338 225 347 
z
" transform="scale(0.015625)"/>
      <path id="DejaVuSans-3d" d="M 678 2906 
L 4684 2906 
L 4684 2381 
L 678 2381 
L 678 2906 
z
M 678 1631 
L 4684 1631 
L 4684 1100 
L 678 1100 
L 678 1631 
z
" transform="scale(0.015625)"/>
     </defs>
     <use xlink:href="#DejaVuSans-Oblique-3bc" transform="translate(0 0.584375)"/>
     <use xlink:href="#Cmsy10-30" transform="translate(68.089193 38.865625)scale(0.7)"/>
     <use xlink:href="#DejaVuSans-3d" transform="translate(109.549154 0.584375)"/>
     <use xlink:href="#DejaVuSans-31" transform="translate(212.820638 0.584375)"/>
     <use xlink:href="#DejaVuSans-33" transform="translate(276.443685 0.584375)"/>
     <use xlink:href="#DejaVuSans-32" transform="translate(340.066732 0.584375)"/>
    </g>
   </g>
   <g id="legend_1">
    <g id="patch_107">
     <path d="M 191.985625 110.406375 
L 407.72 110.406375 
Q 409.72 110.406375 409.72 108.406375 
L 409.72 48.472 
Q 409.72 46.472 407.72 46.472 
L 191.985625 46.472 
Q 189.985625 46.472 189.985625 48.472 
L 189.985625 108.406375 
Q 189.985625 110.406375 191.985625 110.406375 
z
" style="fill: #ffffff; opacity: 0.8; stroke: #cccccc; stroke-linejoin: miter"/>
    </g>
    <g id="line2d_17">
     <path d="M 193.985625 54.570437 
L 203.985625 54.570437 
L 213.985625 54.570437 
" style="fill: none; stroke: #000000; stroke-width: 1.5; stroke-linecap: square"/>
    </g>
    <g id="text_18">
     <!-- Sampling distribution for null (exact) -->
     <g transform="translate(221.985625 58.070437)scale(0.1 -0.1)">
      <defs>
       <path id="DejaVuSans-53" d="M 3425 4513 
L 3425 3897 
Q 3066 4069 2747 4153 
Q 2428 4238 2131 4238 
Q 1616 4238 1336 4038 
Q 1056 3838 1056 3469 
Q 1056 3159 1242 3001 
Q 1428 2844 1947 2747 
L 2328 2669 
Q 3034 2534 3370 2195 
Q 3706 1856 3706 1288 
Q 3706 609 3251 259 
Q 2797 -91 1919 -91 
Q 1588 -91 1214 -16 
Q 841 59 441 206 
L 441 856 
Q 825 641 1194 531 
Q 1563 422 1919 422 
Q 2459 422 2753 634 
Q 3047 847 3047 1241 
Q 3047 1584 2836 1778 
Q 2625 1972 2144 2069 
L 1759 2144 
Q 1053 2284 737 2584 
Q 422 2884 422 3419 
Q 422 4038 858 4394 
Q 1294 4750 2059 4750 
Q 2388 4750 2728 4690 
Q 3069 4631 3425 4513 
z
" transform="scale(0.015625)"/>
       <path id="DejaVuSans-61" d="M 2194 1759 
Q 1497 1759 1228 1600 
Q 959 1441 959 1056 
Q 959 750 1161 570 
Q 1363 391 1709 391 
Q 2188 391 2477 730 
Q 2766 1069 2766 1631 
L 2766 1759 
L 2194 1759 
z
M 3341 1997 
L 3341 0 
L 2766 0 
L 2766 531 
Q 2569 213 2275 61 
Q 1981 -91 1556 -91 
Q 1019 -91 701 211 
Q 384 513 384 1019 
Q 384 1609 779 1909 
Q 1175 2209 1959 2209 
L 2766 2209 
L 2766 2266 
Q 2766 2663 2505 2880 
Q 2244 3097 1772 3097 
Q 1472 3097 1187 3025 
Q 903 2953 641 2809 
L 641 3341 
Q 956 3463 1253 3523 
Q 1550 3584 1831 3584 
Q 2591 3584 2966 3190 
Q 3341 2797 3341 1997 
z
" transform="scale(0.015625)"/>
       <path id="DejaVuSans-6d" d="M 3328 2828 
Q 3544 3216 3844 3400 
Q 4144 3584 4550 3584 
Q 5097 3584 5394 3201 
Q 5691 2819 5691 2113 
L 5691 0 
L 5113 0 
L 5113 2094 
Q 5113 2597 4934 2840 
Q 4756 3084 4391 3084 
Q 3944 3084 3684 2787 
Q 3425 2491 3425 1978 
L 3425 0 
L 2847 0 
L 2847 2094 
Q 2847 2600 2669 2842 
Q 2491 3084 2119 3084 
Q 1678 3084 1418 2786 
Q 1159 2488 1159 1978 
L 1159 0 
L 581 0 
L 581 3500 
L 1159 3500 
L 1159 2956 
Q 1356 3278 1631 3431 
Q 1906 3584 2284 3584 
Q 2666 3584 2933 3390 
Q 3200 3197 3328 2828 
z
" transform="scale(0.015625)"/>
       <path id="DejaVuSans-6c" d="M 603 4863 
L 1178 4863 
L 1178 0 
L 603 0 
L 603 4863 
z
" transform="scale(0.015625)"/>
       <path id="DejaVuSans-69" d="M 603 3500 
L 1178 3500 
L 1178 0 
L 603 0 
L 603 3500 
z
M 603 4863 
L 1178 4863 
L 1178 4134 
L 603 4134 
L 603 4863 
z
" transform="scale(0.015625)"/>
       <path id="DejaVuSans-6e" d="M 3513 2113 
L 3513 0 
L 2938 0 
L 2938 2094 
Q 2938 2591 2744 2837 
Q 2550 3084 2163 3084 
Q 1697 3084 1428 2787 
Q 1159 2491 1159 1978 
L 1159 0 
L 581 0 
L 581 3500 
L 1159 3500 
L 1159 2956 
Q 1366 3272 1645 3428 
Q 1925 3584 2291 3584 
Q 2894 3584 3203 3211 
Q 3513 2838 3513 2113 
z
" transform="scale(0.015625)"/>
       <path id="DejaVuSans-74" d="M 1172 4494 
L 1172 3500 
L 2356 3500 
L 2356 3053 
L 1172 3053 
L 1172 1153 
Q 1172 725 1289 603 
Q 1406 481 1766 481 
L 2356 481 
L 2356 0 
L 1766 0 
Q 1100 0 847 248 
Q 594 497 594 1153 
L 594 3053 
L 172 3053 
L 172 3500 
L 594 3500 
L 594 4494 
L 1172 4494 
z
" transform="scale(0.015625)"/>
       <path id="DejaVuSans-62" d="M 3116 1747 
Q 3116 2381 2855 2742 
Q 2594 3103 2138 3103 
Q 1681 3103 1420 2742 
Q 1159 2381 1159 1747 
Q 1159 1113 1420 752 
Q 1681 391 2138 391 
Q 2594 391 2855 752 
Q 3116 1113 3116 1747 
z
M 1159 2969 
Q 1341 3281 1617 3432 
Q 1894 3584 2278 3584 
Q 2916 3584 3314 3078 
Q 3713 2572 3713 1747 
Q 3713 922 3314 415 
Q 2916 -91 2278 -91 
Q 1894 -91 1617 61 
Q 1341 213 1159 525 
L 1159 0 
L 581 0 
L 581 4863 
L 1159 4863 
L 1159 2969 
z
" transform="scale(0.015625)"/>
       <path id="DejaVuSans-75" d="M 544 1381 
L 544 3500 
L 1119 3500 
L 1119 1403 
Q 1119 906 1312 657 
Q 1506 409 1894 409 
Q 2359 409 2629 706 
Q 2900 1003 2900 1516 
L 2900 3500 
L 3475 3500 
L 3475 0 
L 2900 0 
L 2900 538 
Q 2691 219 2414 64 
Q 2138 -91 1772 -91 
Q 1169 -91 856 284 
Q 544 659 544 1381 
z
M 1991 3584 
L 1991 3584 
z
" transform="scale(0.015625)"/>
       <path id="DejaVuSans-6f" d="M 1959 3097 
Q 1497 3097 1228 2736 
Q 959 2375 959 1747 
Q 959 1119 1226 758 
Q 1494 397 1959 397 
Q 2419 397 2687 759 
Q 2956 1122 2956 1747 
Q 2956 2369 2687 2733 
Q 2419 3097 1959 3097 
z
M 1959 3584 
Q 2709 3584 3137 3096 
Q 3566 2609 3566 1747 
Q 3566 888 3137 398 
Q 2709 -91 1959 -91 
Q 1206 -91 779 398 
Q 353 888 353 1747 
Q 353 2609 779 3096 
Q 1206 3584 1959 3584 
z
" transform="scale(0.015625)"/>
       <path id="DejaVuSans-78" d="M 3513 3500 
L 2247 1797 
L 3578 0 
L 2900 0 
L 1881 1375 
L 863 0 
L 184 0 
L 1544 1831 
L 300 3500 
L 978 3500 
L 1906 2253 
L 2834 3500 
L 3513 3500 
z
" transform="scale(0.015625)"/>
       <path id="DejaVuSans-63" d="M 3122 3366 
L 3122 2828 
Q 2878 2963 2633 3030 
Q 2388 3097 2138 3097 
Q 1578 3097 1268 2742 
Q 959 2388 959 1747 
Q 959 1106 1268 751 
Q 1578 397 2138 397 
Q 2388 397 2633 464 
Q 2878 531 3122 666 
L 3122 134 
Q 2881 22 2623 -34 
Q 2366 -91 2075 -91 
Q 1284 -91 818 406 
Q 353 903 353 1747 
Q 353 2603 823 3093 
Q 1294 3584 2113 3584 
Q 2378 3584 2631 3529 
Q 2884 3475 3122 3366 
z
" transform="scale(0.015625)"/>
      </defs>
      <use xlink:href="#DejaVuSans-53"/>
      <use xlink:href="#DejaVuSans-61" x="63.476562"/>
      <use xlink:href="#DejaVuSans-6d" x="124.755859"/>
      <use xlink:href="#DejaVuSans-70" x="222.167969"/>
      <use xlink:href="#DejaVuSans-6c" x="285.644531"/>
      <use xlink:href="#DejaVuSans-69" x="313.427734"/>
      <use xlink:href="#DejaVuSans-6e" x="341.210938"/>
      <use xlink:href="#DejaVuSans-67" x="404.589844"/>
      <use xlink:href="#DejaVuSans-20" x="468.066406"/>
      <use xlink:href="#DejaVuSans-64" x="499.853516"/>
      <use xlink:href="#DejaVuSans-69" x="563.330078"/>
      <use xlink:href="#DejaVuSans-73" x="591.113281"/>
      <use xlink:href="#DejaVuSans-74" x="643.212891"/>
      <use xlink:href="#DejaVuSans-72" x="682.421875"/>
      <use xlink:href="#DejaVuSans-69" x="723.535156"/>
      <use xlink:href="#DejaVuSans-62" x="751.318359"/>
      <use xlink:href="#DejaVuSans-75" x="814.794922"/>
      <use xlink:href="#DejaVuSans-74" x="878.173828"/>
      <use xlink:href="#DejaVuSans-69" x="917.382812"/>
      <use xlink:href="#DejaVuSans-6f" x="945.166016"/>
      <use xlink:href="#DejaVuSans-6e" x="1006.347656"/>
      <use xlink:href="#DejaVuSans-20" x="1069.726562"/>
      <use xlink:href="#DejaVuSans-66" x="1101.513672"/>
      <use xlink:href="#DejaVuSans-6f" x="1136.71875"/>
      <use xlink:href="#DejaVuSans-72" x="1197.900391"/>
      <use xlink:href="#DejaVuSans-20" x="1239.013672"/>
      <use xlink:href="#DejaVuSans-6e" x="1270.800781"/>
      <use xlink:href="#DejaVuSans-75" x="1334.179688"/>
      <use xlink:href="#DejaVuSans-6c" x="1397.558594"/>
      <use xlink:href="#DejaVuSans-6c" x="1425.341797"/>
      <use xlink:href="#DejaVuSans-20" x="1453.125"/>
      <use xlink:href="#DejaVuSans-28" x="1484.912109"/>
      <use xlink:href="#DejaVuSans-65" x="1523.925781"/>
      <use xlink:href="#DejaVuSans-78" x="1583.699219"/>
      <use xlink:href="#DejaVuSans-61" x="1642.878906"/>
      <use xlink:href="#DejaVuSans-63" x="1704.158203"/>
      <use xlink:href="#DejaVuSans-74" x="1759.138672"/>
      <use xlink:href="#DejaVuSans-29" x="1798.347656"/>
     </g>
    </g>
    <g id="line2d_18">
     <path d="M 193.985625 71.450125 
L 203.985625 71.450125 
L 213.985625 71.450125 
" style="fill: none; stroke: #ff0000; stroke-width: 2; stroke-linecap: square"/>
    </g>
    <g id="text_19">
     <!-- Do not reject null if $\overline{T}$ in this range -->
     <g transform="translate(221.985625 74.950125)scale(0.1 -0.1)">
      <defs>
       <path id="DejaVuSans-44" d="M 1259 4147 
L 1259 519 
L 2022 519 
Q 2988 519 3436 956 
Q 3884 1394 3884 2338 
Q 3884 3275 3436 3711 
Q 2988 4147 2022 4147 
L 1259 4147 
z
M 628 4666 
L 1925 4666 
Q 3281 4666 3915 4102 
Q 4550 3538 4550 2338 
Q 4550 1131 3912 565 
Q 3275 0 1925 0 
L 628 0 
L 628 4666 
z
" transform="scale(0.015625)"/>
       <path id="DejaVuSans-6a" d="M 603 3500 
L 1178 3500 
L 1178 -63 
Q 1178 -731 923 -1031 
Q 669 -1331 103 -1331 
L -116 -1331 
L -116 -844 
L 38 -844 
Q 366 -844 484 -692 
Q 603 -541 603 -63 
L 603 3500 
z
M 603 4863 
L 1178 4863 
L 1178 4134 
L 603 4134 
L 603 4863 
z
" transform="scale(0.015625)"/>
       <path id="DejaVuSans-68" d="M 3513 2113 
L 3513 0 
L 2938 0 
L 2938 2094 
Q 2938 2591 2744 2837 
Q 2550 3084 2163 3084 
Q 1697 3084 1428 2787 
Q 1159 2491 1159 1978 
L 1159 0 
L 581 0 
L 581 4863 
L 1159 4863 
L 1159 2956 
Q 1366 3272 1645 3428 
Q 1925 3584 2291 3584 
Q 2894 3584 3203 3211 
Q 3513 2838 3513 2113 
z
" transform="scale(0.015625)"/>
      </defs>
      <use xlink:href="#DejaVuSans-44" transform="translate(0 0.34375)"/>
      <use xlink:href="#DejaVuSans-6f" transform="translate(77.001953 0.34375)"/>
      <use xlink:href="#DejaVuSans-20" transform="translate(138.183594 0.34375)"/>
      <use xlink:href="#DejaVuSans-6e" transform="translate(169.970703 0.34375)"/>
      <use xlink:href="#DejaVuSans-6f" transform="translate(233.349609 0.34375)"/>
      <use xlink:href="#DejaVuSans-74" transform="translate(294.53125 0.34375)"/>
      <use xlink:href="#DejaVuSans-20" transform="translate(333.740234 0.34375)"/>
      <use xlink:href="#DejaVuSans-72" transform="translate(365.527344 0.34375)"/>
      <use xlink:href="#DejaVuSans-65" transform="translate(406.640625 0.34375)"/>
      <use xlink:href="#DejaVuSans-6a" transform="translate(468.164062 0.34375)"/>
      <use xlink:href="#DejaVuSans-65" transform="translate(495.947266 0.34375)"/>
      <use xlink:href="#DejaVuSans-63" transform="translate(557.470703 0.34375)"/>
      <use xlink:href="#DejaVuSans-74" transform="translate(612.451172 0.34375)"/>
      <use xlink:href="#DejaVuSans-20" transform="translate(651.660156 0.34375)"/>
      <use xlink:href="#DejaVuSans-6e" transform="translate(683.447266 0.34375)"/>
      <use xlink:href="#DejaVuSans-75" transform="translate(746.826172 0.34375)"/>
      <use xlink:href="#DejaVuSans-6c" transform="translate(810.205078 0.34375)"/>
      <use xlink:href="#DejaVuSans-6c" transform="translate(837.988281 0.34375)"/>
      <use xlink:href="#DejaVuSans-20" transform="translate(865.771484 0.34375)"/>
      <use xlink:href="#DejaVuSans-69" transform="translate(897.558594 0.34375)"/>
      <use xlink:href="#DejaVuSans-66" transform="translate(925.341797 0.34375)"/>
      <use xlink:href="#DejaVuSans-20" transform="translate(960.546875 0.34375)"/>
      <use xlink:href="#DejaVuSans-Oblique-54" transform="translate(992.333984 0.84375)"/>
      <use xlink:href="#DejaVuSans-20" transform="translate(1053.417969 0.34375)"/>
      <use xlink:href="#DejaVuSans-69" transform="translate(1085.205078 0.34375)"/>
      <use xlink:href="#DejaVuSans-6e" transform="translate(1112.988281 0.34375)"/>
      <use xlink:href="#DejaVuSans-20" transform="translate(1176.367188 0.34375)"/>
      <use xlink:href="#DejaVuSans-74" transform="translate(1208.154297 0.34375)"/>
      <use xlink:href="#DejaVuSans-68" transform="translate(1247.363281 0.34375)"/>
      <use xlink:href="#DejaVuSans-69" transform="translate(1310.742188 0.34375)"/>
      <use xlink:href="#DejaVuSans-73" transform="translate(1338.525391 0.34375)"/>
      <use xlink:href="#DejaVuSans-20" transform="translate(1390.625 0.34375)"/>
      <use xlink:href="#DejaVuSans-72" transform="translate(1422.412109 0.34375)"/>
      <use xlink:href="#DejaVuSans-61" transform="translate(1463.525391 0.34375)"/>
      <use xlink:href="#DejaVuSans-6e" transform="translate(1524.804688 0.34375)"/>
      <use xlink:href="#DejaVuSans-67" transform="translate(1588.183594 0.34375)"/>
      <use xlink:href="#DejaVuSans-65" transform="translate(1651.660156 0.34375)"/>
      <path d="M 992.333984 85.5 
L 992.333984 91.75 
L 1053.417969 91.75 
L 1053.417969 85.5 
L 992.333984 85.5 
z
"/>
     </g>
    </g>
    <g id="patch_108">
     <path d="M 193.985625 89.648562 
L 213.985625 89.648562 
L 213.985625 82.648562 
L 193.985625 82.648562 
z
" style="fill: #00ff00; fill-opacity: 0.5; stroke: #00ff00; stroke-opacity: 0.5; stroke-linejoin: miter"/>
    </g>
    <g id="text_20">
     <!-- Simulated data - non-rejected -->
     <g transform="translate(221.985625 89.648562)scale(0.1 -0.1)">
      <defs>
       <path id="DejaVuSans-2d" d="M 313 2009 
L 1997 2009 
L 1997 1497 
L 313 1497 
L 313 2009 
z
" transform="scale(0.015625)"/>
      </defs>
      <use xlink:href="#DejaVuSans-53"/>
      <use xlink:href="#DejaVuSans-69" x="63.476562"/>
      <use xlink:href="#DejaVuSans-6d" x="91.259766"/>
      <use xlink:href="#DejaVuSans-75" x="188.671875"/>
      <use xlink:href="#DejaVuSans-6c" x="252.050781"/>
      <use xlink:href="#DejaVuSans-61" x="279.833984"/>
      <use xlink:href="#DejaVuSans-74" x="341.113281"/>
      <use xlink:href="#DejaVuSans-65" x="380.322266"/>
      <use xlink:href="#DejaVuSans-64" x="441.845703"/>
      <use xlink:href="#DejaVuSans-20" x="505.322266"/>
      <use xlink:href="#DejaVuSans-64" x="537.109375"/>
      <use xlink:href="#DejaVuSans-61" x="600.585938"/>
      <use xlink:href="#DejaVuSans-74" x="661.865234"/>
      <use xlink:href="#DejaVuSans-61" x="701.074219"/>
      <use xlink:href="#DejaVuSans-20" x="762.353516"/>
      <use xlink:href="#DejaVuSans-2d" x="794.140625"/>
      <use xlink:href="#DejaVuSans-20" x="830.224609"/>
      <use xlink:href="#DejaVuSans-6e" x="862.011719"/>
      <use xlink:href="#DejaVuSans-6f" x="925.390625"/>
      <use xlink:href="#DejaVuSans-6e" x="986.572266"/>
      <use xlink:href="#DejaVuSans-2d" x="1049.951172"/>
      <use xlink:href="#DejaVuSans-72" x="1086.035156"/>
      <use xlink:href="#DejaVuSans-65" x="1124.898438"/>
      <use xlink:href="#DejaVuSans-6a" x="1186.421875"/>
      <use xlink:href="#DejaVuSans-65" x="1214.205078"/>
      <use xlink:href="#DejaVuSans-63" x="1275.728516"/>
      <use xlink:href="#DejaVuSans-74" x="1330.708984"/>
      <use xlink:href="#DejaVuSans-65" x="1369.917969"/>
      <use xlink:href="#DejaVuSans-64" x="1431.441406"/>
     </g>
    </g>
    <g id="patch_109">
     <path d="M 193.985625 104.326687 
L 213.985625 104.326687 
L 213.985625 97.326687 
L 193.985625 97.326687 
z
" style="fill: #0000ff; opacity: 0.5"/>
    </g>
    <g id="text_21">
     <!-- Simulated data - rejected -->
     <g transform="translate(221.985625 104.326687)scale(0.1 -0.1)">
      <use xlink:href="#DejaVuSans-53"/>
      <use xlink:href="#DejaVuSans-69" x="63.476562"/>
      <use xlink:href="#DejaVuSans-6d" x="91.259766"/>
      <use xlink:href="#DejaVuSans-75" x="188.671875"/>
      <use xlink:href="#DejaVuSans-6c" x="252.050781"/>
      <use xlink:href="#DejaVuSans-61" x="279.833984"/>
      <use xlink:href="#DejaVuSans-74" x="341.113281"/>
      <use xlink:href="#DejaVuSans-65" x="380.322266"/>
      <use xlink:href="#DejaVuSans-64" x="441.845703"/>
      <use xlink:href="#DejaVuSans-20" x="505.322266"/>
      <use xlink:href="#DejaVuSans-64" x="537.109375"/>
      <use xlink:href="#DejaVuSans-61" x="600.585938"/>
      <use xlink:href="#DejaVuSans-74" x="661.865234"/>
      <use xlink:href="#DejaVuSans-61" x="701.074219"/>
      <use xlink:href="#DejaVuSans-20" x="762.353516"/>
      <use xlink:href="#DejaVuSans-2d" x="794.140625"/>
      <use xlink:href="#DejaVuSans-20" x="830.224609"/>
      <use xlink:href="#DejaVuSans-72" x="862.011719"/>
      <use xlink:href="#DejaVuSans-65" x="900.875"/>
      <use xlink:href="#DejaVuSans-6a" x="962.398438"/>
      <use xlink:href="#DejaVuSans-65" x="990.181641"/>
      <use xlink:href="#DejaVuSans-63" x="1051.705078"/>
      <use xlink:href="#DejaVuSans-74" x="1106.685547"/>
      <use xlink:href="#DejaVuSans-65" x="1145.894531"/>
      <use xlink:href="#DejaVuSans-64" x="1207.417969"/>
     </g>
    </g>
   </g>
  </g>
 </g>
 <defs>
  <clipPath id="p853148be5d">
   <rect x="57.6" y="41.472" width="357.12" height="266.112"/>
  </clipPath>
 </defs>
</svg>
