<?xml version="1.0" encoding="utf-8" standalone="no"?>
<!DOCTYPE svg PUBLIC "-//W3C//DTD SVG 1.1//EN"
  "http://www.w3.org/Graphics/SVG/1.1/DTD/svg11.dtd">
<!-- Created with matplotlib (https://matplotlib.org/) -->
<svg height="288pt" version="1.1" viewBox="0 0 432 288" width="432pt" xmlns="http://www.w3.org/2000/svg" xmlns:xlink="http://www.w3.org/1999/xlink">
 <metadata>
  <rdf:RDF xmlns:cc="http://creativecommons.org/ns#" xmlns:dc="http://purl.org/dc/elements/1.1/" xmlns:rdf="http://www.w3.org/1999/02/22-rdf-syntax-ns#">
   <cc:Work>
    <dc:type rdf:resource="http://purl.org/dc/dcmitype/StillImage"/>
    <dc:date>2021-04-14T12:51:57.537303</dc:date>
    <dc:format>image/svg+xml</dc:format>
    <dc:creator>
     <cc:Agent>
      <dc:title>Matplotlib v3.3.2, https://matplotlib.org/</dc:title>
     </cc:Agent>
    </dc:creator>
   </cc:Work>
  </rdf:RDF>
 </metadata>
 <defs>
  <style type="text/css">*{stroke-linecap:butt;stroke-linejoin:round;}</style>
 </defs>
 <g id="figure_1">
  <g id="patch_1">
   <path d="M 0 288 
L 432 288 
L 432 0 
L 0 0 
z
" style="fill:none;"/>
  </g>
  <g id="axes_1">
   <g id="patch_2">
    <path d="M 54 252 
L 321.84 252 
L 321.84 34.56 
L 54 34.56 
z
" style="fill:none;"/>
   </g>
   <g id="PolyCollection_1">
    <path clip-path="url(#pebd55baf59)" d="M 211.356 194.922 
L 211.356 189.486 
L 218.052 189.486 
L 218.052 194.922 
L 211.356 194.922 
z
" style="fill:#440154;"/>
    <path clip-path="url(#pebd55baf59)" d="M 218.052 194.922 
L 218.052 189.486 
L 224.748 189.486 
L 224.748 194.922 
L 218.052 194.922 
z
" style="fill:#440154;"/>
    <path clip-path="url(#pebd55baf59)" d="M 191.268 189.486 
L 191.268 184.05 
L 197.964 184.05 
L 197.964 189.486 
L 191.268 189.486 
z
" style="fill:#440154;"/>
    <path clip-path="url(#pebd55baf59)" d="M 197.964 189.486 
L 197.964 184.05 
L 204.66 184.05 
L 204.66 189.486 
L 197.964 189.486 
z
" style="fill:#440154;"/>
    <path clip-path="url(#pebd55baf59)" d="M 204.66 189.486 
L 204.66 184.05 
L 211.356 184.05 
L 211.356 189.486 
L 204.66 189.486 
z
" style="fill:#440154;"/>
    <path clip-path="url(#pebd55baf59)" d="M 211.356 189.486 
L 211.356 184.05 
L 218.052 184.05 
L 218.052 189.486 
L 211.356 189.486 
z
" style="fill:#440154;"/>
    <path clip-path="url(#pebd55baf59)" d="M 218.052 189.486 
L 218.052 184.05 
L 224.748 184.05 
L 224.748 189.486 
L 218.052 189.486 
z
" style="fill:#440154;"/>
    <path clip-path="url(#pebd55baf59)" d="M 224.748 189.486 
L 224.748 184.05 
L 231.444 184.05 
L 231.444 189.486 
L 224.748 189.486 
z
" style="fill:#440154;"/>
    <path clip-path="url(#pebd55baf59)" d="M 177.876 184.05 
L 177.876 178.614 
L 184.572 178.614 
L 184.572 184.05 
L 177.876 184.05 
z
" style="fill:#440154;"/>
    <path clip-path="url(#pebd55baf59)" d="M 184.572 184.05 
L 184.572 178.614 
L 191.268 178.614 
L 191.268 184.05 
L 184.572 184.05 
z
" style="fill:#440154;"/>
    <path clip-path="url(#pebd55baf59)" d="M 191.268 184.05 
L 191.268 178.614 
L 197.964 178.614 
L 197.964 184.05 
L 191.268 184.05 
z
" style="fill:#21918c;"/>
    <path clip-path="url(#pebd55baf59)" d="M 197.964 184.05 
L 197.964 178.614 
L 204.66 178.614 
L 204.66 184.05 
L 197.964 184.05 
z
" style="fill:#21918c;"/>
    <path clip-path="url(#pebd55baf59)" d="M 204.66 184.05 
L 204.66 178.614 
L 211.356 178.614 
L 211.356 184.05 
L 204.66 184.05 
z
" style="fill:#21918c;"/>
    <path clip-path="url(#pebd55baf59)" d="M 211.356 184.05 
L 211.356 178.614 
L 218.052 178.614 
L 218.052 184.05 
L 211.356 184.05 
z
" style="fill:#21918c;"/>
    <path clip-path="url(#pebd55baf59)" d="M 218.052 184.05 
L 218.052 178.614 
L 224.748 178.614 
L 224.748 184.05 
L 218.052 184.05 
z
" style="fill:#21918c;"/>
    <path clip-path="url(#pebd55baf59)" d="M 224.748 184.05 
L 224.748 178.614 
L 231.444 178.614 
L 231.444 184.05 
L 224.748 184.05 
z
" style="fill:#440154;"/>
    <path clip-path="url(#pebd55baf59)" d="M 171.18 178.614 
L 171.18 173.178 
L 177.876 173.178 
L 177.876 178.614 
L 171.18 178.614 
z
" style="fill:#440154;"/>
    <path clip-path="url(#pebd55baf59)" d="M 177.876 178.614 
L 177.876 173.178 
L 184.572 173.178 
L 184.572 178.614 
L 177.876 178.614 
z
" style="fill:#21918c;"/>
    <path clip-path="url(#pebd55baf59)" d="M 184.572 178.614 
L 184.572 173.178 
L 191.268 173.178 
L 191.268 178.614 
L 184.572 178.614 
z
" style="fill:#21918c;"/>
    <path clip-path="url(#pebd55baf59)" d="M 191.268 178.614 
L 191.268 173.178 
L 197.964 173.178 
L 197.964 178.614 
L 191.268 178.614 
z
" style="fill:#fde725;"/>
    <path clip-path="url(#pebd55baf59)" d="M 197.964 178.614 
L 197.964 173.178 
L 204.66 173.178 
L 204.66 178.614 
L 197.964 178.614 
z
" style="fill:#fde725;"/>
    <path clip-path="url(#pebd55baf59)" d="M 204.66 178.614 
L 204.66 173.178 
L 211.356 173.178 
L 211.356 178.614 
L 204.66 178.614 
z
" style="fill:#fde725;"/>
    <path clip-path="url(#pebd55baf59)" d="M 211.356 178.614 
L 211.356 173.178 
L 218.052 173.178 
L 218.052 178.614 
L 211.356 178.614 
z
" style="fill:#21918c;"/>
    <path clip-path="url(#pebd55baf59)" d="M 218.052 178.614 
L 218.052 173.178 
L 224.748 173.178 
L 224.748 178.614 
L 218.052 178.614 
z
" style="fill:#21918c;"/>
    <path clip-path="url(#pebd55baf59)" d="M 157.788 173.178 
L 157.788 167.742 
L 164.484 167.742 
L 164.484 173.178 
L 157.788 173.178 
z
" style="fill:#440154;"/>
    <path clip-path="url(#pebd55baf59)" d="M 164.484 173.178 
L 164.484 167.742 
L 171.18 167.742 
L 171.18 173.178 
L 164.484 173.178 
z
" style="fill:#21918c;"/>
    <path clip-path="url(#pebd55baf59)" d="M 171.18 173.178 
L 171.18 167.742 
L 177.876 167.742 
L 177.876 173.178 
L 171.18 173.178 
z
" style="fill:#21918c;"/>
    <path clip-path="url(#pebd55baf59)" d="M 177.876 173.178 
L 177.876 167.742 
L 184.572 167.742 
L 184.572 173.178 
L 177.876 173.178 
z
" style="fill:#fde725;"/>
    <path clip-path="url(#pebd55baf59)" d="M 184.572 173.178 
L 184.572 167.742 
L 191.268 167.742 
L 191.268 173.178 
L 184.572 173.178 
z
" style="fill:#fde725;"/>
    <path clip-path="url(#pebd55baf59)" d="M 191.268 173.178 
L 191.268 167.742 
L 197.964 167.742 
L 197.964 173.178 
L 191.268 173.178 
z
" style="fill:#fde725;"/>
    <path clip-path="url(#pebd55baf59)" d="M 197.964 173.178 
L 197.964 167.742 
L 204.66 167.742 
L 204.66 173.178 
L 197.964 173.178 
z
" style="fill:#fde725;"/>
    <path clip-path="url(#pebd55baf59)" d="M 204.66 173.178 
L 204.66 167.742 
L 211.356 167.742 
L 211.356 173.178 
L 204.66 173.178 
z
" style="fill:#fde725;"/>
    <path clip-path="url(#pebd55baf59)" d="M 211.356 173.178 
L 211.356 167.742 
L 218.052 167.742 
L 218.052 173.178 
L 211.356 173.178 
z
" style="fill:#fde725;"/>
    <path clip-path="url(#pebd55baf59)" d="M 151.092 167.742 
L 151.092 162.306 
L 157.788 162.306 
L 157.788 167.742 
L 151.092 167.742 
z
" style="fill:#440154;"/>
    <path clip-path="url(#pebd55baf59)" d="M 157.788 167.742 
L 157.788 162.306 
L 164.484 162.306 
L 164.484 167.742 
L 157.788 167.742 
z
" style="fill:#21918c;"/>
    <path clip-path="url(#pebd55baf59)" d="M 164.484 167.742 
L 164.484 162.306 
L 171.18 162.306 
L 171.18 167.742 
L 164.484 167.742 
z
" style="fill:#fde725;"/>
    <path clip-path="url(#pebd55baf59)" d="M 171.18 167.742 
L 171.18 162.306 
L 177.876 162.306 
L 177.876 167.742 
L 171.18 167.742 
z
" style="fill:#fde725;"/>
    <path clip-path="url(#pebd55baf59)" d="M 204.66 167.742 
L 204.66 162.306 
L 211.356 162.306 
L 211.356 167.742 
L 204.66 167.742 
z
" style="fill:#fde725;"/>
    <path clip-path="url(#pebd55baf59)" d="M 144.396 162.306 
L 144.396 156.87 
L 151.092 156.87 
L 151.092 162.306 
L 144.396 162.306 
z
" style="fill:#21918c;"/>
    <path clip-path="url(#pebd55baf59)" d="M 151.092 162.306 
L 151.092 156.87 
L 157.788 156.87 
L 157.788 162.306 
L 151.092 162.306 
z
" style="fill:#fde725;"/>
    <path clip-path="url(#pebd55baf59)" d="M 157.788 162.306 
L 157.788 156.87 
L 164.484 156.87 
L 164.484 162.306 
L 157.788 162.306 
z
" style="fill:#fde725;"/>
    <path clip-path="url(#pebd55baf59)" d="M 131.004 156.87 
L 131.004 151.434 
L 137.7 151.434 
L 137.7 156.87 
L 131.004 156.87 
z
" style="fill:#440154;"/>
    <path clip-path="url(#pebd55baf59)" d="M 137.7 156.87 
L 137.7 151.434 
L 144.396 151.434 
L 144.396 156.87 
L 137.7 156.87 
z
" style="fill:#21918c;"/>
    <path clip-path="url(#pebd55baf59)" d="M 144.396 156.87 
L 144.396 151.434 
L 151.092 151.434 
L 151.092 156.87 
L 144.396 156.87 
z
" style="fill:#fde725;"/>
    <path clip-path="url(#pebd55baf59)" d="M 124.308 151.434 
L 124.308 145.998 
L 131.004 145.998 
L 131.004 151.434 
L 124.308 151.434 
z
" style="fill:#440154;"/>
    <path clip-path="url(#pebd55baf59)" d="M 131.004 151.434 
L 131.004 145.998 
L 137.7 145.998 
L 137.7 151.434 
L 131.004 151.434 
z
" style="fill:#21918c;"/>
    <path clip-path="url(#pebd55baf59)" d="M 137.7 151.434 
L 137.7 145.998 
L 144.396 145.998 
L 144.396 151.434 
L 137.7 151.434 
z
" style="fill:#fde725;"/>
    <path clip-path="url(#pebd55baf59)" d="M 117.612 145.998 
L 117.612 140.562 
L 124.308 140.562 
L 124.308 145.998 
L 117.612 145.998 
z
" style="fill:#440154;"/>
    <path clip-path="url(#pebd55baf59)" d="M 124.308 145.998 
L 124.308 140.562 
L 131.004 140.562 
L 131.004 145.998 
L 124.308 145.998 
z
" style="fill:#21918c;"/>
    <path clip-path="url(#pebd55baf59)" d="M 131.004 145.998 
L 131.004 140.562 
L 137.7 140.562 
L 137.7 145.998 
L 131.004 145.998 
z
" style="fill:#fde725;"/>
    <path clip-path="url(#pebd55baf59)" d="M 110.916 140.562 
L 110.916 135.126 
L 117.612 135.126 
L 117.612 140.562 
L 110.916 140.562 
z
" style="fill:#440154;"/>
    <path clip-path="url(#pebd55baf59)" d="M 117.612 140.562 
L 117.612 135.126 
L 124.308 135.126 
L 124.308 140.562 
L 117.612 140.562 
z
" style="fill:#fde725;"/>
    <path clip-path="url(#pebd55baf59)" d="M 104.22 135.126 
L 104.22 129.69 
L 110.916 129.69 
L 110.916 135.126 
L 104.22 135.126 
z
" style="fill:#440154;"/>
    <path clip-path="url(#pebd55baf59)" d="M 110.916 135.126 
L 110.916 129.69 
L 117.612 129.69 
L 117.612 135.126 
L 110.916 135.126 
z
" style="fill:#fde725;"/>
    <path clip-path="url(#pebd55baf59)" d="M 97.524 129.69 
L 97.524 124.254 
L 104.22 124.254 
L 104.22 129.69 
L 97.524 129.69 
z
" style="fill:#440154;"/>
    <path clip-path="url(#pebd55baf59)" d="M 104.22 129.69 
L 104.22 124.254 
L 110.916 124.254 
L 110.916 129.69 
L 104.22 129.69 
z
" style="fill:#fde725;"/>
    <path clip-path="url(#pebd55baf59)" d="M 90.828 124.254 
L 90.828 118.818 
L 97.524 118.818 
L 97.524 124.254 
L 90.828 124.254 
z
" style="fill:#21918c;"/>
    <path clip-path="url(#pebd55baf59)" d="M 97.524 124.254 
L 97.524 118.818 
L 104.22 118.818 
L 104.22 124.254 
L 97.524 124.254 
z
" style="fill:#fde725;"/>
    <path clip-path="url(#pebd55baf59)" d="M 84.132 118.818 
L 84.132 113.382 
L 90.828 113.382 
L 90.828 118.818 
L 84.132 118.818 
z
" style="fill:#21918c;"/>
    <path clip-path="url(#pebd55baf59)" d="M 90.828 118.818 
L 90.828 113.382 
L 97.524 113.382 
L 97.524 118.818 
L 90.828 118.818 
z
" style="fill:#fde725;"/>
    <path clip-path="url(#pebd55baf59)" d="M 77.436 113.382 
L 77.436 107.946 
L 84.132 107.946 
L 84.132 113.382 
L 77.436 113.382 
z
" style="fill:#21918c;"/>
    <path clip-path="url(#pebd55baf59)" d="M 84.132 113.382 
L 84.132 107.946 
L 90.828 107.946 
L 90.828 113.382 
L 84.132 113.382 
z
" style="fill:#fde725;"/>
    <path clip-path="url(#pebd55baf59)" d="M 70.74 107.946 
L 70.74 102.51 
L 77.436 102.51 
L 77.436 107.946 
L 70.74 107.946 
z
" style="fill:#21918c;"/>
    <path clip-path="url(#pebd55baf59)" d="M 77.436 107.946 
L 77.436 102.51 
L 84.132 102.51 
L 84.132 107.946 
L 77.436 107.946 
z
" style="fill:#fde725;"/>
    <path clip-path="url(#pebd55baf59)" d="M 64.044 102.51 
L 64.044 97.074 
L 70.74 97.074 
L 70.74 102.51 
L 64.044 102.51 
z
" style="fill:#21918c;"/>
    <path clip-path="url(#pebd55baf59)" d="M 70.74 102.51 
L 70.74 97.074 
L 77.436 97.074 
L 77.436 102.51 
L 70.74 102.51 
z
" style="fill:#fde725;"/>
    <path clip-path="url(#pebd55baf59)" d="M 57.348 97.074 
L 57.348 91.638 
L 64.044 91.638 
L 64.044 97.074 
L 57.348 97.074 
z
" style="fill:#21918c;"/>
    <path clip-path="url(#pebd55baf59)" d="M 64.044 97.074 
L 64.044 91.638 
L 70.74 91.638 
L 70.74 97.074 
L 64.044 97.074 
z
" style="fill:#fde725;"/>
    <path clip-path="url(#pebd55baf59)" d="M 50.652 91.638 
L 50.652 86.202 
L 57.348 86.202 
L 57.348 91.638 
L 50.652 91.638 
z
" style="fill:#21918c;"/>
    <path clip-path="url(#pebd55baf59)" d="M 57.348 91.638 
L 57.348 86.202 
L 64.044 86.202 
L 64.044 91.638 
L 57.348 91.638 
z
" style="fill:#fde725;"/>
    <path clip-path="url(#pebd55baf59)" d="M 50.652 86.202 
L 50.652 80.766 
L 57.348 80.766 
L 57.348 86.202 
L 50.652 86.202 
z
" style="fill:#fde725;"/>
   </g>
   <g id="matplotlib.axis_1">
    <g id="xtick_1">
     <g id="line2d_1">
      <defs>
       <path d="M 0 0 
L 0 3.5 
" id="mdd665be709" style="stroke:#000000;stroke-width:0.8;"/>
      </defs>
      <g>
       <use style="stroke:#000000;stroke-width:0.8;" x="54" xlink:href="#mdd665be709" y="252"/>
      </g>
     </g>
     <g id="text_1">
      <!-- 0.00 -->
      <g transform="translate(42.867188 266.598437)scale(0.1 -0.1)">
       <defs>
        <path d="M 31.78125 66.40625 
Q 24.171875 66.40625 20.328125 58.90625 
Q 16.5 51.421875 16.5 36.375 
Q 16.5 21.390625 20.328125 13.890625 
Q 24.171875 6.390625 31.78125 6.390625 
Q 39.453125 6.390625 43.28125 13.890625 
Q 47.125 21.390625 47.125 36.375 
Q 47.125 51.421875 43.28125 58.90625 
Q 39.453125 66.40625 31.78125 66.40625 
z
M 31.78125 74.21875 
Q 44.046875 74.21875 50.515625 64.515625 
Q 56.984375 54.828125 56.984375 36.375 
Q 56.984375 17.96875 50.515625 8.265625 
Q 44.046875 -1.421875 31.78125 -1.421875 
Q 19.53125 -1.421875 13.0625 8.265625 
Q 6.59375 17.96875 6.59375 36.375 
Q 6.59375 54.828125 13.0625 64.515625 
Q 19.53125 74.21875 31.78125 74.21875 
z
" id="DejaVuSans-48"/>
        <path d="M 10.6875 12.40625 
L 21 12.40625 
L 21 0 
L 10.6875 0 
z
" id="DejaVuSans-46"/>
       </defs>
       <use xlink:href="#DejaVuSans-48"/>
       <use x="63.623047" xlink:href="#DejaVuSans-46"/>
       <use x="95.410156" xlink:href="#DejaVuSans-48"/>
       <use x="159.033203" xlink:href="#DejaVuSans-48"/>
      </g>
     </g>
    </g>
    <g id="xtick_2">
     <g id="line2d_2">
      <g>
       <use style="stroke:#000000;stroke-width:0.8;" x="87.48" xlink:href="#mdd665be709" y="252"/>
      </g>
     </g>
     <g id="text_2">
      <!-- 0.05 -->
      <g transform="translate(76.347188 266.598437)scale(0.1 -0.1)">
       <defs>
        <path d="M 10.796875 72.90625 
L 49.515625 72.90625 
L 49.515625 64.59375 
L 19.828125 64.59375 
L 19.828125 46.734375 
Q 21.96875 47.46875 24.109375 47.828125 
Q 26.265625 48.1875 28.421875 48.1875 
Q 40.625 48.1875 47.75 41.5 
Q 54.890625 34.8125 54.890625 23.390625 
Q 54.890625 11.625 47.5625 5.09375 
Q 40.234375 -1.421875 26.90625 -1.421875 
Q 22.3125 -1.421875 17.546875 -0.640625 
Q 12.796875 0.140625 7.71875 1.703125 
L 7.71875 11.625 
Q 12.109375 9.234375 16.796875 8.0625 
Q 21.484375 6.890625 26.703125 6.890625 
Q 35.15625 6.890625 40.078125 11.328125 
Q 45.015625 15.765625 45.015625 23.390625 
Q 45.015625 31 40.078125 35.4375 
Q 35.15625 39.890625 26.703125 39.890625 
Q 22.75 39.890625 18.8125 39.015625 
Q 14.890625 38.140625 10.796875 36.28125 
z
" id="DejaVuSans-53"/>
       </defs>
       <use xlink:href="#DejaVuSans-48"/>
       <use x="63.623047" xlink:href="#DejaVuSans-46"/>
       <use x="95.410156" xlink:href="#DejaVuSans-48"/>
       <use x="159.033203" xlink:href="#DejaVuSans-53"/>
      </g>
     </g>
    </g>
    <g id="xtick_3">
     <g id="line2d_3">
      <g>
       <use style="stroke:#000000;stroke-width:0.8;" x="120.96" xlink:href="#mdd665be709" y="252"/>
      </g>
     </g>
     <g id="text_3">
      <!-- 0.10 -->
      <g transform="translate(109.827188 266.598437)scale(0.1 -0.1)">
       <defs>
        <path d="M 12.40625 8.296875 
L 28.515625 8.296875 
L 28.515625 63.921875 
L 10.984375 60.40625 
L 10.984375 69.390625 
L 28.421875 72.90625 
L 38.28125 72.90625 
L 38.28125 8.296875 
L 54.390625 8.296875 
L 54.390625 0 
L 12.40625 0 
z
" id="DejaVuSans-49"/>
       </defs>
       <use xlink:href="#DejaVuSans-48"/>
       <use x="63.623047" xlink:href="#DejaVuSans-46"/>
       <use x="95.410156" xlink:href="#DejaVuSans-49"/>
       <use x="159.033203" xlink:href="#DejaVuSans-48"/>
      </g>
     </g>
    </g>
    <g id="xtick_4">
     <g id="line2d_4">
      <g>
       <use style="stroke:#000000;stroke-width:0.8;" x="154.44" xlink:href="#mdd665be709" y="252"/>
      </g>
     </g>
     <g id="text_4">
      <!-- 0.15 -->
      <g transform="translate(143.307188 266.598437)scale(0.1 -0.1)">
       <use xlink:href="#DejaVuSans-48"/>
       <use x="63.623047" xlink:href="#DejaVuSans-46"/>
       <use x="95.410156" xlink:href="#DejaVuSans-49"/>
       <use x="159.033203" xlink:href="#DejaVuSans-53"/>
      </g>
     </g>
    </g>
    <g id="xtick_5">
     <g id="line2d_5">
      <g>
       <use style="stroke:#000000;stroke-width:0.8;" x="187.92" xlink:href="#mdd665be709" y="252"/>
      </g>
     </g>
     <g id="text_5">
      <!-- 0.20 -->
      <g transform="translate(176.787188 266.598437)scale(0.1 -0.1)">
       <defs>
        <path d="M 19.1875 8.296875 
L 53.609375 8.296875 
L 53.609375 0 
L 7.328125 0 
L 7.328125 8.296875 
Q 12.9375 14.109375 22.625 23.890625 
Q 32.328125 33.6875 34.8125 36.53125 
Q 39.546875 41.84375 41.421875 45.53125 
Q 43.3125 49.21875 43.3125 52.78125 
Q 43.3125 58.59375 39.234375 62.25 
Q 35.15625 65.921875 28.609375 65.921875 
Q 23.96875 65.921875 18.8125 64.3125 
Q 13.671875 62.703125 7.8125 59.421875 
L 7.8125 69.390625 
Q 13.765625 71.78125 18.9375 73 
Q 24.125 74.21875 28.421875 74.21875 
Q 39.75 74.21875 46.484375 68.546875 
Q 53.21875 62.890625 53.21875 53.421875 
Q 53.21875 48.921875 51.53125 44.890625 
Q 49.859375 40.875 45.40625 35.40625 
Q 44.1875 33.984375 37.640625 27.21875 
Q 31.109375 20.453125 19.1875 8.296875 
z
" id="DejaVuSans-50"/>
       </defs>
       <use xlink:href="#DejaVuSans-48"/>
       <use x="63.623047" xlink:href="#DejaVuSans-46"/>
       <use x="95.410156" xlink:href="#DejaVuSans-50"/>
       <use x="159.033203" xlink:href="#DejaVuSans-48"/>
      </g>
     </g>
    </g>
    <g id="xtick_6">
     <g id="line2d_6">
      <g>
       <use style="stroke:#000000;stroke-width:0.8;" x="221.4" xlink:href="#mdd665be709" y="252"/>
      </g>
     </g>
     <g id="text_6">
      <!-- 0.25 -->
      <g transform="translate(210.267188 266.598437)scale(0.1 -0.1)">
       <use xlink:href="#DejaVuSans-48"/>
       <use x="63.623047" xlink:href="#DejaVuSans-46"/>
       <use x="95.410156" xlink:href="#DejaVuSans-50"/>
       <use x="159.033203" xlink:href="#DejaVuSans-53"/>
      </g>
     </g>
    </g>
    <g id="xtick_7">
     <g id="line2d_7">
      <g>
       <use style="stroke:#000000;stroke-width:0.8;" x="254.88" xlink:href="#mdd665be709" y="252"/>
      </g>
     </g>
     <g id="text_7">
      <!-- 0.30 -->
      <g transform="translate(243.747188 266.598437)scale(0.1 -0.1)">
       <defs>
        <path d="M 40.578125 39.3125 
Q 47.65625 37.796875 51.625 33 
Q 55.609375 28.21875 55.609375 21.1875 
Q 55.609375 10.40625 48.1875 4.484375 
Q 40.765625 -1.421875 27.09375 -1.421875 
Q 22.515625 -1.421875 17.65625 -0.515625 
Q 12.796875 0.390625 7.625 2.203125 
L 7.625 11.71875 
Q 11.71875 9.328125 16.59375 8.109375 
Q 21.484375 6.890625 26.8125 6.890625 
Q 36.078125 6.890625 40.9375 10.546875 
Q 45.796875 14.203125 45.796875 21.1875 
Q 45.796875 27.640625 41.28125 31.265625 
Q 36.765625 34.90625 28.71875 34.90625 
L 20.21875 34.90625 
L 20.21875 43.015625 
L 29.109375 43.015625 
Q 36.375 43.015625 40.234375 45.921875 
Q 44.09375 48.828125 44.09375 54.296875 
Q 44.09375 59.90625 40.109375 62.90625 
Q 36.140625 65.921875 28.71875 65.921875 
Q 24.65625 65.921875 20.015625 65.03125 
Q 15.375 64.15625 9.8125 62.3125 
L 9.8125 71.09375 
Q 15.4375 72.65625 20.34375 73.4375 
Q 25.25 74.21875 29.59375 74.21875 
Q 40.828125 74.21875 47.359375 69.109375 
Q 53.90625 64.015625 53.90625 55.328125 
Q 53.90625 49.265625 50.4375 45.09375 
Q 46.96875 40.921875 40.578125 39.3125 
z
" id="DejaVuSans-51"/>
       </defs>
       <use xlink:href="#DejaVuSans-48"/>
       <use x="63.623047" xlink:href="#DejaVuSans-46"/>
       <use x="95.410156" xlink:href="#DejaVuSans-51"/>
       <use x="159.033203" xlink:href="#DejaVuSans-48"/>
      </g>
     </g>
    </g>
    <g id="xtick_8">
     <g id="line2d_8">
      <g>
       <use style="stroke:#000000;stroke-width:0.8;" x="288.36" xlink:href="#mdd665be709" y="252"/>
      </g>
     </g>
     <g id="text_8">
      <!-- 0.35 -->
      <g transform="translate(277.227188 266.598437)scale(0.1 -0.1)">
       <use xlink:href="#DejaVuSans-48"/>
       <use x="63.623047" xlink:href="#DejaVuSans-46"/>
       <use x="95.410156" xlink:href="#DejaVuSans-51"/>
       <use x="159.033203" xlink:href="#DejaVuSans-53"/>
      </g>
     </g>
    </g>
    <g id="xtick_9">
     <g id="line2d_9">
      <g>
       <use style="stroke:#000000;stroke-width:0.8;" x="321.84" xlink:href="#mdd665be709" y="252"/>
      </g>
     </g>
     <g id="text_9">
      <!-- 0.40 -->
      <g transform="translate(310.707188 266.598437)scale(0.1 -0.1)">
       <defs>
        <path d="M 37.796875 64.3125 
L 12.890625 25.390625 
L 37.796875 25.390625 
z
M 35.203125 72.90625 
L 47.609375 72.90625 
L 47.609375 25.390625 
L 58.015625 25.390625 
L 58.015625 17.1875 
L 47.609375 17.1875 
L 47.609375 0 
L 37.796875 0 
L 37.796875 17.1875 
L 4.890625 17.1875 
L 4.890625 26.703125 
z
" id="DejaVuSans-52"/>
       </defs>
       <use xlink:href="#DejaVuSans-48"/>
       <use x="63.623047" xlink:href="#DejaVuSans-46"/>
       <use x="95.410156" xlink:href="#DejaVuSans-52"/>
       <use x="159.033203" xlink:href="#DejaVuSans-48"/>
      </g>
     </g>
    </g>
    <g id="text_10">
     <!-- $\theta_l$ -->
     <g transform="translate(183.72 280.276563)scale(0.1 -0.1)">
      <defs>
       <path d="M 45.515625 34.671875 
L 14.453125 34.671875 
Q 12.359375 20.0625 14.5 13.875 
Q 17.1875 6.25 24.46875 6.25 
Q 31.78125 6.25 37.359375 13.921875 
Q 42.234375 20.65625 45.515625 34.671875 
z
M 47.015625 42.96875 
Q 48.34375 56.84375 46.625 61.71875 
Q 43.953125 69.4375 36.765625 69.4375 
Q 29.296875 69.4375 23.828125 61.8125 
Q 19.53125 55.671875 16.15625 42.96875 
z
M 38.1875 76.765625 
Q 49.90625 76.765625 54.59375 66.40625 
Q 59.28125 56.109375 55.71875 37.84375 
Q 52.203125 19.625 43.453125 9.28125 
Q 34.765625 -1.125 23.046875 -1.125 
Q 11.28125 -1.125 6.640625 9.28125 
Q 2 19.625 5.515625 37.84375 
Q 9.078125 56.109375 17.71875 66.40625 
Q 26.421875 76.765625 38.1875 76.765625 
z
" id="DejaVuSans-Oblique-952"/>
       <path d="M 18.3125 75.984375 
L 27.296875 75.984375 
L 12.5 0 
L 3.515625 0 
z
" id="DejaVuSans-Oblique-108"/>
      </defs>
      <use transform="translate(0 0.234375)" xlink:href="#DejaVuSans-Oblique-952"/>
      <use transform="translate(61.181641 -16.171875)scale(0.7)" xlink:href="#DejaVuSans-Oblique-108"/>
     </g>
    </g>
   </g>
   <g id="matplotlib.axis_2">
    <g id="ytick_1">
     <g id="line2d_10">
      <defs>
       <path d="M 0 0 
L -3.5 0 
" id="m64d4f67fb6" style="stroke:#000000;stroke-width:0.8;"/>
      </defs>
      <g>
       <use style="stroke:#000000;stroke-width:0.8;" x="54" xlink:href="#m64d4f67fb6" y="252"/>
      </g>
     </g>
     <g id="text_11">
      <!-- 0.60 -->
      <g transform="translate(24.734375 255.799219)scale(0.1 -0.1)">
       <defs>
        <path d="M 33.015625 40.375 
Q 26.375 40.375 22.484375 35.828125 
Q 18.609375 31.296875 18.609375 23.390625 
Q 18.609375 15.53125 22.484375 10.953125 
Q 26.375 6.390625 33.015625 6.390625 
Q 39.65625 6.390625 43.53125 10.953125 
Q 47.40625 15.53125 47.40625 23.390625 
Q 47.40625 31.296875 43.53125 35.828125 
Q 39.65625 40.375 33.015625 40.375 
z
M 52.59375 71.296875 
L 52.59375 62.3125 
Q 48.875 64.0625 45.09375 64.984375 
Q 41.3125 65.921875 37.59375 65.921875 
Q 27.828125 65.921875 22.671875 59.328125 
Q 17.53125 52.734375 16.796875 39.40625 
Q 19.671875 43.65625 24.015625 45.921875 
Q 28.375 48.1875 33.59375 48.1875 
Q 44.578125 48.1875 50.953125 41.515625 
Q 57.328125 34.859375 57.328125 23.390625 
Q 57.328125 12.15625 50.6875 5.359375 
Q 44.046875 -1.421875 33.015625 -1.421875 
Q 20.359375 -1.421875 13.671875 8.265625 
Q 6.984375 17.96875 6.984375 36.375 
Q 6.984375 53.65625 15.1875 63.9375 
Q 23.390625 74.21875 37.203125 74.21875 
Q 40.921875 74.21875 44.703125 73.484375 
Q 48.484375 72.75 52.59375 71.296875 
z
" id="DejaVuSans-54"/>
       </defs>
       <use xlink:href="#DejaVuSans-48"/>
       <use x="63.623047" xlink:href="#DejaVuSans-46"/>
       <use x="95.410156" xlink:href="#DejaVuSans-54"/>
       <use x="159.033203" xlink:href="#DejaVuSans-48"/>
      </g>
     </g>
    </g>
    <g id="ytick_2">
     <g id="line2d_11">
      <g>
       <use style="stroke:#000000;stroke-width:0.8;" x="54" xlink:href="#m64d4f67fb6" y="224.82"/>
      </g>
     </g>
     <g id="text_12">
      <!-- 0.65 -->
      <g transform="translate(24.734375 228.619219)scale(0.1 -0.1)">
       <use xlink:href="#DejaVuSans-48"/>
       <use x="63.623047" xlink:href="#DejaVuSans-46"/>
       <use x="95.410156" xlink:href="#DejaVuSans-54"/>
       <use x="159.033203" xlink:href="#DejaVuSans-53"/>
      </g>
     </g>
    </g>
    <g id="ytick_3">
     <g id="line2d_12">
      <g>
       <use style="stroke:#000000;stroke-width:0.8;" x="54" xlink:href="#m64d4f67fb6" y="197.64"/>
      </g>
     </g>
     <g id="text_13">
      <!-- 0.70 -->
      <g transform="translate(24.734375 201.439219)scale(0.1 -0.1)">
       <defs>
        <path d="M 8.203125 72.90625 
L 55.078125 72.90625 
L 55.078125 68.703125 
L 28.609375 0 
L 18.3125 0 
L 43.21875 64.59375 
L 8.203125 64.59375 
z
" id="DejaVuSans-55"/>
       </defs>
       <use xlink:href="#DejaVuSans-48"/>
       <use x="63.623047" xlink:href="#DejaVuSans-46"/>
       <use x="95.410156" xlink:href="#DejaVuSans-55"/>
       <use x="159.033203" xlink:href="#DejaVuSans-48"/>
      </g>
     </g>
    </g>
    <g id="ytick_4">
     <g id="line2d_13">
      <g>
       <use style="stroke:#000000;stroke-width:0.8;" x="54" xlink:href="#m64d4f67fb6" y="170.46"/>
      </g>
     </g>
     <g id="text_14">
      <!-- 0.75 -->
      <g transform="translate(24.734375 174.259219)scale(0.1 -0.1)">
       <use xlink:href="#DejaVuSans-48"/>
       <use x="63.623047" xlink:href="#DejaVuSans-46"/>
       <use x="95.410156" xlink:href="#DejaVuSans-55"/>
       <use x="159.033203" xlink:href="#DejaVuSans-53"/>
      </g>
     </g>
    </g>
    <g id="ytick_5">
     <g id="line2d_14">
      <g>
       <use style="stroke:#000000;stroke-width:0.8;" x="54" xlink:href="#m64d4f67fb6" y="143.28"/>
      </g>
     </g>
     <g id="text_15">
      <!-- 0.80 -->
      <g transform="translate(24.734375 147.079219)scale(0.1 -0.1)">
       <defs>
        <path d="M 31.78125 34.625 
Q 24.75 34.625 20.71875 30.859375 
Q 16.703125 27.09375 16.703125 20.515625 
Q 16.703125 13.921875 20.71875 10.15625 
Q 24.75 6.390625 31.78125 6.390625 
Q 38.8125 6.390625 42.859375 10.171875 
Q 46.921875 13.96875 46.921875 20.515625 
Q 46.921875 27.09375 42.890625 30.859375 
Q 38.875 34.625 31.78125 34.625 
z
M 21.921875 38.8125 
Q 15.578125 40.375 12.03125 44.71875 
Q 8.5 49.078125 8.5 55.328125 
Q 8.5 64.0625 14.71875 69.140625 
Q 20.953125 74.21875 31.78125 74.21875 
Q 42.671875 74.21875 48.875 69.140625 
Q 55.078125 64.0625 55.078125 55.328125 
Q 55.078125 49.078125 51.53125 44.71875 
Q 48 40.375 41.703125 38.8125 
Q 48.828125 37.15625 52.796875 32.3125 
Q 56.78125 27.484375 56.78125 20.515625 
Q 56.78125 9.90625 50.3125 4.234375 
Q 43.84375 -1.421875 31.78125 -1.421875 
Q 19.734375 -1.421875 13.25 4.234375 
Q 6.78125 9.90625 6.78125 20.515625 
Q 6.78125 27.484375 10.78125 32.3125 
Q 14.796875 37.15625 21.921875 38.8125 
z
M 18.3125 54.390625 
Q 18.3125 48.734375 21.84375 45.5625 
Q 25.390625 42.390625 31.78125 42.390625 
Q 38.140625 42.390625 41.71875 45.5625 
Q 45.3125 48.734375 45.3125 54.390625 
Q 45.3125 60.0625 41.71875 63.234375 
Q 38.140625 66.40625 31.78125 66.40625 
Q 25.390625 66.40625 21.84375 63.234375 
Q 18.3125 60.0625 18.3125 54.390625 
z
" id="DejaVuSans-56"/>
       </defs>
       <use xlink:href="#DejaVuSans-48"/>
       <use x="63.623047" xlink:href="#DejaVuSans-46"/>
       <use x="95.410156" xlink:href="#DejaVuSans-56"/>
       <use x="159.033203" xlink:href="#DejaVuSans-48"/>
      </g>
     </g>
    </g>
    <g id="ytick_6">
     <g id="line2d_15">
      <g>
       <use style="stroke:#000000;stroke-width:0.8;" x="54" xlink:href="#m64d4f67fb6" y="116.1"/>
      </g>
     </g>
     <g id="text_16">
      <!-- 0.85 -->
      <g transform="translate(24.734375 119.899219)scale(0.1 -0.1)">
       <use xlink:href="#DejaVuSans-48"/>
       <use x="63.623047" xlink:href="#DejaVuSans-46"/>
       <use x="95.410156" xlink:href="#DejaVuSans-56"/>
       <use x="159.033203" xlink:href="#DejaVuSans-53"/>
      </g>
     </g>
    </g>
    <g id="ytick_7">
     <g id="line2d_16">
      <g>
       <use style="stroke:#000000;stroke-width:0.8;" x="54" xlink:href="#m64d4f67fb6" y="88.92"/>
      </g>
     </g>
     <g id="text_17">
      <!-- 0.90 -->
      <g transform="translate(24.734375 92.719219)scale(0.1 -0.1)">
       <defs>
        <path d="M 10.984375 1.515625 
L 10.984375 10.5 
Q 14.703125 8.734375 18.5 7.8125 
Q 22.3125 6.890625 25.984375 6.890625 
Q 35.75 6.890625 40.890625 13.453125 
Q 46.046875 20.015625 46.78125 33.40625 
Q 43.953125 29.203125 39.59375 26.953125 
Q 35.25 24.703125 29.984375 24.703125 
Q 19.046875 24.703125 12.671875 31.3125 
Q 6.296875 37.9375 6.296875 49.421875 
Q 6.296875 60.640625 12.9375 67.421875 
Q 19.578125 74.21875 30.609375 74.21875 
Q 43.265625 74.21875 49.921875 64.515625 
Q 56.59375 54.828125 56.59375 36.375 
Q 56.59375 19.140625 48.40625 8.859375 
Q 40.234375 -1.421875 26.421875 -1.421875 
Q 22.703125 -1.421875 18.890625 -0.6875 
Q 15.09375 0.046875 10.984375 1.515625 
z
M 30.609375 32.421875 
Q 37.25 32.421875 41.125 36.953125 
Q 45.015625 41.5 45.015625 49.421875 
Q 45.015625 57.28125 41.125 61.84375 
Q 37.25 66.40625 30.609375 66.40625 
Q 23.96875 66.40625 20.09375 61.84375 
Q 16.21875 57.28125 16.21875 49.421875 
Q 16.21875 41.5 20.09375 36.953125 
Q 23.96875 32.421875 30.609375 32.421875 
z
" id="DejaVuSans-57"/>
       </defs>
       <use xlink:href="#DejaVuSans-48"/>
       <use x="63.623047" xlink:href="#DejaVuSans-46"/>
       <use x="95.410156" xlink:href="#DejaVuSans-57"/>
       <use x="159.033203" xlink:href="#DejaVuSans-48"/>
      </g>
     </g>
    </g>
    <g id="ytick_8">
     <g id="line2d_17">
      <g>
       <use style="stroke:#000000;stroke-width:0.8;" x="54" xlink:href="#m64d4f67fb6" y="61.74"/>
      </g>
     </g>
     <g id="text_18">
      <!-- 0.95 -->
      <g transform="translate(24.734375 65.539219)scale(0.1 -0.1)">
       <use xlink:href="#DejaVuSans-48"/>
       <use x="63.623047" xlink:href="#DejaVuSans-46"/>
       <use x="95.410156" xlink:href="#DejaVuSans-57"/>
       <use x="159.033203" xlink:href="#DejaVuSans-53"/>
      </g>
     </g>
    </g>
    <g id="ytick_9">
     <g id="line2d_18">
      <g>
       <use style="stroke:#000000;stroke-width:0.8;" x="54" xlink:href="#m64d4f67fb6" y="34.56"/>
      </g>
     </g>
     <g id="text_19">
      <!-- 1.00 -->
      <g transform="translate(24.734375 38.359219)scale(0.1 -0.1)">
       <use xlink:href="#DejaVuSans-49"/>
       <use x="63.623047" xlink:href="#DejaVuSans-46"/>
       <use x="95.410156" xlink:href="#DejaVuSans-48"/>
       <use x="159.033203" xlink:href="#DejaVuSans-48"/>
      </g>
     </g>
    </g>
    <g id="text_20">
     <!-- $\Delta \theta$ -->
     <g transform="translate(18.654688 149.78)rotate(-90)scale(0.1 -0.1)">
      <defs>
       <path d="M 34.1875 63.1875 
L 14.15625 8.203125 
L 54.25 8.203125 
z
M 0.78125 0 
L 28.609375 72.90625 
L 39.796875 72.90625 
L 67.578125 0 
z
" id="DejaVuSans-916"/>
      </defs>
      <use transform="translate(0 0.234375)" xlink:href="#DejaVuSans-916"/>
      <use transform="translate(68.408203 0.234375)" xlink:href="#DejaVuSans-Oblique-952"/>
     </g>
    </g>
   </g>
   <g id="line2d_19">
    <defs>
     <path d="M 0 -3 
L -0.673542 -0.927051 
L -2.85317 -0.927051 
L -1.089814 0.354102 
L -1.763356 2.427051 
L -0 1.145898 
L 1.763356 2.427051 
L 1.089814 0.354102 
L 2.85317 -0.927051 
L 0.673542 -0.927051 
z
" id="m84063f2662" style="stroke:#000000;stroke-linejoin:bevel;"/>
    </defs>
    <g clip-path="url(#pebd55baf59)">
     <use style="stroke:#000000;stroke-linejoin:bevel;" x="181.224" xlink:href="#m84063f2662" y="175.896"/>
    </g>
   </g>
   <g id="patch_3">
    <path d="M 54 252 
L 54 34.56 
" style="fill:none;stroke:#000000;stroke-linecap:square;stroke-linejoin:miter;stroke-width:0.8;"/>
   </g>
   <g id="patch_4">
    <path d="M 321.84 252 
L 321.84 34.56 
" style="fill:none;stroke:#000000;stroke-linecap:square;stroke-linejoin:miter;stroke-width:0.8;"/>
   </g>
   <g id="patch_5">
    <path d="M 54 252 
L 321.84 252 
" style="fill:none;stroke:#000000;stroke-linecap:square;stroke-linejoin:miter;stroke-width:0.8;"/>
   </g>
   <g id="patch_6">
    <path d="M 54 34.56 
L 321.84 34.56 
" style="fill:none;stroke:#000000;stroke-linecap:square;stroke-linejoin:miter;stroke-width:0.8;"/>
   </g>
   <g id="text_21">
    <!-- $A=\int_{\theta_l}^{\theta_l+\Delta\theta} p_{exact}(\theta|D) d\theta$ -->
    <g transform="translate(119.1 26.88)scale(0.12 -0.12)">
     <defs>
      <path d="M 36.8125 72.90625 
L 48 72.90625 
L 61.53125 0 
L 51.21875 0 
L 48.1875 18.703125 
L 15.375 18.703125 
L 5.078125 0 
L -5.328125 0 
z
M 40.375 63.1875 
L 19.921875 26.90625 
L 46.6875 26.90625 
z
" id="DejaVuSans-Oblique-65"/>
      <path d="M 10.59375 45.40625 
L 73.1875 45.40625 
L 73.1875 37.203125 
L 10.59375 37.203125 
z
M 10.59375 25.484375 
L 73.1875 25.484375 
L 73.1875 17.1875 
L 10.59375 17.1875 
z
" id="DejaVuSans-61"/>
      <path d="M 33.34375 86.328125 
Q 33.9375 97.859375 39.5 102.4375 
Q 45.0625 107.03125 50.28125 107.03125 
Q 55.515625 107.03125 59.890625 102.734375 
Q 64.265625 98.4375 65.625 88.71875 
L 55.375 87.703125 
Q 54.203125 96.6875 50.296875 96.6875 
Q 45.40625 96.6875 44.828125 84.578125 
L 40.328125 -9.328125 
Q 39.796875 -20.84375 34.171875 -25.4375 
Q 28.5625 -30.03125 23.390625 -30.03125 
Q 18.171875 -30.03125 13.796875 -25.734375 
Q 9.421875 -21.4375 8.0625 -11.71875 
L 18.3125 -10.6875 
Q 19.484375 -19.671875 23.390625 -19.671875 
Q 28.265625 -19.671875 28.859375 -7.625 
z
" id="DejaVuSansDisplay-8747"/>
      <path d="M 46 62.703125 
L 46 35.5 
L 73.1875 35.5 
L 73.1875 27.203125 
L 46 27.203125 
L 46 0 
L 37.796875 0 
L 37.796875 27.203125 
L 10.59375 27.203125 
L 10.59375 35.5 
L 37.796875 35.5 
L 37.796875 62.703125 
z
" id="DejaVuSans-43"/>
      <path d="M 49.609375 33.6875 
Q 49.609375 40.875 46.484375 44.671875 
Q 43.359375 48.484375 37.5 48.484375 
Q 33.5 48.484375 29.859375 46.4375 
Q 26.21875 44.390625 23.390625 40.484375 
Q 20.609375 36.625 18.9375 31.15625 
Q 17.28125 25.6875 17.28125 20.3125 
Q 17.28125 13.484375 20.40625 9.796875 
Q 23.53125 6.109375 29.296875 6.109375 
Q 33.546875 6.109375 37.1875 8.109375 
Q 40.828125 10.109375 43.40625 13.921875 
Q 46.1875 17.921875 47.890625 23.34375 
Q 49.609375 28.765625 49.609375 33.6875 
z
M 21.78125 46.390625 
Q 25.390625 51.125 30.296875 53.5625 
Q 35.203125 56 41.21875 56 
Q 49.609375 56 54.25 50.5 
Q 58.890625 45.015625 58.890625 35.109375 
Q 58.890625 27 56 19.65625 
Q 53.125 12.3125 47.703125 6.5 
Q 44.09375 2.640625 39.546875 0.609375 
Q 35.015625 -1.421875 29.984375 -1.421875 
Q 24.171875 -1.421875 20.21875 1 
Q 16.265625 3.421875 14.3125 8.203125 
L 8.6875 -20.796875 
L -0.296875 -20.796875 
L 14.40625 54.6875 
L 23.390625 54.6875 
z
" id="DejaVuSans-Oblique-112"/>
      <path d="M 48.09375 32.234375 
Q 48.25 33.015625 48.3125 33.84375 
Q 48.390625 34.671875 48.390625 35.5 
Q 48.390625 41.453125 44.890625 44.921875 
Q 41.40625 48.390625 35.40625 48.390625 
Q 28.71875 48.390625 23.578125 44.15625 
Q 18.453125 39.9375 15.828125 32.171875 
z
M 55.90625 25.203125 
L 14.109375 25.203125 
Q 13.8125 23.34375 13.71875 22.265625 
Q 13.625 21.1875 13.625 20.40625 
Q 13.625 13.625 17.796875 9.90625 
Q 21.96875 6.203125 29.59375 6.203125 
Q 35.453125 6.203125 40.671875 7.515625 
Q 45.90625 8.84375 50.390625 11.375 
L 48.6875 2.484375 
Q 43.84375 0.53125 38.6875 -0.4375 
Q 33.546875 -1.421875 28.21875 -1.421875 
Q 16.84375 -1.421875 10.71875 4.015625 
Q 4.59375 9.46875 4.59375 19.484375 
Q 4.59375 28.03125 7.640625 35.375 
Q 10.6875 42.71875 16.609375 48.484375 
Q 20.40625 52.09375 25.65625 54.046875 
Q 30.90625 56 36.8125 56 
Q 46.09375 56 51.578125 50.4375 
Q 57.078125 44.875 57.078125 35.5 
Q 57.078125 33.25 56.78125 30.6875 
Q 56.5 28.125 55.90625 25.203125 
z
" id="DejaVuSans-Oblique-101"/>
      <path d="M 60.015625 54.6875 
L 34.90625 27.875 
L 50.296875 0 
L 39.984375 0 
L 28.421875 21.6875 
L 8.296875 0 
L -2.59375 0 
L 24.3125 28.8125 
L 10.015625 54.6875 
L 20.3125 54.6875 
L 30.8125 34.90625 
L 49.125 54.6875 
z
" id="DejaVuSans-Oblique-120"/>
      <path d="M 53.71875 31.203125 
L 47.609375 0 
L 38.625 0 
L 40.28125 8.296875 
Q 36.328125 3.421875 31.265625 1 
Q 26.21875 -1.421875 20.015625 -1.421875 
Q 13.03125 -1.421875 8.5625 2.84375 
Q 4.109375 7.125 4.109375 13.8125 
Q 4.109375 23.390625 11.75 28.953125 
Q 19.390625 34.515625 32.8125 34.515625 
L 45.3125 34.515625 
L 45.796875 36.921875 
Q 45.90625 37.3125 45.953125 37.765625 
Q 46 38.234375 46 39.203125 
Q 46 43.5625 42.453125 45.96875 
Q 38.921875 48.390625 32.515625 48.390625 
Q 28.125 48.390625 23.5 47.265625 
Q 18.890625 46.140625 14.015625 43.890625 
L 15.578125 52.203125 
Q 20.65625 54.109375 25.515625 55.046875 
Q 30.375 56 34.90625 56 
Q 44.578125 56 49.625 51.796875 
Q 54.6875 47.609375 54.6875 39.59375 
Q 54.6875 37.984375 54.4375 35.8125 
Q 54.203125 33.640625 53.71875 31.203125 
z
M 44 27.484375 
L 35.015625 27.484375 
Q 23.96875 27.484375 18.671875 24.53125 
Q 13.375 21.578125 13.375 15.375 
Q 13.375 11.078125 16.078125 8.640625 
Q 18.796875 6.203125 23.578125 6.203125 
Q 30.90625 6.203125 36.375 11.453125 
Q 41.84375 16.703125 43.609375 25.484375 
z
" id="DejaVuSans-Oblique-97"/>
      <path d="M 53.609375 52.59375 
L 51.8125 43.703125 
Q 48.578125 46.046875 44.9375 47.21875 
Q 41.3125 48.390625 37.40625 48.390625 
Q 33.109375 48.390625 29.21875 46.875 
Q 25.34375 45.359375 22.703125 42.578125 
Q 18.5 38.328125 16.203125 32.609375 
Q 13.921875 26.90625 13.921875 20.796875 
Q 13.921875 13.421875 17.609375 9.8125 
Q 21.296875 6.203125 28.8125 6.203125 
Q 32.515625 6.203125 36.6875 7.328125 
Q 40.875 8.453125 45.40625 10.6875 
L 43.703125 1.8125 
Q 39.796875 0.203125 35.671875 -0.609375 
Q 31.546875 -1.421875 27.203125 -1.421875 
Q 16.3125 -1.421875 10.453125 4.015625 
Q 4.59375 9.46875 4.59375 19.578125 
Q 4.59375 28.078125 7.640625 35.234375 
Q 10.6875 42.390625 16.703125 48.09375 
Q 20.796875 52 26.3125 54 
Q 31.84375 56 38.375 56 
Q 42.1875 56 45.9375 55.140625 
Q 49.703125 54.296875 53.609375 52.59375 
z
" id="DejaVuSans-Oblique-99"/>
      <path d="M 42.28125 54.6875 
L 40.921875 47.703125 
L 23 47.703125 
L 17.1875 18.015625 
Q 16.890625 16.359375 16.75 15.234375 
Q 16.609375 14.109375 16.609375 13.484375 
Q 16.609375 10.359375 18.484375 8.9375 
Q 20.359375 7.515625 24.515625 7.515625 
L 33.59375 7.515625 
L 32.078125 0 
L 23.484375 0 
Q 15.484375 0 11.546875 3.125 
Q 7.625 6.25 7.625 12.59375 
Q 7.625 13.71875 7.765625 15.0625 
Q 7.90625 16.40625 8.203125 18.015625 
L 14.015625 47.703125 
L 6.390625 47.703125 
L 7.8125 54.6875 
L 15.28125 54.6875 
L 18.3125 70.21875 
L 27.296875 70.21875 
L 24.3125 54.6875 
z
" id="DejaVuSans-Oblique-116"/>
      <path d="M 31 75.875 
Q 24.46875 64.65625 21.28125 53.65625 
Q 18.109375 42.671875 18.109375 31.390625 
Q 18.109375 20.125 21.3125 9.0625 
Q 24.515625 -2 31 -13.1875 
L 23.1875 -13.1875 
Q 15.875 -1.703125 12.234375 9.375 
Q 8.59375 20.453125 8.59375 31.390625 
Q 8.59375 42.28125 12.203125 53.3125 
Q 15.828125 64.359375 23.1875 75.875 
z
" id="DejaVuSans-40"/>
      <path d="M 21 76.421875 
L 21 -23.578125 
L 12.703125 -23.578125 
L 12.703125 76.421875 
z
" id="DejaVuSans-124"/>
      <path d="M 16.890625 72.90625 
L 38.09375 72.90625 
Q 54.984375 72.90625 63.59375 65.75 
Q 72.21875 58.59375 72.21875 44.484375 
Q 72.21875 35.15625 68.9375 26.53125 
Q 65.671875 17.921875 59.90625 12.015625 
Q 54.109375 5.953125 45.171875 2.96875 
Q 36.234375 0 24.03125 0 
L 2.6875 0 
z
M 25.203125 64.796875 
L 14.203125 8.109375 
L 27.09375 8.109375 
Q 43.65625 8.109375 52.734375 17.625 
Q 61.8125 27.15625 61.8125 44.484375 
Q 61.8125 54.984375 55.953125 59.890625 
Q 50.09375 64.796875 37.59375 64.796875 
z
" id="DejaVuSans-Oblique-68"/>
      <path d="M 8.015625 75.875 
L 15.828125 75.875 
Q 23.140625 64.359375 26.78125 53.3125 
Q 30.421875 42.28125 30.421875 31.390625 
Q 30.421875 20.453125 26.78125 9.375 
Q 23.140625 -1.703125 15.828125 -13.1875 
L 8.015625 -13.1875 
Q 14.5 -2 17.703125 9.0625 
Q 20.90625 20.125 20.90625 31.390625 
Q 20.90625 42.671875 17.703125 53.65625 
Q 14.5 64.65625 8.015625 75.875 
z
" id="DejaVuSans-41"/>
      <path d="M 41.796875 8.203125 
Q 38.1875 3.46875 33.25 1.015625 
Q 28.328125 -1.421875 22.3125 -1.421875 
Q 14.109375 -1.421875 9.34375 4.171875 
Q 4.59375 9.765625 4.59375 19.484375 
Q 4.59375 27.59375 7.46875 34.9375 
Q 10.359375 42.28125 15.828125 48.09375 
Q 19.4375 51.953125 23.96875 53.96875 
Q 28.515625 56 33.5 56 
Q 38.765625 56 42.796875 53.453125 
Q 46.828125 50.921875 49.03125 46.1875 
L 54.890625 75.984375 
L 63.921875 75.984375 
L 49.125 0 
L 40.09375 0 
z
M 13.921875 21.09375 
Q 13.921875 14.015625 17.109375 10.0625 
Q 20.3125 6.109375 25.984375 6.109375 
Q 30.171875 6.109375 33.765625 8.125 
Q 37.359375 10.15625 40.09375 14.109375 
Q 42.96875 18.21875 44.625 23.578125 
Q 46.296875 28.953125 46.296875 34.1875 
Q 46.296875 40.96875 43.09375 44.765625 
Q 39.890625 48.578125 34.28125 48.578125 
Q 30.03125 48.578125 26.359375 46.578125 
Q 22.703125 44.578125 20.125 40.828125 
Q 17.28125 36.765625 15.59375 31.390625 
Q 13.921875 26.03125 13.921875 21.09375 
z
" id="DejaVuSans-Oblique-100"/>
     </defs>
     <use transform="translate(0 0.107812)" xlink:href="#DejaVuSans-Oblique-65"/>
     <use transform="translate(87.890625 0.107812)" xlink:href="#DejaVuSans-61"/>
     <use transform="translate(191.162109 0.107812)" xlink:href="#DejaVuSansDisplay-8747"/>
     <use transform="translate(277.90625 85.264062)scale(0.7)" xlink:href="#DejaVuSans-Oblique-952"/>
     <use transform="translate(320.733398 73.779687)scale(0.49)" xlink:href="#DejaVuSans-Oblique-108"/>
     <use transform="translate(349.898926 85.264062)scale(0.7)" xlink:href="#DejaVuSans-43"/>
     <use transform="translate(422.188965 85.264062)scale(0.7)" xlink:href="#DejaVuSans-916"/>
     <use transform="translate(470.074707 85.264062)scale(0.7)" xlink:href="#DejaVuSans-Oblique-952"/>
     <use transform="translate(262.921875 -51.798438)scale(0.7)" xlink:href="#DejaVuSans-Oblique-952"/>
     <use transform="translate(305.749023 -63.282813)scale(0.49)" xlink:href="#DejaVuSans-Oblique-108"/>
     <use transform="translate(512.901855 0.107812)" xlink:href="#DejaVuSans-Oblique-112"/>
     <use transform="translate(576.378418 -16.298438)scale(0.7)" xlink:href="#DejaVuSans-Oblique-101"/>
     <use transform="translate(619.444824 -16.298438)scale(0.7)" xlink:href="#DejaVuSans-Oblique-120"/>
     <use transform="translate(660.870605 -16.298438)scale(0.7)" xlink:href="#DejaVuSans-Oblique-97"/>
     <use transform="translate(703.766113 -16.298438)scale(0.7)" xlink:href="#DejaVuSans-Oblique-99"/>
     <use transform="translate(742.252441 -16.298438)scale(0.7)" xlink:href="#DejaVuSans-Oblique-116"/>
     <use transform="translate(772.433105 0.107812)" xlink:href="#DejaVuSans-40"/>
     <use transform="translate(811.446777 0.107812)" xlink:href="#DejaVuSans-Oblique-952"/>
     <use transform="translate(872.628418 0.107812)" xlink:href="#DejaVuSans-124"/>
     <use transform="translate(906.319824 0.107812)" xlink:href="#DejaVuSans-Oblique-68"/>
     <use transform="translate(983.321777 0.107812)" xlink:href="#DejaVuSans-41"/>
     <use transform="translate(1022.335449 0.107812)" xlink:href="#DejaVuSans-Oblique-100"/>
     <use transform="translate(1085.812012 0.107812)" xlink:href="#DejaVuSans-Oblique-952"/>
    </g>
   </g>
  </g>
  <g id="axes_2">
   <g id="patch_7">
    <path clip-path="url(#pa0997f226a)" d="M 338.58 252 
L 338.58 179.52 
L 338.58 107.04 
L 338.58 34.56 
L 349.452 34.56 
L 349.452 107.04 
L 349.452 179.52 
L 349.452 252 
z
" style="fill:#ffffff;stroke:#ffffff;stroke-linejoin:miter;stroke-width:0.01;"/>
   </g>
   <g id="QuadMesh_1">
    <path clip-path="url(#pa0997f226a)" d="M 338.58 252 
L 349.452 252 
L 349.452 179.52 
L 338.58 179.52 
L 338.58 252 
" style="fill:#440154;"/>
    <path clip-path="url(#pa0997f226a)" d="M 338.58 179.52 
L 349.452 179.52 
L 349.452 107.04 
L 338.58 107.04 
L 338.58 179.52 
" style="fill:#21918c;"/>
    <path clip-path="url(#pa0997f226a)" d="M 338.58 107.04 
L 349.452 107.04 
L 349.452 34.56 
L 338.58 34.56 
L 338.58 107.04 
" style="fill:#fde725;"/>
   </g>
   <g id="matplotlib.axis_3"/>
   <g id="matplotlib.axis_4">
    <g id="ytick_10">
     <g id="line2d_20">
      <defs>
       <path d="M 0 0 
L 3.5 0 
" id="m61faa47381" style="stroke:#000000;stroke-width:0.8;"/>
      </defs>
      <g>
       <use style="stroke:#000000;stroke-width:0.8;" x="349.452" xlink:href="#m61faa47381" y="252"/>
      </g>
     </g>
     <g id="text_22">
      <!-- 0.94 -->
      <g transform="translate(356.452 255.799219)scale(0.1 -0.1)">
       <use xlink:href="#DejaVuSans-48"/>
       <use x="63.623047" xlink:href="#DejaVuSans-46"/>
       <use x="95.410156" xlink:href="#DejaVuSans-57"/>
       <use x="159.033203" xlink:href="#DejaVuSans-52"/>
      </g>
     </g>
    </g>
    <g id="ytick_11">
     <g id="line2d_21">
      <g>
       <use style="stroke:#000000;stroke-width:0.8;" x="349.452" xlink:href="#m61faa47381" y="143.28"/>
      </g>
     </g>
     <g id="text_23">
      <!-- 0.95 -->
      <g transform="translate(356.452 147.079219)scale(0.1 -0.1)">
       <use xlink:href="#DejaVuSans-48"/>
       <use x="63.623047" xlink:href="#DejaVuSans-46"/>
       <use x="95.410156" xlink:href="#DejaVuSans-57"/>
       <use x="159.033203" xlink:href="#DejaVuSans-53"/>
      </g>
     </g>
    </g>
    <g id="ytick_12">
     <g id="line2d_22">
      <g>
       <use style="stroke:#000000;stroke-width:0.8;" x="349.452" xlink:href="#m61faa47381" y="34.56"/>
      </g>
     </g>
     <g id="text_24">
      <!-- 0.96 -->
      <g transform="translate(356.452 38.359219)scale(0.1 -0.1)">
       <use xlink:href="#DejaVuSans-48"/>
       <use x="63.623047" xlink:href="#DejaVuSans-46"/>
       <use x="95.410156" xlink:href="#DejaVuSans-57"/>
       <use x="159.033203" xlink:href="#DejaVuSans-54"/>
      </g>
     </g>
    </g>
   </g>
   <g id="patch_8">
    <path d="M 338.58 252 
L 338.58 179.52 
L 338.58 107.04 
L 338.58 34.56 
L 349.452 34.56 
L 349.452 107.04 
L 349.452 179.52 
L 349.452 252 
z
" style="fill:none;stroke:#000000;stroke-linejoin:miter;stroke-width:0.8;"/>
   </g>
   <g id="text_25">
    <!-- A -->
    <g transform="translate(339.911625 28.56)scale(0.12 -0.12)">
     <defs>
      <path d="M 34.1875 63.1875 
L 20.796875 26.90625 
L 47.609375 26.90625 
z
M 28.609375 72.90625 
L 39.796875 72.90625 
L 67.578125 0 
L 57.328125 0 
L 50.6875 18.703125 
L 17.828125 18.703125 
L 11.1875 0 
L 0.78125 0 
z
" id="DejaVuSans-65"/>
     </defs>
     <use xlink:href="#DejaVuSans-65"/>
    </g>
   </g>
  </g>
 </g>
 <defs>
  <clipPath id="pebd55baf59">
   <rect height="217.44" width="267.84" x="54" y="34.56"/>
  </clipPath>
  <clipPath id="pa0997f226a">
   <rect height="217.44" width="10.872" x="338.58" y="34.56"/>
  </clipPath>
 </defs>
</svg>
