<?xml version="1.0" encoding="utf-8" standalone="no"?>
<!DOCTYPE svg PUBLIC "-//W3C//DTD SVG 1.1//EN"
  "http://www.w3.org/Graphics/SVG/1.1/DTD/svg11.dtd">
<!-- Created with matplotlib (https://matplotlib.org/) -->
<svg height="288pt" version="1.1" viewBox="0 0 432 288" width="432pt" xmlns="http://www.w3.org/2000/svg" xmlns:xlink="http://www.w3.org/1999/xlink">
 <metadata>
  <rdf:RDF xmlns:cc="http://creativecommons.org/ns#" xmlns:dc="http://purl.org/dc/elements/1.1/" xmlns:rdf="http://www.w3.org/1999/02/22-rdf-syntax-ns#">
   <cc:Work>
    <dc:type rdf:resource="http://purl.org/dc/dcmitype/StillImage"/>
    <dc:date>2021-04-10T06:43:31.151936</dc:date>
    <dc:format>image/svg+xml</dc:format>
    <dc:creator>
     <cc:Agent>
      <dc:title>Matplotlib v3.3.2, https://matplotlib.org/</dc:title>
     </cc:Agent>
    </dc:creator>
   </cc:Work>
  </rdf:RDF>
 </metadata>
 <defs>
  <style type="text/css">*{stroke-linecap:butt;stroke-linejoin:round;}</style>
 </defs>
 <g id="figure_1">
  <g id="patch_1">
   <path d="M 0 288 
L 432 288 
L 432 0 
L 0 0 
z
" style="fill:none;"/>
  </g>
  <g id="axes_1">
   <g id="patch_2">
    <path d="M 54 252 
L 388.8 252 
L 388.8 34.56 
L 54 34.56 
z
" style="fill:none;"/>
   </g>
   <g id="patch_3">
    <path clip-path="url(#pb8f39f3e14)" d="M 69.218182 252 
L 70.732429 252 
L 70.732429 252 
L 69.218182 252 
z
" style="opacity:0.5;"/>
   </g>
   <g id="patch_4">
    <path clip-path="url(#pb8f39f3e14)" d="M 72.246676 252 
L 73.760923 252 
L 73.760923 251.845637 
L 72.246676 251.845637 
z
" style="opacity:0.5;"/>
   </g>
   <g id="patch_5">
    <path clip-path="url(#pb8f39f3e14)" d="M 75.27517 252 
L 76.789417 252 
L 76.789417 251.575501 
L 75.27517 251.575501 
z
" style="opacity:0.5;"/>
   </g>
   <g id="patch_6">
    <path clip-path="url(#pb8f39f3e14)" d="M 78.303664 252 
L 79.81791 252 
L 79.81791 251.11241 
L 78.303664 251.11241 
z
" style="opacity:0.5;"/>
   </g>
   <g id="patch_7">
    <path clip-path="url(#pb8f39f3e14)" d="M 81.332157 252 
L 82.846404 252 
L 82.846404 249.954684 
L 81.332157 249.954684 
z
" style="opacity:0.5;"/>
   </g>
   <g id="patch_8">
    <path clip-path="url(#pb8f39f3e14)" d="M 84.360651 252 
L 85.874898 252 
L 85.874898 249.337231 
L 84.360651 249.337231 
z
" style="opacity:0.5;"/>
   </g>
   <g id="patch_9">
    <path clip-path="url(#pb8f39f3e14)" d="M 87.389145 252 
L 88.903392 252 
L 88.903392 248.025142 
L 87.389145 248.025142 
z
" style="opacity:0.5;"/>
   </g>
   <g id="patch_10">
    <path clip-path="url(#pb8f39f3e14)" d="M 90.417639 252 
L 91.931886 252 
L 91.931886 246.520098 
L 90.417639 246.520098 
z
" style="opacity:0.5;"/>
   </g>
   <g id="patch_11">
    <path clip-path="url(#pb8f39f3e14)" d="M 93.446133 252 
L 94.96038 252 
L 94.96038 244.937873 
L 93.446133 244.937873 
z
" style="opacity:0.5;"/>
   </g>
   <g id="patch_12">
    <path clip-path="url(#pb8f39f3e14)" d="M 96.474627 252 
L 97.988874 252 
L 97.988874 243.625784 
L 96.474627 243.625784 
z
" style="opacity:0.5;"/>
   </g>
   <g id="patch_13">
    <path clip-path="url(#pb8f39f3e14)" d="M 99.503121 252 
L 101.017368 252 
L 101.017368 240.30697 
L 99.503121 240.30697 
z
" style="opacity:0.5;"/>
   </g>
   <g id="patch_14">
    <path clip-path="url(#pb8f39f3e14)" d="M 102.531615 252 
L 104.045862 252 
L 104.045862 238.647563 
L 102.531615 238.647563 
z
" style="opacity:0.5;"/>
   </g>
   <g id="patch_15">
    <path clip-path="url(#pb8f39f3e14)" d="M 105.560109 252 
L 107.074355 252 
L 107.074355 236.177748 
L 105.560109 236.177748 
z
" style="opacity:0.5;"/>
   </g>
   <g id="patch_16">
    <path clip-path="url(#pb8f39f3e14)" d="M 108.588602 252 
L 110.102849 252 
L 110.102849 233.55357 
L 108.588602 233.55357 
z
" style="opacity:0.5;"/>
   </g>
   <g id="patch_17">
    <path clip-path="url(#pb8f39f3e14)" d="M 111.617096 252 
L 113.131343 252 
L 113.131343 231.624027 
L 111.617096 231.624027 
z
" style="opacity:0.5;"/>
   </g>
   <g id="patch_18">
    <path clip-path="url(#pb8f39f3e14)" d="M 114.64559 252 
L 116.159837 252 
L 116.159837 228.382395 
L 114.64559 228.382395 
z
" style="opacity:0.5;"/>
   </g>
   <g id="patch_19">
    <path clip-path="url(#pb8f39f3e14)" d="M 117.674084 252 
L 119.188331 252 
L 119.188331 226.491442 
L 117.674084 226.491442 
z
" style="opacity:0.5;"/>
   </g>
   <g id="patch_20">
    <path clip-path="url(#pb8f39f3e14)" d="M 120.702578 252 
L 122.216825 252 
L 122.216825 223.67431 
L 120.702578 223.67431 
z
" style="opacity:0.5;"/>
   </g>
   <g id="patch_21">
    <path clip-path="url(#pb8f39f3e14)" d="M 123.731072 252 
L 125.245319 252 
L 125.245319 220.587041 
L 123.731072 220.587041 
z
" style="opacity:0.5;"/>
   </g>
   <g id="patch_22">
    <path clip-path="url(#pb8f39f3e14)" d="M 126.759566 252 
L 128.273813 252 
L 128.273813 217.268227 
L 126.759566 217.268227 
z
" style="opacity:0.5;"/>
   </g>
   <g id="patch_23">
    <path clip-path="url(#pb8f39f3e14)" d="M 129.78806 252 
L 131.302307 252 
L 131.302307 213.33196 
L 129.78806 213.33196 
z
" style="opacity:0.5;"/>
   </g>
   <g id="patch_24">
    <path clip-path="url(#pb8f39f3e14)" d="M 132.816554 252 
L 134.330801 252 
L 134.330801 212.637324 
L 132.816554 212.637324 
z
" style="opacity:0.5;"/>
   </g>
   <g id="patch_25">
    <path clip-path="url(#pb8f39f3e14)" d="M 135.845047 252 
L 137.359294 252 
L 137.359294 207.04165 
L 135.845047 207.04165 
z
" style="opacity:0.5;"/>
   </g>
   <g id="patch_26">
    <path clip-path="url(#pb8f39f3e14)" d="M 138.873541 252 
L 140.387788 252 
L 140.387788 204.494653 
L 138.873541 204.494653 
z
" style="opacity:0.5;"/>
   </g>
   <g id="patch_27">
    <path clip-path="url(#pb8f39f3e14)" d="M 141.902035 252 
L 143.416282 252 
L 143.416282 200.982885 
L 141.902035 200.982885 
z
" style="opacity:0.5;"/>
   </g>
   <g id="patch_28">
    <path clip-path="url(#pb8f39f3e14)" d="M 144.930529 252 
L 146.444776 252 
L 146.444776 199.593614 
L 144.930529 199.593614 
z
" style="opacity:0.5;"/>
   </g>
   <g id="patch_29">
    <path clip-path="url(#pb8f39f3e14)" d="M 147.959023 252 
L 149.47327 252 
L 149.47327 193.303304 
L 147.959023 193.303304 
z
" style="opacity:0.5;"/>
   </g>
   <g id="patch_30">
    <path clip-path="url(#pb8f39f3e14)" d="M 150.987517 252 
L 152.501764 252 
L 152.501764 189.598582 
L 150.987517 189.598582 
z
" style="opacity:0.5;"/>
   </g>
   <g id="patch_31">
    <path clip-path="url(#pb8f39f3e14)" d="M 154.016011 252 
L 155.530258 252 
L 155.530258 187.128767 
L 154.016011 187.128767 
z
" style="opacity:0.5;"/>
   </g>
   <g id="patch_32">
    <path clip-path="url(#pb8f39f3e14)" d="M 157.044505 252 
L 158.558752 252 
L 158.558752 181.571683 
L 157.044505 181.571683 
z
" style="opacity:0.5;"/>
   </g>
   <g id="patch_33">
    <path clip-path="url(#pb8f39f3e14)" d="M 160.072999 252 
L 161.587246 252 
L 161.587246 178.908914 
L 160.072999 178.908914 
z
" style="opacity:0.5;"/>
   </g>
   <g id="patch_34">
    <path clip-path="url(#pb8f39f3e14)" d="M 163.101493 252 
L 164.615739 252 
L 164.615739 177.017962 
L 163.101493 177.017962 
z
" style="opacity:0.5;"/>
   </g>
   <g id="patch_35">
    <path clip-path="url(#pb8f39f3e14)" d="M 166.129986 252 
L 167.644233 252 
L 167.644233 170.418925 
L 166.129986 170.418925 
z
" style="opacity:0.5;"/>
   </g>
   <g id="patch_36">
    <path clip-path="url(#pb8f39f3e14)" d="M 169.15848 252 
L 170.672727 252 
L 170.672727 169.184017 
L 169.15848 169.184017 
z
" style="opacity:0.5;"/>
   </g>
   <g id="patch_37">
    <path clip-path="url(#pb8f39f3e14)" d="M 172.186974 252 
L 173.701221 252 
L 173.701221 164.514523 
L 172.186974 164.514523 
z
" style="opacity:0.5;"/>
   </g>
   <g id="patch_38">
    <path clip-path="url(#pb8f39f3e14)" d="M 175.215468 252 
L 176.729715 252 
L 176.729715 160.346711 
L 175.215468 160.346711 
z
" style="opacity:0.5;"/>
   </g>
   <g id="patch_39">
    <path clip-path="url(#pb8f39f3e14)" d="M 178.243962 252 
L 179.758209 252 
L 179.758209 158.06985 
L 178.243962 158.06985 
z
" style="opacity:0.5;"/>
   </g>
   <g id="patch_40">
    <path clip-path="url(#pb8f39f3e14)" d="M 181.272456 252 
L 182.786703 252 
L 182.786703 153.245993 
L 181.272456 153.245993 
z
" style="opacity:0.5;"/>
   </g>
   <g id="patch_41">
    <path clip-path="url(#pb8f39f3e14)" d="M 184.30095 252 
L 185.815197 252 
L 185.815197 149.116771 
L 184.30095 149.116771 
z
" style="opacity:0.5;"/>
   </g>
   <g id="patch_42">
    <path clip-path="url(#pb8f39f3e14)" d="M 187.329444 252 
L 188.843691 252 
L 188.843691 144.756004 
L 187.329444 144.756004 
z
" style="opacity:0.5;"/>
   </g>
   <g id="patch_43">
    <path clip-path="url(#pb8f39f3e14)" d="M 190.357938 252 
L 191.872185 252 
L 191.872185 141.244236 
L 190.357938 141.244236 
z
" style="opacity:0.5;"/>
   </g>
   <g id="patch_44">
    <path clip-path="url(#pb8f39f3e14)" d="M 193.386431 252 
L 194.900678 252 
L 194.900678 135.841516 
L 193.386431 135.841516 
z
" style="opacity:0.5;"/>
   </g>
   <g id="patch_45">
    <path clip-path="url(#pb8f39f3e14)" d="M 196.414925 252 
L 197.929172 252 
L 197.929172 135.262653 
L 196.414925 135.262653 
z
" style="opacity:0.5;"/>
   </g>
   <g id="patch_46">
    <path clip-path="url(#pb8f39f3e14)" d="M 199.443419 252 
L 200.957666 252 
L 200.957666 128.046162 
L 199.443419 128.046162 
z
" style="opacity:0.5;"/>
   </g>
   <g id="patch_47">
    <path clip-path="url(#pb8f39f3e14)" d="M 202.471913 252 
L 203.98616 252 
L 203.98616 129.435433 
L 202.471913 129.435433 
z
" style="opacity:0.5;"/>
   </g>
   <g id="patch_48">
    <path clip-path="url(#pb8f39f3e14)" d="M 205.500407 252 
L 207.014654 252 
L 207.014654 121.871625 
L 205.500407 121.871625 
z
" style="opacity:0.5;"/>
   </g>
   <g id="patch_49">
    <path clip-path="url(#pb8f39f3e14)" d="M 208.528901 252 
L 210.043148 252 
L 210.043148 117.16354 
L 208.528901 117.16354 
z
" style="opacity:0.5;"/>
   </g>
   <g id="patch_50">
    <path clip-path="url(#pb8f39f3e14)" d="M 211.557395 252 
L 213.071642 252 
L 213.071642 115.581315 
L 211.557395 115.581315 
z
" style="opacity:0.5;"/>
   </g>
   <g id="patch_51">
    <path clip-path="url(#pb8f39f3e14)" d="M 214.585889 252 
L 216.100136 252 
L 216.100136 114.307816 
L 214.585889 114.307816 
z
" style="opacity:0.5;"/>
   </g>
   <g id="patch_52">
    <path clip-path="url(#pb8f39f3e14)" d="M 217.614383 252 
L 219.12863 252 
L 219.12863 109.445368 
L 217.614383 109.445368 
z
" style="opacity:0.5;"/>
   </g>
   <g id="patch_53">
    <path clip-path="url(#pb8f39f3e14)" d="M 220.642877 252 
L 222.157123 252 
L 222.157123 108.789324 
L 220.642877 108.789324 
z
" style="opacity:0.5;"/>
   </g>
   <g id="patch_54">
    <path clip-path="url(#pb8f39f3e14)" d="M 223.67137 252 
L 225.185617 252 
L 225.185617 105.624873 
L 223.67137 105.624873 
z
" style="opacity:0.5;"/>
   </g>
   <g id="patch_55">
    <path clip-path="url(#pb8f39f3e14)" d="M 226.699864 252 
L 228.214111 252 
L 228.214111 103.618149 
L 226.699864 103.618149 
z
" style="opacity:0.5;"/>
   </g>
   <g id="patch_56">
    <path clip-path="url(#pb8f39f3e14)" d="M 229.728358 252 
L 231.242605 252 
L 231.242605 97.250657 
L 229.728358 97.250657 
z
" style="opacity:0.5;"/>
   </g>
   <g id="patch_57">
    <path clip-path="url(#pb8f39f3e14)" d="M 232.756852 252 
L 234.271099 252 
L 234.271099 97.597975 
L 232.756852 97.597975 
z
" style="opacity:0.5;"/>
   </g>
   <g id="patch_58">
    <path clip-path="url(#pb8f39f3e14)" d="M 235.785346 252 
L 237.299593 252 
L 237.299593 91.886528 
L 235.785346 91.886528 
z
" style="opacity:0.5;"/>
   </g>
   <g id="patch_59">
    <path clip-path="url(#pb8f39f3e14)" d="M 238.81384 252 
L 240.328087 252 
L 240.328087 89.918394 
L 238.81384 89.918394 
z
" style="opacity:0.5;"/>
   </g>
   <g id="patch_60">
    <path clip-path="url(#pb8f39f3e14)" d="M 241.842334 252 
L 243.356581 252 
L 243.356581 91.963709 
L 241.842334 91.963709 
z
" style="opacity:0.5;"/>
   </g>
   <g id="patch_61">
    <path clip-path="url(#pb8f39f3e14)" d="M 244.870828 252 
L 246.385075 252 
L 246.385075 89.069395 
L 244.870828 89.069395 
z
" style="opacity:0.5;"/>
   </g>
   <g id="patch_62">
    <path clip-path="url(#pb8f39f3e14)" d="M 247.899322 252 
L 249.413569 252 
L 249.413569 87.101261 
L 247.899322 87.101261 
z
" style="opacity:0.5;"/>
   </g>
   <g id="patch_63">
    <path clip-path="url(#pb8f39f3e14)" d="M 250.927815 252 
L 252.442062 252 
L 252.442062 89.185167 
L 250.927815 89.185167 
z
" style="opacity:0.5;"/>
   </g>
   <g id="patch_64">
    <path clip-path="url(#pb8f39f3e14)" d="M 253.956309 252 
L 255.470556 252 
L 255.470556 82.470358 
L 253.956309 82.470358 
z
" style="opacity:0.5;"/>
   </g>
   <g id="patch_65">
    <path clip-path="url(#pb8f39f3e14)" d="M 256.984803 252 
L 258.49905 252 
L 258.49905 80.733769 
L 256.984803 80.733769 
z
" style="opacity:0.5;"/>
   </g>
   <g id="patch_66">
    <path clip-path="url(#pb8f39f3e14)" d="M 260.013297 252 
L 261.527544 252 
L 261.527544 81.081087 
L 260.013297 81.081087 
z
" style="opacity:0.5;"/>
   </g>
   <g id="patch_67">
    <path clip-path="url(#pb8f39f3e14)" d="M 263.041791 252 
L 264.556038 252 
L 264.556038 80.810951 
L 263.041791 80.810951 
z
" style="opacity:0.5;"/>
   </g>
   <g id="patch_68">
    <path clip-path="url(#pb8f39f3e14)" d="M 266.070285 252 
L 267.584532 252 
L 267.584532 81.351223 
L 266.070285 81.351223 
z
" style="opacity:0.5;"/>
   </g>
   <g id="patch_69">
    <path clip-path="url(#pb8f39f3e14)" d="M 269.098779 252 
L 270.613026 252 
L 270.613026 81.544177 
L 269.098779 81.544177 
z
" style="opacity:0.5;"/>
   </g>
   <g id="patch_70">
    <path clip-path="url(#pb8f39f3e14)" d="M 272.127273 252 
L 273.64152 252 
L 273.64152 82.354585 
L 272.127273 82.354585 
z
" style="opacity:0.5;"/>
   </g>
   <g id="patch_71">
    <path clip-path="url(#pb8f39f3e14)" d="M 275.155767 252 
L 276.670014 252 
L 276.670014 80.30927 
L 275.155767 80.30927 
z
" style="opacity:0.5;"/>
   </g>
   <g id="patch_72">
    <path clip-path="url(#pb8f39f3e14)" d="M 278.184261 252 
L 279.698507 252 
L 279.698507 82.586131 
L 278.184261 82.586131 
z
" style="opacity:0.5;"/>
   </g>
   <g id="patch_73">
    <path clip-path="url(#pb8f39f3e14)" d="M 281.212754 252 
L 282.727001 252 
L 282.727001 78.418318 
L 281.212754 78.418318 
z
" style="opacity:0.5;"/>
   </g>
   <g id="patch_74">
    <path clip-path="url(#pb8f39f3e14)" d="M 284.241248 252 
L 285.755495 252 
L 285.755495 83.319357 
L 284.241248 83.319357 
z
" style="opacity:0.5;"/>
   </g>
   <g id="patch_75">
    <path clip-path="url(#pb8f39f3e14)" d="M 287.269742 252 
L 288.783989 252 
L 288.783989 83.936811 
L 287.269742 83.936811 
z
" style="opacity:0.5;"/>
   </g>
   <g id="patch_76">
    <path clip-path="url(#pb8f39f3e14)" d="M 290.298236 252 
L 291.812483 252 
L 291.812483 85.789172 
L 290.298236 85.789172 
z
" style="opacity:0.5;"/>
   </g>
   <g id="patch_77">
    <path clip-path="url(#pb8f39f3e14)" d="M 293.32673 252 
L 294.840977 252 
L 294.840977 87.602942 
L 293.32673 87.602942 
z
" style="opacity:0.5;"/>
   </g>
   <g id="patch_78">
    <path clip-path="url(#pb8f39f3e14)" d="M 296.355224 252 
L 297.869471 252 
L 297.869471 91.037529 
L 296.355224 91.037529 
z
" style="opacity:0.5;"/>
   </g>
   <g id="patch_79">
    <path clip-path="url(#pb8f39f3e14)" d="M 299.383718 252 
L 300.897965 252 
L 300.897965 92.46539 
L 299.383718 92.46539 
z
" style="opacity:0.5;"/>
   </g>
   <g id="patch_80">
    <path clip-path="url(#pb8f39f3e14)" d="M 302.412212 252 
L 303.926459 252 
L 303.926459 91.847937 
L 302.412212 91.847937 
z
" style="opacity:0.5;"/>
   </g>
   <g id="patch_81">
    <path clip-path="url(#pb8f39f3e14)" d="M 305.440706 252 
L 306.954953 252 
L 306.954953 91.616392 
L 305.440706 91.616392 
z
" style="opacity:0.5;"/>
   </g>
   <g id="patch_82">
    <path clip-path="url(#pb8f39f3e14)" d="M 308.469199 252 
L 309.983446 252 
L 309.983446 98.639928 
L 308.469199 98.639928 
z
" style="opacity:0.5;"/>
   </g>
   <g id="patch_83">
    <path clip-path="url(#pb8f39f3e14)" d="M 311.497693 252 
L 313.01194 252 
L 313.01194 102.190287 
L 311.497693 102.190287 
z
" style="opacity:0.5;"/>
   </g>
   <g id="patch_84">
    <path clip-path="url(#pb8f39f3e14)" d="M 314.526187 252 
L 316.040434 252 
L 316.040434 106.936962 
L 314.526187 106.936962 
z
" style="opacity:0.5;"/>
   </g>
   <g id="patch_85">
    <path clip-path="url(#pb8f39f3e14)" d="M 317.554681 252 
L 319.068928 252 
L 319.068928 110.87323 
L 317.554681 110.87323 
z
" style="opacity:0.5;"/>
   </g>
   <g id="patch_86">
    <path clip-path="url(#pb8f39f3e14)" d="M 320.583175 252 
L 322.097422 252 
L 322.097422 116.623268 
L 320.583175 116.623268 
z
" style="opacity:0.5;"/>
   </g>
   <g id="patch_87">
    <path clip-path="url(#pb8f39f3e14)" d="M 323.611669 252 
L 325.125916 252 
L 325.125916 119.286037 
L 323.611669 119.286037 
z
" style="opacity:0.5;"/>
   </g>
   <g id="patch_88">
    <path clip-path="url(#pb8f39f3e14)" d="M 326.640163 252 
L 328.15441 252 
L 328.15441 127.544481 
L 326.640163 127.544481 
z
" style="opacity:0.5;"/>
   </g>
   <g id="patch_89">
    <path clip-path="url(#pb8f39f3e14)" d="M 329.668657 252 
L 331.182904 252 
L 331.182904 131.828066 
L 329.668657 131.828066 
z
" style="opacity:0.5;"/>
   </g>
   <g id="patch_90">
    <path clip-path="url(#pb8f39f3e14)" d="M 332.697151 252 
L 334.211398 252 
L 334.211398 138.079785 
L 332.697151 138.079785 
z
" style="opacity:0.5;"/>
   </g>
   <g id="patch_91">
    <path clip-path="url(#pb8f39f3e14)" d="M 335.725645 252 
L 337.239891 252 
L 337.239891 142.556325 
L 335.725645 142.556325 
z
" style="opacity:0.5;"/>
   </g>
   <g id="patch_92">
    <path clip-path="url(#pb8f39f3e14)" d="M 338.754138 252 
L 340.268385 252 
L 340.268385 150.89195 
L 338.754138 150.89195 
z
" style="opacity:0.5;"/>
   </g>
   <g id="patch_93">
    <path clip-path="url(#pb8f39f3e14)" d="M 341.782632 252 
L 343.296879 252 
L 343.296879 157.645351 
L 341.782632 157.645351 
z
" style="opacity:0.5;"/>
   </g>
   <g id="patch_94">
    <path clip-path="url(#pb8f39f3e14)" d="M 344.811126 252 
L 346.325373 252 
L 346.325373 168.103473 
L 344.811126 168.103473 
z
" style="opacity:0.5;"/>
   </g>
   <g id="patch_95">
    <path clip-path="url(#pb8f39f3e14)" d="M 347.83962 252 
L 349.353867 252 
L 349.353867 173.737739 
L 347.83962 173.737739 
z
" style="opacity:0.5;"/>
   </g>
   <g id="patch_96">
    <path clip-path="url(#pb8f39f3e14)" d="M 350.868114 252 
L 352.382361 252 
L 352.382361 181.648865 
L 350.868114 181.648865 
z
" style="opacity:0.5;"/>
   </g>
   <g id="patch_97">
    <path clip-path="url(#pb8f39f3e14)" d="M 353.896608 252 
L 355.410855 252 
L 355.410855 191.219398 
L 353.896608 191.219398 
z
" style="opacity:0.5;"/>
   </g>
   <g id="patch_98">
    <path clip-path="url(#pb8f39f3e14)" d="M 356.925102 252 
L 358.439349 252 
L 358.439349 199.786568 
L 356.925102 199.786568 
z
" style="opacity:0.5;"/>
   </g>
   <g id="patch_99">
    <path clip-path="url(#pb8f39f3e14)" d="M 359.953596 252 
L 361.467843 252 
L 361.467843 208.045012 
L 359.953596 208.045012 
z
" style="opacity:0.5;"/>
   </g>
   <g id="patch_100">
    <path clip-path="url(#pb8f39f3e14)" d="M 362.98209 252 
L 364.496336 252 
L 364.496336 220.046769 
L 362.98209 220.046769 
z
" style="opacity:0.5;"/>
   </g>
   <g id="patch_101">
    <path clip-path="url(#pb8f39f3e14)" d="M 366.010583 252 
L 367.52483 252 
L 367.52483 229.07703 
L 366.010583 229.07703 
z
" style="opacity:0.5;"/>
   </g>
   <g id="patch_102">
    <path clip-path="url(#pb8f39f3e14)" d="M 369.039077 252 
L 370.553324 252 
L 370.553324 240.847242 
L 369.039077 240.847242 
z
" style="opacity:0.5;"/>
   </g>
   <g id="patch_103">
    <path clip-path="url(#pb8f39f3e14)" d="M 372.067571 252 
L 373.581818 252 
L 373.581818 252 
L 372.067571 252 
z
" style="opacity:0.5;"/>
   </g>
   <g id="matplotlib.axis_1">
    <g id="xtick_1">
     <g id="line2d_1">
      <path clip-path="url(#pb8f39f3e14)" d="M 69.975305 252 
L 69.975305 34.56 
" style="fill:none;stroke:#b0b0b0;stroke-linecap:square;stroke-width:0.8;"/>
     </g>
     <g id="line2d_2">
      <defs>
       <path d="M 0 0 
L 0 3.5 
" id="mc35d325be7" style="stroke:#000000;stroke-width:0.8;"/>
      </defs>
      <g>
       <use style="stroke:#000000;stroke-width:0.8;" x="69.975305" xlink:href="#mc35d325be7" y="252"/>
      </g>
     </g>
     <g id="text_1">
      <!-- 0.0 -->
      <g transform="translate(62.023743 266.598437)scale(0.1 -0.1)">
       <defs>
        <path d="M 31.78125 66.40625 
Q 24.171875 66.40625 20.328125 58.90625 
Q 16.5 51.421875 16.5 36.375 
Q 16.5 21.390625 20.328125 13.890625 
Q 24.171875 6.390625 31.78125 6.390625 
Q 39.453125 6.390625 43.28125 13.890625 
Q 47.125 21.390625 47.125 36.375 
Q 47.125 51.421875 43.28125 58.90625 
Q 39.453125 66.40625 31.78125 66.40625 
z
M 31.78125 74.21875 
Q 44.046875 74.21875 50.515625 64.515625 
Q 56.984375 54.828125 56.984375 36.375 
Q 56.984375 17.96875 50.515625 8.265625 
Q 44.046875 -1.421875 31.78125 -1.421875 
Q 19.53125 -1.421875 13.0625 8.265625 
Q 6.59375 17.96875 6.59375 36.375 
Q 6.59375 54.828125 13.0625 64.515625 
Q 19.53125 74.21875 31.78125 74.21875 
z
" id="DejaVuSans-48"/>
        <path d="M 10.6875 12.40625 
L 21 12.40625 
L 21 0 
L 10.6875 0 
z
" id="DejaVuSans-46"/>
       </defs>
       <use xlink:href="#DejaVuSans-48"/>
       <use x="63.623047" xlink:href="#DejaVuSans-46"/>
       <use x="95.410156" xlink:href="#DejaVuSans-48"/>
      </g>
     </g>
    </g>
    <g id="xtick_2">
     <g id="line2d_3">
      <path clip-path="url(#pb8f39f3e14)" d="M 100.260244 252 
L 100.260244 34.56 
" style="fill:none;stroke:#b0b0b0;stroke-linecap:square;stroke-width:0.8;"/>
     </g>
     <g id="line2d_4">
      <g>
       <use style="stroke:#000000;stroke-width:0.8;" x="100.260244" xlink:href="#mc35d325be7" y="252"/>
      </g>
     </g>
     <g id="text_2">
      <!-- 0.1 -->
      <g transform="translate(92.308682 266.598437)scale(0.1 -0.1)">
       <defs>
        <path d="M 12.40625 8.296875 
L 28.515625 8.296875 
L 28.515625 63.921875 
L 10.984375 60.40625 
L 10.984375 69.390625 
L 28.421875 72.90625 
L 38.28125 72.90625 
L 38.28125 8.296875 
L 54.390625 8.296875 
L 54.390625 0 
L 12.40625 0 
z
" id="DejaVuSans-49"/>
       </defs>
       <use xlink:href="#DejaVuSans-48"/>
       <use x="63.623047" xlink:href="#DejaVuSans-46"/>
       <use x="95.410156" xlink:href="#DejaVuSans-49"/>
      </g>
     </g>
    </g>
    <g id="xtick_3">
     <g id="line2d_5">
      <path clip-path="url(#pb8f39f3e14)" d="M 130.545183 252 
L 130.545183 34.56 
" style="fill:none;stroke:#b0b0b0;stroke-linecap:square;stroke-width:0.8;"/>
     </g>
     <g id="line2d_6">
      <g>
       <use style="stroke:#000000;stroke-width:0.8;" x="130.545183" xlink:href="#mc35d325be7" y="252"/>
      </g>
     </g>
     <g id="text_3">
      <!-- 0.2 -->
      <g transform="translate(122.593621 266.598437)scale(0.1 -0.1)">
       <defs>
        <path d="M 19.1875 8.296875 
L 53.609375 8.296875 
L 53.609375 0 
L 7.328125 0 
L 7.328125 8.296875 
Q 12.9375 14.109375 22.625 23.890625 
Q 32.328125 33.6875 34.8125 36.53125 
Q 39.546875 41.84375 41.421875 45.53125 
Q 43.3125 49.21875 43.3125 52.78125 
Q 43.3125 58.59375 39.234375 62.25 
Q 35.15625 65.921875 28.609375 65.921875 
Q 23.96875 65.921875 18.8125 64.3125 
Q 13.671875 62.703125 7.8125 59.421875 
L 7.8125 69.390625 
Q 13.765625 71.78125 18.9375 73 
Q 24.125 74.21875 28.421875 74.21875 
Q 39.75 74.21875 46.484375 68.546875 
Q 53.21875 62.890625 53.21875 53.421875 
Q 53.21875 48.921875 51.53125 44.890625 
Q 49.859375 40.875 45.40625 35.40625 
Q 44.1875 33.984375 37.640625 27.21875 
Q 31.109375 20.453125 19.1875 8.296875 
z
" id="DejaVuSans-50"/>
       </defs>
       <use xlink:href="#DejaVuSans-48"/>
       <use x="63.623047" xlink:href="#DejaVuSans-46"/>
       <use x="95.410156" xlink:href="#DejaVuSans-50"/>
      </g>
     </g>
    </g>
    <g id="xtick_4">
     <g id="line2d_7">
      <path clip-path="url(#pb8f39f3e14)" d="M 160.830122 252 
L 160.830122 34.56 
" style="fill:none;stroke:#b0b0b0;stroke-linecap:square;stroke-width:0.8;"/>
     </g>
     <g id="line2d_8">
      <g>
       <use style="stroke:#000000;stroke-width:0.8;" x="160.830122" xlink:href="#mc35d325be7" y="252"/>
      </g>
     </g>
     <g id="text_4">
      <!-- 0.3 -->
      <g transform="translate(152.87856 266.598437)scale(0.1 -0.1)">
       <defs>
        <path d="M 40.578125 39.3125 
Q 47.65625 37.796875 51.625 33 
Q 55.609375 28.21875 55.609375 21.1875 
Q 55.609375 10.40625 48.1875 4.484375 
Q 40.765625 -1.421875 27.09375 -1.421875 
Q 22.515625 -1.421875 17.65625 -0.515625 
Q 12.796875 0.390625 7.625 2.203125 
L 7.625 11.71875 
Q 11.71875 9.328125 16.59375 8.109375 
Q 21.484375 6.890625 26.8125 6.890625 
Q 36.078125 6.890625 40.9375 10.546875 
Q 45.796875 14.203125 45.796875 21.1875 
Q 45.796875 27.640625 41.28125 31.265625 
Q 36.765625 34.90625 28.71875 34.90625 
L 20.21875 34.90625 
L 20.21875 43.015625 
L 29.109375 43.015625 
Q 36.375 43.015625 40.234375 45.921875 
Q 44.09375 48.828125 44.09375 54.296875 
Q 44.09375 59.90625 40.109375 62.90625 
Q 36.140625 65.921875 28.71875 65.921875 
Q 24.65625 65.921875 20.015625 65.03125 
Q 15.375 64.15625 9.8125 62.3125 
L 9.8125 71.09375 
Q 15.4375 72.65625 20.34375 73.4375 
Q 25.25 74.21875 29.59375 74.21875 
Q 40.828125 74.21875 47.359375 69.109375 
Q 53.90625 64.015625 53.90625 55.328125 
Q 53.90625 49.265625 50.4375 45.09375 
Q 46.96875 40.921875 40.578125 39.3125 
z
" id="DejaVuSans-51"/>
       </defs>
       <use xlink:href="#DejaVuSans-48"/>
       <use x="63.623047" xlink:href="#DejaVuSans-46"/>
       <use x="95.410156" xlink:href="#DejaVuSans-51"/>
      </g>
     </g>
    </g>
    <g id="xtick_5">
     <g id="line2d_9">
      <path clip-path="url(#pb8f39f3e14)" d="M 191.115061 252 
L 191.115061 34.56 
" style="fill:none;stroke:#b0b0b0;stroke-linecap:square;stroke-width:0.8;"/>
     </g>
     <g id="line2d_10">
      <g>
       <use style="stroke:#000000;stroke-width:0.8;" x="191.115061" xlink:href="#mc35d325be7" y="252"/>
      </g>
     </g>
     <g id="text_5">
      <!-- 0.4 -->
      <g transform="translate(183.163499 266.598437)scale(0.1 -0.1)">
       <defs>
        <path d="M 37.796875 64.3125 
L 12.890625 25.390625 
L 37.796875 25.390625 
z
M 35.203125 72.90625 
L 47.609375 72.90625 
L 47.609375 25.390625 
L 58.015625 25.390625 
L 58.015625 17.1875 
L 47.609375 17.1875 
L 47.609375 0 
L 37.796875 0 
L 37.796875 17.1875 
L 4.890625 17.1875 
L 4.890625 26.703125 
z
" id="DejaVuSans-52"/>
       </defs>
       <use xlink:href="#DejaVuSans-48"/>
       <use x="63.623047" xlink:href="#DejaVuSans-46"/>
       <use x="95.410156" xlink:href="#DejaVuSans-52"/>
      </g>
     </g>
    </g>
    <g id="xtick_6">
     <g id="line2d_11">
      <path clip-path="url(#pb8f39f3e14)" d="M 221.4 252 
L 221.4 34.56 
" style="fill:none;stroke:#b0b0b0;stroke-linecap:square;stroke-width:0.8;"/>
     </g>
     <g id="line2d_12">
      <g>
       <use style="stroke:#000000;stroke-width:0.8;" x="221.4" xlink:href="#mc35d325be7" y="252"/>
      </g>
     </g>
     <g id="text_6">
      <!-- 0.5 -->
      <g transform="translate(213.448438 266.598437)scale(0.1 -0.1)">
       <defs>
        <path d="M 10.796875 72.90625 
L 49.515625 72.90625 
L 49.515625 64.59375 
L 19.828125 64.59375 
L 19.828125 46.734375 
Q 21.96875 47.46875 24.109375 47.828125 
Q 26.265625 48.1875 28.421875 48.1875 
Q 40.625 48.1875 47.75 41.5 
Q 54.890625 34.8125 54.890625 23.390625 
Q 54.890625 11.625 47.5625 5.09375 
Q 40.234375 -1.421875 26.90625 -1.421875 
Q 22.3125 -1.421875 17.546875 -0.640625 
Q 12.796875 0.140625 7.71875 1.703125 
L 7.71875 11.625 
Q 12.109375 9.234375 16.796875 8.0625 
Q 21.484375 6.890625 26.703125 6.890625 
Q 35.15625 6.890625 40.078125 11.328125 
Q 45.015625 15.765625 45.015625 23.390625 
Q 45.015625 31 40.078125 35.4375 
Q 35.15625 39.890625 26.703125 39.890625 
Q 22.75 39.890625 18.8125 39.015625 
Q 14.890625 38.140625 10.796875 36.28125 
z
" id="DejaVuSans-53"/>
       </defs>
       <use xlink:href="#DejaVuSans-48"/>
       <use x="63.623047" xlink:href="#DejaVuSans-46"/>
       <use x="95.410156" xlink:href="#DejaVuSans-53"/>
      </g>
     </g>
    </g>
    <g id="xtick_7">
     <g id="line2d_13">
      <path clip-path="url(#pb8f39f3e14)" d="M 251.684939 252 
L 251.684939 34.56 
" style="fill:none;stroke:#b0b0b0;stroke-linecap:square;stroke-width:0.8;"/>
     </g>
     <g id="line2d_14">
      <g>
       <use style="stroke:#000000;stroke-width:0.8;" x="251.684939" xlink:href="#mc35d325be7" y="252"/>
      </g>
     </g>
     <g id="text_7">
      <!-- 0.6 -->
      <g transform="translate(243.733376 266.598437)scale(0.1 -0.1)">
       <defs>
        <path d="M 33.015625 40.375 
Q 26.375 40.375 22.484375 35.828125 
Q 18.609375 31.296875 18.609375 23.390625 
Q 18.609375 15.53125 22.484375 10.953125 
Q 26.375 6.390625 33.015625 6.390625 
Q 39.65625 6.390625 43.53125 10.953125 
Q 47.40625 15.53125 47.40625 23.390625 
Q 47.40625 31.296875 43.53125 35.828125 
Q 39.65625 40.375 33.015625 40.375 
z
M 52.59375 71.296875 
L 52.59375 62.3125 
Q 48.875 64.0625 45.09375 64.984375 
Q 41.3125 65.921875 37.59375 65.921875 
Q 27.828125 65.921875 22.671875 59.328125 
Q 17.53125 52.734375 16.796875 39.40625 
Q 19.671875 43.65625 24.015625 45.921875 
Q 28.375 48.1875 33.59375 48.1875 
Q 44.578125 48.1875 50.953125 41.515625 
Q 57.328125 34.859375 57.328125 23.390625 
Q 57.328125 12.15625 50.6875 5.359375 
Q 44.046875 -1.421875 33.015625 -1.421875 
Q 20.359375 -1.421875 13.671875 8.265625 
Q 6.984375 17.96875 6.984375 36.375 
Q 6.984375 53.65625 15.1875 63.9375 
Q 23.390625 74.21875 37.203125 74.21875 
Q 40.921875 74.21875 44.703125 73.484375 
Q 48.484375 72.75 52.59375 71.296875 
z
" id="DejaVuSans-54"/>
       </defs>
       <use xlink:href="#DejaVuSans-48"/>
       <use x="63.623047" xlink:href="#DejaVuSans-46"/>
       <use x="95.410156" xlink:href="#DejaVuSans-54"/>
      </g>
     </g>
    </g>
    <g id="xtick_8">
     <g id="line2d_15">
      <path clip-path="url(#pb8f39f3e14)" d="M 281.969878 252 
L 281.969878 34.56 
" style="fill:none;stroke:#b0b0b0;stroke-linecap:square;stroke-width:0.8;"/>
     </g>
     <g id="line2d_16">
      <g>
       <use style="stroke:#000000;stroke-width:0.8;" x="281.969878" xlink:href="#mc35d325be7" y="252"/>
      </g>
     </g>
     <g id="text_8">
      <!-- 0.7 -->
      <g transform="translate(274.018315 266.598437)scale(0.1 -0.1)">
       <defs>
        <path d="M 8.203125 72.90625 
L 55.078125 72.90625 
L 55.078125 68.703125 
L 28.609375 0 
L 18.3125 0 
L 43.21875 64.59375 
L 8.203125 64.59375 
z
" id="DejaVuSans-55"/>
       </defs>
       <use xlink:href="#DejaVuSans-48"/>
       <use x="63.623047" xlink:href="#DejaVuSans-46"/>
       <use x="95.410156" xlink:href="#DejaVuSans-55"/>
      </g>
     </g>
    </g>
    <g id="xtick_9">
     <g id="line2d_17">
      <path clip-path="url(#pb8f39f3e14)" d="M 312.254817 252 
L 312.254817 34.56 
" style="fill:none;stroke:#b0b0b0;stroke-linecap:square;stroke-width:0.8;"/>
     </g>
     <g id="line2d_18">
      <g>
       <use style="stroke:#000000;stroke-width:0.8;" x="312.254817" xlink:href="#mc35d325be7" y="252"/>
      </g>
     </g>
     <g id="text_9">
      <!-- 0.8 -->
      <g transform="translate(304.303254 266.598437)scale(0.1 -0.1)">
       <defs>
        <path d="M 31.78125 34.625 
Q 24.75 34.625 20.71875 30.859375 
Q 16.703125 27.09375 16.703125 20.515625 
Q 16.703125 13.921875 20.71875 10.15625 
Q 24.75 6.390625 31.78125 6.390625 
Q 38.8125 6.390625 42.859375 10.171875 
Q 46.921875 13.96875 46.921875 20.515625 
Q 46.921875 27.09375 42.890625 30.859375 
Q 38.875 34.625 31.78125 34.625 
z
M 21.921875 38.8125 
Q 15.578125 40.375 12.03125 44.71875 
Q 8.5 49.078125 8.5 55.328125 
Q 8.5 64.0625 14.71875 69.140625 
Q 20.953125 74.21875 31.78125 74.21875 
Q 42.671875 74.21875 48.875 69.140625 
Q 55.078125 64.0625 55.078125 55.328125 
Q 55.078125 49.078125 51.53125 44.71875 
Q 48 40.375 41.703125 38.8125 
Q 48.828125 37.15625 52.796875 32.3125 
Q 56.78125 27.484375 56.78125 20.515625 
Q 56.78125 9.90625 50.3125 4.234375 
Q 43.84375 -1.421875 31.78125 -1.421875 
Q 19.734375 -1.421875 13.25 4.234375 
Q 6.78125 9.90625 6.78125 20.515625 
Q 6.78125 27.484375 10.78125 32.3125 
Q 14.796875 37.15625 21.921875 38.8125 
z
M 18.3125 54.390625 
Q 18.3125 48.734375 21.84375 45.5625 
Q 25.390625 42.390625 31.78125 42.390625 
Q 38.140625 42.390625 41.71875 45.5625 
Q 45.3125 48.734375 45.3125 54.390625 
Q 45.3125 60.0625 41.71875 63.234375 
Q 38.140625 66.40625 31.78125 66.40625 
Q 25.390625 66.40625 21.84375 63.234375 
Q 18.3125 60.0625 18.3125 54.390625 
z
" id="DejaVuSans-56"/>
       </defs>
       <use xlink:href="#DejaVuSans-48"/>
       <use x="63.623047" xlink:href="#DejaVuSans-46"/>
       <use x="95.410156" xlink:href="#DejaVuSans-56"/>
      </g>
     </g>
    </g>
    <g id="xtick_10">
     <g id="line2d_19">
      <path clip-path="url(#pb8f39f3e14)" d="M 342.539756 252 
L 342.539756 34.56 
" style="fill:none;stroke:#b0b0b0;stroke-linecap:square;stroke-width:0.8;"/>
     </g>
     <g id="line2d_20">
      <g>
       <use style="stroke:#000000;stroke-width:0.8;" x="342.539756" xlink:href="#mc35d325be7" y="252"/>
      </g>
     </g>
     <g id="text_10">
      <!-- 0.9 -->
      <g transform="translate(334.588193 266.598437)scale(0.1 -0.1)">
       <defs>
        <path d="M 10.984375 1.515625 
L 10.984375 10.5 
Q 14.703125 8.734375 18.5 7.8125 
Q 22.3125 6.890625 25.984375 6.890625 
Q 35.75 6.890625 40.890625 13.453125 
Q 46.046875 20.015625 46.78125 33.40625 
Q 43.953125 29.203125 39.59375 26.953125 
Q 35.25 24.703125 29.984375 24.703125 
Q 19.046875 24.703125 12.671875 31.3125 
Q 6.296875 37.9375 6.296875 49.421875 
Q 6.296875 60.640625 12.9375 67.421875 
Q 19.578125 74.21875 30.609375 74.21875 
Q 43.265625 74.21875 49.921875 64.515625 
Q 56.59375 54.828125 56.59375 36.375 
Q 56.59375 19.140625 48.40625 8.859375 
Q 40.234375 -1.421875 26.421875 -1.421875 
Q 22.703125 -1.421875 18.890625 -0.6875 
Q 15.09375 0.046875 10.984375 1.515625 
z
M 30.609375 32.421875 
Q 37.25 32.421875 41.125 36.953125 
Q 45.015625 41.5 45.015625 49.421875 
Q 45.015625 57.28125 41.125 61.84375 
Q 37.25 66.40625 30.609375 66.40625 
Q 23.96875 66.40625 20.09375 61.84375 
Q 16.21875 57.28125 16.21875 49.421875 
Q 16.21875 41.5 20.09375 36.953125 
Q 23.96875 32.421875 30.609375 32.421875 
z
" id="DejaVuSans-57"/>
       </defs>
       <use xlink:href="#DejaVuSans-48"/>
       <use x="63.623047" xlink:href="#DejaVuSans-46"/>
       <use x="95.410156" xlink:href="#DejaVuSans-57"/>
      </g>
     </g>
    </g>
    <g id="xtick_11">
     <g id="line2d_21">
      <path clip-path="url(#pb8f39f3e14)" d="M 372.824695 252 
L 372.824695 34.56 
" style="fill:none;stroke:#b0b0b0;stroke-linecap:square;stroke-width:0.8;"/>
     </g>
     <g id="line2d_22">
      <g>
       <use style="stroke:#000000;stroke-width:0.8;" x="372.824695" xlink:href="#mc35d325be7" y="252"/>
      </g>
     </g>
     <g id="text_11">
      <!-- 1.0 -->
      <g transform="translate(364.873132 266.598437)scale(0.1 -0.1)">
       <use xlink:href="#DejaVuSans-49"/>
       <use x="63.623047" xlink:href="#DejaVuSans-46"/>
       <use x="95.410156" xlink:href="#DejaVuSans-48"/>
      </g>
     </g>
    </g>
    <g id="text_12">
     <!-- $\theta$ of coin -->
     <g transform="translate(199.95 280.276563)scale(0.1 -0.1)">
      <defs>
       <path d="M 45.515625 34.671875 
L 14.453125 34.671875 
Q 12.359375 20.0625 14.5 13.875 
Q 17.1875 6.25 24.46875 6.25 
Q 31.78125 6.25 37.359375 13.921875 
Q 42.234375 20.65625 45.515625 34.671875 
z
M 47.015625 42.96875 
Q 48.34375 56.84375 46.625 61.71875 
Q 43.953125 69.4375 36.765625 69.4375 
Q 29.296875 69.4375 23.828125 61.8125 
Q 19.53125 55.671875 16.15625 42.96875 
z
M 38.1875 76.765625 
Q 49.90625 76.765625 54.59375 66.40625 
Q 59.28125 56.109375 55.71875 37.84375 
Q 52.203125 19.625 43.453125 9.28125 
Q 34.765625 -1.125 23.046875 -1.125 
Q 11.28125 -1.125 6.640625 9.28125 
Q 2 19.625 5.515625 37.84375 
Q 9.078125 56.109375 17.71875 66.40625 
Q 26.421875 76.765625 38.1875 76.765625 
z
" id="DejaVuSans-Oblique-952"/>
       <path id="DejaVuSans-32"/>
       <path d="M 30.609375 48.390625 
Q 23.390625 48.390625 19.1875 42.75 
Q 14.984375 37.109375 14.984375 27.296875 
Q 14.984375 17.484375 19.15625 11.84375 
Q 23.34375 6.203125 30.609375 6.203125 
Q 37.796875 6.203125 41.984375 11.859375 
Q 46.1875 17.53125 46.1875 27.296875 
Q 46.1875 37.015625 41.984375 42.703125 
Q 37.796875 48.390625 30.609375 48.390625 
z
M 30.609375 56 
Q 42.328125 56 49.015625 48.375 
Q 55.71875 40.765625 55.71875 27.296875 
Q 55.71875 13.875 49.015625 6.21875 
Q 42.328125 -1.421875 30.609375 -1.421875 
Q 18.84375 -1.421875 12.171875 6.21875 
Q 5.515625 13.875 5.515625 27.296875 
Q 5.515625 40.765625 12.171875 48.375 
Q 18.84375 56 30.609375 56 
z
" id="DejaVuSans-111"/>
       <path d="M 37.109375 75.984375 
L 37.109375 68.5 
L 28.515625 68.5 
Q 23.6875 68.5 21.796875 66.546875 
Q 19.921875 64.59375 19.921875 59.515625 
L 19.921875 54.6875 
L 34.71875 54.6875 
L 34.71875 47.703125 
L 19.921875 47.703125 
L 19.921875 0 
L 10.890625 0 
L 10.890625 47.703125 
L 2.296875 47.703125 
L 2.296875 54.6875 
L 10.890625 54.6875 
L 10.890625 58.5 
Q 10.890625 67.625 15.140625 71.796875 
Q 19.390625 75.984375 28.609375 75.984375 
z
" id="DejaVuSans-102"/>
       <path d="M 48.78125 52.59375 
L 48.78125 44.1875 
Q 44.96875 46.296875 41.140625 47.34375 
Q 37.3125 48.390625 33.40625 48.390625 
Q 24.65625 48.390625 19.8125 42.84375 
Q 14.984375 37.3125 14.984375 27.296875 
Q 14.984375 17.28125 19.8125 11.734375 
Q 24.65625 6.203125 33.40625 6.203125 
Q 37.3125 6.203125 41.140625 7.25 
Q 44.96875 8.296875 48.78125 10.40625 
L 48.78125 2.09375 
Q 45.015625 0.34375 40.984375 -0.53125 
Q 36.96875 -1.421875 32.421875 -1.421875 
Q 20.0625 -1.421875 12.78125 6.34375 
Q 5.515625 14.109375 5.515625 27.296875 
Q 5.515625 40.671875 12.859375 48.328125 
Q 20.21875 56 33.015625 56 
Q 37.15625 56 41.109375 55.140625 
Q 45.0625 54.296875 48.78125 52.59375 
z
" id="DejaVuSans-99"/>
       <path d="M 9.421875 54.6875 
L 18.40625 54.6875 
L 18.40625 0 
L 9.421875 0 
z
M 9.421875 75.984375 
L 18.40625 75.984375 
L 18.40625 64.59375 
L 9.421875 64.59375 
z
" id="DejaVuSans-105"/>
       <path d="M 54.890625 33.015625 
L 54.890625 0 
L 45.90625 0 
L 45.90625 32.71875 
Q 45.90625 40.484375 42.875 44.328125 
Q 39.84375 48.1875 33.796875 48.1875 
Q 26.515625 48.1875 22.3125 43.546875 
Q 18.109375 38.921875 18.109375 30.90625 
L 18.109375 0 
L 9.078125 0 
L 9.078125 54.6875 
L 18.109375 54.6875 
L 18.109375 46.1875 
Q 21.34375 51.125 25.703125 53.5625 
Q 30.078125 56 35.796875 56 
Q 45.21875 56 50.046875 50.171875 
Q 54.890625 44.34375 54.890625 33.015625 
z
" id="DejaVuSans-110"/>
      </defs>
      <use transform="translate(0 0.234375)" xlink:href="#DejaVuSans-Oblique-952"/>
      <use transform="translate(61.181641 0.234375)" xlink:href="#DejaVuSans-32"/>
      <use transform="translate(92.96875 0.234375)" xlink:href="#DejaVuSans-111"/>
      <use transform="translate(154.150391 0.234375)" xlink:href="#DejaVuSans-102"/>
      <use transform="translate(189.355469 0.234375)" xlink:href="#DejaVuSans-32"/>
      <use transform="translate(221.142578 0.234375)" xlink:href="#DejaVuSans-99"/>
      <use transform="translate(276.123047 0.234375)" xlink:href="#DejaVuSans-111"/>
      <use transform="translate(337.304688 0.234375)" xlink:href="#DejaVuSans-105"/>
      <use transform="translate(365.087891 0.234375)" xlink:href="#DejaVuSans-110"/>
     </g>
    </g>
   </g>
   <g id="matplotlib.axis_2">
    <g id="ytick_1">
     <g id="line2d_23">
      <path clip-path="url(#pb8f39f3e14)" d="M 54 252 
L 388.8 252 
" style="fill:none;stroke:#b0b0b0;stroke-linecap:square;stroke-width:0.8;"/>
     </g>
     <g id="line2d_24">
      <defs>
       <path d="M 0 0 
L -3.5 0 
" id="m3242eeaf9f" style="stroke:#000000;stroke-width:0.8;"/>
      </defs>
      <g>
       <use style="stroke:#000000;stroke-width:0.8;" x="54" xlink:href="#m3242eeaf9f" y="252"/>
      </g>
     </g>
     <g id="text_13">
      <!-- 0.00 -->
      <g transform="translate(24.734375 255.799219)scale(0.1 -0.1)">
       <use xlink:href="#DejaVuSans-48"/>
       <use x="63.623047" xlink:href="#DejaVuSans-46"/>
       <use x="95.410156" xlink:href="#DejaVuSans-48"/>
       <use x="159.033203" xlink:href="#DejaVuSans-48"/>
      </g>
     </g>
    </g>
    <g id="ytick_2">
     <g id="line2d_25">
      <path clip-path="url(#pb8f39f3e14)" d="M 54 227.84 
L 388.8 227.84 
" style="fill:none;stroke:#b0b0b0;stroke-linecap:square;stroke-width:0.8;"/>
     </g>
     <g id="line2d_26">
      <g>
       <use style="stroke:#000000;stroke-width:0.8;" x="54" xlink:href="#m3242eeaf9f" y="227.84"/>
      </g>
     </g>
     <g id="text_14">
      <!-- 0.25 -->
      <g transform="translate(24.734375 231.639219)scale(0.1 -0.1)">
       <use xlink:href="#DejaVuSans-48"/>
       <use x="63.623047" xlink:href="#DejaVuSans-46"/>
       <use x="95.410156" xlink:href="#DejaVuSans-50"/>
       <use x="159.033203" xlink:href="#DejaVuSans-53"/>
      </g>
     </g>
    </g>
    <g id="ytick_3">
     <g id="line2d_27">
      <path clip-path="url(#pb8f39f3e14)" d="M 54 203.68 
L 388.8 203.68 
" style="fill:none;stroke:#b0b0b0;stroke-linecap:square;stroke-width:0.8;"/>
     </g>
     <g id="line2d_28">
      <g>
       <use style="stroke:#000000;stroke-width:0.8;" x="54" xlink:href="#m3242eeaf9f" y="203.68"/>
      </g>
     </g>
     <g id="text_15">
      <!-- 0.50 -->
      <g transform="translate(24.734375 207.479219)scale(0.1 -0.1)">
       <use xlink:href="#DejaVuSans-48"/>
       <use x="63.623047" xlink:href="#DejaVuSans-46"/>
       <use x="95.410156" xlink:href="#DejaVuSans-53"/>
       <use x="159.033203" xlink:href="#DejaVuSans-48"/>
      </g>
     </g>
    </g>
    <g id="ytick_4">
     <g id="line2d_29">
      <path clip-path="url(#pb8f39f3e14)" d="M 54 179.52 
L 388.8 179.52 
" style="fill:none;stroke:#b0b0b0;stroke-linecap:square;stroke-width:0.8;"/>
     </g>
     <g id="line2d_30">
      <g>
       <use style="stroke:#000000;stroke-width:0.8;" x="54" xlink:href="#m3242eeaf9f" y="179.52"/>
      </g>
     </g>
     <g id="text_16">
      <!-- 0.75 -->
      <g transform="translate(24.734375 183.319219)scale(0.1 -0.1)">
       <use xlink:href="#DejaVuSans-48"/>
       <use x="63.623047" xlink:href="#DejaVuSans-46"/>
       <use x="95.410156" xlink:href="#DejaVuSans-55"/>
       <use x="159.033203" xlink:href="#DejaVuSans-53"/>
      </g>
     </g>
    </g>
    <g id="ytick_5">
     <g id="line2d_31">
      <path clip-path="url(#pb8f39f3e14)" d="M 54 155.36 
L 388.8 155.36 
" style="fill:none;stroke:#b0b0b0;stroke-linecap:square;stroke-width:0.8;"/>
     </g>
     <g id="line2d_32">
      <g>
       <use style="stroke:#000000;stroke-width:0.8;" x="54" xlink:href="#m3242eeaf9f" y="155.36"/>
      </g>
     </g>
     <g id="text_17">
      <!-- 1.00 -->
      <g transform="translate(24.734375 159.159219)scale(0.1 -0.1)">
       <use xlink:href="#DejaVuSans-49"/>
       <use x="63.623047" xlink:href="#DejaVuSans-46"/>
       <use x="95.410156" xlink:href="#DejaVuSans-48"/>
       <use x="159.033203" xlink:href="#DejaVuSans-48"/>
      </g>
     </g>
    </g>
    <g id="ytick_6">
     <g id="line2d_33">
      <path clip-path="url(#pb8f39f3e14)" d="M 54 131.2 
L 388.8 131.2 
" style="fill:none;stroke:#b0b0b0;stroke-linecap:square;stroke-width:0.8;"/>
     </g>
     <g id="line2d_34">
      <g>
       <use style="stroke:#000000;stroke-width:0.8;" x="54" xlink:href="#m3242eeaf9f" y="131.2"/>
      </g>
     </g>
     <g id="text_18">
      <!-- 1.25 -->
      <g transform="translate(24.734375 134.999219)scale(0.1 -0.1)">
       <use xlink:href="#DejaVuSans-49"/>
       <use x="63.623047" xlink:href="#DejaVuSans-46"/>
       <use x="95.410156" xlink:href="#DejaVuSans-50"/>
       <use x="159.033203" xlink:href="#DejaVuSans-53"/>
      </g>
     </g>
    </g>
    <g id="ytick_7">
     <g id="line2d_35">
      <path clip-path="url(#pb8f39f3e14)" d="M 54 107.04 
L 388.8 107.04 
" style="fill:none;stroke:#b0b0b0;stroke-linecap:square;stroke-width:0.8;"/>
     </g>
     <g id="line2d_36">
      <g>
       <use style="stroke:#000000;stroke-width:0.8;" x="54" xlink:href="#m3242eeaf9f" y="107.04"/>
      </g>
     </g>
     <g id="text_19">
      <!-- 1.50 -->
      <g transform="translate(24.734375 110.839219)scale(0.1 -0.1)">
       <use xlink:href="#DejaVuSans-49"/>
       <use x="63.623047" xlink:href="#DejaVuSans-46"/>
       <use x="95.410156" xlink:href="#DejaVuSans-53"/>
       <use x="159.033203" xlink:href="#DejaVuSans-48"/>
      </g>
     </g>
    </g>
    <g id="ytick_8">
     <g id="line2d_37">
      <path clip-path="url(#pb8f39f3e14)" d="M 54 82.88 
L 388.8 82.88 
" style="fill:none;stroke:#b0b0b0;stroke-linecap:square;stroke-width:0.8;"/>
     </g>
     <g id="line2d_38">
      <g>
       <use style="stroke:#000000;stroke-width:0.8;" x="54" xlink:href="#m3242eeaf9f" y="82.88"/>
      </g>
     </g>
     <g id="text_20">
      <!-- 1.75 -->
      <g transform="translate(24.734375 86.679219)scale(0.1 -0.1)">
       <use xlink:href="#DejaVuSans-49"/>
       <use x="63.623047" xlink:href="#DejaVuSans-46"/>
       <use x="95.410156" xlink:href="#DejaVuSans-55"/>
       <use x="159.033203" xlink:href="#DejaVuSans-53"/>
      </g>
     </g>
    </g>
    <g id="ytick_9">
     <g id="line2d_39">
      <path clip-path="url(#pb8f39f3e14)" d="M 54 58.72 
L 388.8 58.72 
" style="fill:none;stroke:#b0b0b0;stroke-linecap:square;stroke-width:0.8;"/>
     </g>
     <g id="line2d_40">
      <g>
       <use style="stroke:#000000;stroke-width:0.8;" x="54" xlink:href="#m3242eeaf9f" y="58.72"/>
      </g>
     </g>
     <g id="text_21">
      <!-- 2.00 -->
      <g transform="translate(24.734375 62.519219)scale(0.1 -0.1)">
       <use xlink:href="#DejaVuSans-50"/>
       <use x="63.623047" xlink:href="#DejaVuSans-46"/>
       <use x="95.410156" xlink:href="#DejaVuSans-48"/>
       <use x="159.033203" xlink:href="#DejaVuSans-48"/>
      </g>
     </g>
    </g>
    <g id="ytick_10">
     <g id="line2d_41">
      <path clip-path="url(#pb8f39f3e14)" d="M 54 34.56 
L 388.8 34.56 
" style="fill:none;stroke:#b0b0b0;stroke-linecap:square;stroke-width:0.8;"/>
     </g>
     <g id="line2d_42">
      <g>
       <use style="stroke:#000000;stroke-width:0.8;" x="54" xlink:href="#m3242eeaf9f" y="34.56"/>
      </g>
     </g>
     <g id="text_22">
      <!-- 2.25 -->
      <g transform="translate(24.734375 38.359219)scale(0.1 -0.1)">
       <use xlink:href="#DejaVuSans-50"/>
       <use x="63.623047" xlink:href="#DejaVuSans-46"/>
       <use x="95.410156" xlink:href="#DejaVuSans-50"/>
       <use x="159.033203" xlink:href="#DejaVuSans-53"/>
      </g>
     </g>
    </g>
    <g id="text_23">
     <!-- $p(\mathcal{D}|\theta)$ -->
     <g transform="translate(18.334375 159.13)rotate(-90)scale(0.1 -0.1)">
      <defs>
       <path d="M 49.609375 33.6875 
Q 49.609375 40.875 46.484375 44.671875 
Q 43.359375 48.484375 37.5 48.484375 
Q 33.5 48.484375 29.859375 46.4375 
Q 26.21875 44.390625 23.390625 40.484375 
Q 20.609375 36.625 18.9375 31.15625 
Q 17.28125 25.6875 17.28125 20.3125 
Q 17.28125 13.484375 20.40625 9.796875 
Q 23.53125 6.109375 29.296875 6.109375 
Q 33.546875 6.109375 37.1875 8.109375 
Q 40.828125 10.109375 43.40625 13.921875 
Q 46.1875 17.921875 47.890625 23.34375 
Q 49.609375 28.765625 49.609375 33.6875 
z
M 21.78125 46.390625 
Q 25.390625 51.125 30.296875 53.5625 
Q 35.203125 56 41.21875 56 
Q 49.609375 56 54.25 50.5 
Q 58.890625 45.015625 58.890625 35.109375 
Q 58.890625 27 56 19.65625 
Q 53.125 12.3125 47.703125 6.5 
Q 44.09375 2.640625 39.546875 0.609375 
Q 35.015625 -1.421875 29.984375 -1.421875 
Q 24.171875 -1.421875 20.21875 1 
Q 16.265625 3.421875 14.3125 8.203125 
L 8.6875 -20.796875 
L -0.296875 -20.796875 
L 14.40625 54.6875 
L 23.390625 54.6875 
z
" id="DejaVuSans-Oblique-112"/>
       <path d="M 31 75.875 
Q 24.46875 64.65625 21.28125 53.65625 
Q 18.109375 42.671875 18.109375 31.390625 
Q 18.109375 20.125 21.3125 9.0625 
Q 24.515625 -2 31 -13.1875 
L 23.1875 -13.1875 
Q 15.875 -1.703125 12.234375 9.375 
Q 8.59375 20.453125 8.59375 31.390625 
Q 8.59375 42.28125 12.203125 53.3125 
Q 15.828125 64.359375 23.1875 75.875 
z
" id="DejaVuSans-40"/>
       <path d="M 4.90625 53.40625 
L 3.40625 55.296875 
Q 9.703125 61.296875 17.59375 63.796875 
Q 25.296875 66.203125 38.90625 66.203125 
Q 54.296875 66.203125 62.9375 63.75 
Q 71.59375 61.296875 75.1875 56.1875 
Q 78.796875 51.09375 78.796875 42.203125 
Q 78.796875 36.703125 77.34375 31.140625 
Q 75.90625 25.59375 72.40625 19.890625 
Q 68.90625 14.203125 63.59375 9.84375 
Q 58.296875 5.5 49.84375 2.75 
Q 41.40625 0 30.90625 0 
L 5.203125 0 
L 5.90625 2.40625 
Q 9 2.40625 10.59375 4.296875 
Q 12.203125 6.203125 13.59375 11.09375 
L 23.296875 44.796875 
Q 23.703125 46.203125 24.703125 49.296875 
Q 25.703125 52.40625 26.140625 54.15625 
Q 26.59375 55.90625 26.59375 56.90625 
Q 26.59375 60.59375 22.09375 60.59375 
Q 13.703125 60.59375 4.90625 53.40625 
z
M 38.09375 58.59375 
L 23.59375 8.703125 
Q 23.09375 7.09375 23.09375 6.09375 
Q 23.09375 4.796875 24.5 4.390625 
Q 25.90625 4 29 4 
Q 32.703125 4 36.796875 4.640625 
Q 40.90625 5.296875 46.703125 7.640625 
Q 52.5 10 56.953125 13.84375 
Q 61.40625 17.703125 64.59375 24.953125 
Q 67.796875 32.203125 67.796875 41.796875 
Q 67.796875 52 62.140625 57.09375 
Q 56.5 62.203125 43.09375 62.203125 
Q 41.296875 62.203125 39.890625 61.140625 
Q 38.5 60.09375 38.09375 58.59375 
z
" id="STIXNonUnicode-Italic-57904"/>
       <path d="M 21 76.421875 
L 21 -23.578125 
L 12.703125 -23.578125 
L 12.703125 76.421875 
z
" id="DejaVuSans-124"/>
       <path d="M 8.015625 75.875 
L 15.828125 75.875 
Q 23.140625 64.359375 26.78125 53.3125 
Q 30.421875 42.28125 30.421875 31.390625 
Q 30.421875 20.453125 26.78125 9.375 
Q 23.140625 -1.703125 15.828125 -13.1875 
L 8.015625 -13.1875 
Q 14.5 -2 17.703125 9.0625 
Q 20.90625 20.125 20.90625 31.390625 
Q 20.90625 42.671875 17.703125 53.65625 
Q 14.5 64.65625 8.015625 75.875 
z
" id="DejaVuSans-41"/>
      </defs>
      <use transform="translate(0 0.234375)" xlink:href="#DejaVuSans-Oblique-112"/>
      <use transform="translate(63.476562 0.234375)" xlink:href="#DejaVuSans-40"/>
      <use transform="translate(102.490234 0.234375)" xlink:href="#STIXNonUnicode-Italic-57904"/>
      <use transform="translate(182.590225 0.234375)" xlink:href="#DejaVuSans-124"/>
      <use transform="translate(216.281631 0.234375)" xlink:href="#DejaVuSans-Oblique-952"/>
      <use transform="translate(277.463272 0.234375)" xlink:href="#DejaVuSans-41"/>
     </g>
    </g>
   </g>
   <g id="line2d_43">
    <defs>
     <path d="M 0 0.5 
C 0.132602 0.5 0.25979 0.447317 0.353553 0.353553 
C 0.447317 0.25979 0.5 0.132602 0.5 0 
C 0.5 -0.132602 0.447317 -0.25979 0.353553 -0.353553 
C 0.25979 -0.447317 0.132602 -0.5 0 -0.5 
C -0.132602 -0.5 -0.25979 -0.447317 -0.353553 -0.353553 
C -0.447317 -0.25979 -0.5 -0.132602 -0.5 0 
C -0.5 0.132602 -0.447317 0.25979 -0.353553 0.353553 
C -0.25979 0.447317 -0.132602 0.5 0 0.5 
z
" id="m6d37605d39" style="stroke:#000000;"/>
    </defs>
    <g clip-path="url(#pb8f39f3e14)">
     <use style="stroke:#000000;" x="69.975305" xlink:href="#m6d37605d39" y="252"/>
     <use style="stroke:#000000;" x="73.003799" xlink:href="#m6d37605d39" y="251.885192"/>
     <use style="stroke:#000000;" x="76.032293" xlink:href="#m6d37605d39" y="251.545405"/>
     <use style="stroke:#000000;" x="79.060787" xlink:href="#m6d37605d39" y="250.987599"/>
     <use style="stroke:#000000;" x="82.089281" xlink:href="#m6d37605d39" y="250.218732"/>
     <use style="stroke:#000000;" x="85.117775" xlink:href="#m6d37605d39" y="249.24576"/>
     <use style="stroke:#000000;" x="88.146269" xlink:href="#m6d37605d39" y="248.075643"/>
     <use style="stroke:#000000;" x="91.174763" xlink:href="#m6d37605d39" y="246.715338"/>
     <use style="stroke:#000000;" x="94.203256" xlink:href="#m6d37605d39" y="245.171804"/>
     <use style="stroke:#000000;" x="97.23175" xlink:href="#m6d37605d39" y="243.451999"/>
     <use style="stroke:#000000;" x="100.260244" xlink:href="#m6d37605d39" y="241.56288"/>
     <use style="stroke:#000000;" x="103.288738" xlink:href="#m6d37605d39" y="239.511406"/>
     <use style="stroke:#000000;" x="106.317232" xlink:href="#m6d37605d39" y="237.304535"/>
     <use style="stroke:#000000;" x="109.345726" xlink:href="#m6d37605d39" y="234.949225"/>
     <use style="stroke:#000000;" x="112.37422" xlink:href="#m6d37605d39" y="232.452434"/>
     <use style="stroke:#000000;" x="115.402714" xlink:href="#m6d37605d39" y="229.82112"/>
     <use style="stroke:#000000;" x="118.431208" xlink:href="#m6d37605d39" y="227.062241"/>
     <use style="stroke:#000000;" x="121.459701" xlink:href="#m6d37605d39" y="224.182756"/>
     <use style="stroke:#000000;" x="124.488195" xlink:href="#m6d37605d39" y="221.189622"/>
     <use style="stroke:#000000;" x="127.516689" xlink:href="#m6d37605d39" y="218.089797"/>
     <use style="stroke:#000000;" x="130.545183" xlink:href="#m6d37605d39" y="214.89024"/>
     <use style="stroke:#000000;" x="133.573677" xlink:href="#m6d37605d39" y="211.597908"/>
     <use style="stroke:#000000;" x="136.602171" xlink:href="#m6d37605d39" y="208.219761"/>
     <use style="stroke:#000000;" x="139.630665" xlink:href="#m6d37605d39" y="204.762755"/>
     <use style="stroke:#000000;" x="142.659159" xlink:href="#m6d37605d39" y="201.233848"/>
     <use style="stroke:#000000;" x="145.687653" xlink:href="#m6d37605d39" y="197.64"/>
     <use style="stroke:#000000;" x="148.716147" xlink:href="#m6d37605d39" y="193.988168"/>
     <use style="stroke:#000000;" x="151.74464" xlink:href="#m6d37605d39" y="190.285309"/>
     <use style="stroke:#000000;" x="154.773134" xlink:href="#m6d37605d39" y="186.538383"/>
     <use style="stroke:#000000;" x="157.801628" xlink:href="#m6d37605d39" y="182.754348"/>
     <use style="stroke:#000000;" x="160.830122" xlink:href="#m6d37605d39" y="178.94016"/>
     <use style="stroke:#000000;" x="163.858616" xlink:href="#m6d37605d39" y="175.102779"/>
     <use style="stroke:#000000;" x="166.88711" xlink:href="#m6d37605d39" y="171.249162"/>
     <use style="stroke:#000000;" x="169.915604" xlink:href="#m6d37605d39" y="167.386268"/>
     <use style="stroke:#000000;" x="172.944098" xlink:href="#m6d37605d39" y="163.521055"/>
     <use style="stroke:#000000;" x="175.972592" xlink:href="#m6d37605d39" y="159.66048"/>
     <use style="stroke:#000000;" x="179.001085" xlink:href="#m6d37605d39" y="155.811502"/>
     <use style="stroke:#000000;" x="182.029579" xlink:href="#m6d37605d39" y="151.981079"/>
     <use style="stroke:#000000;" x="185.058073" xlink:href="#m6d37605d39" y="148.176169"/>
     <use style="stroke:#000000;" x="188.086567" xlink:href="#m6d37605d39" y="144.40373"/>
     <use style="stroke:#000000;" x="191.115061" xlink:href="#m6d37605d39" y="140.67072"/>
     <use style="stroke:#000000;" x="194.143555" xlink:href="#m6d37605d39" y="136.984097"/>
     <use style="stroke:#000000;" x="197.172049" xlink:href="#m6d37605d39" y="133.35082"/>
     <use style="stroke:#000000;" x="200.200543" xlink:href="#m6d37605d39" y="129.777846"/>
     <use style="stroke:#000000;" x="203.229037" xlink:href="#m6d37605d39" y="126.272133"/>
     <use style="stroke:#000000;" x="206.257531" xlink:href="#m6d37605d39" y="122.84064"/>
     <use style="stroke:#000000;" x="209.286024" xlink:href="#m6d37605d39" y="119.490324"/>
     <use style="stroke:#000000;" x="212.314518" xlink:href="#m6d37605d39" y="116.228145"/>
     <use style="stroke:#000000;" x="215.343012" xlink:href="#m6d37605d39" y="113.061059"/>
     <use style="stroke:#000000;" x="218.371506" xlink:href="#m6d37605d39" y="109.996024"/>
     <use style="stroke:#000000;" x="221.4" xlink:href="#m6d37605d39" y="107.04"/>
     <use style="stroke:#000000;" x="224.428494" xlink:href="#m6d37605d39" y="104.199944"/>
     <use style="stroke:#000000;" x="227.456988" xlink:href="#m6d37605d39" y="101.482813"/>
     <use style="stroke:#000000;" x="230.485482" xlink:href="#m6d37605d39" y="98.895567"/>
     <use style="stroke:#000000;" x="233.513976" xlink:href="#m6d37605d39" y="96.445164"/>
     <use style="stroke:#000000;" x="236.542469" xlink:href="#m6d37605d39" y="94.13856"/>
     <use style="stroke:#000000;" x="239.570963" xlink:href="#m6d37605d39" y="91.982715"/>
     <use style="stroke:#000000;" x="242.599457" xlink:href="#m6d37605d39" y="89.984586"/>
     <use style="stroke:#000000;" x="245.627951" xlink:href="#m6d37605d39" y="88.151132"/>
     <use style="stroke:#000000;" x="248.656445" xlink:href="#m6d37605d39" y="86.489311"/>
     <use style="stroke:#000000;" x="251.684939" xlink:href="#m6d37605d39" y="85.00608"/>
     <use style="stroke:#000000;" x="254.713433" xlink:href="#m6d37605d39" y="83.708398"/>
     <use style="stroke:#000000;" x="257.741927" xlink:href="#m6d37605d39" y="82.603223"/>
     <use style="stroke:#000000;" x="260.770421" xlink:href="#m6d37605d39" y="81.697513"/>
     <use style="stroke:#000000;" x="263.798915" xlink:href="#m6d37605d39" y="80.998226"/>
     <use style="stroke:#000000;" x="266.827408" xlink:href="#m6d37605d39" y="80.51232"/>
     <use style="stroke:#000000;" x="269.855902" xlink:href="#m6d37605d39" y="80.246753"/>
     <use style="stroke:#000000;" x="272.884396" xlink:href="#m6d37605d39" y="80.208484"/>
     <use style="stroke:#000000;" x="275.91289" xlink:href="#m6d37605d39" y="80.40447"/>
     <use style="stroke:#000000;" x="278.941384" xlink:href="#m6d37605d39" y="80.841669"/>
     <use style="stroke:#000000;" x="281.969878" xlink:href="#m6d37605d39" y="81.52704"/>
     <use style="stroke:#000000;" x="284.998372" xlink:href="#m6d37605d39" y="82.46754"/>
     <use style="stroke:#000000;" x="288.026866" xlink:href="#m6d37605d39" y="83.670129"/>
     <use style="stroke:#000000;" x="291.05536" xlink:href="#m6d37605d39" y="85.141763"/>
     <use style="stroke:#000000;" x="294.083853" xlink:href="#m6d37605d39" y="86.8894"/>
     <use style="stroke:#000000;" x="297.112347" xlink:href="#m6d37605d39" y="88.92"/>
     <use style="stroke:#000000;" x="300.140841" xlink:href="#m6d37605d39" y="91.24052"/>
     <use style="stroke:#000000;" x="303.169335" xlink:href="#m6d37605d39" y="93.857917"/>
     <use style="stroke:#000000;" x="306.197829" xlink:href="#m6d37605d39" y="96.779151"/>
     <use style="stroke:#000000;" x="309.226323" xlink:href="#m6d37605d39" y="100.01118"/>
     <use style="stroke:#000000;" x="312.254817" xlink:href="#m6d37605d39" y="103.56096"/>
     <use style="stroke:#000000;" x="315.283311" xlink:href="#m6d37605d39" y="107.435451"/>
     <use style="stroke:#000000;" x="318.311805" xlink:href="#m6d37605d39" y="111.64161"/>
     <use style="stroke:#000000;" x="321.340299" xlink:href="#m6d37605d39" y="116.186396"/>
     <use style="stroke:#000000;" x="324.368792" xlink:href="#m6d37605d39" y="121.076767"/>
     <use style="stroke:#000000;" x="327.397286" xlink:href="#m6d37605d39" y="126.31968"/>
     <use style="stroke:#000000;" x="330.42578" xlink:href="#m6d37605d39" y="131.922094"/>
     <use style="stroke:#000000;" x="333.454274" xlink:href="#m6d37605d39" y="137.890967"/>
     <use style="stroke:#000000;" x="336.482768" xlink:href="#m6d37605d39" y="144.233257"/>
     <use style="stroke:#000000;" x="339.511262" xlink:href="#m6d37605d39" y="150.955922"/>
     <use style="stroke:#000000;" x="342.539756" xlink:href="#m6d37605d39" y="158.06592"/>
     <use style="stroke:#000000;" x="345.56825" xlink:href="#m6d37605d39" y="165.570209"/>
     <use style="stroke:#000000;" x="348.596744" xlink:href="#m6d37605d39" y="173.475748"/>
     <use style="stroke:#000000;" x="351.625237" xlink:href="#m6d37605d39" y="181.789494"/>
     <use style="stroke:#000000;" x="354.653731" xlink:href="#m6d37605d39" y="190.518405"/>
     <use style="stroke:#000000;" x="357.682225" xlink:href="#m6d37605d39" y="199.66944"/>
     <use style="stroke:#000000;" x="360.710719" xlink:href="#m6d37605d39" y="209.249556"/>
     <use style="stroke:#000000;" x="363.739213" xlink:href="#m6d37605d39" y="219.265713"/>
     <use style="stroke:#000000;" x="366.767707" xlink:href="#m6d37605d39" y="229.724867"/>
     <use style="stroke:#000000;" x="369.796201" xlink:href="#m6d37605d39" y="240.633976"/>
     <use style="stroke:#000000;" x="372.824695" xlink:href="#m6d37605d39" y="252"/>
    </g>
   </g>
   <g id="line2d_44">
    <path clip-path="url(#pb8f39f3e14)" d="M 127.516689 252 
L 351.625237 252 
" style="fill:none;stroke:#000000;stroke-linecap:square;stroke-width:3;"/>
   </g>
   <g id="patch_104">
    <path d="M 54 252 
L 54 34.56 
" style="fill:none;stroke:#000000;stroke-linecap:square;stroke-linejoin:miter;stroke-width:0.8;"/>
   </g>
   <g id="patch_105">
    <path d="M 388.8 252 
L 388.8 34.56 
" style="fill:none;stroke:#000000;stroke-linecap:square;stroke-linejoin:miter;stroke-width:0.8;"/>
   </g>
   <g id="patch_106">
    <path d="M 54 252 
L 388.8 252 
" style="fill:none;stroke:#000000;stroke-linecap:square;stroke-linejoin:miter;stroke-width:0.8;"/>
   </g>
   <g id="patch_107">
    <path d="M 54 34.56 
L 388.8 34.56 
" style="fill:none;stroke:#000000;stroke-linecap:square;stroke-linejoin:miter;stroke-width:0.8;"/>
   </g>
   <g id="text_24">
    <!-- Experiment: Toss coins with different $\theta$ 3x; Each experiment bin -->
    <g transform="translate(28.44 14.952)scale(0.12 -0.12)">
     <defs>
      <path d="M 9.8125 72.90625 
L 55.90625 72.90625 
L 55.90625 64.59375 
L 19.671875 64.59375 
L 19.671875 43.015625 
L 54.390625 43.015625 
L 54.390625 34.71875 
L 19.671875 34.71875 
L 19.671875 8.296875 
L 56.78125 8.296875 
L 56.78125 0 
L 9.8125 0 
z
" id="DejaVuSans-69"/>
      <path d="M 54.890625 54.6875 
L 35.109375 28.078125 
L 55.90625 0 
L 45.3125 0 
L 29.390625 21.484375 
L 13.484375 0 
L 2.875 0 
L 24.125 28.609375 
L 4.6875 54.6875 
L 15.28125 54.6875 
L 29.78125 35.203125 
L 44.28125 54.6875 
z
" id="DejaVuSans-120"/>
      <path d="M 18.109375 8.203125 
L 18.109375 -20.796875 
L 9.078125 -20.796875 
L 9.078125 54.6875 
L 18.109375 54.6875 
L 18.109375 46.390625 
Q 20.953125 51.265625 25.265625 53.625 
Q 29.59375 56 35.59375 56 
Q 45.5625 56 51.78125 48.09375 
Q 58.015625 40.1875 58.015625 27.296875 
Q 58.015625 14.40625 51.78125 6.484375 
Q 45.5625 -1.421875 35.59375 -1.421875 
Q 29.59375 -1.421875 25.265625 0.953125 
Q 20.953125 3.328125 18.109375 8.203125 
z
M 48.6875 27.296875 
Q 48.6875 37.203125 44.609375 42.84375 
Q 40.53125 48.484375 33.40625 48.484375 
Q 26.265625 48.484375 22.1875 42.84375 
Q 18.109375 37.203125 18.109375 27.296875 
Q 18.109375 17.390625 22.1875 11.75 
Q 26.265625 6.109375 33.40625 6.109375 
Q 40.53125 6.109375 44.609375 11.75 
Q 48.6875 17.390625 48.6875 27.296875 
z
" id="DejaVuSans-112"/>
      <path d="M 56.203125 29.59375 
L 56.203125 25.203125 
L 14.890625 25.203125 
Q 15.484375 15.921875 20.484375 11.0625 
Q 25.484375 6.203125 34.421875 6.203125 
Q 39.59375 6.203125 44.453125 7.46875 
Q 49.3125 8.734375 54.109375 11.28125 
L 54.109375 2.78125 
Q 49.265625 0.734375 44.1875 -0.34375 
Q 39.109375 -1.421875 33.890625 -1.421875 
Q 20.796875 -1.421875 13.15625 6.1875 
Q 5.515625 13.8125 5.515625 26.8125 
Q 5.515625 40.234375 12.765625 48.109375 
Q 20.015625 56 32.328125 56 
Q 43.359375 56 49.78125 48.890625 
Q 56.203125 41.796875 56.203125 29.59375 
z
M 47.21875 32.234375 
Q 47.125 39.59375 43.09375 43.984375 
Q 39.0625 48.390625 32.421875 48.390625 
Q 24.90625 48.390625 20.390625 44.140625 
Q 15.875 39.890625 15.1875 32.171875 
z
" id="DejaVuSans-101"/>
      <path d="M 41.109375 46.296875 
Q 39.59375 47.171875 37.8125 47.578125 
Q 36.03125 48 33.890625 48 
Q 26.265625 48 22.1875 43.046875 
Q 18.109375 38.09375 18.109375 28.8125 
L 18.109375 0 
L 9.078125 0 
L 9.078125 54.6875 
L 18.109375 54.6875 
L 18.109375 46.1875 
Q 20.953125 51.171875 25.484375 53.578125 
Q 30.03125 56 36.53125 56 
Q 37.453125 56 38.578125 55.875 
Q 39.703125 55.765625 41.0625 55.515625 
z
" id="DejaVuSans-114"/>
      <path d="M 52 44.1875 
Q 55.375 50.25 60.0625 53.125 
Q 64.75 56 71.09375 56 
Q 79.640625 56 84.28125 50.015625 
Q 88.921875 44.046875 88.921875 33.015625 
L 88.921875 0 
L 79.890625 0 
L 79.890625 32.71875 
Q 79.890625 40.578125 77.09375 44.375 
Q 74.3125 48.1875 68.609375 48.1875 
Q 61.625 48.1875 57.5625 43.546875 
Q 53.515625 38.921875 53.515625 30.90625 
L 53.515625 0 
L 44.484375 0 
L 44.484375 32.71875 
Q 44.484375 40.625 41.703125 44.40625 
Q 38.921875 48.1875 33.109375 48.1875 
Q 26.21875 48.1875 22.15625 43.53125 
Q 18.109375 38.875 18.109375 30.90625 
L 18.109375 0 
L 9.078125 0 
L 9.078125 54.6875 
L 18.109375 54.6875 
L 18.109375 46.1875 
Q 21.1875 51.21875 25.484375 53.609375 
Q 29.78125 56 35.6875 56 
Q 41.65625 56 45.828125 52.96875 
Q 50 49.953125 52 44.1875 
z
" id="DejaVuSans-109"/>
      <path d="M 18.3125 70.21875 
L 18.3125 54.6875 
L 36.8125 54.6875 
L 36.8125 47.703125 
L 18.3125 47.703125 
L 18.3125 18.015625 
Q 18.3125 11.328125 20.140625 9.421875 
Q 21.96875 7.515625 27.59375 7.515625 
L 36.8125 7.515625 
L 36.8125 0 
L 27.59375 0 
Q 17.1875 0 13.234375 3.875 
Q 9.28125 7.765625 9.28125 18.015625 
L 9.28125 47.703125 
L 2.6875 47.703125 
L 2.6875 54.6875 
L 9.28125 54.6875 
L 9.28125 70.21875 
z
" id="DejaVuSans-116"/>
      <path d="M 11.71875 12.40625 
L 22.015625 12.40625 
L 22.015625 0 
L 11.71875 0 
z
M 11.71875 51.703125 
L 22.015625 51.703125 
L 22.015625 39.3125 
L 11.71875 39.3125 
z
" id="DejaVuSans-58"/>
      <path d="M -0.296875 72.90625 
L 61.375 72.90625 
L 61.375 64.59375 
L 35.5 64.59375 
L 35.5 0 
L 25.59375 0 
L 25.59375 64.59375 
L -0.296875 64.59375 
z
" id="DejaVuSans-84"/>
      <path d="M 44.28125 53.078125 
L 44.28125 44.578125 
Q 40.484375 46.53125 36.375 47.5 
Q 32.28125 48.484375 27.875 48.484375 
Q 21.1875 48.484375 17.84375 46.4375 
Q 14.5 44.390625 14.5 40.28125 
Q 14.5 37.15625 16.890625 35.375 
Q 19.28125 33.59375 26.515625 31.984375 
L 29.59375 31.296875 
Q 39.15625 29.25 43.1875 25.515625 
Q 47.21875 21.78125 47.21875 15.09375 
Q 47.21875 7.46875 41.1875 3.015625 
Q 35.15625 -1.421875 24.609375 -1.421875 
Q 20.21875 -1.421875 15.453125 -0.5625 
Q 10.6875 0.296875 5.421875 2 
L 5.421875 11.28125 
Q 10.40625 8.6875 15.234375 7.390625 
Q 20.0625 6.109375 24.8125 6.109375 
Q 31.15625 6.109375 34.5625 8.28125 
Q 37.984375 10.453125 37.984375 14.40625 
Q 37.984375 18.0625 35.515625 20.015625 
Q 33.0625 21.96875 24.703125 23.78125 
L 21.578125 24.515625 
Q 13.234375 26.265625 9.515625 29.90625 
Q 5.8125 33.546875 5.8125 39.890625 
Q 5.8125 47.609375 11.28125 51.796875 
Q 16.75 56 26.8125 56 
Q 31.78125 56 36.171875 55.265625 
Q 40.578125 54.546875 44.28125 53.078125 
z
" id="DejaVuSans-115"/>
      <path d="M 4.203125 54.6875 
L 13.1875 54.6875 
L 24.421875 12.015625 
L 35.59375 54.6875 
L 46.1875 54.6875 
L 57.421875 12.015625 
L 68.609375 54.6875 
L 77.59375 54.6875 
L 63.28125 0 
L 52.6875 0 
L 40.921875 44.828125 
L 29.109375 0 
L 18.5 0 
z
" id="DejaVuSans-119"/>
      <path d="M 54.890625 33.015625 
L 54.890625 0 
L 45.90625 0 
L 45.90625 32.71875 
Q 45.90625 40.484375 42.875 44.328125 
Q 39.84375 48.1875 33.796875 48.1875 
Q 26.515625 48.1875 22.3125 43.546875 
Q 18.109375 38.921875 18.109375 30.90625 
L 18.109375 0 
L 9.078125 0 
L 9.078125 75.984375 
L 18.109375 75.984375 
L 18.109375 46.1875 
Q 21.34375 51.125 25.703125 53.5625 
Q 30.078125 56 35.796875 56 
Q 45.21875 56 50.046875 50.171875 
Q 54.890625 44.34375 54.890625 33.015625 
z
" id="DejaVuSans-104"/>
      <path d="M 45.40625 46.390625 
L 45.40625 75.984375 
L 54.390625 75.984375 
L 54.390625 0 
L 45.40625 0 
L 45.40625 8.203125 
Q 42.578125 3.328125 38.25 0.953125 
Q 33.9375 -1.421875 27.875 -1.421875 
Q 17.96875 -1.421875 11.734375 6.484375 
Q 5.515625 14.40625 5.515625 27.296875 
Q 5.515625 40.1875 11.734375 48.09375 
Q 17.96875 56 27.875 56 
Q 33.9375 56 38.25 53.625 
Q 42.578125 51.265625 45.40625 46.390625 
z
M 14.796875 27.296875 
Q 14.796875 17.390625 18.875 11.75 
Q 22.953125 6.109375 30.078125 6.109375 
Q 37.203125 6.109375 41.296875 11.75 
Q 45.40625 17.390625 45.40625 27.296875 
Q 45.40625 37.203125 41.296875 42.84375 
Q 37.203125 48.484375 30.078125 48.484375 
Q 22.953125 48.484375 18.875 42.84375 
Q 14.796875 37.203125 14.796875 27.296875 
z
" id="DejaVuSans-100"/>
      <path d="M 11.71875 51.703125 
L 22.015625 51.703125 
L 22.015625 39.3125 
L 11.71875 39.3125 
z
M 11.71875 12.40625 
L 22.015625 12.40625 
L 22.015625 4 
L 14.015625 -11.625 
L 7.71875 -11.625 
L 11.71875 4 
z
" id="DejaVuSans-59"/>
      <path d="M 34.28125 27.484375 
Q 23.390625 27.484375 19.1875 25 
Q 14.984375 22.515625 14.984375 16.5 
Q 14.984375 11.71875 18.140625 8.90625 
Q 21.296875 6.109375 26.703125 6.109375 
Q 34.1875 6.109375 38.703125 11.40625 
Q 43.21875 16.703125 43.21875 25.484375 
L 43.21875 27.484375 
z
M 52.203125 31.203125 
L 52.203125 0 
L 43.21875 0 
L 43.21875 8.296875 
Q 40.140625 3.328125 35.546875 0.953125 
Q 30.953125 -1.421875 24.3125 -1.421875 
Q 15.921875 -1.421875 10.953125 3.296875 
Q 6 8.015625 6 15.921875 
Q 6 25.140625 12.171875 29.828125 
Q 18.359375 34.515625 30.609375 34.515625 
L 43.21875 34.515625 
L 43.21875 35.40625 
Q 43.21875 41.609375 39.140625 45 
Q 35.0625 48.390625 27.6875 48.390625 
Q 23 48.390625 18.546875 47.265625 
Q 14.109375 46.140625 10.015625 43.890625 
L 10.015625 52.203125 
Q 14.9375 54.109375 19.578125 55.046875 
Q 24.21875 56 28.609375 56 
Q 40.484375 56 46.34375 49.84375 
Q 52.203125 43.703125 52.203125 31.203125 
z
" id="DejaVuSans-97"/>
      <path d="M 48.6875 27.296875 
Q 48.6875 37.203125 44.609375 42.84375 
Q 40.53125 48.484375 33.40625 48.484375 
Q 26.265625 48.484375 22.1875 42.84375 
Q 18.109375 37.203125 18.109375 27.296875 
Q 18.109375 17.390625 22.1875 11.75 
Q 26.265625 6.109375 33.40625 6.109375 
Q 40.53125 6.109375 44.609375 11.75 
Q 48.6875 17.390625 48.6875 27.296875 
z
M 18.109375 46.390625 
Q 20.953125 51.265625 25.265625 53.625 
Q 29.59375 56 35.59375 56 
Q 45.5625 56 51.78125 48.09375 
Q 58.015625 40.1875 58.015625 27.296875 
Q 58.015625 14.40625 51.78125 6.484375 
Q 45.5625 -1.421875 35.59375 -1.421875 
Q 29.59375 -1.421875 25.265625 0.953125 
Q 20.953125 3.328125 18.109375 8.203125 
L 18.109375 0 
L 9.078125 0 
L 9.078125 75.984375 
L 18.109375 75.984375 
z
" id="DejaVuSans-98"/>
     </defs>
     <use transform="translate(0 0.234375)" xlink:href="#DejaVuSans-69"/>
     <use transform="translate(63.183594 0.234375)" xlink:href="#DejaVuSans-120"/>
     <use transform="translate(122.363281 0.234375)" xlink:href="#DejaVuSans-112"/>
     <use transform="translate(185.839844 0.234375)" xlink:href="#DejaVuSans-101"/>
     <use transform="translate(247.363281 0.234375)" xlink:href="#DejaVuSans-114"/>
     <use transform="translate(288.476562 0.234375)" xlink:href="#DejaVuSans-105"/>
     <use transform="translate(316.259766 0.234375)" xlink:href="#DejaVuSans-109"/>
     <use transform="translate(413.671875 0.234375)" xlink:href="#DejaVuSans-101"/>
     <use transform="translate(475.195312 0.234375)" xlink:href="#DejaVuSans-110"/>
     <use transform="translate(538.574219 0.234375)" xlink:href="#DejaVuSans-116"/>
     <use transform="translate(577.783203 0.234375)" xlink:href="#DejaVuSans-58"/>
     <use transform="translate(611.474609 0.234375)" xlink:href="#DejaVuSans-32"/>
     <use transform="translate(643.261719 0.234375)" xlink:href="#DejaVuSans-84"/>
     <use transform="translate(704.345703 0.234375)" xlink:href="#DejaVuSans-111"/>
     <use transform="translate(765.527344 0.234375)" xlink:href="#DejaVuSans-115"/>
     <use transform="translate(817.626953 0.234375)" xlink:href="#DejaVuSans-115"/>
     <use transform="translate(869.726562 0.234375)" xlink:href="#DejaVuSans-32"/>
     <use transform="translate(901.513672 0.234375)" xlink:href="#DejaVuSans-99"/>
     <use transform="translate(956.494141 0.234375)" xlink:href="#DejaVuSans-111"/>
     <use transform="translate(1017.675781 0.234375)" xlink:href="#DejaVuSans-105"/>
     <use transform="translate(1045.458984 0.234375)" xlink:href="#DejaVuSans-110"/>
     <use transform="translate(1108.837891 0.234375)" xlink:href="#DejaVuSans-115"/>
     <use transform="translate(1160.9375 0.234375)" xlink:href="#DejaVuSans-32"/>
     <use transform="translate(1192.724609 0.234375)" xlink:href="#DejaVuSans-119"/>
     <use transform="translate(1274.511719 0.234375)" xlink:href="#DejaVuSans-105"/>
     <use transform="translate(1302.294922 0.234375)" xlink:href="#DejaVuSans-116"/>
     <use transform="translate(1341.503906 0.234375)" xlink:href="#DejaVuSans-104"/>
     <use transform="translate(1404.882812 0.234375)" xlink:href="#DejaVuSans-32"/>
     <use transform="translate(1436.669922 0.234375)" xlink:href="#DejaVuSans-100"/>
     <use transform="translate(1500.146484 0.234375)" xlink:href="#DejaVuSans-105"/>
     <use transform="translate(1527.929688 0.234375)" xlink:href="#DejaVuSans-102"/>
     <use transform="translate(1563.134766 0.234375)" xlink:href="#DejaVuSans-102"/>
     <use transform="translate(1598.339844 0.234375)" xlink:href="#DejaVuSans-101"/>
     <use transform="translate(1659.863281 0.234375)" xlink:href="#DejaVuSans-114"/>
     <use transform="translate(1700.976562 0.234375)" xlink:href="#DejaVuSans-101"/>
     <use transform="translate(1762.5 0.234375)" xlink:href="#DejaVuSans-110"/>
     <use transform="translate(1825.878906 0.234375)" xlink:href="#DejaVuSans-116"/>
     <use transform="translate(1865.087891 0.234375)" xlink:href="#DejaVuSans-32"/>
     <use transform="translate(1896.875 0.234375)" xlink:href="#DejaVuSans-Oblique-952"/>
     <use transform="translate(1958.056641 0.234375)" xlink:href="#DejaVuSans-32"/>
     <use transform="translate(1989.84375 0.234375)" xlink:href="#DejaVuSans-51"/>
     <use transform="translate(2053.466797 0.234375)" xlink:href="#DejaVuSans-120"/>
     <use transform="translate(2112.646484 0.234375)" xlink:href="#DejaVuSans-59"/>
     <use transform="translate(2146.337891 0.234375)" xlink:href="#DejaVuSans-32"/>
     <use transform="translate(2178.125 0.234375)" xlink:href="#DejaVuSans-69"/>
     <use transform="translate(2241.308594 0.234375)" xlink:href="#DejaVuSans-97"/>
     <use transform="translate(2302.587891 0.234375)" xlink:href="#DejaVuSans-99"/>
     <use transform="translate(2357.568359 0.234375)" xlink:href="#DejaVuSans-104"/>
     <use transform="translate(2420.947266 0.234375)" xlink:href="#DejaVuSans-32"/>
     <use transform="translate(2452.734375 0.234375)" xlink:href="#DejaVuSans-101"/>
     <use transform="translate(2514.257812 0.234375)" xlink:href="#DejaVuSans-120"/>
     <use transform="translate(2573.4375 0.234375)" xlink:href="#DejaVuSans-112"/>
     <use transform="translate(2636.914062 0.234375)" xlink:href="#DejaVuSans-101"/>
     <use transform="translate(2698.4375 0.234375)" xlink:href="#DejaVuSans-114"/>
     <use transform="translate(2739.550781 0.234375)" xlink:href="#DejaVuSans-105"/>
     <use transform="translate(2767.333984 0.234375)" xlink:href="#DejaVuSans-109"/>
     <use transform="translate(2864.746094 0.234375)" xlink:href="#DejaVuSans-101"/>
     <use transform="translate(2926.269531 0.234375)" xlink:href="#DejaVuSans-110"/>
     <use transform="translate(2989.648438 0.234375)" xlink:href="#DejaVuSans-116"/>
     <use transform="translate(3028.857422 0.234375)" xlink:href="#DejaVuSans-32"/>
     <use transform="translate(3060.644531 0.234375)" xlink:href="#DejaVuSans-98"/>
     <use transform="translate(3124.121094 0.234375)" xlink:href="#DejaVuSans-105"/>
     <use transform="translate(3151.904297 0.234375)" xlink:href="#DejaVuSans-110"/>
    </g>
    <!-- is result from 10k reps of experiment for given $\theta$. $\mathcal{D}=[H,H,T]$ -->
    <g transform="translate(35.88 28.56)scale(0.12 -0.12)">
     <defs>
      <path d="M 8.5 21.578125 
L 8.5 54.6875 
L 17.484375 54.6875 
L 17.484375 21.921875 
Q 17.484375 14.15625 20.5 10.265625 
Q 23.53125 6.390625 29.59375 6.390625 
Q 36.859375 6.390625 41.078125 11.03125 
Q 45.3125 15.671875 45.3125 23.6875 
L 45.3125 54.6875 
L 54.296875 54.6875 
L 54.296875 0 
L 45.3125 0 
L 45.3125 8.40625 
Q 42.046875 3.421875 37.71875 1 
Q 33.40625 -1.421875 27.6875 -1.421875 
Q 18.265625 -1.421875 13.375 4.4375 
Q 8.5 10.296875 8.5 21.578125 
z
M 31.109375 56 
z
" id="DejaVuSans-117"/>
      <path d="M 9.421875 75.984375 
L 18.40625 75.984375 
L 18.40625 0 
L 9.421875 0 
z
" id="DejaVuSans-108"/>
      <path d="M 9.078125 75.984375 
L 18.109375 75.984375 
L 18.109375 31.109375 
L 44.921875 54.6875 
L 56.390625 54.6875 
L 27.390625 29.109375 
L 57.625 0 
L 45.90625 0 
L 18.109375 26.703125 
L 18.109375 0 
L 9.078125 0 
z
" id="DejaVuSans-107"/>
      <path d="M 45.40625 27.984375 
Q 45.40625 37.75 41.375 43.109375 
Q 37.359375 48.484375 30.078125 48.484375 
Q 22.859375 48.484375 18.828125 43.109375 
Q 14.796875 37.75 14.796875 27.984375 
Q 14.796875 18.265625 18.828125 12.890625 
Q 22.859375 7.515625 30.078125 7.515625 
Q 37.359375 7.515625 41.375 12.890625 
Q 45.40625 18.265625 45.40625 27.984375 
z
M 54.390625 6.78125 
Q 54.390625 -7.171875 48.1875 -13.984375 
Q 42 -20.796875 29.203125 -20.796875 
Q 24.46875 -20.796875 20.265625 -20.09375 
Q 16.0625 -19.390625 12.109375 -17.921875 
L 12.109375 -9.1875 
Q 16.0625 -11.328125 19.921875 -12.34375 
Q 23.78125 -13.375 27.78125 -13.375 
Q 36.625 -13.375 41.015625 -8.765625 
Q 45.40625 -4.15625 45.40625 5.171875 
L 45.40625 9.625 
Q 42.625 4.78125 38.28125 2.390625 
Q 33.9375 0 27.875 0 
Q 17.828125 0 11.671875 7.65625 
Q 5.515625 15.328125 5.515625 27.984375 
Q 5.515625 40.671875 11.671875 48.328125 
Q 17.828125 56 27.875 56 
Q 33.9375 56 38.28125 53.609375 
Q 42.625 51.21875 45.40625 46.390625 
L 45.40625 54.6875 
L 54.390625 54.6875 
z
" id="DejaVuSans-103"/>
      <path d="M 2.984375 54.6875 
L 12.5 54.6875 
L 29.59375 8.796875 
L 46.6875 54.6875 
L 56.203125 54.6875 
L 35.6875 0 
L 23.484375 0 
z
" id="DejaVuSans-118"/>
      <path d="M 10.59375 45.40625 
L 73.1875 45.40625 
L 73.1875 37.203125 
L 10.59375 37.203125 
z
M 10.59375 25.484375 
L 73.1875 25.484375 
L 73.1875 17.1875 
L 10.59375 17.1875 
z
" id="DejaVuSans-61"/>
      <path d="M 8.59375 75.984375 
L 29.296875 75.984375 
L 29.296875 69 
L 17.578125 69 
L 17.578125 -6.203125 
L 29.296875 -6.203125 
L 29.296875 -13.1875 
L 8.59375 -13.1875 
z
" id="DejaVuSans-91"/>
      <path d="M 16.890625 72.90625 
L 26.8125 72.90625 
L 21 43.015625 
L 56.78125 43.015625 
L 62.59375 72.90625 
L 72.515625 72.90625 
L 58.296875 0 
L 48.390625 0 
L 55.171875 34.71875 
L 19.390625 34.71875 
L 12.59375 0 
L 2.6875 0 
z
" id="DejaVuSans-Oblique-72"/>
      <path d="M 11.71875 12.40625 
L 22.015625 12.40625 
L 22.015625 4 
L 14.015625 -11.625 
L 7.71875 -11.625 
L 11.71875 4 
z
" id="DejaVuSans-44"/>
      <path d="M 5.90625 72.90625 
L 67.578125 72.90625 
L 66.015625 64.59375 
L 39.984375 64.59375 
L 27.484375 0 
L 17.578125 0 
L 30.078125 64.59375 
L 4.296875 64.59375 
z
" id="DejaVuSans-Oblique-84"/>
      <path d="M 30.421875 75.984375 
L 30.421875 -13.1875 
L 9.71875 -13.1875 
L 9.71875 -6.203125 
L 21.390625 -6.203125 
L 21.390625 69 
L 9.71875 69 
L 9.71875 75.984375 
z
" id="DejaVuSans-93"/>
     </defs>
     <use transform="translate(0 0.234375)" xlink:href="#DejaVuSans-105"/>
     <use transform="translate(27.783203 0.234375)" xlink:href="#DejaVuSans-115"/>
     <use transform="translate(79.882812 0.234375)" xlink:href="#DejaVuSans-32"/>
     <use transform="translate(111.669922 0.234375)" xlink:href="#DejaVuSans-114"/>
     <use transform="translate(152.783203 0.234375)" xlink:href="#DejaVuSans-101"/>
     <use transform="translate(214.306641 0.234375)" xlink:href="#DejaVuSans-115"/>
     <use transform="translate(266.40625 0.234375)" xlink:href="#DejaVuSans-117"/>
     <use transform="translate(329.785156 0.234375)" xlink:href="#DejaVuSans-108"/>
     <use transform="translate(357.568359 0.234375)" xlink:href="#DejaVuSans-116"/>
     <use transform="translate(396.777344 0.234375)" xlink:href="#DejaVuSans-32"/>
     <use transform="translate(428.564453 0.234375)" xlink:href="#DejaVuSans-102"/>
     <use transform="translate(463.769531 0.234375)" xlink:href="#DejaVuSans-114"/>
     <use transform="translate(504.882812 0.234375)" xlink:href="#DejaVuSans-111"/>
     <use transform="translate(566.064453 0.234375)" xlink:href="#DejaVuSans-109"/>
     <use transform="translate(663.476562 0.234375)" xlink:href="#DejaVuSans-32"/>
     <use transform="translate(695.263672 0.234375)" xlink:href="#DejaVuSans-49"/>
     <use transform="translate(758.886719 0.234375)" xlink:href="#DejaVuSans-48"/>
     <use transform="translate(822.509766 0.234375)" xlink:href="#DejaVuSans-107"/>
     <use transform="translate(880.419922 0.234375)" xlink:href="#DejaVuSans-32"/>
     <use transform="translate(912.207031 0.234375)" xlink:href="#DejaVuSans-114"/>
     <use transform="translate(953.320312 0.234375)" xlink:href="#DejaVuSans-101"/>
     <use transform="translate(1014.84375 0.234375)" xlink:href="#DejaVuSans-112"/>
     <use transform="translate(1078.320312 0.234375)" xlink:href="#DejaVuSans-115"/>
     <use transform="translate(1130.419922 0.234375)" xlink:href="#DejaVuSans-32"/>
     <use transform="translate(1162.207031 0.234375)" xlink:href="#DejaVuSans-111"/>
     <use transform="translate(1223.388672 0.234375)" xlink:href="#DejaVuSans-102"/>
     <use transform="translate(1258.59375 0.234375)" xlink:href="#DejaVuSans-32"/>
     <use transform="translate(1290.380859 0.234375)" xlink:href="#DejaVuSans-101"/>
     <use transform="translate(1351.904297 0.234375)" xlink:href="#DejaVuSans-120"/>
     <use transform="translate(1411.083984 0.234375)" xlink:href="#DejaVuSans-112"/>
     <use transform="translate(1474.560547 0.234375)" xlink:href="#DejaVuSans-101"/>
     <use transform="translate(1536.083984 0.234375)" xlink:href="#DejaVuSans-114"/>
     <use transform="translate(1577.197266 0.234375)" xlink:href="#DejaVuSans-105"/>
     <use transform="translate(1604.980469 0.234375)" xlink:href="#DejaVuSans-109"/>
     <use transform="translate(1702.392578 0.234375)" xlink:href="#DejaVuSans-101"/>
     <use transform="translate(1763.916016 0.234375)" xlink:href="#DejaVuSans-110"/>
     <use transform="translate(1827.294922 0.234375)" xlink:href="#DejaVuSans-116"/>
     <use transform="translate(1866.503906 0.234375)" xlink:href="#DejaVuSans-32"/>
     <use transform="translate(1898.291016 0.234375)" xlink:href="#DejaVuSans-102"/>
     <use transform="translate(1933.496094 0.234375)" xlink:href="#DejaVuSans-111"/>
     <use transform="translate(1994.677734 0.234375)" xlink:href="#DejaVuSans-114"/>
     <use transform="translate(2035.791016 0.234375)" xlink:href="#DejaVuSans-32"/>
     <use transform="translate(2067.578125 0.234375)" xlink:href="#DejaVuSans-103"/>
     <use transform="translate(2131.054688 0.234375)" xlink:href="#DejaVuSans-105"/>
     <use transform="translate(2158.837891 0.234375)" xlink:href="#DejaVuSans-118"/>
     <use transform="translate(2218.017578 0.234375)" xlink:href="#DejaVuSans-101"/>
     <use transform="translate(2279.541016 0.234375)" xlink:href="#DejaVuSans-110"/>
     <use transform="translate(2342.919922 0.234375)" xlink:href="#DejaVuSans-32"/>
     <use transform="translate(2374.707031 0.234375)" xlink:href="#DejaVuSans-Oblique-952"/>
     <use transform="translate(2435.888672 0.234375)" xlink:href="#DejaVuSans-46"/>
     <use transform="translate(2467.675781 0.234375)" xlink:href="#DejaVuSans-32"/>
     <use transform="translate(2499.462891 0.234375)" xlink:href="#STIXNonUnicode-Italic-57904"/>
     <use transform="translate(2599.045303 0.234375)" xlink:href="#DejaVuSans-61"/>
     <use transform="translate(2702.316788 0.234375)" xlink:href="#DejaVuSans-91"/>
     <use transform="translate(2738.20546 0.234375)" xlink:href="#DejaVuSans-Oblique-72"/>
     <use transform="translate(2813.400772 0.234375)" xlink:href="#DejaVuSans-44"/>
     <use transform="translate(2864.670303 0.234375)" xlink:href="#DejaVuSans-Oblique-72"/>
     <use transform="translate(2939.865616 0.234375)" xlink:href="#DejaVuSans-44"/>
     <use transform="translate(2991.135147 0.234375)" xlink:href="#DejaVuSans-Oblique-84"/>
     <use transform="translate(3052.219131 0.234375)" xlink:href="#DejaVuSans-93"/>
    </g>
   </g>
   <g id="legend_1">
    <g id="patch_108">
     <path d="M 61 86.594375 
L 236.43125 86.594375 
Q 238.43125 86.594375 238.43125 84.594375 
L 238.43125 41.56 
Q 238.43125 39.56 236.43125 39.56 
L 61 39.56 
Q 59 39.56 59 41.56 
L 59 84.594375 
Q 59 86.594375 61 86.594375 
z
" style="fill:#ffffff;opacity:0.8;stroke:#cccccc;stroke-linejoin:miter;"/>
    </g>
    <g id="line2d_45"/>
    <g id="line2d_46">
     <g>
      <use style="stroke:#000000;" x="73" xlink:href="#m6d37605d39" y="47.658438"/>
     </g>
    </g>
    <g id="text_25">
     <!-- Exact -->
     <g transform="translate(91 51.158438)scale(0.1 -0.1)">
      <use xlink:href="#DejaVuSans-69"/>
      <use x="63.183594" xlink:href="#DejaVuSans-120"/>
      <use x="122.363281" xlink:href="#DejaVuSans-97"/>
      <use x="183.642578" xlink:href="#DejaVuSans-99"/>
      <use x="238.623047" xlink:href="#DejaVuSans-116"/>
     </g>
    </g>
    <g id="line2d_47">
     <path d="M 63 62.336563 
L 83 62.336563 
" style="fill:none;stroke:#000000;stroke-linecap:square;stroke-width:3;"/>
    </g>
    <g id="line2d_48"/>
    <g id="text_26">
     <!-- 95% credible int. [0.19,0.93] -->
     <g transform="translate(91 65.836563)scale(0.1 -0.1)">
      <defs>
       <path d="M 72.703125 32.078125 
Q 68.453125 32.078125 66.03125 28.46875 
Q 63.625 24.859375 63.625 18.40625 
Q 63.625 12.0625 66.03125 8.421875 
Q 68.453125 4.78125 72.703125 4.78125 
Q 76.859375 4.78125 79.265625 8.421875 
Q 81.6875 12.0625 81.6875 18.40625 
Q 81.6875 24.8125 79.265625 28.4375 
Q 76.859375 32.078125 72.703125 32.078125 
z
M 72.703125 38.28125 
Q 80.421875 38.28125 84.953125 32.90625 
Q 89.5 27.546875 89.5 18.40625 
Q 89.5 9.28125 84.9375 3.921875 
Q 80.375 -1.421875 72.703125 -1.421875 
Q 64.890625 -1.421875 60.34375 3.921875 
Q 55.8125 9.28125 55.8125 18.40625 
Q 55.8125 27.59375 60.375 32.9375 
Q 64.9375 38.28125 72.703125 38.28125 
z
M 22.3125 68.015625 
Q 18.109375 68.015625 15.6875 64.375 
Q 13.28125 60.75 13.28125 54.390625 
Q 13.28125 47.953125 15.671875 44.328125 
Q 18.0625 40.71875 22.3125 40.71875 
Q 26.5625 40.71875 28.96875 44.328125 
Q 31.390625 47.953125 31.390625 54.390625 
Q 31.390625 60.6875 28.953125 64.34375 
Q 26.515625 68.015625 22.3125 68.015625 
z
M 66.40625 74.21875 
L 74.21875 74.21875 
L 28.609375 -1.421875 
L 20.796875 -1.421875 
z
M 22.3125 74.21875 
Q 30.03125 74.21875 34.609375 68.875 
Q 39.203125 63.53125 39.203125 54.390625 
Q 39.203125 45.171875 34.640625 39.84375 
Q 30.078125 34.515625 22.3125 34.515625 
Q 14.546875 34.515625 10.03125 39.859375 
Q 5.515625 45.21875 5.515625 54.390625 
Q 5.515625 63.484375 10.046875 68.84375 
Q 14.59375 74.21875 22.3125 74.21875 
z
" id="DejaVuSans-37"/>
      </defs>
      <use xlink:href="#DejaVuSans-57"/>
      <use x="63.623047" xlink:href="#DejaVuSans-53"/>
      <use x="127.246094" xlink:href="#DejaVuSans-37"/>
      <use x="222.265625" xlink:href="#DejaVuSans-32"/>
      <use x="254.052734" xlink:href="#DejaVuSans-99"/>
      <use x="309.033203" xlink:href="#DejaVuSans-114"/>
      <use x="347.896484" xlink:href="#DejaVuSans-101"/>
      <use x="409.419922" xlink:href="#DejaVuSans-100"/>
      <use x="472.896484" xlink:href="#DejaVuSans-105"/>
      <use x="500.679688" xlink:href="#DejaVuSans-98"/>
      <use x="564.15625" xlink:href="#DejaVuSans-108"/>
      <use x="591.939453" xlink:href="#DejaVuSans-101"/>
      <use x="653.462891" xlink:href="#DejaVuSans-32"/>
      <use x="685.25" xlink:href="#DejaVuSans-105"/>
      <use x="713.033203" xlink:href="#DejaVuSans-110"/>
      <use x="776.412109" xlink:href="#DejaVuSans-116"/>
      <use x="815.621094" xlink:href="#DejaVuSans-46"/>
      <use x="847.408203" xlink:href="#DejaVuSans-32"/>
      <use x="879.195312" xlink:href="#DejaVuSans-91"/>
      <use x="918.208984" xlink:href="#DejaVuSans-48"/>
      <use x="981.832031" xlink:href="#DejaVuSans-46"/>
      <use x="1013.619141" xlink:href="#DejaVuSans-49"/>
      <use x="1077.242188" xlink:href="#DejaVuSans-57"/>
      <use x="1140.865234" xlink:href="#DejaVuSans-44"/>
      <use x="1172.652344" xlink:href="#DejaVuSans-48"/>
      <use x="1236.275391" xlink:href="#DejaVuSans-46"/>
      <use x="1268.0625" xlink:href="#DejaVuSans-57"/>
      <use x="1331.685547" xlink:href="#DejaVuSans-51"/>
      <use x="1395.308594" xlink:href="#DejaVuSans-93"/>
     </g>
    </g>
    <g id="patch_109">
     <path d="M 63 80.514688 
L 83 80.514688 
L 83 73.514688 
L 63 73.514688 
z
" style="opacity:0.5;"/>
    </g>
    <g id="text_27">
     <!-- Experiment -->
     <g transform="translate(91 80.514688)scale(0.1 -0.1)">
      <use xlink:href="#DejaVuSans-69"/>
      <use x="63.183594" xlink:href="#DejaVuSans-120"/>
      <use x="122.363281" xlink:href="#DejaVuSans-112"/>
      <use x="185.839844" xlink:href="#DejaVuSans-101"/>
      <use x="247.363281" xlink:href="#DejaVuSans-114"/>
      <use x="288.476562" xlink:href="#DejaVuSans-105"/>
      <use x="316.259766" xlink:href="#DejaVuSans-109"/>
      <use x="413.671875" xlink:href="#DejaVuSans-101"/>
      <use x="475.195312" xlink:href="#DejaVuSans-110"/>
      <use x="538.574219" xlink:href="#DejaVuSans-116"/>
     </g>
    </g>
   </g>
  </g>
 </g>
 <defs>
  <clipPath id="pb8f39f3e14">
   <rect height="217.44" width="334.8" x="54" y="34.56"/>
  </clipPath>
 </defs>
</svg>
