<?xml version="1.0" encoding="utf-8" standalone="no"?>
<!DOCTYPE svg PUBLIC "-//W3C//DTD SVG 1.1//EN"
  "http://www.w3.org/Graphics/SVG/1.1/DTD/svg11.dtd">
<svg xmlns:xlink="http://www.w3.org/1999/xlink" width="460.8pt" height="345.6pt" viewBox="0 0 460.8 345.6" xmlns="http://www.w3.org/2000/svg" version="1.1">
 <metadata>
  <rdf:RDF xmlns:dc="http://purl.org/dc/elements/1.1/" xmlns:cc="http://creativecommons.org/ns#" xmlns:rdf="http://www.w3.org/1999/02/22-rdf-syntax-ns#">
   <cc:Work>
    <dc:type rdf:resource="http://purl.org/dc/dcmitype/StillImage"/>
    <dc:date>2023-04-20T14:07:47.358731</dc:date>
    <dc:format>image/svg+xml</dc:format>
    <dc:creator>
     <cc:Agent>
      <dc:title>Matplotlib v3.5.2, https://matplotlib.org/</dc:title>
     </cc:Agent>
    </dc:creator>
   </cc:Work>
  </rdf:RDF>
 </metadata>
 <defs>
  <style type="text/css">*{stroke-linejoin: round; stroke-linecap: butt}</style>
 </defs>
 <g id="figure_1">
  <g id="patch_1">
   <path d="M 0 345.6 
L 460.8 345.6 
L 460.8 0 
L 0 0 
L 0 345.6 
z
" style="fill: none"/>
  </g>
  <g id="axes_1">
   <g id="patch_2">
    <path d="M 57.6 307.584 
L 414.72 307.584 
L 414.72 41.472 
L 57.6 41.472 
L 57.6 307.584 
z
" style="fill: none"/>
   </g>
   <g id="matplotlib.axis_1">
    <g id="xtick_1">
     <g id="line2d_1">
      <path d="M 73.832727 307.584 
L 73.832727 41.472 
" clip-path="url(#pbf2c348210)" style="fill: none; stroke: #b0b0b0; stroke-width: 0.8; stroke-linecap: square"/>
     </g>
     <g id="line2d_2">
      <defs>
       <path id="m7b6b41e1b8" d="M 0 0 
L 0 3.5 
" style="stroke: #000000; stroke-width: 0.8"/>
      </defs>
      <g>
       <use xlink:href="#m7b6b41e1b8" x="73.832727" y="307.584" style="stroke: #000000; stroke-width: 0.8"/>
      </g>
     </g>
     <g id="text_1">
      <!-- 0 -->
      <g transform="translate(70.651477 322.182437)scale(0.1 -0.1)">
       <defs>
        <path id="DejaVuSans-30" d="M 2034 4250 
Q 1547 4250 1301 3770 
Q 1056 3291 1056 2328 
Q 1056 1369 1301 889 
Q 1547 409 2034 409 
Q 2525 409 2770 889 
Q 3016 1369 3016 2328 
Q 3016 3291 2770 3770 
Q 2525 4250 2034 4250 
z
M 2034 4750 
Q 2819 4750 3233 4129 
Q 3647 3509 3647 2328 
Q 3647 1150 3233 529 
Q 2819 -91 2034 -91 
Q 1250 -91 836 529 
Q 422 1150 422 2328 
Q 422 3509 836 4129 
Q 1250 4750 2034 4750 
z
" transform="scale(0.015625)"/>
       </defs>
       <use xlink:href="#DejaVuSans-30"/>
      </g>
     </g>
    </g>
    <g id="xtick_2">
     <g id="line2d_3">
      <path d="M 138.828632 307.584 
L 138.828632 41.472 
" clip-path="url(#pbf2c348210)" style="fill: none; stroke: #b0b0b0; stroke-width: 0.8; stroke-linecap: square"/>
     </g>
     <g id="line2d_4">
      <g>
       <use xlink:href="#m7b6b41e1b8" x="138.828632" y="307.584" style="stroke: #000000; stroke-width: 0.8"/>
      </g>
     </g>
     <g id="text_2">
      <!-- 200 -->
      <g transform="translate(129.284882 322.182437)scale(0.1 -0.1)">
       <defs>
        <path id="DejaVuSans-32" d="M 1228 531 
L 3431 531 
L 3431 0 
L 469 0 
L 469 531 
Q 828 903 1448 1529 
Q 2069 2156 2228 2338 
Q 2531 2678 2651 2914 
Q 2772 3150 2772 3378 
Q 2772 3750 2511 3984 
Q 2250 4219 1831 4219 
Q 1534 4219 1204 4116 
Q 875 4013 500 3803 
L 500 4441 
Q 881 4594 1212 4672 
Q 1544 4750 1819 4750 
Q 2544 4750 2975 4387 
Q 3406 4025 3406 3419 
Q 3406 3131 3298 2873 
Q 3191 2616 2906 2266 
Q 2828 2175 2409 1742 
Q 1991 1309 1228 531 
z
" transform="scale(0.015625)"/>
       </defs>
       <use xlink:href="#DejaVuSans-32"/>
       <use xlink:href="#DejaVuSans-30" x="63.623047"/>
       <use xlink:href="#DejaVuSans-30" x="127.246094"/>
      </g>
     </g>
    </g>
    <g id="xtick_3">
     <g id="line2d_5">
      <path d="M 203.824537 307.584 
L 203.824537 41.472 
" clip-path="url(#pbf2c348210)" style="fill: none; stroke: #b0b0b0; stroke-width: 0.8; stroke-linecap: square"/>
     </g>
     <g id="line2d_6">
      <g>
       <use xlink:href="#m7b6b41e1b8" x="203.824537" y="307.584" style="stroke: #000000; stroke-width: 0.8"/>
      </g>
     </g>
     <g id="text_3">
      <!-- 400 -->
      <g transform="translate(194.280787 322.182437)scale(0.1 -0.1)">
       <defs>
        <path id="DejaVuSans-34" d="M 2419 4116 
L 825 1625 
L 2419 1625 
L 2419 4116 
z
M 2253 4666 
L 3047 4666 
L 3047 1625 
L 3713 1625 
L 3713 1100 
L 3047 1100 
L 3047 0 
L 2419 0 
L 2419 1100 
L 313 1100 
L 313 1709 
L 2253 4666 
z
" transform="scale(0.015625)"/>
       </defs>
       <use xlink:href="#DejaVuSans-34"/>
       <use xlink:href="#DejaVuSans-30" x="63.623047"/>
       <use xlink:href="#DejaVuSans-30" x="127.246094"/>
      </g>
     </g>
    </g>
    <g id="xtick_4">
     <g id="line2d_7">
      <path d="M 268.820442 307.584 
L 268.820442 41.472 
" clip-path="url(#pbf2c348210)" style="fill: none; stroke: #b0b0b0; stroke-width: 0.8; stroke-linecap: square"/>
     </g>
     <g id="line2d_8">
      <g>
       <use xlink:href="#m7b6b41e1b8" x="268.820442" y="307.584" style="stroke: #000000; stroke-width: 0.8"/>
      </g>
     </g>
     <g id="text_4">
      <!-- 600 -->
      <g transform="translate(259.276692 322.182437)scale(0.1 -0.1)">
       <defs>
        <path id="DejaVuSans-36" d="M 2113 2584 
Q 1688 2584 1439 2293 
Q 1191 2003 1191 1497 
Q 1191 994 1439 701 
Q 1688 409 2113 409 
Q 2538 409 2786 701 
Q 3034 994 3034 1497 
Q 3034 2003 2786 2293 
Q 2538 2584 2113 2584 
z
M 3366 4563 
L 3366 3988 
Q 3128 4100 2886 4159 
Q 2644 4219 2406 4219 
Q 1781 4219 1451 3797 
Q 1122 3375 1075 2522 
Q 1259 2794 1537 2939 
Q 1816 3084 2150 3084 
Q 2853 3084 3261 2657 
Q 3669 2231 3669 1497 
Q 3669 778 3244 343 
Q 2819 -91 2113 -91 
Q 1303 -91 875 529 
Q 447 1150 447 2328 
Q 447 3434 972 4092 
Q 1497 4750 2381 4750 
Q 2619 4750 2861 4703 
Q 3103 4656 3366 4563 
z
" transform="scale(0.015625)"/>
       </defs>
       <use xlink:href="#DejaVuSans-36"/>
       <use xlink:href="#DejaVuSans-30" x="63.623047"/>
       <use xlink:href="#DejaVuSans-30" x="127.246094"/>
      </g>
     </g>
    </g>
    <g id="xtick_5">
     <g id="line2d_9">
      <path d="M 333.816347 307.584 
L 333.816347 41.472 
" clip-path="url(#pbf2c348210)" style="fill: none; stroke: #b0b0b0; stroke-width: 0.8; stroke-linecap: square"/>
     </g>
     <g id="line2d_10">
      <g>
       <use xlink:href="#m7b6b41e1b8" x="333.816347" y="307.584" style="stroke: #000000; stroke-width: 0.8"/>
      </g>
     </g>
     <g id="text_5">
      <!-- 800 -->
      <g transform="translate(324.272597 322.182437)scale(0.1 -0.1)">
       <defs>
        <path id="DejaVuSans-38" d="M 2034 2216 
Q 1584 2216 1326 1975 
Q 1069 1734 1069 1313 
Q 1069 891 1326 650 
Q 1584 409 2034 409 
Q 2484 409 2743 651 
Q 3003 894 3003 1313 
Q 3003 1734 2745 1975 
Q 2488 2216 2034 2216 
z
M 1403 2484 
Q 997 2584 770 2862 
Q 544 3141 544 3541 
Q 544 4100 942 4425 
Q 1341 4750 2034 4750 
Q 2731 4750 3128 4425 
Q 3525 4100 3525 3541 
Q 3525 3141 3298 2862 
Q 3072 2584 2669 2484 
Q 3125 2378 3379 2068 
Q 3634 1759 3634 1313 
Q 3634 634 3220 271 
Q 2806 -91 2034 -91 
Q 1263 -91 848 271 
Q 434 634 434 1313 
Q 434 1759 690 2068 
Q 947 2378 1403 2484 
z
M 1172 3481 
Q 1172 3119 1398 2916 
Q 1625 2713 2034 2713 
Q 2441 2713 2670 2916 
Q 2900 3119 2900 3481 
Q 2900 3844 2670 4047 
Q 2441 4250 2034 4250 
Q 1625 4250 1398 4047 
Q 1172 3844 1172 3481 
z
" transform="scale(0.015625)"/>
       </defs>
       <use xlink:href="#DejaVuSans-38"/>
       <use xlink:href="#DejaVuSans-30" x="63.623047"/>
       <use xlink:href="#DejaVuSans-30" x="127.246094"/>
      </g>
     </g>
    </g>
    <g id="xtick_6">
     <g id="line2d_11">
      <path d="M 398.812252 307.584 
L 398.812252 41.472 
" clip-path="url(#pbf2c348210)" style="fill: none; stroke: #b0b0b0; stroke-width: 0.8; stroke-linecap: square"/>
     </g>
     <g id="line2d_12">
      <g>
       <use xlink:href="#m7b6b41e1b8" x="398.812252" y="307.584" style="stroke: #000000; stroke-width: 0.8"/>
      </g>
     </g>
     <g id="text_6">
      <!-- 1000 -->
      <g transform="translate(386.087252 322.182437)scale(0.1 -0.1)">
       <defs>
        <path id="DejaVuSans-31" d="M 794 531 
L 1825 531 
L 1825 4091 
L 703 3866 
L 703 4441 
L 1819 4666 
L 2450 4666 
L 2450 531 
L 3481 531 
L 3481 0 
L 794 0 
L 794 531 
z
" transform="scale(0.015625)"/>
       </defs>
       <use xlink:href="#DejaVuSans-31"/>
       <use xlink:href="#DejaVuSans-30" x="63.623047"/>
       <use xlink:href="#DejaVuSans-30" x="127.246094"/>
       <use xlink:href="#DejaVuSans-30" x="190.869141"/>
      </g>
     </g>
    </g>
    <g id="text_7">
     <!-- $t$ -->
     <g transform="translate(234.16 335.860562)scale(0.1 -0.1)">
      <defs>
       <path id="DejaVuSans-Oblique-74" d="M 2706 3500 
L 2619 3053 
L 1472 3053 
L 1100 1153 
Q 1081 1047 1072 975 
Q 1063 903 1063 863 
Q 1063 663 1183 572 
Q 1303 481 1569 481 
L 2150 481 
L 2053 0 
L 1503 0 
Q 991 0 739 200 
Q 488 400 488 806 
Q 488 878 497 964 
Q 506 1050 525 1153 
L 897 3053 
L 409 3053 
L 500 3500 
L 978 3500 
L 1172 4494 
L 1747 4494 
L 1556 3500 
L 2706 3500 
z
" transform="scale(0.015625)"/>
      </defs>
      <use xlink:href="#DejaVuSans-Oblique-74" transform="translate(0 0.78125)"/>
     </g>
    </g>
   </g>
   <g id="matplotlib.axis_2">
    <g id="ytick_1">
     <g id="line2d_13">
      <path d="M 57.6 307.584 
L 414.72 307.584 
" clip-path="url(#pbf2c348210)" style="fill: none; stroke: #b0b0b0; stroke-width: 0.8; stroke-linecap: square"/>
     </g>
     <g id="line2d_14">
      <defs>
       <path id="m5acac61e77" d="M 0 0 
L -3.5 0 
" style="stroke: #000000; stroke-width: 0.8"/>
      </defs>
      <g>
       <use xlink:href="#m5acac61e77" x="57.6" y="307.584" style="stroke: #000000; stroke-width: 0.8"/>
      </g>
     </g>
     <g id="text_8">
      <!-- −1.00 -->
      <g transform="translate(19.954687 311.383219)scale(0.1 -0.1)">
       <defs>
        <path id="DejaVuSans-2212" d="M 678 2272 
L 4684 2272 
L 4684 1741 
L 678 1741 
L 678 2272 
z
" transform="scale(0.015625)"/>
        <path id="DejaVuSans-2e" d="M 684 794 
L 1344 794 
L 1344 0 
L 684 0 
L 684 794 
z
" transform="scale(0.015625)"/>
       </defs>
       <use xlink:href="#DejaVuSans-2212"/>
       <use xlink:href="#DejaVuSans-31" x="83.789062"/>
       <use xlink:href="#DejaVuSans-2e" x="147.412109"/>
       <use xlink:href="#DejaVuSans-30" x="179.199219"/>
       <use xlink:href="#DejaVuSans-30" x="242.822266"/>
      </g>
     </g>
    </g>
    <g id="ytick_2">
     <g id="line2d_15">
      <path d="M 57.6 274.32 
L 414.72 274.32 
" clip-path="url(#pbf2c348210)" style="fill: none; stroke: #b0b0b0; stroke-width: 0.8; stroke-linecap: square"/>
     </g>
     <g id="line2d_16">
      <g>
       <use xlink:href="#m5acac61e77" x="57.6" y="274.32" style="stroke: #000000; stroke-width: 0.8"/>
      </g>
     </g>
     <g id="text_9">
      <!-- −0.75 -->
      <g transform="translate(19.954687 278.119219)scale(0.1 -0.1)">
       <defs>
        <path id="DejaVuSans-37" d="M 525 4666 
L 3525 4666 
L 3525 4397 
L 1831 0 
L 1172 0 
L 2766 4134 
L 525 4134 
L 525 4666 
z
" transform="scale(0.015625)"/>
        <path id="DejaVuSans-35" d="M 691 4666 
L 3169 4666 
L 3169 4134 
L 1269 4134 
L 1269 2991 
Q 1406 3038 1543 3061 
Q 1681 3084 1819 3084 
Q 2600 3084 3056 2656 
Q 3513 2228 3513 1497 
Q 3513 744 3044 326 
Q 2575 -91 1722 -91 
Q 1428 -91 1123 -41 
Q 819 9 494 109 
L 494 744 
Q 775 591 1075 516 
Q 1375 441 1709 441 
Q 2250 441 2565 725 
Q 2881 1009 2881 1497 
Q 2881 1984 2565 2268 
Q 2250 2553 1709 2553 
Q 1456 2553 1204 2497 
Q 953 2441 691 2322 
L 691 4666 
z
" transform="scale(0.015625)"/>
       </defs>
       <use xlink:href="#DejaVuSans-2212"/>
       <use xlink:href="#DejaVuSans-30" x="83.789062"/>
       <use xlink:href="#DejaVuSans-2e" x="147.412109"/>
       <use xlink:href="#DejaVuSans-37" x="179.199219"/>
       <use xlink:href="#DejaVuSans-35" x="242.822266"/>
      </g>
     </g>
    </g>
    <g id="ytick_3">
     <g id="line2d_17">
      <path d="M 57.6 241.056 
L 414.72 241.056 
" clip-path="url(#pbf2c348210)" style="fill: none; stroke: #b0b0b0; stroke-width: 0.8; stroke-linecap: square"/>
     </g>
     <g id="line2d_18">
      <g>
       <use xlink:href="#m5acac61e77" x="57.6" y="241.056" style="stroke: #000000; stroke-width: 0.8"/>
      </g>
     </g>
     <g id="text_10">
      <!-- −0.50 -->
      <g transform="translate(19.954687 244.855219)scale(0.1 -0.1)">
       <use xlink:href="#DejaVuSans-2212"/>
       <use xlink:href="#DejaVuSans-30" x="83.789062"/>
       <use xlink:href="#DejaVuSans-2e" x="147.412109"/>
       <use xlink:href="#DejaVuSans-35" x="179.199219"/>
       <use xlink:href="#DejaVuSans-30" x="242.822266"/>
      </g>
     </g>
    </g>
    <g id="ytick_4">
     <g id="line2d_19">
      <path d="M 57.6 207.792 
L 414.72 207.792 
" clip-path="url(#pbf2c348210)" style="fill: none; stroke: #b0b0b0; stroke-width: 0.8; stroke-linecap: square"/>
     </g>
     <g id="line2d_20">
      <g>
       <use xlink:href="#m5acac61e77" x="57.6" y="207.792" style="stroke: #000000; stroke-width: 0.8"/>
      </g>
     </g>
     <g id="text_11">
      <!-- −0.25 -->
      <g transform="translate(19.954687 211.591219)scale(0.1 -0.1)">
       <use xlink:href="#DejaVuSans-2212"/>
       <use xlink:href="#DejaVuSans-30" x="83.789062"/>
       <use xlink:href="#DejaVuSans-2e" x="147.412109"/>
       <use xlink:href="#DejaVuSans-32" x="179.199219"/>
       <use xlink:href="#DejaVuSans-35" x="242.822266"/>
      </g>
     </g>
    </g>
    <g id="ytick_5">
     <g id="line2d_21">
      <path d="M 57.6 174.528 
L 414.72 174.528 
" clip-path="url(#pbf2c348210)" style="fill: none; stroke: #b0b0b0; stroke-width: 0.8; stroke-linecap: square"/>
     </g>
     <g id="line2d_22">
      <g>
       <use xlink:href="#m5acac61e77" x="57.6" y="174.528" style="stroke: #000000; stroke-width: 0.8"/>
      </g>
     </g>
     <g id="text_12">
      <!-- 0.00 -->
      <g transform="translate(28.334375 178.327219)scale(0.1 -0.1)">
       <use xlink:href="#DejaVuSans-30"/>
       <use xlink:href="#DejaVuSans-2e" x="63.623047"/>
       <use xlink:href="#DejaVuSans-30" x="95.410156"/>
       <use xlink:href="#DejaVuSans-30" x="159.033203"/>
      </g>
     </g>
    </g>
    <g id="ytick_6">
     <g id="line2d_23">
      <path d="M 57.6 141.264 
L 414.72 141.264 
" clip-path="url(#pbf2c348210)" style="fill: none; stroke: #b0b0b0; stroke-width: 0.8; stroke-linecap: square"/>
     </g>
     <g id="line2d_24">
      <g>
       <use xlink:href="#m5acac61e77" x="57.6" y="141.264" style="stroke: #000000; stroke-width: 0.8"/>
      </g>
     </g>
     <g id="text_13">
      <!-- 0.25 -->
      <g transform="translate(28.334375 145.063219)scale(0.1 -0.1)">
       <use xlink:href="#DejaVuSans-30"/>
       <use xlink:href="#DejaVuSans-2e" x="63.623047"/>
       <use xlink:href="#DejaVuSans-32" x="95.410156"/>
       <use xlink:href="#DejaVuSans-35" x="159.033203"/>
      </g>
     </g>
    </g>
    <g id="ytick_7">
     <g id="line2d_25">
      <path d="M 57.6 108 
L 414.72 108 
" clip-path="url(#pbf2c348210)" style="fill: none; stroke: #b0b0b0; stroke-width: 0.8; stroke-linecap: square"/>
     </g>
     <g id="line2d_26">
      <g>
       <use xlink:href="#m5acac61e77" x="57.6" y="108" style="stroke: #000000; stroke-width: 0.8"/>
      </g>
     </g>
     <g id="text_14">
      <!-- 0.50 -->
      <g transform="translate(28.334375 111.799219)scale(0.1 -0.1)">
       <use xlink:href="#DejaVuSans-30"/>
       <use xlink:href="#DejaVuSans-2e" x="63.623047"/>
       <use xlink:href="#DejaVuSans-35" x="95.410156"/>
       <use xlink:href="#DejaVuSans-30" x="159.033203"/>
      </g>
     </g>
    </g>
    <g id="ytick_8">
     <g id="line2d_27">
      <path d="M 57.6 74.736 
L 414.72 74.736 
" clip-path="url(#pbf2c348210)" style="fill: none; stroke: #b0b0b0; stroke-width: 0.8; stroke-linecap: square"/>
     </g>
     <g id="line2d_28">
      <g>
       <use xlink:href="#m5acac61e77" x="57.6" y="74.736" style="stroke: #000000; stroke-width: 0.8"/>
      </g>
     </g>
     <g id="text_15">
      <!-- 0.75 -->
      <g transform="translate(28.334375 78.535219)scale(0.1 -0.1)">
       <use xlink:href="#DejaVuSans-30"/>
       <use xlink:href="#DejaVuSans-2e" x="63.623047"/>
       <use xlink:href="#DejaVuSans-37" x="95.410156"/>
       <use xlink:href="#DejaVuSans-35" x="159.033203"/>
      </g>
     </g>
    </g>
    <g id="ytick_9">
     <g id="line2d_29">
      <path d="M 57.6 41.472 
L 414.72 41.472 
" clip-path="url(#pbf2c348210)" style="fill: none; stroke: #b0b0b0; stroke-width: 0.8; stroke-linecap: square"/>
     </g>
     <g id="line2d_30">
      <g>
       <use xlink:href="#m5acac61e77" x="57.6" y="41.472" style="stroke: #000000; stroke-width: 0.8"/>
      </g>
     </g>
     <g id="text_16">
      <!-- 1.00 -->
      <g transform="translate(28.334375 45.271219)scale(0.1 -0.1)">
       <use xlink:href="#DejaVuSans-31"/>
       <use xlink:href="#DejaVuSans-2e" x="63.623047"/>
       <use xlink:href="#DejaVuSans-30" x="95.410156"/>
       <use xlink:href="#DejaVuSans-30" x="159.033203"/>
      </g>
     </g>
    </g>
   </g>
   <g id="line2d_31">
    <path d="M 73.832727 41.472 
L 74.482686 143.174226 
L 74.807666 173.163471 
L 75.132645 182.035094 
L 75.782604 175.622143 
L 76.107584 174.435442 
L 76.757543 176.309354 
L 77.082523 176.054445 
L 77.407502 175.262605 
L 77.732482 176.609005 
L 78.057461 175.013775 
L 78.382441 175.017588 
L 79.0324 163.200631 
L 79.357379 161.781733 
L 79.682359 163.13948 
L 80.332318 173.473998 
L 80.657297 175.413744 
L 80.982277 174.064162 
L 81.307256 176.760506 
L 81.632236 185.238105 
L 81.957215 187.628252 
L 82.607174 180.372286 
L 82.932154 178.226561 
L 83.257133 175.022923 
L 84.232072 179.505629 
L 84.557052 178.640198 
L 85.207011 172.042699 
L 85.85697 170.458209 
L 86.181949 170.339398 
L 86.506929 170.877133 
L 86.831908 174.053639 
L 87.156888 179.721 
L 87.481867 183.246038 
L 87.806847 182.480222 
L 88.781785 173.513078 
L 89.106765 174.930044 
L 89.431744 174.984171 
L 89.756724 174.767387 
L 90.731663 165.608145 
L 91.381622 174.292136 
L 91.706601 176.797347 
L 92.031581 177.857134 
L 92.35656 177.171548 
L 92.68154 174.814 
L 93.006519 173.353399 
L 93.331499 176.856219 
L 93.656478 178.245072 
L 93.981458 178.944489 
L 94.306437 176.512249 
L 94.631417 177.763903 
L 94.956396 177.833626 
L 95.281376 175.719774 
L 95.606355 177.357334 
L 95.931335 178.316064 
L 96.256314 177.825689 
L 96.581294 174.221043 
L 96.906274 173.497943 
L 97.231253 175.073344 
L 97.556233 175.492816 
L 97.881212 177.093876 
L 98.531171 174.199609 
L 98.856151 174.735105 
L 99.50611 180.392031 
L 99.831089 178.78466 
L 100.156069 174.917846 
L 100.481048 173.02801 
L 100.806028 177.104071 
L 101.131007 179.411106 
L 101.780966 173.99263 
L 102.105946 167.914382 
L 102.430925 165.666033 
L 102.755905 164.827172 
L 103.080885 166.578187 
L 103.405864 171.815098 
L 103.730844 169.417157 
L 104.055823 166.116851 
L 104.380803 166.101332 
L 105.030762 172.69366 
L 105.355741 180.006759 
L 105.680721 180.446081 
L 106.0057 182.295264 
L 106.33068 184.788094 
L 106.655659 185.733177 
L 106.980639 181.117139 
L 107.630598 165.050365 
L 107.955577 162.166256 
L 108.280557 166.22766 
L 108.930516 176.852836 
L 109.580475 175.830658 
L 109.905455 172.844871 
L 110.230434 171.783237 
L 110.555414 172.599632 
L 110.880393 173.824101 
L 111.530352 173.205328 
L 111.855332 178.178428 
L 112.180311 180.179585 
L 112.505291 179.727046 
L 113.15525 173.679672 
L 113.805209 177.440826 
L 114.130188 176.414204 
L 114.455168 172.189249 
L 114.780147 172.472201 
L 115.105127 177.341777 
L 115.430106 180.157921 
L 115.755086 181.048377 
L 116.080066 180.709483 
L 116.730025 165.937609 
L 117.055004 163.547089 
L 117.379984 167.325021 
L 117.704963 176.505697 
L 118.029943 179.545408 
L 118.354922 179.812923 
L 118.679902 178.840994 
L 119.329861 173.050604 
L 119.97982 166.364847 
L 120.304799 165.753284 
L 120.629779 165.968236 
L 121.279738 171.018345 
L 121.604717 170.341961 
L 121.929697 173.582083 
L 122.254676 175.543929 
L 122.904636 167.629352 
L 123.229615 170.50941 
L 123.879574 181.814375 
L 124.204554 182.425281 
L 124.529533 184.3443 
L 124.854513 183.801151 
L 125.504472 171.754933 
L 125.829451 168.452966 
L 126.154431 171.741231 
L 126.47941 178.067137 
L 126.80439 179.223961 
L 127.129369 182.560869 
L 127.454349 183.384144 
L 128.429287 170.545328 
L 128.754267 167.488761 
L 129.079247 168.239722 
L 129.404226 170.883138 
L 129.729206 175.238319 
L 130.054185 175.726244 
L 130.379165 177.276951 
L 131.029124 181.602726 
L 131.354103 178.430634 
L 131.679083 171.742562 
L 132.004062 169.473903 
L 132.329042 169.924197 
L 132.979001 178.111245 
L 133.30398 179.844847 
L 133.62896 179.398457 
L 133.953939 175.131277 
L 134.278919 168.730117 
L 134.603898 168.781274 
L 135.253857 177.878531 
L 135.578837 178.139024 
L 135.903817 176.579158 
L 136.228796 173.366119 
L 136.553776 174.967289 
L 136.878755 175.304001 
L 137.203735 174.460946 
L 137.853694 166.301306 
L 138.178673 163.122183 
L 138.828632 166.401896 
L 139.153612 168.75229 
L 139.478591 169.521627 
L 139.803571 169.310074 
L 140.12855 174.7677 
L 140.778509 178.802552 
L 141.103489 177.987416 
L 141.753448 170.937176 
L 142.078428 171.098732 
L 142.728387 181.838578 
L 143.053366 179.047826 
L 143.378346 173.218449 
L 143.703325 169.580311 
L 144.028305 172.558251 
L 144.353284 172.525303 
L 145.003243 169.667992 
L 145.328223 170.043916 
L 145.978182 174.503853 
L 146.303161 179.36143 
L 146.628141 180.977376 
L 146.95312 183.304299 
L 147.2781 183.032773 
L 147.603079 182.436095 
L 147.928059 179.752795 
L 148.253038 174.561394 
L 148.578018 172.975786 
L 148.902998 173.306972 
L 149.227977 174.668538 
L 149.877936 184.861452 
L 150.202916 185.491953 
L 150.852875 171.690065 
L 151.177854 171.705714 
L 151.827813 178.946248 
L 152.152793 179.233034 
L 152.477772 181.807732 
L 152.802752 183.126251 
L 153.452711 177.984725 
L 153.77769 173.524031 
L 154.427649 176.515378 
L 155.077609 174.300243 
L 155.402588 172.400527 
L 155.727568 173.005144 
L 156.052547 175.572435 
L 156.377527 174.701885 
L 157.352465 161.904193 
L 157.677445 162.484137 
L 158.002424 166.980862 
L 158.652383 182.63523 
L 158.977363 182.207297 
L 159.952301 166.170257 
L 160.277281 167.084353 
L 160.60226 171.115182 
L 160.92724 173.267011 
L 161.252219 177.85208 
L 161.577199 180.520764 
L 161.902179 179.243015 
L 162.552138 171.95 
L 162.877117 172.39428 
L 163.202097 175.456426 
L 164.177035 178.81998 
L 164.502015 178.999914 
L 164.826994 176.91545 
L 165.151974 169.468054 
L 165.476953 168.308731 
L 165.801933 169.578102 
L 166.126912 170.042536 
L 166.451892 172.08318 
L 166.776871 176.340019 
L 167.101851 177.184144 
L 167.42683 175.187765 
L 167.75181 170.85186 
L 168.07679 168.209433 
L 168.401769 168.971891 
L 168.726749 168.63428 
L 170.026667 181.755739 
L 170.351646 182.890813 
L 170.676626 184.985966 
L 171.651564 171.14068 
L 171.976544 164.414806 
L 172.301523 160.994996 
L 172.626503 162.787578 
L 172.951482 166.649497 
L 173.276462 172.950647 
L 173.601441 174.173353 
L 173.926421 176.82601 
L 174.2514 177.515091 
L 174.57638 175.951142 
L 174.90136 172.01169 
L 175.226339 170.688181 
L 175.551319 175.164469 
L 175.876298 182.038963 
L 176.201278 184.24804 
L 176.526257 180.439127 
L 177.176216 167.677321 
L 177.501196 166.990286 
L 177.826175 171.313574 
L 178.151155 172.678572 
L 178.476134 172.616254 
L 178.801114 172.137739 
L 179.126093 171.390839 
L 179.451073 174.805988 
L 180.101032 184.673388 
L 180.426011 181.877665 
L 180.750991 177.995083 
L 181.075971 176.710569 
L 181.40095 176.87456 
L 182.050909 180.441404 
L 182.375889 178.414117 
L 182.700868 179.249838 
L 183.350827 182.728141 
L 183.675807 180.678808 
L 184.325766 166.069093 
L 184.650745 166.006459 
L 184.975725 169.301368 
L 185.300704 175.348452 
L 185.625684 177.799036 
L 185.950663 176.970884 
L 186.275643 173.743854 
L 186.600622 171.634769 
L 187.250581 177.430894 
L 187.575561 177.250078 
L 187.900541 177.353217 
L 188.5505 172.860203 
L 188.875479 174.721667 
L 189.200459 175.752914 
L 189.525438 178.959022 
L 189.850418 178.783074 
L 190.175397 176.255251 
L 190.500377 175.022061 
L 190.825356 173.33656 
L 191.150336 170.981751 
L 191.475315 166.789793 
L 191.800295 165.468144 
L 192.125274 168.198088 
L 193.100213 185.121685 
L 193.425192 185.612887 
L 193.750172 177.918924 
L 194.075152 174.429966 
L 194.400131 176.117904 
L 194.725111 181.386504 
L 195.05009 184.425781 
L 195.37507 184.066843 
L 196.350008 174.224901 
L 196.674988 175.292777 
L 196.999967 177.164083 
L 197.324947 171.747445 
L 197.649926 168.808584 
L 197.974906 170.555173 
L 198.299885 174.062218 
L 199.274824 188.16334 
L 199.599803 185.307064 
L 199.924783 179.523902 
L 200.249762 175.990901 
L 200.574742 175.104991 
L 201.224701 170.736068 
L 201.549681 172.606828 
L 201.87466 175.570536 
L 202.19964 175.680694 
L 202.524619 173.956408 
L 202.849599 168.625288 
L 203.174578 167.293707 
L 204.149517 176.179001 
L 204.474496 180.386759 
L 204.799476 182.361937 
L 205.124455 182.546728 
L 205.774414 172.946041 
L 206.099394 171.683441 
L 206.424373 175.922126 
L 206.749353 175.300584 
L 207.074333 169.465018 
L 207.399312 168.788816 
L 207.724292 170.452339 
L 208.049271 173.283376 
L 208.374251 174.24054 
L 208.69923 171.922709 
L 209.02421 171.764161 
L 209.674169 175.422195 
L 209.999148 180.330507 
L 210.324128 183.466195 
L 210.649107 182.409805 
L 210.974087 179.687018 
L 211.299066 174.133563 
L 211.624046 171.255251 
L 211.949025 171.282607 
L 212.274005 172.137424 
L 212.598984 173.429741 
L 212.923964 172.945462 
L 213.248943 173.177796 
L 213.573923 173.589566 
L 213.898903 175.437243 
L 214.223882 173.578944 
L 214.548862 175.144049 
L 214.873841 174.452338 
L 215.198821 172.815531 
L 215.84878 172.621467 
L 216.173759 179.621065 
L 216.498739 180.512937 
L 217.473677 185.515468 
L 217.798657 182.637269 
L 218.123636 175.559275 
L 218.448616 175.077526 
L 218.773595 176.046649 
L 219.423554 180.926816 
L 220.073514 169.506547 
L 220.398493 165.735321 
L 220.723473 165.939846 
L 221.373432 177.919946 
L 221.698411 179.930129 
L 222.34837 178.076624 
L 222.67335 179.031054 
L 222.998329 178.551773 
L 223.323309 179.18481 
L 223.648288 180.493485 
L 223.973268 177.18131 
L 224.298247 177.982624 
L 224.623227 180.040849 
L 224.948206 180.753677 
L 225.273186 179.137942 
L 225.598165 173.501106 
L 225.923145 170.333416 
L 226.248124 170.538182 
L 226.898084 175.094421 
L 227.223063 175.481067 
L 227.548043 173.86315 
L 227.873022 174.521657 
L 228.198002 174.254297 
L 228.522981 174.525204 
L 229.17294 181.581999 
L 229.822899 185.19486 
L 230.147879 182.4929 
L 230.472858 174.485752 
L 230.797838 170.8551 
L 231.122817 171.182566 
L 231.447797 169.17226 
L 231.772776 166.029292 
L 232.097756 164.009345 
L 232.747715 172.871274 
L 233.072695 174.614211 
L 233.722654 174.717595 
L 234.047633 177.099364 
L 234.372613 178.082976 
L 235.022572 173.834213 
L 235.347551 173.510058 
L 235.672531 174.614664 
L 235.99751 175.134317 
L 236.647469 170.434563 
L 237.297428 165.196271 
L 237.622408 169.855194 
L 237.947387 171.549518 
L 238.272367 174.937588 
L 238.597346 175.929472 
L 238.922326 174.344687 
L 239.247305 173.646303 
L 239.572285 172.133814 
L 239.897265 174.002727 
L 240.222244 173.826248 
L 240.547224 174.284099 
L 240.872203 173.516092 
L 241.197183 174.139997 
L 241.522162 173.814841 
L 241.847142 174.279643 
L 242.497101 173.912579 
L 242.82208 174.282967 
L 243.472039 168.297282 
L 243.797019 170.586343 
L 244.771957 174.434726 
L 245.421916 180.173303 
L 245.746896 181.825247 
L 246.071876 181.194057 
L 246.396855 176.471384 
L 246.721835 173.903523 
L 247.046814 172.59119 
L 247.371794 173.796349 
L 247.696773 177.796209 
L 248.021753 179.638632 
L 248.346732 178.753665 
L 248.671712 174.575863 
L 248.996691 168.000532 
L 249.321671 168.858513 
L 250.296609 181.293251 
L 250.621589 180.042936 
L 250.946568 181.002626 
L 251.271548 183.097618 
L 251.596527 182.122039 
L 252.246486 170.910376 
L 252.571466 168.792199 
L 253.546405 178.968251 
L 253.871384 177.853526 
L 254.521343 170.753762 
L 254.846323 169.24196 
L 255.171302 171.02915 
L 255.496282 175.357447 
L 255.821261 176.395727 
L 256.146241 174.720531 
L 256.47122 174.59112 
L 256.7962 174.617394 
L 257.121179 175.856812 
L 257.771138 173.234746 
L 258.421097 171.354216 
L 258.746077 171.123625 
L 259.721016 177.149803 
L 260.045995 177.445389 
L 260.370975 178.931167 
L 260.695954 178.369175 
L 261.020934 175.299604 
L 261.670893 171.177157 
L 261.995872 171.509086 
L 262.320852 172.83515 
L 262.645831 174.932365 
L 262.970811 178.274407 
L 263.29579 178.000982 
L 263.945749 178.539524 
L 264.270729 179.116321 
L 264.595708 181.219531 
L 264.920688 181.725299 
L 265.245667 180.467576 
L 265.895627 175.096613 
L 266.220606 173.768543 
L 266.545586 172.999343 
L 266.870565 172.865226 
L 267.195545 172.909452 
L 267.520524 172.348985 
L 268.170483 174.818755 
L 268.495463 174.173815 
L 268.820442 174.985691 
L 269.145422 174.123713 
L 269.470401 173.828855 
L 270.12036 173.716466 
L 270.44534 173.035691 
L 271.095299 169.379923 
L 271.420278 169.615613 
L 271.745258 169.218127 
L 272.395217 171.786955 
L 272.720197 169.427416 
L 273.045176 169.887167 
L 273.370156 171.172026 
L 273.695135 171.854147 
L 274.345094 177.828224 
L 274.670074 178.59074 
L 274.995053 176.724793 
L 275.645012 170.91141 
L 275.969992 170.574942 
L 276.619951 173.626236 
L 276.94493 173.636246 
L 277.26991 171.038563 
L 277.919869 168.802494 
L 278.244848 170.14689 
L 278.569828 172.264941 
L 279.219787 177.469599 
L 279.544767 177.762183 
L 279.869746 177.774712 
L 280.194726 179.691607 
L 280.519705 179.944383 
L 281.169664 174.818449 
L 281.494644 175.277416 
L 281.819623 176.431645 
L 282.144603 176.629275 
L 282.794562 170.959307 
L 283.119541 170.568213 
L 283.444521 171.043052 
L 283.7695 171.768205 
L 284.09448 170.947851 
L 285.394398 178.973724 
L 285.719378 178.126372 
L 286.369337 175.919558 
L 286.694316 176.530234 
L 287.019296 178.376914 
L 287.344275 179.51308 
L 287.669255 177.911653 
L 287.994234 173.295072 
L 288.319214 172.333677 
L 288.644193 170.694566 
L 288.969173 172.197273 
L 289.294152 172.675257 
L 289.619132 174.65129 
L 289.944111 172.048397 
L 290.269091 172.262163 
L 290.59407 177.261791 
L 290.91905 179.903452 
L 291.569009 174.394706 
L 291.893989 173.030293 
L 292.218968 172.447844 
L 292.543948 171.38283 
L 292.868927 172.775848 
L 293.193907 176.31582 
L 293.518886 178.183926 
L 293.843866 178.534082 
L 294.168845 177.551613 
L 294.493825 177.828552 
L 294.818804 177.605326 
L 295.143784 174.769497 
L 295.468763 170.759786 
L 295.793743 169.538567 
L 296.118722 170.921147 
L 296.443702 171.667912 
L 296.768681 173.556677 
L 297.41864 178.264713 
L 297.74362 179.689292 
L 298.0686 179.804092 
L 298.718559 172.361151 
L 299.043538 172.507651 
L 299.368518 172.184569 
L 299.693497 171.299964 
L 300.018477 173.602462 
L 300.668436 176.480777 
L 301.318395 170.180062 
L 301.643374 169.102161 
L 301.968354 169.514295 
L 302.293333 172.322982 
L 302.618313 173.883195 
L 302.943292 174.072163 
L 303.268272 176.192542 
L 303.593251 176.402154 
L 304.24321 171.188088 
L 304.56819 170.71978 
L 304.89317 170.594476 
L 305.543129 176.172659 
L 305.868108 176.082429 
L 306.193088 173.362795 
L 306.843047 171.993147 
L 307.168026 174.192583 
L 307.493006 178.469474 
L 307.817985 179.530314 
L 308.142965 179.551167 
L 308.467944 178.458709 
L 309.442883 173.358017 
L 310.092842 174.653734 
L 310.417821 175.059642 
L 310.742801 174.034906 
L 311.067781 174.003709 
L 311.39276 173.128262 
L 312.042719 174.59408 
L 312.367699 176.566107 
L 312.692678 179.270076 
L 313.017658 180.323797 
L 313.342637 179.078453 
L 313.667617 177.378343 
L 314.317576 171.296498 
L 314.642555 171.068683 
L 314.967535 173.249017 
L 315.292514 176.309945 
L 315.942473 180.12127 
L 316.917412 174.786989 
L 317.242391 175.017735 
L 317.567371 177.146899 
L 317.892351 177.53115 
L 318.21733 176.018201 
L 318.867289 168.589249 
L 319.192269 168.704874 
L 319.517248 171.696753 
L 319.842228 175.906812 
L 320.167207 176.168401 
L 320.492187 174.716914 
L 320.817166 174.605808 
L 321.467125 177.450114 
L 321.792105 177.172558 
L 322.117084 176.324345 
L 322.442064 177.317897 
L 322.767043 179.350927 
L 323.092023 179.472862 
L 324.066962 173.162122 
L 324.391941 173.903359 
L 324.716921 174.353581 
L 325.0419 174.408558 
L 325.36688 173.260446 
L 326.016839 168.904399 
L 326.341818 167.785855 
L 326.666798 168.126931 
L 326.991777 170.174188 
L 327.316757 173.550903 
L 327.641736 175.258272 
L 328.291695 181.170231 
L 328.616675 181.449462 
L 329.916593 174.311728 
L 330.241572 173.672402 
L 330.891532 168.171663 
L 331.216511 167.955727 
L 331.86647 170.321501 
L 332.19145 171.459224 
L 332.516429 173.594467 
L 332.841409 173.906554 
L 333.166388 174.058015 
L 333.491368 172.583531 
L 333.816347 174.649275 
L 334.141327 177.817066 
L 334.466306 178.769306 
L 334.791286 177.167753 
L 335.116265 174.540038 
L 335.766224 173.684498 
L 336.416183 170.80029 
L 336.741163 171.79844 
L 337.391122 174.639273 
L 337.716102 173.16597 
L 338.041081 170.733176 
L 338.366061 170.719648 
L 338.69104 172.56007 
L 339.01602 172.570397 
L 339.340999 173.110749 
L 339.990958 175.920651 
L 340.315938 174.892468 
L 340.640917 172.872907 
L 340.965897 171.580077 
L 341.615856 173.822985 
L 341.940835 172.288667 
L 342.265815 171.709254 
L 342.590794 170.669323 
L 342.915774 170.971238 
L 343.240753 169.966112 
L 343.565733 171.774436 
L 343.890713 172.299009 
L 344.215692 172.347606 
L 344.540672 173.426886 
L 344.865651 175.521788 
L 345.190631 178.48462 
L 345.84059 177.79152 
L 346.165569 178.024006 
L 346.490549 179.682213 
L 346.815528 178.57329 
L 347.790467 170.449608 
L 348.115446 169.885256 
L 348.440426 170.541463 
L 348.765405 172.176829 
L 349.090385 172.553196 
L 349.740344 175.403811 
L 350.065324 176.099344 
L 350.390303 175.5225 
L 350.715283 175.789848 
L 351.365242 180.467218 
L 351.690221 179.646816 
L 352.66516 174.667396 
L 352.990139 173.842386 
L 353.315119 171.809172 
L 353.640098 172.545154 
L 353.965078 171.853075 
L 354.615037 173.195481 
L 354.940016 173.261198 
L 355.264996 173.108429 
L 355.589975 171.950091 
L 355.914955 172.078261 
L 356.239934 172.839365 
L 356.564914 173.997215 
L 356.889894 174.137443 
L 357.214873 174.663936 
L 357.864832 176.773725 
L 358.189812 176.427135 
L 358.514791 176.83592 
L 358.839771 177.440408 
L 359.16475 175.234301 
L 359.48973 173.865729 
L 359.814709 171.511013 
L 360.139689 170.542178 
L 360.464668 171.383654 
L 360.789648 171.501939 
L 361.114627 172.078548 
L 361.764586 175.527025 
L 362.089566 176.420673 
L 362.739525 174.898619 
L 363.389484 177.261776 
L 363.714464 177.67229 
L 364.039443 175.262542 
L 364.364423 174.642524 
L 364.689402 174.537791 
L 365.014382 174.17904 
L 365.339361 172.319764 
L 365.664341 171.596394 
L 365.98932 172.654768 
L 366.3143 174.356983 
L 366.639279 175.329044 
L 366.964259 175.479946 
L 367.289238 175.024635 
L 367.939197 176.239764 
L 368.264177 176.212935 
L 368.589156 175.035481 
L 369.239115 174.903707 
L 369.889075 173.129577 
L 370.214054 173.05117 
L 370.864013 174.570075 
L 371.188993 174.513049 
L 371.513972 174.610496 
L 372.163931 172.620402 
L 372.488911 170.402435 
L 373.13887 173.482862 
L 373.463849 175.560883 
L 373.788829 176.205048 
L 374.438788 175.767076 
L 375.088747 174.402458 
L 375.413726 173.64274 
L 375.738706 174.391999 
L 376.063686 174.829159 
L 376.713645 173.502709 
L 377.038624 173.593059 
L 377.688583 174.892096 
L 378.013563 174.87498 
L 378.338542 173.94721 
L 378.663522 173.916114 
L 378.988501 175.006916 
L 379.313481 175.406778 
L 379.63846 175.36205 
L 379.96344 175.825421 
L 380.288419 176.876509 
L 380.613399 177.270675 
L 380.938378 176.357556 
L 381.263358 176.401323 
L 381.588337 175.092025 
L 381.913317 174.816593 
L 382.563276 171.672065 
L 383.538215 174.811698 
L 383.863194 174.158432 
L 384.188174 174.369488 
L 384.513153 174.338354 
L 384.838133 175.138131 
L 385.488092 174.358781 
L 385.813071 174.347952 
L 386.138051 175.194555 
L 386.46303 175.586288 
L 386.78801 174.283574 
L 387.112989 174.34513 
L 387.437969 174.263723 
L 387.762948 174.738271 
L 388.412907 175.20289 
L 388.737887 174.971734 
L 389.387846 173.789416 
L 390.687764 174.358949 
L 391.012744 174.00003 
L 391.337723 174.664486 
L 391.662703 174.69213 
L 391.987682 175.330571 
L 392.962621 174.496242 
L 393.2876 174.368068 
L 393.61258 174.724456 
L 394.912498 174.255086 
L 395.237477 174.147063 
L 395.562457 174.747007 
L 395.887437 174.720101 
L 396.212416 174.452197 
L 396.537396 174.574508 
L 396.862375 174.429327 
L 397.187355 174.644526 
L 397.837314 174.511825 
L 398.487273 174.530368 
L 398.487273 174.530368 
" clip-path="url(#pbf2c348210)" style="fill: none; stroke: #1f77b4; stroke-width: 1.5; stroke-linecap: square"/>
   </g>
   <g id="line2d_32">
    <path d="M 73.832727 41.472 
L 74.482686 146.808 
L 74.807666 170.6472 
L 75.132645 177.35544 
L 75.457625 177.283368 
L 76.107584 174.931215 
L 76.432563 174.537597 
L 77.082523 174.474333 
L 78.70742 174.528993 
L 136.228796 174.528 
L 398.487273 174.528 
L 398.487273 174.528 
" clip-path="url(#pbf2c348210)" style="fill: none; stroke: #ff7f0e; stroke-width: 1.5; stroke-linecap: square"/>
   </g>
   <g id="patch_3">
    <path d="M 57.6 307.584 
L 57.6 41.472 
" style="fill: none; stroke: #000000; stroke-width: 0.8; stroke-linejoin: miter; stroke-linecap: square"/>
   </g>
   <g id="patch_4">
    <path d="M 414.72 307.584 
L 414.72 41.472 
" style="fill: none; stroke: #000000; stroke-width: 0.8; stroke-linejoin: miter; stroke-linecap: square"/>
   </g>
   <g id="patch_5">
    <path d="M 57.6 307.584 
L 414.72 307.584 
" style="fill: none; stroke: #000000; stroke-width: 0.8; stroke-linejoin: miter; stroke-linecap: square"/>
   </g>
   <g id="patch_6">
    <path d="M 57.6 41.472 
L 414.72 41.472 
" style="fill: none; stroke: #000000; stroke-width: 0.8; stroke-linejoin: miter; stroke-linecap: square"/>
   </g>
   <g id="text_17">
    <!-- Full $t$ scale -->
    <g transform="translate(203.94 22.003125)scale(0.12 -0.12)">
     <defs>
      <path id="DejaVuSans-46" d="M 628 4666 
L 3309 4666 
L 3309 4134 
L 1259 4134 
L 1259 2759 
L 3109 2759 
L 3109 2228 
L 1259 2228 
L 1259 0 
L 628 0 
L 628 4666 
z
" transform="scale(0.015625)"/>
      <path id="DejaVuSans-75" d="M 544 1381 
L 544 3500 
L 1119 3500 
L 1119 1403 
Q 1119 906 1312 657 
Q 1506 409 1894 409 
Q 2359 409 2629 706 
Q 2900 1003 2900 1516 
L 2900 3500 
L 3475 3500 
L 3475 0 
L 2900 0 
L 2900 538 
Q 2691 219 2414 64 
Q 2138 -91 1772 -91 
Q 1169 -91 856 284 
Q 544 659 544 1381 
z
M 1991 3584 
L 1991 3584 
z
" transform="scale(0.015625)"/>
      <path id="DejaVuSans-6c" d="M 603 4863 
L 1178 4863 
L 1178 0 
L 603 0 
L 603 4863 
z
" transform="scale(0.015625)"/>
      <path id="DejaVuSans-20" transform="scale(0.015625)"/>
      <path id="DejaVuSans-73" d="M 2834 3397 
L 2834 2853 
Q 2591 2978 2328 3040 
Q 2066 3103 1784 3103 
Q 1356 3103 1142 2972 
Q 928 2841 928 2578 
Q 928 2378 1081 2264 
Q 1234 2150 1697 2047 
L 1894 2003 
Q 2506 1872 2764 1633 
Q 3022 1394 3022 966 
Q 3022 478 2636 193 
Q 2250 -91 1575 -91 
Q 1294 -91 989 -36 
Q 684 19 347 128 
L 347 722 
Q 666 556 975 473 
Q 1284 391 1588 391 
Q 1994 391 2212 530 
Q 2431 669 2431 922 
Q 2431 1156 2273 1281 
Q 2116 1406 1581 1522 
L 1381 1569 
Q 847 1681 609 1914 
Q 372 2147 372 2553 
Q 372 3047 722 3315 
Q 1072 3584 1716 3584 
Q 2034 3584 2315 3537 
Q 2597 3491 2834 3397 
z
" transform="scale(0.015625)"/>
      <path id="DejaVuSans-63" d="M 3122 3366 
L 3122 2828 
Q 2878 2963 2633 3030 
Q 2388 3097 2138 3097 
Q 1578 3097 1268 2742 
Q 959 2388 959 1747 
Q 959 1106 1268 751 
Q 1578 397 2138 397 
Q 2388 397 2633 464 
Q 2878 531 3122 666 
L 3122 134 
Q 2881 22 2623 -34 
Q 2366 -91 2075 -91 
Q 1284 -91 818 406 
Q 353 903 353 1747 
Q 353 2603 823 3093 
Q 1294 3584 2113 3584 
Q 2378 3584 2631 3529 
Q 2884 3475 3122 3366 
z
" transform="scale(0.015625)"/>
      <path id="DejaVuSans-61" d="M 2194 1759 
Q 1497 1759 1228 1600 
Q 959 1441 959 1056 
Q 959 750 1161 570 
Q 1363 391 1709 391 
Q 2188 391 2477 730 
Q 2766 1069 2766 1631 
L 2766 1759 
L 2194 1759 
z
M 3341 1997 
L 3341 0 
L 2766 0 
L 2766 531 
Q 2569 213 2275 61 
Q 1981 -91 1556 -91 
Q 1019 -91 701 211 
Q 384 513 384 1019 
Q 384 1609 779 1909 
Q 1175 2209 1959 2209 
L 2766 2209 
L 2766 2266 
Q 2766 2663 2505 2880 
Q 2244 3097 1772 3097 
Q 1472 3097 1187 3025 
Q 903 2953 641 2809 
L 641 3341 
Q 956 3463 1253 3523 
Q 1550 3584 1831 3584 
Q 2591 3584 2966 3190 
Q 3341 2797 3341 1997 
z
" transform="scale(0.015625)"/>
      <path id="DejaVuSans-65" d="M 3597 1894 
L 3597 1613 
L 953 1613 
Q 991 1019 1311 708 
Q 1631 397 2203 397 
Q 2534 397 2845 478 
Q 3156 559 3463 722 
L 3463 178 
Q 3153 47 2828 -22 
Q 2503 -91 2169 -91 
Q 1331 -91 842 396 
Q 353 884 353 1716 
Q 353 2575 817 3079 
Q 1281 3584 2069 3584 
Q 2775 3584 3186 3129 
Q 3597 2675 3597 1894 
z
M 3022 2063 
Q 3016 2534 2758 2815 
Q 2500 3097 2075 3097 
Q 1594 3097 1305 2825 
Q 1016 2553 972 2059 
L 3022 2063 
z
" transform="scale(0.015625)"/>
     </defs>
     <use xlink:href="#DejaVuSans-46" transform="translate(0 0.015625)"/>
     <use xlink:href="#DejaVuSans-75" transform="translate(57.519531 0.015625)"/>
     <use xlink:href="#DejaVuSans-6c" transform="translate(120.898438 0.015625)"/>
     <use xlink:href="#DejaVuSans-6c" transform="translate(148.681641 0.015625)"/>
     <use xlink:href="#DejaVuSans-20" transform="translate(176.464844 0.015625)"/>
     <use xlink:href="#DejaVuSans-Oblique-74" transform="translate(208.251953 0.015625)"/>
     <use xlink:href="#DejaVuSans-20" transform="translate(247.460938 0.015625)"/>
     <use xlink:href="#DejaVuSans-73" transform="translate(279.248047 0.015625)"/>
     <use xlink:href="#DejaVuSans-63" transform="translate(331.347656 0.015625)"/>
     <use xlink:href="#DejaVuSans-61" transform="translate(386.328125 0.015625)"/>
     <use xlink:href="#DejaVuSans-6c" transform="translate(447.607422 0.015625)"/>
     <use xlink:href="#DejaVuSans-65" transform="translate(475.390625 0.015625)"/>
    </g>
    <!-- $z_t=0.7z_{t-1}-0.2z_{t-2}+ε_t$; $ε_t$ ~ $\mathcal{N}(0,1)$ -->
    <g transform="translate(121.2 35.472)scale(0.12 -0.12)">
     <defs>
      <path id="DejaVuSans-Oblique-7a" d="M 744 3500 
L 3475 3500 
L 3372 2975 
L 738 459 
L 2913 459 
L 2822 0 
L -19 0 
L 84 525 
L 2719 3041 
L 653 3041 
L 744 3500 
z
" transform="scale(0.015625)"/>
      <path id="DejaVuSans-3d" d="M 678 2906 
L 4684 2906 
L 4684 2381 
L 678 2381 
L 678 2906 
z
M 678 1631 
L 4684 1631 
L 4684 1100 
L 678 1100 
L 678 1631 
z
" transform="scale(0.015625)"/>
      <path id="DejaVuSans-2b" d="M 2944 4013 
L 2944 2272 
L 4684 2272 
L 4684 1741 
L 2944 1741 
L 2944 0 
L 2419 0 
L 2419 1741 
L 678 1741 
L 678 2272 
L 2419 2272 
L 2419 4013 
L 2944 4013 
z
" transform="scale(0.015625)"/>
      <path id="DejaVuSans-Oblique-3b5" d="M 1263 1888 
Q 925 1963 778 2166 
Q 669 2309 669 2503 
Q 669 3034 1175 3344 
Q 1575 3588 2188 3588 
Q 2425 3588 2684 3550 
Q 2944 3513 3234 3438 
L 3134 2916 
Q 2847 3006 2606 3047 
Q 2359 3088 2138 3088 
Q 1766 3088 1522 2944 
Q 1228 2772 1228 2522 
Q 1228 2356 1381 2241 
Q 1563 2103 1925 2103 
L 2409 2103 
L 2319 1628 
L 1856 1628 
Q 1425 1628 1172 1469 
Q 828 1253 828 916 
Q 828 703 1013 563 
Q 1244 388 1716 388 
Q 2006 388 2284 444 
Q 2563 503 2806 619 
L 2700 84 
Q 2403 -3 2131 -47 
Q 1859 -91 1609 -91 
Q 866 -91 516 194 
Q 250 413 250 781 
Q 250 1278 600 1584 
Q 859 1813 1263 1888 
z
" transform="scale(0.015625)"/>
      <path id="DejaVuSans-3b" d="M 750 3309 
L 1409 3309 
L 1409 2516 
L 750 2516 
L 750 3309 
z
M 750 794 
L 1409 794 
L 1409 256 
L 897 -744 
L 494 -744 
L 750 256 
L 750 794 
z
" transform="scale(0.015625)"/>
      <path id="DejaVuSans-7e" d="M 4684 2553 
L 4684 1997 
Q 4356 1750 4076 1644 
Q 3797 1538 3494 1538 
Q 3150 1538 2694 1722 
Q 2659 1734 2644 1741 
Q 2622 1750 2575 1766 
Q 2091 1959 1797 1959 
Q 1522 1959 1253 1839 
Q 984 1719 678 1459 
L 678 2016 
Q 1006 2263 1286 2370 
Q 1566 2478 1869 2478 
Q 2213 2478 2672 2291 
Q 2703 2278 2719 2272 
Q 2744 2263 2788 2247 
Q 3272 2053 3566 2053 
Q 3834 2053 4098 2172 
Q 4363 2291 4684 2553 
z
" transform="scale(0.015625)"/>
      <path id="STIXNonUnicode-Italic-e23a" d="M 4294 800 
L 4301 800 
Q 5293 4070 5408 4378 
Q 5472 4538 5523 4614 
Q 5830 5088 6253 5088 
Q 6490 5088 6650 4931 
Q 6810 4774 6810 4550 
Q 6810 4378 6720 4272 
Q 6630 4166 6470 4166 
Q 6368 4166 6297 4224 
Q 6227 4282 6198 4349 
Q 6170 4416 6118 4473 
Q 6067 4531 6003 4531 
Q 5939 4531 5881 4508 
Q 5824 4486 5785 4457 
Q 5747 4429 5705 4371 
Q 5664 4314 5638 4275 
Q 5613 4237 5584 4163 
Q 5555 4090 5545 4058 
Q 5536 4026 5510 3952 
Q 5485 3878 5485 3866 
L 4262 -154 
L 4134 -154 
Q 3078 1280 2483 2893 
L 2470 2893 
Q 2406 2579 2358 2361 
Q 2310 2144 2214 1792 
Q 2118 1440 2028 1190 
Q 1939 941 1804 653 
Q 1670 365 1529 185 
Q 1389 6 1203 -115 
Q 1018 -237 813 -237 
Q 576 -237 416 -80 
Q 256 77 256 301 
Q 256 474 345 579 
Q 435 685 595 685 
Q 698 685 768 627 
Q 838 570 867 502 
Q 896 435 947 377 
Q 998 320 1062 320 
Q 1222 320 1369 480 
Q 1517 640 1638 928 
Q 1760 1216 1862 1542 
Q 1965 1869 2057 2288 
Q 2150 2707 2214 3033 
Q 2278 3360 2348 3741 
Q 2419 4122 2458 4294 
L 2630 4294 
Q 2682 4166 2874 3680 
Q 3066 3194 3142 3008 
Q 3219 2822 3392 2422 
Q 3565 2022 3683 1798 
Q 3802 1574 3968 1292 
Q 4134 1011 4294 800 
z
" transform="scale(0.015625)"/>
      <path id="DejaVuSans-28" d="M 1984 4856 
Q 1566 4138 1362 3434 
Q 1159 2731 1159 2009 
Q 1159 1288 1364 580 
Q 1569 -128 1984 -844 
L 1484 -844 
Q 1016 -109 783 600 
Q 550 1309 550 2009 
Q 550 2706 781 3412 
Q 1013 4119 1484 4856 
L 1984 4856 
z
" transform="scale(0.015625)"/>
      <path id="DejaVuSans-2c" d="M 750 794 
L 1409 794 
L 1409 256 
L 897 -744 
L 494 -744 
L 750 256 
L 750 794 
z
" transform="scale(0.015625)"/>
      <path id="DejaVuSans-29" d="M 513 4856 
L 1013 4856 
Q 1481 4119 1714 3412 
Q 1947 2706 1947 2009 
Q 1947 1309 1714 600 
Q 1481 -109 1013 -844 
L 513 -844 
Q 928 -128 1133 580 
Q 1338 1288 1338 2009 
Q 1338 2731 1133 3434 
Q 928 4138 513 4856 
z
" transform="scale(0.015625)"/>
     </defs>
     <use xlink:href="#DejaVuSans-Oblique-7a" transform="translate(0 0.5)"/>
     <use xlink:href="#DejaVuSans-Oblique-74" transform="translate(52.490234 -15.90625)scale(0.7)"/>
     <use xlink:href="#DejaVuSans-3d" transform="translate(102.15332 0.5)"/>
     <use xlink:href="#DejaVuSans-30" transform="translate(205.424805 0.5)"/>
     <use xlink:href="#DejaVuSans-2e" transform="translate(269.047852 0.5)"/>
     <use xlink:href="#DejaVuSans-37" transform="translate(293.084961 0.5)"/>
     <use xlink:href="#DejaVuSans-Oblique-7a" transform="translate(356.708008 0.5)"/>
     <use xlink:href="#DejaVuSans-Oblique-74" transform="translate(409.198242 -15.90625)scale(0.7)"/>
     <use xlink:href="#DejaVuSans-2212" transform="translate(450.282227 -15.90625)scale(0.7)"/>
     <use xlink:href="#DejaVuSans-31" transform="translate(522.572266 -15.90625)scale(0.7)"/>
     <use xlink:href="#DejaVuSans-2212" transform="translate(589.325195 0.5)"/>
     <use xlink:href="#DejaVuSans-30" transform="translate(692.59668 0.5)"/>
     <use xlink:href="#DejaVuSans-2e" transform="translate(756.219727 0.5)"/>
     <use xlink:href="#DejaVuSans-32" transform="translate(782.506836 0.5)"/>
     <use xlink:href="#DejaVuSans-Oblique-7a" transform="translate(846.129883 0.5)"/>
     <use xlink:href="#DejaVuSans-Oblique-74" transform="translate(898.620117 -15.90625)scale(0.7)"/>
     <use xlink:href="#DejaVuSans-2212" transform="translate(939.704102 -15.90625)scale(0.7)"/>
     <use xlink:href="#DejaVuSans-32" transform="translate(1011.994141 -15.90625)scale(0.7)"/>
     <use xlink:href="#DejaVuSans-2b" transform="translate(1078.74707 0.5)"/>
     <use xlink:href="#DejaVuSans-Oblique-3b5" transform="translate(1182.018555 0.5)"/>
     <use xlink:href="#DejaVuSans-Oblique-74" transform="translate(1236.071289 -15.90625)scale(0.7)"/>
     <use xlink:href="#DejaVuSans-3b" transform="translate(1266.251953 0.5)"/>
     <use xlink:href="#DejaVuSans-20" transform="translate(1299.943359 0.5)"/>
     <use xlink:href="#DejaVuSans-Oblique-3b5" transform="translate(1331.730469 0.5)"/>
     <use xlink:href="#DejaVuSans-Oblique-74" transform="translate(1385.783203 -15.90625)scale(0.7)"/>
     <use xlink:href="#DejaVuSans-20" transform="translate(1415.963867 0.5)"/>
     <use xlink:href="#DejaVuSans-7e" transform="translate(1447.750977 0.5)"/>
     <use xlink:href="#DejaVuSans-20" transform="translate(1531.540039 0.5)"/>
     <use xlink:href="#STIXNonUnicode-Italic-e23a" transform="translate(1563.327148 0.5)"/>
     <use xlink:href="#DejaVuSans-28" transform="translate(1659.02713 0.5)"/>
     <use xlink:href="#DejaVuSans-30" transform="translate(1698.040802 0.5)"/>
     <use xlink:href="#DejaVuSans-2c" transform="translate(1761.663849 0.5)"/>
     <use xlink:href="#DejaVuSans-31" transform="translate(1812.93338 0.5)"/>
     <use xlink:href="#DejaVuSans-29" transform="translate(1876.556427 0.5)"/>
    </g>
   </g>
   <g id="legend_1">
    <g id="patch_7">
     <path d="M 369.371563 78.82825 
L 407.72 78.82825 
Q 409.72 78.82825 409.72 76.82825 
L 409.72 48.472 
Q 409.72 46.472 407.72 46.472 
L 369.371563 46.472 
Q 367.371563 46.472 367.371563 48.472 
L 367.371563 76.82825 
Q 367.371563 78.82825 369.371563 78.82825 
z
" style="fill: #ffffff; opacity: 0.8; stroke: #cccccc; stroke-linejoin: miter"/>
    </g>
    <g id="line2d_33">
     <path d="M 371.371563 54.570437 
L 381.371563 54.570437 
L 391.371563 54.570437 
" style="fill: none; stroke: #1f77b4; stroke-width: 1.5; stroke-linecap: square"/>
    </g>
    <g id="text_18">
     <!-- $r$ -->
     <g transform="translate(399.371563 58.070437)scale(0.1 -0.1)">
      <defs>
       <path id="DejaVuSans-Oblique-72" d="M 2853 2969 
Q 2766 3016 2653 3041 
Q 2541 3066 2413 3066 
Q 1953 3066 1609 2717 
Q 1266 2369 1153 1784 
L 800 0 
L 225 0 
L 909 3500 
L 1484 3500 
L 1375 2956 
Q 1603 3259 1920 3421 
Q 2238 3584 2597 3584 
Q 2691 3584 2781 3573 
Q 2872 3563 2963 3538 
L 2853 2969 
z
" transform="scale(0.015625)"/>
      </defs>
      <use xlink:href="#DejaVuSans-Oblique-72"/>
     </g>
    </g>
    <g id="line2d_34">
     <path d="M 371.371563 69.248562 
L 381.371563 69.248562 
L 391.371563 69.248562 
" style="fill: none; stroke: #ff7f0e; stroke-width: 1.5; stroke-linecap: square"/>
    </g>
    <g id="text_19">
     <!-- ρ -->
     <g transform="translate(399.371563 72.748562)scale(0.1 -0.1)">
      <defs>
       <path id="DejaVuSans-3c1" d="M 863 2875 
Q 1053 3194 1525 3475 
Q 1709 3584 2278 3584 
Q 2916 3584 3314 3078 
Q 3713 2572 3713 1747 
Q 3713 922 3314 415 
Q 2916 -91 2278 -91 
Q 1894 -91 1617 61 
Q 1341 213 1159 525 
L 1159 -1331 
L 581 -1331 
L 581 1716 
Q 581 2438 863 2875 
z
M 3116 1747 
Q 3116 2381 2855 2742 
Q 2594 3103 2138 3103 
Q 1681 3103 1420 2742 
Q 1159 2381 1159 1747 
Q 1159 1113 1420 752 
Q 1681 391 2138 391 
Q 2594 391 2855 752 
Q 3116 1113 3116 1747 
z
" transform="scale(0.015625)"/>
      </defs>
      <use xlink:href="#DejaVuSans-3c1"/>
     </g>
    </g>
   </g>
  </g>
 </g>
 <defs>
  <clipPath id="pbf2c348210">
   <rect x="57.6" y="41.472" width="357.12" height="266.112"/>
  </clipPath>
 </defs>
</svg>
