<?xml version="1.0" encoding="utf-8" standalone="no"?>
<!DOCTYPE svg PUBLIC "-//W3C//DTD SVG 1.1//EN"
  "http://www.w3.org/Graphics/SVG/1.1/DTD/svg11.dtd">
<!-- Created with matplotlib (https://matplotlib.org/) -->
<svg height="288pt" version="1.1" viewBox="0 0 432 288" width="432pt" xmlns="http://www.w3.org/2000/svg" xmlns:xlink="http://www.w3.org/1999/xlink">
 <metadata>
  <rdf:RDF xmlns:cc="http://creativecommons.org/ns#" xmlns:dc="http://purl.org/dc/elements/1.1/" xmlns:rdf="http://www.w3.org/1999/02/22-rdf-syntax-ns#">
   <cc:Work>
    <dc:type rdf:resource="http://purl.org/dc/dcmitype/StillImage"/>
    <dc:date>2021-04-10T06:46:23.754332</dc:date>
    <dc:format>image/svg+xml</dc:format>
    <dc:creator>
     <cc:Agent>
      <dc:title>Matplotlib v3.3.2, https://matplotlib.org/</dc:title>
     </cc:Agent>
    </dc:creator>
   </cc:Work>
  </rdf:RDF>
 </metadata>
 <defs>
  <style type="text/css">*{stroke-linecap:butt;stroke-linejoin:round;}</style>
 </defs>
 <g id="figure_1">
  <g id="patch_1">
   <path d="M 0 288 
L 432 288 
L 432 0 
L 0 0 
z
" style="fill:none;"/>
  </g>
  <g id="axes_1">
   <g id="patch_2">
    <path d="M 54 252 
L 388.8 252 
L 388.8 34.56 
L 54 34.56 
z
" style="fill:none;"/>
   </g>
   <g id="matplotlib.axis_1">
    <g id="xtick_1">
     <g id="line2d_1">
      <defs>
       <path d="M 0 0 
L 0 3.5 
" id="m2658b6d5fd" style="stroke:#000000;stroke-width:0.8;"/>
      </defs>
      <g>
       <use style="stroke:#000000;stroke-width:0.8;" x="69.906787" xlink:href="#m2658b6d5fd" y="252"/>
      </g>
     </g>
     <g id="text_1">
      <!-- −1.0 -->
      <g transform="translate(57.765381 266.598437)scale(0.1 -0.1)">
       <defs>
        <path d="M 10.59375 35.5 
L 73.1875 35.5 
L 73.1875 27.203125 
L 10.59375 27.203125 
z
" id="DejaVuSans-8722"/>
        <path d="M 12.40625 8.296875 
L 28.515625 8.296875 
L 28.515625 63.921875 
L 10.984375 60.40625 
L 10.984375 69.390625 
L 28.421875 72.90625 
L 38.28125 72.90625 
L 38.28125 8.296875 
L 54.390625 8.296875 
L 54.390625 0 
L 12.40625 0 
z
" id="DejaVuSans-49"/>
        <path d="M 10.6875 12.40625 
L 21 12.40625 
L 21 0 
L 10.6875 0 
z
" id="DejaVuSans-46"/>
        <path d="M 31.78125 66.40625 
Q 24.171875 66.40625 20.328125 58.90625 
Q 16.5 51.421875 16.5 36.375 
Q 16.5 21.390625 20.328125 13.890625 
Q 24.171875 6.390625 31.78125 6.390625 
Q 39.453125 6.390625 43.28125 13.890625 
Q 47.125 21.390625 47.125 36.375 
Q 47.125 51.421875 43.28125 58.90625 
Q 39.453125 66.40625 31.78125 66.40625 
z
M 31.78125 74.21875 
Q 44.046875 74.21875 50.515625 64.515625 
Q 56.984375 54.828125 56.984375 36.375 
Q 56.984375 17.96875 50.515625 8.265625 
Q 44.046875 -1.421875 31.78125 -1.421875 
Q 19.53125 -1.421875 13.0625 8.265625 
Q 6.59375 17.96875 6.59375 36.375 
Q 6.59375 54.828125 13.0625 64.515625 
Q 19.53125 74.21875 31.78125 74.21875 
z
" id="DejaVuSans-48"/>
       </defs>
       <use xlink:href="#DejaVuSans-8722"/>
       <use x="83.789062" xlink:href="#DejaVuSans-49"/>
       <use x="147.412109" xlink:href="#DejaVuSans-46"/>
       <use x="179.199219" xlink:href="#DejaVuSans-48"/>
      </g>
     </g>
    </g>
    <g id="xtick_2">
     <g id="line2d_2">
      <g>
       <use style="stroke:#000000;stroke-width:0.8;" x="100.20543" xlink:href="#m2658b6d5fd" y="252"/>
      </g>
     </g>
     <g id="text_2">
      <!-- −0.8 -->
      <g transform="translate(88.064024 266.598437)scale(0.1 -0.1)">
       <defs>
        <path d="M 31.78125 34.625 
Q 24.75 34.625 20.71875 30.859375 
Q 16.703125 27.09375 16.703125 20.515625 
Q 16.703125 13.921875 20.71875 10.15625 
Q 24.75 6.390625 31.78125 6.390625 
Q 38.8125 6.390625 42.859375 10.171875 
Q 46.921875 13.96875 46.921875 20.515625 
Q 46.921875 27.09375 42.890625 30.859375 
Q 38.875 34.625 31.78125 34.625 
z
M 21.921875 38.8125 
Q 15.578125 40.375 12.03125 44.71875 
Q 8.5 49.078125 8.5 55.328125 
Q 8.5 64.0625 14.71875 69.140625 
Q 20.953125 74.21875 31.78125 74.21875 
Q 42.671875 74.21875 48.875 69.140625 
Q 55.078125 64.0625 55.078125 55.328125 
Q 55.078125 49.078125 51.53125 44.71875 
Q 48 40.375 41.703125 38.8125 
Q 48.828125 37.15625 52.796875 32.3125 
Q 56.78125 27.484375 56.78125 20.515625 
Q 56.78125 9.90625 50.3125 4.234375 
Q 43.84375 -1.421875 31.78125 -1.421875 
Q 19.734375 -1.421875 13.25 4.234375 
Q 6.78125 9.90625 6.78125 20.515625 
Q 6.78125 27.484375 10.78125 32.3125 
Q 14.796875 37.15625 21.921875 38.8125 
z
M 18.3125 54.390625 
Q 18.3125 48.734375 21.84375 45.5625 
Q 25.390625 42.390625 31.78125 42.390625 
Q 38.140625 42.390625 41.71875 45.5625 
Q 45.3125 48.734375 45.3125 54.390625 
Q 45.3125 60.0625 41.71875 63.234375 
Q 38.140625 66.40625 31.78125 66.40625 
Q 25.390625 66.40625 21.84375 63.234375 
Q 18.3125 60.0625 18.3125 54.390625 
z
" id="DejaVuSans-56"/>
       </defs>
       <use xlink:href="#DejaVuSans-8722"/>
       <use x="83.789062" xlink:href="#DejaVuSans-48"/>
       <use x="147.412109" xlink:href="#DejaVuSans-46"/>
       <use x="179.199219" xlink:href="#DejaVuSans-56"/>
      </g>
     </g>
    </g>
    <g id="xtick_3">
     <g id="line2d_3">
      <g>
       <use style="stroke:#000000;stroke-width:0.8;" x="130.504072" xlink:href="#m2658b6d5fd" y="252"/>
      </g>
     </g>
     <g id="text_3">
      <!-- −0.6 -->
      <g transform="translate(118.362666 266.598437)scale(0.1 -0.1)">
       <defs>
        <path d="M 33.015625 40.375 
Q 26.375 40.375 22.484375 35.828125 
Q 18.609375 31.296875 18.609375 23.390625 
Q 18.609375 15.53125 22.484375 10.953125 
Q 26.375 6.390625 33.015625 6.390625 
Q 39.65625 6.390625 43.53125 10.953125 
Q 47.40625 15.53125 47.40625 23.390625 
Q 47.40625 31.296875 43.53125 35.828125 
Q 39.65625 40.375 33.015625 40.375 
z
M 52.59375 71.296875 
L 52.59375 62.3125 
Q 48.875 64.0625 45.09375 64.984375 
Q 41.3125 65.921875 37.59375 65.921875 
Q 27.828125 65.921875 22.671875 59.328125 
Q 17.53125 52.734375 16.796875 39.40625 
Q 19.671875 43.65625 24.015625 45.921875 
Q 28.375 48.1875 33.59375 48.1875 
Q 44.578125 48.1875 50.953125 41.515625 
Q 57.328125 34.859375 57.328125 23.390625 
Q 57.328125 12.15625 50.6875 5.359375 
Q 44.046875 -1.421875 33.015625 -1.421875 
Q 20.359375 -1.421875 13.671875 8.265625 
Q 6.984375 17.96875 6.984375 36.375 
Q 6.984375 53.65625 15.1875 63.9375 
Q 23.390625 74.21875 37.203125 74.21875 
Q 40.921875 74.21875 44.703125 73.484375 
Q 48.484375 72.75 52.59375 71.296875 
z
" id="DejaVuSans-54"/>
       </defs>
       <use xlink:href="#DejaVuSans-8722"/>
       <use x="83.789062" xlink:href="#DejaVuSans-48"/>
       <use x="147.412109" xlink:href="#DejaVuSans-46"/>
       <use x="179.199219" xlink:href="#DejaVuSans-54"/>
      </g>
     </g>
    </g>
    <g id="xtick_4">
     <g id="line2d_4">
      <g>
       <use style="stroke:#000000;stroke-width:0.8;" x="160.802715" xlink:href="#m2658b6d5fd" y="252"/>
      </g>
     </g>
     <g id="text_4">
      <!-- −0.4 -->
      <g transform="translate(148.661309 266.598437)scale(0.1 -0.1)">
       <defs>
        <path d="M 37.796875 64.3125 
L 12.890625 25.390625 
L 37.796875 25.390625 
z
M 35.203125 72.90625 
L 47.609375 72.90625 
L 47.609375 25.390625 
L 58.015625 25.390625 
L 58.015625 17.1875 
L 47.609375 17.1875 
L 47.609375 0 
L 37.796875 0 
L 37.796875 17.1875 
L 4.890625 17.1875 
L 4.890625 26.703125 
z
" id="DejaVuSans-52"/>
       </defs>
       <use xlink:href="#DejaVuSans-8722"/>
       <use x="83.789062" xlink:href="#DejaVuSans-48"/>
       <use x="147.412109" xlink:href="#DejaVuSans-46"/>
       <use x="179.199219" xlink:href="#DejaVuSans-52"/>
      </g>
     </g>
    </g>
    <g id="xtick_5">
     <g id="line2d_5">
      <g>
       <use style="stroke:#000000;stroke-width:0.8;" x="191.101357" xlink:href="#m2658b6d5fd" y="252"/>
      </g>
     </g>
     <g id="text_5">
      <!-- −0.2 -->
      <g transform="translate(178.959951 266.598437)scale(0.1 -0.1)">
       <defs>
        <path d="M 19.1875 8.296875 
L 53.609375 8.296875 
L 53.609375 0 
L 7.328125 0 
L 7.328125 8.296875 
Q 12.9375 14.109375 22.625 23.890625 
Q 32.328125 33.6875 34.8125 36.53125 
Q 39.546875 41.84375 41.421875 45.53125 
Q 43.3125 49.21875 43.3125 52.78125 
Q 43.3125 58.59375 39.234375 62.25 
Q 35.15625 65.921875 28.609375 65.921875 
Q 23.96875 65.921875 18.8125 64.3125 
Q 13.671875 62.703125 7.8125 59.421875 
L 7.8125 69.390625 
Q 13.765625 71.78125 18.9375 73 
Q 24.125 74.21875 28.421875 74.21875 
Q 39.75 74.21875 46.484375 68.546875 
Q 53.21875 62.890625 53.21875 53.421875 
Q 53.21875 48.921875 51.53125 44.890625 
Q 49.859375 40.875 45.40625 35.40625 
Q 44.1875 33.984375 37.640625 27.21875 
Q 31.109375 20.453125 19.1875 8.296875 
z
" id="DejaVuSans-50"/>
       </defs>
       <use xlink:href="#DejaVuSans-8722"/>
       <use x="83.789062" xlink:href="#DejaVuSans-48"/>
       <use x="147.412109" xlink:href="#DejaVuSans-46"/>
       <use x="179.199219" xlink:href="#DejaVuSans-50"/>
      </g>
     </g>
    </g>
    <g id="xtick_6">
     <g id="line2d_6">
      <g>
       <use style="stroke:#000000;stroke-width:0.8;" x="221.4" xlink:href="#m2658b6d5fd" y="252"/>
      </g>
     </g>
     <g id="text_6">
      <!-- 0.0 -->
      <g transform="translate(213.448438 266.598437)scale(0.1 -0.1)">
       <use xlink:href="#DejaVuSans-48"/>
       <use x="63.623047" xlink:href="#DejaVuSans-46"/>
       <use x="95.410156" xlink:href="#DejaVuSans-48"/>
      </g>
     </g>
    </g>
    <g id="xtick_7">
     <g id="line2d_7">
      <g>
       <use style="stroke:#000000;stroke-width:0.8;" x="251.698643" xlink:href="#m2658b6d5fd" y="252"/>
      </g>
     </g>
     <g id="text_7">
      <!-- 0.2 -->
      <g transform="translate(243.74708 266.598437)scale(0.1 -0.1)">
       <use xlink:href="#DejaVuSans-48"/>
       <use x="63.623047" xlink:href="#DejaVuSans-46"/>
       <use x="95.410156" xlink:href="#DejaVuSans-50"/>
      </g>
     </g>
    </g>
    <g id="xtick_8">
     <g id="line2d_8">
      <g>
       <use style="stroke:#000000;stroke-width:0.8;" x="281.997285" xlink:href="#m2658b6d5fd" y="252"/>
      </g>
     </g>
     <g id="text_8">
      <!-- 0.4 -->
      <g transform="translate(274.045723 266.598437)scale(0.1 -0.1)">
       <use xlink:href="#DejaVuSans-48"/>
       <use x="63.623047" xlink:href="#DejaVuSans-46"/>
       <use x="95.410156" xlink:href="#DejaVuSans-52"/>
      </g>
     </g>
    </g>
    <g id="xtick_9">
     <g id="line2d_9">
      <g>
       <use style="stroke:#000000;stroke-width:0.8;" x="312.295928" xlink:href="#m2658b6d5fd" y="252"/>
      </g>
     </g>
     <g id="text_9">
      <!-- 0.6 -->
      <g transform="translate(304.344365 266.598437)scale(0.1 -0.1)">
       <use xlink:href="#DejaVuSans-48"/>
       <use x="63.623047" xlink:href="#DejaVuSans-46"/>
       <use x="95.410156" xlink:href="#DejaVuSans-54"/>
      </g>
     </g>
    </g>
    <g id="xtick_10">
     <g id="line2d_10">
      <g>
       <use style="stroke:#000000;stroke-width:0.8;" x="342.59457" xlink:href="#m2658b6d5fd" y="252"/>
      </g>
     </g>
     <g id="text_10">
      <!-- 0.8 -->
      <g transform="translate(334.643008 266.598437)scale(0.1 -0.1)">
       <use xlink:href="#DejaVuSans-48"/>
       <use x="63.623047" xlink:href="#DejaVuSans-46"/>
       <use x="95.410156" xlink:href="#DejaVuSans-56"/>
      </g>
     </g>
    </g>
    <g id="xtick_11">
     <g id="line2d_11">
      <g>
       <use style="stroke:#000000;stroke-width:0.8;" x="372.893213" xlink:href="#m2658b6d5fd" y="252"/>
      </g>
     </g>
     <g id="text_11">
      <!-- 1.0 -->
      <g transform="translate(364.94165 266.598437)scale(0.1 -0.1)">
       <use xlink:href="#DejaVuSans-49"/>
       <use x="63.623047" xlink:href="#DejaVuSans-46"/>
       <use x="95.410156" xlink:href="#DejaVuSans-48"/>
      </g>
     </g>
    </g>
    <g id="text_12">
     <!-- $\theta$ (population mean) -->
     <g transform="translate(170.45 280.378125)scale(0.1 -0.1)">
      <defs>
       <path d="M 45.515625 34.671875 
L 14.453125 34.671875 
Q 12.359375 20.0625 14.5 13.875 
Q 17.1875 6.25 24.46875 6.25 
Q 31.78125 6.25 37.359375 13.921875 
Q 42.234375 20.65625 45.515625 34.671875 
z
M 47.015625 42.96875 
Q 48.34375 56.84375 46.625 61.71875 
Q 43.953125 69.4375 36.765625 69.4375 
Q 29.296875 69.4375 23.828125 61.8125 
Q 19.53125 55.671875 16.15625 42.96875 
z
M 38.1875 76.765625 
Q 49.90625 76.765625 54.59375 66.40625 
Q 59.28125 56.109375 55.71875 37.84375 
Q 52.203125 19.625 43.453125 9.28125 
Q 34.765625 -1.125 23.046875 -1.125 
Q 11.28125 -1.125 6.640625 9.28125 
Q 2 19.625 5.515625 37.84375 
Q 9.078125 56.109375 17.71875 66.40625 
Q 26.421875 76.765625 38.1875 76.765625 
z
" id="DejaVuSans-Oblique-952"/>
       <path id="DejaVuSans-32"/>
       <path d="M 31 75.875 
Q 24.46875 64.65625 21.28125 53.65625 
Q 18.109375 42.671875 18.109375 31.390625 
Q 18.109375 20.125 21.3125 9.0625 
Q 24.515625 -2 31 -13.1875 
L 23.1875 -13.1875 
Q 15.875 -1.703125 12.234375 9.375 
Q 8.59375 20.453125 8.59375 31.390625 
Q 8.59375 42.28125 12.203125 53.3125 
Q 15.828125 64.359375 23.1875 75.875 
z
" id="DejaVuSans-40"/>
       <path d="M 18.109375 8.203125 
L 18.109375 -20.796875 
L 9.078125 -20.796875 
L 9.078125 54.6875 
L 18.109375 54.6875 
L 18.109375 46.390625 
Q 20.953125 51.265625 25.265625 53.625 
Q 29.59375 56 35.59375 56 
Q 45.5625 56 51.78125 48.09375 
Q 58.015625 40.1875 58.015625 27.296875 
Q 58.015625 14.40625 51.78125 6.484375 
Q 45.5625 -1.421875 35.59375 -1.421875 
Q 29.59375 -1.421875 25.265625 0.953125 
Q 20.953125 3.328125 18.109375 8.203125 
z
M 48.6875 27.296875 
Q 48.6875 37.203125 44.609375 42.84375 
Q 40.53125 48.484375 33.40625 48.484375 
Q 26.265625 48.484375 22.1875 42.84375 
Q 18.109375 37.203125 18.109375 27.296875 
Q 18.109375 17.390625 22.1875 11.75 
Q 26.265625 6.109375 33.40625 6.109375 
Q 40.53125 6.109375 44.609375 11.75 
Q 48.6875 17.390625 48.6875 27.296875 
z
" id="DejaVuSans-112"/>
       <path d="M 30.609375 48.390625 
Q 23.390625 48.390625 19.1875 42.75 
Q 14.984375 37.109375 14.984375 27.296875 
Q 14.984375 17.484375 19.15625 11.84375 
Q 23.34375 6.203125 30.609375 6.203125 
Q 37.796875 6.203125 41.984375 11.859375 
Q 46.1875 17.53125 46.1875 27.296875 
Q 46.1875 37.015625 41.984375 42.703125 
Q 37.796875 48.390625 30.609375 48.390625 
z
M 30.609375 56 
Q 42.328125 56 49.015625 48.375 
Q 55.71875 40.765625 55.71875 27.296875 
Q 55.71875 13.875 49.015625 6.21875 
Q 42.328125 -1.421875 30.609375 -1.421875 
Q 18.84375 -1.421875 12.171875 6.21875 
Q 5.515625 13.875 5.515625 27.296875 
Q 5.515625 40.765625 12.171875 48.375 
Q 18.84375 56 30.609375 56 
z
" id="DejaVuSans-111"/>
       <path d="M 8.5 21.578125 
L 8.5 54.6875 
L 17.484375 54.6875 
L 17.484375 21.921875 
Q 17.484375 14.15625 20.5 10.265625 
Q 23.53125 6.390625 29.59375 6.390625 
Q 36.859375 6.390625 41.078125 11.03125 
Q 45.3125 15.671875 45.3125 23.6875 
L 45.3125 54.6875 
L 54.296875 54.6875 
L 54.296875 0 
L 45.3125 0 
L 45.3125 8.40625 
Q 42.046875 3.421875 37.71875 1 
Q 33.40625 -1.421875 27.6875 -1.421875 
Q 18.265625 -1.421875 13.375 4.4375 
Q 8.5 10.296875 8.5 21.578125 
z
M 31.109375 56 
z
" id="DejaVuSans-117"/>
       <path d="M 9.421875 75.984375 
L 18.40625 75.984375 
L 18.40625 0 
L 9.421875 0 
z
" id="DejaVuSans-108"/>
       <path d="M 34.28125 27.484375 
Q 23.390625 27.484375 19.1875 25 
Q 14.984375 22.515625 14.984375 16.5 
Q 14.984375 11.71875 18.140625 8.90625 
Q 21.296875 6.109375 26.703125 6.109375 
Q 34.1875 6.109375 38.703125 11.40625 
Q 43.21875 16.703125 43.21875 25.484375 
L 43.21875 27.484375 
z
M 52.203125 31.203125 
L 52.203125 0 
L 43.21875 0 
L 43.21875 8.296875 
Q 40.140625 3.328125 35.546875 0.953125 
Q 30.953125 -1.421875 24.3125 -1.421875 
Q 15.921875 -1.421875 10.953125 3.296875 
Q 6 8.015625 6 15.921875 
Q 6 25.140625 12.171875 29.828125 
Q 18.359375 34.515625 30.609375 34.515625 
L 43.21875 34.515625 
L 43.21875 35.40625 
Q 43.21875 41.609375 39.140625 45 
Q 35.0625 48.390625 27.6875 48.390625 
Q 23 48.390625 18.546875 47.265625 
Q 14.109375 46.140625 10.015625 43.890625 
L 10.015625 52.203125 
Q 14.9375 54.109375 19.578125 55.046875 
Q 24.21875 56 28.609375 56 
Q 40.484375 56 46.34375 49.84375 
Q 52.203125 43.703125 52.203125 31.203125 
z
" id="DejaVuSans-97"/>
       <path d="M 18.3125 70.21875 
L 18.3125 54.6875 
L 36.8125 54.6875 
L 36.8125 47.703125 
L 18.3125 47.703125 
L 18.3125 18.015625 
Q 18.3125 11.328125 20.140625 9.421875 
Q 21.96875 7.515625 27.59375 7.515625 
L 36.8125 7.515625 
L 36.8125 0 
L 27.59375 0 
Q 17.1875 0 13.234375 3.875 
Q 9.28125 7.765625 9.28125 18.015625 
L 9.28125 47.703125 
L 2.6875 47.703125 
L 2.6875 54.6875 
L 9.28125 54.6875 
L 9.28125 70.21875 
z
" id="DejaVuSans-116"/>
       <path d="M 9.421875 54.6875 
L 18.40625 54.6875 
L 18.40625 0 
L 9.421875 0 
z
M 9.421875 75.984375 
L 18.40625 75.984375 
L 18.40625 64.59375 
L 9.421875 64.59375 
z
" id="DejaVuSans-105"/>
       <path d="M 54.890625 33.015625 
L 54.890625 0 
L 45.90625 0 
L 45.90625 32.71875 
Q 45.90625 40.484375 42.875 44.328125 
Q 39.84375 48.1875 33.796875 48.1875 
Q 26.515625 48.1875 22.3125 43.546875 
Q 18.109375 38.921875 18.109375 30.90625 
L 18.109375 0 
L 9.078125 0 
L 9.078125 54.6875 
L 18.109375 54.6875 
L 18.109375 46.1875 
Q 21.34375 51.125 25.703125 53.5625 
Q 30.078125 56 35.796875 56 
Q 45.21875 56 50.046875 50.171875 
Q 54.890625 44.34375 54.890625 33.015625 
z
" id="DejaVuSans-110"/>
       <path d="M 52 44.1875 
Q 55.375 50.25 60.0625 53.125 
Q 64.75 56 71.09375 56 
Q 79.640625 56 84.28125 50.015625 
Q 88.921875 44.046875 88.921875 33.015625 
L 88.921875 0 
L 79.890625 0 
L 79.890625 32.71875 
Q 79.890625 40.578125 77.09375 44.375 
Q 74.3125 48.1875 68.609375 48.1875 
Q 61.625 48.1875 57.5625 43.546875 
Q 53.515625 38.921875 53.515625 30.90625 
L 53.515625 0 
L 44.484375 0 
L 44.484375 32.71875 
Q 44.484375 40.625 41.703125 44.40625 
Q 38.921875 48.1875 33.109375 48.1875 
Q 26.21875 48.1875 22.15625 43.53125 
Q 18.109375 38.875 18.109375 30.90625 
L 18.109375 0 
L 9.078125 0 
L 9.078125 54.6875 
L 18.109375 54.6875 
L 18.109375 46.1875 
Q 21.1875 51.21875 25.484375 53.609375 
Q 29.78125 56 35.6875 56 
Q 41.65625 56 45.828125 52.96875 
Q 50 49.953125 52 44.1875 
z
" id="DejaVuSans-109"/>
       <path d="M 56.203125 29.59375 
L 56.203125 25.203125 
L 14.890625 25.203125 
Q 15.484375 15.921875 20.484375 11.0625 
Q 25.484375 6.203125 34.421875 6.203125 
Q 39.59375 6.203125 44.453125 7.46875 
Q 49.3125 8.734375 54.109375 11.28125 
L 54.109375 2.78125 
Q 49.265625 0.734375 44.1875 -0.34375 
Q 39.109375 -1.421875 33.890625 -1.421875 
Q 20.796875 -1.421875 13.15625 6.1875 
Q 5.515625 13.8125 5.515625 26.8125 
Q 5.515625 40.234375 12.765625 48.109375 
Q 20.015625 56 32.328125 56 
Q 43.359375 56 49.78125 48.890625 
Q 56.203125 41.796875 56.203125 29.59375 
z
M 47.21875 32.234375 
Q 47.125 39.59375 43.09375 43.984375 
Q 39.0625 48.390625 32.421875 48.390625 
Q 24.90625 48.390625 20.390625 44.140625 
Q 15.875 39.890625 15.1875 32.171875 
z
" id="DejaVuSans-101"/>
       <path d="M 8.015625 75.875 
L 15.828125 75.875 
Q 23.140625 64.359375 26.78125 53.3125 
Q 30.421875 42.28125 30.421875 31.390625 
Q 30.421875 20.453125 26.78125 9.375 
Q 23.140625 -1.703125 15.828125 -13.1875 
L 8.015625 -13.1875 
Q 14.5 -2 17.703125 9.0625 
Q 20.90625 20.125 20.90625 31.390625 
Q 20.90625 42.671875 17.703125 53.65625 
Q 14.5 64.65625 8.015625 75.875 
z
" id="DejaVuSans-41"/>
      </defs>
      <use transform="translate(0 0.234375)" xlink:href="#DejaVuSans-Oblique-952"/>
      <use transform="translate(61.181641 0.234375)" xlink:href="#DejaVuSans-32"/>
      <use transform="translate(92.96875 0.234375)" xlink:href="#DejaVuSans-40"/>
      <use transform="translate(131.982422 0.234375)" xlink:href="#DejaVuSans-112"/>
      <use transform="translate(195.458984 0.234375)" xlink:href="#DejaVuSans-111"/>
      <use transform="translate(256.640625 0.234375)" xlink:href="#DejaVuSans-112"/>
      <use transform="translate(320.117188 0.234375)" xlink:href="#DejaVuSans-117"/>
      <use transform="translate(383.496094 0.234375)" xlink:href="#DejaVuSans-108"/>
      <use transform="translate(411.279297 0.234375)" xlink:href="#DejaVuSans-97"/>
      <use transform="translate(472.558594 0.234375)" xlink:href="#DejaVuSans-116"/>
      <use transform="translate(511.767578 0.234375)" xlink:href="#DejaVuSans-105"/>
      <use transform="translate(539.550781 0.234375)" xlink:href="#DejaVuSans-111"/>
      <use transform="translate(600.732422 0.234375)" xlink:href="#DejaVuSans-110"/>
      <use transform="translate(664.111328 0.234375)" xlink:href="#DejaVuSans-32"/>
      <use transform="translate(695.898438 0.234375)" xlink:href="#DejaVuSans-109"/>
      <use transform="translate(793.310547 0.234375)" xlink:href="#DejaVuSans-101"/>
      <use transform="translate(854.833984 0.234375)" xlink:href="#DejaVuSans-97"/>
      <use transform="translate(916.113281 0.234375)" xlink:href="#DejaVuSans-110"/>
      <use transform="translate(979.492188 0.234375)" xlink:href="#DejaVuSans-41"/>
     </g>
    </g>
   </g>
   <g id="matplotlib.axis_2">
    <g id="ytick_1">
     <g id="line2d_12">
      <defs>
       <path d="M 0 0 
L -3.5 0 
" id="m60b962c49e" style="stroke:#000000;stroke-width:0.8;"/>
      </defs>
      <g>
       <use style="stroke:#000000;stroke-width:0.8;" x="54" xlink:href="#m60b962c49e" y="232.232727"/>
      </g>
     </g>
     <g id="text_13">
      <!-- −4.5 -->
      <g transform="translate(22.717187 236.031946)scale(0.1 -0.1)">
       <defs>
        <path d="M 10.796875 72.90625 
L 49.515625 72.90625 
L 49.515625 64.59375 
L 19.828125 64.59375 
L 19.828125 46.734375 
Q 21.96875 47.46875 24.109375 47.828125 
Q 26.265625 48.1875 28.421875 48.1875 
Q 40.625 48.1875 47.75 41.5 
Q 54.890625 34.8125 54.890625 23.390625 
Q 54.890625 11.625 47.5625 5.09375 
Q 40.234375 -1.421875 26.90625 -1.421875 
Q 22.3125 -1.421875 17.546875 -0.640625 
Q 12.796875 0.140625 7.71875 1.703125 
L 7.71875 11.625 
Q 12.109375 9.234375 16.796875 8.0625 
Q 21.484375 6.890625 26.703125 6.890625 
Q 35.15625 6.890625 40.078125 11.328125 
Q 45.015625 15.765625 45.015625 23.390625 
Q 45.015625 31 40.078125 35.4375 
Q 35.15625 39.890625 26.703125 39.890625 
Q 22.75 39.890625 18.8125 39.015625 
Q 14.890625 38.140625 10.796875 36.28125 
z
" id="DejaVuSans-53"/>
       </defs>
       <use xlink:href="#DejaVuSans-8722"/>
       <use x="83.789062" xlink:href="#DejaVuSans-52"/>
       <use x="147.412109" xlink:href="#DejaVuSans-46"/>
       <use x="179.199219" xlink:href="#DejaVuSans-53"/>
      </g>
     </g>
    </g>
    <g id="ytick_2">
     <g id="line2d_13">
      <g>
       <use style="stroke:#000000;stroke-width:0.8;" x="54" xlink:href="#m60b962c49e" y="212.465455"/>
      </g>
     </g>
     <g id="text_14">
      <!-- −3.5 -->
      <g transform="translate(22.717187 216.264673)scale(0.1 -0.1)">
       <defs>
        <path d="M 40.578125 39.3125 
Q 47.65625 37.796875 51.625 33 
Q 55.609375 28.21875 55.609375 21.1875 
Q 55.609375 10.40625 48.1875 4.484375 
Q 40.765625 -1.421875 27.09375 -1.421875 
Q 22.515625 -1.421875 17.65625 -0.515625 
Q 12.796875 0.390625 7.625 2.203125 
L 7.625 11.71875 
Q 11.71875 9.328125 16.59375 8.109375 
Q 21.484375 6.890625 26.8125 6.890625 
Q 36.078125 6.890625 40.9375 10.546875 
Q 45.796875 14.203125 45.796875 21.1875 
Q 45.796875 27.640625 41.28125 31.265625 
Q 36.765625 34.90625 28.71875 34.90625 
L 20.21875 34.90625 
L 20.21875 43.015625 
L 29.109375 43.015625 
Q 36.375 43.015625 40.234375 45.921875 
Q 44.09375 48.828125 44.09375 54.296875 
Q 44.09375 59.90625 40.109375 62.90625 
Q 36.140625 65.921875 28.71875 65.921875 
Q 24.65625 65.921875 20.015625 65.03125 
Q 15.375 64.15625 9.8125 62.3125 
L 9.8125 71.09375 
Q 15.4375 72.65625 20.34375 73.4375 
Q 25.25 74.21875 29.59375 74.21875 
Q 40.828125 74.21875 47.359375 69.109375 
Q 53.90625 64.015625 53.90625 55.328125 
Q 53.90625 49.265625 50.4375 45.09375 
Q 46.96875 40.921875 40.578125 39.3125 
z
" id="DejaVuSans-51"/>
       </defs>
       <use xlink:href="#DejaVuSans-8722"/>
       <use x="83.789062" xlink:href="#DejaVuSans-51"/>
       <use x="147.412109" xlink:href="#DejaVuSans-46"/>
       <use x="179.199219" xlink:href="#DejaVuSans-53"/>
      </g>
     </g>
    </g>
    <g id="ytick_3">
     <g id="line2d_14">
      <g>
       <use style="stroke:#000000;stroke-width:0.8;" x="54" xlink:href="#m60b962c49e" y="192.698182"/>
      </g>
     </g>
     <g id="text_15">
      <!-- −2.5 -->
      <g transform="translate(22.717187 196.497401)scale(0.1 -0.1)">
       <use xlink:href="#DejaVuSans-8722"/>
       <use x="83.789062" xlink:href="#DejaVuSans-50"/>
       <use x="147.412109" xlink:href="#DejaVuSans-46"/>
       <use x="179.199219" xlink:href="#DejaVuSans-53"/>
      </g>
     </g>
    </g>
    <g id="ytick_4">
     <g id="line2d_15">
      <g>
       <use style="stroke:#000000;stroke-width:0.8;" x="54" xlink:href="#m60b962c49e" y="172.930909"/>
      </g>
     </g>
     <g id="text_16">
      <!-- −1.5 -->
      <g transform="translate(22.717187 176.730128)scale(0.1 -0.1)">
       <use xlink:href="#DejaVuSans-8722"/>
       <use x="83.789062" xlink:href="#DejaVuSans-49"/>
       <use x="147.412109" xlink:href="#DejaVuSans-46"/>
       <use x="179.199219" xlink:href="#DejaVuSans-53"/>
      </g>
     </g>
    </g>
    <g id="ytick_5">
     <g id="line2d_16">
      <g>
       <use style="stroke:#000000;stroke-width:0.8;" x="54" xlink:href="#m60b962c49e" y="153.163636"/>
      </g>
     </g>
     <g id="text_17">
      <!-- −0.5 -->
      <g transform="translate(22.717187 156.962855)scale(0.1 -0.1)">
       <use xlink:href="#DejaVuSans-8722"/>
       <use x="83.789062" xlink:href="#DejaVuSans-48"/>
       <use x="147.412109" xlink:href="#DejaVuSans-46"/>
       <use x="179.199219" xlink:href="#DejaVuSans-53"/>
      </g>
     </g>
    </g>
    <g id="ytick_6">
     <g id="line2d_17">
      <g>
       <use style="stroke:#000000;stroke-width:0.8;" x="54" xlink:href="#m60b962c49e" y="133.396364"/>
      </g>
     </g>
     <g id="text_18">
      <!-- 0.5 -->
      <g transform="translate(31.096875 137.195582)scale(0.1 -0.1)">
       <use xlink:href="#DejaVuSans-48"/>
       <use x="63.623047" xlink:href="#DejaVuSans-46"/>
       <use x="95.410156" xlink:href="#DejaVuSans-53"/>
      </g>
     </g>
    </g>
    <g id="ytick_7">
     <g id="line2d_18">
      <g>
       <use style="stroke:#000000;stroke-width:0.8;" x="54" xlink:href="#m60b962c49e" y="113.629091"/>
      </g>
     </g>
     <g id="text_19">
      <!-- 1.5 -->
      <g transform="translate(31.096875 117.42831)scale(0.1 -0.1)">
       <use xlink:href="#DejaVuSans-49"/>
       <use x="63.623047" xlink:href="#DejaVuSans-46"/>
       <use x="95.410156" xlink:href="#DejaVuSans-53"/>
      </g>
     </g>
    </g>
    <g id="ytick_8">
     <g id="line2d_19">
      <g>
       <use style="stroke:#000000;stroke-width:0.8;" x="54" xlink:href="#m60b962c49e" y="93.861818"/>
      </g>
     </g>
     <g id="text_20">
      <!-- 2.5 -->
      <g transform="translate(31.096875 97.661037)scale(0.1 -0.1)">
       <use xlink:href="#DejaVuSans-50"/>
       <use x="63.623047" xlink:href="#DejaVuSans-46"/>
       <use x="95.410156" xlink:href="#DejaVuSans-53"/>
      </g>
     </g>
    </g>
    <g id="ytick_9">
     <g id="line2d_20">
      <g>
       <use style="stroke:#000000;stroke-width:0.8;" x="54" xlink:href="#m60b962c49e" y="74.094545"/>
      </g>
     </g>
     <g id="text_21">
      <!-- 3.5 -->
      <g transform="translate(31.096875 77.893764)scale(0.1 -0.1)">
       <use xlink:href="#DejaVuSans-51"/>
       <use x="63.623047" xlink:href="#DejaVuSans-46"/>
       <use x="95.410156" xlink:href="#DejaVuSans-53"/>
      </g>
     </g>
    </g>
    <g id="ytick_10">
     <g id="line2d_21">
      <g>
       <use style="stroke:#000000;stroke-width:0.8;" x="54" xlink:href="#m60b962c49e" y="54.327273"/>
      </g>
     </g>
     <g id="text_22">
      <!-- 4.5 -->
      <g transform="translate(31.096875 58.126491)scale(0.1 -0.1)">
       <use xlink:href="#DejaVuSans-52"/>
       <use x="63.623047" xlink:href="#DejaVuSans-46"/>
       <use x="95.410156" xlink:href="#DejaVuSans-53"/>
      </g>
     </g>
    </g>
    <g id="text_23">
     <!-- $x$ bin centers -->
     <g transform="translate(16.6375 175.88)rotate(-90)scale(0.1 -0.1)">
      <defs>
       <path d="M 60.015625 54.6875 
L 34.90625 27.875 
L 50.296875 0 
L 39.984375 0 
L 28.421875 21.6875 
L 8.296875 0 
L -2.59375 0 
L 24.3125 28.8125 
L 10.015625 54.6875 
L 20.3125 54.6875 
L 30.8125 34.90625 
L 49.125 54.6875 
z
" id="DejaVuSans-Oblique-120"/>
       <path d="M 48.6875 27.296875 
Q 48.6875 37.203125 44.609375 42.84375 
Q 40.53125 48.484375 33.40625 48.484375 
Q 26.265625 48.484375 22.1875 42.84375 
Q 18.109375 37.203125 18.109375 27.296875 
Q 18.109375 17.390625 22.1875 11.75 
Q 26.265625 6.109375 33.40625 6.109375 
Q 40.53125 6.109375 44.609375 11.75 
Q 48.6875 17.390625 48.6875 27.296875 
z
M 18.109375 46.390625 
Q 20.953125 51.265625 25.265625 53.625 
Q 29.59375 56 35.59375 56 
Q 45.5625 56 51.78125 48.09375 
Q 58.015625 40.1875 58.015625 27.296875 
Q 58.015625 14.40625 51.78125 6.484375 
Q 45.5625 -1.421875 35.59375 -1.421875 
Q 29.59375 -1.421875 25.265625 0.953125 
Q 20.953125 3.328125 18.109375 8.203125 
L 18.109375 0 
L 9.078125 0 
L 9.078125 75.984375 
L 18.109375 75.984375 
z
" id="DejaVuSans-98"/>
       <path d="M 48.78125 52.59375 
L 48.78125 44.1875 
Q 44.96875 46.296875 41.140625 47.34375 
Q 37.3125 48.390625 33.40625 48.390625 
Q 24.65625 48.390625 19.8125 42.84375 
Q 14.984375 37.3125 14.984375 27.296875 
Q 14.984375 17.28125 19.8125 11.734375 
Q 24.65625 6.203125 33.40625 6.203125 
Q 37.3125 6.203125 41.140625 7.25 
Q 44.96875 8.296875 48.78125 10.40625 
L 48.78125 2.09375 
Q 45.015625 0.34375 40.984375 -0.53125 
Q 36.96875 -1.421875 32.421875 -1.421875 
Q 20.0625 -1.421875 12.78125 6.34375 
Q 5.515625 14.109375 5.515625 27.296875 
Q 5.515625 40.671875 12.859375 48.328125 
Q 20.21875 56 33.015625 56 
Q 37.15625 56 41.109375 55.140625 
Q 45.0625 54.296875 48.78125 52.59375 
z
" id="DejaVuSans-99"/>
       <path d="M 41.109375 46.296875 
Q 39.59375 47.171875 37.8125 47.578125 
Q 36.03125 48 33.890625 48 
Q 26.265625 48 22.1875 43.046875 
Q 18.109375 38.09375 18.109375 28.8125 
L 18.109375 0 
L 9.078125 0 
L 9.078125 54.6875 
L 18.109375 54.6875 
L 18.109375 46.1875 
Q 20.953125 51.171875 25.484375 53.578125 
Q 30.03125 56 36.53125 56 
Q 37.453125 56 38.578125 55.875 
Q 39.703125 55.765625 41.0625 55.515625 
z
" id="DejaVuSans-114"/>
       <path d="M 44.28125 53.078125 
L 44.28125 44.578125 
Q 40.484375 46.53125 36.375 47.5 
Q 32.28125 48.484375 27.875 48.484375 
Q 21.1875 48.484375 17.84375 46.4375 
Q 14.5 44.390625 14.5 40.28125 
Q 14.5 37.15625 16.890625 35.375 
Q 19.28125 33.59375 26.515625 31.984375 
L 29.59375 31.296875 
Q 39.15625 29.25 43.1875 25.515625 
Q 47.21875 21.78125 47.21875 15.09375 
Q 47.21875 7.46875 41.1875 3.015625 
Q 35.15625 -1.421875 24.609375 -1.421875 
Q 20.21875 -1.421875 15.453125 -0.5625 
Q 10.6875 0.296875 5.421875 2 
L 5.421875 11.28125 
Q 10.40625 8.6875 15.234375 7.390625 
Q 20.0625 6.109375 24.8125 6.109375 
Q 31.15625 6.109375 34.5625 8.28125 
Q 37.984375 10.453125 37.984375 14.40625 
Q 37.984375 18.0625 35.515625 20.015625 
Q 33.0625 21.96875 24.703125 23.78125 
L 21.578125 24.515625 
Q 13.234375 26.265625 9.515625 29.90625 
Q 5.8125 33.546875 5.8125 39.890625 
Q 5.8125 47.609375 11.28125 51.796875 
Q 16.75 56 26.8125 56 
Q 31.78125 56 36.171875 55.265625 
Q 40.578125 54.546875 44.28125 53.078125 
z
" id="DejaVuSans-115"/>
      </defs>
      <use transform="translate(0 0.015625)" xlink:href="#DejaVuSans-Oblique-120"/>
      <use transform="translate(59.179688 0.015625)" xlink:href="#DejaVuSans-32"/>
      <use transform="translate(90.966797 0.015625)" xlink:href="#DejaVuSans-98"/>
      <use transform="translate(154.443359 0.015625)" xlink:href="#DejaVuSans-105"/>
      <use transform="translate(182.226562 0.015625)" xlink:href="#DejaVuSans-110"/>
      <use transform="translate(245.605469 0.015625)" xlink:href="#DejaVuSans-32"/>
      <use transform="translate(277.392578 0.015625)" xlink:href="#DejaVuSans-99"/>
      <use transform="translate(332.373047 0.015625)" xlink:href="#DejaVuSans-101"/>
      <use transform="translate(393.896484 0.015625)" xlink:href="#DejaVuSans-110"/>
      <use transform="translate(457.275391 0.015625)" xlink:href="#DejaVuSans-116"/>
      <use transform="translate(496.484375 0.015625)" xlink:href="#DejaVuSans-101"/>
      <use transform="translate(558.007812 0.015625)" xlink:href="#DejaVuSans-114"/>
      <use transform="translate(599.121094 0.015625)" xlink:href="#DejaVuSans-115"/>
     </g>
    </g>
   </g>
   <g id="line2d_22">
    <defs>
     <path d="M 0 0.25 
C 0.066301 0.25 0.129895 0.223658 0.176777 0.176777 
C 0.223658 0.129895 0.25 0.066301 0.25 0 
C 0.25 -0.066301 0.223658 -0.129895 0.176777 -0.176777 
C 0.129895 -0.223658 0.066301 -0.25 0 -0.25 
C -0.066301 -0.25 -0.129895 -0.223658 -0.176777 -0.176777 
C -0.223658 -0.129895 -0.25 -0.066301 -0.25 0 
C -0.25 0.066301 -0.223658 0.129895 -0.176777 0.176777 
C -0.129895 0.223658 -0.066301 0.25 0 0.25 
z
" id="mec62d3007d" style="stroke:#000000;"/>
    </defs>
    <g clip-path="url(#p96bb8026e0)">
     <use style="stroke:#000000;" x="69.906787" xlink:href="#mec62d3007d" y="176.989032"/>
     <use style="stroke:#000000;" x="69.906787" xlink:href="#mec62d3007d" y="169.302301"/>
     <use style="stroke:#000000;" x="69.906787" xlink:href="#mec62d3007d" y="160.75788"/>
     <use style="stroke:#000000;" x="69.906787" xlink:href="#mec62d3007d" y="155.786219"/>
     <use style="stroke:#000000;" x="69.906787" xlink:href="#mec62d3007d" y="179.176744"/>
     <use style="stroke:#000000;" x="69.906787" xlink:href="#mec62d3007d" y="149.310682"/>
     <use style="stroke:#000000;" x="69.906787" xlink:href="#mec62d3007d" y="169.866297"/>
     <use style="stroke:#000000;" x="69.906787" xlink:href="#mec62d3007d" y="138.60478"/>
     <use style="stroke:#000000;" x="69.906787" xlink:href="#mec62d3007d" y="153.004023"/>
     <use style="stroke:#000000;" x="69.906787" xlink:href="#mec62d3007d" y="168.848634"/>
    </g>
   </g>
   <g id="line2d_23">
    <path clip-path="url(#p96bb8026e0)" d="M 54.757466 252 
L 54.757466 34.56 
" style="fill:none;stroke:#000000;stroke-linecap:square;stroke-opacity:0.1;"/>
   </g>
   <g id="line2d_24">
    <g clip-path="url(#p96bb8026e0)">
     <use style="stroke:#000000;" x="100.20543" xlink:href="#mec62d3007d" y="122.678766"/>
     <use style="stroke:#000000;" x="100.20543" xlink:href="#mec62d3007d" y="140.116272"/>
     <use style="stroke:#000000;" x="100.20543" xlink:href="#mec62d3007d" y="135.974969"/>
     <use style="stroke:#000000;" x="100.20543" xlink:href="#mec62d3007d" y="178.347386"/>
     <use style="stroke:#000000;" x="100.20543" xlink:href="#mec62d3007d" y="141.962081"/>
     <use style="stroke:#000000;" x="100.20543" xlink:href="#mec62d3007d" y="120.191444"/>
     <use style="stroke:#000000;" x="100.20543" xlink:href="#mec62d3007d" y="180.230075"/>
     <use style="stroke:#000000;" x="100.20543" xlink:href="#mec62d3007d" y="154.3804"/>
     <use style="stroke:#000000;" x="100.20543" xlink:href="#mec62d3007d" y="176.955629"/>
     <use style="stroke:#000000;" x="100.20543" xlink:href="#mec62d3007d" y="172.969341"/>
    </g>
   </g>
   <g id="line2d_25">
    <path clip-path="url(#p96bb8026e0)" d="M 85.056109 252 
L 85.056109 34.56 
" style="fill:none;stroke:#000000;stroke-linecap:square;stroke-opacity:0.1;"/>
   </g>
   <g id="line2d_26">
    <g clip-path="url(#p96bb8026e0)">
     <use style="stroke:#000000;" x="130.504072" xlink:href="#mec62d3007d" y="153.128603"/>
     <use style="stroke:#000000;" x="130.504072" xlink:href="#mec62d3007d" y="159.328582"/>
     <use style="stroke:#000000;" x="130.504072" xlink:href="#mec62d3007d" y="185.584237"/>
     <use style="stroke:#000000;" x="130.504072" xlink:href="#mec62d3007d" y="168.689225"/>
     <use style="stroke:#000000;" x="130.504072" xlink:href="#mec62d3007d" y="151.441673"/>
     <use style="stroke:#000000;" x="130.504072" xlink:href="#mec62d3007d" y="120.998605"/>
     <use style="stroke:#000000;" x="130.504072" xlink:href="#mec62d3007d" y="168.369245"/>
     <use style="stroke:#000000;" x="130.504072" xlink:href="#mec62d3007d" y="143.413864"/>
     <use style="stroke:#000000;" x="130.504072" xlink:href="#mec62d3007d" y="151.161834"/>
     <use style="stroke:#000000;" x="130.504072" xlink:href="#mec62d3007d" y="149.780195"/>
    </g>
   </g>
   <g id="line2d_27">
    <path clip-path="url(#p96bb8026e0)" d="M 115.354751 252 
L 115.354751 34.56 
" style="fill:none;stroke:#000000;stroke-linecap:square;stroke-opacity:0.1;"/>
   </g>
   <g id="line2d_28">
    <g clip-path="url(#p96bb8026e0)">
     <use style="stroke:#000000;" x="160.802715" xlink:href="#mec62d3007d" y="139.842373"/>
     <use style="stroke:#000000;" x="160.802715" xlink:href="#mec62d3007d" y="143.374381"/>
     <use style="stroke:#000000;" x="160.802715" xlink:href="#mec62d3007d" y="143.740144"/>
     <use style="stroke:#000000;" x="160.802715" xlink:href="#mec62d3007d" y="136.97089"/>
     <use style="stroke:#000000;" x="160.802715" xlink:href="#mec62d3007d" y="132.322996"/>
     <use style="stroke:#000000;" x="160.802715" xlink:href="#mec62d3007d" y="145.816828"/>
     <use style="stroke:#000000;" x="160.802715" xlink:href="#mec62d3007d" y="115.653872"/>
     <use style="stroke:#000000;" x="160.802715" xlink:href="#mec62d3007d" y="181.509123"/>
     <use style="stroke:#000000;" x="160.802715" xlink:href="#mec62d3007d" y="136.21867"/>
     <use style="stroke:#000000;" x="160.802715" xlink:href="#mec62d3007d" y="156.536884"/>
    </g>
   </g>
   <g id="line2d_29">
    <path clip-path="url(#p96bb8026e0)" d="M 145.653394 252 
L 145.653394 34.56 
" style="fill:none;stroke:#000000;stroke-linecap:square;stroke-opacity:0.1;"/>
   </g>
   <g id="line2d_30">
    <g clip-path="url(#p96bb8026e0)">
     <use style="stroke:#000000;" x="191.101357" xlink:href="#mec62d3007d" y="156.590198"/>
     <use style="stroke:#000000;" x="191.101357" xlink:href="#mec62d3007d" y="152.904139"/>
     <use style="stroke:#000000;" x="191.101357" xlink:href="#mec62d3007d" y="143.118587"/>
     <use style="stroke:#000000;" x="191.101357" xlink:href="#mec62d3007d" y="168.546239"/>
     <use style="stroke:#000000;" x="191.101357" xlink:href="#mec62d3007d" y="159.123074"/>
     <use style="stroke:#000000;" x="191.101357" xlink:href="#mec62d3007d" y="128.695351"/>
     <use style="stroke:#000000;" x="191.101357" xlink:href="#mec62d3007d" y="134.354107"/>
     <use style="stroke:#000000;" x="191.101357" xlink:href="#mec62d3007d" y="97.406878"/>
     <use style="stroke:#000000;" x="191.101357" xlink:href="#mec62d3007d" y="180.095953"/>
     <use style="stroke:#000000;" x="191.101357" xlink:href="#mec62d3007d" y="139.383796"/>
    </g>
   </g>
   <g id="line2d_31">
    <path clip-path="url(#p96bb8026e0)" d="M 175.952036 252 
L 175.952036 34.56 
" style="fill:none;stroke:#000000;stroke-linecap:square;stroke-opacity:0.1;"/>
   </g>
   <g id="line2d_32">
    <g clip-path="url(#p96bb8026e0)">
     <use style="stroke:#000000;" x="221.4" xlink:href="#mec62d3007d" y="156.90677"/>
     <use style="stroke:#000000;" x="221.4" xlink:href="#mec62d3007d" y="148.175345"/>
     <use style="stroke:#000000;" x="221.4" xlink:href="#mec62d3007d" y="137.013009"/>
     <use style="stroke:#000000;" x="221.4" xlink:href="#mec62d3007d" y="139.032154"/>
     <use style="stroke:#000000;" x="221.4" xlink:href="#mec62d3007d" y="126.3699"/>
     <use style="stroke:#000000;" x="221.4" xlink:href="#mec62d3007d" y="133.015746"/>
     <use style="stroke:#000000;" x="221.4" xlink:href="#mec62d3007d" y="160.80299"/>
     <use style="stroke:#000000;" x="221.4" xlink:href="#mec62d3007d" y="157.649832"/>
     <use style="stroke:#000000;" x="221.4" xlink:href="#mec62d3007d" y="134.424628"/>
     <use style="stroke:#000000;" x="221.4" xlink:href="#mec62d3007d" y="159.431923"/>
    </g>
   </g>
   <g id="line2d_33">
    <path clip-path="url(#p96bb8026e0)" d="M 206.250679 252 
L 206.250679 34.56 
" style="fill:none;stroke:#000000;stroke-linecap:square;stroke-opacity:0.1;"/>
   </g>
   <g id="line2d_34">
    <g clip-path="url(#p96bb8026e0)">
     <use style="stroke:#000000;" x="251.698643" xlink:href="#mec62d3007d" y="146.122006"/>
     <use style="stroke:#000000;" x="251.698643" xlink:href="#mec62d3007d" y="148.090343"/>
     <use style="stroke:#000000;" x="251.698643" xlink:href="#mec62d3007d" y="138.217267"/>
     <use style="stroke:#000000;" x="251.698643" xlink:href="#mec62d3007d" y="169.491578"/>
     <use style="stroke:#000000;" x="251.698643" xlink:href="#mec62d3007d" y="151.95421"/>
     <use style="stroke:#000000;" x="251.698643" xlink:href="#mec62d3007d" y="123.969938"/>
     <use style="stroke:#000000;" x="251.698643" xlink:href="#mec62d3007d" y="116.075553"/>
     <use style="stroke:#000000;" x="251.698643" xlink:href="#mec62d3007d" y="137.984687"/>
     <use style="stroke:#000000;" x="251.698643" xlink:href="#mec62d3007d" y="128.969832"/>
     <use style="stroke:#000000;" x="251.698643" xlink:href="#mec62d3007d" y="118.419953"/>
    </g>
   </g>
   <g id="line2d_35">
    <path clip-path="url(#p96bb8026e0)" d="M 236.549321 252 
L 236.549321 34.56 
" style="fill:none;stroke:#000000;stroke-linecap:square;stroke-opacity:0.1;"/>
   </g>
   <g id="line2d_36">
    <g clip-path="url(#p96bb8026e0)">
     <use style="stroke:#000000;" x="281.997285" xlink:href="#mec62d3007d" y="142.64866"/>
     <use style="stroke:#000000;" x="281.997285" xlink:href="#mec62d3007d" y="142.660117"/>
     <use style="stroke:#000000;" x="281.997285" xlink:href="#mec62d3007d" y="149.589548"/>
     <use style="stroke:#000000;" x="281.997285" xlink:href="#mec62d3007d" y="120.826772"/>
     <use style="stroke:#000000;" x="281.997285" xlink:href="#mec62d3007d" y="182.801882"/>
     <use style="stroke:#000000;" x="281.997285" xlink:href="#mec62d3007d" y="106.735471"/>
     <use style="stroke:#000000;" x="281.997285" xlink:href="#mec62d3007d" y="148.114375"/>
     <use style="stroke:#000000;" x="281.997285" xlink:href="#mec62d3007d" y="179.519957"/>
     <use style="stroke:#000000;" x="281.997285" xlink:href="#mec62d3007d" y="155.953201"/>
     <use style="stroke:#000000;" x="281.997285" xlink:href="#mec62d3007d" y="138.192584"/>
    </g>
   </g>
   <g id="line2d_37">
    <path clip-path="url(#p96bb8026e0)" d="M 266.847964 252 
L 266.847964 34.56 
" style="fill:none;stroke:#000000;stroke-linecap:square;stroke-opacity:0.1;"/>
   </g>
   <g id="line2d_38">
    <g clip-path="url(#p96bb8026e0)">
     <use style="stroke:#000000;" x="312.295928" xlink:href="#mec62d3007d" y="114.205926"/>
     <use style="stroke:#000000;" x="312.295928" xlink:href="#mec62d3007d" y="120.558029"/>
     <use style="stroke:#000000;" x="312.295928" xlink:href="#mec62d3007d" y="117.213676"/>
     <use style="stroke:#000000;" x="312.295928" xlink:href="#mec62d3007d" y="123.182307"/>
     <use style="stroke:#000000;" x="312.295928" xlink:href="#mec62d3007d" y="138.671243"/>
     <use style="stroke:#000000;" x="312.295928" xlink:href="#mec62d3007d" y="92.728158"/>
     <use style="stroke:#000000;" x="312.295928" xlink:href="#mec62d3007d" y="163.832671"/>
     <use style="stroke:#000000;" x="312.295928" xlink:href="#mec62d3007d" y="123.291472"/>
     <use style="stroke:#000000;" x="312.295928" xlink:href="#mec62d3007d" y="115.838109"/>
     <use style="stroke:#000000;" x="312.295928" xlink:href="#mec62d3007d" y="118.702104"/>
    </g>
   </g>
   <g id="line2d_39">
    <path clip-path="url(#p96bb8026e0)" d="M 297.146606 252 
L 297.146606 34.56 
" style="fill:none;stroke:#000000;stroke-linecap:square;stroke-opacity:0.1;"/>
   </g>
   <g id="line2d_40">
    <g clip-path="url(#p96bb8026e0)">
     <use style="stroke:#000000;" x="342.59457" xlink:href="#mec62d3007d" y="142.254683"/>
     <use style="stroke:#000000;" x="342.59457" xlink:href="#mec62d3007d" y="118.26779"/>
     <use style="stroke:#000000;" x="342.59457" xlink:href="#mec62d3007d" y="124.274704"/>
     <use style="stroke:#000000;" x="342.59457" xlink:href="#mec62d3007d" y="112.972356"/>
     <use style="stroke:#000000;" x="342.59457" xlink:href="#mec62d3007d" y="113.874493"/>
     <use style="stroke:#000000;" x="342.59457" xlink:href="#mec62d3007d" y="106.159151"/>
     <use style="stroke:#000000;" x="342.59457" xlink:href="#mec62d3007d" y="83.018127"/>
     <use style="stroke:#000000;" x="342.59457" xlink:href="#mec62d3007d" y="108.471596"/>
     <use style="stroke:#000000;" x="342.59457" xlink:href="#mec62d3007d" y="114.2074"/>
     <use style="stroke:#000000;" x="342.59457" xlink:href="#mec62d3007d" y="99.378821"/>
    </g>
   </g>
   <g id="line2d_41">
    <path clip-path="url(#p96bb8026e0)" d="M 327.445249 252 
L 327.445249 34.56 
" style="fill:none;stroke:#000000;stroke-linecap:square;stroke-opacity:0.1;"/>
   </g>
   <g id="line2d_42">
    <g clip-path="url(#p96bb8026e0)">
     <use style="stroke:#000000;" x="372.893213" xlink:href="#mec62d3007d" y="133.871474"/>
     <use style="stroke:#000000;" x="372.893213" xlink:href="#mec62d3007d" y="106.985251"/>
     <use style="stroke:#000000;" x="372.893213" xlink:href="#mec62d3007d" y="156.490554"/>
     <use style="stroke:#000000;" x="372.893213" xlink:href="#mec62d3007d" y="130.425621"/>
     <use style="stroke:#000000;" x="372.893213" xlink:href="#mec62d3007d" y="138.791238"/>
     <use style="stroke:#000000;" x="372.893213" xlink:href="#mec62d3007d" y="119.791465"/>
     <use style="stroke:#000000;" x="372.893213" xlink:href="#mec62d3007d" y="119.094122"/>
     <use style="stroke:#000000;" x="372.893213" xlink:href="#mec62d3007d" y="142.047153"/>
     <use style="stroke:#000000;" x="372.893213" xlink:href="#mec62d3007d" y="132.315113"/>
     <use style="stroke:#000000;" x="372.893213" xlink:href="#mec62d3007d" y="83.969683"/>
    </g>
   </g>
   <g id="line2d_43">
    <path clip-path="url(#p96bb8026e0)" d="M 357.743891 252 
L 357.743891 34.56 
" style="fill:none;stroke:#000000;stroke-linecap:square;stroke-opacity:0.1;"/>
   </g>
   <g id="line2d_44">
    <path clip-path="url(#p96bb8026e0)" d="M 54 242.116364 
L 388.8 242.116364 
" style="fill:none;stroke:#000000;stroke-linecap:square;stroke-opacity:0.1;"/>
   </g>
   <g id="line2d_45">
    <path clip-path="url(#p96bb8026e0)" d="M 54 222.349091 
L 388.8 222.349091 
" style="fill:none;stroke:#000000;stroke-linecap:square;stroke-opacity:0.1;"/>
   </g>
   <g id="line2d_46">
    <path clip-path="url(#p96bb8026e0)" d="M 54 202.581818 
L 388.8 202.581818 
" style="fill:none;stroke:#000000;stroke-linecap:square;stroke-opacity:0.1;"/>
   </g>
   <g id="line2d_47">
    <path clip-path="url(#p96bb8026e0)" d="M 54 182.814545 
L 388.8 182.814545 
" style="fill:none;stroke:#000000;stroke-linecap:square;stroke-opacity:0.1;"/>
   </g>
   <g id="line2d_48">
    <path clip-path="url(#p96bb8026e0)" d="M 54 163.047273 
L 388.8 163.047273 
" style="fill:none;stroke:#000000;stroke-linecap:square;stroke-opacity:0.1;"/>
   </g>
   <g id="line2d_49">
    <path clip-path="url(#p96bb8026e0)" d="M 54 143.28 
L 388.8 143.28 
" style="fill:none;stroke:#000000;stroke-linecap:square;stroke-opacity:0.1;"/>
   </g>
   <g id="line2d_50">
    <path clip-path="url(#p96bb8026e0)" d="M 54 123.512727 
L 388.8 123.512727 
" style="fill:none;stroke:#000000;stroke-linecap:square;stroke-opacity:0.1;"/>
   </g>
   <g id="line2d_51">
    <path clip-path="url(#p96bb8026e0)" d="M 54 103.745455 
L 388.8 103.745455 
" style="fill:none;stroke:#000000;stroke-linecap:square;stroke-opacity:0.1;"/>
   </g>
   <g id="line2d_52">
    <path clip-path="url(#p96bb8026e0)" d="M 54 83.978182 
L 388.8 83.978182 
" style="fill:none;stroke:#000000;stroke-linecap:square;stroke-opacity:0.1;"/>
   </g>
   <g id="line2d_53">
    <path clip-path="url(#p96bb8026e0)" d="M 54 64.210909 
L 388.8 64.210909 
" style="fill:none;stroke:#000000;stroke-linecap:square;stroke-opacity:0.1;"/>
   </g>
   <g id="line2d_54">
    <path clip-path="url(#p96bb8026e0)" d="M 54 44.443636 
L 388.8 44.443636 
" style="fill:none;stroke:#000000;stroke-linecap:square;stroke-opacity:0.1;"/>
   </g>
   <g id="line2d_55">
    <defs>
     <path d="M 0 1.5 
C 0.397805 1.5 0.77937 1.341951 1.06066 1.06066 
C 1.341951 0.77937 1.5 0.397805 1.5 0 
C 1.5 -0.397805 1.341951 -0.77937 1.06066 -1.06066 
C 0.77937 -1.341951 0.397805 -1.5 0 -1.5 
C -0.397805 -1.5 -0.77937 -1.341951 -1.06066 -1.06066 
C -1.341951 -0.77937 -1.5 -0.397805 -1.5 0 
C -1.5 0.397805 -1.341951 0.77937 -1.06066 1.06066 
C -0.77937 1.341951 -0.397805 1.5 0 1.5 
z
" id="m2890a860aa" style="stroke:#0000ff;"/>
    </defs>
    <g clip-path="url(#p96bb8026e0)">
     <use style="fill:#0000ff;stroke:#0000ff;" x="54" xlink:href="#m2890a860aa" y="133.396364"/>
     <use style="fill:#0000ff;stroke:#0000ff;" x="54" xlink:href="#m2890a860aa" y="133.396364"/>
    </g>
   </g>
   <g id="patch_3">
    <path d="M 54 252 
L 54 34.56 
" style="fill:none;stroke:#000000;stroke-linecap:square;stroke-linejoin:miter;stroke-width:0.8;"/>
   </g>
   <g id="patch_4">
    <path d="M 388.8 252 
L 388.8 34.56 
" style="fill:none;stroke:#000000;stroke-linecap:square;stroke-linejoin:miter;stroke-width:0.8;"/>
   </g>
   <g id="patch_5">
    <path d="M 54 252 
L 388.8 252 
" style="fill:none;stroke:#000000;stroke-linecap:square;stroke-linejoin:miter;stroke-width:0.8;"/>
   </g>
   <g id="patch_6">
    <path d="M 54 34.56 
L 388.8 34.56 
" style="fill:none;stroke:#000000;stroke-linecap:square;stroke-linejoin:miter;stroke-width:0.8;"/>
   </g>
   <g id="text_24">
    <!-- Grid and values used for computing experiment-derived posterior -->
    <g transform="translate(23.685 14.976375)scale(0.12 -0.12)">
     <defs>
      <path d="M 59.515625 10.40625 
L 59.515625 29.984375 
L 43.40625 29.984375 
L 43.40625 38.09375 
L 69.28125 38.09375 
L 69.28125 6.78125 
Q 63.578125 2.734375 56.6875 0.65625 
Q 49.8125 -1.421875 42 -1.421875 
Q 24.90625 -1.421875 15.25 8.5625 
Q 5.609375 18.5625 5.609375 36.375 
Q 5.609375 54.25 15.25 64.234375 
Q 24.90625 74.21875 42 74.21875 
Q 49.125 74.21875 55.546875 72.453125 
Q 61.96875 70.703125 67.390625 67.28125 
L 67.390625 56.78125 
Q 61.921875 61.421875 55.765625 63.765625 
Q 49.609375 66.109375 42.828125 66.109375 
Q 29.4375 66.109375 22.71875 58.640625 
Q 16.015625 51.171875 16.015625 36.375 
Q 16.015625 21.625 22.71875 14.15625 
Q 29.4375 6.6875 42.828125 6.6875 
Q 48.046875 6.6875 52.140625 7.59375 
Q 56.25 8.5 59.515625 10.40625 
z
" id="DejaVuSans-71"/>
      <path d="M 45.40625 46.390625 
L 45.40625 75.984375 
L 54.390625 75.984375 
L 54.390625 0 
L 45.40625 0 
L 45.40625 8.203125 
Q 42.578125 3.328125 38.25 0.953125 
Q 33.9375 -1.421875 27.875 -1.421875 
Q 17.96875 -1.421875 11.734375 6.484375 
Q 5.515625 14.40625 5.515625 27.296875 
Q 5.515625 40.1875 11.734375 48.09375 
Q 17.96875 56 27.875 56 
Q 33.9375 56 38.25 53.625 
Q 42.578125 51.265625 45.40625 46.390625 
z
M 14.796875 27.296875 
Q 14.796875 17.390625 18.875 11.75 
Q 22.953125 6.109375 30.078125 6.109375 
Q 37.203125 6.109375 41.296875 11.75 
Q 45.40625 17.390625 45.40625 27.296875 
Q 45.40625 37.203125 41.296875 42.84375 
Q 37.203125 48.484375 30.078125 48.484375 
Q 22.953125 48.484375 18.875 42.84375 
Q 14.796875 37.203125 14.796875 27.296875 
z
" id="DejaVuSans-100"/>
      <path d="M 2.984375 54.6875 
L 12.5 54.6875 
L 29.59375 8.796875 
L 46.6875 54.6875 
L 56.203125 54.6875 
L 35.6875 0 
L 23.484375 0 
z
" id="DejaVuSans-118"/>
      <path d="M 37.109375 75.984375 
L 37.109375 68.5 
L 28.515625 68.5 
Q 23.6875 68.5 21.796875 66.546875 
Q 19.921875 64.59375 19.921875 59.515625 
L 19.921875 54.6875 
L 34.71875 54.6875 
L 34.71875 47.703125 
L 19.921875 47.703125 
L 19.921875 0 
L 10.890625 0 
L 10.890625 47.703125 
L 2.296875 47.703125 
L 2.296875 54.6875 
L 10.890625 54.6875 
L 10.890625 58.5 
Q 10.890625 67.625 15.140625 71.796875 
Q 19.390625 75.984375 28.609375 75.984375 
z
" id="DejaVuSans-102"/>
      <path d="M 45.40625 27.984375 
Q 45.40625 37.75 41.375 43.109375 
Q 37.359375 48.484375 30.078125 48.484375 
Q 22.859375 48.484375 18.828125 43.109375 
Q 14.796875 37.75 14.796875 27.984375 
Q 14.796875 18.265625 18.828125 12.890625 
Q 22.859375 7.515625 30.078125 7.515625 
Q 37.359375 7.515625 41.375 12.890625 
Q 45.40625 18.265625 45.40625 27.984375 
z
M 54.390625 6.78125 
Q 54.390625 -7.171875 48.1875 -13.984375 
Q 42 -20.796875 29.203125 -20.796875 
Q 24.46875 -20.796875 20.265625 -20.09375 
Q 16.0625 -19.390625 12.109375 -17.921875 
L 12.109375 -9.1875 
Q 16.0625 -11.328125 19.921875 -12.34375 
Q 23.78125 -13.375 27.78125 -13.375 
Q 36.625 -13.375 41.015625 -8.765625 
Q 45.40625 -4.15625 45.40625 5.171875 
L 45.40625 9.625 
Q 42.625 4.78125 38.28125 2.390625 
Q 33.9375 0 27.875 0 
Q 17.828125 0 11.671875 7.65625 
Q 5.515625 15.328125 5.515625 27.984375 
Q 5.515625 40.671875 11.671875 48.328125 
Q 17.828125 56 27.875 56 
Q 33.9375 56 38.28125 53.609375 
Q 42.625 51.21875 45.40625 46.390625 
L 45.40625 54.6875 
L 54.390625 54.6875 
z
" id="DejaVuSans-103"/>
      <path d="M 54.890625 54.6875 
L 35.109375 28.078125 
L 55.90625 0 
L 45.3125 0 
L 29.390625 21.484375 
L 13.484375 0 
L 2.875 0 
L 24.125 28.609375 
L 4.6875 54.6875 
L 15.28125 54.6875 
L 29.78125 35.203125 
L 44.28125 54.6875 
z
" id="DejaVuSans-120"/>
      <path d="M 4.890625 31.390625 
L 31.203125 31.390625 
L 31.203125 23.390625 
L 4.890625 23.390625 
z
" id="DejaVuSans-45"/>
     </defs>
     <use xlink:href="#DejaVuSans-71"/>
     <use x="77.490234" xlink:href="#DejaVuSans-114"/>
     <use x="118.603516" xlink:href="#DejaVuSans-105"/>
     <use x="146.386719" xlink:href="#DejaVuSans-100"/>
     <use x="209.863281" xlink:href="#DejaVuSans-32"/>
     <use x="241.650391" xlink:href="#DejaVuSans-97"/>
     <use x="302.929688" xlink:href="#DejaVuSans-110"/>
     <use x="366.308594" xlink:href="#DejaVuSans-100"/>
     <use x="429.785156" xlink:href="#DejaVuSans-32"/>
     <use x="461.572266" xlink:href="#DejaVuSans-118"/>
     <use x="520.751953" xlink:href="#DejaVuSans-97"/>
     <use x="582.03125" xlink:href="#DejaVuSans-108"/>
     <use x="609.814453" xlink:href="#DejaVuSans-117"/>
     <use x="673.193359" xlink:href="#DejaVuSans-101"/>
     <use x="734.716797" xlink:href="#DejaVuSans-115"/>
     <use x="786.816406" xlink:href="#DejaVuSans-32"/>
     <use x="818.603516" xlink:href="#DejaVuSans-117"/>
     <use x="881.982422" xlink:href="#DejaVuSans-115"/>
     <use x="934.082031" xlink:href="#DejaVuSans-101"/>
     <use x="995.605469" xlink:href="#DejaVuSans-100"/>
     <use x="1059.082031" xlink:href="#DejaVuSans-32"/>
     <use x="1090.869141" xlink:href="#DejaVuSans-102"/>
     <use x="1126.074219" xlink:href="#DejaVuSans-111"/>
     <use x="1187.255859" xlink:href="#DejaVuSans-114"/>
     <use x="1228.369141" xlink:href="#DejaVuSans-32"/>
     <use x="1260.15625" xlink:href="#DejaVuSans-99"/>
     <use x="1315.136719" xlink:href="#DejaVuSans-111"/>
     <use x="1376.318359" xlink:href="#DejaVuSans-109"/>
     <use x="1473.730469" xlink:href="#DejaVuSans-112"/>
     <use x="1537.207031" xlink:href="#DejaVuSans-117"/>
     <use x="1600.585938" xlink:href="#DejaVuSans-116"/>
     <use x="1639.794922" xlink:href="#DejaVuSans-105"/>
     <use x="1667.578125" xlink:href="#DejaVuSans-110"/>
     <use x="1730.957031" xlink:href="#DejaVuSans-103"/>
     <use x="1794.433594" xlink:href="#DejaVuSans-32"/>
     <use x="1826.220703" xlink:href="#DejaVuSans-101"/>
     <use x="1885.994141" xlink:href="#DejaVuSans-120"/>
     <use x="1945.173828" xlink:href="#DejaVuSans-112"/>
     <use x="2008.650391" xlink:href="#DejaVuSans-101"/>
     <use x="2070.173828" xlink:href="#DejaVuSans-114"/>
     <use x="2111.287109" xlink:href="#DejaVuSans-105"/>
     <use x="2139.070312" xlink:href="#DejaVuSans-109"/>
     <use x="2236.482422" xlink:href="#DejaVuSans-101"/>
     <use x="2298.005859" xlink:href="#DejaVuSans-110"/>
     <use x="2361.384766" xlink:href="#DejaVuSans-116"/>
     <use x="2400.59375" xlink:href="#DejaVuSans-45"/>
     <use x="2436.677734" xlink:href="#DejaVuSans-100"/>
     <use x="2500.154297" xlink:href="#DejaVuSans-101"/>
     <use x="2561.677734" xlink:href="#DejaVuSans-114"/>
     <use x="2602.791016" xlink:href="#DejaVuSans-105"/>
     <use x="2630.574219" xlink:href="#DejaVuSans-118"/>
     <use x="2689.753906" xlink:href="#DejaVuSans-101"/>
     <use x="2751.277344" xlink:href="#DejaVuSans-100"/>
     <use x="2814.753906" xlink:href="#DejaVuSans-32"/>
     <use x="2846.541016" xlink:href="#DejaVuSans-112"/>
     <use x="2910.017578" xlink:href="#DejaVuSans-111"/>
     <use x="2971.199219" xlink:href="#DejaVuSans-115"/>
     <use x="3023.298828" xlink:href="#DejaVuSans-116"/>
     <use x="3062.507812" xlink:href="#DejaVuSans-101"/>
     <use x="3124.03125" xlink:href="#DejaVuSans-114"/>
     <use x="3165.144531" xlink:href="#DejaVuSans-105"/>
     <use x="3192.927734" xlink:href="#DejaVuSans-111"/>
     <use x="3254.109375" xlink:href="#DejaVuSans-114"/>
    </g>
    <!-- Each $\theta$ value has 10 points. -->
    <g transform="translate(138.6 28.56)scale(0.12 -0.12)">
     <defs>
      <path d="M 9.8125 72.90625 
L 55.90625 72.90625 
L 55.90625 64.59375 
L 19.671875 64.59375 
L 19.671875 43.015625 
L 54.390625 43.015625 
L 54.390625 34.71875 
L 19.671875 34.71875 
L 19.671875 8.296875 
L 56.78125 8.296875 
L 56.78125 0 
L 9.8125 0 
z
" id="DejaVuSans-69"/>
      <path d="M 54.890625 33.015625 
L 54.890625 0 
L 45.90625 0 
L 45.90625 32.71875 
Q 45.90625 40.484375 42.875 44.328125 
Q 39.84375 48.1875 33.796875 48.1875 
Q 26.515625 48.1875 22.3125 43.546875 
Q 18.109375 38.921875 18.109375 30.90625 
L 18.109375 0 
L 9.078125 0 
L 9.078125 75.984375 
L 18.109375 75.984375 
L 18.109375 46.1875 
Q 21.34375 51.125 25.703125 53.5625 
Q 30.078125 56 35.796875 56 
Q 45.21875 56 50.046875 50.171875 
Q 54.890625 44.34375 54.890625 33.015625 
z
" id="DejaVuSans-104"/>
     </defs>
     <use transform="translate(0 0.234375)" xlink:href="#DejaVuSans-69"/>
     <use transform="translate(63.183594 0.234375)" xlink:href="#DejaVuSans-97"/>
     <use transform="translate(124.462891 0.234375)" xlink:href="#DejaVuSans-99"/>
     <use transform="translate(179.443359 0.234375)" xlink:href="#DejaVuSans-104"/>
     <use transform="translate(242.822266 0.234375)" xlink:href="#DejaVuSans-32"/>
     <use transform="translate(274.609375 0.234375)" xlink:href="#DejaVuSans-Oblique-952"/>
     <use transform="translate(335.791016 0.234375)" xlink:href="#DejaVuSans-32"/>
     <use transform="translate(367.578125 0.234375)" xlink:href="#DejaVuSans-118"/>
     <use transform="translate(426.757812 0.234375)" xlink:href="#DejaVuSans-97"/>
     <use transform="translate(488.037109 0.234375)" xlink:href="#DejaVuSans-108"/>
     <use transform="translate(515.820312 0.234375)" xlink:href="#DejaVuSans-117"/>
     <use transform="translate(579.199219 0.234375)" xlink:href="#DejaVuSans-101"/>
     <use transform="translate(640.722656 0.234375)" xlink:href="#DejaVuSans-32"/>
     <use transform="translate(672.509766 0.234375)" xlink:href="#DejaVuSans-104"/>
     <use transform="translate(735.888672 0.234375)" xlink:href="#DejaVuSans-97"/>
     <use transform="translate(797.167969 0.234375)" xlink:href="#DejaVuSans-115"/>
     <use transform="translate(849.267578 0.234375)" xlink:href="#DejaVuSans-32"/>
     <use transform="translate(881.054688 0.234375)" xlink:href="#DejaVuSans-49"/>
     <use transform="translate(944.677734 0.234375)" xlink:href="#DejaVuSans-48"/>
     <use transform="translate(1008.300781 0.234375)" xlink:href="#DejaVuSans-32"/>
     <use transform="translate(1040.087891 0.234375)" xlink:href="#DejaVuSans-112"/>
     <use transform="translate(1103.564453 0.234375)" xlink:href="#DejaVuSans-111"/>
     <use transform="translate(1164.746094 0.234375)" xlink:href="#DejaVuSans-105"/>
     <use transform="translate(1192.529297 0.234375)" xlink:href="#DejaVuSans-110"/>
     <use transform="translate(1255.908203 0.234375)" xlink:href="#DejaVuSans-116"/>
     <use transform="translate(1295.117188 0.234375)" xlink:href="#DejaVuSans-115"/>
     <use transform="translate(1347.216797 0.234375)" xlink:href="#DejaVuSans-46"/>
    </g>
   </g>
   <g id="legend_1">
    <g id="patch_7">
     <path d="M 308.6 57.238125 
L 381.8 57.238125 
Q 383.8 57.238125 383.8 55.238125 
L 383.8 41.56 
Q 383.8 39.56 381.8 39.56 
L 308.6 39.56 
Q 306.6 39.56 306.6 41.56 
L 306.6 55.238125 
Q 306.6 57.238125 308.6 57.238125 
z
" style="fill:#ffffff;opacity:0.8;stroke:#cccccc;stroke-linejoin:miter;"/>
    </g>
    <g id="line2d_56"/>
    <g id="line2d_57">
     <g>
      <use style="fill:#0000ff;stroke:#0000ff;" x="320.6" xlink:href="#m2890a860aa" y="47.658437"/>
     </g>
    </g>
    <g id="text_25">
     <!-- $x_o$ = 0.5 -->
     <g transform="translate(338.6 51.158437)scale(0.1 -0.1)">
      <defs>
       <path d="M 25.390625 -1.421875 
Q 15.765625 -1.421875 10.171875 4.515625 
Q 4.59375 10.453125 4.59375 20.703125 
Q 4.59375 26.65625 6.515625 32.828125 
Q 8.453125 39.015625 11.53125 43.21875 
Q 16.359375 49.75 22.3125 52.875 
Q 28.265625 56 35.796875 56 
Q 45.125 56 50.859375 50.1875 
Q 56.59375 44.390625 56.59375 35.015625 
Q 56.59375 28.515625 54.6875 22.0625 
Q 52.78125 15.625 49.703125 11.375 
Q 44.921875 4.828125 38.96875 1.703125 
Q 33.015625 -1.421875 25.390625 -1.421875 
z
M 13.921875 21 
Q 13.921875 13.578125 17.015625 9.890625 
Q 20.125 6.203125 26.421875 6.203125 
Q 35.453125 6.203125 41.375 14.078125 
Q 47.3125 21.96875 47.3125 34.078125 
Q 47.3125 41.15625 44.140625 44.765625 
Q 40.96875 48.390625 34.8125 48.390625 
Q 29.734375 48.390625 25.78125 46.015625 
Q 21.828125 43.65625 18.703125 38.8125 
Q 16.40625 35.203125 15.15625 30.5625 
Q 13.921875 25.921875 13.921875 21 
z
" id="DejaVuSans-Oblique-111"/>
       <path d="M 10.59375 45.40625 
L 73.1875 45.40625 
L 73.1875 37.203125 
L 10.59375 37.203125 
z
M 10.59375 25.484375 
L 73.1875 25.484375 
L 73.1875 17.1875 
L 10.59375 17.1875 
z
" id="DejaVuSans-61"/>
      </defs>
      <use transform="translate(0 0.78125)" xlink:href="#DejaVuSans-Oblique-120"/>
      <use transform="translate(59.179688 -15.625)scale(0.7)" xlink:href="#DejaVuSans-Oblique-111"/>
      <use transform="translate(104.741211 0.78125)" xlink:href="#DejaVuSans-32"/>
      <use transform="translate(136.52832 0.78125)" xlink:href="#DejaVuSans-61"/>
      <use transform="translate(220.317383 0.78125)" xlink:href="#DejaVuSans-32"/>
      <use transform="translate(252.104492 0.78125)" xlink:href="#DejaVuSans-48"/>
      <use transform="translate(315.727539 0.78125)" xlink:href="#DejaVuSans-46"/>
      <use transform="translate(347.514648 0.78125)" xlink:href="#DejaVuSans-53"/>
     </g>
    </g>
   </g>
  </g>
 </g>
 <defs>
  <clipPath id="p96bb8026e0">
   <rect height="217.44" width="334.8" x="54" y="34.56"/>
  </clipPath>
 </defs>
</svg>
