<?xml version="1.0" encoding="utf-8" standalone="no"?>
<!DOCTYPE svg PUBLIC "-//W3C//DTD SVG 1.1//EN"
  "http://www.w3.org/Graphics/SVG/1.1/DTD/svg11.dtd">
<svg xmlns:xlink="http://www.w3.org/1999/xlink" width="460.8pt" height="345.6pt" viewBox="0 0 460.8 345.6" xmlns="http://www.w3.org/2000/svg" version="1.1">
 <metadata>
  <rdf:RDF xmlns:dc="http://purl.org/dc/elements/1.1/" xmlns:cc="http://creativecommons.org/ns#" xmlns:rdf="http://www.w3.org/1999/02/22-rdf-syntax-ns#">
   <cc:Work>
    <dc:type rdf:resource="http://purl.org/dc/dcmitype/StillImage"/>
    <dc:date>2023-04-20T14:08:04.574946</dc:date>
    <dc:format>image/svg+xml</dc:format>
    <dc:creator>
     <cc:Agent>
      <dc:title>Matplotlib v3.5.2, https://matplotlib.org/</dc:title>
     </cc:Agent>
    </dc:creator>
   </cc:Work>
  </rdf:RDF>
 </metadata>
 <defs>
  <style type="text/css">*{stroke-linejoin: round; stroke-linecap: butt}</style>
 </defs>
 <g id="figure_1">
  <g id="patch_1">
   <path d="M 0 345.6 
L 460.8 345.6 
L 460.8 0 
L 0 0 
L 0 345.6 
z
" style="fill: none"/>
  </g>
  <g id="axes_1">
   <g id="patch_2">
    <path d="M 57.6 307.584 
L 414.72 307.584 
L 414.72 41.472 
L 57.6 41.472 
L 57.6 307.584 
z
" style="fill: none"/>
   </g>
   <g id="matplotlib.axis_1">
    <g id="xtick_1">
     <g id="line2d_1">
      <path d="M 73.832727 307.584 
L 73.832727 41.472 
" clip-path="url(#pbfb5d37a12)" style="fill: none; stroke: #b0b0b0; stroke-width: 0.8; stroke-linecap: square"/>
     </g>
     <g id="line2d_2">
      <defs>
       <path id="m541ef02f3a" d="M 0 0 
L 0 3.5 
" style="stroke: #000000; stroke-width: 0.8"/>
      </defs>
      <g>
       <use xlink:href="#m541ef02f3a" x="73.832727" y="307.584" style="stroke: #000000; stroke-width: 0.8"/>
      </g>
     </g>
     <g id="text_1">
      <!-- 0 -->
      <g transform="translate(70.651477 322.182437)scale(0.1 -0.1)">
       <defs>
        <path id="DejaVuSans-30" d="M 2034 4250 
Q 1547 4250 1301 3770 
Q 1056 3291 1056 2328 
Q 1056 1369 1301 889 
Q 1547 409 2034 409 
Q 2525 409 2770 889 
Q 3016 1369 3016 2328 
Q 3016 3291 2770 3770 
Q 2525 4250 2034 4250 
z
M 2034 4750 
Q 2819 4750 3233 4129 
Q 3647 3509 3647 2328 
Q 3647 1150 3233 529 
Q 2819 -91 2034 -91 
Q 1250 -91 836 529 
Q 422 1150 422 2328 
Q 422 3509 836 4129 
Q 1250 4750 2034 4750 
z
" transform="scale(0.015625)"/>
       </defs>
       <use xlink:href="#DejaVuSans-30"/>
      </g>
     </g>
    </g>
    <g id="xtick_2">
     <g id="line2d_3">
      <path d="M 138.763636 307.584 
L 138.763636 41.472 
" clip-path="url(#pbfb5d37a12)" style="fill: none; stroke: #b0b0b0; stroke-width: 0.8; stroke-linecap: square"/>
     </g>
     <g id="line2d_4">
      <g>
       <use xlink:href="#m541ef02f3a" x="138.763636" y="307.584" style="stroke: #000000; stroke-width: 0.8"/>
      </g>
     </g>
     <g id="text_2">
      <!-- 100 -->
      <g transform="translate(129.219886 322.182437)scale(0.1 -0.1)">
       <defs>
        <path id="DejaVuSans-31" d="M 794 531 
L 1825 531 
L 1825 4091 
L 703 3866 
L 703 4441 
L 1819 4666 
L 2450 4666 
L 2450 531 
L 3481 531 
L 3481 0 
L 794 0 
L 794 531 
z
" transform="scale(0.015625)"/>
       </defs>
       <use xlink:href="#DejaVuSans-31"/>
       <use xlink:href="#DejaVuSans-30" x="63.623047"/>
       <use xlink:href="#DejaVuSans-30" x="127.246094"/>
      </g>
     </g>
    </g>
    <g id="xtick_3">
     <g id="line2d_5">
      <path d="M 203.694545 307.584 
L 203.694545 41.472 
" clip-path="url(#pbfb5d37a12)" style="fill: none; stroke: #b0b0b0; stroke-width: 0.8; stroke-linecap: square"/>
     </g>
     <g id="line2d_6">
      <g>
       <use xlink:href="#m541ef02f3a" x="203.694545" y="307.584" style="stroke: #000000; stroke-width: 0.8"/>
      </g>
     </g>
     <g id="text_3">
      <!-- 200 -->
      <g transform="translate(194.150795 322.182437)scale(0.1 -0.1)">
       <defs>
        <path id="DejaVuSans-32" d="M 1228 531 
L 3431 531 
L 3431 0 
L 469 0 
L 469 531 
Q 828 903 1448 1529 
Q 2069 2156 2228 2338 
Q 2531 2678 2651 2914 
Q 2772 3150 2772 3378 
Q 2772 3750 2511 3984 
Q 2250 4219 1831 4219 
Q 1534 4219 1204 4116 
Q 875 4013 500 3803 
L 500 4441 
Q 881 4594 1212 4672 
Q 1544 4750 1819 4750 
Q 2544 4750 2975 4387 
Q 3406 4025 3406 3419 
Q 3406 3131 3298 2873 
Q 3191 2616 2906 2266 
Q 2828 2175 2409 1742 
Q 1991 1309 1228 531 
z
" transform="scale(0.015625)"/>
       </defs>
       <use xlink:href="#DejaVuSans-32"/>
       <use xlink:href="#DejaVuSans-30" x="63.623047"/>
       <use xlink:href="#DejaVuSans-30" x="127.246094"/>
      </g>
     </g>
    </g>
    <g id="xtick_4">
     <g id="line2d_7">
      <path d="M 268.625455 307.584 
L 268.625455 41.472 
" clip-path="url(#pbfb5d37a12)" style="fill: none; stroke: #b0b0b0; stroke-width: 0.8; stroke-linecap: square"/>
     </g>
     <g id="line2d_8">
      <g>
       <use xlink:href="#m541ef02f3a" x="268.625455" y="307.584" style="stroke: #000000; stroke-width: 0.8"/>
      </g>
     </g>
     <g id="text_4">
      <!-- 300 -->
      <g transform="translate(259.081705 322.182437)scale(0.1 -0.1)">
       <defs>
        <path id="DejaVuSans-33" d="M 2597 2516 
Q 3050 2419 3304 2112 
Q 3559 1806 3559 1356 
Q 3559 666 3084 287 
Q 2609 -91 1734 -91 
Q 1441 -91 1130 -33 
Q 819 25 488 141 
L 488 750 
Q 750 597 1062 519 
Q 1375 441 1716 441 
Q 2309 441 2620 675 
Q 2931 909 2931 1356 
Q 2931 1769 2642 2001 
Q 2353 2234 1838 2234 
L 1294 2234 
L 1294 2753 
L 1863 2753 
Q 2328 2753 2575 2939 
Q 2822 3125 2822 3475 
Q 2822 3834 2567 4026 
Q 2313 4219 1838 4219 
Q 1578 4219 1281 4162 
Q 984 4106 628 3988 
L 628 4550 
Q 988 4650 1302 4700 
Q 1616 4750 1894 4750 
Q 2613 4750 3031 4423 
Q 3450 4097 3450 3541 
Q 3450 3153 3228 2886 
Q 3006 2619 2597 2516 
z
" transform="scale(0.015625)"/>
       </defs>
       <use xlink:href="#DejaVuSans-33"/>
       <use xlink:href="#DejaVuSans-30" x="63.623047"/>
       <use xlink:href="#DejaVuSans-30" x="127.246094"/>
      </g>
     </g>
    </g>
    <g id="xtick_5">
     <g id="line2d_9">
      <path d="M 333.556364 307.584 
L 333.556364 41.472 
" clip-path="url(#pbfb5d37a12)" style="fill: none; stroke: #b0b0b0; stroke-width: 0.8; stroke-linecap: square"/>
     </g>
     <g id="line2d_10">
      <g>
       <use xlink:href="#m541ef02f3a" x="333.556364" y="307.584" style="stroke: #000000; stroke-width: 0.8"/>
      </g>
     </g>
     <g id="text_5">
      <!-- 400 -->
      <g transform="translate(324.012614 322.182437)scale(0.1 -0.1)">
       <defs>
        <path id="DejaVuSans-34" d="M 2419 4116 
L 825 1625 
L 2419 1625 
L 2419 4116 
z
M 2253 4666 
L 3047 4666 
L 3047 1625 
L 3713 1625 
L 3713 1100 
L 3047 1100 
L 3047 0 
L 2419 0 
L 2419 1100 
L 313 1100 
L 313 1709 
L 2253 4666 
z
" transform="scale(0.015625)"/>
       </defs>
       <use xlink:href="#DejaVuSans-34"/>
       <use xlink:href="#DejaVuSans-30" x="63.623047"/>
       <use xlink:href="#DejaVuSans-30" x="127.246094"/>
      </g>
     </g>
    </g>
    <g id="xtick_6">
     <g id="line2d_11">
      <path d="M 398.487273 307.584 
L 398.487273 41.472 
" clip-path="url(#pbfb5d37a12)" style="fill: none; stroke: #b0b0b0; stroke-width: 0.8; stroke-linecap: square"/>
     </g>
     <g id="line2d_12">
      <g>
       <use xlink:href="#m541ef02f3a" x="398.487273" y="307.584" style="stroke: #000000; stroke-width: 0.8"/>
      </g>
     </g>
     <g id="text_6">
      <!-- 500 -->
      <g transform="translate(388.943523 322.182437)scale(0.1 -0.1)">
       <defs>
        <path id="DejaVuSans-35" d="M 691 4666 
L 3169 4666 
L 3169 4134 
L 1269 4134 
L 1269 2991 
Q 1406 3038 1543 3061 
Q 1681 3084 1819 3084 
Q 2600 3084 3056 2656 
Q 3513 2228 3513 1497 
Q 3513 744 3044 326 
Q 2575 -91 1722 -91 
Q 1428 -91 1123 -41 
Q 819 9 494 109 
L 494 744 
Q 775 591 1075 516 
Q 1375 441 1709 441 
Q 2250 441 2565 725 
Q 2881 1009 2881 1497 
Q 2881 1984 2565 2268 
Q 2250 2553 1709 2553 
Q 1456 2553 1204 2497 
Q 953 2441 691 2322 
L 691 4666 
z
" transform="scale(0.015625)"/>
       </defs>
       <use xlink:href="#DejaVuSans-35"/>
       <use xlink:href="#DejaVuSans-30" x="63.623047"/>
       <use xlink:href="#DejaVuSans-30" x="127.246094"/>
      </g>
     </g>
    </g>
    <g id="text_7">
     <!-- freq. index -->
     <g transform="translate(209.3475 335.860562)scale(0.1 -0.1)">
      <defs>
       <path id="DejaVuSans-66" d="M 2375 4863 
L 2375 4384 
L 1825 4384 
Q 1516 4384 1395 4259 
Q 1275 4134 1275 3809 
L 1275 3500 
L 2222 3500 
L 2222 3053 
L 1275 3053 
L 1275 0 
L 697 0 
L 697 3053 
L 147 3053 
L 147 3500 
L 697 3500 
L 697 3744 
Q 697 4328 969 4595 
Q 1241 4863 1831 4863 
L 2375 4863 
z
" transform="scale(0.015625)"/>
       <path id="DejaVuSans-72" d="M 2631 2963 
Q 2534 3019 2420 3045 
Q 2306 3072 2169 3072 
Q 1681 3072 1420 2755 
Q 1159 2438 1159 1844 
L 1159 0 
L 581 0 
L 581 3500 
L 1159 3500 
L 1159 2956 
Q 1341 3275 1631 3429 
Q 1922 3584 2338 3584 
Q 2397 3584 2469 3576 
Q 2541 3569 2628 3553 
L 2631 2963 
z
" transform="scale(0.015625)"/>
       <path id="DejaVuSans-65" d="M 3597 1894 
L 3597 1613 
L 953 1613 
Q 991 1019 1311 708 
Q 1631 397 2203 397 
Q 2534 397 2845 478 
Q 3156 559 3463 722 
L 3463 178 
Q 3153 47 2828 -22 
Q 2503 -91 2169 -91 
Q 1331 -91 842 396 
Q 353 884 353 1716 
Q 353 2575 817 3079 
Q 1281 3584 2069 3584 
Q 2775 3584 3186 3129 
Q 3597 2675 3597 1894 
z
M 3022 2063 
Q 3016 2534 2758 2815 
Q 2500 3097 2075 3097 
Q 1594 3097 1305 2825 
Q 1016 2553 972 2059 
L 3022 2063 
z
" transform="scale(0.015625)"/>
       <path id="DejaVuSans-71" d="M 947 1747 
Q 947 1113 1208 752 
Q 1469 391 1925 391 
Q 2381 391 2643 752 
Q 2906 1113 2906 1747 
Q 2906 2381 2643 2742 
Q 2381 3103 1925 3103 
Q 1469 3103 1208 2742 
Q 947 2381 947 1747 
z
M 2906 525 
Q 2725 213 2448 61 
Q 2172 -91 1784 -91 
Q 1150 -91 751 415 
Q 353 922 353 1747 
Q 353 2572 751 3078 
Q 1150 3584 1784 3584 
Q 2172 3584 2448 3432 
Q 2725 3281 2906 2969 
L 2906 3500 
L 3481 3500 
L 3481 -1331 
L 2906 -1331 
L 2906 525 
z
" transform="scale(0.015625)"/>
       <path id="DejaVuSans-2e" d="M 684 794 
L 1344 794 
L 1344 0 
L 684 0 
L 684 794 
z
" transform="scale(0.015625)"/>
       <path id="DejaVuSans-20" transform="scale(0.015625)"/>
       <path id="DejaVuSans-69" d="M 603 3500 
L 1178 3500 
L 1178 0 
L 603 0 
L 603 3500 
z
M 603 4863 
L 1178 4863 
L 1178 4134 
L 603 4134 
L 603 4863 
z
" transform="scale(0.015625)"/>
       <path id="DejaVuSans-6e" d="M 3513 2113 
L 3513 0 
L 2938 0 
L 2938 2094 
Q 2938 2591 2744 2837 
Q 2550 3084 2163 3084 
Q 1697 3084 1428 2787 
Q 1159 2491 1159 1978 
L 1159 0 
L 581 0 
L 581 3500 
L 1159 3500 
L 1159 2956 
Q 1366 3272 1645 3428 
Q 1925 3584 2291 3584 
Q 2894 3584 3203 3211 
Q 3513 2838 3513 2113 
z
" transform="scale(0.015625)"/>
       <path id="DejaVuSans-64" d="M 2906 2969 
L 2906 4863 
L 3481 4863 
L 3481 0 
L 2906 0 
L 2906 525 
Q 2725 213 2448 61 
Q 2172 -91 1784 -91 
Q 1150 -91 751 415 
Q 353 922 353 1747 
Q 353 2572 751 3078 
Q 1150 3584 1784 3584 
Q 2172 3584 2448 3432 
Q 2725 3281 2906 2969 
z
M 947 1747 
Q 947 1113 1208 752 
Q 1469 391 1925 391 
Q 2381 391 2643 752 
Q 2906 1113 2906 1747 
Q 2906 2381 2643 2742 
Q 2381 3103 1925 3103 
Q 1469 3103 1208 2742 
Q 947 2381 947 1747 
z
" transform="scale(0.015625)"/>
       <path id="DejaVuSans-78" d="M 3513 3500 
L 2247 1797 
L 3578 0 
L 2900 0 
L 1881 1375 
L 863 0 
L 184 0 
L 1544 1831 
L 300 3500 
L 978 3500 
L 1906 2253 
L 2834 3500 
L 3513 3500 
z
" transform="scale(0.015625)"/>
      </defs>
      <use xlink:href="#DejaVuSans-66"/>
      <use xlink:href="#DejaVuSans-72" x="35.205078"/>
      <use xlink:href="#DejaVuSans-65" x="74.068359"/>
      <use xlink:href="#DejaVuSans-71" x="135.591797"/>
      <use xlink:href="#DejaVuSans-2e" x="199.068359"/>
      <use xlink:href="#DejaVuSans-20" x="230.855469"/>
      <use xlink:href="#DejaVuSans-69" x="262.642578"/>
      <use xlink:href="#DejaVuSans-6e" x="290.425781"/>
      <use xlink:href="#DejaVuSans-64" x="353.804688"/>
      <use xlink:href="#DejaVuSans-65" x="417.28125"/>
      <use xlink:href="#DejaVuSans-78" x="477.054688"/>
     </g>
    </g>
   </g>
   <g id="matplotlib.axis_2">
    <g id="ytick_1">
     <g id="line2d_13">
      <path d="M 57.6 295.488006 
L 414.72 295.488006 
" clip-path="url(#pbfb5d37a12)" style="fill: none; stroke: #b0b0b0; stroke-width: 0.8; stroke-linecap: square"/>
     </g>
     <g id="line2d_14">
      <defs>
       <path id="mf7dfa6fa6b" d="M 0 0 
L -3.5 0 
" style="stroke: #000000; stroke-width: 0.8"/>
      </defs>
      <g>
       <use xlink:href="#mf7dfa6fa6b" x="57.6" y="295.488006" style="stroke: #000000; stroke-width: 0.8"/>
      </g>
     </g>
     <g id="text_8">
      <!-- 0 -->
      <g transform="translate(44.2375 299.287225)scale(0.1 -0.1)">
       <use xlink:href="#DejaVuSans-30"/>
      </g>
     </g>
    </g>
    <g id="ytick_2">
     <g id="line2d_15">
      <path d="M 57.6 257.804612 
L 414.72 257.804612 
" clip-path="url(#pbfb5d37a12)" style="fill: none; stroke: #b0b0b0; stroke-width: 0.8; stroke-linecap: square"/>
     </g>
     <g id="line2d_16">
      <g>
       <use xlink:href="#mf7dfa6fa6b" x="57.6" y="257.804612" style="stroke: #000000; stroke-width: 0.8"/>
      </g>
     </g>
     <g id="text_9">
      <!-- 2 -->
      <g transform="translate(44.2375 261.60383)scale(0.1 -0.1)">
       <use xlink:href="#DejaVuSans-32"/>
      </g>
     </g>
    </g>
    <g id="ytick_3">
     <g id="line2d_17">
      <path d="M 57.6 220.121217 
L 414.72 220.121217 
" clip-path="url(#pbfb5d37a12)" style="fill: none; stroke: #b0b0b0; stroke-width: 0.8; stroke-linecap: square"/>
     </g>
     <g id="line2d_18">
      <g>
       <use xlink:href="#mf7dfa6fa6b" x="57.6" y="220.121217" style="stroke: #000000; stroke-width: 0.8"/>
      </g>
     </g>
     <g id="text_10">
      <!-- 4 -->
      <g transform="translate(44.2375 223.920436)scale(0.1 -0.1)">
       <use xlink:href="#DejaVuSans-34"/>
      </g>
     </g>
    </g>
    <g id="ytick_4">
     <g id="line2d_19">
      <path d="M 57.6 182.437822 
L 414.72 182.437822 
" clip-path="url(#pbfb5d37a12)" style="fill: none; stroke: #b0b0b0; stroke-width: 0.8; stroke-linecap: square"/>
     </g>
     <g id="line2d_20">
      <g>
       <use xlink:href="#mf7dfa6fa6b" x="57.6" y="182.437822" style="stroke: #000000; stroke-width: 0.8"/>
      </g>
     </g>
     <g id="text_11">
      <!-- 6 -->
      <g transform="translate(44.2375 186.237041)scale(0.1 -0.1)">
       <defs>
        <path id="DejaVuSans-36" d="M 2113 2584 
Q 1688 2584 1439 2293 
Q 1191 2003 1191 1497 
Q 1191 994 1439 701 
Q 1688 409 2113 409 
Q 2538 409 2786 701 
Q 3034 994 3034 1497 
Q 3034 2003 2786 2293 
Q 2538 2584 2113 2584 
z
M 3366 4563 
L 3366 3988 
Q 3128 4100 2886 4159 
Q 2644 4219 2406 4219 
Q 1781 4219 1451 3797 
Q 1122 3375 1075 2522 
Q 1259 2794 1537 2939 
Q 1816 3084 2150 3084 
Q 2853 3084 3261 2657 
Q 3669 2231 3669 1497 
Q 3669 778 3244 343 
Q 2819 -91 2113 -91 
Q 1303 -91 875 529 
Q 447 1150 447 2328 
Q 447 3434 972 4092 
Q 1497 4750 2381 4750 
Q 2619 4750 2861 4703 
Q 3103 4656 3366 4563 
z
" transform="scale(0.015625)"/>
       </defs>
       <use xlink:href="#DejaVuSans-36"/>
      </g>
     </g>
    </g>
    <g id="ytick_5">
     <g id="line2d_21">
      <path d="M 57.6 144.754428 
L 414.72 144.754428 
" clip-path="url(#pbfb5d37a12)" style="fill: none; stroke: #b0b0b0; stroke-width: 0.8; stroke-linecap: square"/>
     </g>
     <g id="line2d_22">
      <g>
       <use xlink:href="#mf7dfa6fa6b" x="57.6" y="144.754428" style="stroke: #000000; stroke-width: 0.8"/>
      </g>
     </g>
     <g id="text_12">
      <!-- 8 -->
      <g transform="translate(44.2375 148.553647)scale(0.1 -0.1)">
       <defs>
        <path id="DejaVuSans-38" d="M 2034 2216 
Q 1584 2216 1326 1975 
Q 1069 1734 1069 1313 
Q 1069 891 1326 650 
Q 1584 409 2034 409 
Q 2484 409 2743 651 
Q 3003 894 3003 1313 
Q 3003 1734 2745 1975 
Q 2488 2216 2034 2216 
z
M 1403 2484 
Q 997 2584 770 2862 
Q 544 3141 544 3541 
Q 544 4100 942 4425 
Q 1341 4750 2034 4750 
Q 2731 4750 3128 4425 
Q 3525 4100 3525 3541 
Q 3525 3141 3298 2862 
Q 3072 2584 2669 2484 
Q 3125 2378 3379 2068 
Q 3634 1759 3634 1313 
Q 3634 634 3220 271 
Q 2806 -91 2034 -91 
Q 1263 -91 848 271 
Q 434 634 434 1313 
Q 434 1759 690 2068 
Q 947 2378 1403 2484 
z
M 1172 3481 
Q 1172 3119 1398 2916 
Q 1625 2713 2034 2713 
Q 2441 2713 2670 2916 
Q 2900 3119 2900 3481 
Q 2900 3844 2670 4047 
Q 2441 4250 2034 4250 
Q 1625 4250 1398 4047 
Q 1172 3844 1172 3481 
z
" transform="scale(0.015625)"/>
       </defs>
       <use xlink:href="#DejaVuSans-38"/>
      </g>
     </g>
    </g>
    <g id="ytick_6">
     <g id="line2d_23">
      <path d="M 57.6 107.071033 
L 414.72 107.071033 
" clip-path="url(#pbfb5d37a12)" style="fill: none; stroke: #b0b0b0; stroke-width: 0.8; stroke-linecap: square"/>
     </g>
     <g id="line2d_24">
      <g>
       <use xlink:href="#mf7dfa6fa6b" x="57.6" y="107.071033" style="stroke: #000000; stroke-width: 0.8"/>
      </g>
     </g>
     <g id="text_13">
      <!-- 10 -->
      <g transform="translate(37.875 110.870252)scale(0.1 -0.1)">
       <use xlink:href="#DejaVuSans-31"/>
       <use xlink:href="#DejaVuSans-30" x="63.623047"/>
      </g>
     </g>
    </g>
    <g id="ytick_7">
     <g id="line2d_25">
      <path d="M 57.6 69.387639 
L 414.72 69.387639 
" clip-path="url(#pbfb5d37a12)" style="fill: none; stroke: #b0b0b0; stroke-width: 0.8; stroke-linecap: square"/>
     </g>
     <g id="line2d_26">
      <g>
       <use xlink:href="#mf7dfa6fa6b" x="57.6" y="69.387639" style="stroke: #000000; stroke-width: 0.8"/>
      </g>
     </g>
     <g id="text_14">
      <!-- 12 -->
      <g transform="translate(37.875 73.186857)scale(0.1 -0.1)">
       <use xlink:href="#DejaVuSans-31"/>
       <use xlink:href="#DejaVuSans-32" x="63.623047"/>
      </g>
     </g>
    </g>
    <g id="text_15">
     <!-- $I$ -->
     <g transform="translate(31.795313 176.028)rotate(-90)scale(0.1 -0.1)">
      <defs>
       <path id="DejaVuSans-Oblique-49" d="M 1081 4666 
L 1716 4666 
L 806 0 
L 172 0 
L 1081 4666 
z
" transform="scale(0.015625)"/>
      </defs>
      <use xlink:href="#DejaVuSans-Oblique-49" transform="translate(0 0.09375)"/>
     </g>
    </g>
   </g>
   <g id="line2d_27">
    <path d="M 73.832727 295.488 
L 74.482036 254.528602 
L 75.131345 273.648855 
L 75.780655 276.504063 
L 76.429964 290.889614 
L 77.079273 263.280207 
L 77.728582 276.707257 
L 78.377891 282.314639 
L 79.0272 240.492026 
L 79.676509 227.664785 
L 80.325818 118.125128 
L 81.624436 289.894519 
L 82.273745 274.113485 
L 82.923055 266.713971 
L 83.572364 53.568 
L 84.221673 268.949899 
L 84.870982 170.226355 
L 85.520291 275.672159 
L 86.1696 230.013425 
L 86.818909 289.784884 
L 87.468218 283.826975 
L 88.117527 287.098632 
L 88.766836 281.027206 
L 89.416145 252.731007 
L 90.065455 258.933281 
L 90.714764 216.411254 
L 91.364073 232.299342 
L 92.013382 271.125719 
L 92.662691 247.655943 
L 93.312 271.106836 
L 93.961309 264.585726 
L 94.610618 266.896952 
L 95.259927 220.492989 
L 95.909236 285.923863 
L 96.558545 270.871081 
L 97.207855 263.441395 
L 97.857164 272.76914 
L 98.506473 291.137983 
L 99.155782 121.414771 
L 99.805091 257.872519 
L 100.4544 272.534828 
L 101.103709 276.053575 
L 101.753018 292.319792 
L 102.402327 268.440255 
L 103.700945 247.086299 
L 104.350255 283.165301 
L 104.999564 225.243861 
L 105.648873 291.710469 
L 106.298182 277.690881 
L 106.947491 287.845081 
L 107.5968 291.014612 
L 108.246109 251.703834 
L 108.895418 201.109957 
L 109.544727 278.951278 
L 110.194036 282.712646 
L 110.843345 292.981901 
L 111.492655 286.72824 
L 112.141964 238.842741 
L 112.791273 294.500146 
L 113.440582 266.383989 
L 114.089891 271.05791 
L 114.7392 290.54469 
L 115.388509 277.819203 
L 116.037818 230.330484 
L 117.336436 285.572214 
L 117.985745 274.688531 
L 118.635055 251.788055 
L 119.284364 290.488543 
L 119.933673 258.703237 
L 120.582982 282.733686 
L 121.232291 281.872075 
L 121.8816 247.590768 
L 122.530909 292.451349 
L 123.180218 186.252482 
L 123.829527 262.720197 
L 124.478836 292.658228 
L 125.128145 286.712435 
L 125.777455 261.769047 
L 126.426764 272.303802 
L 127.076073 221.347888 
L 127.725382 257.118396 
L 128.374691 271.865371 
L 129.024 251.303314 
L 129.673309 277.878188 
L 130.322618 199.293984 
L 130.971927 187.90126 
L 131.621236 281.233093 
L 132.270545 250.165517 
L 132.919855 287.365678 
L 133.569164 229.365564 
L 134.218473 264.293939 
L 134.867782 251.387099 
L 135.517091 184.14958 
L 136.1664 283.410983 
L 136.815709 267.564843 
L 137.465018 286.9115 
L 138.763636 235.830175 
L 139.412945 257.873818 
L 140.062255 274.211078 
L 140.711564 129.637822 
L 141.360873 282.791624 
L 142.010182 265.806118 
L 142.659491 254.530394 
L 143.3088 294.359392 
L 143.958109 292.52155 
L 144.607418 284.025719 
L 145.256727 289.439345 
L 145.906036 253.421115 
L 146.555345 275.518202 
L 147.204655 236.023534 
L 147.853964 287.265463 
L 148.503273 230.779045 
L 149.152582 290.06148 
L 149.801891 285.346121 
L 150.4512 294.620108 
L 151.100509 266.685791 
L 151.749818 294.618972 
L 152.399127 266.208763 
L 153.048436 288.212379 
L 153.697745 260.178939 
L 154.347055 290.388521 
L 154.996364 293.94117 
L 155.645673 286.354352 
L 156.294982 291.716057 
L 156.944291 241.367847 
L 157.5936 224.30369 
L 158.242909 277.525179 
L 158.892218 277.070382 
L 159.541527 294.126788 
L 160.190836 281.022009 
L 160.840145 283.408869 
L 161.489455 241.732292 
L 162.788073 272.563321 
L 163.437382 294.266941 
L 164.086691 269.076102 
L 164.736 279.663821 
L 165.385309 259.907509 
L 166.034618 224.849771 
L 166.683927 222.504179 
L 167.333236 276.721456 
L 167.982545 246.926023 
L 168.631855 251.736463 
L 169.281164 194.407632 
L 169.930473 202.69928 
L 170.579782 285.333558 
L 171.229091 214.192024 
L 171.8784 286.310289 
L 172.527709 257.873888 
L 173.177018 284.694031 
L 173.826327 269.978533 
L 174.475636 275.31563 
L 175.124945 225.05622 
L 175.774255 289.369002 
L 176.423564 286.112041 
L 177.072873 216.871149 
L 177.722182 266.59922 
L 178.371491 253.80196 
L 179.0208 282.811639 
L 179.670109 266.161593 
L 180.319418 267.14063 
L 180.968727 124.67643 
L 181.618036 244.009504 
L 182.267345 244.489526 
L 182.916655 260.611857 
L 183.565964 282.058581 
L 184.215273 290.22336 
L 184.864582 252.170046 
L 185.513891 279.323682 
L 186.1632 160.883836 
L 186.812509 280.461368 
L 187.461818 223.399387 
L 188.111127 191.08424 
L 188.760436 111.785764 
L 189.409745 282.210215 
L 190.059055 295.235071 
L 190.708364 271.055733 
L 191.357673 280.928465 
L 192.006982 213.003691 
L 192.656291 249.554556 
L 193.3056 262.39058 
L 193.954909 235.921381 
L 194.604218 237.16397 
L 195.253527 295.353631 
L 195.902836 282.597218 
L 196.552145 242.435917 
L 197.201455 256.60422 
L 197.850764 290.433954 
L 198.500073 291.012621 
L 199.149382 263.907687 
L 199.798691 284.574361 
L 200.448 287.508496 
L 201.097309 289.899418 
L 201.746618 262.006441 
L 202.395927 271.040847 
L 203.045236 285.679501 
L 203.694545 205.689816 
L 204.343855 254.030154 
L 204.993164 286.213781 
L 205.642473 290.493237 
L 206.291782 245.864556 
L 206.941091 259.896095 
L 207.5904 280.5112 
L 208.239709 234.206233 
L 208.889018 268.418617 
L 209.538327 278.769227 
L 210.187636 168.272613 
L 210.836945 281.115192 
L 211.486255 213.886399 
L 212.135564 184.240371 
L 212.784873 292.3954 
L 213.434182 291.233963 
L 214.083491 280.332029 
L 214.7328 295.344515 
L 215.382109 281.494759 
L 216.031418 292.047645 
L 216.680727 275.484552 
L 217.330036 262.071506 
L 217.979345 279.093854 
L 218.628655 268.281712 
L 219.277964 202.225612 
L 219.927273 266.253173 
L 220.576582 279.291569 
L 221.225891 286.891937 
L 222.524509 267.805924 
L 223.173818 236.215655 
L 223.823127 292.864732 
L 224.472436 218.003358 
L 225.121745 260.776782 
L 225.771055 232.676438 
L 226.420364 262.43154 
L 227.069673 256.826054 
L 227.718982 279.0437 
L 228.368291 254.824312 
L 229.0176 158.869214 
L 229.666909 156.724698 
L 230.316218 221.405363 
L 230.965527 266.62076 
L 231.614836 247.910948 
L 232.264145 225.49518 
L 232.913455 286.942069 
L 233.562764 212.312079 
L 234.212073 253.935723 
L 234.861382 285.736589 
L 235.510691 252.614723 
L 236.16 273.592309 
L 236.809309 289.289744 
L 237.458618 272.607201 
L 238.107927 280.294486 
L 238.757236 275.088194 
L 239.406545 194.356665 
L 240.705164 252.495097 
L 241.354473 288.434652 
L 242.003782 211.319136 
L 242.653091 283.478467 
L 243.3024 262.933655 
L 243.951709 272.279632 
L 244.601018 294.999254 
L 245.250327 295.050511 
L 245.899636 276.819639 
L 246.548945 286.922487 
L 247.198255 277.160663 
L 247.847564 278.629389 
L 248.496873 282.609202 
L 249.146182 237.954178 
L 249.795491 256.367573 
L 250.4448 220.047889 
L 251.094109 272.111946 
L 251.743418 280.009405 
L 252.392727 283.02805 
L 253.042036 275.518076 
L 253.691345 285.018123 
L 254.340655 225.336995 
L 254.989964 275.432654 
L 255.639273 289.336963 
L 256.288582 278.134187 
L 256.937891 247.104541 
L 257.5872 251.065499 
L 258.236509 192.934412 
L 258.885818 290.375971 
L 259.535127 247.283216 
L 260.184436 258.844869 
L 260.833745 223.693166 
L 261.483055 262.602709 
L 262.132364 215.538294 
L 262.781673 225.130923 
L 263.430982 294.373827 
L 264.080291 277.972732 
L 264.7296 266.481203 
L 265.378909 258.562319 
L 266.028218 272.05954 
L 266.677527 245.391915 
L 267.326836 284.476993 
L 267.976145 251.331968 
L 268.625455 271.995185 
L 269.274764 272.177838 
L 269.924073 270.734076 
L 270.573382 235.215892 
L 271.222691 230.058869 
L 271.872 267.091539 
L 272.521309 290.35581 
L 273.819927 279.934655 
L 274.469236 257.270469 
L 275.118545 148.934316 
L 275.767855 293.53984 
L 276.417164 286.568145 
L 277.066473 288.983088 
L 278.365091 269.775402 
L 279.0144 278.262144 
L 279.663709 271.58996 
L 280.313018 291.392854 
L 280.962327 293.714451 
L 281.611636 287.56149 
L 282.260945 161.565331 
L 282.910255 272.743864 
L 283.559564 238.823284 
L 284.208873 256.854412 
L 284.858182 236.140151 
L 285.507491 295.126097 
L 286.1568 246.240593 
L 286.806109 290.089164 
L 287.455418 276.944247 
L 288.104727 289.084216 
L 288.754036 274.76986 
L 289.403345 224.320012 
L 290.052655 152.066496 
L 290.701964 267.747141 
L 291.351273 262.391462 
L 292.000582 254.446005 
L 292.649891 235.846966 
L 293.2992 287.550021 
L 293.948509 287.456353 
L 294.597818 286.787709 
L 295.247127 234.84662 
L 295.896436 291.162442 
L 296.545745 270.156998 
L 297.195055 211.070999 
L 297.844364 295.193896 
L 298.493673 291.807338 
L 299.142982 274.436398 
L 299.792291 273.700671 
L 300.4416 280.944658 
L 301.090909 271.974423 
L 301.740218 256.614759 
L 302.389527 209.652467 
L 303.038836 286.408078 
L 303.688145 225.948716 
L 304.337455 295.463831 
L 304.986764 294.568548 
L 305.636073 262.14334 
L 306.285382 281.991762 
L 306.934691 273.344539 
L 307.584 258.114216 
L 308.882618 284.370464 
L 309.531927 212.035364 
L 310.181236 292.001386 
L 310.830545 240.656199 
L 311.479855 288.923784 
L 312.129164 270.694523 
L 312.778473 237.057873 
L 313.427782 266.479992 
L 314.077091 219.712336 
L 314.7264 273.236543 
L 315.375709 278.305364 
L 316.025018 260.634249 
L 316.674327 272.624503 
L 317.323636 293.546522 
L 317.972945 225.536249 
L 318.622255 233.915648 
L 319.271564 233.976575 
L 319.920873 281.440195 
L 320.570182 283.803994 
L 321.219491 278.607344 
L 321.8688 197.380782 
L 322.518109 273.085092 
L 323.167418 271.954353 
L 323.816727 272.344347 
L 324.466036 245.379981 
L 325.115345 262.807784 
L 325.764655 197.935455 
L 326.413964 293.687471 
L 327.712582 215.472219 
L 328.361891 272.725092 
L 329.0112 280.354861 
L 329.660509 290.254455 
L 330.309818 286.391213 
L 330.959127 274.665563 
L 331.608436 293.390427 
L 332.257745 291.61157 
L 332.907055 270.289104 
L 333.556364 288.977564 
L 334.205673 274.081946 
L 334.854982 196.37438 
L 335.504291 254.254061 
L 336.1536 256.494397 
L 336.802909 259.70371 
L 337.452218 279.587131 
L 338.101527 267.111622 
L 338.750836 211.424182 
L 339.400145 292.471088 
L 340.049455 255.000256 
L 340.698764 279.020552 
L 341.348073 285.991184 
L 341.997382 239.417661 
L 342.646691 266.080787 
L 343.296 238.683694 
L 343.945309 240.215705 
L 344.594618 257.002905 
L 345.243927 282.572295 
L 345.893236 221.558312 
L 346.542545 286.280494 
L 347.191855 263.037898 
L 348.490473 227.427127 
L 349.139782 282.175569 
L 349.789091 286.462318 
L 350.4384 257.656176 
L 351.087709 294.476648 
L 351.737018 284.39671 
L 352.386327 288.224142 
L 353.035636 293.074177 
L 353.684945 234.511626 
L 354.334255 155.402179 
L 354.983564 210.362931 
L 355.632873 209.364479 
L 356.282182 292.935984 
L 357.5808 211.334826 
L 358.230109 278.33993 
L 358.879418 106.669017 
L 359.528727 282.004041 
L 360.178036 286.30064 
L 360.827345 234.020607 
L 361.476655 278.356775 
L 362.125964 294.637489 
L 362.775273 266.901627 
L 363.424582 293.992204 
L 364.7232 247.452796 
L 365.372509 290.09303 
L 366.021818 203.835875 
L 366.671127 285.834753 
L 367.320436 237.238081 
L 367.969745 294.164217 
L 369.268364 247.663046 
L 369.917673 230.403707 
L 370.566982 267.809805 
L 371.216291 280.62334 
L 371.8656 264.241744 
L 372.514909 235.936556 
L 373.164218 295.406031 
L 373.813527 120.373164 
L 374.462836 289.350234 
L 375.112145 285.96613 
L 375.761455 271.753778 
L 376.410764 249.248917 
L 377.060073 264.348992 
L 377.709382 223.0207 
L 378.358691 293.405937 
L 379.008 266.818488 
L 379.657309 222.496273 
L 380.306618 226.244722 
L 380.955927 271.286587 
L 381.605236 295.020197 
L 382.254545 264.699356 
L 382.903855 292.100278 
L 383.553164 234.639125 
L 384.202473 246.174862 
L 384.851782 251.793796 
L 385.501091 249.824161 
L 386.1504 267.047935 
L 386.799709 263.506457 
L 387.449018 213.271602 
L 388.098327 280.260141 
L 388.747636 209.93715 
L 389.396945 270.546002 
L 390.046255 174.815014 
L 390.695564 185.410671 
L 391.344873 271.867111 
L 391.994182 237.227058 
L 392.643491 231.154339 
L 393.2928 216.39252 
L 393.942109 285.524227 
L 394.591418 287.130368 
L 395.240727 273.87242 
L 395.890036 266.737545 
L 396.539345 275.228057 
L 397.188655 285.273466 
L 397.837964 245.923556 
L 398.487273 276.281053 
L 398.487273 276.281053 
" clip-path="url(#pbfb5d37a12)" style="fill: none; stroke: #1f77b4; stroke-width: 1.5; stroke-linecap: square"/>
   </g>
   <g id="patch_3">
    <path d="M 57.6 307.584 
L 57.6 41.472 
" style="fill: none; stroke: #000000; stroke-width: 0.8; stroke-linejoin: miter; stroke-linecap: square"/>
   </g>
   <g id="patch_4">
    <path d="M 414.72 307.584 
L 414.72 41.472 
" style="fill: none; stroke: #000000; stroke-width: 0.8; stroke-linejoin: miter; stroke-linecap: square"/>
   </g>
   <g id="patch_5">
    <path d="M 57.6 307.584 
L 414.72 307.584 
" style="fill: none; stroke: #000000; stroke-width: 0.8; stroke-linejoin: miter; stroke-linecap: square"/>
   </g>
   <g id="patch_6">
    <path d="M 57.6 41.472 
L 414.72 41.472 
" style="fill: none; stroke: #000000; stroke-width: 0.8; stroke-linejoin: miter; stroke-linecap: square"/>
   </g>
  </g>
 </g>
 <defs>
  <clipPath id="pbfb5d37a12">
   <rect x="57.6" y="41.472" width="357.12" height="266.112"/>
  </clipPath>
 </defs>
</svg>
