<?xml version="1.0" encoding="utf-8" standalone="no"?>
<!DOCTYPE svg PUBLIC "-//W3C//DTD SVG 1.1//EN"
  "http://www.w3.org/Graphics/SVG/1.1/DTD/svg11.dtd">
<svg xmlns:xlink="http://www.w3.org/1999/xlink" width="460.8pt" height="345.6pt" viewBox="0 0 460.8 345.6" xmlns="http://www.w3.org/2000/svg" version="1.1">
 <metadata>
  <rdf:RDF xmlns:dc="http://purl.org/dc/elements/1.1/" xmlns:cc="http://creativecommons.org/ns#" xmlns:rdf="http://www.w3.org/1999/02/22-rdf-syntax-ns#">
   <cc:Work>
    <dc:type rdf:resource="http://purl.org/dc/dcmitype/StillImage"/>
    <dc:date>2023-04-20T17:28:06.052838</dc:date>
    <dc:format>image/svg+xml</dc:format>
    <dc:creator>
     <cc:Agent>
      <dc:title>Matplotlib v3.5.2, https://matplotlib.org/</dc:title>
     </cc:Agent>
    </dc:creator>
   </cc:Work>
  </rdf:RDF>
 </metadata>
 <defs>
  <style type="text/css">*{stroke-linejoin: round; stroke-linecap: butt}</style>
 </defs>
 <g id="figure_1">
  <g id="patch_1">
   <path d="M 0 345.6 
L 460.8 345.6 
L 460.8 0 
L 0 0 
L 0 345.6 
z
" style="fill: none"/>
  </g>
  <g id="axes_1">
   <g id="patch_2">
    <path d="M 57.6 307.584 
L 414.72 307.584 
L 414.72 41.472 
L 57.6 41.472 
L 57.6 307.584 
z
" style="fill: none"/>
   </g>
   <g id="matplotlib.axis_1">
    <g id="xtick_1">
     <g id="line2d_1">
      <path d="M 73.832727 307.584 
L 73.832727 41.472 
" clip-path="url(#p34c1e9f9f4)" style="fill: none; stroke: #b0b0b0; stroke-width: 0.8; stroke-linecap: square"/>
     </g>
     <g id="line2d_2">
      <defs>
       <path id="m1e9aaac8c8" d="M 0 0 
L 0 3.5 
" style="stroke: #000000; stroke-width: 0.8"/>
      </defs>
      <g>
       <use xlink:href="#m1e9aaac8c8" x="73.832727" y="307.584" style="stroke: #000000; stroke-width: 0.8"/>
      </g>
     </g>
     <g id="text_1">
      <!-- 0 -->
      <g transform="translate(70.651477 322.182437)scale(0.1 -0.1)">
       <defs>
        <path id="DejaVuSans-30" d="M 2034 4250 
Q 1547 4250 1301 3770 
Q 1056 3291 1056 2328 
Q 1056 1369 1301 889 
Q 1547 409 2034 409 
Q 2525 409 2770 889 
Q 3016 1369 3016 2328 
Q 3016 3291 2770 3770 
Q 2525 4250 2034 4250 
z
M 2034 4750 
Q 2819 4750 3233 4129 
Q 3647 3509 3647 2328 
Q 3647 1150 3233 529 
Q 2819 -91 2034 -91 
Q 1250 -91 836 529 
Q 422 1150 422 2328 
Q 422 3509 836 4129 
Q 1250 4750 2034 4750 
z
" transform="scale(0.015625)"/>
       </defs>
       <use xlink:href="#DejaVuSans-30"/>
      </g>
     </g>
    </g>
    <g id="xtick_2">
     <g id="line2d_3">
      <path d="M 138.763636 307.584 
L 138.763636 41.472 
" clip-path="url(#p34c1e9f9f4)" style="fill: none; stroke: #b0b0b0; stroke-width: 0.8; stroke-linecap: square"/>
     </g>
     <g id="line2d_4">
      <g>
       <use xlink:href="#m1e9aaac8c8" x="138.763636" y="307.584" style="stroke: #000000; stroke-width: 0.8"/>
      </g>
     </g>
     <g id="text_2">
      <!-- 100 -->
      <g transform="translate(129.219886 322.182437)scale(0.1 -0.1)">
       <defs>
        <path id="DejaVuSans-31" d="M 794 531 
L 1825 531 
L 1825 4091 
L 703 3866 
L 703 4441 
L 1819 4666 
L 2450 4666 
L 2450 531 
L 3481 531 
L 3481 0 
L 794 0 
L 794 531 
z
" transform="scale(0.015625)"/>
       </defs>
       <use xlink:href="#DejaVuSans-31"/>
       <use xlink:href="#DejaVuSans-30" x="63.623047"/>
       <use xlink:href="#DejaVuSans-30" x="127.246094"/>
      </g>
     </g>
    </g>
    <g id="xtick_3">
     <g id="line2d_5">
      <path d="M 203.694545 307.584 
L 203.694545 41.472 
" clip-path="url(#p34c1e9f9f4)" style="fill: none; stroke: #b0b0b0; stroke-width: 0.8; stroke-linecap: square"/>
     </g>
     <g id="line2d_6">
      <g>
       <use xlink:href="#m1e9aaac8c8" x="203.694545" y="307.584" style="stroke: #000000; stroke-width: 0.8"/>
      </g>
     </g>
     <g id="text_3">
      <!-- 200 -->
      <g transform="translate(194.150795 322.182437)scale(0.1 -0.1)">
       <defs>
        <path id="DejaVuSans-32" d="M 1228 531 
L 3431 531 
L 3431 0 
L 469 0 
L 469 531 
Q 828 903 1448 1529 
Q 2069 2156 2228 2338 
Q 2531 2678 2651 2914 
Q 2772 3150 2772 3378 
Q 2772 3750 2511 3984 
Q 2250 4219 1831 4219 
Q 1534 4219 1204 4116 
Q 875 4013 500 3803 
L 500 4441 
Q 881 4594 1212 4672 
Q 1544 4750 1819 4750 
Q 2544 4750 2975 4387 
Q 3406 4025 3406 3419 
Q 3406 3131 3298 2873 
Q 3191 2616 2906 2266 
Q 2828 2175 2409 1742 
Q 1991 1309 1228 531 
z
" transform="scale(0.015625)"/>
       </defs>
       <use xlink:href="#DejaVuSans-32"/>
       <use xlink:href="#DejaVuSans-30" x="63.623047"/>
       <use xlink:href="#DejaVuSans-30" x="127.246094"/>
      </g>
     </g>
    </g>
    <g id="xtick_4">
     <g id="line2d_7">
      <path d="M 268.625455 307.584 
L 268.625455 41.472 
" clip-path="url(#p34c1e9f9f4)" style="fill: none; stroke: #b0b0b0; stroke-width: 0.8; stroke-linecap: square"/>
     </g>
     <g id="line2d_8">
      <g>
       <use xlink:href="#m1e9aaac8c8" x="268.625455" y="307.584" style="stroke: #000000; stroke-width: 0.8"/>
      </g>
     </g>
     <g id="text_4">
      <!-- 300 -->
      <g transform="translate(259.081705 322.182437)scale(0.1 -0.1)">
       <defs>
        <path id="DejaVuSans-33" d="M 2597 2516 
Q 3050 2419 3304 2112 
Q 3559 1806 3559 1356 
Q 3559 666 3084 287 
Q 2609 -91 1734 -91 
Q 1441 -91 1130 -33 
Q 819 25 488 141 
L 488 750 
Q 750 597 1062 519 
Q 1375 441 1716 441 
Q 2309 441 2620 675 
Q 2931 909 2931 1356 
Q 2931 1769 2642 2001 
Q 2353 2234 1838 2234 
L 1294 2234 
L 1294 2753 
L 1863 2753 
Q 2328 2753 2575 2939 
Q 2822 3125 2822 3475 
Q 2822 3834 2567 4026 
Q 2313 4219 1838 4219 
Q 1578 4219 1281 4162 
Q 984 4106 628 3988 
L 628 4550 
Q 988 4650 1302 4700 
Q 1616 4750 1894 4750 
Q 2613 4750 3031 4423 
Q 3450 4097 3450 3541 
Q 3450 3153 3228 2886 
Q 3006 2619 2597 2516 
z
" transform="scale(0.015625)"/>
       </defs>
       <use xlink:href="#DejaVuSans-33"/>
       <use xlink:href="#DejaVuSans-30" x="63.623047"/>
       <use xlink:href="#DejaVuSans-30" x="127.246094"/>
      </g>
     </g>
    </g>
    <g id="xtick_5">
     <g id="line2d_9">
      <path d="M 333.556364 307.584 
L 333.556364 41.472 
" clip-path="url(#p34c1e9f9f4)" style="fill: none; stroke: #b0b0b0; stroke-width: 0.8; stroke-linecap: square"/>
     </g>
     <g id="line2d_10">
      <g>
       <use xlink:href="#m1e9aaac8c8" x="333.556364" y="307.584" style="stroke: #000000; stroke-width: 0.8"/>
      </g>
     </g>
     <g id="text_5">
      <!-- 400 -->
      <g transform="translate(324.012614 322.182437)scale(0.1 -0.1)">
       <defs>
        <path id="DejaVuSans-34" d="M 2419 4116 
L 825 1625 
L 2419 1625 
L 2419 4116 
z
M 2253 4666 
L 3047 4666 
L 3047 1625 
L 3713 1625 
L 3713 1100 
L 3047 1100 
L 3047 0 
L 2419 0 
L 2419 1100 
L 313 1100 
L 313 1709 
L 2253 4666 
z
" transform="scale(0.015625)"/>
       </defs>
       <use xlink:href="#DejaVuSans-34"/>
       <use xlink:href="#DejaVuSans-30" x="63.623047"/>
       <use xlink:href="#DejaVuSans-30" x="127.246094"/>
      </g>
     </g>
    </g>
    <g id="xtick_6">
     <g id="line2d_11">
      <path d="M 398.487273 307.584 
L 398.487273 41.472 
" clip-path="url(#p34c1e9f9f4)" style="fill: none; stroke: #b0b0b0; stroke-width: 0.8; stroke-linecap: square"/>
     </g>
     <g id="line2d_12">
      <g>
       <use xlink:href="#m1e9aaac8c8" x="398.487273" y="307.584" style="stroke: #000000; stroke-width: 0.8"/>
      </g>
     </g>
     <g id="text_6">
      <!-- 500 -->
      <g transform="translate(388.943523 322.182437)scale(0.1 -0.1)">
       <defs>
        <path id="DejaVuSans-35" d="M 691 4666 
L 3169 4666 
L 3169 4134 
L 1269 4134 
L 1269 2991 
Q 1406 3038 1543 3061 
Q 1681 3084 1819 3084 
Q 2600 3084 3056 2656 
Q 3513 2228 3513 1497 
Q 3513 744 3044 326 
Q 2575 -91 1722 -91 
Q 1428 -91 1123 -41 
Q 819 9 494 109 
L 494 744 
Q 775 591 1075 516 
Q 1375 441 1709 441 
Q 2250 441 2565 725 
Q 2881 1009 2881 1497 
Q 2881 1984 2565 2268 
Q 2250 2553 1709 2553 
Q 1456 2553 1204 2497 
Q 953 2441 691 2322 
L 691 4666 
z
" transform="scale(0.015625)"/>
       </defs>
       <use xlink:href="#DejaVuSans-35"/>
       <use xlink:href="#DejaVuSans-30" x="63.623047"/>
       <use xlink:href="#DejaVuSans-30" x="127.246094"/>
      </g>
     </g>
    </g>
    <g id="text_7">
     <!-- freq. index -->
     <g transform="translate(209.3475 335.860562)scale(0.1 -0.1)">
      <defs>
       <path id="DejaVuSans-66" d="M 2375 4863 
L 2375 4384 
L 1825 4384 
Q 1516 4384 1395 4259 
Q 1275 4134 1275 3809 
L 1275 3500 
L 2222 3500 
L 2222 3053 
L 1275 3053 
L 1275 0 
L 697 0 
L 697 3053 
L 147 3053 
L 147 3500 
L 697 3500 
L 697 3744 
Q 697 4328 969 4595 
Q 1241 4863 1831 4863 
L 2375 4863 
z
" transform="scale(0.015625)"/>
       <path id="DejaVuSans-72" d="M 2631 2963 
Q 2534 3019 2420 3045 
Q 2306 3072 2169 3072 
Q 1681 3072 1420 2755 
Q 1159 2438 1159 1844 
L 1159 0 
L 581 0 
L 581 3500 
L 1159 3500 
L 1159 2956 
Q 1341 3275 1631 3429 
Q 1922 3584 2338 3584 
Q 2397 3584 2469 3576 
Q 2541 3569 2628 3553 
L 2631 2963 
z
" transform="scale(0.015625)"/>
       <path id="DejaVuSans-65" d="M 3597 1894 
L 3597 1613 
L 953 1613 
Q 991 1019 1311 708 
Q 1631 397 2203 397 
Q 2534 397 2845 478 
Q 3156 559 3463 722 
L 3463 178 
Q 3153 47 2828 -22 
Q 2503 -91 2169 -91 
Q 1331 -91 842 396 
Q 353 884 353 1716 
Q 353 2575 817 3079 
Q 1281 3584 2069 3584 
Q 2775 3584 3186 3129 
Q 3597 2675 3597 1894 
z
M 3022 2063 
Q 3016 2534 2758 2815 
Q 2500 3097 2075 3097 
Q 1594 3097 1305 2825 
Q 1016 2553 972 2059 
L 3022 2063 
z
" transform="scale(0.015625)"/>
       <path id="DejaVuSans-71" d="M 947 1747 
Q 947 1113 1208 752 
Q 1469 391 1925 391 
Q 2381 391 2643 752 
Q 2906 1113 2906 1747 
Q 2906 2381 2643 2742 
Q 2381 3103 1925 3103 
Q 1469 3103 1208 2742 
Q 947 2381 947 1747 
z
M 2906 525 
Q 2725 213 2448 61 
Q 2172 -91 1784 -91 
Q 1150 -91 751 415 
Q 353 922 353 1747 
Q 353 2572 751 3078 
Q 1150 3584 1784 3584 
Q 2172 3584 2448 3432 
Q 2725 3281 2906 2969 
L 2906 3500 
L 3481 3500 
L 3481 -1331 
L 2906 -1331 
L 2906 525 
z
" transform="scale(0.015625)"/>
       <path id="DejaVuSans-2e" d="M 684 794 
L 1344 794 
L 1344 0 
L 684 0 
L 684 794 
z
" transform="scale(0.015625)"/>
       <path id="DejaVuSans-20" transform="scale(0.015625)"/>
       <path id="DejaVuSans-69" d="M 603 3500 
L 1178 3500 
L 1178 0 
L 603 0 
L 603 3500 
z
M 603 4863 
L 1178 4863 
L 1178 4134 
L 603 4134 
L 603 4863 
z
" transform="scale(0.015625)"/>
       <path id="DejaVuSans-6e" d="M 3513 2113 
L 3513 0 
L 2938 0 
L 2938 2094 
Q 2938 2591 2744 2837 
Q 2550 3084 2163 3084 
Q 1697 3084 1428 2787 
Q 1159 2491 1159 1978 
L 1159 0 
L 581 0 
L 581 3500 
L 1159 3500 
L 1159 2956 
Q 1366 3272 1645 3428 
Q 1925 3584 2291 3584 
Q 2894 3584 3203 3211 
Q 3513 2838 3513 2113 
z
" transform="scale(0.015625)"/>
       <path id="DejaVuSans-64" d="M 2906 2969 
L 2906 4863 
L 3481 4863 
L 3481 0 
L 2906 0 
L 2906 525 
Q 2725 213 2448 61 
Q 2172 -91 1784 -91 
Q 1150 -91 751 415 
Q 353 922 353 1747 
Q 353 2572 751 3078 
Q 1150 3584 1784 3584 
Q 2172 3584 2448 3432 
Q 2725 3281 2906 2969 
z
M 947 1747 
Q 947 1113 1208 752 
Q 1469 391 1925 391 
Q 2381 391 2643 752 
Q 2906 1113 2906 1747 
Q 2906 2381 2643 2742 
Q 2381 3103 1925 3103 
Q 1469 3103 1208 2742 
Q 947 2381 947 1747 
z
" transform="scale(0.015625)"/>
       <path id="DejaVuSans-78" d="M 3513 3500 
L 2247 1797 
L 3578 0 
L 2900 0 
L 1881 1375 
L 863 0 
L 184 0 
L 1544 1831 
L 300 3500 
L 978 3500 
L 1906 2253 
L 2834 3500 
L 3513 3500 
z
" transform="scale(0.015625)"/>
      </defs>
      <use xlink:href="#DejaVuSans-66"/>
      <use xlink:href="#DejaVuSans-72" x="35.205078"/>
      <use xlink:href="#DejaVuSans-65" x="74.068359"/>
      <use xlink:href="#DejaVuSans-71" x="135.591797"/>
      <use xlink:href="#DejaVuSans-2e" x="199.068359"/>
      <use xlink:href="#DejaVuSans-20" x="230.855469"/>
      <use xlink:href="#DejaVuSans-69" x="262.642578"/>
      <use xlink:href="#DejaVuSans-6e" x="290.425781"/>
      <use xlink:href="#DejaVuSans-64" x="353.804688"/>
      <use xlink:href="#DejaVuSans-65" x="417.28125"/>
      <use xlink:href="#DejaVuSans-78" x="477.054688"/>
     </g>
    </g>
   </g>
   <g id="matplotlib.axis_2">
    <g id="ytick_1">
     <g id="line2d_13">
      <path d="M 57.6 295.488 
L 414.72 295.488 
" clip-path="url(#p34c1e9f9f4)" style="fill: none; stroke: #b0b0b0; stroke-width: 0.8; stroke-linecap: square"/>
     </g>
     <g id="line2d_14">
      <defs>
       <path id="m78376c0d18" d="M 0 0 
L -3.5 0 
" style="stroke: #000000; stroke-width: 0.8"/>
      </defs>
      <g>
       <use xlink:href="#m78376c0d18" x="57.6" y="295.488" style="stroke: #000000; stroke-width: 0.8"/>
      </g>
     </g>
     <g id="text_8">
      <!-- 0 -->
      <g transform="translate(44.2375 299.287219)scale(0.1 -0.1)">
       <use xlink:href="#DejaVuSans-30"/>
      </g>
     </g>
    </g>
    <g id="ytick_2">
     <g id="line2d_15">
      <path d="M 57.6 252.172115 
L 414.72 252.172115 
" clip-path="url(#p34c1e9f9f4)" style="fill: none; stroke: #b0b0b0; stroke-width: 0.8; stroke-linecap: square"/>
     </g>
     <g id="line2d_16">
      <g>
       <use xlink:href="#m78376c0d18" x="57.6" y="252.172115" style="stroke: #000000; stroke-width: 0.8"/>
      </g>
     </g>
     <g id="text_9">
      <!-- 2 -->
      <g transform="translate(44.2375 255.971334)scale(0.1 -0.1)">
       <use xlink:href="#DejaVuSans-32"/>
      </g>
     </g>
    </g>
    <g id="ytick_3">
     <g id="line2d_17">
      <path d="M 57.6 208.85623 
L 414.72 208.85623 
" clip-path="url(#p34c1e9f9f4)" style="fill: none; stroke: #b0b0b0; stroke-width: 0.8; stroke-linecap: square"/>
     </g>
     <g id="line2d_18">
      <g>
       <use xlink:href="#m78376c0d18" x="57.6" y="208.85623" style="stroke: #000000; stroke-width: 0.8"/>
      </g>
     </g>
     <g id="text_10">
      <!-- 4 -->
      <g transform="translate(44.2375 212.655449)scale(0.1 -0.1)">
       <use xlink:href="#DejaVuSans-34"/>
      </g>
     </g>
    </g>
    <g id="ytick_4">
     <g id="line2d_19">
      <path d="M 57.6 165.540345 
L 414.72 165.540345 
" clip-path="url(#p34c1e9f9f4)" style="fill: none; stroke: #b0b0b0; stroke-width: 0.8; stroke-linecap: square"/>
     </g>
     <g id="line2d_20">
      <g>
       <use xlink:href="#m78376c0d18" x="57.6" y="165.540345" style="stroke: #000000; stroke-width: 0.8"/>
      </g>
     </g>
     <g id="text_11">
      <!-- 6 -->
      <g transform="translate(44.2375 169.339564)scale(0.1 -0.1)">
       <defs>
        <path id="DejaVuSans-36" d="M 2113 2584 
Q 1688 2584 1439 2293 
Q 1191 2003 1191 1497 
Q 1191 994 1439 701 
Q 1688 409 2113 409 
Q 2538 409 2786 701 
Q 3034 994 3034 1497 
Q 3034 2003 2786 2293 
Q 2538 2584 2113 2584 
z
M 3366 4563 
L 3366 3988 
Q 3128 4100 2886 4159 
Q 2644 4219 2406 4219 
Q 1781 4219 1451 3797 
Q 1122 3375 1075 2522 
Q 1259 2794 1537 2939 
Q 1816 3084 2150 3084 
Q 2853 3084 3261 2657 
Q 3669 2231 3669 1497 
Q 3669 778 3244 343 
Q 2819 -91 2113 -91 
Q 1303 -91 875 529 
Q 447 1150 447 2328 
Q 447 3434 972 4092 
Q 1497 4750 2381 4750 
Q 2619 4750 2861 4703 
Q 3103 4656 3366 4563 
z
" transform="scale(0.015625)"/>
       </defs>
       <use xlink:href="#DejaVuSans-36"/>
      </g>
     </g>
    </g>
    <g id="ytick_5">
     <g id="line2d_21">
      <path d="M 57.6 122.22446 
L 414.72 122.22446 
" clip-path="url(#p34c1e9f9f4)" style="fill: none; stroke: #b0b0b0; stroke-width: 0.8; stroke-linecap: square"/>
     </g>
     <g id="line2d_22">
      <g>
       <use xlink:href="#m78376c0d18" x="57.6" y="122.22446" style="stroke: #000000; stroke-width: 0.8"/>
      </g>
     </g>
     <g id="text_12">
      <!-- 8 -->
      <g transform="translate(44.2375 126.023679)scale(0.1 -0.1)">
       <defs>
        <path id="DejaVuSans-38" d="M 2034 2216 
Q 1584 2216 1326 1975 
Q 1069 1734 1069 1313 
Q 1069 891 1326 650 
Q 1584 409 2034 409 
Q 2484 409 2743 651 
Q 3003 894 3003 1313 
Q 3003 1734 2745 1975 
Q 2488 2216 2034 2216 
z
M 1403 2484 
Q 997 2584 770 2862 
Q 544 3141 544 3541 
Q 544 4100 942 4425 
Q 1341 4750 2034 4750 
Q 2731 4750 3128 4425 
Q 3525 4100 3525 3541 
Q 3525 3141 3298 2862 
Q 3072 2584 2669 2484 
Q 3125 2378 3379 2068 
Q 3634 1759 3634 1313 
Q 3634 634 3220 271 
Q 2806 -91 2034 -91 
Q 1263 -91 848 271 
Q 434 634 434 1313 
Q 434 1759 690 2068 
Q 947 2378 1403 2484 
z
M 1172 3481 
Q 1172 3119 1398 2916 
Q 1625 2713 2034 2713 
Q 2441 2713 2670 2916 
Q 2900 3119 2900 3481 
Q 2900 3844 2670 4047 
Q 2441 4250 2034 4250 
Q 1625 4250 1398 4047 
Q 1172 3844 1172 3481 
z
" transform="scale(0.015625)"/>
       </defs>
       <use xlink:href="#DejaVuSans-38"/>
      </g>
     </g>
    </g>
    <g id="ytick_6">
     <g id="line2d_23">
      <path d="M 57.6 78.908575 
L 414.72 78.908575 
" clip-path="url(#p34c1e9f9f4)" style="fill: none; stroke: #b0b0b0; stroke-width: 0.8; stroke-linecap: square"/>
     </g>
     <g id="line2d_24">
      <g>
       <use xlink:href="#m78376c0d18" x="57.6" y="78.908575" style="stroke: #000000; stroke-width: 0.8"/>
      </g>
     </g>
     <g id="text_13">
      <!-- 10 -->
      <g transform="translate(37.875 82.707793)scale(0.1 -0.1)">
       <use xlink:href="#DejaVuSans-31"/>
       <use xlink:href="#DejaVuSans-30" x="63.623047"/>
      </g>
     </g>
    </g>
    <g id="text_14">
     <!-- $I$ -->
     <g transform="translate(31.795313 176.028)rotate(-90)scale(0.1 -0.1)">
      <defs>
       <path id="DejaVuSans-Oblique-49" d="M 1081 4666 
L 1716 4666 
L 806 0 
L 172 0 
L 1081 4666 
z
" transform="scale(0.015625)"/>
      </defs>
      <use xlink:href="#DejaVuSans-Oblique-49" transform="translate(0 0.09375)"/>
     </g>
    </g>
   </g>
   <g id="line2d_25">
    <path d="M 73.832727 295.488 
L 74.482036 294.414892 
L 75.131345 237.949111 
L 75.780655 270.621143 
L 76.429964 269.718111 
L 77.079273 252.652273 
L 77.728582 266.779635 
L 78.377891 247.202272 
L 79.0272 293.784435 
L 79.676509 295.135326 
L 80.325818 289.535546 
L 80.975127 285.160766 
L 82.273745 262.603727 
L 82.923055 277.854927 
L 83.572364 250.251809 
L 84.221673 275.305714 
L 84.870982 266.412404 
L 85.520291 191.841543 
L 86.1696 276.943437 
L 86.818909 209.070669 
L 87.468218 242.805817 
L 88.766836 282.505694 
L 89.416145 192.369994 
L 90.065455 289.934935 
L 90.714764 222.93209 
L 91.364073 293.994768 
L 92.013382 257.70213 
L 92.662691 291.763498 
L 93.312 284.665649 
L 93.961309 224.861135 
L 94.610618 243.509698 
L 95.259927 229.985194 
L 95.909236 229.92746 
L 96.558545 260.135264 
L 97.207855 249.124926 
L 97.857164 293.635127 
L 98.506473 210.578383 
L 99.155782 278.953341 
L 99.805091 251.207631 
L 100.4544 294.970224 
L 101.103709 231.642169 
L 101.753018 263.887909 
L 102.402327 234.444305 
L 103.051636 274.244019 
L 103.700945 283.148288 
L 104.350255 266.672204 
L 104.999564 147.490082 
L 105.648873 267.756869 
L 106.298182 242.378002 
L 106.947491 255.528698 
L 107.5968 264.012509 
L 108.246109 287.812536 
L 108.895418 203.883374 
L 109.544727 282.124825 
L 110.194036 295.1472 
L 110.843345 212.355345 
L 111.492655 276.454744 
L 112.141964 282.788963 
L 112.791273 218.427815 
L 113.440582 189.223086 
L 114.089891 281.396535 
L 114.7392 272.465522 
L 115.388509 267.414517 
L 116.037818 245.055172 
L 116.687127 246.861479 
L 117.336436 276.070438 
L 117.985745 290.992407 
L 118.635055 294.498839 
L 119.284364 280.99351 
L 119.933673 204.462549 
L 120.582982 281.061862 
L 121.232291 214.511413 
L 121.8816 266.590994 
L 122.530909 280.189592 
L 123.180218 187.912247 
L 123.829527 254.828657 
L 124.478836 294.163663 
L 125.128145 239.323734 
L 125.777455 266.199231 
L 126.426764 266.277777 
L 127.076073 239.903331 
L 127.725382 246.312011 
L 128.374691 263.141593 
L 129.024 264.080319 
L 129.673309 287.694825 
L 130.322618 284.015663 
L 130.971927 244.400219 
L 131.621236 277.179235 
L 132.270545 199.27327 
L 132.919855 224.503683 
L 133.569164 290.267753 
L 134.218473 284.357592 
L 134.867782 252.059222 
L 135.517091 273.360713 
L 136.1664 241.74112 
L 136.815709 285.284449 
L 137.465018 291.265667 
L 138.114327 251.973351 
L 138.763636 276.550369 
L 140.062255 188.248731 
L 140.711564 201.071131 
L 141.360873 198.670981 
L 142.010182 185.088174 
L 142.659491 246.263241 
L 143.3088 278.146216 
L 143.958109 137.00396 
L 144.607418 285.877159 
L 145.256727 246.857724 
L 145.906036 246.799813 
L 146.555345 215.751445 
L 147.204655 227.762019 
L 147.853964 252.283282 
L 148.503273 263.036313 
L 149.152582 225.333555 
L 149.801891 294.607436 
L 150.4512 256.991533 
L 151.100509 268.120218 
L 151.749818 272.866358 
L 152.399127 278.73981 
L 153.048436 243.417794 
L 153.697745 123.391976 
L 154.347055 271.442964 
L 154.996364 295.215631 
L 155.645673 233.692545 
L 156.294982 235.951899 
L 156.944291 288.76407 
L 157.5936 281.264896 
L 158.242909 200.370376 
L 158.892218 275.963191 
L 159.541527 254.201208 
L 160.190836 291.244736 
L 160.840145 255.175093 
L 161.489455 233.598894 
L 162.138764 268.388173 
L 162.788073 160.716546 
L 163.437382 262.091089 
L 164.086691 261.107152 
L 164.736 273.496374 
L 165.385309 264.105074 
L 166.034618 244.284043 
L 166.683927 278.73331 
L 167.333236 258.453264 
L 167.982545 219.858658 
L 168.631855 147.38783 
L 169.281164 286.12084 
L 169.930473 282.722624 
L 170.579782 249.930684 
L 171.229091 237.492212 
L 171.8784 227.973413 
L 172.527709 199.137695 
L 173.177018 205.957256 
L 173.826327 289.303323 
L 174.475636 238.439164 
L 175.124945 292.93569 
L 175.774255 266.94492 
L 176.423564 279.536557 
L 177.072873 257.524328 
L 177.722182 239.559751 
L 178.371491 287.7085 
L 179.0208 172.498847 
L 179.670109 244.885966 
L 180.319418 269.807856 
L 180.968727 162.805182 
L 181.618036 287.527002 
L 182.267345 278.91469 
L 182.916655 295.06772 
L 183.565964 238.759577 
L 184.215273 234.811813 
L 184.864582 263.859904 
L 185.513891 250.809748 
L 186.1632 126.507972 
L 187.461818 258.987372 
L 188.111127 295.235627 
L 188.760436 289.841024 
L 189.409745 281.208307 
L 190.059055 276.491115 
L 190.708364 231.518324 
L 191.357673 210.336117 
L 192.006982 249.054572 
L 192.656291 242.300151 
L 193.3056 292.916497 
L 193.954909 154.45914 
L 194.604218 275.75878 
L 195.253527 265.505911 
L 195.902836 275.961381 
L 196.552145 289.520051 
L 197.201455 172.28447 
L 197.850764 289.792107 
L 198.500073 256.218314 
L 199.149382 249.443264 
L 199.798691 274.740188 
L 200.448 286.237763 
L 201.097309 279.332994 
L 202.395927 202.352007 
L 203.045236 280.800858 
L 203.694545 173.827752 
L 204.343855 280.26984 
L 204.993164 222.067687 
L 205.642473 241.580079 
L 206.291782 251.695419 
L 206.941091 272.290163 
L 207.5904 264.622511 
L 208.239709 277.371715 
L 208.889018 265.899491 
L 209.538327 288.019297 
L 210.836945 223.537967 
L 211.486255 133.764848 
L 212.135564 241.022098 
L 212.784873 232.450158 
L 213.434182 230.419131 
L 214.083491 288.597568 
L 214.7328 242.351821 
L 215.382109 269.793406 
L 216.031418 287.256126 
L 216.680727 250.976754 
L 217.330036 179.697738 
L 217.979345 268.826722 
L 218.628655 250.63414 
L 219.277964 273.503485 
L 219.927273 212.121478 
L 220.576582 230.458879 
L 221.225891 210.493792 
L 221.8752 246.372238 
L 222.524509 263.93997 
L 223.173818 250.403199 
L 223.823127 226.813231 
L 224.472436 190.537569 
L 225.121745 274.033324 
L 225.771055 268.499844 
L 226.420364 242.67209 
L 227.069673 206.423131 
L 227.718982 181.786126 
L 228.368291 288.96038 
L 229.0176 232.979915 
L 229.666909 276.340683 
L 230.316218 133.480998 
L 230.965527 289.886448 
L 231.614836 284.318729 
L 232.264145 265.854371 
L 232.913455 241.130442 
L 233.562764 249.64285 
L 234.212073 288.184023 
L 234.861382 206.00155 
L 235.510691 190.507752 
L 236.16 268.945358 
L 236.809309 288.260995 
L 237.458618 283.780941 
L 238.107927 282.90052 
L 238.757236 281.101198 
L 239.406545 227.970397 
L 240.055855 194.189346 
L 240.705164 257.889599 
L 241.354473 290.752104 
L 242.003782 262.564975 
L 242.653091 246.823778 
L 243.3024 284.058815 
L 243.951709 283.407387 
L 244.601018 274.13409 
L 245.250327 294.305012 
L 245.899636 285.666354 
L 246.548945 197.503077 
L 247.198255 206.162501 
L 247.847564 240.467211 
L 248.496873 289.793528 
L 249.146182 254.394686 
L 249.795491 294.239741 
L 250.4448 85.474465 
L 251.094109 177.010813 
L 251.743418 293.698912 
L 252.392727 263.968124 
L 253.042036 258.244877 
L 253.691345 102.425856 
L 254.340655 216.912908 
L 254.989964 262.505707 
L 255.639273 248.243528 
L 256.288582 269.685026 
L 256.937891 208.537375 
L 257.5872 229.301728 
L 258.236509 240.329973 
L 258.885818 256.554081 
L 259.535127 202.639919 
L 260.184436 287.312474 
L 260.833745 268.496614 
L 261.483055 242.956626 
L 262.132364 229.413518 
L 262.781673 281.797692 
L 263.430982 179.050349 
L 264.080291 261.70978 
L 264.7296 293.332979 
L 265.378909 223.3886 
L 266.028218 283.879384 
L 267.326836 127.074768 
L 267.976145 236.00483 
L 268.625455 137.196035 
L 269.274764 276.394724 
L 269.924073 129.52929 
L 270.573382 257.425462 
L 271.222691 220.485761 
L 271.872 256.240558 
L 272.521309 269.555425 
L 273.170618 235.876802 
L 273.819927 180.890338 
L 274.469236 275.672679 
L 275.118545 53.568 
L 275.767855 203.251099 
L 276.417164 291.636151 
L 277.066473 294.946397 
L 277.715782 288.419266 
L 278.365091 279.154065 
L 279.0144 289.632249 
L 279.663709 249.4142 
L 280.313018 247.666852 
L 280.962327 270.953488 
L 281.611636 126.470896 
L 282.260945 182.706814 
L 282.910255 228.180454 
L 283.559564 170.117364 
L 284.858182 289.395649 
L 285.507491 253.050168 
L 286.1568 284.741996 
L 286.806109 276.688125 
L 287.455418 289.40264 
L 288.104727 278.617415 
L 288.754036 261.71737 
L 289.403345 235.780428 
L 290.052655 238.967397 
L 290.701964 161.7944 
L 291.351273 292.068964 
L 292.000582 262.748443 
L 292.649891 238.605988 
L 293.2992 288.653846 
L 293.948509 215.972388 
L 294.597818 255.513275 
L 295.247127 227.905301 
L 295.896436 288.556776 
L 296.545745 267.168562 
L 297.195055 293.397963 
L 297.844364 278.666372 
L 298.493673 282.062842 
L 299.142982 234.081692 
L 299.792291 273.696515 
L 300.4416 266.252767 
L 301.090909 282.987354 
L 301.740218 289.073895 
L 302.389527 283.703614 
L 303.038836 196.21779 
L 303.688145 269.34774 
L 304.337455 274.847883 
L 304.986764 83.880437 
L 305.636073 275.152062 
L 306.285382 251.389736 
L 306.934691 203.956033 
L 307.584 286.694829 
L 308.882618 225.686609 
L 309.531927 232.465716 
L 310.181236 290.730817 
L 310.830545 289.726268 
L 311.479855 220.745417 
L 312.129164 281.458214 
L 312.778473 286.818879 
L 313.427782 285.252293 
L 314.077091 286.778473 
L 314.7264 246.701429 
L 315.375709 263.218261 
L 316.025018 262.951185 
L 316.674327 260.060848 
L 317.323636 217.783515 
L 317.972945 208.61972 
L 319.271564 287.283892 
L 319.920873 241.046448 
L 320.570182 285.685345 
L 321.219491 286.845622 
L 321.8688 241.966714 
L 322.518109 288.900019 
L 323.167418 294.601143 
L 323.816727 283.387926 
L 324.466036 262.13153 
L 325.115345 160.499325 
L 325.764655 295.187418 
L 326.413964 271.220506 
L 327.063273 196.977449 
L 327.712582 154.654807 
L 328.361891 244.710708 
L 329.0112 210.699819 
L 329.660509 268.50748 
L 330.309818 261.424679 
L 330.959127 280.08931 
L 331.608436 258.628412 
L 332.257745 268.955259 
L 332.907055 269.567348 
L 333.556364 293.004398 
L 334.205673 240.646773 
L 334.854982 239.852136 
L 335.504291 221.44954 
L 336.1536 291.358402 
L 336.802909 269.435488 
L 337.452218 282.384396 
L 338.101527 237.851109 
L 338.750836 275.944929 
L 339.400145 227.093124 
L 340.049455 223.992673 
L 340.698764 257.558433 
L 341.348073 244.379274 
L 341.997382 280.133593 
L 342.646691 288.577727 
L 343.296 241.164195 
L 343.945309 262.630833 
L 344.594618 208.679467 
L 345.243927 186.981497 
L 345.893236 287.897782 
L 346.542545 294.969308 
L 347.191855 274.987864 
L 347.841164 219.898669 
L 348.490473 279.171395 
L 349.139782 250.229484 
L 349.789091 278.497869 
L 350.4384 163.585459 
L 351.087709 279.404761 
L 351.737018 250.897163 
L 352.386327 288.559794 
L 353.035636 276.04013 
L 353.684945 254.39768 
L 354.334255 239.453157 
L 354.983564 245.24973 
L 355.632873 142.644798 
L 356.282182 269.194115 
L 356.931491 283.545553 
L 357.5808 275.64051 
L 358.230109 289.877015 
L 358.879418 277.133995 
L 359.528727 278.867231 
L 360.178036 217.535551 
L 360.827345 222.28276 
L 361.476655 223.322043 
L 362.125964 269.316073 
L 362.775273 173.010363 
L 363.424582 287.483648 
L 364.073891 287.569249 
L 364.7232 262.967123 
L 365.372509 283.103619 
L 366.021818 291.222475 
L 366.671127 287.095572 
L 367.320436 272.114656 
L 367.969745 243.635462 
L 368.619055 154.022759 
L 369.268364 265.282623 
L 369.917673 283.9597 
L 370.566982 231.05511 
L 371.216291 281.334503 
L 371.8656 272.404055 
L 372.514909 287.994547 
L 373.164218 276.147398 
L 373.813527 246.009309 
L 374.462836 170.790999 
L 375.112145 270.569909 
L 375.761455 242.989349 
L 376.410764 287.349287 
L 377.060073 245.11769 
L 377.709382 212.42701 
L 378.358691 233.49133 
L 379.008 245.488642 
L 379.657309 289.979304 
L 380.306618 277.511321 
L 380.955927 254.583309 
L 381.605236 280.93157 
L 382.254545 258.376398 
L 382.903855 271.590732 
L 383.553164 223.54621 
L 384.202473 240.00181 
L 384.851782 287.978118 
L 385.501091 270.313633 
L 386.1504 246.440205 
L 386.799709 294.021129 
L 387.449018 266.697527 
L 388.098327 264.896355 
L 388.747636 280.522398 
L 389.396945 255.532065 
L 390.046255 249.979523 
L 390.695564 292.573295 
L 391.344873 270.164957 
L 391.994182 232.893228 
L 392.643491 275.180727 
L 393.2928 262.86084 
L 393.942109 287.57321 
L 394.591418 285.372691 
L 395.240727 233.090986 
L 395.890036 278.08305 
L 396.539345 287.812323 
L 397.188655 287.255608 
L 397.837964 222.977213 
L 398.487273 287.855273 
L 398.487273 287.855273 
" clip-path="url(#p34c1e9f9f4)" style="fill: none; stroke: #1f77b4; stroke-width: 1.5; stroke-linecap: square"/>
   </g>
   <g id="patch_3">
    <path d="M 57.6 307.584 
L 57.6 41.472 
" style="fill: none; stroke: #000000; stroke-width: 0.8; stroke-linejoin: miter; stroke-linecap: square"/>
   </g>
   <g id="patch_4">
    <path d="M 414.72 307.584 
L 414.72 41.472 
" style="fill: none; stroke: #000000; stroke-width: 0.8; stroke-linejoin: miter; stroke-linecap: square"/>
   </g>
   <g id="patch_5">
    <path d="M 57.6 307.584 
L 414.72 307.584 
" style="fill: none; stroke: #000000; stroke-width: 0.8; stroke-linejoin: miter; stroke-linecap: square"/>
   </g>
   <g id="patch_6">
    <path d="M 57.6 41.472 
L 414.72 41.472 
" style="fill: none; stroke: #000000; stroke-width: 0.8; stroke-linejoin: miter; stroke-linecap: square"/>
   </g>
  </g>
 </g>
 <defs>
  <clipPath id="p34c1e9f9f4">
   <rect x="57.6" y="41.472" width="357.12" height="266.112"/>
  </clipPath>
 </defs>
</svg>
