<?xml version="1.0" encoding="utf-8" standalone="no"?>
<!DOCTYPE svg PUBLIC "-//W3C//DTD SVG 1.1//EN"
  "http://www.w3.org/Graphics/SVG/1.1/DTD/svg11.dtd">
<svg xmlns:xlink="http://www.w3.org/1999/xlink" width="460.8pt" height="345.6pt" viewBox="0 0 460.8 345.6" xmlns="http://www.w3.org/2000/svg" version="1.1">
 <metadata>
  <rdf:RDF xmlns:dc="http://purl.org/dc/elements/1.1/" xmlns:cc="http://creativecommons.org/ns#" xmlns:rdf="http://www.w3.org/1999/02/22-rdf-syntax-ns#">
   <cc:Work>
    <dc:type rdf:resource="http://purl.org/dc/dcmitype/StillImage"/>
    <dc:date>2023-04-27T17:24:47.351982</dc:date>
    <dc:format>image/svg+xml</dc:format>
    <dc:creator>
     <cc:Agent>
      <dc:title>Matplotlib v3.5.2, https://matplotlib.org/</dc:title>
     </cc:Agent>
    </dc:creator>
   </cc:Work>
  </rdf:RDF>
 </metadata>
 <defs>
  <style type="text/css">*{stroke-linejoin: round; stroke-linecap: butt}</style>
 </defs>
 <g id="figure_1">
  <g id="patch_1">
   <path d="M 0 345.6 
L 460.8 345.6 
L 460.8 0 
L 0 0 
L 0 345.6 
z
" style="fill: none"/>
  </g>
  <g id="axes_1">
   <g id="patch_2">
    <path d="M 57.6 307.584 
L 414.72 307.584 
L 414.72 41.472 
L 57.6 41.472 
L 57.6 307.584 
z
" style="fill: none"/>
   </g>
   <g id="matplotlib.axis_1">
    <g id="xtick_1">
     <g id="line2d_1">
      <path d="M 73.832727 307.584 
L 73.832727 41.472 
" clip-path="url(#pa149988fb7)" style="fill: none; stroke: #b0b0b0; stroke-width: 0.8; stroke-linecap: square"/>
     </g>
     <g id="line2d_2">
      <defs>
       <path id="m02d16fbae8" d="M 0 0 
L 0 3.5 
" style="stroke: #000000; stroke-width: 0.8"/>
      </defs>
      <g>
       <use xlink:href="#m02d16fbae8" x="73.832727" y="307.584" style="stroke: #000000; stroke-width: 0.8"/>
      </g>
     </g>
     <g id="text_1">
      <!-- 0 -->
      <g transform="translate(70.651477 322.182437)scale(0.1 -0.1)">
       <defs>
        <path id="DejaVuSans-30" d="M 2034 4250 
Q 1547 4250 1301 3770 
Q 1056 3291 1056 2328 
Q 1056 1369 1301 889 
Q 1547 409 2034 409 
Q 2525 409 2770 889 
Q 3016 1369 3016 2328 
Q 3016 3291 2770 3770 
Q 2525 4250 2034 4250 
z
M 2034 4750 
Q 2819 4750 3233 4129 
Q 3647 3509 3647 2328 
Q 3647 1150 3233 529 
Q 2819 -91 2034 -91 
Q 1250 -91 836 529 
Q 422 1150 422 2328 
Q 422 3509 836 4129 
Q 1250 4750 2034 4750 
z
" transform="scale(0.015625)"/>
       </defs>
       <use xlink:href="#DejaVuSans-30"/>
      </g>
     </g>
    </g>
    <g id="xtick_2">
     <g id="line2d_3">
      <path d="M 138.828632 307.584 
L 138.828632 41.472 
" clip-path="url(#pa149988fb7)" style="fill: none; stroke: #b0b0b0; stroke-width: 0.8; stroke-linecap: square"/>
     </g>
     <g id="line2d_4">
      <g>
       <use xlink:href="#m02d16fbae8" x="138.828632" y="307.584" style="stroke: #000000; stroke-width: 0.8"/>
      </g>
     </g>
     <g id="text_2">
      <!-- 200 -->
      <g transform="translate(129.284882 322.182437)scale(0.1 -0.1)">
       <defs>
        <path id="DejaVuSans-32" d="M 1228 531 
L 3431 531 
L 3431 0 
L 469 0 
L 469 531 
Q 828 903 1448 1529 
Q 2069 2156 2228 2338 
Q 2531 2678 2651 2914 
Q 2772 3150 2772 3378 
Q 2772 3750 2511 3984 
Q 2250 4219 1831 4219 
Q 1534 4219 1204 4116 
Q 875 4013 500 3803 
L 500 4441 
Q 881 4594 1212 4672 
Q 1544 4750 1819 4750 
Q 2544 4750 2975 4387 
Q 3406 4025 3406 3419 
Q 3406 3131 3298 2873 
Q 3191 2616 2906 2266 
Q 2828 2175 2409 1742 
Q 1991 1309 1228 531 
z
" transform="scale(0.015625)"/>
       </defs>
       <use xlink:href="#DejaVuSans-32"/>
       <use xlink:href="#DejaVuSans-30" x="63.623047"/>
       <use xlink:href="#DejaVuSans-30" x="127.246094"/>
      </g>
     </g>
    </g>
    <g id="xtick_3">
     <g id="line2d_5">
      <path d="M 203.824537 307.584 
L 203.824537 41.472 
" clip-path="url(#pa149988fb7)" style="fill: none; stroke: #b0b0b0; stroke-width: 0.8; stroke-linecap: square"/>
     </g>
     <g id="line2d_6">
      <g>
       <use xlink:href="#m02d16fbae8" x="203.824537" y="307.584" style="stroke: #000000; stroke-width: 0.8"/>
      </g>
     </g>
     <g id="text_3">
      <!-- 400 -->
      <g transform="translate(194.280787 322.182437)scale(0.1 -0.1)">
       <defs>
        <path id="DejaVuSans-34" d="M 2419 4116 
L 825 1625 
L 2419 1625 
L 2419 4116 
z
M 2253 4666 
L 3047 4666 
L 3047 1625 
L 3713 1625 
L 3713 1100 
L 3047 1100 
L 3047 0 
L 2419 0 
L 2419 1100 
L 313 1100 
L 313 1709 
L 2253 4666 
z
" transform="scale(0.015625)"/>
       </defs>
       <use xlink:href="#DejaVuSans-34"/>
       <use xlink:href="#DejaVuSans-30" x="63.623047"/>
       <use xlink:href="#DejaVuSans-30" x="127.246094"/>
      </g>
     </g>
    </g>
    <g id="xtick_4">
     <g id="line2d_7">
      <path d="M 268.820442 307.584 
L 268.820442 41.472 
" clip-path="url(#pa149988fb7)" style="fill: none; stroke: #b0b0b0; stroke-width: 0.8; stroke-linecap: square"/>
     </g>
     <g id="line2d_8">
      <g>
       <use xlink:href="#m02d16fbae8" x="268.820442" y="307.584" style="stroke: #000000; stroke-width: 0.8"/>
      </g>
     </g>
     <g id="text_4">
      <!-- 600 -->
      <g transform="translate(259.276692 322.182437)scale(0.1 -0.1)">
       <defs>
        <path id="DejaVuSans-36" d="M 2113 2584 
Q 1688 2584 1439 2293 
Q 1191 2003 1191 1497 
Q 1191 994 1439 701 
Q 1688 409 2113 409 
Q 2538 409 2786 701 
Q 3034 994 3034 1497 
Q 3034 2003 2786 2293 
Q 2538 2584 2113 2584 
z
M 3366 4563 
L 3366 3988 
Q 3128 4100 2886 4159 
Q 2644 4219 2406 4219 
Q 1781 4219 1451 3797 
Q 1122 3375 1075 2522 
Q 1259 2794 1537 2939 
Q 1816 3084 2150 3084 
Q 2853 3084 3261 2657 
Q 3669 2231 3669 1497 
Q 3669 778 3244 343 
Q 2819 -91 2113 -91 
Q 1303 -91 875 529 
Q 447 1150 447 2328 
Q 447 3434 972 4092 
Q 1497 4750 2381 4750 
Q 2619 4750 2861 4703 
Q 3103 4656 3366 4563 
z
" transform="scale(0.015625)"/>
       </defs>
       <use xlink:href="#DejaVuSans-36"/>
       <use xlink:href="#DejaVuSans-30" x="63.623047"/>
       <use xlink:href="#DejaVuSans-30" x="127.246094"/>
      </g>
     </g>
    </g>
    <g id="xtick_5">
     <g id="line2d_9">
      <path d="M 333.816347 307.584 
L 333.816347 41.472 
" clip-path="url(#pa149988fb7)" style="fill: none; stroke: #b0b0b0; stroke-width: 0.8; stroke-linecap: square"/>
     </g>
     <g id="line2d_10">
      <g>
       <use xlink:href="#m02d16fbae8" x="333.816347" y="307.584" style="stroke: #000000; stroke-width: 0.8"/>
      </g>
     </g>
     <g id="text_5">
      <!-- 800 -->
      <g transform="translate(324.272597 322.182437)scale(0.1 -0.1)">
       <defs>
        <path id="DejaVuSans-38" d="M 2034 2216 
Q 1584 2216 1326 1975 
Q 1069 1734 1069 1313 
Q 1069 891 1326 650 
Q 1584 409 2034 409 
Q 2484 409 2743 651 
Q 3003 894 3003 1313 
Q 3003 1734 2745 1975 
Q 2488 2216 2034 2216 
z
M 1403 2484 
Q 997 2584 770 2862 
Q 544 3141 544 3541 
Q 544 4100 942 4425 
Q 1341 4750 2034 4750 
Q 2731 4750 3128 4425 
Q 3525 4100 3525 3541 
Q 3525 3141 3298 2862 
Q 3072 2584 2669 2484 
Q 3125 2378 3379 2068 
Q 3634 1759 3634 1313 
Q 3634 634 3220 271 
Q 2806 -91 2034 -91 
Q 1263 -91 848 271 
Q 434 634 434 1313 
Q 434 1759 690 2068 
Q 947 2378 1403 2484 
z
M 1172 3481 
Q 1172 3119 1398 2916 
Q 1625 2713 2034 2713 
Q 2441 2713 2670 2916 
Q 2900 3119 2900 3481 
Q 2900 3844 2670 4047 
Q 2441 4250 2034 4250 
Q 1625 4250 1398 4047 
Q 1172 3844 1172 3481 
z
" transform="scale(0.015625)"/>
       </defs>
       <use xlink:href="#DejaVuSans-38"/>
       <use xlink:href="#DejaVuSans-30" x="63.623047"/>
       <use xlink:href="#DejaVuSans-30" x="127.246094"/>
      </g>
     </g>
    </g>
    <g id="xtick_6">
     <g id="line2d_11">
      <path d="M 398.812252 307.584 
L 398.812252 41.472 
" clip-path="url(#pa149988fb7)" style="fill: none; stroke: #b0b0b0; stroke-width: 0.8; stroke-linecap: square"/>
     </g>
     <g id="line2d_12">
      <g>
       <use xlink:href="#m02d16fbae8" x="398.812252" y="307.584" style="stroke: #000000; stroke-width: 0.8"/>
      </g>
     </g>
     <g id="text_6">
      <!-- 1000 -->
      <g transform="translate(386.087252 322.182437)scale(0.1 -0.1)">
       <defs>
        <path id="DejaVuSans-31" d="M 794 531 
L 1825 531 
L 1825 4091 
L 703 3866 
L 703 4441 
L 1819 4666 
L 2450 4666 
L 2450 531 
L 3481 531 
L 3481 0 
L 794 0 
L 794 531 
z
" transform="scale(0.015625)"/>
       </defs>
       <use xlink:href="#DejaVuSans-31"/>
       <use xlink:href="#DejaVuSans-30" x="63.623047"/>
       <use xlink:href="#DejaVuSans-30" x="127.246094"/>
       <use xlink:href="#DejaVuSans-30" x="190.869141"/>
      </g>
     </g>
    </g>
    <g id="text_7">
     <!-- time index -->
     <g transform="translate(209.594375 335.860562)scale(0.1 -0.1)">
      <defs>
       <path id="DejaVuSans-74" d="M 1172 4494 
L 1172 3500 
L 2356 3500 
L 2356 3053 
L 1172 3053 
L 1172 1153 
Q 1172 725 1289 603 
Q 1406 481 1766 481 
L 2356 481 
L 2356 0 
L 1766 0 
Q 1100 0 847 248 
Q 594 497 594 1153 
L 594 3053 
L 172 3053 
L 172 3500 
L 594 3500 
L 594 4494 
L 1172 4494 
z
" transform="scale(0.015625)"/>
       <path id="DejaVuSans-69" d="M 603 3500 
L 1178 3500 
L 1178 0 
L 603 0 
L 603 3500 
z
M 603 4863 
L 1178 4863 
L 1178 4134 
L 603 4134 
L 603 4863 
z
" transform="scale(0.015625)"/>
       <path id="DejaVuSans-6d" d="M 3328 2828 
Q 3544 3216 3844 3400 
Q 4144 3584 4550 3584 
Q 5097 3584 5394 3201 
Q 5691 2819 5691 2113 
L 5691 0 
L 5113 0 
L 5113 2094 
Q 5113 2597 4934 2840 
Q 4756 3084 4391 3084 
Q 3944 3084 3684 2787 
Q 3425 2491 3425 1978 
L 3425 0 
L 2847 0 
L 2847 2094 
Q 2847 2600 2669 2842 
Q 2491 3084 2119 3084 
Q 1678 3084 1418 2786 
Q 1159 2488 1159 1978 
L 1159 0 
L 581 0 
L 581 3500 
L 1159 3500 
L 1159 2956 
Q 1356 3278 1631 3431 
Q 1906 3584 2284 3584 
Q 2666 3584 2933 3390 
Q 3200 3197 3328 2828 
z
" transform="scale(0.015625)"/>
       <path id="DejaVuSans-65" d="M 3597 1894 
L 3597 1613 
L 953 1613 
Q 991 1019 1311 708 
Q 1631 397 2203 397 
Q 2534 397 2845 478 
Q 3156 559 3463 722 
L 3463 178 
Q 3153 47 2828 -22 
Q 2503 -91 2169 -91 
Q 1331 -91 842 396 
Q 353 884 353 1716 
Q 353 2575 817 3079 
Q 1281 3584 2069 3584 
Q 2775 3584 3186 3129 
Q 3597 2675 3597 1894 
z
M 3022 2063 
Q 3016 2534 2758 2815 
Q 2500 3097 2075 3097 
Q 1594 3097 1305 2825 
Q 1016 2553 972 2059 
L 3022 2063 
z
" transform="scale(0.015625)"/>
       <path id="DejaVuSans-20" transform="scale(0.015625)"/>
       <path id="DejaVuSans-6e" d="M 3513 2113 
L 3513 0 
L 2938 0 
L 2938 2094 
Q 2938 2591 2744 2837 
Q 2550 3084 2163 3084 
Q 1697 3084 1428 2787 
Q 1159 2491 1159 1978 
L 1159 0 
L 581 0 
L 581 3500 
L 1159 3500 
L 1159 2956 
Q 1366 3272 1645 3428 
Q 1925 3584 2291 3584 
Q 2894 3584 3203 3211 
Q 3513 2838 3513 2113 
z
" transform="scale(0.015625)"/>
       <path id="DejaVuSans-64" d="M 2906 2969 
L 2906 4863 
L 3481 4863 
L 3481 0 
L 2906 0 
L 2906 525 
Q 2725 213 2448 61 
Q 2172 -91 1784 -91 
Q 1150 -91 751 415 
Q 353 922 353 1747 
Q 353 2572 751 3078 
Q 1150 3584 1784 3584 
Q 2172 3584 2448 3432 
Q 2725 3281 2906 2969 
z
M 947 1747 
Q 947 1113 1208 752 
Q 1469 391 1925 391 
Q 2381 391 2643 752 
Q 2906 1113 2906 1747 
Q 2906 2381 2643 2742 
Q 2381 3103 1925 3103 
Q 1469 3103 1208 2742 
Q 947 2381 947 1747 
z
" transform="scale(0.015625)"/>
       <path id="DejaVuSans-78" d="M 3513 3500 
L 2247 1797 
L 3578 0 
L 2900 0 
L 1881 1375 
L 863 0 
L 184 0 
L 1544 1831 
L 300 3500 
L 978 3500 
L 1906 2253 
L 2834 3500 
L 3513 3500 
z
" transform="scale(0.015625)"/>
      </defs>
      <use xlink:href="#DejaVuSans-74"/>
      <use xlink:href="#DejaVuSans-69" x="39.208984"/>
      <use xlink:href="#DejaVuSans-6d" x="66.992188"/>
      <use xlink:href="#DejaVuSans-65" x="164.404297"/>
      <use xlink:href="#DejaVuSans-20" x="225.927734"/>
      <use xlink:href="#DejaVuSans-69" x="257.714844"/>
      <use xlink:href="#DejaVuSans-6e" x="285.498047"/>
      <use xlink:href="#DejaVuSans-64" x="348.876953"/>
      <use xlink:href="#DejaVuSans-65" x="412.353516"/>
      <use xlink:href="#DejaVuSans-78" x="472.126953"/>
     </g>
    </g>
   </g>
   <g id="matplotlib.axis_2">
    <g id="ytick_1">
     <g id="line2d_13">
      <path d="M 57.6 298.245914 
L 414.72 298.245914 
" clip-path="url(#pa149988fb7)" style="fill: none; stroke: #b0b0b0; stroke-width: 0.8; stroke-linecap: square"/>
     </g>
     <g id="line2d_14">
      <defs>
       <path id="mb581bc39fc" d="M 0 0 
L -3.5 0 
" style="stroke: #000000; stroke-width: 0.8"/>
      </defs>
      <g>
       <use xlink:href="#mb581bc39fc" x="57.6" y="298.245914" style="stroke: #000000; stroke-width: 0.8"/>
      </g>
     </g>
     <g id="text_8">
      <!-- −3 -->
      <g transform="translate(35.857813 302.045132)scale(0.1 -0.1)">
       <defs>
        <path id="DejaVuSans-2212" d="M 678 2272 
L 4684 2272 
L 4684 1741 
L 678 1741 
L 678 2272 
z
" transform="scale(0.015625)"/>
        <path id="DejaVuSans-33" d="M 2597 2516 
Q 3050 2419 3304 2112 
Q 3559 1806 3559 1356 
Q 3559 666 3084 287 
Q 2609 -91 1734 -91 
Q 1441 -91 1130 -33 
Q 819 25 488 141 
L 488 750 
Q 750 597 1062 519 
Q 1375 441 1716 441 
Q 2309 441 2620 675 
Q 2931 909 2931 1356 
Q 2931 1769 2642 2001 
Q 2353 2234 1838 2234 
L 1294 2234 
L 1294 2753 
L 1863 2753 
Q 2328 2753 2575 2939 
Q 2822 3125 2822 3475 
Q 2822 3834 2567 4026 
Q 2313 4219 1838 4219 
Q 1578 4219 1281 4162 
Q 984 4106 628 3988 
L 628 4550 
Q 988 4650 1302 4700 
Q 1616 4750 1894 4750 
Q 2613 4750 3031 4423 
Q 3450 4097 3450 3541 
Q 3450 3153 3228 2886 
Q 3006 2619 2597 2516 
z
" transform="scale(0.015625)"/>
       </defs>
       <use xlink:href="#DejaVuSans-2212"/>
       <use xlink:href="#DejaVuSans-33" x="83.789062"/>
      </g>
     </g>
    </g>
    <g id="ytick_2">
     <g id="line2d_15">
      <path d="M 57.6 257.503339 
L 414.72 257.503339 
" clip-path="url(#pa149988fb7)" style="fill: none; stroke: #b0b0b0; stroke-width: 0.8; stroke-linecap: square"/>
     </g>
     <g id="line2d_16">
      <g>
       <use xlink:href="#mb581bc39fc" x="57.6" y="257.503339" style="stroke: #000000; stroke-width: 0.8"/>
      </g>
     </g>
     <g id="text_9">
      <!-- −2 -->
      <g transform="translate(35.857813 261.302558)scale(0.1 -0.1)">
       <use xlink:href="#DejaVuSans-2212"/>
       <use xlink:href="#DejaVuSans-32" x="83.789062"/>
      </g>
     </g>
    </g>
    <g id="ytick_3">
     <g id="line2d_17">
      <path d="M 57.6 216.760765 
L 414.72 216.760765 
" clip-path="url(#pa149988fb7)" style="fill: none; stroke: #b0b0b0; stroke-width: 0.8; stroke-linecap: square"/>
     </g>
     <g id="line2d_18">
      <g>
       <use xlink:href="#mb581bc39fc" x="57.6" y="216.760765" style="stroke: #000000; stroke-width: 0.8"/>
      </g>
     </g>
     <g id="text_10">
      <!-- −1 -->
      <g transform="translate(35.857813 220.559984)scale(0.1 -0.1)">
       <use xlink:href="#DejaVuSans-2212"/>
       <use xlink:href="#DejaVuSans-31" x="83.789062"/>
      </g>
     </g>
    </g>
    <g id="ytick_4">
     <g id="line2d_19">
      <path d="M 57.6 176.018191 
L 414.72 176.018191 
" clip-path="url(#pa149988fb7)" style="fill: none; stroke: #b0b0b0; stroke-width: 0.8; stroke-linecap: square"/>
     </g>
     <g id="line2d_20">
      <g>
       <use xlink:href="#mb581bc39fc" x="57.6" y="176.018191" style="stroke: #000000; stroke-width: 0.8"/>
      </g>
     </g>
     <g id="text_11">
      <!-- 0 -->
      <g transform="translate(44.2375 179.817409)scale(0.1 -0.1)">
       <use xlink:href="#DejaVuSans-30"/>
      </g>
     </g>
    </g>
    <g id="ytick_5">
     <g id="line2d_21">
      <path d="M 57.6 135.275616 
L 414.72 135.275616 
" clip-path="url(#pa149988fb7)" style="fill: none; stroke: #b0b0b0; stroke-width: 0.8; stroke-linecap: square"/>
     </g>
     <g id="line2d_22">
      <g>
       <use xlink:href="#mb581bc39fc" x="57.6" y="135.275616" style="stroke: #000000; stroke-width: 0.8"/>
      </g>
     </g>
     <g id="text_12">
      <!-- 1 -->
      <g transform="translate(44.2375 139.074835)scale(0.1 -0.1)">
       <use xlink:href="#DejaVuSans-31"/>
      </g>
     </g>
    </g>
    <g id="ytick_6">
     <g id="line2d_23">
      <path d="M 57.6 94.533042 
L 414.72 94.533042 
" clip-path="url(#pa149988fb7)" style="fill: none; stroke: #b0b0b0; stroke-width: 0.8; stroke-linecap: square"/>
     </g>
     <g id="line2d_24">
      <g>
       <use xlink:href="#mb581bc39fc" x="57.6" y="94.533042" style="stroke: #000000; stroke-width: 0.8"/>
      </g>
     </g>
     <g id="text_13">
      <!-- 2 -->
      <g transform="translate(44.2375 98.332261)scale(0.1 -0.1)">
       <use xlink:href="#DejaVuSans-32"/>
      </g>
     </g>
    </g>
    <g id="ytick_7">
     <g id="line2d_25">
      <path d="M 57.6 53.790468 
L 414.72 53.790468 
" clip-path="url(#pa149988fb7)" style="fill: none; stroke: #b0b0b0; stroke-width: 0.8; stroke-linecap: square"/>
     </g>
     <g id="line2d_26">
      <g>
       <use xlink:href="#mb581bc39fc" x="57.6" y="53.790468" style="stroke: #000000; stroke-width: 0.8"/>
      </g>
     </g>
     <g id="text_14">
      <!-- 3 -->
      <g transform="translate(44.2375 57.589686)scale(0.1 -0.1)">
       <use xlink:href="#DejaVuSans-33"/>
      </g>
     </g>
    </g>
    <g id="text_15">
     <!-- $y$ -->
     <g transform="translate(29.757812 177.528)rotate(-90)scale(0.1 -0.1)">
      <defs>
       <path id="DejaVuSans-Oblique-79" d="M 1588 -325 
Q 1188 -997 936 -1164 
Q 684 -1331 294 -1331 
L -159 -1331 
L -63 -850 
L 269 -850 
Q 509 -850 678 -719 
Q 847 -588 1056 -206 
L 1234 128 
L 459 3500 
L 1069 3500 
L 1650 819 
L 3256 3500 
L 3859 3500 
L 1588 -325 
z
" transform="scale(0.015625)"/>
      </defs>
      <use xlink:href="#DejaVuSans-Oblique-79" transform="translate(0 0.3125)"/>
     </g>
    </g>
   </g>
   <g id="line2d_27">
    <path d="M 73.832727 240.752434 
L 74.157707 204.52468 
L 74.482686 144.006167 
L 74.807666 221.695752 
L 75.457625 137.158692 
L 75.782604 284.435997 
L 76.432563 139.657716 
L 76.757543 189.010168 
L 77.082523 146.823859 
L 77.407502 194.935722 
L 77.732482 174.360781 
L 78.057461 189.835073 
L 78.382441 184.067513 
L 78.70742 183.696068 
L 79.0324 170.750666 
L 79.357379 206.18931 
L 79.682359 181.545235 
L 80.007338 192.687259 
L 80.332318 180.239173 
L 80.657297 184.862443 
L 80.982277 179.201082 
L 81.307256 158.096485 
L 81.632236 163.866181 
L 82.282195 182.788016 
L 82.607174 205.151572 
L 82.932154 70.562157 
L 83.257133 218.175183 
L 83.582113 202.92394 
L 83.907093 124.724407 
L 84.232072 190.830253 
L 84.557052 157.340449 
L 84.882031 106.084289 
L 85.207011 187.379175 
L 85.53199 226.19962 
L 85.85697 139.491236 
L 86.506929 159.724871 
L 86.831908 184.728479 
L 87.156888 153.854283 
L 87.481867 177.379376 
L 87.806847 156.890484 
L 88.131826 247.210903 
L 88.456806 270.329482 
L 88.781785 178.84978 
L 89.106765 194.500509 
L 89.431744 163.631592 
L 89.756724 189.282679 
L 90.081704 165.983299 
L 90.406683 210.634146 
L 90.731663 136.982362 
L 91.056642 133.444592 
L 91.381622 194.647562 
L 91.706601 143.465544 
L 92.031581 180.886324 
L 92.35656 169.122045 
L 92.68154 110.799255 
L 93.006519 216.70263 
L 93.331499 211.453259 
L 93.656478 142.58189 
L 93.981458 120.507495 
L 94.306437 228.561754 
L 94.631417 212.046056 
L 94.956396 295.488 
L 95.281376 225.967845 
L 95.606355 197.379214 
L 95.931335 226.863502 
L 96.256314 185.384016 
L 96.581294 104.830019 
L 96.906274 207.728426 
L 97.231253 201.908114 
L 97.556233 262.043339 
L 97.881212 137.493058 
L 98.206192 141.291012 
L 98.531171 234.399967 
L 98.856151 183.934064 
L 99.18113 172.014689 
L 99.50611 196.881511 
L 99.831089 235.976781 
L 100.156069 171.717489 
L 100.481048 236.161969 
L 100.806028 198.967849 
L 101.131007 189.175837 
L 101.455987 231.54634 
L 101.780966 216.931981 
L 102.105946 176.197315 
L 102.430925 112.651338 
L 102.755905 215.650815 
L 103.080885 184.663185 
L 103.405864 205.810167 
L 103.730844 176.488377 
L 104.055823 172.008981 
L 104.380803 132.637367 
L 104.705782 167.74157 
L 105.030762 181.471842 
L 105.355741 65.107762 
L 105.680721 120.537155 
L 106.0057 104.744759 
L 106.33068 200.976021 
L 106.655659 233.759192 
L 106.980639 198.655036 
L 107.305618 248.897056 
L 107.630598 161.865432 
L 107.955577 175.451368 
L 108.280557 197.262529 
L 108.605536 172.154352 
L 108.930516 188.306852 
L 109.255495 165.581369 
L 109.580475 228.968474 
L 109.905455 228.844889 
L 110.230434 163.14951 
L 110.555414 224.321427 
L 110.880393 143.620535 
L 111.205373 233.675063 
L 111.530352 172.838032 
L 111.855332 172.285813 
L 112.180311 198.472745 
L 112.505291 141.458981 
L 112.83027 161.965951 
L 113.15525 201.873619 
L 113.480229 159.883321 
L 113.805209 135.355694 
L 114.780147 191.919479 
L 115.105127 110.716674 
L 115.430106 160.940207 
L 115.755086 151.569333 
L 116.080066 199.636935 
L 116.405045 76.190851 
L 116.730025 154.351757 
L 117.055004 270.091442 
L 117.379984 146.17758 
L 117.704963 97.999895 
L 118.029943 188.501549 
L 118.679902 141.599477 
L 119.004881 245.999813 
L 119.329861 107.233469 
L 119.65484 166.435618 
L 119.97982 176.497986 
L 120.304799 125.662972 
L 120.629779 200.60228 
L 120.954758 188.440978 
L 121.279738 191.303409 
L 121.929697 235.319685 
L 122.254676 112.07665 
L 122.579656 162.716826 
L 122.904636 245.322724 
L 123.229615 139.862225 
L 124.204554 224.770263 
L 124.529533 191.682115 
L 124.854513 190.982658 
L 125.179492 220.024994 
L 125.504472 233.517888 
L 125.829451 140.393511 
L 126.154431 193.458277 
L 126.47941 175.720991 
L 126.80439 140.06377 
L 127.129369 158.154587 
L 127.454349 207.00155 
L 127.779328 231.656927 
L 128.429287 190.079185 
L 128.754267 218.419314 
L 129.079247 205.939762 
L 129.404226 248.054875 
L 129.729206 233.458051 
L 130.054185 207.041403 
L 130.379165 116.673011 
L 130.704144 216.17638 
L 131.029124 198.13733 
L 131.354103 129.910838 
L 132.004062 206.849335 
L 132.329042 217.580179 
L 132.654021 166.033327 
L 132.979001 195.465162 
L 133.30398 106.638766 
L 133.62896 100.703032 
L 133.953939 140.347337 
L 134.278919 89.484029 
L 134.603898 188.541922 
L 134.928878 226.643188 
L 135.253857 145.155391 
L 135.578837 133.909042 
L 135.903817 141.32942 
L 136.553776 228.440737 
L 136.878755 150.898755 
L 137.203735 161.794914 
L 137.528714 110.090929 
L 137.853694 190.658564 
L 138.178673 174.362466 
L 138.503653 205.402689 
L 138.828632 144.920951 
L 139.153612 180.776548 
L 139.478591 187.369731 
L 139.803571 191.556983 
L 140.12855 166.27163 
L 140.45353 157.383137 
L 140.778509 233.566012 
L 141.103489 216.003546 
L 141.428468 217.810402 
L 141.753448 222.689019 
L 142.078428 159.726965 
L 142.403407 222.378207 
L 142.728387 152.216166 
L 143.053366 220.962127 
L 143.378346 159.942636 
L 143.703325 220.972645 
L 144.028305 162.796782 
L 144.353284 196.407118 
L 144.678264 211.131095 
L 145.003243 171.717105 
L 145.328223 231.05354 
L 145.653202 83.429188 
L 145.978182 170.091252 
L 146.303161 194.306422 
L 146.628141 292.844206 
L 146.95312 124.671824 
L 147.2781 222.078424 
L 147.603079 172.997609 
L 147.928059 215.409208 
L 148.253038 166.843727 
L 148.578018 182.219469 
L 148.902998 204.978297 
L 149.552957 220.478332 
L 149.877936 114.568951 
L 150.202916 136.604053 
L 150.527895 224.003173 
L 150.852875 114.350144 
L 151.177854 137.267247 
L 151.502834 190.827471 
L 151.827813 197.169292 
L 152.152793 180.646689 
L 152.477772 196.937699 
L 152.802752 137.53066 
L 153.127731 208.50398 
L 153.452711 147.399432 
L 153.77769 140.487174 
L 154.10267 150.308981 
L 154.427649 173.853492 
L 154.752629 167.123317 
L 155.077609 153.886411 
L 155.402588 228.153425 
L 155.727568 161.85753 
L 156.052547 184.698148 
L 156.377527 159.683308 
L 156.702506 146.62344 
L 157.027486 146.575374 
L 157.352465 156.254723 
L 157.677445 200.247312 
L 158.002424 132.018589 
L 158.327404 237.191254 
L 158.652383 179.584333 
L 159.302342 168.910732 
L 159.627322 213.919095 
L 159.952301 162.929614 
L 160.277281 209.096134 
L 160.60226 211.317013 
L 160.92724 157.801473 
L 161.252219 180.1083 
L 161.577199 217.929839 
L 161.902179 184.136255 
L 162.227158 117.15103 
L 162.552138 203.216088 
L 162.877117 139.166537 
L 163.202097 205.563678 
L 163.852056 132.405677 
L 164.177035 115.081393 
L 164.502015 194.862306 
L 164.826994 134.8295 
L 165.151974 197.027502 
L 165.476953 130.573001 
L 165.801933 118.452307 
L 166.451892 205.615108 
L 166.776871 214.26587 
L 167.101851 124.57707 
L 167.42683 159.040327 
L 167.75181 132.999637 
L 168.401769 225.353145 
L 168.726749 141.562545 
L 169.376708 207.883674 
L 169.701687 157.626396 
L 170.026667 147.641478 
L 170.351646 125.641011 
L 170.676626 154.883084 
L 171.001605 236.585188 
L 171.326585 137.378102 
L 171.651564 158.235557 
L 171.976544 68.644504 
L 172.301523 206.811268 
L 172.626503 139.765269 
L 172.951482 136.793997 
L 173.276462 136.168045 
L 173.601441 114.226935 
L 173.926421 216.255232 
L 174.2514 153.80485 
L 174.57638 161.162229 
L 174.90136 150.475894 
L 175.226339 206.659733 
L 175.551319 242.936996 
L 175.876298 151.874777 
L 176.201278 185.590166 
L 176.526257 195.317352 
L 176.851237 106.702788 
L 177.176216 149.833293 
L 177.501196 120.871768 
L 178.476134 279.191285 
L 178.801114 126.117506 
L 179.126093 117.323505 
L 179.776052 191.004374 
L 180.101032 206.189806 
L 180.426011 131.347858 
L 181.075971 250.50231 
L 181.40095 232.996504 
L 181.72593 194.832809 
L 182.050909 214.624638 
L 182.375889 214.462039 
L 182.700868 151.269737 
L 183.025848 190.646191 
L 183.350827 156.486062 
L 183.675807 162.941852 
L 184.000786 174.607633 
L 184.325766 166.215256 
L 184.650745 192.658759 
L 184.975725 182.354024 
L 185.625684 121.361148 
L 186.275643 239.577928 
L 186.600622 81.784526 
L 186.925602 262.959729 
L 187.250581 177.07956 
L 187.900541 192.914563 
L 188.22552 221.104849 
L 188.5505 140.785494 
L 188.875479 226.854966 
L 189.200459 222.418709 
L 189.525438 213.947868 
L 189.850418 166.784032 
L 190.175397 100.790495 
L 190.825356 185.701238 
L 191.150336 88.605094 
L 191.475315 174.502472 
L 191.800295 215.89337 
L 192.125274 144.660984 
L 192.450254 148.993226 
L 192.775233 217.198496 
L 193.100213 73.122797 
L 193.425192 257.476666 
L 193.750172 207.41986 
L 194.075152 123.918903 
L 194.400131 122.800922 
L 194.725111 141.155144 
L 195.05009 166.726972 
L 195.37507 163.593546 
L 195.700049 162.78747 
L 196.025029 190.595546 
L 196.350008 170.507906 
L 196.674988 197.793308 
L 197.324947 138.357184 
L 197.649926 119.516165 
L 197.974906 188.811591 
L 198.624865 137.176528 
L 198.949844 110.210787 
L 199.274824 145.319362 
L 199.599803 77.331777 
L 199.924783 181.912168 
L 200.249762 149.743213 
L 200.574742 295.21485 
L 200.899722 142.769719 
L 201.224701 210.914363 
L 201.549681 186.08645 
L 201.87466 172.603236 
L 202.19964 113.926198 
L 202.524619 224.295503 
L 202.849599 149.820977 
L 203.174578 195.049292 
L 203.499558 210.143628 
L 203.824537 205.604532 
L 204.149517 232.312745 
L 204.474496 185.076164 
L 204.799476 162.077927 
L 205.449435 145.800766 
L 205.774414 163.408401 
L 206.099394 232.003462 
L 206.424373 162.233823 
L 206.749353 117.549697 
L 207.399312 242.397484 
L 207.724292 208.299047 
L 208.049271 156.971386 
L 208.374251 154.609303 
L 208.69923 85.397835 
L 209.02421 173.534533 
L 209.674169 110.561341 
L 209.999148 128.719124 
L 210.324128 61.293912 
L 210.974087 196.924105 
L 211.299066 166.644828 
L 211.624046 254.528013 
L 211.949025 175.060269 
L 212.274005 226.641708 
L 212.598984 161.082483 
L 212.923964 139.014968 
L 213.248943 270.869604 
L 213.573923 177.443651 
L 213.898903 165.338754 
L 214.223882 183.984833 
L 214.548862 189.475549 
L 214.873841 149.141779 
L 215.198821 212.895502 
L 215.5238 226.767321 
L 215.84878 151.847901 
L 216.173759 174.28473 
L 216.498739 148.900469 
L 216.823718 210.311317 
L 217.148698 138.50381 
L 217.473677 193.253367 
L 217.798657 120.497112 
L 218.123636 177.132441 
L 218.448616 168.936923 
L 218.773595 132.467639 
L 219.098575 250.22679 
L 219.748534 142.221223 
L 220.073514 247.586893 
L 220.398493 167.407041 
L 220.723473 186.714279 
L 221.048452 93.789027 
L 221.373432 130.271888 
L 221.698411 150.428983 
L 222.023391 187.357915 
L 222.34837 190.355758 
L 222.67335 194.805208 
L 222.998329 152.312474 
L 223.323309 206.909574 
L 223.648288 143.617004 
L 223.973268 175.335391 
L 224.298247 133.391229 
L 224.623227 198.427247 
L 224.948206 206.848584 
L 225.273186 230.86774 
L 225.598165 232.087302 
L 225.923145 140.894744 
L 226.248124 204.292114 
L 226.573104 184.399679 
L 226.898084 191.287624 
L 227.223063 188.266519 
L 227.548043 191.823734 
L 227.873022 175.422059 
L 228.198002 223.113009 
L 228.522981 206.879191 
L 228.847961 196.210272 
L 229.17294 145.293789 
L 229.49792 163.792842 
L 229.822899 229.75698 
L 230.147879 162.055331 
L 230.472858 140.564601 
L 230.797838 141.784188 
L 231.122817 174.117952 
L 231.447797 166.678545 
L 232.097756 266.410057 
L 232.747715 143.796077 
L 233.072695 213.276089 
L 233.397674 206.059071 
L 233.722654 180.889291 
L 234.047633 182.456314 
L 234.372613 146.555856 
L 234.697592 209.114653 
L 235.022572 53.568 
L 235.347551 215.137105 
L 235.672531 121.429502 
L 235.99751 142.447761 
L 236.32249 176.80441 
L 236.647469 130.825451 
L 236.972449 207.565363 
L 237.297428 188.962994 
L 237.622408 209.368601 
L 237.947387 81.163642 
L 238.272367 162.183948 
L 238.597346 197.560381 
L 239.247305 130.241377 
L 239.572285 168.64174 
L 239.897265 168.061715 
L 240.222244 104.731422 
L 240.547224 214.734502 
L 240.872203 187.343409 
L 241.197183 221.235594 
L 241.522162 129.080695 
L 241.847142 166.217184 
L 242.172121 152.979777 
L 242.497101 270.482884 
L 242.82208 170.389223 
L 243.14706 143.887864 
L 243.472039 230.192458 
L 244.121998 167.679678 
L 244.446978 92.581957 
L 244.771957 158.856589 
L 245.096937 129.31021 
L 245.421916 155.200332 
L 245.746896 217.202394 
L 246.071876 161.320065 
L 246.396855 245.022738 
L 246.721835 203.116934 
L 247.046814 122.459119 
L 247.696773 189.403473 
L 248.021753 149.450103 
L 248.346732 145.934275 
L 248.671712 170.786066 
L 248.996691 222.69034 
L 249.321671 168.760291 
L 249.97163 215.318306 
L 250.296609 164.095974 
L 250.621589 140.642279 
L 250.946568 193.775243 
L 251.596527 146.110993 
L 251.921507 231.488996 
L 252.246486 152.052421 
L 252.571466 192.533497 
L 252.896446 193.139135 
L 253.221425 138.466636 
L 253.546405 212.743297 
L 253.871384 143.667712 
L 254.196364 204.720231 
L 254.521343 159.768282 
L 254.846323 206.857883 
L 255.171302 169.294787 
L 255.496282 209.348977 
L 255.821261 96.005123 
L 256.146241 193.25365 
L 256.47122 243.089702 
L 256.7962 248.321807 
L 257.121179 146.596922 
L 257.446159 213.929125 
L 258.096118 106.982578 
L 259.071057 232.163512 
L 259.396036 133.49227 
L 259.721016 142.158261 
L 260.045995 103.446033 
L 260.370975 205.736863 
L 260.695954 198.647897 
L 261.345913 119.250095 
L 261.670893 135.396804 
L 261.995872 211.009999 
L 262.320852 135.822277 
L 262.645831 131.377482 
L 262.970811 84.969164 
L 263.62077 165.640781 
L 263.945749 219.201556 
L 264.270729 222.906397 
L 264.595708 280.935995 
L 264.920688 94.508331 
L 265.245667 164.240757 
L 265.570647 171.021995 
L 265.895627 140.565742 
L 266.220606 127.103767 
L 266.545586 105.013214 
L 266.870565 198.534965 
L 267.195545 142.03786 
L 267.845504 238.292884 
L 268.170483 187.835892 
L 268.495463 246.494202 
L 268.820442 191.962021 
L 269.470401 231.702482 
L 269.795381 197.987896 
L 270.12036 72.535756 
L 270.44534 202.794145 
L 270.770319 276.896067 
L 271.095299 198.918343 
L 271.420278 207.141852 
L 271.745258 144.885163 
L 272.070238 222.528975 
L 272.395217 182.76203 
L 272.720197 192.624154 
L 273.045176 150.351307 
L 273.370156 282.872158 
L 273.695135 199.585694 
L 274.020115 282.551666 
L 274.345094 232.362346 
L 274.670074 116.340621 
L 274.995053 203.742972 
L 275.320033 161.318421 
L 275.645012 154.319549 
L 275.969992 162.683891 
L 276.294971 203.245091 
L 276.619951 104.266856 
L 276.94493 156.728224 
L 277.26991 229.537599 
L 277.594889 208.210181 
L 277.919869 222.964536 
L 278.244848 180.638436 
L 278.569828 161.92986 
L 279.219787 100.824597 
L 279.544767 204.836458 
L 279.869746 195.075045 
L 280.194726 192.660646 
L 280.519705 169.437908 
L 280.844685 175.028581 
L 281.169664 158.319964 
L 281.494644 199.323487 
L 281.819623 172.552045 
L 282.144603 206.319954 
L 282.469582 159.924193 
L 282.794562 240.454714 
L 283.119541 132.907819 
L 283.444521 213.15828 
L 283.7695 233.171091 
L 284.09448 167.549498 
L 284.419459 208.348801 
L 284.744439 145.743924 
L 285.069419 187.79047 
L 285.394398 165.186334 
L 285.719378 173.182454 
L 286.044357 127.412796 
L 286.369337 197.014195 
L 286.694316 154.038713 
L 287.019296 156.787348 
L 287.344275 222.404407 
L 287.669255 201.179802 
L 287.994234 234.485738 
L 288.319214 184.264347 
L 288.644193 168.045291 
L 288.969173 103.75381 
L 289.294152 152.765747 
L 289.619132 163.813527 
L 289.944111 136.936309 
L 290.269091 126.558325 
L 290.59407 165.406129 
L 290.91905 126.341691 
L 291.569009 226.550428 
L 291.893989 169.303104 
L 292.218968 232.513512 
L 292.543948 63.725 
L 292.868927 238.639289 
L 293.193907 132.89817 
L 293.518886 157.209469 
L 293.843866 112.622725 
L 294.168845 166.233516 
L 294.493825 169.976788 
L 294.818804 190.814202 
L 295.143784 199.646567 
L 295.468763 181.565074 
L 295.793743 137.692541 
L 296.118722 212.651282 
L 296.443702 150.430236 
L 296.768681 206.52603 
L 297.093661 208.759894 
L 297.41864 189.816855 
L 297.74362 157.998807 
L 298.0686 113.043198 
L 298.393579 225.072403 
L 298.718559 144.368461 
L 299.043538 202.267081 
L 299.368518 188.612126 
L 299.693497 196.313388 
L 300.018477 113.139906 
L 300.343456 169.267482 
L 300.668436 158.354995 
L 300.993415 185.798905 
L 301.318395 196.031584 
L 301.643374 150.348498 
L 301.968354 193.425312 
L 302.618313 176.323062 
L 303.268272 124.747351 
L 303.593251 75.289096 
L 303.918231 196.984017 
L 304.24321 179.81932 
L 304.56819 142.394656 
L 304.89317 227.544902 
L 305.218149 170.642902 
L 305.543129 205.314883 
L 305.868108 96.891738 
L 306.193088 163.459438 
L 306.518067 167.141313 
L 306.843047 103.163312 
L 307.168026 187.355338 
L 307.493006 230.956108 
L 307.817985 190.63364 
L 308.142965 168.943556 
L 308.467944 224.265654 
L 308.792924 88.851118 
L 309.117903 175.733216 
L 309.442883 132.921034 
L 309.767862 156.351204 
L 310.092842 205.057254 
L 310.417821 159.437462 
L 310.742801 212.053449 
L 311.067781 117.861088 
L 311.39276 179.083071 
L 311.71774 156.825161 
L 312.042719 167.314532 
L 312.367699 248.300346 
L 312.692678 123.617205 
L 313.017658 156.553801 
L 313.342637 158.724231 
L 313.667617 216.728965 
L 313.992596 196.590828 
L 314.317576 145.198486 
L 314.642555 144.735226 
L 314.967535 172.237341 
L 315.292514 241.318311 
L 315.617494 126.254078 
L 315.942473 192.872407 
L 316.592432 149.005995 
L 316.917412 170.23347 
L 317.242391 180.006765 
L 317.567371 248.182689 
L 317.892351 132.283147 
L 318.21733 206.105022 
L 318.54231 175.664846 
L 318.867289 86.774162 
L 319.192269 181.902705 
L 319.517248 199.682803 
L 320.492187 146.865515 
L 320.817166 208.25656 
L 321.142146 156.086731 
L 321.792105 190.231514 
L 322.117084 84.074269 
L 322.442064 172.30537 
L 322.767043 178.140112 
L 323.092023 172.55842 
L 323.417002 188.64129 
L 323.741982 210.424415 
L 324.066962 204.061361 
L 324.391941 216.633283 
L 324.716921 224.530994 
L 325.0419 197.780152 
L 325.36688 203.072507 
L 325.691859 139.913236 
L 326.016839 173.738751 
L 326.341818 133.180746 
L 326.666798 152.383035 
L 326.991777 205.640143 
L 327.316757 168.875206 
L 327.641736 181.801641 
L 327.966716 117.971076 
L 328.291695 222.912956 
L 328.941654 113.672643 
L 329.266634 145.10859 
L 329.591613 144.415156 
L 329.916593 202.988238 
L 330.241572 177.273111 
L 330.566552 186.271383 
L 330.891532 153.518149 
L 331.216511 186.129115 
L 331.541491 175.711351 
L 331.86647 252.210892 
L 332.516429 167.068656 
L 332.841409 204.906982 
L 333.166388 229.680121 
L 333.491368 173.679664 
L 333.816347 140.400612 
L 334.141327 223.827281 
L 334.466306 151.748743 
L 334.791286 175.592125 
L 335.116265 117.78889 
L 335.441245 121.112661 
L 335.766224 200.439819 
L 336.091204 187.095862 
L 336.416183 237.637844 
L 336.741163 146.281107 
L 337.066143 87.798227 
L 337.391122 181.430554 
L 337.716102 147.964684 
L 338.041081 177.524315 
L 338.366061 183.476788 
L 338.69104 138.798526 
L 339.340999 215.399397 
L 339.665979 127.718962 
L 339.990958 216.030229 
L 340.315938 206.534674 
L 340.965897 138.390493 
L 341.290876 213.873216 
L 341.615856 205.721636 
L 341.940835 159.290023 
L 342.265815 150.894016 
L 342.590794 137.710657 
L 342.915774 153.25784 
L 343.240753 197.578772 
L 343.565733 144.041858 
L 344.215692 217.136048 
L 344.540672 235.011326 
L 344.865651 174.501362 
L 345.190631 176.669463 
L 345.51561 242.400037 
L 345.84059 125.944036 
L 346.165569 241.908664 
L 346.490549 179.056181 
L 346.815528 201.677335 
L 347.140508 202.057935 
L 347.465487 224.983675 
L 347.790467 292.990853 
L 348.115446 206.292869 
L 348.440426 181.855053 
L 348.765405 179.689023 
L 349.090385 131.113491 
L 349.415364 140.121587 
L 349.740344 136.904556 
L 350.390303 190.060671 
L 350.715283 214.284327 
L 351.040262 150.560225 
L 351.365242 144.066747 
L 351.690221 209.215046 
L 352.015201 218.854316 
L 352.34018 211.662982 
L 352.66516 219.259078 
L 352.990139 282.606343 
L 353.315119 81.314016 
L 353.640098 172.089956 
L 353.965078 203.384941 
L 354.290057 162.00169 
L 354.615037 268.963414 
L 354.940016 169.54369 
L 355.264996 138.764074 
L 355.589975 208.93086 
L 356.239934 109.485752 
L 356.564914 274.773454 
L 356.889894 196.110946 
L 357.214873 161.85473 
L 357.539853 226.436635 
L 357.864832 209.744365 
L 358.189812 170.779228 
L 358.514791 109.250469 
L 358.839771 156.170413 
L 359.16475 99.897418 
L 359.48973 114.091439 
L 359.814709 171.877189 
L 360.139689 203.884857 
L 360.464668 178.898362 
L 360.789648 177.410576 
L 361.114627 156.291844 
L 361.439607 210.003143 
L 361.764586 159.671305 
L 362.089566 150.498943 
L 362.414545 203.64055 
L 362.739525 143.51684 
L 363.064505 193.777568 
L 363.389484 174.881827 
L 363.714464 221.667704 
L 364.039443 123.564932 
L 364.364423 156.690468 
L 364.689402 115.217385 
L 365.014382 228.145556 
L 365.339361 171.754524 
L 365.664341 212.668287 
L 365.98932 179.375014 
L 366.3143 119.738806 
L 366.639279 198.131823 
L 366.964259 193.759141 
L 367.289238 194.562772 
L 367.614218 203.493837 
L 367.939197 122.173782 
L 368.264177 117.561947 
L 368.589156 196.885907 
L 368.914136 187.282109 
L 369.239115 163.604042 
L 369.564095 162.4013 
L 369.889075 171.642941 
L 370.214054 214.752291 
L 370.539034 275.770456 
L 370.864013 177.056443 
L 371.188993 165.916791 
L 371.513972 192.739972 
L 371.838952 194.531823 
L 372.163931 173.308032 
L 372.488911 120.684405 
L 372.81389 131.330249 
L 373.13887 105.955731 
L 373.463849 110.974434 
L 373.788829 158.013018 
L 374.113808 186.131533 
L 374.438788 236.096014 
L 374.763767 164.767382 
L 375.413726 203.652787 
L 375.738706 169.571988 
L 376.063686 181.332847 
L 376.388665 165.112566 
L 376.713645 188.098014 
L 377.038624 128.528729 
L 377.363604 149.977361 
L 377.688583 189.271668 
L 378.013563 158.462487 
L 378.338542 235.844218 
L 378.663522 104.113061 
L 378.988501 110.503755 
L 379.313481 227.839866 
L 379.63846 145.49313 
L 379.96344 156.876546 
L 380.288419 198.729809 
L 380.613399 182.778958 
L 381.263358 191.220705 
L 381.588337 144.880737 
L 381.913317 180.003122 
L 382.238296 172.148417 
L 382.563276 157.734684 
L 382.888256 99.714906 
L 383.213235 153.11998 
L 383.538215 159.059687 
L 383.863194 126.863971 
L 384.188174 116.895121 
L 384.513153 267.944097 
L 384.838133 236.190127 
L 385.163112 171.25811 
L 385.488092 200.127433 
L 385.813071 161.668643 
L 386.138051 275.203371 
L 386.46303 175.564485 
L 386.78801 208.961764 
L 387.112989 105.557919 
L 387.437969 176.100921 
L 387.762948 126.946665 
L 388.087928 196.083942 
L 388.412907 148.12389 
L 388.737887 182.909633 
L 389.062867 162.282807 
L 389.387846 206.344814 
L 389.712826 193.95556 
L 390.037805 152.2116 
L 390.687764 136.027423 
L 391.012744 85.507292 
L 391.337723 127.269701 
L 391.662703 209.789794 
L 391.987682 84.509083 
L 392.312662 158.505465 
L 392.637641 139.454869 
L 393.2876 245.459451 
L 393.61258 169.818467 
L 393.937559 241.129705 
L 394.262539 194.072187 
L 394.587518 126.05187 
L 394.912498 154.964836 
L 395.237477 145.568975 
L 395.562457 119.535784 
L 395.887437 128.546073 
L 396.212416 149.554346 
L 396.537396 194.359587 
L 397.187355 139.914702 
L 397.512334 173.770439 
L 397.837314 174.098028 
L 398.162293 170.779256 
L 398.487273 259.566617 
L 398.487273 259.566617 
" clip-path="url(#pa149988fb7)" style="fill: none; stroke: #1f77b4; stroke-width: 1.5; stroke-linecap: square"/>
   </g>
   <g id="patch_3">
    <path d="M 57.6 307.584 
L 57.6 41.472 
" style="fill: none; stroke: #000000; stroke-width: 0.8; stroke-linejoin: miter; stroke-linecap: square"/>
   </g>
   <g id="patch_4">
    <path d="M 414.72 307.584 
L 414.72 41.472 
" style="fill: none; stroke: #000000; stroke-width: 0.8; stroke-linejoin: miter; stroke-linecap: square"/>
   </g>
   <g id="patch_5">
    <path d="M 57.6 307.584 
L 414.72 307.584 
" style="fill: none; stroke: #000000; stroke-width: 0.8; stroke-linejoin: miter; stroke-linecap: square"/>
   </g>
   <g id="patch_6">
    <path d="M 57.6 41.472 
L 414.72 41.472 
" style="fill: none; stroke: #000000; stroke-width: 0.8; stroke-linejoin: miter; stroke-linecap: square"/>
   </g>
  </g>
 </g>
 <defs>
  <clipPath id="pa149988fb7">
   <rect x="57.6" y="41.472" width="357.12" height="266.112"/>
  </clipPath>
 </defs>
</svg>
