<?xml version="1.0" encoding="utf-8" standalone="no"?>
<!DOCTYPE svg PUBLIC "-//W3C//DTD SVG 1.1//EN"
  "http://www.w3.org/Graphics/SVG/1.1/DTD/svg11.dtd">
<svg xmlns:xlink="http://www.w3.org/1999/xlink" width="460.8pt" height="345.6pt" viewBox="0 0 460.8 345.6" xmlns="http://www.w3.org/2000/svg" version="1.1">
 <metadata>
  <rdf:RDF xmlns:dc="http://purl.org/dc/elements/1.1/" xmlns:cc="http://creativecommons.org/ns#" xmlns:rdf="http://www.w3.org/1999/02/22-rdf-syntax-ns#">
   <cc:Work>
    <dc:type rdf:resource="http://purl.org/dc/dcmitype/StillImage"/>
    <dc:date>2023-04-20T17:28:05.720030</dc:date>
    <dc:format>image/svg+xml</dc:format>
    <dc:creator>
     <cc:Agent>
      <dc:title>Matplotlib v3.5.2, https://matplotlib.org/</dc:title>
     </cc:Agent>
    </dc:creator>
   </cc:Work>
  </rdf:RDF>
 </metadata>
 <defs>
  <style type="text/css">*{stroke-linejoin: round; stroke-linecap: butt}</style>
 </defs>
 <g id="figure_1">
  <g id="patch_1">
   <path d="M 0 345.6 
L 460.8 345.6 
L 460.8 0 
L 0 0 
L 0 345.6 
z
" style="fill: none"/>
  </g>
  <g id="axes_1">
   <g id="patch_2">
    <path d="M 57.6 307.584 
L 414.72 307.584 
L 414.72 41.472 
L 57.6 41.472 
L 57.6 307.584 
z
" style="fill: none"/>
   </g>
   <g id="matplotlib.axis_1">
    <g id="xtick_1">
     <g id="line2d_1">
      <path d="M 73.832727 307.584 
L 73.832727 41.472 
" clip-path="url(#pa916f12bb3)" style="fill: none; stroke: #b0b0b0; stroke-width: 0.8; stroke-linecap: square"/>
     </g>
     <g id="line2d_2">
      <defs>
       <path id="m1d4950f21b" d="M 0 0 
L 0 3.5 
" style="stroke: #000000; stroke-width: 0.8"/>
      </defs>
      <g>
       <use xlink:href="#m1d4950f21b" x="73.832727" y="307.584" style="stroke: #000000; stroke-width: 0.8"/>
      </g>
     </g>
     <g id="text_1">
      <!-- 0 -->
      <g transform="translate(70.651477 322.182437)scale(0.1 -0.1)">
       <defs>
        <path id="DejaVuSans-30" d="M 2034 4250 
Q 1547 4250 1301 3770 
Q 1056 3291 1056 2328 
Q 1056 1369 1301 889 
Q 1547 409 2034 409 
Q 2525 409 2770 889 
Q 3016 1369 3016 2328 
Q 3016 3291 2770 3770 
Q 2525 4250 2034 4250 
z
M 2034 4750 
Q 2819 4750 3233 4129 
Q 3647 3509 3647 2328 
Q 3647 1150 3233 529 
Q 2819 -91 2034 -91 
Q 1250 -91 836 529 
Q 422 1150 422 2328 
Q 422 3509 836 4129 
Q 1250 4750 2034 4750 
z
" transform="scale(0.015625)"/>
       </defs>
       <use xlink:href="#DejaVuSans-30"/>
      </g>
     </g>
    </g>
    <g id="xtick_2">
     <g id="line2d_3">
      <path d="M 138.828632 307.584 
L 138.828632 41.472 
" clip-path="url(#pa916f12bb3)" style="fill: none; stroke: #b0b0b0; stroke-width: 0.8; stroke-linecap: square"/>
     </g>
     <g id="line2d_4">
      <g>
       <use xlink:href="#m1d4950f21b" x="138.828632" y="307.584" style="stroke: #000000; stroke-width: 0.8"/>
      </g>
     </g>
     <g id="text_2">
      <!-- 200 -->
      <g transform="translate(129.284882 322.182437)scale(0.1 -0.1)">
       <defs>
        <path id="DejaVuSans-32" d="M 1228 531 
L 3431 531 
L 3431 0 
L 469 0 
L 469 531 
Q 828 903 1448 1529 
Q 2069 2156 2228 2338 
Q 2531 2678 2651 2914 
Q 2772 3150 2772 3378 
Q 2772 3750 2511 3984 
Q 2250 4219 1831 4219 
Q 1534 4219 1204 4116 
Q 875 4013 500 3803 
L 500 4441 
Q 881 4594 1212 4672 
Q 1544 4750 1819 4750 
Q 2544 4750 2975 4387 
Q 3406 4025 3406 3419 
Q 3406 3131 3298 2873 
Q 3191 2616 2906 2266 
Q 2828 2175 2409 1742 
Q 1991 1309 1228 531 
z
" transform="scale(0.015625)"/>
       </defs>
       <use xlink:href="#DejaVuSans-32"/>
       <use xlink:href="#DejaVuSans-30" x="63.623047"/>
       <use xlink:href="#DejaVuSans-30" x="127.246094"/>
      </g>
     </g>
    </g>
    <g id="xtick_3">
     <g id="line2d_5">
      <path d="M 203.824537 307.584 
L 203.824537 41.472 
" clip-path="url(#pa916f12bb3)" style="fill: none; stroke: #b0b0b0; stroke-width: 0.8; stroke-linecap: square"/>
     </g>
     <g id="line2d_6">
      <g>
       <use xlink:href="#m1d4950f21b" x="203.824537" y="307.584" style="stroke: #000000; stroke-width: 0.8"/>
      </g>
     </g>
     <g id="text_3">
      <!-- 400 -->
      <g transform="translate(194.280787 322.182437)scale(0.1 -0.1)">
       <defs>
        <path id="DejaVuSans-34" d="M 2419 4116 
L 825 1625 
L 2419 1625 
L 2419 4116 
z
M 2253 4666 
L 3047 4666 
L 3047 1625 
L 3713 1625 
L 3713 1100 
L 3047 1100 
L 3047 0 
L 2419 0 
L 2419 1100 
L 313 1100 
L 313 1709 
L 2253 4666 
z
" transform="scale(0.015625)"/>
       </defs>
       <use xlink:href="#DejaVuSans-34"/>
       <use xlink:href="#DejaVuSans-30" x="63.623047"/>
       <use xlink:href="#DejaVuSans-30" x="127.246094"/>
      </g>
     </g>
    </g>
    <g id="xtick_4">
     <g id="line2d_7">
      <path d="M 268.820442 307.584 
L 268.820442 41.472 
" clip-path="url(#pa916f12bb3)" style="fill: none; stroke: #b0b0b0; stroke-width: 0.8; stroke-linecap: square"/>
     </g>
     <g id="line2d_8">
      <g>
       <use xlink:href="#m1d4950f21b" x="268.820442" y="307.584" style="stroke: #000000; stroke-width: 0.8"/>
      </g>
     </g>
     <g id="text_4">
      <!-- 600 -->
      <g transform="translate(259.276692 322.182437)scale(0.1 -0.1)">
       <defs>
        <path id="DejaVuSans-36" d="M 2113 2584 
Q 1688 2584 1439 2293 
Q 1191 2003 1191 1497 
Q 1191 994 1439 701 
Q 1688 409 2113 409 
Q 2538 409 2786 701 
Q 3034 994 3034 1497 
Q 3034 2003 2786 2293 
Q 2538 2584 2113 2584 
z
M 3366 4563 
L 3366 3988 
Q 3128 4100 2886 4159 
Q 2644 4219 2406 4219 
Q 1781 4219 1451 3797 
Q 1122 3375 1075 2522 
Q 1259 2794 1537 2939 
Q 1816 3084 2150 3084 
Q 2853 3084 3261 2657 
Q 3669 2231 3669 1497 
Q 3669 778 3244 343 
Q 2819 -91 2113 -91 
Q 1303 -91 875 529 
Q 447 1150 447 2328 
Q 447 3434 972 4092 
Q 1497 4750 2381 4750 
Q 2619 4750 2861 4703 
Q 3103 4656 3366 4563 
z
" transform="scale(0.015625)"/>
       </defs>
       <use xlink:href="#DejaVuSans-36"/>
       <use xlink:href="#DejaVuSans-30" x="63.623047"/>
       <use xlink:href="#DejaVuSans-30" x="127.246094"/>
      </g>
     </g>
    </g>
    <g id="xtick_5">
     <g id="line2d_9">
      <path d="M 333.816347 307.584 
L 333.816347 41.472 
" clip-path="url(#pa916f12bb3)" style="fill: none; stroke: #b0b0b0; stroke-width: 0.8; stroke-linecap: square"/>
     </g>
     <g id="line2d_10">
      <g>
       <use xlink:href="#m1d4950f21b" x="333.816347" y="307.584" style="stroke: #000000; stroke-width: 0.8"/>
      </g>
     </g>
     <g id="text_5">
      <!-- 800 -->
      <g transform="translate(324.272597 322.182437)scale(0.1 -0.1)">
       <defs>
        <path id="DejaVuSans-38" d="M 2034 2216 
Q 1584 2216 1326 1975 
Q 1069 1734 1069 1313 
Q 1069 891 1326 650 
Q 1584 409 2034 409 
Q 2484 409 2743 651 
Q 3003 894 3003 1313 
Q 3003 1734 2745 1975 
Q 2488 2216 2034 2216 
z
M 1403 2484 
Q 997 2584 770 2862 
Q 544 3141 544 3541 
Q 544 4100 942 4425 
Q 1341 4750 2034 4750 
Q 2731 4750 3128 4425 
Q 3525 4100 3525 3541 
Q 3525 3141 3298 2862 
Q 3072 2584 2669 2484 
Q 3125 2378 3379 2068 
Q 3634 1759 3634 1313 
Q 3634 634 3220 271 
Q 2806 -91 2034 -91 
Q 1263 -91 848 271 
Q 434 634 434 1313 
Q 434 1759 690 2068 
Q 947 2378 1403 2484 
z
M 1172 3481 
Q 1172 3119 1398 2916 
Q 1625 2713 2034 2713 
Q 2441 2713 2670 2916 
Q 2900 3119 2900 3481 
Q 2900 3844 2670 4047 
Q 2441 4250 2034 4250 
Q 1625 4250 1398 4047 
Q 1172 3844 1172 3481 
z
" transform="scale(0.015625)"/>
       </defs>
       <use xlink:href="#DejaVuSans-38"/>
       <use xlink:href="#DejaVuSans-30" x="63.623047"/>
       <use xlink:href="#DejaVuSans-30" x="127.246094"/>
      </g>
     </g>
    </g>
    <g id="xtick_6">
     <g id="line2d_11">
      <path d="M 398.812252 307.584 
L 398.812252 41.472 
" clip-path="url(#pa916f12bb3)" style="fill: none; stroke: #b0b0b0; stroke-width: 0.8; stroke-linecap: square"/>
     </g>
     <g id="line2d_12">
      <g>
       <use xlink:href="#m1d4950f21b" x="398.812252" y="307.584" style="stroke: #000000; stroke-width: 0.8"/>
      </g>
     </g>
     <g id="text_6">
      <!-- 1000 -->
      <g transform="translate(386.087252 322.182437)scale(0.1 -0.1)">
       <defs>
        <path id="DejaVuSans-31" d="M 794 531 
L 1825 531 
L 1825 4091 
L 703 3866 
L 703 4441 
L 1819 4666 
L 2450 4666 
L 2450 531 
L 3481 531 
L 3481 0 
L 794 0 
L 794 531 
z
" transform="scale(0.015625)"/>
       </defs>
       <use xlink:href="#DejaVuSans-31"/>
       <use xlink:href="#DejaVuSans-30" x="63.623047"/>
       <use xlink:href="#DejaVuSans-30" x="127.246094"/>
       <use xlink:href="#DejaVuSans-30" x="190.869141"/>
      </g>
     </g>
    </g>
    <g id="text_7">
     <!-- time index -->
     <g transform="translate(209.594375 335.860562)scale(0.1 -0.1)">
      <defs>
       <path id="DejaVuSans-74" d="M 1172 4494 
L 1172 3500 
L 2356 3500 
L 2356 3053 
L 1172 3053 
L 1172 1153 
Q 1172 725 1289 603 
Q 1406 481 1766 481 
L 2356 481 
L 2356 0 
L 1766 0 
Q 1100 0 847 248 
Q 594 497 594 1153 
L 594 3053 
L 172 3053 
L 172 3500 
L 594 3500 
L 594 4494 
L 1172 4494 
z
" transform="scale(0.015625)"/>
       <path id="DejaVuSans-69" d="M 603 3500 
L 1178 3500 
L 1178 0 
L 603 0 
L 603 3500 
z
M 603 4863 
L 1178 4863 
L 1178 4134 
L 603 4134 
L 603 4863 
z
" transform="scale(0.015625)"/>
       <path id="DejaVuSans-6d" d="M 3328 2828 
Q 3544 3216 3844 3400 
Q 4144 3584 4550 3584 
Q 5097 3584 5394 3201 
Q 5691 2819 5691 2113 
L 5691 0 
L 5113 0 
L 5113 2094 
Q 5113 2597 4934 2840 
Q 4756 3084 4391 3084 
Q 3944 3084 3684 2787 
Q 3425 2491 3425 1978 
L 3425 0 
L 2847 0 
L 2847 2094 
Q 2847 2600 2669 2842 
Q 2491 3084 2119 3084 
Q 1678 3084 1418 2786 
Q 1159 2488 1159 1978 
L 1159 0 
L 581 0 
L 581 3500 
L 1159 3500 
L 1159 2956 
Q 1356 3278 1631 3431 
Q 1906 3584 2284 3584 
Q 2666 3584 2933 3390 
Q 3200 3197 3328 2828 
z
" transform="scale(0.015625)"/>
       <path id="DejaVuSans-65" d="M 3597 1894 
L 3597 1613 
L 953 1613 
Q 991 1019 1311 708 
Q 1631 397 2203 397 
Q 2534 397 2845 478 
Q 3156 559 3463 722 
L 3463 178 
Q 3153 47 2828 -22 
Q 2503 -91 2169 -91 
Q 1331 -91 842 396 
Q 353 884 353 1716 
Q 353 2575 817 3079 
Q 1281 3584 2069 3584 
Q 2775 3584 3186 3129 
Q 3597 2675 3597 1894 
z
M 3022 2063 
Q 3016 2534 2758 2815 
Q 2500 3097 2075 3097 
Q 1594 3097 1305 2825 
Q 1016 2553 972 2059 
L 3022 2063 
z
" transform="scale(0.015625)"/>
       <path id="DejaVuSans-20" transform="scale(0.015625)"/>
       <path id="DejaVuSans-6e" d="M 3513 2113 
L 3513 0 
L 2938 0 
L 2938 2094 
Q 2938 2591 2744 2837 
Q 2550 3084 2163 3084 
Q 1697 3084 1428 2787 
Q 1159 2491 1159 1978 
L 1159 0 
L 581 0 
L 581 3500 
L 1159 3500 
L 1159 2956 
Q 1366 3272 1645 3428 
Q 1925 3584 2291 3584 
Q 2894 3584 3203 3211 
Q 3513 2838 3513 2113 
z
" transform="scale(0.015625)"/>
       <path id="DejaVuSans-64" d="M 2906 2969 
L 2906 4863 
L 3481 4863 
L 3481 0 
L 2906 0 
L 2906 525 
Q 2725 213 2448 61 
Q 2172 -91 1784 -91 
Q 1150 -91 751 415 
Q 353 922 353 1747 
Q 353 2572 751 3078 
Q 1150 3584 1784 3584 
Q 2172 3584 2448 3432 
Q 2725 3281 2906 2969 
z
M 947 1747 
Q 947 1113 1208 752 
Q 1469 391 1925 391 
Q 2381 391 2643 752 
Q 2906 1113 2906 1747 
Q 2906 2381 2643 2742 
Q 2381 3103 1925 3103 
Q 1469 3103 1208 2742 
Q 947 2381 947 1747 
z
" transform="scale(0.015625)"/>
       <path id="DejaVuSans-78" d="M 3513 3500 
L 2247 1797 
L 3578 0 
L 2900 0 
L 1881 1375 
L 863 0 
L 184 0 
L 1544 1831 
L 300 3500 
L 978 3500 
L 1906 2253 
L 2834 3500 
L 3513 3500 
z
" transform="scale(0.015625)"/>
      </defs>
      <use xlink:href="#DejaVuSans-74"/>
      <use xlink:href="#DejaVuSans-69" x="39.208984"/>
      <use xlink:href="#DejaVuSans-6d" x="66.992188"/>
      <use xlink:href="#DejaVuSans-65" x="164.404297"/>
      <use xlink:href="#DejaVuSans-20" x="225.927734"/>
      <use xlink:href="#DejaVuSans-69" x="257.714844"/>
      <use xlink:href="#DejaVuSans-6e" x="285.498047"/>
      <use xlink:href="#DejaVuSans-64" x="348.876953"/>
      <use xlink:href="#DejaVuSans-65" x="412.353516"/>
      <use xlink:href="#DejaVuSans-78" x="472.126953"/>
     </g>
    </g>
   </g>
   <g id="matplotlib.axis_2">
    <g id="ytick_1">
     <g id="line2d_13">
      <path d="M 57.6 301.835478 
L 414.72 301.835478 
" clip-path="url(#pa916f12bb3)" style="fill: none; stroke: #b0b0b0; stroke-width: 0.8; stroke-linecap: square"/>
     </g>
     <g id="line2d_14">
      <defs>
       <path id="m0298735790" d="M 0 0 
L -3.5 0 
" style="stroke: #000000; stroke-width: 0.8"/>
      </defs>
      <g>
       <use xlink:href="#m0298735790" x="57.6" y="301.835478" style="stroke: #000000; stroke-width: 0.8"/>
      </g>
     </g>
     <g id="text_8">
      <!-- −3 -->
      <g transform="translate(35.857813 305.634696)scale(0.1 -0.1)">
       <defs>
        <path id="DejaVuSans-2212" d="M 678 2272 
L 4684 2272 
L 4684 1741 
L 678 1741 
L 678 2272 
z
" transform="scale(0.015625)"/>
        <path id="DejaVuSans-33" d="M 2597 2516 
Q 3050 2419 3304 2112 
Q 3559 1806 3559 1356 
Q 3559 666 3084 287 
Q 2609 -91 1734 -91 
Q 1441 -91 1130 -33 
Q 819 25 488 141 
L 488 750 
Q 750 597 1062 519 
Q 1375 441 1716 441 
Q 2309 441 2620 675 
Q 2931 909 2931 1356 
Q 2931 1769 2642 2001 
Q 2353 2234 1838 2234 
L 1294 2234 
L 1294 2753 
L 1863 2753 
Q 2328 2753 2575 2939 
Q 2822 3125 2822 3475 
Q 2822 3834 2567 4026 
Q 2313 4219 1838 4219 
Q 1578 4219 1281 4162 
Q 984 4106 628 3988 
L 628 4550 
Q 988 4650 1302 4700 
Q 1616 4750 1894 4750 
Q 2613 4750 3031 4423 
Q 3450 4097 3450 3541 
Q 3450 3153 3228 2886 
Q 3006 2619 2597 2516 
z
" transform="scale(0.015625)"/>
       </defs>
       <use xlink:href="#DejaVuSans-2212"/>
       <use xlink:href="#DejaVuSans-33" x="83.789062"/>
      </g>
     </g>
    </g>
    <g id="ytick_2">
     <g id="line2d_15">
      <path d="M 57.6 259.7189 
L 414.72 259.7189 
" clip-path="url(#pa916f12bb3)" style="fill: none; stroke: #b0b0b0; stroke-width: 0.8; stroke-linecap: square"/>
     </g>
     <g id="line2d_16">
      <g>
       <use xlink:href="#m0298735790" x="57.6" y="259.7189" style="stroke: #000000; stroke-width: 0.8"/>
      </g>
     </g>
     <g id="text_9">
      <!-- −2 -->
      <g transform="translate(35.857813 263.518119)scale(0.1 -0.1)">
       <use xlink:href="#DejaVuSans-2212"/>
       <use xlink:href="#DejaVuSans-32" x="83.789062"/>
      </g>
     </g>
    </g>
    <g id="ytick_3">
     <g id="line2d_17">
      <path d="M 57.6 217.602323 
L 414.72 217.602323 
" clip-path="url(#pa916f12bb3)" style="fill: none; stroke: #b0b0b0; stroke-width: 0.8; stroke-linecap: square"/>
     </g>
     <g id="line2d_18">
      <g>
       <use xlink:href="#m0298735790" x="57.6" y="217.602323" style="stroke: #000000; stroke-width: 0.8"/>
      </g>
     </g>
     <g id="text_10">
      <!-- −1 -->
      <g transform="translate(35.857813 221.401542)scale(0.1 -0.1)">
       <use xlink:href="#DejaVuSans-2212"/>
       <use xlink:href="#DejaVuSans-31" x="83.789062"/>
      </g>
     </g>
    </g>
    <g id="ytick_4">
     <g id="line2d_19">
      <path d="M 57.6 175.485746 
L 414.72 175.485746 
" clip-path="url(#pa916f12bb3)" style="fill: none; stroke: #b0b0b0; stroke-width: 0.8; stroke-linecap: square"/>
     </g>
     <g id="line2d_20">
      <g>
       <use xlink:href="#m0298735790" x="57.6" y="175.485746" style="stroke: #000000; stroke-width: 0.8"/>
      </g>
     </g>
     <g id="text_11">
      <!-- 0 -->
      <g transform="translate(44.2375 179.284965)scale(0.1 -0.1)">
       <use xlink:href="#DejaVuSans-30"/>
      </g>
     </g>
    </g>
    <g id="ytick_5">
     <g id="line2d_21">
      <path d="M 57.6 133.369169 
L 414.72 133.369169 
" clip-path="url(#pa916f12bb3)" style="fill: none; stroke: #b0b0b0; stroke-width: 0.8; stroke-linecap: square"/>
     </g>
     <g id="line2d_22">
      <g>
       <use xlink:href="#m0298735790" x="57.6" y="133.369169" style="stroke: #000000; stroke-width: 0.8"/>
      </g>
     </g>
     <g id="text_12">
      <!-- 1 -->
      <g transform="translate(44.2375 137.168388)scale(0.1 -0.1)">
       <use xlink:href="#DejaVuSans-31"/>
      </g>
     </g>
    </g>
    <g id="ytick_6">
     <g id="line2d_23">
      <path d="M 57.6 91.252592 
L 414.72 91.252592 
" clip-path="url(#pa916f12bb3)" style="fill: none; stroke: #b0b0b0; stroke-width: 0.8; stroke-linecap: square"/>
     </g>
     <g id="line2d_24">
      <g>
       <use xlink:href="#m0298735790" x="57.6" y="91.252592" style="stroke: #000000; stroke-width: 0.8"/>
      </g>
     </g>
     <g id="text_13">
      <!-- 2 -->
      <g transform="translate(44.2375 95.051811)scale(0.1 -0.1)">
       <use xlink:href="#DejaVuSans-32"/>
      </g>
     </g>
    </g>
    <g id="ytick_7">
     <g id="line2d_25">
      <path d="M 57.6 49.136015 
L 414.72 49.136015 
" clip-path="url(#pa916f12bb3)" style="fill: none; stroke: #b0b0b0; stroke-width: 0.8; stroke-linecap: square"/>
     </g>
     <g id="line2d_26">
      <g>
       <use xlink:href="#m0298735790" x="57.6" y="49.136015" style="stroke: #000000; stroke-width: 0.8"/>
      </g>
     </g>
     <g id="text_14">
      <!-- 3 -->
      <g transform="translate(44.2375 52.935234)scale(0.1 -0.1)">
       <use xlink:href="#DejaVuSans-33"/>
      </g>
     </g>
    </g>
    <g id="text_15">
     <!-- $y$ -->
     <g transform="translate(29.757812 177.528)rotate(-90)scale(0.1 -0.1)">
      <defs>
       <path id="DejaVuSans-Oblique-79" d="M 1588 -325 
Q 1188 -997 936 -1164 
Q 684 -1331 294 -1331 
L -159 -1331 
L -63 -850 
L 269 -850 
Q 509 -850 678 -719 
Q 847 -588 1056 -206 
L 1234 128 
L 459 3500 
L 1069 3500 
L 1650 819 
L 3256 3500 
L 3859 3500 
L 1588 -325 
z
" transform="scale(0.015625)"/>
      </defs>
      <use xlink:href="#DejaVuSans-Oblique-79" transform="translate(0 0.3125)"/>
     </g>
    </g>
   </g>
   <g id="line2d_27">
    <path d="M 73.832727 164.358471 
L 74.157707 238.30476 
L 74.482686 138.12009 
L 74.807666 199.775547 
L 75.132645 233.509054 
L 75.457625 158.068832 
L 75.782604 186.235386 
L 76.107584 101.125315 
L 76.432563 221.988285 
L 76.757543 125.604041 
L 77.407502 207.647874 
L 77.732482 224.924712 
L 78.057461 117.698602 
L 78.382441 100.54528 
L 78.70742 172.883442 
L 79.0324 116.305102 
L 79.357379 193.340906 
L 79.682359 238.28494 
L 80.007338 132.691768 
L 80.332318 136.544217 
L 80.657297 265.243649 
L 80.982277 109.090747 
L 81.307256 103.475641 
L 81.632236 185.121065 
L 81.957215 195.707684 
L 82.282195 192.236377 
L 82.607174 104.786186 
L 83.257133 197.710434 
L 83.582113 185.148193 
L 83.907093 142.59446 
L 84.557052 223.692717 
L 84.882031 228.523265 
L 85.207011 154.317775 
L 85.53199 120.950767 
L 85.85697 212.600004 
L 86.181949 191.855153 
L 86.506929 209.208305 
L 86.831908 158.108067 
L 87.156888 132.283746 
L 87.481867 182.92298 
L 87.806847 132.595442 
L 88.131826 185.779801 
L 88.456806 157.020464 
L 88.781785 235.227943 
L 89.106765 276.270458 
L 89.431744 190.465501 
L 89.756724 202.577386 
L 90.081704 164.615089 
L 90.406683 110.338692 
L 90.731663 165.884251 
L 91.056642 250.266633 
L 92.031581 133.075427 
L 92.35656 219.018199 
L 92.68154 107.46532 
L 93.331499 210.504976 
L 93.656478 135.612843 
L 93.981458 216.007769 
L 94.306437 145.583173 
L 94.631417 198.618362 
L 94.956396 123.411116 
L 95.281376 118.752277 
L 95.606355 228.784324 
L 96.256314 220.587275 
L 96.906274 176.881806 
L 97.231253 217.279969 
L 97.556233 200.183752 
L 97.881212 207.480152 
L 98.206192 207.721379 
L 98.531171 190.900144 
L 98.856151 212.597083 
L 99.18113 152.223915 
L 99.50611 146.682968 
L 99.831089 156.258064 
L 100.156069 149.356851 
L 100.481048 204.721697 
L 101.131007 162.36459 
L 101.455987 193.816271 
L 101.780966 191.702584 
L 102.430925 102.173656 
L 102.755905 146.670429 
L 103.080885 147.746291 
L 103.405864 173.011887 
L 103.730844 241.530632 
L 104.055823 104.637505 
L 104.380803 141.887373 
L 104.705782 119.599808 
L 105.030762 130.437871 
L 105.355741 179.019819 
L 105.680721 258.303464 
L 106.0057 155.953809 
L 106.33068 239.222119 
L 106.655659 135.567631 
L 106.980639 114.860532 
L 107.305618 150.629421 
L 107.630598 224.175776 
L 108.280557 83.102139 
L 108.930516 234.10326 
L 109.905455 121.329983 
L 110.230434 160.723431 
L 110.555414 168.719089 
L 110.880393 155.900716 
L 111.205373 163.119851 
L 111.530352 156.054274 
L 111.855332 153.438619 
L 112.180311 213.383075 
L 112.505291 186.843917 
L 112.83027 143.567672 
L 113.15525 171.633491 
L 113.480229 158.743882 
L 113.805209 245.049615 
L 114.130188 188.873802 
L 114.455168 237.160484 
L 114.780147 214.187227 
L 115.105127 203.815089 
L 115.430106 211.364022 
L 115.755086 156.385917 
L 116.080066 124.013023 
L 116.405045 216.766376 
L 116.730025 194.835993 
L 117.055004 115.246336 
L 117.379984 199.15729 
L 117.704963 189.274229 
L 118.029943 158.558952 
L 118.354922 148.994393 
L 118.679902 153.98629 
L 119.004881 145.471555 
L 119.329861 157.970017 
L 119.65484 225.157921 
L 119.97982 235.159282 
L 120.304799 129.183235 
L 120.629779 165.454282 
L 121.279738 151.819651 
L 121.604717 185.53437 
L 121.929697 259.48068 
L 122.254676 138.18247 
L 122.579656 156.939418 
L 122.904636 140.690003 
L 123.229615 134.845122 
L 123.554595 207.238386 
L 123.879574 97.061218 
L 124.529533 276.525236 
L 125.179492 120.179263 
L 125.504472 200.034659 
L 125.829451 128.169981 
L 126.154431 205.298778 
L 126.47941 204.599205 
L 126.80439 194.39551 
L 127.454349 117.277342 
L 127.779328 274.866618 
L 128.104308 241.844573 
L 128.429287 54.367371 
L 128.754267 163.992196 
L 129.079247 157.799791 
L 129.404226 193.264775 
L 129.729206 157.447479 
L 130.054185 169.82595 
L 130.379165 161.057548 
L 130.704144 129.118895 
L 131.029124 130.779242 
L 131.354103 127.976645 
L 132.004062 278.455042 
L 132.329042 149.093498 
L 132.654021 180.566795 
L 132.979001 200.071162 
L 133.30398 163.555464 
L 133.62896 268.804674 
L 134.603898 173.716531 
L 134.928878 169.208096 
L 135.253857 208.634429 
L 135.578837 210.645405 
L 135.903817 137.289366 
L 136.228796 233.357114 
L 136.553776 197.227804 
L 136.878755 196.884715 
L 137.203735 156.07985 
L 137.528714 212.397101 
L 137.853694 184.794017 
L 138.178673 227.535922 
L 138.503653 118.860427 
L 138.828632 158.476098 
L 139.153612 157.268171 
L 139.478591 146.023149 
L 139.803571 156.914415 
L 140.12855 250.14551 
L 140.45353 112.882227 
L 140.778509 196.099208 
L 141.103489 134.521938 
L 141.428468 175.35994 
L 141.753448 130.756914 
L 142.078428 174.86772 
L 142.403407 131.750671 
L 143.053366 198.339406 
L 143.378346 153.310051 
L 143.703325 261.684233 
L 144.028305 180.52963 
L 144.353284 203.86115 
L 144.678264 165.695867 
L 145.003243 155.056173 
L 145.328223 182.085595 
L 145.653202 167.99705 
L 145.978182 218.18678 
L 146.303161 193.328492 
L 146.628141 200.616977 
L 146.95312 203.650947 
L 147.2781 94.788871 
L 147.603079 159.495667 
L 147.928059 198.918102 
L 148.253038 86.407352 
L 148.578018 204.258825 
L 148.902998 216.156708 
L 149.227977 268.90596 
L 149.877936 146.227959 
L 150.202916 138.523678 
L 150.527895 150.77715 
L 150.852875 208.962291 
L 151.177854 213.643587 
L 151.502834 139.827896 
L 151.827813 147.072656 
L 152.152793 229.87403 
L 152.477772 112.013497 
L 152.802752 157.834282 
L 153.127731 136.016621 
L 153.452711 185.091561 
L 153.77769 195.468911 
L 154.10267 104.514401 
L 154.752629 193.83749 
L 155.077609 176.758128 
L 155.402588 140.975653 
L 155.727568 129.513914 
L 156.052547 169.579409 
L 156.702506 53.568 
L 157.027486 199.343893 
L 157.352465 180.120774 
L 157.677445 177.849102 
L 158.002424 203.319361 
L 158.327404 196.066989 
L 158.652383 153.474739 
L 158.977363 223.651986 
L 159.302342 175.120146 
L 159.627322 150.910183 
L 159.952301 173.056702 
L 160.277281 203.738232 
L 160.92724 84.998064 
L 161.252219 201.232012 
L 161.577199 198.107842 
L 161.902179 152.26347 
L 162.227158 162.547027 
L 162.552138 122.476403 
L 162.877117 226.342432 
L 163.202097 190.254002 
L 163.527076 184.519365 
L 163.852056 196.956039 
L 164.177035 173.491103 
L 164.502015 199.233151 
L 164.826994 138.814924 
L 165.151974 238.134434 
L 165.476953 240.403235 
L 165.801933 97.136054 
L 166.126912 171.323918 
L 166.451892 159.9461 
L 166.776871 199.838078 
L 167.101851 214.310462 
L 167.42683 241.080661 
L 168.07679 107.36974 
L 168.401769 106.926903 
L 168.726749 111.421005 
L 169.051728 188.32065 
L 169.376708 185.026165 
L 169.701687 185.459833 
L 170.026667 148.861088 
L 170.351646 145.11591 
L 170.676626 193.109446 
L 171.001605 183.212388 
L 171.326585 91.529203 
L 171.651564 178.564277 
L 171.976544 192.36594 
L 172.301523 232.95317 
L 172.626503 136.538351 
L 172.951482 179.496808 
L 173.276462 171.337191 
L 173.601441 248.877994 
L 173.926421 184.416906 
L 174.2514 221.938696 
L 174.57638 102.318075 
L 175.226339 191.582422 
L 175.551319 166.817218 
L 175.876298 201.524042 
L 176.201278 156.570112 
L 176.526257 78.12753 
L 177.176216 166.422508 
L 177.826175 121.6901 
L 178.151155 243.296343 
L 178.476134 158.65818 
L 178.801114 171.881141 
L 179.126093 136.017264 
L 179.451073 134.954325 
L 179.776052 149.967718 
L 180.101032 175.115636 
L 180.426011 251.407485 
L 181.075971 130.100947 
L 181.40095 199.438551 
L 182.050909 160.230705 
L 182.375889 159.024177 
L 182.700868 204.335933 
L 183.025848 187.806398 
L 183.350827 159.351372 
L 183.675807 119.03255 
L 184.000786 184.920213 
L 184.325766 193.835866 
L 184.650745 159.805961 
L 184.975725 209.098032 
L 185.300704 206.553456 
L 185.625684 209.749115 
L 185.950663 157.730696 
L 186.275643 184.010689 
L 186.600622 220.519918 
L 186.925602 132.391035 
L 187.575561 266.264499 
L 187.900541 187.3874 
L 188.22552 139.888395 
L 188.5505 143.272176 
L 188.875479 237.691277 
L 189.200459 165.071556 
L 189.525438 175.056014 
L 189.850418 134.414131 
L 190.175397 188.545798 
L 190.500377 150.855706 
L 190.825356 150.463083 
L 191.150336 230.03851 
L 191.475315 249.357683 
L 191.800295 205.791833 
L 192.125274 57.237301 
L 192.450254 164.785361 
L 192.775233 153.324144 
L 193.100213 200.496576 
L 193.750172 252.564205 
L 194.075152 145.830855 
L 194.400131 247.941181 
L 194.725111 156.816001 
L 195.05009 111.156716 
L 195.37507 206.090925 
L 195.700049 149.922988 
L 196.025029 167.770726 
L 196.350008 106.559797 
L 196.674988 115.318583 
L 197.324947 218.339457 
L 197.649926 109.616512 
L 197.974906 130.476884 
L 198.299885 199.300365 
L 198.624865 123.251826 
L 198.949844 188.64021 
L 199.274824 194.822218 
L 199.599803 170.122139 
L 199.924783 198.340711 
L 200.249762 251.60725 
L 200.574742 89.994106 
L 200.899722 141.169838 
L 201.224701 247.909983 
L 201.549681 207.194131 
L 201.87466 215.777958 
L 202.19964 141.467834 
L 202.524619 139.783929 
L 203.174578 251.347771 
L 203.499558 218.365829 
L 203.824537 170.588692 
L 204.149517 216.287286 
L 204.474496 195.081133 
L 204.799476 116.602355 
L 205.124455 175.91653 
L 205.449435 68.802109 
L 206.099394 168.008495 
L 206.424373 179.133908 
L 206.749353 245.796628 
L 207.399312 176.425205 
L 207.724292 91.871999 
L 208.049271 114.999908 
L 208.374251 203.830904 
L 208.69923 94.881928 
L 209.02421 147.908557 
L 209.349189 163.14541 
L 209.674169 156.352647 
L 209.999148 175.517218 
L 210.324128 119.844379 
L 210.649107 174.666453 
L 210.974087 147.78062 
L 211.299066 137.619226 
L 211.624046 171.209017 
L 211.949025 250.464409 
L 212.274005 218.122387 
L 212.598984 245.687703 
L 212.923964 168.949305 
L 213.248943 187.121219 
L 213.573923 168.781369 
L 213.898903 245.517124 
L 214.223882 139.65972 
L 214.548862 191.266514 
L 214.873841 180.482989 
L 215.198821 205.419443 
L 215.5238 114.44056 
L 215.84878 113.539423 
L 216.173759 176.031625 
L 216.498739 191.008605 
L 216.823718 171.366802 
L 217.148698 126.101608 
L 217.473677 201.584398 
L 217.798657 179.602106 
L 218.123636 270.100155 
L 218.448616 192.18637 
L 218.773595 196.289212 
L 219.098575 128.113328 
L 219.423554 260.924482 
L 219.748534 100.45757 
L 220.073514 145.356403 
L 220.398493 108.784621 
L 220.723473 173.867545 
L 221.048452 209.408539 
L 221.373432 192.881702 
L 221.698411 252.143995 
L 222.023391 126.337066 
L 222.34837 231.041878 
L 222.67335 173.205954 
L 222.998329 245.117591 
L 223.323309 161.358515 
L 223.973268 225.35682 
L 224.298247 206.639717 
L 224.948206 102.360908 
L 225.273186 189.894808 
L 225.598165 141.021663 
L 225.923145 217.588479 
L 226.248124 186.663428 
L 226.573104 169.138055 
L 226.898084 173.582095 
L 227.223063 144.599394 
L 227.548043 240.000647 
L 227.873022 146.158623 
L 228.198002 170.984156 
L 228.847961 112.195053 
L 229.17294 287.279099 
L 229.49792 251.982602 
L 230.147879 157.969065 
L 230.472858 243.398066 
L 230.797838 116.468203 
L 231.122817 129.101728 
L 231.447797 220.138826 
L 231.772776 191.299177 
L 232.097756 144.166768 
L 232.422735 186.04087 
L 232.747715 114.165396 
L 233.072695 168.836631 
L 233.397674 192.144458 
L 233.722654 165.608042 
L 234.047633 199.303664 
L 234.372613 261.812464 
L 234.697592 242.29647 
L 235.022572 83.073135 
L 235.347551 228.555837 
L 235.672531 233.311216 
L 235.99751 147.963149 
L 236.32249 148.813781 
L 236.647469 204.21 
L 236.972449 193.621713 
L 237.297428 97.328572 
L 237.622408 163.277081 
L 237.947387 264.610238 
L 238.272367 92.720023 
L 238.597346 208.16937 
L 238.922326 210.399734 
L 239.247305 120.005561 
L 239.897265 178.612894 
L 240.222244 223.200761 
L 240.547224 211.551274 
L 240.872203 220.276981 
L 241.197183 247.214472 
L 241.522162 127.986936 
L 241.847142 110.675265 
L 242.172121 172.213711 
L 242.497101 273.226594 
L 242.82208 164.439872 
L 243.14706 212.457737 
L 243.472039 147.410114 
L 243.797019 295.488 
L 244.121998 209.12546 
L 244.446978 174.003295 
L 244.771957 227.389224 
L 245.096937 201.474265 
L 245.421916 144.751369 
L 245.746896 146.570888 
L 246.071876 234.13598 
L 246.396855 204.395024 
L 246.721835 65.816996 
L 247.046814 233.037884 
L 247.371794 111.070411 
L 247.696773 247.399368 
L 248.021753 157.842111 
L 248.346732 134.38597 
L 248.671712 196.194342 
L 248.996691 230.034502 
L 249.321671 147.779905 
L 249.64665 215.030738 
L 249.97163 143.219576 
L 250.296609 223.345295 
L 250.946568 128.675221 
L 251.271548 141.023813 
L 251.596527 217.051811 
L 251.921507 181.80843 
L 252.246486 247.972089 
L 252.571466 168.580548 
L 252.896446 215.013321 
L 253.221425 243.402901 
L 253.546405 154.431011 
L 253.871384 139.464151 
L 254.196364 158.312121 
L 254.521343 196.362739 
L 254.846323 199.075628 
L 255.171302 206.058922 
L 255.496282 120.481701 
L 255.821261 245.05149 
L 256.146241 205.660766 
L 256.47122 183.860782 
L 256.7962 235.132531 
L 257.121179 113.88842 
L 257.446159 148.791136 
L 257.771138 158.500914 
L 258.096118 164.861766 
L 258.421097 143.279186 
L 258.746077 157.100977 
L 259.071057 216.267414 
L 259.396036 114.511686 
L 259.721016 190.691231 
L 260.045995 151.42085 
L 260.695954 180.521655 
L 261.020934 155.903303 
L 261.345913 198.033881 
L 261.670893 224.649204 
L 261.995872 287.121232 
L 262.320852 193.655765 
L 262.645831 214.760286 
L 263.29579 169.830496 
L 263.62077 102.115862 
L 263.945749 111.614323 
L 264.595708 178.697322 
L 264.920688 147.375287 
L 265.245667 185.005539 
L 265.570647 127.045578 
L 265.895627 196.856246 
L 266.220606 210.017096 
L 266.545586 184.244574 
L 266.870565 97.653231 
L 267.195545 116.649858 
L 267.845504 201.966453 
L 268.170483 186.848298 
L 268.495463 224.043187 
L 268.820442 237.057258 
L 269.145422 159.750512 
L 269.470401 192.634374 
L 269.795381 155.583217 
L 270.12036 139.516862 
L 270.44534 203.002046 
L 270.770319 183.338743 
L 271.095299 128.375482 
L 271.420278 175.406512 
L 271.745258 147.178291 
L 272.070238 185.747333 
L 272.395217 274.126973 
L 272.720197 159.127854 
L 273.045176 131.201804 
L 273.370156 217.935968 
L 273.695135 167.943883 
L 274.020115 164.638755 
L 274.345094 222.757865 
L 274.995053 101.337015 
L 275.320033 197.999126 
L 275.645012 219.479634 
L 275.969992 135.612901 
L 276.294971 232.843103 
L 276.619951 161.502358 
L 276.94493 206.526733 
L 277.26991 220.956639 
L 277.594889 200.235589 
L 277.919869 208.513713 
L 278.244848 208.713475 
L 278.569828 145.877249 
L 279.869746 96.569971 
L 280.194726 131.477166 
L 280.519705 202.057837 
L 280.844685 168.485518 
L 281.169664 185.394757 
L 281.494644 185.816683 
L 281.819623 175.258198 
L 282.144603 82.532654 
L 282.469582 154.204431 
L 282.794562 170.070833 
L 283.119541 148.490774 
L 283.444521 138.541732 
L 283.7695 214.293315 
L 284.09448 213.682601 
L 284.744439 134.03746 
L 285.069419 179.558968 
L 285.394398 200.934119 
L 285.719378 158.359937 
L 286.044357 205.118558 
L 286.369337 82.408137 
L 287.019296 242.992885 
L 287.344275 210.955653 
L 287.669255 125.352711 
L 288.319214 254.74236 
L 288.644193 125.739027 
L 288.969173 175.15543 
L 289.294152 123.068579 
L 289.619132 179.076886 
L 289.944111 118.86225 
L 290.269091 138.326033 
L 290.59407 226.105173 
L 290.91905 128.054327 
L 291.569009 232.724495 
L 291.893989 128.11758 
L 292.218968 150.960275 
L 292.543948 96.70243 
L 292.868927 94.163041 
L 293.193907 226.32606 
L 293.518886 194.208565 
L 293.843866 199.066242 
L 294.168845 166.696387 
L 294.493825 202.396967 
L 294.818804 217.636554 
L 295.468763 145.419459 
L 295.793743 181.3834 
L 296.118722 119.520734 
L 296.443702 231.770184 
L 296.768681 232.995679 
L 297.093661 150.253453 
L 297.41864 163.821409 
L 297.74362 275.827113 
L 298.393579 112.776153 
L 298.718559 165.614875 
L 299.043538 176.2801 
L 299.368518 182.850496 
L 299.693497 133.768056 
L 300.018477 206.587709 
L 300.343456 170.86761 
L 300.993415 129.350586 
L 301.318395 177.7527 
L 301.643374 145.534587 
L 301.968354 154.100605 
L 302.293333 253.069617 
L 302.943292 165.375459 
L 303.268272 179.09029 
L 303.593251 171.012351 
L 303.918231 141.294745 
L 304.24321 185.48232 
L 304.56819 136.67591 
L 304.89317 213.452077 
L 305.218149 158.891121 
L 305.543129 188.374511 
L 305.868108 151.392857 
L 306.193088 171.711631 
L 306.518067 139.694078 
L 306.843047 128.19237 
L 307.168026 173.194409 
L 307.493006 115.65884 
L 307.817985 212.470605 
L 308.142965 135.874619 
L 308.467944 225.989328 
L 308.792924 230.788764 
L 309.117903 161.824229 
L 309.442883 270.381078 
L 309.767862 195.110956 
L 310.092842 162.392346 
L 310.417821 96.403126 
L 310.742801 223.00494 
L 311.067781 111.925252 
L 311.71774 226.466938 
L 312.042719 139.033679 
L 312.367699 200.634453 
L 312.692678 190.150494 
L 313.017658 165.201147 
L 313.342637 188.71812 
L 313.992596 245.84083 
L 314.317576 159.619213 
L 314.642555 244.827222 
L 314.967535 170.558789 
L 315.292514 151.367428 
L 315.617494 242.631387 
L 315.942473 89.068694 
L 316.267453 163.276178 
L 316.592432 167.413673 
L 316.917412 188.417024 
L 317.242391 141.83906 
L 317.567371 116.322544 
L 318.21733 221.836414 
L 318.54231 136.342119 
L 318.867289 148.439766 
L 319.192269 179.902104 
L 319.517248 179.640714 
L 319.842228 193.062895 
L 320.167207 182.869597 
L 320.492187 147.205111 
L 321.142146 217.935114 
L 321.467125 163.610978 
L 321.792105 204.910423 
L 322.117084 132.297769 
L 322.442064 208.102819 
L 322.767043 159.458581 
L 323.092023 191.35862 
L 323.417002 210.175322 
L 323.741982 125.925148 
L 324.066962 138.288097 
L 324.391941 168.107738 
L 324.716921 254.179597 
L 325.0419 188.189871 
L 325.36688 178.605454 
L 325.691859 126.805603 
L 326.016839 213.900062 
L 326.341818 137.276232 
L 326.666798 216.23645 
L 326.991777 209.423689 
L 327.316757 119.515429 
L 327.641736 158.630439 
L 327.966716 157.385657 
L 328.291695 180.840457 
L 328.616675 195.176555 
L 328.941654 222.00916 
L 329.266634 190.294611 
L 329.591613 205.260666 
L 329.916593 230.220014 
L 330.241572 125.505447 
L 330.891532 183.500614 
L 331.216511 155.678171 
L 331.541491 222.128597 
L 331.86647 192.843946 
L 332.516429 94.143195 
L 332.841409 212.925437 
L 333.166388 202.485209 
L 333.491368 114.504874 
L 333.816347 171.452576 
L 334.466306 95.811002 
L 334.791286 165.450265 
L 335.116265 192.204144 
L 335.441245 185.745638 
L 335.766224 215.412654 
L 336.091204 126.088387 
L 336.416183 232.721108 
L 336.741163 161.578037 
L 337.066143 219.27696 
L 337.391122 202.963016 
L 337.716102 97.903752 
L 338.041081 256.572222 
L 338.366061 240.421462 
L 338.69104 130.095659 
L 339.01602 152.204495 
L 339.340999 92.983965 
L 339.665979 125.303695 
L 339.990958 181.547944 
L 340.315938 135.671725 
L 340.640917 163.853682 
L 340.965897 148.439288 
L 341.290876 185.966609 
L 341.615856 177.016523 
L 341.940835 178.262391 
L 342.265815 176.339757 
L 342.590794 182.854005 
L 342.915774 183.48096 
L 343.240753 85.078437 
L 343.565733 155.228198 
L 343.890713 170.430618 
L 344.215692 155.263433 
L 344.540672 227.989713 
L 344.865651 241.4643 
L 345.190631 208.743775 
L 345.51561 96.651563 
L 345.84059 126.390411 
L 346.165569 280.670485 
L 346.490549 118.314555 
L 346.815528 104.071364 
L 347.140508 144.897205 
L 347.465487 139.687659 
L 347.790467 139.550754 
L 348.115446 224.641864 
L 348.440426 198.129596 
L 348.765405 127.006523 
L 349.090385 261.322844 
L 349.415364 161.072816 
L 349.740344 219.319694 
L 350.065324 233.719215 
L 350.390303 213.743998 
L 350.715283 142.949908 
L 351.040262 118.6868 
L 351.365242 173.508305 
L 351.690221 166.914514 
L 352.015201 131.094349 
L 352.34018 130.802419 
L 352.66516 182.913184 
L 352.990139 176.300339 
L 353.315119 114.023123 
L 353.640098 228.071515 
L 353.965078 173.523822 
L 354.290057 99.879578 
L 354.615037 179.443951 
L 354.940016 224.881388 
L 355.264996 176.872174 
L 355.589975 163.337399 
L 356.239934 201.937121 
L 356.564914 113.230013 
L 356.889894 199.310376 
L 357.214873 187.086131 
L 357.539853 136.626826 
L 357.864832 166.638658 
L 358.189812 142.0873 
L 358.514791 223.074358 
L 358.839771 177.514689 
L 359.16475 256.365876 
L 359.48973 166.362163 
L 360.139689 189.724835 
L 360.464668 217.685862 
L 360.789648 132.28513 
L 361.114627 180.139996 
L 361.439607 169.892349 
L 361.764586 149.774076 
L 362.089566 156.94183 
L 362.414545 251.643381 
L 362.739525 204.116431 
L 363.064505 177.68414 
L 363.389484 187.684544 
L 363.714464 209.32359 
L 364.039443 220.033167 
L 364.364423 180.83665 
L 364.689402 243.826946 
L 365.014382 127.964667 
L 365.339361 176.306259 
L 365.664341 153.219096 
L 365.98932 157.502105 
L 366.639279 221.071002 
L 366.964259 208.195301 
L 367.289238 175.027156 
L 367.614218 223.58858 
L 368.589156 134.111569 
L 368.914136 249.866651 
L 369.239115 150.784259 
L 369.564095 190.347978 
L 370.214054 146.889284 
L 370.539034 247.101369 
L 370.864013 160.292375 
L 371.188993 165.048125 
L 371.513972 84.847763 
L 372.163931 166.236528 
L 372.488911 179.065578 
L 372.81389 123.205565 
L 373.13887 129.922762 
L 373.463849 180.018293 
L 373.788829 193.532216 
L 374.113808 172.369925 
L 374.763767 200.616072 
L 375.088747 153.79475 
L 375.413726 232.421881 
L 376.063686 147.406348 
L 376.388665 275.859596 
L 376.713645 279.424647 
L 377.038624 153.119928 
L 377.363604 155.669863 
L 377.688583 217.049658 
L 378.013563 179.534168 
L 378.338542 191.980434 
L 378.663522 186.533827 
L 378.988501 162.280047 
L 379.313481 212.607854 
L 379.63846 212.401154 
L 379.96344 162.869996 
L 380.288419 268.342076 
L 380.613399 198.671314 
L 380.938378 223.423655 
L 381.263358 137.230914 
L 381.588337 184.280525 
L 381.913317 171.29231 
L 382.238296 195.773931 
L 382.563276 148.412996 
L 383.538215 180.553686 
L 383.863194 258.461905 
L 384.188174 214.02929 
L 384.513153 141.753225 
L 384.838133 108.478031 
L 385.163112 114.127141 
L 385.488092 151.827033 
L 385.813071 144.803503 
L 386.138051 149.095639 
L 386.46303 199.906719 
L 386.78801 131.735065 
L 387.112989 173.131529 
L 387.437969 235.228557 
L 388.087928 112.511934 
L 388.412907 148.79999 
L 388.737887 145.942423 
L 389.062867 208.725481 
L 389.387846 150.996351 
L 389.712826 264.177136 
L 390.037805 138.761837 
L 390.362785 109.702692 
L 390.687764 132.035276 
L 391.012744 182.784308 
L 391.337723 181.993289 
L 391.662703 201.280658 
L 391.987682 199.061634 
L 392.312662 136.130281 
L 392.637641 164.966451 
L 392.962621 237.600558 
L 393.2876 192.082644 
L 393.61258 170.318356 
L 393.937559 160.522058 
L 394.262539 163.716609 
L 394.587518 237.694246 
L 394.912498 176.042445 
L 395.237477 148.315137 
L 395.562457 203.796677 
L 395.887437 211.61277 
L 396.212416 213.84317 
L 396.537396 190.468535 
L 396.862375 238.284609 
L 397.512334 108.971563 
L 397.837314 148.033273 
L 398.162293 228.659487 
L 398.487273 212.674683 
L 398.487273 212.674683 
" clip-path="url(#pa916f12bb3)" style="fill: none; stroke: #1f77b4; stroke-width: 1.5; stroke-linecap: square"/>
   </g>
   <g id="patch_3">
    <path d="M 57.6 307.584 
L 57.6 41.472 
" style="fill: none; stroke: #000000; stroke-width: 0.8; stroke-linejoin: miter; stroke-linecap: square"/>
   </g>
   <g id="patch_4">
    <path d="M 414.72 307.584 
L 414.72 41.472 
" style="fill: none; stroke: #000000; stroke-width: 0.8; stroke-linejoin: miter; stroke-linecap: square"/>
   </g>
   <g id="patch_5">
    <path d="M 57.6 307.584 
L 414.72 307.584 
" style="fill: none; stroke: #000000; stroke-width: 0.8; stroke-linejoin: miter; stroke-linecap: square"/>
   </g>
   <g id="patch_6">
    <path d="M 57.6 41.472 
L 414.72 41.472 
" style="fill: none; stroke: #000000; stroke-width: 0.8; stroke-linejoin: miter; stroke-linecap: square"/>
   </g>
  </g>
 </g>
 <defs>
  <clipPath id="pa916f12bb3">
   <rect x="57.6" y="41.472" width="357.12" height="266.112"/>
  </clipPath>
 </defs>
</svg>
