<?xml version="1.0" encoding="utf-8" standalone="no"?>
<!DOCTYPE svg PUBLIC "-//W3C//DTD SVG 1.1//EN"
  "http://www.w3.org/Graphics/SVG/1.1/DTD/svg11.dtd">
<svg xmlns:xlink="http://www.w3.org/1999/xlink" width="460.8pt" height="345.6pt" viewBox="0 0 460.8 345.6" xmlns="http://www.w3.org/2000/svg" version="1.1">
 <metadata>
  <rdf:RDF xmlns:dc="http://purl.org/dc/elements/1.1/" xmlns:cc="http://creativecommons.org/ns#" xmlns:rdf="http://www.w3.org/1999/02/22-rdf-syntax-ns#">
   <cc:Work>
    <dc:type rdf:resource="http://purl.org/dc/dcmitype/StillImage"/>
    <dc:date>2023-04-20T14:08:04.220402</dc:date>
    <dc:format>image/svg+xml</dc:format>
    <dc:creator>
     <cc:Agent>
      <dc:title>Matplotlib v3.5.2, https://matplotlib.org/</dc:title>
     </cc:Agent>
    </dc:creator>
   </cc:Work>
  </rdf:RDF>
 </metadata>
 <defs>
  <style type="text/css">*{stroke-linejoin: round; stroke-linecap: butt}</style>
 </defs>
 <g id="figure_1">
  <g id="patch_1">
   <path d="M 0 345.6 
L 460.8 345.6 
L 460.8 0 
L 0 0 
L 0 345.6 
z
" style="fill: none"/>
  </g>
  <g id="axes_1">
   <g id="patch_2">
    <path d="M 57.6 307.584 
L 414.72 307.584 
L 414.72 41.472 
L 57.6 41.472 
L 57.6 307.584 
z
" style="fill: none"/>
   </g>
   <g id="matplotlib.axis_1">
    <g id="xtick_1">
     <g id="line2d_1">
      <path d="M 73.832727 307.584 
L 73.832727 41.472 
" clip-path="url(#p96529f2bb5)" style="fill: none; stroke: #b0b0b0; stroke-width: 0.8; stroke-linecap: square"/>
     </g>
     <g id="line2d_2">
      <defs>
       <path id="m2c379f554a" d="M 0 0 
L 0 3.5 
" style="stroke: #000000; stroke-width: 0.8"/>
      </defs>
      <g>
       <use xlink:href="#m2c379f554a" x="73.832727" y="307.584" style="stroke: #000000; stroke-width: 0.8"/>
      </g>
     </g>
     <g id="text_1">
      <!-- 0 -->
      <g transform="translate(70.651477 322.182437)scale(0.1 -0.1)">
       <defs>
        <path id="DejaVuSans-30" d="M 2034 4250 
Q 1547 4250 1301 3770 
Q 1056 3291 1056 2328 
Q 1056 1369 1301 889 
Q 1547 409 2034 409 
Q 2525 409 2770 889 
Q 3016 1369 3016 2328 
Q 3016 3291 2770 3770 
Q 2525 4250 2034 4250 
z
M 2034 4750 
Q 2819 4750 3233 4129 
Q 3647 3509 3647 2328 
Q 3647 1150 3233 529 
Q 2819 -91 2034 -91 
Q 1250 -91 836 529 
Q 422 1150 422 2328 
Q 422 3509 836 4129 
Q 1250 4750 2034 4750 
z
" transform="scale(0.015625)"/>
       </defs>
       <use xlink:href="#DejaVuSans-30"/>
      </g>
     </g>
    </g>
    <g id="xtick_2">
     <g id="line2d_3">
      <path d="M 138.828632 307.584 
L 138.828632 41.472 
" clip-path="url(#p96529f2bb5)" style="fill: none; stroke: #b0b0b0; stroke-width: 0.8; stroke-linecap: square"/>
     </g>
     <g id="line2d_4">
      <g>
       <use xlink:href="#m2c379f554a" x="138.828632" y="307.584" style="stroke: #000000; stroke-width: 0.8"/>
      </g>
     </g>
     <g id="text_2">
      <!-- 200 -->
      <g transform="translate(129.284882 322.182437)scale(0.1 -0.1)">
       <defs>
        <path id="DejaVuSans-32" d="M 1228 531 
L 3431 531 
L 3431 0 
L 469 0 
L 469 531 
Q 828 903 1448 1529 
Q 2069 2156 2228 2338 
Q 2531 2678 2651 2914 
Q 2772 3150 2772 3378 
Q 2772 3750 2511 3984 
Q 2250 4219 1831 4219 
Q 1534 4219 1204 4116 
Q 875 4013 500 3803 
L 500 4441 
Q 881 4594 1212 4672 
Q 1544 4750 1819 4750 
Q 2544 4750 2975 4387 
Q 3406 4025 3406 3419 
Q 3406 3131 3298 2873 
Q 3191 2616 2906 2266 
Q 2828 2175 2409 1742 
Q 1991 1309 1228 531 
z
" transform="scale(0.015625)"/>
       </defs>
       <use xlink:href="#DejaVuSans-32"/>
       <use xlink:href="#DejaVuSans-30" x="63.623047"/>
       <use xlink:href="#DejaVuSans-30" x="127.246094"/>
      </g>
     </g>
    </g>
    <g id="xtick_3">
     <g id="line2d_5">
      <path d="M 203.824537 307.584 
L 203.824537 41.472 
" clip-path="url(#p96529f2bb5)" style="fill: none; stroke: #b0b0b0; stroke-width: 0.8; stroke-linecap: square"/>
     </g>
     <g id="line2d_6">
      <g>
       <use xlink:href="#m2c379f554a" x="203.824537" y="307.584" style="stroke: #000000; stroke-width: 0.8"/>
      </g>
     </g>
     <g id="text_3">
      <!-- 400 -->
      <g transform="translate(194.280787 322.182437)scale(0.1 -0.1)">
       <defs>
        <path id="DejaVuSans-34" d="M 2419 4116 
L 825 1625 
L 2419 1625 
L 2419 4116 
z
M 2253 4666 
L 3047 4666 
L 3047 1625 
L 3713 1625 
L 3713 1100 
L 3047 1100 
L 3047 0 
L 2419 0 
L 2419 1100 
L 313 1100 
L 313 1709 
L 2253 4666 
z
" transform="scale(0.015625)"/>
       </defs>
       <use xlink:href="#DejaVuSans-34"/>
       <use xlink:href="#DejaVuSans-30" x="63.623047"/>
       <use xlink:href="#DejaVuSans-30" x="127.246094"/>
      </g>
     </g>
    </g>
    <g id="xtick_4">
     <g id="line2d_7">
      <path d="M 268.820442 307.584 
L 268.820442 41.472 
" clip-path="url(#p96529f2bb5)" style="fill: none; stroke: #b0b0b0; stroke-width: 0.8; stroke-linecap: square"/>
     </g>
     <g id="line2d_8">
      <g>
       <use xlink:href="#m2c379f554a" x="268.820442" y="307.584" style="stroke: #000000; stroke-width: 0.8"/>
      </g>
     </g>
     <g id="text_4">
      <!-- 600 -->
      <g transform="translate(259.276692 322.182437)scale(0.1 -0.1)">
       <defs>
        <path id="DejaVuSans-36" d="M 2113 2584 
Q 1688 2584 1439 2293 
Q 1191 2003 1191 1497 
Q 1191 994 1439 701 
Q 1688 409 2113 409 
Q 2538 409 2786 701 
Q 3034 994 3034 1497 
Q 3034 2003 2786 2293 
Q 2538 2584 2113 2584 
z
M 3366 4563 
L 3366 3988 
Q 3128 4100 2886 4159 
Q 2644 4219 2406 4219 
Q 1781 4219 1451 3797 
Q 1122 3375 1075 2522 
Q 1259 2794 1537 2939 
Q 1816 3084 2150 3084 
Q 2853 3084 3261 2657 
Q 3669 2231 3669 1497 
Q 3669 778 3244 343 
Q 2819 -91 2113 -91 
Q 1303 -91 875 529 
Q 447 1150 447 2328 
Q 447 3434 972 4092 
Q 1497 4750 2381 4750 
Q 2619 4750 2861 4703 
Q 3103 4656 3366 4563 
z
" transform="scale(0.015625)"/>
       </defs>
       <use xlink:href="#DejaVuSans-36"/>
       <use xlink:href="#DejaVuSans-30" x="63.623047"/>
       <use xlink:href="#DejaVuSans-30" x="127.246094"/>
      </g>
     </g>
    </g>
    <g id="xtick_5">
     <g id="line2d_9">
      <path d="M 333.816347 307.584 
L 333.816347 41.472 
" clip-path="url(#p96529f2bb5)" style="fill: none; stroke: #b0b0b0; stroke-width: 0.8; stroke-linecap: square"/>
     </g>
     <g id="line2d_10">
      <g>
       <use xlink:href="#m2c379f554a" x="333.816347" y="307.584" style="stroke: #000000; stroke-width: 0.8"/>
      </g>
     </g>
     <g id="text_5">
      <!-- 800 -->
      <g transform="translate(324.272597 322.182437)scale(0.1 -0.1)">
       <defs>
        <path id="DejaVuSans-38" d="M 2034 2216 
Q 1584 2216 1326 1975 
Q 1069 1734 1069 1313 
Q 1069 891 1326 650 
Q 1584 409 2034 409 
Q 2484 409 2743 651 
Q 3003 894 3003 1313 
Q 3003 1734 2745 1975 
Q 2488 2216 2034 2216 
z
M 1403 2484 
Q 997 2584 770 2862 
Q 544 3141 544 3541 
Q 544 4100 942 4425 
Q 1341 4750 2034 4750 
Q 2731 4750 3128 4425 
Q 3525 4100 3525 3541 
Q 3525 3141 3298 2862 
Q 3072 2584 2669 2484 
Q 3125 2378 3379 2068 
Q 3634 1759 3634 1313 
Q 3634 634 3220 271 
Q 2806 -91 2034 -91 
Q 1263 -91 848 271 
Q 434 634 434 1313 
Q 434 1759 690 2068 
Q 947 2378 1403 2484 
z
M 1172 3481 
Q 1172 3119 1398 2916 
Q 1625 2713 2034 2713 
Q 2441 2713 2670 2916 
Q 2900 3119 2900 3481 
Q 2900 3844 2670 4047 
Q 2441 4250 2034 4250 
Q 1625 4250 1398 4047 
Q 1172 3844 1172 3481 
z
" transform="scale(0.015625)"/>
       </defs>
       <use xlink:href="#DejaVuSans-38"/>
       <use xlink:href="#DejaVuSans-30" x="63.623047"/>
       <use xlink:href="#DejaVuSans-30" x="127.246094"/>
      </g>
     </g>
    </g>
    <g id="xtick_6">
     <g id="line2d_11">
      <path d="M 398.812252 307.584 
L 398.812252 41.472 
" clip-path="url(#p96529f2bb5)" style="fill: none; stroke: #b0b0b0; stroke-width: 0.8; stroke-linecap: square"/>
     </g>
     <g id="line2d_12">
      <g>
       <use xlink:href="#m2c379f554a" x="398.812252" y="307.584" style="stroke: #000000; stroke-width: 0.8"/>
      </g>
     </g>
     <g id="text_6">
      <!-- 1000 -->
      <g transform="translate(386.087252 322.182437)scale(0.1 -0.1)">
       <defs>
        <path id="DejaVuSans-31" d="M 794 531 
L 1825 531 
L 1825 4091 
L 703 3866 
L 703 4441 
L 1819 4666 
L 2450 4666 
L 2450 531 
L 3481 531 
L 3481 0 
L 794 0 
L 794 531 
z
" transform="scale(0.015625)"/>
       </defs>
       <use xlink:href="#DejaVuSans-31"/>
       <use xlink:href="#DejaVuSans-30" x="63.623047"/>
       <use xlink:href="#DejaVuSans-30" x="127.246094"/>
       <use xlink:href="#DejaVuSans-30" x="190.869141"/>
      </g>
     </g>
    </g>
    <g id="text_7">
     <!-- time index -->
     <g transform="translate(209.594375 335.860562)scale(0.1 -0.1)">
      <defs>
       <path id="DejaVuSans-74" d="M 1172 4494 
L 1172 3500 
L 2356 3500 
L 2356 3053 
L 1172 3053 
L 1172 1153 
Q 1172 725 1289 603 
Q 1406 481 1766 481 
L 2356 481 
L 2356 0 
L 1766 0 
Q 1100 0 847 248 
Q 594 497 594 1153 
L 594 3053 
L 172 3053 
L 172 3500 
L 594 3500 
L 594 4494 
L 1172 4494 
z
" transform="scale(0.015625)"/>
       <path id="DejaVuSans-69" d="M 603 3500 
L 1178 3500 
L 1178 0 
L 603 0 
L 603 3500 
z
M 603 4863 
L 1178 4863 
L 1178 4134 
L 603 4134 
L 603 4863 
z
" transform="scale(0.015625)"/>
       <path id="DejaVuSans-6d" d="M 3328 2828 
Q 3544 3216 3844 3400 
Q 4144 3584 4550 3584 
Q 5097 3584 5394 3201 
Q 5691 2819 5691 2113 
L 5691 0 
L 5113 0 
L 5113 2094 
Q 5113 2597 4934 2840 
Q 4756 3084 4391 3084 
Q 3944 3084 3684 2787 
Q 3425 2491 3425 1978 
L 3425 0 
L 2847 0 
L 2847 2094 
Q 2847 2600 2669 2842 
Q 2491 3084 2119 3084 
Q 1678 3084 1418 2786 
Q 1159 2488 1159 1978 
L 1159 0 
L 581 0 
L 581 3500 
L 1159 3500 
L 1159 2956 
Q 1356 3278 1631 3431 
Q 1906 3584 2284 3584 
Q 2666 3584 2933 3390 
Q 3200 3197 3328 2828 
z
" transform="scale(0.015625)"/>
       <path id="DejaVuSans-65" d="M 3597 1894 
L 3597 1613 
L 953 1613 
Q 991 1019 1311 708 
Q 1631 397 2203 397 
Q 2534 397 2845 478 
Q 3156 559 3463 722 
L 3463 178 
Q 3153 47 2828 -22 
Q 2503 -91 2169 -91 
Q 1331 -91 842 396 
Q 353 884 353 1716 
Q 353 2575 817 3079 
Q 1281 3584 2069 3584 
Q 2775 3584 3186 3129 
Q 3597 2675 3597 1894 
z
M 3022 2063 
Q 3016 2534 2758 2815 
Q 2500 3097 2075 3097 
Q 1594 3097 1305 2825 
Q 1016 2553 972 2059 
L 3022 2063 
z
" transform="scale(0.015625)"/>
       <path id="DejaVuSans-20" transform="scale(0.015625)"/>
       <path id="DejaVuSans-6e" d="M 3513 2113 
L 3513 0 
L 2938 0 
L 2938 2094 
Q 2938 2591 2744 2837 
Q 2550 3084 2163 3084 
Q 1697 3084 1428 2787 
Q 1159 2491 1159 1978 
L 1159 0 
L 581 0 
L 581 3500 
L 1159 3500 
L 1159 2956 
Q 1366 3272 1645 3428 
Q 1925 3584 2291 3584 
Q 2894 3584 3203 3211 
Q 3513 2838 3513 2113 
z
" transform="scale(0.015625)"/>
       <path id="DejaVuSans-64" d="M 2906 2969 
L 2906 4863 
L 3481 4863 
L 3481 0 
L 2906 0 
L 2906 525 
Q 2725 213 2448 61 
Q 2172 -91 1784 -91 
Q 1150 -91 751 415 
Q 353 922 353 1747 
Q 353 2572 751 3078 
Q 1150 3584 1784 3584 
Q 2172 3584 2448 3432 
Q 2725 3281 2906 2969 
z
M 947 1747 
Q 947 1113 1208 752 
Q 1469 391 1925 391 
Q 2381 391 2643 752 
Q 2906 1113 2906 1747 
Q 2906 2381 2643 2742 
Q 2381 3103 1925 3103 
Q 1469 3103 1208 2742 
Q 947 2381 947 1747 
z
" transform="scale(0.015625)"/>
       <path id="DejaVuSans-78" d="M 3513 3500 
L 2247 1797 
L 3578 0 
L 2900 0 
L 1881 1375 
L 863 0 
L 184 0 
L 1544 1831 
L 300 3500 
L 978 3500 
L 1906 2253 
L 2834 3500 
L 3513 3500 
z
" transform="scale(0.015625)"/>
      </defs>
      <use xlink:href="#DejaVuSans-74"/>
      <use xlink:href="#DejaVuSans-69" x="39.208984"/>
      <use xlink:href="#DejaVuSans-6d" x="66.992188"/>
      <use xlink:href="#DejaVuSans-65" x="164.404297"/>
      <use xlink:href="#DejaVuSans-20" x="225.927734"/>
      <use xlink:href="#DejaVuSans-69" x="257.714844"/>
      <use xlink:href="#DejaVuSans-6e" x="285.498047"/>
      <use xlink:href="#DejaVuSans-64" x="348.876953"/>
      <use xlink:href="#DejaVuSans-65" x="412.353516"/>
      <use xlink:href="#DejaVuSans-78" x="472.126953"/>
     </g>
    </g>
   </g>
   <g id="matplotlib.axis_2">
    <g id="ytick_1">
     <g id="line2d_13">
      <path d="M 57.6 300.795836 
L 414.72 300.795836 
" clip-path="url(#p96529f2bb5)" style="fill: none; stroke: #b0b0b0; stroke-width: 0.8; stroke-linecap: square"/>
     </g>
     <g id="line2d_14">
      <defs>
       <path id="m0e0bb94c26" d="M 0 0 
L -3.5 0 
" style="stroke: #000000; stroke-width: 0.8"/>
      </defs>
      <g>
       <use xlink:href="#m0e0bb94c26" x="57.6" y="300.795836" style="stroke: #000000; stroke-width: 0.8"/>
      </g>
     </g>
     <g id="text_8">
      <!-- −3 -->
      <g transform="translate(35.857813 304.595055)scale(0.1 -0.1)">
       <defs>
        <path id="DejaVuSans-2212" d="M 678 2272 
L 4684 2272 
L 4684 1741 
L 678 1741 
L 678 2272 
z
" transform="scale(0.015625)"/>
        <path id="DejaVuSans-33" d="M 2597 2516 
Q 3050 2419 3304 2112 
Q 3559 1806 3559 1356 
Q 3559 666 3084 287 
Q 2609 -91 1734 -91 
Q 1441 -91 1130 -33 
Q 819 25 488 141 
L 488 750 
Q 750 597 1062 519 
Q 1375 441 1716 441 
Q 2309 441 2620 675 
Q 2931 909 2931 1356 
Q 2931 1769 2642 2001 
Q 2353 2234 1838 2234 
L 1294 2234 
L 1294 2753 
L 1863 2753 
Q 2328 2753 2575 2939 
Q 2822 3125 2822 3475 
Q 2822 3834 2567 4026 
Q 2313 4219 1838 4219 
Q 1578 4219 1281 4162 
Q 984 4106 628 3988 
L 628 4550 
Q 988 4650 1302 4700 
Q 1616 4750 1894 4750 
Q 2613 4750 3031 4423 
Q 3450 4097 3450 3541 
Q 3450 3153 3228 2886 
Q 3006 2619 2597 2516 
z
" transform="scale(0.015625)"/>
       </defs>
       <use xlink:href="#DejaVuSans-2212"/>
       <use xlink:href="#DejaVuSans-33" x="83.789062"/>
      </g>
     </g>
    </g>
    <g id="ytick_2">
     <g id="line2d_15">
      <path d="M 57.6 260.138375 
L 414.72 260.138375 
" clip-path="url(#p96529f2bb5)" style="fill: none; stroke: #b0b0b0; stroke-width: 0.8; stroke-linecap: square"/>
     </g>
     <g id="line2d_16">
      <g>
       <use xlink:href="#m0e0bb94c26" x="57.6" y="260.138375" style="stroke: #000000; stroke-width: 0.8"/>
      </g>
     </g>
     <g id="text_9">
      <!-- −2 -->
      <g transform="translate(35.857813 263.937594)scale(0.1 -0.1)">
       <use xlink:href="#DejaVuSans-2212"/>
       <use xlink:href="#DejaVuSans-32" x="83.789062"/>
      </g>
     </g>
    </g>
    <g id="ytick_3">
     <g id="line2d_17">
      <path d="M 57.6 219.480914 
L 414.72 219.480914 
" clip-path="url(#p96529f2bb5)" style="fill: none; stroke: #b0b0b0; stroke-width: 0.8; stroke-linecap: square"/>
     </g>
     <g id="line2d_18">
      <g>
       <use xlink:href="#m0e0bb94c26" x="57.6" y="219.480914" style="stroke: #000000; stroke-width: 0.8"/>
      </g>
     </g>
     <g id="text_10">
      <!-- −1 -->
      <g transform="translate(35.857813 223.280133)scale(0.1 -0.1)">
       <use xlink:href="#DejaVuSans-2212"/>
       <use xlink:href="#DejaVuSans-31" x="83.789062"/>
      </g>
     </g>
    </g>
    <g id="ytick_4">
     <g id="line2d_19">
      <path d="M 57.6 178.823453 
L 414.72 178.823453 
" clip-path="url(#p96529f2bb5)" style="fill: none; stroke: #b0b0b0; stroke-width: 0.8; stroke-linecap: square"/>
     </g>
     <g id="line2d_20">
      <g>
       <use xlink:href="#m0e0bb94c26" x="57.6" y="178.823453" style="stroke: #000000; stroke-width: 0.8"/>
      </g>
     </g>
     <g id="text_11">
      <!-- 0 -->
      <g transform="translate(44.2375 182.622672)scale(0.1 -0.1)">
       <use xlink:href="#DejaVuSans-30"/>
      </g>
     </g>
    </g>
    <g id="ytick_5">
     <g id="line2d_21">
      <path d="M 57.6 138.165992 
L 414.72 138.165992 
" clip-path="url(#p96529f2bb5)" style="fill: none; stroke: #b0b0b0; stroke-width: 0.8; stroke-linecap: square"/>
     </g>
     <g id="line2d_22">
      <g>
       <use xlink:href="#m0e0bb94c26" x="57.6" y="138.165992" style="stroke: #000000; stroke-width: 0.8"/>
      </g>
     </g>
     <g id="text_12">
      <!-- 1 -->
      <g transform="translate(44.2375 141.965211)scale(0.1 -0.1)">
       <use xlink:href="#DejaVuSans-31"/>
      </g>
     </g>
    </g>
    <g id="ytick_6">
     <g id="line2d_23">
      <path d="M 57.6 97.508531 
L 414.72 97.508531 
" clip-path="url(#p96529f2bb5)" style="fill: none; stroke: #b0b0b0; stroke-width: 0.8; stroke-linecap: square"/>
     </g>
     <g id="line2d_24">
      <g>
       <use xlink:href="#m0e0bb94c26" x="57.6" y="97.508531" style="stroke: #000000; stroke-width: 0.8"/>
      </g>
     </g>
     <g id="text_13">
      <!-- 2 -->
      <g transform="translate(44.2375 101.30775)scale(0.1 -0.1)">
       <use xlink:href="#DejaVuSans-32"/>
      </g>
     </g>
    </g>
    <g id="ytick_7">
     <g id="line2d_25">
      <path d="M 57.6 56.85107 
L 414.72 56.85107 
" clip-path="url(#p96529f2bb5)" style="fill: none; stroke: #b0b0b0; stroke-width: 0.8; stroke-linecap: square"/>
     </g>
     <g id="line2d_26">
      <g>
       <use xlink:href="#m0e0bb94c26" x="57.6" y="56.85107" style="stroke: #000000; stroke-width: 0.8"/>
      </g>
     </g>
     <g id="text_14">
      <!-- 3 -->
      <g transform="translate(44.2375 60.650289)scale(0.1 -0.1)">
       <use xlink:href="#DejaVuSans-33"/>
      </g>
     </g>
    </g>
    <g id="text_15">
     <!-- $y$ -->
     <g transform="translate(29.757812 177.528)rotate(-90)scale(0.1 -0.1)">
      <defs>
       <path id="DejaVuSans-Oblique-79" d="M 1588 -325 
Q 1188 -997 936 -1164 
Q 684 -1331 294 -1331 
L -159 -1331 
L -63 -850 
L 269 -850 
Q 509 -850 678 -719 
Q 847 -588 1056 -206 
L 1234 128 
L 459 3500 
L 1069 3500 
L 1650 819 
L 3256 3500 
L 3859 3500 
L 1588 -325 
z
" transform="scale(0.015625)"/>
      </defs>
      <use xlink:href="#DejaVuSans-Oblique-79" transform="translate(0 0.3125)"/>
     </g>
    </g>
   </g>
   <g id="line2d_27">
    <path d="M 73.832727 207.28582 
L 74.157707 187.326447 
L 74.482686 149.793066 
L 74.807666 191.777579 
L 75.132645 172.007676 
L 75.457625 194.579233 
L 75.782604 197.425975 
L 76.107584 195.178018 
L 76.432563 176.325079 
L 76.757543 222.546469 
L 77.082523 147.063125 
L 77.732482 166.87616 
L 78.057461 192.49085 
L 78.382441 229.126676 
L 79.0324 81.020984 
L 79.357379 205.100233 
L 79.682359 149.967551 
L 80.332318 215.891456 
L 80.657297 243.470998 
L 80.982277 179.868469 
L 81.307256 167.358108 
L 81.632236 117.430576 
L 81.957215 197.543487 
L 82.282195 191.142985 
L 82.607174 131.904308 
L 82.932154 222.361586 
L 83.582113 114.694074 
L 83.907093 203.53395 
L 84.232072 160.421013 
L 84.557052 215.138363 
L 84.882031 145.619789 
L 85.207011 208.773351 
L 85.53199 145.393051 
L 85.85697 145.735681 
L 86.181949 196.203941 
L 86.506929 125.204551 
L 86.831908 164.94714 
L 87.156888 138.972376 
L 87.481867 216.107997 
L 87.806847 189.794674 
L 88.131826 221.443856 
L 88.456806 232.865567 
L 88.781785 195.612243 
L 89.106765 131.168883 
L 89.431744 176.082407 
L 89.756724 168.305761 
L 90.081704 202.077962 
L 90.406683 166.64201 
L 90.731663 195.318396 
L 91.056642 157.184479 
L 91.381622 254.943714 
L 91.706601 223.452145 
L 92.031581 276.542215 
L 92.35656 151.773066 
L 92.68154 219.27512 
L 93.006519 184.16851 
L 93.656478 223.032387 
L 93.981458 214.871552 
L 94.306437 142.611879 
L 94.631417 195.582163 
L 94.956396 159.586134 
L 95.281376 239.304959 
L 95.606355 228.750576 
L 95.931335 163.861024 
L 96.256314 200.025704 
L 96.581294 134.594077 
L 96.906274 184.832591 
L 97.231253 178.080776 
L 97.556233 256.059561 
L 97.881212 194.062207 
L 98.206192 199.524804 
L 98.531171 173.19577 
L 98.856151 228.419219 
L 99.18113 107.729197 
L 99.50611 229.218537 
L 99.831089 191.153796 
L 100.156069 191.123185 
L 100.481048 144.899687 
L 100.806028 185.512169 
L 101.131007 245.76553 
L 101.455987 240.655372 
L 101.780966 158.162871 
L 102.105946 262.810158 
L 102.430925 183.031511 
L 102.755905 216.589586 
L 103.080885 156.155588 
L 103.405864 175.528978 
L 103.730844 173.389485 
L 104.055823 289.305276 
L 104.380803 148.436649 
L 104.705782 141.795934 
L 105.030762 159.059978 
L 105.355741 217.152308 
L 105.680721 100.914898 
L 106.0057 150.354344 
L 106.33068 168.941998 
L 106.655659 118.479509 
L 106.980639 136.862585 
L 107.305618 108.779387 
L 107.630598 219.293264 
L 108.280557 85.285651 
L 108.605536 170.521188 
L 108.930516 168.418897 
L 109.255495 259.627681 
L 109.580475 209.112704 
L 109.905455 187.948481 
L 110.230434 158.905771 
L 110.555414 178.405284 
L 110.880393 170.732544 
L 111.205373 209.936412 
L 111.530352 234.398702 
L 111.855332 136.775467 
L 112.505291 213.753688 
L 112.83027 123.371428 
L 113.15525 262.485055 
L 113.805209 142.25861 
L 114.130188 213.155463 
L 114.455168 177.726958 
L 114.780147 205.619797 
L 115.105127 99.291117 
L 115.430106 262.514332 
L 115.755086 139.232513 
L 116.080066 223.261043 
L 116.405045 188.442276 
L 117.055004 258.906091 
L 117.379984 255.645051 
L 117.704963 154.035933 
L 118.029943 178.164827 
L 118.354922 121.164547 
L 118.679902 200.415334 
L 119.004881 207.88103 
L 119.329861 203.655577 
L 119.65484 167.420777 
L 119.97982 165.69829 
L 120.304799 230.286081 
L 120.629779 209.460422 
L 120.954758 122.35524 
L 121.279738 210.162409 
L 121.604717 175.941719 
L 121.929697 176.596744 
L 122.254676 185.720888 
L 122.579656 143.691237 
L 122.904636 196.597667 
L 123.229615 172.752936 
L 123.554595 176.432425 
L 123.879574 203.247245 
L 124.204554 200.002702 
L 124.529533 186.580225 
L 124.854513 144.404246 
L 125.179492 177.478053 
L 125.504472 259.111458 
L 125.829451 239.254627 
L 126.154431 145.039555 
L 126.47941 130.743424 
L 126.80439 154.810171 
L 127.129369 152.562881 
L 127.454349 229.062485 
L 127.779328 154.655937 
L 128.104308 169.143965 
L 128.429287 140.040657 
L 128.754267 125.989188 
L 129.079247 198.679025 
L 129.729206 157.448759 
L 130.054185 197.548999 
L 130.379165 126.988147 
L 130.704144 105.331296 
L 131.029124 184.463472 
L 131.354103 178.564988 
L 131.679083 212.594792 
L 132.004062 124.875624 
L 132.329042 167.528164 
L 132.654021 243.880906 
L 132.979001 183.664676 
L 133.30398 200.305854 
L 133.62896 232.265146 
L 134.278919 138.412779 
L 134.603898 170.352091 
L 134.928878 134.44339 
L 135.578837 228.973109 
L 135.903817 175.838957 
L 136.228796 197.488446 
L 136.553776 240.946997 
L 136.878755 150.13246 
L 137.203735 155.918455 
L 137.528714 176.351362 
L 137.853694 104.474735 
L 138.178673 131.592049 
L 138.503653 100.794362 
L 138.828632 199.463323 
L 139.478591 247.298178 
L 139.803571 183.144537 
L 140.12855 171.649658 
L 140.45353 82.543085 
L 140.778509 185.624036 
L 141.103489 209.372782 
L 141.428468 202.98862 
L 141.753448 148.427768 
L 142.078428 170.987724 
L 142.403407 205.35882 
L 142.728387 119.894994 
L 143.053366 206.477105 
L 143.378346 195.73035 
L 143.703325 257.864591 
L 144.028305 123.230023 
L 144.353284 189.878291 
L 144.678264 140.522912 
L 145.003243 115.002554 
L 145.328223 208.683845 
L 145.978182 157.719508 
L 146.303161 225.459552 
L 146.628141 207.034719 
L 146.95312 226.947633 
L 147.2781 144.159969 
L 147.603079 139.242569 
L 147.928059 214.314003 
L 148.253038 212.293758 
L 148.902998 117.308049 
L 149.227977 171.975516 
L 149.552957 166.156363 
L 149.877936 217.138501 
L 150.202916 176.727929 
L 150.527895 192.090122 
L 150.852875 198.293568 
L 151.177854 208.935386 
L 151.502834 167.018981 
L 152.152793 221.824553 
L 152.477772 201.590911 
L 152.802752 160.579938 
L 153.127731 135.55842 
L 153.452711 207.234081 
L 153.77769 176.253245 
L 154.10267 241.726185 
L 154.427649 128.97876 
L 154.752629 187.43768 
L 155.077609 162.790826 
L 155.727568 198.068359 
L 156.052547 113.000404 
L 156.377527 158.024657 
L 156.702506 178.940086 
L 157.027486 208.298518 
L 157.352465 155.966982 
L 157.677445 224.79331 
L 158.002424 85.139674 
L 158.327404 172.812204 
L 158.652383 219.618024 
L 158.977363 212.77329 
L 159.302342 166.756716 
L 159.627322 150.351025 
L 159.952301 218.062988 
L 160.277281 192.545118 
L 160.60226 238.191396 
L 160.92724 159.778261 
L 161.252219 173.98531 
L 161.577199 210.945786 
L 161.902179 152.333208 
L 162.227158 162.640781 
L 162.552138 253.901709 
L 162.877117 172.433376 
L 163.202097 119.309367 
L 163.527076 187.554298 
L 163.852056 218.233811 
L 164.177035 206.409313 
L 164.502015 280.28074 
L 164.826994 232.182954 
L 165.151974 234.036221 
L 165.476953 122.244652 
L 166.126912 188.476571 
L 166.451892 171.379143 
L 166.776871 257.990524 
L 167.101851 148.341512 
L 167.75181 204.655394 
L 168.07679 285.486575 
L 168.401769 146.346278 
L 168.726749 137.069631 
L 169.051728 172.176364 
L 169.376708 176.854431 
L 169.701687 85.276313 
L 170.026667 93.311089 
L 170.676626 169.928551 
L 171.001605 178.044071 
L 171.326585 207.13261 
L 171.651564 145.252056 
L 171.976544 187.300085 
L 172.301523 129.897746 
L 173.276462 148.069662 
L 173.601441 127.988548 
L 173.926421 198.926661 
L 174.2514 188.01759 
L 174.57638 220.318216 
L 174.90136 127.990527 
L 175.226339 182.688062 
L 175.551319 164.190932 
L 176.201278 282.794649 
L 176.526257 148.021309 
L 176.851237 207.071344 
L 177.176216 179.556903 
L 177.501196 213.874786 
L 177.826175 216.371524 
L 178.151155 119.914242 
L 178.476134 141.98818 
L 178.801114 139.610802 
L 179.126093 149.322412 
L 179.451073 89.53058 
L 179.776052 93.534631 
L 180.101032 167.876872 
L 180.426011 207.327783 
L 180.750991 222.095837 
L 181.075971 130.174253 
L 181.40095 170.138223 
L 181.72593 270.592487 
L 182.050909 171.128155 
L 182.375889 206.253202 
L 182.700868 209.756155 
L 183.025848 243.666479 
L 183.350827 132.445096 
L 183.675807 179.62185 
L 184.000786 195.647868 
L 184.325766 187.456761 
L 184.650745 202.312468 
L 184.975725 250.073437 
L 185.625684 122.596603 
L 185.950663 154.196958 
L 186.275643 138.977648 
L 186.600622 273.03825 
L 186.925602 161.842457 
L 187.250581 191.015401 
L 187.575561 169.741911 
L 187.900541 167.362062 
L 188.22552 218.122225 
L 188.5505 141.434382 
L 188.875479 162.533723 
L 189.200459 260.826948 
L 189.525438 124.802675 
L 189.850418 217.0327 
L 190.175397 194.652553 
L 190.500377 142.764762 
L 190.825356 198.83069 
L 191.150336 185.479004 
L 191.475315 214.375434 
L 191.800295 210.920336 
L 192.125274 189.069288 
L 192.450254 200.789079 
L 192.775233 124.268073 
L 193.100213 177.022315 
L 193.425192 131.921805 
L 193.750172 213.005228 
L 194.075152 114.432781 
L 194.725111 230.777535 
L 195.05009 119.877408 
L 195.37507 226.832203 
L 195.700049 127.411948 
L 196.025029 183.945308 
L 196.350008 157.055165 
L 196.999967 181.858863 
L 197.324947 159.473733 
L 197.649926 216.051527 
L 198.299885 194.679478 
L 198.624865 174.542232 
L 198.949844 167.014369 
L 199.274824 210.576694 
L 199.599803 176.724569 
L 199.924783 197.332399 
L 200.249762 173.464929 
L 200.574742 158.898452 
L 200.899722 169.013772 
L 201.224701 193.008622 
L 201.549681 175.427809 
L 201.87466 206.674687 
L 202.19964 170.218898 
L 202.524619 156.53716 
L 202.849599 117.028425 
L 203.174578 266.561573 
L 203.499558 237.818242 
L 203.824537 148.902024 
L 204.149517 193.896327 
L 204.474496 155.69793 
L 204.799476 180.292897 
L 205.124455 222.382216 
L 205.449435 152.997469 
L 205.774414 162.677263 
L 206.099394 142.492883 
L 206.424373 173.621359 
L 206.749353 227.212321 
L 207.074333 204.592874 
L 207.399312 170.053787 
L 207.724292 223.381208 
L 208.049271 236.109896 
L 208.374251 164.469762 
L 208.69923 131.704977 
L 209.02421 175.067018 
L 209.349189 156.92095 
L 209.674169 184.67879 
L 209.999148 115.219178 
L 210.324128 221.91046 
L 210.649107 172.321078 
L 210.974087 164.38084 
L 211.299066 139.029228 
L 211.949025 158.212825 
L 212.274005 216.137201 
L 212.598984 230.065499 
L 212.923964 105.176478 
L 213.248943 126.803066 
L 213.573923 107.1061 
L 213.898903 137.958399 
L 214.223882 201.189897 
L 214.548862 126.2425 
L 214.873841 216.962053 
L 215.198821 151.766709 
L 215.5238 167.939617 
L 215.84878 111.851223 
L 216.173759 165.552662 
L 216.823718 120.818685 
L 217.148698 168.017311 
L 217.473677 150.475518 
L 217.798657 204.507759 
L 218.123636 153.865023 
L 218.448616 209.22571 
L 218.773595 160.178266 
L 219.098575 140.271739 
L 219.423554 159.905522 
L 219.748534 172.644176 
L 220.073514 160.736438 
L 220.398493 200.534566 
L 221.048452 127.617304 
L 221.698411 206.535768 
L 222.023391 118.707898 
L 222.67335 148.060124 
L 222.998329 153.611118 
L 223.323309 258.733601 
L 223.648288 244.872576 
L 223.973268 145.610368 
L 224.298247 174.016324 
L 224.623227 245.513521 
L 224.948206 161.822008 
L 225.273186 240.271811 
L 225.598165 244.211144 
L 225.923145 77.920832 
L 226.248124 168.019055 
L 226.573104 217.122996 
L 226.898084 193.368142 
L 227.223063 210.657106 
L 227.548043 152.555832 
L 227.873022 214.843943 
L 228.198002 140.140887 
L 228.522981 126.656174 
L 228.847961 181.039032 
L 229.17294 177.036339 
L 229.49792 128.088123 
L 229.822899 167.909465 
L 230.147879 143.697497 
L 230.472858 151.602945 
L 230.797838 224.985927 
L 231.122817 165.523219 
L 231.447797 280.312756 
L 231.772776 145.492711 
L 232.097756 239.234632 
L 232.422735 236.91719 
L 232.747715 252.979605 
L 233.072695 219.155108 
L 233.397674 166.302628 
L 233.722654 67.45744 
L 234.047633 181.913702 
L 234.372613 246.094677 
L 234.697592 115.72139 
L 235.022572 182.923672 
L 235.347551 175.912187 
L 235.672531 202.503991 
L 235.99751 167.863289 
L 236.32249 154.65069 
L 236.647469 190.642241 
L 236.972449 150.959489 
L 237.297428 187.161729 
L 237.622408 192.077427 
L 237.947387 162.520538 
L 238.272367 212.345755 
L 238.597346 171.191939 
L 238.922326 89.301506 
L 239.247305 149.667621 
L 239.572285 130.221046 
L 239.897265 161.280116 
L 240.222244 163.423377 
L 240.547224 170.640632 
L 240.872203 115.01486 
L 241.197183 110.046686 
L 241.522162 218.869237 
L 241.847142 150.603089 
L 242.172121 220.083167 
L 242.497101 172.668337 
L 242.82208 196.781176 
L 243.14706 166.302145 
L 243.472039 229.945509 
L 243.797019 159.002014 
L 244.121998 249.173381 
L 244.446978 174.995735 
L 244.771957 216.045998 
L 245.096937 103.317415 
L 245.746896 226.343921 
L 246.071876 184.748023 
L 246.396855 195.428474 
L 246.721835 148.564945 
L 247.046814 170.786747 
L 247.371794 157.256576 
L 247.696773 170.095131 
L 248.021753 158.532572 
L 248.346732 160.771998 
L 248.671712 176.967329 
L 248.996691 107.062521 
L 249.321671 205.45119 
L 249.64665 205.561466 
L 249.97163 237.751489 
L 250.296609 137.469387 
L 250.621589 157.136698 
L 250.946568 234.16851 
L 251.271548 166.012025 
L 251.596527 162.769598 
L 251.921507 182.924034 
L 252.246486 154.344248 
L 252.571466 244.049232 
L 252.896446 206.305446 
L 253.221425 204.185978 
L 253.546405 197.267858 
L 253.871384 215.98928 
L 254.196364 121.618476 
L 254.521343 128.782286 
L 254.846323 188.970375 
L 255.171302 116.238777 
L 255.496282 224.320968 
L 255.821261 108.45553 
L 256.146241 193.68603 
L 256.47122 152.673123 
L 256.7962 182.345149 
L 257.446159 160.463623 
L 257.771138 184.879034 
L 258.096118 109.242246 
L 258.421097 138.740172 
L 258.746077 222.402839 
L 259.071057 116.180459 
L 259.396036 170.948079 
L 259.721016 131.117761 
L 260.045995 180.275864 
L 260.370975 191.651023 
L 260.695954 231.282573 
L 261.020934 181.100719 
L 261.345913 151.134498 
L 261.670893 153.983786 
L 261.995872 221.084151 
L 262.320852 194.291538 
L 262.645831 226.249737 
L 262.970811 213.036809 
L 263.29579 159.042934 
L 263.62077 202.106247 
L 263.945749 133.652891 
L 264.595708 231.786639 
L 264.920688 105.021151 
L 265.245667 166.903726 
L 265.570647 207.484385 
L 265.895627 170.173339 
L 266.220606 178.673159 
L 266.545586 232.7349 
L 266.870565 140.850989 
L 267.195545 204.368339 
L 267.520524 210.706657 
L 267.845504 139.261258 
L 268.170483 147.218111 
L 268.820442 240.09851 
L 269.145422 161.517784 
L 269.470401 111.555124 
L 270.12036 185.471645 
L 270.44534 252.358266 
L 270.770319 129.603298 
L 271.095299 192.46333 
L 271.420278 187.83404 
L 271.745258 116.929341 
L 272.070238 223.505757 
L 272.395217 168.608465 
L 272.720197 171.950655 
L 273.045176 199.487764 
L 273.370156 168.617246 
L 273.695135 203.081593 
L 274.020115 133.178262 
L 274.670074 209.036169 
L 274.995053 208.512609 
L 275.320033 150.070936 
L 275.645012 233.512273 
L 275.969992 137.552458 
L 276.294971 190.792557 
L 276.619951 53.568 
L 276.94493 216.435776 
L 277.26991 246.723731 
L 277.919869 150.878562 
L 278.244848 194.009184 
L 278.569828 158.30589 
L 278.894808 174.698622 
L 279.219787 199.908261 
L 279.544767 171.9027 
L 279.869746 169.173543 
L 280.194726 162.81585 
L 280.519705 217.513654 
L 280.844685 151.77796 
L 281.169664 237.753051 
L 281.494644 239.846914 
L 281.819623 148.889031 
L 282.144603 131.426936 
L 282.469582 191.634055 
L 282.794562 148.746278 
L 283.119541 163.080797 
L 283.444521 145.745262 
L 283.7695 209.774695 
L 284.09448 231.630183 
L 284.419459 183.824777 
L 284.744439 114.891768 
L 285.394398 228.176268 
L 285.719378 161.511187 
L 286.369337 227.021924 
L 286.694316 223.032572 
L 287.019296 259.770635 
L 287.344275 136.941626 
L 287.669255 181.331804 
L 287.994234 128.593202 
L 288.319214 186.532619 
L 288.644193 202.710115 
L 288.969173 151.313614 
L 289.944111 182.022342 
L 290.269091 194.459413 
L 290.59407 267.34403 
L 290.91905 195.964799 
L 291.244029 155.105381 
L 291.569009 140.485763 
L 291.893989 228.813658 
L 292.218968 177.742374 
L 292.543948 147.003998 
L 292.868927 201.141864 
L 293.193907 219.835116 
L 293.518886 170.277307 
L 293.843866 191.837942 
L 294.168845 54.182945 
L 294.493825 156.602033 
L 294.818804 202.199369 
L 295.143784 227.319332 
L 295.468763 140.070001 
L 295.793743 114.509988 
L 296.118722 133.760912 
L 296.443702 229.837519 
L 296.768681 129.989881 
L 297.093661 197.51379 
L 297.41864 212.608478 
L 298.0686 145.470318 
L 298.393579 198.00588 
L 298.718559 163.666595 
L 299.043538 186.599596 
L 299.368518 145.042438 
L 299.693497 255.559588 
L 300.018477 161.473392 
L 300.343456 235.503346 
L 300.668436 261.05324 
L 300.993415 150.260731 
L 301.318395 238.53799 
L 301.643374 165.135452 
L 301.968354 182.345503 
L 302.293333 173.762788 
L 302.618313 295.488 
L 302.943292 183.895837 
L 303.268272 159.333105 
L 303.593251 150.900185 
L 303.918231 164.704749 
L 304.24321 204.50288 
L 304.56819 190.081773 
L 304.89317 153.40795 
L 305.218149 132.329716 
L 305.543129 234.45702 
L 305.868108 128.622686 
L 306.193088 217.211232 
L 306.518067 177.838226 
L 306.843047 188.063365 
L 307.168026 118.542998 
L 307.493006 109.125546 
L 308.142965 256.546521 
L 308.467944 171.316752 
L 308.792924 214.043501 
L 309.117903 166.542201 
L 309.442883 220.48554 
L 309.767862 189.664061 
L 310.092842 83.46658 
L 310.742801 221.131371 
L 311.39276 57.087816 
L 311.71774 177.05251 
L 312.042719 186.180377 
L 312.367699 246.53881 
L 312.692678 196.362019 
L 313.017658 244.917119 
L 313.342637 163.136101 
L 313.667617 207.982938 
L 313.992596 118.549131 
L 314.642555 215.432647 
L 315.292514 229.901003 
L 315.617494 224.717332 
L 315.942473 171.60036 
L 316.267453 212.156745 
L 316.592432 154.762119 
L 316.917412 174.983293 
L 317.242391 208.800065 
L 317.567371 188.044499 
L 317.892351 175.476364 
L 318.21733 254.866835 
L 318.54231 180.776982 
L 318.867289 183.316607 
L 319.192269 239.541413 
L 319.517248 202.567178 
L 319.842228 151.378038 
L 320.167207 145.021361 
L 320.492187 161.600487 
L 320.817166 197.187984 
L 321.142146 160.927708 
L 321.467125 269.558935 
L 321.792105 254.769944 
L 322.442064 175.050195 
L 322.767043 213.269951 
L 323.092023 171.049414 
L 323.417002 163.356042 
L 323.741982 144.873736 
L 324.066962 198.221135 
L 324.391941 198.754748 
L 324.716921 114.232965 
L 325.0419 183.430028 
L 325.36688 155.054516 
L 325.691859 215.000087 
L 326.016839 230.814947 
L 326.341818 187.567852 
L 326.666798 161.603353 
L 326.991777 181.02607 
L 327.316757 240.057219 
L 327.641736 135.47497 
L 328.291695 176.345362 
L 328.616675 143.257765 
L 328.941654 160.695762 
L 329.266634 99.172585 
L 329.591613 175.029272 
L 329.916593 154.506034 
L 330.241572 155.718779 
L 330.566552 134.225691 
L 330.891532 250.920555 
L 331.216511 146.359782 
L 331.541491 147.758411 
L 331.86647 186.803569 
L 332.19145 180.198867 
L 332.516429 183.720374 
L 332.841409 145.555894 
L 333.166388 191.140895 
L 333.816347 142.233234 
L 334.141327 178.725087 
L 334.466306 168.169807 
L 334.791286 224.498598 
L 335.116265 139.125992 
L 335.441245 126.952834 
L 335.766224 205.557362 
L 336.091204 128.847643 
L 336.416183 106.646464 
L 337.066143 216.374942 
L 337.391122 121.918478 
L 337.716102 218.396297 
L 338.041081 206.319621 
L 338.366061 165.973396 
L 338.69104 163.737932 
L 339.01602 198.663942 
L 339.340999 70.694998 
L 339.665979 188.394557 
L 339.990958 166.794008 
L 340.315938 172.40164 
L 340.640917 148.922714 
L 340.965897 192.79193 
L 341.290876 252.590973 
L 341.615856 156.964549 
L 341.940835 292.432176 
L 342.265815 167.046318 
L 342.590794 161.282184 
L 342.915774 178.991751 
L 343.240753 180.116743 
L 343.565733 223.584672 
L 343.890713 119.463516 
L 344.215692 84.77372 
L 344.540672 207.493203 
L 344.865651 205.097408 
L 345.190631 142.021384 
L 345.51561 194.8477 
L 345.84059 225.486759 
L 346.165569 139.207391 
L 346.490549 193.252082 
L 347.140508 129.610136 
L 347.465487 147.676704 
L 347.790467 172.967839 
L 348.115446 114.828681 
L 348.440426 207.673559 
L 348.765405 175.741991 
L 349.090385 179.223298 
L 349.415364 79.945845 
L 349.740344 228.747387 
L 350.065324 199.706672 
L 350.390303 190.430388 
L 350.715283 191.510642 
L 351.040262 165.08914 
L 351.365242 194.755202 
L 351.690221 182.162612 
L 352.34018 224.133859 
L 352.66516 220.259587 
L 352.990139 254.638749 
L 353.315119 236.268423 
L 353.640098 166.156657 
L 353.965078 210.547769 
L 354.290057 219.140365 
L 354.615037 217.486669 
L 354.940016 181.280054 
L 355.589975 231.090921 
L 355.914955 189.01951 
L 356.239934 214.446453 
L 356.564914 154.710408 
L 356.889894 231.209019 
L 357.214873 176.508204 
L 357.539853 248.519765 
L 357.864832 159.980521 
L 358.189812 144.286542 
L 358.514791 194.385683 
L 358.839771 129.351801 
L 359.16475 188.935515 
L 359.48973 185.534791 
L 359.814709 226.614867 
L 360.139689 209.370606 
L 360.464668 157.203791 
L 360.789648 194.023478 
L 361.114627 206.4076 
L 361.439607 185.883089 
L 361.764586 139.37066 
L 362.089566 200.25325 
L 362.414545 129.63267 
L 362.739525 191.229313 
L 363.064505 156.008758 
L 363.389484 103.912155 
L 363.714464 165.387105 
L 364.039443 138.760329 
L 364.364423 202.254005 
L 364.689402 196.130919 
L 365.014382 149.301546 
L 365.339361 184.569319 
L 365.664341 128.589703 
L 365.98932 184.543026 
L 366.3143 163.626286 
L 366.639279 172.6086 
L 366.964259 113.90477 
L 367.289238 208.368434 
L 367.614218 93.327565 
L 367.939197 200.203212 
L 368.264177 201.763094 
L 368.589156 151.555829 
L 368.914136 172.312048 
L 369.239115 169.221063 
L 369.564095 194.922807 
L 369.889075 122.438772 
L 370.214054 216.353287 
L 370.864013 123.693213 
L 371.188993 117.377953 
L 371.838952 173.27531 
L 372.163931 134.498289 
L 372.488911 168.971375 
L 372.81389 171.832071 
L 373.13887 177.14203 
L 373.463849 160.393961 
L 373.788829 222.879539 
L 374.113808 165.267083 
L 374.438788 195.644815 
L 374.763767 173.537017 
L 375.088747 203.239652 
L 375.413726 210.981261 
L 375.738706 237.21285 
L 376.063686 150.052819 
L 376.388665 211.720794 
L 376.713645 170.908142 
L 377.038624 220.740425 
L 377.363604 182.071817 
L 377.688583 245.455982 
L 378.013563 110.076361 
L 378.338542 203.002224 
L 378.663522 198.854186 
L 378.988501 248.75686 
L 379.313481 269.761932 
L 379.63846 267.364879 
L 379.96344 226.588428 
L 380.288419 169.934613 
L 380.613399 192.18742 
L 380.938378 180.465166 
L 381.263358 182.822693 
L 381.913317 234.518572 
L 382.238296 157.107238 
L 382.563276 189.65198 
L 382.888256 209.605966 
L 383.213235 175.100573 
L 383.538215 194.430287 
L 383.863194 157.030654 
L 384.188174 168.213684 
L 384.513153 231.765939 
L 384.838133 103.601707 
L 385.163112 217.375506 
L 385.488092 199.850593 
L 385.813071 167.890959 
L 386.138051 168.452056 
L 386.46303 187.09958 
L 386.78801 176.791478 
L 387.112989 148.368668 
L 387.437969 224.214889 
L 387.762948 218.125185 
L 388.087928 156.325169 
L 388.412907 72.242807 
L 388.737887 143.202876 
L 389.387846 183.025479 
L 389.712826 150.882192 
L 390.037805 151.871121 
L 390.362785 187.944311 
L 390.687764 195.432547 
L 391.012744 279.533473 
L 391.662703 169.566339 
L 391.987682 183.071525 
L 392.312662 204.180392 
L 392.637641 143.981265 
L 392.962621 125.388614 
L 393.2876 188.236452 
L 393.61258 193.077116 
L 393.937559 202.678815 
L 394.262539 178.02333 
L 394.587518 165.237827 
L 394.912498 196.736578 
L 395.237477 159.186379 
L 395.562457 169.24018 
L 395.887437 184.062339 
L 396.212416 183.94641 
L 397.187355 101.838964 
L 397.512334 172.168022 
L 397.837314 130.542971 
L 398.487273 193.53373 
L 398.487273 193.53373 
" clip-path="url(#p96529f2bb5)" style="fill: none; stroke: #1f77b4; stroke-width: 1.5; stroke-linecap: square"/>
   </g>
   <g id="patch_3">
    <path d="M 57.6 307.584 
L 57.6 41.472 
" style="fill: none; stroke: #000000; stroke-width: 0.8; stroke-linejoin: miter; stroke-linecap: square"/>
   </g>
   <g id="patch_4">
    <path d="M 414.72 307.584 
L 414.72 41.472 
" style="fill: none; stroke: #000000; stroke-width: 0.8; stroke-linejoin: miter; stroke-linecap: square"/>
   </g>
   <g id="patch_5">
    <path d="M 57.6 307.584 
L 414.72 307.584 
" style="fill: none; stroke: #000000; stroke-width: 0.8; stroke-linejoin: miter; stroke-linecap: square"/>
   </g>
   <g id="patch_6">
    <path d="M 57.6 41.472 
L 414.72 41.472 
" style="fill: none; stroke: #000000; stroke-width: 0.8; stroke-linejoin: miter; stroke-linecap: square"/>
   </g>
  </g>
 </g>
 <defs>
  <clipPath id="p96529f2bb5">
   <rect x="57.6" y="41.472" width="357.12" height="266.112"/>
  </clipPath>
 </defs>
</svg>
