<?xml version="1.0" encoding="utf-8" standalone="no"?>
<!DOCTYPE svg PUBLIC "-//W3C//DTD SVG 1.1//EN"
  "http://www.w3.org/Graphics/SVG/1.1/DTD/svg11.dtd">
<!-- Created with matplotlib (https://matplotlib.org/) -->
<svg height="288pt" version="1.1" viewBox="0 0 432 288" width="432pt" xmlns="http://www.w3.org/2000/svg" xmlns:xlink="http://www.w3.org/1999/xlink">
 <metadata>
  <rdf:RDF xmlns:cc="http://creativecommons.org/ns#" xmlns:dc="http://purl.org/dc/elements/1.1/" xmlns:rdf="http://www.w3.org/1999/02/22-rdf-syntax-ns#">
   <cc:Work>
    <dc:type rdf:resource="http://purl.org/dc/dcmitype/StillImage"/>
    <dc:date>2021-05-03T21:59:45.868577</dc:date>
    <dc:format>image/svg+xml</dc:format>
    <dc:creator>
     <cc:Agent>
      <dc:title>Matplotlib v3.3.4, https://matplotlib.org/</dc:title>
     </cc:Agent>
    </dc:creator>
   </cc:Work>
  </rdf:RDF>
 </metadata>
 <defs>
  <style type="text/css">*{stroke-linecap:butt;stroke-linejoin:round;}</style>
 </defs>
 <g id="figure_1">
  <g id="patch_1">
   <path d="M 0 288 
L 432 288 
L 432 0 
L 0 0 
z
" style="fill:none;"/>
  </g>
  <g id="axes_1">
   <g id="patch_2">
    <path d="M 54 252 
L 321.84 252 
L 321.84 34.56 
L 54 34.56 
z
" style="fill:none;"/>
   </g>
   <g id="PolyCollection_1">
    <path clip-path="url(#pa58b27c49e)" d="M 54 252 
L 54 230.256 
L 66.754286 230.256 
L 66.754286 252 
L 54 252 
z
" style="fill:#440154;"/>
    <path clip-path="url(#pa58b27c49e)" d="M 66.754286 252 
L 66.754286 230.256 
L 79.508571 230.256 
L 79.508571 252 
L 66.754286 252 
z
" style="fill:#440154;"/>
    <path clip-path="url(#pa58b27c49e)" d="M 79.508571 252 
L 79.508571 230.256 
L 92.262857 230.256 
L 92.262857 252 
L 79.508571 252 
z
" style="fill:#440154;"/>
    <path clip-path="url(#pa58b27c49e)" d="M 92.262857 252 
L 92.262857 230.256 
L 105.017143 230.256 
L 105.017143 252 
L 92.262857 252 
z
" style="fill:#440154;"/>
    <path clip-path="url(#pa58b27c49e)" d="M 105.017143 252 
L 105.017143 230.256 
L 117.771429 230.256 
L 117.771429 252 
L 105.017143 252 
z
" style="fill:#440154;"/>
    <path clip-path="url(#pa58b27c49e)" d="M 117.771429 252 
L 117.771429 230.256 
L 130.525714 230.256 
L 130.525714 252 
L 117.771429 252 
z
" style="fill:#440154;"/>
    <path clip-path="url(#pa58b27c49e)" d="M 130.525714 252 
L 130.525714 230.256 
L 143.28 230.256 
L 143.28 252 
L 130.525714 252 
z
" style="fill:#440154;"/>
    <path clip-path="url(#pa58b27c49e)" d="M 143.28 252 
L 143.28 230.256 
L 156.034286 230.256 
L 156.034286 252 
L 143.28 252 
z
" style="fill:#440154;"/>
    <path clip-path="url(#pa58b27c49e)" d="M 156.034286 252 
L 156.034286 230.256 
L 168.788571 230.256 
L 168.788571 252 
L 156.034286 252 
z
" style="fill:#440154;"/>
    <path clip-path="url(#pa58b27c49e)" d="M 168.788571 252 
L 168.788571 230.256 
L 181.542857 230.256 
L 181.542857 252 
L 168.788571 252 
z
" style="fill:#440154;"/>
    <path clip-path="url(#pa58b27c49e)" d="M 181.542857 252 
L 181.542857 230.256 
L 194.297143 230.256 
L 194.297143 252 
L 181.542857 252 
z
" style="fill:#440154;"/>
    <path clip-path="url(#pa58b27c49e)" d="M 194.297143 252 
L 194.297143 230.256 
L 207.051429 230.256 
L 207.051429 252 
L 194.297143 252 
z
" style="fill:#440154;"/>
    <path clip-path="url(#pa58b27c49e)" d="M 207.051429 252 
L 207.051429 230.256 
L 219.805714 230.256 
L 219.805714 252 
L 207.051429 252 
z
" style="fill:#440154;"/>
    <path clip-path="url(#pa58b27c49e)" d="M 219.805714 252 
L 219.805714 230.256 
L 232.56 230.256 
L 232.56 252 
L 219.805714 252 
z
" style="fill:#481467;"/>
    <path clip-path="url(#pa58b27c49e)" d="M 232.56 252 
L 232.56 230.256 
L 245.314286 230.256 
L 245.314286 252 
L 232.56 252 
z
" style="fill:#2d718e;"/>
    <path clip-path="url(#pa58b27c49e)" d="M 245.314286 252 
L 245.314286 230.256 
L 258.068571 230.256 
L 258.068571 252 
L 245.314286 252 
z
" style="fill:#fde725;"/>
    <path clip-path="url(#pa58b27c49e)" d="M 258.068571 252 
L 258.068571 230.256 
L 270.822857 230.256 
L 270.822857 252 
L 258.068571 252 
z
" style="fill:#fde725;"/>
    <path clip-path="url(#pa58b27c49e)" d="M 270.822857 252 
L 270.822857 230.256 
L 283.577143 230.256 
L 283.577143 252 
L 270.822857 252 
z
" style="fill:#2d718e;"/>
    <path clip-path="url(#pa58b27c49e)" d="M 283.577143 252 
L 283.577143 230.256 
L 296.331429 230.256 
L 296.331429 252 
L 283.577143 252 
z
" style="fill:#481467;"/>
    <path clip-path="url(#pa58b27c49e)" d="M 296.331429 252 
L 296.331429 230.256 
L 309.085714 230.256 
L 309.085714 252 
L 296.331429 252 
z
" style="fill:#440154;"/>
    <path clip-path="url(#pa58b27c49e)" d="M 309.085714 252 
L 309.085714 230.256 
L 321.84 230.256 
L 321.84 252 
L 309.085714 252 
z
" style="fill:#440154;"/>
    <path clip-path="url(#pa58b27c49e)" d="M 54 230.256 
L 54 208.512 
L 66.754286 208.512 
L 66.754286 230.256 
L 54 230.256 
z
" style="fill:#440154;"/>
    <path clip-path="url(#pa58b27c49e)" d="M 66.754286 230.256 
L 66.754286 208.512 
L 79.508571 208.512 
L 79.508571 230.256 
L 66.754286 230.256 
z
" style="fill:#440154;"/>
    <path clip-path="url(#pa58b27c49e)" d="M 79.508571 230.256 
L 79.508571 208.512 
L 92.262857 208.512 
L 92.262857 230.256 
L 79.508571 230.256 
z
" style="fill:#440154;"/>
    <path clip-path="url(#pa58b27c49e)" d="M 92.262857 230.256 
L 92.262857 208.512 
L 105.017143 208.512 
L 105.017143 230.256 
L 92.262857 230.256 
z
" style="fill:#440154;"/>
    <path clip-path="url(#pa58b27c49e)" d="M 105.017143 230.256 
L 105.017143 208.512 
L 117.771429 208.512 
L 117.771429 230.256 
L 105.017143 230.256 
z
" style="fill:#440154;"/>
    <path clip-path="url(#pa58b27c49e)" d="M 117.771429 230.256 
L 117.771429 208.512 
L 130.525714 208.512 
L 130.525714 230.256 
L 117.771429 230.256 
z
" style="fill:#440154;"/>
    <path clip-path="url(#pa58b27c49e)" d="M 130.525714 230.256 
L 130.525714 208.512 
L 143.28 208.512 
L 143.28 230.256 
L 130.525714 230.256 
z
" style="fill:#440154;"/>
    <path clip-path="url(#pa58b27c49e)" d="M 143.28 230.256 
L 143.28 208.512 
L 156.034286 208.512 
L 156.034286 230.256 
L 143.28 230.256 
z
" style="fill:#440154;"/>
    <path clip-path="url(#pa58b27c49e)" d="M 156.034286 230.256 
L 156.034286 208.512 
L 168.788571 208.512 
L 168.788571 230.256 
L 156.034286 230.256 
z
" style="fill:#440154;"/>
    <path clip-path="url(#pa58b27c49e)" d="M 168.788571 230.256 
L 168.788571 208.512 
L 181.542857 208.512 
L 181.542857 230.256 
L 168.788571 230.256 
z
" style="fill:#440154;"/>
    <path clip-path="url(#pa58b27c49e)" d="M 181.542857 230.256 
L 181.542857 208.512 
L 194.297143 208.512 
L 194.297143 230.256 
L 181.542857 230.256 
z
" style="fill:#440154;"/>
    <path clip-path="url(#pa58b27c49e)" d="M 194.297143 230.256 
L 194.297143 208.512 
L 207.051429 208.512 
L 207.051429 230.256 
L 194.297143 230.256 
z
" style="fill:#440154;"/>
    <path clip-path="url(#pa58b27c49e)" d="M 207.051429 230.256 
L 207.051429 208.512 
L 219.805714 208.512 
L 219.805714 230.256 
L 207.051429 230.256 
z
" style="fill:#482576;"/>
    <path clip-path="url(#pa58b27c49e)" d="M 219.805714 230.256 
L 219.805714 208.512 
L 232.56 208.512 
L 232.56 230.256 
L 219.805714 230.256 
z
" style="fill:#39558c;"/>
    <path clip-path="url(#pa58b27c49e)" d="M 232.56 230.256 
L 232.56 208.512 
L 245.314286 208.512 
L 245.314286 230.256 
L 232.56 230.256 
z
" style="fill:#287d8e;"/>
    <path clip-path="url(#pa58b27c49e)" d="M 245.314286 230.256 
L 245.314286 208.512 
L 258.068571 208.512 
L 258.068571 230.256 
L 245.314286 230.256 
z
" style="fill:#20a386;"/>
    <path clip-path="url(#pa58b27c49e)" d="M 258.068571 230.256 
L 258.068571 208.512 
L 270.822857 208.512 
L 270.822857 230.256 
L 258.068571 230.256 
z
" style="fill:#20a386;"/>
    <path clip-path="url(#pa58b27c49e)" d="M 270.822857 230.256 
L 270.822857 208.512 
L 283.577143 208.512 
L 283.577143 230.256 
L 270.822857 230.256 
z
" style="fill:#287d8e;"/>
    <path clip-path="url(#pa58b27c49e)" d="M 283.577143 230.256 
L 283.577143 208.512 
L 296.331429 208.512 
L 296.331429 230.256 
L 283.577143 230.256 
z
" style="fill:#39558c;"/>
    <path clip-path="url(#pa58b27c49e)" d="M 296.331429 230.256 
L 296.331429 208.512 
L 309.085714 208.512 
L 309.085714 230.256 
L 296.331429 230.256 
z
" style="fill:#482576;"/>
    <path clip-path="url(#pa58b27c49e)" d="M 309.085714 230.256 
L 309.085714 208.512 
L 321.84 208.512 
L 321.84 230.256 
L 309.085714 230.256 
z
" style="fill:#440154;"/>
    <path clip-path="url(#pa58b27c49e)" d="M 54 208.512 
L 54 186.768 
L 66.754286 186.768 
L 66.754286 208.512 
L 54 208.512 
z
" style="fill:#440154;"/>
    <path clip-path="url(#pa58b27c49e)" d="M 66.754286 208.512 
L 66.754286 186.768 
L 79.508571 186.768 
L 79.508571 208.512 
L 66.754286 208.512 
z
" style="fill:#440154;"/>
    <path clip-path="url(#pa58b27c49e)" d="M 79.508571 208.512 
L 79.508571 186.768 
L 92.262857 186.768 
L 92.262857 208.512 
L 79.508571 208.512 
z
" style="fill:#440154;"/>
    <path clip-path="url(#pa58b27c49e)" d="M 92.262857 208.512 
L 92.262857 186.768 
L 105.017143 186.768 
L 105.017143 208.512 
L 92.262857 208.512 
z
" style="fill:#440154;"/>
    <path clip-path="url(#pa58b27c49e)" d="M 105.017143 208.512 
L 105.017143 186.768 
L 117.771429 186.768 
L 117.771429 208.512 
L 105.017143 208.512 
z
" style="fill:#440154;"/>
    <path clip-path="url(#pa58b27c49e)" d="M 117.771429 208.512 
L 117.771429 186.768 
L 130.525714 186.768 
L 130.525714 208.512 
L 117.771429 208.512 
z
" style="fill:#440154;"/>
    <path clip-path="url(#pa58b27c49e)" d="M 130.525714 208.512 
L 130.525714 186.768 
L 143.28 186.768 
L 143.28 208.512 
L 130.525714 208.512 
z
" style="fill:#440154;"/>
    <path clip-path="url(#pa58b27c49e)" d="M 143.28 208.512 
L 143.28 186.768 
L 156.034286 186.768 
L 156.034286 208.512 
L 143.28 208.512 
z
" style="fill:#440154;"/>
    <path clip-path="url(#pa58b27c49e)" d="M 156.034286 208.512 
L 156.034286 186.768 
L 168.788571 186.768 
L 168.788571 208.512 
L 156.034286 208.512 
z
" style="fill:#440154;"/>
    <path clip-path="url(#pa58b27c49e)" d="M 168.788571 208.512 
L 168.788571 186.768 
L 181.542857 186.768 
L 181.542857 208.512 
L 168.788571 208.512 
z
" style="fill:#440154;"/>
    <path clip-path="url(#pa58b27c49e)" d="M 181.542857 208.512 
L 181.542857 186.768 
L 194.297143 186.768 
L 194.297143 208.512 
L 181.542857 208.512 
z
" style="fill:#481467;"/>
    <path clip-path="url(#pa58b27c49e)" d="M 194.297143 208.512 
L 194.297143 186.768 
L 207.051429 186.768 
L 207.051429 208.512 
L 194.297143 208.512 
z
" style="fill:#482576;"/>
    <path clip-path="url(#pa58b27c49e)" d="M 207.051429 208.512 
L 207.051429 186.768 
L 219.805714 186.768 
L 219.805714 208.512 
L 207.051429 208.512 
z
" style="fill:#453781;"/>
    <path clip-path="url(#pa58b27c49e)" d="M 219.805714 208.512 
L 219.805714 186.768 
L 232.56 186.768 
L 232.56 208.512 
L 219.805714 208.512 
z
" style="fill:#39558c;"/>
    <path clip-path="url(#pa58b27c49e)" d="M 232.56 208.512 
L 232.56 186.768 
L 245.314286 186.768 
L 245.314286 208.512 
L 232.56 208.512 
z
" style="fill:#33638d;"/>
    <path clip-path="url(#pa58b27c49e)" d="M 245.314286 208.512 
L 245.314286 186.768 
L 258.068571 186.768 
L 258.068571 208.512 
L 245.314286 208.512 
z
" style="fill:#2d718e;"/>
    <path clip-path="url(#pa58b27c49e)" d="M 258.068571 208.512 
L 258.068571 186.768 
L 270.822857 186.768 
L 270.822857 208.512 
L 258.068571 208.512 
z
" style="fill:#2d718e;"/>
    <path clip-path="url(#pa58b27c49e)" d="M 270.822857 208.512 
L 270.822857 186.768 
L 283.577143 186.768 
L 283.577143 208.512 
L 270.822857 208.512 
z
" style="fill:#33638d;"/>
    <path clip-path="url(#pa58b27c49e)" d="M 283.577143 208.512 
L 283.577143 186.768 
L 296.331429 186.768 
L 296.331429 208.512 
L 283.577143 208.512 
z
" style="fill:#39558c;"/>
    <path clip-path="url(#pa58b27c49e)" d="M 296.331429 208.512 
L 296.331429 186.768 
L 309.085714 186.768 
L 309.085714 208.512 
L 296.331429 208.512 
z
" style="fill:#453781;"/>
    <path clip-path="url(#pa58b27c49e)" d="M 309.085714 208.512 
L 309.085714 186.768 
L 321.84 186.768 
L 321.84 208.512 
L 309.085714 208.512 
z
" style="fill:#482576;"/>
    <path clip-path="url(#pa58b27c49e)" d="M 54 186.768 
L 54 165.024 
L 66.754286 165.024 
L 66.754286 186.768 
L 54 186.768 
z
" style="fill:#440154;"/>
    <path clip-path="url(#pa58b27c49e)" d="M 66.754286 186.768 
L 66.754286 165.024 
L 79.508571 165.024 
L 79.508571 186.768 
L 66.754286 186.768 
z
" style="fill:#440154;"/>
    <path clip-path="url(#pa58b27c49e)" d="M 79.508571 186.768 
L 79.508571 165.024 
L 92.262857 165.024 
L 92.262857 186.768 
L 79.508571 186.768 
z
" style="fill:#440154;"/>
    <path clip-path="url(#pa58b27c49e)" d="M 92.262857 186.768 
L 92.262857 165.024 
L 105.017143 165.024 
L 105.017143 186.768 
L 92.262857 186.768 
z
" style="fill:#440154;"/>
    <path clip-path="url(#pa58b27c49e)" d="M 105.017143 186.768 
L 105.017143 165.024 
L 117.771429 165.024 
L 117.771429 186.768 
L 105.017143 186.768 
z
" style="fill:#440154;"/>
    <path clip-path="url(#pa58b27c49e)" d="M 117.771429 186.768 
L 117.771429 165.024 
L 130.525714 165.024 
L 130.525714 186.768 
L 117.771429 186.768 
z
" style="fill:#440154;"/>
    <path clip-path="url(#pa58b27c49e)" d="M 130.525714 186.768 
L 130.525714 165.024 
L 143.28 165.024 
L 143.28 186.768 
L 130.525714 186.768 
z
" style="fill:#440154;"/>
    <path clip-path="url(#pa58b27c49e)" d="M 143.28 186.768 
L 143.28 165.024 
L 156.034286 165.024 
L 156.034286 186.768 
L 143.28 186.768 
z
" style="fill:#440154;"/>
    <path clip-path="url(#pa58b27c49e)" d="M 156.034286 186.768 
L 156.034286 165.024 
L 168.788571 165.024 
L 168.788571 186.768 
L 156.034286 186.768 
z
" style="fill:#481467;"/>
    <path clip-path="url(#pa58b27c49e)" d="M 168.788571 186.768 
L 168.788571 165.024 
L 181.542857 165.024 
L 181.542857 186.768 
L 168.788571 186.768 
z
" style="fill:#481467;"/>
    <path clip-path="url(#pa58b27c49e)" d="M 181.542857 186.768 
L 181.542857 165.024 
L 194.297143 165.024 
L 194.297143 186.768 
L 181.542857 186.768 
z
" style="fill:#482576;"/>
    <path clip-path="url(#pa58b27c49e)" d="M 194.297143 186.768 
L 194.297143 165.024 
L 207.051429 165.024 
L 207.051429 186.768 
L 194.297143 186.768 
z
" style="fill:#453781;"/>
    <path clip-path="url(#pa58b27c49e)" d="M 207.051429 186.768 
L 207.051429 165.024 
L 219.805714 165.024 
L 219.805714 186.768 
L 207.051429 186.768 
z
" style="fill:#453781;"/>
    <path clip-path="url(#pa58b27c49e)" d="M 219.805714 186.768 
L 219.805714 165.024 
L 232.56 165.024 
L 232.56 186.768 
L 219.805714 186.768 
z
" style="fill:#404688;"/>
    <path clip-path="url(#pa58b27c49e)" d="M 232.56 186.768 
L 232.56 165.024 
L 245.314286 165.024 
L 245.314286 186.768 
L 232.56 186.768 
z
" style="fill:#39558c;"/>
    <path clip-path="url(#pa58b27c49e)" d="M 245.314286 186.768 
L 245.314286 165.024 
L 258.068571 165.024 
L 258.068571 186.768 
L 245.314286 186.768 
z
" style="fill:#39558c;"/>
    <path clip-path="url(#pa58b27c49e)" d="M 258.068571 186.768 
L 258.068571 165.024 
L 270.822857 165.024 
L 270.822857 186.768 
L 258.068571 186.768 
z
" style="fill:#39558c;"/>
    <path clip-path="url(#pa58b27c49e)" d="M 270.822857 186.768 
L 270.822857 165.024 
L 283.577143 165.024 
L 283.577143 186.768 
L 270.822857 186.768 
z
" style="fill:#39558c;"/>
    <path clip-path="url(#pa58b27c49e)" d="M 283.577143 186.768 
L 283.577143 165.024 
L 296.331429 165.024 
L 296.331429 186.768 
L 283.577143 186.768 
z
" style="fill:#404688;"/>
    <path clip-path="url(#pa58b27c49e)" d="M 296.331429 186.768 
L 296.331429 165.024 
L 309.085714 165.024 
L 309.085714 186.768 
L 296.331429 186.768 
z
" style="fill:#453781;"/>
    <path clip-path="url(#pa58b27c49e)" d="M 309.085714 186.768 
L 309.085714 165.024 
L 321.84 165.024 
L 321.84 186.768 
L 309.085714 186.768 
z
" style="fill:#453781;"/>
    <path clip-path="url(#pa58b27c49e)" d="M 54 165.024 
L 54 143.28 
L 66.754286 143.28 
L 66.754286 165.024 
L 54 165.024 
z
" style="fill:#440154;"/>
    <path clip-path="url(#pa58b27c49e)" d="M 66.754286 165.024 
L 66.754286 143.28 
L 79.508571 143.28 
L 79.508571 165.024 
L 66.754286 165.024 
z
" style="fill:#440154;"/>
    <path clip-path="url(#pa58b27c49e)" d="M 79.508571 165.024 
L 79.508571 143.28 
L 92.262857 143.28 
L 92.262857 165.024 
L 79.508571 165.024 
z
" style="fill:#440154;"/>
    <path clip-path="url(#pa58b27c49e)" d="M 92.262857 165.024 
L 92.262857 143.28 
L 105.017143 143.28 
L 105.017143 165.024 
L 92.262857 165.024 
z
" style="fill:#440154;"/>
    <path clip-path="url(#pa58b27c49e)" d="M 105.017143 165.024 
L 105.017143 143.28 
L 117.771429 143.28 
L 117.771429 165.024 
L 105.017143 165.024 
z
" style="fill:#440154;"/>
    <path clip-path="url(#pa58b27c49e)" d="M 117.771429 165.024 
L 117.771429 143.28 
L 130.525714 143.28 
L 130.525714 165.024 
L 117.771429 165.024 
z
" style="fill:#440154;"/>
    <path clip-path="url(#pa58b27c49e)" d="M 130.525714 165.024 
L 130.525714 143.28 
L 143.28 143.28 
L 143.28 165.024 
L 130.525714 165.024 
z
" style="fill:#440154;"/>
    <path clip-path="url(#pa58b27c49e)" d="M 143.28 165.024 
L 143.28 143.28 
L 156.034286 143.28 
L 156.034286 165.024 
L 143.28 165.024 
z
" style="fill:#481467;"/>
    <path clip-path="url(#pa58b27c49e)" d="M 156.034286 165.024 
L 156.034286 143.28 
L 168.788571 143.28 
L 168.788571 165.024 
L 156.034286 165.024 
z
" style="fill:#481467;"/>
    <path clip-path="url(#pa58b27c49e)" d="M 168.788571 165.024 
L 168.788571 143.28 
L 181.542857 143.28 
L 181.542857 165.024 
L 168.788571 165.024 
z
" style="fill:#482576;"/>
    <path clip-path="url(#pa58b27c49e)" d="M 181.542857 165.024 
L 181.542857 143.28 
L 194.297143 143.28 
L 194.297143 165.024 
L 181.542857 165.024 
z
" style="fill:#482576;"/>
    <path clip-path="url(#pa58b27c49e)" d="M 194.297143 165.024 
L 194.297143 143.28 
L 207.051429 143.28 
L 207.051429 165.024 
L 194.297143 165.024 
z
" style="fill:#453781;"/>
    <path clip-path="url(#pa58b27c49e)" d="M 207.051429 165.024 
L 207.051429 143.28 
L 219.805714 143.28 
L 219.805714 165.024 
L 207.051429 165.024 
z
" style="fill:#453781;"/>
    <path clip-path="url(#pa58b27c49e)" d="M 219.805714 165.024 
L 219.805714 143.28 
L 232.56 143.28 
L 232.56 165.024 
L 219.805714 165.024 
z
" style="fill:#404688;"/>
    <path clip-path="url(#pa58b27c49e)" d="M 232.56 165.024 
L 232.56 143.28 
L 245.314286 143.28 
L 245.314286 165.024 
L 232.56 165.024 
z
" style="fill:#404688;"/>
    <path clip-path="url(#pa58b27c49e)" d="M 245.314286 165.024 
L 245.314286 143.28 
L 258.068571 143.28 
L 258.068571 165.024 
L 245.314286 165.024 
z
" style="fill:#404688;"/>
    <path clip-path="url(#pa58b27c49e)" d="M 258.068571 165.024 
L 258.068571 143.28 
L 270.822857 143.28 
L 270.822857 165.024 
L 258.068571 165.024 
z
" style="fill:#404688;"/>
    <path clip-path="url(#pa58b27c49e)" d="M 270.822857 165.024 
L 270.822857 143.28 
L 283.577143 143.28 
L 283.577143 165.024 
L 270.822857 165.024 
z
" style="fill:#404688;"/>
    <path clip-path="url(#pa58b27c49e)" d="M 283.577143 165.024 
L 283.577143 143.28 
L 296.331429 143.28 
L 296.331429 165.024 
L 283.577143 165.024 
z
" style="fill:#404688;"/>
    <path clip-path="url(#pa58b27c49e)" d="M 296.331429 165.024 
L 296.331429 143.28 
L 309.085714 143.28 
L 309.085714 165.024 
L 296.331429 165.024 
z
" style="fill:#453781;"/>
    <path clip-path="url(#pa58b27c49e)" d="M 309.085714 165.024 
L 309.085714 143.28 
L 321.84 143.28 
L 321.84 165.024 
L 309.085714 165.024 
z
" style="fill:#453781;"/>
    <path clip-path="url(#pa58b27c49e)" d="M 54 143.28 
L 54 121.536 
L 66.754286 121.536 
L 66.754286 143.28 
L 54 143.28 
z
" style="fill:#440154;"/>
    <path clip-path="url(#pa58b27c49e)" d="M 66.754286 143.28 
L 66.754286 121.536 
L 79.508571 121.536 
L 79.508571 143.28 
L 66.754286 143.28 
z
" style="fill:#440154;"/>
    <path clip-path="url(#pa58b27c49e)" d="M 79.508571 143.28 
L 79.508571 121.536 
L 92.262857 121.536 
L 92.262857 143.28 
L 79.508571 143.28 
z
" style="fill:#440154;"/>
    <path clip-path="url(#pa58b27c49e)" d="M 92.262857 143.28 
L 92.262857 121.536 
L 105.017143 121.536 
L 105.017143 143.28 
L 92.262857 143.28 
z
" style="fill:#440154;"/>
    <path clip-path="url(#pa58b27c49e)" d="M 105.017143 143.28 
L 105.017143 121.536 
L 117.771429 121.536 
L 117.771429 143.28 
L 105.017143 143.28 
z
" style="fill:#440154;"/>
    <path clip-path="url(#pa58b27c49e)" d="M 117.771429 143.28 
L 117.771429 121.536 
L 130.525714 121.536 
L 130.525714 143.28 
L 117.771429 143.28 
z
" style="fill:#440154;"/>
    <path clip-path="url(#pa58b27c49e)" d="M 130.525714 143.28 
L 130.525714 121.536 
L 143.28 121.536 
L 143.28 143.28 
L 130.525714 143.28 
z
" style="fill:#481467;"/>
    <path clip-path="url(#pa58b27c49e)" d="M 143.28 143.28 
L 143.28 121.536 
L 156.034286 121.536 
L 156.034286 143.28 
L 143.28 143.28 
z
" style="fill:#481467;"/>
    <path clip-path="url(#pa58b27c49e)" d="M 156.034286 143.28 
L 156.034286 121.536 
L 168.788571 121.536 
L 168.788571 143.28 
L 156.034286 143.28 
z
" style="fill:#481467;"/>
    <path clip-path="url(#pa58b27c49e)" d="M 168.788571 143.28 
L 168.788571 121.536 
L 181.542857 121.536 
L 181.542857 143.28 
L 168.788571 143.28 
z
" style="fill:#482576;"/>
    <path clip-path="url(#pa58b27c49e)" d="M 181.542857 143.28 
L 181.542857 121.536 
L 194.297143 121.536 
L 194.297143 143.28 
L 181.542857 143.28 
z
" style="fill:#482576;"/>
    <path clip-path="url(#pa58b27c49e)" d="M 194.297143 143.28 
L 194.297143 121.536 
L 207.051429 121.536 
L 207.051429 143.28 
L 194.297143 143.28 
z
" style="fill:#482576;"/>
    <path clip-path="url(#pa58b27c49e)" d="M 207.051429 143.28 
L 207.051429 121.536 
L 219.805714 121.536 
L 219.805714 143.28 
L 207.051429 143.28 
z
" style="fill:#453781;"/>
    <path clip-path="url(#pa58b27c49e)" d="M 219.805714 143.28 
L 219.805714 121.536 
L 232.56 121.536 
L 232.56 143.28 
L 219.805714 143.28 
z
" style="fill:#453781;"/>
    <path clip-path="url(#pa58b27c49e)" d="M 232.56 143.28 
L 232.56 121.536 
L 245.314286 121.536 
L 245.314286 143.28 
L 232.56 143.28 
z
" style="fill:#453781;"/>
    <path clip-path="url(#pa58b27c49e)" d="M 245.314286 143.28 
L 245.314286 121.536 
L 258.068571 121.536 
L 258.068571 143.28 
L 245.314286 143.28 
z
" style="fill:#453781;"/>
    <path clip-path="url(#pa58b27c49e)" d="M 258.068571 143.28 
L 258.068571 121.536 
L 270.822857 121.536 
L 270.822857 143.28 
L 258.068571 143.28 
z
" style="fill:#453781;"/>
    <path clip-path="url(#pa58b27c49e)" d="M 270.822857 143.28 
L 270.822857 121.536 
L 283.577143 121.536 
L 283.577143 143.28 
L 270.822857 143.28 
z
" style="fill:#453781;"/>
    <path clip-path="url(#pa58b27c49e)" d="M 283.577143 143.28 
L 283.577143 121.536 
L 296.331429 121.536 
L 296.331429 143.28 
L 283.577143 143.28 
z
" style="fill:#453781;"/>
    <path clip-path="url(#pa58b27c49e)" d="M 296.331429 143.28 
L 296.331429 121.536 
L 309.085714 121.536 
L 309.085714 143.28 
L 296.331429 143.28 
z
" style="fill:#453781;"/>
    <path clip-path="url(#pa58b27c49e)" d="M 309.085714 143.28 
L 309.085714 121.536 
L 321.84 121.536 
L 321.84 143.28 
L 309.085714 143.28 
z
" style="fill:#482576;"/>
    <path clip-path="url(#pa58b27c49e)" d="M 54 121.536 
L 54 99.792 
L 66.754286 99.792 
L 66.754286 121.536 
L 54 121.536 
z
" style="fill:#440154;"/>
    <path clip-path="url(#pa58b27c49e)" d="M 66.754286 121.536 
L 66.754286 99.792 
L 79.508571 99.792 
L 79.508571 121.536 
L 66.754286 121.536 
z
" style="fill:#440154;"/>
    <path clip-path="url(#pa58b27c49e)" d="M 79.508571 121.536 
L 79.508571 99.792 
L 92.262857 99.792 
L 92.262857 121.536 
L 79.508571 121.536 
z
" style="fill:#440154;"/>
    <path clip-path="url(#pa58b27c49e)" d="M 92.262857 121.536 
L 92.262857 99.792 
L 105.017143 99.792 
L 105.017143 121.536 
L 92.262857 121.536 
z
" style="fill:#440154;"/>
    <path clip-path="url(#pa58b27c49e)" d="M 105.017143 121.536 
L 105.017143 99.792 
L 117.771429 99.792 
L 117.771429 121.536 
L 105.017143 121.536 
z
" style="fill:#440154;"/>
    <path clip-path="url(#pa58b27c49e)" d="M 117.771429 121.536 
L 117.771429 99.792 
L 130.525714 99.792 
L 130.525714 121.536 
L 117.771429 121.536 
z
" style="fill:#481467;"/>
    <path clip-path="url(#pa58b27c49e)" d="M 130.525714 121.536 
L 130.525714 99.792 
L 143.28 99.792 
L 143.28 121.536 
L 130.525714 121.536 
z
" style="fill:#481467;"/>
    <path clip-path="url(#pa58b27c49e)" d="M 143.28 121.536 
L 143.28 99.792 
L 156.034286 99.792 
L 156.034286 121.536 
L 143.28 121.536 
z
" style="fill:#481467;"/>
    <path clip-path="url(#pa58b27c49e)" d="M 156.034286 121.536 
L 156.034286 99.792 
L 168.788571 99.792 
L 168.788571 121.536 
L 156.034286 121.536 
z
" style="fill:#481467;"/>
    <path clip-path="url(#pa58b27c49e)" d="M 168.788571 121.536 
L 168.788571 99.792 
L 181.542857 99.792 
L 181.542857 121.536 
L 168.788571 121.536 
z
" style="fill:#482576;"/>
    <path clip-path="url(#pa58b27c49e)" d="M 181.542857 121.536 
L 181.542857 99.792 
L 194.297143 99.792 
L 194.297143 121.536 
L 181.542857 121.536 
z
" style="fill:#482576;"/>
    <path clip-path="url(#pa58b27c49e)" d="M 194.297143 121.536 
L 194.297143 99.792 
L 207.051429 99.792 
L 207.051429 121.536 
L 194.297143 121.536 
z
" style="fill:#482576;"/>
    <path clip-path="url(#pa58b27c49e)" d="M 207.051429 121.536 
L 207.051429 99.792 
L 219.805714 99.792 
L 219.805714 121.536 
L 207.051429 121.536 
z
" style="fill:#482576;"/>
    <path clip-path="url(#pa58b27c49e)" d="M 219.805714 121.536 
L 219.805714 99.792 
L 232.56 99.792 
L 232.56 121.536 
L 219.805714 121.536 
z
" style="fill:#453781;"/>
    <path clip-path="url(#pa58b27c49e)" d="M 232.56 121.536 
L 232.56 99.792 
L 245.314286 99.792 
L 245.314286 121.536 
L 232.56 121.536 
z
" style="fill:#453781;"/>
    <path clip-path="url(#pa58b27c49e)" d="M 245.314286 121.536 
L 245.314286 99.792 
L 258.068571 99.792 
L 258.068571 121.536 
L 245.314286 121.536 
z
" style="fill:#453781;"/>
    <path clip-path="url(#pa58b27c49e)" d="M 258.068571 121.536 
L 258.068571 99.792 
L 270.822857 99.792 
L 270.822857 121.536 
L 258.068571 121.536 
z
" style="fill:#453781;"/>
    <path clip-path="url(#pa58b27c49e)" d="M 270.822857 121.536 
L 270.822857 99.792 
L 283.577143 99.792 
L 283.577143 121.536 
L 270.822857 121.536 
z
" style="fill:#453781;"/>
    <path clip-path="url(#pa58b27c49e)" d="M 283.577143 121.536 
L 283.577143 99.792 
L 296.331429 99.792 
L 296.331429 121.536 
L 283.577143 121.536 
z
" style="fill:#453781;"/>
    <path clip-path="url(#pa58b27c49e)" d="M 296.331429 121.536 
L 296.331429 99.792 
L 309.085714 99.792 
L 309.085714 121.536 
L 296.331429 121.536 
z
" style="fill:#482576;"/>
    <path clip-path="url(#pa58b27c49e)" d="M 309.085714 121.536 
L 309.085714 99.792 
L 321.84 99.792 
L 321.84 121.536 
L 309.085714 121.536 
z
" style="fill:#482576;"/>
    <path clip-path="url(#pa58b27c49e)" d="M 54 99.792 
L 54 78.048 
L 66.754286 78.048 
L 66.754286 99.792 
L 54 99.792 
z
" style="fill:#440154;"/>
    <path clip-path="url(#pa58b27c49e)" d="M 66.754286 99.792 
L 66.754286 78.048 
L 79.508571 78.048 
L 79.508571 99.792 
L 66.754286 99.792 
z
" style="fill:#440154;"/>
    <path clip-path="url(#pa58b27c49e)" d="M 79.508571 99.792 
L 79.508571 78.048 
L 92.262857 78.048 
L 92.262857 99.792 
L 79.508571 99.792 
z
" style="fill:#440154;"/>
    <path clip-path="url(#pa58b27c49e)" d="M 92.262857 99.792 
L 92.262857 78.048 
L 105.017143 78.048 
L 105.017143 99.792 
L 92.262857 99.792 
z
" style="fill:#440154;"/>
    <path clip-path="url(#pa58b27c49e)" d="M 105.017143 99.792 
L 105.017143 78.048 
L 117.771429 78.048 
L 117.771429 99.792 
L 105.017143 99.792 
z
" style="fill:#481467;"/>
    <path clip-path="url(#pa58b27c49e)" d="M 117.771429 99.792 
L 117.771429 78.048 
L 130.525714 78.048 
L 130.525714 99.792 
L 117.771429 99.792 
z
" style="fill:#481467;"/>
    <path clip-path="url(#pa58b27c49e)" d="M 130.525714 99.792 
L 130.525714 78.048 
L 143.28 78.048 
L 143.28 99.792 
L 130.525714 99.792 
z
" style="fill:#481467;"/>
    <path clip-path="url(#pa58b27c49e)" d="M 143.28 99.792 
L 143.28 78.048 
L 156.034286 78.048 
L 156.034286 99.792 
L 143.28 99.792 
z
" style="fill:#481467;"/>
    <path clip-path="url(#pa58b27c49e)" d="M 156.034286 99.792 
L 156.034286 78.048 
L 168.788571 78.048 
L 168.788571 99.792 
L 156.034286 99.792 
z
" style="fill:#481467;"/>
    <path clip-path="url(#pa58b27c49e)" d="M 168.788571 99.792 
L 168.788571 78.048 
L 181.542857 78.048 
L 181.542857 99.792 
L 168.788571 99.792 
z
" style="fill:#482576;"/>
    <path clip-path="url(#pa58b27c49e)" d="M 181.542857 99.792 
L 181.542857 78.048 
L 194.297143 78.048 
L 194.297143 99.792 
L 181.542857 99.792 
z
" style="fill:#482576;"/>
    <path clip-path="url(#pa58b27c49e)" d="M 194.297143 99.792 
L 194.297143 78.048 
L 207.051429 78.048 
L 207.051429 99.792 
L 194.297143 99.792 
z
" style="fill:#482576;"/>
    <path clip-path="url(#pa58b27c49e)" d="M 207.051429 99.792 
L 207.051429 78.048 
L 219.805714 78.048 
L 219.805714 99.792 
L 207.051429 99.792 
z
" style="fill:#482576;"/>
    <path clip-path="url(#pa58b27c49e)" d="M 219.805714 99.792 
L 219.805714 78.048 
L 232.56 78.048 
L 232.56 99.792 
L 219.805714 99.792 
z
" style="fill:#482576;"/>
    <path clip-path="url(#pa58b27c49e)" d="M 232.56 99.792 
L 232.56 78.048 
L 245.314286 78.048 
L 245.314286 99.792 
L 232.56 99.792 
z
" style="fill:#482576;"/>
    <path clip-path="url(#pa58b27c49e)" d="M 245.314286 99.792 
L 245.314286 78.048 
L 258.068571 78.048 
L 258.068571 99.792 
L 245.314286 99.792 
z
" style="fill:#482576;"/>
    <path clip-path="url(#pa58b27c49e)" d="M 258.068571 99.792 
L 258.068571 78.048 
L 270.822857 78.048 
L 270.822857 99.792 
L 258.068571 99.792 
z
" style="fill:#482576;"/>
    <path clip-path="url(#pa58b27c49e)" d="M 270.822857 99.792 
L 270.822857 78.048 
L 283.577143 78.048 
L 283.577143 99.792 
L 270.822857 99.792 
z
" style="fill:#482576;"/>
    <path clip-path="url(#pa58b27c49e)" d="M 283.577143 99.792 
L 283.577143 78.048 
L 296.331429 78.048 
L 296.331429 99.792 
L 283.577143 99.792 
z
" style="fill:#482576;"/>
    <path clip-path="url(#pa58b27c49e)" d="M 296.331429 99.792 
L 296.331429 78.048 
L 309.085714 78.048 
L 309.085714 99.792 
L 296.331429 99.792 
z
" style="fill:#482576;"/>
    <path clip-path="url(#pa58b27c49e)" d="M 309.085714 99.792 
L 309.085714 78.048 
L 321.84 78.048 
L 321.84 99.792 
L 309.085714 99.792 
z
" style="fill:#482576;"/>
    <path clip-path="url(#pa58b27c49e)" d="M 54 78.048 
L 54 56.304 
L 66.754286 56.304 
L 66.754286 78.048 
L 54 78.048 
z
" style="fill:#440154;"/>
    <path clip-path="url(#pa58b27c49e)" d="M 66.754286 78.048 
L 66.754286 56.304 
L 79.508571 56.304 
L 79.508571 78.048 
L 66.754286 78.048 
z
" style="fill:#440154;"/>
    <path clip-path="url(#pa58b27c49e)" d="M 79.508571 78.048 
L 79.508571 56.304 
L 92.262857 56.304 
L 92.262857 78.048 
L 79.508571 78.048 
z
" style="fill:#440154;"/>
    <path clip-path="url(#pa58b27c49e)" d="M 92.262857 78.048 
L 92.262857 56.304 
L 105.017143 56.304 
L 105.017143 78.048 
L 92.262857 78.048 
z
" style="fill:#481467;"/>
    <path clip-path="url(#pa58b27c49e)" d="M 105.017143 78.048 
L 105.017143 56.304 
L 117.771429 56.304 
L 117.771429 78.048 
L 105.017143 78.048 
z
" style="fill:#481467;"/>
    <path clip-path="url(#pa58b27c49e)" d="M 117.771429 78.048 
L 117.771429 56.304 
L 130.525714 56.304 
L 130.525714 78.048 
L 117.771429 78.048 
z
" style="fill:#481467;"/>
    <path clip-path="url(#pa58b27c49e)" d="M 130.525714 78.048 
L 130.525714 56.304 
L 143.28 56.304 
L 143.28 78.048 
L 130.525714 78.048 
z
" style="fill:#481467;"/>
    <path clip-path="url(#pa58b27c49e)" d="M 143.28 78.048 
L 143.28 56.304 
L 156.034286 56.304 
L 156.034286 78.048 
L 143.28 78.048 
z
" style="fill:#481467;"/>
    <path clip-path="url(#pa58b27c49e)" d="M 156.034286 78.048 
L 156.034286 56.304 
L 168.788571 56.304 
L 168.788571 78.048 
L 156.034286 78.048 
z
" style="fill:#481467;"/>
    <path clip-path="url(#pa58b27c49e)" d="M 168.788571 78.048 
L 168.788571 56.304 
L 181.542857 56.304 
L 181.542857 78.048 
L 168.788571 78.048 
z
" style="fill:#481467;"/>
    <path clip-path="url(#pa58b27c49e)" d="M 181.542857 78.048 
L 181.542857 56.304 
L 194.297143 56.304 
L 194.297143 78.048 
L 181.542857 78.048 
z
" style="fill:#482576;"/>
    <path clip-path="url(#pa58b27c49e)" d="M 194.297143 78.048 
L 194.297143 56.304 
L 207.051429 56.304 
L 207.051429 78.048 
L 194.297143 78.048 
z
" style="fill:#482576;"/>
    <path clip-path="url(#pa58b27c49e)" d="M 207.051429 78.048 
L 207.051429 56.304 
L 219.805714 56.304 
L 219.805714 78.048 
L 207.051429 78.048 
z
" style="fill:#482576;"/>
    <path clip-path="url(#pa58b27c49e)" d="M 219.805714 78.048 
L 219.805714 56.304 
L 232.56 56.304 
L 232.56 78.048 
L 219.805714 78.048 
z
" style="fill:#482576;"/>
    <path clip-path="url(#pa58b27c49e)" d="M 232.56 78.048 
L 232.56 56.304 
L 245.314286 56.304 
L 245.314286 78.048 
L 232.56 78.048 
z
" style="fill:#482576;"/>
    <path clip-path="url(#pa58b27c49e)" d="M 245.314286 78.048 
L 245.314286 56.304 
L 258.068571 56.304 
L 258.068571 78.048 
L 245.314286 78.048 
z
" style="fill:#482576;"/>
    <path clip-path="url(#pa58b27c49e)" d="M 258.068571 78.048 
L 258.068571 56.304 
L 270.822857 56.304 
L 270.822857 78.048 
L 258.068571 78.048 
z
" style="fill:#482576;"/>
    <path clip-path="url(#pa58b27c49e)" d="M 270.822857 78.048 
L 270.822857 56.304 
L 283.577143 56.304 
L 283.577143 78.048 
L 270.822857 78.048 
z
" style="fill:#482576;"/>
    <path clip-path="url(#pa58b27c49e)" d="M 283.577143 78.048 
L 283.577143 56.304 
L 296.331429 56.304 
L 296.331429 78.048 
L 283.577143 78.048 
z
" style="fill:#482576;"/>
    <path clip-path="url(#pa58b27c49e)" d="M 296.331429 78.048 
L 296.331429 56.304 
L 309.085714 56.304 
L 309.085714 78.048 
L 296.331429 78.048 
z
" style="fill:#482576;"/>
    <path clip-path="url(#pa58b27c49e)" d="M 309.085714 78.048 
L 309.085714 56.304 
L 321.84 56.304 
L 321.84 78.048 
L 309.085714 78.048 
z
" style="fill:#482576;"/>
    <path clip-path="url(#pa58b27c49e)" d="M 54 56.304 
L 54 34.56 
L 66.754286 34.56 
L 66.754286 56.304 
L 54 56.304 
z
" style="fill:#440154;"/>
    <path clip-path="url(#pa58b27c49e)" d="M 66.754286 56.304 
L 66.754286 34.56 
L 79.508571 34.56 
L 79.508571 56.304 
L 66.754286 56.304 
z
" style="fill:#440154;"/>
    <path clip-path="url(#pa58b27c49e)" d="M 79.508571 56.304 
L 79.508571 34.56 
L 92.262857 34.56 
L 92.262857 56.304 
L 79.508571 56.304 
z
" style="fill:#440154;"/>
    <path clip-path="url(#pa58b27c49e)" d="M 92.262857 56.304 
L 92.262857 34.56 
L 105.017143 34.56 
L 105.017143 56.304 
L 92.262857 56.304 
z
" style="fill:#481467;"/>
    <path clip-path="url(#pa58b27c49e)" d="M 105.017143 56.304 
L 105.017143 34.56 
L 117.771429 34.56 
L 117.771429 56.304 
L 105.017143 56.304 
z
" style="fill:#481467;"/>
    <path clip-path="url(#pa58b27c49e)" d="M 117.771429 56.304 
L 117.771429 34.56 
L 130.525714 34.56 
L 130.525714 56.304 
L 117.771429 56.304 
z
" style="fill:#481467;"/>
    <path clip-path="url(#pa58b27c49e)" d="M 130.525714 56.304 
L 130.525714 34.56 
L 143.28 34.56 
L 143.28 56.304 
L 130.525714 56.304 
z
" style="fill:#481467;"/>
    <path clip-path="url(#pa58b27c49e)" d="M 143.28 56.304 
L 143.28 34.56 
L 156.034286 34.56 
L 156.034286 56.304 
L 143.28 56.304 
z
" style="fill:#481467;"/>
    <path clip-path="url(#pa58b27c49e)" d="M 156.034286 56.304 
L 156.034286 34.56 
L 168.788571 34.56 
L 168.788571 56.304 
L 156.034286 56.304 
z
" style="fill:#481467;"/>
    <path clip-path="url(#pa58b27c49e)" d="M 168.788571 56.304 
L 168.788571 34.56 
L 181.542857 34.56 
L 181.542857 56.304 
L 168.788571 56.304 
z
" style="fill:#481467;"/>
    <path clip-path="url(#pa58b27c49e)" d="M 181.542857 56.304 
L 181.542857 34.56 
L 194.297143 34.56 
L 194.297143 56.304 
L 181.542857 56.304 
z
" style="fill:#481467;"/>
    <path clip-path="url(#pa58b27c49e)" d="M 194.297143 56.304 
L 194.297143 34.56 
L 207.051429 34.56 
L 207.051429 56.304 
L 194.297143 56.304 
z
" style="fill:#482576;"/>
    <path clip-path="url(#pa58b27c49e)" d="M 207.051429 56.304 
L 207.051429 34.56 
L 219.805714 34.56 
L 219.805714 56.304 
L 207.051429 56.304 
z
" style="fill:#482576;"/>
    <path clip-path="url(#pa58b27c49e)" d="M 219.805714 56.304 
L 219.805714 34.56 
L 232.56 34.56 
L 232.56 56.304 
L 219.805714 56.304 
z
" style="fill:#482576;"/>
    <path clip-path="url(#pa58b27c49e)" d="M 232.56 56.304 
L 232.56 34.56 
L 245.314286 34.56 
L 245.314286 56.304 
L 232.56 56.304 
z
" style="fill:#482576;"/>
    <path clip-path="url(#pa58b27c49e)" d="M 245.314286 56.304 
L 245.314286 34.56 
L 258.068571 34.56 
L 258.068571 56.304 
L 245.314286 56.304 
z
" style="fill:#482576;"/>
    <path clip-path="url(#pa58b27c49e)" d="M 258.068571 56.304 
L 258.068571 34.56 
L 270.822857 34.56 
L 270.822857 56.304 
L 258.068571 56.304 
z
" style="fill:#482576;"/>
    <path clip-path="url(#pa58b27c49e)" d="M 270.822857 56.304 
L 270.822857 34.56 
L 283.577143 34.56 
L 283.577143 56.304 
L 270.822857 56.304 
z
" style="fill:#482576;"/>
    <path clip-path="url(#pa58b27c49e)" d="M 283.577143 56.304 
L 283.577143 34.56 
L 296.331429 34.56 
L 296.331429 56.304 
L 283.577143 56.304 
z
" style="fill:#482576;"/>
    <path clip-path="url(#pa58b27c49e)" d="M 296.331429 56.304 
L 296.331429 34.56 
L 309.085714 34.56 
L 309.085714 56.304 
L 296.331429 56.304 
z
" style="fill:#482576;"/>
    <path clip-path="url(#pa58b27c49e)" d="M 309.085714 56.304 
L 309.085714 34.56 
L 321.84 34.56 
L 321.84 56.304 
L 309.085714 56.304 
z
" style="fill:#482576;"/>
   </g>
   <g id="matplotlib.axis_1">
    <g id="xtick_1">
     <g id="line2d_1">
      <defs>
       <path d="M 0 0 
L 0 3.5 
" id="mbb53ca0140" style="stroke:#000000;stroke-width:0.8;"/>
      </defs>
      <g>
       <use style="stroke:#000000;stroke-width:0.8;" x="60.377143" xlink:href="#mbb53ca0140" y="252"/>
      </g>
     </g>
     <g id="text_1">
      <!-- −1.0 -->
      <g transform="translate(48.235737 266.598437)scale(0.1 -0.1)">
       <defs>
        <path d="M 10.59375 35.5 
L 73.1875 35.5 
L 73.1875 27.203125 
L 10.59375 27.203125 
z
" id="DejaVuSans-8722"/>
        <path d="M 12.40625 8.296875 
L 28.515625 8.296875 
L 28.515625 63.921875 
L 10.984375 60.40625 
L 10.984375 69.390625 
L 28.421875 72.90625 
L 38.28125 72.90625 
L 38.28125 8.296875 
L 54.390625 8.296875 
L 54.390625 0 
L 12.40625 0 
z
" id="DejaVuSans-49"/>
        <path d="M 10.6875 12.40625 
L 21 12.40625 
L 21 0 
L 10.6875 0 
z
" id="DejaVuSans-46"/>
        <path d="M 31.78125 66.40625 
Q 24.171875 66.40625 20.328125 58.90625 
Q 16.5 51.421875 16.5 36.375 
Q 16.5 21.390625 20.328125 13.890625 
Q 24.171875 6.390625 31.78125 6.390625 
Q 39.453125 6.390625 43.28125 13.890625 
Q 47.125 21.390625 47.125 36.375 
Q 47.125 51.421875 43.28125 58.90625 
Q 39.453125 66.40625 31.78125 66.40625 
z
M 31.78125 74.21875 
Q 44.046875 74.21875 50.515625 64.515625 
Q 56.984375 54.828125 56.984375 36.375 
Q 56.984375 17.96875 50.515625 8.265625 
Q 44.046875 -1.421875 31.78125 -1.421875 
Q 19.53125 -1.421875 13.0625 8.265625 
Q 6.59375 17.96875 6.59375 36.375 
Q 6.59375 54.828125 13.0625 64.515625 
Q 19.53125 74.21875 31.78125 74.21875 
z
" id="DejaVuSans-48"/>
       </defs>
       <use xlink:href="#DejaVuSans-8722"/>
       <use x="83.789062" xlink:href="#DejaVuSans-49"/>
       <use x="147.412109" xlink:href="#DejaVuSans-46"/>
       <use x="179.199219" xlink:href="#DejaVuSans-48"/>
      </g>
     </g>
    </g>
    <g id="xtick_2">
     <g id="line2d_2">
      <g>
       <use style="stroke:#000000;stroke-width:0.8;" x="124.148571" xlink:href="#mbb53ca0140" y="252"/>
      </g>
     </g>
     <g id="text_2">
      <!-- −0.5 -->
      <g transform="translate(112.007165 266.598437)scale(0.1 -0.1)">
       <defs>
        <path d="M 10.796875 72.90625 
L 49.515625 72.90625 
L 49.515625 64.59375 
L 19.828125 64.59375 
L 19.828125 46.734375 
Q 21.96875 47.46875 24.109375 47.828125 
Q 26.265625 48.1875 28.421875 48.1875 
Q 40.625 48.1875 47.75 41.5 
Q 54.890625 34.8125 54.890625 23.390625 
Q 54.890625 11.625 47.5625 5.09375 
Q 40.234375 -1.421875 26.90625 -1.421875 
Q 22.3125 -1.421875 17.546875 -0.640625 
Q 12.796875 0.140625 7.71875 1.703125 
L 7.71875 11.625 
Q 12.109375 9.234375 16.796875 8.0625 
Q 21.484375 6.890625 26.703125 6.890625 
Q 35.15625 6.890625 40.078125 11.328125 
Q 45.015625 15.765625 45.015625 23.390625 
Q 45.015625 31 40.078125 35.4375 
Q 35.15625 39.890625 26.703125 39.890625 
Q 22.75 39.890625 18.8125 39.015625 
Q 14.890625 38.140625 10.796875 36.28125 
z
" id="DejaVuSans-53"/>
       </defs>
       <use xlink:href="#DejaVuSans-8722"/>
       <use x="83.789062" xlink:href="#DejaVuSans-48"/>
       <use x="147.412109" xlink:href="#DejaVuSans-46"/>
       <use x="179.199219" xlink:href="#DejaVuSans-53"/>
      </g>
     </g>
    </g>
    <g id="xtick_3">
     <g id="line2d_3">
      <g>
       <use style="stroke:#000000;stroke-width:0.8;" x="187.92" xlink:href="#mbb53ca0140" y="252"/>
      </g>
     </g>
     <g id="text_3">
      <!-- 0.0 -->
      <g transform="translate(179.968438 266.598437)scale(0.1 -0.1)">
       <use xlink:href="#DejaVuSans-48"/>
       <use x="63.623047" xlink:href="#DejaVuSans-46"/>
       <use x="95.410156" xlink:href="#DejaVuSans-48"/>
      </g>
     </g>
    </g>
    <g id="xtick_4">
     <g id="line2d_4">
      <g>
       <use style="stroke:#000000;stroke-width:0.8;" x="251.691429" xlink:href="#mbb53ca0140" y="252"/>
      </g>
     </g>
     <g id="text_4">
      <!-- 0.5 -->
      <g transform="translate(243.739866 266.598437)scale(0.1 -0.1)">
       <use xlink:href="#DejaVuSans-48"/>
       <use x="63.623047" xlink:href="#DejaVuSans-46"/>
       <use x="95.410156" xlink:href="#DejaVuSans-53"/>
      </g>
     </g>
    </g>
    <g id="xtick_5">
     <g id="line2d_5">
      <g>
       <use style="stroke:#000000;stroke-width:0.8;" x="315.462857" xlink:href="#mbb53ca0140" y="252"/>
      </g>
     </g>
     <g id="text_5">
      <!-- 1.0 -->
      <g transform="translate(307.511295 266.598437)scale(0.1 -0.1)">
       <use xlink:href="#DejaVuSans-49"/>
       <use x="63.623047" xlink:href="#DejaVuSans-46"/>
       <use x="95.410156" xlink:href="#DejaVuSans-48"/>
      </g>
     </g>
    </g>
    <g id="text_6">
     <!-- $\theta_1$ ($\mu$) -->
     <g transform="translate(173.82 280.378125)scale(0.1 -0.1)">
      <defs>
       <path d="M 45.515625 34.671875 
L 14.453125 34.671875 
Q 12.359375 20.0625 14.5 13.875 
Q 17.1875 6.25 24.46875 6.25 
Q 31.78125 6.25 37.359375 13.921875 
Q 42.234375 20.65625 45.515625 34.671875 
z
M 47.015625 42.96875 
Q 48.34375 56.84375 46.625 61.71875 
Q 43.953125 69.4375 36.765625 69.4375 
Q 29.296875 69.4375 23.828125 61.8125 
Q 19.53125 55.671875 16.15625 42.96875 
z
M 38.1875 76.765625 
Q 49.90625 76.765625 54.59375 66.40625 
Q 59.28125 56.109375 55.71875 37.84375 
Q 52.203125 19.625 43.453125 9.28125 
Q 34.765625 -1.125 23.046875 -1.125 
Q 11.28125 -1.125 6.640625 9.28125 
Q 2 19.625 5.515625 37.84375 
Q 9.078125 56.109375 17.71875 66.40625 
Q 26.421875 76.765625 38.1875 76.765625 
z
" id="DejaVuSans-Oblique-952"/>
       <path id="DejaVuSans-32"/>
       <path d="M 31 75.875 
Q 24.46875 64.65625 21.28125 53.65625 
Q 18.109375 42.671875 18.109375 31.390625 
Q 18.109375 20.125 21.3125 9.0625 
Q 24.515625 -2 31 -13.1875 
L 23.1875 -13.1875 
Q 15.875 -1.703125 12.234375 9.375 
Q 8.59375 20.453125 8.59375 31.390625 
Q 8.59375 42.28125 12.203125 53.3125 
Q 15.828125 64.359375 23.1875 75.875 
z
" id="DejaVuSans-40"/>
       <path d="M -1.3125 -20.796875 
L 13.375 54.6875 
L 22.40625 54.6875 
L 15.765625 20.65625 
Q 15.578125 19.625 15.421875 18.359375 
Q 15.28125 17.09375 15.28125 15.828125 
Q 15.28125 11.28125 18.140625 8.828125 
Q 21 6.390625 26.3125 6.390625 
Q 33.546875 6.390625 37.984375 10.484375 
Q 42.4375 14.59375 44 22.796875 
L 50.203125 54.6875 
L 59.1875 54.6875 
L 51.03125 12.640625 
Q 50.828125 11.71875 50.75 11.03125 
Q 50.6875 10.359375 50.6875 9.8125 
Q 50.6875 8.296875 51.296875 7.59375 
Q 51.90625 6.890625 53.21875 6.890625 
Q 53.71875 6.890625 54.5625 7.125 
Q 55.421875 7.375 56.984375 8.015625 
L 55.609375 0.78125 
Q 53.46875 -0.296875 51.515625 -0.859375 
Q 49.5625 -1.421875 47.703125 -1.421875 
Q 44.484375 -1.421875 42.65625 0.625 
Q 40.828125 2.6875 40.828125 6.296875 
Q 38.09375 2.390625 34.296875 0.484375 
Q 30.515625 -1.421875 25.390625 -1.421875 
Q 20.84375 -1.421875 17.453125 0.671875 
Q 14.0625 2.78125 12.984375 6.203125 
L 7.71875 -20.796875 
z
" id="DejaVuSans-Oblique-956"/>
       <path d="M 8.015625 75.875 
L 15.828125 75.875 
Q 23.140625 64.359375 26.78125 53.3125 
Q 30.421875 42.28125 30.421875 31.390625 
Q 30.421875 20.453125 26.78125 9.375 
Q 23.140625 -1.703125 15.828125 -13.1875 
L 8.015625 -13.1875 
Q 14.5 -2 17.703125 9.0625 
Q 20.90625 20.125 20.90625 31.390625 
Q 20.90625 42.671875 17.703125 53.65625 
Q 14.5 64.65625 8.015625 75.875 
z
" id="DejaVuSans-41"/>
      </defs>
      <use transform="translate(0 0.234375)" xlink:href="#DejaVuSans-Oblique-952"/>
      <use transform="translate(61.181641 -16.171875)scale(0.7)" xlink:href="#DejaVuSans-49"/>
      <use transform="translate(108.452148 0.234375)" xlink:href="#DejaVuSans-32"/>
      <use transform="translate(140.239258 0.234375)" xlink:href="#DejaVuSans-40"/>
      <use transform="translate(179.25293 0.234375)" xlink:href="#DejaVuSans-Oblique-956"/>
      <use transform="translate(242.875977 0.234375)" xlink:href="#DejaVuSans-41"/>
     </g>
    </g>
   </g>
   <g id="matplotlib.axis_2">
    <g id="ytick_1">
     <g id="line2d_6">
      <defs>
       <path d="M 0 0 
L -3.5 0 
" id="m68f68f110d" style="stroke:#000000;stroke-width:0.8;"/>
      </defs>
      <g>
       <use style="stroke:#000000;stroke-width:0.8;" x="54" xlink:href="#m68f68f110d" y="241.128"/>
      </g>
     </g>
     <g id="text_7">
      <!-- 0.1 -->
      <g transform="translate(31.096875 244.927219)scale(0.1 -0.1)">
       <use xlink:href="#DejaVuSans-48"/>
       <use x="63.623047" xlink:href="#DejaVuSans-46"/>
       <use x="95.410156" xlink:href="#DejaVuSans-49"/>
      </g>
     </g>
    </g>
    <g id="ytick_2">
     <g id="line2d_7">
      <g>
       <use style="stroke:#000000;stroke-width:0.8;" x="54" xlink:href="#m68f68f110d" y="219.384"/>
      </g>
     </g>
     <g id="text_8">
      <!-- 0.2 -->
      <g transform="translate(31.096875 223.183219)scale(0.1 -0.1)">
       <defs>
        <path d="M 19.1875 8.296875 
L 53.609375 8.296875 
L 53.609375 0 
L 7.328125 0 
L 7.328125 8.296875 
Q 12.9375 14.109375 22.625 23.890625 
Q 32.328125 33.6875 34.8125 36.53125 
Q 39.546875 41.84375 41.421875 45.53125 
Q 43.3125 49.21875 43.3125 52.78125 
Q 43.3125 58.59375 39.234375 62.25 
Q 35.15625 65.921875 28.609375 65.921875 
Q 23.96875 65.921875 18.8125 64.3125 
Q 13.671875 62.703125 7.8125 59.421875 
L 7.8125 69.390625 
Q 13.765625 71.78125 18.9375 73 
Q 24.125 74.21875 28.421875 74.21875 
Q 39.75 74.21875 46.484375 68.546875 
Q 53.21875 62.890625 53.21875 53.421875 
Q 53.21875 48.921875 51.53125 44.890625 
Q 49.859375 40.875 45.40625 35.40625 
Q 44.1875 33.984375 37.640625 27.21875 
Q 31.109375 20.453125 19.1875 8.296875 
z
" id="DejaVuSans-50"/>
       </defs>
       <use xlink:href="#DejaVuSans-48"/>
       <use x="63.623047" xlink:href="#DejaVuSans-46"/>
       <use x="95.410156" xlink:href="#DejaVuSans-50"/>
      </g>
     </g>
    </g>
    <g id="ytick_3">
     <g id="line2d_8">
      <g>
       <use style="stroke:#000000;stroke-width:0.8;" x="54" xlink:href="#m68f68f110d" y="197.64"/>
      </g>
     </g>
     <g id="text_9">
      <!-- 0.3 -->
      <g transform="translate(31.096875 201.439219)scale(0.1 -0.1)">
       <defs>
        <path d="M 40.578125 39.3125 
Q 47.65625 37.796875 51.625 33 
Q 55.609375 28.21875 55.609375 21.1875 
Q 55.609375 10.40625 48.1875 4.484375 
Q 40.765625 -1.421875 27.09375 -1.421875 
Q 22.515625 -1.421875 17.65625 -0.515625 
Q 12.796875 0.390625 7.625 2.203125 
L 7.625 11.71875 
Q 11.71875 9.328125 16.59375 8.109375 
Q 21.484375 6.890625 26.8125 6.890625 
Q 36.078125 6.890625 40.9375 10.546875 
Q 45.796875 14.203125 45.796875 21.1875 
Q 45.796875 27.640625 41.28125 31.265625 
Q 36.765625 34.90625 28.71875 34.90625 
L 20.21875 34.90625 
L 20.21875 43.015625 
L 29.109375 43.015625 
Q 36.375 43.015625 40.234375 45.921875 
Q 44.09375 48.828125 44.09375 54.296875 
Q 44.09375 59.90625 40.109375 62.90625 
Q 36.140625 65.921875 28.71875 65.921875 
Q 24.65625 65.921875 20.015625 65.03125 
Q 15.375 64.15625 9.8125 62.3125 
L 9.8125 71.09375 
Q 15.4375 72.65625 20.34375 73.4375 
Q 25.25 74.21875 29.59375 74.21875 
Q 40.828125 74.21875 47.359375 69.109375 
Q 53.90625 64.015625 53.90625 55.328125 
Q 53.90625 49.265625 50.4375 45.09375 
Q 46.96875 40.921875 40.578125 39.3125 
z
" id="DejaVuSans-51"/>
       </defs>
       <use xlink:href="#DejaVuSans-48"/>
       <use x="63.623047" xlink:href="#DejaVuSans-46"/>
       <use x="95.410156" xlink:href="#DejaVuSans-51"/>
      </g>
     </g>
    </g>
    <g id="ytick_4">
     <g id="line2d_9">
      <g>
       <use style="stroke:#000000;stroke-width:0.8;" x="54" xlink:href="#m68f68f110d" y="175.896"/>
      </g>
     </g>
     <g id="text_10">
      <!-- 0.4 -->
      <g transform="translate(31.096875 179.695219)scale(0.1 -0.1)">
       <defs>
        <path d="M 37.796875 64.3125 
L 12.890625 25.390625 
L 37.796875 25.390625 
z
M 35.203125 72.90625 
L 47.609375 72.90625 
L 47.609375 25.390625 
L 58.015625 25.390625 
L 58.015625 17.1875 
L 47.609375 17.1875 
L 47.609375 0 
L 37.796875 0 
L 37.796875 17.1875 
L 4.890625 17.1875 
L 4.890625 26.703125 
z
" id="DejaVuSans-52"/>
       </defs>
       <use xlink:href="#DejaVuSans-48"/>
       <use x="63.623047" xlink:href="#DejaVuSans-46"/>
       <use x="95.410156" xlink:href="#DejaVuSans-52"/>
      </g>
     </g>
    </g>
    <g id="ytick_5">
     <g id="line2d_10">
      <g>
       <use style="stroke:#000000;stroke-width:0.8;" x="54" xlink:href="#m68f68f110d" y="154.152"/>
      </g>
     </g>
     <g id="text_11">
      <!-- 0.5 -->
      <g transform="translate(31.096875 157.951219)scale(0.1 -0.1)">
       <use xlink:href="#DejaVuSans-48"/>
       <use x="63.623047" xlink:href="#DejaVuSans-46"/>
       <use x="95.410156" xlink:href="#DejaVuSans-53"/>
      </g>
     </g>
    </g>
    <g id="ytick_6">
     <g id="line2d_11">
      <g>
       <use style="stroke:#000000;stroke-width:0.8;" x="54" xlink:href="#m68f68f110d" y="132.408"/>
      </g>
     </g>
     <g id="text_12">
      <!-- 0.6 -->
      <g transform="translate(31.096875 136.207219)scale(0.1 -0.1)">
       <defs>
        <path d="M 33.015625 40.375 
Q 26.375 40.375 22.484375 35.828125 
Q 18.609375 31.296875 18.609375 23.390625 
Q 18.609375 15.53125 22.484375 10.953125 
Q 26.375 6.390625 33.015625 6.390625 
Q 39.65625 6.390625 43.53125 10.953125 
Q 47.40625 15.53125 47.40625 23.390625 
Q 47.40625 31.296875 43.53125 35.828125 
Q 39.65625 40.375 33.015625 40.375 
z
M 52.59375 71.296875 
L 52.59375 62.3125 
Q 48.875 64.0625 45.09375 64.984375 
Q 41.3125 65.921875 37.59375 65.921875 
Q 27.828125 65.921875 22.671875 59.328125 
Q 17.53125 52.734375 16.796875 39.40625 
Q 19.671875 43.65625 24.015625 45.921875 
Q 28.375 48.1875 33.59375 48.1875 
Q 44.578125 48.1875 50.953125 41.515625 
Q 57.328125 34.859375 57.328125 23.390625 
Q 57.328125 12.15625 50.6875 5.359375 
Q 44.046875 -1.421875 33.015625 -1.421875 
Q 20.359375 -1.421875 13.671875 8.265625 
Q 6.984375 17.96875 6.984375 36.375 
Q 6.984375 53.65625 15.1875 63.9375 
Q 23.390625 74.21875 37.203125 74.21875 
Q 40.921875 74.21875 44.703125 73.484375 
Q 48.484375 72.75 52.59375 71.296875 
z
" id="DejaVuSans-54"/>
       </defs>
       <use xlink:href="#DejaVuSans-48"/>
       <use x="63.623047" xlink:href="#DejaVuSans-46"/>
       <use x="95.410156" xlink:href="#DejaVuSans-54"/>
      </g>
     </g>
    </g>
    <g id="ytick_7">
     <g id="line2d_12">
      <g>
       <use style="stroke:#000000;stroke-width:0.8;" x="54" xlink:href="#m68f68f110d" y="110.664"/>
      </g>
     </g>
     <g id="text_13">
      <!-- 0.7 -->
      <g transform="translate(31.096875 114.463219)scale(0.1 -0.1)">
       <defs>
        <path d="M 8.203125 72.90625 
L 55.078125 72.90625 
L 55.078125 68.703125 
L 28.609375 0 
L 18.3125 0 
L 43.21875 64.59375 
L 8.203125 64.59375 
z
" id="DejaVuSans-55"/>
       </defs>
       <use xlink:href="#DejaVuSans-48"/>
       <use x="63.623047" xlink:href="#DejaVuSans-46"/>
       <use x="95.410156" xlink:href="#DejaVuSans-55"/>
      </g>
     </g>
    </g>
    <g id="ytick_8">
     <g id="line2d_13">
      <g>
       <use style="stroke:#000000;stroke-width:0.8;" x="54" xlink:href="#m68f68f110d" y="88.92"/>
      </g>
     </g>
     <g id="text_14">
      <!-- 0.8 -->
      <g transform="translate(31.096875 92.719219)scale(0.1 -0.1)">
       <defs>
        <path d="M 31.78125 34.625 
Q 24.75 34.625 20.71875 30.859375 
Q 16.703125 27.09375 16.703125 20.515625 
Q 16.703125 13.921875 20.71875 10.15625 
Q 24.75 6.390625 31.78125 6.390625 
Q 38.8125 6.390625 42.859375 10.171875 
Q 46.921875 13.96875 46.921875 20.515625 
Q 46.921875 27.09375 42.890625 30.859375 
Q 38.875 34.625 31.78125 34.625 
z
M 21.921875 38.8125 
Q 15.578125 40.375 12.03125 44.71875 
Q 8.5 49.078125 8.5 55.328125 
Q 8.5 64.0625 14.71875 69.140625 
Q 20.953125 74.21875 31.78125 74.21875 
Q 42.671875 74.21875 48.875 69.140625 
Q 55.078125 64.0625 55.078125 55.328125 
Q 55.078125 49.078125 51.53125 44.71875 
Q 48 40.375 41.703125 38.8125 
Q 48.828125 37.15625 52.796875 32.3125 
Q 56.78125 27.484375 56.78125 20.515625 
Q 56.78125 9.90625 50.3125 4.234375 
Q 43.84375 -1.421875 31.78125 -1.421875 
Q 19.734375 -1.421875 13.25 4.234375 
Q 6.78125 9.90625 6.78125 20.515625 
Q 6.78125 27.484375 10.78125 32.3125 
Q 14.796875 37.15625 21.921875 38.8125 
z
M 18.3125 54.390625 
Q 18.3125 48.734375 21.84375 45.5625 
Q 25.390625 42.390625 31.78125 42.390625 
Q 38.140625 42.390625 41.71875 45.5625 
Q 45.3125 48.734375 45.3125 54.390625 
Q 45.3125 60.0625 41.71875 63.234375 
Q 38.140625 66.40625 31.78125 66.40625 
Q 25.390625 66.40625 21.84375 63.234375 
Q 18.3125 60.0625 18.3125 54.390625 
z
" id="DejaVuSans-56"/>
       </defs>
       <use xlink:href="#DejaVuSans-48"/>
       <use x="63.623047" xlink:href="#DejaVuSans-46"/>
       <use x="95.410156" xlink:href="#DejaVuSans-56"/>
      </g>
     </g>
    </g>
    <g id="ytick_9">
     <g id="line2d_14">
      <g>
       <use style="stroke:#000000;stroke-width:0.8;" x="54" xlink:href="#m68f68f110d" y="67.176"/>
      </g>
     </g>
     <g id="text_15">
      <!-- 0.9 -->
      <g transform="translate(31.096875 70.975219)scale(0.1 -0.1)">
       <defs>
        <path d="M 10.984375 1.515625 
L 10.984375 10.5 
Q 14.703125 8.734375 18.5 7.8125 
Q 22.3125 6.890625 25.984375 6.890625 
Q 35.75 6.890625 40.890625 13.453125 
Q 46.046875 20.015625 46.78125 33.40625 
Q 43.953125 29.203125 39.59375 26.953125 
Q 35.25 24.703125 29.984375 24.703125 
Q 19.046875 24.703125 12.671875 31.3125 
Q 6.296875 37.9375 6.296875 49.421875 
Q 6.296875 60.640625 12.9375 67.421875 
Q 19.578125 74.21875 30.609375 74.21875 
Q 43.265625 74.21875 49.921875 64.515625 
Q 56.59375 54.828125 56.59375 36.375 
Q 56.59375 19.140625 48.40625 8.859375 
Q 40.234375 -1.421875 26.421875 -1.421875 
Q 22.703125 -1.421875 18.890625 -0.6875 
Q 15.09375 0.046875 10.984375 1.515625 
z
M 30.609375 32.421875 
Q 37.25 32.421875 41.125 36.953125 
Q 45.015625 41.5 45.015625 49.421875 
Q 45.015625 57.28125 41.125 61.84375 
Q 37.25 66.40625 30.609375 66.40625 
Q 23.96875 66.40625 20.09375 61.84375 
Q 16.21875 57.28125 16.21875 49.421875 
Q 16.21875 41.5 20.09375 36.953125 
Q 23.96875 32.421875 30.609375 32.421875 
z
" id="DejaVuSans-57"/>
       </defs>
       <use xlink:href="#DejaVuSans-48"/>
       <use x="63.623047" xlink:href="#DejaVuSans-46"/>
       <use x="95.410156" xlink:href="#DejaVuSans-57"/>
      </g>
     </g>
    </g>
    <g id="ytick_10">
     <g id="line2d_15">
      <g>
       <use style="stroke:#000000;stroke-width:0.8;" x="54" xlink:href="#m68f68f110d" y="45.432"/>
      </g>
     </g>
     <g id="text_16">
      <!-- 1.0 -->
      <g transform="translate(31.096875 49.231219)scale(0.1 -0.1)">
       <use xlink:href="#DejaVuSans-49"/>
       <use x="63.623047" xlink:href="#DejaVuSans-46"/>
       <use x="95.410156" xlink:href="#DejaVuSans-48"/>
      </g>
     </g>
    </g>
    <g id="text_17">
     <!-- $\theta_2$ ($\sigma$) -->
     <g transform="translate(25.017187 157.38)rotate(-90)scale(0.1 -0.1)">
      <defs>
       <path d="M 34.671875 47.5625 
Q 27.25 47.5625 22.21875 42.1875 
Q 16.890625 36.578125 15.140625 27.296875 
Q 13.1875 17.484375 16.3125 11.8125 
Q 19.390625 6.203125 26.65625 6.203125 
Q 33.84375 6.203125 39.109375 11.859375 
Q 44.4375 17.53125 46.34375 27.296875 
Q 48.046875 36.234375 45.015625 42.1875 
Q 42.1875 47.5625 34.671875 47.5625 
z
M 36.078125 54.734375 
L 65.921875 54.6875 
L 64.15625 45.703125 
L 54.109375 45.703125 
Q 57.90625 38.09375 55.859375 27.296875 
Q 53.21875 13.875 45.0625 6.25 
Q 36.859375 -1.421875 25.140625 -1.421875 
Q 13.375 -1.421875 8.203125 6.25 
Q 3.03125 13.875 5.671875 27.296875 
Q 8.25 40.765625 16.40625 48.390625 
Q 23.1875 54.734375 36.078125 54.734375 
z
" id="DejaVuSans-Oblique-963"/>
      </defs>
      <use transform="translate(0 0.234375)" xlink:href="#DejaVuSans-Oblique-952"/>
      <use transform="translate(61.181641 -16.171875)scale(0.7)" xlink:href="#DejaVuSans-50"/>
      <use transform="translate(108.452148 0.234375)" xlink:href="#DejaVuSans-32"/>
      <use transform="translate(140.239258 0.234375)" xlink:href="#DejaVuSans-40"/>
      <use transform="translate(179.25293 0.234375)" xlink:href="#DejaVuSans-Oblique-963"/>
      <use transform="translate(242.631836 0.234375)" xlink:href="#DejaVuSans-41"/>
     </g>
    </g>
   </g>
   <g id="patch_3">
    <path d="M 54 252 
L 54 34.56 
" style="fill:none;stroke:#000000;stroke-linecap:square;stroke-linejoin:miter;stroke-width:0.8;"/>
   </g>
   <g id="patch_4">
    <path d="M 321.84 252 
L 321.84 34.56 
" style="fill:none;stroke:#000000;stroke-linecap:square;stroke-linejoin:miter;stroke-width:0.8;"/>
   </g>
   <g id="patch_5">
    <path d="M 54 252 
L 321.84 252 
" style="fill:none;stroke:#000000;stroke-linecap:square;stroke-linejoin:miter;stroke-width:0.8;"/>
   </g>
   <g id="patch_6">
    <path d="M 54 34.56 
L 321.84 34.56 
" style="fill:none;stroke:#000000;stroke-linecap:square;stroke-linejoin:miter;stroke-width:0.8;"/>
   </g>
   <g id="text_18">
    <!-- Simulation -->
    <g transform="translate(155.960625 28.56)scale(0.12 -0.12)">
     <defs>
      <path d="M 53.515625 70.515625 
L 53.515625 60.890625 
Q 47.90625 63.578125 42.921875 64.890625 
Q 37.9375 66.21875 33.296875 66.21875 
Q 25.25 66.21875 20.875 63.09375 
Q 16.5 59.96875 16.5 54.203125 
Q 16.5 49.359375 19.40625 46.890625 
Q 22.3125 44.4375 30.421875 42.921875 
L 36.375 41.703125 
Q 47.40625 39.59375 52.65625 34.296875 
Q 57.90625 29 57.90625 20.125 
Q 57.90625 9.515625 50.796875 4.046875 
Q 43.703125 -1.421875 29.984375 -1.421875 
Q 24.8125 -1.421875 18.96875 -0.25 
Q 13.140625 0.921875 6.890625 3.21875 
L 6.890625 13.375 
Q 12.890625 10.015625 18.65625 8.296875 
Q 24.421875 6.59375 29.984375 6.59375 
Q 38.421875 6.59375 43.015625 9.90625 
Q 47.609375 13.234375 47.609375 19.390625 
Q 47.609375 24.75 44.3125 27.78125 
Q 41.015625 30.8125 33.5 32.328125 
L 27.484375 33.5 
Q 16.453125 35.6875 11.515625 40.375 
Q 6.59375 45.0625 6.59375 53.421875 
Q 6.59375 63.09375 13.40625 68.65625 
Q 20.21875 74.21875 32.171875 74.21875 
Q 37.3125 74.21875 42.625 73.28125 
Q 47.953125 72.359375 53.515625 70.515625 
z
" id="DejaVuSans-83"/>
      <path d="M 9.421875 54.6875 
L 18.40625 54.6875 
L 18.40625 0 
L 9.421875 0 
z
M 9.421875 75.984375 
L 18.40625 75.984375 
L 18.40625 64.59375 
L 9.421875 64.59375 
z
" id="DejaVuSans-105"/>
      <path d="M 52 44.1875 
Q 55.375 50.25 60.0625 53.125 
Q 64.75 56 71.09375 56 
Q 79.640625 56 84.28125 50.015625 
Q 88.921875 44.046875 88.921875 33.015625 
L 88.921875 0 
L 79.890625 0 
L 79.890625 32.71875 
Q 79.890625 40.578125 77.09375 44.375 
Q 74.3125 48.1875 68.609375 48.1875 
Q 61.625 48.1875 57.5625 43.546875 
Q 53.515625 38.921875 53.515625 30.90625 
L 53.515625 0 
L 44.484375 0 
L 44.484375 32.71875 
Q 44.484375 40.625 41.703125 44.40625 
Q 38.921875 48.1875 33.109375 48.1875 
Q 26.21875 48.1875 22.15625 43.53125 
Q 18.109375 38.875 18.109375 30.90625 
L 18.109375 0 
L 9.078125 0 
L 9.078125 54.6875 
L 18.109375 54.6875 
L 18.109375 46.1875 
Q 21.1875 51.21875 25.484375 53.609375 
Q 29.78125 56 35.6875 56 
Q 41.65625 56 45.828125 52.96875 
Q 50 49.953125 52 44.1875 
z
" id="DejaVuSans-109"/>
      <path d="M 8.5 21.578125 
L 8.5 54.6875 
L 17.484375 54.6875 
L 17.484375 21.921875 
Q 17.484375 14.15625 20.5 10.265625 
Q 23.53125 6.390625 29.59375 6.390625 
Q 36.859375 6.390625 41.078125 11.03125 
Q 45.3125 15.671875 45.3125 23.6875 
L 45.3125 54.6875 
L 54.296875 54.6875 
L 54.296875 0 
L 45.3125 0 
L 45.3125 8.40625 
Q 42.046875 3.421875 37.71875 1 
Q 33.40625 -1.421875 27.6875 -1.421875 
Q 18.265625 -1.421875 13.375 4.4375 
Q 8.5 10.296875 8.5 21.578125 
z
M 31.109375 56 
z
" id="DejaVuSans-117"/>
      <path d="M 9.421875 75.984375 
L 18.40625 75.984375 
L 18.40625 0 
L 9.421875 0 
z
" id="DejaVuSans-108"/>
      <path d="M 34.28125 27.484375 
Q 23.390625 27.484375 19.1875 25 
Q 14.984375 22.515625 14.984375 16.5 
Q 14.984375 11.71875 18.140625 8.90625 
Q 21.296875 6.109375 26.703125 6.109375 
Q 34.1875 6.109375 38.703125 11.40625 
Q 43.21875 16.703125 43.21875 25.484375 
L 43.21875 27.484375 
z
M 52.203125 31.203125 
L 52.203125 0 
L 43.21875 0 
L 43.21875 8.296875 
Q 40.140625 3.328125 35.546875 0.953125 
Q 30.953125 -1.421875 24.3125 -1.421875 
Q 15.921875 -1.421875 10.953125 3.296875 
Q 6 8.015625 6 15.921875 
Q 6 25.140625 12.171875 29.828125 
Q 18.359375 34.515625 30.609375 34.515625 
L 43.21875 34.515625 
L 43.21875 35.40625 
Q 43.21875 41.609375 39.140625 45 
Q 35.0625 48.390625 27.6875 48.390625 
Q 23 48.390625 18.546875 47.265625 
Q 14.109375 46.140625 10.015625 43.890625 
L 10.015625 52.203125 
Q 14.9375 54.109375 19.578125 55.046875 
Q 24.21875 56 28.609375 56 
Q 40.484375 56 46.34375 49.84375 
Q 52.203125 43.703125 52.203125 31.203125 
z
" id="DejaVuSans-97"/>
      <path d="M 18.3125 70.21875 
L 18.3125 54.6875 
L 36.8125 54.6875 
L 36.8125 47.703125 
L 18.3125 47.703125 
L 18.3125 18.015625 
Q 18.3125 11.328125 20.140625 9.421875 
Q 21.96875 7.515625 27.59375 7.515625 
L 36.8125 7.515625 
L 36.8125 0 
L 27.59375 0 
Q 17.1875 0 13.234375 3.875 
Q 9.28125 7.765625 9.28125 18.015625 
L 9.28125 47.703125 
L 2.6875 47.703125 
L 2.6875 54.6875 
L 9.28125 54.6875 
L 9.28125 70.21875 
z
" id="DejaVuSans-116"/>
      <path d="M 30.609375 48.390625 
Q 23.390625 48.390625 19.1875 42.75 
Q 14.984375 37.109375 14.984375 27.296875 
Q 14.984375 17.484375 19.15625 11.84375 
Q 23.34375 6.203125 30.609375 6.203125 
Q 37.796875 6.203125 41.984375 11.859375 
Q 46.1875 17.53125 46.1875 27.296875 
Q 46.1875 37.015625 41.984375 42.703125 
Q 37.796875 48.390625 30.609375 48.390625 
z
M 30.609375 56 
Q 42.328125 56 49.015625 48.375 
Q 55.71875 40.765625 55.71875 27.296875 
Q 55.71875 13.875 49.015625 6.21875 
Q 42.328125 -1.421875 30.609375 -1.421875 
Q 18.84375 -1.421875 12.171875 6.21875 
Q 5.515625 13.875 5.515625 27.296875 
Q 5.515625 40.765625 12.171875 48.375 
Q 18.84375 56 30.609375 56 
z
" id="DejaVuSans-111"/>
      <path d="M 54.890625 33.015625 
L 54.890625 0 
L 45.90625 0 
L 45.90625 32.71875 
Q 45.90625 40.484375 42.875 44.328125 
Q 39.84375 48.1875 33.796875 48.1875 
Q 26.515625 48.1875 22.3125 43.546875 
Q 18.109375 38.921875 18.109375 30.90625 
L 18.109375 0 
L 9.078125 0 
L 9.078125 54.6875 
L 18.109375 54.6875 
L 18.109375 46.1875 
Q 21.34375 51.125 25.703125 53.5625 
Q 30.078125 56 35.796875 56 
Q 45.21875 56 50.046875 50.171875 
Q 54.890625 44.34375 54.890625 33.015625 
z
" id="DejaVuSans-110"/>
     </defs>
     <use xlink:href="#DejaVuSans-83"/>
     <use x="63.476562" xlink:href="#DejaVuSans-105"/>
     <use x="91.259766" xlink:href="#DejaVuSans-109"/>
     <use x="188.671875" xlink:href="#DejaVuSans-117"/>
     <use x="252.050781" xlink:href="#DejaVuSans-108"/>
     <use x="279.833984" xlink:href="#DejaVuSans-97"/>
     <use x="341.113281" xlink:href="#DejaVuSans-116"/>
     <use x="380.322266" xlink:href="#DejaVuSans-105"/>
     <use x="408.105469" xlink:href="#DejaVuSans-111"/>
     <use x="469.287109" xlink:href="#DejaVuSans-110"/>
    </g>
   </g>
  </g>
  <g id="axes_2">
   <g id="patch_7">
    <path clip-path="url(#pfb6745717b)" d="M 338.58 252 
L 338.58 241.128 
L 338.58 45.432 
L 338.58 34.56 
L 349.452 34.56 
L 349.452 45.432 
L 349.452 241.128 
L 349.452 252 
z
" style="fill:#ffffff;stroke:#ffffff;stroke-linejoin:miter;stroke-width:0.01;"/>
   </g>
   <g id="QuadMesh_1">
    <path clip-path="url(#pfb6745717b)" d="M 338.58 252 
L 349.452 252 
L 349.452 241.128 
L 338.58 241.128 
L 338.58 252 
" style="fill:#440154;"/>
    <path clip-path="url(#pfb6745717b)" d="M 338.58 241.128 
L 349.452 241.128 
L 349.452 230.256 
L 338.58 230.256 
L 338.58 241.128 
" style="fill:#481467;"/>
    <path clip-path="url(#pfb6745717b)" d="M 338.58 230.256 
L 349.452 230.256 
L 349.452 219.384 
L 338.58 219.384 
L 338.58 230.256 
" style="fill:#482576;"/>
    <path clip-path="url(#pfb6745717b)" d="M 338.58 219.384 
L 349.452 219.384 
L 349.452 208.512 
L 338.58 208.512 
L 338.58 219.384 
" style="fill:#453781;"/>
    <path clip-path="url(#pfb6745717b)" d="M 338.58 208.512 
L 349.452 208.512 
L 349.452 197.64 
L 338.58 197.64 
L 338.58 208.512 
" style="fill:#404688;"/>
    <path clip-path="url(#pfb6745717b)" d="M 338.58 197.64 
L 349.452 197.64 
L 349.452 186.768 
L 338.58 186.768 
L 338.58 197.64 
" style="fill:#39558c;"/>
    <path clip-path="url(#pfb6745717b)" d="M 338.58 186.768 
L 349.452 186.768 
L 349.452 175.896 
L 338.58 175.896 
L 338.58 186.768 
" style="fill:#33638d;"/>
    <path clip-path="url(#pfb6745717b)" d="M 338.58 175.896 
L 349.452 175.896 
L 349.452 165.024 
L 338.58 165.024 
L 338.58 175.896 
" style="fill:#2d718e;"/>
    <path clip-path="url(#pfb6745717b)" d="M 338.58 165.024 
L 349.452 165.024 
L 349.452 154.152 
L 338.58 154.152 
L 338.58 165.024 
" style="fill:#287d8e;"/>
    <path clip-path="url(#pfb6745717b)" d="M 338.58 154.152 
L 349.452 154.152 
L 349.452 143.28 
L 338.58 143.28 
L 338.58 154.152 
" style="fill:#238a8d;"/>
    <path clip-path="url(#pfb6745717b)" d="M 338.58 143.28 
L 349.452 143.28 
L 349.452 132.408 
L 338.58 132.408 
L 338.58 143.28 
" style="fill:#1f968b;"/>
    <path clip-path="url(#pfb6745717b)" d="M 338.58 132.408 
L 349.452 132.408 
L 349.452 121.536 
L 338.58 121.536 
L 338.58 132.408 
" style="fill:#20a386;"/>
    <path clip-path="url(#pfb6745717b)" d="M 338.58 121.536 
L 349.452 121.536 
L 349.452 110.664 
L 338.58 110.664 
L 338.58 121.536 
" style="fill:#29af7f;"/>
    <path clip-path="url(#pfb6745717b)" d="M 338.58 110.664 
L 349.452 110.664 
L 349.452 99.792 
L 338.58 99.792 
L 338.58 110.664 
" style="fill:#3dbc74;"/>
    <path clip-path="url(#pfb6745717b)" d="M 338.58 99.792 
L 349.452 99.792 
L 349.452 88.92 
L 338.58 88.92 
L 338.58 99.792 
" style="fill:#56c667;"/>
    <path clip-path="url(#pfb6745717b)" d="M 338.58 88.92 
L 349.452 88.92 
L 349.452 78.048 
L 338.58 78.048 
L 338.58 88.92 
" style="fill:#75d054;"/>
    <path clip-path="url(#pfb6745717b)" d="M 338.58 78.048 
L 349.452 78.048 
L 349.452 67.176 
L 338.58 67.176 
L 338.58 78.048 
" style="fill:#95d840;"/>
    <path clip-path="url(#pfb6745717b)" d="M 338.58 67.176 
L 349.452 67.176 
L 349.452 56.304 
L 338.58 56.304 
L 338.58 67.176 
" style="fill:#bade28;"/>
    <path clip-path="url(#pfb6745717b)" d="M 338.58 56.304 
L 349.452 56.304 
L 349.452 45.432 
L 338.58 45.432 
L 338.58 56.304 
" style="fill:#dde318;"/>
    <path clip-path="url(#pfb6745717b)" d="M 338.58 45.432 
L 349.452 45.432 
L 349.452 34.56 
L 338.58 34.56 
L 338.58 45.432 
" style="fill:#fde725;"/>
   </g>
   <g id="matplotlib.axis_3"/>
   <g id="matplotlib.axis_4">
    <g id="ytick_11">
     <g id="line2d_16">
      <defs>
       <path d="M 0 0 
L 3.5 0 
" id="m77cbe60ce8" style="stroke:#000000;stroke-width:0.8;"/>
      </defs>
      <g>
       <use style="stroke:#000000;stroke-width:0.8;" x="349.452" xlink:href="#m77cbe60ce8" y="252"/>
      </g>
     </g>
     <g id="text_19">
      <!-- 0.000 -->
      <g transform="translate(356.452 255.799219)scale(0.1 -0.1)">
       <use xlink:href="#DejaVuSans-48"/>
       <use x="63.623047" xlink:href="#DejaVuSans-46"/>
       <use x="95.410156" xlink:href="#DejaVuSans-48"/>
       <use x="159.033203" xlink:href="#DejaVuSans-48"/>
       <use x="222.65625" xlink:href="#DejaVuSans-48"/>
      </g>
     </g>
    </g>
    <g id="ytick_12">
     <g id="line2d_17">
      <g>
       <use style="stroke:#000000;stroke-width:0.8;" x="349.452" xlink:href="#m77cbe60ce8" y="225.811746"/>
      </g>
     </g>
     <g id="text_20">
      <!-- 0.005 -->
      <g transform="translate(356.452 229.610965)scale(0.1 -0.1)">
       <use xlink:href="#DejaVuSans-48"/>
       <use x="63.623047" xlink:href="#DejaVuSans-46"/>
       <use x="95.410156" xlink:href="#DejaVuSans-48"/>
       <use x="159.033203" xlink:href="#DejaVuSans-48"/>
       <use x="222.65625" xlink:href="#DejaVuSans-53"/>
      </g>
     </g>
    </g>
    <g id="ytick_13">
     <g id="line2d_18">
      <g>
       <use style="stroke:#000000;stroke-width:0.8;" x="349.452" xlink:href="#m77cbe60ce8" y="199.623493"/>
      </g>
     </g>
     <g id="text_21">
      <!-- 0.010 -->
      <g transform="translate(356.452 203.422711)scale(0.1 -0.1)">
       <use xlink:href="#DejaVuSans-48"/>
       <use x="63.623047" xlink:href="#DejaVuSans-46"/>
       <use x="95.410156" xlink:href="#DejaVuSans-48"/>
       <use x="159.033203" xlink:href="#DejaVuSans-49"/>
       <use x="222.65625" xlink:href="#DejaVuSans-48"/>
      </g>
     </g>
    </g>
    <g id="ytick_14">
     <g id="line2d_19">
      <g>
       <use style="stroke:#000000;stroke-width:0.8;" x="349.452" xlink:href="#m77cbe60ce8" y="173.435239"/>
      </g>
     </g>
     <g id="text_22">
      <!-- 0.015 -->
      <g transform="translate(356.452 177.234458)scale(0.1 -0.1)">
       <use xlink:href="#DejaVuSans-48"/>
       <use x="63.623047" xlink:href="#DejaVuSans-46"/>
       <use x="95.410156" xlink:href="#DejaVuSans-48"/>
       <use x="159.033203" xlink:href="#DejaVuSans-49"/>
       <use x="222.65625" xlink:href="#DejaVuSans-53"/>
      </g>
     </g>
    </g>
    <g id="ytick_15">
     <g id="line2d_20">
      <g>
       <use style="stroke:#000000;stroke-width:0.8;" x="349.452" xlink:href="#m77cbe60ce8" y="147.246985"/>
      </g>
     </g>
     <g id="text_23">
      <!-- 0.020 -->
      <g transform="translate(356.452 151.046204)scale(0.1 -0.1)">
       <use xlink:href="#DejaVuSans-48"/>
       <use x="63.623047" xlink:href="#DejaVuSans-46"/>
       <use x="95.410156" xlink:href="#DejaVuSans-48"/>
       <use x="159.033203" xlink:href="#DejaVuSans-50"/>
       <use x="222.65625" xlink:href="#DejaVuSans-48"/>
      </g>
     </g>
    </g>
    <g id="ytick_16">
     <g id="line2d_21">
      <g>
       <use style="stroke:#000000;stroke-width:0.8;" x="349.452" xlink:href="#m77cbe60ce8" y="121.058731"/>
      </g>
     </g>
     <g id="text_24">
      <!-- 0.025 -->
      <g transform="translate(356.452 124.85795)scale(0.1 -0.1)">
       <use xlink:href="#DejaVuSans-48"/>
       <use x="63.623047" xlink:href="#DejaVuSans-46"/>
       <use x="95.410156" xlink:href="#DejaVuSans-48"/>
       <use x="159.033203" xlink:href="#DejaVuSans-50"/>
       <use x="222.65625" xlink:href="#DejaVuSans-53"/>
      </g>
     </g>
    </g>
    <g id="ytick_17">
     <g id="line2d_22">
      <g>
       <use style="stroke:#000000;stroke-width:0.8;" x="349.452" xlink:href="#m77cbe60ce8" y="94.870478"/>
      </g>
     </g>
     <g id="text_25">
      <!-- 0.030 -->
      <g transform="translate(356.452 98.669696)scale(0.1 -0.1)">
       <use xlink:href="#DejaVuSans-48"/>
       <use x="63.623047" xlink:href="#DejaVuSans-46"/>
       <use x="95.410156" xlink:href="#DejaVuSans-48"/>
       <use x="159.033203" xlink:href="#DejaVuSans-51"/>
       <use x="222.65625" xlink:href="#DejaVuSans-48"/>
      </g>
     </g>
    </g>
    <g id="ytick_18">
     <g id="line2d_23">
      <g>
       <use style="stroke:#000000;stroke-width:0.8;" x="349.452" xlink:href="#m77cbe60ce8" y="68.682224"/>
      </g>
     </g>
     <g id="text_26">
      <!-- 0.035 -->
      <g transform="translate(356.452 72.481443)scale(0.1 -0.1)">
       <use xlink:href="#DejaVuSans-48"/>
       <use x="63.623047" xlink:href="#DejaVuSans-46"/>
       <use x="95.410156" xlink:href="#DejaVuSans-48"/>
       <use x="159.033203" xlink:href="#DejaVuSans-51"/>
       <use x="222.65625" xlink:href="#DejaVuSans-53"/>
      </g>
     </g>
    </g>
    <g id="ytick_19">
     <g id="line2d_24">
      <g>
       <use style="stroke:#000000;stroke-width:0.8;" x="349.452" xlink:href="#m77cbe60ce8" y="42.49397"/>
      </g>
     </g>
     <g id="text_27">
      <!-- 0.040 -->
      <g transform="translate(356.452 46.293189)scale(0.1 -0.1)">
       <use xlink:href="#DejaVuSans-48"/>
       <use x="63.623047" xlink:href="#DejaVuSans-46"/>
       <use x="95.410156" xlink:href="#DejaVuSans-48"/>
       <use x="159.033203" xlink:href="#DejaVuSans-52"/>
       <use x="222.65625" xlink:href="#DejaVuSans-48"/>
      </g>
     </g>
    </g>
   </g>
   <g id="patch_8">
    <path d="M 338.58 252 
L 338.58 241.128 
L 338.58 45.432 
L 338.58 34.56 
L 349.452 34.56 
L 349.452 45.432 
L 349.452 241.128 
L 349.452 252 
z
" style="fill:none;stroke:#000000;stroke-linejoin:miter;stroke-width:0.8;"/>
   </g>
   <g id="text_28">
    <!-- $P([\theta_1,\theta_2]|\mathcal{D})$ -->
    <g transform="translate(308.076 28.56)scale(0.12 -0.12)">
     <defs>
      <path d="M 16.890625 72.90625 
L 39.703125 72.90625 
Q 49.65625 72.90625 54.875 68.265625 
Q 60.109375 63.625 60.109375 54.6875 
Q 60.109375 42.671875 52.390625 35.984375 
Q 44.671875 29.296875 30.71875 29.296875 
L 18.3125 29.296875 
L 12.59375 0 
L 2.6875 0 
z
M 25.203125 64.796875 
L 19.921875 37.40625 
L 32.328125 37.40625 
Q 40.71875 37.40625 45.203125 41.703125 
Q 49.703125 46 49.703125 54 
Q 49.703125 59.125 46.65625 61.953125 
Q 43.609375 64.796875 38.09375 64.796875 
z
" id="DejaVuSans-Oblique-80"/>
      <path d="M 8.59375 75.984375 
L 29.296875 75.984375 
L 29.296875 69 
L 17.578125 69 
L 17.578125 -6.203125 
L 29.296875 -6.203125 
L 29.296875 -13.1875 
L 8.59375 -13.1875 
z
" id="DejaVuSans-91"/>
      <path d="M 11.71875 12.40625 
L 22.015625 12.40625 
L 22.015625 4 
L 14.015625 -11.625 
L 7.71875 -11.625 
L 11.71875 4 
z
" id="DejaVuSans-44"/>
      <path d="M 30.421875 75.984375 
L 30.421875 -13.1875 
L 9.71875 -13.1875 
L 9.71875 -6.203125 
L 21.390625 -6.203125 
L 21.390625 69 
L 9.71875 69 
L 9.71875 75.984375 
z
" id="DejaVuSans-93"/>
      <path d="M 21 76.421875 
L 21 -23.578125 
L 12.703125 -23.578125 
L 12.703125 76.421875 
z
" id="DejaVuSans-124"/>
      <path d="M 4.90625 53.40625 
L 3.40625 55.296875 
Q 9.703125 61.296875 17.59375 63.796875 
Q 25.296875 66.203125 38.90625 66.203125 
Q 54.296875 66.203125 62.9375 63.75 
Q 71.59375 61.296875 75.1875 56.1875 
Q 78.796875 51.09375 78.796875 42.203125 
Q 78.796875 36.703125 77.34375 31.140625 
Q 75.90625 25.59375 72.40625 19.890625 
Q 68.90625 14.203125 63.59375 9.84375 
Q 58.296875 5.5 49.84375 2.75 
Q 41.40625 0 30.90625 0 
L 5.203125 0 
L 5.90625 2.40625 
Q 9 2.40625 10.59375 4.296875 
Q 12.203125 6.203125 13.59375 11.09375 
L 23.296875 44.796875 
Q 23.703125 46.203125 24.703125 49.296875 
Q 25.703125 52.40625 26.140625 54.15625 
Q 26.59375 55.90625 26.59375 56.90625 
Q 26.59375 60.59375 22.09375 60.59375 
Q 13.703125 60.59375 4.90625 53.40625 
z
M 38.09375 58.59375 
L 23.59375 8.703125 
Q 23.09375 7.09375 23.09375 6.09375 
Q 23.09375 4.796875 24.5 4.390625 
Q 25.90625 4 29 4 
Q 32.703125 4 36.796875 4.640625 
Q 40.90625 5.296875 46.703125 7.640625 
Q 52.5 10 56.953125 13.84375 
Q 61.40625 17.703125 64.59375 24.953125 
Q 67.796875 32.203125 67.796875 41.796875 
Q 67.796875 52 62.140625 57.09375 
Q 56.5 62.203125 43.09375 62.203125 
Q 41.296875 62.203125 39.890625 61.140625 
Q 38.5 60.09375 38.09375 58.59375 
z
" id="STIXNonUnicode-Italic-57904"/>
     </defs>
     <use transform="translate(0 0.234375)" xlink:href="#DejaVuSans-Oblique-80"/>
     <use transform="translate(60.302734 0.234375)" xlink:href="#DejaVuSans-40"/>
     <use transform="translate(99.316406 0.234375)" xlink:href="#DejaVuSans-91"/>
     <use transform="translate(138.330078 0.234375)" xlink:href="#DejaVuSans-Oblique-952"/>
     <use transform="translate(199.511719 -16.171875)scale(0.7)" xlink:href="#DejaVuSans-49"/>
     <use transform="translate(246.782227 0.234375)" xlink:href="#DejaVuSans-44"/>
     <use transform="translate(298.051758 0.234375)" xlink:href="#DejaVuSans-Oblique-952"/>
     <use transform="translate(359.233398 -16.171875)scale(0.7)" xlink:href="#DejaVuSans-50"/>
     <use transform="translate(406.503906 0.234375)" xlink:href="#DejaVuSans-93"/>
     <use transform="translate(445.517578 0.234375)" xlink:href="#DejaVuSans-124"/>
     <use transform="translate(479.208984 0.234375)" xlink:href="#STIXNonUnicode-Italic-57904"/>
     <use transform="translate(559.308975 0.234375)" xlink:href="#DejaVuSans-41"/>
    </g>
   </g>
  </g>
 </g>
 <defs>
  <clipPath id="pa58b27c49e">
   <rect height="217.44" width="267.84" x="54" y="34.56"/>
  </clipPath>
  <clipPath id="pfb6745717b">
   <rect height="217.44" width="10.872" x="338.58" y="34.56"/>
  </clipPath>
 </defs>
</svg>
