<?xml version="1.0" encoding="utf-8" standalone="no"?>
<!DOCTYPE svg PUBLIC "-//W3C//DTD SVG 1.1//EN"
  "http://www.w3.org/Graphics/SVG/1.1/DTD/svg11.dtd">
<svg xmlns:xlink="http://www.w3.org/1999/xlink" width="460.8pt" height="345.6pt" viewBox="0 0 460.8 345.6" xmlns="http://www.w3.org/2000/svg" version="1.1">
 <metadata>
  <rdf:RDF xmlns:dc="http://purl.org/dc/elements/1.1/" xmlns:cc="http://creativecommons.org/ns#" xmlns:rdf="http://www.w3.org/1999/02/22-rdf-syntax-ns#">
   <cc:Work>
    <dc:type rdf:resource="http://purl.org/dc/dcmitype/StillImage"/>
    <dc:date>2023-04-27T17:24:47.777524</dc:date>
    <dc:format>image/svg+xml</dc:format>
    <dc:creator>
     <cc:Agent>
      <dc:title>Matplotlib v3.5.2, https://matplotlib.org/</dc:title>
     </cc:Agent>
    </dc:creator>
   </cc:Work>
  </rdf:RDF>
 </metadata>
 <defs>
  <style type="text/css">*{stroke-linejoin: round; stroke-linecap: butt}</style>
 </defs>
 <g id="figure_1">
  <g id="patch_1">
   <path d="M 0 345.6 
L 460.8 345.6 
L 460.8 0 
L 0 0 
L 0 345.6 
z
" style="fill: none"/>
  </g>
  <g id="axes_1">
   <g id="patch_2">
    <path d="M 57.6 307.584 
L 414.72 307.584 
L 414.72 41.472 
L 57.6 41.472 
L 57.6 307.584 
z
" style="fill: none"/>
   </g>
   <g id="matplotlib.axis_1">
    <g id="xtick_1">
     <g id="line2d_1">
      <path d="M 73.832727 307.584 
L 73.832727 41.472 
" clip-path="url(#pe8423b26d0)" style="fill: none; stroke: #b0b0b0; stroke-width: 0.8; stroke-linecap: square"/>
     </g>
     <g id="line2d_2">
      <defs>
       <path id="maca7bd1cd4" d="M 0 0 
L 0 3.5 
" style="stroke: #000000; stroke-width: 0.8"/>
      </defs>
      <g>
       <use xlink:href="#maca7bd1cd4" x="73.832727" y="307.584" style="stroke: #000000; stroke-width: 0.8"/>
      </g>
     </g>
     <g id="text_1">
      <!-- 0 -->
      <g transform="translate(70.651477 322.182437)scale(0.1 -0.1)">
       <defs>
        <path id="DejaVuSans-30" d="M 2034 4250 
Q 1547 4250 1301 3770 
Q 1056 3291 1056 2328 
Q 1056 1369 1301 889 
Q 1547 409 2034 409 
Q 2525 409 2770 889 
Q 3016 1369 3016 2328 
Q 3016 3291 2770 3770 
Q 2525 4250 2034 4250 
z
M 2034 4750 
Q 2819 4750 3233 4129 
Q 3647 3509 3647 2328 
Q 3647 1150 3233 529 
Q 2819 -91 2034 -91 
Q 1250 -91 836 529 
Q 422 1150 422 2328 
Q 422 3509 836 4129 
Q 1250 4750 2034 4750 
z
" transform="scale(0.015625)"/>
       </defs>
       <use xlink:href="#DejaVuSans-30"/>
      </g>
     </g>
    </g>
    <g id="xtick_2">
     <g id="line2d_3">
      <path d="M 138.763636 307.584 
L 138.763636 41.472 
" clip-path="url(#pe8423b26d0)" style="fill: none; stroke: #b0b0b0; stroke-width: 0.8; stroke-linecap: square"/>
     </g>
     <g id="line2d_4">
      <g>
       <use xlink:href="#maca7bd1cd4" x="138.763636" y="307.584" style="stroke: #000000; stroke-width: 0.8"/>
      </g>
     </g>
     <g id="text_2">
      <!-- 100 -->
      <g transform="translate(129.219886 322.182437)scale(0.1 -0.1)">
       <defs>
        <path id="DejaVuSans-31" d="M 794 531 
L 1825 531 
L 1825 4091 
L 703 3866 
L 703 4441 
L 1819 4666 
L 2450 4666 
L 2450 531 
L 3481 531 
L 3481 0 
L 794 0 
L 794 531 
z
" transform="scale(0.015625)"/>
       </defs>
       <use xlink:href="#DejaVuSans-31"/>
       <use xlink:href="#DejaVuSans-30" x="63.623047"/>
       <use xlink:href="#DejaVuSans-30" x="127.246094"/>
      </g>
     </g>
    </g>
    <g id="xtick_3">
     <g id="line2d_5">
      <path d="M 203.694545 307.584 
L 203.694545 41.472 
" clip-path="url(#pe8423b26d0)" style="fill: none; stroke: #b0b0b0; stroke-width: 0.8; stroke-linecap: square"/>
     </g>
     <g id="line2d_6">
      <g>
       <use xlink:href="#maca7bd1cd4" x="203.694545" y="307.584" style="stroke: #000000; stroke-width: 0.8"/>
      </g>
     </g>
     <g id="text_3">
      <!-- 200 -->
      <g transform="translate(194.150795 322.182437)scale(0.1 -0.1)">
       <defs>
        <path id="DejaVuSans-32" d="M 1228 531 
L 3431 531 
L 3431 0 
L 469 0 
L 469 531 
Q 828 903 1448 1529 
Q 2069 2156 2228 2338 
Q 2531 2678 2651 2914 
Q 2772 3150 2772 3378 
Q 2772 3750 2511 3984 
Q 2250 4219 1831 4219 
Q 1534 4219 1204 4116 
Q 875 4013 500 3803 
L 500 4441 
Q 881 4594 1212 4672 
Q 1544 4750 1819 4750 
Q 2544 4750 2975 4387 
Q 3406 4025 3406 3419 
Q 3406 3131 3298 2873 
Q 3191 2616 2906 2266 
Q 2828 2175 2409 1742 
Q 1991 1309 1228 531 
z
" transform="scale(0.015625)"/>
       </defs>
       <use xlink:href="#DejaVuSans-32"/>
       <use xlink:href="#DejaVuSans-30" x="63.623047"/>
       <use xlink:href="#DejaVuSans-30" x="127.246094"/>
      </g>
     </g>
    </g>
    <g id="xtick_4">
     <g id="line2d_7">
      <path d="M 268.625455 307.584 
L 268.625455 41.472 
" clip-path="url(#pe8423b26d0)" style="fill: none; stroke: #b0b0b0; stroke-width: 0.8; stroke-linecap: square"/>
     </g>
     <g id="line2d_8">
      <g>
       <use xlink:href="#maca7bd1cd4" x="268.625455" y="307.584" style="stroke: #000000; stroke-width: 0.8"/>
      </g>
     </g>
     <g id="text_4">
      <!-- 300 -->
      <g transform="translate(259.081705 322.182437)scale(0.1 -0.1)">
       <defs>
        <path id="DejaVuSans-33" d="M 2597 2516 
Q 3050 2419 3304 2112 
Q 3559 1806 3559 1356 
Q 3559 666 3084 287 
Q 2609 -91 1734 -91 
Q 1441 -91 1130 -33 
Q 819 25 488 141 
L 488 750 
Q 750 597 1062 519 
Q 1375 441 1716 441 
Q 2309 441 2620 675 
Q 2931 909 2931 1356 
Q 2931 1769 2642 2001 
Q 2353 2234 1838 2234 
L 1294 2234 
L 1294 2753 
L 1863 2753 
Q 2328 2753 2575 2939 
Q 2822 3125 2822 3475 
Q 2822 3834 2567 4026 
Q 2313 4219 1838 4219 
Q 1578 4219 1281 4162 
Q 984 4106 628 3988 
L 628 4550 
Q 988 4650 1302 4700 
Q 1616 4750 1894 4750 
Q 2613 4750 3031 4423 
Q 3450 4097 3450 3541 
Q 3450 3153 3228 2886 
Q 3006 2619 2597 2516 
z
" transform="scale(0.015625)"/>
       </defs>
       <use xlink:href="#DejaVuSans-33"/>
       <use xlink:href="#DejaVuSans-30" x="63.623047"/>
       <use xlink:href="#DejaVuSans-30" x="127.246094"/>
      </g>
     </g>
    </g>
    <g id="xtick_5">
     <g id="line2d_9">
      <path d="M 333.556364 307.584 
L 333.556364 41.472 
" clip-path="url(#pe8423b26d0)" style="fill: none; stroke: #b0b0b0; stroke-width: 0.8; stroke-linecap: square"/>
     </g>
     <g id="line2d_10">
      <g>
       <use xlink:href="#maca7bd1cd4" x="333.556364" y="307.584" style="stroke: #000000; stroke-width: 0.8"/>
      </g>
     </g>
     <g id="text_5">
      <!-- 400 -->
      <g transform="translate(324.012614 322.182437)scale(0.1 -0.1)">
       <defs>
        <path id="DejaVuSans-34" d="M 2419 4116 
L 825 1625 
L 2419 1625 
L 2419 4116 
z
M 2253 4666 
L 3047 4666 
L 3047 1625 
L 3713 1625 
L 3713 1100 
L 3047 1100 
L 3047 0 
L 2419 0 
L 2419 1100 
L 313 1100 
L 313 1709 
L 2253 4666 
z
" transform="scale(0.015625)"/>
       </defs>
       <use xlink:href="#DejaVuSans-34"/>
       <use xlink:href="#DejaVuSans-30" x="63.623047"/>
       <use xlink:href="#DejaVuSans-30" x="127.246094"/>
      </g>
     </g>
    </g>
    <g id="xtick_6">
     <g id="line2d_11">
      <path d="M 398.487273 307.584 
L 398.487273 41.472 
" clip-path="url(#pe8423b26d0)" style="fill: none; stroke: #b0b0b0; stroke-width: 0.8; stroke-linecap: square"/>
     </g>
     <g id="line2d_12">
      <g>
       <use xlink:href="#maca7bd1cd4" x="398.487273" y="307.584" style="stroke: #000000; stroke-width: 0.8"/>
      </g>
     </g>
     <g id="text_6">
      <!-- 500 -->
      <g transform="translate(388.943523 322.182437)scale(0.1 -0.1)">
       <defs>
        <path id="DejaVuSans-35" d="M 691 4666 
L 3169 4666 
L 3169 4134 
L 1269 4134 
L 1269 2991 
Q 1406 3038 1543 3061 
Q 1681 3084 1819 3084 
Q 2600 3084 3056 2656 
Q 3513 2228 3513 1497 
Q 3513 744 3044 326 
Q 2575 -91 1722 -91 
Q 1428 -91 1123 -41 
Q 819 9 494 109 
L 494 744 
Q 775 591 1075 516 
Q 1375 441 1709 441 
Q 2250 441 2565 725 
Q 2881 1009 2881 1497 
Q 2881 1984 2565 2268 
Q 2250 2553 1709 2553 
Q 1456 2553 1204 2497 
Q 953 2441 691 2322 
L 691 4666 
z
" transform="scale(0.015625)"/>
       </defs>
       <use xlink:href="#DejaVuSans-35"/>
       <use xlink:href="#DejaVuSans-30" x="63.623047"/>
       <use xlink:href="#DejaVuSans-30" x="127.246094"/>
      </g>
     </g>
    </g>
    <g id="text_7">
     <!-- freq. index -->
     <g transform="translate(209.3475 335.860562)scale(0.1 -0.1)">
      <defs>
       <path id="DejaVuSans-66" d="M 2375 4863 
L 2375 4384 
L 1825 4384 
Q 1516 4384 1395 4259 
Q 1275 4134 1275 3809 
L 1275 3500 
L 2222 3500 
L 2222 3053 
L 1275 3053 
L 1275 0 
L 697 0 
L 697 3053 
L 147 3053 
L 147 3500 
L 697 3500 
L 697 3744 
Q 697 4328 969 4595 
Q 1241 4863 1831 4863 
L 2375 4863 
z
" transform="scale(0.015625)"/>
       <path id="DejaVuSans-72" d="M 2631 2963 
Q 2534 3019 2420 3045 
Q 2306 3072 2169 3072 
Q 1681 3072 1420 2755 
Q 1159 2438 1159 1844 
L 1159 0 
L 581 0 
L 581 3500 
L 1159 3500 
L 1159 2956 
Q 1341 3275 1631 3429 
Q 1922 3584 2338 3584 
Q 2397 3584 2469 3576 
Q 2541 3569 2628 3553 
L 2631 2963 
z
" transform="scale(0.015625)"/>
       <path id="DejaVuSans-65" d="M 3597 1894 
L 3597 1613 
L 953 1613 
Q 991 1019 1311 708 
Q 1631 397 2203 397 
Q 2534 397 2845 478 
Q 3156 559 3463 722 
L 3463 178 
Q 3153 47 2828 -22 
Q 2503 -91 2169 -91 
Q 1331 -91 842 396 
Q 353 884 353 1716 
Q 353 2575 817 3079 
Q 1281 3584 2069 3584 
Q 2775 3584 3186 3129 
Q 3597 2675 3597 1894 
z
M 3022 2063 
Q 3016 2534 2758 2815 
Q 2500 3097 2075 3097 
Q 1594 3097 1305 2825 
Q 1016 2553 972 2059 
L 3022 2063 
z
" transform="scale(0.015625)"/>
       <path id="DejaVuSans-71" d="M 947 1747 
Q 947 1113 1208 752 
Q 1469 391 1925 391 
Q 2381 391 2643 752 
Q 2906 1113 2906 1747 
Q 2906 2381 2643 2742 
Q 2381 3103 1925 3103 
Q 1469 3103 1208 2742 
Q 947 2381 947 1747 
z
M 2906 525 
Q 2725 213 2448 61 
Q 2172 -91 1784 -91 
Q 1150 -91 751 415 
Q 353 922 353 1747 
Q 353 2572 751 3078 
Q 1150 3584 1784 3584 
Q 2172 3584 2448 3432 
Q 2725 3281 2906 2969 
L 2906 3500 
L 3481 3500 
L 3481 -1331 
L 2906 -1331 
L 2906 525 
z
" transform="scale(0.015625)"/>
       <path id="DejaVuSans-2e" d="M 684 794 
L 1344 794 
L 1344 0 
L 684 0 
L 684 794 
z
" transform="scale(0.015625)"/>
       <path id="DejaVuSans-20" transform="scale(0.015625)"/>
       <path id="DejaVuSans-69" d="M 603 3500 
L 1178 3500 
L 1178 0 
L 603 0 
L 603 3500 
z
M 603 4863 
L 1178 4863 
L 1178 4134 
L 603 4134 
L 603 4863 
z
" transform="scale(0.015625)"/>
       <path id="DejaVuSans-6e" d="M 3513 2113 
L 3513 0 
L 2938 0 
L 2938 2094 
Q 2938 2591 2744 2837 
Q 2550 3084 2163 3084 
Q 1697 3084 1428 2787 
Q 1159 2491 1159 1978 
L 1159 0 
L 581 0 
L 581 3500 
L 1159 3500 
L 1159 2956 
Q 1366 3272 1645 3428 
Q 1925 3584 2291 3584 
Q 2894 3584 3203 3211 
Q 3513 2838 3513 2113 
z
" transform="scale(0.015625)"/>
       <path id="DejaVuSans-64" d="M 2906 2969 
L 2906 4863 
L 3481 4863 
L 3481 0 
L 2906 0 
L 2906 525 
Q 2725 213 2448 61 
Q 2172 -91 1784 -91 
Q 1150 -91 751 415 
Q 353 922 353 1747 
Q 353 2572 751 3078 
Q 1150 3584 1784 3584 
Q 2172 3584 2448 3432 
Q 2725 3281 2906 2969 
z
M 947 1747 
Q 947 1113 1208 752 
Q 1469 391 1925 391 
Q 2381 391 2643 752 
Q 2906 1113 2906 1747 
Q 2906 2381 2643 2742 
Q 2381 3103 1925 3103 
Q 1469 3103 1208 2742 
Q 947 2381 947 1747 
z
" transform="scale(0.015625)"/>
       <path id="DejaVuSans-78" d="M 3513 3500 
L 2247 1797 
L 3578 0 
L 2900 0 
L 1881 1375 
L 863 0 
L 184 0 
L 1544 1831 
L 300 3500 
L 978 3500 
L 1906 2253 
L 2834 3500 
L 3513 3500 
z
" transform="scale(0.015625)"/>
      </defs>
      <use xlink:href="#DejaVuSans-66"/>
      <use xlink:href="#DejaVuSans-72" x="35.205078"/>
      <use xlink:href="#DejaVuSans-65" x="74.068359"/>
      <use xlink:href="#DejaVuSans-71" x="135.591797"/>
      <use xlink:href="#DejaVuSans-2e" x="199.068359"/>
      <use xlink:href="#DejaVuSans-20" x="230.855469"/>
      <use xlink:href="#DejaVuSans-69" x="262.642578"/>
      <use xlink:href="#DejaVuSans-6e" x="290.425781"/>
      <use xlink:href="#DejaVuSans-64" x="353.804688"/>
      <use xlink:href="#DejaVuSans-65" x="417.28125"/>
      <use xlink:href="#DejaVuSans-78" x="477.054688"/>
     </g>
    </g>
   </g>
   <g id="matplotlib.axis_2">
    <g id="ytick_1">
     <g id="line2d_13">
      <path d="M 57.6 295.488004 
L 414.72 295.488004 
" clip-path="url(#pe8423b26d0)" style="fill: none; stroke: #b0b0b0; stroke-width: 0.8; stroke-linecap: square"/>
     </g>
     <g id="line2d_14">
      <defs>
       <path id="mb784bc7879" d="M 0 0 
L -3.5 0 
" style="stroke: #000000; stroke-width: 0.8"/>
      </defs>
      <g>
       <use xlink:href="#mb784bc7879" x="57.6" y="295.488004" style="stroke: #000000; stroke-width: 0.8"/>
      </g>
     </g>
     <g id="text_8">
      <!-- 0 -->
      <g transform="translate(44.2375 299.287222)scale(0.1 -0.1)">
       <use xlink:href="#DejaVuSans-30"/>
      </g>
     </g>
    </g>
    <g id="ytick_2">
     <g id="line2d_15">
      <path d="M 57.6 260.653319 
L 414.72 260.653319 
" clip-path="url(#pe8423b26d0)" style="fill: none; stroke: #b0b0b0; stroke-width: 0.8; stroke-linecap: square"/>
     </g>
     <g id="line2d_16">
      <g>
       <use xlink:href="#mb784bc7879" x="57.6" y="260.653319" style="stroke: #000000; stroke-width: 0.8"/>
      </g>
     </g>
     <g id="text_9">
      <!-- 2 -->
      <g transform="translate(44.2375 264.452538)scale(0.1 -0.1)">
       <use xlink:href="#DejaVuSans-32"/>
      </g>
     </g>
    </g>
    <g id="ytick_3">
     <g id="line2d_17">
      <path d="M 57.6 225.818635 
L 414.72 225.818635 
" clip-path="url(#pe8423b26d0)" style="fill: none; stroke: #b0b0b0; stroke-width: 0.8; stroke-linecap: square"/>
     </g>
     <g id="line2d_18">
      <g>
       <use xlink:href="#mb784bc7879" x="57.6" y="225.818635" style="stroke: #000000; stroke-width: 0.8"/>
      </g>
     </g>
     <g id="text_10">
      <!-- 4 -->
      <g transform="translate(44.2375 229.617854)scale(0.1 -0.1)">
       <use xlink:href="#DejaVuSans-34"/>
      </g>
     </g>
    </g>
    <g id="ytick_4">
     <g id="line2d_19">
      <path d="M 57.6 190.983951 
L 414.72 190.983951 
" clip-path="url(#pe8423b26d0)" style="fill: none; stroke: #b0b0b0; stroke-width: 0.8; stroke-linecap: square"/>
     </g>
     <g id="line2d_20">
      <g>
       <use xlink:href="#mb784bc7879" x="57.6" y="190.983951" style="stroke: #000000; stroke-width: 0.8"/>
      </g>
     </g>
     <g id="text_11">
      <!-- 6 -->
      <g transform="translate(44.2375 194.78317)scale(0.1 -0.1)">
       <defs>
        <path id="DejaVuSans-36" d="M 2113 2584 
Q 1688 2584 1439 2293 
Q 1191 2003 1191 1497 
Q 1191 994 1439 701 
Q 1688 409 2113 409 
Q 2538 409 2786 701 
Q 3034 994 3034 1497 
Q 3034 2003 2786 2293 
Q 2538 2584 2113 2584 
z
M 3366 4563 
L 3366 3988 
Q 3128 4100 2886 4159 
Q 2644 4219 2406 4219 
Q 1781 4219 1451 3797 
Q 1122 3375 1075 2522 
Q 1259 2794 1537 2939 
Q 1816 3084 2150 3084 
Q 2853 3084 3261 2657 
Q 3669 2231 3669 1497 
Q 3669 778 3244 343 
Q 2819 -91 2113 -91 
Q 1303 -91 875 529 
Q 447 1150 447 2328 
Q 447 3434 972 4092 
Q 1497 4750 2381 4750 
Q 2619 4750 2861 4703 
Q 3103 4656 3366 4563 
z
" transform="scale(0.015625)"/>
       </defs>
       <use xlink:href="#DejaVuSans-36"/>
      </g>
     </g>
    </g>
    <g id="ytick_5">
     <g id="line2d_21">
      <path d="M 57.6 156.149267 
L 414.72 156.149267 
" clip-path="url(#pe8423b26d0)" style="fill: none; stroke: #b0b0b0; stroke-width: 0.8; stroke-linecap: square"/>
     </g>
     <g id="line2d_22">
      <g>
       <use xlink:href="#mb784bc7879" x="57.6" y="156.149267" style="stroke: #000000; stroke-width: 0.8"/>
      </g>
     </g>
     <g id="text_12">
      <!-- 8 -->
      <g transform="translate(44.2375 159.948486)scale(0.1 -0.1)">
       <defs>
        <path id="DejaVuSans-38" d="M 2034 2216 
Q 1584 2216 1326 1975 
Q 1069 1734 1069 1313 
Q 1069 891 1326 650 
Q 1584 409 2034 409 
Q 2484 409 2743 651 
Q 3003 894 3003 1313 
Q 3003 1734 2745 1975 
Q 2488 2216 2034 2216 
z
M 1403 2484 
Q 997 2584 770 2862 
Q 544 3141 544 3541 
Q 544 4100 942 4425 
Q 1341 4750 2034 4750 
Q 2731 4750 3128 4425 
Q 3525 4100 3525 3541 
Q 3525 3141 3298 2862 
Q 3072 2584 2669 2484 
Q 3125 2378 3379 2068 
Q 3634 1759 3634 1313 
Q 3634 634 3220 271 
Q 2806 -91 2034 -91 
Q 1263 -91 848 271 
Q 434 634 434 1313 
Q 434 1759 690 2068 
Q 947 2378 1403 2484 
z
M 1172 3481 
Q 1172 3119 1398 2916 
Q 1625 2713 2034 2713 
Q 2441 2713 2670 2916 
Q 2900 3119 2900 3481 
Q 2900 3844 2670 4047 
Q 2441 4250 2034 4250 
Q 1625 4250 1398 4047 
Q 1172 3844 1172 3481 
z
" transform="scale(0.015625)"/>
       </defs>
       <use xlink:href="#DejaVuSans-38"/>
      </g>
     </g>
    </g>
    <g id="ytick_6">
     <g id="line2d_23">
      <path d="M 57.6 121.314583 
L 414.72 121.314583 
" clip-path="url(#pe8423b26d0)" style="fill: none; stroke: #b0b0b0; stroke-width: 0.8; stroke-linecap: square"/>
     </g>
     <g id="line2d_24">
      <g>
       <use xlink:href="#mb784bc7879" x="57.6" y="121.314583" style="stroke: #000000; stroke-width: 0.8"/>
      </g>
     </g>
     <g id="text_13">
      <!-- 10 -->
      <g transform="translate(37.875 125.113801)scale(0.1 -0.1)">
       <use xlink:href="#DejaVuSans-31"/>
       <use xlink:href="#DejaVuSans-30" x="63.623047"/>
      </g>
     </g>
    </g>
    <g id="ytick_7">
     <g id="line2d_25">
      <path d="M 57.6 86.479899 
L 414.72 86.479899 
" clip-path="url(#pe8423b26d0)" style="fill: none; stroke: #b0b0b0; stroke-width: 0.8; stroke-linecap: square"/>
     </g>
     <g id="line2d_26">
      <g>
       <use xlink:href="#mb784bc7879" x="57.6" y="86.479899" style="stroke: #000000; stroke-width: 0.8"/>
      </g>
     </g>
     <g id="text_14">
      <!-- 12 -->
      <g transform="translate(37.875 90.279117)scale(0.1 -0.1)">
       <use xlink:href="#DejaVuSans-31"/>
       <use xlink:href="#DejaVuSans-32" x="63.623047"/>
      </g>
     </g>
    </g>
    <g id="ytick_8">
     <g id="line2d_27">
      <path d="M 57.6 51.645214 
L 414.72 51.645214 
" clip-path="url(#pe8423b26d0)" style="fill: none; stroke: #b0b0b0; stroke-width: 0.8; stroke-linecap: square"/>
     </g>
     <g id="line2d_28">
      <g>
       <use xlink:href="#mb784bc7879" x="57.6" y="51.645214" style="stroke: #000000; stroke-width: 0.8"/>
      </g>
     </g>
     <g id="text_15">
      <!-- 14 -->
      <g transform="translate(37.875 55.444433)scale(0.1 -0.1)">
       <use xlink:href="#DejaVuSans-31"/>
       <use xlink:href="#DejaVuSans-34" x="63.623047"/>
      </g>
     </g>
    </g>
    <g id="text_16">
     <!-- $I$ -->
     <g transform="translate(31.795313 176.028)rotate(-90)scale(0.1 -0.1)">
      <defs>
       <path id="DejaVuSans-Oblique-49" d="M 1081 4666 
L 1716 4666 
L 806 0 
L 172 0 
L 1081 4666 
z
" transform="scale(0.015625)"/>
      </defs>
      <use xlink:href="#DejaVuSans-Oblique-49" transform="translate(0 0.09375)"/>
     </g>
    </g>
   </g>
   <g id="line2d_29">
    <path d="M 73.832727 295.488 
L 74.482036 278.551196 
L 75.131345 264.65118 
L 75.780655 253.274796 
L 76.429964 266.743966 
L 77.079273 220.626102 
L 77.728582 291.051821 
L 78.377891 235.675816 
L 79.0272 258.934289 
L 79.676509 290.721051 
L 80.325818 269.125723 
L 81.624436 277.332053 
L 82.273745 171.333325 
L 82.923055 282.362583 
L 83.572364 213.939583 
L 84.221673 248.471349 
L 84.870982 290.713812 
L 85.520291 225.615623 
L 86.1696 195.289382 
L 87.468218 275.195543 
L 88.117527 272.480667 
L 88.766836 202.806376 
L 89.416145 279.034754 
L 90.065455 205.602112 
L 90.714764 294.431425 
L 91.364073 292.323675 
L 92.013382 217.62572 
L 92.662691 289.133974 
L 93.312 258.114574 
L 93.961309 277.518145 
L 94.610618 228.792285 
L 95.259927 266.021259 
L 95.909236 274.676324 
L 96.558545 262.453955 
L 97.207855 283.716454 
L 97.857164 292.89648 
L 98.506473 275.164311 
L 99.155782 290.011323 
L 100.4544 259.925607 
L 101.103709 286.257403 
L 101.753018 227.867868 
L 102.402327 238.91215 
L 103.051636 205.207366 
L 103.700945 294.666765 
L 104.350255 274.359957 
L 104.999564 230.578321 
L 105.648873 159.017908 
L 106.298182 266.335828 
L 106.947491 284.759904 
L 107.5968 202.378886 
L 108.246109 295.34818 
L 108.895418 263.181493 
L 109.544727 292.298001 
L 110.194036 274.83161 
L 110.843345 241.785018 
L 111.492655 257.375588 
L 112.141964 291.726146 
L 112.791273 290.920049 
L 113.440582 285.45879 
L 114.089891 293.265735 
L 114.7392 272.430362 
L 115.388509 262.601349 
L 116.037818 283.92368 
L 116.687127 258.013337 
L 117.336436 248.341192 
L 117.985745 242.697156 
L 118.635055 251.436354 
L 119.284364 157.166207 
L 119.933673 194.788892 
L 120.582982 277.556065 
L 121.232291 167.025031 
L 121.8816 267.041647 
L 122.530909 285.537385 
L 123.180218 292.968186 
L 123.829527 286.254445 
L 124.478836 266.526324 
L 125.128145 279.080081 
L 125.777455 289.418024 
L 126.426764 146.164603 
L 127.076073 278.178344 
L 127.725382 276.81725 
L 128.374691 254.780429 
L 129.024 291.209262 
L 129.673309 53.568 
L 130.322618 269.188701 
L 130.971927 288.387949 
L 131.621236 290.684763 
L 132.270545 258.78791 
L 132.919855 209.115427 
L 133.569164 293.396747 
L 134.218473 220.140239 
L 134.867782 242.207546 
L 135.517091 285.018183 
L 136.1664 218.197732 
L 136.815709 284.895864 
L 137.465018 177.898963 
L 138.114327 280.593685 
L 138.763636 276.687161 
L 139.412945 259.002882 
L 140.062255 289.260752 
L 140.711564 284.796639 
L 141.360873 290.991572 
L 142.010182 168.660831 
L 142.659491 269.776685 
L 143.3088 227.263882 
L 143.958109 284.226322 
L 144.607418 219.709262 
L 145.256727 291.675756 
L 145.906036 281.065814 
L 146.555345 281.938051 
L 147.204655 255.818852 
L 147.853964 271.292808 
L 148.503273 190.45415 
L 149.152582 264.849915 
L 149.801891 284.256269 
L 150.4512 274.37104 
L 151.100509 293.359103 
L 151.749818 269.059343 
L 152.399127 269.199366 
L 153.048436 253.93785 
L 153.697745 262.396316 
L 154.347055 294.212 
L 154.996364 272.693697 
L 155.645673 271.870849 
L 156.294982 292.216199 
L 156.944291 248.2873 
L 157.5936 256.867794 
L 158.242909 286.674553 
L 158.892218 274.70476 
L 159.541527 293.207684 
L 160.190836 239.304051 
L 160.840145 274.131366 
L 161.489455 208.474912 
L 162.138764 285.746042 
L 162.788073 263.244119 
L 163.437382 257.166688 
L 164.086691 260.544274 
L 164.736 195.716925 
L 165.385309 290.382419 
L 166.034618 292.871632 
L 166.683927 219.559365 
L 167.333236 262.685011 
L 167.982545 273.243575 
L 168.631855 271.48907 
L 169.281164 294.807552 
L 169.930473 219.133871 
L 170.579782 242.618302 
L 171.229091 283.380583 
L 171.8784 286.314178 
L 172.527709 256.006676 
L 173.177018 291.659961 
L 173.826327 291.907341 
L 174.475636 267.044292 
L 175.124945 232.12373 
L 175.774255 293.718934 
L 176.423564 293.797819 
L 177.072873 285.418634 
L 177.722182 272.022664 
L 178.371491 280.282991 
L 179.0208 253.236553 
L 179.670109 274.075343 
L 180.319418 278.999726 
L 181.618036 250.982048 
L 182.267345 274.486432 
L 182.916655 286.171525 
L 183.565964 280.143366 
L 184.215273 286.414616 
L 184.864582 237.539429 
L 185.513891 263.331924 
L 186.1632 278.041037 
L 186.812509 282.712821 
L 187.461818 191.608591 
L 188.111127 285.191798 
L 188.760436 172.293753 
L 189.409745 254.3192 
L 190.059055 289.134731 
L 190.708364 253.55904 
L 191.357673 269.713395 
L 192.006982 259.900427 
L 192.656291 213.008545 
L 193.3056 283.470612 
L 193.954909 253.812087 
L 194.604218 149.930009 
L 195.253527 270.06081 
L 195.902836 284.572184 
L 197.201455 255.465213 
L 197.850764 281.61976 
L 198.500073 280.968882 
L 199.149382 243.428241 
L 199.798691 242.990841 
L 200.448 279.688298 
L 201.097309 239.454292 
L 201.746618 267.267027 
L 202.395927 289.35563 
L 203.045236 285.090499 
L 203.694545 282.951786 
L 204.343855 256.23817 
L 204.993164 204.797696 
L 205.642473 275.933544 
L 206.291782 288.177087 
L 206.941091 258.51284 
L 207.5904 268.900607 
L 208.239709 288.34798 
L 208.889018 294.441562 
L 209.538327 280.919192 
L 210.187636 252.709756 
L 210.836945 294.332364 
L 211.486255 222.53872 
L 212.135564 233.174526 
L 212.784873 250.315298 
L 213.434182 254.354347 
L 214.083491 253.796001 
L 214.7328 225.107574 
L 215.382109 258.478528 
L 216.031418 268.177645 
L 216.680727 263.724493 
L 217.330036 271.281381 
L 217.979345 293.008391 
L 218.628655 281.281688 
L 219.277964 289.706083 
L 219.927273 194.65007 
L 220.576582 266.629621 
L 221.225891 277.983259 
L 221.8752 248.271667 
L 222.524509 289.369048 
L 223.173818 273.488019 
L 223.823127 293.1388 
L 224.472436 289.544127 
L 225.121745 127.451127 
L 225.771055 239.32887 
L 226.420364 281.867218 
L 227.069673 282.65428 
L 227.718982 267.681319 
L 228.368291 290.367879 
L 229.0176 286.624075 
L 229.666909 280.826711 
L 230.316218 293.581562 
L 230.965527 258.007874 
L 231.614836 260.598046 
L 232.264145 229.260334 
L 232.913455 252.448102 
L 233.562764 291.796085 
L 234.212073 291.079 
L 234.861382 252.73437 
L 235.510691 206.430203 
L 236.16 262.292751 
L 236.809309 201.250355 
L 237.458618 284.683027 
L 238.107927 244.205219 
L 238.757236 240.631238 
L 239.406545 273.381858 
L 240.055855 290.90089 
L 240.705164 257.499755 
L 241.354473 270.881468 
L 242.003782 267.798714 
L 243.3024 295.393036 
L 244.601018 265.64291 
L 245.250327 273.867876 
L 245.899636 264.799522 
L 246.548945 285.687816 
L 247.198255 258.841157 
L 247.847564 294.51099 
L 248.496873 254.589033 
L 249.146182 276.980747 
L 249.795491 261.132099 
L 250.4448 241.982649 
L 251.094109 226.746056 
L 251.743418 273.596385 
L 252.392727 293.680243 
L 253.042036 293.80926 
L 253.691345 214.8149 
L 254.340655 219.602134 
L 254.989964 197.117775 
L 255.639273 281.410713 
L 256.288582 293.065871 
L 256.937891 293.647166 
L 257.5872 278.278397 
L 258.236509 270.81833 
L 258.885818 286.431444 
L 259.535127 294.266488 
L 260.184436 273.096287 
L 260.833745 294.350936 
L 261.483055 196.665791 
L 262.132364 293.566043 
L 262.781673 287.133007 
L 263.430982 221.886909 
L 264.080291 261.692973 
L 264.7296 226.558838 
L 265.378909 157.917729 
L 266.028218 284.890996 
L 266.677527 279.708263 
L 267.326836 289.380792 
L 267.976145 291.823095 
L 268.625455 201.262427 
L 269.274764 285.666769 
L 269.924073 269.710638 
L 271.222691 245.657564 
L 271.872 287.858856 
L 272.521309 281.947023 
L 273.170618 287.600792 
L 273.819927 288.094673 
L 274.469236 269.657513 
L 275.118545 229.202662 
L 275.767855 293.324966 
L 276.417164 271.619102 
L 277.066473 269.628051 
L 277.715782 294.026003 
L 278.365091 228.483731 
L 279.0144 231.542426 
L 279.663709 248.501011 
L 280.313018 280.584918 
L 280.962327 293.068853 
L 281.611636 261.590609 
L 282.260945 199.189366 
L 282.910255 290.341705 
L 283.559564 269.165538 
L 284.208873 283.146671 
L 284.858182 195.339352 
L 285.507491 294.35766 
L 286.1568 295.099263 
L 286.806109 128.645774 
L 287.455418 251.395448 
L 288.104727 262.683798 
L 288.754036 159.455955 
L 289.403345 288.373031 
L 290.052655 238.403936 
L 290.701964 289.187038 
L 291.351273 230.056402 
L 292.649891 287.677088 
L 293.2992 281.464594 
L 293.948509 165.390911 
L 294.597818 277.63242 
L 295.247127 281.910363 
L 295.896436 277.098862 
L 296.545745 148.926177 
L 297.195055 285.658215 
L 297.844364 231.393709 
L 298.493673 288.733186 
L 299.142982 226.35151 
L 299.792291 291.998422 
L 300.4416 242.0005 
L 301.090909 252.640842 
L 301.740218 287.240674 
L 302.389527 284.516192 
L 303.038836 267.657413 
L 303.688145 215.278687 
L 304.337455 291.671823 
L 304.986764 268.755234 
L 305.636073 219.539736 
L 306.285382 285.785469 
L 306.934691 257.825652 
L 307.584 294.842957 
L 308.233309 290.422175 
L 308.882618 244.826371 
L 309.531927 249.312249 
L 310.181236 289.467844 
L 310.830545 285.259421 
L 311.479855 243.997112 
L 312.129164 244.80555 
L 312.778473 281.040554 
L 313.427782 285.401213 
L 314.077091 279.166348 
L 314.7264 260.427406 
L 315.375709 281.579133 
L 316.025018 291.995048 
L 316.674327 245.565165 
L 317.323636 238.047631 
L 317.972945 292.347884 
L 318.622255 273.025004 
L 319.271564 289.862829 
L 319.920873 207.644862 
L 320.570182 254.732797 
L 321.219491 275.763786 
L 321.8688 250.354395 
L 322.518109 239.816928 
L 323.167418 256.671448 
L 323.816727 287.415593 
L 324.466036 217.678711 
L 325.115345 292.31182 
L 325.764655 249.112683 
L 326.413964 293.68518 
L 327.063273 260.870176 
L 327.712582 287.84062 
L 328.361891 265.576194 
L 329.0112 192.538571 
L 329.660509 272.880977 
L 330.309818 249.269292 
L 330.959127 262.488748 
L 331.608436 286.448207 
L 332.257745 253.781676 
L 332.907055 263.080379 
L 333.556364 259.301862 
L 334.205673 260.62818 
L 334.854982 224.758366 
L 335.504291 284.971301 
L 336.1536 261.100426 
L 336.802909 285.602527 
L 337.452218 290.332092 
L 338.101527 286.942855 
L 338.750836 290.921061 
L 339.400145 276.301473 
L 340.049455 284.241928 
L 340.698764 185.02839 
L 341.348073 283.984259 
L 341.997382 264.518434 
L 342.646691 289.991167 
L 343.296 202.957476 
L 343.945309 251.849019 
L 344.594618 292.004667 
L 345.243927 271.285168 
L 345.893236 207.936759 
L 346.542545 284.563519 
L 347.191855 186.542801 
L 347.841164 196.690339 
L 348.490473 227.966945 
L 349.139782 285.561445 
L 349.789091 264.68045 
L 350.4384 289.010302 
L 351.087709 289.748153 
L 351.737018 291.076207 
L 352.386327 294.912255 
L 353.035636 165.159874 
L 353.684945 294.312284 
L 354.334255 259.212423 
L 354.983564 293.746206 
L 355.632873 229.856772 
L 356.282182 247.880169 
L 356.931491 223.538428 
L 357.5808 291.593031 
L 358.230109 284.563935 
L 358.879418 266.585665 
L 359.528727 231.791194 
L 360.178036 283.3624 
L 360.827345 280.376203 
L 361.476655 273.215889 
L 362.125964 164.210921 
L 362.775273 286.631423 
L 363.424582 182.374395 
L 364.073891 292.761092 
L 364.7232 293.979185 
L 365.372509 273.734629 
L 366.021818 266.702126 
L 366.671127 106.612524 
L 367.320436 282.930765 
L 367.969745 152.417764 
L 368.619055 181.035732 
L 369.268364 188.274828 
L 369.917673 285.570039 
L 370.566982 288.254091 
L 371.216291 197.012754 
L 371.8656 286.166236 
L 372.514909 270.27399 
L 373.164218 275.531226 
L 373.813527 220.427684 
L 374.462836 280.124214 
L 375.112145 188.584685 
L 375.761455 290.459529 
L 376.410764 279.133197 
L 377.060073 272.975689 
L 377.709382 245.113491 
L 378.358691 232.770712 
L 379.008 275.712378 
L 379.657309 269.237729 
L 380.306618 265.759941 
L 380.955927 252.439879 
L 381.605236 280.309551 
L 382.254545 290.867384 
L 382.903855 289.840904 
L 383.553164 280.268686 
L 384.202473 232.466953 
L 384.851782 268.366037 
L 385.501091 269.371862 
L 386.1504 273.95407 
L 386.799709 247.296623 
L 387.449018 290.129748 
L 388.098327 290.727122 
L 388.747636 289.261639 
L 389.396945 254.313528 
L 390.046255 271.881861 
L 390.695564 294.629538 
L 391.344873 291.919196 
L 391.994182 285.705707 
L 392.643491 243.830695 
L 393.2928 269.771979 
L 393.942109 283.963134 
L 394.591418 279.769689 
L 395.240727 292.178314 
L 395.890036 237.03701 
L 396.539345 265.39375 
L 397.188655 206.096445 
L 397.837964 255.736951 
L 398.487273 295.477943 
L 398.487273 295.477943 
" clip-path="url(#pe8423b26d0)" style="fill: none; stroke: #1f77b4; stroke-width: 1.5; stroke-linecap: square"/>
   </g>
   <g id="patch_3">
    <path d="M 57.6 307.584 
L 57.6 41.472 
" style="fill: none; stroke: #000000; stroke-width: 0.8; stroke-linejoin: miter; stroke-linecap: square"/>
   </g>
   <g id="patch_4">
    <path d="M 414.72 307.584 
L 414.72 41.472 
" style="fill: none; stroke: #000000; stroke-width: 0.8; stroke-linejoin: miter; stroke-linecap: square"/>
   </g>
   <g id="patch_5">
    <path d="M 57.6 307.584 
L 414.72 307.584 
" style="fill: none; stroke: #000000; stroke-width: 0.8; stroke-linejoin: miter; stroke-linecap: square"/>
   </g>
   <g id="patch_6">
    <path d="M 57.6 41.472 
L 414.72 41.472 
" style="fill: none; stroke: #000000; stroke-width: 0.8; stroke-linejoin: miter; stroke-linecap: square"/>
   </g>
  </g>
 </g>
 <defs>
  <clipPath id="pe8423b26d0">
   <rect x="57.6" y="41.472" width="357.12" height="266.112"/>
  </clipPath>
 </defs>
</svg>
