<?xml version="1.0" encoding="utf-8" standalone="no"?>
<!DOCTYPE svg PUBLIC "-//W3C//DTD SVG 1.1//EN"
  "http://www.w3.org/Graphics/SVG/1.1/DTD/svg11.dtd">
<!-- Created with matplotlib (https://matplotlib.org/) -->
<svg height="288pt" version="1.1" viewBox="0 0 432 288" width="432pt" xmlns="http://www.w3.org/2000/svg" xmlns:xlink="http://www.w3.org/1999/xlink">
 <defs>
  <style type="text/css">
*{stroke-linecap:butt;stroke-linejoin:round;}
  </style>
 </defs>
 <g id="figure_1">
  <g id="patch_1">
   <path d="M 0 288 
L 432 288 
L 432 0 
L 0 0 
z
" style="fill:none;"/>
  </g>
  <g id="axes_1">
   <g id="patch_2">
    <path d="M 54 252 
L 388.8 252 
L 388.8 34.56 
L 54 34.56 
z
" style="fill:none;"/>
   </g>
   <g id="patch_3">
    <path clip-path="url(#pa1404446a6)" d="M 69.218182 252 
L 74.376888 252 
L 74.376888 228.236066 
L 69.218182 228.236066 
z
" style="fill:#1f77b4;"/>
   </g>
   <g id="patch_4">
    <path clip-path="url(#pa1404446a6)" d="M 74.376888 252 
L 79.535593 252 
L 79.535593 176.529923 
L 74.376888 176.529923 
z
" style="fill:#1f77b4;"/>
   </g>
   <g id="patch_5">
    <path clip-path="url(#pa1404446a6)" d="M 79.535593 252 
L 84.694299 252 
L 84.694299 129.263196 
L 79.535593 129.263196 
z
" style="fill:#1f77b4;"/>
   </g>
   <g id="patch_6">
    <path clip-path="url(#pa1404446a6)" d="M 84.694299 252 
L 89.853005 252 
L 89.853005 79.907332 
L 84.694299 79.907332 
z
" style="fill:#1f77b4;"/>
   </g>
   <g id="patch_7">
    <path clip-path="url(#pa1404446a6)" d="M 89.853005 252 
L 95.01171 252 
L 95.01171 65.02223 
L 89.853005 65.02223 
z
" style="fill:#1f77b4;"/>
   </g>
   <g id="patch_8">
    <path clip-path="url(#pa1404446a6)" d="M 95.01171 252 
L 100.170416 252 
L 100.170416 44.914286 
L 95.01171 44.914286 
z
" style="fill:#1f77b4;"/>
   </g>
   <g id="patch_9">
    <path clip-path="url(#pa1404446a6)" d="M 100.170416 252 
L 105.329122 252 
L 105.329122 56.143398 
L 100.170416 56.143398 
z
" style="fill:#1f77b4;"/>
   </g>
   <g id="patch_10">
    <path clip-path="url(#pa1404446a6)" d="M 105.329122 252 
L 110.487827 252 
L 110.487827 56.926824 
L 105.329122 56.926824 
z
" style="fill:#1f77b4;"/>
   </g>
   <g id="patch_11">
    <path clip-path="url(#pa1404446a6)" d="M 110.487827 252 
L 115.646533 252 
L 115.646533 63.977662 
L 110.487827 63.977662 
z
" style="fill:#1f77b4;"/>
   </g>
   <g id="patch_12">
    <path clip-path="url(#pa1404446a6)" d="M 115.646533 252 
L 120.805239 252 
L 120.805239 86.95817 
L 115.646533 86.95817 
z
" style="fill:#1f77b4;"/>
   </g>
   <g id="patch_13">
    <path clip-path="url(#pa1404446a6)" d="M 120.805239 252 
L 125.963945 252 
L 125.963945 107.066114 
L 120.805239 107.066114 
z
" style="fill:#1f77b4;"/>
   </g>
   <g id="patch_14">
    <path clip-path="url(#pa1404446a6)" d="M 125.963945 252 
L 131.12265 252 
L 131.12265 114.900378 
L 125.963945 114.900378 
z
" style="fill:#1f77b4;"/>
   </g>
   <g id="patch_15">
    <path clip-path="url(#pa1404446a6)" d="M 131.12265 252 
L 136.281356 252 
L 136.281356 137.880886 
L 131.12265 137.880886 
z
" style="fill:#1f77b4;"/>
   </g>
   <g id="patch_16">
    <path clip-path="url(#pa1404446a6)" d="M 136.281356 252 
L 141.440062 252 
L 141.440062 145.192866 
L 136.281356 145.192866 
z
" style="fill:#1f77b4;"/>
   </g>
   <g id="patch_17">
    <path clip-path="url(#pa1404446a6)" d="M 141.440062 252 
L 146.598767 252 
L 146.598767 151.460277 
L 141.440062 151.460277 
z
" style="fill:#1f77b4;"/>
   </g>
   <g id="patch_18">
    <path clip-path="url(#pa1404446a6)" d="M 146.598767 252 
L 151.757473 252 
L 151.757473 178.61906 
L 146.598767 178.61906 
z
" style="fill:#1f77b4;"/>
   </g>
   <g id="patch_19">
    <path clip-path="url(#pa1404446a6)" d="M 151.757473 252 
L 156.916179 252 
L 156.916179 184.103044 
L 151.757473 184.103044 
z
" style="fill:#1f77b4;"/>
   </g>
   <g id="patch_20">
    <path clip-path="url(#pa1404446a6)" d="M 156.916179 252 
L 162.074884 252 
L 162.074884 198.465862 
L 156.916179 198.465862 
z
" style="fill:#1f77b4;"/>
   </g>
   <g id="patch_21">
    <path clip-path="url(#pa1404446a6)" d="M 162.074884 252 
L 167.23359 252 
L 167.23359 201.338426 
L 162.074884 201.338426 
z
" style="fill:#1f77b4;"/>
   </g>
   <g id="patch_22">
    <path clip-path="url(#pa1404446a6)" d="M 167.23359 252 
L 172.392296 252 
L 172.392296 215.701243 
L 167.23359 215.701243 
z
" style="fill:#1f77b4;"/>
   </g>
   <g id="patch_23">
    <path clip-path="url(#pa1404446a6)" d="M 172.392296 252 
L 177.551002 252 
L 177.551002 218.834949 
L 172.392296 218.834949 
z
" style="fill:#1f77b4;"/>
   </g>
   <g id="patch_24">
    <path clip-path="url(#pa1404446a6)" d="M 177.551002 252 
L 182.709707 252 
L 182.709707 225.10236 
L 177.551002 225.10236 
z
" style="fill:#1f77b4;"/>
   </g>
   <g id="patch_25">
    <path clip-path="url(#pa1404446a6)" d="M 182.709707 252 
L 187.868413 252 
L 187.868413 234.503477 
L 182.709707 234.503477 
z
" style="fill:#1f77b4;"/>
   </g>
   <g id="patch_26">
    <path clip-path="url(#pa1404446a6)" d="M 187.868413 252 
L 193.027119 252 
L 193.027119 231.892055 
L 187.868413 231.892055 
z
" style="fill:#1f77b4;"/>
   </g>
   <g id="patch_27">
    <path clip-path="url(#pa1404446a6)" d="M 193.027119 252 
L 198.185824 252 
L 198.185824 235.025761 
L 193.027119 235.025761 
z
" style="fill:#1f77b4;"/>
   </g>
   <g id="patch_28">
    <path clip-path="url(#pa1404446a6)" d="M 198.185824 252 
L 203.34453 252 
L 203.34453 236.853756 
L 198.185824 236.853756 
z
" style="fill:#1f77b4;"/>
   </g>
   <g id="patch_29">
    <path clip-path="url(#pa1404446a6)" d="M 203.34453 252 
L 208.503236 252 
L 208.503236 239.465177 
L 203.34453 239.465177 
z
" style="fill:#1f77b4;"/>
   </g>
   <g id="patch_30">
    <path clip-path="url(#pa1404446a6)" d="M 208.503236 252 
L 213.661941 252 
L 213.661941 243.121167 
L 208.503236 243.121167 
z
" style="fill:#1f77b4;"/>
   </g>
   <g id="patch_31">
    <path clip-path="url(#pa1404446a6)" d="M 213.661941 252 
L 218.820647 252 
L 218.820647 243.904594 
L 213.661941 243.904594 
z
" style="fill:#1f77b4;"/>
   </g>
   <g id="patch_32">
    <path clip-path="url(#pa1404446a6)" d="M 218.820647 252 
L 223.979353 252 
L 223.979353 245.471447 
L 218.820647 245.471447 
z
" style="fill:#1f77b4;"/>
   </g>
   <g id="patch_33">
    <path clip-path="url(#pa1404446a6)" d="M 223.979353 252 
L 229.138059 252 
L 229.138059 247.038299 
L 223.979353 247.038299 
z
" style="fill:#1f77b4;"/>
   </g>
   <g id="patch_34">
    <path clip-path="url(#pa1404446a6)" d="M 229.138059 252 
L 234.296764 252 
L 234.296764 248.082868 
L 229.138059 248.082868 
z
" style="fill:#1f77b4;"/>
   </g>
   <g id="patch_35">
    <path clip-path="url(#pa1404446a6)" d="M 234.296764 252 
L 239.45547 252 
L 239.45547 248.605152 
L 234.296764 248.605152 
z
" style="fill:#1f77b4;"/>
   </g>
   <g id="patch_36">
    <path clip-path="url(#pa1404446a6)" d="M 239.45547 252 
L 244.614176 252 
L 244.614176 249.649721 
L 239.45547 249.649721 
z
" style="fill:#1f77b4;"/>
   </g>
   <g id="patch_37">
    <path clip-path="url(#pa1404446a6)" d="M 244.614176 252 
L 249.772881 252 
L 249.772881 249.910863 
L 244.614176 249.910863 
z
" style="fill:#1f77b4;"/>
   </g>
   <g id="patch_38">
    <path clip-path="url(#pa1404446a6)" d="M 249.772881 252 
L 254.931587 252 
L 254.931587 249.649721 
L 249.772881 249.649721 
z
" style="fill:#1f77b4;"/>
   </g>
   <g id="patch_39">
    <path clip-path="url(#pa1404446a6)" d="M 254.931587 252 
L 260.090293 252 
L 260.090293 251.216574 
L 254.931587 251.216574 
z
" style="fill:#1f77b4;"/>
   </g>
   <g id="patch_40">
    <path clip-path="url(#pa1404446a6)" d="M 260.090293 252 
L 265.248998 252 
L 265.248998 250.433147 
L 260.090293 250.433147 
z
" style="fill:#1f77b4;"/>
   </g>
   <g id="patch_41">
    <path clip-path="url(#pa1404446a6)" d="M 265.248998 252 
L 270.407704 252 
L 270.407704 250.955431 
L 265.248998 250.955431 
z
" style="fill:#1f77b4;"/>
   </g>
   <g id="patch_42">
    <path clip-path="url(#pa1404446a6)" d="M 270.407704 252 
L 275.56641 252 
L 275.56641 250.694289 
L 270.407704 250.694289 
z
" style="fill:#1f77b4;"/>
   </g>
   <g id="patch_43">
    <path clip-path="url(#pa1404446a6)" d="M 275.56641 252 
L 280.725116 252 
L 280.725116 250.694289 
L 275.56641 250.694289 
z
" style="fill:#1f77b4;"/>
   </g>
   <g id="patch_44">
    <path clip-path="url(#pa1404446a6)" d="M 280.725116 252 
L 285.883821 252 
L 285.883821 250.955431 
L 280.725116 250.955431 
z
" style="fill:#1f77b4;"/>
   </g>
   <g id="patch_45">
    <path clip-path="url(#pa1404446a6)" d="M 285.883821 252 
L 291.042527 252 
L 291.042527 251.216574 
L 285.883821 251.216574 
z
" style="fill:#1f77b4;"/>
   </g>
   <g id="patch_46">
    <path clip-path="url(#pa1404446a6)" d="M 291.042527 252 
L 296.201233 252 
L 296.201233 252 
L 291.042527 252 
z
" style="fill:#1f77b4;"/>
   </g>
   <g id="patch_47">
    <path clip-path="url(#pa1404446a6)" d="M 296.201233 252 
L 301.359938 252 
L 301.359938 251.738858 
L 296.201233 251.738858 
z
" style="fill:#1f77b4;"/>
   </g>
   <g id="patch_48">
    <path clip-path="url(#pa1404446a6)" d="M 301.359938 252 
L 306.518644 252 
L 306.518644 251.477716 
L 301.359938 251.477716 
z
" style="fill:#1f77b4;"/>
   </g>
   <g id="patch_49">
    <path clip-path="url(#pa1404446a6)" d="M 306.518644 252 
L 311.67735 252 
L 311.67735 251.738858 
L 306.518644 251.738858 
z
" style="fill:#1f77b4;"/>
   </g>
   <g id="patch_50">
    <path clip-path="url(#pa1404446a6)" d="M 311.67735 252 
L 316.836055 252 
L 316.836055 252 
L 311.67735 252 
z
" style="fill:#1f77b4;"/>
   </g>
   <g id="patch_51">
    <path clip-path="url(#pa1404446a6)" d="M 316.836055 252 
L 321.994761 252 
L 321.994761 252 
L 316.836055 252 
z
" style="fill:#1f77b4;"/>
   </g>
   <g id="patch_52">
    <path clip-path="url(#pa1404446a6)" d="M 321.994761 252 
L 327.153467 252 
L 327.153467 252 
L 321.994761 252 
z
" style="fill:#1f77b4;"/>
   </g>
   <g id="patch_53">
    <path clip-path="url(#pa1404446a6)" d="M 327.153467 252 
L 332.312173 252 
L 332.312173 251.738858 
L 327.153467 251.738858 
z
" style="fill:#1f77b4;"/>
   </g>
   <g id="patch_54">
    <path clip-path="url(#pa1404446a6)" d="M 332.312173 252 
L 337.470878 252 
L 337.470878 252 
L 332.312173 252 
z
" style="fill:#1f77b4;"/>
   </g>
   <g id="patch_55">
    <path clip-path="url(#pa1404446a6)" d="M 337.470878 252 
L 342.629584 252 
L 342.629584 252 
L 337.470878 252 
z
" style="fill:#1f77b4;"/>
   </g>
   <g id="patch_56">
    <path clip-path="url(#pa1404446a6)" d="M 342.629584 252 
L 347.78829 252 
L 347.78829 252 
L 342.629584 252 
z
" style="fill:#1f77b4;"/>
   </g>
   <g id="patch_57">
    <path clip-path="url(#pa1404446a6)" d="M 347.78829 252 
L 352.946995 252 
L 352.946995 252 
L 347.78829 252 
z
" style="fill:#1f77b4;"/>
   </g>
   <g id="patch_58">
    <path clip-path="url(#pa1404446a6)" d="M 352.946995 252 
L 358.105701 252 
L 358.105701 252 
L 352.946995 252 
z
" style="fill:#1f77b4;"/>
   </g>
   <g id="patch_59">
    <path clip-path="url(#pa1404446a6)" d="M 358.105701 252 
L 363.264407 252 
L 363.264407 252 
L 358.105701 252 
z
" style="fill:#1f77b4;"/>
   </g>
   <g id="patch_60">
    <path clip-path="url(#pa1404446a6)" d="M 363.264407 252 
L 368.423112 252 
L 368.423112 252 
L 363.264407 252 
z
" style="fill:#1f77b4;"/>
   </g>
   <g id="patch_61">
    <path clip-path="url(#pa1404446a6)" d="M 368.423112 252 
L 373.581818 252 
L 373.581818 252 
L 368.423112 252 
z
" style="fill:#1f77b4;"/>
   </g>
   <g id="matplotlib.axis_1">
    <g id="xtick_1">
     <g id="line2d_1">
      <defs>
       <path d="M 0 0 
L 0 3.5 
" id="m067ddba04b" style="stroke:#000000;stroke-width:0.8;"/>
      </defs>
      <g>
       <use style="stroke:#000000;stroke-width:0.8;" x="69.218182" xlink:href="#m067ddba04b" y="252"/>
      </g>
     </g>
     <g id="text_1">
      <!-- 0 -->
      <defs>
       <path d="M 23.921875 1.8125 
Q 31.109375 1.8125 33.78125 9.671875 
Q 36.46875 17.53125 36.46875 32.421875 
Q 36.46875 44.28125 34.859375 51.375 
Q 31.84375 64.546875 23.53125 64.546875 
Q 15.234375 64.546875 12.15625 50.984375 
Q 10.546875 43.75 10.546875 31.9375 
Q 10.546875 20.84375 12.203125 14.203125 
Q 15.328125 1.8125 23.921875 1.8125 
z
M 23.78125 67.1875 
Q 35.015625 67.1875 41.21875 55.421875 
Q 46.140625 45.90625 46.140625 33.546875 
Q 46.140625 23.828125 43.109375 15.234375 
Q 37.40625 -0.921875 23.34375 -0.921875 
Q 13.71875 -0.921875 7.515625 7.8125 
Q 0.875 17.140625 0.875 33.15625 
Q 0.875 45.75 5.328125 54.828125 
Q 11.328125 67.1875 23.78125 67.1875 
z
" id="Times-Roman-48"/>
      </defs>
      <g transform="translate(66.218182 267.2275)scale(0.12 -0.12)">
       <use xlink:href="#Times-Roman-48"/>
      </g>
     </g>
    </g>
    <g id="xtick_2">
     <g id="line2d_2">
      <g>
       <use style="stroke:#000000;stroke-width:0.8;" x="120.805239" xlink:href="#m067ddba04b" y="252"/>
      </g>
     </g>
     <g id="text_2">
      <!-- 5 -->
      <defs>
       <path d="M 7.46875 8.9375 
Q 10.25 8.9375 14.765625 5.78125 
Q 19.28125 2.640625 21.734375 2.640625 
Q 27.34375 2.640625 31.546875 7.59375 
Q 35.75 12.546875 35.75 19.78125 
Q 35.75 32.421875 22.265625 37.984375 
Q 14.796875 41.0625 8.34375 41.0625 
Q 7.28125 41.0625 7 41.140625 
Q 6.734375 41.21875 6.34375 41.65625 
Q 6.453125 42.046875 6.515625 42.3125 
Q 6.59375 42.578125 6.6875 42.828125 
L 17.328125 66.15625 
L 38.28125 66.15625 
Q 39.84375 66.15625 40.6875 66.6875 
Q 41.546875 67.234375 42.921875 68.703125 
L 43.703125 68.015625 
L 39.890625 58.984375 
Q 39.703125 58.546875 38.8125 58.421875 
Q 37.9375 58.296875 36.921875 58.296875 
L 18.015625 58.296875 
L 13.875 49.75 
Q 21.875 48.390625 25.59375 47.171875 
Q 31.6875 45.125 35.796875 41.109375 
Q 39.3125 37.640625 41.109375 33.3125 
Q 42.921875 29 42.921875 24.171875 
Q 42.921875 13.375 35.234375 6.140625 
Q 27.546875 -1.078125 15.765625 -1.078125 
Q 10.984375 -1.078125 8.0625 -0.140625 
Q 3.171875 1.375 3.171875 5.28125 
Q 3.171875 6.734375 4.21875 7.828125 
Q 5.28125 8.9375 7.46875 8.9375 
z
" id="Times-Roman-53"/>
      </defs>
      <g transform="translate(117.805239 267.2275)scale(0.12 -0.12)">
       <use xlink:href="#Times-Roman-53"/>
      </g>
     </g>
    </g>
    <g id="xtick_3">
     <g id="line2d_3">
      <g>
       <use style="stroke:#000000;stroke-width:0.8;" x="172.392296" xlink:href="#m067ddba04b" y="252"/>
      </g>
     </g>
     <g id="text_3">
      <!-- 10 -->
      <defs>
       <path d="M 29.59375 67.09375 
Q 29.78125 66.84375 29.796875 66.71875 
Q 29.828125 66.609375 29.828125 66.15625 
L 29.828125 7.375 
Q 29.828125 3.609375 31.828125 2.578125 
Q 33.84375 1.5625 39.3125 1.375 
L 39.3125 0 
L 11.765625 0 
L 11.765625 1.46875 
Q 17.671875 1.765625 19.484375 3.078125 
Q 21.296875 4.390625 21.296875 8.796875 
L 21.296875 54 
Q 21.296875 56.34375 20.703125 57.5625 
Q 20.125 58.796875 18.171875 58.796875 
Q 16.890625 58.796875 14.859375 58.078125 
Q 12.84375 57.375 11.078125 56.59375 
L 11.078125 57.953125 
L 29 67.09375 
L 29.59375 67.09375 
z
" id="Times-Roman-49"/>
      </defs>
      <g transform="translate(166.392296 267.2275)scale(0.12 -0.12)">
       <use xlink:href="#Times-Roman-49"/>
       <use x="50" xlink:href="#Times-Roman-48"/>
      </g>
     </g>
    </g>
    <g id="xtick_4">
     <g id="line2d_4">
      <g>
       <use style="stroke:#000000;stroke-width:0.8;" x="223.979353" xlink:href="#m067ddba04b" y="252"/>
      </g>
     </g>
     <g id="text_4">
      <!-- 15 -->
      <g transform="translate(217.979353 267.2275)scale(0.12 -0.12)">
       <use xlink:href="#Times-Roman-49"/>
       <use x="50" xlink:href="#Times-Roman-53"/>
      </g>
     </g>
    </g>
    <g id="xtick_5">
     <g id="line2d_5">
      <g>
       <use style="stroke:#000000;stroke-width:0.8;" x="275.56641" xlink:href="#m067ddba04b" y="252"/>
      </g>
     </g>
     <g id="text_5">
      <!-- 20 -->
      <defs>
       <path d="M 2.984375 1.125 
Q 20.84375 19.671875 27.234375 28.359375 
Q 33.640625 37.0625 33.640625 45.3125 
Q 33.640625 52.546875 29.734375 56.328125 
Q 25.828125 60.109375 20.40625 60.109375 
Q 13.71875 60.109375 9.578125 55.21875 
Q 7.28125 52.546875 5.171875 46.96875 
L 3.078125 47.40625 
Q 5.515625 58.640625 11.34375 63.015625 
Q 17.1875 67.390625 23.875 67.390625 
Q 32.125 67.390625 37.21875 62.1875 
Q 42.328125 56.984375 42.328125 49.46875 
Q 42.328125 41.453125 36.8125 34.03125 
Q 31.296875 26.609375 12.84375 7.625 
L 35.25 7.625 
Q 39.9375 7.625 41.84375 8.734375 
Q 43.75 9.859375 46.140625 14.203125 
L 47.40625 13.625 
L 42 0 
L 2.984375 0 
z
" id="Times-Roman-50"/>
      </defs>
      <g transform="translate(269.56641 267.2275)scale(0.12 -0.12)">
       <use xlink:href="#Times-Roman-50"/>
       <use x="50" xlink:href="#Times-Roman-48"/>
      </g>
     </g>
    </g>
    <g id="xtick_6">
     <g id="line2d_6">
      <g>
       <use style="stroke:#000000;stroke-width:0.8;" x="327.153467" xlink:href="#m067ddba04b" y="252"/>
      </g>
     </g>
     <g id="text_6">
      <!-- 25 -->
      <g transform="translate(321.153467 267.2275)scale(0.12 -0.12)">
       <use xlink:href="#Times-Roman-50"/>
       <use x="50" xlink:href="#Times-Roman-53"/>
      </g>
     </g>
    </g>
    <g id="xtick_7">
     <g id="line2d_7">
      <g>
       <use style="stroke:#000000;stroke-width:0.8;" x="378.740524" xlink:href="#m067ddba04b" y="252"/>
      </g>
     </g>
     <g id="text_7">
      <!-- 30 -->
      <defs>
       <path d="M 7.765625 8.5 
Q 10.453125 8.5 14.859375 5.71875 
Q 19.28125 2.9375 22.359375 2.9375 
Q 29.203125 2.9375 32.515625 7.546875 
Q 35.84375 12.15625 35.84375 17.578125 
Q 35.84375 22.796875 33.15625 26.765625 
Q 28.609375 33.453125 17.828125 33.453125 
Q 17.1875 33.453125 16.59375 33.421875 
Q 16.015625 33.40625 15.234375 33.296875 
L 15.140625 34.578125 
Q 22.953125 37.40625 27.4375 41.0625 
Q 31.9375 44.734375 31.9375 50.734375 
Q 31.9375 56.0625 28.390625 58.84375 
Q 24.859375 61.625 20.3125 61.625 
Q 14.9375 61.625 10.84375 57.671875 
Q 8.59375 55.515625 6 51.03125 
L 4.5 51.375 
Q 6.453125 58.796875 11.765625 63.234375 
Q 17.09375 67.671875 24.078125 67.671875 
Q 31.546875 67.671875 35.625 63.5625 
Q 39.703125 59.46875 39.703125 54.109375 
Q 39.703125 49.359375 36.328125 45.40625 
Q 34.421875 43.171875 30.421875 40.375 
Q 35.109375 38.375 37.9375 35.6875 
Q 43.265625 30.5625 43.265625 22.703125 
Q 43.265625 13.421875 35.953125 6.34375 
Q 28.65625 -0.734375 15.1875 -0.734375 
Q 9.1875 -0.734375 6.765625 1.046875 
Q 4.34375 2.828125 4.34375 4.890625 
Q 4.34375 6.15625 5.140625 7.328125 
Q 5.953125 8.5 7.765625 8.5 
z
" id="Times-Roman-51"/>
      </defs>
      <g transform="translate(372.740524 267.2275)scale(0.12 -0.12)">
       <use xlink:href="#Times-Roman-51"/>
       <use x="50" xlink:href="#Times-Roman-48"/>
      </g>
     </g>
    </g>
    <g id="text_8">
     <!-- $Y$ -->
     <defs>
      <path d="M 6.296875 72.90625 
L 16.890625 72.90625 
L 30.515625 42.921875 
L 56.5 72.90625 
L 67.578125 72.90625 
L 34.515625 34.71875 
L 27.78125 0 
L 17.921875 0 
L 24.609375 34.71875 
z
" id="DejaVuSans-Oblique-89"/>
     </defs>
     <g transform="translate(217.68 282.06875)scale(0.12 -0.12)">
      <use transform="translate(0 0.09375)" xlink:href="#DejaVuSans-Oblique-89"/>
     </g>
    </g>
   </g>
   <g id="matplotlib.axis_2">
    <g id="ytick_1">
     <g id="line2d_8">
      <defs>
       <path d="M 0 0 
L -3.5 0 
" id="m15d614a803" style="stroke:#000000;stroke-width:0.8;"/>
      </defs>
      <g>
       <use style="stroke:#000000;stroke-width:0.8;" x="54" xlink:href="#m15d614a803" y="252"/>
      </g>
     </g>
     <g id="text_9">
      <!-- 0.00 -->
      <defs>
       <path d="M 16.3125 -1.171875 
Q 13.96875 -1.171875 12.359375 0.453125 
Q 10.75 2.09375 10.75 4.390625 
Q 10.75 6.6875 12.375 8.296875 
Q 14.015625 9.90625 16.3125 9.90625 
Q 18.609375 9.90625 20.21875 8.296875 
Q 21.828125 6.6875 21.828125 4.390625 
Q 21.828125 2.09375 20.234375 0.453125 
Q 18.65625 -1.171875 16.3125 -1.171875 
z
" id="Times-Roman-46"/>
      </defs>
      <g transform="translate(26 256.11375)scale(0.12 -0.12)">
       <use xlink:href="#Times-Roman-48"/>
       <use x="50" xlink:href="#Times-Roman-46"/>
       <use x="75" xlink:href="#Times-Roman-48"/>
       <use x="125" xlink:href="#Times-Roman-48"/>
      </g>
     </g>
    </g>
    <g id="ytick_2">
     <g id="line2d_9">
      <g>
       <use style="stroke:#000000;stroke-width:0.8;" x="54" xlink:href="#m15d614a803" y="225.885786"/>
      </g>
     </g>
     <g id="text_10">
      <!-- 0.02 -->
      <g transform="translate(26 229.999536)scale(0.12 -0.12)">
       <use xlink:href="#Times-Roman-48"/>
       <use x="50" xlink:href="#Times-Roman-46"/>
       <use x="75" xlink:href="#Times-Roman-48"/>
       <use x="125" xlink:href="#Times-Roman-50"/>
      </g>
     </g>
    </g>
    <g id="ytick_3">
     <g id="line2d_10">
      <g>
       <use style="stroke:#000000;stroke-width:0.8;" x="54" xlink:href="#m15d614a803" y="199.771573"/>
      </g>
     </g>
     <g id="text_11">
      <!-- 0.04 -->
      <defs>
       <path d="M 29.15625 57.03125 
L 5.171875 23.140625 
L 29.15625 23.140625 
z
M 32.375 67.09375 
L 37.015625 67.09375 
L 37.015625 23.140625 
L 47.21875 23.140625 
L 47.21875 16.65625 
L 37.015625 16.65625 
L 37.015625 0 
L 29.25 0 
L 29.25 16.65625 
L 1.125 16.65625 
L 1.125 23.140625 
z
" id="Times-Roman-52"/>
      </defs>
      <g transform="translate(26 203.885323)scale(0.12 -0.12)">
       <use xlink:href="#Times-Roman-48"/>
       <use x="50" xlink:href="#Times-Roman-46"/>
       <use x="75" xlink:href="#Times-Roman-48"/>
       <use x="125" xlink:href="#Times-Roman-52"/>
      </g>
     </g>
    </g>
    <g id="ytick_4">
     <g id="line2d_11">
      <g>
       <use style="stroke:#000000;stroke-width:0.8;" x="54" xlink:href="#m15d614a803" y="173.657359"/>
      </g>
     </g>
     <g id="text_12">
      <!-- 0.06 -->
      <defs>
       <path d="M 46.78125 22.21875 
Q 46.78125 13.28125 41.03125 6.09375 
Q 35.296875 -1.078125 26.125 -1.078125 
Q 17.53125 -1.078125 10.46875 6.984375 
Q 3.421875 15.046875 3.421875 28.421875 
Q 3.421875 45.65625 17.09375 58.015625 
Q 29.296875 68.359375 44.53125 68.359375 
L 44.78125 66.75 
Q 38.671875 65.625 34.25 63.6875 
Q 29.828125 61.765625 26.375 58.296875 
Q 22.796875 54.78125 19.671875 49.359375 
Q 16.546875 43.953125 15.375 38.625 
Q 18.40625 40.484375 20.609375 41.359375 
Q 24.515625 42.921875 28.46875 42.921875 
Q 36.234375 42.921875 41.5 37.546875 
Q 46.78125 32.171875 46.78125 22.21875 
z
M 37.84375 18.453125 
Q 37.84375 24.953125 35.796875 29.984375 
Q 32.375 38.375 24.171875 38.375 
Q 16.609375 38.375 14.109375 33.890625 
Q 12.640625 31.25 12.640625 25.09375 
Q 12.640625 17.140625 16.03125 9.515625 
Q 19.4375 1.90625 26.765625 1.90625 
Q 32.5625 1.90625 35.203125 6.859375 
Q 37.84375 11.8125 37.84375 18.453125 
z
" id="Times-Roman-54"/>
      </defs>
      <g transform="translate(26 177.771109)scale(0.12 -0.12)">
       <use xlink:href="#Times-Roman-48"/>
       <use x="50" xlink:href="#Times-Roman-46"/>
       <use x="75" xlink:href="#Times-Roman-48"/>
       <use x="125" xlink:href="#Times-Roman-54"/>
      </g>
     </g>
    </g>
    <g id="ytick_5">
     <g id="line2d_12">
      <g>
       <use style="stroke:#000000;stroke-width:0.8;" x="54" xlink:href="#m15d614a803" y="147.543145"/>
      </g>
     </g>
     <g id="text_13">
      <!-- 0.08 -->
      <defs>
       <path d="M 25.140625 1.65625 
Q 30.765625 1.65625 33.640625 4.78125 
Q 36.53125 7.90625 36.53125 12.59375 
Q 36.53125 17.921875 33.46875 21.21875 
Q 30.421875 24.515625 20.953125 31.203125 
Q 16.75 28.5625 14.84375 24.359375 
Q 12.9375 20.171875 12.9375 16.265625 
Q 12.9375 9.578125 16.375 5.609375 
Q 19.828125 1.65625 25.140625 1.65625 
z
M 25.78125 38.96875 
Q 30.375 42.1875 32.125 44.390625 
Q 35.15625 48.140625 35.15625 53.46875 
Q 35.15625 58.109375 32.296875 61.34375 
Q 29.4375 64.59375 23.640625 64.59375 
Q 19.140625 64.59375 16.203125 61.765625 
Q 13.28125 58.9375 13.28125 54.890625 
Q 13.28125 50.296875 16.71875 46.359375 
Q 20.171875 42.4375 25.78125 38.96875 
z
M 18.265625 33.296875 
Q 11.8125 38.484375 9.46875 41.546875 
Q 5.859375 46.234375 5.859375 51.90625 
Q 5.859375 58.34375 11.203125 62.828125 
Q 16.546875 67.328125 25.09375 67.328125 
Q 32.953125 67.328125 37.59375 63.078125 
Q 42.234375 58.84375 42.234375 53.21875 
Q 42.234375 47.515625 37.5 42.96875 
Q 34.765625 40.375 28.65625 37.015625 
Q 36.96875 30.859375 40.546875 26.296875 
Q 44.140625 21.734375 44.140625 15.53125 
Q 44.140625 8.5 38.84375 3.703125 
Q 33.546875 -1.078125 24.65625 -1.078125 
Q 16.703125 -1.078125 11.015625 3.34375 
Q 5.328125 7.765625 5.328125 14.984375 
Q 5.328125 21.1875 9.28125 25.921875 
Q 11.859375 29 18.265625 33.296875 
z
" id="Times-Roman-56"/>
      </defs>
      <g transform="translate(26 151.656895)scale(0.12 -0.12)">
       <use xlink:href="#Times-Roman-48"/>
       <use x="50" xlink:href="#Times-Roman-46"/>
       <use x="75" xlink:href="#Times-Roman-48"/>
       <use x="125" xlink:href="#Times-Roman-56"/>
      </g>
     </g>
    </g>
    <g id="ytick_6">
     <g id="line2d_13">
      <g>
       <use style="stroke:#000000;stroke-width:0.8;" x="54" xlink:href="#m15d614a803" y="121.428932"/>
      </g>
     </g>
     <g id="text_14">
      <!-- 0.10 -->
      <g transform="translate(26 125.542682)scale(0.12 -0.12)">
       <use xlink:href="#Times-Roman-48"/>
       <use x="50" xlink:href="#Times-Roman-46"/>
       <use x="75" xlink:href="#Times-Roman-49"/>
       <use x="125" xlink:href="#Times-Roman-48"/>
      </g>
     </g>
    </g>
    <g id="ytick_7">
     <g id="line2d_14">
      <g>
       <use style="stroke:#000000;stroke-width:0.8;" x="54" xlink:href="#m15d614a803" y="95.314718"/>
      </g>
     </g>
     <g id="text_15">
      <!-- 0.12 -->
      <g transform="translate(26 99.428468)scale(0.12 -0.12)">
       <use xlink:href="#Times-Roman-48"/>
       <use x="50" xlink:href="#Times-Roman-46"/>
       <use x="75" xlink:href="#Times-Roman-49"/>
       <use x="125" xlink:href="#Times-Roman-50"/>
      </g>
     </g>
    </g>
    <g id="ytick_8">
     <g id="line2d_15">
      <g>
       <use style="stroke:#000000;stroke-width:0.8;" x="54" xlink:href="#m15d614a803" y="69.200504"/>
      </g>
     </g>
     <g id="text_16">
      <!-- 0.14 -->
      <g transform="translate(26 73.314254)scale(0.12 -0.12)">
       <use xlink:href="#Times-Roman-48"/>
       <use x="50" xlink:href="#Times-Roman-46"/>
       <use x="75" xlink:href="#Times-Roman-49"/>
       <use x="125" xlink:href="#Times-Roman-52"/>
      </g>
     </g>
    </g>
    <g id="ytick_9">
     <g id="line2d_16">
      <g>
       <use style="stroke:#000000;stroke-width:0.8;" x="54" xlink:href="#m15d614a803" y="43.086291"/>
      </g>
     </g>
     <g id="text_17">
      <!-- 0.16 -->
      <g transform="translate(26 47.200041)scale(0.12 -0.12)">
       <use xlink:href="#Times-Roman-48"/>
       <use x="50" xlink:href="#Times-Roman-46"/>
       <use x="75" xlink:href="#Times-Roman-49"/>
       <use x="125" xlink:href="#Times-Roman-54"/>
      </g>
     </g>
    </g>
    <g id="text_18">
     <!-- pdf($Y$) -->
     <defs>
      <path d="M 15.96875 8.984375 
Q 17.234375 5.671875 19.75 4.03125 
Q 22.265625 2.390625 25.6875 2.390625 
Q 30.953125 2.390625 34.6875 7.640625 
Q 38.421875 12.890625 38.421875 22.265625 
Q 38.421875 31.25 34.546875 35.6875 
Q 30.671875 40.140625 25.53125 40.140625 
Q 21.921875 40.140625 18.9375 37.90625 
Q 15.96875 35.6875 15.96875 33.546875 
L 15.96875 8.984375 
z
M 0.4375 -20.171875 
Q 5.03125 -19.875 6.265625 -18.203125 
Q 7.515625 -16.546875 7.515625 -12.984375 
L 7.515625 33.890625 
Q 7.515625 37.59375 6.609375 38.640625 
Q 5.71875 39.703125 3.21875 39.703125 
Q 2.6875 39.703125 2.21875 39.640625 
Q 1.765625 39.59375 0.875 39.453125 
L 0.875 41.0625 
L 5.515625 42.578125 
Q 5.765625 42.625 15.328125 45.953125 
Q 15.578125 45.953125 15.703125 45.734375 
Q 15.828125 45.515625 15.828125 45.21875 
L 15.828125 38.625 
Q 19.046875 41.84375 21.484375 43.40625 
Q 25.875 46.140625 30.515625 46.140625 
Q 37.25 46.140625 42.109375 40.40625 
Q 46.96875 34.671875 46.96875 24.703125 
Q 46.96875 14.9375 41.125 6.96875 
Q 35.296875 -0.984375 26.46875 -0.984375 
Q 23.734375 -0.984375 21.734375 -0.296875 
Q 18.609375 0.734375 15.96875 3.46875 
L 15.96875 -12.5 
Q 15.96875 -17.4375 17.578125 -18.546875 
Q 19.1875 -19.671875 24.609375 -20.0625 
L 24.609375 -21.78125 
L 0.4375 -21.78125 
z
" id="Times-Roman-112"/>
      <path d="M 23.6875 46.140625 
Q 27.25 46.140625 30.21875 44.578125 
Q 32.171875 43.5625 33.984375 41.75 
L 33.984375 57.28125 
Q 33.984375 60.25 33.328125 61.375 
Q 32.671875 62.5 30.171875 62.5 
Q 29.59375 62.5 29.15625 62.453125 
Q 28.71875 62.40625 27.203125 62.25 
L 27.203125 63.875 
L 31.203125 64.890625 
Q 33.40625 65.484375 35.59375 66.109375 
Q 37.796875 66.75 39.453125 67.328125 
Q 40.234375 67.578125 42.046875 68.265625 
L 42.328125 68.171875 
L 42.234375 63.03125 
Q 42.1875 60.25 42.140625 57.296875 
Q 42.09375 54.34375 42.09375 51.46875 
L 42 11.578125 
Q 42 8.40625 42.78125 7.125 
Q 43.5625 5.859375 46.921875 5.859375 
Q 47.46875 5.859375 48 5.875 
Q 48.53125 5.90625 49.078125 6 
L 49.078125 4.390625 
Q 48.78125 4.296875 42 1.953125 
L 34.328125 -0.921875 
L 33.984375 -0.484375 
L 33.984375 5.515625 
Q 31.25 2.546875 29.25 1.265625 
Q 25.6875 -0.921875 21 -0.921875 
Q 12.703125 -0.921875 7.546875 5.5 
Q 2.390625 11.921875 2.390625 20.359375 
Q 2.390625 30.953125 8.5625 38.546875 
Q 14.75 46.140625 23.6875 46.140625 
z
M 25.484375 4.34375 
Q 29.296875 4.34375 31.640625 6.59375 
Q 33.984375 8.84375 33.984375 10.84375 
L 33.984375 31.78125 
Q 33.984375 38.140625 30.59375 40.75 
Q 27.203125 43.359375 23.96875 43.359375 
Q 17.828125 43.359375 14.40625 37.90625 
Q 10.984375 32.46875 10.984375 24.515625 
Q 10.984375 16.65625 14.625 10.5 
Q 18.265625 4.34375 25.484375 4.34375 
z
" id="Times-Roman-100"/>
      <path d="M 1.953125 1.375 
Q 7.125 1.609375 8.765625 3.296875 
Q 10.40625 4.984375 10.40625 10.40625 
L 10.40625 41.75 
L 2.046875 41.75 
L 2.046875 45.015625 
L 10.40625 45.015625 
Q 10.40625 52.734375 12.5 58.0625 
Q 16.5 68.265625 27.203125 68.265625 
Q 31.5 68.265625 34.890625 66.546875 
Q 38.28125 64.84375 38.28125 61.96875 
Q 38.28125 60.359375 37.109375 59.078125 
Q 35.9375 57.8125 34.28125 57.8125 
Q 32.859375 57.8125 31.828125 58.65625 
Q 30.8125 59.515625 29.390625 61.671875 
L 28.5625 62.9375 
Q 27.875 63.96875 26.953125 64.671875 
Q 26.03125 65.375 24.359375 65.375 
Q 20.65625 65.375 19.34375 61.71875 
Q 18.609375 59.765625 18.609375 56.59375 
L 18.609375 45.015625 
L 30.859375 45.015625 
L 30.859375 41.75 
L 18.703125 41.75 
L 18.703125 10.40625 
Q 18.703125 4.890625 20.1875 3.34375 
Q 21.6875 1.8125 27.984375 1.375 
L 27.984375 0 
L 1.953125 0 
z
" id="Times-Roman-102"/>
      <path d="M 4.59375 25.09375 
Q 4.59375 42.09375 14.75 54.9375 
Q 21 62.796875 29.5 67.578125 
L 30.421875 65.96875 
Q 22.5625 59.71875 19.1875 53.8125 
Q 13.28125 43.5 13.28125 26.375 
Q 13.28125 13.671875 15.53125 5.421875 
Q 19.484375 -9.03125 30.421875 -16.21875 
L 29.15625 -17.828125 
Q 23.140625 -14.9375 16.15625 -6.546875 
Q 4.59375 7.375 4.59375 25.09375 
z
" id="Times-Roman-40"/>
      <path d="M 28.46875 24.609375 
Q 28.46875 17.328125 26.5625 10.828125 
Q 24.65625 4.34375 21 -1.421875 
Q 17.140625 -7.5625 10.6875 -12.890625 
Q 6.453125 -16.40625 3.5625 -17.828125 
L 2.640625 -16.21875 
Q 10.15625 -10.5 13.625 -4.546875 
Q 19.78125 6 19.78125 23.34375 
Q 19.78125 37.359375 16.9375 46.234375 
Q 12.984375 58.796875 2.640625 65.96875 
L 3.90625 67.578125 
Q 11.625 63.28125 18.265625 54.59375 
Q 28.46875 41.21875 28.46875 24.609375 
z
" id="Times-Roman-41"/>
     </defs>
     <g transform="translate(19.36 158.94)rotate(-90)scale(0.12 -0.12)">
      <use transform="translate(0 0.09375)" xlink:href="#Times-Roman-112"/>
      <use transform="translate(50 0.09375)" xlink:href="#Times-Roman-100"/>
      <use transform="translate(100 0.09375)" xlink:href="#Times-Roman-102"/>
      <use transform="translate(133.300781 0.09375)" xlink:href="#Times-Roman-40"/>
      <use transform="translate(166.601562 0.09375)" xlink:href="#DejaVuSans-Oblique-89"/>
      <use transform="translate(227.685547 0.09375)" xlink:href="#Times-Roman-41"/>
     </g>
    </g>
   </g>
   <g id="patch_62">
    <path d="M 54 252 
L 54 34.56 
" style="fill:none;stroke:#000000;stroke-linecap:square;stroke-linejoin:miter;stroke-width:0.8;"/>
   </g>
   <g id="patch_63">
    <path d="M 388.8 252 
L 388.8 34.56 
" style="fill:none;stroke:#000000;stroke-linecap:square;stroke-linejoin:miter;stroke-width:0.8;"/>
   </g>
   <g id="patch_64">
    <path d="M 54 252 
L 388.8 252 
" style="fill:none;stroke:#000000;stroke-linecap:square;stroke-linejoin:miter;stroke-width:0.8;"/>
   </g>
   <g id="patch_65">
    <path d="M 54 34.56 
L 388.8 34.56 
" style="fill:none;stroke:#000000;stroke-linecap:square;stroke-linejoin:miter;stroke-width:0.8;"/>
   </g>
   <g id="text_19">
    <!-- $Y=\sum_{i=1}^5 X_i^2$ ;   $X \sim{\mathcal{N}(0, 1)}$ -->
    <defs>
     <path d="M 10.59375 45.40625 
L 73.1875 45.40625 
L 73.1875 37.203125 
L 10.59375 37.203125 
z
M 10.59375 25.484375 
L 73.1875 25.484375 
L 73.1875 17.1875 
L 10.59375 17.1875 
z
" id="DejaVuSans-61"/>
     <path d="M 10.796875 72.90625 
L 49.515625 72.90625 
L 49.515625 64.59375 
L 19.828125 64.59375 
L 19.828125 46.734375 
Q 21.96875 47.46875 24.109375 47.828125 
Q 26.265625 48.1875 28.421875 48.1875 
Q 40.625 48.1875 47.75 41.5 
Q 54.890625 34.8125 54.890625 23.390625 
Q 54.890625 11.625 47.5625 5.09375 
Q 40.234375 -1.421875 26.90625 -1.421875 
Q 22.3125 -1.421875 17.546875 -0.640625 
Q 12.796875 0.140625 7.71875 1.703125 
L 7.71875 11.625 
Q 12.109375 9.234375 16.796875 8.0625 
Q 21.484375 6.890625 26.703125 6.890625 
Q 35.15625 6.890625 40.078125 11.328125 
Q 45.015625 15.765625 45.015625 23.390625 
Q 45.015625 31 40.078125 35.4375 
Q 35.15625 39.890625 26.703125 39.890625 
Q 22.75 39.890625 18.8125 39.015625 
Q 14.890625 38.140625 10.796875 36.28125 
z
" id="DejaVuSans-53"/>
     <path d="M 3.8125 101.703125 
L 90.671875 101.703125 
L 90.671875 88.375 
L 24.46875 88.375 
L 70.84375 38.875 
L 22.953125 -13.875 
L 92.484375 -13.875 
L 92.484375 -27.15625 
L 1.703125 -27.15625 
L 1.703125 -16.84375 
L 51.8125 38.484375 
L 3.8125 89.5 
z
" id="DejaVuSansDisplay-8721"/>
     <path d="M 18.3125 75.984375 
L 27.296875 75.984375 
L 25.09375 64.59375 
L 16.109375 64.59375 
z
M 14.203125 54.6875 
L 23.1875 54.6875 
L 12.5 0 
L 3.515625 0 
z
" id="DejaVuSans-Oblique-105"/>
     <path d="M 12.40625 8.296875 
L 28.515625 8.296875 
L 28.515625 63.921875 
L 10.984375 60.40625 
L 10.984375 69.390625 
L 28.421875 72.90625 
L 38.28125 72.90625 
L 38.28125 8.296875 
L 54.390625 8.296875 
L 54.390625 0 
L 12.40625 0 
z
" id="DejaVuSans-49"/>
     <path d="M 13.71875 72.90625 
L 23.6875 72.90625 
L 36.1875 46.578125 
L 58.796875 72.90625 
L 70.3125 72.90625 
L 40.28125 38.09375 
L 58.40625 0 
L 48.484375 0 
L 33.796875 30.71875 
L 7.171875 0 
L -4.296875 0 
L 29.78125 39.203125 
z
" id="DejaVuSans-Oblique-88"/>
     <path d="M 19.1875 8.296875 
L 53.609375 8.296875 
L 53.609375 0 
L 7.328125 0 
L 7.328125 8.296875 
Q 12.9375 14.109375 22.625 23.890625 
Q 32.328125 33.6875 34.8125 36.53125 
Q 39.546875 41.84375 41.421875 45.53125 
Q 43.3125 49.21875 43.3125 52.78125 
Q 43.3125 58.59375 39.234375 62.25 
Q 35.15625 65.921875 28.609375 65.921875 
Q 23.96875 65.921875 18.8125 64.3125 
Q 13.671875 62.703125 7.8125 59.421875 
L 7.8125 69.390625 
Q 13.765625 71.78125 18.9375 73 
Q 24.125 74.21875 28.421875 74.21875 
Q 39.75 74.21875 46.484375 68.546875 
Q 53.21875 62.890625 53.21875 53.421875 
Q 53.21875 48.921875 51.53125 44.890625 
Q 49.859375 40.875 45.40625 35.40625 
Q 44.1875 33.984375 37.640625 27.21875 
Q 31.109375 20.453125 19.1875 8.296875 
z
" id="DejaVuSans-50"/>
     <path id="Times-Roman-32"/>
     <path d="M 22.3125 1.03125 
Q 22.3125 -3.8125 18.796875 -8.078125 
Q 15.28125 -12.359375 11.078125 -14.265625 
L 10.15625 -12.3125 
Q 14.84375 -9.671875 16.625 -6.59375 
Q 18.40625 -3.515625 18.40625 -1.46875 
Q 18.40625 -0.78125 17.96875 -0.578125 
Q 17.53125 -0.390625 17.046875 -0.390625 
L 13.765625 -0.734375 
Q 11.71875 -0.734375 10 0.609375 
Q 8.296875 1.953125 8.296875 4.5 
Q 8.296875 6.453125 9.71875 8.296875 
Q 11.140625 10.15625 14.359375 10.15625 
Q 17.4375 10.15625 19.875 7.734375 
Q 22.3125 5.328125 22.3125 1.03125 
z
M 13.96875 34.8125 
Q 11.625 34.8125 10.03125 36.453125 
Q 8.453125 38.09375 8.453125 40.375 
Q 8.453125 42.671875 10.0625 44.3125 
Q 11.671875 45.953125 13.96875 45.953125 
Q 16.265625 45.953125 17.890625 44.3125 
Q 19.53125 42.671875 19.53125 40.375 
Q 19.53125 38.09375 17.921875 36.453125 
Q 16.3125 34.8125 13.96875 34.8125 
z
" id="Times-Roman-59"/>
     <path d="M 73.1875 39.9375 
L 73.1875 31.203125 
Q 68.0625 27.390625 63.6875 25.703125 
Q 59.328125 24.03125 54.59375 24.03125 
Q 49.21875 24.03125 42.09375 26.90625 
Q 41.609375 27.09375 41.265625 27.25 
Q 40.96875 27.34375 40.234375 27.640625 
Q 32.671875 30.609375 28.078125 30.609375 
Q 23.78125 30.609375 19.578125 28.75 
Q 15.375 26.90625 10.59375 22.796875 
L 10.59375 31.546875 
Q 15.71875 35.359375 20.09375 37.03125 
Q 24.46875 38.71875 29.203125 38.71875 
Q 34.578125 38.71875 41.75 35.84375 
Q 42.28125 35.59375 42.53125 35.5 
Q 42.828125 35.40625 43.5625 35.109375 
Q 51.125 32.125 55.71875 32.125 
Q 59.90625 32.125 64.03125 33.953125 
Q 68.171875 35.796875 73.1875 39.9375 
z
" id="DejaVuSans-8764"/>
     <path d="M 67.09375 12.5 
L 67.203125 12.5 
Q 82.703125 63.59375 84.5 68.40625 
Q 85.5 70.90625 86.296875 72.09375 
Q 91.09375 79.5 97.703125 79.5 
Q 101.40625 79.5 103.90625 77.046875 
Q 106.40625 74.59375 106.40625 71.09375 
Q 106.40625 68.40625 105 66.75 
Q 103.59375 65.09375 101.09375 65.09375 
Q 99.5 65.09375 98.390625 66 
Q 97.296875 66.90625 96.84375 67.953125 
Q 96.40625 69 95.59375 69.890625 
Q 94.796875 70.796875 93.796875 70.796875 
Q 92.796875 70.796875 91.890625 70.4375 
Q 91 70.09375 90.390625 69.640625 
Q 89.796875 69.203125 89.140625 68.296875 
Q 88.5 67.40625 88.09375 66.796875 
Q 87.703125 66.203125 87.25 65.046875 
Q 86.796875 63.90625 86.640625 63.40625 
Q 86.5 62.90625 86.09375 61.75 
Q 85.703125 60.59375 85.703125 60.40625 
L 66.59375 -2.40625 
L 64.59375 -2.40625 
Q 48.09375 20 38.796875 45.203125 
L 38.59375 45.203125 
Q 37.59375 40.296875 36.84375 36.890625 
Q 36.09375 33.5 34.59375 28 
Q 33.09375 22.5 31.6875 18.59375 
Q 30.296875 14.703125 28.1875 10.203125 
Q 26.09375 5.703125 23.890625 2.890625 
Q 21.703125 0.09375 18.796875 -1.796875 
Q 15.90625 -3.703125 12.703125 -3.703125 
Q 9 -3.703125 6.5 -1.25 
Q 4 1.203125 4 4.703125 
Q 4 7.40625 5.390625 9.046875 
Q 6.796875 10.703125 9.296875 10.703125 
Q 10.90625 10.703125 12 9.796875 
Q 13.09375 8.90625 13.546875 7.84375 
Q 14 6.796875 14.796875 5.890625 
Q 15.59375 5 16.59375 5 
Q 19.09375 5 21.390625 7.5 
Q 23.703125 10 25.59375 14.5 
Q 27.5 19 29.09375 24.09375 
Q 30.703125 29.203125 32.140625 35.75 
Q 33.59375 42.296875 34.59375 47.390625 
Q 35.59375 52.5 36.6875 58.453125 
Q 37.796875 64.40625 38.40625 67.09375 
L 41.09375 67.09375 
Q 41.90625 65.09375 44.90625 57.5 
Q 47.90625 49.90625 49.09375 47 
Q 50.296875 44.09375 53 37.84375 
Q 55.703125 31.59375 57.546875 28.09375 
Q 59.40625 24.59375 62 20.1875 
Q 64.59375 15.796875 67.09375 12.5 
z
" id="STIXNonUnicode-Italic-57914"/>
     <path d="M 31 75.875 
Q 24.46875 64.65625 21.28125 53.65625 
Q 18.109375 42.671875 18.109375 31.390625 
Q 18.109375 20.125 21.3125 9.0625 
Q 24.515625 -2 31 -13.1875 
L 23.1875 -13.1875 
Q 15.875 -1.703125 12.234375 9.375 
Q 8.59375 20.453125 8.59375 31.390625 
Q 8.59375 42.28125 12.203125 53.3125 
Q 15.828125 64.359375 23.1875 75.875 
z
" id="DejaVuSans-40"/>
     <path d="M 31.78125 66.40625 
Q 24.171875 66.40625 20.328125 58.90625 
Q 16.5 51.421875 16.5 36.375 
Q 16.5 21.390625 20.328125 13.890625 
Q 24.171875 6.390625 31.78125 6.390625 
Q 39.453125 6.390625 43.28125 13.890625 
Q 47.125 21.390625 47.125 36.375 
Q 47.125 51.421875 43.28125 58.90625 
Q 39.453125 66.40625 31.78125 66.40625 
z
M 31.78125 74.21875 
Q 44.046875 74.21875 50.515625 64.515625 
Q 56.984375 54.828125 56.984375 36.375 
Q 56.984375 17.96875 50.515625 8.265625 
Q 44.046875 -1.421875 31.78125 -1.421875 
Q 19.53125 -1.421875 13.0625 8.265625 
Q 6.59375 17.96875 6.59375 36.375 
Q 6.59375 54.828125 13.0625 64.515625 
Q 19.53125 74.21875 31.78125 74.21875 
z
" id="DejaVuSans-48"/>
     <path d="M 11.71875 12.40625 
L 22.015625 12.40625 
L 22.015625 4 
L 14.015625 -11.625 
L 7.71875 -11.625 
L 11.71875 4 
z
" id="DejaVuSans-44"/>
     <path d="M 8.015625 75.875 
L 15.828125 75.875 
Q 23.140625 64.359375 26.78125 53.3125 
Q 30.421875 42.28125 30.421875 31.390625 
Q 30.421875 20.453125 26.78125 9.375 
Q 23.140625 -1.703125 15.828125 -13.1875 
L 8.015625 -13.1875 
Q 14.5 -2 17.703125 9.0625 
Q 20.90625 20.125 20.90625 31.390625 
Q 20.90625 42.671875 17.703125 53.65625 
Q 14.5 64.65625 8.015625 75.875 
z
" id="DejaVuSans-41"/>
    </defs>
    <g transform="translate(140.184 22.896)scale(0.144 -0.144)">
     <use transform="translate(0 0.767188)" xlink:href="#DejaVuSans-Oblique-89"/>
     <use transform="translate(80.566406 0.767188)" xlink:href="#DejaVuSans-61"/>
     <use transform="translate(241.837891 140.965625)scale(0.7)" xlink:href="#DejaVuSans-53"/>
     <use transform="translate(213.837891 19.517188)" xlink:href="#DejaVuSansDisplay-8721"/>
     <use transform="translate(183.837891 -79.578125)scale(0.7)" xlink:href="#DejaVuSans-Oblique-105"/>
     <use transform="translate(216.923828 -79.578125)scale(0.7)" xlink:href="#DejaVuSans-61"/>
     <use transform="translate(289.213867 -79.578125)scale(0.7)" xlink:href="#DejaVuSans-49"/>
     <use transform="translate(333.75 0.767188)" xlink:href="#DejaVuSans-Oblique-88"/>
     <use transform="translate(409.27263 39.1125)scale(0.7)" xlink:href="#DejaVuSans-50"/>
     <use transform="translate(402.255859 -26.576562)scale(0.7)" xlink:href="#DejaVuSans-Oblique-105"/>
     <use transform="translate(456.543138 0.767188)" xlink:href="#Times-Roman-32"/>
     <use transform="translate(481.543138 0.767188)" xlink:href="#Times-Roman-59"/>
     <use transform="translate(509.326341 0.767188)" xlink:href="#Times-Roman-32"/>
     <use transform="translate(534.326341 0.767188)" xlink:href="#Times-Roman-32"/>
     <use transform="translate(559.326341 0.767188)" xlink:href="#Times-Roman-32"/>
     <use transform="translate(584.326341 0.767188)" xlink:href="#DejaVuSans-Oblique-88"/>
     <use transform="translate(672.314622 0.767188)" xlink:href="#DejaVuSans-8764"/>
     <use transform="translate(775.586107 0.767188)" xlink:href="#STIXNonUnicode-Italic-57914"/>
     <use transform="translate(871.286088 0.767188)" xlink:href="#DejaVuSans-40"/>
     <use transform="translate(910.29976 0.767188)" xlink:href="#DejaVuSans-48"/>
     <use transform="translate(973.922807 0.767188)" xlink:href="#DejaVuSans-44"/>
     <use transform="translate(1025.192338 0.767188)" xlink:href="#DejaVuSans-49"/>
     <use transform="translate(1088.815385 0.767188)" xlink:href="#DejaVuSans-41"/>
    </g>
   </g>
  </g>
 </g>
 <defs>
  <clipPath id="pa1404446a6">
   <rect height="217.44" width="334.8" x="54" y="34.56"/>
  </clipPath>
 </defs>
</svg>
