<?xml version="1.0" encoding="utf-8" standalone="no"?>
<!DOCTYPE svg PUBLIC "-//W3C//DTD SVG 1.1//EN"
  "http://www.w3.org/Graphics/SVG/1.1/DTD/svg11.dtd">
<svg xmlns:xlink="http://www.w3.org/1999/xlink" width="388.8448pt" height="328.894812pt" viewBox="0 0 388.8448 328.894812" xmlns="http://www.w3.org/2000/svg" version="1.1">
 <metadata>
  <rdf:RDF xmlns:dc="http://purl.org/dc/elements/1.1/" xmlns:cc="http://creativecommons.org/ns#" xmlns:rdf="http://www.w3.org/1999/02/22-rdf-syntax-ns#">
   <cc:Work>
    <dc:type rdf:resource="http://purl.org/dc/dcmitype/StillImage"/>
    <dc:date>2025-04-16T16:51:57.671435</dc:date>
    <dc:format>image/svg+xml</dc:format>
    <dc:creator>
     <cc:Agent>
      <dc:title>Matplotlib v3.8.4, https://matplotlib.org/</dc:title>
     </cc:Agent>
    </dc:creator>
   </cc:Work>
  </rdf:RDF>
 </metadata>
 <defs>
  <style type="text/css">*{stroke-linejoin: round; stroke-linecap: butt}</style>
 </defs>
 <g id="figure_1">
  <g id="patch_1">
   <path d="M 0 328.894812 
L 388.8448 328.894812 
L 388.8448 0 
L 0 0 
L 0 328.894812 
z
" style="fill: none"/>
  </g>
  <g id="axes_1">
   <g id="patch_2">
    <path d="M 40 292.312 
L 325.696 292.312 
L 325.696 26.2 
L 40 26.2 
L 40 292.312 
z
" style="fill: none"/>
   </g>
   <g id="PolyQuadMesh_1">
    <path d="M 40 292.312 
L 40 265.7008 
L 53.604571 265.7008 
L 53.604571 292.312 
L 40 292.312 
z
" clip-path="url(#pa75a0e7438)" style="fill: #440154"/>
    <path d="M 53.604571 292.312 
L 53.604571 265.7008 
L 67.209143 265.7008 
L 67.209143 292.312 
L 53.604571 292.312 
z
" clip-path="url(#pa75a0e7438)" style="fill: #440154"/>
    <path d="M 67.209143 292.312 
L 67.209143 265.7008 
L 80.813714 265.7008 
L 80.813714 292.312 
L 67.209143 292.312 
z
" clip-path="url(#pa75a0e7438)" style="fill: #440154"/>
    <path d="M 80.813714 292.312 
L 80.813714 265.7008 
L 94.418286 265.7008 
L 94.418286 292.312 
L 80.813714 292.312 
z
" clip-path="url(#pa75a0e7438)" style="fill: #440154"/>
    <path d="M 94.418286 292.312 
L 94.418286 265.7008 
L 108.022857 265.7008 
L 108.022857 292.312 
L 94.418286 292.312 
z
" clip-path="url(#pa75a0e7438)" style="fill: #440154"/>
    <path d="M 108.022857 292.312 
L 108.022857 265.7008 
L 121.627429 265.7008 
L 121.627429 292.312 
L 108.022857 292.312 
z
" clip-path="url(#pa75a0e7438)" style="fill: #440154"/>
    <path d="M 121.627429 292.312 
L 121.627429 265.7008 
L 135.232 265.7008 
L 135.232 292.312 
L 121.627429 292.312 
z
" clip-path="url(#pa75a0e7438)" style="fill: #440154"/>
    <path d="M 135.232 292.312 
L 135.232 265.7008 
L 148.836571 265.7008 
L 148.836571 292.312 
L 135.232 292.312 
z
" clip-path="url(#pa75a0e7438)" style="fill: #440154"/>
    <path d="M 148.836571 292.312 
L 148.836571 265.7008 
L 162.441143 265.7008 
L 162.441143 292.312 
L 148.836571 292.312 
z
" clip-path="url(#pa75a0e7438)" style="fill: #440154"/>
    <path d="M 162.441143 292.312 
L 162.441143 265.7008 
L 176.045714 265.7008 
L 176.045714 292.312 
L 162.441143 292.312 
z
" clip-path="url(#pa75a0e7438)" style="fill: #440154"/>
    <path d="M 176.045714 292.312 
L 176.045714 265.7008 
L 189.650286 265.7008 
L 189.650286 292.312 
L 176.045714 292.312 
z
" clip-path="url(#pa75a0e7438)" style="fill: #440154"/>
    <path d="M 189.650286 292.312 
L 189.650286 265.7008 
L 203.254857 265.7008 
L 203.254857 292.312 
L 189.650286 292.312 
z
" clip-path="url(#pa75a0e7438)" style="fill: #440154"/>
    <path d="M 203.254857 292.312 
L 203.254857 265.7008 
L 216.859429 265.7008 
L 216.859429 292.312 
L 203.254857 292.312 
z
" clip-path="url(#pa75a0e7438)" style="fill: #440154"/>
    <path d="M 216.859429 292.312 
L 216.859429 265.7008 
L 230.464 265.7008 
L 230.464 292.312 
L 216.859429 292.312 
z
" clip-path="url(#pa75a0e7438)" style="fill: #482878"/>
    <path d="M 230.464 292.312 
L 230.464 265.7008 
L 244.068571 265.7008 
L 244.068571 292.312 
L 230.464 292.312 
z
" clip-path="url(#pa75a0e7438)" style="fill: #1f9e89"/>
    <path d="M 244.068571 292.312 
L 244.068571 265.7008 
L 257.673143 265.7008 
L 257.673143 292.312 
L 244.068571 292.312 
z
" clip-path="url(#pa75a0e7438)" style="fill: #fde725"/>
    <path d="M 257.673143 292.312 
L 257.673143 265.7008 
L 271.277714 265.7008 
L 271.277714 292.312 
L 257.673143 292.312 
z
" clip-path="url(#pa75a0e7438)" style="fill: #1f9e89"/>
    <path d="M 271.277714 292.312 
L 271.277714 265.7008 
L 284.882286 265.7008 
L 284.882286 292.312 
L 271.277714 292.312 
z
" clip-path="url(#pa75a0e7438)" style="fill: #482878"/>
    <path d="M 284.882286 292.312 
L 284.882286 265.7008 
L 298.486857 265.7008 
L 298.486857 292.312 
L 284.882286 292.312 
z
" clip-path="url(#pa75a0e7438)" style="fill: #440154"/>
    <path d="M 298.486857 292.312 
L 298.486857 265.7008 
L 312.091429 265.7008 
L 312.091429 292.312 
L 298.486857 292.312 
z
" clip-path="url(#pa75a0e7438)" style="fill: #440154"/>
    <path d="M 312.091429 292.312 
L 312.091429 265.7008 
L 325.696 265.7008 
L 325.696 292.312 
L 312.091429 292.312 
z
" clip-path="url(#pa75a0e7438)" style="fill: #440154"/>
    <path d="M 40 265.7008 
L 40 239.0896 
L 53.604571 239.0896 
L 53.604571 265.7008 
L 40 265.7008 
z
" clip-path="url(#pa75a0e7438)" style="fill: #440154"/>
    <path d="M 53.604571 265.7008 
L 53.604571 239.0896 
L 67.209143 239.0896 
L 67.209143 265.7008 
L 53.604571 265.7008 
z
" clip-path="url(#pa75a0e7438)" style="fill: #440154"/>
    <path d="M 67.209143 265.7008 
L 67.209143 239.0896 
L 80.813714 239.0896 
L 80.813714 265.7008 
L 67.209143 265.7008 
z
" clip-path="url(#pa75a0e7438)" style="fill: #440154"/>
    <path d="M 80.813714 265.7008 
L 80.813714 239.0896 
L 94.418286 239.0896 
L 94.418286 265.7008 
L 80.813714 265.7008 
z
" clip-path="url(#pa75a0e7438)" style="fill: #440154"/>
    <path d="M 94.418286 265.7008 
L 94.418286 239.0896 
L 108.022857 239.0896 
L 108.022857 265.7008 
L 94.418286 265.7008 
z
" clip-path="url(#pa75a0e7438)" style="fill: #440154"/>
    <path d="M 108.022857 265.7008 
L 108.022857 239.0896 
L 121.627429 239.0896 
L 121.627429 265.7008 
L 108.022857 265.7008 
z
" clip-path="url(#pa75a0e7438)" style="fill: #440154"/>
    <path d="M 121.627429 265.7008 
L 121.627429 239.0896 
L 135.232 239.0896 
L 135.232 265.7008 
L 121.627429 265.7008 
z
" clip-path="url(#pa75a0e7438)" style="fill: #440154"/>
    <path d="M 135.232 265.7008 
L 135.232 239.0896 
L 148.836571 239.0896 
L 148.836571 265.7008 
L 135.232 265.7008 
z
" clip-path="url(#pa75a0e7438)" style="fill: #440154"/>
    <path d="M 148.836571 265.7008 
L 148.836571 239.0896 
L 162.441143 239.0896 
L 162.441143 265.7008 
L 148.836571 265.7008 
z
" clip-path="url(#pa75a0e7438)" style="fill: #440154"/>
    <path d="M 162.441143 265.7008 
L 162.441143 239.0896 
L 176.045714 239.0896 
L 176.045714 265.7008 
L 162.441143 265.7008 
z
" clip-path="url(#pa75a0e7438)" style="fill: #440154"/>
    <path d="M 176.045714 265.7008 
L 176.045714 239.0896 
L 189.650286 239.0896 
L 189.650286 265.7008 
L 176.045714 265.7008 
z
" clip-path="url(#pa75a0e7438)" style="fill: #440154"/>
    <path d="M 189.650286 265.7008 
L 189.650286 239.0896 
L 203.254857 239.0896 
L 203.254857 265.7008 
L 189.650286 265.7008 
z
" clip-path="url(#pa75a0e7438)" style="fill: #440154"/>
    <path d="M 203.254857 265.7008 
L 203.254857 239.0896 
L 216.859429 239.0896 
L 216.859429 265.7008 
L 203.254857 265.7008 
z
" clip-path="url(#pa75a0e7438)" style="fill: #482878"/>
    <path d="M 216.859429 265.7008 
L 216.859429 239.0896 
L 230.464 239.0896 
L 230.464 265.7008 
L 216.859429 265.7008 
z
" clip-path="url(#pa75a0e7438)" style="fill: #3e4989"/>
    <path d="M 230.464 265.7008 
L 230.464 239.0896 
L 244.068571 239.0896 
L 244.068571 265.7008 
L 230.464 265.7008 
z
" clip-path="url(#pa75a0e7438)" style="fill: #26828e"/>
    <path d="M 244.068571 265.7008 
L 244.068571 239.0896 
L 257.673143 239.0896 
L 257.673143 265.7008 
L 244.068571 265.7008 
z
" clip-path="url(#pa75a0e7438)" style="fill: #26828e"/>
    <path d="M 257.673143 265.7008 
L 257.673143 239.0896 
L 271.277714 239.0896 
L 271.277714 265.7008 
L 257.673143 265.7008 
z
" clip-path="url(#pa75a0e7438)" style="fill: #26828e"/>
    <path d="M 271.277714 265.7008 
L 271.277714 239.0896 
L 284.882286 239.0896 
L 284.882286 265.7008 
L 271.277714 265.7008 
z
" clip-path="url(#pa75a0e7438)" style="fill: #3e4989"/>
    <path d="M 284.882286 265.7008 
L 284.882286 239.0896 
L 298.486857 239.0896 
L 298.486857 265.7008 
L 284.882286 265.7008 
z
" clip-path="url(#pa75a0e7438)" style="fill: #482878"/>
    <path d="M 298.486857 265.7008 
L 298.486857 239.0896 
L 312.091429 239.0896 
L 312.091429 265.7008 
L 298.486857 265.7008 
z
" clip-path="url(#pa75a0e7438)" style="fill: #440154"/>
    <path d="M 312.091429 265.7008 
L 312.091429 239.0896 
L 325.696 239.0896 
L 325.696 265.7008 
L 312.091429 265.7008 
z
" clip-path="url(#pa75a0e7438)" style="fill: #440154"/>
    <path d="M 40 239.0896 
L 40 212.4784 
L 53.604571 212.4784 
L 53.604571 239.0896 
L 40 239.0896 
z
" clip-path="url(#pa75a0e7438)" style="fill: #440154"/>
    <path d="M 53.604571 239.0896 
L 53.604571 212.4784 
L 67.209143 212.4784 
L 67.209143 239.0896 
L 53.604571 239.0896 
z
" clip-path="url(#pa75a0e7438)" style="fill: #440154"/>
    <path d="M 67.209143 239.0896 
L 67.209143 212.4784 
L 80.813714 212.4784 
L 80.813714 239.0896 
L 67.209143 239.0896 
z
" clip-path="url(#pa75a0e7438)" style="fill: #440154"/>
    <path d="M 80.813714 239.0896 
L 80.813714 212.4784 
L 94.418286 212.4784 
L 94.418286 239.0896 
L 80.813714 239.0896 
z
" clip-path="url(#pa75a0e7438)" style="fill: #440154"/>
    <path d="M 94.418286 239.0896 
L 94.418286 212.4784 
L 108.022857 212.4784 
L 108.022857 239.0896 
L 94.418286 239.0896 
z
" clip-path="url(#pa75a0e7438)" style="fill: #440154"/>
    <path d="M 108.022857 239.0896 
L 108.022857 212.4784 
L 121.627429 212.4784 
L 121.627429 239.0896 
L 108.022857 239.0896 
z
" clip-path="url(#pa75a0e7438)" style="fill: #440154"/>
    <path d="M 121.627429 239.0896 
L 121.627429 212.4784 
L 135.232 212.4784 
L 135.232 239.0896 
L 121.627429 239.0896 
z
" clip-path="url(#pa75a0e7438)" style="fill: #440154"/>
    <path d="M 135.232 239.0896 
L 135.232 212.4784 
L 148.836571 212.4784 
L 148.836571 239.0896 
L 135.232 239.0896 
z
" clip-path="url(#pa75a0e7438)" style="fill: #440154"/>
    <path d="M 148.836571 239.0896 
L 148.836571 212.4784 
L 162.441143 212.4784 
L 162.441143 239.0896 
L 148.836571 239.0896 
z
" clip-path="url(#pa75a0e7438)" style="fill: #440154"/>
    <path d="M 162.441143 239.0896 
L 162.441143 212.4784 
L 176.045714 212.4784 
L 176.045714 239.0896 
L 162.441143 239.0896 
z
" clip-path="url(#pa75a0e7438)" style="fill: #440154"/>
    <path d="M 176.045714 239.0896 
L 176.045714 212.4784 
L 189.650286 212.4784 
L 189.650286 239.0896 
L 176.045714 239.0896 
z
" clip-path="url(#pa75a0e7438)" style="fill: #440154"/>
    <path d="M 189.650286 239.0896 
L 189.650286 212.4784 
L 203.254857 212.4784 
L 203.254857 239.0896 
L 189.650286 239.0896 
z
" clip-path="url(#pa75a0e7438)" style="fill: #482878"/>
    <path d="M 203.254857 239.0896 
L 203.254857 212.4784 
L 216.859429 212.4784 
L 216.859429 239.0896 
L 203.254857 239.0896 
z
" clip-path="url(#pa75a0e7438)" style="fill: #482878"/>
    <path d="M 216.859429 239.0896 
L 216.859429 212.4784 
L 230.464 212.4784 
L 230.464 239.0896 
L 216.859429 239.0896 
z
" clip-path="url(#pa75a0e7438)" style="fill: #3e4989"/>
    <path d="M 230.464 239.0896 
L 230.464 212.4784 
L 244.068571 212.4784 
L 244.068571 239.0896 
L 230.464 239.0896 
z
" clip-path="url(#pa75a0e7438)" style="fill: #3e4989"/>
    <path d="M 244.068571 239.0896 
L 244.068571 212.4784 
L 257.673143 212.4784 
L 257.673143 239.0896 
L 244.068571 239.0896 
z
" clip-path="url(#pa75a0e7438)" style="fill: #31688e"/>
    <path d="M 257.673143 239.0896 
L 257.673143 212.4784 
L 271.277714 212.4784 
L 271.277714 239.0896 
L 257.673143 239.0896 
z
" clip-path="url(#pa75a0e7438)" style="fill: #3e4989"/>
    <path d="M 271.277714 239.0896 
L 271.277714 212.4784 
L 284.882286 212.4784 
L 284.882286 239.0896 
L 271.277714 239.0896 
z
" clip-path="url(#pa75a0e7438)" style="fill: #3e4989"/>
    <path d="M 284.882286 239.0896 
L 284.882286 212.4784 
L 298.486857 212.4784 
L 298.486857 239.0896 
L 284.882286 239.0896 
z
" clip-path="url(#pa75a0e7438)" style="fill: #482878"/>
    <path d="M 298.486857 239.0896 
L 298.486857 212.4784 
L 312.091429 212.4784 
L 312.091429 239.0896 
L 298.486857 239.0896 
z
" clip-path="url(#pa75a0e7438)" style="fill: #482878"/>
    <path d="M 312.091429 239.0896 
L 312.091429 212.4784 
L 325.696 212.4784 
L 325.696 239.0896 
L 312.091429 239.0896 
z
" clip-path="url(#pa75a0e7438)" style="fill: #440154"/>
    <path d="M 40 212.4784 
L 40 185.8672 
L 53.604571 185.8672 
L 53.604571 212.4784 
L 40 212.4784 
z
" clip-path="url(#pa75a0e7438)" style="fill: #440154"/>
    <path d="M 53.604571 212.4784 
L 53.604571 185.8672 
L 67.209143 185.8672 
L 67.209143 212.4784 
L 53.604571 212.4784 
z
" clip-path="url(#pa75a0e7438)" style="fill: #440154"/>
    <path d="M 67.209143 212.4784 
L 67.209143 185.8672 
L 80.813714 185.8672 
L 80.813714 212.4784 
L 67.209143 212.4784 
z
" clip-path="url(#pa75a0e7438)" style="fill: #440154"/>
    <path d="M 80.813714 212.4784 
L 80.813714 185.8672 
L 94.418286 185.8672 
L 94.418286 212.4784 
L 80.813714 212.4784 
z
" clip-path="url(#pa75a0e7438)" style="fill: #440154"/>
    <path d="M 94.418286 212.4784 
L 94.418286 185.8672 
L 108.022857 185.8672 
L 108.022857 212.4784 
L 94.418286 212.4784 
z
" clip-path="url(#pa75a0e7438)" style="fill: #440154"/>
    <path d="M 108.022857 212.4784 
L 108.022857 185.8672 
L 121.627429 185.8672 
L 121.627429 212.4784 
L 108.022857 212.4784 
z
" clip-path="url(#pa75a0e7438)" style="fill: #440154"/>
    <path d="M 121.627429 212.4784 
L 121.627429 185.8672 
L 135.232 185.8672 
L 135.232 212.4784 
L 121.627429 212.4784 
z
" clip-path="url(#pa75a0e7438)" style="fill: #440154"/>
    <path d="M 135.232 212.4784 
L 135.232 185.8672 
L 148.836571 185.8672 
L 148.836571 212.4784 
L 135.232 212.4784 
z
" clip-path="url(#pa75a0e7438)" style="fill: #440154"/>
    <path d="M 148.836571 212.4784 
L 148.836571 185.8672 
L 162.441143 185.8672 
L 162.441143 212.4784 
L 148.836571 212.4784 
z
" clip-path="url(#pa75a0e7438)" style="fill: #440154"/>
    <path d="M 162.441143 212.4784 
L 162.441143 185.8672 
L 176.045714 185.8672 
L 176.045714 212.4784 
L 162.441143 212.4784 
z
" clip-path="url(#pa75a0e7438)" style="fill: #440154"/>
    <path d="M 176.045714 212.4784 
L 176.045714 185.8672 
L 189.650286 185.8672 
L 189.650286 212.4784 
L 176.045714 212.4784 
z
" clip-path="url(#pa75a0e7438)" style="fill: #482878"/>
    <path d="M 189.650286 212.4784 
L 189.650286 185.8672 
L 203.254857 185.8672 
L 203.254857 212.4784 
L 189.650286 212.4784 
z
" clip-path="url(#pa75a0e7438)" style="fill: #482878"/>
    <path d="M 203.254857 212.4784 
L 203.254857 185.8672 
L 216.859429 185.8672 
L 216.859429 212.4784 
L 203.254857 212.4784 
z
" clip-path="url(#pa75a0e7438)" style="fill: #482878"/>
    <path d="M 216.859429 212.4784 
L 216.859429 185.8672 
L 230.464 185.8672 
L 230.464 212.4784 
L 216.859429 212.4784 
z
" clip-path="url(#pa75a0e7438)" style="fill: #3e4989"/>
    <path d="M 230.464 212.4784 
L 230.464 185.8672 
L 244.068571 185.8672 
L 244.068571 212.4784 
L 230.464 212.4784 
z
" clip-path="url(#pa75a0e7438)" style="fill: #3e4989"/>
    <path d="M 244.068571 212.4784 
L 244.068571 185.8672 
L 257.673143 185.8672 
L 257.673143 212.4784 
L 244.068571 212.4784 
z
" clip-path="url(#pa75a0e7438)" style="fill: #3e4989"/>
    <path d="M 257.673143 212.4784 
L 257.673143 185.8672 
L 271.277714 185.8672 
L 271.277714 212.4784 
L 257.673143 212.4784 
z
" clip-path="url(#pa75a0e7438)" style="fill: #3e4989"/>
    <path d="M 271.277714 212.4784 
L 271.277714 185.8672 
L 284.882286 185.8672 
L 284.882286 212.4784 
L 271.277714 212.4784 
z
" clip-path="url(#pa75a0e7438)" style="fill: #3e4989"/>
    <path d="M 284.882286 212.4784 
L 284.882286 185.8672 
L 298.486857 185.8672 
L 298.486857 212.4784 
L 284.882286 212.4784 
z
" clip-path="url(#pa75a0e7438)" style="fill: #482878"/>
    <path d="M 298.486857 212.4784 
L 298.486857 185.8672 
L 312.091429 185.8672 
L 312.091429 212.4784 
L 298.486857 212.4784 
z
" clip-path="url(#pa75a0e7438)" style="fill: #482878"/>
    <path d="M 312.091429 212.4784 
L 312.091429 185.8672 
L 325.696 185.8672 
L 325.696 212.4784 
L 312.091429 212.4784 
z
" clip-path="url(#pa75a0e7438)" style="fill: #482878"/>
    <path d="M 40 185.8672 
L 40 159.256 
L 53.604571 159.256 
L 53.604571 185.8672 
L 40 185.8672 
z
" clip-path="url(#pa75a0e7438)" style="fill: #440154"/>
    <path d="M 53.604571 185.8672 
L 53.604571 159.256 
L 67.209143 159.256 
L 67.209143 185.8672 
L 53.604571 185.8672 
z
" clip-path="url(#pa75a0e7438)" style="fill: #440154"/>
    <path d="M 67.209143 185.8672 
L 67.209143 159.256 
L 80.813714 159.256 
L 80.813714 185.8672 
L 67.209143 185.8672 
z
" clip-path="url(#pa75a0e7438)" style="fill: #440154"/>
    <path d="M 80.813714 185.8672 
L 80.813714 159.256 
L 94.418286 159.256 
L 94.418286 185.8672 
L 80.813714 185.8672 
z
" clip-path="url(#pa75a0e7438)" style="fill: #440154"/>
    <path d="M 94.418286 185.8672 
L 94.418286 159.256 
L 108.022857 159.256 
L 108.022857 185.8672 
L 94.418286 185.8672 
z
" clip-path="url(#pa75a0e7438)" style="fill: #440154"/>
    <path d="M 108.022857 185.8672 
L 108.022857 159.256 
L 121.627429 159.256 
L 121.627429 185.8672 
L 108.022857 185.8672 
z
" clip-path="url(#pa75a0e7438)" style="fill: #440154"/>
    <path d="M 121.627429 185.8672 
L 121.627429 159.256 
L 135.232 159.256 
L 135.232 185.8672 
L 121.627429 185.8672 
z
" clip-path="url(#pa75a0e7438)" style="fill: #440154"/>
    <path d="M 135.232 185.8672 
L 135.232 159.256 
L 148.836571 159.256 
L 148.836571 185.8672 
L 135.232 185.8672 
z
" clip-path="url(#pa75a0e7438)" style="fill: #440154"/>
    <path d="M 148.836571 185.8672 
L 148.836571 159.256 
L 162.441143 159.256 
L 162.441143 185.8672 
L 148.836571 185.8672 
z
" clip-path="url(#pa75a0e7438)" style="fill: #440154"/>
    <path d="M 162.441143 185.8672 
L 162.441143 159.256 
L 176.045714 159.256 
L 176.045714 185.8672 
L 162.441143 185.8672 
z
" clip-path="url(#pa75a0e7438)" style="fill: #440154"/>
    <path d="M 176.045714 185.8672 
L 176.045714 159.256 
L 189.650286 159.256 
L 189.650286 185.8672 
L 176.045714 185.8672 
z
" clip-path="url(#pa75a0e7438)" style="fill: #482878"/>
    <path d="M 189.650286 185.8672 
L 189.650286 159.256 
L 203.254857 159.256 
L 203.254857 185.8672 
L 189.650286 185.8672 
z
" clip-path="url(#pa75a0e7438)" style="fill: #482878"/>
    <path d="M 203.254857 185.8672 
L 203.254857 159.256 
L 216.859429 159.256 
L 216.859429 185.8672 
L 203.254857 185.8672 
z
" clip-path="url(#pa75a0e7438)" style="fill: #482878"/>
    <path d="M 216.859429 185.8672 
L 216.859429 159.256 
L 230.464 159.256 
L 230.464 185.8672 
L 216.859429 185.8672 
z
" clip-path="url(#pa75a0e7438)" style="fill: #482878"/>
    <path d="M 230.464 185.8672 
L 230.464 159.256 
L 244.068571 159.256 
L 244.068571 185.8672 
L 230.464 185.8672 
z
" clip-path="url(#pa75a0e7438)" style="fill: #482878"/>
    <path d="M 244.068571 185.8672 
L 244.068571 159.256 
L 257.673143 159.256 
L 257.673143 185.8672 
L 244.068571 185.8672 
z
" clip-path="url(#pa75a0e7438)" style="fill: #482878"/>
    <path d="M 257.673143 185.8672 
L 257.673143 159.256 
L 271.277714 159.256 
L 271.277714 185.8672 
L 257.673143 185.8672 
z
" clip-path="url(#pa75a0e7438)" style="fill: #482878"/>
    <path d="M 271.277714 185.8672 
L 271.277714 159.256 
L 284.882286 159.256 
L 284.882286 185.8672 
L 271.277714 185.8672 
z
" clip-path="url(#pa75a0e7438)" style="fill: #482878"/>
    <path d="M 284.882286 185.8672 
L 284.882286 159.256 
L 298.486857 159.256 
L 298.486857 185.8672 
L 284.882286 185.8672 
z
" clip-path="url(#pa75a0e7438)" style="fill: #482878"/>
    <path d="M 298.486857 185.8672 
L 298.486857 159.256 
L 312.091429 159.256 
L 312.091429 185.8672 
L 298.486857 185.8672 
z
" clip-path="url(#pa75a0e7438)" style="fill: #482878"/>
    <path d="M 312.091429 185.8672 
L 312.091429 159.256 
L 325.696 159.256 
L 325.696 185.8672 
L 312.091429 185.8672 
z
" clip-path="url(#pa75a0e7438)" style="fill: #482878"/>
    <path d="M 40 159.256 
L 40 132.6448 
L 53.604571 132.6448 
L 53.604571 159.256 
L 40 159.256 
z
" clip-path="url(#pa75a0e7438)" style="fill: #440154"/>
    <path d="M 53.604571 159.256 
L 53.604571 132.6448 
L 67.209143 132.6448 
L 67.209143 159.256 
L 53.604571 159.256 
z
" clip-path="url(#pa75a0e7438)" style="fill: #440154"/>
    <path d="M 67.209143 159.256 
L 67.209143 132.6448 
L 80.813714 132.6448 
L 80.813714 159.256 
L 67.209143 159.256 
z
" clip-path="url(#pa75a0e7438)" style="fill: #440154"/>
    <path d="M 80.813714 159.256 
L 80.813714 132.6448 
L 94.418286 132.6448 
L 94.418286 159.256 
L 80.813714 159.256 
z
" clip-path="url(#pa75a0e7438)" style="fill: #440154"/>
    <path d="M 94.418286 159.256 
L 94.418286 132.6448 
L 108.022857 132.6448 
L 108.022857 159.256 
L 94.418286 159.256 
z
" clip-path="url(#pa75a0e7438)" style="fill: #440154"/>
    <path d="M 108.022857 159.256 
L 108.022857 132.6448 
L 121.627429 132.6448 
L 121.627429 159.256 
L 108.022857 159.256 
z
" clip-path="url(#pa75a0e7438)" style="fill: #440154"/>
    <path d="M 121.627429 159.256 
L 121.627429 132.6448 
L 135.232 132.6448 
L 135.232 159.256 
L 121.627429 159.256 
z
" clip-path="url(#pa75a0e7438)" style="fill: #440154"/>
    <path d="M 135.232 159.256 
L 135.232 132.6448 
L 148.836571 132.6448 
L 148.836571 159.256 
L 135.232 159.256 
z
" clip-path="url(#pa75a0e7438)" style="fill: #440154"/>
    <path d="M 148.836571 159.256 
L 148.836571 132.6448 
L 162.441143 132.6448 
L 162.441143 159.256 
L 148.836571 159.256 
z
" clip-path="url(#pa75a0e7438)" style="fill: #440154"/>
    <path d="M 162.441143 159.256 
L 162.441143 132.6448 
L 176.045714 132.6448 
L 176.045714 159.256 
L 162.441143 159.256 
z
" clip-path="url(#pa75a0e7438)" style="fill: #440154"/>
    <path d="M 176.045714 159.256 
L 176.045714 132.6448 
L 189.650286 132.6448 
L 189.650286 159.256 
L 176.045714 159.256 
z
" clip-path="url(#pa75a0e7438)" style="fill: #482878"/>
    <path d="M 189.650286 159.256 
L 189.650286 132.6448 
L 203.254857 132.6448 
L 203.254857 159.256 
L 189.650286 159.256 
z
" clip-path="url(#pa75a0e7438)" style="fill: #482878"/>
    <path d="M 203.254857 159.256 
L 203.254857 132.6448 
L 216.859429 132.6448 
L 216.859429 159.256 
L 203.254857 159.256 
z
" clip-path="url(#pa75a0e7438)" style="fill: #482878"/>
    <path d="M 216.859429 159.256 
L 216.859429 132.6448 
L 230.464 132.6448 
L 230.464 159.256 
L 216.859429 159.256 
z
" clip-path="url(#pa75a0e7438)" style="fill: #482878"/>
    <path d="M 230.464 159.256 
L 230.464 132.6448 
L 244.068571 132.6448 
L 244.068571 159.256 
L 230.464 159.256 
z
" clip-path="url(#pa75a0e7438)" style="fill: #482878"/>
    <path d="M 244.068571 159.256 
L 244.068571 132.6448 
L 257.673143 132.6448 
L 257.673143 159.256 
L 244.068571 159.256 
z
" clip-path="url(#pa75a0e7438)" style="fill: #482878"/>
    <path d="M 257.673143 159.256 
L 257.673143 132.6448 
L 271.277714 132.6448 
L 271.277714 159.256 
L 257.673143 159.256 
z
" clip-path="url(#pa75a0e7438)" style="fill: #482878"/>
    <path d="M 271.277714 159.256 
L 271.277714 132.6448 
L 284.882286 132.6448 
L 284.882286 159.256 
L 271.277714 159.256 
z
" clip-path="url(#pa75a0e7438)" style="fill: #482878"/>
    <path d="M 284.882286 159.256 
L 284.882286 132.6448 
L 298.486857 132.6448 
L 298.486857 159.256 
L 284.882286 159.256 
z
" clip-path="url(#pa75a0e7438)" style="fill: #482878"/>
    <path d="M 298.486857 159.256 
L 298.486857 132.6448 
L 312.091429 132.6448 
L 312.091429 159.256 
L 298.486857 159.256 
z
" clip-path="url(#pa75a0e7438)" style="fill: #482878"/>
    <path d="M 312.091429 159.256 
L 312.091429 132.6448 
L 325.696 132.6448 
L 325.696 159.256 
L 312.091429 159.256 
z
" clip-path="url(#pa75a0e7438)" style="fill: #482878"/>
    <path d="M 40 132.6448 
L 40 106.0336 
L 53.604571 106.0336 
L 53.604571 132.6448 
L 40 132.6448 
z
" clip-path="url(#pa75a0e7438)" style="fill: #440154"/>
    <path d="M 53.604571 132.6448 
L 53.604571 106.0336 
L 67.209143 106.0336 
L 67.209143 132.6448 
L 53.604571 132.6448 
z
" clip-path="url(#pa75a0e7438)" style="fill: #440154"/>
    <path d="M 67.209143 132.6448 
L 67.209143 106.0336 
L 80.813714 106.0336 
L 80.813714 132.6448 
L 67.209143 132.6448 
z
" clip-path="url(#pa75a0e7438)" style="fill: #440154"/>
    <path d="M 80.813714 132.6448 
L 80.813714 106.0336 
L 94.418286 106.0336 
L 94.418286 132.6448 
L 80.813714 132.6448 
z
" clip-path="url(#pa75a0e7438)" style="fill: #440154"/>
    <path d="M 94.418286 132.6448 
L 94.418286 106.0336 
L 108.022857 106.0336 
L 108.022857 132.6448 
L 94.418286 132.6448 
z
" clip-path="url(#pa75a0e7438)" style="fill: #440154"/>
    <path d="M 108.022857 132.6448 
L 108.022857 106.0336 
L 121.627429 106.0336 
L 121.627429 132.6448 
L 108.022857 132.6448 
z
" clip-path="url(#pa75a0e7438)" style="fill: #440154"/>
    <path d="M 121.627429 132.6448 
L 121.627429 106.0336 
L 135.232 106.0336 
L 135.232 132.6448 
L 121.627429 132.6448 
z
" clip-path="url(#pa75a0e7438)" style="fill: #440154"/>
    <path d="M 135.232 132.6448 
L 135.232 106.0336 
L 148.836571 106.0336 
L 148.836571 132.6448 
L 135.232 132.6448 
z
" clip-path="url(#pa75a0e7438)" style="fill: #440154"/>
    <path d="M 148.836571 132.6448 
L 148.836571 106.0336 
L 162.441143 106.0336 
L 162.441143 132.6448 
L 148.836571 132.6448 
z
" clip-path="url(#pa75a0e7438)" style="fill: #440154"/>
    <path d="M 162.441143 132.6448 
L 162.441143 106.0336 
L 176.045714 106.0336 
L 176.045714 132.6448 
L 162.441143 132.6448 
z
" clip-path="url(#pa75a0e7438)" style="fill: #440154"/>
    <path d="M 176.045714 132.6448 
L 176.045714 106.0336 
L 189.650286 106.0336 
L 189.650286 132.6448 
L 176.045714 132.6448 
z
" clip-path="url(#pa75a0e7438)" style="fill: #482878"/>
    <path d="M 189.650286 132.6448 
L 189.650286 106.0336 
L 203.254857 106.0336 
L 203.254857 132.6448 
L 189.650286 132.6448 
z
" clip-path="url(#pa75a0e7438)" style="fill: #482878"/>
    <path d="M 203.254857 132.6448 
L 203.254857 106.0336 
L 216.859429 106.0336 
L 216.859429 132.6448 
L 203.254857 132.6448 
z
" clip-path="url(#pa75a0e7438)" style="fill: #482878"/>
    <path d="M 216.859429 132.6448 
L 216.859429 106.0336 
L 230.464 106.0336 
L 230.464 132.6448 
L 216.859429 132.6448 
z
" clip-path="url(#pa75a0e7438)" style="fill: #482878"/>
    <path d="M 230.464 132.6448 
L 230.464 106.0336 
L 244.068571 106.0336 
L 244.068571 132.6448 
L 230.464 132.6448 
z
" clip-path="url(#pa75a0e7438)" style="fill: #482878"/>
    <path d="M 244.068571 132.6448 
L 244.068571 106.0336 
L 257.673143 106.0336 
L 257.673143 132.6448 
L 244.068571 132.6448 
z
" clip-path="url(#pa75a0e7438)" style="fill: #482878"/>
    <path d="M 257.673143 132.6448 
L 257.673143 106.0336 
L 271.277714 106.0336 
L 271.277714 132.6448 
L 257.673143 132.6448 
z
" clip-path="url(#pa75a0e7438)" style="fill: #482878"/>
    <path d="M 271.277714 132.6448 
L 271.277714 106.0336 
L 284.882286 106.0336 
L 284.882286 132.6448 
L 271.277714 132.6448 
z
" clip-path="url(#pa75a0e7438)" style="fill: #482878"/>
    <path d="M 284.882286 132.6448 
L 284.882286 106.0336 
L 298.486857 106.0336 
L 298.486857 132.6448 
L 284.882286 132.6448 
z
" clip-path="url(#pa75a0e7438)" style="fill: #482878"/>
    <path d="M 298.486857 132.6448 
L 298.486857 106.0336 
L 312.091429 106.0336 
L 312.091429 132.6448 
L 298.486857 132.6448 
z
" clip-path="url(#pa75a0e7438)" style="fill: #482878"/>
    <path d="M 312.091429 132.6448 
L 312.091429 106.0336 
L 325.696 106.0336 
L 325.696 132.6448 
L 312.091429 132.6448 
z
" clip-path="url(#pa75a0e7438)" style="fill: #482878"/>
    <path d="M 40 106.0336 
L 40 79.4224 
L 53.604571 79.4224 
L 53.604571 106.0336 
L 40 106.0336 
z
" clip-path="url(#pa75a0e7438)" style="fill: #440154"/>
    <path d="M 53.604571 106.0336 
L 53.604571 79.4224 
L 67.209143 79.4224 
L 67.209143 106.0336 
L 53.604571 106.0336 
z
" clip-path="url(#pa75a0e7438)" style="fill: #440154"/>
    <path d="M 67.209143 106.0336 
L 67.209143 79.4224 
L 80.813714 79.4224 
L 80.813714 106.0336 
L 67.209143 106.0336 
z
" clip-path="url(#pa75a0e7438)" style="fill: #440154"/>
    <path d="M 80.813714 106.0336 
L 80.813714 79.4224 
L 94.418286 79.4224 
L 94.418286 106.0336 
L 80.813714 106.0336 
z
" clip-path="url(#pa75a0e7438)" style="fill: #440154"/>
    <path d="M 94.418286 106.0336 
L 94.418286 79.4224 
L 108.022857 79.4224 
L 108.022857 106.0336 
L 94.418286 106.0336 
z
" clip-path="url(#pa75a0e7438)" style="fill: #440154"/>
    <path d="M 108.022857 106.0336 
L 108.022857 79.4224 
L 121.627429 79.4224 
L 121.627429 106.0336 
L 108.022857 106.0336 
z
" clip-path="url(#pa75a0e7438)" style="fill: #440154"/>
    <path d="M 121.627429 106.0336 
L 121.627429 79.4224 
L 135.232 79.4224 
L 135.232 106.0336 
L 121.627429 106.0336 
z
" clip-path="url(#pa75a0e7438)" style="fill: #440154"/>
    <path d="M 135.232 106.0336 
L 135.232 79.4224 
L 148.836571 79.4224 
L 148.836571 106.0336 
L 135.232 106.0336 
z
" clip-path="url(#pa75a0e7438)" style="fill: #440154"/>
    <path d="M 148.836571 106.0336 
L 148.836571 79.4224 
L 162.441143 79.4224 
L 162.441143 106.0336 
L 148.836571 106.0336 
z
" clip-path="url(#pa75a0e7438)" style="fill: #440154"/>
    <path d="M 162.441143 106.0336 
L 162.441143 79.4224 
L 176.045714 79.4224 
L 176.045714 106.0336 
L 162.441143 106.0336 
z
" clip-path="url(#pa75a0e7438)" style="fill: #440154"/>
    <path d="M 176.045714 106.0336 
L 176.045714 79.4224 
L 189.650286 79.4224 
L 189.650286 106.0336 
L 176.045714 106.0336 
z
" clip-path="url(#pa75a0e7438)" style="fill: #440154"/>
    <path d="M 189.650286 106.0336 
L 189.650286 79.4224 
L 203.254857 79.4224 
L 203.254857 106.0336 
L 189.650286 106.0336 
z
" clip-path="url(#pa75a0e7438)" style="fill: #482878"/>
    <path d="M 203.254857 106.0336 
L 203.254857 79.4224 
L 216.859429 79.4224 
L 216.859429 106.0336 
L 203.254857 106.0336 
z
" clip-path="url(#pa75a0e7438)" style="fill: #482878"/>
    <path d="M 216.859429 106.0336 
L 216.859429 79.4224 
L 230.464 79.4224 
L 230.464 106.0336 
L 216.859429 106.0336 
z
" clip-path="url(#pa75a0e7438)" style="fill: #482878"/>
    <path d="M 230.464 106.0336 
L 230.464 79.4224 
L 244.068571 79.4224 
L 244.068571 106.0336 
L 230.464 106.0336 
z
" clip-path="url(#pa75a0e7438)" style="fill: #482878"/>
    <path d="M 244.068571 106.0336 
L 244.068571 79.4224 
L 257.673143 79.4224 
L 257.673143 106.0336 
L 244.068571 106.0336 
z
" clip-path="url(#pa75a0e7438)" style="fill: #482878"/>
    <path d="M 257.673143 106.0336 
L 257.673143 79.4224 
L 271.277714 79.4224 
L 271.277714 106.0336 
L 257.673143 106.0336 
z
" clip-path="url(#pa75a0e7438)" style="fill: #482878"/>
    <path d="M 271.277714 106.0336 
L 271.277714 79.4224 
L 284.882286 79.4224 
L 284.882286 106.0336 
L 271.277714 106.0336 
z
" clip-path="url(#pa75a0e7438)" style="fill: #482878"/>
    <path d="M 284.882286 106.0336 
L 284.882286 79.4224 
L 298.486857 79.4224 
L 298.486857 106.0336 
L 284.882286 106.0336 
z
" clip-path="url(#pa75a0e7438)" style="fill: #482878"/>
    <path d="M 298.486857 106.0336 
L 298.486857 79.4224 
L 312.091429 79.4224 
L 312.091429 106.0336 
L 298.486857 106.0336 
z
" clip-path="url(#pa75a0e7438)" style="fill: #482878"/>
    <path d="M 312.091429 106.0336 
L 312.091429 79.4224 
L 325.696 79.4224 
L 325.696 106.0336 
L 312.091429 106.0336 
z
" clip-path="url(#pa75a0e7438)" style="fill: #440154"/>
    <path d="M 40 79.4224 
L 40 52.8112 
L 53.604571 52.8112 
L 53.604571 79.4224 
L 40 79.4224 
z
" clip-path="url(#pa75a0e7438)" style="fill: #440154"/>
    <path d="M 53.604571 79.4224 
L 53.604571 52.8112 
L 67.209143 52.8112 
L 67.209143 79.4224 
L 53.604571 79.4224 
z
" clip-path="url(#pa75a0e7438)" style="fill: #440154"/>
    <path d="M 67.209143 79.4224 
L 67.209143 52.8112 
L 80.813714 52.8112 
L 80.813714 79.4224 
L 67.209143 79.4224 
z
" clip-path="url(#pa75a0e7438)" style="fill: #440154"/>
    <path d="M 80.813714 79.4224 
L 80.813714 52.8112 
L 94.418286 52.8112 
L 94.418286 79.4224 
L 80.813714 79.4224 
z
" clip-path="url(#pa75a0e7438)" style="fill: #440154"/>
    <path d="M 94.418286 79.4224 
L 94.418286 52.8112 
L 108.022857 52.8112 
L 108.022857 79.4224 
L 94.418286 79.4224 
z
" clip-path="url(#pa75a0e7438)" style="fill: #440154"/>
    <path d="M 108.022857 79.4224 
L 108.022857 52.8112 
L 121.627429 52.8112 
L 121.627429 79.4224 
L 108.022857 79.4224 
z
" clip-path="url(#pa75a0e7438)" style="fill: #440154"/>
    <path d="M 121.627429 79.4224 
L 121.627429 52.8112 
L 135.232 52.8112 
L 135.232 79.4224 
L 121.627429 79.4224 
z
" clip-path="url(#pa75a0e7438)" style="fill: #440154"/>
    <path d="M 135.232 79.4224 
L 135.232 52.8112 
L 148.836571 52.8112 
L 148.836571 79.4224 
L 135.232 79.4224 
z
" clip-path="url(#pa75a0e7438)" style="fill: #440154"/>
    <path d="M 148.836571 79.4224 
L 148.836571 52.8112 
L 162.441143 52.8112 
L 162.441143 79.4224 
L 148.836571 79.4224 
z
" clip-path="url(#pa75a0e7438)" style="fill: #440154"/>
    <path d="M 162.441143 79.4224 
L 162.441143 52.8112 
L 176.045714 52.8112 
L 176.045714 79.4224 
L 162.441143 79.4224 
z
" clip-path="url(#pa75a0e7438)" style="fill: #440154"/>
    <path d="M 176.045714 79.4224 
L 176.045714 52.8112 
L 189.650286 52.8112 
L 189.650286 79.4224 
L 176.045714 79.4224 
z
" clip-path="url(#pa75a0e7438)" style="fill: #440154"/>
    <path d="M 189.650286 79.4224 
L 189.650286 52.8112 
L 203.254857 52.8112 
L 203.254857 79.4224 
L 189.650286 79.4224 
z
" clip-path="url(#pa75a0e7438)" style="fill: #440154"/>
    <path d="M 203.254857 79.4224 
L 203.254857 52.8112 
L 216.859429 52.8112 
L 216.859429 79.4224 
L 203.254857 79.4224 
z
" clip-path="url(#pa75a0e7438)" style="fill: #440154"/>
    <path d="M 216.859429 79.4224 
L 216.859429 52.8112 
L 230.464 52.8112 
L 230.464 79.4224 
L 216.859429 79.4224 
z
" clip-path="url(#pa75a0e7438)" style="fill: #482878"/>
    <path d="M 230.464 79.4224 
L 230.464 52.8112 
L 244.068571 52.8112 
L 244.068571 79.4224 
L 230.464 79.4224 
z
" clip-path="url(#pa75a0e7438)" style="fill: #482878"/>
    <path d="M 244.068571 79.4224 
L 244.068571 52.8112 
L 257.673143 52.8112 
L 257.673143 79.4224 
L 244.068571 79.4224 
z
" clip-path="url(#pa75a0e7438)" style="fill: #482878"/>
    <path d="M 257.673143 79.4224 
L 257.673143 52.8112 
L 271.277714 52.8112 
L 271.277714 79.4224 
L 257.673143 79.4224 
z
" clip-path="url(#pa75a0e7438)" style="fill: #482878"/>
    <path d="M 271.277714 79.4224 
L 271.277714 52.8112 
L 284.882286 52.8112 
L 284.882286 79.4224 
L 271.277714 79.4224 
z
" clip-path="url(#pa75a0e7438)" style="fill: #482878"/>
    <path d="M 284.882286 79.4224 
L 284.882286 52.8112 
L 298.486857 52.8112 
L 298.486857 79.4224 
L 284.882286 79.4224 
z
" clip-path="url(#pa75a0e7438)" style="fill: #440154"/>
    <path d="M 298.486857 79.4224 
L 298.486857 52.8112 
L 312.091429 52.8112 
L 312.091429 79.4224 
L 298.486857 79.4224 
z
" clip-path="url(#pa75a0e7438)" style="fill: #440154"/>
    <path d="M 312.091429 79.4224 
L 312.091429 52.8112 
L 325.696 52.8112 
L 325.696 79.4224 
L 312.091429 79.4224 
z
" clip-path="url(#pa75a0e7438)" style="fill: #440154"/>
    <path d="M 40 52.8112 
L 40 26.2 
L 53.604571 26.2 
L 53.604571 52.8112 
L 40 52.8112 
z
" clip-path="url(#pa75a0e7438)" style="fill: #440154"/>
    <path d="M 53.604571 52.8112 
L 53.604571 26.2 
L 67.209143 26.2 
L 67.209143 52.8112 
L 53.604571 52.8112 
z
" clip-path="url(#pa75a0e7438)" style="fill: #440154"/>
    <path d="M 67.209143 52.8112 
L 67.209143 26.2 
L 80.813714 26.2 
L 80.813714 52.8112 
L 67.209143 52.8112 
z
" clip-path="url(#pa75a0e7438)" style="fill: #440154"/>
    <path d="M 80.813714 52.8112 
L 80.813714 26.2 
L 94.418286 26.2 
L 94.418286 52.8112 
L 80.813714 52.8112 
z
" clip-path="url(#pa75a0e7438)" style="fill: #440154"/>
    <path d="M 94.418286 52.8112 
L 94.418286 26.2 
L 108.022857 26.2 
L 108.022857 52.8112 
L 94.418286 52.8112 
z
" clip-path="url(#pa75a0e7438)" style="fill: #440154"/>
    <path d="M 108.022857 52.8112 
L 108.022857 26.2 
L 121.627429 26.2 
L 121.627429 52.8112 
L 108.022857 52.8112 
z
" clip-path="url(#pa75a0e7438)" style="fill: #440154"/>
    <path d="M 121.627429 52.8112 
L 121.627429 26.2 
L 135.232 26.2 
L 135.232 52.8112 
L 121.627429 52.8112 
z
" clip-path="url(#pa75a0e7438)" style="fill: #440154"/>
    <path d="M 135.232 52.8112 
L 135.232 26.2 
L 148.836571 26.2 
L 148.836571 52.8112 
L 135.232 52.8112 
z
" clip-path="url(#pa75a0e7438)" style="fill: #440154"/>
    <path d="M 148.836571 52.8112 
L 148.836571 26.2 
L 162.441143 26.2 
L 162.441143 52.8112 
L 148.836571 52.8112 
z
" clip-path="url(#pa75a0e7438)" style="fill: #440154"/>
    <path d="M 162.441143 52.8112 
L 162.441143 26.2 
L 176.045714 26.2 
L 176.045714 52.8112 
L 162.441143 52.8112 
z
" clip-path="url(#pa75a0e7438)" style="fill: #440154"/>
    <path d="M 176.045714 52.8112 
L 176.045714 26.2 
L 189.650286 26.2 
L 189.650286 52.8112 
L 176.045714 52.8112 
z
" clip-path="url(#pa75a0e7438)" style="fill: #440154"/>
    <path d="M 189.650286 52.8112 
L 189.650286 26.2 
L 203.254857 26.2 
L 203.254857 52.8112 
L 189.650286 52.8112 
z
" clip-path="url(#pa75a0e7438)" style="fill: #440154"/>
    <path d="M 203.254857 52.8112 
L 203.254857 26.2 
L 216.859429 26.2 
L 216.859429 52.8112 
L 203.254857 52.8112 
z
" clip-path="url(#pa75a0e7438)" style="fill: #440154"/>
    <path d="M 216.859429 52.8112 
L 216.859429 26.2 
L 230.464 26.2 
L 230.464 52.8112 
L 216.859429 52.8112 
z
" clip-path="url(#pa75a0e7438)" style="fill: #440154"/>
    <path d="M 230.464 52.8112 
L 230.464 26.2 
L 244.068571 26.2 
L 244.068571 52.8112 
L 230.464 52.8112 
z
" clip-path="url(#pa75a0e7438)" style="fill: #440154"/>
    <path d="M 244.068571 52.8112 
L 244.068571 26.2 
L 257.673143 26.2 
L 257.673143 52.8112 
L 244.068571 52.8112 
z
" clip-path="url(#pa75a0e7438)" style="fill: #440154"/>
    <path d="M 257.673143 52.8112 
L 257.673143 26.2 
L 271.277714 26.2 
L 271.277714 52.8112 
L 257.673143 52.8112 
z
" clip-path="url(#pa75a0e7438)" style="fill: #440154"/>
    <path d="M 271.277714 52.8112 
L 271.277714 26.2 
L 284.882286 26.2 
L 284.882286 52.8112 
L 271.277714 52.8112 
z
" clip-path="url(#pa75a0e7438)" style="fill: #440154"/>
    <path d="M 284.882286 52.8112 
L 284.882286 26.2 
L 298.486857 26.2 
L 298.486857 52.8112 
L 284.882286 52.8112 
z
" clip-path="url(#pa75a0e7438)" style="fill: #440154"/>
    <path d="M 298.486857 52.8112 
L 298.486857 26.2 
L 312.091429 26.2 
L 312.091429 52.8112 
L 298.486857 52.8112 
z
" clip-path="url(#pa75a0e7438)" style="fill: #440154"/>
    <path d="M 312.091429 52.8112 
L 312.091429 26.2 
L 325.696 26.2 
L 325.696 52.8112 
L 312.091429 52.8112 
z
" clip-path="url(#pa75a0e7438)" style="fill: #440154"/>
   </g>
   <g id="matplotlib.axis_1">
    <g id="xtick_1">
     <g id="line2d_1">
      <defs>
       <path id="m5243df01a6" d="M 0 0 
L 0 3.5 
" style="stroke: #000000; stroke-width: 0.8"/>
      </defs>
      <g>
       <use xlink:href="#m5243df01a6" x="46.802286" y="292.312" style="stroke: #000000; stroke-width: 0.8"/>
      </g>
     </g>
     <g id="text_1">
      <!-- −1.00 -->
      <g transform="translate(35.232754 306.25575) scale(0.1 -0.1)">
       <defs>
        <path id="TimesNewRomanPSMT-2212" d="M 3484 2000 
L 116 2000 
L 116 2256 
L 3484 2256 
L 3484 2000 
z
" transform="scale(0.015625)"/>
        <path id="TimesNewRomanPSMT-31" d="M 750 3822 
L 1781 4325 
L 1884 4325 
L 1884 747 
Q 1884 391 1914 303 
Q 1944 216 2037 169 
Q 2131 122 2419 116 
L 2419 0 
L 825 0 
L 825 116 
Q 1125 122 1212 167 
Q 1300 213 1334 289 
Q 1369 366 1369 747 
L 1369 3034 
Q 1369 3497 1338 3628 
Q 1316 3728 1258 3775 
Q 1200 3822 1119 3822 
Q 1003 3822 797 3725 
L 750 3822 
z
" transform="scale(0.015625)"/>
        <path id="TimesNewRomanPSMT-2e" d="M 800 606 
Q 947 606 1047 504 
Q 1147 403 1147 259 
Q 1147 116 1045 14 
Q 944 -88 800 -88 
Q 656 -88 554 14 
Q 453 116 453 259 
Q 453 406 554 506 
Q 656 606 800 606 
z
" transform="scale(0.015625)"/>
        <path id="TimesNewRomanPSMT-30" d="M 231 2094 
Q 231 2819 450 3342 
Q 669 3866 1031 4122 
Q 1313 4325 1613 4325 
Q 2100 4325 2488 3828 
Q 2972 3213 2972 2159 
Q 2972 1422 2759 906 
Q 2547 391 2217 158 
Q 1888 -75 1581 -75 
Q 975 -75 572 641 
Q 231 1244 231 2094 
z
M 844 2016 
Q 844 1141 1059 588 
Q 1238 122 1591 122 
Q 1759 122 1940 273 
Q 2122 425 2216 781 
Q 2359 1319 2359 2297 
Q 2359 3022 2209 3506 
Q 2097 3866 1919 4016 
Q 1791 4119 1609 4119 
Q 1397 4119 1231 3928 
Q 1006 3669 925 3112 
Q 844 2556 844 2016 
z
" transform="scale(0.015625)"/>
       </defs>
       <use xlink:href="#TimesNewRomanPSMT-2212"/>
       <use xlink:href="#TimesNewRomanPSMT-31" x="56.396484"/>
       <use xlink:href="#TimesNewRomanPSMT-2e" x="106.396484"/>
       <use xlink:href="#TimesNewRomanPSMT-30" x="131.396484"/>
       <use xlink:href="#TimesNewRomanPSMT-30" x="181.396484"/>
      </g>
     </g>
    </g>
    <g id="xtick_2">
     <g id="line2d_2">
      <g>
       <use xlink:href="#m5243df01a6" x="80.813714" y="292.312" style="stroke: #000000; stroke-width: 0.8"/>
      </g>
     </g>
     <g id="text_2">
      <!-- −0.75 -->
      <g transform="translate(69.244183 306.25575) scale(0.1 -0.1)">
       <defs>
        <path id="TimesNewRomanPSMT-37" d="M 644 4238 
L 2916 4238 
L 2916 4119 
L 1503 -88 
L 1153 -88 
L 2419 3728 
L 1253 3728 
Q 900 3728 750 3644 
Q 488 3500 328 3200 
L 238 3234 
L 644 4238 
z
" transform="scale(0.015625)"/>
        <path id="TimesNewRomanPSMT-35" d="M 2778 4238 
L 2534 3706 
L 1259 3706 
L 981 3138 
Q 1809 3016 2294 2522 
Q 2709 2097 2709 1522 
Q 2709 1188 2573 903 
Q 2438 619 2231 419 
Q 2025 219 1772 97 
Q 1413 -75 1034 -75 
Q 653 -75 479 54 
Q 306 184 306 341 
Q 306 428 378 495 
Q 450 563 559 563 
Q 641 563 702 538 
Q 763 513 909 409 
Q 1144 247 1384 247 
Q 1750 247 2026 523 
Q 2303 800 2303 1197 
Q 2303 1581 2056 1914 
Q 1809 2247 1375 2428 
Q 1034 2569 447 2591 
L 1259 4238 
L 2778 4238 
z
" transform="scale(0.015625)"/>
       </defs>
       <use xlink:href="#TimesNewRomanPSMT-2212"/>
       <use xlink:href="#TimesNewRomanPSMT-30" x="56.396484"/>
       <use xlink:href="#TimesNewRomanPSMT-2e" x="106.396484"/>
       <use xlink:href="#TimesNewRomanPSMT-37" x="131.396484"/>
       <use xlink:href="#TimesNewRomanPSMT-35" x="181.396484"/>
      </g>
     </g>
    </g>
    <g id="xtick_3">
     <g id="line2d_3">
      <g>
       <use xlink:href="#m5243df01a6" x="114.825143" y="292.312" style="stroke: #000000; stroke-width: 0.8"/>
      </g>
     </g>
     <g id="text_3">
      <!-- −0.50 -->
      <g transform="translate(103.255612 306.25575) scale(0.1 -0.1)">
       <use xlink:href="#TimesNewRomanPSMT-2212"/>
       <use xlink:href="#TimesNewRomanPSMT-30" x="56.396484"/>
       <use xlink:href="#TimesNewRomanPSMT-2e" x="106.396484"/>
       <use xlink:href="#TimesNewRomanPSMT-35" x="131.396484"/>
       <use xlink:href="#TimesNewRomanPSMT-30" x="181.396484"/>
      </g>
     </g>
    </g>
    <g id="xtick_4">
     <g id="line2d_4">
      <g>
       <use xlink:href="#m5243df01a6" x="148.836571" y="292.312" style="stroke: #000000; stroke-width: 0.8"/>
      </g>
     </g>
     <g id="text_4">
      <!-- −0.25 -->
      <g transform="translate(137.26704 306.25575) scale(0.1 -0.1)">
       <defs>
        <path id="TimesNewRomanPSMT-32" d="M 2934 816 
L 2638 0 
L 138 0 
L 138 116 
Q 1241 1122 1691 1759 
Q 2141 2397 2141 2925 
Q 2141 3328 1894 3587 
Q 1647 3847 1303 3847 
Q 991 3847 742 3664 
Q 494 3481 375 3128 
L 259 3128 
Q 338 3706 661 4015 
Q 984 4325 1469 4325 
Q 1984 4325 2329 3994 
Q 2675 3663 2675 3213 
Q 2675 2891 2525 2569 
Q 2294 2063 1775 1497 
Q 997 647 803 472 
L 1909 472 
Q 2247 472 2383 497 
Q 2519 522 2628 598 
Q 2738 675 2819 816 
L 2934 816 
z
" transform="scale(0.015625)"/>
       </defs>
       <use xlink:href="#TimesNewRomanPSMT-2212"/>
       <use xlink:href="#TimesNewRomanPSMT-30" x="56.396484"/>
       <use xlink:href="#TimesNewRomanPSMT-2e" x="106.396484"/>
       <use xlink:href="#TimesNewRomanPSMT-32" x="131.396484"/>
       <use xlink:href="#TimesNewRomanPSMT-35" x="181.396484"/>
      </g>
     </g>
    </g>
    <g id="xtick_5">
     <g id="line2d_5">
      <g>
       <use xlink:href="#m5243df01a6" x="182.848" y="292.312" style="stroke: #000000; stroke-width: 0.8"/>
      </g>
     </g>
     <g id="text_5">
      <!-- 0.00 -->
      <g transform="translate(174.098 306.25575) scale(0.1 -0.1)">
       <use xlink:href="#TimesNewRomanPSMT-30"/>
       <use xlink:href="#TimesNewRomanPSMT-2e" x="50"/>
       <use xlink:href="#TimesNewRomanPSMT-30" x="75"/>
       <use xlink:href="#TimesNewRomanPSMT-30" x="125"/>
      </g>
     </g>
    </g>
    <g id="xtick_6">
     <g id="line2d_6">
      <g>
       <use xlink:href="#m5243df01a6" x="216.859429" y="292.312" style="stroke: #000000; stroke-width: 0.8"/>
      </g>
     </g>
     <g id="text_6">
      <!-- 0.25 -->
      <g transform="translate(208.109429 306.25575) scale(0.1 -0.1)">
       <use xlink:href="#TimesNewRomanPSMT-30"/>
       <use xlink:href="#TimesNewRomanPSMT-2e" x="50"/>
       <use xlink:href="#TimesNewRomanPSMT-32" x="75"/>
       <use xlink:href="#TimesNewRomanPSMT-35" x="125"/>
      </g>
     </g>
    </g>
    <g id="xtick_7">
     <g id="line2d_7">
      <g>
       <use xlink:href="#m5243df01a6" x="250.870857" y="292.312" style="stroke: #000000; stroke-width: 0.8"/>
      </g>
     </g>
     <g id="text_7">
      <!-- 0.50 -->
      <g transform="translate(242.120857 306.25575) scale(0.1 -0.1)">
       <use xlink:href="#TimesNewRomanPSMT-30"/>
       <use xlink:href="#TimesNewRomanPSMT-2e" x="50"/>
       <use xlink:href="#TimesNewRomanPSMT-35" x="75"/>
       <use xlink:href="#TimesNewRomanPSMT-30" x="125"/>
      </g>
     </g>
    </g>
    <g id="xtick_8">
     <g id="line2d_8">
      <g>
       <use xlink:href="#m5243df01a6" x="284.882286" y="292.312" style="stroke: #000000; stroke-width: 0.8"/>
      </g>
     </g>
     <g id="text_8">
      <!-- 0.75 -->
      <g transform="translate(276.132286 306.25575) scale(0.1 -0.1)">
       <use xlink:href="#TimesNewRomanPSMT-30"/>
       <use xlink:href="#TimesNewRomanPSMT-2e" x="50"/>
       <use xlink:href="#TimesNewRomanPSMT-37" x="75"/>
       <use xlink:href="#TimesNewRomanPSMT-35" x="125"/>
      </g>
     </g>
    </g>
    <g id="xtick_9">
     <g id="line2d_9">
      <g>
       <use xlink:href="#m5243df01a6" x="318.893714" y="292.312" style="stroke: #000000; stroke-width: 0.8"/>
      </g>
     </g>
     <g id="text_9">
      <!-- 1.00 -->
      <g transform="translate(310.143714 306.25575) scale(0.1 -0.1)">
       <use xlink:href="#TimesNewRomanPSMT-31"/>
       <use xlink:href="#TimesNewRomanPSMT-2e" x="50"/>
       <use xlink:href="#TimesNewRomanPSMT-30" x="75"/>
       <use xlink:href="#TimesNewRomanPSMT-30" x="125"/>
      </g>
     </g>
    </g>
    <g id="text_10">
     <!-- $\theta_1$ ($\mu$) -->
     <g transform="translate(170.798 319.494812) scale(0.1 -0.1)">
      <defs>
       <path id="Cmmi10-b5" d="M 1031 -72 
Q 741 -72 566 140 
Q 391 353 323 653 
Q 256 953 256 1247 
L 256 1253 
Q 256 1572 317 1915 
Q 378 2259 493 2601 
Q 609 2944 744 3213 
Q 838 3400 986 3631 
Q 1134 3863 1317 4064 
Q 1500 4266 1711 4389 
Q 1922 4513 2138 4513 
L 2144 4513 
Q 2375 4513 2529 4384 
Q 2684 4256 2770 4056 
Q 2856 3856 2890 3628 
Q 2925 3400 2925 3194 
Q 2925 2709 2794 2204 
Q 2663 1700 2431 1228 
Q 2344 1050 2189 809 
Q 2034 569 1861 378 
Q 1688 188 1472 58 
Q 1256 -72 1038 -72 
L 1031 -72 
z
M 1044 97 
Q 1256 97 1451 323 
Q 1647 550 1794 873 
Q 1941 1197 2052 1536 
Q 2163 1875 2216 2113 
L 909 2113 
Q 809 1709 753 1417 
Q 697 1125 697 844 
Q 697 97 1044 97 
z
M 959 2338 
L 2272 2338 
Q 2341 2619 2381 2808 
Q 2422 2997 2450 3206 
Q 2478 3416 2478 3597 
Q 2478 4347 2138 4347 
Q 1731 4347 1436 3692 
Q 1141 3038 959 2338 
z
" transform="scale(0.015625)"/>
       <path id="Cmr10-31" d="M 594 0 
L 594 225 
Q 1394 225 1394 428 
L 1394 3788 
Q 1063 3628 556 3628 
L 556 3853 
Q 1341 3853 1741 4263 
L 1831 4263 
Q 1853 4263 1873 4245 
Q 1894 4228 1894 4206 
L 1894 428 
Q 1894 225 2694 225 
L 2694 0 
L 594 0 
z
" transform="scale(0.015625)"/>
       <path id="TimesNewRomanPSMT-20" transform="scale(0.015625)"/>
       <path id="TimesNewRomanPSMT-28" d="M 1988 -1253 
L 1988 -1369 
Q 1516 -1131 1200 -813 
Q 750 -359 506 256 
Q 263 872 263 1534 
Q 263 2503 741 3301 
Q 1219 4100 1988 4444 
L 1988 4313 
Q 1603 4100 1356 3731 
Q 1109 3363 987 2797 
Q 866 2231 866 1616 
Q 866 947 969 400 
Q 1050 -31 1165 -292 
Q 1281 -553 1476 -793 
Q 1672 -1034 1988 -1253 
z
" transform="scale(0.015625)"/>
       <path id="Cmmi10-b9" d="M 178 -1203 
Q 178 -1166 184 -1153 
L 1125 2625 
Q 1153 2716 1226 2772 
Q 1300 2828 1394 2828 
Q 1475 2828 1531 2779 
Q 1588 2731 1588 2650 
Q 1588 2631 1586 2620 
Q 1584 2609 1581 2597 
L 1203 1100 
Q 1141 834 1141 641 
Q 1141 403 1253 250 
Q 1366 97 1594 97 
Q 2059 97 2413 678 
Q 2416 684 2417 687 
Q 2419 691 2419 697 
L 2881 2553 
Q 2903 2638 2981 2698 
Q 3059 2759 3150 2759 
Q 3225 2759 3283 2709 
Q 3341 2659 3341 2578 
Q 3341 2541 3334 2528 
L 2875 684 
Q 2828 503 2828 372 
Q 2828 97 3016 97 
Q 3216 97 3317 344 
Q 3419 591 3494 941 
Q 3506 978 3547 978 
L 3622 978 
Q 3647 978 3664 958 
Q 3681 938 3681 916 
Q 3569 469 3436 198 
Q 3303 -72 3003 -72 
Q 2791 -72 2627 50 
Q 2463 172 2413 378 
Q 2253 178 2039 53 
Q 1825 -72 1588 -72 
Q 1188 -72 959 116 
L 634 -1178 
Q 616 -1269 541 -1325 
Q 466 -1381 372 -1381 
Q 294 -1381 236 -1332 
Q 178 -1284 178 -1203 
z
" transform="scale(0.015625)"/>
       <path id="TimesNewRomanPSMT-29" d="M 144 4313 
L 144 4444 
Q 619 4209 934 3891 
Q 1381 3434 1625 2820 
Q 1869 2206 1869 1541 
Q 1869 572 1392 -226 
Q 916 -1025 144 -1369 
L 144 -1253 
Q 528 -1038 776 -670 
Q 1025 -303 1145 264 
Q 1266 831 1266 1447 
Q 1266 2113 1163 2663 
Q 1084 3094 967 3353 
Q 850 3613 656 3853 
Q 463 4094 144 4313 
z
" transform="scale(0.015625)"/>
      </defs>
      <use xlink:href="#Cmmi10-b5" transform="translate(0 0.484375)"/>
      <use xlink:href="#Cmr10-31" transform="translate(46.923828 -16.521875) scale(0.7)"/>
      <use xlink:href="#TimesNewRomanPSMT-20" transform="translate(88.301172 0.484375)"/>
      <use xlink:href="#TimesNewRomanPSMT-28" transform="translate(113.301172 0.484375)"/>
      <use xlink:href="#Cmmi10-b9" transform="translate(146.601953 0.484375)"/>
      <use xlink:href="#TimesNewRomanPSMT-29" transform="translate(206.807031 0.484375)"/>
     </g>
    </g>
   </g>
   <g id="matplotlib.axis_2">
    <g id="ytick_1">
     <g id="line2d_10">
      <defs>
       <path id="m805e7cd7a0" d="M 0 0 
L -3.5 0 
" style="stroke: #000000; stroke-width: 0.8"/>
      </defs>
      <g>
       <use xlink:href="#m805e7cd7a0" x="40" y="279.0064" style="stroke: #000000; stroke-width: 0.8"/>
      </g>
     </g>
     <g id="text_11">
      <!-- 0.1 -->
      <g transform="translate(20.5 282.478275) scale(0.1 -0.1)">
       <use xlink:href="#TimesNewRomanPSMT-30"/>
       <use xlink:href="#TimesNewRomanPSMT-2e" x="50"/>
       <use xlink:href="#TimesNewRomanPSMT-31" x="75"/>
      </g>
     </g>
    </g>
    <g id="ytick_2">
     <g id="line2d_11">
      <g>
       <use xlink:href="#m805e7cd7a0" x="40" y="252.3952" style="stroke: #000000; stroke-width: 0.8"/>
      </g>
     </g>
     <g id="text_12">
      <!-- 0.2 -->
      <g transform="translate(20.5 255.867075) scale(0.1 -0.1)">
       <use xlink:href="#TimesNewRomanPSMT-30"/>
       <use xlink:href="#TimesNewRomanPSMT-2e" x="50"/>
       <use xlink:href="#TimesNewRomanPSMT-32" x="75"/>
      </g>
     </g>
    </g>
    <g id="ytick_3">
     <g id="line2d_12">
      <g>
       <use xlink:href="#m805e7cd7a0" x="40" y="225.784" style="stroke: #000000; stroke-width: 0.8"/>
      </g>
     </g>
     <g id="text_13">
      <!-- 0.3 -->
      <g transform="translate(20.5 229.255875) scale(0.1 -0.1)">
       <defs>
        <path id="TimesNewRomanPSMT-33" d="M 325 3431 
Q 506 3859 782 4092 
Q 1059 4325 1472 4325 
Q 1981 4325 2253 3994 
Q 2459 3747 2459 3466 
Q 2459 3003 1878 2509 
Q 2269 2356 2469 2072 
Q 2669 1788 2669 1403 
Q 2669 853 2319 450 
Q 1863 -75 997 -75 
Q 569 -75 414 31 
Q 259 138 259 259 
Q 259 350 332 419 
Q 406 488 509 488 
Q 588 488 669 463 
Q 722 447 909 348 
Q 1097 250 1169 231 
Q 1284 197 1416 197 
Q 1734 197 1970 444 
Q 2206 691 2206 1028 
Q 2206 1275 2097 1509 
Q 2016 1684 1919 1775 
Q 1784 1900 1550 2001 
Q 1316 2103 1072 2103 
L 972 2103 
L 972 2197 
Q 1219 2228 1467 2375 
Q 1716 2522 1828 2728 
Q 1941 2934 1941 3181 
Q 1941 3503 1739 3701 
Q 1538 3900 1238 3900 
Q 753 3900 428 3381 
L 325 3431 
z
" transform="scale(0.015625)"/>
       </defs>
       <use xlink:href="#TimesNewRomanPSMT-30"/>
       <use xlink:href="#TimesNewRomanPSMT-2e" x="50"/>
       <use xlink:href="#TimesNewRomanPSMT-33" x="75"/>
      </g>
     </g>
    </g>
    <g id="ytick_4">
     <g id="line2d_13">
      <g>
       <use xlink:href="#m805e7cd7a0" x="40" y="199.1728" style="stroke: #000000; stroke-width: 0.8"/>
      </g>
     </g>
     <g id="text_14">
      <!-- 0.4 -->
      <g transform="translate(20.5 202.644675) scale(0.1 -0.1)">
       <defs>
        <path id="TimesNewRomanPSMT-34" d="M 2978 1563 
L 2978 1119 
L 2409 1119 
L 2409 0 
L 1894 0 
L 1894 1119 
L 100 1119 
L 100 1519 
L 2066 4325 
L 2409 4325 
L 2409 1563 
L 2978 1563 
z
M 1894 1563 
L 1894 3666 
L 406 1563 
L 1894 1563 
z
" transform="scale(0.015625)"/>
       </defs>
       <use xlink:href="#TimesNewRomanPSMT-30"/>
       <use xlink:href="#TimesNewRomanPSMT-2e" x="50"/>
       <use xlink:href="#TimesNewRomanPSMT-34" x="75"/>
      </g>
     </g>
    </g>
    <g id="ytick_5">
     <g id="line2d_14">
      <g>
       <use xlink:href="#m805e7cd7a0" x="40" y="172.5616" style="stroke: #000000; stroke-width: 0.8"/>
      </g>
     </g>
     <g id="text_15">
      <!-- 0.5 -->
      <g transform="translate(20.5 176.033475) scale(0.1 -0.1)">
       <use xlink:href="#TimesNewRomanPSMT-30"/>
       <use xlink:href="#TimesNewRomanPSMT-2e" x="50"/>
       <use xlink:href="#TimesNewRomanPSMT-35" x="75"/>
      </g>
     </g>
    </g>
    <g id="ytick_6">
     <g id="line2d_15">
      <g>
       <use xlink:href="#m805e7cd7a0" x="40" y="145.9504" style="stroke: #000000; stroke-width: 0.8"/>
      </g>
     </g>
     <g id="text_16">
      <!-- 0.6 -->
      <g transform="translate(20.5 149.422275) scale(0.1 -0.1)">
       <defs>
        <path id="TimesNewRomanPSMT-36" d="M 2869 4325 
L 2869 4209 
Q 2456 4169 2195 4045 
Q 1934 3922 1679 3669 
Q 1425 3416 1258 3105 
Q 1091 2794 978 2366 
Q 1428 2675 1881 2675 
Q 2316 2675 2634 2325 
Q 2953 1975 2953 1425 
Q 2953 894 2631 456 
Q 2244 -75 1606 -75 
Q 1172 -75 869 213 
Q 275 772 275 1663 
Q 275 2231 503 2743 
Q 731 3256 1154 3653 
Q 1578 4050 1965 4187 
Q 2353 4325 2688 4325 
L 2869 4325 
z
M 925 2138 
Q 869 1716 869 1456 
Q 869 1156 980 804 
Q 1091 453 1309 247 
Q 1469 100 1697 100 
Q 1969 100 2183 356 
Q 2397 613 2397 1088 
Q 2397 1622 2184 2012 
Q 1972 2403 1581 2403 
Q 1463 2403 1327 2353 
Q 1191 2303 925 2138 
z
" transform="scale(0.015625)"/>
       </defs>
       <use xlink:href="#TimesNewRomanPSMT-30"/>
       <use xlink:href="#TimesNewRomanPSMT-2e" x="50"/>
       <use xlink:href="#TimesNewRomanPSMT-36" x="75"/>
      </g>
     </g>
    </g>
    <g id="ytick_7">
     <g id="line2d_16">
      <g>
       <use xlink:href="#m805e7cd7a0" x="40" y="119.3392" style="stroke: #000000; stroke-width: 0.8"/>
      </g>
     </g>
     <g id="text_17">
      <!-- 0.7 -->
      <g transform="translate(20.5 122.811075) scale(0.1 -0.1)">
       <use xlink:href="#TimesNewRomanPSMT-30"/>
       <use xlink:href="#TimesNewRomanPSMT-2e" x="50"/>
       <use xlink:href="#TimesNewRomanPSMT-37" x="75"/>
      </g>
     </g>
    </g>
    <g id="ytick_8">
     <g id="line2d_17">
      <g>
       <use xlink:href="#m805e7cd7a0" x="40" y="92.728" style="stroke: #000000; stroke-width: 0.8"/>
      </g>
     </g>
     <g id="text_18">
      <!-- 0.8 -->
      <g transform="translate(20.5 96.199875) scale(0.1 -0.1)">
       <defs>
        <path id="TimesNewRomanPSMT-38" d="M 1228 2134 
Q 725 2547 579 2797 
Q 434 3047 434 3316 
Q 434 3728 753 4026 
Q 1072 4325 1600 4325 
Q 2113 4325 2425 4047 
Q 2738 3769 2738 3413 
Q 2738 3175 2569 2928 
Q 2400 2681 1866 2347 
Q 2416 1922 2594 1678 
Q 2831 1359 2831 1006 
Q 2831 559 2490 242 
Q 2150 -75 1597 -75 
Q 994 -75 656 303 
Q 388 606 388 966 
Q 388 1247 577 1523 
Q 766 1800 1228 2134 
z
M 1719 2469 
Q 2094 2806 2194 3001 
Q 2294 3197 2294 3444 
Q 2294 3772 2109 3958 
Q 1925 4144 1606 4144 
Q 1288 4144 1088 3959 
Q 888 3775 888 3528 
Q 888 3366 970 3203 
Q 1053 3041 1206 2894 
L 1719 2469 
z
M 1375 2016 
Q 1116 1797 991 1539 
Q 866 1281 866 981 
Q 866 578 1086 336 
Q 1306 94 1647 94 
Q 1984 94 2187 284 
Q 2391 475 2391 747 
Q 2391 972 2272 1150 
Q 2050 1481 1375 2016 
z
" transform="scale(0.015625)"/>
       </defs>
       <use xlink:href="#TimesNewRomanPSMT-30"/>
       <use xlink:href="#TimesNewRomanPSMT-2e" x="50"/>
       <use xlink:href="#TimesNewRomanPSMT-38" x="75"/>
      </g>
     </g>
    </g>
    <g id="ytick_9">
     <g id="line2d_18">
      <g>
       <use xlink:href="#m805e7cd7a0" x="40" y="66.1168" style="stroke: #000000; stroke-width: 0.8"/>
      </g>
     </g>
     <g id="text_19">
      <!-- 0.9 -->
      <g transform="translate(20.5 69.588675) scale(0.1 -0.1)">
       <defs>
        <path id="TimesNewRomanPSMT-39" d="M 338 -88 
L 338 28 
Q 744 34 1094 217 
Q 1444 400 1770 856 
Q 2097 1313 2225 1859 
Q 1734 1544 1338 1544 
Q 891 1544 572 1889 
Q 253 2234 253 2806 
Q 253 3363 572 3797 
Q 956 4325 1575 4325 
Q 2097 4325 2469 3894 
Q 2925 3359 2925 2575 
Q 2925 1869 2578 1258 
Q 2231 647 1613 244 
Q 1109 -88 516 -88 
L 338 -88 
z
M 2275 2091 
Q 2331 2497 2331 2741 
Q 2331 3044 2228 3395 
Q 2125 3747 1936 3934 
Q 1747 4122 1506 4122 
Q 1228 4122 1018 3872 
Q 809 3622 809 3128 
Q 809 2469 1088 2097 
Q 1291 1828 1588 1828 
Q 1731 1828 1928 1897 
Q 2125 1966 2275 2091 
z
" transform="scale(0.015625)"/>
       </defs>
       <use xlink:href="#TimesNewRomanPSMT-30"/>
       <use xlink:href="#TimesNewRomanPSMT-2e" x="50"/>
       <use xlink:href="#TimesNewRomanPSMT-39" x="75"/>
      </g>
     </g>
    </g>
    <g id="ytick_10">
     <g id="line2d_19">
      <g>
       <use xlink:href="#m805e7cd7a0" x="40" y="39.5056" style="stroke: #000000; stroke-width: 0.8"/>
      </g>
     </g>
     <g id="text_20">
      <!-- 1.0 -->
      <g transform="translate(20.5 42.977475) scale(0.1 -0.1)">
       <use xlink:href="#TimesNewRomanPSMT-31"/>
       <use xlink:href="#TimesNewRomanPSMT-2e" x="50"/>
       <use xlink:href="#TimesNewRomanPSMT-30" x="75"/>
      </g>
     </g>
    </g>
    <g id="text_21">
     <!-- $\theta_2$ ($\sigma$) -->
     <g transform="translate(14.3 171.106) rotate(-90) scale(0.1 -0.1)">
      <defs>
       <path id="Cmr10-32" d="M 319 0 
L 319 172 
Q 319 188 331 206 
L 1325 1306 
Q 1550 1550 1690 1715 
Q 1831 1881 1968 2097 
Q 2106 2313 2186 2536 
Q 2266 2759 2266 3009 
Q 2266 3272 2169 3511 
Q 2072 3750 1880 3894 
Q 1688 4038 1416 4038 
Q 1138 4038 916 3870 
Q 694 3703 603 3438 
Q 628 3444 672 3444 
Q 816 3444 917 3347 
Q 1019 3250 1019 3097 
Q 1019 2950 917 2848 
Q 816 2747 672 2747 
Q 522 2747 420 2851 
Q 319 2956 319 3097 
Q 319 3338 409 3548 
Q 500 3759 670 3923 
Q 841 4088 1055 4175 
Q 1269 4263 1509 4263 
Q 1875 4263 2190 4108 
Q 2506 3953 2690 3670 
Q 2875 3388 2875 3009 
Q 2875 2731 2753 2481 
Q 2631 2231 2440 2026 
Q 2250 1822 1953 1562 
Q 1656 1303 1563 1216 
L 838 519 
L 1453 519 
Q 1906 519 2211 526 
Q 2516 534 2534 550 
Q 2609 631 2688 1141 
L 2875 1141 
L 2694 0 
L 319 0 
z
" transform="scale(0.015625)"/>
       <path id="Cmmi10-be" d="M 1197 -72 
Q 913 -72 692 64 
Q 472 200 351 431 
Q 231 663 231 941 
Q 231 1238 365 1566 
Q 500 1894 733 2166 
Q 966 2438 1259 2598 
Q 1553 2759 1863 2759 
L 3475 2759 
Q 3541 2759 3587 2715 
Q 3634 2672 3634 2597 
Q 3634 2503 3567 2433 
Q 3500 2363 3406 2363 
L 2625 2363 
Q 2809 2088 2809 1697 
Q 2809 1375 2684 1062 
Q 2559 750 2337 492 
Q 2116 234 1820 81 
Q 1525 -72 1197 -72 
z
M 1203 97 
Q 1553 97 1823 370 
Q 2094 644 2237 1039 
Q 2381 1434 2381 1772 
Q 2381 2047 2229 2205 
Q 2078 2363 1806 2363 
Q 1434 2363 1173 2113 
Q 913 1863 783 1484 
Q 653 1106 653 756 
Q 653 481 798 289 
Q 944 97 1203 97 
z
" transform="scale(0.015625)"/>
      </defs>
      <use xlink:href="#Cmmi10-b5" transform="translate(0 0.484375)"/>
      <use xlink:href="#Cmr10-32" transform="translate(46.923828 -16.521875) scale(0.7)"/>
      <use xlink:href="#TimesNewRomanPSMT-20" transform="translate(88.301172 0.484375)"/>
      <use xlink:href="#TimesNewRomanPSMT-28" transform="translate(113.301172 0.484375)"/>
      <use xlink:href="#Cmmi10-be" transform="translate(146.601953 0.484375)"/>
      <use xlink:href="#TimesNewRomanPSMT-29" transform="translate(203.682031 0.484375)"/>
     </g>
    </g>
   </g>
   <g id="patch_3">
    <path d="M 40 292.312 
L 40 26.2 
" style="fill: none; stroke: #000000; stroke-width: 0.8; stroke-linejoin: miter; stroke-linecap: square"/>
   </g>
   <g id="patch_4">
    <path d="M 325.696 292.312 
L 325.696 26.2 
" style="fill: none; stroke: #000000; stroke-width: 0.8; stroke-linejoin: miter; stroke-linecap: square"/>
   </g>
   <g id="patch_5">
    <path d="M 40 292.312 
L 325.696 292.312 
" style="fill: none; stroke: #000000; stroke-width: 0.8; stroke-linejoin: miter; stroke-linecap: square"/>
   </g>
   <g id="patch_6">
    <path d="M 40 26.2 
L 325.696 26.2 
" style="fill: none; stroke: #000000; stroke-width: 0.8; stroke-linejoin: miter; stroke-linecap: square"/>
   </g>
   <g id="text_22">
    <!-- Exactish -->
    <g transform="translate(162.187375 20.2) scale(0.12 -0.12)">
     <defs>
      <path id="TimesNewRomanPSMT-45" d="M 1338 4006 
L 1338 2331 
L 2269 2331 
Q 2631 2331 2753 2441 
Q 2916 2584 2934 2947 
L 3050 2947 
L 3050 1472 
L 2934 1472 
Q 2891 1781 2847 1869 
Q 2791 1978 2662 2040 
Q 2534 2103 2269 2103 
L 1338 2103 
L 1338 706 
Q 1338 425 1363 364 
Q 1388 303 1450 267 
Q 1513 231 1688 231 
L 2406 231 
Q 2766 231 2928 281 
Q 3091 331 3241 478 
Q 3434 672 3638 1063 
L 3763 1063 
L 3397 0 
L 131 0 
L 131 116 
L 281 116 
Q 431 116 566 188 
Q 666 238 702 338 
Q 738 438 738 747 
L 738 3500 
Q 738 3903 656 3997 
Q 544 4122 281 4122 
L 131 4122 
L 131 4238 
L 3397 4238 
L 3444 3309 
L 3322 3309 
Q 3256 3644 3176 3769 
Q 3097 3894 2941 3959 
Q 2816 4006 2500 4006 
L 1338 4006 
z
" transform="scale(0.015625)"/>
      <path id="TimesNewRomanPSMT-78" d="M 84 2863 
L 1431 2863 
L 1431 2747 
Q 1303 2747 1251 2703 
Q 1200 2659 1200 2588 
Q 1200 2513 1309 2356 
Q 1344 2306 1413 2200 
L 1616 1875 
L 1850 2200 
Q 2075 2509 2075 2591 
Q 2075 2656 2022 2701 
Q 1969 2747 1850 2747 
L 1850 2863 
L 2819 2863 
L 2819 2747 
Q 2666 2738 2553 2663 
Q 2400 2556 2134 2200 
L 1744 1678 
L 2456 653 
Q 2719 275 2831 198 
Q 2944 122 3122 113 
L 3122 0 
L 1772 0 
L 1772 113 
Q 1913 113 1991 175 
Q 2050 219 2050 291 
Q 2050 363 1850 653 
L 1431 1266 
L 972 653 
Q 759 369 759 316 
Q 759 241 829 180 
Q 900 119 1041 113 
L 1041 0 
L 106 0 
L 106 113 
Q 219 128 303 191 
Q 422 281 703 653 
L 1303 1450 
L 759 2238 
Q 528 2575 401 2661 
Q 275 2747 84 2747 
L 84 2863 
z
" transform="scale(0.015625)"/>
      <path id="TimesNewRomanPSMT-61" d="M 1822 413 
Q 1381 72 1269 19 
Q 1100 -59 909 -59 
Q 613 -59 420 144 
Q 228 347 228 678 
Q 228 888 322 1041 
Q 450 1253 767 1440 
Q 1084 1628 1822 1897 
L 1822 2009 
Q 1822 2438 1686 2597 
Q 1550 2756 1291 2756 
Q 1094 2756 978 2650 
Q 859 2544 859 2406 
L 866 2225 
Q 866 2081 792 2003 
Q 719 1925 600 1925 
Q 484 1925 411 2006 
Q 338 2088 338 2228 
Q 338 2497 613 2722 
Q 888 2947 1384 2947 
Q 1766 2947 2009 2819 
Q 2194 2722 2281 2516 
Q 2338 2381 2338 1966 
L 2338 994 
Q 2338 584 2353 492 
Q 2369 400 2405 369 
Q 2441 338 2488 338 
Q 2538 338 2575 359 
Q 2641 400 2828 588 
L 2828 413 
Q 2478 -56 2159 -56 
Q 2006 -56 1915 50 
Q 1825 156 1822 413 
z
M 1822 616 
L 1822 1706 
Q 1350 1519 1213 1441 
Q 966 1303 859 1153 
Q 753 1003 753 825 
Q 753 600 887 451 
Q 1022 303 1197 303 
Q 1434 303 1822 616 
z
" transform="scale(0.015625)"/>
      <path id="TimesNewRomanPSMT-63" d="M 2631 1088 
Q 2516 522 2178 217 
Q 1841 -88 1431 -88 
Q 944 -88 581 321 
Q 219 731 219 1428 
Q 219 2103 620 2525 
Q 1022 2947 1584 2947 
Q 2006 2947 2278 2723 
Q 2550 2500 2550 2259 
Q 2550 2141 2473 2067 
Q 2397 1994 2259 1994 
Q 2075 1994 1981 2113 
Q 1928 2178 1911 2362 
Q 1894 2547 1784 2644 
Q 1675 2738 1481 2738 
Q 1169 2738 978 2506 
Q 725 2200 725 1697 
Q 725 1184 976 792 
Q 1228 400 1656 400 
Q 1963 400 2206 609 
Q 2378 753 2541 1131 
L 2631 1088 
z
" transform="scale(0.015625)"/>
      <path id="TimesNewRomanPSMT-74" d="M 1031 3803 
L 1031 2863 
L 1700 2863 
L 1700 2644 
L 1031 2644 
L 1031 788 
Q 1031 509 1111 412 
Q 1191 316 1316 316 
Q 1419 316 1516 380 
Q 1613 444 1666 569 
L 1788 569 
Q 1678 263 1478 108 
Q 1278 -47 1066 -47 
Q 922 -47 784 33 
Q 647 113 581 261 
Q 516 409 516 719 
L 516 2644 
L 63 2644 
L 63 2747 
Q 234 2816 414 2980 
Q 594 3144 734 3369 
Q 806 3488 934 3803 
L 1031 3803 
z
" transform="scale(0.015625)"/>
      <path id="TimesNewRomanPSMT-69" d="M 928 4444 
Q 1059 4444 1151 4351 
Q 1244 4259 1244 4128 
Q 1244 3997 1151 3903 
Q 1059 3809 928 3809 
Q 797 3809 703 3903 
Q 609 3997 609 4128 
Q 609 4259 701 4351 
Q 794 4444 928 4444 
z
M 1188 2947 
L 1188 647 
Q 1188 378 1227 289 
Q 1266 200 1342 156 
Q 1419 113 1622 113 
L 1622 0 
L 231 0 
L 231 113 
Q 441 113 512 153 
Q 584 194 626 287 
Q 669 381 669 647 
L 669 1750 
Q 669 2216 641 2353 
Q 619 2453 572 2492 
Q 525 2531 444 2531 
Q 356 2531 231 2484 
L 188 2597 
L 1050 2947 
L 1188 2947 
z
" transform="scale(0.015625)"/>
      <path id="TimesNewRomanPSMT-73" d="M 2050 2947 
L 2050 1972 
L 1947 1972 
Q 1828 2431 1642 2597 
Q 1456 2763 1169 2763 
Q 950 2763 815 2647 
Q 681 2531 681 2391 
Q 681 2216 781 2091 
Q 878 1963 1175 1819 
L 1631 1597 
Q 2266 1288 2266 781 
Q 2266 391 1970 151 
Q 1675 -88 1309 -88 
Q 1047 -88 709 6 
Q 606 38 541 38 
Q 469 38 428 -44 
L 325 -44 
L 325 978 
L 428 978 
Q 516 541 762 319 
Q 1009 97 1316 97 
Q 1531 97 1667 223 
Q 1803 350 1803 528 
Q 1803 744 1651 891 
Q 1500 1038 1047 1263 
Q 594 1488 453 1669 
Q 313 1847 313 2119 
Q 313 2472 555 2709 
Q 797 2947 1181 2947 
Q 1350 2947 1591 2875 
Q 1750 2828 1803 2828 
Q 1853 2828 1881 2850 
Q 1909 2872 1947 2947 
L 2050 2947 
z
" transform="scale(0.015625)"/>
      <path id="TimesNewRomanPSMT-68" d="M 1041 4444 
L 1041 2350 
Q 1388 2731 1591 2839 
Q 1794 2947 1997 2947 
Q 2241 2947 2416 2812 
Q 2591 2678 2675 2391 
Q 2734 2191 2734 1659 
L 2734 647 
Q 2734 375 2778 275 
Q 2809 200 2884 156 
Q 2959 113 3159 113 
L 3159 0 
L 1753 0 
L 1753 113 
L 1819 113 
Q 2019 113 2097 173 
Q 2175 234 2206 353 
Q 2216 403 2216 647 
L 2216 1659 
Q 2216 2128 2167 2275 
Q 2119 2422 2012 2495 
Q 1906 2569 1756 2569 
Q 1603 2569 1437 2487 
Q 1272 2406 1041 2159 
L 1041 647 
Q 1041 353 1073 281 
Q 1106 209 1195 161 
Q 1284 113 1503 113 
L 1503 0 
L 84 0 
L 84 113 
Q 275 113 384 172 
Q 447 203 484 290 
Q 522 378 522 647 
L 522 3238 
Q 522 3728 498 3840 
Q 475 3953 426 3993 
Q 378 4034 297 4034 
Q 231 4034 84 3984 
L 41 4094 
L 897 4444 
L 1041 4444 
z
" transform="scale(0.015625)"/>
     </defs>
     <use xlink:href="#TimesNewRomanPSMT-45"/>
     <use xlink:href="#TimesNewRomanPSMT-78" x="61.083984"/>
     <use xlink:href="#TimesNewRomanPSMT-61" x="111.083984"/>
     <use xlink:href="#TimesNewRomanPSMT-63" x="155.46875"/>
     <use xlink:href="#TimesNewRomanPSMT-74" x="199.853516"/>
     <use xlink:href="#TimesNewRomanPSMT-69" x="227.636719"/>
     <use xlink:href="#TimesNewRomanPSMT-73" x="255.419922"/>
     <use xlink:href="#TimesNewRomanPSMT-68" x="294.335938"/>
    </g>
   </g>
  </g>
  <g id="axes_2">
   <g id="patch_7">
    <path d="M 343.552 292.312 
L 356.8576 292.312 
L 356.8576 26.2 
L 343.552 26.2 
L 343.552 292.312 
z
" style="fill: none"/>
   </g>
   <g id="QuadMesh_1">
    <path d="M 343.552 292.312 
L 356.8576 292.312 
L 356.8576 265.7008 
L 343.552 265.7008 
L 343.552 292.312 
" clip-path="url(#pdd6f2ed78d)" style="fill: #440154"/>
    <path d="M 343.552 265.7008 
L 356.8576 265.7008 
L 356.8576 239.0896 
L 343.552 239.0896 
L 343.552 265.7008 
" clip-path="url(#pdd6f2ed78d)" style="fill: #482878"/>
    <path d="M 343.552 239.0896 
L 356.8576 239.0896 
L 356.8576 212.4784 
L 343.552 212.4784 
L 343.552 239.0896 
" clip-path="url(#pdd6f2ed78d)" style="fill: #3e4989"/>
    <path d="M 343.552 212.4784 
L 356.8576 212.4784 
L 356.8576 185.8672 
L 343.552 185.8672 
L 343.552 212.4784 
" clip-path="url(#pdd6f2ed78d)" style="fill: #31688e"/>
    <path d="M 343.552 185.8672 
L 356.8576 185.8672 
L 356.8576 159.256 
L 343.552 159.256 
L 343.552 185.8672 
" clip-path="url(#pdd6f2ed78d)" style="fill: #26828e"/>
    <path d="M 343.552 159.256 
L 356.8576 159.256 
L 356.8576 132.6448 
L 343.552 132.6448 
L 343.552 159.256 
" clip-path="url(#pdd6f2ed78d)" style="fill: #1f9e89"/>
    <path d="M 343.552 132.6448 
L 356.8576 132.6448 
L 356.8576 106.0336 
L 343.552 106.0336 
L 343.552 132.6448 
" clip-path="url(#pdd6f2ed78d)" style="fill: #35b779"/>
    <path d="M 343.552 106.0336 
L 356.8576 106.0336 
L 356.8576 79.4224 
L 343.552 79.4224 
L 343.552 106.0336 
" clip-path="url(#pdd6f2ed78d)" style="fill: #6ece58"/>
    <path d="M 343.552 79.4224 
L 356.8576 79.4224 
L 356.8576 52.8112 
L 343.552 52.8112 
L 343.552 79.4224 
" clip-path="url(#pdd6f2ed78d)" style="fill: #b5de2b"/>
    <path d="M 343.552 52.8112 
L 356.8576 52.8112 
L 356.8576 26.2 
L 343.552 26.2 
L 343.552 52.8112 
" clip-path="url(#pdd6f2ed78d)" style="fill: #fde725"/>
   </g>
   <g id="matplotlib.axis_3"/>
   <g id="matplotlib.axis_4">
    <g id="ytick_11">
     <g id="line2d_20">
      <defs>
       <path id="mb9ed3d1641" d="M 0 0 
L 3.5 0 
" style="stroke: #000000; stroke-width: 0.8"/>
      </defs>
      <g>
       <use xlink:href="#mb9ed3d1641" x="356.8576" y="292.312" style="stroke: #000000; stroke-width: 0.8"/>
      </g>
     </g>
     <g id="text_23">
      <!-- 0.00 -->
      <g transform="translate(363.8576 295.783875) scale(0.1 -0.1)">
       <use xlink:href="#TimesNewRomanPSMT-30"/>
       <use xlink:href="#TimesNewRomanPSMT-2e" x="50"/>
       <use xlink:href="#TimesNewRomanPSMT-30" x="75"/>
       <use xlink:href="#TimesNewRomanPSMT-30" x="125"/>
      </g>
     </g>
    </g>
    <g id="ytick_12">
     <g id="line2d_21">
      <g>
       <use xlink:href="#mb9ed3d1641" x="356.8576" y="239.0896" style="stroke: #000000; stroke-width: 0.8"/>
      </g>
     </g>
     <g id="text_24">
      <!-- 0.01 -->
      <g transform="translate(363.8576 242.561475) scale(0.1 -0.1)">
       <use xlink:href="#TimesNewRomanPSMT-30"/>
       <use xlink:href="#TimesNewRomanPSMT-2e" x="50"/>
       <use xlink:href="#TimesNewRomanPSMT-30" x="75"/>
       <use xlink:href="#TimesNewRomanPSMT-31" x="125"/>
      </g>
     </g>
    </g>
    <g id="ytick_13">
     <g id="line2d_22">
      <g>
       <use xlink:href="#mb9ed3d1641" x="356.8576" y="185.8672" style="stroke: #000000; stroke-width: 0.8"/>
      </g>
     </g>
     <g id="text_25">
      <!-- 0.02 -->
      <g transform="translate(363.8576 189.339075) scale(0.1 -0.1)">
       <use xlink:href="#TimesNewRomanPSMT-30"/>
       <use xlink:href="#TimesNewRomanPSMT-2e" x="50"/>
       <use xlink:href="#TimesNewRomanPSMT-30" x="75"/>
       <use xlink:href="#TimesNewRomanPSMT-32" x="125"/>
      </g>
     </g>
    </g>
    <g id="ytick_14">
     <g id="line2d_23">
      <g>
       <use xlink:href="#mb9ed3d1641" x="356.8576" y="132.6448" style="stroke: #000000; stroke-width: 0.8"/>
      </g>
     </g>
     <g id="text_26">
      <!-- 0.03 -->
      <g transform="translate(363.8576 136.116675) scale(0.1 -0.1)">
       <use xlink:href="#TimesNewRomanPSMT-30"/>
       <use xlink:href="#TimesNewRomanPSMT-2e" x="50"/>
       <use xlink:href="#TimesNewRomanPSMT-30" x="75"/>
       <use xlink:href="#TimesNewRomanPSMT-33" x="125"/>
      </g>
     </g>
    </g>
    <g id="ytick_15">
     <g id="line2d_24">
      <g>
       <use xlink:href="#mb9ed3d1641" x="356.8576" y="79.4224" style="stroke: #000000; stroke-width: 0.8"/>
      </g>
     </g>
     <g id="text_27">
      <!-- 0.04 -->
      <g transform="translate(363.8576 82.894275) scale(0.1 -0.1)">
       <use xlink:href="#TimesNewRomanPSMT-30"/>
       <use xlink:href="#TimesNewRomanPSMT-2e" x="50"/>
       <use xlink:href="#TimesNewRomanPSMT-30" x="75"/>
       <use xlink:href="#TimesNewRomanPSMT-34" x="125"/>
      </g>
     </g>
    </g>
    <g id="ytick_16">
     <g id="line2d_25">
      <g>
       <use xlink:href="#mb9ed3d1641" x="356.8576" y="26.2" style="stroke: #000000; stroke-width: 0.8"/>
      </g>
     </g>
     <g id="text_28">
      <!-- 0.05 -->
      <g transform="translate(363.8576 29.671875) scale(0.1 -0.1)">
       <use xlink:href="#TimesNewRomanPSMT-30"/>
       <use xlink:href="#TimesNewRomanPSMT-2e" x="50"/>
       <use xlink:href="#TimesNewRomanPSMT-30" x="75"/>
       <use xlink:href="#TimesNewRomanPSMT-35" x="125"/>
      </g>
     </g>
    </g>
   </g>
   <g id="LineCollection_1"/>
   <g id="patch_8">
    <path d="M 343.552 292.312 
L 350.2048 292.312 
L 356.8576 292.312 
L 356.8576 26.2 
L 350.2048 26.2 
L 343.552 26.2 
L 343.552 292.312 
z
" style="fill: none; stroke: #000000; stroke-width: 0.8; stroke-linejoin: miter; stroke-linecap: square"/>
   </g>
   <g id="text_29">
    <!-- $P([\theta_1,\theta_2]|\mathcal{D})$ -->
    <g transform="translate(318.7648 16.2) scale(0.12 -0.12)">
     <defs>
      <path id="Cmmi10-50" d="M 313 0 
Q 250 0 250 84 
Q 253 100 262 139 
Q 272 178 289 201 
Q 306 225 331 225 
Q 722 225 878 269 
Q 959 297 997 441 
L 1875 3956 
Q 1888 4019 1888 4044 
Q 1888 4113 1813 4122 
Q 1691 4147 1350 4147 
Q 1288 4147 1288 4231 
Q 1291 4247 1300 4286 
Q 1309 4325 1326 4348 
Q 1344 4372 1369 4372 
L 3578 4372 
Q 3881 4372 4165 4264 
Q 4450 4156 4631 3934 
Q 4813 3713 4813 3397 
Q 4813 2991 4527 2672 
Q 4241 2353 3814 2175 
Q 3388 1997 2988 1997 
L 1947 1997 
L 1556 416 
Q 1544 353 1544 325 
Q 1544 300 1551 283 
Q 1559 266 1573 261 
Q 1588 256 1619 250 
Q 1741 225 2081 225 
Q 2144 225 2144 141 
Q 2122 50 2109 25 
Q 2097 0 2034 0 
L 313 0 
z
M 1978 2188 
L 2875 2188 
Q 3497 2188 3822 2522 
Q 3988 2688 4092 3000 
Q 4197 3313 4197 3566 
Q 4197 3881 3956 4014 
Q 3716 4147 3359 4147 
L 2747 4147 
Q 2572 4147 2515 4117 
Q 2459 4088 2413 3928 
L 1978 2188 
z
" transform="scale(0.015625)"/>
      <path id="Cmr10-28" d="M 1984 -1588 
Q 1628 -1306 1370 -942 
Q 1113 -578 948 -165 
Q 784 247 703 697 
Q 622 1147 622 1600 
Q 622 2059 703 2509 
Q 784 2959 951 3375 
Q 1119 3791 1378 4153 
Q 1638 4516 1984 4788 
Q 1984 4800 2016 4800 
L 2075 4800 
Q 2094 4800 2109 4783 
Q 2125 4766 2125 4744 
Q 2125 4716 2113 4703 
Q 1800 4397 1592 4047 
Q 1384 3697 1257 3301 
Q 1131 2906 1075 2482 
Q 1019 2059 1019 1600 
Q 1019 -434 2106 -1491 
Q 2125 -1509 2125 -1544 
Q 2125 -1559 2108 -1579 
Q 2091 -1600 2075 -1600 
L 2016 -1600 
Q 1984 -1600 1984 -1588 
z
" transform="scale(0.015625)"/>
      <path id="Cmr10-5b" d="M 756 -1600 
L 756 4800 
L 1631 4800 
L 1631 4544 
L 1013 4544 
L 1013 -1344 
L 1631 -1344 
L 1631 -1600 
L 756 -1600 
z
" transform="scale(0.015625)"/>
      <path id="Cmmi10-3b" d="M 634 -1153 
Q 634 -1125 659 -1100 
Q 891 -878 1019 -587 
Q 1147 -297 1147 25 
L 1147 103 
Q 1044 0 891 0 
Q 744 0 641 103 
Q 538 206 538 353 
Q 538 503 641 603 
Q 744 703 891 703 
Q 1119 703 1216 492 
Q 1313 281 1313 25 
Q 1313 -331 1170 -651 
Q 1028 -972 769 -1228 
Q 744 -1241 728 -1241 
Q 697 -1241 665 -1212 
Q 634 -1184 634 -1153 
z
" transform="scale(0.015625)"/>
      <path id="Cmr10-5d" d="M 141 -1600 
L 141 -1344 
L 763 -1344 
L 763 4544 
L 141 4544 
L 141 4800 
L 1019 4800 
L 1019 -1600 
L 141 -1600 
z
" transform="scale(0.015625)"/>
      <path id="Cmsy10-6a" d="M 763 -1484 
L 763 4684 
Q 763 4734 800 4767 
Q 838 4800 891 4800 
Q 938 4800 978 4767 
Q 1019 4734 1019 4684 
L 1019 -1484 
Q 1019 -1534 978 -1567 
Q 938 -1600 891 -1600 
Q 838 -1600 800 -1567 
Q 763 -1534 763 -1484 
z
" transform="scale(0.015625)"/>
      <path id="Cmsy10-44" d="M 488 50 
Q 488 141 634 233 
Q 781 325 897 366 
Q 1263 1300 1447 2059 
Q 1694 3056 1766 3994 
Q 1425 3994 1094 3872 
Q 922 3803 833 3695 
Q 744 3588 684 3397 
Q 622 3291 472 3197 
Q 322 3103 206 3103 
L 166 3103 
Q 122 3131 122 3169 
Q 234 3556 581 3828 
Q 928 4100 1387 4236 
Q 1847 4372 2259 4372 
L 2888 4372 
Q 3269 4372 3622 4297 
Q 3975 4222 4267 4048 
Q 4559 3875 4731 3587 
Q 4903 3300 4903 2894 
Q 4903 2266 4572 1728 
Q 4241 1191 3691 802 
Q 3141 413 2506 206 
Q 1872 0 1281 0 
L 531 0 
Q 519 6 503 18 
Q 488 31 488 50 
z
M 1369 378 
L 1691 378 
Q 2194 378 2662 528 
Q 3131 678 3509 968 
Q 3888 1259 4109 1681 
Q 4331 2103 4331 2613 
Q 4331 3119 4053 3430 
Q 3775 3741 3337 3867 
Q 2900 3994 2406 3994 
L 2309 3994 
Q 2238 3200 2016 2316 
Q 1775 1353 1369 378 
z
" transform="scale(0.015625)"/>
      <path id="Cmr10-29" d="M 416 -1600 
Q 359 -1600 359 -1544 
Q 359 -1516 372 -1503 
Q 1466 -434 1466 1600 
Q 1466 3634 384 4691 
Q 359 4706 359 4744 
Q 359 4766 376 4783 
Q 394 4800 416 4800 
L 475 4800 
Q 494 4800 506 4788 
Q 966 4425 1272 3906 
Q 1578 3388 1720 2800 
Q 1863 2213 1863 1600 
Q 1863 1147 1786 708 
Q 1709 269 1542 -157 
Q 1375 -584 1119 -945 
Q 863 -1306 506 -1588 
Q 494 -1600 475 -1600 
L 416 -1600 
z
" transform="scale(0.015625)"/>
     </defs>
     <use xlink:href="#Cmmi10-50"/>
     <use xlink:href="#Cmr10-28" transform="translate(64.208984 0)"/>
     <use xlink:href="#Cmr10-5b" transform="translate(103.027344 0)"/>
     <use xlink:href="#Cmmi10-b5" transform="translate(130.712891 0)"/>
     <use xlink:href="#Cmr10-31" transform="translate(177.636719 -17.00625) scale(0.7)"/>
     <use xlink:href="#Cmmi10-3b" transform="translate(219.014062 0)"/>
     <use xlink:href="#Cmmi10-b5" transform="translate(264.258203 0)"/>
     <use xlink:href="#Cmr10-32" transform="translate(311.182031 -17.00625) scale(0.7)"/>
     <use xlink:href="#Cmr10-5d" transform="translate(352.559375 0)"/>
     <use xlink:href="#Cmsy10-6a" transform="translate(380.244922 0)"/>
     <use xlink:href="#Cmsy10-44" transform="translate(407.930469 0)"/>
     <use xlink:href="#Cmr10-29" transform="translate(485.030078 0)"/>
    </g>
   </g>
  </g>
 </g>
 <defs>
  <clipPath id="pa75a0e7438">
   <rect x="40" y="26.2" width="285.696" height="266.112"/>
  </clipPath>
  <clipPath id="pdd6f2ed78d">
   <rect x="343.552" y="26.2" width="13.3056" height="266.112"/>
  </clipPath>
 </defs>
</svg>
