<?xml version="1.0" encoding="utf-8" standalone="no"?>
<!DOCTYPE svg PUBLIC "-//W3C//DTD SVG 1.1//EN"
  "http://www.w3.org/Graphics/SVG/1.1/DTD/svg11.dtd">
<svg xmlns:xlink="http://www.w3.org/1999/xlink" width="360pt" height="648pt" viewBox="0 0 360 648" xmlns="http://www.w3.org/2000/svg" version="1.1">
 <metadata>
  <rdf:RDF xmlns:dc="http://purl.org/dc/elements/1.1/" xmlns:cc="http://creativecommons.org/ns#" xmlns:rdf="http://www.w3.org/1999/02/22-rdf-syntax-ns#">
   <cc:Work>
    <dc:type rdf:resource="http://purl.org/dc/dcmitype/StillImage"/>
    <dc:date>2025-03-01T21:44:58.335505</dc:date>
    <dc:format>image/svg+xml</dc:format>
    <dc:creator>
     <cc:Agent>
      <dc:title>Matplotlib v3.5.2, https://matplotlib.org/</dc:title>
     </cc:Agent>
    </dc:creator>
   </cc:Work>
  </rdf:RDF>
 </metadata>
 <defs>
  <style type="text/css">*{stroke-linejoin: round; stroke-linecap: butt}</style>
 </defs>
 <g id="figure_1">
  <g id="patch_1">
   <path d="M 0 648 
L 360 648 
L 360 0 
L 0 0 
L 0 648 
z
" style="fill: none"/>
  </g>
  <g id="axes_1">
   <g id="patch_2">
    <path d="M 45 285.66 
L 324 285.66 
L 324 77.76 
L 45 77.76 
L 45 285.66 
z
" style="fill: none"/>
   </g>
   <g id="patch_3">
    <path d="M 31.1895 285.66 
L 58.8105 285.66 
L 58.8105 285.66 
L 31.1895 285.66 
z
" clip-path="url(#p8ace8d662e)"/>
   </g>
   <g id="patch_4">
    <path d="M 59.0895 285.66 
L 86.7105 285.66 
L 86.7105 285.66 
L 59.0895 285.66 
z
" clip-path="url(#p8ace8d662e)"/>
   </g>
   <g id="patch_5">
    <path d="M 86.9895 285.66 
L 114.6105 285.66 
L 114.6105 281.619184 
L 86.9895 281.619184 
z
" clip-path="url(#p8ace8d662e)"/>
   </g>
   <g id="patch_6">
    <path d="M 114.8895 285.66 
L 142.5105 285.66 
L 142.5105 240.633761 
L 114.8895 240.633761 
z
" clip-path="url(#p8ace8d662e)"/>
   </g>
   <g id="patch_7">
    <path d="M 142.7895 285.66 
L 170.4105 285.66 
L 170.4105 141.345131 
L 142.7895 141.345131 
z
" clip-path="url(#p8ace8d662e)"/>
   </g>
   <g id="patch_8">
    <path d="M 170.6895 285.66 
L 198.3105 285.66 
L 198.3105 87.66 
L 170.6895 87.66 
z
" clip-path="url(#p8ace8d662e)"/>
   </g>
   <g id="patch_9">
    <path d="M 198.5895 285.66 
L 226.2105 285.66 
L 226.2105 150.004023 
L 198.5895 150.004023 
z
" clip-path="url(#p8ace8d662e)"/>
   </g>
   <g id="patch_10">
    <path d="M 226.4895 285.66 
L 254.1105 285.66 
L 254.1105 240.633761 
L 226.4895 240.633761 
z
" clip-path="url(#p8ace8d662e)"/>
   </g>
   <g id="patch_11">
    <path d="M 254.3895 285.66 
L 282.0105 285.66 
L 282.0105 281.619184 
L 254.3895 281.619184 
z
" clip-path="url(#p8ace8d662e)"/>
   </g>
   <g id="patch_12">
    <path d="M 282.2895 285.66 
L 309.9105 285.66 
L 309.9105 284.505481 
L 282.2895 284.505481 
z
" clip-path="url(#p8ace8d662e)"/>
   </g>
   <g id="patch_13">
    <path d="M 121.356356 285.66 
L 121.356356 77.76 
L 45 77.76 
L 45 285.66 
z
" clip-path="url(#p8ace8d662e)" style="fill: #808080; opacity: 0.5; stroke: #808080; stroke-linejoin: miter"/>
   </g>
   <g id="patch_14">
    <path d="M 247.643644 285.66 
L 247.643644 77.76 
L 324 77.76 
L 324 285.66 
z
" clip-path="url(#p8ace8d662e)" style="fill: #808080; opacity: 0.5; stroke: #808080; stroke-linejoin: miter"/>
   </g>
   <g id="matplotlib.axis_1">
    <g id="xtick_1">
     <g id="line2d_1">
      <defs>
       <path id="m46931ea375" d="M 0 0 
L 0 3.5 
" style="stroke: #000000; stroke-width: 0.8"/>
      </defs>
      <g>
       <use xlink:href="#m46931ea375" x="45" y="285.66" style="stroke: #000000; stroke-width: 0.8"/>
      </g>
     </g>
     <g id="text_1">
      <!-- −0.5 -->
      <g transform="translate(35.930469 299.60375)scale(0.1 -0.1)">
       <defs>
        <path id="TimesNewRomanPSMT-2212" d="M 3484 2000 
L 116 2000 
L 116 2256 
L 3484 2256 
L 3484 2000 
z
" transform="scale(0.015625)"/>
        <path id="TimesNewRomanPSMT-30" d="M 231 2094 
Q 231 2819 450 3342 
Q 669 3866 1031 4122 
Q 1313 4325 1613 4325 
Q 2100 4325 2488 3828 
Q 2972 3213 2972 2159 
Q 2972 1422 2759 906 
Q 2547 391 2217 158 
Q 1888 -75 1581 -75 
Q 975 -75 572 641 
Q 231 1244 231 2094 
z
M 844 2016 
Q 844 1141 1059 588 
Q 1238 122 1591 122 
Q 1759 122 1940 273 
Q 2122 425 2216 781 
Q 2359 1319 2359 2297 
Q 2359 3022 2209 3506 
Q 2097 3866 1919 4016 
Q 1791 4119 1609 4119 
Q 1397 4119 1231 3928 
Q 1006 3669 925 3112 
Q 844 2556 844 2016 
z
" transform="scale(0.015625)"/>
        <path id="TimesNewRomanPSMT-2e" d="M 800 606 
Q 947 606 1047 504 
Q 1147 403 1147 259 
Q 1147 116 1045 14 
Q 944 -88 800 -88 
Q 656 -88 554 14 
Q 453 116 453 259 
Q 453 406 554 506 
Q 656 606 800 606 
z
" transform="scale(0.015625)"/>
        <path id="TimesNewRomanPSMT-35" d="M 2778 4238 
L 2534 3706 
L 1259 3706 
L 981 3138 
Q 1809 3016 2294 2522 
Q 2709 2097 2709 1522 
Q 2709 1188 2573 903 
Q 2438 619 2231 419 
Q 2025 219 1772 97 
Q 1413 -75 1034 -75 
Q 653 -75 479 54 
Q 306 184 306 341 
Q 306 428 378 495 
Q 450 563 559 563 
Q 641 563 702 538 
Q 763 513 909 409 
Q 1144 247 1384 247 
Q 1750 247 2026 523 
Q 2303 800 2303 1197 
Q 2303 1581 2056 1914 
Q 1809 2247 1375 2428 
Q 1034 2569 447 2591 
L 1259 4238 
L 2778 4238 
z
" transform="scale(0.015625)"/>
       </defs>
       <use xlink:href="#TimesNewRomanPSMT-2212"/>
       <use xlink:href="#TimesNewRomanPSMT-30" x="56.396484"/>
       <use xlink:href="#TimesNewRomanPSMT-2e" x="106.396484"/>
       <use xlink:href="#TimesNewRomanPSMT-35" x="131.396484"/>
      </g>
     </g>
    </g>
    <g id="xtick_2">
     <g id="line2d_2">
      <g>
       <use xlink:href="#m46931ea375" x="72.9" y="285.66" style="stroke: #000000; stroke-width: 0.8"/>
      </g>
     </g>
     <g id="text_2">
      <!-- −0.4 -->
      <g transform="translate(63.830469 299.60375)scale(0.1 -0.1)">
       <defs>
        <path id="TimesNewRomanPSMT-34" d="M 2978 1563 
L 2978 1119 
L 2409 1119 
L 2409 0 
L 1894 0 
L 1894 1119 
L 100 1119 
L 100 1519 
L 2066 4325 
L 2409 4325 
L 2409 1563 
L 2978 1563 
z
M 1894 1563 
L 1894 3666 
L 406 1563 
L 1894 1563 
z
" transform="scale(0.015625)"/>
       </defs>
       <use xlink:href="#TimesNewRomanPSMT-2212"/>
       <use xlink:href="#TimesNewRomanPSMT-30" x="56.396484"/>
       <use xlink:href="#TimesNewRomanPSMT-2e" x="106.396484"/>
       <use xlink:href="#TimesNewRomanPSMT-34" x="131.396484"/>
      </g>
     </g>
    </g>
    <g id="xtick_3">
     <g id="line2d_3">
      <g>
       <use xlink:href="#m46931ea375" x="100.8" y="285.66" style="stroke: #000000; stroke-width: 0.8"/>
      </g>
     </g>
     <g id="text_3">
      <!-- −0.3 -->
      <g transform="translate(91.730469 299.60375)scale(0.1 -0.1)">
       <defs>
        <path id="TimesNewRomanPSMT-33" d="M 325 3431 
Q 506 3859 782 4092 
Q 1059 4325 1472 4325 
Q 1981 4325 2253 3994 
Q 2459 3747 2459 3466 
Q 2459 3003 1878 2509 
Q 2269 2356 2469 2072 
Q 2669 1788 2669 1403 
Q 2669 853 2319 450 
Q 1863 -75 997 -75 
Q 569 -75 414 31 
Q 259 138 259 259 
Q 259 350 332 419 
Q 406 488 509 488 
Q 588 488 669 463 
Q 722 447 909 348 
Q 1097 250 1169 231 
Q 1284 197 1416 197 
Q 1734 197 1970 444 
Q 2206 691 2206 1028 
Q 2206 1275 2097 1509 
Q 2016 1684 1919 1775 
Q 1784 1900 1550 2001 
Q 1316 2103 1072 2103 
L 972 2103 
L 972 2197 
Q 1219 2228 1467 2375 
Q 1716 2522 1828 2728 
Q 1941 2934 1941 3181 
Q 1941 3503 1739 3701 
Q 1538 3900 1238 3900 
Q 753 3900 428 3381 
L 325 3431 
z
" transform="scale(0.015625)"/>
       </defs>
       <use xlink:href="#TimesNewRomanPSMT-2212"/>
       <use xlink:href="#TimesNewRomanPSMT-30" x="56.396484"/>
       <use xlink:href="#TimesNewRomanPSMT-2e" x="106.396484"/>
       <use xlink:href="#TimesNewRomanPSMT-33" x="131.396484"/>
      </g>
     </g>
    </g>
    <g id="xtick_4">
     <g id="line2d_4">
      <g>
       <use xlink:href="#m46931ea375" x="128.7" y="285.66" style="stroke: #000000; stroke-width: 0.8"/>
      </g>
     </g>
     <g id="text_4">
      <!-- −0.2 -->
      <g transform="translate(119.630469 299.60375)scale(0.1 -0.1)">
       <defs>
        <path id="TimesNewRomanPSMT-32" d="M 2934 816 
L 2638 0 
L 138 0 
L 138 116 
Q 1241 1122 1691 1759 
Q 2141 2397 2141 2925 
Q 2141 3328 1894 3587 
Q 1647 3847 1303 3847 
Q 991 3847 742 3664 
Q 494 3481 375 3128 
L 259 3128 
Q 338 3706 661 4015 
Q 984 4325 1469 4325 
Q 1984 4325 2329 3994 
Q 2675 3663 2675 3213 
Q 2675 2891 2525 2569 
Q 2294 2063 1775 1497 
Q 997 647 803 472 
L 1909 472 
Q 2247 472 2383 497 
Q 2519 522 2628 598 
Q 2738 675 2819 816 
L 2934 816 
z
" transform="scale(0.015625)"/>
       </defs>
       <use xlink:href="#TimesNewRomanPSMT-2212"/>
       <use xlink:href="#TimesNewRomanPSMT-30" x="56.396484"/>
       <use xlink:href="#TimesNewRomanPSMT-2e" x="106.396484"/>
       <use xlink:href="#TimesNewRomanPSMT-32" x="131.396484"/>
      </g>
     </g>
    </g>
    <g id="xtick_5">
     <g id="line2d_5">
      <g>
       <use xlink:href="#m46931ea375" x="156.6" y="285.66" style="stroke: #000000; stroke-width: 0.8"/>
      </g>
     </g>
     <g id="text_5">
      <!-- −0.1 -->
      <g transform="translate(147.530469 299.60375)scale(0.1 -0.1)">
       <defs>
        <path id="TimesNewRomanPSMT-31" d="M 750 3822 
L 1781 4325 
L 1884 4325 
L 1884 747 
Q 1884 391 1914 303 
Q 1944 216 2037 169 
Q 2131 122 2419 116 
L 2419 0 
L 825 0 
L 825 116 
Q 1125 122 1212 167 
Q 1300 213 1334 289 
Q 1369 366 1369 747 
L 1369 3034 
Q 1369 3497 1338 3628 
Q 1316 3728 1258 3775 
Q 1200 3822 1119 3822 
Q 1003 3822 797 3725 
L 750 3822 
z
" transform="scale(0.015625)"/>
       </defs>
       <use xlink:href="#TimesNewRomanPSMT-2212"/>
       <use xlink:href="#TimesNewRomanPSMT-30" x="56.396484"/>
       <use xlink:href="#TimesNewRomanPSMT-2e" x="106.396484"/>
       <use xlink:href="#TimesNewRomanPSMT-31" x="131.396484"/>
      </g>
     </g>
    </g>
    <g id="xtick_6">
     <g id="line2d_6">
      <g>
       <use xlink:href="#m46931ea375" x="184.5" y="285.66" style="stroke: #000000; stroke-width: 0.8"/>
      </g>
     </g>
     <g id="text_6">
      <!-- 0.0 -->
      <g transform="translate(178.25 299.60375)scale(0.1 -0.1)">
       <use xlink:href="#TimesNewRomanPSMT-30"/>
       <use xlink:href="#TimesNewRomanPSMT-2e" x="50"/>
       <use xlink:href="#TimesNewRomanPSMT-30" x="75"/>
      </g>
     </g>
    </g>
    <g id="xtick_7">
     <g id="line2d_7">
      <g>
       <use xlink:href="#m46931ea375" x="212.4" y="285.66" style="stroke: #000000; stroke-width: 0.8"/>
      </g>
     </g>
     <g id="text_7">
      <!-- 0.1 -->
      <g transform="translate(206.15 299.60375)scale(0.1 -0.1)">
       <use xlink:href="#TimesNewRomanPSMT-30"/>
       <use xlink:href="#TimesNewRomanPSMT-2e" x="50"/>
       <use xlink:href="#TimesNewRomanPSMT-31" x="75"/>
      </g>
     </g>
    </g>
    <g id="xtick_8">
     <g id="line2d_8">
      <g>
       <use xlink:href="#m46931ea375" x="240.3" y="285.66" style="stroke: #000000; stroke-width: 0.8"/>
      </g>
     </g>
     <g id="text_8">
      <!-- 0.2 -->
      <g transform="translate(234.05 299.60375)scale(0.1 -0.1)">
       <use xlink:href="#TimesNewRomanPSMT-30"/>
       <use xlink:href="#TimesNewRomanPSMT-2e" x="50"/>
       <use xlink:href="#TimesNewRomanPSMT-32" x="75"/>
      </g>
     </g>
    </g>
    <g id="xtick_9">
     <g id="line2d_9">
      <g>
       <use xlink:href="#m46931ea375" x="268.2" y="285.66" style="stroke: #000000; stroke-width: 0.8"/>
      </g>
     </g>
     <g id="text_9">
      <!-- 0.3 -->
      <g transform="translate(261.95 299.60375)scale(0.1 -0.1)">
       <use xlink:href="#TimesNewRomanPSMT-30"/>
       <use xlink:href="#TimesNewRomanPSMT-2e" x="50"/>
       <use xlink:href="#TimesNewRomanPSMT-33" x="75"/>
      </g>
     </g>
    </g>
    <g id="xtick_10">
     <g id="line2d_10">
      <g>
       <use xlink:href="#m46931ea375" x="296.1" y="285.66" style="stroke: #000000; stroke-width: 0.8"/>
      </g>
     </g>
     <g id="text_10">
      <!-- 0.4 -->
      <g transform="translate(289.85 299.60375)scale(0.1 -0.1)">
       <use xlink:href="#TimesNewRomanPSMT-30"/>
       <use xlink:href="#TimesNewRomanPSMT-2e" x="50"/>
       <use xlink:href="#TimesNewRomanPSMT-34" x="75"/>
      </g>
     </g>
    </g>
    <g id="text_11">
     <!-- $\overline{X}$ -->
     <g transform="translate(180.85 312.70375)scale(0.1 -0.1)">
      <defs>
       <path id="TimesNewRomanPSMT-58" d="M 2613 2347 
L 3522 991 
Q 3900 428 4083 279 
Q 4266 131 4547 116 
L 4547 0 
L 2728 0 
L 2728 116 
Q 2909 119 2997 153 
Q 3063 181 3105 239 
Q 3147 297 3147 356 
Q 3147 428 3119 500 
Q 3097 553 2947 775 
L 2228 1863 
L 1341 725 
Q 1200 544 1172 483 
Q 1144 422 1144 356 
Q 1144 256 1228 190 
Q 1313 125 1550 116 
L 1550 0 
L 47 0 
L 47 116 
Q 206 131 322 181 
Q 516 263 691 400 
Q 866 538 1091 822 
L 2091 2084 
L 1256 3306 
Q 916 3803 678 3958 
Q 441 4113 131 4122 
L 131 4238 
L 2091 4238 
L 2091 4122 
Q 1841 4113 1748 4041 
Q 1656 3969 1656 3881 
Q 1656 3766 1806 3544 
L 2456 2572 
L 3209 3525 
Q 3341 3694 3370 3756 
Q 3400 3819 3400 3884 
Q 3400 3950 3363 4000 
Q 3316 4066 3244 4092 
Q 3172 4119 2947 4122 
L 2947 4238 
L 4450 4238 
L 4450 4122 
Q 4272 4113 4159 4066 
Q 3991 3994 3850 3872 
Q 3709 3750 3453 3422 
L 2613 2347 
z
" transform="scale(0.015625)"/>
      </defs>
      <use xlink:href="#TimesNewRomanPSMT-58" transform="translate(0 0.53125)"/>
      <path d="M 0 78.5 
L 0 84.75 
L 72.216797 84.75 
L 72.216797 78.5 
L 0 78.5 
z
"/>
     </g>
    </g>
   </g>
   <g id="matplotlib.axis_2">
    <g id="ytick_1">
     <g id="line2d_11">
      <defs>
       <path id="m569ec59083" d="M 0 0 
L -3.5 0 
" style="stroke: #000000; stroke-width: 0.8"/>
      </defs>
      <g>
       <use xlink:href="#m569ec59083" x="45" y="285.66" style="stroke: #000000; stroke-width: 0.8"/>
      </g>
     </g>
     <g id="text_12">
      <!-- 0 -->
      <g transform="translate(33 289.131875)scale(0.1 -0.1)">
       <use xlink:href="#TimesNewRomanPSMT-30"/>
      </g>
     </g>
    </g>
    <g id="ytick_2">
     <g id="line2d_12">
      <g>
       <use xlink:href="#m569ec59083" x="45" y="256.797026" style="stroke: #000000; stroke-width: 0.8"/>
      </g>
     </g>
     <g id="text_13">
      <!-- 50 -->
      <g transform="translate(28 260.268901)scale(0.1 -0.1)">
       <use xlink:href="#TimesNewRomanPSMT-35"/>
       <use xlink:href="#TimesNewRomanPSMT-30" x="50"/>
      </g>
     </g>
    </g>
    <g id="ytick_3">
     <g id="line2d_13">
      <g>
       <use xlink:href="#m569ec59083" x="45" y="227.934052" style="stroke: #000000; stroke-width: 0.8"/>
      </g>
     </g>
     <g id="text_14">
      <!-- 100 -->
      <g transform="translate(23 231.405927)scale(0.1 -0.1)">
       <use xlink:href="#TimesNewRomanPSMT-31"/>
       <use xlink:href="#TimesNewRomanPSMT-30" x="50"/>
       <use xlink:href="#TimesNewRomanPSMT-30" x="100"/>
      </g>
     </g>
    </g>
    <g id="ytick_4">
     <g id="line2d_14">
      <g>
       <use xlink:href="#m569ec59083" x="45" y="199.071079" style="stroke: #000000; stroke-width: 0.8"/>
      </g>
     </g>
     <g id="text_15">
      <!-- 150 -->
      <g transform="translate(23 202.542954)scale(0.1 -0.1)">
       <use xlink:href="#TimesNewRomanPSMT-31"/>
       <use xlink:href="#TimesNewRomanPSMT-35" x="50"/>
       <use xlink:href="#TimesNewRomanPSMT-30" x="100"/>
      </g>
     </g>
    </g>
    <g id="ytick_5">
     <g id="line2d_15">
      <g>
       <use xlink:href="#m569ec59083" x="45" y="170.208105" style="stroke: #000000; stroke-width: 0.8"/>
      </g>
     </g>
     <g id="text_16">
      <!-- 200 -->
      <g transform="translate(23 173.67998)scale(0.1 -0.1)">
       <use xlink:href="#TimesNewRomanPSMT-32"/>
       <use xlink:href="#TimesNewRomanPSMT-30" x="50"/>
       <use xlink:href="#TimesNewRomanPSMT-30" x="100"/>
      </g>
     </g>
    </g>
    <g id="ytick_6">
     <g id="line2d_16">
      <g>
       <use xlink:href="#m569ec59083" x="45" y="141.345131" style="stroke: #000000; stroke-width: 0.8"/>
      </g>
     </g>
     <g id="text_17">
      <!-- 250 -->
      <g transform="translate(23 144.817006)scale(0.1 -0.1)">
       <use xlink:href="#TimesNewRomanPSMT-32"/>
       <use xlink:href="#TimesNewRomanPSMT-35" x="50"/>
       <use xlink:href="#TimesNewRomanPSMT-30" x="100"/>
      </g>
     </g>
    </g>
    <g id="ytick_7">
     <g id="line2d_17">
      <g>
       <use xlink:href="#m569ec59083" x="45" y="112.482157" style="stroke: #000000; stroke-width: 0.8"/>
      </g>
     </g>
     <g id="text_18">
      <!-- 300 -->
      <g transform="translate(23 115.954032)scale(0.1 -0.1)">
       <use xlink:href="#TimesNewRomanPSMT-33"/>
       <use xlink:href="#TimesNewRomanPSMT-30" x="50"/>
       <use xlink:href="#TimesNewRomanPSMT-30" x="100"/>
      </g>
     </g>
    </g>
    <g id="ytick_8">
     <g id="line2d_18">
      <g>
       <use xlink:href="#m569ec59083" x="45" y="83.619184" style="stroke: #000000; stroke-width: 0.8"/>
      </g>
     </g>
     <g id="text_19">
      <!-- 350 -->
      <g transform="translate(23 87.091059)scale(0.1 -0.1)">
       <use xlink:href="#TimesNewRomanPSMT-33"/>
       <use xlink:href="#TimesNewRomanPSMT-35" x="50"/>
       <use xlink:href="#TimesNewRomanPSMT-30" x="100"/>
      </g>
     </g>
    </g>
    <g id="text_20">
     <!-- # in bin -->
     <g transform="translate(16.860937 196.988125)rotate(-90)scale(0.1 -0.1)">
      <defs>
       <path id="TimesNewRomanPSMT-23" d="M 359 -88 
L 650 1334 
L 116 1334 
L 116 1591 
L 700 1591 
L 916 2663 
L 116 2663 
L 116 2913 
L 975 2913 
L 1259 4334 
L 1519 4334 
L 1234 2913 
L 2288 2913 
L 2591 4334 
L 2850 4334 
L 2553 2913 
L 3084 2913 
L 3084 2663 
L 2506 2663 
L 2288 1591 
L 3084 1591 
L 3084 1334 
L 2234 1334 
L 1944 -88 
L 1691 -88 
L 1975 1334 
L 916 1334 
L 619 -88 
L 359 -88 
z
M 963 1591 
L 2022 1591 
L 2247 2663 
L 1181 2663 
L 963 1591 
z
" transform="scale(0.015625)"/>
       <path id="TimesNewRomanPSMT-20" transform="scale(0.015625)"/>
       <path id="TimesNewRomanPSMT-69" d="M 928 4444 
Q 1059 4444 1151 4351 
Q 1244 4259 1244 4128 
Q 1244 3997 1151 3903 
Q 1059 3809 928 3809 
Q 797 3809 703 3903 
Q 609 3997 609 4128 
Q 609 4259 701 4351 
Q 794 4444 928 4444 
z
M 1188 2947 
L 1188 647 
Q 1188 378 1227 289 
Q 1266 200 1342 156 
Q 1419 113 1622 113 
L 1622 0 
L 231 0 
L 231 113 
Q 441 113 512 153 
Q 584 194 626 287 
Q 669 381 669 647 
L 669 1750 
Q 669 2216 641 2353 
Q 619 2453 572 2492 
Q 525 2531 444 2531 
Q 356 2531 231 2484 
L 188 2597 
L 1050 2947 
L 1188 2947 
z
" transform="scale(0.015625)"/>
       <path id="TimesNewRomanPSMT-6e" d="M 1034 2341 
Q 1538 2947 1994 2947 
Q 2228 2947 2397 2830 
Q 2566 2713 2666 2444 
Q 2734 2256 2734 1869 
L 2734 647 
Q 2734 375 2778 278 
Q 2813 200 2889 156 
Q 2966 113 3172 113 
L 3172 0 
L 1756 0 
L 1756 113 
L 1816 113 
Q 2016 113 2095 173 
Q 2175 234 2206 353 
Q 2219 400 2219 647 
L 2219 1819 
Q 2219 2209 2117 2386 
Q 2016 2563 1775 2563 
Q 1403 2563 1034 2156 
L 1034 647 
Q 1034 356 1069 288 
Q 1113 197 1189 155 
Q 1266 113 1500 113 
L 1500 0 
L 84 0 
L 84 113 
L 147 113 
Q 366 113 442 223 
Q 519 334 519 647 
L 519 1709 
Q 519 2225 495 2337 
Q 472 2450 423 2490 
Q 375 2531 294 2531 
Q 206 2531 84 2484 
L 38 2597 
L 900 2947 
L 1034 2947 
L 1034 2341 
z
" transform="scale(0.015625)"/>
       <path id="TimesNewRomanPSMT-62" d="M 984 2369 
Q 1400 2947 1881 2947 
Q 2322 2947 2650 2570 
Q 2978 2194 2978 1541 
Q 2978 778 2472 313 
Q 2038 -88 1503 -88 
Q 1253 -88 995 3 
Q 738 94 469 275 
L 469 3241 
Q 469 3728 445 3840 
Q 422 3953 372 3993 
Q 322 4034 247 4034 
Q 159 4034 28 3984 
L -16 4094 
L 844 4444 
L 984 4444 
L 984 2369 
z
M 984 2169 
L 984 456 
Q 1144 300 1314 220 
Q 1484 141 1663 141 
Q 1947 141 2192 453 
Q 2438 766 2438 1363 
Q 2438 1913 2192 2208 
Q 1947 2503 1634 2503 
Q 1469 2503 1303 2419 
Q 1178 2356 984 2169 
z
" transform="scale(0.015625)"/>
      </defs>
      <use xlink:href="#TimesNewRomanPSMT-23"/>
      <use xlink:href="#TimesNewRomanPSMT-20" x="50"/>
      <use xlink:href="#TimesNewRomanPSMT-69" x="75"/>
      <use xlink:href="#TimesNewRomanPSMT-6e" x="102.783203"/>
      <use xlink:href="#TimesNewRomanPSMT-20" x="152.783203"/>
      <use xlink:href="#TimesNewRomanPSMT-62" x="177.783203"/>
      <use xlink:href="#TimesNewRomanPSMT-69" x="227.783203"/>
      <use xlink:href="#TimesNewRomanPSMT-6e" x="255.566406"/>
     </g>
    </g>
   </g>
   <g id="line2d_19">
    <path d="M 121.356356 285.66 
L 121.356356 77.76 
" clip-path="url(#p8ace8d662e)" style="fill: none; stroke-dasharray: 5.55,2.4; stroke-dashoffset: 0; stroke: #808080; stroke-width: 1.5"/>
   </g>
   <g id="line2d_20">
    <path d="M 247.643644 285.66 
L 247.643644 77.76 
" clip-path="url(#p8ace8d662e)" style="fill: none; stroke-dasharray: 5.55,2.4; stroke-dashoffset: 0; stroke: #808080; stroke-width: 1.5"/>
   </g>
   <g id="line2d_21">
    <defs>
     <path id="m6d9d8b8c67" d="M 0 1.5 
C 0.397805 1.5 0.77937 1.341951 1.06066 1.06066 
C 1.341951 0.77937 1.5 0.397805 1.5 0 
C 1.5 -0.397805 1.341951 -0.77937 1.06066 -1.06066 
C 0.77937 -1.341951 0.397805 -1.5 0 -1.5 
C -0.397805 -1.5 -0.77937 -1.341951 -1.06066 -1.06066 
C -1.341951 -0.77937 -1.5 -0.397805 -1.5 0 
C -1.5 0.397805 -1.341951 0.77937 -1.06066 1.06066 
C -0.77937 1.341951 -0.397805 1.5 0 1.5 
z
" style="stroke: #0000ff"/>
    </defs>
    <g clip-path="url(#p8ace8d662e)">
     <use xlink:href="#m6d9d8b8c67" x="45" y="285.657245" style="fill: #0000ff; stroke: #0000ff"/>
     <use xlink:href="#m6d9d8b8c67" x="72.9" y="285.592478" style="fill: #0000ff; stroke: #0000ff"/>
     <use xlink:href="#m6d9d8b8c67" x="100.8" y="284.853393" style="fill: #0000ff; stroke: #0000ff"/>
     <use xlink:href="#m6d9d8b8c67" x="128.7" y="280.939517" style="fill: #0000ff; stroke: #0000ff"/>
     <use xlink:href="#m6d9d8b8c67" x="156.6" y="272.063384" style="fill: #0000ff; stroke: #0000ff"/>
     <use xlink:href="#m6d9d8b8c67" x="184.5" y="266.322128" style="fill: #0000ff; stroke: #0000ff"/>
     <use xlink:href="#m6d9d8b8c67" x="212.4" y="272.063384" style="fill: #0000ff; stroke: #0000ff"/>
     <use xlink:href="#m6d9d8b8c67" x="240.3" y="280.939517" style="fill: #0000ff; stroke: #0000ff"/>
     <use xlink:href="#m6d9d8b8c67" x="268.2" y="284.853393" style="fill: #0000ff; stroke: #0000ff"/>
     <use xlink:href="#m6d9d8b8c67" x="296.1" y="285.592478" style="fill: #0000ff; stroke: #0000ff"/>
    </g>
   </g>
   <g id="patch_15">
    <path d="M 45 285.66 
L 45 77.76 
" style="fill: none; stroke: #000000; stroke-width: 0.8; stroke-linejoin: miter; stroke-linecap: square"/>
   </g>
   <g id="patch_16">
    <path d="M 324 285.66 
L 324 77.76 
" style="fill: none; stroke: #000000; stroke-width: 0.8; stroke-linejoin: miter; stroke-linecap: square"/>
   </g>
   <g id="patch_17">
    <path d="M 45 285.66 
L 324 285.66 
" style="fill: none; stroke: #000000; stroke-width: 0.8; stroke-linejoin: miter; stroke-linecap: square"/>
   </g>
   <g id="patch_18">
    <path d="M 45 77.76 
L 324 77.76 
" style="fill: none; stroke: #000000; stroke-width: 0.8; stroke-linejoin: miter; stroke-linecap: square"/>
   </g>
   <g id="text_21">
    <g id="patch_19">
     <path d="M 250.25 167.059063 
L 319.353125 167.059063 
L 319.353125 149.97625 
L 250.25 149.97625 
L 250.25 167.059063 
z
" style="fill: none; opacity: 0"/>
    </g>
    <!-- Fraction: 0.019 -->
    <g transform="translate(254.25 160.92)scale(0.1 -0.1)">
     <defs>
      <path id="TimesNewRomanPSMT-46" d="M 1309 4006 
L 1309 2341 
L 2081 2341 
Q 2347 2341 2470 2458 
Q 2594 2575 2634 2922 
L 2750 2922 
L 2750 1488 
L 2634 1488 
Q 2631 1734 2570 1850 
Q 2509 1966 2401 2023 
Q 2294 2081 2081 2081 
L 1309 2081 
L 1309 750 
Q 1309 428 1350 325 
Q 1381 247 1481 191 
Q 1619 116 1769 116 
L 1922 116 
L 1922 0 
L 103 0 
L 103 116 
L 253 116 
Q 516 116 634 269 
Q 709 369 709 750 
L 709 3488 
Q 709 3809 669 3913 
Q 638 3991 541 4047 
Q 406 4122 253 4122 
L 103 4122 
L 103 4238 
L 3256 4238 
L 3297 3306 
L 3188 3306 
Q 3106 3603 2998 3742 
Q 2891 3881 2733 3943 
Q 2575 4006 2244 4006 
L 1309 4006 
z
" transform="scale(0.015625)"/>
      <path id="TimesNewRomanPSMT-72" d="M 1038 2947 
L 1038 2303 
Q 1397 2947 1775 2947 
Q 1947 2947 2059 2842 
Q 2172 2738 2172 2600 
Q 2172 2478 2090 2393 
Q 2009 2309 1897 2309 
Q 1788 2309 1652 2417 
Q 1516 2525 1450 2525 
Q 1394 2525 1328 2463 
Q 1188 2334 1038 2041 
L 1038 669 
Q 1038 431 1097 309 
Q 1138 225 1241 169 
Q 1344 113 1538 113 
L 1538 0 
L 72 0 
L 72 113 
Q 291 113 397 181 
Q 475 231 506 341 
Q 522 394 522 644 
L 522 1753 
Q 522 2253 501 2348 
Q 481 2444 426 2487 
Q 372 2531 291 2531 
Q 194 2531 72 2484 
L 41 2597 
L 906 2947 
L 1038 2947 
z
" transform="scale(0.015625)"/>
      <path id="TimesNewRomanPSMT-61" d="M 1822 413 
Q 1381 72 1269 19 
Q 1100 -59 909 -59 
Q 613 -59 420 144 
Q 228 347 228 678 
Q 228 888 322 1041 
Q 450 1253 767 1440 
Q 1084 1628 1822 1897 
L 1822 2009 
Q 1822 2438 1686 2597 
Q 1550 2756 1291 2756 
Q 1094 2756 978 2650 
Q 859 2544 859 2406 
L 866 2225 
Q 866 2081 792 2003 
Q 719 1925 600 1925 
Q 484 1925 411 2006 
Q 338 2088 338 2228 
Q 338 2497 613 2722 
Q 888 2947 1384 2947 
Q 1766 2947 2009 2819 
Q 2194 2722 2281 2516 
Q 2338 2381 2338 1966 
L 2338 994 
Q 2338 584 2353 492 
Q 2369 400 2405 369 
Q 2441 338 2488 338 
Q 2538 338 2575 359 
Q 2641 400 2828 588 
L 2828 413 
Q 2478 -56 2159 -56 
Q 2006 -56 1915 50 
Q 1825 156 1822 413 
z
M 1822 616 
L 1822 1706 
Q 1350 1519 1213 1441 
Q 966 1303 859 1153 
Q 753 1003 753 825 
Q 753 600 887 451 
Q 1022 303 1197 303 
Q 1434 303 1822 616 
z
" transform="scale(0.015625)"/>
      <path id="TimesNewRomanPSMT-63" d="M 2631 1088 
Q 2516 522 2178 217 
Q 1841 -88 1431 -88 
Q 944 -88 581 321 
Q 219 731 219 1428 
Q 219 2103 620 2525 
Q 1022 2947 1584 2947 
Q 2006 2947 2278 2723 
Q 2550 2500 2550 2259 
Q 2550 2141 2473 2067 
Q 2397 1994 2259 1994 
Q 2075 1994 1981 2113 
Q 1928 2178 1911 2362 
Q 1894 2547 1784 2644 
Q 1675 2738 1481 2738 
Q 1169 2738 978 2506 
Q 725 2200 725 1697 
Q 725 1184 976 792 
Q 1228 400 1656 400 
Q 1963 400 2206 609 
Q 2378 753 2541 1131 
L 2631 1088 
z
" transform="scale(0.015625)"/>
      <path id="TimesNewRomanPSMT-74" d="M 1031 3803 
L 1031 2863 
L 1700 2863 
L 1700 2644 
L 1031 2644 
L 1031 788 
Q 1031 509 1111 412 
Q 1191 316 1316 316 
Q 1419 316 1516 380 
Q 1613 444 1666 569 
L 1788 569 
Q 1678 263 1478 108 
Q 1278 -47 1066 -47 
Q 922 -47 784 33 
Q 647 113 581 261 
Q 516 409 516 719 
L 516 2644 
L 63 2644 
L 63 2747 
Q 234 2816 414 2980 
Q 594 3144 734 3369 
Q 806 3488 934 3803 
L 1031 3803 
z
" transform="scale(0.015625)"/>
      <path id="TimesNewRomanPSMT-6f" d="M 1600 2947 
Q 2250 2947 2644 2453 
Q 2978 2031 2978 1484 
Q 2978 1100 2793 706 
Q 2609 313 2286 112 
Q 1963 -88 1566 -88 
Q 919 -88 538 428 
Q 216 863 216 1403 
Q 216 1797 411 2186 
Q 606 2575 925 2761 
Q 1244 2947 1600 2947 
z
M 1503 2744 
Q 1338 2744 1170 2645 
Q 1003 2547 900 2300 
Q 797 2053 797 1666 
Q 797 1041 1045 587 
Q 1294 134 1700 134 
Q 2003 134 2200 384 
Q 2397 634 2397 1244 
Q 2397 2006 2069 2444 
Q 1847 2744 1503 2744 
z
" transform="scale(0.015625)"/>
      <path id="TimesNewRomanPSMT-3a" d="M 903 2950 
Q 1047 2950 1148 2848 
Q 1250 2747 1250 2603 
Q 1250 2459 1148 2357 
Q 1047 2256 903 2256 
Q 759 2256 657 2357 
Q 556 2459 556 2603 
Q 556 2747 657 2848 
Q 759 2950 903 2950 
z
M 897 609 
Q 1044 609 1145 506 
Q 1247 403 1247 259 
Q 1247 116 1144 14 
Q 1041 -88 897 -88 
Q 753 -88 651 14 
Q 550 116 550 259 
Q 550 403 651 506 
Q 753 609 897 609 
z
" transform="scale(0.015625)"/>
      <path id="TimesNewRomanPSMT-39" d="M 338 -88 
L 338 28 
Q 744 34 1094 217 
Q 1444 400 1770 856 
Q 2097 1313 2225 1859 
Q 1734 1544 1338 1544 
Q 891 1544 572 1889 
Q 253 2234 253 2806 
Q 253 3363 572 3797 
Q 956 4325 1575 4325 
Q 2097 4325 2469 3894 
Q 2925 3359 2925 2575 
Q 2925 1869 2578 1258 
Q 2231 647 1613 244 
Q 1109 -88 516 -88 
L 338 -88 
z
M 2275 2091 
Q 2331 2497 2331 2741 
Q 2331 3044 2228 3395 
Q 2125 3747 1936 3934 
Q 1747 4122 1506 4122 
Q 1228 4122 1018 3872 
Q 809 3622 809 3128 
Q 809 2469 1088 2097 
Q 1291 1828 1588 1828 
Q 1731 1828 1928 1897 
Q 2125 1966 2275 2091 
z
" transform="scale(0.015625)"/>
     </defs>
     <use xlink:href="#TimesNewRomanPSMT-46"/>
     <use xlink:href="#TimesNewRomanPSMT-72" x="55.615234"/>
     <use xlink:href="#TimesNewRomanPSMT-61" x="88.916016"/>
     <use xlink:href="#TimesNewRomanPSMT-63" x="133.300781"/>
     <use xlink:href="#TimesNewRomanPSMT-74" x="177.685547"/>
     <use xlink:href="#TimesNewRomanPSMT-69" x="205.46875"/>
     <use xlink:href="#TimesNewRomanPSMT-6f" x="233.251953"/>
     <use xlink:href="#TimesNewRomanPSMT-6e" x="283.251953"/>
     <use xlink:href="#TimesNewRomanPSMT-3a" x="333.251953"/>
     <use xlink:href="#TimesNewRomanPSMT-20" x="361.035156"/>
     <use xlink:href="#TimesNewRomanPSMT-30" x="386.035156"/>
     <use xlink:href="#TimesNewRomanPSMT-2e" x="436.035156"/>
     <use xlink:href="#TimesNewRomanPSMT-30" x="461.035156"/>
     <use xlink:href="#TimesNewRomanPSMT-31" x="511.035156"/>
     <use xlink:href="#TimesNewRomanPSMT-39" x="561.035156"/>
    </g>
   </g>
   <g id="text_22">
    <g id="patch_20">
     <path d="M 54.95 167.059063 
L 124.053125 167.059063 
L 124.053125 149.97625 
L 54.95 149.97625 
L 54.95 167.059063 
z
" style="fill: none; opacity: 0"/>
    </g>
    <!-- Fraction: 0.014 -->
    <g transform="translate(58.95 160.92)scale(0.1 -0.1)">
     <use xlink:href="#TimesNewRomanPSMT-46"/>
     <use xlink:href="#TimesNewRomanPSMT-72" x="55.615234"/>
     <use xlink:href="#TimesNewRomanPSMT-61" x="88.916016"/>
     <use xlink:href="#TimesNewRomanPSMT-63" x="133.300781"/>
     <use xlink:href="#TimesNewRomanPSMT-74" x="177.685547"/>
     <use xlink:href="#TimesNewRomanPSMT-69" x="205.46875"/>
     <use xlink:href="#TimesNewRomanPSMT-6f" x="233.251953"/>
     <use xlink:href="#TimesNewRomanPSMT-6e" x="283.251953"/>
     <use xlink:href="#TimesNewRomanPSMT-3a" x="333.251953"/>
     <use xlink:href="#TimesNewRomanPSMT-20" x="361.035156"/>
     <use xlink:href="#TimesNewRomanPSMT-30" x="386.035156"/>
     <use xlink:href="#TimesNewRomanPSMT-2e" x="436.035156"/>
     <use xlink:href="#TimesNewRomanPSMT-30" x="461.035156"/>
     <use xlink:href="#TimesNewRomanPSMT-31" x="511.035156"/>
     <use xlink:href="#TimesNewRomanPSMT-34" x="561.035156"/>
    </g>
   </g>
   <g id="text_23">
    <!-- 1000 samples of length $n=100$ from $X$ ~ U(-2, 2) -->
    <g transform="translate(85.2 58.64)scale(0.1 -0.1)">
     <defs>
      <path id="TimesNewRomanPSMT-73" d="M 2050 2947 
L 2050 1972 
L 1947 1972 
Q 1828 2431 1642 2597 
Q 1456 2763 1169 2763 
Q 950 2763 815 2647 
Q 681 2531 681 2391 
Q 681 2216 781 2091 
Q 878 1963 1175 1819 
L 1631 1597 
Q 2266 1288 2266 781 
Q 2266 391 1970 151 
Q 1675 -88 1309 -88 
Q 1047 -88 709 6 
Q 606 38 541 38 
Q 469 38 428 -44 
L 325 -44 
L 325 978 
L 428 978 
Q 516 541 762 319 
Q 1009 97 1316 97 
Q 1531 97 1667 223 
Q 1803 350 1803 528 
Q 1803 744 1651 891 
Q 1500 1038 1047 1263 
Q 594 1488 453 1669 
Q 313 1847 313 2119 
Q 313 2472 555 2709 
Q 797 2947 1181 2947 
Q 1350 2947 1591 2875 
Q 1750 2828 1803 2828 
Q 1853 2828 1881 2850 
Q 1909 2872 1947 2947 
L 2050 2947 
z
" transform="scale(0.015625)"/>
      <path id="TimesNewRomanPSMT-6d" d="M 1050 2338 
Q 1363 2650 1419 2697 
Q 1559 2816 1721 2881 
Q 1884 2947 2044 2947 
Q 2313 2947 2506 2790 
Q 2700 2634 2766 2338 
Q 3088 2713 3309 2830 
Q 3531 2947 3766 2947 
Q 3994 2947 4170 2830 
Q 4347 2713 4450 2447 
Q 4519 2266 4519 1878 
L 4519 647 
Q 4519 378 4559 278 
Q 4591 209 4675 161 
Q 4759 113 4950 113 
L 4950 0 
L 3538 0 
L 3538 113 
L 3597 113 
Q 3781 113 3884 184 
Q 3956 234 3988 344 
Q 4000 397 4000 647 
L 4000 1878 
Q 4000 2228 3916 2372 
Q 3794 2572 3525 2572 
Q 3359 2572 3192 2489 
Q 3025 2406 2788 2181 
L 2781 2147 
L 2788 2013 
L 2788 647 
Q 2788 353 2820 281 
Q 2853 209 2943 161 
Q 3034 113 3253 113 
L 3253 0 
L 1806 0 
L 1806 113 
Q 2044 113 2133 169 
Q 2222 225 2256 338 
Q 2272 391 2272 647 
L 2272 1878 
Q 2272 2228 2169 2381 
Q 2031 2581 1784 2581 
Q 1616 2581 1450 2491 
Q 1191 2353 1050 2181 
L 1050 647 
Q 1050 366 1089 281 
Q 1128 197 1204 155 
Q 1281 113 1516 113 
L 1516 0 
L 100 0 
L 100 113 
Q 297 113 375 155 
Q 453 197 493 289 
Q 534 381 534 647 
L 534 1741 
Q 534 2213 506 2350 
Q 484 2453 437 2492 
Q 391 2531 309 2531 
Q 222 2531 100 2484 
L 53 2597 
L 916 2947 
L 1050 2947 
L 1050 2338 
z
" transform="scale(0.015625)"/>
      <path id="TimesNewRomanPSMT-70" d="M -6 2578 
L 875 2934 
L 994 2934 
L 994 2266 
Q 1216 2644 1439 2795 
Q 1663 2947 1909 2947 
Q 2341 2947 2628 2609 
Q 2981 2197 2981 1534 
Q 2981 794 2556 309 
Q 2206 -88 1675 -88 
Q 1444 -88 1275 -22 
Q 1150 25 994 166 
L 994 -706 
Q 994 -1000 1030 -1079 
Q 1066 -1159 1155 -1206 
Q 1244 -1253 1478 -1253 
L 1478 -1369 
L -22 -1369 
L -22 -1253 
L 56 -1253 
Q 228 -1256 350 -1188 
Q 409 -1153 442 -1076 
Q 475 -1000 475 -688 
L 475 2019 
Q 475 2297 450 2372 
Q 425 2447 370 2484 
Q 316 2522 222 2522 
Q 147 2522 31 2478 
L -6 2578 
z
M 994 2081 
L 994 1013 
Q 994 666 1022 556 
Q 1066 375 1236 237 
Q 1406 100 1666 100 
Q 1978 100 2172 344 
Q 2425 663 2425 1241 
Q 2425 1897 2138 2250 
Q 1938 2494 1663 2494 
Q 1513 2494 1366 2419 
Q 1253 2363 994 2081 
z
" transform="scale(0.015625)"/>
      <path id="TimesNewRomanPSMT-6c" d="M 1184 4444 
L 1184 647 
Q 1184 378 1223 290 
Q 1263 203 1344 158 
Q 1425 113 1647 113 
L 1647 0 
L 244 0 
L 244 113 
Q 441 113 512 153 
Q 584 194 625 287 
Q 666 381 666 647 
L 666 3247 
Q 666 3731 644 3842 
Q 622 3953 573 3993 
Q 525 4034 450 4034 
Q 369 4034 244 3984 
L 191 4094 
L 1044 4444 
L 1184 4444 
z
" transform="scale(0.015625)"/>
      <path id="TimesNewRomanPSMT-65" d="M 681 1784 
Q 678 1147 991 784 
Q 1303 422 1725 422 
Q 2006 422 2214 576 
Q 2422 731 2563 1106 
L 2659 1044 
Q 2594 616 2278 264 
Q 1963 -88 1488 -88 
Q 972 -88 605 314 
Q 238 716 238 1394 
Q 238 2128 614 2539 
Q 991 2950 1559 2950 
Q 2041 2950 2350 2633 
Q 2659 2316 2659 1784 
L 681 1784 
z
M 681 1966 
L 2006 1966 
Q 1991 2241 1941 2353 
Q 1863 2528 1708 2628 
Q 1553 2728 1384 2728 
Q 1125 2728 920 2526 
Q 716 2325 681 1966 
z
" transform="scale(0.015625)"/>
      <path id="TimesNewRomanPSMT-66" d="M 1319 2638 
L 1319 756 
Q 1319 356 1406 250 
Q 1522 113 1716 113 
L 1975 113 
L 1975 0 
L 266 0 
L 266 113 
L 394 113 
Q 519 113 622 175 
Q 725 238 764 344 
Q 803 450 803 756 
L 803 2638 
L 247 2638 
L 247 2863 
L 803 2863 
L 803 3050 
Q 803 3478 940 3775 
Q 1078 4072 1361 4255 
Q 1644 4438 1997 4438 
Q 2325 4438 2600 4225 
Q 2781 4084 2781 3909 
Q 2781 3816 2700 3733 
Q 2619 3650 2525 3650 
Q 2453 3650 2373 3701 
Q 2294 3753 2178 3923 
Q 2063 4094 1966 4153 
Q 1869 4213 1750 4213 
Q 1606 4213 1506 4136 
Q 1406 4059 1362 3898 
Q 1319 3738 1319 3069 
L 1319 2863 
L 2056 2863 
L 2056 2638 
L 1319 2638 
z
" transform="scale(0.015625)"/>
      <path id="TimesNewRomanPSMT-67" d="M 966 1044 
Q 703 1172 562 1401 
Q 422 1631 422 1909 
Q 422 2334 742 2640 
Q 1063 2947 1563 2947 
Q 1972 2947 2272 2747 
L 2878 2747 
Q 3013 2747 3034 2739 
Q 3056 2731 3066 2713 
Q 3084 2684 3084 2613 
Q 3084 2531 3069 2500 
Q 3059 2484 3036 2475 
Q 3013 2466 2878 2466 
L 2506 2466 
Q 2681 2241 2681 1891 
Q 2681 1491 2375 1206 
Q 2069 922 1553 922 
Q 1341 922 1119 984 
Q 981 866 932 777 
Q 884 688 884 625 
Q 884 572 936 522 
Q 988 472 1138 450 
Q 1225 438 1575 428 
Q 2219 413 2409 384 
Q 2700 344 2873 169 
Q 3047 -6 3047 -263 
Q 3047 -616 2716 -925 
Q 2228 -1381 1444 -1381 
Q 841 -1381 425 -1109 
Q 191 -953 191 -784 
Q 191 -709 225 -634 
Q 278 -519 444 -313 
Q 466 -284 763 25 
Q 600 122 533 198 
Q 466 275 466 372 
Q 466 481 555 628 
Q 644 775 966 1044 
z
M 1509 2797 
Q 1278 2797 1122 2612 
Q 966 2428 966 2047 
Q 966 1553 1178 1281 
Q 1341 1075 1591 1075 
Q 1828 1075 1981 1253 
Q 2134 1431 2134 1813 
Q 2134 2309 1919 2591 
Q 1759 2797 1509 2797 
z
M 934 0 
Q 788 -159 713 -296 
Q 638 -434 638 -550 
Q 638 -700 819 -813 
Q 1131 -1006 1722 -1006 
Q 2284 -1006 2551 -807 
Q 2819 -609 2819 -384 
Q 2819 -222 2659 -153 
Q 2497 -84 2016 -72 
Q 1313 -53 934 0 
z
" transform="scale(0.015625)"/>
      <path id="TimesNewRomanPSMT-68" d="M 1041 4444 
L 1041 2350 
Q 1388 2731 1591 2839 
Q 1794 2947 1997 2947 
Q 2241 2947 2416 2812 
Q 2591 2678 2675 2391 
Q 2734 2191 2734 1659 
L 2734 647 
Q 2734 375 2778 275 
Q 2809 200 2884 156 
Q 2959 113 3159 113 
L 3159 0 
L 1753 0 
L 1753 113 
L 1819 113 
Q 2019 113 2097 173 
Q 2175 234 2206 353 
Q 2216 403 2216 647 
L 2216 1659 
Q 2216 2128 2167 2275 
Q 2119 2422 2012 2495 
Q 1906 2569 1756 2569 
Q 1603 2569 1437 2487 
Q 1272 2406 1041 2159 
L 1041 647 
Q 1041 353 1073 281 
Q 1106 209 1195 161 
Q 1284 113 1503 113 
L 1503 0 
L 84 0 
L 84 113 
Q 275 113 384 172 
Q 447 203 484 290 
Q 522 378 522 647 
L 522 3238 
Q 522 3728 498 3840 
Q 475 3953 426 3993 
Q 378 4034 297 4034 
Q 231 4034 84 3984 
L 41 4094 
L 897 4444 
L 1041 4444 
z
" transform="scale(0.015625)"/>
      <path id="TimesNewRomanPSMT-3d" d="M 116 2759 
L 3488 2759 
L 3488 2503 
L 116 2503 
L 116 2759 
z
M 116 1741 
L 3488 1741 
L 3488 1484 
L 116 1484 
L 116 1741 
z
" transform="scale(0.015625)"/>
      <path id="TimesNewRomanPSMT-7e" d="M 3256 2109 
L 3397 2109 
Q 3384 1703 3165 1473 
Q 2947 1244 2631 1244 
Q 2488 1244 2322 1292 
Q 2156 1341 1466 1622 
Q 984 1822 781 1822 
Q 563 1822 413 1687 
Q 263 1553 200 1250 
L 63 1250 
Q 81 1672 293 1895 
Q 506 2119 794 2119 
Q 931 2119 1075 2075 
Q 1400 1981 1929 1754 
Q 2459 1528 2675 1528 
Q 2909 1528 3068 1678 
Q 3228 1828 3256 2109 
z
" transform="scale(0.015625)"/>
      <path id="TimesNewRomanPSMT-55" d="M 3053 4122 
L 3053 4238 
L 4553 4238 
L 4553 4122 
L 4394 4122 
Q 4144 4122 4009 3913 
Q 3944 3816 3944 3463 
L 3944 1744 
Q 3944 1106 3817 754 
Q 3691 403 3320 151 
Q 2950 -100 2313 -100 
Q 1619 -100 1259 140 
Q 900 381 750 788 
Q 650 1066 650 1831 
L 650 3488 
Q 650 3878 542 4000 
Q 434 4122 194 4122 
L 34 4122 
L 34 4238 
L 1866 4238 
L 1866 4122 
L 1703 4122 
Q 1441 4122 1328 3956 
Q 1250 3844 1250 3488 
L 1250 1641 
Q 1250 1394 1295 1075 
Q 1341 756 1459 578 
Q 1578 400 1801 284 
Q 2025 169 2350 169 
Q 2766 169 3094 350 
Q 3422 531 3542 814 
Q 3663 1097 3663 1772 
L 3663 3488 
Q 3663 3884 3575 3984 
Q 3453 4122 3213 4122 
L 3053 4122 
z
" transform="scale(0.015625)"/>
      <path id="TimesNewRomanPSMT-28" d="M 1988 -1253 
L 1988 -1369 
Q 1516 -1131 1200 -813 
Q 750 -359 506 256 
Q 263 872 263 1534 
Q 263 2503 741 3301 
Q 1219 4100 1988 4444 
L 1988 4313 
Q 1603 4100 1356 3731 
Q 1109 3363 987 2797 
Q 866 2231 866 1616 
Q 866 947 969 400 
Q 1050 -31 1165 -292 
Q 1281 -553 1476 -793 
Q 1672 -1034 1988 -1253 
z
" transform="scale(0.015625)"/>
      <path id="TimesNewRomanPSMT-2d" d="M 259 1672 
L 1875 1672 
L 1875 1200 
L 259 1200 
L 259 1672 
z
" transform="scale(0.015625)"/>
      <path id="TimesNewRomanPSMT-2c" d="M 344 -1066 
L 344 -928 
Q 666 -822 842 -598 
Q 1019 -375 1019 -125 
Q 1019 -66 991 -25 
Q 969 3 947 3 
Q 913 3 797 -59 
Q 741 -88 678 -88 
Q 525 -88 434 3 
Q 344 94 344 253 
Q 344 406 461 515 
Q 578 625 747 625 
Q 953 625 1114 445 
Q 1275 266 1275 -31 
Q 1275 -353 1051 -629 
Q 828 -906 344 -1066 
z
" transform="scale(0.015625)"/>
      <path id="TimesNewRomanPSMT-29" d="M 144 4313 
L 144 4444 
Q 619 4209 934 3891 
Q 1381 3434 1625 2820 
Q 1869 2206 1869 1541 
Q 1869 572 1392 -226 
Q 916 -1025 144 -1369 
L 144 -1253 
Q 528 -1038 776 -670 
Q 1025 -303 1145 264 
Q 1266 831 1266 1447 
Q 1266 2113 1163 2663 
Q 1084 3094 967 3353 
Q 850 3613 656 3853 
Q 463 4094 144 4313 
z
" transform="scale(0.015625)"/>
     </defs>
     <use xlink:href="#TimesNewRomanPSMT-31" transform="translate(0 0.5625)"/>
     <use xlink:href="#TimesNewRomanPSMT-30" transform="translate(50 0.5625)"/>
     <use xlink:href="#TimesNewRomanPSMT-30" transform="translate(100 0.5625)"/>
     <use xlink:href="#TimesNewRomanPSMT-30" transform="translate(150 0.5625)"/>
     <use xlink:href="#TimesNewRomanPSMT-20" transform="translate(200 0.5625)"/>
     <use xlink:href="#TimesNewRomanPSMT-73" transform="translate(225 0.5625)"/>
     <use xlink:href="#TimesNewRomanPSMT-61" transform="translate(263.916016 0.5625)"/>
     <use xlink:href="#TimesNewRomanPSMT-6d" transform="translate(308.300781 0.5625)"/>
     <use xlink:href="#TimesNewRomanPSMT-70" transform="translate(386.083984 0.5625)"/>
     <use xlink:href="#TimesNewRomanPSMT-6c" transform="translate(436.083984 0.5625)"/>
     <use xlink:href="#TimesNewRomanPSMT-65" transform="translate(463.867188 0.5625)"/>
     <use xlink:href="#TimesNewRomanPSMT-73" transform="translate(508.251953 0.5625)"/>
     <use xlink:href="#TimesNewRomanPSMT-20" transform="translate(547.167969 0.5625)"/>
     <use xlink:href="#TimesNewRomanPSMT-6f" transform="translate(572.167969 0.5625)"/>
     <use xlink:href="#TimesNewRomanPSMT-66" transform="translate(622.167969 0.5625)"/>
     <use xlink:href="#TimesNewRomanPSMT-20" transform="translate(655.46875 0.5625)"/>
     <use xlink:href="#TimesNewRomanPSMT-6c" transform="translate(680.46875 0.5625)"/>
     <use xlink:href="#TimesNewRomanPSMT-65" transform="translate(708.251953 0.5625)"/>
     <use xlink:href="#TimesNewRomanPSMT-6e" transform="translate(752.636719 0.5625)"/>
     <use xlink:href="#TimesNewRomanPSMT-67" transform="translate(802.636719 0.5625)"/>
     <use xlink:href="#TimesNewRomanPSMT-74" transform="translate(852.636719 0.5625)"/>
     <use xlink:href="#TimesNewRomanPSMT-68" transform="translate(880.419922 0.5625)"/>
     <use xlink:href="#TimesNewRomanPSMT-20" transform="translate(930.419922 0.5625)"/>
     <use xlink:href="#TimesNewRomanPSMT-6e" transform="translate(955.419922 0.5625)"/>
     <use xlink:href="#TimesNewRomanPSMT-3d" transform="translate(1020.976562 0.5625)"/>
     <use xlink:href="#TimesNewRomanPSMT-31" transform="translate(1092.929688 0.5625)"/>
     <use xlink:href="#TimesNewRomanPSMT-30" transform="translate(1142.929688 0.5625)"/>
     <use xlink:href="#TimesNewRomanPSMT-30" transform="translate(1192.929688 0.5625)"/>
     <use xlink:href="#TimesNewRomanPSMT-20" transform="translate(1242.929688 0.5625)"/>
     <use xlink:href="#TimesNewRomanPSMT-66" transform="translate(1267.929688 0.5625)"/>
     <use xlink:href="#TimesNewRomanPSMT-72" transform="translate(1301.230469 0.5625)"/>
     <use xlink:href="#TimesNewRomanPSMT-6f" transform="translate(1334.53125 0.5625)"/>
     <use xlink:href="#TimesNewRomanPSMT-6d" transform="translate(1384.53125 0.5625)"/>
     <use xlink:href="#TimesNewRomanPSMT-20" transform="translate(1462.314453 0.5625)"/>
     <use xlink:href="#TimesNewRomanPSMT-58" transform="translate(1487.314453 0.5625)"/>
     <use xlink:href="#TimesNewRomanPSMT-20" transform="translate(1559.53125 0.5625)"/>
     <use xlink:href="#TimesNewRomanPSMT-7e" transform="translate(1584.53125 0.5625)"/>
     <use xlink:href="#TimesNewRomanPSMT-20" transform="translate(1638.632812 0.5625)"/>
     <use xlink:href="#TimesNewRomanPSMT-55" transform="translate(1663.632812 0.5625)"/>
     <use xlink:href="#TimesNewRomanPSMT-28" transform="translate(1735.849609 0.5625)"/>
     <use xlink:href="#TimesNewRomanPSMT-2d" transform="translate(1769.150391 0.5625)"/>
     <use xlink:href="#TimesNewRomanPSMT-32" transform="translate(1802.451172 0.5625)"/>
     <use xlink:href="#TimesNewRomanPSMT-2c" transform="translate(1852.451172 0.5625)"/>
     <use xlink:href="#TimesNewRomanPSMT-20" transform="translate(1877.451172 0.5625)"/>
     <use xlink:href="#TimesNewRomanPSMT-32" transform="translate(1902.451172 0.5625)"/>
     <use xlink:href="#TimesNewRomanPSMT-29" transform="translate(1952.451172 0.5625)"/>
    </g>
    <!-- Gray: Range $[\overline{X}-1.96/\sqrt{n},\overline{X}+1.96/\sqrt{n}]$ does not trap $\mu$ -->
    <g transform="translate(71.35 71.76)scale(0.1 -0.1)">
     <defs>
      <path id="TimesNewRomanPSMT-47" d="M 3928 4334 
L 4038 2997 
L 3928 2997 
Q 3763 3497 3500 3750 
Q 3122 4116 2528 4116 
Q 1719 4116 1297 3475 
Q 944 2934 944 2188 
Q 944 1581 1178 1081 
Q 1413 581 1792 348 
Q 2172 116 2572 116 
Q 2806 116 3025 175 
Q 3244 234 3447 350 
L 3447 1575 
Q 3447 1894 3398 1992 
Q 3350 2091 3248 2142 
Q 3147 2194 2891 2194 
L 2891 2313 
L 4531 2313 
L 4531 2194 
L 4453 2194 
Q 4209 2194 4119 2031 
Q 4056 1916 4056 1575 
L 4056 278 
Q 3697 84 3347 -6 
Q 2997 -97 2569 -97 
Q 1341 -97 703 691 
Q 225 1281 225 2053 
Q 225 2613 494 3125 
Q 813 3734 1369 4063 
Q 1834 4334 2469 4334 
Q 2700 4334 2889 4296 
Q 3078 4259 3425 4131 
Q 3600 4066 3659 4066 
Q 3719 4066 3761 4120 
Q 3803 4175 3813 4334 
L 3928 4334 
z
" transform="scale(0.015625)"/>
      <path id="TimesNewRomanPSMT-79" d="M 38 2863 
L 1372 2863 
L 1372 2747 
L 1306 2747 
Q 1166 2747 1095 2686 
Q 1025 2625 1025 2534 
Q 1025 2413 1128 2197 
L 1825 753 
L 2466 2334 
Q 2519 2463 2519 2588 
Q 2519 2644 2497 2672 
Q 2472 2706 2419 2726 
Q 2366 2747 2231 2747 
L 2231 2863 
L 3163 2863 
L 3163 2747 
Q 3047 2734 2984 2696 
Q 2922 2659 2847 2556 
Q 2819 2513 2741 2316 
L 1575 -541 
Q 1406 -956 1132 -1168 
Q 859 -1381 606 -1381 
Q 422 -1381 303 -1275 
Q 184 -1169 184 -1031 
Q 184 -900 270 -820 
Q 356 -741 506 -741 
Q 609 -741 788 -809 
Q 913 -856 944 -856 
Q 1038 -856 1148 -759 
Q 1259 -663 1372 -384 
L 1575 113 
L 547 2272 
Q 500 2369 397 2513 
Q 319 2622 269 2659 
Q 197 2709 38 2747 
L 38 2863 
z
" transform="scale(0.015625)"/>
      <path id="TimesNewRomanPSMT-52" d="M 4325 0 
L 3194 0 
L 1759 1981 
Q 1600 1975 1500 1975 
Q 1459 1975 1412 1976 
Q 1366 1978 1316 1981 
L 1316 750 
Q 1316 350 1403 253 
Q 1522 116 1759 116 
L 1925 116 
L 1925 0 
L 109 0 
L 109 116 
L 269 116 
Q 538 116 653 291 
Q 719 388 719 750 
L 719 3488 
Q 719 3888 631 3984 
Q 509 4122 269 4122 
L 109 4122 
L 109 4238 
L 1653 4238 
Q 2328 4238 2648 4139 
Q 2969 4041 3192 3777 
Q 3416 3513 3416 3147 
Q 3416 2756 3161 2468 
Q 2906 2181 2372 2063 
L 3247 847 
Q 3547 428 3762 290 
Q 3978 153 4325 116 
L 4325 0 
z
M 1316 2178 
Q 1375 2178 1419 2176 
Q 1463 2175 1491 2175 
Q 2097 2175 2405 2437 
Q 2713 2700 2713 3106 
Q 2713 3503 2464 3751 
Q 2216 4000 1806 4000 
Q 1625 4000 1316 3941 
L 1316 2178 
z
" transform="scale(0.015625)"/>
      <path id="TimesNewRomanPSMT-5b" d="M 1900 -1269 
L 525 -1269 
L 525 4334 
L 1900 4334 
L 1900 4088 
L 994 4088 
L 994 -1025 
L 1900 -1025 
L 1900 -1269 
z
" transform="scale(0.015625)"/>
      <path id="TimesNewRomanPSMT-36" d="M 2869 4325 
L 2869 4209 
Q 2456 4169 2195 4045 
Q 1934 3922 1679 3669 
Q 1425 3416 1258 3105 
Q 1091 2794 978 2366 
Q 1428 2675 1881 2675 
Q 2316 2675 2634 2325 
Q 2953 1975 2953 1425 
Q 2953 894 2631 456 
Q 2244 -75 1606 -75 
Q 1172 -75 869 213 
Q 275 772 275 1663 
Q 275 2231 503 2743 
Q 731 3256 1154 3653 
Q 1578 4050 1965 4187 
Q 2353 4325 2688 4325 
L 2869 4325 
z
M 925 2138 
Q 869 1716 869 1456 
Q 869 1156 980 804 
Q 1091 453 1309 247 
Q 1469 100 1697 100 
Q 1969 100 2183 356 
Q 2397 613 2397 1088 
Q 2397 1622 2184 2012 
Q 1972 2403 1581 2403 
Q 1463 2403 1327 2353 
Q 1191 2303 925 2138 
z
" transform="scale(0.015625)"/>
      <path id="TimesNewRomanPSMT-2f" d="M 1794 4444 
L 259 -88 
L 9 -88 
L 1544 4444 
L 1794 4444 
z
" transform="scale(0.015625)"/>
      <path id="DejaVuSans-221a" d="M 3488 5191 
L 4078 5191 
L 4078 4891 
L 3719 4891 
L 1863 -128 
L 1656 -128 
L 659 2631 
L 269 2491 
L 191 2741 
L 1075 3047 
L 1875 831 
L 3488 5191 
z
" transform="scale(0.015625)"/>
      <path id="TimesNewRomanPSMT-2b" d="M 1672 441 
L 1672 2000 
L 116 2000 
L 116 2256 
L 1672 2256 
L 1672 3809 
L 1922 3809 
L 1922 2256 
L 3484 2256 
L 3484 2000 
L 1922 2000 
L 1922 441 
L 1672 441 
z
" transform="scale(0.015625)"/>
      <path id="TimesNewRomanPSMT-5d" d="M 234 4334 
L 1609 4334 
L 1609 -1272 
L 234 -1272 
L 234 -1025 
L 1141 -1025 
L 1141 4088 
L 234 4088 
L 234 4334 
z
" transform="scale(0.015625)"/>
      <path id="TimesNewRomanPSMT-64" d="M 2222 322 
Q 2013 103 1813 7 
Q 1613 -88 1381 -88 
Q 913 -88 563 304 
Q 213 697 213 1313 
Q 213 1928 600 2439 
Q 988 2950 1597 2950 
Q 1975 2950 2222 2709 
L 2222 3238 
Q 2222 3728 2198 3840 
Q 2175 3953 2125 3993 
Q 2075 4034 2000 4034 
Q 1919 4034 1784 3984 
L 1744 4094 
L 2597 4444 
L 2738 4444 
L 2738 1134 
Q 2738 631 2761 520 
Q 2784 409 2836 365 
Q 2888 322 2956 322 
Q 3041 322 3181 375 
L 3216 266 
L 2366 -88 
L 2222 -88 
L 2222 322 
z
M 2222 541 
L 2222 2016 
Q 2203 2228 2109 2403 
Q 2016 2578 1861 2667 
Q 1706 2756 1559 2756 
Q 1284 2756 1069 2509 
Q 784 2184 784 1559 
Q 784 928 1059 592 
Q 1334 256 1672 256 
Q 1956 256 2222 541 
z
" transform="scale(0.015625)"/>
      <path id="TimesNewRomanPSMT-3bc" d="M 2275 519 
Q 1709 -88 1291 -88 
Q 1022 -88 791 119 
L 791 -47 
Q 791 -334 878 -625 
Q 978 -947 978 -1050 
Q 978 -1194 887 -1287 
Q 797 -1381 663 -1381 
Q 525 -1381 444 -1272 
Q 363 -1163 363 -1009 
Q 363 -897 444 -603 
Q 538 -278 538 28 
L 538 2863 
L 1053 2863 
L 1053 1009 
Q 1053 728 1101 597 
Q 1150 466 1273 383 
Q 1397 300 1553 300 
Q 1831 300 2275 681 
L 2275 2863 
L 2794 2863 
L 2794 691 
Q 2794 416 2850 311 
Q 2906 206 3041 206 
Q 3253 206 3316 622 
L 3428 622 
Q 3369 -88 2828 -88 
Q 2594 -88 2439 70 
Q 2284 228 2275 519 
z
" transform="scale(0.015625)"/>
     </defs>
     <use xlink:href="#TimesNewRomanPSMT-47" transform="translate(0 0.03125)"/>
     <use xlink:href="#TimesNewRomanPSMT-72" transform="translate(72.216797 0.03125)"/>
     <use xlink:href="#TimesNewRomanPSMT-61" transform="translate(105.517578 0.03125)"/>
     <use xlink:href="#TimesNewRomanPSMT-79" transform="translate(149.902344 0.03125)"/>
     <use xlink:href="#TimesNewRomanPSMT-3a" transform="translate(199.902344 0.03125)"/>
     <use xlink:href="#TimesNewRomanPSMT-20" transform="translate(227.685547 0.03125)"/>
     <use xlink:href="#TimesNewRomanPSMT-52" transform="translate(252.685547 0.03125)"/>
     <use xlink:href="#TimesNewRomanPSMT-61" transform="translate(319.384766 0.03125)"/>
     <use xlink:href="#TimesNewRomanPSMT-6e" transform="translate(363.769531 0.03125)"/>
     <use xlink:href="#TimesNewRomanPSMT-67" transform="translate(413.769531 0.03125)"/>
     <use xlink:href="#TimesNewRomanPSMT-65" transform="translate(463.769531 0.03125)"/>
     <use xlink:href="#TimesNewRomanPSMT-20" transform="translate(508.154297 0.03125)"/>
     <use xlink:href="#TimesNewRomanPSMT-5b" transform="translate(533.154297 0.03125)"/>
     <use xlink:href="#TimesNewRomanPSMT-58" transform="translate(566.455078 0.53125)"/>
     <use xlink:href="#TimesNewRomanPSMT-2212" transform="translate(654.228516 0.03125)"/>
     <use xlink:href="#TimesNewRomanPSMT-31" transform="translate(726.181641 0.03125)"/>
     <use xlink:href="#TimesNewRomanPSMT-2e" transform="translate(776.181641 0.03125)"/>
     <use xlink:href="#TimesNewRomanPSMT-39" transform="translate(801.181641 0.03125)"/>
     <use xlink:href="#TimesNewRomanPSMT-36" transform="translate(851.181641 0.03125)"/>
     <use xlink:href="#TimesNewRomanPSMT-2f" transform="translate(901.181641 0.03125)"/>
     <use xlink:href="#DejaVuSans-221a" transform="translate(928.964844 0.03125)"/>
     <use xlink:href="#TimesNewRomanPSMT-6e" transform="translate(1005.185547 -0.15625)"/>
     <use xlink:href="#TimesNewRomanPSMT-2c" transform="translate(1067.685547 0.03125)"/>
     <use xlink:href="#TimesNewRomanPSMT-58" transform="translate(1108.242188 0.53125)"/>
     <use xlink:href="#TimesNewRomanPSMT-2b" transform="translate(1196.015625 0.03125)"/>
     <use xlink:href="#TimesNewRomanPSMT-31" transform="translate(1267.96875 0.03125)"/>
     <use xlink:href="#TimesNewRomanPSMT-2e" transform="translate(1317.96875 0.03125)"/>
     <use xlink:href="#TimesNewRomanPSMT-39" transform="translate(1342.96875 0.03125)"/>
     <use xlink:href="#TimesNewRomanPSMT-36" transform="translate(1392.96875 0.03125)"/>
     <use xlink:href="#TimesNewRomanPSMT-2f" transform="translate(1442.96875 0.03125)"/>
     <use xlink:href="#DejaVuSans-221a" transform="translate(1470.751953 0.03125)"/>
     <use xlink:href="#TimesNewRomanPSMT-6e" transform="translate(1546.972656 -0.15625)"/>
     <use xlink:href="#TimesNewRomanPSMT-5d" transform="translate(1609.472656 0.03125)"/>
     <use xlink:href="#TimesNewRomanPSMT-20" transform="translate(1642.773438 0.03125)"/>
     <use xlink:href="#TimesNewRomanPSMT-64" transform="translate(1667.773438 0.03125)"/>
     <use xlink:href="#TimesNewRomanPSMT-6f" transform="translate(1717.773438 0.03125)"/>
     <use xlink:href="#TimesNewRomanPSMT-65" transform="translate(1767.773438 0.03125)"/>
     <use xlink:href="#TimesNewRomanPSMT-73" transform="translate(1812.158203 0.03125)"/>
     <use xlink:href="#TimesNewRomanPSMT-20" transform="translate(1851.074219 0.03125)"/>
     <use xlink:href="#TimesNewRomanPSMT-6e" transform="translate(1876.074219 0.03125)"/>
     <use xlink:href="#TimesNewRomanPSMT-6f" transform="translate(1926.074219 0.03125)"/>
     <use xlink:href="#TimesNewRomanPSMT-74" transform="translate(1976.074219 0.03125)"/>
     <use xlink:href="#TimesNewRomanPSMT-20" transform="translate(2003.857422 0.03125)"/>
     <use xlink:href="#TimesNewRomanPSMT-74" transform="translate(2028.857422 0.03125)"/>
     <use xlink:href="#TimesNewRomanPSMT-72" transform="translate(2056.640625 0.03125)"/>
     <use xlink:href="#TimesNewRomanPSMT-61" transform="translate(2089.941406 0.03125)"/>
     <use xlink:href="#TimesNewRomanPSMT-70" transform="translate(2134.326172 0.03125)"/>
     <use xlink:href="#TimesNewRomanPSMT-20" transform="translate(2184.326172 0.03125)"/>
     <use xlink:href="#TimesNewRomanPSMT-3bc" transform="translate(2209.326172 0.03125)"/>
     <path d="M 566.455078 78.5 
L 566.455078 84.75 
L 638.671875 84.75 
L 638.671875 78.5 
L 566.455078 78.5 
z
"/>
     <path d="M 992.685547 74.640625 
L 992.685547 80.890625 
L 1067.685547 80.890625 
L 1067.685547 74.640625 
L 992.685547 74.640625 
z
"/>
     <path d="M 1108.242188 78.5 
L 1108.242188 84.75 
L 1180.458984 84.75 
L 1180.458984 78.5 
L 1108.242188 78.5 
z
"/>
     <path d="M 1534.472656 74.640625 
L 1534.472656 80.890625 
L 1609.472656 80.890625 
L 1609.472656 74.640625 
L 1534.472656 74.640625 
z
"/>
    </g>
   </g>
   <g id="legend_1">
    <g id="patch_21">
     <path d="M 52 128.195938 
L 146.767188 128.195938 
Q 148.767188 128.195938 148.767188 126.195938 
L 148.767188 84.76 
Q 148.767188 82.76 146.767188 82.76 
L 52 82.76 
Q 50 82.76 50 84.76 
L 50 126.195938 
Q 50 128.195938 52 128.195938 
z
" style="fill: #ffffff; stroke: #cccccc; stroke-linejoin: miter"/>
    </g>
    <g id="line2d_22">
     <path d="M 54 90.26 
L 64 90.26 
L 74 90.26 
" style="fill: none; stroke-dasharray: 5.55,2.4; stroke-dashoffset: 0; stroke: #808080; stroke-width: 1.5"/>
    </g>
    <g id="text_24">
     <!-- $\pm 1.96/\sqrt{n}$ -->
     <g transform="translate(82 93.76)scale(0.1 -0.1)">
      <defs>
       <path id="TimesNewRomanPSMT-b1" d="M 25 441 
L 25 694 
L 1581 694 
L 1581 2000 
L 25 2000 
L 25 2256 
L 1581 2256 
L 1581 3809 
L 1831 3809 
L 1831 2256 
L 3394 2256 
L 3394 2000 
L 1831 2000 
L 1831 694 
L 3397 694 
L 3397 441 
L 25 441 
z
" transform="scale(0.015625)"/>
      </defs>
      <use xlink:href="#TimesNewRomanPSMT-b1" transform="translate(0 0.890625)"/>
      <use xlink:href="#TimesNewRomanPSMT-31" transform="translate(54.882812 0.890625)"/>
      <use xlink:href="#TimesNewRomanPSMT-2e" transform="translate(104.882812 0.890625)"/>
      <use xlink:href="#TimesNewRomanPSMT-39" transform="translate(129.882812 0.890625)"/>
      <use xlink:href="#TimesNewRomanPSMT-36" transform="translate(179.882812 0.890625)"/>
      <use xlink:href="#TimesNewRomanPSMT-2f" transform="translate(229.882812 0.890625)"/>
      <use xlink:href="#DejaVuSans-221a" transform="translate(257.666016 0.890625)"/>
      <use xlink:href="#TimesNewRomanPSMT-6e" transform="translate(333.886719 0.703125)"/>
      <path d="M 321.386719 75.5 
L 321.386719 81.75 
L 396.386719 81.75 
L 396.386719 75.5 
L 321.386719 75.5 
z
"/>
     </g>
    </g>
    <g id="line2d_23">
     <g>
      <use xlink:href="#m6d9d8b8c67" x="64" y="104.399063" style="fill: #0000ff; stroke: #0000ff"/>
     </g>
    </g>
    <g id="text_25">
     <!-- Integral of PDF -->
     <g transform="translate(82 107.899063)scale(0.1 -0.1)">
      <defs>
       <path id="TimesNewRomanPSMT-49" d="M 1975 116 
L 1975 0 
L 159 0 
L 159 116 
L 309 116 
Q 572 116 691 269 
Q 766 369 766 750 
L 766 3488 
Q 766 3809 725 3913 
Q 694 3991 597 4047 
Q 459 4122 309 4122 
L 159 4122 
L 159 4238 
L 1975 4238 
L 1975 4122 
L 1822 4122 
Q 1563 4122 1444 3969 
Q 1366 3869 1366 3488 
L 1366 750 
Q 1366 428 1406 325 
Q 1438 247 1538 191 
Q 1672 116 1822 116 
L 1975 116 
z
" transform="scale(0.015625)"/>
       <path id="TimesNewRomanPSMT-50" d="M 1313 1984 
L 1313 750 
Q 1313 350 1400 253 
Q 1519 116 1759 116 
L 1922 116 
L 1922 0 
L 106 0 
L 106 116 
L 266 116 
Q 534 116 650 291 
Q 713 388 713 750 
L 713 3488 
Q 713 3888 628 3984 
Q 506 4122 266 4122 
L 106 4122 
L 106 4238 
L 1659 4238 
Q 2228 4238 2556 4120 
Q 2884 4003 3109 3725 
Q 3334 3447 3334 3066 
Q 3334 2547 2992 2222 
Q 2650 1897 2025 1897 
Q 1872 1897 1694 1919 
Q 1516 1941 1313 1984 
z
M 1313 2163 
Q 1478 2131 1606 2115 
Q 1734 2100 1825 2100 
Q 2150 2100 2386 2351 
Q 2622 2603 2622 3003 
Q 2622 3278 2509 3514 
Q 2397 3750 2190 3867 
Q 1984 3984 1722 3984 
Q 1563 3984 1313 3925 
L 1313 2163 
z
" transform="scale(0.015625)"/>
       <path id="TimesNewRomanPSMT-44" d="M 109 0 
L 109 116 
L 269 116 
Q 538 116 650 288 
Q 719 391 719 750 
L 719 3488 
Q 719 3884 631 3984 
Q 509 4122 269 4122 
L 109 4122 
L 109 4238 
L 1834 4238 
Q 2784 4238 3279 4022 
Q 3775 3806 4076 3303 
Q 4378 2800 4378 2141 
Q 4378 1256 3841 663 
Q 3238 0 2003 0 
L 109 0 
z
M 1319 306 
Q 1716 219 1984 219 
Q 2709 219 3187 728 
Q 3666 1238 3666 2109 
Q 3666 2988 3187 3494 
Q 2709 4000 1959 4000 
Q 1678 4000 1319 3909 
L 1319 306 
z
" transform="scale(0.015625)"/>
      </defs>
      <use xlink:href="#TimesNewRomanPSMT-49"/>
      <use xlink:href="#TimesNewRomanPSMT-6e" x="33.300781"/>
      <use xlink:href="#TimesNewRomanPSMT-74" x="83.300781"/>
      <use xlink:href="#TimesNewRomanPSMT-65" x="111.083984"/>
      <use xlink:href="#TimesNewRomanPSMT-67" x="155.46875"/>
      <use xlink:href="#TimesNewRomanPSMT-72" x="205.46875"/>
      <use xlink:href="#TimesNewRomanPSMT-61" x="238.769531"/>
      <use xlink:href="#TimesNewRomanPSMT-6c" x="283.154297"/>
      <use xlink:href="#TimesNewRomanPSMT-20" x="310.9375"/>
      <use xlink:href="#TimesNewRomanPSMT-6f" x="335.9375"/>
      <use xlink:href="#TimesNewRomanPSMT-66" x="385.9375"/>
      <use xlink:href="#TimesNewRomanPSMT-20" x="419.238281"/>
      <use xlink:href="#TimesNewRomanPSMT-50" x="444.238281"/>
      <use xlink:href="#TimesNewRomanPSMT-44" x="499.853516"/>
      <use xlink:href="#TimesNewRomanPSMT-46" x="572.070312"/>
     </g>
    </g>
    <g id="patch_22">
     <path d="M 54 122.056875 
L 74 122.056875 
L 74 115.056875 
L 54 115.056875 
z
"/>
    </g>
    <g id="text_26">
     <!-- Simulated -->
     <g transform="translate(82 122.056875)scale(0.1 -0.1)">
      <defs>
       <path id="TimesNewRomanPSMT-53" d="M 2934 4334 
L 2934 2869 
L 2819 2869 
Q 2763 3291 2617 3541 
Q 2472 3791 2203 3937 
Q 1934 4084 1647 4084 
Q 1322 4084 1109 3886 
Q 897 3688 897 3434 
Q 897 3241 1031 3081 
Q 1225 2847 1953 2456 
Q 2547 2138 2764 1967 
Q 2981 1797 3098 1565 
Q 3216 1334 3216 1081 
Q 3216 600 2842 251 
Q 2469 -97 1881 -97 
Q 1697 -97 1534 -69 
Q 1438 -53 1133 45 
Q 828 144 747 144 
Q 669 144 623 97 
Q 578 50 556 -97 
L 441 -97 
L 441 1356 
L 556 1356 
Q 638 900 775 673 
Q 913 447 1195 297 
Q 1478 147 1816 147 
Q 2206 147 2432 353 
Q 2659 559 2659 841 
Q 2659 997 2573 1156 
Q 2488 1316 2306 1453 
Q 2184 1547 1640 1851 
Q 1097 2156 867 2337 
Q 638 2519 519 2737 
Q 400 2956 400 3219 
Q 400 3675 750 4004 
Q 1100 4334 1641 4334 
Q 1978 4334 2356 4169 
Q 2531 4091 2603 4091 
Q 2684 4091 2736 4139 
Q 2788 4188 2819 4334 
L 2934 4334 
z
" transform="scale(0.015625)"/>
       <path id="TimesNewRomanPSMT-75" d="M 2709 2863 
L 2709 1128 
Q 2709 631 2732 520 
Q 2756 409 2807 365 
Q 2859 322 2928 322 
Q 3025 322 3147 375 
L 3191 266 
L 2334 -88 
L 2194 -88 
L 2194 519 
Q 1825 119 1631 15 
Q 1438 -88 1222 -88 
Q 981 -88 804 51 
Q 628 191 559 409 
Q 491 628 491 1028 
L 491 2306 
Q 491 2509 447 2587 
Q 403 2666 317 2708 
Q 231 2750 6 2747 
L 6 2863 
L 1009 2863 
L 1009 947 
Q 1009 547 1148 422 
Q 1288 297 1484 297 
Q 1619 297 1789 381 
Q 1959 466 2194 703 
L 2194 2325 
Q 2194 2569 2105 2655 
Q 2016 2741 1734 2747 
L 1734 2863 
L 2709 2863 
z
" transform="scale(0.015625)"/>
      </defs>
      <use xlink:href="#TimesNewRomanPSMT-53"/>
      <use xlink:href="#TimesNewRomanPSMT-69" x="55.615234"/>
      <use xlink:href="#TimesNewRomanPSMT-6d" x="83.398438"/>
      <use xlink:href="#TimesNewRomanPSMT-75" x="161.181641"/>
      <use xlink:href="#TimesNewRomanPSMT-6c" x="211.181641"/>
      <use xlink:href="#TimesNewRomanPSMT-61" x="238.964844"/>
      <use xlink:href="#TimesNewRomanPSMT-74" x="283.349609"/>
      <use xlink:href="#TimesNewRomanPSMT-65" x="311.132812"/>
      <use xlink:href="#TimesNewRomanPSMT-64" x="355.517578"/>
     </g>
    </g>
   </g>
  </g>
  <g id="axes_2">
   <g id="patch_23">
    <path d="M 45 576.72 
L 324 576.72 
L 324 368.82 
L 45 368.82 
L 45 576.72 
z
" style="fill: none"/>
   </g>
   <g id="matplotlib.axis_3">
    <g id="xtick_11">
     <g id="line2d_24">
      <path d="M 72.04348 576.72 
L 72.04348 368.82 
" clip-path="url(#pe2b88e7303)" style="fill: none; stroke: #b0b0b0; stroke-width: 0.8; stroke-linecap: square"/>
     </g>
     <g id="line2d_25">
      <g>
       <use xlink:href="#m46931ea375" x="72.04348" y="576.72" style="stroke: #000000; stroke-width: 0.8"/>
      </g>
     </g>
     <g id="text_27">
      <!-- −0.4 -->
      <g transform="translate(62.973949 590.66375)scale(0.1 -0.1)">
       <use xlink:href="#TimesNewRomanPSMT-2212"/>
       <use xlink:href="#TimesNewRomanPSMT-30" x="56.396484"/>
       <use xlink:href="#TimesNewRomanPSMT-2e" x="106.396484"/>
       <use xlink:href="#TimesNewRomanPSMT-34" x="131.396484"/>
      </g>
     </g>
    </g>
    <g id="xtick_12">
     <g id="line2d_26">
      <path d="M 125.296359 576.72 
L 125.296359 368.82 
" clip-path="url(#pe2b88e7303)" style="fill: none; stroke: #b0b0b0; stroke-width: 0.8; stroke-linecap: square"/>
     </g>
     <g id="line2d_27">
      <g>
       <use xlink:href="#m46931ea375" x="125.296359" y="576.72" style="stroke: #000000; stroke-width: 0.8"/>
      </g>
     </g>
     <g id="text_28">
      <!-- −0.2 -->
      <g transform="translate(116.226827 590.66375)scale(0.1 -0.1)">
       <use xlink:href="#TimesNewRomanPSMT-2212"/>
       <use xlink:href="#TimesNewRomanPSMT-30" x="56.396484"/>
       <use xlink:href="#TimesNewRomanPSMT-2e" x="106.396484"/>
       <use xlink:href="#TimesNewRomanPSMT-32" x="131.396484"/>
      </g>
     </g>
    </g>
    <g id="xtick_13">
     <g id="line2d_28">
      <path d="M 178.549237 576.72 
L 178.549237 368.82 
" clip-path="url(#pe2b88e7303)" style="fill: none; stroke: #b0b0b0; stroke-width: 0.8; stroke-linecap: square"/>
     </g>
     <g id="line2d_29">
      <g>
       <use xlink:href="#m46931ea375" x="178.549237" y="576.72" style="stroke: #000000; stroke-width: 0.8"/>
      </g>
     </g>
     <g id="text_29">
      <!-- 0.0 -->
      <g transform="translate(172.299237 590.66375)scale(0.1 -0.1)">
       <use xlink:href="#TimesNewRomanPSMT-30"/>
       <use xlink:href="#TimesNewRomanPSMT-2e" x="50"/>
       <use xlink:href="#TimesNewRomanPSMT-30" x="75"/>
      </g>
     </g>
    </g>
    <g id="xtick_14">
     <g id="line2d_30">
      <path d="M 231.802116 576.72 
L 231.802116 368.82 
" clip-path="url(#pe2b88e7303)" style="fill: none; stroke: #b0b0b0; stroke-width: 0.8; stroke-linecap: square"/>
     </g>
     <g id="line2d_31">
      <g>
       <use xlink:href="#m46931ea375" x="231.802116" y="576.72" style="stroke: #000000; stroke-width: 0.8"/>
      </g>
     </g>
     <g id="text_30">
      <!-- 0.2 -->
      <g transform="translate(225.552116 590.66375)scale(0.1 -0.1)">
       <use xlink:href="#TimesNewRomanPSMT-30"/>
       <use xlink:href="#TimesNewRomanPSMT-2e" x="50"/>
       <use xlink:href="#TimesNewRomanPSMT-32" x="75"/>
      </g>
     </g>
    </g>
    <g id="xtick_15">
     <g id="line2d_32">
      <path d="M 285.054994 576.72 
L 285.054994 368.82 
" clip-path="url(#pe2b88e7303)" style="fill: none; stroke: #b0b0b0; stroke-width: 0.8; stroke-linecap: square"/>
     </g>
     <g id="line2d_33">
      <g>
       <use xlink:href="#m46931ea375" x="285.054994" y="576.72" style="stroke: #000000; stroke-width: 0.8"/>
      </g>
     </g>
     <g id="text_31">
      <!-- 0.4 -->
      <g transform="translate(278.804994 590.66375)scale(0.1 -0.1)">
       <use xlink:href="#TimesNewRomanPSMT-30"/>
       <use xlink:href="#TimesNewRomanPSMT-2e" x="50"/>
       <use xlink:href="#TimesNewRomanPSMT-34" x="75"/>
      </g>
     </g>
    </g>
    <g id="text_32">
     <!-- Value in range -->
     <g transform="translate(155.624219 603.746562)scale(0.1 -0.1)">
      <defs>
       <path id="TimesNewRomanPSMT-56" d="M 4544 4238 
L 4544 4122 
Q 4319 4081 4203 3978 
Q 4038 3825 3909 3509 
L 2431 -97 
L 2316 -97 
L 728 3556 
Q 606 3838 556 3900 
Q 478 3997 364 4051 
Q 250 4106 56 4122 
L 56 4238 
L 1788 4238 
L 1788 4122 
Q 1494 4094 1406 4022 
Q 1319 3950 1319 3838 
Q 1319 3681 1463 3350 
L 2541 866 
L 3541 3319 
Q 3688 3681 3688 3822 
Q 3688 3913 3597 3995 
Q 3506 4078 3291 4113 
Q 3275 4116 3238 4122 
L 3238 4238 
L 4544 4238 
z
" transform="scale(0.015625)"/>
      </defs>
      <use xlink:href="#TimesNewRomanPSMT-56"/>
      <use xlink:href="#TimesNewRomanPSMT-61" x="61.091797"/>
      <use xlink:href="#TimesNewRomanPSMT-6c" x="105.476562"/>
      <use xlink:href="#TimesNewRomanPSMT-75" x="133.259766"/>
      <use xlink:href="#TimesNewRomanPSMT-65" x="183.259766"/>
      <use xlink:href="#TimesNewRomanPSMT-20" x="227.644531"/>
      <use xlink:href="#TimesNewRomanPSMT-69" x="252.644531"/>
      <use xlink:href="#TimesNewRomanPSMT-6e" x="280.427734"/>
      <use xlink:href="#TimesNewRomanPSMT-20" x="330.427734"/>
      <use xlink:href="#TimesNewRomanPSMT-72" x="355.427734"/>
      <use xlink:href="#TimesNewRomanPSMT-61" x="388.728516"/>
      <use xlink:href="#TimesNewRomanPSMT-6e" x="433.113281"/>
      <use xlink:href="#TimesNewRomanPSMT-67" x="483.113281"/>
      <use xlink:href="#TimesNewRomanPSMT-65" x="533.113281"/>
     </g>
    </g>
   </g>
   <g id="matplotlib.axis_4">
    <g id="ytick_9">
     <g id="line2d_34">
      <path d="M 45 569.179091 
L 324 569.179091 
" clip-path="url(#pe2b88e7303)" style="fill: none; stroke: #b0b0b0; stroke-width: 0.8; stroke-linecap: square"/>
     </g>
     <g id="line2d_35">
      <g>
       <use xlink:href="#m569ec59083" x="45" y="569.179091" style="stroke: #000000; stroke-width: 0.8"/>
      </g>
     </g>
     <g id="text_33">
      <!-- 0 -->
      <g transform="translate(33 572.650966)scale(0.1 -0.1)">
       <use xlink:href="#TimesNewRomanPSMT-30"/>
      </g>
     </g>
    </g>
    <g id="ytick_10">
     <g id="line2d_36">
      <path d="M 45 530.997273 
L 324 530.997273 
" clip-path="url(#pe2b88e7303)" style="fill: none; stroke: #b0b0b0; stroke-width: 0.8; stroke-linecap: square"/>
     </g>
     <g id="line2d_37">
      <g>
       <use xlink:href="#m569ec59083" x="45" y="530.997273" style="stroke: #000000; stroke-width: 0.8"/>
      </g>
     </g>
     <g id="text_34">
      <!-- 20 -->
      <g transform="translate(28 534.469148)scale(0.1 -0.1)">
       <use xlink:href="#TimesNewRomanPSMT-32"/>
       <use xlink:href="#TimesNewRomanPSMT-30" x="50"/>
      </g>
     </g>
    </g>
    <g id="ytick_11">
     <g id="line2d_38">
      <path d="M 45 492.815455 
L 324 492.815455 
" clip-path="url(#pe2b88e7303)" style="fill: none; stroke: #b0b0b0; stroke-width: 0.8; stroke-linecap: square"/>
     </g>
     <g id="line2d_39">
      <g>
       <use xlink:href="#m569ec59083" x="45" y="492.815455" style="stroke: #000000; stroke-width: 0.8"/>
      </g>
     </g>
     <g id="text_35">
      <!-- 40 -->
      <g transform="translate(28 496.28733)scale(0.1 -0.1)">
       <use xlink:href="#TimesNewRomanPSMT-34"/>
       <use xlink:href="#TimesNewRomanPSMT-30" x="50"/>
      </g>
     </g>
    </g>
    <g id="ytick_12">
     <g id="line2d_40">
      <path d="M 45 454.633636 
L 324 454.633636 
" clip-path="url(#pe2b88e7303)" style="fill: none; stroke: #b0b0b0; stroke-width: 0.8; stroke-linecap: square"/>
     </g>
     <g id="line2d_41">
      <g>
       <use xlink:href="#m569ec59083" x="45" y="454.633636" style="stroke: #000000; stroke-width: 0.8"/>
      </g>
     </g>
     <g id="text_36">
      <!-- 60 -->
      <g transform="translate(28 458.105511)scale(0.1 -0.1)">
       <use xlink:href="#TimesNewRomanPSMT-36"/>
       <use xlink:href="#TimesNewRomanPSMT-30" x="50"/>
      </g>
     </g>
    </g>
    <g id="ytick_13">
     <g id="line2d_42">
      <path d="M 45 416.451818 
L 324 416.451818 
" clip-path="url(#pe2b88e7303)" style="fill: none; stroke: #b0b0b0; stroke-width: 0.8; stroke-linecap: square"/>
     </g>
     <g id="line2d_43">
      <g>
       <use xlink:href="#m569ec59083" x="45" y="416.451818" style="stroke: #000000; stroke-width: 0.8"/>
      </g>
     </g>
     <g id="text_37">
      <!-- 80 -->
      <g transform="translate(28 419.923693)scale(0.1 -0.1)">
       <defs>
        <path id="TimesNewRomanPSMT-38" d="M 1228 2134 
Q 725 2547 579 2797 
Q 434 3047 434 3316 
Q 434 3728 753 4026 
Q 1072 4325 1600 4325 
Q 2113 4325 2425 4047 
Q 2738 3769 2738 3413 
Q 2738 3175 2569 2928 
Q 2400 2681 1866 2347 
Q 2416 1922 2594 1678 
Q 2831 1359 2831 1006 
Q 2831 559 2490 242 
Q 2150 -75 1597 -75 
Q 994 -75 656 303 
Q 388 606 388 966 
Q 388 1247 577 1523 
Q 766 1800 1228 2134 
z
M 1719 2469 
Q 2094 2806 2194 3001 
Q 2294 3197 2294 3444 
Q 2294 3772 2109 3958 
Q 1925 4144 1606 4144 
Q 1288 4144 1088 3959 
Q 888 3775 888 3528 
Q 888 3366 970 3203 
Q 1053 3041 1206 2894 
L 1719 2469 
z
M 1375 2016 
Q 1116 1797 991 1539 
Q 866 1281 866 981 
Q 866 578 1086 336 
Q 1306 94 1647 94 
Q 1984 94 2187 284 
Q 2391 475 2391 747 
Q 2391 972 2272 1150 
Q 2050 1481 1375 2016 
z
" transform="scale(0.015625)"/>
       </defs>
       <use xlink:href="#TimesNewRomanPSMT-38"/>
       <use xlink:href="#TimesNewRomanPSMT-30" x="50"/>
      </g>
     </g>
    </g>
    <g id="ytick_14">
     <g id="line2d_44">
      <path d="M 45 378.27 
L 324 378.27 
" clip-path="url(#pe2b88e7303)" style="fill: none; stroke: #b0b0b0; stroke-width: 0.8; stroke-linecap: square"/>
     </g>
     <g id="line2d_45">
      <g>
       <use xlink:href="#m569ec59083" x="45" y="378.27" style="stroke: #000000; stroke-width: 0.8"/>
      </g>
     </g>
     <g id="text_38">
      <!-- 100 -->
      <g transform="translate(23 381.741875)scale(0.1 -0.1)">
       <use xlink:href="#TimesNewRomanPSMT-31"/>
       <use xlink:href="#TimesNewRomanPSMT-30" x="50"/>
       <use xlink:href="#TimesNewRomanPSMT-30" x="100"/>
      </g>
     </g>
    </g>
    <g id="text_39">
     <!-- Experiment number -->
     <g transform="translate(16.860937 512.618438)rotate(-90)scale(0.1 -0.1)">
      <defs>
       <path id="TimesNewRomanPSMT-45" d="M 1338 4006 
L 1338 2331 
L 2269 2331 
Q 2631 2331 2753 2441 
Q 2916 2584 2934 2947 
L 3050 2947 
L 3050 1472 
L 2934 1472 
Q 2891 1781 2847 1869 
Q 2791 1978 2662 2040 
Q 2534 2103 2269 2103 
L 1338 2103 
L 1338 706 
Q 1338 425 1363 364 
Q 1388 303 1450 267 
Q 1513 231 1688 231 
L 2406 231 
Q 2766 231 2928 281 
Q 3091 331 3241 478 
Q 3434 672 3638 1063 
L 3763 1063 
L 3397 0 
L 131 0 
L 131 116 
L 281 116 
Q 431 116 566 188 
Q 666 238 702 338 
Q 738 438 738 747 
L 738 3500 
Q 738 3903 656 3997 
Q 544 4122 281 4122 
L 131 4122 
L 131 4238 
L 3397 4238 
L 3444 3309 
L 3322 3309 
Q 3256 3644 3176 3769 
Q 3097 3894 2941 3959 
Q 2816 4006 2500 4006 
L 1338 4006 
z
" transform="scale(0.015625)"/>
       <path id="TimesNewRomanPSMT-78" d="M 84 2863 
L 1431 2863 
L 1431 2747 
Q 1303 2747 1251 2703 
Q 1200 2659 1200 2588 
Q 1200 2513 1309 2356 
Q 1344 2306 1413 2200 
L 1616 1875 
L 1850 2200 
Q 2075 2509 2075 2591 
Q 2075 2656 2022 2701 
Q 1969 2747 1850 2747 
L 1850 2863 
L 2819 2863 
L 2819 2747 
Q 2666 2738 2553 2663 
Q 2400 2556 2134 2200 
L 1744 1678 
L 2456 653 
Q 2719 275 2831 198 
Q 2944 122 3122 113 
L 3122 0 
L 1772 0 
L 1772 113 
Q 1913 113 1991 175 
Q 2050 219 2050 291 
Q 2050 363 1850 653 
L 1431 1266 
L 972 653 
Q 759 369 759 316 
Q 759 241 829 180 
Q 900 119 1041 113 
L 1041 0 
L 106 0 
L 106 113 
Q 219 128 303 191 
Q 422 281 703 653 
L 1303 1450 
L 759 2238 
Q 528 2575 401 2661 
Q 275 2747 84 2747 
L 84 2863 
z
" transform="scale(0.015625)"/>
      </defs>
      <use xlink:href="#TimesNewRomanPSMT-45"/>
      <use xlink:href="#TimesNewRomanPSMT-78" x="61.083984"/>
      <use xlink:href="#TimesNewRomanPSMT-70" x="111.083984"/>
      <use xlink:href="#TimesNewRomanPSMT-65" x="161.083984"/>
      <use xlink:href="#TimesNewRomanPSMT-72" x="205.46875"/>
      <use xlink:href="#TimesNewRomanPSMT-69" x="238.769531"/>
      <use xlink:href="#TimesNewRomanPSMT-6d" x="266.552734"/>
      <use xlink:href="#TimesNewRomanPSMT-65" x="344.335938"/>
      <use xlink:href="#TimesNewRomanPSMT-6e" x="388.720703"/>
      <use xlink:href="#TimesNewRomanPSMT-74" x="438.720703"/>
      <use xlink:href="#TimesNewRomanPSMT-20" x="466.503906"/>
      <use xlink:href="#TimesNewRomanPSMT-6e" x="491.503906"/>
      <use xlink:href="#TimesNewRomanPSMT-75" x="541.503906"/>
      <use xlink:href="#TimesNewRomanPSMT-6d" x="591.503906"/>
      <use xlink:href="#TimesNewRomanPSMT-62" x="669.287109"/>
      <use xlink:href="#TimesNewRomanPSMT-65" x="719.287109"/>
      <use xlink:href="#TimesNewRomanPSMT-72" x="763.671875"/>
     </g>
    </g>
   </g>
   <g id="line2d_46">
    <path d="M 157.711147 567.27 
L 278.233756 567.27 
" clip-path="url(#pe2b88e7303)" style="fill: none; stroke: #000000; stroke-width: 1.5; stroke-linecap: square"/>
   </g>
   <g id="line2d_47">
    <path d="M 123.058518 565.360909 
L 243.581127 565.360909 
" clip-path="url(#pe2b88e7303)" style="fill: none; stroke: #000000; stroke-width: 1.5; stroke-linecap: square"/>
   </g>
   <g id="line2d_48">
    <path d="M 119.826766 563.451818 
L 240.349376 563.451818 
" clip-path="url(#pe2b88e7303)" style="fill: none; stroke: #000000; stroke-width: 1.5; stroke-linecap: square"/>
   </g>
   <g id="line2d_49">
    <path d="M 119.44309 561.542727 
L 239.965699 561.542727 
" clip-path="url(#pe2b88e7303)" style="fill: none; stroke: #000000; stroke-width: 1.5; stroke-linecap: square"/>
   </g>
   <g id="line2d_50">
    <path d="M 159.347339 559.633636 
L 279.869949 559.633636 
" clip-path="url(#pe2b88e7303)" style="fill: none; stroke: #000000; stroke-width: 1.5; stroke-linecap: square"/>
   </g>
   <g id="line2d_51">
    <path d="M 97.3038 557.724545 
L 217.826409 557.724545 
" clip-path="url(#pe2b88e7303)" style="fill: none; stroke: #000000; stroke-width: 1.5; stroke-linecap: square"/>
   </g>
   <g id="line2d_52">
    <path d="M 89.969124 555.815455 
L 210.491734 555.815455 
" clip-path="url(#pe2b88e7303)" style="fill: none; stroke: #000000; stroke-width: 1.5; stroke-linecap: square"/>
   </g>
   <g id="line2d_53">
    <path d="M 127.808942 553.906364 
L 248.331551 553.906364 
" clip-path="url(#pe2b88e7303)" style="fill: none; stroke: #000000; stroke-width: 1.5; stroke-linecap: square"/>
   </g>
   <g id="line2d_54">
    <path d="M 95.425809 551.997273 
L 215.948419 551.997273 
" clip-path="url(#pe2b88e7303)" style="fill: none; stroke: #000000; stroke-width: 1.5; stroke-linecap: square"/>
   </g>
   <g id="line2d_55">
    <path d="M 116.047065 550.088182 
L 236.569674 550.088182 
" clip-path="url(#pe2b88e7303)" style="fill: none; stroke: #000000; stroke-width: 1.5; stroke-linecap: square"/>
   </g>
   <g id="line2d_56">
    <path d="M 109.299241 548.179091 
L 229.82185 548.179091 
" clip-path="url(#pe2b88e7303)" style="fill: none; stroke: #000000; stroke-width: 1.5; stroke-linecap: square"/>
   </g>
   <g id="line2d_57">
    <path d="M 144.326772 546.27 
L 264.849382 546.27 
" clip-path="url(#pe2b88e7303)" style="fill: none; stroke: #000000; stroke-width: 1.5; stroke-linecap: square"/>
   </g>
   <g id="line2d_58">
    <path d="M 127.505739 544.360909 
L 248.028349 544.360909 
" clip-path="url(#pe2b88e7303)" style="fill: none; stroke: #000000; stroke-width: 1.5; stroke-linecap: square"/>
   </g>
   <g id="line2d_59">
    <path d="M 97.623559 542.451818 
L 218.146169 542.451818 
" clip-path="url(#pe2b88e7303)" style="fill: none; stroke: #000000; stroke-width: 1.5; stroke-linecap: square"/>
   </g>
   <g id="line2d_60">
    <path d="M 120.165727 540.542727 
L 240.688337 540.542727 
" clip-path="url(#pe2b88e7303)" style="fill: none; stroke: #000000; stroke-width: 1.5; stroke-linecap: square"/>
   </g>
   <g id="line2d_61">
    <path d="M 146.273884 538.633636 
L 266.796494 538.633636 
" clip-path="url(#pe2b88e7303)" style="fill: none; stroke: #000000; stroke-width: 1.5; stroke-linecap: square"/>
   </g>
   <g id="line2d_62">
    <path d="M 90.494675 536.724545 
L 211.017285 536.724545 
" clip-path="url(#pe2b88e7303)" style="fill: none; stroke: #000000; stroke-width: 1.5; stroke-linecap: square"/>
   </g>
   <g id="line2d_63">
    <path d="M 111.589507 534.815455 
L 232.112116 534.815455 
" clip-path="url(#pe2b88e7303)" style="fill: none; stroke: #000000; stroke-width: 1.5; stroke-linecap: square"/>
   </g>
   <g id="line2d_64">
    <path d="M 138.961999 532.906364 
L 259.484609 532.906364 
" clip-path="url(#pe2b88e7303)" style="fill: none; stroke: #000000; stroke-width: 1.5; stroke-linecap: square"/>
   </g>
   <g id="line2d_65">
    <path d="M 81.712105 530.997273 
L 202.234715 530.997273 
" clip-path="url(#pe2b88e7303)" style="fill: none; stroke: #000000; stroke-width: 1.5; stroke-linecap: square"/>
   </g>
   <g id="line2d_66">
    <path d="M 163.59625 529.088182 
L 284.11886 529.088182 
" clip-path="url(#pe2b88e7303)" style="fill: none; stroke: #000000; stroke-width: 1.5; stroke-linecap: square"/>
   </g>
   <g id="line2d_67">
    <path d="M 143.01336 527.179091 
L 263.53597 527.179091 
" clip-path="url(#pe2b88e7303)" style="fill: none; stroke: #000000; stroke-width: 1.5; stroke-linecap: square"/>
   </g>
   <g id="line2d_68">
    <path d="M 57.681818 525.27 
L 178.204428 525.27 
" clip-path="url(#pe2b88e7303)" style="fill: none; stroke: #ff0000; stroke-width: 1.5; stroke-linecap: square"/>
   </g>
   <g id="line2d_69">
    <path d="M 124.362515 523.360909 
L 244.885125 523.360909 
" clip-path="url(#pe2b88e7303)" style="fill: none; stroke: #000000; stroke-width: 1.5; stroke-linecap: square"/>
   </g>
   <g id="line2d_70">
    <path d="M 112.081665 521.451818 
L 232.604275 521.451818 
" clip-path="url(#pe2b88e7303)" style="fill: none; stroke: #000000; stroke-width: 1.5; stroke-linecap: square"/>
   </g>
   <g id="line2d_71">
    <path d="M 100.891421 519.542727 
L 221.414031 519.542727 
" clip-path="url(#pe2b88e7303)" style="fill: none; stroke: #000000; stroke-width: 1.5; stroke-linecap: square"/>
   </g>
   <g id="line2d_72">
    <path d="M 111.103151 517.633636 
L 231.625761 517.633636 
" clip-path="url(#pe2b88e7303)" style="fill: none; stroke: #000000; stroke-width: 1.5; stroke-linecap: square"/>
   </g>
   <g id="line2d_73">
    <path d="M 123.612354 515.724545 
L 244.134964 515.724545 
" clip-path="url(#pe2b88e7303)" style="fill: none; stroke: #000000; stroke-width: 1.5; stroke-linecap: square"/>
   </g>
   <g id="line2d_74">
    <path d="M 96.958895 513.815455 
L 217.481504 513.815455 
" clip-path="url(#pe2b88e7303)" style="fill: none; stroke: #000000; stroke-width: 1.5; stroke-linecap: square"/>
   </g>
   <g id="line2d_75">
    <path d="M 86.956217 511.906364 
L 207.478827 511.906364 
" clip-path="url(#pe2b88e7303)" style="fill: none; stroke: #000000; stroke-width: 1.5; stroke-linecap: square"/>
   </g>
   <g id="line2d_76">
    <path d="M 84.765804 509.997273 
L 205.288414 509.997273 
" clip-path="url(#pe2b88e7303)" style="fill: none; stroke: #000000; stroke-width: 1.5; stroke-linecap: square"/>
   </g>
   <g id="line2d_77">
    <path d="M 112.95489 508.088182 
L 233.4775 508.088182 
" clip-path="url(#pe2b88e7303)" style="fill: none; stroke: #000000; stroke-width: 1.5; stroke-linecap: square"/>
   </g>
   <g id="line2d_78">
    <path d="M 175.068381 506.179091 
L 295.590991 506.179091 
" clip-path="url(#pe2b88e7303)" style="fill: none; stroke: #000000; stroke-width: 1.5; stroke-linecap: square"/>
   </g>
   <g id="line2d_79">
    <path d="M 147.046979 504.27 
L 267.569589 504.27 
" clip-path="url(#pe2b88e7303)" style="fill: none; stroke: #000000; stroke-width: 1.5; stroke-linecap: square"/>
   </g>
   <g id="line2d_80">
    <path d="M 110.871105 502.360909 
L 231.393715 502.360909 
" clip-path="url(#pe2b88e7303)" style="fill: none; stroke: #000000; stroke-width: 1.5; stroke-linecap: square"/>
   </g>
   <g id="line2d_81">
    <path d="M 96.956802 500.451818 
L 217.479412 500.451818 
" clip-path="url(#pe2b88e7303)" style="fill: none; stroke: #000000; stroke-width: 1.5; stroke-linecap: square"/>
   </g>
   <g id="line2d_82">
    <path d="M 81.449348 498.542727 
L 201.971957 498.542727 
" clip-path="url(#pe2b88e7303)" style="fill: none; stroke: #000000; stroke-width: 1.5; stroke-linecap: square"/>
   </g>
   <g id="line2d_83">
    <path d="M 154.591283 496.633636 
L 275.113893 496.633636 
" clip-path="url(#pe2b88e7303)" style="fill: none; stroke: #000000; stroke-width: 1.5; stroke-linecap: square"/>
   </g>
   <g id="line2d_84">
    <path d="M 79.62142 494.724545 
L 200.14403 494.724545 
" clip-path="url(#pe2b88e7303)" style="fill: none; stroke: #000000; stroke-width: 1.5; stroke-linecap: square"/>
   </g>
   <g id="line2d_85">
    <path d="M 161.330382 492.815455 
L 281.852992 492.815455 
" clip-path="url(#pe2b88e7303)" style="fill: none; stroke: #000000; stroke-width: 1.5; stroke-linecap: square"/>
   </g>
   <g id="line2d_86">
    <path d="M 190.795572 490.906364 
L 311.318182 490.906364 
" clip-path="url(#pe2b88e7303)" style="fill: none; stroke: #ff0000; stroke-width: 1.5; stroke-linecap: square"/>
   </g>
   <g id="line2d_87">
    <path d="M 59.174107 488.997273 
L 179.696717 488.997273 
" clip-path="url(#pe2b88e7303)" style="fill: none; stroke: #000000; stroke-width: 1.5; stroke-linecap: square"/>
   </g>
   <g id="line2d_88">
    <path d="M 101.480265 487.088182 
L 222.002875 487.088182 
" clip-path="url(#pe2b88e7303)" style="fill: none; stroke: #000000; stroke-width: 1.5; stroke-linecap: square"/>
   </g>
   <g id="line2d_89">
    <path d="M 96.571338 485.179091 
L 217.093948 485.179091 
" clip-path="url(#pe2b88e7303)" style="fill: none; stroke: #000000; stroke-width: 1.5; stroke-linecap: square"/>
   </g>
   <g id="line2d_90">
    <path d="M 157.207103 483.27 
L 277.729713 483.27 
" clip-path="url(#pe2b88e7303)" style="fill: none; stroke: #000000; stroke-width: 1.5; stroke-linecap: square"/>
   </g>
   <g id="line2d_91">
    <path d="M 109.242427 481.360909 
L 229.765037 481.360909 
" clip-path="url(#pe2b88e7303)" style="fill: none; stroke: #000000; stroke-width: 1.5; stroke-linecap: square"/>
   </g>
   <g id="line2d_92">
    <path d="M 154.604141 479.451818 
L 275.126751 479.451818 
" clip-path="url(#pe2b88e7303)" style="fill: none; stroke: #000000; stroke-width: 1.5; stroke-linecap: square"/>
   </g>
   <g id="line2d_93">
    <path d="M 121.935827 477.542727 
L 242.458437 477.542727 
" clip-path="url(#pe2b88e7303)" style="fill: none; stroke: #000000; stroke-width: 1.5; stroke-linecap: square"/>
   </g>
   <g id="line2d_94">
    <path d="M 136.246922 475.633636 
L 256.769532 475.633636 
" clip-path="url(#pe2b88e7303)" style="fill: none; stroke: #000000; stroke-width: 1.5; stroke-linecap: square"/>
   </g>
   <g id="line2d_95">
    <path d="M 126.646615 473.724545 
L 247.169225 473.724545 
" clip-path="url(#pe2b88e7303)" style="fill: none; stroke: #000000; stroke-width: 1.5; stroke-linecap: square"/>
   </g>
   <g id="line2d_96">
    <path d="M 115.490795 471.815455 
L 236.013405 471.815455 
" clip-path="url(#pe2b88e7303)" style="fill: none; stroke: #000000; stroke-width: 1.5; stroke-linecap: square"/>
   </g>
   <g id="line2d_97">
    <path d="M 158.061312 469.906364 
L 278.583922 469.906364 
" clip-path="url(#pe2b88e7303)" style="fill: none; stroke: #000000; stroke-width: 1.5; stroke-linecap: square"/>
   </g>
   <g id="line2d_98">
    <path d="M 121.358966 467.997273 
L 241.881575 467.997273 
" clip-path="url(#pe2b88e7303)" style="fill: none; stroke: #000000; stroke-width: 1.5; stroke-linecap: square"/>
   </g>
   <g id="line2d_99">
    <path d="M 137.949455 466.088182 
L 258.472064 466.088182 
" clip-path="url(#pe2b88e7303)" style="fill: none; stroke: #000000; stroke-width: 1.5; stroke-linecap: square"/>
   </g>
   <g id="line2d_100">
    <path d="M 113.50179 464.179091 
L 234.024399 464.179091 
" clip-path="url(#pe2b88e7303)" style="fill: none; stroke: #000000; stroke-width: 1.5; stroke-linecap: square"/>
   </g>
   <g id="line2d_101">
    <path d="M 82.806646 462.27 
L 203.329256 462.27 
" clip-path="url(#pe2b88e7303)" style="fill: none; stroke: #000000; stroke-width: 1.5; stroke-linecap: square"/>
   </g>
   <g id="line2d_102">
    <path d="M 121.818387 460.360909 
L 242.340997 460.360909 
" clip-path="url(#pe2b88e7303)" style="fill: none; stroke: #000000; stroke-width: 1.5; stroke-linecap: square"/>
   </g>
   <g id="line2d_103">
    <path d="M 99.192426 458.451818 
L 219.715036 458.451818 
" clip-path="url(#pe2b88e7303)" style="fill: none; stroke: #000000; stroke-width: 1.5; stroke-linecap: square"/>
   </g>
   <g id="line2d_104">
    <path d="M 68.415301 456.542727 
L 188.93791 456.542727 
" clip-path="url(#pe2b88e7303)" style="fill: none; stroke: #000000; stroke-width: 1.5; stroke-linecap: square"/>
   </g>
   <g id="line2d_105">
    <path d="M 163.326342 454.633636 
L 283.848952 454.633636 
" clip-path="url(#pe2b88e7303)" style="fill: none; stroke: #000000; stroke-width: 1.5; stroke-linecap: square"/>
   </g>
   <g id="line2d_106">
    <path d="M 103.494718 452.724545 
L 224.017327 452.724545 
" clip-path="url(#pe2b88e7303)" style="fill: none; stroke: #000000; stroke-width: 1.5; stroke-linecap: square"/>
   </g>
   <g id="line2d_107">
    <path d="M 130.332656 450.815455 
L 250.855266 450.815455 
" clip-path="url(#pe2b88e7303)" style="fill: none; stroke: #000000; stroke-width: 1.5; stroke-linecap: square"/>
   </g>
   <g id="line2d_108">
    <path d="M 161.269779 448.906364 
L 281.792389 448.906364 
" clip-path="url(#pe2b88e7303)" style="fill: none; stroke: #000000; stroke-width: 1.5; stroke-linecap: square"/>
   </g>
   <g id="line2d_109">
    <path d="M 94.441915 446.997273 
L 214.964525 446.997273 
" clip-path="url(#pe2b88e7303)" style="fill: none; stroke: #000000; stroke-width: 1.5; stroke-linecap: square"/>
   </g>
   <g id="line2d_110">
    <path d="M 101.645251 445.088182 
L 222.167861 445.088182 
" clip-path="url(#pe2b88e7303)" style="fill: none; stroke: #000000; stroke-width: 1.5; stroke-linecap: square"/>
   </g>
   <g id="line2d_111">
    <path d="M 159.493605 443.179091 
L 280.016214 443.179091 
" clip-path="url(#pe2b88e7303)" style="fill: none; stroke: #000000; stroke-width: 1.5; stroke-linecap: square"/>
   </g>
   <g id="line2d_112">
    <path d="M 64.370451 441.27 
L 184.893061 441.27 
" clip-path="url(#pe2b88e7303)" style="fill: none; stroke: #000000; stroke-width: 1.5; stroke-linecap: square"/>
   </g>
   <g id="line2d_113">
    <path d="M 114.232236 439.360909 
L 234.754846 439.360909 
" clip-path="url(#pe2b88e7303)" style="fill: none; stroke: #000000; stroke-width: 1.5; stroke-linecap: square"/>
   </g>
   <g id="line2d_114">
    <path d="M 101.870527 437.451818 
L 222.393137 437.451818 
" clip-path="url(#pe2b88e7303)" style="fill: none; stroke: #000000; stroke-width: 1.5; stroke-linecap: square"/>
   </g>
   <g id="line2d_115">
    <path d="M 140.086157 435.542727 
L 260.608766 435.542727 
" clip-path="url(#pe2b88e7303)" style="fill: none; stroke: #000000; stroke-width: 1.5; stroke-linecap: square"/>
   </g>
   <g id="line2d_116">
    <path d="M 60.102491 433.633636 
L 180.625101 433.633636 
" clip-path="url(#pe2b88e7303)" style="fill: none; stroke: #000000; stroke-width: 1.5; stroke-linecap: square"/>
   </g>
   <g id="line2d_117">
    <path d="M 125.465735 431.724545 
L 245.988345 431.724545 
" clip-path="url(#pe2b88e7303)" style="fill: none; stroke: #000000; stroke-width: 1.5; stroke-linecap: square"/>
   </g>
   <g id="line2d_118">
    <path d="M 157.159906 429.815455 
L 277.682516 429.815455 
" clip-path="url(#pe2b88e7303)" style="fill: none; stroke: #000000; stroke-width: 1.5; stroke-linecap: square"/>
   </g>
   <g id="line2d_119">
    <path d="M 170.997471 427.906364 
L 291.520081 427.906364 
" clip-path="url(#pe2b88e7303)" style="fill: none; stroke: #000000; stroke-width: 1.5; stroke-linecap: square"/>
   </g>
   <g id="line2d_120">
    <path d="M 123.200809 425.997273 
L 243.723419 425.997273 
" clip-path="url(#pe2b88e7303)" style="fill: none; stroke: #000000; stroke-width: 1.5; stroke-linecap: square"/>
   </g>
   <g id="line2d_121">
    <path d="M 111.247033 424.088182 
L 231.769643 424.088182 
" clip-path="url(#pe2b88e7303)" style="fill: none; stroke: #000000; stroke-width: 1.5; stroke-linecap: square"/>
   </g>
   <g id="line2d_122">
    <path d="M 83.751416 422.179091 
L 204.274026 422.179091 
" clip-path="url(#pe2b88e7303)" style="fill: none; stroke: #000000; stroke-width: 1.5; stroke-linecap: square"/>
   </g>
   <g id="line2d_123">
    <path d="M 146.492072 420.27 
L 267.014682 420.27 
" clip-path="url(#pe2b88e7303)" style="fill: none; stroke: #000000; stroke-width: 1.5; stroke-linecap: square"/>
   </g>
   <g id="line2d_124">
    <path d="M 106.721489 418.360909 
L 227.244098 418.360909 
" clip-path="url(#pe2b88e7303)" style="fill: none; stroke: #000000; stroke-width: 1.5; stroke-linecap: square"/>
   </g>
   <g id="line2d_125">
    <path d="M 122.344171 416.451818 
L 242.866781 416.451818 
" clip-path="url(#pe2b88e7303)" style="fill: none; stroke: #000000; stroke-width: 1.5; stroke-linecap: square"/>
   </g>
   <g id="line2d_126">
    <path d="M 118.686029 414.542727 
L 239.208638 414.542727 
" clip-path="url(#pe2b88e7303)" style="fill: none; stroke: #000000; stroke-width: 1.5; stroke-linecap: square"/>
   </g>
   <g id="line2d_127">
    <path d="M 108.707174 412.633636 
L 229.229783 412.633636 
" clip-path="url(#pe2b88e7303)" style="fill: none; stroke: #000000; stroke-width: 1.5; stroke-linecap: square"/>
   </g>
   <g id="line2d_128">
    <path d="M 87.357901 410.724545 
L 207.880511 410.724545 
" clip-path="url(#pe2b88e7303)" style="fill: none; stroke: #000000; stroke-width: 1.5; stroke-linecap: square"/>
   </g>
   <g id="line2d_129">
    <path d="M 169.445991 408.815455 
L 289.968601 408.815455 
" clip-path="url(#pe2b88e7303)" style="fill: none; stroke: #000000; stroke-width: 1.5; stroke-linecap: square"/>
   </g>
   <g id="line2d_130">
    <path d="M 139.307621 406.906364 
L 259.83023 406.906364 
" clip-path="url(#pe2b88e7303)" style="fill: none; stroke: #000000; stroke-width: 1.5; stroke-linecap: square"/>
   </g>
   <g id="line2d_131">
    <path d="M 104.767787 404.997273 
L 225.290397 404.997273 
" clip-path="url(#pe2b88e7303)" style="fill: none; stroke: #000000; stroke-width: 1.5; stroke-linecap: square"/>
   </g>
   <g id="line2d_132">
    <path d="M 70.05319 403.088182 
L 190.5758 403.088182 
" clip-path="url(#pe2b88e7303)" style="fill: none; stroke: #000000; stroke-width: 1.5; stroke-linecap: square"/>
   </g>
   <g id="line2d_133">
    <path d="M 136.224859 401.179091 
L 256.747468 401.179091 
" clip-path="url(#pe2b88e7303)" style="fill: none; stroke: #000000; stroke-width: 1.5; stroke-linecap: square"/>
   </g>
   <g id="line2d_134">
    <path d="M 138.287829 399.27 
L 258.810439 399.27 
" clip-path="url(#pe2b88e7303)" style="fill: none; stroke: #000000; stroke-width: 1.5; stroke-linecap: square"/>
   </g>
   <g id="line2d_135">
    <path d="M 108.849182 397.360909 
L 229.371792 397.360909 
" clip-path="url(#pe2b88e7303)" style="fill: none; stroke: #000000; stroke-width: 1.5; stroke-linecap: square"/>
   </g>
   <g id="line2d_136">
    <path d="M 89.093726 395.451818 
L 209.616335 395.451818 
" clip-path="url(#pe2b88e7303)" style="fill: none; stroke: #000000; stroke-width: 1.5; stroke-linecap: square"/>
   </g>
   <g id="line2d_137">
    <path d="M 127.752858 393.542727 
L 248.275468 393.542727 
" clip-path="url(#pe2b88e7303)" style="fill: none; stroke: #000000; stroke-width: 1.5; stroke-linecap: square"/>
   </g>
   <g id="line2d_138">
    <path d="M 89.416756 391.633636 
L 209.939366 391.633636 
" clip-path="url(#pe2b88e7303)" style="fill: none; stroke: #000000; stroke-width: 1.5; stroke-linecap: square"/>
   </g>
   <g id="line2d_139">
    <path d="M 109.721805 389.724545 
L 230.244415 389.724545 
" clip-path="url(#pe2b88e7303)" style="fill: none; stroke: #000000; stroke-width: 1.5; stroke-linecap: square"/>
   </g>
   <g id="line2d_140">
    <path d="M 122.525795 387.815455 
L 243.048405 387.815455 
" clip-path="url(#pe2b88e7303)" style="fill: none; stroke: #000000; stroke-width: 1.5; stroke-linecap: square"/>
   </g>
   <g id="line2d_141">
    <path d="M 118.727532 385.906364 
L 239.250142 385.906364 
" clip-path="url(#pe2b88e7303)" style="fill: none; stroke: #000000; stroke-width: 1.5; stroke-linecap: square"/>
   </g>
   <g id="line2d_142">
    <path d="M 117.378108 383.997273 
L 237.900718 383.997273 
" clip-path="url(#pe2b88e7303)" style="fill: none; stroke: #000000; stroke-width: 1.5; stroke-linecap: square"/>
   </g>
   <g id="line2d_143">
    <path d="M 103.017681 382.088182 
L 223.540291 382.088182 
" clip-path="url(#pe2b88e7303)" style="fill: none; stroke: #000000; stroke-width: 1.5; stroke-linecap: square"/>
   </g>
   <g id="line2d_144">
    <path d="M 72.337222 380.179091 
L 192.859832 380.179091 
" clip-path="url(#pe2b88e7303)" style="fill: none; stroke: #000000; stroke-width: 1.5; stroke-linecap: square"/>
   </g>
   <g id="line2d_145">
    <path d="M 116.879385 378.27 
L 237.401995 378.27 
" clip-path="url(#pe2b88e7303)" style="fill: none; stroke: #000000; stroke-width: 1.5; stroke-linecap: square"/>
   </g>
   <g id="line2d_146">
    <path d="M 178.549237 576.72 
L 178.549237 368.82 
" clip-path="url(#pe2b88e7303)" style="fill: none; stroke-dasharray: 5.55,2.4; stroke-dashoffset: 0; stroke: #000000; stroke-width: 1.5"/>
   </g>
   <g id="patch_24">
    <path d="M 45 576.72 
L 45 368.82 
" style="fill: none; stroke: #000000; stroke-width: 0.8; stroke-linejoin: miter; stroke-linecap: square"/>
   </g>
   <g id="patch_25">
    <path d="M 324 576.72 
L 324 368.82 
" style="fill: none; stroke: #000000; stroke-width: 0.8; stroke-linejoin: miter; stroke-linecap: square"/>
   </g>
   <g id="patch_26">
    <path d="M 45 576.72 
L 324 576.72 
" style="fill: none; stroke: #000000; stroke-width: 0.8; stroke-linejoin: miter; stroke-linecap: square"/>
   </g>
   <g id="patch_27">
    <path d="M 45 368.82 
L 324 368.82 
" style="fill: none; stroke: #000000; stroke-width: 0.8; stroke-linejoin: miter; stroke-linecap: square"/>
   </g>
   <g id="text_40">
    <!-- Sample of ranges; red =&gt; no trapping of $\mu = 0.0$ -->
    <g transform="translate(70.74 362.82)scale(0.12 -0.12)">
     <defs>
      <path id="TimesNewRomanPSMT-3b" d="M 881 2953 
Q 1025 2953 1126 2853 
Q 1228 2753 1228 2609 
Q 1228 2466 1126 2364 
Q 1025 2263 881 2263 
Q 738 2263 636 2364 
Q 534 2466 534 2609 
Q 534 2753 636 2853 
Q 738 2953 881 2953 
z
M 444 -1066 
L 444 -928 
Q 766 -822 942 -598 
Q 1119 -375 1119 -125 
Q 1119 -66 1091 -25 
Q 1069 3 1047 3 
Q 1013 3 897 -59 
Q 841 -88 778 -88 
Q 625 -88 534 3 
Q 444 94 444 253 
Q 444 406 561 515 
Q 678 625 847 625 
Q 1053 625 1214 445 
Q 1375 266 1375 -31 
Q 1375 -353 1151 -629 
Q 928 -906 444 -1066 
z
" transform="scale(0.015625)"/>
      <path id="TimesNewRomanPSMT-3e" d="M 3478 2041 
L 116 584 
L 116 853 
L 3013 2109 
L 116 3378 
L 116 3663 
L 3478 2194 
L 3478 2041 
z
" transform="scale(0.015625)"/>
     </defs>
     <use xlink:href="#TimesNewRomanPSMT-53" transform="translate(0 0.5625)"/>
     <use xlink:href="#TimesNewRomanPSMT-61" transform="translate(55.615234 0.5625)"/>
     <use xlink:href="#TimesNewRomanPSMT-6d" transform="translate(100 0.5625)"/>
     <use xlink:href="#TimesNewRomanPSMT-70" transform="translate(177.783203 0.5625)"/>
     <use xlink:href="#TimesNewRomanPSMT-6c" transform="translate(227.783203 0.5625)"/>
     <use xlink:href="#TimesNewRomanPSMT-65" transform="translate(255.566406 0.5625)"/>
     <use xlink:href="#TimesNewRomanPSMT-20" transform="translate(299.951172 0.5625)"/>
     <use xlink:href="#TimesNewRomanPSMT-6f" transform="translate(324.951172 0.5625)"/>
     <use xlink:href="#TimesNewRomanPSMT-66" transform="translate(374.951172 0.5625)"/>
     <use xlink:href="#TimesNewRomanPSMT-20" transform="translate(408.251953 0.5625)"/>
     <use xlink:href="#TimesNewRomanPSMT-72" transform="translate(433.251953 0.5625)"/>
     <use xlink:href="#TimesNewRomanPSMT-61" transform="translate(466.552734 0.5625)"/>
     <use xlink:href="#TimesNewRomanPSMT-6e" transform="translate(510.9375 0.5625)"/>
     <use xlink:href="#TimesNewRomanPSMT-67" transform="translate(560.9375 0.5625)"/>
     <use xlink:href="#TimesNewRomanPSMT-65" transform="translate(610.9375 0.5625)"/>
     <use xlink:href="#TimesNewRomanPSMT-73" transform="translate(655.322266 0.5625)"/>
     <use xlink:href="#TimesNewRomanPSMT-3b" transform="translate(694.238281 0.5625)"/>
     <use xlink:href="#TimesNewRomanPSMT-20" transform="translate(722.021484 0.5625)"/>
     <use xlink:href="#TimesNewRomanPSMT-72" transform="translate(747.021484 0.5625)"/>
     <use xlink:href="#TimesNewRomanPSMT-65" transform="translate(780.322266 0.5625)"/>
     <use xlink:href="#TimesNewRomanPSMT-64" transform="translate(824.707031 0.5625)"/>
     <use xlink:href="#TimesNewRomanPSMT-20" transform="translate(874.707031 0.5625)"/>
     <use xlink:href="#TimesNewRomanPSMT-3d" transform="translate(899.707031 0.5625)"/>
     <use xlink:href="#TimesNewRomanPSMT-3e" transform="translate(956.103516 0.5625)"/>
     <use xlink:href="#TimesNewRomanPSMT-20" transform="translate(1012.5 0.5625)"/>
     <use xlink:href="#TimesNewRomanPSMT-6e" transform="translate(1037.5 0.5625)"/>
     <use xlink:href="#TimesNewRomanPSMT-6f" transform="translate(1087.5 0.5625)"/>
     <use xlink:href="#TimesNewRomanPSMT-20" transform="translate(1137.5 0.5625)"/>
     <use xlink:href="#TimesNewRomanPSMT-74" transform="translate(1162.5 0.5625)"/>
     <use xlink:href="#TimesNewRomanPSMT-72" transform="translate(1190.283203 0.5625)"/>
     <use xlink:href="#TimesNewRomanPSMT-61" transform="translate(1223.583984 0.5625)"/>
     <use xlink:href="#TimesNewRomanPSMT-70" transform="translate(1267.96875 0.5625)"/>
     <use xlink:href="#TimesNewRomanPSMT-70" transform="translate(1317.96875 0.5625)"/>
     <use xlink:href="#TimesNewRomanPSMT-69" transform="translate(1367.96875 0.5625)"/>
     <use xlink:href="#TimesNewRomanPSMT-6e" transform="translate(1395.751953 0.5625)"/>
     <use xlink:href="#TimesNewRomanPSMT-67" transform="translate(1445.751953 0.5625)"/>
     <use xlink:href="#TimesNewRomanPSMT-20" transform="translate(1495.751953 0.5625)"/>
     <use xlink:href="#TimesNewRomanPSMT-6f" transform="translate(1520.751953 0.5625)"/>
     <use xlink:href="#TimesNewRomanPSMT-66" transform="translate(1570.751953 0.5625)"/>
     <use xlink:href="#TimesNewRomanPSMT-20" transform="translate(1604.052734 0.5625)"/>
     <use xlink:href="#TimesNewRomanPSMT-3bc" transform="translate(1629.052734 0.5625)"/>
     <use xlink:href="#TimesNewRomanPSMT-3d" transform="translate(1698.222656 0.5625)"/>
     <use xlink:href="#TimesNewRomanPSMT-30" transform="translate(1770.175781 0.5625)"/>
     <use xlink:href="#TimesNewRomanPSMT-2e" transform="translate(1820.175781 0.5625)"/>
     <use xlink:href="#TimesNewRomanPSMT-30" transform="translate(1845.175781 0.5625)"/>
    </g>
   </g>
  </g>
 </g>
 <defs>
  <clipPath id="p8ace8d662e">
   <rect x="45" y="77.76" width="279" height="207.9"/>
  </clipPath>
  <clipPath id="pe2b88e7303">
   <rect x="45" y="368.82" width="279" height="207.9"/>
  </clipPath>
 </defs>
</svg>
