<?xml version="1.0" encoding="utf-8" standalone="no"?>
<!DOCTYPE svg PUBLIC "-//W3C//DTD SVG 1.1//EN"
  "http://www.w3.org/Graphics/SVG/1.1/DTD/svg11.dtd">
<svg xmlns:xlink="http://www.w3.org/1999/xlink" width="460.8pt" height="345.6pt" viewBox="0 0 460.8 345.6" xmlns="http://www.w3.org/2000/svg" version="1.1">
 <metadata>
  <rdf:RDF xmlns:dc="http://purl.org/dc/elements/1.1/" xmlns:cc="http://creativecommons.org/ns#" xmlns:rdf="http://www.w3.org/1999/02/22-rdf-syntax-ns#">
   <cc:Work>
    <dc:type rdf:resource="http://purl.org/dc/dcmitype/StillImage"/>
    <dc:date>2025-02-20T14:13:27.810655</dc:date>
    <dc:format>image/svg+xml</dc:format>
    <dc:creator>
     <cc:Agent>
      <dc:title>Matplotlib v3.8.4, https://matplotlib.org/</dc:title>
     </cc:Agent>
    </dc:creator>
   </cc:Work>
  </rdf:RDF>
 </metadata>
 <defs>
  <style type="text/css">*{stroke-linejoin: round; stroke-linecap: butt}</style>
 </defs>
 <g id="figure_1">
  <g id="patch_1">
   <path d="M 0 345.6 
L 460.8 345.6 
L 460.8 0 
L 0 0 
L 0 345.6 
z
" style="fill: none"/>
  </g>
  <g id="axes_1">
   <g id="patch_2">
    <path d="M 57.6 307.584 
L 414.72 307.584 
L 414.72 41.472 
L 57.6 41.472 
L 57.6 307.584 
z
" style="fill: none"/>
   </g>
   <g id="patch_3">
    <path d="M -152.780308 307.584 
L -144.081231 307.584 
L -144.081231 307.584 
L -152.780308 307.584 
z
" clip-path="url(#pe4bd86c772)" style="fill: #1f77b4"/>
   </g>
   <g id="patch_4">
    <path d="M -143.623385 307.584 
L -134.924308 307.584 
L -134.924308 307.584 
L -143.623385 307.584 
z
" clip-path="url(#pe4bd86c772)" style="fill: #1f77b4"/>
   </g>
   <g id="patch_5">
    <path d="M -134.466462 307.584 
L -125.767385 307.584 
L -125.767385 307.584 
L -134.466462 307.584 
z
" clip-path="url(#pe4bd86c772)" style="fill: #1f77b4"/>
   </g>
   <g id="patch_6">
    <path d="M -125.309538 307.584 
L -116.610462 307.584 
L -116.610462 307.584 
L -125.309538 307.584 
z
" clip-path="url(#pe4bd86c772)" style="fill: #1f77b4"/>
   </g>
   <g id="patch_7">
    <path d="M -116.152615 307.584 
L -107.453538 307.584 
L -107.453538 307.584 
L -116.152615 307.584 
z
" clip-path="url(#pe4bd86c772)" style="fill: #1f77b4"/>
   </g>
   <g id="patch_8">
    <path d="M -106.995692 307.584 
L -98.296615 307.584 
L -98.296615 307.584 
L -106.995692 307.584 
z
" clip-path="url(#pe4bd86c772)" style="fill: #1f77b4"/>
   </g>
   <g id="patch_9">
    <path d="M -97.838769 307.584 
L -89.139692 307.584 
L -89.139692 307.584 
L -97.838769 307.584 
z
" clip-path="url(#pe4bd86c772)" style="fill: #1f77b4"/>
   </g>
   <g id="patch_10">
    <path d="M -88.681846 307.584 
L -79.982769 307.584 
L -79.982769 307.584 
L -88.681846 307.584 
z
" clip-path="url(#pe4bd86c772)" style="fill: #1f77b4"/>
   </g>
   <g id="patch_11">
    <path d="M -79.524923 307.584 
L -70.825846 307.584 
L -70.825846 307.584 
L -79.524923 307.584 
z
" clip-path="url(#pe4bd86c772)" style="fill: #1f77b4"/>
   </g>
   <g id="patch_12">
    <path d="M -70.368 307.584 
L -61.668923 307.584 
L -61.668923 307.584 
L -70.368 307.584 
z
" clip-path="url(#pe4bd86c772)" style="fill: #1f77b4"/>
   </g>
   <g id="patch_13">
    <path d="M -61.211077 307.584 
L -52.512 307.584 
L -52.512 307.584 
L -61.211077 307.584 
z
" clip-path="url(#pe4bd86c772)" style="fill: #1f77b4"/>
   </g>
   <g id="patch_14">
    <path d="M -52.054154 307.584 
L -43.355077 307.584 
L -43.355077 307.584 
L -52.054154 307.584 
z
" clip-path="url(#pe4bd86c772)" style="fill: #1f77b4"/>
   </g>
   <g id="patch_15">
    <path d="M -42.897231 307.584 
L -34.198154 307.584 
L -34.198154 307.583998 
L -42.897231 307.583998 
z
" clip-path="url(#pe4bd86c772)" style="fill: #1f77b4"/>
   </g>
   <g id="patch_16">
    <path d="M -33.740308 307.584 
L -25.041231 307.584 
L -25.041231 307.583993 
L -33.740308 307.583993 
z
" clip-path="url(#pe4bd86c772)" style="fill: #1f77b4"/>
   </g>
   <g id="patch_17">
    <path d="M -24.583385 307.584 
L -15.884308 307.584 
L -15.884308 307.583969 
L -24.583385 307.583969 
z
" clip-path="url(#pe4bd86c772)" style="fill: #1f77b4"/>
   </g>
   <g id="patch_18">
    <path d="M -15.426462 307.584 
L -6.727385 307.584 
L -6.727385 307.583882 
L -15.426462 307.583882 
z
" clip-path="url(#pe4bd86c772)" style="fill: #1f77b4"/>
   </g>
   <g id="patch_19">
    <path d="M -6.269538 307.584 
L 2.429538 307.584 
L 2.429538 307.583584 
L -6.269538 307.583584 
z
" clip-path="url(#pe4bd86c772)" style="fill: #1f77b4"/>
   </g>
   <g id="patch_20">
    <path d="M 2.887385 307.584 
L 11.586462 307.584 
L 11.586462 307.582629 
L 2.887385 307.582629 
z
" clip-path="url(#pe4bd86c772)" style="fill: #1f77b4"/>
   </g>
   <g id="patch_21">
    <path d="M 12.044308 307.584 
L 20.743385 307.584 
L 20.743385 307.579785 
L 12.044308 307.579785 
z
" clip-path="url(#pe4bd86c772)" style="fill: #1f77b4"/>
   </g>
   <g id="patch_22">
    <path d="M 21.201231 307.584 
L 29.900308 307.584 
L 29.900308 307.571872 
L 21.201231 307.571872 
z
" clip-path="url(#pe4bd86c772)" style="fill: #1f77b4"/>
   </g>
   <g id="patch_23">
    <path d="M 30.358154 307.584 
L 39.057231 307.584 
L 39.057231 307.551253 
L 30.358154 307.551253 
z
" clip-path="url(#pe4bd86c772)" style="fill: #1f77b4"/>
   </g>
   <g id="patch_24">
    <path d="M 39.515077 307.584 
L 48.214154 307.584 
L 48.214154 307.500834 
L 39.515077 307.500834 
z
" clip-path="url(#pe4bd86c772)" style="fill: #1f77b4"/>
   </g>
   <g id="patch_25">
    <path d="M 48.672 307.584 
L 57.371077 307.584 
L 57.371077 307.384905 
L 48.672 307.384905 
z
" clip-path="url(#pe4bd86c772)" style="fill: #1f77b4"/>
   </g>
   <g id="patch_26">
    <path d="M 57.828923 307.584 
L 66.528 307.584 
L 66.528 307.133871 
L 57.828923 307.133871 
z
" clip-path="url(#pe4bd86c772)" style="fill: #1f77b4"/>
   </g>
   <g id="patch_27">
    <path d="M 66.985846 307.584 
L 75.684923 307.584 
L 75.684923 306.621224 
L 66.985846 306.621224 
z
" clip-path="url(#pe4bd86c772)" style="fill: #1f77b4"/>
   </g>
   <g id="patch_28">
    <path d="M 76.142769 307.584 
L 84.841846 307.584 
L 84.841846 305.632775 
L 76.142769 305.632775 
z
" clip-path="url(#pe4bd86c772)" style="fill: #1f77b4"/>
   </g>
   <g id="patch_29">
    <path d="M 85.299692 307.584 
L 93.998769 307.584 
L 93.998769 303.831644 
L 85.299692 303.831644 
z
" clip-path="url(#pe4bd86c772)" style="fill: #1f77b4"/>
   </g>
   <g id="patch_30">
    <path d="M 94.456615 307.584 
L 103.155692 307.584 
L 103.155692 300.727844 
L 94.456615 300.727844 
z
" clip-path="url(#pe4bd86c772)" style="fill: #1f77b4"/>
   </g>
   <g id="patch_31">
    <path d="M 103.613538 307.584 
L 112.312615 307.584 
L 112.312615 295.667347 
L 103.613538 295.667347 
z
" clip-path="url(#pe4bd86c772)" style="fill: #1f77b4"/>
   </g>
   <g id="patch_32">
    <path d="M 112.770462 307.584 
L 121.469538 307.584 
L 121.469538 287.859885 
L 112.770462 287.859885 
z
" clip-path="url(#pe4bd86c772)" style="fill: #1f77b4"/>
   </g>
   <g id="patch_33">
    <path d="M 121.927385 307.584 
L 130.626462 307.584 
L 130.626462 276.46373 
L 121.927385 276.46373 
z
" clip-path="url(#pe4bd86c772)" style="fill: #1f77b4"/>
   </g>
   <g id="patch_34">
    <path d="M 131.084308 307.584 
L 139.783385 307.584 
L 139.783385 260.736281 
L 131.084308 260.736281 
z
" clip-path="url(#pe4bd86c772)" style="fill: #1f77b4"/>
   </g>
   <g id="patch_35">
    <path d="M 140.241231 307.584 
L 148.940308 307.584 
L 148.940308 240.240404 
L 140.241231 240.240404 
z
" clip-path="url(#pe4bd86c772)" style="fill: #1f77b4"/>
   </g>
   <g id="patch_36">
    <path d="M 149.398154 307.584 
L 158.097231 307.584 
L 158.097231 215.071585 
L 149.398154 215.071585 
z
" clip-path="url(#pe4bd86c772)" style="fill: #1f77b4"/>
   </g>
   <g id="patch_37">
    <path d="M 158.555077 307.584 
L 167.254154 307.584 
L 167.254154 186.048083 
L 158.555077 186.048083 
z
" clip-path="url(#pe4bd86c772)" style="fill: #1f77b4"/>
   </g>
   <g id="patch_38">
    <path d="M 167.712 307.584 
L 176.411077 307.584 
L 176.411077 154.79599 
L 167.712 154.79599 
z
" clip-path="url(#pe4bd86c772)" style="fill: #1f77b4"/>
   </g>
   <g id="patch_39">
    <path d="M 176.868923 307.584 
L 185.568 307.584 
L 185.568 123.672506 
L 176.868923 123.672506 
z
" clip-path="url(#pe4bd86c772)" style="fill: #1f77b4"/>
   </g>
   <g id="patch_40">
    <path d="M 186.025846 307.584 
L 194.724923 307.584 
L 194.724923 95.505881 
L 186.025846 95.505881 
z
" clip-path="url(#pe4bd86c772)" style="fill: #1f77b4"/>
   </g>
   <g id="patch_41">
    <path d="M 195.182769 307.584 
L 203.881846 307.584 
L 203.881846 73.181869 
L 195.182769 73.181869 
z
" clip-path="url(#pe4bd86c772)" style="fill: #1f77b4"/>
   </g>
   <g id="patch_42">
    <path d="M 204.339692 307.584 
L 213.038769 307.584 
L 213.038769 59.157809 
L 204.339692 59.157809 
z
" clip-path="url(#pe4bd86c772)" style="fill: #1f77b4"/>
   </g>
   <g id="patch_43">
    <path d="M 213.496615 307.584 
L 222.195692 307.584 
L 222.195692 55.017373 
L 213.496615 55.017373 
z
" clip-path="url(#pe4bd86c772)" style="fill: #1f77b4"/>
   </g>
   <g id="patch_44">
    <path d="M 222.653538 307.584 
L 231.352615 307.584 
L 231.352615 61.177535 
L 222.653538 61.177535 
z
" clip-path="url(#pe4bd86c772)" style="fill: #1f77b4"/>
   </g>
   <g id="patch_45">
    <path d="M 231.810462 307.584 
L 240.509538 307.584 
L 240.509538 76.822389 
L 231.810462 76.822389 
z
" clip-path="url(#pe4bd86c772)" style="fill: #1f77b4"/>
   </g>
   <g id="patch_46">
    <path d="M 240.967385 307.584 
L 249.666462 307.584 
L 249.666462 100.077436 
L 240.967385 100.077436 
z
" clip-path="url(#pe4bd86c772)" style="fill: #1f77b4"/>
   </g>
   <g id="patch_47">
    <path d="M 250.124308 307.584 
L 258.823385 307.584 
L 258.823385 128.373785 
L 250.124308 128.373785 
z
" clip-path="url(#pe4bd86c772)" style="fill: #1f77b4"/>
   </g>
   <g id="patch_48">
    <path d="M 259.281231 307.584 
L 267.980308 307.584 
L 267.980308 158.905896 
L 259.281231 158.905896 
z
" clip-path="url(#pe4bd86c772)" style="fill: #1f77b4"/>
   </g>
   <g id="patch_49">
    <path d="M 268.438154 307.584 
L 277.137231 307.584 
L 277.137231 189.072468 
L 268.438154 189.072468 
z
" clip-path="url(#pe4bd86c772)" style="fill: #1f77b4"/>
   </g>
   <g id="patch_50">
    <path d="M 277.595077 307.584 
L 286.294154 307.584 
L 286.294154 216.809209 
L 277.595077 216.809209 
z
" clip-path="url(#pe4bd86c772)" style="fill: #1f77b4"/>
   </g>
   <g id="patch_51">
    <path d="M 286.752 307.584 
L 295.451077 307.584 
L 295.451077 240.763668 
L 286.752 240.763668 
z
" clip-path="url(#pe4bd86c772)" style="fill: #1f77b4"/>
   </g>
   <g id="patch_52">
    <path d="M 295.908923 307.584 
L 304.608 307.584 
L 304.608 260.309751 
L 295.908923 260.309751 
z
" clip-path="url(#pe4bd86c772)" style="fill: #1f77b4"/>
   </g>
   <g id="patch_53">
    <path d="M 305.065846 307.584 
L 313.764923 307.584 
L 313.764923 275.437511 
L 305.065846 275.437511 
z
" clip-path="url(#pe4bd86c772)" style="fill: #1f77b4"/>
   </g>
   <g id="patch_54">
    <path d="M 314.222769 307.584 
L 322.921846 307.584 
L 322.921846 286.573223 
L 314.222769 286.573223 
z
" clip-path="url(#pe4bd86c772)" style="fill: #1f77b4"/>
   </g>
   <g id="patch_55">
    <path d="M 323.379692 307.584 
L 332.078769 307.584 
L 332.078769 294.384922 
L 323.379692 294.384922 
z
" clip-path="url(#pe4bd86c772)" style="fill: #1f77b4"/>
   </g>
   <g id="patch_56">
    <path d="M 332.536615 307.584 
L 341.235692 307.584 
L 341.235692 299.614745 
L 332.536615 299.614745 
z
" clip-path="url(#pe4bd86c772)" style="fill: #1f77b4"/>
   </g>
   <g id="patch_57">
    <path d="M 341.693538 307.584 
L 350.392615 307.584 
L 350.392615 302.959865 
L 341.693538 302.959865 
z
" clip-path="url(#pe4bd86c772)" style="fill: #1f77b4"/>
   </g>
   <g id="patch_58">
    <path d="M 350.850462 307.584 
L 359.549538 307.584 
L 359.549538 305.005694 
L 350.850462 305.005694 
z
" clip-path="url(#pe4bd86c772)" style="fill: #1f77b4"/>
   </g>
   <g id="patch_59">
    <path d="M 360.007385 307.584 
L 368.706462 307.584 
L 368.706462 306.202765 
L 360.007385 306.202765 
z
" clip-path="url(#pe4bd86c772)" style="fill: #1f77b4"/>
   </g>
   <g id="patch_60">
    <path d="M 369.164308 307.584 
L 377.863385 307.584 
L 377.863385 306.873189 
L 369.164308 306.873189 
z
" clip-path="url(#pe4bd86c772)" style="fill: #1f77b4"/>
   </g>
   <g id="patch_61">
    <path d="M 378.321231 307.584 
L 387.020308 307.584 
L 387.020308 307.23268 
L 378.321231 307.23268 
z
" clip-path="url(#pe4bd86c772)" style="fill: #1f77b4"/>
   </g>
   <g id="patch_62">
    <path d="M 387.478154 307.584 
L 396.177231 307.584 
L 396.177231 307.417272 
L 387.478154 307.417272 
z
" clip-path="url(#pe4bd86c772)" style="fill: #1f77b4"/>
   </g>
   <g id="patch_63">
    <path d="M 396.635077 307.584 
L 405.334154 307.584 
L 405.334154 307.508046 
L 396.635077 307.508046 
z
" clip-path="url(#pe4bd86c772)" style="fill: #1f77b4"/>
   </g>
   <g id="patch_64">
    <path d="M 405.792 307.584 
L 414.491077 307.584 
L 414.491077 307.550796 
L 405.792 307.550796 
z
" clip-path="url(#pe4bd86c772)" style="fill: #1f77b4"/>
   </g>
   <g id="patch_65">
    <path d="M 414.948923 307.584 
L 423.648 307.584 
L 423.648 307.570076 
L 414.948923 307.570076 
z
" clip-path="url(#pe4bd86c772)" style="fill: #1f77b4"/>
   </g>
   <g id="patch_66">
    <path d="M 424.105846 307.584 
L 432.804923 307.584 
L 432.804923 307.578401 
L 424.105846 307.578401 
z
" clip-path="url(#pe4bd86c772)" style="fill: #1f77b4"/>
   </g>
   <g id="patch_67">
    <path d="M 433.262769 307.584 
L 441.961846 307.584 
L 441.961846 307.581842 
L 433.262769 307.581842 
z
" clip-path="url(#pe4bd86c772)" style="fill: #1f77b4"/>
   </g>
   <g id="patch_68">
    <path d="M 442.419692 307.584 
L 451.118769 307.584 
L 451.118769 307.583203 
L 442.419692 307.583203 
z
" clip-path="url(#pe4bd86c772)" style="fill: #1f77b4"/>
   </g>
   <g id="patch_69">
    <path d="M 451.576615 307.584 
L 460.275692 307.584 
L 460.275692 307.583718 
L 451.576615 307.583718 
z
" clip-path="url(#pe4bd86c772)" style="fill: #1f77b4"/>
   </g>
   <g id="patch_70">
    <path d="M 460.733538 307.584 
L 469.432615 307.584 
L 469.432615 307.583905 
L 460.733538 307.583905 
z
" clip-path="url(#pe4bd86c772)" style="fill: #1f77b4"/>
   </g>
   <g id="patch_71">
    <path d="M 469.890462 307.584 
L 478.589538 307.584 
L 478.589538 307.583969 
L 469.890462 307.583969 
z
" clip-path="url(#pe4bd86c772)" style="fill: #1f77b4"/>
   </g>
   <g id="patch_72">
    <path d="M 479.047385 307.584 
L 487.746462 307.584 
L 487.746462 307.58399 
L 479.047385 307.58399 
z
" clip-path="url(#pe4bd86c772)" style="fill: #1f77b4"/>
   </g>
   <g id="patch_73">
    <path d="M 488.204308 307.584 
L 496.903385 307.584 
L 496.903385 307.583997 
L 488.204308 307.583997 
z
" clip-path="url(#pe4bd86c772)" style="fill: #1f77b4"/>
   </g>
   <g id="patch_74">
    <path d="M 497.361231 307.584 
L 506.060308 307.584 
L 506.060308 307.583999 
L 497.361231 307.583999 
z
" clip-path="url(#pe4bd86c772)" style="fill: #1f77b4"/>
   </g>
   <g id="patch_75">
    <path d="M 506.518154 307.584 
L 515.217231 307.584 
L 515.217231 307.584 
L 506.518154 307.584 
z
" clip-path="url(#pe4bd86c772)" style="fill: #1f77b4"/>
   </g>
   <g id="patch_76">
    <path d="M 515.675077 307.584 
L 524.374154 307.584 
L 524.374154 307.584 
L 515.675077 307.584 
z
" clip-path="url(#pe4bd86c772)" style="fill: #1f77b4"/>
   </g>
   <g id="patch_77">
    <path d="M 524.832 307.584 
L 533.531077 307.584 
L 533.531077 307.584 
L 524.832 307.584 
z
" clip-path="url(#pe4bd86c772)" style="fill: #1f77b4"/>
   </g>
   <g id="patch_78">
    <path d="M 533.988923 307.584 
L 542.688 307.584 
L 542.688 307.584 
L 533.988923 307.584 
z
" clip-path="url(#pe4bd86c772)" style="fill: #1f77b4"/>
   </g>
   <g id="patch_79">
    <path d="M 543.145846 307.584 
L 551.844923 307.584 
L 551.844923 307.584 
L 543.145846 307.584 
z
" clip-path="url(#pe4bd86c772)" style="fill: #1f77b4"/>
   </g>
   <g id="patch_80">
    <path d="M 552.302769 307.584 
L 561.001846 307.584 
L 561.001846 307.584 
L 552.302769 307.584 
z
" clip-path="url(#pe4bd86c772)" style="fill: #1f77b4"/>
   </g>
   <g id="patch_81">
    <path d="M 561.459692 307.584 
L 570.158769 307.584 
L 570.158769 307.584 
L 561.459692 307.584 
z
" clip-path="url(#pe4bd86c772)" style="fill: #1f77b4"/>
   </g>
   <g id="patch_82">
    <path d="M 570.616615 307.584 
L 579.315692 307.584 
L 579.315692 307.584 
L 570.616615 307.584 
z
" clip-path="url(#pe4bd86c772)" style="fill: #1f77b4"/>
   </g>
   <g id="patch_83">
    <path d="M 579.773538 307.584 
L 588.472615 307.584 
L 588.472615 307.584 
L 579.773538 307.584 
z
" clip-path="url(#pe4bd86c772)" style="fill: #1f77b4"/>
   </g>
   <g id="patch_84">
    <path d="M 588.930462 307.584 
L 597.629538 307.584 
L 597.629538 307.584 
L 588.930462 307.584 
z
" clip-path="url(#pe4bd86c772)" style="fill: #1f77b4"/>
   </g>
   <g id="patch_85">
    <path d="M 598.087385 307.584 
L 606.786462 307.584 
L 606.786462 307.584 
L 598.087385 307.584 
z
" clip-path="url(#pe4bd86c772)" style="fill: #1f77b4"/>
   </g>
   <g id="patch_86">
    <path d="M 607.244308 307.584 
L 615.943385 307.584 
L 615.943385 307.584 
L 607.244308 307.584 
z
" clip-path="url(#pe4bd86c772)" style="fill: #1f77b4"/>
   </g>
   <g id="patch_87">
    <path d="M 616.401231 307.584 
L 625.100308 307.584 
L 625.100308 307.584 
L 616.401231 307.584 
z
" clip-path="url(#pe4bd86c772)" style="fill: #1f77b4"/>
   </g>
   <g id="patch_88">
    <path d="M 625.558154 307.584 
L 634.257231 307.584 
L 634.257231 307.584 
L 625.558154 307.584 
z
" clip-path="url(#pe4bd86c772)" style="fill: #1f77b4"/>
   </g>
   <g id="patch_89">
    <path d="M 634.715077 307.584 
L 643.414154 307.584 
L 643.414154 307.584 
L 634.715077 307.584 
z
" clip-path="url(#pe4bd86c772)" style="fill: #1f77b4"/>
   </g>
   <g id="patch_90">
    <path d="M 643.872 307.584 
L 652.571077 307.584 
L 652.571077 307.584 
L 643.872 307.584 
z
" clip-path="url(#pe4bd86c772)" style="fill: #1f77b4"/>
   </g>
   <g id="patch_91">
    <path d="M 653.028923 307.584 
L 661.728 307.584 
L 661.728 307.584 
L 653.028923 307.584 
z
" clip-path="url(#pe4bd86c772)" style="fill: #1f77b4"/>
   </g>
   <g id="patch_92">
    <path d="M 662.185846 307.584 
L 670.884923 307.584 
L 670.884923 307.584 
L 662.185846 307.584 
z
" clip-path="url(#pe4bd86c772)" style="fill: #1f77b4"/>
   </g>
   <g id="patch_93">
    <path d="M 671.342769 307.584 
L 680.041846 307.584 
L 680.041846 307.584 
L 671.342769 307.584 
z
" clip-path="url(#pe4bd86c772)" style="fill: #1f77b4"/>
   </g>
   <g id="patch_94">
    <path d="M 680.499692 307.584 
L 689.198769 307.584 
L 689.198769 307.584 
L 680.499692 307.584 
z
" clip-path="url(#pe4bd86c772)" style="fill: #1f77b4"/>
   </g>
   <g id="patch_95">
    <path d="M 689.656615 307.584 
L 698.355692 307.584 
L 698.355692 307.584 
L 689.656615 307.584 
z
" clip-path="url(#pe4bd86c772)" style="fill: #1f77b4"/>
   </g>
   <g id="patch_96">
    <path d="M 698.813538 307.584 
L 707.512615 307.584 
L 707.512615 307.584 
L 698.813538 307.584 
z
" clip-path="url(#pe4bd86c772)" style="fill: #1f77b4"/>
   </g>
   <g id="patch_97">
    <path d="M 707.970462 307.584 
L 716.669538 307.584 
L 716.669538 307.584 
L 707.970462 307.584 
z
" clip-path="url(#pe4bd86c772)" style="fill: #1f77b4"/>
   </g>
   <g id="patch_98">
    <path d="M 717.127385 307.584 
L 725.826462 307.584 
L 725.826462 307.584 
L 717.127385 307.584 
z
" clip-path="url(#pe4bd86c772)" style="fill: #1f77b4"/>
   </g>
   <g id="patch_99">
    <path d="M 726.284308 307.584 
L 734.983385 307.584 
L 734.983385 307.584 
L 726.284308 307.584 
z
" clip-path="url(#pe4bd86c772)" style="fill: #1f77b4"/>
   </g>
   <g id="patch_100">
    <path d="M 735.441231 307.584 
L 744.140308 307.584 
L 744.140308 307.584 
L 735.441231 307.584 
z
" clip-path="url(#pe4bd86c772)" style="fill: #1f77b4"/>
   </g>
   <g id="patch_101">
    <path d="M 744.598154 307.584 
L 753.297231 307.584 
L 753.297231 307.584 
L 744.598154 307.584 
z
" clip-path="url(#pe4bd86c772)" style="fill: #1f77b4"/>
   </g>
   <g id="patch_102">
    <path d="M 753.755077 307.584 
L 762.454154 307.584 
L 762.454154 307.584 
L 753.755077 307.584 
z
" clip-path="url(#pe4bd86c772)" style="fill: #1f77b4"/>
   </g>
   <g id="matplotlib.axis_1">
    <g id="xtick_1">
     <g id="line2d_1">
      <defs>
       <path id="mdf72012cde" d="M 0 0 
L 0 3.5 
" style="stroke: #000000; stroke-width: 0.8"/>
      </defs>
      <g>
       <use xlink:href="#mdf72012cde" x="80.492308" y="307.584" style="stroke: #000000; stroke-width: 0.8"/>
      </g>
     </g>
     <g id="text_1">
      <!-- $\mathdefault{25}$ -->
      <g transform="translate(75.510972 321.502498) scale(0.1 -0.1)">
       <defs>
        <path id="CMR17-32" d="M 2669 989 
L 2554 989 
C 2490 536 2438 459 2413 420 
C 2381 369 1920 369 1830 369 
L 602 369 
C 832 619 1280 1072 1824 1597 
C 2214 1967 2669 2402 2669 3035 
C 2669 3790 2067 4224 1395 4224 
C 691 4224 262 3604 262 3030 
C 262 2780 448 2748 525 2748 
C 589 2748 781 2787 781 3010 
C 781 3207 614 3264 525 3264 
C 486 3264 448 3258 422 3245 
C 544 3790 915 4058 1306 4058 
C 1862 4058 2227 3617 2227 3035 
C 2227 2479 1901 2000 1536 1584 
L 262 146 
L 262 0 
L 2515 0 
L 2669 989 
z
" transform="scale(0.015625)"/>
        <path id="CMR17-35" d="M 730 3692 
C 794 3666 1056 3584 1325 3584 
C 1920 3584 2246 3911 2432 4100 
C 2432 4157 2432 4192 2394 4192 
C 2387 4192 2374 4192 2323 4163 
C 2099 4058 1837 3973 1517 3973 
C 1325 3973 1037 3999 723 4139 
C 653 4171 640 4171 634 4171 
C 602 4171 595 4164 595 4037 
L 595 2203 
C 595 2089 595 2057 659 2057 
C 691 2057 704 2070 736 2114 
C 941 2401 1222 2522 1542 2522 
C 1766 2522 2246 2382 2246 1289 
C 2246 1085 2246 715 2054 421 
C 1894 159 1645 25 1370 25 
C 947 25 518 320 403 814 
C 429 807 480 795 506 795 
C 589 795 749 840 749 1038 
C 749 1210 627 1280 506 1280 
C 358 1280 262 1190 262 1011 
C 262 454 704 -128 1382 -128 
C 2042 -128 2669 440 2669 1264 
C 2669 2030 2170 2624 1549 2624 
C 1222 2624 947 2503 730 2274 
L 730 3692 
z
" transform="scale(0.015625)"/>
       </defs>
       <use xlink:href="#CMR17-32" transform="scale(0.996264)"/>
       <use xlink:href="#CMR17-35" transform="translate(45.690477 0) scale(0.996264)"/>
      </g>
     </g>
    </g>
    <g id="xtick_2">
     <g id="line2d_2">
      <g>
       <use xlink:href="#mdf72012cde" x="126.276923" y="307.584" style="stroke: #000000; stroke-width: 0.8"/>
      </g>
     </g>
     <g id="text_2">
      <!-- $\mathdefault{30}$ -->
      <g transform="translate(121.295588 321.502498) scale(0.1 -0.1)">
       <defs>
        <path id="CMR17-33" d="M 1414 2157 
C 1984 2157 2234 1662 2234 1090 
C 2234 320 1824 25 1453 25 
C 1114 25 563 194 390 693 
C 422 680 454 680 486 680 
C 640 680 755 782 755 948 
C 755 1133 614 1216 486 1216 
C 378 1216 211 1165 211 926 
C 211 335 787 -128 1466 -128 
C 2176 -128 2720 430 2720 1085 
C 2720 1707 2208 2157 1600 2227 
C 2086 2328 2554 2756 2554 3329 
C 2554 3820 2048 4179 1472 4179 
C 890 4179 378 3829 378 3329 
C 378 3110 544 3072 627 3072 
C 762 3072 877 3155 877 3321 
C 877 3486 762 3569 627 3569 
C 602 3569 570 3569 544 3557 
C 730 3959 1235 4032 1459 4032 
C 1683 4032 2106 3925 2106 3320 
C 2106 3143 2080 2828 1862 2550 
C 1670 2304 1453 2304 1242 2284 
C 1210 2284 1062 2269 1037 2269 
C 992 2263 966 2257 966 2208 
C 966 2163 973 2157 1101 2157 
L 1414 2157 
z
" transform="scale(0.015625)"/>
        <path id="CMR17-30" d="M 2688 2025 
C 2688 2416 2682 3080 2413 3591 
C 2176 4039 1798 4198 1466 4198 
C 1158 4198 768 4058 525 3597 
C 269 3118 243 2524 243 2025 
C 243 1661 250 1106 448 619 
C 723 -39 1216 -128 1466 -128 
C 1760 -128 2208 -7 2470 600 
C 2662 1042 2688 1559 2688 2025 
z
M 1466 -26 
C 1056 -26 813 325 723 812 
C 653 1188 653 1738 653 2096 
C 653 2588 653 2997 736 3387 
C 858 3929 1216 4096 1466 4096 
C 1728 4096 2067 3923 2189 3400 
C 2272 3036 2278 2607 2278 2096 
C 2278 1680 2278 1169 2202 792 
C 2067 95 1690 -26 1466 -26 
z
" transform="scale(0.015625)"/>
       </defs>
       <use xlink:href="#CMR17-33" transform="scale(0.996264)"/>
       <use xlink:href="#CMR17-30" transform="translate(45.690477 0) scale(0.996264)"/>
      </g>
     </g>
    </g>
    <g id="xtick_3">
     <g id="line2d_3">
      <g>
       <use xlink:href="#mdf72012cde" x="172.061538" y="307.584" style="stroke: #000000; stroke-width: 0.8"/>
      </g>
     </g>
     <g id="text_3">
      <!-- $\mathdefault{35}$ -->
      <g transform="translate(167.080203 321.502498) scale(0.1 -0.1)">
       <use xlink:href="#CMR17-33" transform="scale(0.996264)"/>
       <use xlink:href="#CMR17-35" transform="translate(45.690477 0) scale(0.996264)"/>
      </g>
     </g>
    </g>
    <g id="xtick_4">
     <g id="line2d_4">
      <g>
       <use xlink:href="#mdf72012cde" x="217.846154" y="307.584" style="stroke: #000000; stroke-width: 0.8"/>
      </g>
     </g>
     <g id="text_4">
      <!-- $\mathdefault{40}$ -->
      <g transform="translate(212.864819 321.502498) scale(0.1 -0.1)">
       <defs>
        <path id="CMR17-34" d="M 2150 4122 
C 2150 4256 2144 4256 2029 4256 
L 128 1254 
L 128 1088 
L 1779 1088 
L 1779 457 
C 1779 224 1766 160 1318 160 
L 1197 160 
L 1197 0 
C 1402 0 1747 0 1965 0 
C 2182 0 2528 0 2733 0 
L 2733 160 
L 2611 160 
C 2163 160 2150 224 2150 457 
L 2150 1088 
L 2803 1088 
L 2803 1254 
L 2150 1254 
L 2150 4122 
z
M 1798 3703 
L 1798 1254 
L 256 1254 
L 1798 3703 
z
" transform="scale(0.015625)"/>
       </defs>
       <use xlink:href="#CMR17-34" transform="scale(0.996264)"/>
       <use xlink:href="#CMR17-30" transform="translate(45.690477 0) scale(0.996264)"/>
      </g>
     </g>
    </g>
    <g id="xtick_5">
     <g id="line2d_5">
      <g>
       <use xlink:href="#mdf72012cde" x="263.630769" y="307.584" style="stroke: #000000; stroke-width: 0.8"/>
      </g>
     </g>
     <g id="text_5">
      <!-- $\mathdefault{45}$ -->
      <g transform="translate(258.649434 321.502498) scale(0.1 -0.1)">
       <use xlink:href="#CMR17-34" transform="scale(0.996264)"/>
       <use xlink:href="#CMR17-35" transform="translate(45.690477 0) scale(0.996264)"/>
      </g>
     </g>
    </g>
    <g id="xtick_6">
     <g id="line2d_6">
      <g>
       <use xlink:href="#mdf72012cde" x="309.415385" y="307.584" style="stroke: #000000; stroke-width: 0.8"/>
      </g>
     </g>
     <g id="text_6">
      <!-- $\mathdefault{50}$ -->
      <g transform="translate(304.434049 321.502498) scale(0.1 -0.1)">
       <use xlink:href="#CMR17-35" transform="scale(0.996264)"/>
       <use xlink:href="#CMR17-30" transform="translate(45.690477 0) scale(0.996264)"/>
      </g>
     </g>
    </g>
    <g id="xtick_7">
     <g id="line2d_7">
      <g>
       <use xlink:href="#mdf72012cde" x="355.2" y="307.584" style="stroke: #000000; stroke-width: 0.8"/>
      </g>
     </g>
     <g id="text_7">
      <!-- $\mathdefault{55}$ -->
      <g transform="translate(350.218665 321.502498) scale(0.1 -0.1)">
       <use xlink:href="#CMR17-35" transform="scale(0.996264)"/>
       <use xlink:href="#CMR17-35" transform="translate(45.690477 0) scale(0.996264)"/>
      </g>
     </g>
    </g>
    <g id="xtick_8">
     <g id="line2d_8">
      <g>
       <use xlink:href="#mdf72012cde" x="400.984615" y="307.584" style="stroke: #000000; stroke-width: 0.8"/>
      </g>
     </g>
     <g id="text_8">
      <!-- $\mathdefault{60}$ -->
      <g transform="translate(396.00328 321.502498) scale(0.1 -0.1)">
       <defs>
        <path id="CMR17-36" d="M 678 2176 
C 678 3690 1395 4032 1811 4032 
C 1946 4032 2272 4009 2400 3776 
C 2298 3776 2106 3776 2106 3553 
C 2106 3381 2246 3323 2336 3323 
C 2394 3323 2566 3348 2566 3560 
C 2566 3954 2246 4179 1805 4179 
C 1043 4179 243 3390 243 1984 
C 243 253 966 -128 1478 -128 
C 2099 -128 2688 427 2688 1283 
C 2688 2081 2170 2662 1517 2662 
C 1126 2662 838 2407 678 1960 
L 678 2176 
z
M 1478 25 
C 691 25 691 1200 691 1436 
C 691 1896 909 2560 1504 2560 
C 1613 2560 1926 2560 2138 2120 
C 2253 1870 2253 1609 2253 1289 
C 2253 944 2253 690 2118 434 
C 1978 171 1773 25 1478 25 
z
" transform="scale(0.015625)"/>
       </defs>
       <use xlink:href="#CMR17-36" transform="scale(0.996264)"/>
       <use xlink:href="#CMR17-30" transform="translate(45.690477 0) scale(0.996264)"/>
      </g>
     </g>
    </g>
    <g id="text_9">
     <!-- $k$ -->
     <g transform="translate(233.566705 334.358175) scale(0.1 -0.1)">
      <defs>
       <path id="CMMI12-6b" d="M 1798 4257 
C 1805 4283 1818 4321 1818 4352 
C 1818 4416 1754 4416 1741 4416 
C 1734 4416 1504 4393 1389 4377 
C 1280 4377 1184 4358 1069 4358 
C 915 4345 870 4339 870 4224 
C 870 4160 934 4160 998 4160 
C 1325 4160 1325 4103 1325 4040 
C 1325 4015 1325 4002 1293 3888 
L 378 248 
C 352 152 352 140 352 101 
C 352 -38 461 -64 525 -64 
C 704 -64 742 77 794 275 
L 1094 1469 
C 1555 1418 1830 1226 1830 920 
C 1830 881 1830 856 1811 760 
C 1786 664 1786 588 1786 556 
C 1786 185 2029 -64 2355 -64 
C 2650 -64 2803 204 2854 294 
C 2989 530 3072 888 3072 913 
C 3072 945 3046 971 3008 971 
C 2950 971 2944 945 2918 843 
C 2829 511 2694 64 2368 64 
C 2240 64 2157 128 2157 370 
C 2157 492 2182 632 2208 728 
C 2234 843 2234 849 2234 926 
C 2234 1303 1894 1514 1306 1590 
C 1536 1731 1766 1980 1856 2076 
C 2221 2484 2470 2689 2765 2689 
C 2912 2689 2950 2650 2995 2612 
C 2758 2586 2669 2420 2669 2293 
C 2669 2139 2790 2088 2880 2088 
C 3053 2088 3206 2235 3206 2440 
C 3206 2625 3059 2816 2771 2816 
C 2419 2816 2131 2567 1677 2056 
C 1613 1980 1376 1737 1139 1648 
L 1798 4257 
z
" transform="scale(0.015625)"/>
      </defs>
      <use xlink:href="#CMMI12-6b" transform="scale(0.996264)"/>
     </g>
    </g>
   </g>
   <g id="matplotlib.axis_2">
    <g id="ytick_1">
     <g id="line2d_9">
      <path d="M 57.6 307.584 
L 414.72 307.584 
" clip-path="url(#pe4bd86c772)" style="fill: none; stroke-dasharray: 0.8,1.32; stroke-dashoffset: 0; stroke: #808080; stroke-width: 0.8"/>
     </g>
     <g id="line2d_10">
      <defs>
       <path id="m11aecb00da" d="M 0 0 
L -3.5 0 
" style="stroke: #000000; stroke-width: 0.8"/>
      </defs>
      <g>
       <use xlink:href="#m11aecb00da" x="57.6" y="307.584" style="stroke: #000000; stroke-width: 0.8"/>
      </g>
     </g>
     <g id="text_10">
      <!-- $\mathdefault{0.00}$ -->
      <g transform="translate(32.888586 311.043249) scale(0.1 -0.1)">
       <defs>
        <path id="CMMI12-3a" d="M 1178 307 
C 1178 492 1024 619 870 619 
C 685 619 557 466 557 313 
C 557 128 710 0 864 0 
C 1050 0 1178 153 1178 307 
z
" transform="scale(0.015625)"/>
       </defs>
       <use xlink:href="#CMR17-30" transform="scale(0.996264)"/>
       <use xlink:href="#CMMI12-3a" transform="translate(45.690477 0) scale(0.996264)"/>
       <use xlink:href="#CMR17-30" transform="translate(72.787654 0) scale(0.996264)"/>
       <use xlink:href="#CMR17-30" transform="translate(118.478131 0) scale(0.996264)"/>
      </g>
     </g>
    </g>
    <g id="ytick_2">
     <g id="line2d_11">
      <path d="M 57.6 276.487067 
L 414.72 276.487067 
" clip-path="url(#pe4bd86c772)" style="fill: none; stroke-dasharray: 0.8,1.32; stroke-dashoffset: 0; stroke: #808080; stroke-width: 0.8"/>
     </g>
     <g id="line2d_12">
      <g>
       <use xlink:href="#m11aecb00da" x="57.6" y="276.487067" style="stroke: #000000; stroke-width: 0.8"/>
      </g>
     </g>
     <g id="text_11">
      <!-- $\mathdefault{0.01}$ -->
      <g transform="translate(32.888586 279.946317) scale(0.1 -0.1)">
       <defs>
        <path id="CMR17-31" d="M 1702 4058 
C 1702 4192 1696 4192 1606 4192 
C 1357 3916 979 3827 621 3827 
C 602 3827 570 3827 563 3808 
C 557 3795 557 3782 557 3648 
C 755 3648 1088 3686 1344 3839 
L 1344 461 
C 1344 236 1331 160 781 160 
L 589 160 
L 589 0 
C 896 0 1216 0 1523 0 
C 1830 0 2150 0 2458 0 
L 2458 160 
L 2266 160 
C 1715 160 1702 230 1702 458 
L 1702 4058 
z
" transform="scale(0.015625)"/>
       </defs>
       <use xlink:href="#CMR17-30" transform="scale(0.996264)"/>
       <use xlink:href="#CMMI12-3a" transform="translate(45.690477 0) scale(0.996264)"/>
       <use xlink:href="#CMR17-30" transform="translate(72.787654 0) scale(0.996264)"/>
       <use xlink:href="#CMR17-31" transform="translate(118.478131 0) scale(0.996264)"/>
      </g>
     </g>
    </g>
    <g id="ytick_3">
     <g id="line2d_13">
      <path d="M 57.6 245.390135 
L 414.72 245.390135 
" clip-path="url(#pe4bd86c772)" style="fill: none; stroke-dasharray: 0.8,1.32; stroke-dashoffset: 0; stroke: #808080; stroke-width: 0.8"/>
     </g>
     <g id="line2d_14">
      <g>
       <use xlink:href="#m11aecb00da" x="57.6" y="245.390135" style="stroke: #000000; stroke-width: 0.8"/>
      </g>
     </g>
     <g id="text_12">
      <!-- $\mathdefault{0.02}$ -->
      <g transform="translate(32.888586 248.849384) scale(0.1 -0.1)">
       <use xlink:href="#CMR17-30" transform="scale(0.996264)"/>
       <use xlink:href="#CMMI12-3a" transform="translate(45.690477 0) scale(0.996264)"/>
       <use xlink:href="#CMR17-30" transform="translate(72.787654 0) scale(0.996264)"/>
       <use xlink:href="#CMR17-32" transform="translate(118.478131 0) scale(0.996264)"/>
      </g>
     </g>
    </g>
    <g id="ytick_4">
     <g id="line2d_15">
      <path d="M 57.6 214.293202 
L 414.72 214.293202 
" clip-path="url(#pe4bd86c772)" style="fill: none; stroke-dasharray: 0.8,1.32; stroke-dashoffset: 0; stroke: #808080; stroke-width: 0.8"/>
     </g>
     <g id="line2d_16">
      <g>
       <use xlink:href="#m11aecb00da" x="57.6" y="214.293202" style="stroke: #000000; stroke-width: 0.8"/>
      </g>
     </g>
     <g id="text_13">
      <!-- $\mathdefault{0.03}$ -->
      <g transform="translate(32.888586 217.752452) scale(0.1 -0.1)">
       <use xlink:href="#CMR17-30" transform="scale(0.996264)"/>
       <use xlink:href="#CMMI12-3a" transform="translate(45.690477 0) scale(0.996264)"/>
       <use xlink:href="#CMR17-30" transform="translate(72.787654 0) scale(0.996264)"/>
       <use xlink:href="#CMR17-33" transform="translate(118.478131 0) scale(0.996264)"/>
      </g>
     </g>
    </g>
    <g id="ytick_5">
     <g id="line2d_17">
      <path d="M 57.6 183.19627 
L 414.72 183.19627 
" clip-path="url(#pe4bd86c772)" style="fill: none; stroke-dasharray: 0.8,1.32; stroke-dashoffset: 0; stroke: #808080; stroke-width: 0.8"/>
     </g>
     <g id="line2d_18">
      <g>
       <use xlink:href="#m11aecb00da" x="57.6" y="183.19627" style="stroke: #000000; stroke-width: 0.8"/>
      </g>
     </g>
     <g id="text_14">
      <!-- $\mathdefault{0.04}$ -->
      <g transform="translate(32.888586 186.655519) scale(0.1 -0.1)">
       <use xlink:href="#CMR17-30" transform="scale(0.996264)"/>
       <use xlink:href="#CMMI12-3a" transform="translate(45.690477 0) scale(0.996264)"/>
       <use xlink:href="#CMR17-30" transform="translate(72.787654 0) scale(0.996264)"/>
       <use xlink:href="#CMR17-34" transform="translate(118.478131 0) scale(0.996264)"/>
      </g>
     </g>
    </g>
    <g id="ytick_6">
     <g id="line2d_19">
      <path d="M 57.6 152.099337 
L 414.72 152.099337 
" clip-path="url(#pe4bd86c772)" style="fill: none; stroke-dasharray: 0.8,1.32; stroke-dashoffset: 0; stroke: #808080; stroke-width: 0.8"/>
     </g>
     <g id="line2d_20">
      <g>
       <use xlink:href="#m11aecb00da" x="57.6" y="152.099337" style="stroke: #000000; stroke-width: 0.8"/>
      </g>
     </g>
     <g id="text_15">
      <!-- $\mathdefault{0.05}$ -->
      <g transform="translate(32.888586 155.558587) scale(0.1 -0.1)">
       <use xlink:href="#CMR17-30" transform="scale(0.996264)"/>
       <use xlink:href="#CMMI12-3a" transform="translate(45.690477 0) scale(0.996264)"/>
       <use xlink:href="#CMR17-30" transform="translate(72.787654 0) scale(0.996264)"/>
       <use xlink:href="#CMR17-35" transform="translate(118.478131 0) scale(0.996264)"/>
      </g>
     </g>
    </g>
    <g id="ytick_7">
     <g id="line2d_21">
      <path d="M 57.6 121.002405 
L 414.72 121.002405 
" clip-path="url(#pe4bd86c772)" style="fill: none; stroke-dasharray: 0.8,1.32; stroke-dashoffset: 0; stroke: #808080; stroke-width: 0.8"/>
     </g>
     <g id="line2d_22">
      <g>
       <use xlink:href="#m11aecb00da" x="57.6" y="121.002405" style="stroke: #000000; stroke-width: 0.8"/>
      </g>
     </g>
     <g id="text_16">
      <!-- $\mathdefault{0.06}$ -->
      <g transform="translate(32.888586 124.461654) scale(0.1 -0.1)">
       <use xlink:href="#CMR17-30" transform="scale(0.996264)"/>
       <use xlink:href="#CMMI12-3a" transform="translate(45.690477 0) scale(0.996264)"/>
       <use xlink:href="#CMR17-30" transform="translate(72.787654 0) scale(0.996264)"/>
       <use xlink:href="#CMR17-36" transform="translate(118.478131 0) scale(0.996264)"/>
      </g>
     </g>
    </g>
    <g id="ytick_8">
     <g id="line2d_23">
      <path d="M 57.6 89.905472 
L 414.72 89.905472 
" clip-path="url(#pe4bd86c772)" style="fill: none; stroke-dasharray: 0.8,1.32; stroke-dashoffset: 0; stroke: #808080; stroke-width: 0.8"/>
     </g>
     <g id="line2d_24">
      <g>
       <use xlink:href="#m11aecb00da" x="57.6" y="89.905472" style="stroke: #000000; stroke-width: 0.8"/>
      </g>
     </g>
     <g id="text_17">
      <!-- $\mathdefault{0.07}$ -->
      <g transform="translate(32.888586 93.364722) scale(0.1 -0.1)">
       <defs>
        <path id="CMR17-37" d="M 2886 3941 
L 2886 4081 
L 1382 4081 
C 634 4081 621 4165 595 4288 
L 480 4288 
L 294 3094 
L 410 3094 
C 429 3215 474 3540 550 3661 
C 589 3712 1062 3712 1171 3712 
L 2579 3712 
L 1869 2661 
C 1395 1954 1069 999 1069 165 
C 1069 89 1069 -128 1299 -128 
C 1530 -128 1530 89 1530 171 
L 1530 465 
C 1530 1508 1709 2196 2003 2636 
L 2886 3941 
z
" transform="scale(0.015625)"/>
       </defs>
       <use xlink:href="#CMR17-30" transform="scale(0.996264)"/>
       <use xlink:href="#CMMI12-3a" transform="translate(45.690477 0) scale(0.996264)"/>
       <use xlink:href="#CMR17-30" transform="translate(72.787654 0) scale(0.996264)"/>
       <use xlink:href="#CMR17-37" transform="translate(118.478131 0) scale(0.996264)"/>
      </g>
     </g>
    </g>
    <g id="ytick_9">
     <g id="line2d_25">
      <path d="M 57.6 58.80854 
L 414.72 58.80854 
" clip-path="url(#pe4bd86c772)" style="fill: none; stroke-dasharray: 0.8,1.32; stroke-dashoffset: 0; stroke: #808080; stroke-width: 0.8"/>
     </g>
     <g id="line2d_26">
      <g>
       <use xlink:href="#m11aecb00da" x="57.6" y="58.80854" style="stroke: #000000; stroke-width: 0.8"/>
      </g>
     </g>
     <g id="text_18">
      <!-- $\mathdefault{0.08}$ -->
      <g transform="translate(32.888586 62.267789) scale(0.1 -0.1)">
       <defs>
        <path id="CMR17-38" d="M 1741 2264 
C 2144 2467 2554 2773 2554 3263 
C 2554 3841 1990 4179 1472 4179 
C 890 4179 378 3759 378 3180 
C 378 3021 416 2747 666 2505 
C 730 2442 998 2251 1171 2130 
C 883 1983 211 1634 211 934 
C 211 279 838 -128 1459 -128 
C 2144 -128 2720 362 2720 1010 
C 2720 1590 2330 1857 2074 2029 
L 1741 2264 
z
M 902 2822 
C 851 2854 595 3051 595 3351 
C 595 3739 998 4032 1459 4032 
C 1965 4032 2336 3676 2336 3262 
C 2336 2669 1670 2331 1638 2331 
C 1632 2331 1626 2331 1574 2370 
L 902 2822 
z
M 2080 1519 
C 2176 1449 2483 1240 2483 851 
C 2483 381 2010 25 1472 25 
C 890 25 448 438 448 940 
C 448 1443 838 1862 1280 2060 
L 2080 1519 
z
" transform="scale(0.015625)"/>
       </defs>
       <use xlink:href="#CMR17-30" transform="scale(0.996264)"/>
       <use xlink:href="#CMMI12-3a" transform="translate(45.690477 0) scale(0.996264)"/>
       <use xlink:href="#CMR17-30" transform="translate(72.787654 0) scale(0.996264)"/>
       <use xlink:href="#CMR17-38" transform="translate(118.478131 0) scale(0.996264)"/>
      </g>
     </g>
    </g>
    <g id="text_19">
     <!-- P(k) -->
     <g transform="translate(26.397926 184.421487) rotate(-90) scale(0.1 -0.1)">
      <defs>
       <path id="CMR17-50" d="M 1267 2042 
L 2291 2042 
C 3117 2042 3718 2578 3718 3184 
C 3718 3791 3130 4352 2291 4352 
L 333 4352 
L 333 4186 
C 774 4186 845 4186 845 3899 
L 845 446 
C 845 160 774 160 333 160 
L 333 0 
C 518 0 858 0 1056 0 
C 1254 0 1594 0 1779 0 
L 1779 160 
C 1338 160 1267 160 1267 446 
L 1267 2042 
z
M 1254 2176 
L 1254 3938 
C 1254 4155 1267 4186 1523 4186 
L 2170 4186 
C 2995 4186 3232 3714 3232 3184 
C 3232 2604 2950 2176 2170 2176 
L 1254 2176 
z
" transform="scale(0.015625)"/>
       <path id="CMR17-28" d="M 1958 -1561 
C 1958 -1555 1958 -1542 1939 -1523 
C 1645 -1224 858 -407 858 1581 
C 858 3569 1632 4379 1946 4697 
C 1946 4704 1958 4717 1958 4736 
C 1958 4755 1939 4768 1914 4768 
C 1843 4768 1299 4296 986 3594 
C 666 2887 576 2199 576 1588 
C 576 1128 621 351 1005 -471 
C 1312 -1135 1837 -1600 1914 -1600 
C 1946 -1600 1958 -1587 1958 -1561 
z
" transform="scale(0.015625)"/>
       <path id="CMR17-6b" d="M 1670 1673 
C 1664 1686 1632 1724 1632 1743 
C 1632 1756 2086 2171 2144 2222 
C 2509 2528 2739 2560 2906 2560 
L 2906 2733 
C 2867 2733 2854 2733 2848 2720 
L 2534 2720 
C 2355 2720 2080 2720 1907 2733 
L 1907 2566 
C 1997 2559 2061 2508 2061 2419 
C 2061 2291 1933 2170 1926 2170 
L 960 1289 
L 960 4396 
L 198 4326 
L 198 4160 
C 576 4160 634 4122 634 3817 
L 634 426 
C 634 184 608 153 198 153 
L 198 -13 
C 352 0 634 0 794 0 
C 954 0 1235 0 1389 -13 
L 1389 153 
C 979 153 954 178 954 428 
L 954 1130 
L 1395 1532 
L 2042 574 
C 2118 459 2182 369 2182 286 
C 2182 172 2067 153 1990 153 
L 1990 -13 
C 2144 0 2419 0 2579 0 
C 2694 0 2931 0 3040 0 
L 3040 153 
C 2739 153 2669 210 2477 491 
L 1670 1673 
z
" transform="scale(0.015625)"/>
       <path id="CMR17-29" d="M 1683 1581 
C 1683 2040 1638 2817 1254 3639 
C 947 4303 422 4768 346 4768 
C 326 4768 301 4761 301 4729 
C 301 4717 307 4710 314 4697 
C 621 4378 1402 3568 1402 1584 
C 1402 -407 627 -1217 314 -1537 
C 307 -1549 301 -1556 301 -1568 
C 301 -1600 326 -1600 346 -1600 
C 416 -1600 960 -1128 1274 -426 
C 1594 281 1683 969 1683 1581 
z
" transform="scale(0.015625)"/>
      </defs>
      <use xlink:href="#CMR17-50" transform="scale(0.996264)"/>
      <use xlink:href="#CMR17-28" transform="translate(62.586301 0) scale(0.996264)"/>
      <use xlink:href="#CMR17-6b" transform="translate(97.867068 0) scale(0.996264)"/>
      <use xlink:href="#CMR17-29" transform="translate(146.159984 0) scale(0.996264)"/>
     </g>
    </g>
   </g>
   <g id="line2d_27">
    <path d="M -1 307.584 
L 48.443077 307.584 
L 48.443077 306.962061 
L 57.6 306.962061 
L 57.6 307.584 
L 66.756923 307.584 
L 66.756923 305.407215 
L 85.070769 305.407215 
L 85.070769 303.230429 
L 94.227692 303.230429 
L 94.227692 302.297521 
L 103.384615 302.297521 
L 103.384615 297.011043 
L 112.541538 297.011043 
L 112.541538 286.438086 
L 121.698462 286.438086 
L 121.698462 277.109006 
L 130.855385 277.109006 
L 130.855385 256.585031 
L 140.012308 256.585031 
L 140.012308 242.90238 
L 149.169231 242.90238 
L 149.169231 220.823558 
L 158.326154 220.823558 
L 158.326154 190.348564 
L 167.483077 190.348564 
L 167.483077 148.989644 
L 176.64 148.989644 
L 176.64 121.002405 
L 185.796923 121.002405 
L 185.796923 77.466699 
L 194.953846 77.466699 
L 194.953846 80.265423 
L 204.110769 80.265423 
L 204.110769 67.204712 
L 213.267692 67.204712 
L 213.267692 54.144 
L 222.424615 54.144 
L 222.424615 63.784049 
L 231.581538 63.784049 
L 231.581538 75.289914 
L 240.738462 75.289914 
L 240.738462 109.185571 
L 249.895385 109.185571 
L 249.895385 116.648834 
L 259.052308 116.648834 
L 259.052308 148.989644 
L 268.209231 148.989644 
L 268.209231 188.171779 
L 277.366154 188.171779 
L 277.366154 223.311313 
L 286.523077 223.311313 
L 286.523077 241.969472 
L 295.68 241.969472 
L 295.68 264.359264 
L 304.836923 264.359264 
L 304.836923 276.798037 
L 313.993846 276.798037 
L 313.993846 289.547779 
L 323.150769 289.547779 
L 323.150769 294.834258 
L 332.307692 294.834258 
L 332.307692 298.56589 
L 341.464615 298.56589 
L 341.464615 305.096245 
L 350.621538 305.096245 
L 350.621538 303.852368 
L 359.778462 303.852368 
L 359.778462 306.029153 
L 368.935385 306.029153 
L 368.935385 306.651092 
L 378.092308 306.651092 
L 378.092308 307.273031 
L 396.406154 307.273031 
L 396.406154 307.584 
L 423.876923 307.584 
L 423.876923 307.273031 
L 433.033846 307.273031 
L 433.033846 307.584 
L 461.8 307.584 
L 461.8 307.584 
" clip-path="url(#pe4bd86c772)" style="fill: none; stroke: #000000; stroke-width: 1.5; stroke-linecap: square"/>
   </g>
   <g id="line2d_28">
    <path d="M -1 307.584 
L 66.756923 307.584 
L 66.756923 305.718184 
L 75.913846 305.718184 
L 75.913846 306.029153 
L 85.070769 306.029153 
L 85.070769 305.407215 
L 94.227692 305.407215 
L 94.227692 301.053644 
L 103.384615 301.053644 
L 103.384615 297.943951 
L 112.541538 297.943951 
L 112.541538 290.480687 
L 121.698462 290.480687 
L 121.698462 286.438086 
L 130.855385 286.438086 
L 130.855385 268.401865 
L 140.012308 268.401865 
L 140.012308 249.743706 
L 149.169231 249.743706 
L 149.169231 231.396515 
L 158.326154 231.396515 
L 158.326154 205.586061 
L 167.483077 205.586061 
L 167.483077 178.842699 
L 176.64 178.842699 
L 176.64 138.416687 
L 185.796923 138.416687 
L 185.796923 110.740417 
L 194.953846 110.740417 
L 194.953846 100.789399 
L 204.110769 100.789399 
L 204.110769 73.113129 
L 213.267692 73.113129 
L 213.267692 71.869252 
L 222.424615 71.869252 
L 222.424615 71.247313 
L 231.581538 71.247313 
L 231.581538 76.533791 
L 240.738462 76.533791 
L 240.738462 80.576393 
L 249.895385 80.576393 
L 249.895385 111.984294 
L 259.052308 111.984294 
L 259.052308 130.953423 
L 268.209231 130.953423 
L 268.209231 174.489129 
L 277.366154 174.489129 
L 277.366154 195.635043 
L 286.523077 195.635043 
L 286.523077 216.159018 
L 295.68 216.159018 
L 295.68 244.768196 
L 304.836923 244.768196 
L 304.836923 261.249571 
L 313.993846 261.249571 
L 313.993846 275.24319 
L 323.150769 275.24319 
L 323.150769 281.462577 
L 332.307692 281.462577 
L 332.307692 295.145227 
L 341.464615 295.145227 
L 341.464615 297.943951 
L 350.621538 297.943951 
L 350.621538 303.230429 
L 359.778462 303.230429 
L 359.778462 305.718184 
L 368.935385 305.718184 
L 368.935385 305.096245 
L 378.092308 305.096245 
L 378.092308 307.584 
L 387.249231 307.584 
L 387.249231 306.962061 
L 396.406154 306.962061 
L 396.406154 307.273031 
L 414.72 307.273031 
L 414.72 307.584 
L 461.8 307.584 
L 461.8 307.584 
" clip-path="url(#pe4bd86c772)" style="fill: none; stroke: #ff0000; stroke-width: 1.5; stroke-linecap: square"/>
   </g>
   <g id="line2d_29">
    <path d="M 57.6 307.154827 
L 66.756923 306.712519 
L 75.913846 305.886587 
L 85.070769 304.412814 
L 94.227692 301.901229 
L 103.384615 297.81606 
L 112.541538 291.47939 
L 121.698462 282.115589 
L 130.855385 268.951048 
L 140.012308 251.373387 
L 149.169231 229.13577 
L 158.326154 202.568749 
L 167.483077 172.741749 
L 176.64 141.509095 
L 185.796923 111.389682 
L 194.953846 85.266712 
L 204.110769 65.94644 
L 213.267692 55.665509 
L 222.424615 55.665509 
L 231.581538 65.94644 
L 240.738462 85.266712 
L 249.895385 111.389682 
L 259.052308 141.509095 
L 268.209231 172.741749 
L 277.366154 202.568749 
L 286.523077 229.13577 
L 295.68 251.373387 
L 304.836923 268.951048 
L 313.993846 282.115589 
L 323.150769 291.47939 
L 332.307692 297.81606 
L 341.464615 301.901229 
L 350.621538 304.412814 
L 359.778462 305.886587 
L 368.935385 306.712519 
L 378.092308 307.154827 
L 387.249231 307.381273 
L 396.406154 307.492147 
L 405.563077 307.544081 
L 414.72 307.567359 
" clip-path="url(#pe4bd86c772)" style="fill: none; stroke-dasharray: 5.55,2.4; stroke-dashoffset: 0; stroke: #000000; stroke-width: 1.5"/>
   </g>
   <g id="patch_103">
    <path d="M 57.6 307.584 
L 57.6 41.472 
" style="fill: none; stroke: #000000; stroke-width: 0.8; stroke-linejoin: miter; stroke-linecap: square"/>
   </g>
   <g id="patch_104">
    <path d="M 414.72 307.584 
L 414.72 41.472 
" style="fill: none; stroke: #000000; stroke-width: 0.8; stroke-linejoin: miter; stroke-linecap: square"/>
   </g>
   <g id="patch_105">
    <path d="M 57.6 307.584 
L 414.72 307.584 
" style="fill: none; stroke: #000000; stroke-width: 0.8; stroke-linejoin: miter; stroke-linecap: square"/>
   </g>
   <g id="patch_106">
    <path d="M 57.6 41.472 
L 414.72 41.472 
" style="fill: none; stroke: #000000; stroke-width: 0.8; stroke-linejoin: miter; stroke-linecap: square"/>
   </g>
   <g id="text_20">
    <!-- num. trials/experiment = 100; num. experiments = 10000 -->
    <g transform="translate(86.193383 35.472) scale(0.12 -0.12)">
     <defs>
      <path id="CMR17-6e" d="M 2656 1933 
C 2656 2259 2592 2790 1837 2790 
C 1331 2790 1069 2400 973 2144 
L 966 2144 
L 966 2790 
L 211 2720 
L 211 2554 
C 589 2554 646 2515 646 2208 
L 646 428 
C 646 184 621 153 211 153 
L 211 -13 
C 365 0 646 0 813 0 
C 979 0 1267 0 1421 -13 
L 1421 153 
C 1011 153 986 178 986 428 
L 986 1658 
C 986 2247 1344 2688 1792 2688 
C 2266 2688 2317 2266 2317 1958 
L 2317 428 
C 2317 184 2291 153 1882 153 
L 1882 -13 
C 2035 0 2317 0 2483 0 
C 2650 0 2938 0 3091 -13 
L 3091 153 
C 2682 153 2656 178 2656 428 
L 2656 1933 
z
" transform="scale(0.015625)"/>
      <path id="CMR17-75" d="M 1882 2693 
L 1882 2528 
C 2259 2528 2317 2489 2317 2186 
L 2317 1032 
C 2317 500 2029 38 1555 38 
C 1030 38 986 348 986 678 
L 986 2763 
L 211 2693 
L 211 2528 
C 467 2528 640 2528 646 2274 
L 646 1058 
C 646 633 646 361 813 183 
C 896 101 1056 -64 1517 -64 
C 2061 -64 2272 377 2323 506 
L 2330 506 
L 2330 -63 
L 3091 -63 
L 3091 128 
C 2714 128 2656 166 2656 473 
L 2656 2763 
L 1882 2693 
z
" transform="scale(0.015625)"/>
      <path id="CMR17-6d" d="M 4326 1933 
C 4326 2252 4269 2790 3507 2790 
C 3072 2790 2771 2496 2656 2151 
L 2650 2151 
C 2573 2676 2195 2790 1837 2790 
C 1331 2790 1069 2400 973 2144 
L 966 2144 
L 966 2790 
L 211 2720 
L 211 2554 
C 589 2554 646 2515 646 2208 
L 646 428 
C 646 184 621 153 211 153 
L 211 -13 
C 365 0 646 0 813 0 
C 979 0 1267 0 1421 -13 
L 1421 153 
C 1011 153 986 178 986 428 
L 986 1658 
C 986 2247 1344 2688 1792 2688 
C 2266 2688 2317 2266 2317 1958 
L 2317 428 
C 2317 184 2291 153 1882 153 
L 1882 -13 
C 2035 0 2317 0 2483 0 
C 2650 0 2938 0 3091 -13 
L 3091 153 
C 2682 153 2656 178 2656 428 
L 2656 1658 
C 2656 2247 3014 2688 3462 2688 
C 3936 2688 3987 2266 3987 1958 
L 3987 428 
C 3987 184 3962 153 3552 153 
L 3552 -13 
C 3706 0 3987 0 4154 0 
C 4320 0 4608 0 4762 -13 
L 4762 153 
C 4352 153 4326 178 4326 428 
L 4326 1933 
z
" transform="scale(0.015625)"/>
      <path id="CMR17-2e" d="M 1062 261 
C 1062 420 934 522 800 522 
C 672 522 538 420 538 261 
C 538 102 666 0 800 0 
C 928 0 1062 102 1062 261 
z
" transform="scale(0.015625)"/>
      <path id="CMR17-74" d="M 966 2560 
L 1862 2560 
L 1862 2725 
L 966 2725 
L 966 3904 
L 851 3904 
C 838 3245 614 2668 70 2668 
L 70 2560 
L 627 2560 
L 627 771 
C 627 650 627 -64 1370 -64 
C 1747 -64 1965 306 1965 777 
L 1965 1140 
L 1850 1140 
L 1850 783 
C 1850 344 1677 51 1408 51 
C 1222 51 966 178 966 758 
L 966 2560 
z
" transform="scale(0.015625)"/>
      <path id="CMR17-72" d="M 960 1497 
C 960 2112 1222 2688 1702 2688 
C 1747 2688 1792 2682 1837 2662 
C 1837 2662 1696 2617 1696 2452 
C 1696 2298 1818 2234 1914 2234 
C 1990 2234 2131 2279 2131 2458 
C 2131 2663 1926 2790 1709 2790 
C 1222 2790 1011 2317 947 2093 
L 941 2093 
L 941 2790 
L 198 2720 
L 198 2554 
C 576 2554 634 2515 634 2208 
L 634 428 
C 634 184 608 153 198 153 
L 198 -13 
C 352 0 646 0 813 0 
C 998 0 1325 0 1498 -13 
L 1498 153 
C 1037 153 960 153 960 440 
L 960 1497 
z
" transform="scale(0.015625)"/>
      <path id="CMR17-69" d="M 992 3909 
C 992 4049 877 4170 730 4170 
C 589 4170 467 4056 467 3909 
C 467 3769 582 3648 730 3648 
C 870 3648 992 3763 992 3909 
z
M 243 2706 
L 243 2541 
C 602 2541 653 2502 653 2197 
L 653 427 
C 653 184 627 153 218 153 
L 218 -13 
C 371 0 646 0 806 0 
C 960 0 1222 0 1370 -13 
L 1370 153 
C 992 153 979 191 979 420 
L 979 2776 
L 243 2706 
z
" transform="scale(0.015625)"/>
      <path id="CMR17-61" d="M 2304 1653 
C 2304 2072 2304 2294 2035 2543 
C 1798 2752 1523 2816 1306 2816 
C 800 2816 435 2407 435 1971 
C 435 1728 627 1728 666 1728 
C 749 1728 896 1778 896 1954 
C 896 2112 774 2181 666 2181 
C 640 2181 608 2174 589 2168 
C 723 2592 1069 2714 1293 2714 
C 1613 2714 1965 2429 1965 1885 
L 1965 1600 
C 1587 1600 1133 1549 774 1357 
C 371 1133 256 813 256 570 
C 256 77 832 -64 1171 -64 
C 1523 -64 1850 139 1990 511 
C 2003 233 2182 -18 2464 -18 
C 2598 -18 2938 70 2938 567 
L 2938 920 
L 2822 920 
L 2822 562 
C 2822 178 2650 128 2566 128 
C 2304 128 2304 458 2304 738 
L 2304 1653 
z
M 1965 870 
C 1965 317 1568 38 1216 38 
C 896 38 646 275 646 570 
C 646 761 730 1100 1101 1305 
C 1408 1478 1760 1504 1965 1504 
L 1965 870 
z
" transform="scale(0.015625)"/>
      <path id="CMR17-6c" d="M 979 4396 
L 218 4326 
L 218 4160 
C 595 4160 653 4122 653 3817 
L 653 426 
C 653 184 627 153 218 153 
L 218 -13 
C 371 0 653 0 813 0 
C 979 0 1261 0 1414 -13 
L 1414 153 
C 1005 153 979 178 979 426 
L 979 4396 
z
" transform="scale(0.015625)"/>
      <path id="CMR17-73" d="M 1978 2697 
C 1978 2813 1971 2819 1933 2819 
C 1907 2819 1901 2813 1824 2717 
C 1805 2691 1747 2626 1728 2601 
C 1523 2819 1235 2819 1126 2819 
C 416 2819 160 2447 160 2076 
C 160 1498 813 1365 998 1325 
C 1402 1243 1542 1217 1677 1101 
C 1760 1025 1901 884 1901 654 
C 1901 384 1747 38 1158 38 
C 602 38 403 460 288 1021 
C 269 1110 269 1117 218 1117 
C 166 1117 160 1110 160 983 
L 160 63 
C 160 -51 166 -58 205 -58 
C 237 -58 243 -51 275 0 
C 314 57 410 211 448 276 
C 576 103 800 -64 1158 -64 
C 1792 -64 2131 283 2131 784 
C 2131 1112 1958 1285 1875 1362 
C 1683 1561 1459 1606 1190 1657 
C 838 1735 390 1825 390 2217 
C 390 2383 480 2737 1126 2737 
C 1811 2737 1850 2094 1862 1888 
C 1869 1856 1901 1849 1920 1849 
C 1978 1849 1978 1869 1978 1978 
L 1978 2697 
z
" transform="scale(0.015625)"/>
      <path id="CMR17-2f" d="M 2605 4545 
C 2637 4627 2637 4640 2637 4653 
C 2637 4729 2579 4768 2528 4768 
C 2451 4768 2426 4717 2400 4640 
L 326 -1377 
C 294 -1460 294 -1473 294 -1486 
C 294 -1562 352 -1600 403 -1600 
C 480 -1600 506 -1549 531 -1473 
L 2605 4545 
z
" transform="scale(0.015625)"/>
      <path id="CMR17-65" d="M 2438 1472 
C 2464 1498 2464 1511 2464 1576 
C 2464 2238 2118 2816 1389 2816 
C 710 2816 173 2169 173 1383 
C 173 551 781 -64 1459 -64 
C 2176 -64 2458 607 2458 740 
C 2458 784 2419 784 2406 784 
C 2362 784 2355 771 2330 696 
C 2189 265 1837 51 1504 51 
C 1229 51 954 203 781 480 
C 582 803 582 1176 582 1472 
L 2438 1472 
z
M 589 1568 
C 634 2505 1126 2714 1382 2714 
C 1818 2714 2112 2297 2118 1568 
L 589 1568 
z
" transform="scale(0.015625)"/>
      <path id="CMR17-78" d="M 1664 1477 
C 1856 1726 2074 2006 2253 2216 
C 2464 2458 2707 2560 2989 2560 
L 2989 2726 
C 2880 2726 2656 2726 2541 2726 
C 2368 2726 2170 2726 2022 2732 
L 2022 2566 
C 2112 2553 2163 2489 2163 2400 
C 2163 2285 2099 2215 2067 2171 
L 1594 1573 
L 1030 2306 
C 973 2376 973 2388 973 2420 
C 973 2497 1037 2560 1146 2560 
L 1146 2732 
C 992 2726 717 2726 557 2726 
C 384 2726 179 2726 38 2732 
L 38 2560 
C 384 2560 461 2534 614 2343 
L 1350 1395 
C 1363 1382 1395 1344 1395 1325 
C 1395 1299 838 619 768 530 
C 480 185 179 160 6 160 
L 6 0 
C 115 0 339 0 454 0 
C 582 0 864 0 979 -6 
L 979 160 
C 941 166 838 179 838 325 
C 838 440 890 510 947 586 
L 1478 1236 
L 2035 512 
C 2086 442 2163 346 2163 301 
C 2163 211 2086 160 1984 160 
L 1984 -6 
C 2138 0 2413 0 2573 0 
C 2746 0 2950 0 3091 -6 
L 3091 160 
C 2771 160 2675 172 2522 370 
L 1664 1477 
z
" transform="scale(0.015625)"/>
      <path id="CMR17-70" d="M 1408 -1063 
C 998 -1063 973 -1037 973 -789 
L 973 402 
C 1158 134 1427 -38 1766 -38 
C 2406 -38 3053 523 3053 1388 
C 3053 2191 2496 2802 1837 2802 
C 1453 2802 1139 2592 960 2338 
L 960 2802 
L 198 2732 
L 198 2567 
C 576 2567 634 2528 634 2223 
L 634 -789 
C 634 -1031 608 -1063 198 -1063 
L 198 -1228 
C 352 -1216 634 -1216 800 -1216 
C 966 -1216 1254 -1216 1408 -1228 
L 1408 -1063 
z
M 973 2012 
C 973 2102 973 2235 1222 2471 
C 1254 2497 1472 2688 1792 2688 
C 2259 2688 2643 2108 2643 1382 
C 2643 656 2234 64 1728 64 
C 1498 64 1248 172 1056 472 
C 973 612 973 650 973 752 
L 973 2012 
z
" transform="scale(0.015625)"/>
      <path id="CMR17-3d" d="M 4115 2017 
C 4211 2017 4307 2017 4307 2125 
C 4307 2240 4198 2240 4090 2240 
L 512 2240 
C 403 2240 294 2240 294 2125 
C 294 2017 390 2017 486 2017 
L 4115 2017 
z
M 4090 896 
C 4198 896 4307 896 4307 1011 
C 4307 1119 4211 1119 4115 1119 
L 486 1119 
C 390 1119 294 1119 294 1011 
C 294 896 403 896 512 896 
L 4090 896 
z
" transform="scale(0.015625)"/>
      <path id="CMR17-3b" d="M 1062 2491 
C 1062 2650 934 2752 800 2752 
C 672 2752 538 2650 538 2491 
C 538 2332 666 2230 800 2230 
C 928 2230 1062 2332 1062 2491 
z
M 979 -71 
C 979 -483 851 -817 634 -1126 
C 595 -1170 595 -1183 595 -1190 
C 595 -1222 621 -1248 646 -1248 
C 678 -1248 1082 -805 1082 -61 
C 1082 189 1062 522 800 522 
C 659 522 538 427 538 261 
C 538 96 659 0 800 0 
C 864 0 934 19 979 64 
L 979 -71 
z
" transform="scale(0.015625)"/>
     </defs>
     <use xlink:href="#CMR17-6e" transform="scale(0.996264)"/>
     <use xlink:href="#CMR17-75" transform="translate(48.292916 0) scale(0.996264)"/>
     <use xlink:href="#CMR17-6d" transform="translate(99.188286 0) scale(0.996264)"/>
     <use xlink:href="#CMR17-2e" transform="translate(176.107875 0) scale(0.996264)"/>
     <use xlink:href="#CMR17-74" transform="translate(241.464594 0) scale(0.996264)"/>
     <use xlink:href="#CMR17-72" transform="translate(276.745362 0) scale(0.996264)"/>
     <use xlink:href="#CMR17-69" transform="translate(312.02613 0) scale(0.996264)"/>
     <use xlink:href="#CMR17-61" transform="translate(336.897189 0) scale(0.996264)"/>
     <use xlink:href="#CMR17-6c" transform="translate(382.587666 0) scale(0.996264)"/>
     <use xlink:href="#CMR17-73" transform="translate(407.458724 0) scale(0.996264)"/>
     <use xlink:href="#CMR17-2f" transform="translate(443.260062 0) scale(0.996264)"/>
     <use xlink:href="#CMR17-65" transform="translate(488.950539 0) scale(0.996264)"/>
     <use xlink:href="#CMR17-78" transform="translate(529.436199 0) scale(0.996264)"/>
     <use xlink:href="#CMR17-70" transform="translate(577.729115 0) scale(0.996264)"/>
     <use xlink:href="#CMR17-65" transform="translate(631.226924 0) scale(0.996264)"/>
     <use xlink:href="#CMR17-72" transform="translate(671.712584 0) scale(0.996264)"/>
     <use xlink:href="#CMR17-69" transform="translate(706.993352 0) scale(0.996264)"/>
     <use xlink:href="#CMR17-6d" transform="translate(731.86441 0) scale(0.996264)"/>
     <use xlink:href="#CMR17-65" transform="translate(808.784 0) scale(0.996264)"/>
     <use xlink:href="#CMR17-6e" transform="translate(849.269661 0) scale(0.996264)"/>
     <use xlink:href="#CMR17-74" transform="translate(897.562577 0) scale(0.996264)"/>
     <use xlink:href="#CMR17-3d" transform="translate(962.919311 0) scale(0.996264)"/>
     <use xlink:href="#CMR17-31" transform="translate(1064.710066 0) scale(0.996264)"/>
     <use xlink:href="#CMR17-30" transform="translate(1110.400543 0) scale(0.996264)"/>
     <use xlink:href="#CMR17-30" transform="translate(1156.09102 0) scale(0.996264)"/>
     <use xlink:href="#CMR17-3b" transform="translate(1201.781497 0) scale(0.996264)"/>
     <use xlink:href="#CMR17-6e" transform="translate(1256.728522 0) scale(0.996264)"/>
     <use xlink:href="#CMR17-75" transform="translate(1305.021438 0) scale(0.996264)"/>
     <use xlink:href="#CMR17-6d" transform="translate(1355.916807 0) scale(0.996264)"/>
     <use xlink:href="#CMR17-2e" transform="translate(1432.836397 0) scale(0.996264)"/>
     <use xlink:href="#CMR17-65" transform="translate(1498.193116 0) scale(0.996264)"/>
     <use xlink:href="#CMR17-78" transform="translate(1538.678777 0) scale(0.996264)"/>
     <use xlink:href="#CMR17-70" transform="translate(1586.971692 0) scale(0.996264)"/>
     <use xlink:href="#CMR17-65" transform="translate(1640.469501 0) scale(0.996264)"/>
     <use xlink:href="#CMR17-72" transform="translate(1680.955161 0) scale(0.996264)"/>
     <use xlink:href="#CMR17-69" transform="translate(1716.235929 0) scale(0.996264)"/>
     <use xlink:href="#CMR17-6d" transform="translate(1741.106988 0) scale(0.996264)"/>
     <use xlink:href="#CMR17-65" transform="translate(1818.026578 0) scale(0.996264)"/>
     <use xlink:href="#CMR17-6e" transform="translate(1858.512238 0) scale(0.996264)"/>
     <use xlink:href="#CMR17-74" transform="translate(1906.805154 0) scale(0.996264)"/>
     <use xlink:href="#CMR17-73" transform="translate(1942.085922 0) scale(0.996264)"/>
     <use xlink:href="#CMR17-3d" transform="translate(2007.963226 0) scale(0.996264)"/>
     <use xlink:href="#CMR17-31" transform="translate(2109.75398 0) scale(0.996264)"/>
     <use xlink:href="#CMR17-30" transform="translate(2155.444458 0) scale(0.996264)"/>
     <use xlink:href="#CMR17-30" transform="translate(2201.134935 0) scale(0.996264)"/>
     <use xlink:href="#CMR17-30" transform="translate(2246.825412 0) scale(0.996264)"/>
     <use xlink:href="#CMR17-30" transform="translate(2292.515889 0) scale(0.996264)"/>
    </g>
   </g>
   <g id="legend_1">
    <g id="patch_107">
     <path d="M 273.379898 111.624348 
L 407.72 111.624348 
Q 409.72 111.624348 409.72 109.624348 
L 409.72 48.472 
Q 409.72 46.472 407.72 46.472 
L 273.379898 46.472 
Q 271.379898 46.472 271.379898 48.472 
L 271.379898 109.624348 
Q 271.379898 111.624348 273.379898 111.624348 
z
" style="fill: #ffffff; opacity: 0.8; stroke: #cccccc; stroke-linejoin: miter"/>
    </g>
    <g id="line2d_30">
     <path d="M 275.379898 53.972 
L 280.379898 53.972 
L 280.379898 53.972 
L 290.379898 53.972 
L 290.379898 53.972 
L 295.379898 53.972 
" style="fill: none; stroke: #000000; stroke-width: 1.5; stroke-linecap: square"/>
    </g>
    <g id="text_21">
     <!-- Experiment 1. $p = 0.4$ -->
     <g transform="translate(303.379898 57.472) scale(0.1 -0.1)">
      <defs>
       <path id="CMR17-45" d="M 3885 1615 
L 3770 1615 
C 3629 676 3546 166 2419 166 
L 1530 166 
C 1274 166 1261 197 1261 414 
L 1261 2176 
L 1862 2176 
C 2464 2176 2522 1960 2522 1430 
L 2637 1430 
L 2637 3081 
L 2522 3081 
C 2522 2557 2464 2342 1862 2342 
L 1261 2342 
L 1261 3913 
C 1261 4128 1274 4160 1530 4160 
L 2406 4160 
C 3398 4160 3514 3769 3603 2929 
L 3718 2929 
L 3565 4325 
L 326 4325 
L 326 4160 
C 768 4160 838 4160 838 3874 
L 838 451 
C 838 166 768 166 326 166 
L 326 0 
L 3654 0 
L 3885 1615 
z
" transform="scale(0.015625)"/>
       <path id="CMMI12-70" d="M 275 -789 
C 230 -980 205 -1031 -58 -1031 
C -134 -1031 -198 -1031 -198 -1152 
C -198 -1165 -192 -1216 -122 -1216 
C -38 -1216 51 -1216 134 -1216 
L 410 -1216 
C 544 -1216 870 -1216 1005 -1216 
C 1043 -1216 1120 -1216 1120 -1101 
C 1120 -1031 1075 -1031 966 -1031 
C 672 -1031 653 -987 653 -937 
C 653 -861 941 219 979 364 
C 1050 185 1222 -64 1555 -64 
C 2278 -64 3059 875 3059 1814 
C 3059 2401 2726 2816 2246 2816 
C 1837 2816 1491 2420 1421 2331 
C 1370 2650 1120 2816 864 2816 
C 678 2816 531 2727 410 2484 
C 294 2254 205 1865 205 1839 
C 205 1814 230 1782 275 1782 
C 326 1782 333 1788 371 1935 
C 467 2312 589 2689 845 2689 
C 992 2689 1043 2587 1043 2397 
C 1043 2245 1024 2181 998 2067 
L 275 -789 
z
M 1382 1993 
C 1427 2171 1606 2357 1709 2446 
C 1779 2510 1990 2689 2234 2689 
C 2515 2689 2643 2408 2643 2076 
C 2643 1769 2464 1047 2304 715 
C 2144 370 1850 64 1555 64 
C 1120 64 1050 613 1050 639 
C 1050 658 1062 709 1069 741 
L 1382 1993 
z
" transform="scale(0.015625)"/>
      </defs>
      <use xlink:href="#CMR17-45" transform="scale(0.996264)"/>
      <use xlink:href="#CMR17-78" transform="translate(62.586301 0) scale(0.996264)"/>
      <use xlink:href="#CMR17-70" transform="translate(110.879216 0) scale(0.996264)"/>
      <use xlink:href="#CMR17-65" transform="translate(164.377025 0) scale(0.996264)"/>
      <use xlink:href="#CMR17-72" transform="translate(204.862685 0) scale(0.996264)"/>
      <use xlink:href="#CMR17-69" transform="translate(240.143453 0) scale(0.996264)"/>
      <use xlink:href="#CMR17-6d" transform="translate(265.014512 0) scale(0.996264)"/>
      <use xlink:href="#CMR17-65" transform="translate(341.934101 0) scale(0.996264)"/>
      <use xlink:href="#CMR17-6e" transform="translate(382.419762 0) scale(0.996264)"/>
      <use xlink:href="#CMR17-74" transform="translate(430.712678 0) scale(0.996264)"/>
      <use xlink:href="#CMR17-31" transform="translate(496.069412 0) scale(0.996264)"/>
      <use xlink:href="#CMR17-2e" transform="translate(541.759889 0) scale(0.996264)"/>
      <use xlink:href="#CMMI12-70" transform="translate(607.116608 0) scale(0.996264)"/>
      <use xlink:href="#CMR17-3d" transform="translate(683.750131 0) scale(0.996264)"/>
      <use xlink:href="#CMR17-30" transform="translate(783.138928 0) scale(0.996264)"/>
      <use xlink:href="#CMMI12-3a" transform="translate(828.829405 0) scale(0.996264)"/>
      <use xlink:href="#CMR17-34" transform="translate(855.926582 0) scale(0.996264)"/>
     </g>
    </g>
    <g id="line2d_31">
     <path d="M 275.379898 67.909178 
L 280.379898 67.909178 
L 280.379898 67.909178 
L 290.379898 67.909178 
L 290.379898 67.909178 
L 295.379898 67.909178 
" style="fill: none; stroke: #ff0000; stroke-width: 1.5; stroke-linecap: square"/>
    </g>
    <g id="text_22">
     <!-- Experiment 2. $p$ varies -->
     <g transform="translate(303.379898 71.409178) scale(0.1 -0.1)">
      <defs>
       <path id="CMR17-76" d="M 2502 2163 
C 2560 2304 2662 2560 3034 2560 
L 3034 2726 
C 2912 2726 2752 2726 2630 2726 
C 2496 2726 2285 2726 2157 2732 
L 2157 2566 
C 2317 2553 2406 2477 2406 2311 
C 2406 2253 2406 2240 2368 2151 
L 1664 377 
L 902 2286 
C 864 2369 864 2381 864 2407 
C 864 2560 1075 2560 1171 2560 
L 1171 2732 
C 1018 2726 736 2726 576 2726 
C 403 2726 205 2726 64 2732 
L 64 2560 
C 307 2560 442 2560 518 2362 
L 1446 44 
C 1485 -51 1491 -64 1549 -64 
C 1606 -64 1613 -51 1651 44 
L 2502 2163 
z
" transform="scale(0.015625)"/>
      </defs>
      <use xlink:href="#CMR17-45" transform="scale(0.996264)"/>
      <use xlink:href="#CMR17-78" transform="translate(62.586301 0) scale(0.996264)"/>
      <use xlink:href="#CMR17-70" transform="translate(110.879216 0) scale(0.996264)"/>
      <use xlink:href="#CMR17-65" transform="translate(164.377025 0) scale(0.996264)"/>
      <use xlink:href="#CMR17-72" transform="translate(204.862685 0) scale(0.996264)"/>
      <use xlink:href="#CMR17-69" transform="translate(240.143453 0) scale(0.996264)"/>
      <use xlink:href="#CMR17-6d" transform="translate(265.014512 0) scale(0.996264)"/>
      <use xlink:href="#CMR17-65" transform="translate(341.934101 0) scale(0.996264)"/>
      <use xlink:href="#CMR17-6e" transform="translate(382.419762 0) scale(0.996264)"/>
      <use xlink:href="#CMR17-74" transform="translate(430.712678 0) scale(0.996264)"/>
      <use xlink:href="#CMR17-32" transform="translate(496.069412 0) scale(0.996264)"/>
      <use xlink:href="#CMR17-2e" transform="translate(541.759889 0) scale(0.996264)"/>
      <use xlink:href="#CMMI12-70" transform="translate(607.116608 0) scale(0.996264)"/>
      <use xlink:href="#CMR17-76" transform="translate(686.152088 0) scale(0.996264)"/>
      <use xlink:href="#CMR17-61" transform="translate(729.240188 0) scale(0.996264)"/>
      <use xlink:href="#CMR17-72" transform="translate(774.930665 0) scale(0.996264)"/>
      <use xlink:href="#CMR17-69" transform="translate(810.211432 0) scale(0.996264)"/>
      <use xlink:href="#CMR17-65" transform="translate(835.082491 0) scale(0.996264)"/>
      <use xlink:href="#CMR17-73" transform="translate(875.568151 0) scale(0.996264)"/>
     </g>
    </g>
    <g id="line2d_32">
     <path d="M 275.379898 84.678413 
L 285.379898 84.678413 
L 295.379898 84.678413 
" style="fill: none; stroke-dasharray: 5.55,2.4; stroke-dashoffset: 0; stroke: #000000; stroke-width: 1.5"/>
    </g>
    <g id="text_23">
     <!-- $e^{-(x-np)^2/2npq}/\sqrt{2\pi npq}$ -->
     <g transform="translate(303.379898 88.178413) scale(0.1 -0.1)">
      <defs>
       <path id="CMMI12-65" d="M 1146 1479 
C 1318 1479 1754 1479 2061 1595 
C 2547 1783 2592 2158 2592 2274 
C 2592 2558 2349 2816 1926 2816 
C 1254 2816 288 2210 288 1073 
C 288 402 672 -64 1254 -64 
C 2125 -64 2675 609 2675 692 
C 2675 730 2637 762 2611 762 
C 2592 762 2586 756 2528 699 
C 2118 159 1510 64 1267 64 
C 902 64 710 350 710 822 
C 710 911 710 1071 806 1479 
L 1146 1479 
z
M 838 1600 
C 1114 2592 1722 2689 1926 2689 
C 2208 2689 2400 2522 2400 2277 
C 2400 1600 1376 1600 1107 1600 
L 838 1600 
z
" transform="scale(0.015625)"/>
       <path id="CMSY10-0" d="M 4218 1472 
C 4326 1472 4442 1472 4442 1600 
C 4442 1728 4326 1728 4218 1728 
L 755 1728 
C 646 1728 531 1728 531 1600 
C 531 1472 646 1472 755 1472 
L 4218 1472 
z
" transform="scale(0.015625)"/>
       <path id="CMMI12-78" d="M 3034 2606 
C 2829 2567 2752 2414 2752 2293 
C 2752 2139 2874 2088 2963 2088 
C 3155 2088 3290 2254 3290 2427 
C 3290 2695 2982 2816 2714 2816 
C 2323 2816 2106 2433 2048 2312 
C 1901 2816 1504 2816 1389 2816 
C 736 2816 390 1980 390 1839 
C 390 1814 416 1782 461 1782 
C 512 1782 525 1820 538 1846 
C 755 2555 1184 2689 1370 2689 
C 1658 2689 1715 2420 1715 2267 
C 1715 2127 1677 1980 1600 1673 
L 1382 798 
C 1286 415 1101 64 762 64 
C 730 64 570 64 435 147 
C 666 192 717 383 717 460 
C 717 588 621 664 499 664 
C 346 664 179 530 179 326 
C 179 57 480 -64 755 -64 
C 1062 -64 1280 179 1414 441 
C 1517 64 1837 -64 2074 -64 
C 2726 -64 3072 773 3072 913 
C 3072 945 3046 971 3008 971 
C 2950 971 2944 939 2925 888 
C 2752 326 2381 64 2093 64 
C 1869 64 1747 230 1747 492 
C 1747 632 1773 734 1875 1156 
L 2099 2024 
C 2195 2408 2413 2689 2707 2689 
C 2720 2689 2899 2689 3034 2606 
z
" transform="scale(0.015625)"/>
       <path id="CMMI12-6e" d="M 1318 1871 
C 1331 1910 1491 2229 1728 2433 
C 1894 2586 2112 2689 2362 2689 
C 2618 2689 2707 2497 2707 2242 
C 2707 1878 2445 1150 2317 805 
C 2259 651 2227 568 2227 453 
C 2227 166 2426 -64 2733 -64 
C 3328 -64 3552 875 3552 913 
C 3552 945 3526 971 3488 971 
C 3430 971 3424 952 3392 843 
C 3245 319 3002 64 2752 64 
C 2688 64 2586 64 2586 269 
C 2586 429 2656 621 2694 710 
C 2822 1063 3091 1780 3091 2145 
C 3091 2528 2867 2816 2381 2816 
C 1811 2816 1510 2415 1395 2255 
C 1376 2618 1114 2816 832 2816 
C 627 2816 486 2695 378 2478 
C 262 2248 173 1865 173 1839 
C 173 1814 198 1782 243 1782 
C 294 1782 301 1788 339 1935 
C 442 2325 557 2689 813 2689 
C 960 2689 1011 2586 1011 2395 
C 1011 2254 947 2005 902 1807 
L 723 1118 
C 698 996 627 709 595 594 
C 550 428 480 128 480 96 
C 480 6 550 -64 646 -64 
C 723 -64 813 -26 864 70 
C 877 102 934 326 966 453 
L 1107 1028 
L 1318 1871 
z
" transform="scale(0.015625)"/>
       <path id="CMMI12-3d" d="M 2746 4562 
C 2746 4569 2784 4666 2784 4678 
C 2784 4755 2720 4800 2669 4800 
C 2637 4800 2579 4800 2528 4659 
L 384 -1363 
C 384 -1370 346 -1465 346 -1478 
C 346 -1555 410 -1600 461 -1600 
C 499 -1600 557 -1593 602 -1459 
L 2746 4562 
z
" transform="scale(0.015625)"/>
       <path id="CMMI12-71" d="M 2822 2759 
C 2822 2790 2797 2816 2765 2816 
C 2714 2816 2464 2585 2342 2362 
C 2227 2646 2029 2816 1754 2816 
C 1030 2816 250 1884 250 939 
C 250 307 621 -64 1056 -64 
C 1395 -64 1677 193 1811 339 
L 1818 333 
L 1574 -615 
L 1517 -842 
C 1459 -1031 1363 -1031 1062 -1031 
C 992 -1031 928 -1031 928 -1152 
C 928 -1197 966 -1216 1011 -1216 
C 1101 -1216 1216 -1216 1306 -1216 
L 1958 -1216 
C 2054 -1216 2163 -1216 2259 -1216 
C 2298 -1216 2374 -1216 2374 -1095 
C 2374 -1031 2323 -1031 2227 -1031 
C 1926 -1031 1907 -986 1907 -935 
C 1907 -904 1914 -898 1933 -815 
L 2822 2759 
z
M 1920 762 
C 1888 652 1888 640 1798 518 
C 1658 339 1376 64 1075 64 
C 813 64 666 301 666 678 
C 666 1030 864 1747 986 2016 
C 1203 2464 1504 2695 1754 2695 
C 2176 2695 2259 2170 2259 2119 
C 2259 2113 2240 2028 2234 2016 
L 1920 762 
z
" transform="scale(0.015625)"/>
       <path id="CMSY10-70" d="M 2490 -5472 
L 1363 -2982 
C 1318 -2880 1286 -2880 1267 -2880 
C 1261 -2880 1229 -2880 1158 -2931 
L 550 -3392 
C 467 -3456 467 -3475 467 -3494 
C 467 -3526 486 -3565 531 -3565 
C 570 -3565 678 -3475 749 -3424 
C 787 -3393 883 -3323 954 -3271 
L 2214 -6042 
C 2259 -6144 2291 -6144 2349 -6144 
C 2445 -6144 2464 -6106 2509 -6016 
L 5414 0 
C 5459 90 5459 115 5459 128 
C 5459 192 5408 256 5331 256 
C 5280 256 5235 224 5184 122 
L 2490 -5472 
z
" transform="scale(0.015625)"/>
       <path id="CMMI12-19" d="M 1658 2408 
L 2381 2408 
C 2208 1692 2099 1226 2099 716 
C 2099 626 2099 -64 2362 -64 
C 2496 -64 2611 57 2611 166 
C 2611 197 2611 210 2566 306 
C 2394 747 2394 1296 2394 1341 
C 2394 1379 2394 1832 2528 2408 
L 3245 2408 
C 3328 2408 3539 2408 3539 2612 
C 3539 2752 3418 2752 3302 2752 
L 1197 2752 
C 1050 2752 832 2752 538 2440 
C 371 2254 166 1916 166 1878 
C 166 1840 198 1827 237 1827 
C 282 1827 288 1846 320 1884 
C 653 2408 986 2408 1146 2408 
L 1510 2408 
C 1370 1929 1210 1373 685 256 
C 634 154 634 140 634 102 
C 634 -32 749 -64 806 -64 
C 992 -64 1043 102 1120 370 
C 1222 696 1222 709 1286 964 
L 1658 2408 
z
" transform="scale(0.015625)"/>
      </defs>
      <use xlink:href="#CMMI12-65" transform="scale(0.996264)"/>
      <use xlink:href="#CMSY10-0" transform="translate(45.212001 36.153639) scale(0.697382)"/>
      <use xlink:href="#CMR17-28" transform="translate(99.452994 36.153639) scale(0.697382)"/>
      <use xlink:href="#CMMI12-78" transform="translate(124.149415 36.153639) scale(0.697382)"/>
      <use xlink:href="#CMSY10-0" transform="translate(162.953074 36.153639) scale(0.697382)"/>
      <use xlink:href="#CMMI12-6e" transform="translate(217.194067 36.153639) scale(0.697382)"/>
      <use xlink:href="#CMMI12-70" transform="translate(257.95491 36.153639) scale(0.697382)"/>
      <use xlink:href="#CMR17-29" transform="translate(292.226417 36.153639) scale(0.697382)"/>
      <use xlink:href="#CMR17-32" transform="translate(316.922837 61.461065) scale(0.498132)"/>
      <use xlink:href="#CMMI12-3d" transform="translate(340.266208 36.153639) scale(0.697382)"/>
      <use xlink:href="#CMR17-32" transform="translate(374.408499 36.153639) scale(0.697382)"/>
      <use xlink:href="#CMMI12-6e" transform="translate(406.391681 36.153639) scale(0.697382)"/>
      <use xlink:href="#CMMI12-70" transform="translate(447.152524 36.153639) scale(0.697382)"/>
      <use xlink:href="#CMMI12-71" transform="translate(481.42403 36.153639) scale(0.697382)"/>
      <use xlink:href="#CMMI12-3d" transform="translate(514.700428 0) scale(0.996264)"/>
      <use xlink:href="#CMSY10-70" transform="translate(563.475346 70.864659) scale(0.996264)"/>
      <use xlink:href="#CMR17-32" transform="translate(646.497601 0) scale(0.996264)"/>
      <use xlink:href="#CMMI12-19" transform="translate(692.188078 0) scale(0.996264)"/>
      <use xlink:href="#CMMI12-6e" transform="translate(751.098678 0) scale(0.996264)"/>
      <use xlink:href="#CMMI12-70" transform="translate(809.328726 0) scale(0.996264)"/>
      <use xlink:href="#CMMI12-71" transform="translate(858.28824 0) scale(0.996264)"/>
      <path d="M 646.497601 70.864659 
L 905.114564 70.864659 
L 905.114564 74.849609 
L 646.497601 74.849609 
L 646.497601 70.864659 
z
"/>
     </g>
    </g>
    <g id="patch_108">
     <path d="M 275.379898 104.137363 
L 295.379898 104.137363 
L 295.379898 97.137363 
L 275.379898 97.137363 
z
" style="fill: #1f77b4"/>
    </g>
    <g id="text_24">
     <!-- $\binom{n}{k}(1-p)^{n-k}p^k$ -->
     <g transform="translate(303.379898 104.137363) scale(0.1 -0.1)">
      <defs>
       <path id="CMEX10-30" d="M 2394 -11328 
C 2534 -11328 2573 -11328 2573 -11238 
C 2586 -6752 3104 -3027 5344 102 
C 5389 160 5389 173 5389 186 
C 5389 250 5344 250 5242 250 
C 5139 250 5126 250 5114 237 
C 5088 218 4275 -717 3629 -2003 
C 2784 -3693 2253 -5632 2016 -7962 
C 1997 -8160 1862 -9491 1862 -11008 
L 1862 -11258 
C 1869 -11328 1907 -11328 2042 -11328 
L 2394 -11328 
z
" transform="scale(0.015625)"/>
       <path id="CMEX10-42" d="M 2574 -109 
C 2574 58 2567 64 2395 64 
L 2043 64 
C 1870 64 1863 58 1863 -109 
L 1863 -3731 
C 1863 -3898 1870 -3904 2043 -3904 
L 2395 -3904 
C 2567 -3904 2574 -3898 2574 -3731 
L 2574 -109 
z
" transform="scale(0.015625)"/>
       <path id="CMEX10-40" d="M 2042 320 
C 1907 320 1869 320 1862 250 
L 1862 0 
C 1862 -3910 2560 -6202 2758 -6848 
C 3194 -8269 3904 -9766 4973 -11085 
C 5069 -11200 5094 -11232 5120 -11245 
C 5133 -11251 5139 -11258 5242 -11258 
C 5344 -11258 5389 -11258 5389 -11194 
C 5389 -11181 5389 -11168 5350 -11110 
C 3219 -8154 2579 -4595 2573 230 
C 2573 320 2534 320 2394 320 
L 2042 320 
z
" transform="scale(0.015625)"/>
       <path id="CMEX10-31" d="M 3731 -11008 
C 3731 -7098 3034 -4806 2835 -4160 
C 2400 -2739 1690 -1242 621 77 
C 525 192 499 224 474 237 
C 461 243 454 250 352 250 
C 256 250 205 250 205 186 
C 205 173 205 160 288 45 
C 2515 -3066 3014 -6906 3021 -11238 
C 3021 -11328 3059 -11328 3200 -11328 
L 3552 -11328 
C 3686 -11328 3725 -11328 3731 -11258 
L 3731 -11008 
z
" transform="scale(0.015625)"/>
       <path id="CMEX10-43" d="M 3733 -109 
C 3733 58 3727 64 3554 64 
L 3202 64 
C 3029 64 3023 58 3023 -109 
L 3023 -3731 
C 3023 -3898 3029 -3904 3202 -3904 
L 3554 -3904 
C 3727 -3904 3733 -3898 3733 -3731 
L 3733 -109 
z
" transform="scale(0.015625)"/>
       <path id="CMEX10-41" d="M 3731 250 
C 3725 320 3686 320 3552 320 
L 3200 320 
C 3059 320 3021 320 3021 230 
C 3021 -429 3014 -1952 2848 -3546 
C 2502 -6854 1651 -9146 250 -11110 
C 205 -11168 205 -11181 205 -11194 
C 205 -11258 256 -11258 352 -11258 
C 454 -11258 467 -11258 480 -11245 
C 506 -11226 1318 -10291 1965 -9005 
C 2810 -7315 3341 -5376 3578 -3046 
C 3597 -2848 3731 -1517 3731 0 
L 3731 250 
z
" transform="scale(0.015625)"/>
      </defs>
      <use xlink:href="#CMEX10-30" transform="translate(0 75.96846) scale(0.247871)"/>
      <use xlink:href="#CMEX10-42" transform="translate(0 32.34278) scale(0.247871)"/>
      <use xlink:href="#CMEX10-40" transform="translate(0 16.47896) scale(0.247871)"/>
      <use xlink:href="#CMMI12-6e" transform="translate(21.688733 44.207346) scale(0.697382)"/>
      <use xlink:href="#CMMI12-6b" transform="translate(23.141536 -34.355268) scale(0.697382)"/>
      <use xlink:href="#CMEX10-31" transform="translate(62.449576 75.96846) scale(0.247871)"/>
      <use xlink:href="#CMEX10-43" transform="translate(62.449576 32.34278) scale(0.247871)"/>
      <use xlink:href="#CMEX10-41" transform="translate(62.449576 16.47896) scale(0.247871)"/>
      <use xlink:href="#CMR17-28" transform="translate(84.138308 0) scale(0.996264)"/>
      <use xlink:href="#CMR17-31" transform="translate(119.419076 0) scale(0.996264)"/>
      <use xlink:href="#CMSY10-0" transform="translate(187.24876 0) scale(0.996264)"/>
      <use xlink:href="#CMMI12-70" transform="translate(286.875435 0) scale(0.996264)"/>
      <use xlink:href="#CMR17-29" transform="translate(335.834949 0) scale(0.996264)"/>
      <use xlink:href="#CMMI12-6e" transform="translate(371.115717 36.153639) scale(0.697382)"/>
      <use xlink:href="#CMSY10-0" transform="translate(411.87656 36.153639) scale(0.697382)"/>
      <use xlink:href="#CMMI12-6b" transform="translate(466.117553 36.153639) scale(0.697382)"/>
      <use xlink:href="#CMMI12-70" transform="translate(504.470935 0) scale(0.996264)"/>
      <use xlink:href="#CMMI12-6b" transform="translate(553.430449 36.153639) scale(0.697382)"/>
     </g>
    </g>
   </g>
  </g>
 </g>
 <defs>
  <clipPath id="pe4bd86c772">
   <rect x="57.6" y="41.472" width="357.12" height="266.112"/>
  </clipPath>
 </defs>
</svg>
