<?xml version="1.0" encoding="utf-8" standalone="no"?>
<!DOCTYPE svg PUBLIC "-//W3C//DTD SVG 1.1//EN"
  "http://www.w3.org/Graphics/SVG/1.1/DTD/svg11.dtd">
<svg xmlns:xlink="http://www.w3.org/1999/xlink" width="432pt" height="288pt" viewBox="0 0 432 288" xmlns="http://www.w3.org/2000/svg" version="1.1">
 <metadata>
  <rdf:RDF xmlns:dc="http://purl.org/dc/elements/1.1/" xmlns:cc="http://creativecommons.org/ns#" xmlns:rdf="http://www.w3.org/1999/02/22-rdf-syntax-ns#">
   <cc:Work>
    <dc:type rdf:resource="http://purl.org/dc/dcmitype/StillImage"/>
    <dc:date>2023-03-03T10:51:08.777794</dc:date>
    <dc:format>image/svg+xml</dc:format>
    <dc:creator>
     <cc:Agent>
      <dc:title>Matplotlib v3.6.3, https://matplotlib.org/</dc:title>
     </cc:Agent>
    </dc:creator>
   </cc:Work>
  </rdf:RDF>
 </metadata>
 <defs>
  <style type="text/css">*{stroke-linejoin: round; stroke-linecap: butt}</style>
 </defs>
 <g id="figure_1">
  <g id="patch_1">
   <path d="M 0 288 
L 432 288 
L 432 0 
L 0 0 
L 0 288 
z
" style="fill: none"/>
  </g>
  <g id="axes_1">
   <g id="patch_2">
    <path d="M 54 252 
L 388.8 252 
L 388.8 34.56 
L 54 34.56 
L 54 252 
z
" style="fill: none"/>
   </g>
   <g id="matplotlib.axis_1">
    <g id="xtick_1">
     <g id="line2d_1">
      <path d="M 69.218182 252 
L 69.218182 34.56 
" clip-path="url(#pa7c2fde1dc)" style="fill: none; stroke: #b0b0b0; stroke-width: 0.8; stroke-linecap: square"/>
     </g>
     <g id="line2d_2">
      <defs>
       <path id="m7907b392ea" d="M 0 0 
L 0 3.5 
" style="stroke: #000000; stroke-width: 0.8"/>
      </defs>
      <g>
       <use xlink:href="#m7907b392ea" x="69.218182" y="252" style="stroke: #000000; stroke-width: 0.8"/>
      </g>
     </g>
     <g id="text_1">
      <!-- 1 -->
      <g transform="translate(66.036932 266.598437) scale(0.1 -0.1)">
       <defs>
        <path id="DejaVuSans-31" d="M 794 531 
L 1825 531 
L 1825 4091 
L 703 3866 
L 703 4441 
L 1819 4666 
L 2450 4666 
L 2450 531 
L 3481 531 
L 3481 0 
L 794 0 
L 794 531 
z
" transform="scale(0.015625)"/>
       </defs>
       <use xlink:href="#DejaVuSans-31"/>
      </g>
     </g>
    </g>
    <g id="xtick_2">
     <g id="line2d_3">
      <path d="M 100.039816 252 
L 100.039816 34.56 
" clip-path="url(#pa7c2fde1dc)" style="fill: none; stroke: #b0b0b0; stroke-width: 0.8; stroke-linecap: square"/>
     </g>
     <g id="line2d_4">
      <g>
       <use xlink:href="#m7907b392ea" x="100.039816" y="252" style="stroke: #000000; stroke-width: 0.8"/>
      </g>
     </g>
     <g id="text_2">
      <!-- 25 -->
      <g transform="translate(93.677316 266.598437) scale(0.1 -0.1)">
       <defs>
        <path id="DejaVuSans-32" d="M 1228 531 
L 3431 531 
L 3431 0 
L 469 0 
L 469 531 
Q 828 903 1448 1529 
Q 2069 2156 2228 2338 
Q 2531 2678 2651 2914 
Q 2772 3150 2772 3378 
Q 2772 3750 2511 3984 
Q 2250 4219 1831 4219 
Q 1534 4219 1204 4116 
Q 875 4013 500 3803 
L 500 4441 
Q 881 4594 1212 4672 
Q 1544 4750 1819 4750 
Q 2544 4750 2975 4387 
Q 3406 4025 3406 3419 
Q 3406 3131 3298 2873 
Q 3191 2616 2906 2266 
Q 2828 2175 2409 1742 
Q 1991 1309 1228 531 
z
" transform="scale(0.015625)"/>
        <path id="DejaVuSans-35" d="M 691 4666 
L 3169 4666 
L 3169 4134 
L 1269 4134 
L 1269 2991 
Q 1406 3038 1543 3061 
Q 1681 3084 1819 3084 
Q 2600 3084 3056 2656 
Q 3513 2228 3513 1497 
Q 3513 744 3044 326 
Q 2575 -91 1722 -91 
Q 1428 -91 1123 -41 
Q 819 9 494 109 
L 494 744 
Q 775 591 1075 516 
Q 1375 441 1709 441 
Q 2250 441 2565 725 
Q 2881 1009 2881 1497 
Q 2881 1984 2565 2268 
Q 2250 2553 1709 2553 
Q 1456 2553 1204 2497 
Q 953 2441 691 2322 
L 691 4666 
z
" transform="scale(0.015625)"/>
       </defs>
       <use xlink:href="#DejaVuSans-32"/>
       <use xlink:href="#DejaVuSans-35" x="63.623047"/>
      </g>
     </g>
    </g>
    <g id="xtick_3">
     <g id="line2d_5">
      <path d="M 132.145685 252 
L 132.145685 34.56 
" clip-path="url(#pa7c2fde1dc)" style="fill: none; stroke: #b0b0b0; stroke-width: 0.8; stroke-linecap: square"/>
     </g>
     <g id="line2d_6">
      <g>
       <use xlink:href="#m7907b392ea" x="132.145685" y="252" style="stroke: #000000; stroke-width: 0.8"/>
      </g>
     </g>
     <g id="text_3">
      <!-- 50 -->
      <g transform="translate(125.783185 266.598437) scale(0.1 -0.1)">
       <defs>
        <path id="DejaVuSans-30" d="M 2034 4250 
Q 1547 4250 1301 3770 
Q 1056 3291 1056 2328 
Q 1056 1369 1301 889 
Q 1547 409 2034 409 
Q 2525 409 2770 889 
Q 3016 1369 3016 2328 
Q 3016 3291 2770 3770 
Q 2525 4250 2034 4250 
z
M 2034 4750 
Q 2819 4750 3233 4129 
Q 3647 3509 3647 2328 
Q 3647 1150 3233 529 
Q 2819 -91 2034 -91 
Q 1250 -91 836 529 
Q 422 1150 422 2328 
Q 422 3509 836 4129 
Q 1250 4750 2034 4750 
z
" transform="scale(0.015625)"/>
       </defs>
       <use xlink:href="#DejaVuSans-35"/>
       <use xlink:href="#DejaVuSans-30" x="63.623047"/>
      </g>
     </g>
    </g>
    <g id="xtick_4">
     <g id="line2d_7">
      <path d="M 164.251554 252 
L 164.251554 34.56 
" clip-path="url(#pa7c2fde1dc)" style="fill: none; stroke: #b0b0b0; stroke-width: 0.8; stroke-linecap: square"/>
     </g>
     <g id="line2d_8">
      <g>
       <use xlink:href="#m7907b392ea" x="164.251554" y="252" style="stroke: #000000; stroke-width: 0.8"/>
      </g>
     </g>
     <g id="text_4">
      <!-- 75 -->
      <g transform="translate(157.889054 266.598437) scale(0.1 -0.1)">
       <defs>
        <path id="DejaVuSans-37" d="M 525 4666 
L 3525 4666 
L 3525 4397 
L 1831 0 
L 1172 0 
L 2766 4134 
L 525 4134 
L 525 4666 
z
" transform="scale(0.015625)"/>
       </defs>
       <use xlink:href="#DejaVuSans-37"/>
       <use xlink:href="#DejaVuSans-35" x="63.623047"/>
      </g>
     </g>
    </g>
    <g id="xtick_5">
     <g id="line2d_9">
      <path d="M 196.357422 252 
L 196.357422 34.56 
" clip-path="url(#pa7c2fde1dc)" style="fill: none; stroke: #b0b0b0; stroke-width: 0.8; stroke-linecap: square"/>
     </g>
     <g id="line2d_10">
      <g>
       <use xlink:href="#m7907b392ea" x="196.357422" y="252" style="stroke: #000000; stroke-width: 0.8"/>
      </g>
     </g>
     <g id="text_5">
      <!-- 100 -->
      <g transform="translate(186.813672 266.598437) scale(0.1 -0.1)">
       <use xlink:href="#DejaVuSans-31"/>
       <use xlink:href="#DejaVuSans-30" x="63.623047"/>
       <use xlink:href="#DejaVuSans-30" x="127.246094"/>
      </g>
     </g>
    </g>
    <g id="xtick_6">
     <g id="line2d_11">
      <path d="M 228.463291 252 
L 228.463291 34.56 
" clip-path="url(#pa7c2fde1dc)" style="fill: none; stroke: #b0b0b0; stroke-width: 0.8; stroke-linecap: square"/>
     </g>
     <g id="line2d_12">
      <g>
       <use xlink:href="#m7907b392ea" x="228.463291" y="252" style="stroke: #000000; stroke-width: 0.8"/>
      </g>
     </g>
     <g id="text_6">
      <!-- 125 -->
      <g transform="translate(218.919541 266.598437) scale(0.1 -0.1)">
       <use xlink:href="#DejaVuSans-31"/>
       <use xlink:href="#DejaVuSans-32" x="63.623047"/>
       <use xlink:href="#DejaVuSans-35" x="127.246094"/>
      </g>
     </g>
    </g>
    <g id="xtick_7">
     <g id="line2d_13">
      <path d="M 260.56916 252 
L 260.56916 34.56 
" clip-path="url(#pa7c2fde1dc)" style="fill: none; stroke: #b0b0b0; stroke-width: 0.8; stroke-linecap: square"/>
     </g>
     <g id="line2d_14">
      <g>
       <use xlink:href="#m7907b392ea" x="260.56916" y="252" style="stroke: #000000; stroke-width: 0.8"/>
      </g>
     </g>
     <g id="text_7">
      <!-- 150 -->
      <g transform="translate(251.02541 266.598437) scale(0.1 -0.1)">
       <use xlink:href="#DejaVuSans-31"/>
       <use xlink:href="#DejaVuSans-35" x="63.623047"/>
       <use xlink:href="#DejaVuSans-30" x="127.246094"/>
      </g>
     </g>
    </g>
    <g id="xtick_8">
     <g id="line2d_15">
      <path d="M 292.675029 252 
L 292.675029 34.56 
" clip-path="url(#pa7c2fde1dc)" style="fill: none; stroke: #b0b0b0; stroke-width: 0.8; stroke-linecap: square"/>
     </g>
     <g id="line2d_16">
      <g>
       <use xlink:href="#m7907b392ea" x="292.675029" y="252" style="stroke: #000000; stroke-width: 0.8"/>
      </g>
     </g>
     <g id="text_8">
      <!-- 175 -->
      <g transform="translate(283.131279 266.598437) scale(0.1 -0.1)">
       <use xlink:href="#DejaVuSans-31"/>
       <use xlink:href="#DejaVuSans-37" x="63.623047"/>
       <use xlink:href="#DejaVuSans-35" x="127.246094"/>
      </g>
     </g>
    </g>
    <g id="xtick_9">
     <g id="line2d_17">
      <path d="M 324.780898 252 
L 324.780898 34.56 
" clip-path="url(#pa7c2fde1dc)" style="fill: none; stroke: #b0b0b0; stroke-width: 0.8; stroke-linecap: square"/>
     </g>
     <g id="line2d_18">
      <g>
       <use xlink:href="#m7907b392ea" x="324.780898" y="252" style="stroke: #000000; stroke-width: 0.8"/>
      </g>
     </g>
     <g id="text_9">
      <!-- 200 -->
      <g transform="translate(315.237148 266.598437) scale(0.1 -0.1)">
       <use xlink:href="#DejaVuSans-32"/>
       <use xlink:href="#DejaVuSans-30" x="63.623047"/>
       <use xlink:href="#DejaVuSans-30" x="127.246094"/>
      </g>
     </g>
    </g>
    <g id="xtick_10">
     <g id="line2d_19">
      <path d="M 356.886766 252 
L 356.886766 34.56 
" clip-path="url(#pa7c2fde1dc)" style="fill: none; stroke: #b0b0b0; stroke-width: 0.8; stroke-linecap: square"/>
     </g>
     <g id="line2d_20">
      <g>
       <use xlink:href="#m7907b392ea" x="356.886766" y="252" style="stroke: #000000; stroke-width: 0.8"/>
      </g>
     </g>
     <g id="text_10">
      <!-- 225 -->
      <g transform="translate(347.343016 266.598437) scale(0.1 -0.1)">
       <use xlink:href="#DejaVuSans-32"/>
       <use xlink:href="#DejaVuSans-32" x="63.623047"/>
       <use xlink:href="#DejaVuSans-35" x="127.246094"/>
      </g>
     </g>
    </g>
    <g id="text_11">
     <!-- hours between flares -->
     <g transform="translate(168.705469 280.276563) scale(0.1 -0.1)">
      <defs>
       <path id="DejaVuSans-68" d="M 3513 2113 
L 3513 0 
L 2938 0 
L 2938 2094 
Q 2938 2591 2744 2837 
Q 2550 3084 2163 3084 
Q 1697 3084 1428 2787 
Q 1159 2491 1159 1978 
L 1159 0 
L 581 0 
L 581 4863 
L 1159 4863 
L 1159 2956 
Q 1366 3272 1645 3428 
Q 1925 3584 2291 3584 
Q 2894 3584 3203 3211 
Q 3513 2838 3513 2113 
z
" transform="scale(0.015625)"/>
       <path id="DejaVuSans-6f" d="M 1959 3097 
Q 1497 3097 1228 2736 
Q 959 2375 959 1747 
Q 959 1119 1226 758 
Q 1494 397 1959 397 
Q 2419 397 2687 759 
Q 2956 1122 2956 1747 
Q 2956 2369 2687 2733 
Q 2419 3097 1959 3097 
z
M 1959 3584 
Q 2709 3584 3137 3096 
Q 3566 2609 3566 1747 
Q 3566 888 3137 398 
Q 2709 -91 1959 -91 
Q 1206 -91 779 398 
Q 353 888 353 1747 
Q 353 2609 779 3096 
Q 1206 3584 1959 3584 
z
" transform="scale(0.015625)"/>
       <path id="DejaVuSans-75" d="M 544 1381 
L 544 3500 
L 1119 3500 
L 1119 1403 
Q 1119 906 1312 657 
Q 1506 409 1894 409 
Q 2359 409 2629 706 
Q 2900 1003 2900 1516 
L 2900 3500 
L 3475 3500 
L 3475 0 
L 2900 0 
L 2900 538 
Q 2691 219 2414 64 
Q 2138 -91 1772 -91 
Q 1169 -91 856 284 
Q 544 659 544 1381 
z
M 1991 3584 
L 1991 3584 
z
" transform="scale(0.015625)"/>
       <path id="DejaVuSans-72" d="M 2631 2963 
Q 2534 3019 2420 3045 
Q 2306 3072 2169 3072 
Q 1681 3072 1420 2755 
Q 1159 2438 1159 1844 
L 1159 0 
L 581 0 
L 581 3500 
L 1159 3500 
L 1159 2956 
Q 1341 3275 1631 3429 
Q 1922 3584 2338 3584 
Q 2397 3584 2469 3576 
Q 2541 3569 2628 3553 
L 2631 2963 
z
" transform="scale(0.015625)"/>
       <path id="DejaVuSans-73" d="M 2834 3397 
L 2834 2853 
Q 2591 2978 2328 3040 
Q 2066 3103 1784 3103 
Q 1356 3103 1142 2972 
Q 928 2841 928 2578 
Q 928 2378 1081 2264 
Q 1234 2150 1697 2047 
L 1894 2003 
Q 2506 1872 2764 1633 
Q 3022 1394 3022 966 
Q 3022 478 2636 193 
Q 2250 -91 1575 -91 
Q 1294 -91 989 -36 
Q 684 19 347 128 
L 347 722 
Q 666 556 975 473 
Q 1284 391 1588 391 
Q 1994 391 2212 530 
Q 2431 669 2431 922 
Q 2431 1156 2273 1281 
Q 2116 1406 1581 1522 
L 1381 1569 
Q 847 1681 609 1914 
Q 372 2147 372 2553 
Q 372 3047 722 3315 
Q 1072 3584 1716 3584 
Q 2034 3584 2315 3537 
Q 2597 3491 2834 3397 
z
" transform="scale(0.015625)"/>
       <path id="DejaVuSans-20" transform="scale(0.015625)"/>
       <path id="DejaVuSans-62" d="M 3116 1747 
Q 3116 2381 2855 2742 
Q 2594 3103 2138 3103 
Q 1681 3103 1420 2742 
Q 1159 2381 1159 1747 
Q 1159 1113 1420 752 
Q 1681 391 2138 391 
Q 2594 391 2855 752 
Q 3116 1113 3116 1747 
z
M 1159 2969 
Q 1341 3281 1617 3432 
Q 1894 3584 2278 3584 
Q 2916 3584 3314 3078 
Q 3713 2572 3713 1747 
Q 3713 922 3314 415 
Q 2916 -91 2278 -91 
Q 1894 -91 1617 61 
Q 1341 213 1159 525 
L 1159 0 
L 581 0 
L 581 4863 
L 1159 4863 
L 1159 2969 
z
" transform="scale(0.015625)"/>
       <path id="DejaVuSans-65" d="M 3597 1894 
L 3597 1613 
L 953 1613 
Q 991 1019 1311 708 
Q 1631 397 2203 397 
Q 2534 397 2845 478 
Q 3156 559 3463 722 
L 3463 178 
Q 3153 47 2828 -22 
Q 2503 -91 2169 -91 
Q 1331 -91 842 396 
Q 353 884 353 1716 
Q 353 2575 817 3079 
Q 1281 3584 2069 3584 
Q 2775 3584 3186 3129 
Q 3597 2675 3597 1894 
z
M 3022 2063 
Q 3016 2534 2758 2815 
Q 2500 3097 2075 3097 
Q 1594 3097 1305 2825 
Q 1016 2553 972 2059 
L 3022 2063 
z
" transform="scale(0.015625)"/>
       <path id="DejaVuSans-74" d="M 1172 4494 
L 1172 3500 
L 2356 3500 
L 2356 3053 
L 1172 3053 
L 1172 1153 
Q 1172 725 1289 603 
Q 1406 481 1766 481 
L 2356 481 
L 2356 0 
L 1766 0 
Q 1100 0 847 248 
Q 594 497 594 1153 
L 594 3053 
L 172 3053 
L 172 3500 
L 594 3500 
L 594 4494 
L 1172 4494 
z
" transform="scale(0.015625)"/>
       <path id="DejaVuSans-77" d="M 269 3500 
L 844 3500 
L 1563 769 
L 2278 3500 
L 2956 3500 
L 3675 769 
L 4391 3500 
L 4966 3500 
L 4050 0 
L 3372 0 
L 2619 2869 
L 1863 0 
L 1184 0 
L 269 3500 
z
" transform="scale(0.015625)"/>
       <path id="DejaVuSans-6e" d="M 3513 2113 
L 3513 0 
L 2938 0 
L 2938 2094 
Q 2938 2591 2744 2837 
Q 2550 3084 2163 3084 
Q 1697 3084 1428 2787 
Q 1159 2491 1159 1978 
L 1159 0 
L 581 0 
L 581 3500 
L 1159 3500 
L 1159 2956 
Q 1366 3272 1645 3428 
Q 1925 3584 2291 3584 
Q 2894 3584 3203 3211 
Q 3513 2838 3513 2113 
z
" transform="scale(0.015625)"/>
       <path id="DejaVuSans-66" d="M 2375 4863 
L 2375 4384 
L 1825 4384 
Q 1516 4384 1395 4259 
Q 1275 4134 1275 3809 
L 1275 3500 
L 2222 3500 
L 2222 3053 
L 1275 3053 
L 1275 0 
L 697 0 
L 697 3053 
L 147 3053 
L 147 3500 
L 697 3500 
L 697 3744 
Q 697 4328 969 4595 
Q 1241 4863 1831 4863 
L 2375 4863 
z
" transform="scale(0.015625)"/>
       <path id="DejaVuSans-6c" d="M 603 4863 
L 1178 4863 
L 1178 0 
L 603 0 
L 603 4863 
z
" transform="scale(0.015625)"/>
       <path id="DejaVuSans-61" d="M 2194 1759 
Q 1497 1759 1228 1600 
Q 959 1441 959 1056 
Q 959 750 1161 570 
Q 1363 391 1709 391 
Q 2188 391 2477 730 
Q 2766 1069 2766 1631 
L 2766 1759 
L 2194 1759 
z
M 3341 1997 
L 3341 0 
L 2766 0 
L 2766 531 
Q 2569 213 2275 61 
Q 1981 -91 1556 -91 
Q 1019 -91 701 211 
Q 384 513 384 1019 
Q 384 1609 779 1909 
Q 1175 2209 1959 2209 
L 2766 2209 
L 2766 2266 
Q 2766 2663 2505 2880 
Q 2244 3097 1772 3097 
Q 1472 3097 1187 3025 
Q 903 2953 641 2809 
L 641 3341 
Q 956 3463 1253 3523 
Q 1550 3584 1831 3584 
Q 2591 3584 2966 3190 
Q 3341 2797 3341 1997 
z
" transform="scale(0.015625)"/>
      </defs>
      <use xlink:href="#DejaVuSans-68"/>
      <use xlink:href="#DejaVuSans-6f" x="63.378906"/>
      <use xlink:href="#DejaVuSans-75" x="124.560547"/>
      <use xlink:href="#DejaVuSans-72" x="187.939453"/>
      <use xlink:href="#DejaVuSans-73" x="229.052734"/>
      <use xlink:href="#DejaVuSans-20" x="281.152344"/>
      <use xlink:href="#DejaVuSans-62" x="312.939453"/>
      <use xlink:href="#DejaVuSans-65" x="376.416016"/>
      <use xlink:href="#DejaVuSans-74" x="437.939453"/>
      <use xlink:href="#DejaVuSans-77" x="477.148438"/>
      <use xlink:href="#DejaVuSans-65" x="558.935547"/>
      <use xlink:href="#DejaVuSans-65" x="620.458984"/>
      <use xlink:href="#DejaVuSans-6e" x="681.982422"/>
      <use xlink:href="#DejaVuSans-20" x="745.361328"/>
      <use xlink:href="#DejaVuSans-66" x="777.148438"/>
      <use xlink:href="#DejaVuSans-6c" x="812.353516"/>
      <use xlink:href="#DejaVuSans-61" x="840.136719"/>
      <use xlink:href="#DejaVuSans-72" x="901.416016"/>
      <use xlink:href="#DejaVuSans-65" x="940.279297"/>
      <use xlink:href="#DejaVuSans-73" x="1001.802734"/>
     </g>
    </g>
   </g>
   <g id="matplotlib.axis_2">
    <g id="ytick_1">
     <g id="line2d_21">
      <path d="M 54 242.116364 
L 388.8 242.116364 
" clip-path="url(#pa7c2fde1dc)" style="fill: none; stroke: #b0b0b0; stroke-width: 0.8; stroke-linecap: square"/>
     </g>
     <g id="line2d_22">
      <defs>
       <path id="m83ccddb308" d="M 0 0 
L -3.5 0 
" style="stroke: #000000; stroke-width: 0.8"/>
      </defs>
      <g>
       <use xlink:href="#m83ccddb308" x="54" y="242.116364" style="stroke: #000000; stroke-width: 0.8"/>
      </g>
     </g>
     <g id="text_12">
      <!-- 0.00 -->
      <g transform="translate(24.734375 245.915582) scale(0.1 -0.1)">
       <defs>
        <path id="DejaVuSans-2e" d="M 684 794 
L 1344 794 
L 1344 0 
L 684 0 
L 684 794 
z
" transform="scale(0.015625)"/>
       </defs>
       <use xlink:href="#DejaVuSans-30"/>
       <use xlink:href="#DejaVuSans-2e" x="63.623047"/>
       <use xlink:href="#DejaVuSans-30" x="95.410156"/>
       <use xlink:href="#DejaVuSans-30" x="159.033203"/>
      </g>
     </g>
    </g>
    <g id="ytick_2">
     <g id="line2d_23">
      <path d="M 54 201.395782 
L 388.8 201.395782 
" clip-path="url(#pa7c2fde1dc)" style="fill: none; stroke: #b0b0b0; stroke-width: 0.8; stroke-linecap: square"/>
     </g>
     <g id="line2d_24">
      <g>
       <use xlink:href="#m83ccddb308" x="54" y="201.395782" style="stroke: #000000; stroke-width: 0.8"/>
      </g>
     </g>
     <g id="text_13">
      <!-- 0.01 -->
      <g transform="translate(24.734375 205.195001) scale(0.1 -0.1)">
       <use xlink:href="#DejaVuSans-30"/>
       <use xlink:href="#DejaVuSans-2e" x="63.623047"/>
       <use xlink:href="#DejaVuSans-30" x="95.410156"/>
       <use xlink:href="#DejaVuSans-31" x="159.033203"/>
      </g>
     </g>
    </g>
    <g id="ytick_3">
     <g id="line2d_25">
      <path d="M 54 160.6752 
L 388.8 160.6752 
" clip-path="url(#pa7c2fde1dc)" style="fill: none; stroke: #b0b0b0; stroke-width: 0.8; stroke-linecap: square"/>
     </g>
     <g id="line2d_26">
      <g>
       <use xlink:href="#m83ccddb308" x="54" y="160.6752" style="stroke: #000000; stroke-width: 0.8"/>
      </g>
     </g>
     <g id="text_14">
      <!-- 0.02 -->
      <g transform="translate(24.734375 164.474419) scale(0.1 -0.1)">
       <use xlink:href="#DejaVuSans-30"/>
       <use xlink:href="#DejaVuSans-2e" x="63.623047"/>
       <use xlink:href="#DejaVuSans-30" x="95.410156"/>
       <use xlink:href="#DejaVuSans-32" x="159.033203"/>
      </g>
     </g>
    </g>
    <g id="ytick_4">
     <g id="line2d_27">
      <path d="M 54 119.954618 
L 388.8 119.954618 
" clip-path="url(#pa7c2fde1dc)" style="fill: none; stroke: #b0b0b0; stroke-width: 0.8; stroke-linecap: square"/>
     </g>
     <g id="line2d_28">
      <g>
       <use xlink:href="#m83ccddb308" x="54" y="119.954618" style="stroke: #000000; stroke-width: 0.8"/>
      </g>
     </g>
     <g id="text_15">
      <!-- 0.03 -->
      <g transform="translate(24.734375 123.753837) scale(0.1 -0.1)">
       <defs>
        <path id="DejaVuSans-33" d="M 2597 2516 
Q 3050 2419 3304 2112 
Q 3559 1806 3559 1356 
Q 3559 666 3084 287 
Q 2609 -91 1734 -91 
Q 1441 -91 1130 -33 
Q 819 25 488 141 
L 488 750 
Q 750 597 1062 519 
Q 1375 441 1716 441 
Q 2309 441 2620 675 
Q 2931 909 2931 1356 
Q 2931 1769 2642 2001 
Q 2353 2234 1838 2234 
L 1294 2234 
L 1294 2753 
L 1863 2753 
Q 2328 2753 2575 2939 
Q 2822 3125 2822 3475 
Q 2822 3834 2567 4026 
Q 2313 4219 1838 4219 
Q 1578 4219 1281 4162 
Q 984 4106 628 3988 
L 628 4550 
Q 988 4650 1302 4700 
Q 1616 4750 1894 4750 
Q 2613 4750 3031 4423 
Q 3450 4097 3450 3541 
Q 3450 3153 3228 2886 
Q 3006 2619 2597 2516 
z
" transform="scale(0.015625)"/>
       </defs>
       <use xlink:href="#DejaVuSans-30"/>
       <use xlink:href="#DejaVuSans-2e" x="63.623047"/>
       <use xlink:href="#DejaVuSans-30" x="95.410156"/>
       <use xlink:href="#DejaVuSans-33" x="159.033203"/>
      </g>
     </g>
    </g>
    <g id="ytick_5">
     <g id="line2d_29">
      <path d="M 54 79.234036 
L 388.8 79.234036 
" clip-path="url(#pa7c2fde1dc)" style="fill: none; stroke: #b0b0b0; stroke-width: 0.8; stroke-linecap: square"/>
     </g>
     <g id="line2d_30">
      <g>
       <use xlink:href="#m83ccddb308" x="54" y="79.234036" style="stroke: #000000; stroke-width: 0.8"/>
      </g>
     </g>
     <g id="text_16">
      <!-- 0.04 -->
      <g transform="translate(24.734375 83.033255) scale(0.1 -0.1)">
       <defs>
        <path id="DejaVuSans-34" d="M 2419 4116 
L 825 1625 
L 2419 1625 
L 2419 4116 
z
M 2253 4666 
L 3047 4666 
L 3047 1625 
L 3713 1625 
L 3713 1100 
L 3047 1100 
L 3047 0 
L 2419 0 
L 2419 1100 
L 313 1100 
L 313 1709 
L 2253 4666 
z
" transform="scale(0.015625)"/>
       </defs>
       <use xlink:href="#DejaVuSans-30"/>
       <use xlink:href="#DejaVuSans-2e" x="63.623047"/>
       <use xlink:href="#DejaVuSans-30" x="95.410156"/>
       <use xlink:href="#DejaVuSans-34" x="159.033203"/>
      </g>
     </g>
    </g>
    <g id="ytick_6">
     <g id="line2d_31">
      <path d="M 54 38.513455 
L 388.8 38.513455 
" clip-path="url(#pa7c2fde1dc)" style="fill: none; stroke: #b0b0b0; stroke-width: 0.8; stroke-linecap: square"/>
     </g>
     <g id="line2d_32">
      <g>
       <use xlink:href="#m83ccddb308" x="54" y="38.513455" style="stroke: #000000; stroke-width: 0.8"/>
      </g>
     </g>
     <g id="text_17">
      <!-- 0.05 -->
      <g transform="translate(24.734375 42.312673) scale(0.1 -0.1)">
       <use xlink:href="#DejaVuSans-30"/>
       <use xlink:href="#DejaVuSans-2e" x="63.623047"/>
       <use xlink:href="#DejaVuSans-30" x="95.410156"/>
       <use xlink:href="#DejaVuSans-35" x="159.033203"/>
      </g>
     </g>
    </g>
    <g id="text_18">
     <!-- PMF -->
     <g transform="translate(18.654688 153.484688) rotate(-90) scale(0.1 -0.1)">
      <defs>
       <path id="DejaVuSans-50" d="M 1259 4147 
L 1259 2394 
L 2053 2394 
Q 2494 2394 2734 2622 
Q 2975 2850 2975 3272 
Q 2975 3691 2734 3919 
Q 2494 4147 2053 4147 
L 1259 4147 
z
M 628 4666 
L 2053 4666 
Q 2838 4666 3239 4311 
Q 3641 3956 3641 3272 
Q 3641 2581 3239 2228 
Q 2838 1875 2053 1875 
L 1259 1875 
L 1259 0 
L 628 0 
L 628 4666 
z
" transform="scale(0.015625)"/>
       <path id="DejaVuSans-4d" d="M 628 4666 
L 1569 4666 
L 2759 1491 
L 3956 4666 
L 4897 4666 
L 4897 0 
L 4281 0 
L 4281 4097 
L 3078 897 
L 2444 897 
L 1241 4097 
L 1241 0 
L 628 0 
L 628 4666 
z
" transform="scale(0.015625)"/>
       <path id="DejaVuSans-46" d="M 628 4666 
L 3309 4666 
L 3309 4134 
L 1259 4134 
L 1259 2759 
L 3109 2759 
L 3109 2228 
L 1259 2228 
L 1259 0 
L 628 0 
L 628 4666 
z
" transform="scale(0.015625)"/>
      </defs>
      <use xlink:href="#DejaVuSans-50"/>
      <use xlink:href="#DejaVuSans-4d" x="60.302734"/>
      <use xlink:href="#DejaVuSans-46" x="146.582031"/>
     </g>
    </g>
   </g>
   <g id="line2d_33">
    <defs>
     <path id="m5db0ba414c" d="M 0 1.5 
C 0.397805 1.5 0.77937 1.341951 1.06066 1.06066 
C 1.341951 0.77937 1.5 0.397805 1.5 0 
C 1.5 -0.397805 1.341951 -0.77937 1.06066 -1.06066 
C 0.77937 -1.341951 0.397805 -1.5 0 -1.5 
C -0.397805 -1.5 -0.77937 -1.341951 -1.06066 -1.06066 
C -1.341951 -0.77937 -1.5 -0.397805 -1.5 0 
C -1.5 0.397805 -1.341951 0.77937 -1.06066 1.06066 
C -0.77937 1.341951 -0.397805 1.5 0 1.5 
z
" style="stroke: #1f77b4"/>
    </defs>
    <g clip-path="url(#pa7c2fde1dc)">
     <use xlink:href="#m5db0ba414c" x="69.218182" y="62.014545" style="fill: #1f77b4; stroke: #1f77b4"/>
     <use xlink:href="#m5db0ba414c" x="70.502417" y="105.941818" style="fill: #1f77b4; stroke: #1f77b4"/>
     <use xlink:href="#m5db0ba414c" x="71.786651" y="101.549091" style="fill: #1f77b4; stroke: #1f77b4"/>
     <use xlink:href="#m5db0ba414c" x="73.070886" y="44.443636" style="fill: #1f77b4; stroke: #1f77b4"/>
     <use xlink:href="#m5db0ba414c" x="74.355121" y="149.869091" style="fill: #1f77b4; stroke: #1f77b4"/>
     <use xlink:href="#m5db0ba414c" x="75.639356" y="123.512727" style="fill: #1f77b4; stroke: #1f77b4"/>
     <use xlink:href="#m5db0ba414c" x="76.92359" y="114.727273" style="fill: #1f77b4; stroke: #1f77b4"/>
     <use xlink:href="#m5db0ba414c" x="78.207825" y="114.727273" style="fill: #1f77b4; stroke: #1f77b4"/>
     <use xlink:href="#m5db0ba414c" x="79.49206" y="62.014545" style="fill: #1f77b4; stroke: #1f77b4"/>
     <use xlink:href="#m5db0ba414c" x="80.776295" y="145.476364" style="fill: #1f77b4; stroke: #1f77b4"/>
     <use xlink:href="#m5db0ba414c" x="82.060529" y="145.476364" style="fill: #1f77b4; stroke: #1f77b4"/>
     <use xlink:href="#m5db0ba414c" x="83.344764" y="145.476364" style="fill: #1f77b4; stroke: #1f77b4"/>
     <use xlink:href="#m5db0ba414c" x="84.628999" y="136.690909" style="fill: #1f77b4; stroke: #1f77b4"/>
     <use xlink:href="#m5db0ba414c" x="85.913234" y="158.654545" style="fill: #1f77b4; stroke: #1f77b4"/>
     <use xlink:href="#m5db0ba414c" x="87.197468" y="149.869091" style="fill: #1f77b4; stroke: #1f77b4"/>
     <use xlink:href="#m5db0ba414c" x="88.481703" y="176.225455" style="fill: #1f77b4; stroke: #1f77b4"/>
     <use xlink:href="#m5db0ba414c" x="89.765938" y="154.261818" style="fill: #1f77b4; stroke: #1f77b4"/>
     <use xlink:href="#m5db0ba414c" x="91.050173" y="163.047273" style="fill: #1f77b4; stroke: #1f77b4"/>
     <use xlink:href="#m5db0ba414c" x="92.334407" y="189.403636" style="fill: #1f77b4; stroke: #1f77b4"/>
     <use xlink:href="#m5db0ba414c" x="93.618642" y="185.010909" style="fill: #1f77b4; stroke: #1f77b4"/>
     <use xlink:href="#m5db0ba414c" x="94.902877" y="163.047273" style="fill: #1f77b4; stroke: #1f77b4"/>
     <use xlink:href="#m5db0ba414c" x="96.187112" y="154.261818" style="fill: #1f77b4; stroke: #1f77b4"/>
     <use xlink:href="#m5db0ba414c" x="97.471346" y="185.010909" style="fill: #1f77b4; stroke: #1f77b4"/>
     <use xlink:href="#m5db0ba414c" x="98.755581" y="167.44" style="fill: #1f77b4; stroke: #1f77b4"/>
     <use xlink:href="#m5db0ba414c" x="100.039816" y="176.225455" style="fill: #1f77b4; stroke: #1f77b4"/>
     <use xlink:href="#m5db0ba414c" x="101.324051" y="206.974545" style="fill: #1f77b4; stroke: #1f77b4"/>
     <use xlink:href="#m5db0ba414c" x="102.608285" y="193.796364" style="fill: #1f77b4; stroke: #1f77b4"/>
     <use xlink:href="#m5db0ba414c" x="103.89252" y="198.189091" style="fill: #1f77b4; stroke: #1f77b4"/>
     <use xlink:href="#m5db0ba414c" x="105.176755" y="189.403636" style="fill: #1f77b4; stroke: #1f77b4"/>
     <use xlink:href="#m5db0ba414c" x="106.46099" y="189.403636" style="fill: #1f77b4; stroke: #1f77b4"/>
     <use xlink:href="#m5db0ba414c" x="107.745224" y="176.225455" style="fill: #1f77b4; stroke: #1f77b4"/>
     <use xlink:href="#m5db0ba414c" x="109.029459" y="202.581818" style="fill: #1f77b4; stroke: #1f77b4"/>
     <use xlink:href="#m5db0ba414c" x="110.313694" y="171.832727" style="fill: #1f77b4; stroke: #1f77b4"/>
     <use xlink:href="#m5db0ba414c" x="111.597929" y="189.403636" style="fill: #1f77b4; stroke: #1f77b4"/>
     <use xlink:href="#m5db0ba414c" x="112.882163" y="228.938182" style="fill: #1f77b4; stroke: #1f77b4"/>
     <use xlink:href="#m5db0ba414c" x="114.166398" y="198.189091" style="fill: #1f77b4; stroke: #1f77b4"/>
     <use xlink:href="#m5db0ba414c" x="115.450633" y="206.974545" style="fill: #1f77b4; stroke: #1f77b4"/>
     <use xlink:href="#m5db0ba414c" x="116.734868" y="202.581818" style="fill: #1f77b4; stroke: #1f77b4"/>
     <use xlink:href="#m5db0ba414c" x="118.019102" y="198.189091" style="fill: #1f77b4; stroke: #1f77b4"/>
     <use xlink:href="#m5db0ba414c" x="119.303337" y="215.76" style="fill: #1f77b4; stroke: #1f77b4"/>
     <use xlink:href="#m5db0ba414c" x="120.587572" y="224.545455" style="fill: #1f77b4; stroke: #1f77b4"/>
     <use xlink:href="#m5db0ba414c" x="121.871807" y="206.974545" style="fill: #1f77b4; stroke: #1f77b4"/>
     <use xlink:href="#m5db0ba414c" x="123.156041" y="202.581818" style="fill: #1f77b4; stroke: #1f77b4"/>
     <use xlink:href="#m5db0ba414c" x="124.440276" y="220.152727" style="fill: #1f77b4; stroke: #1f77b4"/>
     <use xlink:href="#m5db0ba414c" x="125.724511" y="233.330909" style="fill: #1f77b4; stroke: #1f77b4"/>
     <use xlink:href="#m5db0ba414c" x="127.008746" y="220.152727" style="fill: #1f77b4; stroke: #1f77b4"/>
     <use xlink:href="#m5db0ba414c" x="128.29298" y="220.152727" style="fill: #1f77b4; stroke: #1f77b4"/>
     <use xlink:href="#m5db0ba414c" x="129.577215" y="211.367273" style="fill: #1f77b4; stroke: #1f77b4"/>
     <use xlink:href="#m5db0ba414c" x="130.86145" y="206.974545" style="fill: #1f77b4; stroke: #1f77b4"/>
     <use xlink:href="#m5db0ba414c" x="132.145685" y="211.367273" style="fill: #1f77b4; stroke: #1f77b4"/>
     <use xlink:href="#m5db0ba414c" x="133.429919" y="206.974545" style="fill: #1f77b4; stroke: #1f77b4"/>
     <use xlink:href="#m5db0ba414c" x="134.714154" y="228.938182" style="fill: #1f77b4; stroke: #1f77b4"/>
     <use xlink:href="#m5db0ba414c" x="135.998389" y="233.330909" style="fill: #1f77b4; stroke: #1f77b4"/>
     <use xlink:href="#m5db0ba414c" x="137.282624" y="211.367273" style="fill: #1f77b4; stroke: #1f77b4"/>
     <use xlink:href="#m5db0ba414c" x="138.566858" y="233.330909" style="fill: #1f77b4; stroke: #1f77b4"/>
     <use xlink:href="#m5db0ba414c" x="139.851093" y="228.938182" style="fill: #1f77b4; stroke: #1f77b4"/>
     <use xlink:href="#m5db0ba414c" x="141.135328" y="237.723636" style="fill: #1f77b4; stroke: #1f77b4"/>
     <use xlink:href="#m5db0ba414c" x="142.419563" y="215.76" style="fill: #1f77b4; stroke: #1f77b4"/>
     <use xlink:href="#m5db0ba414c" x="143.703797" y="215.76" style="fill: #1f77b4; stroke: #1f77b4"/>
     <use xlink:href="#m5db0ba414c" x="144.988032" y="228.938182" style="fill: #1f77b4; stroke: #1f77b4"/>
     <use xlink:href="#m5db0ba414c" x="146.272267" y="220.152727" style="fill: #1f77b4; stroke: #1f77b4"/>
     <use xlink:href="#m5db0ba414c" x="147.556502" y="224.545455" style="fill: #1f77b4; stroke: #1f77b4"/>
     <use xlink:href="#m5db0ba414c" x="148.840736" y="237.723636" style="fill: #1f77b4; stroke: #1f77b4"/>
     <use xlink:href="#m5db0ba414c" x="150.124971" y="228.938182" style="fill: #1f77b4; stroke: #1f77b4"/>
     <use xlink:href="#m5db0ba414c" x="151.409206" y="237.723636" style="fill: #1f77b4; stroke: #1f77b4"/>
     <use xlink:href="#m5db0ba414c" x="152.693441" y="233.330909" style="fill: #1f77b4; stroke: #1f77b4"/>
     <use xlink:href="#m5db0ba414c" x="153.977675" y="228.938182" style="fill: #1f77b4; stroke: #1f77b4"/>
     <use xlink:href="#m5db0ba414c" x="155.26191" y="237.723636" style="fill: #1f77b4; stroke: #1f77b4"/>
     <use xlink:href="#m5db0ba414c" x="156.546145" y="228.938182" style="fill: #1f77b4; stroke: #1f77b4"/>
     <use xlink:href="#m5db0ba414c" x="157.83038" y="242.116364" style="fill: #1f77b4; stroke: #1f77b4"/>
     <use xlink:href="#m5db0ba414c" x="159.114614" y="228.938182" style="fill: #1f77b4; stroke: #1f77b4"/>
     <use xlink:href="#m5db0ba414c" x="160.398849" y="224.545455" style="fill: #1f77b4; stroke: #1f77b4"/>
     <use xlink:href="#m5db0ba414c" x="161.683084" y="228.938182" style="fill: #1f77b4; stroke: #1f77b4"/>
     <use xlink:href="#m5db0ba414c" x="162.967319" y="228.938182" style="fill: #1f77b4; stroke: #1f77b4"/>
     <use xlink:href="#m5db0ba414c" x="164.251554" y="228.938182" style="fill: #1f77b4; stroke: #1f77b4"/>
     <use xlink:href="#m5db0ba414c" x="165.535788" y="242.116364" style="fill: #1f77b4; stroke: #1f77b4"/>
     <use xlink:href="#m5db0ba414c" x="166.820023" y="228.938182" style="fill: #1f77b4; stroke: #1f77b4"/>
     <use xlink:href="#m5db0ba414c" x="168.104258" y="233.330909" style="fill: #1f77b4; stroke: #1f77b4"/>
     <use xlink:href="#m5db0ba414c" x="169.388493" y="228.938182" style="fill: #1f77b4; stroke: #1f77b4"/>
     <use xlink:href="#m5db0ba414c" x="170.672727" y="228.938182" style="fill: #1f77b4; stroke: #1f77b4"/>
     <use xlink:href="#m5db0ba414c" x="171.956962" y="224.545455" style="fill: #1f77b4; stroke: #1f77b4"/>
     <use xlink:href="#m5db0ba414c" x="173.241197" y="242.116364" style="fill: #1f77b4; stroke: #1f77b4"/>
     <use xlink:href="#m5db0ba414c" x="174.525432" y="224.545455" style="fill: #1f77b4; stroke: #1f77b4"/>
     <use xlink:href="#m5db0ba414c" x="175.809666" y="233.330909" style="fill: #1f77b4; stroke: #1f77b4"/>
     <use xlink:href="#m5db0ba414c" x="177.093901" y="237.723636" style="fill: #1f77b4; stroke: #1f77b4"/>
     <use xlink:href="#m5db0ba414c" x="178.378136" y="242.116364" style="fill: #1f77b4; stroke: #1f77b4"/>
     <use xlink:href="#m5db0ba414c" x="179.662371" y="237.723636" style="fill: #1f77b4; stroke: #1f77b4"/>
     <use xlink:href="#m5db0ba414c" x="180.946605" y="242.116364" style="fill: #1f77b4; stroke: #1f77b4"/>
     <use xlink:href="#m5db0ba414c" x="182.23084" y="237.723636" style="fill: #1f77b4; stroke: #1f77b4"/>
     <use xlink:href="#m5db0ba414c" x="183.515075" y="237.723636" style="fill: #1f77b4; stroke: #1f77b4"/>
     <use xlink:href="#m5db0ba414c" x="184.79931" y="237.723636" style="fill: #1f77b4; stroke: #1f77b4"/>
     <use xlink:href="#m5db0ba414c" x="186.083544" y="237.723636" style="fill: #1f77b4; stroke: #1f77b4"/>
     <use xlink:href="#m5db0ba414c" x="187.367779" y="228.938182" style="fill: #1f77b4; stroke: #1f77b4"/>
     <use xlink:href="#m5db0ba414c" x="188.652014" y="242.116364" style="fill: #1f77b4; stroke: #1f77b4"/>
     <use xlink:href="#m5db0ba414c" x="189.936249" y="242.116364" style="fill: #1f77b4; stroke: #1f77b4"/>
     <use xlink:href="#m5db0ba414c" x="191.220483" y="242.116364" style="fill: #1f77b4; stroke: #1f77b4"/>
     <use xlink:href="#m5db0ba414c" x="192.504718" y="233.330909" style="fill: #1f77b4; stroke: #1f77b4"/>
     <use xlink:href="#m5db0ba414c" x="193.788953" y="233.330909" style="fill: #1f77b4; stroke: #1f77b4"/>
     <use xlink:href="#m5db0ba414c" x="195.073188" y="242.116364" style="fill: #1f77b4; stroke: #1f77b4"/>
     <use xlink:href="#m5db0ba414c" x="196.357422" y="237.723636" style="fill: #1f77b4; stroke: #1f77b4"/>
     <use xlink:href="#m5db0ba414c" x="197.641657" y="242.116364" style="fill: #1f77b4; stroke: #1f77b4"/>
     <use xlink:href="#m5db0ba414c" x="198.925892" y="242.116364" style="fill: #1f77b4; stroke: #1f77b4"/>
     <use xlink:href="#m5db0ba414c" x="200.210127" y="242.116364" style="fill: #1f77b4; stroke: #1f77b4"/>
     <use xlink:href="#m5db0ba414c" x="201.494361" y="242.116364" style="fill: #1f77b4; stroke: #1f77b4"/>
     <use xlink:href="#m5db0ba414c" x="202.778596" y="242.116364" style="fill: #1f77b4; stroke: #1f77b4"/>
     <use xlink:href="#m5db0ba414c" x="204.062831" y="242.116364" style="fill: #1f77b4; stroke: #1f77b4"/>
     <use xlink:href="#m5db0ba414c" x="205.347066" y="242.116364" style="fill: #1f77b4; stroke: #1f77b4"/>
     <use xlink:href="#m5db0ba414c" x="206.6313" y="237.723636" style="fill: #1f77b4; stroke: #1f77b4"/>
     <use xlink:href="#m5db0ba414c" x="207.915535" y="242.116364" style="fill: #1f77b4; stroke: #1f77b4"/>
     <use xlink:href="#m5db0ba414c" x="209.19977" y="242.116364" style="fill: #1f77b4; stroke: #1f77b4"/>
     <use xlink:href="#m5db0ba414c" x="210.484005" y="242.116364" style="fill: #1f77b4; stroke: #1f77b4"/>
     <use xlink:href="#m5db0ba414c" x="211.768239" y="237.723636" style="fill: #1f77b4; stroke: #1f77b4"/>
     <use xlink:href="#m5db0ba414c" x="213.052474" y="242.116364" style="fill: #1f77b4; stroke: #1f77b4"/>
     <use xlink:href="#m5db0ba414c" x="214.336709" y="237.723636" style="fill: #1f77b4; stroke: #1f77b4"/>
     <use xlink:href="#m5db0ba414c" x="215.620944" y="242.116364" style="fill: #1f77b4; stroke: #1f77b4"/>
     <use xlink:href="#m5db0ba414c" x="216.905178" y="242.116364" style="fill: #1f77b4; stroke: #1f77b4"/>
     <use xlink:href="#m5db0ba414c" x="218.189413" y="242.116364" style="fill: #1f77b4; stroke: #1f77b4"/>
     <use xlink:href="#m5db0ba414c" x="219.473648" y="242.116364" style="fill: #1f77b4; stroke: #1f77b4"/>
     <use xlink:href="#m5db0ba414c" x="220.757883" y="242.116364" style="fill: #1f77b4; stroke: #1f77b4"/>
     <use xlink:href="#m5db0ba414c" x="222.042117" y="237.723636" style="fill: #1f77b4; stroke: #1f77b4"/>
     <use xlink:href="#m5db0ba414c" x="223.326352" y="233.330909" style="fill: #1f77b4; stroke: #1f77b4"/>
     <use xlink:href="#m5db0ba414c" x="224.610587" y="242.116364" style="fill: #1f77b4; stroke: #1f77b4"/>
     <use xlink:href="#m5db0ba414c" x="225.894822" y="242.116364" style="fill: #1f77b4; stroke: #1f77b4"/>
     <use xlink:href="#m5db0ba414c" x="227.179056" y="242.116364" style="fill: #1f77b4; stroke: #1f77b4"/>
     <use xlink:href="#m5db0ba414c" x="228.463291" y="237.723636" style="fill: #1f77b4; stroke: #1f77b4"/>
     <use xlink:href="#m5db0ba414c" x="229.747526" y="242.116364" style="fill: #1f77b4; stroke: #1f77b4"/>
     <use xlink:href="#m5db0ba414c" x="231.031761" y="242.116364" style="fill: #1f77b4; stroke: #1f77b4"/>
     <use xlink:href="#m5db0ba414c" x="232.315995" y="242.116364" style="fill: #1f77b4; stroke: #1f77b4"/>
     <use xlink:href="#m5db0ba414c" x="233.60023" y="237.723636" style="fill: #1f77b4; stroke: #1f77b4"/>
     <use xlink:href="#m5db0ba414c" x="234.884465" y="242.116364" style="fill: #1f77b4; stroke: #1f77b4"/>
     <use xlink:href="#m5db0ba414c" x="236.1687" y="242.116364" style="fill: #1f77b4; stroke: #1f77b4"/>
     <use xlink:href="#m5db0ba414c" x="237.452934" y="242.116364" style="fill: #1f77b4; stroke: #1f77b4"/>
     <use xlink:href="#m5db0ba414c" x="238.737169" y="242.116364" style="fill: #1f77b4; stroke: #1f77b4"/>
     <use xlink:href="#m5db0ba414c" x="240.021404" y="242.116364" style="fill: #1f77b4; stroke: #1f77b4"/>
     <use xlink:href="#m5db0ba414c" x="241.305639" y="242.116364" style="fill: #1f77b4; stroke: #1f77b4"/>
     <use xlink:href="#m5db0ba414c" x="242.589873" y="242.116364" style="fill: #1f77b4; stroke: #1f77b4"/>
     <use xlink:href="#m5db0ba414c" x="243.874108" y="242.116364" style="fill: #1f77b4; stroke: #1f77b4"/>
     <use xlink:href="#m5db0ba414c" x="245.158343" y="242.116364" style="fill: #1f77b4; stroke: #1f77b4"/>
     <use xlink:href="#m5db0ba414c" x="246.442578" y="237.723636" style="fill: #1f77b4; stroke: #1f77b4"/>
     <use xlink:href="#m5db0ba414c" x="247.726812" y="237.723636" style="fill: #1f77b4; stroke: #1f77b4"/>
     <use xlink:href="#m5db0ba414c" x="249.011047" y="242.116364" style="fill: #1f77b4; stroke: #1f77b4"/>
     <use xlink:href="#m5db0ba414c" x="250.295282" y="242.116364" style="fill: #1f77b4; stroke: #1f77b4"/>
     <use xlink:href="#m5db0ba414c" x="251.579517" y="242.116364" style="fill: #1f77b4; stroke: #1f77b4"/>
     <use xlink:href="#m5db0ba414c" x="252.863751" y="242.116364" style="fill: #1f77b4; stroke: #1f77b4"/>
     <use xlink:href="#m5db0ba414c" x="254.147986" y="242.116364" style="fill: #1f77b4; stroke: #1f77b4"/>
     <use xlink:href="#m5db0ba414c" x="255.432221" y="242.116364" style="fill: #1f77b4; stroke: #1f77b4"/>
     <use xlink:href="#m5db0ba414c" x="256.716456" y="242.116364" style="fill: #1f77b4; stroke: #1f77b4"/>
     <use xlink:href="#m5db0ba414c" x="258.00069" y="242.116364" style="fill: #1f77b4; stroke: #1f77b4"/>
     <use xlink:href="#m5db0ba414c" x="259.284925" y="242.116364" style="fill: #1f77b4; stroke: #1f77b4"/>
     <use xlink:href="#m5db0ba414c" x="260.56916" y="242.116364" style="fill: #1f77b4; stroke: #1f77b4"/>
     <use xlink:href="#m5db0ba414c" x="261.853395" y="242.116364" style="fill: #1f77b4; stroke: #1f77b4"/>
     <use xlink:href="#m5db0ba414c" x="263.137629" y="242.116364" style="fill: #1f77b4; stroke: #1f77b4"/>
     <use xlink:href="#m5db0ba414c" x="264.421864" y="242.116364" style="fill: #1f77b4; stroke: #1f77b4"/>
     <use xlink:href="#m5db0ba414c" x="265.706099" y="242.116364" style="fill: #1f77b4; stroke: #1f77b4"/>
     <use xlink:href="#m5db0ba414c" x="266.990334" y="242.116364" style="fill: #1f77b4; stroke: #1f77b4"/>
     <use xlink:href="#m5db0ba414c" x="268.274568" y="242.116364" style="fill: #1f77b4; stroke: #1f77b4"/>
     <use xlink:href="#m5db0ba414c" x="269.558803" y="242.116364" style="fill: #1f77b4; stroke: #1f77b4"/>
     <use xlink:href="#m5db0ba414c" x="270.843038" y="242.116364" style="fill: #1f77b4; stroke: #1f77b4"/>
     <use xlink:href="#m5db0ba414c" x="272.127273" y="242.116364" style="fill: #1f77b4; stroke: #1f77b4"/>
     <use xlink:href="#m5db0ba414c" x="273.411507" y="242.116364" style="fill: #1f77b4; stroke: #1f77b4"/>
     <use xlink:href="#m5db0ba414c" x="274.695742" y="242.116364" style="fill: #1f77b4; stroke: #1f77b4"/>
     <use xlink:href="#m5db0ba414c" x="275.979977" y="242.116364" style="fill: #1f77b4; stroke: #1f77b4"/>
     <use xlink:href="#m5db0ba414c" x="277.264212" y="242.116364" style="fill: #1f77b4; stroke: #1f77b4"/>
     <use xlink:href="#m5db0ba414c" x="278.548446" y="242.116364" style="fill: #1f77b4; stroke: #1f77b4"/>
     <use xlink:href="#m5db0ba414c" x="279.832681" y="242.116364" style="fill: #1f77b4; stroke: #1f77b4"/>
     <use xlink:href="#m5db0ba414c" x="281.116916" y="242.116364" style="fill: #1f77b4; stroke: #1f77b4"/>
     <use xlink:href="#m5db0ba414c" x="282.401151" y="242.116364" style="fill: #1f77b4; stroke: #1f77b4"/>
     <use xlink:href="#m5db0ba414c" x="283.685386" y="242.116364" style="fill: #1f77b4; stroke: #1f77b4"/>
     <use xlink:href="#m5db0ba414c" x="284.96962" y="242.116364" style="fill: #1f77b4; stroke: #1f77b4"/>
     <use xlink:href="#m5db0ba414c" x="286.253855" y="242.116364" style="fill: #1f77b4; stroke: #1f77b4"/>
     <use xlink:href="#m5db0ba414c" x="287.53809" y="242.116364" style="fill: #1f77b4; stroke: #1f77b4"/>
     <use xlink:href="#m5db0ba414c" x="288.822325" y="242.116364" style="fill: #1f77b4; stroke: #1f77b4"/>
     <use xlink:href="#m5db0ba414c" x="290.106559" y="242.116364" style="fill: #1f77b4; stroke: #1f77b4"/>
     <use xlink:href="#m5db0ba414c" x="291.390794" y="237.723636" style="fill: #1f77b4; stroke: #1f77b4"/>
     <use xlink:href="#m5db0ba414c" x="292.675029" y="237.723636" style="fill: #1f77b4; stroke: #1f77b4"/>
     <use xlink:href="#m5db0ba414c" x="293.959264" y="242.116364" style="fill: #1f77b4; stroke: #1f77b4"/>
     <use xlink:href="#m5db0ba414c" x="295.243498" y="242.116364" style="fill: #1f77b4; stroke: #1f77b4"/>
     <use xlink:href="#m5db0ba414c" x="296.527733" y="242.116364" style="fill: #1f77b4; stroke: #1f77b4"/>
     <use xlink:href="#m5db0ba414c" x="297.811968" y="242.116364" style="fill: #1f77b4; stroke: #1f77b4"/>
     <use xlink:href="#m5db0ba414c" x="299.096203" y="242.116364" style="fill: #1f77b4; stroke: #1f77b4"/>
     <use xlink:href="#m5db0ba414c" x="300.380437" y="242.116364" style="fill: #1f77b4; stroke: #1f77b4"/>
     <use xlink:href="#m5db0ba414c" x="301.664672" y="242.116364" style="fill: #1f77b4; stroke: #1f77b4"/>
     <use xlink:href="#m5db0ba414c" x="302.948907" y="242.116364" style="fill: #1f77b4; stroke: #1f77b4"/>
     <use xlink:href="#m5db0ba414c" x="304.233142" y="242.116364" style="fill: #1f77b4; stroke: #1f77b4"/>
     <use xlink:href="#m5db0ba414c" x="305.517376" y="242.116364" style="fill: #1f77b4; stroke: #1f77b4"/>
     <use xlink:href="#m5db0ba414c" x="306.801611" y="242.116364" style="fill: #1f77b4; stroke: #1f77b4"/>
     <use xlink:href="#m5db0ba414c" x="308.085846" y="242.116364" style="fill: #1f77b4; stroke: #1f77b4"/>
     <use xlink:href="#m5db0ba414c" x="309.370081" y="242.116364" style="fill: #1f77b4; stroke: #1f77b4"/>
     <use xlink:href="#m5db0ba414c" x="310.654315" y="242.116364" style="fill: #1f77b4; stroke: #1f77b4"/>
     <use xlink:href="#m5db0ba414c" x="311.93855" y="242.116364" style="fill: #1f77b4; stroke: #1f77b4"/>
     <use xlink:href="#m5db0ba414c" x="313.222785" y="242.116364" style="fill: #1f77b4; stroke: #1f77b4"/>
     <use xlink:href="#m5db0ba414c" x="314.50702" y="242.116364" style="fill: #1f77b4; stroke: #1f77b4"/>
     <use xlink:href="#m5db0ba414c" x="315.791254" y="242.116364" style="fill: #1f77b4; stroke: #1f77b4"/>
     <use xlink:href="#m5db0ba414c" x="317.075489" y="242.116364" style="fill: #1f77b4; stroke: #1f77b4"/>
     <use xlink:href="#m5db0ba414c" x="318.359724" y="242.116364" style="fill: #1f77b4; stroke: #1f77b4"/>
     <use xlink:href="#m5db0ba414c" x="319.643959" y="237.723636" style="fill: #1f77b4; stroke: #1f77b4"/>
     <use xlink:href="#m5db0ba414c" x="320.928193" y="242.116364" style="fill: #1f77b4; stroke: #1f77b4"/>
     <use xlink:href="#m5db0ba414c" x="322.212428" y="242.116364" style="fill: #1f77b4; stroke: #1f77b4"/>
     <use xlink:href="#m5db0ba414c" x="323.496663" y="242.116364" style="fill: #1f77b4; stroke: #1f77b4"/>
     <use xlink:href="#m5db0ba414c" x="324.780898" y="242.116364" style="fill: #1f77b4; stroke: #1f77b4"/>
     <use xlink:href="#m5db0ba414c" x="326.065132" y="242.116364" style="fill: #1f77b4; stroke: #1f77b4"/>
     <use xlink:href="#m5db0ba414c" x="327.349367" y="242.116364" style="fill: #1f77b4; stroke: #1f77b4"/>
     <use xlink:href="#m5db0ba414c" x="328.633602" y="242.116364" style="fill: #1f77b4; stroke: #1f77b4"/>
     <use xlink:href="#m5db0ba414c" x="329.917837" y="242.116364" style="fill: #1f77b4; stroke: #1f77b4"/>
     <use xlink:href="#m5db0ba414c" x="331.202071" y="242.116364" style="fill: #1f77b4; stroke: #1f77b4"/>
     <use xlink:href="#m5db0ba414c" x="332.486306" y="242.116364" style="fill: #1f77b4; stroke: #1f77b4"/>
     <use xlink:href="#m5db0ba414c" x="333.770541" y="242.116364" style="fill: #1f77b4; stroke: #1f77b4"/>
     <use xlink:href="#m5db0ba414c" x="335.054776" y="242.116364" style="fill: #1f77b4; stroke: #1f77b4"/>
     <use xlink:href="#m5db0ba414c" x="336.33901" y="242.116364" style="fill: #1f77b4; stroke: #1f77b4"/>
     <use xlink:href="#m5db0ba414c" x="337.623245" y="242.116364" style="fill: #1f77b4; stroke: #1f77b4"/>
     <use xlink:href="#m5db0ba414c" x="338.90748" y="242.116364" style="fill: #1f77b4; stroke: #1f77b4"/>
     <use xlink:href="#m5db0ba414c" x="340.191715" y="242.116364" style="fill: #1f77b4; stroke: #1f77b4"/>
     <use xlink:href="#m5db0ba414c" x="341.475949" y="242.116364" style="fill: #1f77b4; stroke: #1f77b4"/>
     <use xlink:href="#m5db0ba414c" x="342.760184" y="242.116364" style="fill: #1f77b4; stroke: #1f77b4"/>
     <use xlink:href="#m5db0ba414c" x="344.044419" y="242.116364" style="fill: #1f77b4; stroke: #1f77b4"/>
     <use xlink:href="#m5db0ba414c" x="345.328654" y="242.116364" style="fill: #1f77b4; stroke: #1f77b4"/>
     <use xlink:href="#m5db0ba414c" x="346.612888" y="242.116364" style="fill: #1f77b4; stroke: #1f77b4"/>
     <use xlink:href="#m5db0ba414c" x="347.897123" y="242.116364" style="fill: #1f77b4; stroke: #1f77b4"/>
     <use xlink:href="#m5db0ba414c" x="349.181358" y="242.116364" style="fill: #1f77b4; stroke: #1f77b4"/>
     <use xlink:href="#m5db0ba414c" x="350.465593" y="242.116364" style="fill: #1f77b4; stroke: #1f77b4"/>
     <use xlink:href="#m5db0ba414c" x="351.749827" y="242.116364" style="fill: #1f77b4; stroke: #1f77b4"/>
     <use xlink:href="#m5db0ba414c" x="353.034062" y="242.116364" style="fill: #1f77b4; stroke: #1f77b4"/>
     <use xlink:href="#m5db0ba414c" x="354.318297" y="242.116364" style="fill: #1f77b4; stroke: #1f77b4"/>
     <use xlink:href="#m5db0ba414c" x="355.602532" y="242.116364" style="fill: #1f77b4; stroke: #1f77b4"/>
     <use xlink:href="#m5db0ba414c" x="356.886766" y="242.116364" style="fill: #1f77b4; stroke: #1f77b4"/>
     <use xlink:href="#m5db0ba414c" x="358.171001" y="242.116364" style="fill: #1f77b4; stroke: #1f77b4"/>
     <use xlink:href="#m5db0ba414c" x="359.455236" y="242.116364" style="fill: #1f77b4; stroke: #1f77b4"/>
     <use xlink:href="#m5db0ba414c" x="360.739471" y="242.116364" style="fill: #1f77b4; stroke: #1f77b4"/>
     <use xlink:href="#m5db0ba414c" x="362.023705" y="242.116364" style="fill: #1f77b4; stroke: #1f77b4"/>
     <use xlink:href="#m5db0ba414c" x="363.30794" y="242.116364" style="fill: #1f77b4; stroke: #1f77b4"/>
     <use xlink:href="#m5db0ba414c" x="364.592175" y="242.116364" style="fill: #1f77b4; stroke: #1f77b4"/>
     <use xlink:href="#m5db0ba414c" x="365.87641" y="242.116364" style="fill: #1f77b4; stroke: #1f77b4"/>
     <use xlink:href="#m5db0ba414c" x="367.160644" y="242.116364" style="fill: #1f77b4; stroke: #1f77b4"/>
     <use xlink:href="#m5db0ba414c" x="368.444879" y="242.116364" style="fill: #1f77b4; stroke: #1f77b4"/>
     <use xlink:href="#m5db0ba414c" x="369.729114" y="242.116364" style="fill: #1f77b4; stroke: #1f77b4"/>
     <use xlink:href="#m5db0ba414c" x="371.013349" y="242.116364" style="fill: #1f77b4; stroke: #1f77b4"/>
     <use xlink:href="#m5db0ba414c" x="372.297583" y="242.116364" style="fill: #1f77b4; stroke: #1f77b4"/>
     <use xlink:href="#m5db0ba414c" x="373.581818" y="237.723636" style="fill: #1f77b4; stroke: #1f77b4"/>
    </g>
   </g>
   <g id="patch_3">
    <path d="M 54 252 
L 54 34.56 
" style="fill: none; stroke: #000000; stroke-width: 0.8; stroke-linejoin: miter; stroke-linecap: square"/>
   </g>
   <g id="patch_4">
    <path d="M 388.8 252 
L 388.8 34.56 
" style="fill: none; stroke: #000000; stroke-width: 0.8; stroke-linejoin: miter; stroke-linecap: square"/>
   </g>
   <g id="patch_5">
    <path d="M 54 252 
L 388.8 252 
" style="fill: none; stroke: #000000; stroke-width: 0.8; stroke-linejoin: miter; stroke-linecap: square"/>
   </g>
   <g id="patch_6">
    <path d="M 54 34.56 
L 388.8 34.56 
" style="fill: none; stroke: #000000; stroke-width: 0.8; stroke-linejoin: miter; stroke-linecap: square"/>
   </g>
  </g>
 </g>
 <defs>
  <clipPath id="pa7c2fde1dc">
   <rect x="54" y="34.56" width="334.8" height="217.44"/>
  </clipPath>
 </defs>
</svg>
