<?xml version="1.0" encoding="utf-8" standalone="no"?>
<!DOCTYPE svg PUBLIC "-//W3C//DTD SVG 1.1//EN"
  "http://www.w3.org/Graphics/SVG/1.1/DTD/svg11.dtd">
<svg xmlns:xlink="http://www.w3.org/1999/xlink" width="460.8pt" height="345.6pt" viewBox="0 0 460.8 345.6" xmlns="http://www.w3.org/2000/svg" version="1.1">
 <metadata>
  <rdf:RDF xmlns:dc="http://purl.org/dc/elements/1.1/" xmlns:cc="http://creativecommons.org/ns#" xmlns:rdf="http://www.w3.org/1999/02/22-rdf-syntax-ns#">
   <cc:Work>
    <dc:type rdf:resource="http://purl.org/dc/dcmitype/StillImage"/>
    <dc:date>2025-02-17T21:33:59.020146</dc:date>
    <dc:format>image/svg+xml</dc:format>
    <dc:creator>
     <cc:Agent>
      <dc:title>Matplotlib v3.5.2, https://matplotlib.org/</dc:title>
     </cc:Agent>
    </dc:creator>
   </cc:Work>
  </rdf:RDF>
 </metadata>
 <defs>
  <style type="text/css">*{stroke-linejoin: round; stroke-linecap: butt}</style>
 </defs>
 <g id="figure_1">
  <g id="patch_1">
   <path d="M 0 345.6 
L 460.8 345.6 
L 460.8 0 
L 0 0 
L 0 345.6 
z
" style="fill: none"/>
  </g>
  <g id="axes_1">
   <g id="patch_2">
    <path d="M 57.6 307.584 
L 414.72 307.584 
L 414.72 41.472 
L 57.6 41.472 
L 57.6 307.584 
z
" style="fill: none"/>
   </g>
   <g id="patch_3">
    <path d="M -148.918737 307.584 
L -139.990737 307.584 
L -139.990737 307.584 
L -148.918737 307.584 
z
" clip-path="url(#p3890e1e305)" style="fill: #1f77b4"/>
   </g>
   <g id="patch_4">
    <path d="M -139.520842 307.584 
L -130.592842 307.584 
L -130.592842 307.584 
L -139.520842 307.584 
z
" clip-path="url(#p3890e1e305)" style="fill: #1f77b4"/>
   </g>
   <g id="patch_5">
    <path d="M -130.122947 307.584 
L -121.194947 307.584 
L -121.194947 307.584 
L -130.122947 307.584 
z
" clip-path="url(#p3890e1e305)" style="fill: #1f77b4"/>
   </g>
   <g id="patch_6">
    <path d="M -120.725053 307.584 
L -111.797053 307.584 
L -111.797053 307.584 
L -120.725053 307.584 
z
" clip-path="url(#p3890e1e305)" style="fill: #1f77b4"/>
   </g>
   <g id="patch_7">
    <path d="M -111.327158 307.584 
L -102.399158 307.584 
L -102.399158 307.584 
L -111.327158 307.584 
z
" clip-path="url(#p3890e1e305)" style="fill: #1f77b4"/>
   </g>
   <g id="patch_8">
    <path d="M -101.929263 307.584 
L -93.001263 307.584 
L -93.001263 307.584 
L -101.929263 307.584 
z
" clip-path="url(#p3890e1e305)" style="fill: #1f77b4"/>
   </g>
   <g id="patch_9">
    <path d="M -92.531368 307.584 
L -83.603368 307.584 
L -83.603368 307.584 
L -92.531368 307.584 
z
" clip-path="url(#p3890e1e305)" style="fill: #1f77b4"/>
   </g>
   <g id="patch_10">
    <path d="M -83.133474 307.584 
L -74.205474 307.584 
L -74.205474 307.584 
L -83.133474 307.584 
z
" clip-path="url(#p3890e1e305)" style="fill: #1f77b4"/>
   </g>
   <g id="patch_11">
    <path d="M -73.735579 307.584 
L -64.807579 307.584 
L -64.807579 307.584 
L -73.735579 307.584 
z
" clip-path="url(#p3890e1e305)" style="fill: #1f77b4"/>
   </g>
   <g id="patch_12">
    <path d="M -64.337684 307.584 
L -55.409684 307.584 
L -55.409684 307.584 
L -64.337684 307.584 
z
" clip-path="url(#p3890e1e305)" style="fill: #1f77b4"/>
   </g>
   <g id="patch_13">
    <path d="M -54.939789 307.584 
L -46.011789 307.584 
L -46.011789 307.584 
L -54.939789 307.584 
z
" clip-path="url(#p3890e1e305)" style="fill: #1f77b4"/>
   </g>
   <g id="patch_14">
    <path d="M -45.541895 307.584 
L -36.613895 307.584 
L -36.613895 307.584 
L -45.541895 307.584 
z
" clip-path="url(#p3890e1e305)" style="fill: #1f77b4"/>
   </g>
   <g id="patch_15">
    <path d="M -36.144 307.584 
L -27.216 307.584 
L -27.216 307.583998 
L -36.144 307.583998 
z
" clip-path="url(#p3890e1e305)" style="fill: #1f77b4"/>
   </g>
   <g id="patch_16">
    <path d="M -26.746105 307.584 
L -17.818105 307.584 
L -17.818105 307.583993 
L -26.746105 307.583993 
z
" clip-path="url(#p3890e1e305)" style="fill: #1f77b4"/>
   </g>
   <g id="patch_17">
    <path d="M -17.348211 307.584 
L -8.420211 307.584 
L -8.420211 307.583971 
L -17.348211 307.583971 
z
" clip-path="url(#p3890e1e305)" style="fill: #1f77b4"/>
   </g>
   <g id="patch_18">
    <path d="M -7.950316 307.584 
L 0.977684 307.584 
L 0.977684 307.583889 
L -7.950316 307.583889 
z
" clip-path="url(#p3890e1e305)" style="fill: #1f77b4"/>
   </g>
   <g id="patch_19">
    <path d="M 1.447579 307.584 
L 10.375579 307.584 
L 10.375579 307.583606 
L 1.447579 307.583606 
z
" clip-path="url(#p3890e1e305)" style="fill: #1f77b4"/>
   </g>
   <g id="patch_20">
    <path d="M 10.845474 307.584 
L 19.773474 307.584 
L 19.773474 307.5827 
L 10.845474 307.5827 
z
" clip-path="url(#p3890e1e305)" style="fill: #1f77b4"/>
   </g>
   <g id="patch_21">
    <path d="M 20.243368 307.584 
L 29.171368 307.584 
L 29.171368 307.580005 
L 20.243368 307.580005 
z
" clip-path="url(#p3890e1e305)" style="fill: #1f77b4"/>
   </g>
   <g id="patch_22">
    <path d="M 29.641263 307.584 
L 38.569263 307.584 
L 38.569263 307.572506 
L 29.641263 307.572506 
z
" clip-path="url(#p3890e1e305)" style="fill: #1f77b4"/>
   </g>
   <g id="patch_23">
    <path d="M 39.039158 307.584 
L 47.967158 307.584 
L 47.967158 307.552967 
L 39.039158 307.552967 
z
" clip-path="url(#p3890e1e305)" style="fill: #1f77b4"/>
   </g>
   <g id="patch_24">
    <path d="M 48.437053 307.584 
L 57.365053 307.584 
L 57.365053 307.505185 
L 48.437053 307.505185 
z
" clip-path="url(#p3890e1e305)" style="fill: #1f77b4"/>
   </g>
   <g id="patch_25">
    <path d="M 57.834947 307.584 
L 66.762947 307.584 
L 66.762947 307.395322 
L 57.834947 307.395322 
z
" clip-path="url(#p3890e1e305)" style="fill: #1f77b4"/>
   </g>
   <g id="patch_26">
    <path d="M 67.232842 307.584 
L 76.160842 307.584 
L 76.160842 307.157424 
L 67.232842 307.157424 
z
" clip-path="url(#p3890e1e305)" style="fill: #1f77b4"/>
   </g>
   <g id="patch_27">
    <path d="M 76.630737 307.584 
L 85.558737 307.584 
L 85.558737 306.671602 
L 76.630737 306.671602 
z
" clip-path="url(#p3890e1e305)" style="fill: #1f77b4"/>
   </g>
   <g id="patch_28">
    <path d="M 86.028632 307.584 
L 94.956632 307.584 
L 94.956632 305.734874 
L 86.028632 305.734874 
z
" clip-path="url(#p3890e1e305)" style="fill: #1f77b4"/>
   </g>
   <g id="patch_29">
    <path d="M 95.426526 307.584 
L 104.354526 307.584 
L 104.354526 304.027988 
L 95.426526 304.027988 
z
" clip-path="url(#p3890e1e305)" style="fill: #1f77b4"/>
   </g>
   <g id="patch_30">
    <path d="M 104.824421 307.584 
L 113.752421 307.584 
L 113.752421 301.086596 
L 104.824421 301.086596 
z
" clip-path="url(#p3890e1e305)" style="fill: #1f77b4"/>
   </g>
   <g id="patch_31">
    <path d="M 114.222316 307.584 
L 123.150316 307.584 
L 123.150316 296.290893 
L 114.222316 296.290893 
z
" clip-path="url(#p3890e1e305)" style="fill: #1f77b4"/>
   </g>
   <g id="patch_32">
    <path d="M 123.620211 307.584 
L 132.548211 307.584 
L 132.548211 288.891961 
L 123.620211 288.891961 
z
" clip-path="url(#p3890e1e305)" style="fill: #1f77b4"/>
   </g>
   <g id="patch_33">
    <path d="M 133.018105 307.584 
L 141.946105 307.584 
L 141.946105 278.092116 
L 133.018105 278.092116 
z
" clip-path="url(#p3890e1e305)" style="fill: #1f77b4"/>
   </g>
   <g id="patch_34">
    <path d="M 142.416 307.584 
L 151.344 307.584 
L 151.344 263.187615 
L 142.416 263.187615 
z
" clip-path="url(#p3890e1e305)" style="fill: #1f77b4"/>
   </g>
   <g id="patch_35">
    <path d="M 151.813895 307.584 
L 160.741895 307.584 
L 160.741895 243.764197 
L 151.813895 243.764197 
z
" clip-path="url(#p3890e1e305)" style="fill: #1f77b4"/>
   </g>
   <g id="patch_36">
    <path d="M 161.211789 307.584 
L 170.139789 307.584 
L 170.139789 219.912351 
L 161.211789 219.912351 
z
" clip-path="url(#p3890e1e305)" style="fill: #1f77b4"/>
   </g>
   <g id="patch_37">
    <path d="M 170.609684 307.584 
L 179.537684 307.584 
L 179.537684 192.40752 
L 170.609684 192.40752 
z
" clip-path="url(#p3890e1e305)" style="fill: #1f77b4"/>
   </g>
   <g id="patch_38">
    <path d="M 180.007579 307.584 
L 188.935579 307.584 
L 188.935579 162.790711 
L 180.007579 162.790711 
z
" clip-path="url(#p3890e1e305)" style="fill: #1f77b4"/>
   </g>
   <g id="patch_39">
    <path d="M 189.405474 307.584 
L 198.333474 307.584 
L 198.333474 133.295782 
L 189.405474 133.295782 
z
" clip-path="url(#p3890e1e305)" style="fill: #1f77b4"/>
   </g>
   <g id="patch_40">
    <path d="M 198.803368 307.584 
L 207.731368 307.584 
L 207.731368 106.602992 
L 198.803368 106.602992 
z
" clip-path="url(#p3890e1e305)" style="fill: #1f77b4"/>
   </g>
   <g id="patch_41">
    <path d="M 208.201263 307.584 
L 217.129263 307.584 
L 217.129263 85.447096 
L 208.201263 85.447096 
z
" clip-path="url(#p3890e1e305)" style="fill: #1f77b4"/>
   </g>
   <g id="patch_42">
    <path d="M 217.599158 307.584 
L 226.527158 307.584 
L 226.527158 72.156854 
L 217.599158 72.156854 
z
" clip-path="url(#p3890e1e305)" style="fill: #1f77b4"/>
   </g>
   <g id="patch_43">
    <path d="M 226.997053 307.584 
L 235.925053 307.584 
L 235.925053 68.233069 
L 226.997053 68.233069 
z
" clip-path="url(#p3890e1e305)" style="fill: #1f77b4"/>
   </g>
   <g id="patch_44">
    <path d="M 236.394947 307.584 
L 245.322947 307.584 
L 245.322947 74.070896 
L 236.394947 74.070896 
z
" clip-path="url(#p3890e1e305)" style="fill: #1f77b4"/>
   </g>
   <g id="patch_45">
    <path d="M 245.792842 307.584 
L 254.720842 307.584 
L 254.720842 88.897125 
L 245.792842 88.897125 
z
" clip-path="url(#p3890e1e305)" style="fill: #1f77b4"/>
   </g>
   <g id="patch_46">
    <path d="M 255.190737 307.584 
L 264.118737 307.584 
L 264.118737 110.935337 
L 255.190737 110.935337 
z
" clip-path="url(#p3890e1e305)" style="fill: #1f77b4"/>
   </g>
   <g id="patch_47">
    <path d="M 264.588632 307.584 
L 273.516632 307.584 
L 273.516632 137.751064 
L 264.588632 137.751064 
z
" clip-path="url(#p3890e1e305)" style="fill: #1f77b4"/>
   </g>
   <g id="patch_48">
    <path d="M 273.986526 307.584 
L 282.914526 307.584 
L 282.914526 166.685564 
L 273.986526 166.685564 
z
" clip-path="url(#p3890e1e305)" style="fill: #1f77b4"/>
   </g>
   <g id="patch_49">
    <path d="M 283.384421 307.584 
L 292.312421 307.584 
L 292.312421 195.273653 
L 283.384421 195.273653 
z
" clip-path="url(#p3890e1e305)" style="fill: #1f77b4"/>
   </g>
   <g id="patch_50">
    <path d="M 292.782316 307.584 
L 301.710316 307.584 
L 301.710316 221.559053 
L 292.782316 221.559053 
z
" clip-path="url(#p3890e1e305)" style="fill: #1f77b4"/>
   </g>
   <g id="patch_51">
    <path d="M 302.180211 307.584 
L 311.108211 307.584 
L 311.108211 244.260081 
L 302.180211 244.260081 
z
" clip-path="url(#p3890e1e305)" style="fill: #1f77b4"/>
   </g>
   <g id="patch_52">
    <path d="M 311.578105 307.584 
L 320.506105 307.584 
L 320.506105 262.783404 
L 311.578105 262.783404 
z
" clip-path="url(#p3890e1e305)" style="fill: #1f77b4"/>
   </g>
   <g id="patch_53">
    <path d="M 320.976 307.584 
L 329.904 307.584 
L 329.904 277.119595 
L 320.976 277.119595 
z
" clip-path="url(#p3890e1e305)" style="fill: #1f77b4"/>
   </g>
   <g id="patch_54">
    <path d="M 330.373895 307.584 
L 339.301895 307.584 
L 339.301895 287.672624 
L 330.373895 287.672624 
z
" clip-path="url(#p3890e1e305)" style="fill: #1f77b4"/>
   </g>
   <g id="patch_55">
    <path d="M 339.771789 307.584 
L 348.699789 307.584 
L 348.699789 295.075571 
L 339.771789 295.075571 
z
" clip-path="url(#p3890e1e305)" style="fill: #1f77b4"/>
   </g>
   <g id="patch_56">
    <path d="M 349.169684 307.584 
L 358.097684 307.584 
L 358.097684 300.031741 
L 349.169684 300.031741 
z
" clip-path="url(#p3890e1e305)" style="fill: #1f77b4"/>
   </g>
   <g id="patch_57">
    <path d="M 358.567579 307.584 
L 367.495579 307.584 
L 367.495579 303.201825 
L 358.567579 303.201825 
z
" clip-path="url(#p3890e1e305)" style="fill: #1f77b4"/>
   </g>
   <g id="patch_58">
    <path d="M 367.965474 307.584 
L 376.893474 307.584 
L 376.893474 305.140606 
L 367.965474 305.140606 
z
" clip-path="url(#p3890e1e305)" style="fill: #1f77b4"/>
   </g>
   <g id="patch_59">
    <path d="M 377.363368 307.584 
L 386.291368 307.584 
L 386.291368 306.275039 
L 377.363368 306.275039 
z
" clip-path="url(#p3890e1e305)" style="fill: #1f77b4"/>
   </g>
   <g id="patch_60">
    <path d="M 386.761263 307.584 
L 395.689263 307.584 
L 395.689263 306.910382 
L 386.761263 306.910382 
z
" clip-path="url(#p3890e1e305)" style="fill: #1f77b4"/>
   </g>
   <g id="patch_61">
    <path d="M 396.159158 307.584 
L 405.087158 307.584 
L 405.087158 307.251063 
L 396.159158 307.251063 
z
" clip-path="url(#p3890e1e305)" style="fill: #1f77b4"/>
   </g>
   <g id="patch_62">
    <path d="M 405.557053 307.584 
L 414.485053 307.584 
L 414.485053 307.425996 
L 405.557053 307.425996 
z
" clip-path="url(#p3890e1e305)" style="fill: #1f77b4"/>
   </g>
   <g id="patch_63">
    <path d="M 414.954947 307.584 
L 423.882947 307.584 
L 423.882947 307.51202 
L 414.954947 307.51202 
z
" clip-path="url(#p3890e1e305)" style="fill: #1f77b4"/>
   </g>
   <g id="patch_64">
    <path d="M 424.352842 307.584 
L 433.280842 307.584 
L 433.280842 307.552533 
L 424.352842 307.552533 
z
" clip-path="url(#p3890e1e305)" style="fill: #1f77b4"/>
   </g>
   <g id="patch_65">
    <path d="M 433.750737 307.584 
L 442.678737 307.584 
L 442.678737 307.570804 
L 433.750737 307.570804 
z
" clip-path="url(#p3890e1e305)" style="fill: #1f77b4"/>
   </g>
   <g id="patch_66">
    <path d="M 443.148632 307.584 
L 452.076632 307.584 
L 452.076632 307.578694 
L 443.148632 307.578694 
z
" clip-path="url(#p3890e1e305)" style="fill: #1f77b4"/>
   </g>
   <g id="patch_67">
    <path d="M 452.546526 307.584 
L 461.474526 307.584 
L 461.474526 307.581955 
L 452.546526 307.581955 
z
" clip-path="url(#p3890e1e305)" style="fill: #1f77b4"/>
   </g>
   <g id="patch_68">
    <path d="M 461.944421 307.584 
L 470.872421 307.584 
L 470.872421 307.583245 
L 461.944421 307.583245 
z
" clip-path="url(#p3890e1e305)" style="fill: #1f77b4"/>
   </g>
   <g id="patch_69">
    <path d="M 471.342316 307.584 
L 480.270316 307.584 
L 480.270316 307.583733 
L 471.342316 307.583733 
z
" clip-path="url(#p3890e1e305)" style="fill: #1f77b4"/>
   </g>
   <g id="patch_70">
    <path d="M 480.740211 307.584 
L 489.668211 307.584 
L 489.668211 307.58391 
L 480.740211 307.58391 
z
" clip-path="url(#p3890e1e305)" style="fill: #1f77b4"/>
   </g>
   <g id="patch_71">
    <path d="M 490.138105 307.584 
L 499.066105 307.584 
L 499.066105 307.583971 
L 490.138105 307.583971 
z
" clip-path="url(#p3890e1e305)" style="fill: #1f77b4"/>
   </g>
   <g id="patch_72">
    <path d="M 499.536 307.584 
L 508.464 307.584 
L 508.464 307.583991 
L 499.536 307.583991 
z
" clip-path="url(#p3890e1e305)" style="fill: #1f77b4"/>
   </g>
   <g id="patch_73">
    <path d="M 508.933895 307.584 
L 517.861895 307.584 
L 517.861895 307.583997 
L 508.933895 307.583997 
z
" clip-path="url(#p3890e1e305)" style="fill: #1f77b4"/>
   </g>
   <g id="patch_74">
    <path d="M 518.331789 307.584 
L 527.259789 307.584 
L 527.259789 307.583999 
L 518.331789 307.583999 
z
" clip-path="url(#p3890e1e305)" style="fill: #1f77b4"/>
   </g>
   <g id="patch_75">
    <path d="M 527.729684 307.584 
L 536.657684 307.584 
L 536.657684 307.584 
L 527.729684 307.584 
z
" clip-path="url(#p3890e1e305)" style="fill: #1f77b4"/>
   </g>
   <g id="patch_76">
    <path d="M 537.127579 307.584 
L 546.055579 307.584 
L 546.055579 307.584 
L 537.127579 307.584 
z
" clip-path="url(#p3890e1e305)" style="fill: #1f77b4"/>
   </g>
   <g id="patch_77">
    <path d="M 546.525474 307.584 
L 555.453474 307.584 
L 555.453474 307.584 
L 546.525474 307.584 
z
" clip-path="url(#p3890e1e305)" style="fill: #1f77b4"/>
   </g>
   <g id="patch_78">
    <path d="M 555.923368 307.584 
L 564.851368 307.584 
L 564.851368 307.584 
L 555.923368 307.584 
z
" clip-path="url(#p3890e1e305)" style="fill: #1f77b4"/>
   </g>
   <g id="patch_79">
    <path d="M 565.321263 307.584 
L 574.249263 307.584 
L 574.249263 307.584 
L 565.321263 307.584 
z
" clip-path="url(#p3890e1e305)" style="fill: #1f77b4"/>
   </g>
   <g id="patch_80">
    <path d="M 574.719158 307.584 
L 583.647158 307.584 
L 583.647158 307.584 
L 574.719158 307.584 
z
" clip-path="url(#p3890e1e305)" style="fill: #1f77b4"/>
   </g>
   <g id="patch_81">
    <path d="M 584.117053 307.584 
L 593.045053 307.584 
L 593.045053 307.584 
L 584.117053 307.584 
z
" clip-path="url(#p3890e1e305)" style="fill: #1f77b4"/>
   </g>
   <g id="patch_82">
    <path d="M 593.514947 307.584 
L 602.442947 307.584 
L 602.442947 307.584 
L 593.514947 307.584 
z
" clip-path="url(#p3890e1e305)" style="fill: #1f77b4"/>
   </g>
   <g id="patch_83">
    <path d="M 602.912842 307.584 
L 611.840842 307.584 
L 611.840842 307.584 
L 602.912842 307.584 
z
" clip-path="url(#p3890e1e305)" style="fill: #1f77b4"/>
   </g>
   <g id="patch_84">
    <path d="M 612.310737 307.584 
L 621.238737 307.584 
L 621.238737 307.584 
L 612.310737 307.584 
z
" clip-path="url(#p3890e1e305)" style="fill: #1f77b4"/>
   </g>
   <g id="patch_85">
    <path d="M 621.708632 307.584 
L 630.636632 307.584 
L 630.636632 307.584 
L 621.708632 307.584 
z
" clip-path="url(#p3890e1e305)" style="fill: #1f77b4"/>
   </g>
   <g id="patch_86">
    <path d="M 631.106526 307.584 
L 640.034526 307.584 
L 640.034526 307.584 
L 631.106526 307.584 
z
" clip-path="url(#p3890e1e305)" style="fill: #1f77b4"/>
   </g>
   <g id="patch_87">
    <path d="M 640.504421 307.584 
L 649.432421 307.584 
L 649.432421 307.584 
L 640.504421 307.584 
z
" clip-path="url(#p3890e1e305)" style="fill: #1f77b4"/>
   </g>
   <g id="patch_88">
    <path d="M 649.902316 307.584 
L 658.830316 307.584 
L 658.830316 307.584 
L 649.902316 307.584 
z
" clip-path="url(#p3890e1e305)" style="fill: #1f77b4"/>
   </g>
   <g id="patch_89">
    <path d="M 659.300211 307.584 
L 668.228211 307.584 
L 668.228211 307.584 
L 659.300211 307.584 
z
" clip-path="url(#p3890e1e305)" style="fill: #1f77b4"/>
   </g>
   <g id="patch_90">
    <path d="M 668.698105 307.584 
L 677.626105 307.584 
L 677.626105 307.584 
L 668.698105 307.584 
z
" clip-path="url(#p3890e1e305)" style="fill: #1f77b4"/>
   </g>
   <g id="patch_91">
    <path d="M 678.096 307.584 
L 687.024 307.584 
L 687.024 307.584 
L 678.096 307.584 
z
" clip-path="url(#p3890e1e305)" style="fill: #1f77b4"/>
   </g>
   <g id="patch_92">
    <path d="M 687.493895 307.584 
L 696.421895 307.584 
L 696.421895 307.584 
L 687.493895 307.584 
z
" clip-path="url(#p3890e1e305)" style="fill: #1f77b4"/>
   </g>
   <g id="patch_93">
    <path d="M 696.891789 307.584 
L 705.819789 307.584 
L 705.819789 307.584 
L 696.891789 307.584 
z
" clip-path="url(#p3890e1e305)" style="fill: #1f77b4"/>
   </g>
   <g id="patch_94">
    <path d="M 706.289684 307.584 
L 715.217684 307.584 
L 715.217684 307.584 
L 706.289684 307.584 
z
" clip-path="url(#p3890e1e305)" style="fill: #1f77b4"/>
   </g>
   <g id="patch_95">
    <path d="M 715.687579 307.584 
L 724.615579 307.584 
L 724.615579 307.584 
L 715.687579 307.584 
z
" clip-path="url(#p3890e1e305)" style="fill: #1f77b4"/>
   </g>
   <g id="patch_96">
    <path d="M 725.085474 307.584 
L 734.013474 307.584 
L 734.013474 307.584 
L 725.085474 307.584 
z
" clip-path="url(#p3890e1e305)" style="fill: #1f77b4"/>
   </g>
   <g id="patch_97">
    <path d="M 734.483368 307.584 
L 743.411368 307.584 
L 743.411368 307.584 
L 734.483368 307.584 
z
" clip-path="url(#p3890e1e305)" style="fill: #1f77b4"/>
   </g>
   <g id="patch_98">
    <path d="M 743.881263 307.584 
L 752.809263 307.584 
L 752.809263 307.584 
L 743.881263 307.584 
z
" clip-path="url(#p3890e1e305)" style="fill: #1f77b4"/>
   </g>
   <g id="patch_99">
    <path d="M 753.279158 307.584 
L 762.207158 307.584 
L 762.207158 307.584 
L 753.279158 307.584 
z
" clip-path="url(#p3890e1e305)" style="fill: #1f77b4"/>
   </g>
   <g id="patch_100">
    <path d="M 762.677053 307.584 
L 771.605053 307.584 
L 771.605053 307.584 
L 762.677053 307.584 
z
" clip-path="url(#p3890e1e305)" style="fill: #1f77b4"/>
   </g>
   <g id="patch_101">
    <path d="M 772.074947 307.584 
L 781.002947 307.584 
L 781.002947 307.584 
L 772.074947 307.584 
z
" clip-path="url(#p3890e1e305)" style="fill: #1f77b4"/>
   </g>
   <g id="patch_102">
    <path d="M 781.472842 307.584 
L 790.400842 307.584 
L 790.400842 307.584 
L 781.472842 307.584 
z
" clip-path="url(#p3890e1e305)" style="fill: #1f77b4"/>
   </g>
   <g id="matplotlib.axis_1">
    <g id="xtick_1">
     <g id="line2d_1">
      <defs>
       <path id="ma41df08a57" d="M 0 0 
L 0 3.5 
" style="stroke: #000000; stroke-width: 0.8"/>
      </defs>
      <g>
       <use xlink:href="#ma41df08a57" x="90.492632" y="307.584" style="stroke: #000000; stroke-width: 0.8"/>
      </g>
     </g>
     <g id="text_1">
      <!-- $\mathdefault{25}$ -->
      <g transform="translate(85.511296 321.502498)scale(0.1 -0.1)">
       <defs>
        <path id="CMR17-32" d="M 2669 989 
L 2554 989 
C 2490 536 2438 459 2413 420 
C 2381 369 1920 369 1830 369 
L 602 369 
C 832 619 1280 1072 1824 1597 
C 2214 1967 2669 2402 2669 3035 
C 2669 3790 2067 4224 1395 4224 
C 691 4224 262 3604 262 3030 
C 262 2780 448 2748 525 2748 
C 589 2748 781 2787 781 3010 
C 781 3207 614 3264 525 3264 
C 486 3264 448 3258 422 3245 
C 544 3790 915 4058 1306 4058 
C 1862 4058 2227 3617 2227 3035 
C 2227 2479 1901 2000 1536 1584 
L 262 146 
L 262 0 
L 2515 0 
L 2669 989 
z
" transform="scale(0.015625)"/>
        <path id="CMR17-35" d="M 730 3692 
C 794 3666 1056 3584 1325 3584 
C 1920 3584 2246 3911 2432 4100 
C 2432 4157 2432 4192 2394 4192 
C 2387 4192 2374 4192 2323 4163 
C 2099 4058 1837 3973 1517 3973 
C 1325 3973 1037 3999 723 4139 
C 653 4171 640 4171 634 4171 
C 602 4171 595 4164 595 4037 
L 595 2203 
C 595 2089 595 2057 659 2057 
C 691 2057 704 2070 736 2114 
C 941 2401 1222 2522 1542 2522 
C 1766 2522 2246 2382 2246 1289 
C 2246 1085 2246 715 2054 421 
C 1894 159 1645 25 1370 25 
C 947 25 518 320 403 814 
C 429 807 480 795 506 795 
C 589 795 749 840 749 1038 
C 749 1210 627 1280 506 1280 
C 358 1280 262 1190 262 1011 
C 262 454 704 -128 1382 -128 
C 2042 -128 2669 440 2669 1264 
C 2669 2030 2170 2624 1549 2624 
C 1222 2624 947 2503 730 2274 
L 730 3692 
z
" transform="scale(0.015625)"/>
       </defs>
       <use xlink:href="#CMR17-32" transform="scale(0.996264)"/>
       <use xlink:href="#CMR17-35" transform="translate(45.690477 0)scale(0.996264)"/>
      </g>
     </g>
    </g>
    <g id="xtick_2">
     <g id="line2d_2">
      <g>
       <use xlink:href="#ma41df08a57" x="137.482105" y="307.584" style="stroke: #000000; stroke-width: 0.8"/>
      </g>
     </g>
     <g id="text_2">
      <!-- $\mathdefault{30}$ -->
      <g transform="translate(132.50077 321.502498)scale(0.1 -0.1)">
       <defs>
        <path id="CMR17-33" d="M 1414 2157 
C 1984 2157 2234 1662 2234 1090 
C 2234 320 1824 25 1453 25 
C 1114 25 563 194 390 693 
C 422 680 454 680 486 680 
C 640 680 755 782 755 948 
C 755 1133 614 1216 486 1216 
C 378 1216 211 1165 211 926 
C 211 335 787 -128 1466 -128 
C 2176 -128 2720 430 2720 1085 
C 2720 1707 2208 2157 1600 2227 
C 2086 2328 2554 2756 2554 3329 
C 2554 3820 2048 4179 1472 4179 
C 890 4179 378 3829 378 3329 
C 378 3110 544 3072 627 3072 
C 762 3072 877 3155 877 3321 
C 877 3486 762 3569 627 3569 
C 602 3569 570 3569 544 3557 
C 730 3959 1235 4032 1459 4032 
C 1683 4032 2106 3925 2106 3320 
C 2106 3143 2080 2828 1862 2550 
C 1670 2304 1453 2304 1242 2284 
C 1210 2284 1062 2269 1037 2269 
C 992 2263 966 2257 966 2208 
C 966 2163 973 2157 1101 2157 
L 1414 2157 
z
" transform="scale(0.015625)"/>
        <path id="CMR17-30" d="M 2688 2025 
C 2688 2416 2682 3080 2413 3591 
C 2176 4039 1798 4198 1466 4198 
C 1158 4198 768 4058 525 3597 
C 269 3118 243 2524 243 2025 
C 243 1661 250 1106 448 619 
C 723 -39 1216 -128 1466 -128 
C 1760 -128 2208 -7 2470 600 
C 2662 1042 2688 1559 2688 2025 
z
M 1466 -26 
C 1056 -26 813 325 723 812 
C 653 1188 653 1738 653 2096 
C 653 2588 653 2997 736 3387 
C 858 3929 1216 4096 1466 4096 
C 1728 4096 2067 3923 2189 3400 
C 2272 3036 2278 2607 2278 2096 
C 2278 1680 2278 1169 2202 792 
C 2067 95 1690 -26 1466 -26 
z
" transform="scale(0.015625)"/>
       </defs>
       <use xlink:href="#CMR17-33" transform="scale(0.996264)"/>
       <use xlink:href="#CMR17-30" transform="translate(45.690477 0)scale(0.996264)"/>
      </g>
     </g>
    </g>
    <g id="xtick_3">
     <g id="line2d_3">
      <g>
       <use xlink:href="#ma41df08a57" x="184.471579" y="307.584" style="stroke: #000000; stroke-width: 0.8"/>
      </g>
     </g>
     <g id="text_3">
      <!-- $\mathdefault{35}$ -->
      <g transform="translate(179.490244 321.502498)scale(0.1 -0.1)">
       <use xlink:href="#CMR17-33" transform="scale(0.996264)"/>
       <use xlink:href="#CMR17-35" transform="translate(45.690477 0)scale(0.996264)"/>
      </g>
     </g>
    </g>
    <g id="xtick_4">
     <g id="line2d_4">
      <g>
       <use xlink:href="#ma41df08a57" x="231.461053" y="307.584" style="stroke: #000000; stroke-width: 0.8"/>
      </g>
     </g>
     <g id="text_4">
      <!-- $\mathdefault{40}$ -->
      <g transform="translate(226.479717 321.502498)scale(0.1 -0.1)">
       <defs>
        <path id="CMR17-34" d="M 2150 4122 
C 2150 4256 2144 4256 2029 4256 
L 128 1254 
L 128 1088 
L 1779 1088 
L 1779 457 
C 1779 224 1766 160 1318 160 
L 1197 160 
L 1197 0 
C 1402 0 1747 0 1965 0 
C 2182 0 2528 0 2733 0 
L 2733 160 
L 2611 160 
C 2163 160 2150 224 2150 457 
L 2150 1088 
L 2803 1088 
L 2803 1254 
L 2150 1254 
L 2150 4122 
z
M 1798 3703 
L 1798 1254 
L 256 1254 
L 1798 3703 
z
" transform="scale(0.015625)"/>
       </defs>
       <use xlink:href="#CMR17-34" transform="scale(0.996264)"/>
       <use xlink:href="#CMR17-30" transform="translate(45.690477 0)scale(0.996264)"/>
      </g>
     </g>
    </g>
    <g id="xtick_5">
     <g id="line2d_5">
      <g>
       <use xlink:href="#ma41df08a57" x="278.450526" y="307.584" style="stroke: #000000; stroke-width: 0.8"/>
      </g>
     </g>
     <g id="text_5">
      <!-- $\mathdefault{45}$ -->
      <g transform="translate(273.469191 321.502498)scale(0.1 -0.1)">
       <use xlink:href="#CMR17-34" transform="scale(0.996264)"/>
       <use xlink:href="#CMR17-35" transform="translate(45.690477 0)scale(0.996264)"/>
      </g>
     </g>
    </g>
    <g id="xtick_6">
     <g id="line2d_6">
      <g>
       <use xlink:href="#ma41df08a57" x="325.44" y="307.584" style="stroke: #000000; stroke-width: 0.8"/>
      </g>
     </g>
     <g id="text_6">
      <!-- $\mathdefault{50}$ -->
      <g transform="translate(320.458665 321.502498)scale(0.1 -0.1)">
       <use xlink:href="#CMR17-35" transform="scale(0.996264)"/>
       <use xlink:href="#CMR17-30" transform="translate(45.690477 0)scale(0.996264)"/>
      </g>
     </g>
    </g>
    <g id="xtick_7">
     <g id="line2d_7">
      <g>
       <use xlink:href="#ma41df08a57" x="372.429474" y="307.584" style="stroke: #000000; stroke-width: 0.8"/>
      </g>
     </g>
     <g id="text_7">
      <!-- $\mathdefault{55}$ -->
      <g transform="translate(367.448138 321.502498)scale(0.1 -0.1)">
       <use xlink:href="#CMR17-35" transform="scale(0.996264)"/>
       <use xlink:href="#CMR17-35" transform="translate(45.690477 0)scale(0.996264)"/>
      </g>
     </g>
    </g>
    <g id="text_8">
     <!-- \# heads in experiment -->
     <g transform="translate(186.443566 334.358175)scale(0.1 -0.1)">
      <defs>
       <path id="CMR17-23" d="M 3104 896 
L 4422 896 
C 4531 896 4640 896 4640 1011 
C 4640 1119 4544 1119 4448 1119 
L 3168 1119 
L 3386 2017 
L 4448 2017 
C 4544 2017 4640 2017 4640 2125 
C 4640 2240 4531 2240 4422 2240 
L 3450 2240 
L 3942 4184 
C 3962 4248 3968 4280 3968 4300 
C 3968 4364 3917 4416 3853 4416 
C 3763 4416 3744 4326 3731 4275 
L 3219 2240 
L 2061 2240 
L 2554 4184 
C 2573 4248 2579 4280 2579 4300 
C 2579 4364 2528 4416 2464 4416 
C 2374 4416 2355 4326 2342 4275 
L 1830 2240 
L 512 2240 
C 403 2240 294 2240 294 2125 
C 294 2017 390 2017 486 2017 
L 1766 2017 
L 1549 1119 
L 486 1119 
C 390 1119 294 1119 294 1011 
C 294 896 403 896 512 896 
L 1485 896 
L 992 -1020 
C 973 -1083 966 -1114 966 -1134 
C 966 -1197 1018 -1248 1082 -1248 
C 1171 -1248 1190 -1159 1203 -1109 
L 1715 896 
L 2874 896 
L 2381 -1020 
C 2362 -1083 2355 -1114 2355 -1134 
C 2355 -1197 2406 -1248 2470 -1248 
C 2560 -1248 2579 -1159 2592 -1109 
L 3104 896 
z
M 1779 1119 
L 1997 2017 
L 3155 2017 
L 2938 1119 
L 1779 1119 
z
" transform="scale(0.015625)"/>
       <path id="CMR17-68" d="M 2656 1933 
C 2656 2259 2592 2790 1837 2790 
C 1312 2790 1056 2368 979 2157 
L 973 2157 
L 973 4396 
L 211 4326 
L 211 4160 
C 589 4160 646 4122 646 3817 
L 646 426 
C 646 184 621 153 211 153 
L 211 -13 
C 365 0 646 0 813 0 
C 979 0 1267 0 1421 -13 
L 1421 153 
C 1011 153 986 178 986 428 
L 986 1658 
C 986 2247 1344 2688 1792 2688 
C 2266 2688 2317 2266 2317 1958 
L 2317 428 
C 2317 184 2291 153 1882 153 
L 1882 -13 
C 2035 0 2317 0 2483 0 
C 2650 0 2938 0 3091 -13 
L 3091 153 
C 2682 153 2656 178 2656 428 
L 2656 1933 
z
" transform="scale(0.015625)"/>
       <path id="CMR17-65" d="M 2438 1472 
C 2464 1498 2464 1511 2464 1576 
C 2464 2238 2118 2816 1389 2816 
C 710 2816 173 2169 173 1383 
C 173 551 781 -64 1459 -64 
C 2176 -64 2458 607 2458 740 
C 2458 784 2419 784 2406 784 
C 2362 784 2355 771 2330 696 
C 2189 265 1837 51 1504 51 
C 1229 51 954 203 781 480 
C 582 803 582 1176 582 1472 
L 2438 1472 
z
M 589 1568 
C 634 2505 1126 2714 1382 2714 
C 1818 2714 2112 2297 2118 1568 
L 589 1568 
z
" transform="scale(0.015625)"/>
       <path id="CMR17-61" d="M 2304 1653 
C 2304 2072 2304 2294 2035 2543 
C 1798 2752 1523 2816 1306 2816 
C 800 2816 435 2407 435 1971 
C 435 1728 627 1728 666 1728 
C 749 1728 896 1778 896 1954 
C 896 2112 774 2181 666 2181 
C 640 2181 608 2174 589 2168 
C 723 2592 1069 2714 1293 2714 
C 1613 2714 1965 2429 1965 1885 
L 1965 1600 
C 1587 1600 1133 1549 774 1357 
C 371 1133 256 813 256 570 
C 256 77 832 -64 1171 -64 
C 1523 -64 1850 139 1990 511 
C 2003 233 2182 -18 2464 -18 
C 2598 -18 2938 70 2938 567 
L 2938 920 
L 2822 920 
L 2822 562 
C 2822 178 2650 128 2566 128 
C 2304 128 2304 458 2304 738 
L 2304 1653 
z
M 1965 870 
C 1965 317 1568 38 1216 38 
C 896 38 646 275 646 570 
C 646 761 730 1100 1101 1305 
C 1408 1478 1760 1504 1965 1504 
L 1965 870 
z
" transform="scale(0.015625)"/>
       <path id="CMR17-64" d="M 1869 4326 
L 1869 4160 
C 2246 4160 2304 4122 2304 3820 
L 2304 2345 
C 2278 2377 2016 2790 1498 2790 
C 845 2790 211 2208 211 1364 
C 211 525 806 -64 1434 -64 
C 1978 -64 2259 337 2291 380 
L 2291 -63 
L 3066 -63 
L 3066 128 
C 2688 128 2630 166 2630 473 
L 2630 4396 
L 1869 4326 
z
M 2291 755 
C 2291 563 2176 390 2029 262 
C 1811 70 1594 38 1472 38 
C 1286 38 621 134 621 1356 
C 621 2612 1363 2688 1530 2688 
C 1824 2688 2061 2522 2208 2291 
C 2291 2157 2291 2138 2291 2023 
L 2291 755 
z
" transform="scale(0.015625)"/>
       <path id="CMR17-73" d="M 1978 2697 
C 1978 2813 1971 2819 1933 2819 
C 1907 2819 1901 2813 1824 2717 
C 1805 2691 1747 2626 1728 2601 
C 1523 2819 1235 2819 1126 2819 
C 416 2819 160 2447 160 2076 
C 160 1498 813 1365 998 1325 
C 1402 1243 1542 1217 1677 1101 
C 1760 1025 1901 884 1901 654 
C 1901 384 1747 38 1158 38 
C 602 38 403 460 288 1021 
C 269 1110 269 1117 218 1117 
C 166 1117 160 1110 160 983 
L 160 63 
C 160 -51 166 -58 205 -58 
C 237 -58 243 -51 275 0 
C 314 57 410 211 448 276 
C 576 103 800 -64 1158 -64 
C 1792 -64 2131 283 2131 784 
C 2131 1112 1958 1285 1875 1362 
C 1683 1561 1459 1606 1190 1657 
C 838 1735 390 1825 390 2217 
C 390 2383 480 2737 1126 2737 
C 1811 2737 1850 2094 1862 1888 
C 1869 1856 1901 1849 1920 1849 
C 1978 1849 1978 1869 1978 1978 
L 1978 2697 
z
" transform="scale(0.015625)"/>
       <path id="CMR17-69" d="M 992 3909 
C 992 4049 877 4170 730 4170 
C 589 4170 467 4056 467 3909 
C 467 3769 582 3648 730 3648 
C 870 3648 992 3763 992 3909 
z
M 243 2706 
L 243 2541 
C 602 2541 653 2502 653 2197 
L 653 427 
C 653 184 627 153 218 153 
L 218 -13 
C 371 0 646 0 806 0 
C 960 0 1222 0 1370 -13 
L 1370 153 
C 992 153 979 191 979 420 
L 979 2776 
L 243 2706 
z
" transform="scale(0.015625)"/>
       <path id="CMR17-6e" d="M 2656 1933 
C 2656 2259 2592 2790 1837 2790 
C 1331 2790 1069 2400 973 2144 
L 966 2144 
L 966 2790 
L 211 2720 
L 211 2554 
C 589 2554 646 2515 646 2208 
L 646 428 
C 646 184 621 153 211 153 
L 211 -13 
C 365 0 646 0 813 0 
C 979 0 1267 0 1421 -13 
L 1421 153 
C 1011 153 986 178 986 428 
L 986 1658 
C 986 2247 1344 2688 1792 2688 
C 2266 2688 2317 2266 2317 1958 
L 2317 428 
C 2317 184 2291 153 1882 153 
L 1882 -13 
C 2035 0 2317 0 2483 0 
C 2650 0 2938 0 3091 -13 
L 3091 153 
C 2682 153 2656 178 2656 428 
L 2656 1933 
z
" transform="scale(0.015625)"/>
       <path id="CMR17-78" d="M 1664 1477 
C 1856 1726 2074 2006 2253 2216 
C 2464 2458 2707 2560 2989 2560 
L 2989 2726 
C 2880 2726 2656 2726 2541 2726 
C 2368 2726 2170 2726 2022 2732 
L 2022 2566 
C 2112 2553 2163 2489 2163 2400 
C 2163 2285 2099 2215 2067 2171 
L 1594 1573 
L 1030 2306 
C 973 2376 973 2388 973 2420 
C 973 2497 1037 2560 1146 2560 
L 1146 2732 
C 992 2726 717 2726 557 2726 
C 384 2726 179 2726 38 2732 
L 38 2560 
C 384 2560 461 2534 614 2343 
L 1350 1395 
C 1363 1382 1395 1344 1395 1325 
C 1395 1299 838 619 768 530 
C 480 185 179 160 6 160 
L 6 0 
C 115 0 339 0 454 0 
C 582 0 864 0 979 -6 
L 979 160 
C 941 166 838 179 838 325 
C 838 440 890 510 947 586 
L 1478 1236 
L 2035 512 
C 2086 442 2163 346 2163 301 
C 2163 211 2086 160 1984 160 
L 1984 -6 
C 2138 0 2413 0 2573 0 
C 2746 0 2950 0 3091 -6 
L 3091 160 
C 2771 160 2675 172 2522 370 
L 1664 1477 
z
" transform="scale(0.015625)"/>
       <path id="CMR17-70" d="M 1408 -1063 
C 998 -1063 973 -1037 973 -789 
L 973 402 
C 1158 134 1427 -38 1766 -38 
C 2406 -38 3053 523 3053 1388 
C 3053 2191 2496 2802 1837 2802 
C 1453 2802 1139 2592 960 2338 
L 960 2802 
L 198 2732 
L 198 2567 
C 576 2567 634 2528 634 2223 
L 634 -789 
C 634 -1031 608 -1063 198 -1063 
L 198 -1228 
C 352 -1216 634 -1216 800 -1216 
C 966 -1216 1254 -1216 1408 -1228 
L 1408 -1063 
z
M 973 2012 
C 973 2102 973 2235 1222 2471 
C 1254 2497 1472 2688 1792 2688 
C 2259 2688 2643 2108 2643 1382 
C 2643 656 2234 64 1728 64 
C 1498 64 1248 172 1056 472 
C 973 612 973 650 973 752 
L 973 2012 
z
" transform="scale(0.015625)"/>
       <path id="CMR17-72" d="M 960 1497 
C 960 2112 1222 2688 1702 2688 
C 1747 2688 1792 2682 1837 2662 
C 1837 2662 1696 2617 1696 2452 
C 1696 2298 1818 2234 1914 2234 
C 1990 2234 2131 2279 2131 2458 
C 2131 2663 1926 2790 1709 2790 
C 1222 2790 1011 2317 947 2093 
L 941 2093 
L 941 2790 
L 198 2720 
L 198 2554 
C 576 2554 634 2515 634 2208 
L 634 428 
C 634 184 608 153 198 153 
L 198 -13 
C 352 0 646 0 813 0 
C 998 0 1325 0 1498 -13 
L 1498 153 
C 1037 153 960 153 960 440 
L 960 1497 
z
" transform="scale(0.015625)"/>
       <path id="CMR17-6d" d="M 4326 1933 
C 4326 2252 4269 2790 3507 2790 
C 3072 2790 2771 2496 2656 2151 
L 2650 2151 
C 2573 2676 2195 2790 1837 2790 
C 1331 2790 1069 2400 973 2144 
L 966 2144 
L 966 2790 
L 211 2720 
L 211 2554 
C 589 2554 646 2515 646 2208 
L 646 428 
C 646 184 621 153 211 153 
L 211 -13 
C 365 0 646 0 813 0 
C 979 0 1267 0 1421 -13 
L 1421 153 
C 1011 153 986 178 986 428 
L 986 1658 
C 986 2247 1344 2688 1792 2688 
C 2266 2688 2317 2266 2317 1958 
L 2317 428 
C 2317 184 2291 153 1882 153 
L 1882 -13 
C 2035 0 2317 0 2483 0 
C 2650 0 2938 0 3091 -13 
L 3091 153 
C 2682 153 2656 178 2656 428 
L 2656 1658 
C 2656 2247 3014 2688 3462 2688 
C 3936 2688 3987 2266 3987 1958 
L 3987 428 
C 3987 184 3962 153 3552 153 
L 3552 -13 
C 3706 0 3987 0 4154 0 
C 4320 0 4608 0 4762 -13 
L 4762 153 
C 4352 153 4326 178 4326 428 
L 4326 1933 
z
" transform="scale(0.015625)"/>
       <path id="CMR17-74" d="M 966 2560 
L 1862 2560 
L 1862 2725 
L 966 2725 
L 966 3904 
L 851 3904 
C 838 3245 614 2668 70 2668 
L 70 2560 
L 627 2560 
L 627 771 
C 627 650 627 -64 1370 -64 
C 1747 -64 1965 306 1965 777 
L 1965 1140 
L 1850 1140 
L 1850 783 
C 1850 344 1677 51 1408 51 
C 1222 51 966 178 966 758 
L 966 2560 
z
" transform="scale(0.015625)"/>
      </defs>
      <use xlink:href="#CMR17-23" transform="scale(0.996264)"/>
      <use xlink:href="#CMR17-68" transform="translate(106.995556 0)scale(0.996264)"/>
      <use xlink:href="#CMR17-65" transform="translate(157.890926 0)scale(0.996264)"/>
      <use xlink:href="#CMR17-61" transform="translate(198.376586 0)scale(0.996264)"/>
      <use xlink:href="#CMR17-64" transform="translate(244.067064 0)scale(0.996264)"/>
      <use xlink:href="#CMR17-73" transform="translate(294.962433 0)scale(0.996264)"/>
      <use xlink:href="#CMR17-69" transform="translate(360.839737 0)scale(0.996264)"/>
      <use xlink:href="#CMR17-6e" transform="translate(385.710796 0)scale(0.996264)"/>
      <use xlink:href="#CMR17-65" transform="translate(466.682132 0)scale(0.996264)"/>
      <use xlink:href="#CMR17-78" transform="translate(507.167792 0)scale(0.996264)"/>
      <use xlink:href="#CMR17-70" transform="translate(555.460708 0)scale(0.996264)"/>
      <use xlink:href="#CMR17-65" transform="translate(608.958517 0)scale(0.996264)"/>
      <use xlink:href="#CMR17-72" transform="translate(649.444177 0)scale(0.996264)"/>
      <use xlink:href="#CMR17-69" transform="translate(684.724945 0)scale(0.996264)"/>
      <use xlink:href="#CMR17-6d" transform="translate(709.596004 0)scale(0.996264)"/>
      <use xlink:href="#CMR17-65" transform="translate(786.515593 0)scale(0.996264)"/>
      <use xlink:href="#CMR17-6e" transform="translate(827.001254 0)scale(0.996264)"/>
      <use xlink:href="#CMR17-74" transform="translate(875.29417 0)scale(0.996264)"/>
     </g>
    </g>
   </g>
   <g id="matplotlib.axis_2">
    <g id="ytick_1">
     <g id="line2d_8">
      <path d="M 57.6 307.584 
L 414.72 307.584 
" clip-path="url(#p3890e1e305)" style="fill: none; stroke: #000000; stroke-width: 0.8; stroke-linecap: square"/>
     </g>
     <g id="line2d_9">
      <defs>
       <path id="me7c2bbb2a1" d="M 0 0 
L -3.5 0 
" style="stroke: #000000; stroke-width: 0.8"/>
      </defs>
      <g>
       <use xlink:href="#me7c2bbb2a1" x="57.6" y="307.584" style="stroke: #000000; stroke-width: 0.8"/>
      </g>
     </g>
     <g id="text_9">
      <!-- $\mathdefault{0.00}$ -->
      <g transform="translate(32.888586 311.043249)scale(0.1 -0.1)">
       <defs>
        <path id="CMMI12-3a" d="M 1178 307 
C 1178 492 1024 619 870 619 
C 685 619 557 466 557 313 
C 557 128 710 0 864 0 
C 1050 0 1178 153 1178 307 
z
" transform="scale(0.015625)"/>
       </defs>
       <use xlink:href="#CMR17-30" transform="scale(0.996264)"/>
       <use xlink:href="#CMMI12-3a" transform="translate(45.690477 0)scale(0.996264)"/>
       <use xlink:href="#CMR17-30" transform="translate(72.787654 0)scale(0.996264)"/>
       <use xlink:href="#CMR17-30" transform="translate(118.478131 0)scale(0.996264)"/>
      </g>
     </g>
    </g>
    <g id="ytick_2">
     <g id="line2d_10">
      <path d="M 57.6 248.644465 
L 414.72 248.644465 
" clip-path="url(#p3890e1e305)" style="fill: none; stroke: #000000; stroke-width: 0.8; stroke-linecap: square"/>
     </g>
     <g id="line2d_11">
      <g>
       <use xlink:href="#me7c2bbb2a1" x="57.6" y="248.644465" style="stroke: #000000; stroke-width: 0.8"/>
      </g>
     </g>
     <g id="text_10">
      <!-- $\mathdefault{0.02}$ -->
      <g transform="translate(32.888586 252.103714)scale(0.1 -0.1)">
       <use xlink:href="#CMR17-30" transform="scale(0.996264)"/>
       <use xlink:href="#CMMI12-3a" transform="translate(45.690477 0)scale(0.996264)"/>
       <use xlink:href="#CMR17-30" transform="translate(72.787654 0)scale(0.996264)"/>
       <use xlink:href="#CMR17-32" transform="translate(118.478131 0)scale(0.996264)"/>
      </g>
     </g>
    </g>
    <g id="ytick_3">
     <g id="line2d_12">
      <path d="M 57.6 189.70493 
L 414.72 189.70493 
" clip-path="url(#p3890e1e305)" style="fill: none; stroke: #000000; stroke-width: 0.8; stroke-linecap: square"/>
     </g>
     <g id="line2d_13">
      <g>
       <use xlink:href="#me7c2bbb2a1" x="57.6" y="189.70493" style="stroke: #000000; stroke-width: 0.8"/>
      </g>
     </g>
     <g id="text_11">
      <!-- $\mathdefault{0.04}$ -->
      <g transform="translate(32.888586 193.164179)scale(0.1 -0.1)">
       <use xlink:href="#CMR17-30" transform="scale(0.996264)"/>
       <use xlink:href="#CMMI12-3a" transform="translate(45.690477 0)scale(0.996264)"/>
       <use xlink:href="#CMR17-30" transform="translate(72.787654 0)scale(0.996264)"/>
       <use xlink:href="#CMR17-34" transform="translate(118.478131 0)scale(0.996264)"/>
      </g>
     </g>
    </g>
    <g id="ytick_4">
     <g id="line2d_14">
      <path d="M 57.6 130.765395 
L 414.72 130.765395 
" clip-path="url(#p3890e1e305)" style="fill: none; stroke: #000000; stroke-width: 0.8; stroke-linecap: square"/>
     </g>
     <g id="line2d_15">
      <g>
       <use xlink:href="#me7c2bbb2a1" x="57.6" y="130.765395" style="stroke: #000000; stroke-width: 0.8"/>
      </g>
     </g>
     <g id="text_12">
      <!-- $\mathdefault{0.06}$ -->
      <g transform="translate(32.888586 134.224645)scale(0.1 -0.1)">
       <defs>
        <path id="CMR17-36" d="M 678 2176 
C 678 3690 1395 4032 1811 4032 
C 1946 4032 2272 4009 2400 3776 
C 2298 3776 2106 3776 2106 3553 
C 2106 3381 2246 3323 2336 3323 
C 2394 3323 2566 3348 2566 3560 
C 2566 3954 2246 4179 1805 4179 
C 1043 4179 243 3390 243 1984 
C 243 253 966 -128 1478 -128 
C 2099 -128 2688 427 2688 1283 
C 2688 2081 2170 2662 1517 2662 
C 1126 2662 838 2407 678 1960 
L 678 2176 
z
M 1478 25 
C 691 25 691 1200 691 1436 
C 691 1896 909 2560 1504 2560 
C 1613 2560 1926 2560 2138 2120 
C 2253 1870 2253 1609 2253 1289 
C 2253 944 2253 690 2118 434 
C 1978 171 1773 25 1478 25 
z
" transform="scale(0.015625)"/>
       </defs>
       <use xlink:href="#CMR17-30" transform="scale(0.996264)"/>
       <use xlink:href="#CMMI12-3a" transform="translate(45.690477 0)scale(0.996264)"/>
       <use xlink:href="#CMR17-30" transform="translate(72.787654 0)scale(0.996264)"/>
       <use xlink:href="#CMR17-36" transform="translate(118.478131 0)scale(0.996264)"/>
      </g>
     </g>
    </g>
    <g id="ytick_5">
     <g id="line2d_16">
      <path d="M 57.6 71.82586 
L 414.72 71.82586 
" clip-path="url(#p3890e1e305)" style="fill: none; stroke: #000000; stroke-width: 0.8; stroke-linecap: square"/>
     </g>
     <g id="line2d_17">
      <g>
       <use xlink:href="#me7c2bbb2a1" x="57.6" y="71.82586" style="stroke: #000000; stroke-width: 0.8"/>
      </g>
     </g>
     <g id="text_13">
      <!-- $\mathdefault{0.08}$ -->
      <g transform="translate(32.888586 75.28511)scale(0.1 -0.1)">
       <defs>
        <path id="CMR17-38" d="M 1741 2264 
C 2144 2467 2554 2773 2554 3263 
C 2554 3841 1990 4179 1472 4179 
C 890 4179 378 3759 378 3180 
C 378 3021 416 2747 666 2505 
C 730 2442 998 2251 1171 2130 
C 883 1983 211 1634 211 934 
C 211 279 838 -128 1459 -128 
C 2144 -128 2720 362 2720 1010 
C 2720 1590 2330 1857 2074 2029 
L 1741 2264 
z
M 902 2822 
C 851 2854 595 3051 595 3351 
C 595 3739 998 4032 1459 4032 
C 1965 4032 2336 3676 2336 3262 
C 2336 2669 1670 2331 1638 2331 
C 1632 2331 1626 2331 1574 2370 
L 902 2822 
z
M 2080 1519 
C 2176 1449 2483 1240 2483 851 
C 2483 381 2010 25 1472 25 
C 890 25 448 438 448 940 
C 448 1443 838 1862 1280 2060 
L 2080 1519 
z
" transform="scale(0.015625)"/>
       </defs>
       <use xlink:href="#CMR17-30" transform="scale(0.996264)"/>
       <use xlink:href="#CMMI12-3a" transform="translate(45.690477 0)scale(0.996264)"/>
       <use xlink:href="#CMR17-30" transform="translate(72.787654 0)scale(0.996264)"/>
       <use xlink:href="#CMR17-38" transform="translate(118.478131 0)scale(0.996264)"/>
      </g>
     </g>
    </g>
    <g id="text_14">
     <!-- P of \# heads in experiment -->
     <g transform="translate(26.951407 234.968128)rotate(-90)scale(0.1 -0.1)">
      <defs>
       <path id="CMR17-50" d="M 1267 2042 
L 2291 2042 
C 3117 2042 3718 2578 3718 3184 
C 3718 3791 3130 4352 2291 4352 
L 333 4352 
L 333 4186 
C 774 4186 845 4186 845 3899 
L 845 446 
C 845 160 774 160 333 160 
L 333 0 
C 518 0 858 0 1056 0 
C 1254 0 1594 0 1779 0 
L 1779 160 
C 1338 160 1267 160 1267 446 
L 1267 2042 
z
M 1254 2176 
L 1254 3938 
C 1254 4155 1267 4186 1523 4186 
L 2170 4186 
C 2995 4186 3232 3714 3232 3184 
C 3232 2604 2950 2176 2170 2176 
L 1254 2176 
z
" transform="scale(0.015625)"/>
       <path id="CMR17-6f" d="M 2758 1356 
C 2758 2176 2163 2816 1466 2816 
C 768 2816 173 2176 173 1356 
C 173 551 768 -64 1466 -64 
C 2163 -64 2758 551 2758 1356 
z
M 1466 51 
C 1165 51 909 230 762 480 
C 602 767 582 1126 582 1408 
C 582 1677 595 2010 762 2298 
C 890 2509 1139 2714 1466 2714 
C 1754 2714 1997 2554 2150 2330 
C 2349 2029 2349 1607 2349 1408 
C 2349 1158 2336 775 2163 467 
C 1984 173 1709 51 1466 51 
z
" transform="scale(0.015625)"/>
       <path id="CMR17-66" d="M 979 2560 
L 1709 2560 
L 1709 2725 
L 966 2725 
L 966 3494 
C 966 4022 1235 4352 1510 4352 
C 1594 4352 1690 4327 1754 4282 
C 1702 4269 1568 4225 1568 4067 
C 1568 3901 1696 3850 1786 3850 
C 1875 3850 2003 3901 2003 4067 
C 2003 4308 1773 4454 1517 4454 
C 1152 4454 653 4156 653 3481 
L 653 2725 
L 141 2725 
L 141 2560 
L 653 2560 
L 653 427 
C 653 184 627 153 218 153 
L 218 -13 
C 371 0 666 0 832 0 
C 1018 0 1344 0 1517 -13 
L 1517 153 
C 1056 153 979 153 979 439 
L 979 2560 
z
" transform="scale(0.015625)"/>
      </defs>
      <use xlink:href="#CMR17-50" transform="scale(0.996264)"/>
      <use xlink:href="#CMR17-6f" transform="translate(92.662267 0)scale(0.996264)"/>
      <use xlink:href="#CMR17-66" transform="translate(138.352744 0)scale(0.996264)"/>
      <use xlink:href="#CMR17-23" transform="translate(195.902223 0)scale(0.996264)"/>
      <use xlink:href="#CMR17-68" transform="translate(302.897779 0)scale(0.996264)"/>
      <use xlink:href="#CMR17-65" transform="translate(353.793149 0)scale(0.996264)"/>
      <use xlink:href="#CMR17-61" transform="translate(394.278809 0)scale(0.996264)"/>
      <use xlink:href="#CMR17-64" transform="translate(439.969286 0)scale(0.996264)"/>
      <use xlink:href="#CMR17-73" transform="translate(490.864656 0)scale(0.996264)"/>
      <use xlink:href="#CMR17-69" transform="translate(556.74196 0)scale(0.996264)"/>
      <use xlink:href="#CMR17-6e" transform="translate(581.613019 0)scale(0.996264)"/>
      <use xlink:href="#CMR17-65" transform="translate(662.584355 0)scale(0.996264)"/>
      <use xlink:href="#CMR17-78" transform="translate(703.070015 0)scale(0.996264)"/>
      <use xlink:href="#CMR17-70" transform="translate(751.362931 0)scale(0.996264)"/>
      <use xlink:href="#CMR17-65" transform="translate(804.86074 0)scale(0.996264)"/>
      <use xlink:href="#CMR17-72" transform="translate(845.3464 0)scale(0.996264)"/>
      <use xlink:href="#CMR17-69" transform="translate(880.627168 0)scale(0.996264)"/>
      <use xlink:href="#CMR17-6d" transform="translate(905.498226 0)scale(0.996264)"/>
      <use xlink:href="#CMR17-65" transform="translate(982.417816 0)scale(0.996264)"/>
      <use xlink:href="#CMR17-6e" transform="translate(1022.903477 0)scale(0.996264)"/>
      <use xlink:href="#CMR17-74" transform="translate(1071.196392 0)scale(0.996264)"/>
     </g>
    </g>
   </g>
   <g id="line2d_18">
    <path d="M -1 307.584 
L 57.6 307.584 
L 57.6 307.289302 
L 66.997895 307.289302 
L 66.997895 306.994605 
L 85.793684 306.994605 
L 85.793684 306.110512 
L 95.191579 306.110512 
L 95.191579 303.75293 
L 104.589474 303.75293 
L 104.589474 299.037767 
L 113.987368 299.037767 
L 113.987368 297.564279 
L 123.385263 297.564279 
L 123.385263 286.365767 
L 132.783158 286.365767 
L 132.783158 282.24 
L 142.181053 282.24 
L 142.181053 262.495256 
L 151.578947 262.495256 
L 151.578947 244.224 
L 160.976842 244.224 
L 160.976842 210.03907 
L 170.374737 210.03907 
L 170.374737 195.598884 
L 179.772632 195.598884 
L 179.772632 153.162419 
L 189.170526 153.162419 
L 189.170526 139.01693 
L 198.568421 139.01693 
L 198.568421 101.295628 
L 207.966316 101.295628 
L 207.966316 87.15014 
L 217.364211 87.15014 
L 217.364211 67.700093 
L 226.762105 67.700093 
L 226.762105 54.144 
L 236.16 54.144 
L 236.16 68.289488 
L 245.557895 68.289488 
L 245.557895 96.580465 
L 254.955789 96.580465 
L 254.955789 115.441116 
L 264.353684 115.441116 
L 264.353684 143.732093 
L 273.751579 143.732093 
L 273.751579 172.612465 
L 283.149474 172.612465 
L 283.149474 205.618605 
L 292.547368 205.618605 
L 292.547368 222.121674 
L 301.945263 222.121674 
L 301.945263 242.750512 
L 311.343158 242.750512 
L 311.343158 264.55814 
L 320.741053 264.55814 
L 320.741053 278.40893 
L 330.138947 278.40893 
L 330.138947 286.07107 
L 339.536842 286.07107 
L 339.536842 293.733209 
L 348.934737 293.733209 
L 348.934737 303.163535 
L 358.332632 303.163535 
L 358.332632 302.868837 
L 367.730526 302.868837 
L 367.730526 305.521116 
L 377.128421 305.521116 
L 377.128421 306.405209 
L 386.526316 306.405209 
L 386.526316 307.289302 
L 395.924211 307.289302 
L 395.924211 307.584 
L 424.117895 307.584 
L 424.117895 307.289302 
L 433.515789 307.289302 
L 433.515789 307.584 
L 461.8 307.584 
L 461.8 307.584 
" clip-path="url(#p3890e1e305)" style="fill: none; stroke: #000000; stroke-width: 1.5; stroke-linecap: square"/>
   </g>
   <g id="line2d_19">
    <path d="M -1 307.584 
L 76.395789 307.584 
L 76.395789 306.994605 
L 85.793684 306.994605 
L 85.793684 305.815814 
L 95.191579 305.815814 
L 95.191579 304.931721 
L 104.589474 304.931721 
L 104.589474 303.458233 
L 113.987368 303.458233 
L 113.987368 294.322605 
L 123.385263 294.322605 
L 123.385263 293.733209 
L 132.783158 293.733209 
L 132.783158 280.766512 
L 142.181053 280.766512 
L 142.181053 273.104372 
L 151.578947 273.104372 
L 151.578947 258.664186 
L 160.976842 258.664186 
L 160.976842 233.320186 
L 170.374737 233.320186 
L 170.374737 213.87014 
L 179.772632 213.87014 
L 179.772632 177.327628 
L 189.170526 177.327628 
L 189.170526 154.635907 
L 198.568421 154.635907 
L 198.568421 125.16614 
L 207.966316 125.16614 
L 207.966316 104.832 
L 217.364211 104.832 
L 217.364211 93.044093 
L 226.762105 93.044093 
L 226.762105 81.550884 
L 236.16 81.550884 
L 236.16 72.120558 
L 245.557895 72.120558 
L 245.557895 84.49786 
L 254.955789 84.49786 
L 254.955789 96.285767 
L 264.353684 96.285767 
L 264.353684 120.156279 
L 273.751579 120.156279 
L 273.751579 155.52 
L 283.149474 155.52 
L 283.149474 172.612465 
L 292.547368 172.612465 
L 292.547368 197.661767 
L 301.945263 197.661767 
L 301.945263 222.121674 
L 311.343158 222.121674 
L 311.343158 246.581581 
L 320.741053 246.581581 
L 320.741053 266.915721 
L 330.138947 266.915721 
L 330.138947 278.703628 
L 339.536842 278.703628 
L 339.536842 285.186977 
L 348.934737 285.186977 
L 348.934737 294.617302 
L 358.332632 294.617302 
L 358.332632 298.448372 
L 367.730526 298.448372 
L 367.730526 302.57414 
L 377.128421 302.57414 
L 377.128421 305.226419 
L 386.526316 305.226419 
L 386.526316 306.405209 
L 395.924211 306.405209 
L 395.924211 307.584 
L 424.117895 307.584 
L 424.117895 307.289302 
L 433.515789 307.289302 
L 433.515789 307.584 
L 461.8 307.584 
L 461.8 307.584 
" clip-path="url(#p3890e1e305)" style="fill: none; stroke: #ff0000; stroke-width: 1.5; stroke-linecap: square"/>
   </g>
   <g id="line2d_20">
    <path d="M 57.6 307.391881 
L 66.997895 307.177283 
L 76.395789 306.75812 
L 85.793684 305.975405 
L 95.191579 304.578748 
L 104.589474 302.198584 
L 113.987368 298.327173 
L 123.385263 292.322073 
L 132.783158 283.448238 
L 142.181053 270.97254 
L 151.578947 254.31464 
L 160.976842 233.240619 
L 170.374737 208.063733 
L 179.772632 179.797448 
L 189.170526 150.199061 
L 198.568421 121.655664 
L 207.966316 96.899594 
L 217.364211 78.590265 
L 226.762105 68.847291 
L 236.16 68.847291 
L 245.557895 78.590265 
L 254.955789 96.899594 
L 264.353684 121.655664 
L 273.751579 150.199061 
L 283.149474 179.797448 
L 292.547368 208.063733 
L 301.945263 233.240619 
L 311.343158 254.31464 
L 320.741053 270.97254 
L 330.138947 283.448238 
L 339.536842 292.322073 
L 348.934737 298.327173 
L 358.332632 302.198584 
L 367.730526 304.578748 
L 377.128421 305.975405 
L 386.526316 306.75812 
L 395.924211 307.177283 
L 405.322105 307.391881 
L 414.72 307.496953 
" clip-path="url(#p3890e1e305)" style="fill: none; stroke-dasharray: 5.55,2.4; stroke-dashoffset: 0; stroke: #000000; stroke-width: 1.5"/>
   </g>
   <g id="patch_103">
    <path d="M 57.6 307.584 
L 57.6 41.472 
" style="fill: none; stroke: #000000; stroke-width: 0.8; stroke-linejoin: miter; stroke-linecap: square"/>
   </g>
   <g id="patch_104">
    <path d="M 414.72 307.584 
L 414.72 41.472 
" style="fill: none; stroke: #000000; stroke-width: 0.8; stroke-linejoin: miter; stroke-linecap: square"/>
   </g>
   <g id="patch_105">
    <path d="M 57.6 307.584 
L 414.72 307.584 
" style="fill: none; stroke: #000000; stroke-width: 0.8; stroke-linejoin: miter; stroke-linecap: square"/>
   </g>
   <g id="patch_106">
    <path d="M 57.6 41.472 
L 414.72 41.472 
" style="fill: none; stroke: #000000; stroke-width: 0.8; stroke-linejoin: miter; stroke-linecap: square"/>
   </g>
   <g id="text_15">
    <!-- \# trials/experiment = 100; \# experiments = 10000 -->
    <g transform="translate(103.427188 35.472)scale(0.12 -0.12)">
     <defs>
      <path id="CMR17-6c" d="M 979 4396 
L 218 4326 
L 218 4160 
C 595 4160 653 4122 653 3817 
L 653 426 
C 653 184 627 153 218 153 
L 218 -13 
C 371 0 653 0 813 0 
C 979 0 1261 0 1414 -13 
L 1414 153 
C 1005 153 979 178 979 426 
L 979 4396 
z
" transform="scale(0.015625)"/>
      <path id="CMR17-2f" d="M 2605 4545 
C 2637 4627 2637 4640 2637 4653 
C 2637 4729 2579 4768 2528 4768 
C 2451 4768 2426 4717 2400 4640 
L 326 -1377 
C 294 -1460 294 -1473 294 -1486 
C 294 -1562 352 -1600 403 -1600 
C 480 -1600 506 -1549 531 -1473 
L 2605 4545 
z
" transform="scale(0.015625)"/>
      <path id="CMR17-3d" d="M 4115 2017 
C 4211 2017 4307 2017 4307 2125 
C 4307 2240 4198 2240 4090 2240 
L 512 2240 
C 403 2240 294 2240 294 2125 
C 294 2017 390 2017 486 2017 
L 4115 2017 
z
M 4090 896 
C 4198 896 4307 896 4307 1011 
C 4307 1119 4211 1119 4115 1119 
L 486 1119 
C 390 1119 294 1119 294 1011 
C 294 896 403 896 512 896 
L 4090 896 
z
" transform="scale(0.015625)"/>
      <path id="CMR17-31" d="M 1702 4058 
C 1702 4192 1696 4192 1606 4192 
C 1357 3916 979 3827 621 3827 
C 602 3827 570 3827 563 3808 
C 557 3795 557 3782 557 3648 
C 755 3648 1088 3686 1344 3839 
L 1344 461 
C 1344 236 1331 160 781 160 
L 589 160 
L 589 0 
C 896 0 1216 0 1523 0 
C 1830 0 2150 0 2458 0 
L 2458 160 
L 2266 160 
C 1715 160 1702 230 1702 458 
L 1702 4058 
z
" transform="scale(0.015625)"/>
      <path id="CMR17-3b" d="M 1062 2491 
C 1062 2650 934 2752 800 2752 
C 672 2752 538 2650 538 2491 
C 538 2332 666 2230 800 2230 
C 928 2230 1062 2332 1062 2491 
z
M 979 -71 
C 979 -483 851 -817 634 -1126 
C 595 -1170 595 -1183 595 -1190 
C 595 -1222 621 -1248 646 -1248 
C 678 -1248 1082 -805 1082 -61 
C 1082 189 1062 522 800 522 
C 659 522 538 427 538 261 
C 538 96 659 0 800 0 
C 864 0 934 19 979 64 
L 979 -71 
z
" transform="scale(0.015625)"/>
     </defs>
     <use xlink:href="#CMR17-23" transform="scale(0.996264)"/>
     <use xlink:href="#CMR17-74" transform="translate(106.995556 0)scale(0.996264)"/>
     <use xlink:href="#CMR17-72" transform="translate(142.276324 0)scale(0.996264)"/>
     <use xlink:href="#CMR17-69" transform="translate(177.557092 0)scale(0.996264)"/>
     <use xlink:href="#CMR17-61" transform="translate(202.42815 0)scale(0.996264)"/>
     <use xlink:href="#CMR17-6c" transform="translate(248.118627 0)scale(0.996264)"/>
     <use xlink:href="#CMR17-73" transform="translate(272.989686 0)scale(0.996264)"/>
     <use xlink:href="#CMR17-2f" transform="translate(308.791024 0)scale(0.996264)"/>
     <use xlink:href="#CMR17-65" transform="translate(354.481501 0)scale(0.996264)"/>
     <use xlink:href="#CMR17-78" transform="translate(394.967161 0)scale(0.996264)"/>
     <use xlink:href="#CMR17-70" transform="translate(443.260077 0)scale(0.996264)"/>
     <use xlink:href="#CMR17-65" transform="translate(496.757885 0)scale(0.996264)"/>
     <use xlink:href="#CMR17-72" transform="translate(537.243546 0)scale(0.996264)"/>
     <use xlink:href="#CMR17-69" transform="translate(572.524314 0)scale(0.996264)"/>
     <use xlink:href="#CMR17-6d" transform="translate(597.395372 0)scale(0.996264)"/>
     <use xlink:href="#CMR17-65" transform="translate(674.314962 0)scale(0.996264)"/>
     <use xlink:href="#CMR17-6e" transform="translate(714.800623 0)scale(0.996264)"/>
     <use xlink:href="#CMR17-74" transform="translate(763.093538 0)scale(0.996264)"/>
     <use xlink:href="#CMR17-3d" transform="translate(828.450273 0)scale(0.996264)"/>
     <use xlink:href="#CMR17-31" transform="translate(930.241027 0)scale(0.996264)"/>
     <use xlink:href="#CMR17-30" transform="translate(975.931504 0)scale(0.996264)"/>
     <use xlink:href="#CMR17-30" transform="translate(1021.621982 0)scale(0.996264)"/>
     <use xlink:href="#CMR17-3b" transform="translate(1067.312459 0)scale(0.996264)"/>
     <use xlink:href="#CMR17-23" transform="translate(1122.259483 0)scale(0.996264)"/>
     <use xlink:href="#CMR17-65" transform="translate(1229.25504 0)scale(0.996264)"/>
     <use xlink:href="#CMR17-78" transform="translate(1269.7407 0)scale(0.996264)"/>
     <use xlink:href="#CMR17-70" transform="translate(1318.033616 0)scale(0.996264)"/>
     <use xlink:href="#CMR17-65" transform="translate(1371.531425 0)scale(0.996264)"/>
     <use xlink:href="#CMR17-72" transform="translate(1412.017085 0)scale(0.996264)"/>
     <use xlink:href="#CMR17-69" transform="translate(1447.297853 0)scale(0.996264)"/>
     <use xlink:href="#CMR17-6d" transform="translate(1472.168911 0)scale(0.996264)"/>
     <use xlink:href="#CMR17-65" transform="translate(1549.088501 0)scale(0.996264)"/>
     <use xlink:href="#CMR17-6e" transform="translate(1589.574162 0)scale(0.996264)"/>
     <use xlink:href="#CMR17-74" transform="translate(1637.867077 0)scale(0.996264)"/>
     <use xlink:href="#CMR17-73" transform="translate(1673.147845 0)scale(0.996264)"/>
     <use xlink:href="#CMR17-3d" transform="translate(1739.025149 0)scale(0.996264)"/>
     <use xlink:href="#CMR17-31" transform="translate(1840.815904 0)scale(0.996264)"/>
     <use xlink:href="#CMR17-30" transform="translate(1886.506381 0)scale(0.996264)"/>
     <use xlink:href="#CMR17-30" transform="translate(1932.196858 0)scale(0.996264)"/>
     <use xlink:href="#CMR17-30" transform="translate(1977.887335 0)scale(0.996264)"/>
     <use xlink:href="#CMR17-30" transform="translate(2023.577812 0)scale(0.996264)"/>
    </g>
   </g>
   <g id="legend_1">
    <g id="patch_107">
     <path d="M 273.379898 111.624348 
L 407.72 111.624348 
Q 409.72 111.624348 409.72 109.624348 
L 409.72 48.472 
Q 409.72 46.472 407.72 46.472 
L 273.379898 46.472 
Q 271.379898 46.472 271.379898 48.472 
L 271.379898 109.624348 
Q 271.379898 111.624348 273.379898 111.624348 
z
" style="fill: #ffffff; opacity: 0.8; stroke: #cccccc; stroke-linejoin: miter"/>
    </g>
    <g id="line2d_21">
     <path d="M 275.379898 53.972 
L 280.379898 53.972 
L 280.379898 53.972 
L 290.379898 53.972 
L 290.379898 53.972 
L 295.379898 53.972 
" style="fill: none; stroke: #000000; stroke-width: 1.5; stroke-linecap: square"/>
    </g>
    <g id="text_16">
     <!-- Experiment 1. $p = 0.4$ -->
     <g transform="translate(303.379898 57.472)scale(0.1 -0.1)">
      <defs>
       <path id="CMR17-45" d="M 3885 1615 
L 3770 1615 
C 3629 676 3546 166 2419 166 
L 1530 166 
C 1274 166 1261 197 1261 414 
L 1261 2176 
L 1862 2176 
C 2464 2176 2522 1960 2522 1430 
L 2637 1430 
L 2637 3081 
L 2522 3081 
C 2522 2557 2464 2342 1862 2342 
L 1261 2342 
L 1261 3913 
C 1261 4128 1274 4160 1530 4160 
L 2406 4160 
C 3398 4160 3514 3769 3603 2929 
L 3718 2929 
L 3565 4325 
L 326 4325 
L 326 4160 
C 768 4160 838 4160 838 3874 
L 838 451 
C 838 166 768 166 326 166 
L 326 0 
L 3654 0 
L 3885 1615 
z
" transform="scale(0.015625)"/>
       <path id="CMR17-2e" d="M 1062 261 
C 1062 420 934 522 800 522 
C 672 522 538 420 538 261 
C 538 102 666 0 800 0 
C 928 0 1062 102 1062 261 
z
" transform="scale(0.015625)"/>
       <path id="CMMI12-70" d="M 275 -789 
C 230 -980 205 -1031 -58 -1031 
C -134 -1031 -198 -1031 -198 -1152 
C -198 -1165 -192 -1216 -122 -1216 
C -38 -1216 51 -1216 134 -1216 
L 410 -1216 
C 544 -1216 870 -1216 1005 -1216 
C 1043 -1216 1120 -1216 1120 -1101 
C 1120 -1031 1075 -1031 966 -1031 
C 672 -1031 653 -987 653 -937 
C 653 -861 941 219 979 364 
C 1050 185 1222 -64 1555 -64 
C 2278 -64 3059 875 3059 1814 
C 3059 2401 2726 2816 2246 2816 
C 1837 2816 1491 2420 1421 2331 
C 1370 2650 1120 2816 864 2816 
C 678 2816 531 2727 410 2484 
C 294 2254 205 1865 205 1839 
C 205 1814 230 1782 275 1782 
C 326 1782 333 1788 371 1935 
C 467 2312 589 2689 845 2689 
C 992 2689 1043 2587 1043 2397 
C 1043 2245 1024 2181 998 2067 
L 275 -789 
z
M 1382 1993 
C 1427 2171 1606 2357 1709 2446 
C 1779 2510 1990 2689 2234 2689 
C 2515 2689 2643 2408 2643 2076 
C 2643 1769 2464 1047 2304 715 
C 2144 370 1850 64 1555 64 
C 1120 64 1050 613 1050 639 
C 1050 658 1062 709 1069 741 
L 1382 1993 
z
" transform="scale(0.015625)"/>
      </defs>
      <use xlink:href="#CMR17-45" transform="scale(0.996264)"/>
      <use xlink:href="#CMR17-78" transform="translate(62.586301 0)scale(0.996264)"/>
      <use xlink:href="#CMR17-70" transform="translate(110.879216 0)scale(0.996264)"/>
      <use xlink:href="#CMR17-65" transform="translate(164.377025 0)scale(0.996264)"/>
      <use xlink:href="#CMR17-72" transform="translate(204.862685 0)scale(0.996264)"/>
      <use xlink:href="#CMR17-69" transform="translate(240.143453 0)scale(0.996264)"/>
      <use xlink:href="#CMR17-6d" transform="translate(265.014512 0)scale(0.996264)"/>
      <use xlink:href="#CMR17-65" transform="translate(341.934101 0)scale(0.996264)"/>
      <use xlink:href="#CMR17-6e" transform="translate(382.419762 0)scale(0.996264)"/>
      <use xlink:href="#CMR17-74" transform="translate(430.712678 0)scale(0.996264)"/>
      <use xlink:href="#CMR17-31" transform="translate(496.069412 0)scale(0.996264)"/>
      <use xlink:href="#CMR17-2e" transform="translate(541.759889 0)scale(0.996264)"/>
      <use xlink:href="#CMMI12-70" transform="translate(607.116608 0)scale(0.996264)"/>
      <use xlink:href="#CMR17-3d" transform="translate(683.750131 0)scale(0.996264)"/>
      <use xlink:href="#CMR17-30" transform="translate(783.138928 0)scale(0.996264)"/>
      <use xlink:href="#CMMI12-3a" transform="translate(828.829405 0)scale(0.996264)"/>
      <use xlink:href="#CMR17-34" transform="translate(855.926582 0)scale(0.996264)"/>
     </g>
    </g>
    <g id="line2d_22">
     <path d="M 275.379898 67.909178 
L 280.379898 67.909178 
L 280.379898 67.909178 
L 290.379898 67.909178 
L 290.379898 67.909178 
L 295.379898 67.909178 
" style="fill: none; stroke: #ff0000; stroke-width: 1.5; stroke-linecap: square"/>
    </g>
    <g id="text_17">
     <!-- Experiment 2. $p$ varies -->
     <g transform="translate(303.379898 71.409178)scale(0.1 -0.1)">
      <defs>
       <path id="CMR17-76" d="M 2502 2163 
C 2560 2304 2662 2560 3034 2560 
L 3034 2726 
C 2912 2726 2752 2726 2630 2726 
C 2496 2726 2285 2726 2157 2732 
L 2157 2566 
C 2317 2553 2406 2477 2406 2311 
C 2406 2253 2406 2240 2368 2151 
L 1664 377 
L 902 2286 
C 864 2369 864 2381 864 2407 
C 864 2560 1075 2560 1171 2560 
L 1171 2732 
C 1018 2726 736 2726 576 2726 
C 403 2726 205 2726 64 2732 
L 64 2560 
C 307 2560 442 2560 518 2362 
L 1446 44 
C 1485 -51 1491 -64 1549 -64 
C 1606 -64 1613 -51 1651 44 
L 2502 2163 
z
" transform="scale(0.015625)"/>
      </defs>
      <use xlink:href="#CMR17-45" transform="scale(0.996264)"/>
      <use xlink:href="#CMR17-78" transform="translate(62.586301 0)scale(0.996264)"/>
      <use xlink:href="#CMR17-70" transform="translate(110.879216 0)scale(0.996264)"/>
      <use xlink:href="#CMR17-65" transform="translate(164.377025 0)scale(0.996264)"/>
      <use xlink:href="#CMR17-72" transform="translate(204.862685 0)scale(0.996264)"/>
      <use xlink:href="#CMR17-69" transform="translate(240.143453 0)scale(0.996264)"/>
      <use xlink:href="#CMR17-6d" transform="translate(265.014512 0)scale(0.996264)"/>
      <use xlink:href="#CMR17-65" transform="translate(341.934101 0)scale(0.996264)"/>
      <use xlink:href="#CMR17-6e" transform="translate(382.419762 0)scale(0.996264)"/>
      <use xlink:href="#CMR17-74" transform="translate(430.712678 0)scale(0.996264)"/>
      <use xlink:href="#CMR17-32" transform="translate(496.069412 0)scale(0.996264)"/>
      <use xlink:href="#CMR17-2e" transform="translate(541.759889 0)scale(0.996264)"/>
      <use xlink:href="#CMMI12-70" transform="translate(607.116608 0)scale(0.996264)"/>
      <use xlink:href="#CMR17-76" transform="translate(686.152088 0)scale(0.996264)"/>
      <use xlink:href="#CMR17-61" transform="translate(729.240188 0)scale(0.996264)"/>
      <use xlink:href="#CMR17-72" transform="translate(774.930665 0)scale(0.996264)"/>
      <use xlink:href="#CMR17-69" transform="translate(810.211432 0)scale(0.996264)"/>
      <use xlink:href="#CMR17-65" transform="translate(835.082491 0)scale(0.996264)"/>
      <use xlink:href="#CMR17-73" transform="translate(875.568151 0)scale(0.996264)"/>
     </g>
    </g>
    <g id="line2d_23">
     <path d="M 275.379898 84.678413 
L 285.379898 84.678413 
L 295.379898 84.678413 
" style="fill: none; stroke-dasharray: 5.55,2.4; stroke-dashoffset: 0; stroke: #000000; stroke-width: 1.5"/>
    </g>
    <g id="text_18">
     <!-- $e^{-(x-np)^2/2npq}/\sqrt{2\pi npq}$ -->
     <g transform="translate(303.379898 88.178413)scale(0.1 -0.1)">
      <defs>
       <path id="CMMI12-65" d="M 1146 1479 
C 1318 1479 1754 1479 2061 1595 
C 2547 1783 2592 2158 2592 2274 
C 2592 2558 2349 2816 1926 2816 
C 1254 2816 288 2210 288 1073 
C 288 402 672 -64 1254 -64 
C 2125 -64 2675 609 2675 692 
C 2675 730 2637 762 2611 762 
C 2592 762 2586 756 2528 699 
C 2118 159 1510 64 1267 64 
C 902 64 710 350 710 822 
C 710 911 710 1071 806 1479 
L 1146 1479 
z
M 838 1600 
C 1114 2592 1722 2689 1926 2689 
C 2208 2689 2400 2522 2400 2277 
C 2400 1600 1376 1600 1107 1600 
L 838 1600 
z
" transform="scale(0.015625)"/>
       <path id="CMSY10-0" d="M 4218 1472 
C 4326 1472 4442 1472 4442 1600 
C 4442 1728 4326 1728 4218 1728 
L 755 1728 
C 646 1728 531 1728 531 1600 
C 531 1472 646 1472 755 1472 
L 4218 1472 
z
" transform="scale(0.015625)"/>
       <path id="CMR17-28" d="M 1958 -1561 
C 1958 -1555 1958 -1542 1939 -1523 
C 1645 -1224 858 -407 858 1581 
C 858 3569 1632 4379 1946 4697 
C 1946 4704 1958 4717 1958 4736 
C 1958 4755 1939 4768 1914 4768 
C 1843 4768 1299 4296 986 3594 
C 666 2887 576 2199 576 1588 
C 576 1128 621 351 1005 -471 
C 1312 -1135 1837 -1600 1914 -1600 
C 1946 -1600 1958 -1587 1958 -1561 
z
" transform="scale(0.015625)"/>
       <path id="CMMI12-78" d="M 3034 2606 
C 2829 2567 2752 2414 2752 2293 
C 2752 2139 2874 2088 2963 2088 
C 3155 2088 3290 2254 3290 2427 
C 3290 2695 2982 2816 2714 2816 
C 2323 2816 2106 2433 2048 2312 
C 1901 2816 1504 2816 1389 2816 
C 736 2816 390 1980 390 1839 
C 390 1814 416 1782 461 1782 
C 512 1782 525 1820 538 1846 
C 755 2555 1184 2689 1370 2689 
C 1658 2689 1715 2420 1715 2267 
C 1715 2127 1677 1980 1600 1673 
L 1382 798 
C 1286 415 1101 64 762 64 
C 730 64 570 64 435 147 
C 666 192 717 383 717 460 
C 717 588 621 664 499 664 
C 346 664 179 530 179 326 
C 179 57 480 -64 755 -64 
C 1062 -64 1280 179 1414 441 
C 1517 64 1837 -64 2074 -64 
C 2726 -64 3072 773 3072 913 
C 3072 945 3046 971 3008 971 
C 2950 971 2944 939 2925 888 
C 2752 326 2381 64 2093 64 
C 1869 64 1747 230 1747 492 
C 1747 632 1773 734 1875 1156 
L 2099 2024 
C 2195 2408 2413 2689 2707 2689 
C 2720 2689 2899 2689 3034 2606 
z
" transform="scale(0.015625)"/>
       <path id="CMMI12-6e" d="M 1318 1871 
C 1331 1910 1491 2229 1728 2433 
C 1894 2586 2112 2689 2362 2689 
C 2618 2689 2707 2497 2707 2242 
C 2707 1878 2445 1150 2317 805 
C 2259 651 2227 568 2227 453 
C 2227 166 2426 -64 2733 -64 
C 3328 -64 3552 875 3552 913 
C 3552 945 3526 971 3488 971 
C 3430 971 3424 952 3392 843 
C 3245 319 3002 64 2752 64 
C 2688 64 2586 64 2586 269 
C 2586 429 2656 621 2694 710 
C 2822 1063 3091 1780 3091 2145 
C 3091 2528 2867 2816 2381 2816 
C 1811 2816 1510 2415 1395 2255 
C 1376 2618 1114 2816 832 2816 
C 627 2816 486 2695 378 2478 
C 262 2248 173 1865 173 1839 
C 173 1814 198 1782 243 1782 
C 294 1782 301 1788 339 1935 
C 442 2325 557 2689 813 2689 
C 960 2689 1011 2586 1011 2395 
C 1011 2254 947 2005 902 1807 
L 723 1118 
C 698 996 627 709 595 594 
C 550 428 480 128 480 96 
C 480 6 550 -64 646 -64 
C 723 -64 813 -26 864 70 
C 877 102 934 326 966 453 
L 1107 1028 
L 1318 1871 
z
" transform="scale(0.015625)"/>
       <path id="CMR17-29" d="M 1683 1581 
C 1683 2040 1638 2817 1254 3639 
C 947 4303 422 4768 346 4768 
C 326 4768 301 4761 301 4729 
C 301 4717 307 4710 314 4697 
C 621 4378 1402 3568 1402 1584 
C 1402 -407 627 -1217 314 -1537 
C 307 -1549 301 -1556 301 -1568 
C 301 -1600 326 -1600 346 -1600 
C 416 -1600 960 -1128 1274 -426 
C 1594 281 1683 969 1683 1581 
z
" transform="scale(0.015625)"/>
       <path id="CMMI12-3d" d="M 2746 4562 
C 2746 4569 2784 4666 2784 4678 
C 2784 4755 2720 4800 2669 4800 
C 2637 4800 2579 4800 2528 4659 
L 384 -1363 
C 384 -1370 346 -1465 346 -1478 
C 346 -1555 410 -1600 461 -1600 
C 499 -1600 557 -1593 602 -1459 
L 2746 4562 
z
" transform="scale(0.015625)"/>
       <path id="CMMI12-71" d="M 2822 2759 
C 2822 2790 2797 2816 2765 2816 
C 2714 2816 2464 2585 2342 2362 
C 2227 2646 2029 2816 1754 2816 
C 1030 2816 250 1884 250 939 
C 250 307 621 -64 1056 -64 
C 1395 -64 1677 193 1811 339 
L 1818 333 
L 1574 -615 
L 1517 -842 
C 1459 -1031 1363 -1031 1062 -1031 
C 992 -1031 928 -1031 928 -1152 
C 928 -1197 966 -1216 1011 -1216 
C 1101 -1216 1216 -1216 1306 -1216 
L 1958 -1216 
C 2054 -1216 2163 -1216 2259 -1216 
C 2298 -1216 2374 -1216 2374 -1095 
C 2374 -1031 2323 -1031 2227 -1031 
C 1926 -1031 1907 -986 1907 -935 
C 1907 -904 1914 -898 1933 -815 
L 2822 2759 
z
M 1920 762 
C 1888 652 1888 640 1798 518 
C 1658 339 1376 64 1075 64 
C 813 64 666 301 666 678 
C 666 1030 864 1747 986 2016 
C 1203 2464 1504 2695 1754 2695 
C 2176 2695 2259 2170 2259 2119 
C 2259 2113 2240 2028 2234 2016 
L 1920 762 
z
" transform="scale(0.015625)"/>
       <path id="CMSY10-70" d="M 2490 -5472 
L 1363 -2982 
C 1318 -2880 1286 -2880 1267 -2880 
C 1261 -2880 1229 -2880 1158 -2931 
L 550 -3392 
C 467 -3456 467 -3475 467 -3494 
C 467 -3526 486 -3565 531 -3565 
C 570 -3565 678 -3475 749 -3424 
C 787 -3393 883 -3323 954 -3271 
L 2214 -6042 
C 2259 -6144 2291 -6144 2349 -6144 
C 2445 -6144 2464 -6106 2509 -6016 
L 5414 0 
C 5459 90 5459 115 5459 128 
C 5459 192 5408 256 5331 256 
C 5280 256 5235 224 5184 122 
L 2490 -5472 
z
" transform="scale(0.015625)"/>
       <path id="CMMI12-19" d="M 1658 2408 
L 2381 2408 
C 2208 1692 2099 1226 2099 716 
C 2099 626 2099 -64 2362 -64 
C 2496 -64 2611 57 2611 166 
C 2611 197 2611 210 2566 306 
C 2394 747 2394 1296 2394 1341 
C 2394 1379 2394 1832 2528 2408 
L 3245 2408 
C 3328 2408 3539 2408 3539 2612 
C 3539 2752 3418 2752 3302 2752 
L 1197 2752 
C 1050 2752 832 2752 538 2440 
C 371 2254 166 1916 166 1878 
C 166 1840 198 1827 237 1827 
C 282 1827 288 1846 320 1884 
C 653 2408 986 2408 1146 2408 
L 1510 2408 
C 1370 1929 1210 1373 685 256 
C 634 154 634 140 634 102 
C 634 -32 749 -64 806 -64 
C 992 -64 1043 102 1120 370 
C 1222 696 1222 709 1286 964 
L 1658 2408 
z
" transform="scale(0.015625)"/>
      </defs>
      <use xlink:href="#CMMI12-65" transform="scale(0.996264)"/>
      <use xlink:href="#CMSY10-0" transform="translate(45.212001 36.153639)scale(0.697382)"/>
      <use xlink:href="#CMR17-28" transform="translate(99.452994 36.153639)scale(0.697382)"/>
      <use xlink:href="#CMMI12-78" transform="translate(124.149415 36.153639)scale(0.697382)"/>
      <use xlink:href="#CMSY10-0" transform="translate(162.953074 36.153639)scale(0.697382)"/>
      <use xlink:href="#CMMI12-6e" transform="translate(217.194067 36.153639)scale(0.697382)"/>
      <use xlink:href="#CMMI12-70" transform="translate(257.95491 36.153639)scale(0.697382)"/>
      <use xlink:href="#CMR17-29" transform="translate(292.226417 36.153639)scale(0.697382)"/>
      <use xlink:href="#CMR17-32" transform="translate(316.922837 61.461065)scale(0.498132)"/>
      <use xlink:href="#CMMI12-3d" transform="translate(340.266208 36.153639)scale(0.697382)"/>
      <use xlink:href="#CMR17-32" transform="translate(374.408499 36.153639)scale(0.697382)"/>
      <use xlink:href="#CMMI12-6e" transform="translate(406.391681 36.153639)scale(0.697382)"/>
      <use xlink:href="#CMMI12-70" transform="translate(447.152524 36.153639)scale(0.697382)"/>
      <use xlink:href="#CMMI12-71" transform="translate(481.42403 36.153639)scale(0.697382)"/>
      <use xlink:href="#CMMI12-3d" transform="translate(514.700428 0)scale(0.996264)"/>
      <use xlink:href="#CMSY10-70" transform="translate(563.475346 70.864659)scale(0.996264)"/>
      <use xlink:href="#CMR17-32" transform="translate(646.497601 0)scale(0.996264)"/>
      <use xlink:href="#CMMI12-19" transform="translate(692.188078 0)scale(0.996264)"/>
      <use xlink:href="#CMMI12-6e" transform="translate(751.098678 0)scale(0.996264)"/>
      <use xlink:href="#CMMI12-70" transform="translate(809.328726 0)scale(0.996264)"/>
      <use xlink:href="#CMMI12-71" transform="translate(858.28824 0)scale(0.996264)"/>
      <path d="M 646.497601 70.864659 
L 905.114564 70.864659 
L 905.114564 74.849609 
L 646.497601 74.849609 
L 646.497601 70.864659 
z
"/>
     </g>
    </g>
    <g id="patch_108">
     <path d="M 275.379898 104.137363 
L 295.379898 104.137363 
L 295.379898 97.137363 
L 275.379898 97.137363 
z
" style="fill: #1f77b4"/>
    </g>
    <g id="text_19">
     <!-- $\binom{n}{k}(1-p)^{n-k}p^k$ -->
     <g transform="translate(303.379898 104.137363)scale(0.1 -0.1)">
      <defs>
       <path id="CMEX10-30" d="M 2394 -11328 
C 2534 -11328 2573 -11328 2573 -11238 
C 2586 -6752 3104 -3027 5344 102 
C 5389 160 5389 173 5389 186 
C 5389 250 5344 250 5242 250 
C 5139 250 5126 250 5114 237 
C 5088 218 4275 -717 3629 -2003 
C 2784 -3693 2253 -5632 2016 -7962 
C 1997 -8160 1862 -9491 1862 -11008 
L 1862 -11258 
C 1869 -11328 1907 -11328 2042 -11328 
L 2394 -11328 
z
" transform="scale(0.015625)"/>
       <path id="CMEX10-42" d="M 2574 -109 
C 2574 58 2567 64 2395 64 
L 2043 64 
C 1870 64 1863 58 1863 -109 
L 1863 -3731 
C 1863 -3898 1870 -3904 2043 -3904 
L 2395 -3904 
C 2567 -3904 2574 -3898 2574 -3731 
L 2574 -109 
z
" transform="scale(0.015625)"/>
       <path id="CMEX10-40" d="M 2042 320 
C 1907 320 1869 320 1862 250 
L 1862 0 
C 1862 -3910 2560 -6202 2758 -6848 
C 3194 -8269 3904 -9766 4973 -11085 
C 5069 -11200 5094 -11232 5120 -11245 
C 5133 -11251 5139 -11258 5242 -11258 
C 5344 -11258 5389 -11258 5389 -11194 
C 5389 -11181 5389 -11168 5350 -11110 
C 3219 -8154 2579 -4595 2573 230 
C 2573 320 2534 320 2394 320 
L 2042 320 
z
" transform="scale(0.015625)"/>
       <path id="CMMI12-6b" d="M 1798 4257 
C 1805 4283 1818 4321 1818 4352 
C 1818 4416 1754 4416 1741 4416 
C 1734 4416 1504 4393 1389 4377 
C 1280 4377 1184 4358 1069 4358 
C 915 4345 870 4339 870 4224 
C 870 4160 934 4160 998 4160 
C 1325 4160 1325 4103 1325 4040 
C 1325 4015 1325 4002 1293 3888 
L 378 248 
C 352 152 352 140 352 101 
C 352 -38 461 -64 525 -64 
C 704 -64 742 77 794 275 
L 1094 1469 
C 1555 1418 1830 1226 1830 920 
C 1830 881 1830 856 1811 760 
C 1786 664 1786 588 1786 556 
C 1786 185 2029 -64 2355 -64 
C 2650 -64 2803 204 2854 294 
C 2989 530 3072 888 3072 913 
C 3072 945 3046 971 3008 971 
C 2950 971 2944 945 2918 843 
C 2829 511 2694 64 2368 64 
C 2240 64 2157 128 2157 370 
C 2157 492 2182 632 2208 728 
C 2234 843 2234 849 2234 926 
C 2234 1303 1894 1514 1306 1590 
C 1536 1731 1766 1980 1856 2076 
C 2221 2484 2470 2689 2765 2689 
C 2912 2689 2950 2650 2995 2612 
C 2758 2586 2669 2420 2669 2293 
C 2669 2139 2790 2088 2880 2088 
C 3053 2088 3206 2235 3206 2440 
C 3206 2625 3059 2816 2771 2816 
C 2419 2816 2131 2567 1677 2056 
C 1613 1980 1376 1737 1139 1648 
L 1798 4257 
z
" transform="scale(0.015625)"/>
       <path id="CMEX10-31" d="M 3731 -11008 
C 3731 -7098 3034 -4806 2835 -4160 
C 2400 -2739 1690 -1242 621 77 
C 525 192 499 224 474 237 
C 461 243 454 250 352 250 
C 256 250 205 250 205 186 
C 205 173 205 160 288 45 
C 2515 -3066 3014 -6906 3021 -11238 
C 3021 -11328 3059 -11328 3200 -11328 
L 3552 -11328 
C 3686 -11328 3725 -11328 3731 -11258 
L 3731 -11008 
z
" transform="scale(0.015625)"/>
       <path id="CMEX10-43" d="M 3733 -109 
C 3733 58 3727 64 3554 64 
L 3202 64 
C 3029 64 3023 58 3023 -109 
L 3023 -3731 
C 3023 -3898 3029 -3904 3202 -3904 
L 3554 -3904 
C 3727 -3904 3733 -3898 3733 -3731 
L 3733 -109 
z
" transform="scale(0.015625)"/>
       <path id="CMEX10-41" d="M 3731 250 
C 3725 320 3686 320 3552 320 
L 3200 320 
C 3059 320 3021 320 3021 230 
C 3021 -429 3014 -1952 2848 -3546 
C 2502 -6854 1651 -9146 250 -11110 
C 205 -11168 205 -11181 205 -11194 
C 205 -11258 256 -11258 352 -11258 
C 454 -11258 467 -11258 480 -11245 
C 506 -11226 1318 -10291 1965 -9005 
C 2810 -7315 3341 -5376 3578 -3046 
C 3597 -2848 3731 -1517 3731 0 
L 3731 250 
z
" transform="scale(0.015625)"/>
      </defs>
      <use xlink:href="#CMEX10-30" transform="translate(0 75.96846)scale(0.247871)"/>
      <use xlink:href="#CMEX10-42" transform="translate(0 32.34278)scale(0.247871)"/>
      <use xlink:href="#CMEX10-40" transform="translate(0 16.47896)scale(0.247871)"/>
      <use xlink:href="#CMMI12-6e" transform="translate(21.688733 44.207346)scale(0.697382)"/>
      <use xlink:href="#CMMI12-6b" transform="translate(23.141536 -34.355268)scale(0.697382)"/>
      <use xlink:href="#CMEX10-31" transform="translate(62.449576 75.96846)scale(0.247871)"/>
      <use xlink:href="#CMEX10-43" transform="translate(62.449576 32.34278)scale(0.247871)"/>
      <use xlink:href="#CMEX10-41" transform="translate(62.449576 16.47896)scale(0.247871)"/>
      <use xlink:href="#CMR17-28" transform="translate(84.138308 0)scale(0.996264)"/>
      <use xlink:href="#CMR17-31" transform="translate(119.419076 0)scale(0.996264)"/>
      <use xlink:href="#CMSY10-0" transform="translate(187.24876 0)scale(0.996264)"/>
      <use xlink:href="#CMMI12-70" transform="translate(286.875435 0)scale(0.996264)"/>
      <use xlink:href="#CMR17-29" transform="translate(335.834949 0)scale(0.996264)"/>
      <use xlink:href="#CMMI12-6e" transform="translate(371.115717 36.153639)scale(0.697382)"/>
      <use xlink:href="#CMSY10-0" transform="translate(411.87656 36.153639)scale(0.697382)"/>
      <use xlink:href="#CMMI12-6b" transform="translate(466.117553 36.153639)scale(0.697382)"/>
      <use xlink:href="#CMMI12-70" transform="translate(504.470935 0)scale(0.996264)"/>
      <use xlink:href="#CMMI12-6b" transform="translate(553.430449 36.153639)scale(0.697382)"/>
     </g>
    </g>
   </g>
  </g>
 </g>
 <defs>
  <clipPath id="p3890e1e305">
   <rect x="57.6" y="41.472" width="357.12" height="266.112"/>
  </clipPath>
 </defs>
</svg>
