<?xml version="1.0" encoding="utf-8" standalone="no"?>
<!DOCTYPE svg PUBLIC "-//W3C//DTD SVG 1.1//EN"
  "http://www.w3.org/Graphics/SVG/1.1/DTD/svg11.dtd">
<svg xmlns:xlink="http://www.w3.org/1999/xlink" width="460.8pt" height="345.6pt" viewBox="0 0 460.8 345.6" xmlns="http://www.w3.org/2000/svg" version="1.1">
 <metadata>
  <rdf:RDF xmlns:dc="http://purl.org/dc/elements/1.1/" xmlns:cc="http://creativecommons.org/ns#" xmlns:rdf="http://www.w3.org/1999/02/22-rdf-syntax-ns#">
   <cc:Work>
    <dc:type rdf:resource="http://purl.org/dc/dcmitype/StillImage"/>
    <dc:date>2025-02-22T11:38:37.337241</dc:date>
    <dc:format>image/svg+xml</dc:format>
    <dc:creator>
     <cc:Agent>
      <dc:title>Matplotlib v3.8.4, https://matplotlib.org/</dc:title>
     </cc:Agent>
    </dc:creator>
   </cc:Work>
  </rdf:RDF>
 </metadata>
 <defs>
  <style type="text/css">*{stroke-linejoin: round; stroke-linecap: butt}</style>
 </defs>
 <g id="figure_1">
  <g id="patch_1">
   <path d="M 0 345.6 
L 460.8 345.6 
L 460.8 0 
L 0 0 
L 0 345.6 
z
" style="fill: none"/>
  </g>
  <g id="axes_1">
   <g id="patch_2">
    <path d="M 57.6 307.584 
L 414.72 307.584 
L 414.72 41.472 
L 57.6 41.472 
L 57.6 307.584 
z
" style="fill: none"/>
   </g>
   <g id="matplotlib.axis_1">
    <g id="xtick_1">
     <g id="line2d_1">
      <path d="M 73.832727 307.584 
L 73.832727 41.472 
" clip-path="url(#pd39442ca5b)" style="fill: none; stroke: #b0b0b0; stroke-width: 0.8; stroke-linecap: square"/>
     </g>
     <g id="line2d_2">
      <defs>
       <path id="mebeae476ec" d="M 0 0 
L 0 3.5 
" style="stroke: #000000; stroke-width: 0.8"/>
      </defs>
      <g>
       <use xlink:href="#mebeae476ec" x="73.832727" y="307.584" style="stroke: #000000; stroke-width: 0.8"/>
      </g>
     </g>
     <g id="text_1">
      <!-- 1 -->
      <g transform="translate(71.332727 321.52775) scale(0.1 -0.1)">
       <defs>
        <path id="TimesNewRomanPSMT-31" d="M 750 3822 
L 1781 4325 
L 1884 4325 
L 1884 747 
Q 1884 391 1914 303 
Q 1944 216 2037 169 
Q 2131 122 2419 116 
L 2419 0 
L 825 0 
L 825 116 
Q 1125 122 1212 167 
Q 1300 213 1334 289 
Q 1369 366 1369 747 
L 1369 3034 
Q 1369 3497 1338 3628 
Q 1316 3728 1258 3775 
Q 1200 3822 1119 3822 
Q 1003 3822 797 3725 
L 750 3822 
z
" transform="scale(0.015625)"/>
       </defs>
       <use xlink:href="#TimesNewRomanPSMT-31"/>
      </g>
     </g>
    </g>
    <g id="xtick_2">
     <g id="line2d_3">
      <path d="M 104.310501 307.584 
L 104.310501 41.472 
" clip-path="url(#pd39442ca5b)" style="fill: none; stroke: #b0b0b0; stroke-width: 0.8; stroke-linecap: square"/>
     </g>
     <g id="line2d_4">
      <g>
       <use xlink:href="#mebeae476ec" x="104.310501" y="307.584" style="stroke: #000000; stroke-width: 0.8"/>
      </g>
     </g>
     <g id="text_2">
      <!-- 24 -->
      <g transform="translate(99.310501 321.52775) scale(0.1 -0.1)">
       <defs>
        <path id="TimesNewRomanPSMT-32" d="M 2934 816 
L 2638 0 
L 138 0 
L 138 116 
Q 1241 1122 1691 1759 
Q 2141 2397 2141 2925 
Q 2141 3328 1894 3587 
Q 1647 3847 1303 3847 
Q 991 3847 742 3664 
Q 494 3481 375 3128 
L 259 3128 
Q 338 3706 661 4015 
Q 984 4325 1469 4325 
Q 1984 4325 2329 3994 
Q 2675 3663 2675 3213 
Q 2675 2891 2525 2569 
Q 2294 2063 1775 1497 
Q 997 647 803 472 
L 1909 472 
Q 2247 472 2383 497 
Q 2519 522 2628 598 
Q 2738 675 2819 816 
L 2934 816 
z
" transform="scale(0.015625)"/>
        <path id="TimesNewRomanPSMT-34" d="M 2978 1563 
L 2978 1119 
L 2409 1119 
L 2409 0 
L 1894 0 
L 1894 1119 
L 100 1119 
L 100 1519 
L 2066 4325 
L 2409 4325 
L 2409 1563 
L 2978 1563 
z
M 1894 1563 
L 1894 3666 
L 406 1563 
L 1894 1563 
z
" transform="scale(0.015625)"/>
       </defs>
       <use xlink:href="#TimesNewRomanPSMT-32"/>
       <use xlink:href="#TimesNewRomanPSMT-34" x="50"/>
      </g>
     </g>
    </g>
    <g id="xtick_3">
     <g id="line2d_5">
      <path d="M 136.113395 307.584 
L 136.113395 41.472 
" clip-path="url(#pd39442ca5b)" style="fill: none; stroke: #b0b0b0; stroke-width: 0.8; stroke-linecap: square"/>
     </g>
     <g id="line2d_6">
      <g>
       <use xlink:href="#mebeae476ec" x="136.113395" y="307.584" style="stroke: #000000; stroke-width: 0.8"/>
      </g>
     </g>
     <g id="text_3">
      <!-- 48 -->
      <g transform="translate(131.113395 321.52775) scale(0.1 -0.1)">
       <defs>
        <path id="TimesNewRomanPSMT-38" d="M 1228 2134 
Q 725 2547 579 2797 
Q 434 3047 434 3316 
Q 434 3728 753 4026 
Q 1072 4325 1600 4325 
Q 2113 4325 2425 4047 
Q 2738 3769 2738 3413 
Q 2738 3175 2569 2928 
Q 2400 2681 1866 2347 
Q 2416 1922 2594 1678 
Q 2831 1359 2831 1006 
Q 2831 559 2490 242 
Q 2150 -75 1597 -75 
Q 994 -75 656 303 
Q 388 606 388 966 
Q 388 1247 577 1523 
Q 766 1800 1228 2134 
z
M 1719 2469 
Q 2094 2806 2194 3001 
Q 2294 3197 2294 3444 
Q 2294 3772 2109 3958 
Q 1925 4144 1606 4144 
Q 1288 4144 1088 3959 
Q 888 3775 888 3528 
Q 888 3366 970 3203 
Q 1053 3041 1206 2894 
L 1719 2469 
z
M 1375 2016 
Q 1116 1797 991 1539 
Q 866 1281 866 981 
Q 866 578 1086 336 
Q 1306 94 1647 94 
Q 1984 94 2187 284 
Q 2391 475 2391 747 
Q 2391 972 2272 1150 
Q 2050 1481 1375 2016 
z
" transform="scale(0.015625)"/>
       </defs>
       <use xlink:href="#TimesNewRomanPSMT-34"/>
       <use xlink:href="#TimesNewRomanPSMT-38" x="50"/>
      </g>
     </g>
    </g>
    <g id="xtick_4">
     <g id="line2d_7">
      <path d="M 167.916289 307.584 
L 167.916289 41.472 
" clip-path="url(#pd39442ca5b)" style="fill: none; stroke: #b0b0b0; stroke-width: 0.8; stroke-linecap: square"/>
     </g>
     <g id="line2d_8">
      <g>
       <use xlink:href="#mebeae476ec" x="167.916289" y="307.584" style="stroke: #000000; stroke-width: 0.8"/>
      </g>
     </g>
     <g id="text_4">
      <!-- 72 -->
      <g transform="translate(162.916289 321.52775) scale(0.1 -0.1)">
       <defs>
        <path id="TimesNewRomanPSMT-37" d="M 644 4238 
L 2916 4238 
L 2916 4119 
L 1503 -88 
L 1153 -88 
L 2419 3728 
L 1253 3728 
Q 900 3728 750 3644 
Q 488 3500 328 3200 
L 238 3234 
L 644 4238 
z
" transform="scale(0.015625)"/>
       </defs>
       <use xlink:href="#TimesNewRomanPSMT-37"/>
       <use xlink:href="#TimesNewRomanPSMT-32" x="50"/>
      </g>
     </g>
    </g>
    <g id="xtick_5">
     <g id="line2d_9">
      <path d="M 199.719184 307.584 
L 199.719184 41.472 
" clip-path="url(#pd39442ca5b)" style="fill: none; stroke: #b0b0b0; stroke-width: 0.8; stroke-linecap: square"/>
     </g>
     <g id="line2d_10">
      <g>
       <use xlink:href="#mebeae476ec" x="199.719184" y="307.584" style="stroke: #000000; stroke-width: 0.8"/>
      </g>
     </g>
     <g id="text_5">
      <!-- 96 -->
      <g transform="translate(194.719184 321.52775) scale(0.1 -0.1)">
       <defs>
        <path id="TimesNewRomanPSMT-39" d="M 338 -88 
L 338 28 
Q 744 34 1094 217 
Q 1444 400 1770 856 
Q 2097 1313 2225 1859 
Q 1734 1544 1338 1544 
Q 891 1544 572 1889 
Q 253 2234 253 2806 
Q 253 3363 572 3797 
Q 956 4325 1575 4325 
Q 2097 4325 2469 3894 
Q 2925 3359 2925 2575 
Q 2925 1869 2578 1258 
Q 2231 647 1613 244 
Q 1109 -88 516 -88 
L 338 -88 
z
M 2275 2091 
Q 2331 2497 2331 2741 
Q 2331 3044 2228 3395 
Q 2125 3747 1936 3934 
Q 1747 4122 1506 4122 
Q 1228 4122 1018 3872 
Q 809 3622 809 3128 
Q 809 2469 1088 2097 
Q 1291 1828 1588 1828 
Q 1731 1828 1928 1897 
Q 2125 1966 2275 2091 
z
" transform="scale(0.015625)"/>
        <path id="TimesNewRomanPSMT-36" d="M 2869 4325 
L 2869 4209 
Q 2456 4169 2195 4045 
Q 1934 3922 1679 3669 
Q 1425 3416 1258 3105 
Q 1091 2794 978 2366 
Q 1428 2675 1881 2675 
Q 2316 2675 2634 2325 
Q 2953 1975 2953 1425 
Q 2953 894 2631 456 
Q 2244 -75 1606 -75 
Q 1172 -75 869 213 
Q 275 772 275 1663 
Q 275 2231 503 2743 
Q 731 3256 1154 3653 
Q 1578 4050 1965 4187 
Q 2353 4325 2688 4325 
L 2869 4325 
z
M 925 2138 
Q 869 1716 869 1456 
Q 869 1156 980 804 
Q 1091 453 1309 247 
Q 1469 100 1697 100 
Q 1969 100 2183 356 
Q 2397 613 2397 1088 
Q 2397 1622 2184 2012 
Q 1972 2403 1581 2403 
Q 1463 2403 1327 2353 
Q 1191 2303 925 2138 
z
" transform="scale(0.015625)"/>
       </defs>
       <use xlink:href="#TimesNewRomanPSMT-39"/>
       <use xlink:href="#TimesNewRomanPSMT-36" x="50"/>
      </g>
     </g>
    </g>
    <g id="xtick_6">
     <g id="line2d_11">
      <path d="M 231.522078 307.584 
L 231.522078 41.472 
" clip-path="url(#pd39442ca5b)" style="fill: none; stroke: #b0b0b0; stroke-width: 0.8; stroke-linecap: square"/>
     </g>
     <g id="line2d_12">
      <g>
       <use xlink:href="#mebeae476ec" x="231.522078" y="307.584" style="stroke: #000000; stroke-width: 0.8"/>
      </g>
     </g>
     <g id="text_6">
      <!-- 120 -->
      <g transform="translate(224.022078 321.52775) scale(0.1 -0.1)">
       <defs>
        <path id="TimesNewRomanPSMT-30" d="M 231 2094 
Q 231 2819 450 3342 
Q 669 3866 1031 4122 
Q 1313 4325 1613 4325 
Q 2100 4325 2488 3828 
Q 2972 3213 2972 2159 
Q 2972 1422 2759 906 
Q 2547 391 2217 158 
Q 1888 -75 1581 -75 
Q 975 -75 572 641 
Q 231 1244 231 2094 
z
M 844 2016 
Q 844 1141 1059 588 
Q 1238 122 1591 122 
Q 1759 122 1940 273 
Q 2122 425 2216 781 
Q 2359 1319 2359 2297 
Q 2359 3022 2209 3506 
Q 2097 3866 1919 4016 
Q 1791 4119 1609 4119 
Q 1397 4119 1231 3928 
Q 1006 3669 925 3112 
Q 844 2556 844 2016 
z
" transform="scale(0.015625)"/>
       </defs>
       <use xlink:href="#TimesNewRomanPSMT-31"/>
       <use xlink:href="#TimesNewRomanPSMT-32" x="50"/>
       <use xlink:href="#TimesNewRomanPSMT-30" x="100"/>
      </g>
     </g>
    </g>
    <g id="xtick_7">
     <g id="line2d_13">
      <path d="M 263.324972 307.584 
L 263.324972 41.472 
" clip-path="url(#pd39442ca5b)" style="fill: none; stroke: #b0b0b0; stroke-width: 0.8; stroke-linecap: square"/>
     </g>
     <g id="line2d_14">
      <g>
       <use xlink:href="#mebeae476ec" x="263.324972" y="307.584" style="stroke: #000000; stroke-width: 0.8"/>
      </g>
     </g>
     <g id="text_7">
      <!-- 144 -->
      <g transform="translate(255.824972 321.52775) scale(0.1 -0.1)">
       <use xlink:href="#TimesNewRomanPSMT-31"/>
       <use xlink:href="#TimesNewRomanPSMT-34" x="50"/>
       <use xlink:href="#TimesNewRomanPSMT-34" x="100"/>
      </g>
     </g>
    </g>
    <g id="xtick_8">
     <g id="line2d_15">
      <path d="M 295.127866 307.584 
L 295.127866 41.472 
" clip-path="url(#pd39442ca5b)" style="fill: none; stroke: #b0b0b0; stroke-width: 0.8; stroke-linecap: square"/>
     </g>
     <g id="line2d_16">
      <g>
       <use xlink:href="#mebeae476ec" x="295.127866" y="307.584" style="stroke: #000000; stroke-width: 0.8"/>
      </g>
     </g>
     <g id="text_8">
      <!-- 168 -->
      <g transform="translate(287.627866 321.52775) scale(0.1 -0.1)">
       <use xlink:href="#TimesNewRomanPSMT-31"/>
       <use xlink:href="#TimesNewRomanPSMT-36" x="50"/>
       <use xlink:href="#TimesNewRomanPSMT-38" x="100"/>
      </g>
     </g>
    </g>
    <g id="xtick_9">
     <g id="line2d_17">
      <path d="M 326.930761 307.584 
L 326.930761 41.472 
" clip-path="url(#pd39442ca5b)" style="fill: none; stroke: #b0b0b0; stroke-width: 0.8; stroke-linecap: square"/>
     </g>
     <g id="line2d_18">
      <g>
       <use xlink:href="#mebeae476ec" x="326.930761" y="307.584" style="stroke: #000000; stroke-width: 0.8"/>
      </g>
     </g>
     <g id="text_9">
      <!-- 192 -->
      <g transform="translate(319.430761 321.52775) scale(0.1 -0.1)">
       <use xlink:href="#TimesNewRomanPSMT-31"/>
       <use xlink:href="#TimesNewRomanPSMT-39" x="50"/>
       <use xlink:href="#TimesNewRomanPSMT-32" x="100"/>
      </g>
     </g>
    </g>
    <g id="xtick_10">
     <g id="line2d_19">
      <path d="M 358.733655 307.584 
L 358.733655 41.472 
" clip-path="url(#pd39442ca5b)" style="fill: none; stroke: #b0b0b0; stroke-width: 0.8; stroke-linecap: square"/>
     </g>
     <g id="line2d_20">
      <g>
       <use xlink:href="#mebeae476ec" x="358.733655" y="307.584" style="stroke: #000000; stroke-width: 0.8"/>
      </g>
     </g>
     <g id="text_10">
      <!-- 216 -->
      <g transform="translate(351.233655 321.52775) scale(0.1 -0.1)">
       <use xlink:href="#TimesNewRomanPSMT-32"/>
       <use xlink:href="#TimesNewRomanPSMT-31" x="50"/>
       <use xlink:href="#TimesNewRomanPSMT-36" x="100"/>
      </g>
     </g>
    </g>
    <g id="xtick_11">
     <g id="line2d_21">
      <path d="M 390.536549 307.584 
L 390.536549 41.472 
" clip-path="url(#pd39442ca5b)" style="fill: none; stroke: #b0b0b0; stroke-width: 0.8; stroke-linecap: square"/>
     </g>
     <g id="line2d_22">
      <g>
       <use xlink:href="#mebeae476ec" x="390.536549" y="307.584" style="stroke: #000000; stroke-width: 0.8"/>
      </g>
     </g>
     <g id="text_11">
      <!-- 240 -->
      <g transform="translate(383.036549 321.52775) scale(0.1 -0.1)">
       <use xlink:href="#TimesNewRomanPSMT-32"/>
       <use xlink:href="#TimesNewRomanPSMT-34" x="50"/>
       <use xlink:href="#TimesNewRomanPSMT-30" x="100"/>
      </g>
     </g>
    </g>
    <g id="text_12">
     <!-- hours between flares -->
     <g transform="translate(194.786563 334.610562) scale(0.1 -0.1)">
      <defs>
       <path id="TimesNewRomanPSMT-68" d="M 1041 4444 
L 1041 2350 
Q 1388 2731 1591 2839 
Q 1794 2947 1997 2947 
Q 2241 2947 2416 2812 
Q 2591 2678 2675 2391 
Q 2734 2191 2734 1659 
L 2734 647 
Q 2734 375 2778 275 
Q 2809 200 2884 156 
Q 2959 113 3159 113 
L 3159 0 
L 1753 0 
L 1753 113 
L 1819 113 
Q 2019 113 2097 173 
Q 2175 234 2206 353 
Q 2216 403 2216 647 
L 2216 1659 
Q 2216 2128 2167 2275 
Q 2119 2422 2012 2495 
Q 1906 2569 1756 2569 
Q 1603 2569 1437 2487 
Q 1272 2406 1041 2159 
L 1041 647 
Q 1041 353 1073 281 
Q 1106 209 1195 161 
Q 1284 113 1503 113 
L 1503 0 
L 84 0 
L 84 113 
Q 275 113 384 172 
Q 447 203 484 290 
Q 522 378 522 647 
L 522 3238 
Q 522 3728 498 3840 
Q 475 3953 426 3993 
Q 378 4034 297 4034 
Q 231 4034 84 3984 
L 41 4094 
L 897 4444 
L 1041 4444 
z
" transform="scale(0.015625)"/>
       <path id="TimesNewRomanPSMT-6f" d="M 1600 2947 
Q 2250 2947 2644 2453 
Q 2978 2031 2978 1484 
Q 2978 1100 2793 706 
Q 2609 313 2286 112 
Q 1963 -88 1566 -88 
Q 919 -88 538 428 
Q 216 863 216 1403 
Q 216 1797 411 2186 
Q 606 2575 925 2761 
Q 1244 2947 1600 2947 
z
M 1503 2744 
Q 1338 2744 1170 2645 
Q 1003 2547 900 2300 
Q 797 2053 797 1666 
Q 797 1041 1045 587 
Q 1294 134 1700 134 
Q 2003 134 2200 384 
Q 2397 634 2397 1244 
Q 2397 2006 2069 2444 
Q 1847 2744 1503 2744 
z
" transform="scale(0.015625)"/>
       <path id="TimesNewRomanPSMT-75" d="M 2709 2863 
L 2709 1128 
Q 2709 631 2732 520 
Q 2756 409 2807 365 
Q 2859 322 2928 322 
Q 3025 322 3147 375 
L 3191 266 
L 2334 -88 
L 2194 -88 
L 2194 519 
Q 1825 119 1631 15 
Q 1438 -88 1222 -88 
Q 981 -88 804 51 
Q 628 191 559 409 
Q 491 628 491 1028 
L 491 2306 
Q 491 2509 447 2587 
Q 403 2666 317 2708 
Q 231 2750 6 2747 
L 6 2863 
L 1009 2863 
L 1009 947 
Q 1009 547 1148 422 
Q 1288 297 1484 297 
Q 1619 297 1789 381 
Q 1959 466 2194 703 
L 2194 2325 
Q 2194 2569 2105 2655 
Q 2016 2741 1734 2747 
L 1734 2863 
L 2709 2863 
z
" transform="scale(0.015625)"/>
       <path id="TimesNewRomanPSMT-72" d="M 1038 2947 
L 1038 2303 
Q 1397 2947 1775 2947 
Q 1947 2947 2059 2842 
Q 2172 2738 2172 2600 
Q 2172 2478 2090 2393 
Q 2009 2309 1897 2309 
Q 1788 2309 1652 2417 
Q 1516 2525 1450 2525 
Q 1394 2525 1328 2463 
Q 1188 2334 1038 2041 
L 1038 669 
Q 1038 431 1097 309 
Q 1138 225 1241 169 
Q 1344 113 1538 113 
L 1538 0 
L 72 0 
L 72 113 
Q 291 113 397 181 
Q 475 231 506 341 
Q 522 394 522 644 
L 522 1753 
Q 522 2253 501 2348 
Q 481 2444 426 2487 
Q 372 2531 291 2531 
Q 194 2531 72 2484 
L 41 2597 
L 906 2947 
L 1038 2947 
z
" transform="scale(0.015625)"/>
       <path id="TimesNewRomanPSMT-73" d="M 2050 2947 
L 2050 1972 
L 1947 1972 
Q 1828 2431 1642 2597 
Q 1456 2763 1169 2763 
Q 950 2763 815 2647 
Q 681 2531 681 2391 
Q 681 2216 781 2091 
Q 878 1963 1175 1819 
L 1631 1597 
Q 2266 1288 2266 781 
Q 2266 391 1970 151 
Q 1675 -88 1309 -88 
Q 1047 -88 709 6 
Q 606 38 541 38 
Q 469 38 428 -44 
L 325 -44 
L 325 978 
L 428 978 
Q 516 541 762 319 
Q 1009 97 1316 97 
Q 1531 97 1667 223 
Q 1803 350 1803 528 
Q 1803 744 1651 891 
Q 1500 1038 1047 1263 
Q 594 1488 453 1669 
Q 313 1847 313 2119 
Q 313 2472 555 2709 
Q 797 2947 1181 2947 
Q 1350 2947 1591 2875 
Q 1750 2828 1803 2828 
Q 1853 2828 1881 2850 
Q 1909 2872 1947 2947 
L 2050 2947 
z
" transform="scale(0.015625)"/>
       <path id="TimesNewRomanPSMT-20" transform="scale(0.015625)"/>
       <path id="TimesNewRomanPSMT-62" d="M 984 2369 
Q 1400 2947 1881 2947 
Q 2322 2947 2650 2570 
Q 2978 2194 2978 1541 
Q 2978 778 2472 313 
Q 2038 -88 1503 -88 
Q 1253 -88 995 3 
Q 738 94 469 275 
L 469 3241 
Q 469 3728 445 3840 
Q 422 3953 372 3993 
Q 322 4034 247 4034 
Q 159 4034 28 3984 
L -16 4094 
L 844 4444 
L 984 4444 
L 984 2369 
z
M 984 2169 
L 984 456 
Q 1144 300 1314 220 
Q 1484 141 1663 141 
Q 1947 141 2192 453 
Q 2438 766 2438 1363 
Q 2438 1913 2192 2208 
Q 1947 2503 1634 2503 
Q 1469 2503 1303 2419 
Q 1178 2356 984 2169 
z
" transform="scale(0.015625)"/>
       <path id="TimesNewRomanPSMT-65" d="M 681 1784 
Q 678 1147 991 784 
Q 1303 422 1725 422 
Q 2006 422 2214 576 
Q 2422 731 2563 1106 
L 2659 1044 
Q 2594 616 2278 264 
Q 1963 -88 1488 -88 
Q 972 -88 605 314 
Q 238 716 238 1394 
Q 238 2128 614 2539 
Q 991 2950 1559 2950 
Q 2041 2950 2350 2633 
Q 2659 2316 2659 1784 
L 681 1784 
z
M 681 1966 
L 2006 1966 
Q 1991 2241 1941 2353 
Q 1863 2528 1708 2628 
Q 1553 2728 1384 2728 
Q 1125 2728 920 2526 
Q 716 2325 681 1966 
z
" transform="scale(0.015625)"/>
       <path id="TimesNewRomanPSMT-74" d="M 1031 3803 
L 1031 2863 
L 1700 2863 
L 1700 2644 
L 1031 2644 
L 1031 788 
Q 1031 509 1111 412 
Q 1191 316 1316 316 
Q 1419 316 1516 380 
Q 1613 444 1666 569 
L 1788 569 
Q 1678 263 1478 108 
Q 1278 -47 1066 -47 
Q 922 -47 784 33 
Q 647 113 581 261 
Q 516 409 516 719 
L 516 2644 
L 63 2644 
L 63 2747 
Q 234 2816 414 2980 
Q 594 3144 734 3369 
Q 806 3488 934 3803 
L 1031 3803 
z
" transform="scale(0.015625)"/>
       <path id="TimesNewRomanPSMT-77" d="M 41 2863 
L 1241 2863 
L 1241 2747 
Q 1075 2734 1023 2687 
Q 972 2641 972 2553 
Q 972 2456 1025 2319 
L 1638 672 
L 2253 2013 
L 2091 2434 
Q 2016 2622 1894 2694 
Q 1825 2738 1638 2747 
L 1638 2863 
L 3000 2863 
L 3000 2747 
Q 2775 2738 2681 2666 
Q 2619 2616 2619 2506 
Q 2619 2444 2644 2378 
L 3294 734 
L 3897 2319 
Q 3959 2488 3959 2588 
Q 3959 2647 3898 2694 
Q 3838 2741 3659 2747 
L 3659 2863 
L 4563 2863 
L 4563 2747 
Q 4291 2706 4163 2378 
L 3206 -88 
L 3078 -88 
L 2363 1741 
L 1528 -88 
L 1413 -88 
L 494 2319 
Q 403 2547 315 2626 
Q 228 2706 41 2747 
L 41 2863 
z
" transform="scale(0.015625)"/>
       <path id="TimesNewRomanPSMT-6e" d="M 1034 2341 
Q 1538 2947 1994 2947 
Q 2228 2947 2397 2830 
Q 2566 2713 2666 2444 
Q 2734 2256 2734 1869 
L 2734 647 
Q 2734 375 2778 278 
Q 2813 200 2889 156 
Q 2966 113 3172 113 
L 3172 0 
L 1756 0 
L 1756 113 
L 1816 113 
Q 2016 113 2095 173 
Q 2175 234 2206 353 
Q 2219 400 2219 647 
L 2219 1819 
Q 2219 2209 2117 2386 
Q 2016 2563 1775 2563 
Q 1403 2563 1034 2156 
L 1034 647 
Q 1034 356 1069 288 
Q 1113 197 1189 155 
Q 1266 113 1500 113 
L 1500 0 
L 84 0 
L 84 113 
L 147 113 
Q 366 113 442 223 
Q 519 334 519 647 
L 519 1709 
Q 519 2225 495 2337 
Q 472 2450 423 2490 
Q 375 2531 294 2531 
Q 206 2531 84 2484 
L 38 2597 
L 900 2947 
L 1034 2947 
L 1034 2341 
z
" transform="scale(0.015625)"/>
       <path id="TimesNewRomanPSMT-66" d="M 1319 2638 
L 1319 756 
Q 1319 356 1406 250 
Q 1522 113 1716 113 
L 1975 113 
L 1975 0 
L 266 0 
L 266 113 
L 394 113 
Q 519 113 622 175 
Q 725 238 764 344 
Q 803 450 803 756 
L 803 2638 
L 247 2638 
L 247 2863 
L 803 2863 
L 803 3050 
Q 803 3478 940 3775 
Q 1078 4072 1361 4255 
Q 1644 4438 1997 4438 
Q 2325 4438 2600 4225 
Q 2781 4084 2781 3909 
Q 2781 3816 2700 3733 
Q 2619 3650 2525 3650 
Q 2453 3650 2373 3701 
Q 2294 3753 2178 3923 
Q 2063 4094 1966 4153 
Q 1869 4213 1750 4213 
Q 1606 4213 1506 4136 
Q 1406 4059 1362 3898 
Q 1319 3738 1319 3069 
L 1319 2863 
L 2056 2863 
L 2056 2638 
L 1319 2638 
z
" transform="scale(0.015625)"/>
       <path id="TimesNewRomanPSMT-6c" d="M 1184 4444 
L 1184 647 
Q 1184 378 1223 290 
Q 1263 203 1344 158 
Q 1425 113 1647 113 
L 1647 0 
L 244 0 
L 244 113 
Q 441 113 512 153 
Q 584 194 625 287 
Q 666 381 666 647 
L 666 3247 
Q 666 3731 644 3842 
Q 622 3953 573 3993 
Q 525 4034 450 4034 
Q 369 4034 244 3984 
L 191 4094 
L 1044 4444 
L 1184 4444 
z
" transform="scale(0.015625)"/>
       <path id="TimesNewRomanPSMT-61" d="M 1822 413 
Q 1381 72 1269 19 
Q 1100 -59 909 -59 
Q 613 -59 420 144 
Q 228 347 228 678 
Q 228 888 322 1041 
Q 450 1253 767 1440 
Q 1084 1628 1822 1897 
L 1822 2009 
Q 1822 2438 1686 2597 
Q 1550 2756 1291 2756 
Q 1094 2756 978 2650 
Q 859 2544 859 2406 
L 866 2225 
Q 866 2081 792 2003 
Q 719 1925 600 1925 
Q 484 1925 411 2006 
Q 338 2088 338 2228 
Q 338 2497 613 2722 
Q 888 2947 1384 2947 
Q 1766 2947 2009 2819 
Q 2194 2722 2281 2516 
Q 2338 2381 2338 1966 
L 2338 994 
Q 2338 584 2353 492 
Q 2369 400 2405 369 
Q 2441 338 2488 338 
Q 2538 338 2575 359 
Q 2641 400 2828 588 
L 2828 413 
Q 2478 -56 2159 -56 
Q 2006 -56 1915 50 
Q 1825 156 1822 413 
z
M 1822 616 
L 1822 1706 
Q 1350 1519 1213 1441 
Q 966 1303 859 1153 
Q 753 1003 753 825 
Q 753 600 887 451 
Q 1022 303 1197 303 
Q 1434 303 1822 616 
z
" transform="scale(0.015625)"/>
      </defs>
      <use xlink:href="#TimesNewRomanPSMT-68"/>
      <use xlink:href="#TimesNewRomanPSMT-6f" x="50"/>
      <use xlink:href="#TimesNewRomanPSMT-75" x="100"/>
      <use xlink:href="#TimesNewRomanPSMT-72" x="150"/>
      <use xlink:href="#TimesNewRomanPSMT-73" x="183.300781"/>
      <use xlink:href="#TimesNewRomanPSMT-20" x="222.216797"/>
      <use xlink:href="#TimesNewRomanPSMT-62" x="247.216797"/>
      <use xlink:href="#TimesNewRomanPSMT-65" x="297.216797"/>
      <use xlink:href="#TimesNewRomanPSMT-74" x="341.601562"/>
      <use xlink:href="#TimesNewRomanPSMT-77" x="369.384766"/>
      <use xlink:href="#TimesNewRomanPSMT-65" x="441.601562"/>
      <use xlink:href="#TimesNewRomanPSMT-65" x="485.986328"/>
      <use xlink:href="#TimesNewRomanPSMT-6e" x="530.371094"/>
      <use xlink:href="#TimesNewRomanPSMT-20" x="580.371094"/>
      <use xlink:href="#TimesNewRomanPSMT-66" x="605.371094"/>
      <use xlink:href="#TimesNewRomanPSMT-6c" x="638.671875"/>
      <use xlink:href="#TimesNewRomanPSMT-61" x="666.455078"/>
      <use xlink:href="#TimesNewRomanPSMT-72" x="710.839844"/>
      <use xlink:href="#TimesNewRomanPSMT-65" x="744.140625"/>
      <use xlink:href="#TimesNewRomanPSMT-73" x="788.525391"/>
     </g>
    </g>
   </g>
   <g id="matplotlib.axis_2">
    <g id="ytick_1">
     <g id="line2d_23">
      <path d="M 57.6 307.584 
L 414.72 307.584 
" clip-path="url(#pd39442ca5b)" style="fill: none; stroke: #b0b0b0; stroke-width: 0.8; stroke-linecap: square"/>
     </g>
     <g id="line2d_24">
      <defs>
       <path id="m6f597dacc3" d="M 0 0 
L -3.5 0 
" style="stroke: #000000; stroke-width: 0.8"/>
      </defs>
      <g>
       <use xlink:href="#m6f597dacc3" x="57.6" y="307.584" style="stroke: #000000; stroke-width: 0.8"/>
      </g>
     </g>
     <g id="text_13">
      <!-- $\mathdefault{10^{-3}}$ -->
      <g transform="translate(32.5 312.014469) scale(0.1 -0.1)">
       <defs>
        <path id="TimesNewRomanPSMT-2212" d="M 3484 2000 
L 116 2000 
L 116 2256 
L 3484 2256 
L 3484 2000 
z
" transform="scale(0.015625)"/>
        <path id="TimesNewRomanPSMT-33" d="M 325 3431 
Q 506 3859 782 4092 
Q 1059 4325 1472 4325 
Q 1981 4325 2253 3994 
Q 2459 3747 2459 3466 
Q 2459 3003 1878 2509 
Q 2269 2356 2469 2072 
Q 2669 1788 2669 1403 
Q 2669 853 2319 450 
Q 1863 -75 997 -75 
Q 569 -75 414 31 
Q 259 138 259 259 
Q 259 350 332 419 
Q 406 488 509 488 
Q 588 488 669 463 
Q 722 447 909 348 
Q 1097 250 1169 231 
Q 1284 197 1416 197 
Q 1734 197 1970 444 
Q 2206 691 2206 1028 
Q 2206 1275 2097 1509 
Q 2016 1684 1919 1775 
Q 1784 1900 1550 2001 
Q 1316 2103 1072 2103 
L 972 2103 
L 972 2197 
Q 1219 2228 1467 2375 
Q 1716 2522 1828 2728 
Q 1941 2934 1941 3181 
Q 1941 3503 1739 3701 
Q 1538 3900 1238 3900 
Q 753 3900 428 3381 
L 325 3431 
z
" transform="scale(0.015625)"/>
       </defs>
       <use xlink:href="#TimesNewRomanPSMT-31" transform="translate(0 0.582813)"/>
       <use xlink:href="#TimesNewRomanPSMT-30" transform="translate(50 0.582813)"/>
       <use xlink:href="#TimesNewRomanPSMT-2212" transform="translate(101.502813 60.695312) scale(0.7)"/>
       <use xlink:href="#TimesNewRomanPSMT-33" transform="translate(140.980352 60.695312) scale(0.7)"/>
      </g>
     </g>
    </g>
    <g id="ytick_2">
     <g id="line2d_25">
      <path d="M 57.6 174.528 
L 414.72 174.528 
" clip-path="url(#pd39442ca5b)" style="fill: none; stroke: #b0b0b0; stroke-width: 0.8; stroke-linecap: square"/>
     </g>
     <g id="line2d_26">
      <g>
       <use xlink:href="#m6f597dacc3" x="57.6" y="174.528" style="stroke: #000000; stroke-width: 0.8"/>
      </g>
     </g>
     <g id="text_14">
      <!-- $\mathdefault{10^{-2}}$ -->
      <g transform="translate(32.5 178.958469) scale(0.1 -0.1)">
       <use xlink:href="#TimesNewRomanPSMT-31" transform="translate(0 0.582813)"/>
       <use xlink:href="#TimesNewRomanPSMT-30" transform="translate(50 0.582813)"/>
       <use xlink:href="#TimesNewRomanPSMT-2212" transform="translate(101.502813 60.695312) scale(0.7)"/>
       <use xlink:href="#TimesNewRomanPSMT-32" transform="translate(140.980352 60.695312) scale(0.7)"/>
      </g>
     </g>
    </g>
    <g id="ytick_3">
     <g id="line2d_27">
      <path d="M 57.6 41.472 
L 414.72 41.472 
" clip-path="url(#pd39442ca5b)" style="fill: none; stroke: #b0b0b0; stroke-width: 0.8; stroke-linecap: square"/>
     </g>
     <g id="line2d_28">
      <g>
       <use xlink:href="#m6f597dacc3" x="57.6" y="41.472" style="stroke: #000000; stroke-width: 0.8"/>
      </g>
     </g>
     <g id="text_15">
      <!-- $\mathdefault{10^{-1}}$ -->
      <g transform="translate(32.5 45.902469) scale(0.1 -0.1)">
       <use xlink:href="#TimesNewRomanPSMT-31" transform="translate(0 0.582813)"/>
       <use xlink:href="#TimesNewRomanPSMT-30" transform="translate(50 0.582813)"/>
       <use xlink:href="#TimesNewRomanPSMT-2212" transform="translate(101.502813 60.695312) scale(0.7)"/>
       <use xlink:href="#TimesNewRomanPSMT-31" transform="translate(140.980352 60.695312) scale(0.7)"/>
      </g>
     </g>
    </g>
    <g id="ytick_4">
     <g id="line2d_29">
      <path d="M 57.6 267.530153 
L 414.72 267.530153 
" clip-path="url(#pd39442ca5b)" style="fill: none; stroke: #b0b0b0; stroke-width: 0.8; stroke-linecap: square"/>
     </g>
     <g id="line2d_30">
      <defs>
       <path id="m99d77a6333" d="M 0 0 
L -2 0 
" style="stroke: #000000; stroke-width: 0.6"/>
      </defs>
      <g>
       <use xlink:href="#m99d77a6333" x="57.6" y="267.530153" style="stroke: #000000; stroke-width: 0.6"/>
      </g>
     </g>
    </g>
    <g id="ytick_5">
     <g id="line2d_31">
      <path d="M 57.6 244.100154 
L 414.72 244.100154 
" clip-path="url(#pd39442ca5b)" style="fill: none; stroke: #b0b0b0; stroke-width: 0.8; stroke-linecap: square"/>
     </g>
     <g id="line2d_32">
      <g>
       <use xlink:href="#m99d77a6333" x="57.6" y="244.100154" style="stroke: #000000; stroke-width: 0.6"/>
      </g>
     </g>
    </g>
    <g id="ytick_6">
     <g id="line2d_33">
      <path d="M 57.6 227.476306 
L 414.72 227.476306 
" clip-path="url(#pd39442ca5b)" style="fill: none; stroke: #b0b0b0; stroke-width: 0.8; stroke-linecap: square"/>
     </g>
     <g id="line2d_34">
      <g>
       <use xlink:href="#m99d77a6333" x="57.6" y="227.476306" style="stroke: #000000; stroke-width: 0.6"/>
      </g>
     </g>
    </g>
    <g id="ytick_7">
     <g id="line2d_35">
      <path d="M 57.6 214.581847 
L 414.72 214.581847 
" clip-path="url(#pd39442ca5b)" style="fill: none; stroke: #b0b0b0; stroke-width: 0.8; stroke-linecap: square"/>
     </g>
     <g id="line2d_36">
      <g>
       <use xlink:href="#m99d77a6333" x="57.6" y="214.581847" style="stroke: #000000; stroke-width: 0.6"/>
      </g>
     </g>
    </g>
    <g id="ytick_8">
     <g id="line2d_37">
      <path d="M 57.6 204.046307 
L 414.72 204.046307 
" clip-path="url(#pd39442ca5b)" style="fill: none; stroke: #b0b0b0; stroke-width: 0.8; stroke-linecap: square"/>
     </g>
     <g id="line2d_38">
      <g>
       <use xlink:href="#m99d77a6333" x="57.6" y="204.046307" style="stroke: #000000; stroke-width: 0.6"/>
      </g>
     </g>
    </g>
    <g id="ytick_9">
     <g id="line2d_39">
      <path d="M 57.6 195.138635 
L 414.72 195.138635 
" clip-path="url(#pd39442ca5b)" style="fill: none; stroke: #b0b0b0; stroke-width: 0.8; stroke-linecap: square"/>
     </g>
     <g id="line2d_40">
      <g>
       <use xlink:href="#m99d77a6333" x="57.6" y="195.138635" style="stroke: #000000; stroke-width: 0.6"/>
      </g>
     </g>
    </g>
    <g id="ytick_10">
     <g id="line2d_41">
      <path d="M 57.6 187.422459 
L 414.72 187.422459 
" clip-path="url(#pd39442ca5b)" style="fill: none; stroke: #b0b0b0; stroke-width: 0.8; stroke-linecap: square"/>
     </g>
     <g id="line2d_42">
      <g>
       <use xlink:href="#m99d77a6333" x="57.6" y="187.422459" style="stroke: #000000; stroke-width: 0.6"/>
      </g>
     </g>
    </g>
    <g id="ytick_11">
     <g id="line2d_43">
      <path d="M 57.6 180.616309 
L 414.72 180.616309 
" clip-path="url(#pd39442ca5b)" style="fill: none; stroke: #b0b0b0; stroke-width: 0.8; stroke-linecap: square"/>
     </g>
     <g id="line2d_44">
      <g>
       <use xlink:href="#m99d77a6333" x="57.6" y="180.616309" style="stroke: #000000; stroke-width: 0.6"/>
      </g>
     </g>
    </g>
    <g id="ytick_12">
     <g id="line2d_45">
      <path d="M 57.6 134.474153 
L 414.72 134.474153 
" clip-path="url(#pd39442ca5b)" style="fill: none; stroke: #b0b0b0; stroke-width: 0.8; stroke-linecap: square"/>
     </g>
     <g id="line2d_46">
      <g>
       <use xlink:href="#m99d77a6333" x="57.6" y="134.474153" style="stroke: #000000; stroke-width: 0.6"/>
      </g>
     </g>
    </g>
    <g id="ytick_13">
     <g id="line2d_47">
      <path d="M 57.6 111.044154 
L 414.72 111.044154 
" clip-path="url(#pd39442ca5b)" style="fill: none; stroke: #b0b0b0; stroke-width: 0.8; stroke-linecap: square"/>
     </g>
     <g id="line2d_48">
      <g>
       <use xlink:href="#m99d77a6333" x="57.6" y="111.044154" style="stroke: #000000; stroke-width: 0.6"/>
      </g>
     </g>
    </g>
    <g id="ytick_14">
     <g id="line2d_49">
      <path d="M 57.6 94.420306 
L 414.72 94.420306 
" clip-path="url(#pd39442ca5b)" style="fill: none; stroke: #b0b0b0; stroke-width: 0.8; stroke-linecap: square"/>
     </g>
     <g id="line2d_50">
      <g>
       <use xlink:href="#m99d77a6333" x="57.6" y="94.420306" style="stroke: #000000; stroke-width: 0.6"/>
      </g>
     </g>
    </g>
    <g id="ytick_15">
     <g id="line2d_51">
      <path d="M 57.6 81.525847 
L 414.72 81.525847 
" clip-path="url(#pd39442ca5b)" style="fill: none; stroke: #b0b0b0; stroke-width: 0.8; stroke-linecap: square"/>
     </g>
     <g id="line2d_52">
      <g>
       <use xlink:href="#m99d77a6333" x="57.6" y="81.525847" style="stroke: #000000; stroke-width: 0.6"/>
      </g>
     </g>
    </g>
    <g id="ytick_16">
     <g id="line2d_53">
      <path d="M 57.6 70.990307 
L 414.72 70.990307 
" clip-path="url(#pd39442ca5b)" style="fill: none; stroke: #b0b0b0; stroke-width: 0.8; stroke-linecap: square"/>
     </g>
     <g id="line2d_54">
      <g>
       <use xlink:href="#m99d77a6333" x="57.6" y="70.990307" style="stroke: #000000; stroke-width: 0.6"/>
      </g>
     </g>
    </g>
    <g id="ytick_17">
     <g id="line2d_55">
      <path d="M 57.6 62.082635 
L 414.72 62.082635 
" clip-path="url(#pd39442ca5b)" style="fill: none; stroke: #b0b0b0; stroke-width: 0.8; stroke-linecap: square"/>
     </g>
     <g id="line2d_56">
      <g>
       <use xlink:href="#m99d77a6333" x="57.6" y="62.082635" style="stroke: #000000; stroke-width: 0.6"/>
      </g>
     </g>
    </g>
    <g id="ytick_18">
     <g id="line2d_57">
      <path d="M 57.6 54.366459 
L 414.72 54.366459 
" clip-path="url(#pd39442ca5b)" style="fill: none; stroke: #b0b0b0; stroke-width: 0.8; stroke-linecap: square"/>
     </g>
     <g id="line2d_58">
      <g>
       <use xlink:href="#m99d77a6333" x="57.6" y="54.366459" style="stroke: #000000; stroke-width: 0.6"/>
      </g>
     </g>
    </g>
    <g id="ytick_19">
     <g id="line2d_59">
      <path d="M 57.6 47.560309 
L 414.72 47.560309 
" clip-path="url(#pd39442ca5b)" style="fill: none; stroke: #b0b0b0; stroke-width: 0.8; stroke-linecap: square"/>
     </g>
     <g id="line2d_60">
      <g>
       <use xlink:href="#m99d77a6333" x="57.6" y="47.560309" style="stroke: #000000; stroke-width: 0.6"/>
      </g>
     </g>
    </g>
    <g id="text_16">
     <!-- Probability -->
     <g transform="translate(26.342187 196.749094) rotate(-90) scale(0.1 -0.1)">
      <defs>
       <path id="TimesNewRomanPSMT-50" d="M 1313 1984 
L 1313 750 
Q 1313 350 1400 253 
Q 1519 116 1759 116 
L 1922 116 
L 1922 0 
L 106 0 
L 106 116 
L 266 116 
Q 534 116 650 291 
Q 713 388 713 750 
L 713 3488 
Q 713 3888 628 3984 
Q 506 4122 266 4122 
L 106 4122 
L 106 4238 
L 1659 4238 
Q 2228 4238 2556 4120 
Q 2884 4003 3109 3725 
Q 3334 3447 3334 3066 
Q 3334 2547 2992 2222 
Q 2650 1897 2025 1897 
Q 1872 1897 1694 1919 
Q 1516 1941 1313 1984 
z
M 1313 2163 
Q 1478 2131 1606 2115 
Q 1734 2100 1825 2100 
Q 2150 2100 2386 2351 
Q 2622 2603 2622 3003 
Q 2622 3278 2509 3514 
Q 2397 3750 2190 3867 
Q 1984 3984 1722 3984 
Q 1563 3984 1313 3925 
L 1313 2163 
z
" transform="scale(0.015625)"/>
       <path id="TimesNewRomanPSMT-69" d="M 928 4444 
Q 1059 4444 1151 4351 
Q 1244 4259 1244 4128 
Q 1244 3997 1151 3903 
Q 1059 3809 928 3809 
Q 797 3809 703 3903 
Q 609 3997 609 4128 
Q 609 4259 701 4351 
Q 794 4444 928 4444 
z
M 1188 2947 
L 1188 647 
Q 1188 378 1227 289 
Q 1266 200 1342 156 
Q 1419 113 1622 113 
L 1622 0 
L 231 0 
L 231 113 
Q 441 113 512 153 
Q 584 194 626 287 
Q 669 381 669 647 
L 669 1750 
Q 669 2216 641 2353 
Q 619 2453 572 2492 
Q 525 2531 444 2531 
Q 356 2531 231 2484 
L 188 2597 
L 1050 2947 
L 1188 2947 
z
" transform="scale(0.015625)"/>
       <path id="TimesNewRomanPSMT-79" d="M 38 2863 
L 1372 2863 
L 1372 2747 
L 1306 2747 
Q 1166 2747 1095 2686 
Q 1025 2625 1025 2534 
Q 1025 2413 1128 2197 
L 1825 753 
L 2466 2334 
Q 2519 2463 2519 2588 
Q 2519 2644 2497 2672 
Q 2472 2706 2419 2726 
Q 2366 2747 2231 2747 
L 2231 2863 
L 3163 2863 
L 3163 2747 
Q 3047 2734 2984 2696 
Q 2922 2659 2847 2556 
Q 2819 2513 2741 2316 
L 1575 -541 
Q 1406 -956 1132 -1168 
Q 859 -1381 606 -1381 
Q 422 -1381 303 -1275 
Q 184 -1169 184 -1031 
Q 184 -900 270 -820 
Q 356 -741 506 -741 
Q 609 -741 788 -809 
Q 913 -856 944 -856 
Q 1038 -856 1148 -759 
Q 1259 -663 1372 -384 
L 1575 113 
L 547 2272 
Q 500 2369 397 2513 
Q 319 2622 269 2659 
Q 197 2709 38 2747 
L 38 2863 
z
" transform="scale(0.015625)"/>
      </defs>
      <use xlink:href="#TimesNewRomanPSMT-50"/>
      <use xlink:href="#TimesNewRomanPSMT-72" x="55.615234"/>
      <use xlink:href="#TimesNewRomanPSMT-6f" x="88.916016"/>
      <use xlink:href="#TimesNewRomanPSMT-62" x="138.916016"/>
      <use xlink:href="#TimesNewRomanPSMT-61" x="188.916016"/>
      <use xlink:href="#TimesNewRomanPSMT-62" x="233.300781"/>
      <use xlink:href="#TimesNewRomanPSMT-69" x="283.300781"/>
      <use xlink:href="#TimesNewRomanPSMT-6c" x="311.083984"/>
      <use xlink:href="#TimesNewRomanPSMT-69" x="338.867188"/>
      <use xlink:href="#TimesNewRomanPSMT-74" x="366.650391"/>
      <use xlink:href="#TimesNewRomanPSMT-79" x="394.433594"/>
     </g>
    </g>
   </g>
   <g id="line2d_61">
    <defs>
     <path id="mc9a0babcd9" d="M 0 1.5 
C 0.397805 1.5 0.77937 1.341951 1.06066 1.06066 
C 1.341951 0.77937 1.5 0.397805 1.5 0 
C 1.5 -0.397805 1.341951 -0.77937 1.06066 -1.06066 
C 0.77937 -1.341951 0.397805 -1.5 0 -1.5 
C -0.397805 -1.5 -0.77937 -1.341951 -1.06066 -1.06066 
C -1.341951 -0.77937 -1.5 -0.397805 -1.5 0 
C -1.5 0.397805 -1.341951 0.77937 -1.06066 1.06066 
C -0.77937 1.341951 -0.397805 1.5 0 1.5 
z
" style="stroke: #000000"/>
    </defs>
    <g clip-path="url(#pd39442ca5b)">
     <use xlink:href="#mc9a0babcd9" x="73.832727" y="87.816052" style="stroke: #000000"/>
     <use xlink:href="#mc9a0babcd9" x="75.157848" y="108.426687" style="stroke: #000000"/>
     <use xlink:href="#mc9a0babcd9" x="76.482968" y="112.709052" style="stroke: #000000"/>
     <use xlink:href="#mc9a0babcd9" x="77.808089" y="108.426687" style="stroke: #000000"/>
     <use xlink:href="#mc9a0babcd9" x="79.13321" y="104.4399" style="stroke: #000000"/>
     <use xlink:href="#mc9a0babcd9" x="80.45833" y="95.532228" style="stroke: #000000"/>
     <use xlink:href="#mc9a0babcd9" x="81.783451" y="125.050536" style="stroke: #000000"/>
     <use xlink:href="#mc9a0babcd9" x="83.108571" y="114.97544" style="stroke: #000000"/>
     <use xlink:href="#mc9a0babcd9" x="84.433692" y="127.869899" style="stroke: #000000"/>
     <use xlink:href="#mc9a0babcd9" x="85.758813" y="122.362354" style="stroke: #000000"/>
     <use xlink:href="#mc9a0babcd9" x="87.083933" y="114.97544" style="stroke: #000000"/>
     <use xlink:href="#mc9a0babcd9" x="88.409054" y="125.050536" style="stroke: #000000"/>
     <use xlink:href="#mc9a0babcd9" x="89.734174" y="127.869899" style="stroke: #000000"/>
     <use xlink:href="#mc9a0babcd9" x="91.059295" y="127.869899" style="stroke: #000000"/>
     <use xlink:href="#mc9a0babcd9" x="92.384416" y="127.869899" style="stroke: #000000"/>
     <use xlink:href="#mc9a0babcd9" x="93.709536" y="117.334359" style="stroke: #000000"/>
     <use xlink:href="#mc9a0babcd9" x="95.034657" y="130.833907" style="stroke: #000000"/>
     <use xlink:href="#mc9a0babcd9" x="96.359777" y="127.869899" style="stroke: #000000"/>
     <use xlink:href="#mc9a0babcd9" x="97.684898" y="140.764358" style="stroke: #000000"/>
     <use xlink:href="#mc9a0babcd9" x="99.010019" y="157.388206" style="stroke: #000000"/>
     <use xlink:href="#mc9a0babcd9" x="100.335139" y="140.764358" style="stroke: #000000"/>
     <use xlink:href="#mc9a0babcd9" x="101.66026" y="133.958208" style="stroke: #000000"/>
     <use xlink:href="#mc9a0babcd9" x="102.98538" y="167.923746" style="stroke: #000000"/>
     <use xlink:href="#mc9a0babcd9" x="104.310501" y="144.493747" style="stroke: #000000"/>
     <use xlink:href="#mc9a0babcd9" x="105.635622" y="112.709052" style="stroke: #000000"/>
     <use xlink:href="#mc9a0babcd9" x="106.960742" y="144.493747" style="stroke: #000000"/>
     <use xlink:href="#mc9a0babcd9" x="108.285863" y="162.416201" style="stroke: #000000"/>
     <use xlink:href="#mc9a0babcd9" x="109.610983" y="162.416201" style="stroke: #000000"/>
     <use xlink:href="#mc9a0babcd9" x="110.936104" y="144.493747" style="stroke: #000000"/>
     <use xlink:href="#mc9a0babcd9" x="112.261224" y="220.872052" style="stroke: #000000"/>
     <use xlink:href="#mc9a0babcd9" x="113.586345" y="162.416201" style="stroke: #000000"/>
     <use xlink:href="#mc9a0babcd9" x="114.911466" y="162.416201" style="stroke: #000000"/>
     <use xlink:href="#mc9a0babcd9" x="116.236586" y="162.416201" style="stroke: #000000"/>
     <use xlink:href="#mc9a0babcd9" x="117.561707" y="180.818205" style="stroke: #000000"/>
     <use xlink:href="#mc9a0babcd9" x="118.886827" y="144.493747" style="stroke: #000000"/>
     <use xlink:href="#mc9a0babcd9" x="120.211948" y="167.923746" style="stroke: #000000"/>
     <use xlink:href="#mc9a0babcd9" x="121.537069" y="197.442053" style="stroke: #000000"/>
     <use xlink:href="#mc9a0babcd9" x="122.862189" y="188.534381" style="stroke: #000000"/>
     <use xlink:href="#mc9a0babcd9" x="124.18731" y="188.534381" style="stroke: #000000"/>
     <use xlink:href="#mc9a0babcd9" x="125.51243" y="237.4959" style="stroke: #000000"/>
     <use xlink:href="#mc9a0babcd9" x="126.837551" y="174.012055" style="stroke: #000000"/>
     <use xlink:href="#mc9a0babcd9" x="128.162672" y="180.818205" style="stroke: #000000"/>
     <use xlink:href="#mc9a0babcd9" x="129.487792" y="207.977593" style="stroke: #000000"/>
     <use xlink:href="#mc9a0babcd9" x="130.812913" y="197.442053" style="stroke: #000000"/>
     <use xlink:href="#mc9a0babcd9" x="132.138033" y="260.925899" style="stroke: #000000"/>
     <use xlink:href="#mc9a0babcd9" x="133.463154" y="197.442053" style="stroke: #000000"/>
     <use xlink:href="#mc9a0babcd9" x="134.788275" y="207.977593" style="stroke: #000000"/>
     <use xlink:href="#mc9a0babcd9" x="136.113395" y="197.442053" style="stroke: #000000"/>
     <use xlink:href="#mc9a0babcd9" x="137.438516" y="207.977593" style="stroke: #000000"/>
     <use xlink:href="#mc9a0babcd9" x="138.763636" y="188.534381" style="stroke: #000000"/>
     <use xlink:href="#mc9a0babcd9" x="140.088757" y="220.872052" style="stroke: #000000"/>
     <use xlink:href="#mc9a0babcd9" x="141.413878" y="207.977593" style="stroke: #000000"/>
     <use xlink:href="#mc9a0babcd9" x="142.738998" y="197.442053" style="stroke: #000000"/>
     <use xlink:href="#mc9a0babcd9" x="142.985392" y="24884.2" style="stroke: #000000"/>
     <use xlink:href="#mc9a0babcd9" x="145.143171" y="24884.2" style="stroke: #000000"/>
     <use xlink:href="#mc9a0babcd9" x="145.389239" y="237.4959" style="stroke: #000000"/>
     <use xlink:href="#mc9a0babcd9" x="146.71436" y="220.872052" style="stroke: #000000"/>
     <use xlink:href="#mc9a0babcd9" x="148.039481" y="174.012055" style="stroke: #000000"/>
     <use xlink:href="#mc9a0babcd9" x="148.286064" y="24884.2" style="stroke: #000000"/>
     <use xlink:href="#mc9a0babcd9" x="150.443256" y="24884.2" style="stroke: #000000"/>
     <use xlink:href="#mc9a0babcd9" x="150.689722" y="188.534381" style="stroke: #000000"/>
     <use xlink:href="#mc9a0babcd9" x="152.014842" y="300.979746" style="stroke: #000000"/>
     <use xlink:href="#mc9a0babcd9" x="153.339963" y="237.4959" style="stroke: #000000"/>
     <use xlink:href="#mc9a0babcd9" x="154.665083" y="207.977593" style="stroke: #000000"/>
     <use xlink:href="#mc9a0babcd9" x="155.990204" y="207.977593" style="stroke: #000000"/>
     <use xlink:href="#mc9a0babcd9" x="157.315325" y="260.925899" style="stroke: #000000"/>
     <use xlink:href="#mc9a0babcd9" x="158.640445" y="220.872052" style="stroke: #000000"/>
     <use xlink:href="#mc9a0babcd9" x="159.965566" y="300.979746" style="stroke: #000000"/>
     <use xlink:href="#mc9a0babcd9" x="161.290686" y="237.4959" style="stroke: #000000"/>
     <use xlink:href="#mc9a0babcd9" x="162.615807" y="237.4959" style="stroke: #000000"/>
     <use xlink:href="#mc9a0babcd9" x="163.940928" y="260.925899" style="stroke: #000000"/>
     <use xlink:href="#mc9a0babcd9" x="165.266048" y="237.4959" style="stroke: #000000"/>
     <use xlink:href="#mc9a0babcd9" x="166.591169" y="300.979746" style="stroke: #000000"/>
     <use xlink:href="#mc9a0babcd9" x="167.916289" y="300.979746" style="stroke: #000000"/>
     <use xlink:href="#mc9a0babcd9" x="168.161841" y="24884.2" style="stroke: #000000"/>
     <use xlink:href="#mc9a0babcd9" x="170.320327" y="24884.2" style="stroke: #000000"/>
     <use xlink:href="#mc9a0babcd9" x="170.566531" y="220.872052" style="stroke: #000000"/>
     <use xlink:href="#mc9a0babcd9" x="171.891651" y="300.979746" style="stroke: #000000"/>
     <use xlink:href="#mc9a0babcd9" x="173.216772" y="237.4959" style="stroke: #000000"/>
     <use xlink:href="#mc9a0babcd9" x="174.541892" y="260.925899" style="stroke: #000000"/>
     <use xlink:href="#mc9a0babcd9" x="175.867013" y="300.979746" style="stroke: #000000"/>
     <use xlink:href="#mc9a0babcd9" x="177.192134" y="237.4959" style="stroke: #000000"/>
     <use xlink:href="#mc9a0babcd9" x="178.517254" y="260.925899" style="stroke: #000000"/>
     <use xlink:href="#mc9a0babcd9" x="178.763132" y="24884.2" style="stroke: #000000"/>
     <use xlink:href="#mc9a0babcd9" x="180.921944" y="24884.2" style="stroke: #000000"/>
     <use xlink:href="#mc9a0babcd9" x="181.167495" y="300.979746" style="stroke: #000000"/>
     <use xlink:href="#mc9a0babcd9" x="182.492616" y="260.925899" style="stroke: #000000"/>
     <use xlink:href="#mc9a0babcd9" x="183.817737" y="300.979746" style="stroke: #000000"/>
     <use xlink:href="#mc9a0babcd9" x="185.142857" y="260.925899" style="stroke: #000000"/>
     <use xlink:href="#mc9a0babcd9" x="186.467978" y="260.925899" style="stroke: #000000"/>
     <use xlink:href="#mc9a0babcd9" x="187.793098" y="300.979746" style="stroke: #000000"/>
     <use xlink:href="#mc9a0babcd9" x="188.03865" y="24884.2" style="stroke: #000000"/>
     <use xlink:href="#mc9a0babcd9" x="190.197788" y="24884.2" style="stroke: #000000"/>
     <use xlink:href="#mc9a0babcd9" x="190.44334" y="300.979746" style="stroke: #000000"/>
     <use xlink:href="#mc9a0babcd9" x="191.76846" y="237.4959" style="stroke: #000000"/>
     <use xlink:href="#mc9a0babcd9" x="193.093581" y="300.979746" style="stroke: #000000"/>
     <use xlink:href="#mc9a0babcd9" x="194.418701" y="300.979746" style="stroke: #000000"/>
     <use xlink:href="#mc9a0babcd9" x="194.664253" y="24884.2" style="stroke: #000000"/>
     <use xlink:href="#mc9a0babcd9" x="196.823391" y="24884.2" style="stroke: #000000"/>
     <use xlink:href="#mc9a0babcd9" x="197.068942" y="300.979746" style="stroke: #000000"/>
     <use xlink:href="#mc9a0babcd9" x="197.314494" y="24884.2" style="stroke: #000000"/>
     <use xlink:href="#mc9a0babcd9" x="202.123873" y="24884.2" style="stroke: #000000"/>
     <use xlink:href="#mc9a0babcd9" x="202.369425" y="300.979746" style="stroke: #000000"/>
     <use xlink:href="#mc9a0babcd9" x="202.614977" y="24884.2" style="stroke: #000000"/>
     <use xlink:href="#mc9a0babcd9" x="206.099235" y="24884.2" style="stroke: #000000"/>
     <use xlink:href="#mc9a0babcd9" x="206.344787" y="300.979746" style="stroke: #000000"/>
     <use xlink:href="#mc9a0babcd9" x="207.669907" y="300.979746" style="stroke: #000000"/>
     <use xlink:href="#mc9a0babcd9" x="208.995028" y="300.979746" style="stroke: #000000"/>
     <use xlink:href="#mc9a0babcd9" x="209.24058" y="24884.2" style="stroke: #000000"/>
     <use xlink:href="#mc9a0babcd9" x="215.374753" y="24884.2" style="stroke: #000000"/>
     <use xlink:href="#mc9a0babcd9" x="215.620631" y="260.925899" style="stroke: #000000"/>
     <use xlink:href="#mc9a0babcd9" x="215.866508" y="24884.2" style="stroke: #000000"/>
     <use xlink:href="#mc9a0babcd9" x="218.02532" y="24884.2" style="stroke: #000000"/>
     <use xlink:href="#mc9a0babcd9" x="218.270872" y="300.979746" style="stroke: #000000"/>
     <use xlink:href="#mc9a0babcd9" x="219.595993" y="260.925899" style="stroke: #000000"/>
     <use xlink:href="#mc9a0babcd9" x="220.921113" y="260.925899" style="stroke: #000000"/>
     <use xlink:href="#mc9a0babcd9" x="222.246234" y="300.979746" style="stroke: #000000"/>
     <use xlink:href="#mc9a0babcd9" x="222.491785" y="24884.2" style="stroke: #000000"/>
     <use xlink:href="#mc9a0babcd9" x="225.976044" y="24884.2" style="stroke: #000000"/>
     <use xlink:href="#mc9a0babcd9" x="226.221596" y="300.979746" style="stroke: #000000"/>
     <use xlink:href="#mc9a0babcd9" x="226.467147" y="24884.2" style="stroke: #000000"/>
     <use xlink:href="#mc9a0babcd9" x="228.626285" y="24884.2" style="stroke: #000000"/>
     <use xlink:href="#mc9a0babcd9" x="228.871837" y="300.979746" style="stroke: #000000"/>
     <use xlink:href="#mc9a0babcd9" x="229.117388" y="24884.2" style="stroke: #000000"/>
     <use xlink:href="#mc9a0babcd9" x="231.276526" y="24884.2" style="stroke: #000000"/>
     <use xlink:href="#mc9a0babcd9" x="231.522078" y="300.979746" style="stroke: #000000"/>
     <use xlink:href="#mc9a0babcd9" x="231.76763" y="24884.2" style="stroke: #000000"/>
     <use xlink:href="#mc9a0babcd9" x="235.251888" y="24884.2" style="stroke: #000000"/>
     <use xlink:href="#mc9a0babcd9" x="235.49744" y="300.979746" style="stroke: #000000"/>
     <use xlink:href="#mc9a0babcd9" x="235.742991" y="24884.2" style="stroke: #000000"/>
     <use xlink:href="#mc9a0babcd9" x="237.902129" y="24884.2" style="stroke: #000000"/>
     <use xlink:href="#mc9a0babcd9" x="238.147681" y="300.979746" style="stroke: #000000"/>
     <use xlink:href="#mc9a0babcd9" x="239.472801" y="237.4959" style="stroke: #000000"/>
     <use xlink:href="#mc9a0babcd9" x="239.71887" y="24884.2" style="stroke: #000000"/>
     <use xlink:href="#mc9a0babcd9" x="247.177973" y="24884.2" style="stroke: #000000"/>
     <use xlink:href="#mc9a0babcd9" x="247.423525" y="300.979746" style="stroke: #000000"/>
     <use xlink:href="#mc9a0babcd9" x="247.669077" y="24884.2" style="stroke: #000000"/>
     <use xlink:href="#mc9a0babcd9" x="249.827889" y="24884.2" style="stroke: #000000"/>
     <use xlink:href="#mc9a0babcd9" x="250.073766" y="260.925899" style="stroke: #000000"/>
     <use xlink:href="#mc9a0babcd9" x="250.319644" y="24884.2" style="stroke: #000000"/>
     <use xlink:href="#mc9a0babcd9" x="259.104059" y="24884.2" style="stroke: #000000"/>
     <use xlink:href="#mc9a0babcd9" x="259.34961" y="300.979746" style="stroke: #000000"/>
     <use xlink:href="#mc9a0babcd9" x="259.595162" y="24884.2" style="stroke: #000000"/>
     <use xlink:href="#mc9a0babcd9" x="267.054782" y="24884.2" style="stroke: #000000"/>
     <use xlink:href="#mc9a0babcd9" x="267.300334" y="300.979746" style="stroke: #000000"/>
     <use xlink:href="#mc9a0babcd9" x="267.545886" y="24884.2" style="stroke: #000000"/>
     <use xlink:href="#mc9a0babcd9" x="292.232074" y="24884.2" style="stroke: #000000"/>
     <use xlink:href="#mc9a0babcd9" x="292.477625" y="300.979746" style="stroke: #000000"/>
     <use xlink:href="#mc9a0babcd9" x="292.723177" y="24884.2" style="stroke: #000000"/>
     <use xlink:href="#mc9a0babcd9" x="398.241721" y="24884.2" style="stroke: #000000"/>
     <use xlink:href="#mc9a0babcd9" x="398.487273" y="300.979746" style="stroke: #000000"/>
    </g>
   </g>
   <g id="patch_3">
    <path d="M 57.6 307.584 
L 57.6 41.472 
" style="fill: none; stroke: #000000; stroke-width: 0.8; stroke-linejoin: miter; stroke-linecap: square"/>
   </g>
   <g id="patch_4">
    <path d="M 414.72 307.584 
L 414.72 41.472 
" style="fill: none; stroke: #000000; stroke-width: 0.8; stroke-linejoin: miter; stroke-linecap: square"/>
   </g>
   <g id="patch_5">
    <path d="M 57.6 307.584 
L 414.72 307.584 
" style="fill: none; stroke: #000000; stroke-width: 0.8; stroke-linejoin: miter; stroke-linecap: square"/>
   </g>
   <g id="patch_6">
    <path d="M 57.6 41.472 
L 414.72 41.472 
" style="fill: none; stroke: #000000; stroke-width: 0.8; stroke-linejoin: miter; stroke-linecap: square"/>
   </g>
  </g>
 </g>
 <defs>
  <clipPath id="pd39442ca5b">
   <rect x="57.6" y="41.472" width="357.12" height="266.112"/>
  </clipPath>
 </defs>
</svg>
