<?xml version="1.0" encoding="utf-8" standalone="no"?>
<!DOCTYPE svg PUBLIC "-//W3C//DTD SVG 1.1//EN"
  "http://www.w3.org/Graphics/SVG/1.1/DTD/svg11.dtd">
<svg xmlns:xlink="http://www.w3.org/1999/xlink" width="460.8pt" height="345.6pt" viewBox="0 0 460.8 345.6" xmlns="http://www.w3.org/2000/svg" version="1.1">
 <metadata>
  <rdf:RDF xmlns:dc="http://purl.org/dc/elements/1.1/" xmlns:cc="http://creativecommons.org/ns#" xmlns:rdf="http://www.w3.org/1999/02/22-rdf-syntax-ns#">
   <cc:Work>
    <dc:type rdf:resource="http://purl.org/dc/dcmitype/StillImage"/>
    <dc:date>2025-02-23T22:06:39.480135</dc:date>
    <dc:format>image/svg+xml</dc:format>
    <dc:creator>
     <cc:Agent>
      <dc:title>Matplotlib v3.5.2, https://matplotlib.org/</dc:title>
     </cc:Agent>
    </dc:creator>
   </cc:Work>
  </rdf:RDF>
 </metadata>
 <defs>
  <style type="text/css">*{stroke-linejoin: round; stroke-linecap: butt}</style>
 </defs>
 <g id="figure_1">
  <g id="patch_1">
   <path d="M 0 345.6 
L 460.8 345.6 
L 460.8 0 
L 0 0 
L 0 345.6 
z
" style="fill: none"/>
  </g>
  <g id="axes_1">
   <g id="patch_2">
    <path d="M 57.6 307.584 
L 414.72 307.584 
L 414.72 41.472 
L 57.6 41.472 
L 57.6 307.584 
z
" style="fill: none"/>
   </g>
   <g id="matplotlib.axis_1">
    <g id="xtick_1">
     <g id="line2d_1">
      <path d="M 73.832727 307.584 
L 73.832727 41.472 
" clip-path="url(#pae0b726bbe)" style="fill: none; stroke: #b0b0b0; stroke-width: 0.8; stroke-linecap: square"/>
     </g>
     <g id="line2d_2">
      <defs>
       <path id="m0fb445fbef" d="M 0 0 
L 0 3.5 
" style="stroke: #000000; stroke-width: 0.8"/>
      </defs>
      <g>
       <use xlink:href="#m0fb445fbef" x="73.832727" y="307.584" style="stroke: #000000; stroke-width: 0.8"/>
      </g>
     </g>
     <g id="text_1">
      <!-- 0 -->
      <g transform="translate(70.651477 322.182437)scale(0.1 -0.1)">
       <defs>
        <path id="DejaVuSans-30" d="M 2034 4250 
Q 1547 4250 1301 3770 
Q 1056 3291 1056 2328 
Q 1056 1369 1301 889 
Q 1547 409 2034 409 
Q 2525 409 2770 889 
Q 3016 1369 3016 2328 
Q 3016 3291 2770 3770 
Q 2525 4250 2034 4250 
z
M 2034 4750 
Q 2819 4750 3233 4129 
Q 3647 3509 3647 2328 
Q 3647 1150 3233 529 
Q 2819 -91 2034 -91 
Q 1250 -91 836 529 
Q 422 1150 422 2328 
Q 422 3509 836 4129 
Q 1250 4750 2034 4750 
z
" transform="scale(0.015625)"/>
       </defs>
       <use xlink:href="#DejaVuSans-30"/>
      </g>
     </g>
    </g>
    <g id="xtick_2">
     <g id="line2d_3">
      <path d="M 118.336435 307.584 
L 118.336435 41.472 
" clip-path="url(#pae0b726bbe)" style="fill: none; stroke: #b0b0b0; stroke-width: 0.8; stroke-linecap: square"/>
     </g>
     <g id="line2d_4">
      <g>
       <use xlink:href="#m0fb445fbef" x="118.336435" y="307.584" style="stroke: #000000; stroke-width: 0.8"/>
      </g>
     </g>
     <g id="text_2">
      <!-- 200 -->
      <g transform="translate(108.792685 322.182437)scale(0.1 -0.1)">
       <defs>
        <path id="DejaVuSans-32" d="M 1228 531 
L 3431 531 
L 3431 0 
L 469 0 
L 469 531 
Q 828 903 1448 1529 
Q 2069 2156 2228 2338 
Q 2531 2678 2651 2914 
Q 2772 3150 2772 3378 
Q 2772 3750 2511 3984 
Q 2250 4219 1831 4219 
Q 1534 4219 1204 4116 
Q 875 4013 500 3803 
L 500 4441 
Q 881 4594 1212 4672 
Q 1544 4750 1819 4750 
Q 2544 4750 2975 4387 
Q 3406 4025 3406 3419 
Q 3406 3131 3298 2873 
Q 3191 2616 2906 2266 
Q 2828 2175 2409 1742 
Q 1991 1309 1228 531 
z
" transform="scale(0.015625)"/>
       </defs>
       <use xlink:href="#DejaVuSans-32"/>
       <use xlink:href="#DejaVuSans-30" x="63.623047"/>
       <use xlink:href="#DejaVuSans-30" x="127.246094"/>
      </g>
     </g>
    </g>
    <g id="xtick_3">
     <g id="line2d_5">
      <path d="M 162.840142 307.584 
L 162.840142 41.472 
" clip-path="url(#pae0b726bbe)" style="fill: none; stroke: #b0b0b0; stroke-width: 0.8; stroke-linecap: square"/>
     </g>
     <g id="line2d_6">
      <g>
       <use xlink:href="#m0fb445fbef" x="162.840142" y="307.584" style="stroke: #000000; stroke-width: 0.8"/>
      </g>
     </g>
     <g id="text_3">
      <!-- 400 -->
      <g transform="translate(153.296392 322.182437)scale(0.1 -0.1)">
       <defs>
        <path id="DejaVuSans-34" d="M 2419 4116 
L 825 1625 
L 2419 1625 
L 2419 4116 
z
M 2253 4666 
L 3047 4666 
L 3047 1625 
L 3713 1625 
L 3713 1100 
L 3047 1100 
L 3047 0 
L 2419 0 
L 2419 1100 
L 313 1100 
L 313 1709 
L 2253 4666 
z
" transform="scale(0.015625)"/>
       </defs>
       <use xlink:href="#DejaVuSans-34"/>
       <use xlink:href="#DejaVuSans-30" x="63.623047"/>
       <use xlink:href="#DejaVuSans-30" x="127.246094"/>
      </g>
     </g>
    </g>
    <g id="xtick_4">
     <g id="line2d_7">
      <path d="M 207.343849 307.584 
L 207.343849 41.472 
" clip-path="url(#pae0b726bbe)" style="fill: none; stroke: #b0b0b0; stroke-width: 0.8; stroke-linecap: square"/>
     </g>
     <g id="line2d_8">
      <g>
       <use xlink:href="#m0fb445fbef" x="207.343849" y="307.584" style="stroke: #000000; stroke-width: 0.8"/>
      </g>
     </g>
     <g id="text_4">
      <!-- 600 -->
      <g transform="translate(197.800099 322.182437)scale(0.1 -0.1)">
       <defs>
        <path id="DejaVuSans-36" d="M 2113 2584 
Q 1688 2584 1439 2293 
Q 1191 2003 1191 1497 
Q 1191 994 1439 701 
Q 1688 409 2113 409 
Q 2538 409 2786 701 
Q 3034 994 3034 1497 
Q 3034 2003 2786 2293 
Q 2538 2584 2113 2584 
z
M 3366 4563 
L 3366 3988 
Q 3128 4100 2886 4159 
Q 2644 4219 2406 4219 
Q 1781 4219 1451 3797 
Q 1122 3375 1075 2522 
Q 1259 2794 1537 2939 
Q 1816 3084 2150 3084 
Q 2853 3084 3261 2657 
Q 3669 2231 3669 1497 
Q 3669 778 3244 343 
Q 2819 -91 2113 -91 
Q 1303 -91 875 529 
Q 447 1150 447 2328 
Q 447 3434 972 4092 
Q 1497 4750 2381 4750 
Q 2619 4750 2861 4703 
Q 3103 4656 3366 4563 
z
" transform="scale(0.015625)"/>
       </defs>
       <use xlink:href="#DejaVuSans-36"/>
       <use xlink:href="#DejaVuSans-30" x="63.623047"/>
       <use xlink:href="#DejaVuSans-30" x="127.246094"/>
      </g>
     </g>
    </g>
    <g id="xtick_5">
     <g id="line2d_9">
      <path d="M 251.847557 307.584 
L 251.847557 41.472 
" clip-path="url(#pae0b726bbe)" style="fill: none; stroke: #b0b0b0; stroke-width: 0.8; stroke-linecap: square"/>
     </g>
     <g id="line2d_10">
      <g>
       <use xlink:href="#m0fb445fbef" x="251.847557" y="307.584" style="stroke: #000000; stroke-width: 0.8"/>
      </g>
     </g>
     <g id="text_5">
      <!-- 800 -->
      <g transform="translate(242.303807 322.182437)scale(0.1 -0.1)">
       <defs>
        <path id="DejaVuSans-38" d="M 2034 2216 
Q 1584 2216 1326 1975 
Q 1069 1734 1069 1313 
Q 1069 891 1326 650 
Q 1584 409 2034 409 
Q 2484 409 2743 651 
Q 3003 894 3003 1313 
Q 3003 1734 2745 1975 
Q 2488 2216 2034 2216 
z
M 1403 2484 
Q 997 2584 770 2862 
Q 544 3141 544 3541 
Q 544 4100 942 4425 
Q 1341 4750 2034 4750 
Q 2731 4750 3128 4425 
Q 3525 4100 3525 3541 
Q 3525 3141 3298 2862 
Q 3072 2584 2669 2484 
Q 3125 2378 3379 2068 
Q 3634 1759 3634 1313 
Q 3634 634 3220 271 
Q 2806 -91 2034 -91 
Q 1263 -91 848 271 
Q 434 634 434 1313 
Q 434 1759 690 2068 
Q 947 2378 1403 2484 
z
M 1172 3481 
Q 1172 3119 1398 2916 
Q 1625 2713 2034 2713 
Q 2441 2713 2670 2916 
Q 2900 3119 2900 3481 
Q 2900 3844 2670 4047 
Q 2441 4250 2034 4250 
Q 1625 4250 1398 4047 
Q 1172 3844 1172 3481 
z
" transform="scale(0.015625)"/>
       </defs>
       <use xlink:href="#DejaVuSans-38"/>
       <use xlink:href="#DejaVuSans-30" x="63.623047"/>
       <use xlink:href="#DejaVuSans-30" x="127.246094"/>
      </g>
     </g>
    </g>
    <g id="xtick_6">
     <g id="line2d_11">
      <path d="M 296.351264 307.584 
L 296.351264 41.472 
" clip-path="url(#pae0b726bbe)" style="fill: none; stroke: #b0b0b0; stroke-width: 0.8; stroke-linecap: square"/>
     </g>
     <g id="line2d_12">
      <g>
       <use xlink:href="#m0fb445fbef" x="296.351264" y="307.584" style="stroke: #000000; stroke-width: 0.8"/>
      </g>
     </g>
     <g id="text_6">
      <!-- 1000 -->
      <g transform="translate(283.626264 322.182437)scale(0.1 -0.1)">
       <defs>
        <path id="DejaVuSans-31" d="M 794 531 
L 1825 531 
L 1825 4091 
L 703 3866 
L 703 4441 
L 1819 4666 
L 2450 4666 
L 2450 531 
L 3481 531 
L 3481 0 
L 794 0 
L 794 531 
z
" transform="scale(0.015625)"/>
       </defs>
       <use xlink:href="#DejaVuSans-31"/>
       <use xlink:href="#DejaVuSans-30" x="63.623047"/>
       <use xlink:href="#DejaVuSans-30" x="127.246094"/>
       <use xlink:href="#DejaVuSans-30" x="190.869141"/>
      </g>
     </g>
    </g>
    <g id="xtick_7">
     <g id="line2d_13">
      <path d="M 340.854972 307.584 
L 340.854972 41.472 
" clip-path="url(#pae0b726bbe)" style="fill: none; stroke: #b0b0b0; stroke-width: 0.8; stroke-linecap: square"/>
     </g>
     <g id="line2d_14">
      <g>
       <use xlink:href="#m0fb445fbef" x="340.854972" y="307.584" style="stroke: #000000; stroke-width: 0.8"/>
      </g>
     </g>
     <g id="text_7">
      <!-- 1200 -->
      <g transform="translate(328.129972 322.182437)scale(0.1 -0.1)">
       <use xlink:href="#DejaVuSans-31"/>
       <use xlink:href="#DejaVuSans-32" x="63.623047"/>
       <use xlink:href="#DejaVuSans-30" x="127.246094"/>
       <use xlink:href="#DejaVuSans-30" x="190.869141"/>
      </g>
     </g>
    </g>
    <g id="xtick_8">
     <g id="line2d_15">
      <path d="M 385.358679 307.584 
L 385.358679 41.472 
" clip-path="url(#pae0b726bbe)" style="fill: none; stroke: #b0b0b0; stroke-width: 0.8; stroke-linecap: square"/>
     </g>
     <g id="line2d_16">
      <g>
       <use xlink:href="#m0fb445fbef" x="385.358679" y="307.584" style="stroke: #000000; stroke-width: 0.8"/>
      </g>
     </g>
     <g id="text_8">
      <!-- 1400 -->
      <g transform="translate(372.633679 322.182437)scale(0.1 -0.1)">
       <use xlink:href="#DejaVuSans-31"/>
       <use xlink:href="#DejaVuSans-34" x="63.623047"/>
       <use xlink:href="#DejaVuSans-30" x="127.246094"/>
       <use xlink:href="#DejaVuSans-30" x="190.869141"/>
      </g>
     </g>
    </g>
    <g id="text_9">
     <!-- Days since 2000-01-01T00:01 -->
     <g transform="translate(160.994375 335.860562)scale(0.1 -0.1)">
      <defs>
       <path id="DejaVuSans-44" d="M 1259 4147 
L 1259 519 
L 2022 519 
Q 2988 519 3436 956 
Q 3884 1394 3884 2338 
Q 3884 3275 3436 3711 
Q 2988 4147 2022 4147 
L 1259 4147 
z
M 628 4666 
L 1925 4666 
Q 3281 4666 3915 4102 
Q 4550 3538 4550 2338 
Q 4550 1131 3912 565 
Q 3275 0 1925 0 
L 628 0 
L 628 4666 
z
" transform="scale(0.015625)"/>
       <path id="DejaVuSans-61" d="M 2194 1759 
Q 1497 1759 1228 1600 
Q 959 1441 959 1056 
Q 959 750 1161 570 
Q 1363 391 1709 391 
Q 2188 391 2477 730 
Q 2766 1069 2766 1631 
L 2766 1759 
L 2194 1759 
z
M 3341 1997 
L 3341 0 
L 2766 0 
L 2766 531 
Q 2569 213 2275 61 
Q 1981 -91 1556 -91 
Q 1019 -91 701 211 
Q 384 513 384 1019 
Q 384 1609 779 1909 
Q 1175 2209 1959 2209 
L 2766 2209 
L 2766 2266 
Q 2766 2663 2505 2880 
Q 2244 3097 1772 3097 
Q 1472 3097 1187 3025 
Q 903 2953 641 2809 
L 641 3341 
Q 956 3463 1253 3523 
Q 1550 3584 1831 3584 
Q 2591 3584 2966 3190 
Q 3341 2797 3341 1997 
z
" transform="scale(0.015625)"/>
       <path id="DejaVuSans-79" d="M 2059 -325 
Q 1816 -950 1584 -1140 
Q 1353 -1331 966 -1331 
L 506 -1331 
L 506 -850 
L 844 -850 
Q 1081 -850 1212 -737 
Q 1344 -625 1503 -206 
L 1606 56 
L 191 3500 
L 800 3500 
L 1894 763 
L 2988 3500 
L 3597 3500 
L 2059 -325 
z
" transform="scale(0.015625)"/>
       <path id="DejaVuSans-73" d="M 2834 3397 
L 2834 2853 
Q 2591 2978 2328 3040 
Q 2066 3103 1784 3103 
Q 1356 3103 1142 2972 
Q 928 2841 928 2578 
Q 928 2378 1081 2264 
Q 1234 2150 1697 2047 
L 1894 2003 
Q 2506 1872 2764 1633 
Q 3022 1394 3022 966 
Q 3022 478 2636 193 
Q 2250 -91 1575 -91 
Q 1294 -91 989 -36 
Q 684 19 347 128 
L 347 722 
Q 666 556 975 473 
Q 1284 391 1588 391 
Q 1994 391 2212 530 
Q 2431 669 2431 922 
Q 2431 1156 2273 1281 
Q 2116 1406 1581 1522 
L 1381 1569 
Q 847 1681 609 1914 
Q 372 2147 372 2553 
Q 372 3047 722 3315 
Q 1072 3584 1716 3584 
Q 2034 3584 2315 3537 
Q 2597 3491 2834 3397 
z
" transform="scale(0.015625)"/>
       <path id="DejaVuSans-20" transform="scale(0.015625)"/>
       <path id="DejaVuSans-69" d="M 603 3500 
L 1178 3500 
L 1178 0 
L 603 0 
L 603 3500 
z
M 603 4863 
L 1178 4863 
L 1178 4134 
L 603 4134 
L 603 4863 
z
" transform="scale(0.015625)"/>
       <path id="DejaVuSans-6e" d="M 3513 2113 
L 3513 0 
L 2938 0 
L 2938 2094 
Q 2938 2591 2744 2837 
Q 2550 3084 2163 3084 
Q 1697 3084 1428 2787 
Q 1159 2491 1159 1978 
L 1159 0 
L 581 0 
L 581 3500 
L 1159 3500 
L 1159 2956 
Q 1366 3272 1645 3428 
Q 1925 3584 2291 3584 
Q 2894 3584 3203 3211 
Q 3513 2838 3513 2113 
z
" transform="scale(0.015625)"/>
       <path id="DejaVuSans-63" d="M 3122 3366 
L 3122 2828 
Q 2878 2963 2633 3030 
Q 2388 3097 2138 3097 
Q 1578 3097 1268 2742 
Q 959 2388 959 1747 
Q 959 1106 1268 751 
Q 1578 397 2138 397 
Q 2388 397 2633 464 
Q 2878 531 3122 666 
L 3122 134 
Q 2881 22 2623 -34 
Q 2366 -91 2075 -91 
Q 1284 -91 818 406 
Q 353 903 353 1747 
Q 353 2603 823 3093 
Q 1294 3584 2113 3584 
Q 2378 3584 2631 3529 
Q 2884 3475 3122 3366 
z
" transform="scale(0.015625)"/>
       <path id="DejaVuSans-65" d="M 3597 1894 
L 3597 1613 
L 953 1613 
Q 991 1019 1311 708 
Q 1631 397 2203 397 
Q 2534 397 2845 478 
Q 3156 559 3463 722 
L 3463 178 
Q 3153 47 2828 -22 
Q 2503 -91 2169 -91 
Q 1331 -91 842 396 
Q 353 884 353 1716 
Q 353 2575 817 3079 
Q 1281 3584 2069 3584 
Q 2775 3584 3186 3129 
Q 3597 2675 3597 1894 
z
M 3022 2063 
Q 3016 2534 2758 2815 
Q 2500 3097 2075 3097 
Q 1594 3097 1305 2825 
Q 1016 2553 972 2059 
L 3022 2063 
z
" transform="scale(0.015625)"/>
       <path id="DejaVuSans-2d" d="M 313 2009 
L 1997 2009 
L 1997 1497 
L 313 1497 
L 313 2009 
z
" transform="scale(0.015625)"/>
       <path id="DejaVuSans-54" d="M -19 4666 
L 3928 4666 
L 3928 4134 
L 2272 4134 
L 2272 0 
L 1638 0 
L 1638 4134 
L -19 4134 
L -19 4666 
z
" transform="scale(0.015625)"/>
       <path id="DejaVuSans-3a" d="M 750 794 
L 1409 794 
L 1409 0 
L 750 0 
L 750 794 
z
M 750 3309 
L 1409 3309 
L 1409 2516 
L 750 2516 
L 750 3309 
z
" transform="scale(0.015625)"/>
      </defs>
      <use xlink:href="#DejaVuSans-44"/>
      <use xlink:href="#DejaVuSans-61" x="77.001953"/>
      <use xlink:href="#DejaVuSans-79" x="138.28125"/>
      <use xlink:href="#DejaVuSans-73" x="197.460938"/>
      <use xlink:href="#DejaVuSans-20" x="249.560547"/>
      <use xlink:href="#DejaVuSans-73" x="281.347656"/>
      <use xlink:href="#DejaVuSans-69" x="333.447266"/>
      <use xlink:href="#DejaVuSans-6e" x="361.230469"/>
      <use xlink:href="#DejaVuSans-63" x="424.609375"/>
      <use xlink:href="#DejaVuSans-65" x="479.589844"/>
      <use xlink:href="#DejaVuSans-20" x="541.113281"/>
      <use xlink:href="#DejaVuSans-32" x="572.900391"/>
      <use xlink:href="#DejaVuSans-30" x="636.523438"/>
      <use xlink:href="#DejaVuSans-30" x="700.146484"/>
      <use xlink:href="#DejaVuSans-30" x="763.769531"/>
      <use xlink:href="#DejaVuSans-2d" x="827.392578"/>
      <use xlink:href="#DejaVuSans-30" x="863.476562"/>
      <use xlink:href="#DejaVuSans-31" x="927.099609"/>
      <use xlink:href="#DejaVuSans-2d" x="990.722656"/>
      <use xlink:href="#DejaVuSans-30" x="1026.806641"/>
      <use xlink:href="#DejaVuSans-31" x="1090.429688"/>
      <use xlink:href="#DejaVuSans-54" x="1154.052734"/>
      <use xlink:href="#DejaVuSans-30" x="1215.136719"/>
      <use xlink:href="#DejaVuSans-30" x="1278.759766"/>
      <use xlink:href="#DejaVuSans-3a" x="1342.382812"/>
      <use xlink:href="#DejaVuSans-30" x="1376.074219"/>
      <use xlink:href="#DejaVuSans-31" x="1439.697266"/>
     </g>
    </g>
   </g>
   <g id="matplotlib.axis_2">
    <g id="ytick_1">
     <g id="line2d_17">
      <path d="M 57.6 295.488 
L 414.72 295.488 
" clip-path="url(#pae0b726bbe)" style="fill: none; stroke: #b0b0b0; stroke-width: 0.8; stroke-linecap: square"/>
     </g>
     <g id="line2d_18">
      <defs>
       <path id="mc29cce3cf8" d="M 0 0 
L -3.5 0 
" style="stroke: #000000; stroke-width: 0.8"/>
      </defs>
      <g>
       <use xlink:href="#mc29cce3cf8" x="57.6" y="295.488" style="stroke: #000000; stroke-width: 0.8"/>
      </g>
     </g>
     <g id="text_10">
      <!-- 0 -->
      <g transform="translate(44.2375 299.287219)scale(0.1 -0.1)">
       <use xlink:href="#DejaVuSans-30"/>
      </g>
     </g>
    </g>
    <g id="ytick_2">
     <g id="line2d_19">
      <path d="M 57.6 248.964923 
L 414.72 248.964923 
" clip-path="url(#pae0b726bbe)" style="fill: none; stroke: #b0b0b0; stroke-width: 0.8; stroke-linecap: square"/>
     </g>
     <g id="line2d_20">
      <g>
       <use xlink:href="#mc29cce3cf8" x="57.6" y="248.964923" style="stroke: #000000; stroke-width: 0.8"/>
      </g>
     </g>
     <g id="text_11">
      <!-- 5 -->
      <g transform="translate(44.2375 252.764142)scale(0.1 -0.1)">
       <defs>
        <path id="DejaVuSans-35" d="M 691 4666 
L 3169 4666 
L 3169 4134 
L 1269 4134 
L 1269 2991 
Q 1406 3038 1543 3061 
Q 1681 3084 1819 3084 
Q 2600 3084 3056 2656 
Q 3513 2228 3513 1497 
Q 3513 744 3044 326 
Q 2575 -91 1722 -91 
Q 1428 -91 1123 -41 
Q 819 9 494 109 
L 494 744 
Q 775 591 1075 516 
Q 1375 441 1709 441 
Q 2250 441 2565 725 
Q 2881 1009 2881 1497 
Q 2881 1984 2565 2268 
Q 2250 2553 1709 2553 
Q 1456 2553 1204 2497 
Q 953 2441 691 2322 
L 691 4666 
z
" transform="scale(0.015625)"/>
       </defs>
       <use xlink:href="#DejaVuSans-35"/>
      </g>
     </g>
    </g>
    <g id="ytick_3">
     <g id="line2d_21">
      <path d="M 57.6 202.441846 
L 414.72 202.441846 
" clip-path="url(#pae0b726bbe)" style="fill: none; stroke: #b0b0b0; stroke-width: 0.8; stroke-linecap: square"/>
     </g>
     <g id="line2d_22">
      <g>
       <use xlink:href="#mc29cce3cf8" x="57.6" y="202.441846" style="stroke: #000000; stroke-width: 0.8"/>
      </g>
     </g>
     <g id="text_12">
      <!-- 10 -->
      <g transform="translate(37.875 206.241065)scale(0.1 -0.1)">
       <use xlink:href="#DejaVuSans-31"/>
       <use xlink:href="#DejaVuSans-30" x="63.623047"/>
      </g>
     </g>
    </g>
    <g id="ytick_4">
     <g id="line2d_23">
      <path d="M 57.6 155.918769 
L 414.72 155.918769 
" clip-path="url(#pae0b726bbe)" style="fill: none; stroke: #b0b0b0; stroke-width: 0.8; stroke-linecap: square"/>
     </g>
     <g id="line2d_24">
      <g>
       <use xlink:href="#mc29cce3cf8" x="57.6" y="155.918769" style="stroke: #000000; stroke-width: 0.8"/>
      </g>
     </g>
     <g id="text_13">
      <!-- 15 -->
      <g transform="translate(37.875 159.717988)scale(0.1 -0.1)">
       <use xlink:href="#DejaVuSans-31"/>
       <use xlink:href="#DejaVuSans-35" x="63.623047"/>
      </g>
     </g>
    </g>
    <g id="ytick_5">
     <g id="line2d_25">
      <path d="M 57.6 109.395692 
L 414.72 109.395692 
" clip-path="url(#pae0b726bbe)" style="fill: none; stroke: #b0b0b0; stroke-width: 0.8; stroke-linecap: square"/>
     </g>
     <g id="line2d_26">
      <g>
       <use xlink:href="#mc29cce3cf8" x="57.6" y="109.395692" style="stroke: #000000; stroke-width: 0.8"/>
      </g>
     </g>
     <g id="text_14">
      <!-- 20 -->
      <g transform="translate(37.875 113.194911)scale(0.1 -0.1)">
       <use xlink:href="#DejaVuSans-32"/>
       <use xlink:href="#DejaVuSans-30" x="63.623047"/>
      </g>
     </g>
    </g>
    <g id="ytick_6">
     <g id="line2d_27">
      <path d="M 57.6 62.872615 
L 414.72 62.872615 
" clip-path="url(#pae0b726bbe)" style="fill: none; stroke: #b0b0b0; stroke-width: 0.8; stroke-linecap: square"/>
     </g>
     <g id="line2d_28">
      <g>
       <use xlink:href="#mc29cce3cf8" x="57.6" y="62.872615" style="stroke: #000000; stroke-width: 0.8"/>
      </g>
     </g>
     <g id="text_15">
      <!-- 25 -->
      <g transform="translate(37.875 66.671834)scale(0.1 -0.1)">
       <use xlink:href="#DejaVuSans-32"/>
       <use xlink:href="#DejaVuSans-35" x="63.623047"/>
      </g>
     </g>
    </g>
    <g id="text_16">
     <!-- # of flares -->
     <g transform="translate(31.795312 200.553)rotate(-90)scale(0.1 -0.1)">
      <defs>
       <path id="DejaVuSans-23" d="M 3272 2816 
L 2363 2816 
L 2100 1772 
L 3016 1772 
L 3272 2816 
z
M 2803 4594 
L 2478 3297 
L 3391 3297 
L 3719 4594 
L 4219 4594 
L 3897 3297 
L 4872 3297 
L 4872 2816 
L 3775 2816 
L 3519 1772 
L 4513 1772 
L 4513 1294 
L 3397 1294 
L 3072 0 
L 2572 0 
L 2894 1294 
L 1978 1294 
L 1656 0 
L 1153 0 
L 1478 1294 
L 494 1294 
L 494 1772 
L 1594 1772 
L 1856 2816 
L 850 2816 
L 850 3297 
L 1978 3297 
L 2297 4594 
L 2803 4594 
z
" transform="scale(0.015625)"/>
       <path id="DejaVuSans-6f" d="M 1959 3097 
Q 1497 3097 1228 2736 
Q 959 2375 959 1747 
Q 959 1119 1226 758 
Q 1494 397 1959 397 
Q 2419 397 2687 759 
Q 2956 1122 2956 1747 
Q 2956 2369 2687 2733 
Q 2419 3097 1959 3097 
z
M 1959 3584 
Q 2709 3584 3137 3096 
Q 3566 2609 3566 1747 
Q 3566 888 3137 398 
Q 2709 -91 1959 -91 
Q 1206 -91 779 398 
Q 353 888 353 1747 
Q 353 2609 779 3096 
Q 1206 3584 1959 3584 
z
" transform="scale(0.015625)"/>
       <path id="DejaVuSans-66" d="M 2375 4863 
L 2375 4384 
L 1825 4384 
Q 1516 4384 1395 4259 
Q 1275 4134 1275 3809 
L 1275 3500 
L 2222 3500 
L 2222 3053 
L 1275 3053 
L 1275 0 
L 697 0 
L 697 3053 
L 147 3053 
L 147 3500 
L 697 3500 
L 697 3744 
Q 697 4328 969 4595 
Q 1241 4863 1831 4863 
L 2375 4863 
z
" transform="scale(0.015625)"/>
       <path id="DejaVuSans-6c" d="M 603 4863 
L 1178 4863 
L 1178 0 
L 603 0 
L 603 4863 
z
" transform="scale(0.015625)"/>
       <path id="DejaVuSans-72" d="M 2631 2963 
Q 2534 3019 2420 3045 
Q 2306 3072 2169 3072 
Q 1681 3072 1420 2755 
Q 1159 2438 1159 1844 
L 1159 0 
L 581 0 
L 581 3500 
L 1159 3500 
L 1159 2956 
Q 1341 3275 1631 3429 
Q 1922 3584 2338 3584 
Q 2397 3584 2469 3576 
Q 2541 3569 2628 3553 
L 2631 2963 
z
" transform="scale(0.015625)"/>
      </defs>
      <use xlink:href="#DejaVuSans-23"/>
      <use xlink:href="#DejaVuSans-20" x="83.789062"/>
      <use xlink:href="#DejaVuSans-6f" x="115.576172"/>
      <use xlink:href="#DejaVuSans-66" x="176.757812"/>
      <use xlink:href="#DejaVuSans-20" x="211.962891"/>
      <use xlink:href="#DejaVuSans-66" x="243.75"/>
      <use xlink:href="#DejaVuSans-6c" x="278.955078"/>
      <use xlink:href="#DejaVuSans-61" x="306.738281"/>
      <use xlink:href="#DejaVuSans-72" x="368.017578"/>
      <use xlink:href="#DejaVuSans-65" x="406.880859"/>
      <use xlink:href="#DejaVuSans-73" x="468.404297"/>
     </g>
    </g>
   </g>
   <g id="line2d_29">
    <path d="M 73.832727 267.574154 
L 74.055246 286.183385 
L 74.500283 248.964923 
L 74.722801 267.574154 
L 74.94532 248.964923 
L 75.167838 211.746462 
L 75.390357 258.269538 
L 75.612876 258.269538 
L 75.835394 202.441846 
L 76.057913 211.746462 
L 76.280431 183.832615 
L 76.50295 230.355692 
L 76.725468 248.964923 
L 76.947987 258.269538 
L 77.170505 276.878769 
L 77.393024 239.660308 
L 77.615542 239.660308 
L 78.060579 258.269538 
L 78.283098 239.660308 
L 78.505617 258.269538 
L 78.728135 295.488 
L 78.950654 248.964923 
L 79.173172 239.660308 
L 79.395691 258.269538 
L 79.618209 286.183385 
L 79.840728 267.574154 
L 80.063246 267.574154 
L 80.285765 276.878769 
L 80.508283 230.355692 
L 80.730802 295.488 
L 80.95332 276.878769 
L 81.398358 118.700308 
L 81.620876 193.137231 
L 81.843395 202.441846 
L 82.065913 248.964923 
L 82.288432 230.355692 
L 82.51095 230.355692 
L 82.733469 248.964923 
L 82.955987 276.878769 
L 83.178506 276.878769 
L 83.401024 267.574154 
L 83.623543 286.183385 
L 83.846061 267.574154 
L 84.06858 211.746462 
L 84.291099 221.051077 
L 84.513617 202.441846 
L 84.736136 230.355692 
L 84.958654 183.832615 
L 85.181173 211.746462 
L 85.403691 155.918769 
L 85.62621 248.964923 
L 85.848728 211.746462 
L 86.293765 258.269538 
L 86.516284 211.746462 
L 86.738802 267.574154 
L 86.961321 211.746462 
L 87.183839 211.746462 
L 87.406358 165.223385 
L 87.628877 193.137231 
L 87.851395 239.660308 
L 88.073914 165.223385 
L 88.296432 239.660308 
L 88.518951 128.004923 
L 88.741469 183.832615 
L 88.963988 211.746462 
L 89.186506 53.568 
L 89.409025 193.137231 
L 89.854062 146.614154 
L 90.07658 211.746462 
L 90.299099 146.614154 
L 90.521618 202.441846 
L 90.744136 174.528 
L 90.966655 230.355692 
L 91.189173 239.660308 
L 91.411692 193.137231 
L 91.63421 248.964923 
L 92.079247 193.137231 
L 92.301766 221.051077 
L 92.524284 211.746462 
L 92.746803 248.964923 
L 93.19184 174.528 
L 93.414359 248.964923 
L 93.636877 155.918769 
L 93.859396 155.918769 
L 94.304433 267.574154 
L 94.74947 248.964923 
L 94.971988 286.183385 
L 95.194507 267.574154 
L 95.417025 258.269538 
L 95.639544 193.137231 
L 95.862062 221.051077 
L 96.084581 230.355692 
L 96.3071 202.441846 
L 96.752137 267.574154 
L 96.974655 239.660308 
L 97.197174 183.832615 
L 97.419692 202.441846 
L 97.642211 258.269538 
L 97.864729 239.660308 
L 98.087248 230.355692 
L 98.309766 230.355692 
L 98.532285 174.528 
L 98.754803 202.441846 
L 98.977322 258.269538 
L 99.19984 202.441846 
L 99.422359 239.660308 
L 99.644878 183.832615 
L 99.867396 165.223385 
L 100.089915 276.878769 
L 100.312433 239.660308 
L 100.534952 221.051077 
L 100.75747 248.964923 
L 100.979989 258.269538 
L 101.202507 239.660308 
L 101.425026 258.269538 
L 101.870063 276.878769 
L 102.092581 276.878769 
L 102.3151 221.051077 
L 102.537619 202.441846 
L 102.760137 248.964923 
L 103.205174 211.746462 
L 103.650211 193.137231 
L 103.87273 146.614154 
L 104.095248 183.832615 
L 104.317767 165.223385 
L 104.540285 174.528 
L 104.762804 211.746462 
L 104.985322 211.746462 
L 105.207841 239.660308 
L 105.43036 193.137231 
L 105.652878 174.528 
L 105.875397 193.137231 
L 106.097915 239.660308 
L 106.320434 221.051077 
L 106.542952 267.574154 
L 106.765471 230.355692 
L 106.987989 267.574154 
L 107.210508 258.269538 
L 107.433026 258.269538 
L 107.655545 174.528 
L 107.878063 248.964923 
L 108.100582 193.137231 
L 108.323101 193.137231 
L 108.545619 211.746462 
L 108.768138 193.137231 
L 108.990656 230.355692 
L 109.213175 193.137231 
L 109.435693 276.878769 
L 109.88073 221.051077 
L 110.325767 221.051077 
L 110.548286 258.269538 
L 110.770804 193.137231 
L 110.993323 230.355692 
L 111.215841 230.355692 
L 111.43836 276.878769 
L 111.660879 239.660308 
L 111.883397 239.660308 
L 112.328434 202.441846 
L 112.773471 276.878769 
L 112.99599 221.051077 
L 113.218508 193.137231 
L 113.441027 221.051077 
L 113.663545 267.574154 
L 113.886064 230.355692 
L 114.108582 248.964923 
L 114.331101 202.441846 
L 114.55362 258.269538 
L 114.776138 239.660308 
L 114.998657 230.355692 
L 115.221175 248.964923 
L 115.443694 258.269538 
L 115.666212 230.355692 
L 115.888731 174.528 
L 116.111249 211.746462 
L 116.333768 221.051077 
L 116.556286 211.746462 
L 116.778805 230.355692 
L 117.001323 165.223385 
L 117.223842 230.355692 
L 117.446361 211.746462 
L 117.891398 146.614154 
L 118.113916 211.746462 
L 118.336435 239.660308 
L 118.558953 165.223385 
L 118.781472 165.223385 
L 119.00399 239.660308 
L 119.226509 230.355692 
L 119.449027 230.355692 
L 119.894064 174.528 
L 120.116583 165.223385 
L 120.339102 230.355692 
L 120.784139 248.964923 
L 121.006657 239.660308 
L 121.229176 276.878769 
L 121.451694 202.441846 
L 121.674213 267.574154 
L 121.896731 267.574154 
L 122.11925 248.964923 
L 122.564287 248.964923 
L 122.786805 258.269538 
L 123.009324 258.269538 
L 123.231842 276.878769 
L 123.67688 193.137231 
L 123.899398 239.660308 
L 124.121917 248.964923 
L 124.344435 239.660308 
L 124.566954 258.269538 
L 124.789472 239.660308 
L 125.011991 258.269538 
L 125.234509 248.964923 
L 125.457028 267.574154 
L 125.679546 183.832615 
L 125.902065 211.746462 
L 126.124583 267.574154 
L 126.347102 248.964923 
L 126.569621 239.660308 
L 126.792139 202.441846 
L 127.014658 211.746462 
L 127.237176 258.269538 
L 127.459695 267.574154 
L 127.682213 258.269538 
L 128.12725 258.269538 
L 128.349769 286.183385 
L 128.572287 267.574154 
L 128.794806 146.614154 
L 129.239843 230.355692 
L 129.462362 248.964923 
L 129.68488 276.878769 
L 129.907399 258.269538 
L 130.129917 276.878769 
L 130.352436 239.660308 
L 130.574954 258.269538 
L 130.797473 267.574154 
L 131.24251 146.614154 
L 131.465028 165.223385 
L 131.687547 174.528 
L 131.910065 211.746462 
L 132.132584 230.355692 
L 132.355102 239.660308 
L 132.577621 239.660308 
L 132.80014 193.137231 
L 133.022658 174.528 
L 133.245177 202.441846 
L 133.467695 248.964923 
L 133.690214 239.660308 
L 133.912732 174.528 
L 134.135251 248.964923 
L 134.580288 193.137231 
L 134.802806 221.051077 
L 135.025325 193.137231 
L 135.470362 258.269538 
L 135.692881 258.269538 
L 135.915399 276.878769 
L 136.137918 258.269538 
L 136.360436 276.878769 
L 136.582955 174.528 
L 136.805473 267.574154 
L 137.473029 267.574154 
L 137.695547 174.528 
L 137.918066 230.355692 
L 138.140584 248.964923 
L 138.363103 239.660308 
L 138.585622 239.660308 
L 138.80814 267.574154 
L 139.030659 230.355692 
L 139.253177 239.660308 
L 139.475696 230.355692 
L 139.698214 276.878769 
L 139.920733 267.574154 
L 140.143251 239.660308 
L 140.36577 239.660308 
L 140.588288 221.051077 
L 140.810807 193.137231 
L 141.033325 258.269538 
L 141.255844 276.878769 
L 141.478363 258.269538 
L 141.700881 248.964923 
L 141.9234 276.878769 
L 142.145918 248.964923 
L 142.368437 248.964923 
L 142.590955 258.269538 
L 142.813474 286.183385 
L 143.035992 221.051077 
L 143.258511 193.137231 
L 143.481029 258.269538 
L 143.703548 248.964923 
L 143.926066 276.878769 
L 144.148585 276.878769 
L 144.371103 267.574154 
L 144.593622 211.746462 
L 145.038659 258.269538 
L 145.261178 221.051077 
L 145.483696 146.614154 
L 145.706215 230.355692 
L 145.928733 248.964923 
L 146.37377 155.918769 
L 147.041326 230.355692 
L 147.263844 239.660308 
L 147.486363 230.355692 
L 147.708882 276.878769 
L 147.9314 183.832615 
L 148.153919 230.355692 
L 148.376437 239.660308 
L 148.598956 276.878769 
L 148.821474 267.574154 
L 149.043993 276.878769 
L 149.266511 258.269538 
L 149.48903 230.355692 
L 149.711548 221.051077 
L 149.934067 221.051077 
L 150.379104 267.574154 
L 150.601623 230.355692 
L 150.824141 239.660308 
L 151.04666 202.441846 
L 151.269178 193.137231 
L 151.491697 248.964923 
L 151.714215 248.964923 
L 152.159252 146.614154 
L 152.381771 211.746462 
L 152.604289 193.137231 
L 152.826808 221.051077 
L 153.049326 202.441846 
L 153.271845 165.223385 
L 153.494364 202.441846 
L 153.716882 202.441846 
L 153.939401 174.528 
L 154.161919 109.395692 
L 154.606956 230.355692 
L 154.829475 239.660308 
L 155.051993 258.269538 
L 155.274512 230.355692 
L 155.49703 258.269538 
L 155.719549 202.441846 
L 155.942067 248.964923 
L 156.164586 230.355692 
L 156.387104 258.269538 
L 156.609623 248.964923 
L 156.832142 248.964923 
L 157.277179 230.355692 
L 157.499697 230.355692 
L 157.722216 248.964923 
L 157.944734 248.964923 
L 158.167253 230.355692 
L 158.389771 221.051077 
L 158.61229 239.660308 
L 158.834808 221.051077 
L 159.057327 267.574154 
L 159.279845 258.269538 
L 159.502364 211.746462 
L 159.724883 230.355692 
L 159.947401 276.878769 
L 160.16992 258.269538 
L 160.392438 146.614154 
L 160.614957 155.918769 
L 160.837475 230.355692 
L 161.059994 221.051077 
L 161.282512 230.355692 
L 161.505031 258.269538 
L 161.727549 258.269538 
L 161.950068 286.183385 
L 162.172586 248.964923 
L 162.395105 258.269538 
L 162.617624 286.183385 
L 162.840142 211.746462 
L 163.062661 248.964923 
L 163.507698 267.574154 
L 163.730216 267.574154 
L 163.952735 239.660308 
L 164.397772 258.269538 
L 164.62029 276.878769 
L 164.842809 276.878769 
L 165.065327 286.183385 
L 165.287846 258.269538 
L 165.510365 267.574154 
L 165.732883 267.574154 
L 165.955402 276.878769 
L 166.17792 239.660308 
L 166.400439 230.355692 
L 166.622957 248.964923 
L 166.845476 286.183385 
L 167.067994 230.355692 
L 167.290513 258.269538 
L 167.513031 267.574154 
L 167.73555 258.269538 
L 167.958068 258.269538 
L 168.180587 295.488 
L 168.403105 258.269538 
L 168.625624 286.183385 
L 168.848143 230.355692 
L 169.070661 258.269538 
L 169.515698 155.918769 
L 169.960735 230.355692 
L 170.405772 165.223385 
L 170.628291 239.660308 
L 170.850809 221.051077 
L 171.073328 258.269538 
L 171.295846 248.964923 
L 171.518365 221.051077 
L 171.740884 221.051077 
L 171.963402 248.964923 
L 172.185921 211.746462 
L 172.408439 267.574154 
L 172.630958 202.441846 
L 172.853476 221.051077 
L 173.075995 230.355692 
L 173.298513 230.355692 
L 173.521032 193.137231 
L 173.74355 230.355692 
L 173.966069 230.355692 
L 174.633625 146.614154 
L 175.078662 221.051077 
L 175.30118 239.660308 
L 175.523699 211.746462 
L 175.746217 267.574154 
L 175.968736 221.051077 
L 176.413773 258.269538 
L 176.636291 248.964923 
L 176.85881 295.488 
L 177.303847 221.051077 
L 177.526366 202.441846 
L 177.748884 239.660308 
L 177.971403 211.746462 
L 178.193921 211.746462 
L 178.638958 230.355692 
L 178.861477 230.355692 
L 179.083995 258.269538 
L 179.306514 248.964923 
L 179.529032 202.441846 
L 179.751551 239.660308 
L 179.974069 165.223385 
L 180.196588 221.051077 
L 180.419106 202.441846 
L 180.641625 202.441846 
L 180.864144 248.964923 
L 181.086662 239.660308 
L 181.309181 239.660308 
L 181.531699 202.441846 
L 181.976736 239.660308 
L 182.421773 239.660308 
L 182.644292 267.574154 
L 182.86681 267.574154 
L 183.089329 258.269538 
L 183.311847 230.355692 
L 183.534366 267.574154 
L 183.756885 230.355692 
L 183.979403 267.574154 
L 184.201922 258.269538 
L 184.42444 211.746462 
L 184.646959 211.746462 
L 184.869477 230.355692 
L 185.091996 239.660308 
L 185.314514 202.441846 
L 185.537033 118.700308 
L 185.759551 221.051077 
L 185.98207 221.051077 
L 186.204588 174.528 
L 186.649626 276.878769 
L 186.872144 230.355692 
L 187.094663 248.964923 
L 187.317181 258.269538 
L 187.5397 276.878769 
L 187.762218 286.183385 
L 187.984737 258.269538 
L 188.429774 295.488 
L 188.652292 239.660308 
L 188.874811 239.660308 
L 189.097329 221.051077 
L 189.319848 239.660308 
L 189.542367 211.746462 
L 189.764885 239.660308 
L 189.987404 202.441846 
L 190.209922 221.051077 
L 190.654959 137.309538 
L 190.877478 137.309538 
L 191.099996 211.746462 
L 191.322515 183.832615 
L 191.545033 174.528 
L 191.767552 248.964923 
L 191.99007 221.051077 
L 192.212589 221.051077 
L 192.435107 239.660308 
L 192.657626 230.355692 
L 192.880145 276.878769 
L 193.102663 258.269538 
L 193.325182 193.137231 
L 193.5477 221.051077 
L 193.770219 202.441846 
L 193.992737 230.355692 
L 194.215256 221.051077 
L 194.437774 267.574154 
L 194.660293 230.355692 
L 194.882811 258.269538 
L 195.10533 239.660308 
L 195.327848 276.878769 
L 195.772886 295.488 
L 195.995404 286.183385 
L 196.217923 286.183385 
L 196.440441 295.488 
L 197.330515 193.137231 
L 197.553034 276.878769 
L 197.775552 276.878769 
L 197.998071 267.574154 
L 198.220589 276.878769 
L 198.443108 221.051077 
L 198.665627 221.051077 
L 198.888145 183.832615 
L 199.110664 248.964923 
L 199.333182 239.660308 
L 199.555701 258.269538 
L 199.778219 248.964923 
L 200.223256 267.574154 
L 200.445775 183.832615 
L 200.668293 239.660308 
L 200.890812 258.269538 
L 201.11333 258.269538 
L 201.335849 239.660308 
L 201.558367 230.355692 
L 201.780886 239.660308 
L 202.003405 276.878769 
L 202.225923 239.660308 
L 202.448442 239.660308 
L 202.67096 165.223385 
L 202.893479 183.832615 
L 203.115997 221.051077 
L 203.338516 100.091077 
L 203.561034 193.137231 
L 203.783553 72.177231 
L 204.006071 183.832615 
L 204.22859 174.528 
L 204.673627 174.528 
L 205.118664 276.878769 
L 205.341183 258.269538 
L 205.563701 276.878769 
L 206.231257 193.137231 
L 206.453775 286.183385 
L 206.898812 230.355692 
L 207.121331 155.918769 
L 207.343849 202.441846 
L 207.566368 174.528 
L 207.788887 109.395692 
L 208.011405 221.051077 
L 208.233924 183.832615 
L 208.456442 118.700308 
L 208.678961 174.528 
L 208.901479 193.137231 
L 209.123998 239.660308 
L 209.346516 248.964923 
L 209.569035 165.223385 
L 209.791553 230.355692 
L 210.23659 211.746462 
L 210.459109 258.269538 
L 211.126665 165.223385 
L 211.349183 202.441846 
L 211.571702 183.832615 
L 211.79422 221.051077 
L 212.016739 211.746462 
L 212.239257 230.355692 
L 212.461776 211.746462 
L 212.684294 146.614154 
L 212.906813 155.918769 
L 213.129331 146.614154 
L 213.35185 248.964923 
L 213.574368 221.051077 
L 213.796887 239.660308 
L 214.019406 211.746462 
L 214.241924 221.051077 
L 214.464443 211.746462 
L 214.90948 258.269538 
L 215.131998 276.878769 
L 215.354517 202.441846 
L 215.577035 258.269538 
L 215.799554 193.137231 
L 216.022072 258.269538 
L 216.244591 221.051077 
L 216.467109 230.355692 
L 216.689628 202.441846 
L 217.134665 267.574154 
L 217.357184 230.355692 
L 217.579702 258.269538 
L 217.802221 248.964923 
L 218.024739 230.355692 
L 218.247258 239.660308 
L 218.469776 193.137231 
L 218.692295 239.660308 
L 218.914813 221.051077 
L 219.137332 248.964923 
L 219.35985 211.746462 
L 219.582369 239.660308 
L 219.804888 211.746462 
L 220.027406 146.614154 
L 220.249925 239.660308 
L 220.472443 193.137231 
L 220.694962 211.746462 
L 221.139999 193.137231 
L 221.362517 146.614154 
L 221.585036 211.746462 
L 221.807554 193.137231 
L 222.030073 202.441846 
L 222.252591 155.918769 
L 222.47511 183.832615 
L 222.697629 239.660308 
L 222.920147 202.441846 
L 223.142666 211.746462 
L 223.365184 202.441846 
L 223.587703 239.660308 
L 224.03274 128.004923 
L 224.255258 183.832615 
L 224.477777 128.004923 
L 224.922814 211.746462 
L 225.145332 183.832615 
L 225.590369 230.355692 
L 225.812888 202.441846 
L 226.035407 258.269538 
L 226.257925 239.660308 
L 226.480444 267.574154 
L 226.702962 267.574154 
L 226.925481 221.051077 
L 227.147999 211.746462 
L 227.370518 183.832615 
L 227.593036 202.441846 
L 227.815555 248.964923 
L 228.038073 165.223385 
L 228.260592 137.309538 
L 228.48311 211.746462 
L 228.705629 202.441846 
L 229.150666 109.395692 
L 229.373185 211.746462 
L 229.595703 202.441846 
L 229.818222 230.355692 
L 230.04074 239.660308 
L 230.485777 221.051077 
L 230.708296 258.269538 
L 230.930814 258.269538 
L 231.153333 239.660308 
L 231.375851 202.441846 
L 231.59837 239.660308 
L 231.820889 248.964923 
L 232.043407 193.137231 
L 232.488444 258.269538 
L 232.710963 202.441846 
L 233.156 276.878769 
L 233.378518 258.269538 
L 233.601037 193.137231 
L 233.823555 239.660308 
L 234.046074 221.051077 
L 234.268592 258.269538 
L 234.491111 221.051077 
L 234.71363 239.660308 
L 234.936148 248.964923 
L 235.381185 193.137231 
L 235.603704 230.355692 
L 235.826222 221.051077 
L 236.048741 258.269538 
L 236.271259 267.574154 
L 236.493778 286.183385 
L 236.716296 211.746462 
L 236.938815 183.832615 
L 237.161333 239.660308 
L 237.383852 239.660308 
L 237.60637 202.441846 
L 238.051408 248.964923 
L 238.273926 267.574154 
L 238.718963 230.355692 
L 238.941482 193.137231 
L 239.164 202.441846 
L 239.609037 239.660308 
L 239.831556 174.528 
L 240.276593 276.878769 
L 240.499111 211.746462 
L 240.72163 276.878769 
L 241.166667 183.832615 
L 241.611704 267.574154 
L 241.834223 230.355692 
L 242.27926 286.183385 
L 242.501778 248.964923 
L 242.946815 230.355692 
L 243.169334 239.660308 
L 243.391852 276.878769 
L 243.83689 211.746462 
L 244.059408 230.355692 
L 244.281927 258.269538 
L 244.504445 211.746462 
L 244.726964 221.051077 
L 244.949482 248.964923 
L 245.172001 202.441846 
L 245.394519 230.355692 
L 245.617038 221.051077 
L 245.839556 230.355692 
L 246.284593 183.832615 
L 246.729631 267.574154 
L 246.952149 221.051077 
L 247.174668 276.878769 
L 247.397186 267.574154 
L 247.619705 183.832615 
L 247.842223 202.441846 
L 248.064742 230.355692 
L 248.28726 211.746462 
L 248.509779 211.746462 
L 248.732297 165.223385 
L 248.954816 230.355692 
L 249.177334 230.355692 
L 249.399853 248.964923 
L 249.622371 202.441846 
L 249.84489 248.964923 
L 250.067409 267.574154 
L 250.289927 258.269538 
L 250.512446 286.183385 
L 250.734964 286.183385 
L 250.957483 221.051077 
L 251.40252 221.051077 
L 251.625038 211.746462 
L 251.847557 267.574154 
L 252.070075 230.355692 
L 252.292594 258.269538 
L 252.515112 248.964923 
L 252.737631 276.878769 
L 252.96015 248.964923 
L 253.182668 183.832615 
L 253.627705 267.574154 
L 253.850224 239.660308 
L 254.072742 230.355692 
L 254.295261 267.574154 
L 254.517779 183.832615 
L 254.740298 248.964923 
L 254.962816 211.746462 
L 255.185335 230.355692 
L 255.407853 239.660308 
L 255.630372 211.746462 
L 256.075409 230.355692 
L 256.297928 248.964923 
L 256.520446 248.964923 
L 256.742965 137.309538 
L 256.965483 248.964923 
L 257.188002 211.746462 
L 257.41052 193.137231 
L 257.633039 230.355692 
L 257.855557 174.528 
L 258.078076 174.528 
L 258.300594 239.660308 
L 258.523113 211.746462 
L 258.745632 221.051077 
L 258.96815 211.746462 
L 259.190669 211.746462 
L 259.413187 193.137231 
L 259.635706 230.355692 
L 259.858224 248.964923 
L 260.080743 221.051077 
L 260.303261 239.660308 
L 260.748298 202.441846 
L 260.970817 248.964923 
L 261.193335 221.051077 
L 261.415854 267.574154 
L 261.638372 155.918769 
L 261.860891 267.574154 
L 262.08341 230.355692 
L 262.305928 267.574154 
L 262.528447 267.574154 
L 262.750965 239.660308 
L 263.641039 239.660308 
L 263.863558 211.746462 
L 264.086076 239.660308 
L 264.308595 248.964923 
L 264.531113 230.355692 
L 264.753632 221.051077 
L 264.976151 230.355692 
L 265.198669 193.137231 
L 265.421188 183.832615 
L 265.643706 230.355692 
L 265.866225 230.355692 
L 266.088743 248.964923 
L 266.53378 267.574154 
L 266.756299 211.746462 
L 266.978817 239.660308 
L 267.201336 174.528 
L 267.646373 239.660308 
L 267.868892 258.269538 
L 268.09141 267.574154 
L 268.313929 230.355692 
L 268.536447 258.269538 
L 268.981484 183.832615 
L 269.204003 183.832615 
L 269.426521 146.614154 
L 269.871558 239.660308 
L 270.094077 239.660308 
L 270.539114 165.223385 
L 270.761633 239.660308 
L 270.984151 267.574154 
L 271.20667 239.660308 
L 271.429188 267.574154 
L 271.874225 286.183385 
L 272.096744 267.574154 
L 272.319262 221.051077 
L 272.541781 248.964923 
L 272.764299 239.660308 
L 272.986818 248.964923 
L 273.209336 230.355692 
L 273.431855 258.269538 
L 273.876892 276.878769 
L 274.099411 267.574154 
L 274.321929 276.878769 
L 274.544448 258.269538 
L 274.766966 267.574154 
L 274.989485 267.574154 
L 275.212003 286.183385 
L 275.65704 230.355692 
L 275.879559 258.269538 
L 276.324596 211.746462 
L 276.547114 248.964923 
L 276.992152 211.746462 
L 277.21467 183.832615 
L 277.437189 118.700308 
L 277.659707 211.746462 
L 278.104744 258.269538 
L 278.549781 239.660308 
L 279.217337 165.223385 
L 279.439855 221.051077 
L 279.662374 202.441846 
L 279.884893 202.441846 
L 280.107411 221.051077 
L 280.32993 230.355692 
L 280.552448 174.528 
L 280.774967 239.660308 
L 280.997485 258.269538 
L 281.220004 248.964923 
L 281.442522 258.269538 
L 282.110078 183.832615 
L 282.332596 174.528 
L 282.555115 239.660308 
L 282.777633 146.614154 
L 283.000152 174.528 
L 283.222671 248.964923 
L 283.667708 118.700308 
L 283.890226 137.309538 
L 284.557782 267.574154 
L 284.7803 221.051077 
L 285.002819 202.441846 
L 285.225337 248.964923 
L 285.447856 267.574154 
L 285.670374 276.878769 
L 285.892893 183.832615 
L 286.115412 248.964923 
L 286.33793 165.223385 
L 286.560449 211.746462 
L 286.782967 174.528 
L 287.005486 248.964923 
L 287.228004 146.614154 
L 287.450523 155.918769 
L 287.673041 174.528 
L 287.89556 90.786462 
L 288.118078 165.223385 
L 288.340597 146.614154 
L 288.563115 174.528 
L 288.785634 221.051077 
L 289.008153 239.660308 
L 289.230671 221.051077 
L 289.45319 239.660308 
L 289.675708 155.918769 
L 289.898227 165.223385 
L 290.120745 193.137231 
L 290.343264 193.137231 
L 290.565782 248.964923 
L 290.788301 221.051077 
L 291.010819 221.051077 
L 291.233338 174.528 
L 291.678375 267.574154 
L 291.900894 239.660308 
L 292.123412 276.878769 
L 292.345931 248.964923 
L 292.568449 165.223385 
L 292.790968 221.051077 
L 293.013486 221.051077 
L 293.236005 286.183385 
L 293.458523 211.746462 
L 293.681042 193.137231 
L 293.90356 211.746462 
L 294.126079 202.441846 
L 294.571116 248.964923 
L 294.793634 230.355692 
L 295.016153 230.355692 
L 295.46119 267.574154 
L 295.683709 258.269538 
L 295.906227 267.574154 
L 296.128746 174.528 
L 296.351264 230.355692 
L 296.573783 202.441846 
L 296.796301 221.051077 
L 297.01882 155.918769 
L 297.241338 258.269538 
L 297.463857 202.441846 
L 297.686375 248.964923 
L 297.908894 128.004923 
L 298.353931 239.660308 
L 298.57645 267.574154 
L 298.798968 211.746462 
L 299.021487 276.878769 
L 299.244005 258.269538 
L 299.466524 202.441846 
L 299.689042 286.183385 
L 299.911561 258.269538 
L 300.134079 248.964923 
L 300.356598 221.051077 
L 300.579116 230.355692 
L 300.801635 211.746462 
L 301.024154 128.004923 
L 301.246672 193.137231 
L 301.469191 146.614154 
L 301.914228 248.964923 
L 302.136746 267.574154 
L 302.359265 248.964923 
L 302.581783 248.964923 
L 302.804302 267.574154 
L 303.02682 202.441846 
L 303.471857 155.918769 
L 303.694376 165.223385 
L 303.916895 211.746462 
L 304.139413 211.746462 
L 304.361932 258.269538 
L 304.58445 248.964923 
L 305.029487 193.137231 
L 305.252006 183.832615 
L 305.474524 276.878769 
L 305.697043 221.051077 
L 305.919561 230.355692 
L 306.14208 128.004923 
L 306.364598 239.660308 
L 306.587117 248.964923 
L 306.809635 248.964923 
L 307.032154 211.746462 
L 307.254673 221.051077 
L 307.477191 248.964923 
L 307.69971 221.051077 
L 307.922228 211.746462 
L 308.144747 267.574154 
L 308.367265 211.746462 
L 308.589784 211.746462 
L 308.812302 258.269538 
L 309.034821 202.441846 
L 309.257339 221.051077 
L 309.479858 248.964923 
L 309.702376 258.269538 
L 309.924895 221.051077 
L 310.147414 165.223385 
L 310.369932 267.574154 
L 310.592451 276.878769 
L 310.814969 239.660308 
L 311.037488 248.964923 
L 311.260006 276.878769 
L 311.482525 248.964923 
L 311.705043 267.574154 
L 312.15008 248.964923 
L 312.372599 258.269538 
L 312.817636 239.660308 
L 313.040155 258.269538 
L 313.262673 267.574154 
L 313.485192 211.746462 
L 313.70771 239.660308 
L 313.930229 183.832615 
L 314.152747 174.528 
L 314.375266 193.137231 
L 314.820303 174.528 
L 315.042821 174.528 
L 315.26534 230.355692 
L 315.487858 248.964923 
L 316.155414 248.964923 
L 316.377933 267.574154 
L 316.600451 276.878769 
L 317.045488 276.878769 
L 317.268007 248.964923 
L 317.490525 239.660308 
L 317.713044 286.183385 
L 317.935562 276.878769 
L 318.158081 146.614154 
L 318.380599 202.441846 
L 318.825636 239.660308 
L 319.493192 211.746462 
L 319.715711 276.878769 
L 319.938229 193.137231 
L 320.160748 248.964923 
L 320.605785 211.746462 
L 320.828303 276.878769 
L 321.050822 258.269538 
L 321.27334 221.051077 
L 321.495859 286.183385 
L 321.718377 239.660308 
L 321.940896 221.051077 
L 322.163415 211.746462 
L 322.385933 248.964923 
L 322.608452 239.660308 
L 322.83097 258.269538 
L 323.053489 211.746462 
L 323.276007 239.660308 
L 323.498526 248.964923 
L 323.721044 239.660308 
L 324.166081 258.269538 
L 324.3886 239.660308 
L 324.611118 155.918769 
L 325.056156 267.574154 
L 325.278674 258.269538 
L 325.501193 267.574154 
L 325.723711 248.964923 
L 325.94623 258.269538 
L 326.168748 276.878769 
L 326.391267 286.183385 
L 326.613785 267.574154 
L 326.836304 267.574154 
L 327.058822 202.441846 
L 327.281341 239.660308 
L 327.503859 183.832615 
L 327.726378 221.051077 
L 327.948897 239.660308 
L 328.393934 258.269538 
L 328.838971 165.223385 
L 329.061489 193.137231 
L 329.284008 193.137231 
L 329.506526 295.488 
L 329.729045 211.746462 
L 329.951563 221.051077 
L 330.174082 267.574154 
L 330.3966 267.574154 
L 330.841637 221.051077 
L 331.286675 258.269538 
L 331.731712 258.269538 
L 331.95423 286.183385 
L 332.176749 276.878769 
L 332.399267 230.355692 
L 332.621786 211.746462 
L 332.844304 230.355692 
L 333.066823 239.660308 
L 333.289341 267.574154 
L 333.51186 276.878769 
L 333.734378 267.574154 
L 333.956897 248.964923 
L 334.179416 267.574154 
L 334.624453 128.004923 
L 334.846971 90.786462 
L 335.06949 202.441846 
L 335.514527 165.223385 
L 335.737045 267.574154 
L 335.959564 239.660308 
L 336.182082 193.137231 
L 336.404601 248.964923 
L 336.627119 211.746462 
L 336.849638 276.878769 
L 337.072157 211.746462 
L 337.294675 267.574154 
L 337.517194 258.269538 
L 337.739712 258.269538 
L 337.962231 221.051077 
L 338.184749 211.746462 
L 338.407268 174.528 
L 338.852305 276.878769 
L 339.074823 267.574154 
L 339.297342 267.574154 
L 339.51986 183.832615 
L 339.742379 248.964923 
L 340.187416 165.223385 
L 340.632453 239.660308 
L 340.854972 267.574154 
L 341.07749 276.878769 
L 341.300009 276.878769 
L 341.522527 239.660308 
L 341.745046 267.574154 
L 341.967564 248.964923 
L 342.190083 221.051077 
L 342.412601 239.660308 
L 342.63512 193.137231 
L 342.857638 183.832615 
L 343.080157 193.137231 
L 343.302676 146.614154 
L 343.525194 193.137231 
L 343.747713 211.746462 
L 343.970231 137.309538 
L 344.19275 239.660308 
L 344.415268 155.918769 
L 344.637787 248.964923 
L 344.860305 276.878769 
L 345.082824 248.964923 
L 345.305342 258.269538 
L 345.750379 211.746462 
L 345.972898 258.269538 
L 346.195417 267.574154 
L 346.417935 267.574154 
L 346.640454 286.183385 
L 346.862972 248.964923 
L 347.085491 276.878769 
L 347.308009 276.878769 
L 347.753046 295.488 
L 347.975565 276.878769 
L 348.198083 267.574154 
L 348.420602 248.964923 
L 348.64312 183.832615 
L 348.865639 276.878769 
L 349.088158 230.355692 
L 349.310676 286.183385 
L 349.755713 239.660308 
L 349.978232 221.051077 
L 350.20075 239.660308 
L 350.423269 128.004923 
L 350.645787 230.355692 
L 350.868306 221.051077 
L 351.090824 239.660308 
L 351.313343 174.528 
L 351.535861 230.355692 
L 351.75838 239.660308 
L 351.980898 286.183385 
L 352.203417 248.964923 
L 352.425936 193.137231 
L 352.648454 193.137231 
L 352.870973 155.918769 
L 353.093491 146.614154 
L 353.31601 183.832615 
L 353.538528 193.137231 
L 353.761047 155.918769 
L 353.983565 239.660308 
L 354.206084 248.964923 
L 354.428602 221.051077 
L 354.651121 239.660308 
L 354.873639 221.051077 
L 355.096158 295.488 
L 355.541195 221.051077 
L 355.763714 202.441846 
L 356.208751 267.574154 
L 356.431269 230.355692 
L 356.653788 267.574154 
L 356.876306 258.269538 
L 357.098825 239.660308 
L 357.321343 248.964923 
L 357.543862 239.660308 
L 357.76638 221.051077 
L 357.988899 248.964923 
L 358.211418 230.355692 
L 358.433936 230.355692 
L 358.656455 155.918769 
L 358.878973 221.051077 
L 359.101492 211.746462 
L 359.32401 248.964923 
L 359.546529 174.528 
L 359.769047 221.051077 
L 359.991566 202.441846 
L 360.214084 258.269538 
L 360.659121 155.918769 
L 360.88164 230.355692 
L 361.104159 211.746462 
L 361.326677 230.355692 
L 361.549196 174.528 
L 361.994233 174.528 
L 362.216751 90.786462 
L 362.661788 202.441846 
L 362.884307 202.441846 
L 363.106825 258.269538 
L 363.329344 286.183385 
L 363.551862 276.878769 
L 363.774381 258.269538 
L 364.219418 193.137231 
L 364.441937 230.355692 
L 364.664455 211.746462 
L 364.886974 155.918769 
L 365.109492 202.441846 
L 365.332011 193.137231 
L 365.554529 286.183385 
L 365.777048 239.660308 
L 365.999566 267.574154 
L 366.222085 267.574154 
L 366.444603 258.269538 
L 366.667122 267.574154 
L 366.88964 239.660308 
L 367.112159 267.574154 
L 367.557196 202.441846 
L 367.779715 258.269538 
L 368.002233 211.746462 
L 368.224752 230.355692 
L 368.44727 230.355692 
L 368.669789 221.051077 
L 368.892307 221.051077 
L 369.114826 295.488 
L 369.337344 258.269538 
L 369.559863 286.183385 
L 369.782381 286.183385 
L 370.227419 267.574154 
L 370.449937 248.964923 
L 370.672456 211.746462 
L 370.894974 239.660308 
L 371.117493 286.183385 
L 371.340011 267.574154 
L 372.007567 295.488 
L 372.230085 258.269538 
L 372.452604 286.183385 
L 372.675122 248.964923 
L 372.897641 276.878769 
L 373.12016 276.878769 
L 373.342678 295.488 
L 373.565197 276.878769 
L 373.787715 267.574154 
L 374.010234 267.574154 
L 374.232752 211.746462 
L 374.455271 248.964923 
L 374.677789 211.746462 
L 374.900308 146.614154 
L 375.122826 183.832615 
L 375.345345 276.878769 
L 375.567863 258.269538 
L 375.790382 267.574154 
L 376.0129 221.051077 
L 376.457938 276.878769 
L 376.680456 276.878769 
L 376.902975 128.004923 
L 377.125493 258.269538 
L 377.348012 239.660308 
L 377.57053 258.269538 
L 377.793049 239.660308 
L 378.015567 230.355692 
L 378.238086 202.441846 
L 378.460604 230.355692 
L 378.683123 221.051077 
L 378.905641 221.051077 
L 379.12816 211.746462 
L 379.350679 193.137231 
L 379.573197 258.269538 
L 379.795716 221.051077 
L 380.018234 267.574154 
L 380.240753 248.964923 
L 380.68579 267.574154 
L 380.908308 286.183385 
L 381.130827 286.183385 
L 381.353345 295.488 
L 381.575864 276.878769 
L 381.798382 239.660308 
L 382.020901 248.964923 
L 382.24342 174.528 
L 382.465938 239.660308 
L 382.688457 193.137231 
L 382.910975 221.051077 
L 383.133494 230.355692 
L 383.356012 248.964923 
L 383.578531 193.137231 
L 383.801049 165.223385 
L 384.023568 248.964923 
L 384.246086 174.528 
L 384.468605 239.660308 
L 385.136161 211.746462 
L 385.358679 183.832615 
L 385.581198 258.269538 
L 385.803716 239.660308 
L 386.026235 230.355692 
L 386.471272 276.878769 
L 386.69379 276.878769 
L 386.916309 295.488 
L 387.138827 248.964923 
L 387.361346 174.528 
L 387.583864 258.269538 
L 387.806383 211.746462 
L 388.028901 248.964923 
L 388.25142 183.832615 
L 388.473939 211.746462 
L 388.696457 211.746462 
L 388.918976 221.051077 
L 389.141494 221.051077 
L 389.364013 211.746462 
L 389.586531 183.832615 
L 389.80905 239.660308 
L 390.031568 239.660308 
L 390.254087 221.051077 
L 390.699124 258.269538 
L 390.921642 267.574154 
L 391.144161 239.660308 
L 391.36668 267.574154 
L 391.589198 221.051077 
L 391.811717 258.269538 
L 392.034235 248.964923 
L 392.256754 221.051077 
L 392.701791 286.183385 
L 393.146828 174.528 
L 393.369346 276.878769 
L 393.591865 295.488 
L 393.814383 248.964923 
L 394.036902 230.355692 
L 394.259421 230.355692 
L 394.481939 276.878769 
L 394.704458 276.878769 
L 394.926976 239.660308 
L 395.149495 267.574154 
L 395.372013 276.878769 
L 395.594532 221.051077 
L 395.81705 118.700308 
L 396.262087 248.964923 
L 396.484606 230.355692 
L 396.707124 202.441846 
L 396.929643 211.746462 
L 397.152162 230.355692 
L 397.37468 239.660308 
L 397.597199 230.355692 
L 397.819717 295.488 
L 398.042236 286.183385 
L 398.264754 230.355692 
L 398.487273 258.269538 
L 398.487273 258.269538 
" clip-path="url(#pae0b726bbe)" style="fill: none; stroke: #000000; stroke-width: 1.5; stroke-linecap: square"/>
   </g>
   <g id="patch_3">
    <path d="M 57.6 307.584 
L 57.6 41.472 
" style="fill: none; stroke: #000000; stroke-width: 0.8; stroke-linejoin: miter; stroke-linecap: square"/>
   </g>
   <g id="patch_4">
    <path d="M 414.72 307.584 
L 414.72 41.472 
" style="fill: none; stroke: #000000; stroke-width: 0.8; stroke-linejoin: miter; stroke-linecap: square"/>
   </g>
   <g id="patch_5">
    <path d="M 57.6 307.584 
L 414.72 307.584 
" style="fill: none; stroke: #000000; stroke-width: 0.8; stroke-linejoin: miter; stroke-linecap: square"/>
   </g>
   <g id="patch_6">
    <path d="M 57.6 41.472 
L 414.72 41.472 
" style="fill: none; stroke: #000000; stroke-width: 0.8; stroke-linejoin: miter; stroke-linecap: square"/>
   </g>
  </g>
 </g>
 <defs>
  <clipPath id="pae0b726bbe">
   <rect x="57.6" y="41.472" width="357.12" height="266.112"/>
  </clipPath>
 </defs>
</svg>
