<?xml version="1.0" encoding="utf-8" standalone="no"?>
<!DOCTYPE svg PUBLIC "-//W3C//DTD SVG 1.1//EN"
  "http://www.w3.org/Graphics/SVG/1.1/DTD/svg11.dtd">
<svg xmlns:xlink="http://www.w3.org/1999/xlink" width="460.8pt" height="345.6pt" viewBox="0 0 460.8 345.6" xmlns="http://www.w3.org/2000/svg" version="1.1">
 <metadata>
  <rdf:RDF xmlns:dc="http://purl.org/dc/elements/1.1/" xmlns:cc="http://creativecommons.org/ns#" xmlns:rdf="http://www.w3.org/1999/02/22-rdf-syntax-ns#">
   <cc:Work>
    <dc:type rdf:resource="http://purl.org/dc/dcmitype/StillImage"/>
    <dc:date>2025-03-05T22:20:59.910344</dc:date>
    <dc:format>image/svg+xml</dc:format>
    <dc:creator>
     <cc:Agent>
      <dc:title>Matplotlib v3.5.2, https://matplotlib.org/</dc:title>
     </cc:Agent>
    </dc:creator>
   </cc:Work>
  </rdf:RDF>
 </metadata>
 <defs>
  <style type="text/css">*{stroke-linejoin: round; stroke-linecap: butt}</style>
 </defs>
 <g id="figure_1">
  <g id="patch_1">
   <path d="M 0 345.6 
L 460.8 345.6 
L 460.8 0 
L 0 0 
L 0 345.6 
z
" style="fill: none"/>
  </g>
  <g id="axes_1">
   <g id="patch_2">
    <path d="M 57.6 307.584 
L 414.72 307.584 
L 414.72 41.472 
L 57.6 41.472 
L 57.6 307.584 
z
" style="fill: none"/>
   </g>
   <g id="patch_3">
    <path d="M 95.679078 307.584 
L 105.97072 307.584 
L 105.97072 303.304812 
L 95.679078 303.304812 
z
" clip-path="url(#pafd800b799)"/>
   </g>
   <g id="patch_4">
    <path d="M 105.97072 307.584 
L 116.262363 307.584 
L 116.262363 302.235015 
L 105.97072 302.235015 
z
" clip-path="url(#pafd800b799)"/>
   </g>
   <g id="patch_5">
    <path d="M 116.262363 307.584 
L 126.554006 307.584 
L 126.554006 284.048466 
L 116.262363 284.048466 
z
" clip-path="url(#pafd800b799)"/>
   </g>
   <g id="patch_6">
    <path d="M 126.554006 307.584 
L 136.845648 307.584 
L 136.845648 270.141106 
L 126.554006 270.141106 
z
" clip-path="url(#pafd800b799)"/>
   </g>
   <g id="patch_7">
    <path d="M 136.845648 307.584 
L 147.137291 307.584 
L 147.137291 257.303542 
L 136.845648 257.303542 
z
" clip-path="url(#pafd800b799)"/>
   </g>
   <g id="patch_8">
    <path d="M 147.137291 307.584 
L 157.428934 307.584 
L 157.428934 220.930444 
L 147.137291 220.930444 
z
" clip-path="url(#pafd800b799)"/>
   </g>
   <g id="patch_9">
    <path d="M 157.428934 307.584 
L 167.720576 307.584 
L 167.720576 193.115723 
L 157.428934 193.115723 
z
" clip-path="url(#pafd800b799)"/>
   </g>
   <g id="patch_10">
    <path d="M 167.720576 307.584 
L 178.012219 307.584 
L 178.012219 190.976129 
L 167.720576 190.976129 
z
" clip-path="url(#pafd800b799)"/>
   </g>
   <g id="patch_11">
    <path d="M 178.012219 307.584 
L 188.303862 307.584 
L 188.303862 183.48755 
L 178.012219 183.48755 
z
" clip-path="url(#pafd800b799)"/>
   </g>
   <g id="patch_12">
    <path d="M 188.303862 307.584 
L 198.595504 307.584 
L 198.595504 209.162677 
L 188.303862 209.162677 
z
" clip-path="url(#pafd800b799)"/>
   </g>
   <g id="patch_13">
    <path d="M 198.595504 307.584 
L 208.887147 307.584 
L 208.887147 213.441865 
L 198.595504 213.441865 
z
" clip-path="url(#pafd800b799)"/>
   </g>
   <g id="patch_14">
    <path d="M 208.887147 307.584 
L 219.17879 307.584 
L 219.17879 210.232474 
L 208.887147 210.232474 
z
" clip-path="url(#pafd800b799)"/>
   </g>
   <g id="patch_15">
    <path d="M 219.17879 307.584 
L 229.470432 307.584 
L 229.470432 223.070038 
L 219.17879 223.070038 
z
" clip-path="url(#pafd800b799)"/>
   </g>
   <g id="patch_16">
    <path d="M 229.470432 307.584 
L 239.762075 307.584 
L 239.762075 261.58273 
L 229.470432 261.58273 
z
" clip-path="url(#pafd800b799)"/>
   </g>
   <g id="patch_17">
    <path d="M 239.762075 307.584 
L 250.053718 307.584 
L 250.053718 277.629684 
L 239.762075 277.629684 
z
" clip-path="url(#pafd800b799)"/>
   </g>
   <g id="patch_18">
    <path d="M 250.053718 307.584 
L 260.34536 307.584 
L 260.34536 286.18806 
L 250.053718 286.18806 
z
" clip-path="url(#pafd800b799)"/>
   </g>
   <g id="patch_19">
    <path d="M 260.34536 307.584 
L 270.637003 307.584 
L 270.637003 291.537045 
L 260.34536 291.537045 
z
" clip-path="url(#pafd800b799)"/>
   </g>
   <g id="patch_20">
    <path d="M 270.637003 307.584 
L 280.928646 307.584 
L 280.928646 297.955827 
L 270.637003 297.955827 
z
" clip-path="url(#pafd800b799)"/>
   </g>
   <g id="patch_21">
    <path d="M 280.928646 307.584 
L 291.220288 307.584 
L 291.220288 304.374609 
L 280.928646 304.374609 
z
" clip-path="url(#pafd800b799)"/>
   </g>
   <g id="patch_22">
    <path d="M 291.220288 307.584 
L 301.511931 307.584 
L 301.511931 306.514203 
L 291.220288 306.514203 
z
" clip-path="url(#pafd800b799)"/>
   </g>
   <g id="matplotlib.axis_1">
    <g id="xtick_1">
     <g id="line2d_1">
      <defs>
       <path id="md04f5e002c" d="M 0 0 
L 0 3.5 
" style="stroke: #000000; stroke-width: 0.8"/>
      </defs>
      <g>
       <use xlink:href="#md04f5e002c" x="105.97072" y="307.584" style="stroke: #000000; stroke-width: 0.8"/>
      </g>
     </g>
     <g id="text_1">
      <!-- 50000 -->
      <g transform="translate(90.06447 322.182437)scale(0.1 -0.1)">
       <defs>
        <path id="DejaVuSans-35" d="M 691 4666 
L 3169 4666 
L 3169 4134 
L 1269 4134 
L 1269 2991 
Q 1406 3038 1543 3061 
Q 1681 3084 1819 3084 
Q 2600 3084 3056 2656 
Q 3513 2228 3513 1497 
Q 3513 744 3044 326 
Q 2575 -91 1722 -91 
Q 1428 -91 1123 -41 
Q 819 9 494 109 
L 494 744 
Q 775 591 1075 516 
Q 1375 441 1709 441 
Q 2250 441 2565 725 
Q 2881 1009 2881 1497 
Q 2881 1984 2565 2268 
Q 2250 2553 1709 2553 
Q 1456 2553 1204 2497 
Q 953 2441 691 2322 
L 691 4666 
z
" transform="scale(0.015625)"/>
        <path id="DejaVuSans-30" d="M 2034 4250 
Q 1547 4250 1301 3770 
Q 1056 3291 1056 2328 
Q 1056 1369 1301 889 
Q 1547 409 2034 409 
Q 2525 409 2770 889 
Q 3016 1369 3016 2328 
Q 3016 3291 2770 3770 
Q 2525 4250 2034 4250 
z
M 2034 4750 
Q 2819 4750 3233 4129 
Q 3647 3509 3647 2328 
Q 3647 1150 3233 529 
Q 2819 -91 2034 -91 
Q 1250 -91 836 529 
Q 422 1150 422 2328 
Q 422 3509 836 4129 
Q 1250 4750 2034 4750 
z
" transform="scale(0.015625)"/>
       </defs>
       <use xlink:href="#DejaVuSans-35"/>
       <use xlink:href="#DejaVuSans-30" x="63.623047"/>
       <use xlink:href="#DejaVuSans-30" x="127.246094"/>
       <use xlink:href="#DejaVuSans-30" x="190.869141"/>
       <use xlink:href="#DejaVuSans-30" x="254.492188"/>
      </g>
     </g>
    </g>
    <g id="xtick_2">
     <g id="line2d_2">
      <g>
       <use xlink:href="#md04f5e002c" x="157.428934" y="307.584" style="stroke: #000000; stroke-width: 0.8"/>
      </g>
     </g>
     <g id="text_2">
      <!-- 100000 -->
      <g transform="translate(138.341434 322.182437)scale(0.1 -0.1)">
       <defs>
        <path id="DejaVuSans-31" d="M 794 531 
L 1825 531 
L 1825 4091 
L 703 3866 
L 703 4441 
L 1819 4666 
L 2450 4666 
L 2450 531 
L 3481 531 
L 3481 0 
L 794 0 
L 794 531 
z
" transform="scale(0.015625)"/>
       </defs>
       <use xlink:href="#DejaVuSans-31"/>
       <use xlink:href="#DejaVuSans-30" x="63.623047"/>
       <use xlink:href="#DejaVuSans-30" x="127.246094"/>
       <use xlink:href="#DejaVuSans-30" x="190.869141"/>
       <use xlink:href="#DejaVuSans-30" x="254.492188"/>
       <use xlink:href="#DejaVuSans-30" x="318.115234"/>
      </g>
     </g>
    </g>
    <g id="xtick_3">
     <g id="line2d_3">
      <g>
       <use xlink:href="#md04f5e002c" x="208.887147" y="307.584" style="stroke: #000000; stroke-width: 0.8"/>
      </g>
     </g>
     <g id="text_3">
      <!-- 150000 -->
      <g transform="translate(189.799647 322.182437)scale(0.1 -0.1)">
       <use xlink:href="#DejaVuSans-31"/>
       <use xlink:href="#DejaVuSans-35" x="63.623047"/>
       <use xlink:href="#DejaVuSans-30" x="127.246094"/>
       <use xlink:href="#DejaVuSans-30" x="190.869141"/>
       <use xlink:href="#DejaVuSans-30" x="254.492188"/>
       <use xlink:href="#DejaVuSans-30" x="318.115234"/>
      </g>
     </g>
    </g>
    <g id="xtick_4">
     <g id="line2d_4">
      <g>
       <use xlink:href="#md04f5e002c" x="260.34536" y="307.584" style="stroke: #000000; stroke-width: 0.8"/>
      </g>
     </g>
     <g id="text_4">
      <!-- 200000 -->
      <g transform="translate(241.25786 322.182437)scale(0.1 -0.1)">
       <defs>
        <path id="DejaVuSans-32" d="M 1228 531 
L 3431 531 
L 3431 0 
L 469 0 
L 469 531 
Q 828 903 1448 1529 
Q 2069 2156 2228 2338 
Q 2531 2678 2651 2914 
Q 2772 3150 2772 3378 
Q 2772 3750 2511 3984 
Q 2250 4219 1831 4219 
Q 1534 4219 1204 4116 
Q 875 4013 500 3803 
L 500 4441 
Q 881 4594 1212 4672 
Q 1544 4750 1819 4750 
Q 2544 4750 2975 4387 
Q 3406 4025 3406 3419 
Q 3406 3131 3298 2873 
Q 3191 2616 2906 2266 
Q 2828 2175 2409 1742 
Q 1991 1309 1228 531 
z
" transform="scale(0.015625)"/>
       </defs>
       <use xlink:href="#DejaVuSans-32"/>
       <use xlink:href="#DejaVuSans-30" x="63.623047"/>
       <use xlink:href="#DejaVuSans-30" x="127.246094"/>
       <use xlink:href="#DejaVuSans-30" x="190.869141"/>
       <use xlink:href="#DejaVuSans-30" x="254.492188"/>
       <use xlink:href="#DejaVuSans-30" x="318.115234"/>
      </g>
     </g>
    </g>
    <g id="xtick_5">
     <g id="line2d_5">
      <g>
       <use xlink:href="#md04f5e002c" x="311.803573" y="307.584" style="stroke: #000000; stroke-width: 0.8"/>
      </g>
     </g>
     <g id="text_5">
      <!-- 250000 -->
      <g transform="translate(292.716073 322.182437)scale(0.1 -0.1)">
       <use xlink:href="#DejaVuSans-32"/>
       <use xlink:href="#DejaVuSans-35" x="63.623047"/>
       <use xlink:href="#DejaVuSans-30" x="127.246094"/>
       <use xlink:href="#DejaVuSans-30" x="190.869141"/>
       <use xlink:href="#DejaVuSans-30" x="254.492188"/>
       <use xlink:href="#DejaVuSans-30" x="318.115234"/>
      </g>
     </g>
    </g>
    <g id="xtick_6">
     <g id="line2d_6">
      <g>
       <use xlink:href="#md04f5e002c" x="363.261787" y="307.584" style="stroke: #000000; stroke-width: 0.8"/>
      </g>
     </g>
     <g id="text_6">
      <!-- 300000 -->
      <g transform="translate(344.174287 322.182437)scale(0.1 -0.1)">
       <defs>
        <path id="DejaVuSans-33" d="M 2597 2516 
Q 3050 2419 3304 2112 
Q 3559 1806 3559 1356 
Q 3559 666 3084 287 
Q 2609 -91 1734 -91 
Q 1441 -91 1130 -33 
Q 819 25 488 141 
L 488 750 
Q 750 597 1062 519 
Q 1375 441 1716 441 
Q 2309 441 2620 675 
Q 2931 909 2931 1356 
Q 2931 1769 2642 2001 
Q 2353 2234 1838 2234 
L 1294 2234 
L 1294 2753 
L 1863 2753 
Q 2328 2753 2575 2939 
Q 2822 3125 2822 3475 
Q 2822 3834 2567 4026 
Q 2313 4219 1838 4219 
Q 1578 4219 1281 4162 
Q 984 4106 628 3988 
L 628 4550 
Q 988 4650 1302 4700 
Q 1616 4750 1894 4750 
Q 2613 4750 3031 4423 
Q 3450 4097 3450 3541 
Q 3450 3153 3228 2886 
Q 3006 2619 2597 2516 
z
" transform="scale(0.015625)"/>
       </defs>
       <use xlink:href="#DejaVuSans-33"/>
       <use xlink:href="#DejaVuSans-30" x="63.623047"/>
       <use xlink:href="#DejaVuSans-30" x="127.246094"/>
       <use xlink:href="#DejaVuSans-30" x="190.869141"/>
       <use xlink:href="#DejaVuSans-30" x="254.492188"/>
       <use xlink:href="#DejaVuSans-30" x="318.115234"/>
      </g>
     </g>
    </g>
    <g id="xtick_7">
     <g id="line2d_7">
      <g>
       <use xlink:href="#md04f5e002c" x="414.72" y="307.584" style="stroke: #000000; stroke-width: 0.8"/>
      </g>
     </g>
     <g id="text_7">
      <!-- 350000 -->
      <g transform="translate(395.6325 322.182437)scale(0.1 -0.1)">
       <use xlink:href="#DejaVuSans-33"/>
       <use xlink:href="#DejaVuSans-35" x="63.623047"/>
       <use xlink:href="#DejaVuSans-30" x="127.246094"/>
       <use xlink:href="#DejaVuSans-30" x="190.869141"/>
       <use xlink:href="#DejaVuSans-30" x="254.492188"/>
       <use xlink:href="#DejaVuSans-30" x="318.115234"/>
      </g>
     </g>
    </g>
    <g id="text_8">
     <!-- $S^2$ $[\mathtt{V}^2]$ -->
     <g transform="translate(219.31 336.682437)scale(0.1 -0.1)">
      <defs>
       <path id="DejaVuSans-Oblique-53" d="M 3859 4513 
L 3738 3897 
Q 3422 4066 3111 4152 
Q 2800 4238 2509 4238 
Q 1944 4238 1609 3991 
Q 1275 3744 1275 3334 
Q 1275 3109 1398 2989 
Q 1522 2869 2034 2731 
L 2413 2638 
Q 3053 2472 3303 2217 
Q 3553 1963 3553 1503 
Q 3553 797 2998 353 
Q 2444 -91 1538 -91 
Q 1166 -91 791 -17 
Q 416 56 38 206 
L 166 856 
Q 513 641 861 531 
Q 1209 422 1556 422 
Q 2147 422 2503 684 
Q 2859 947 2859 1369 
Q 2859 1650 2717 1795 
Q 2575 1941 2106 2059 
L 1728 2156 
Q 1081 2325 845 2545 
Q 609 2766 609 3163 
Q 609 3859 1145 4304 
Q 1681 4750 2541 4750 
Q 2875 4750 3203 4690 
Q 3531 4631 3859 4513 
z
" transform="scale(0.015625)"/>
       <path id="DejaVuSans-20" transform="scale(0.015625)"/>
       <path id="DejaVuSans-5b" d="M 550 4863 
L 1875 4863 
L 1875 4416 
L 1125 4416 
L 1125 -397 
L 1875 -397 
L 1875 -844 
L 550 -844 
L 550 4863 
z
" transform="scale(0.015625)"/>
       <path id="DejaVuSansMono-56" d="M 1925 531 
L 3022 4666 
L 3675 4666 
L 2309 0 
L 1544 0 
L 178 4666 
L 831 4666 
L 1925 531 
z
" transform="scale(0.015625)"/>
       <path id="DejaVuSans-5d" d="M 1947 4863 
L 1947 -844 
L 622 -844 
L 622 -397 
L 1369 -397 
L 1369 4416 
L 622 4416 
L 622 4863 
L 1947 4863 
z
" transform="scale(0.015625)"/>
      </defs>
      <use xlink:href="#DejaVuSans-Oblique-53" transform="translate(0 0.765625)"/>
      <use xlink:href="#DejaVuSans-32" transform="translate(70.677083 39.046875)scale(0.7)"/>
      <use xlink:href="#DejaVuSans-20" transform="translate(117.947591 0.765625)"/>
      <use xlink:href="#DejaVuSans-5b" transform="translate(149.734701 0.765625)"/>
      <use xlink:href="#DejaVuSansMono-56" transform="translate(188.748372 0.765625)"/>
      <use xlink:href="#DejaVuSans-32" transform="translate(249.910482 39.046875)scale(0.7)"/>
      <use xlink:href="#DejaVuSans-5d" transform="translate(297.18099 0.765625)"/>
     </g>
    </g>
   </g>
   <g id="matplotlib.axis_2">
    <g id="ytick_1">
     <g id="line2d_8">
      <path d="M 57.6 307.584 
L 414.72 307.584 
" clip-path="url(#pafd800b799)" style="fill: none; stroke: #b0b0b0; stroke-width: 0.8; stroke-linecap: square"/>
     </g>
     <g id="line2d_9">
      <defs>
       <path id="m4e0e7639f6" d="M 0 0 
L -3.5 0 
" style="stroke: #000000; stroke-width: 0.8"/>
      </defs>
      <g>
       <use xlink:href="#m4e0e7639f6" x="57.6" y="307.584" style="stroke: #000000; stroke-width: 0.8"/>
      </g>
     </g>
     <g id="text_9">
      <!-- 0.00 -->
      <g transform="translate(28.334375 311.383219)scale(0.1 -0.1)">
       <defs>
        <path id="DejaVuSans-2e" d="M 684 794 
L 1344 794 
L 1344 0 
L 684 0 
L 684 794 
z
" transform="scale(0.015625)"/>
       </defs>
       <use xlink:href="#DejaVuSans-30"/>
       <use xlink:href="#DejaVuSans-2e" x="63.623047"/>
       <use xlink:href="#DejaVuSans-30" x="95.410156"/>
       <use xlink:href="#DejaVuSans-30" x="159.033203"/>
      </g>
     </g>
    </g>
    <g id="ytick_2">
     <g id="line2d_10">
      <path d="M 57.6 254.3616 
L 414.72 254.3616 
" clip-path="url(#pafd800b799)" style="fill: none; stroke: #b0b0b0; stroke-width: 0.8; stroke-linecap: square"/>
     </g>
     <g id="line2d_11">
      <g>
       <use xlink:href="#m4e0e7639f6" x="57.6" y="254.3616" style="stroke: #000000; stroke-width: 0.8"/>
      </g>
     </g>
     <g id="text_10">
      <!-- 0.05 -->
      <g transform="translate(28.334375 258.160819)scale(0.1 -0.1)">
       <use xlink:href="#DejaVuSans-30"/>
       <use xlink:href="#DejaVuSans-2e" x="63.623047"/>
       <use xlink:href="#DejaVuSans-30" x="95.410156"/>
       <use xlink:href="#DejaVuSans-35" x="159.033203"/>
      </g>
     </g>
    </g>
    <g id="ytick_3">
     <g id="line2d_12">
      <path d="M 57.6 201.1392 
L 414.72 201.1392 
" clip-path="url(#pafd800b799)" style="fill: none; stroke: #b0b0b0; stroke-width: 0.8; stroke-linecap: square"/>
     </g>
     <g id="line2d_13">
      <g>
       <use xlink:href="#m4e0e7639f6" x="57.6" y="201.1392" style="stroke: #000000; stroke-width: 0.8"/>
      </g>
     </g>
     <g id="text_11">
      <!-- 0.10 -->
      <g transform="translate(28.334375 204.938419)scale(0.1 -0.1)">
       <use xlink:href="#DejaVuSans-30"/>
       <use xlink:href="#DejaVuSans-2e" x="63.623047"/>
       <use xlink:href="#DejaVuSans-31" x="95.410156"/>
       <use xlink:href="#DejaVuSans-30" x="159.033203"/>
      </g>
     </g>
    </g>
    <g id="ytick_4">
     <g id="line2d_14">
      <path d="M 57.6 147.9168 
L 414.72 147.9168 
" clip-path="url(#pafd800b799)" style="fill: none; stroke: #b0b0b0; stroke-width: 0.8; stroke-linecap: square"/>
     </g>
     <g id="line2d_15">
      <g>
       <use xlink:href="#m4e0e7639f6" x="57.6" y="147.9168" style="stroke: #000000; stroke-width: 0.8"/>
      </g>
     </g>
     <g id="text_12">
      <!-- 0.15 -->
      <g transform="translate(28.334375 151.716019)scale(0.1 -0.1)">
       <use xlink:href="#DejaVuSans-30"/>
       <use xlink:href="#DejaVuSans-2e" x="63.623047"/>
       <use xlink:href="#DejaVuSans-31" x="95.410156"/>
       <use xlink:href="#DejaVuSans-35" x="159.033203"/>
      </g>
     </g>
    </g>
    <g id="ytick_5">
     <g id="line2d_16">
      <path d="M 57.6 94.6944 
L 414.72 94.6944 
" clip-path="url(#pafd800b799)" style="fill: none; stroke: #b0b0b0; stroke-width: 0.8; stroke-linecap: square"/>
     </g>
     <g id="line2d_17">
      <g>
       <use xlink:href="#m4e0e7639f6" x="57.6" y="94.6944" style="stroke: #000000; stroke-width: 0.8"/>
      </g>
     </g>
     <g id="text_13">
      <!-- 0.20 -->
      <g transform="translate(28.334375 98.493619)scale(0.1 -0.1)">
       <use xlink:href="#DejaVuSans-30"/>
       <use xlink:href="#DejaVuSans-2e" x="63.623047"/>
       <use xlink:href="#DejaVuSans-32" x="95.410156"/>
       <use xlink:href="#DejaVuSans-30" x="159.033203"/>
      </g>
     </g>
    </g>
    <g id="ytick_6">
     <g id="line2d_18">
      <path d="M 57.6 41.472 
L 414.72 41.472 
" clip-path="url(#pafd800b799)" style="fill: none; stroke: #b0b0b0; stroke-width: 0.8; stroke-linecap: square"/>
     </g>
     <g id="line2d_19">
      <g>
       <use xlink:href="#m4e0e7639f6" x="57.6" y="41.472" style="stroke: #000000; stroke-width: 0.8"/>
      </g>
     </g>
     <g id="text_14">
      <!-- 0.25 -->
      <g transform="translate(28.334375 45.271219)scale(0.1 -0.1)">
       <use xlink:href="#DejaVuSans-30"/>
       <use xlink:href="#DejaVuSans-2e" x="63.623047"/>
       <use xlink:href="#DejaVuSans-32" x="95.410156"/>
       <use xlink:href="#DejaVuSans-35" x="159.033203"/>
      </g>
     </g>
    </g>
    <g id="text_15">
     <!-- Probability -->
     <g transform="translate(22.254687 200.956906)rotate(-90)scale(0.1 -0.1)">
      <defs>
       <path id="DejaVuSans-50" d="M 1259 4147 
L 1259 2394 
L 2053 2394 
Q 2494 2394 2734 2622 
Q 2975 2850 2975 3272 
Q 2975 3691 2734 3919 
Q 2494 4147 2053 4147 
L 1259 4147 
z
M 628 4666 
L 2053 4666 
Q 2838 4666 3239 4311 
Q 3641 3956 3641 3272 
Q 3641 2581 3239 2228 
Q 2838 1875 2053 1875 
L 1259 1875 
L 1259 0 
L 628 0 
L 628 4666 
z
" transform="scale(0.015625)"/>
       <path id="DejaVuSans-72" d="M 2631 2963 
Q 2534 3019 2420 3045 
Q 2306 3072 2169 3072 
Q 1681 3072 1420 2755 
Q 1159 2438 1159 1844 
L 1159 0 
L 581 0 
L 581 3500 
L 1159 3500 
L 1159 2956 
Q 1341 3275 1631 3429 
Q 1922 3584 2338 3584 
Q 2397 3584 2469 3576 
Q 2541 3569 2628 3553 
L 2631 2963 
z
" transform="scale(0.015625)"/>
       <path id="DejaVuSans-6f" d="M 1959 3097 
Q 1497 3097 1228 2736 
Q 959 2375 959 1747 
Q 959 1119 1226 758 
Q 1494 397 1959 397 
Q 2419 397 2687 759 
Q 2956 1122 2956 1747 
Q 2956 2369 2687 2733 
Q 2419 3097 1959 3097 
z
M 1959 3584 
Q 2709 3584 3137 3096 
Q 3566 2609 3566 1747 
Q 3566 888 3137 398 
Q 2709 -91 1959 -91 
Q 1206 -91 779 398 
Q 353 888 353 1747 
Q 353 2609 779 3096 
Q 1206 3584 1959 3584 
z
" transform="scale(0.015625)"/>
       <path id="DejaVuSans-62" d="M 3116 1747 
Q 3116 2381 2855 2742 
Q 2594 3103 2138 3103 
Q 1681 3103 1420 2742 
Q 1159 2381 1159 1747 
Q 1159 1113 1420 752 
Q 1681 391 2138 391 
Q 2594 391 2855 752 
Q 3116 1113 3116 1747 
z
M 1159 2969 
Q 1341 3281 1617 3432 
Q 1894 3584 2278 3584 
Q 2916 3584 3314 3078 
Q 3713 2572 3713 1747 
Q 3713 922 3314 415 
Q 2916 -91 2278 -91 
Q 1894 -91 1617 61 
Q 1341 213 1159 525 
L 1159 0 
L 581 0 
L 581 4863 
L 1159 4863 
L 1159 2969 
z
" transform="scale(0.015625)"/>
       <path id="DejaVuSans-61" d="M 2194 1759 
Q 1497 1759 1228 1600 
Q 959 1441 959 1056 
Q 959 750 1161 570 
Q 1363 391 1709 391 
Q 2188 391 2477 730 
Q 2766 1069 2766 1631 
L 2766 1759 
L 2194 1759 
z
M 3341 1997 
L 3341 0 
L 2766 0 
L 2766 531 
Q 2569 213 2275 61 
Q 1981 -91 1556 -91 
Q 1019 -91 701 211 
Q 384 513 384 1019 
Q 384 1609 779 1909 
Q 1175 2209 1959 2209 
L 2766 2209 
L 2766 2266 
Q 2766 2663 2505 2880 
Q 2244 3097 1772 3097 
Q 1472 3097 1187 3025 
Q 903 2953 641 2809 
L 641 3341 
Q 956 3463 1253 3523 
Q 1550 3584 1831 3584 
Q 2591 3584 2966 3190 
Q 3341 2797 3341 1997 
z
" transform="scale(0.015625)"/>
       <path id="DejaVuSans-69" d="M 603 3500 
L 1178 3500 
L 1178 0 
L 603 0 
L 603 3500 
z
M 603 4863 
L 1178 4863 
L 1178 4134 
L 603 4134 
L 603 4863 
z
" transform="scale(0.015625)"/>
       <path id="DejaVuSans-6c" d="M 603 4863 
L 1178 4863 
L 1178 0 
L 603 0 
L 603 4863 
z
" transform="scale(0.015625)"/>
       <path id="DejaVuSans-74" d="M 1172 4494 
L 1172 3500 
L 2356 3500 
L 2356 3053 
L 1172 3053 
L 1172 1153 
Q 1172 725 1289 603 
Q 1406 481 1766 481 
L 2356 481 
L 2356 0 
L 1766 0 
Q 1100 0 847 248 
Q 594 497 594 1153 
L 594 3053 
L 172 3053 
L 172 3500 
L 594 3500 
L 594 4494 
L 1172 4494 
z
" transform="scale(0.015625)"/>
       <path id="DejaVuSans-79" d="M 2059 -325 
Q 1816 -950 1584 -1140 
Q 1353 -1331 966 -1331 
L 506 -1331 
L 506 -850 
L 844 -850 
Q 1081 -850 1212 -737 
Q 1344 -625 1503 -206 
L 1606 56 
L 191 3500 
L 800 3500 
L 1894 763 
L 2988 3500 
L 3597 3500 
L 2059 -325 
z
" transform="scale(0.015625)"/>
      </defs>
      <use xlink:href="#DejaVuSans-50"/>
      <use xlink:href="#DejaVuSans-72" x="58.552734"/>
      <use xlink:href="#DejaVuSans-6f" x="97.416016"/>
      <use xlink:href="#DejaVuSans-62" x="158.597656"/>
      <use xlink:href="#DejaVuSans-61" x="222.074219"/>
      <use xlink:href="#DejaVuSans-62" x="283.353516"/>
      <use xlink:href="#DejaVuSans-69" x="346.830078"/>
      <use xlink:href="#DejaVuSans-6c" x="374.613281"/>
      <use xlink:href="#DejaVuSans-69" x="402.396484"/>
      <use xlink:href="#DejaVuSans-74" x="430.179688"/>
      <use xlink:href="#DejaVuSans-79" x="469.388672"/>
     </g>
    </g>
   </g>
   <g id="line2d_20">
    <path d="M 188.209202 307.584 
L 188.209202 41.472 
" clip-path="url(#pafd800b799)" style="fill: none; stroke: #008000; stroke-width: 1.5; stroke-linecap: square"/>
   </g>
   <g id="line2d_21">
    <path d="M 188.201935 307.584 
L 188.201935 41.472 
" clip-path="url(#pafd800b799)" style="fill: none; stroke-dasharray: 9.6,2.4,1.5,2.4; stroke-dashoffset: 0; stroke: #008000; stroke-width: 1.5"/>
   </g>
   <g id="line2d_22">
    <path d="M 128.671672 307.584 
L 128.671672 41.472 
" clip-path="url(#pafd800b799)" style="fill: none; stroke: #ff0000; stroke-width: 1.5; stroke-linecap: square"/>
   </g>
   <g id="line2d_23">
    <path d="M 364.189846 307.584 
L 364.189846 41.472 
" clip-path="url(#pafd800b799)" style="fill: none; stroke: #ff0000; stroke-width: 1.5; stroke-linecap: square"/>
   </g>
   <g id="line2d_24">
    <path d="M 122.486688 307.584 
L 122.486688 41.472 
" clip-path="url(#pafd800b799)" style="fill: none; stroke: #0000ff; stroke-width: 1.5; stroke-linecap: square"/>
   </g>
   <g id="line2d_25">
    <path d="M 261.505308 307.584 
L 261.505308 41.472 
" clip-path="url(#pafd800b799)" style="fill: none; stroke: #0000ff; stroke-width: 1.5; stroke-linecap: square"/>
   </g>
   <g id="patch_23">
    <path d="M 57.6 307.584 
L 57.6 41.472 
" style="fill: none; stroke: #000000; stroke-width: 0.8; stroke-linejoin: miter; stroke-linecap: square"/>
   </g>
   <g id="patch_24">
    <path d="M 414.72 307.584 
L 414.72 41.472 
" style="fill: none; stroke: #000000; stroke-width: 0.8; stroke-linejoin: miter; stroke-linecap: square"/>
   </g>
   <g id="patch_25">
    <path d="M 57.6 307.584 
L 414.72 307.584 
" style="fill: none; stroke: #000000; stroke-width: 0.8; stroke-linejoin: miter; stroke-linecap: square"/>
   </g>
   <g id="patch_26">
    <path d="M 57.6 41.472 
L 414.72 41.472 
" style="fill: none; stroke: #000000; stroke-width: 0.8; stroke-linejoin: miter; stroke-linecap: square"/>
   </g>
   <g id="text_16">
    <!-- Parametric Bootstrap 95% CI for $S^2$ -->
    <g transform="translate(138.81 23.132063)scale(0.11 -0.11)">
     <defs>
      <path id="DejaVuSans-6d" d="M 3328 2828 
Q 3544 3216 3844 3400 
Q 4144 3584 4550 3584 
Q 5097 3584 5394 3201 
Q 5691 2819 5691 2113 
L 5691 0 
L 5113 0 
L 5113 2094 
Q 5113 2597 4934 2840 
Q 4756 3084 4391 3084 
Q 3944 3084 3684 2787 
Q 3425 2491 3425 1978 
L 3425 0 
L 2847 0 
L 2847 2094 
Q 2847 2600 2669 2842 
Q 2491 3084 2119 3084 
Q 1678 3084 1418 2786 
Q 1159 2488 1159 1978 
L 1159 0 
L 581 0 
L 581 3500 
L 1159 3500 
L 1159 2956 
Q 1356 3278 1631 3431 
Q 1906 3584 2284 3584 
Q 2666 3584 2933 3390 
Q 3200 3197 3328 2828 
z
" transform="scale(0.015625)"/>
      <path id="DejaVuSans-65" d="M 3597 1894 
L 3597 1613 
L 953 1613 
Q 991 1019 1311 708 
Q 1631 397 2203 397 
Q 2534 397 2845 478 
Q 3156 559 3463 722 
L 3463 178 
Q 3153 47 2828 -22 
Q 2503 -91 2169 -91 
Q 1331 -91 842 396 
Q 353 884 353 1716 
Q 353 2575 817 3079 
Q 1281 3584 2069 3584 
Q 2775 3584 3186 3129 
Q 3597 2675 3597 1894 
z
M 3022 2063 
Q 3016 2534 2758 2815 
Q 2500 3097 2075 3097 
Q 1594 3097 1305 2825 
Q 1016 2553 972 2059 
L 3022 2063 
z
" transform="scale(0.015625)"/>
      <path id="DejaVuSans-63" d="M 3122 3366 
L 3122 2828 
Q 2878 2963 2633 3030 
Q 2388 3097 2138 3097 
Q 1578 3097 1268 2742 
Q 959 2388 959 1747 
Q 959 1106 1268 751 
Q 1578 397 2138 397 
Q 2388 397 2633 464 
Q 2878 531 3122 666 
L 3122 134 
Q 2881 22 2623 -34 
Q 2366 -91 2075 -91 
Q 1284 -91 818 406 
Q 353 903 353 1747 
Q 353 2603 823 3093 
Q 1294 3584 2113 3584 
Q 2378 3584 2631 3529 
Q 2884 3475 3122 3366 
z
" transform="scale(0.015625)"/>
      <path id="DejaVuSans-42" d="M 1259 2228 
L 1259 519 
L 2272 519 
Q 2781 519 3026 730 
Q 3272 941 3272 1375 
Q 3272 1813 3026 2020 
Q 2781 2228 2272 2228 
L 1259 2228 
z
M 1259 4147 
L 1259 2741 
L 2194 2741 
Q 2656 2741 2882 2914 
Q 3109 3088 3109 3444 
Q 3109 3797 2882 3972 
Q 2656 4147 2194 4147 
L 1259 4147 
z
M 628 4666 
L 2241 4666 
Q 2963 4666 3353 4366 
Q 3744 4066 3744 3513 
Q 3744 3084 3544 2831 
Q 3344 2578 2956 2516 
Q 3422 2416 3680 2098 
Q 3938 1781 3938 1306 
Q 3938 681 3513 340 
Q 3088 0 2303 0 
L 628 0 
L 628 4666 
z
" transform="scale(0.015625)"/>
      <path id="DejaVuSans-73" d="M 2834 3397 
L 2834 2853 
Q 2591 2978 2328 3040 
Q 2066 3103 1784 3103 
Q 1356 3103 1142 2972 
Q 928 2841 928 2578 
Q 928 2378 1081 2264 
Q 1234 2150 1697 2047 
L 1894 2003 
Q 2506 1872 2764 1633 
Q 3022 1394 3022 966 
Q 3022 478 2636 193 
Q 2250 -91 1575 -91 
Q 1294 -91 989 -36 
Q 684 19 347 128 
L 347 722 
Q 666 556 975 473 
Q 1284 391 1588 391 
Q 1994 391 2212 530 
Q 2431 669 2431 922 
Q 2431 1156 2273 1281 
Q 2116 1406 1581 1522 
L 1381 1569 
Q 847 1681 609 1914 
Q 372 2147 372 2553 
Q 372 3047 722 3315 
Q 1072 3584 1716 3584 
Q 2034 3584 2315 3537 
Q 2597 3491 2834 3397 
z
" transform="scale(0.015625)"/>
      <path id="DejaVuSans-70" d="M 1159 525 
L 1159 -1331 
L 581 -1331 
L 581 3500 
L 1159 3500 
L 1159 2969 
Q 1341 3281 1617 3432 
Q 1894 3584 2278 3584 
Q 2916 3584 3314 3078 
Q 3713 2572 3713 1747 
Q 3713 922 3314 415 
Q 2916 -91 2278 -91 
Q 1894 -91 1617 61 
Q 1341 213 1159 525 
z
M 3116 1747 
Q 3116 2381 2855 2742 
Q 2594 3103 2138 3103 
Q 1681 3103 1420 2742 
Q 1159 2381 1159 1747 
Q 1159 1113 1420 752 
Q 1681 391 2138 391 
Q 2594 391 2855 752 
Q 3116 1113 3116 1747 
z
" transform="scale(0.015625)"/>
      <path id="DejaVuSans-39" d="M 703 97 
L 703 672 
Q 941 559 1184 500 
Q 1428 441 1663 441 
Q 2288 441 2617 861 
Q 2947 1281 2994 2138 
Q 2813 1869 2534 1725 
Q 2256 1581 1919 1581 
Q 1219 1581 811 2004 
Q 403 2428 403 3163 
Q 403 3881 828 4315 
Q 1253 4750 1959 4750 
Q 2769 4750 3195 4129 
Q 3622 3509 3622 2328 
Q 3622 1225 3098 567 
Q 2575 -91 1691 -91 
Q 1453 -91 1209 -44 
Q 966 3 703 97 
z
M 1959 2075 
Q 2384 2075 2632 2365 
Q 2881 2656 2881 3163 
Q 2881 3666 2632 3958 
Q 2384 4250 1959 4250 
Q 1534 4250 1286 3958 
Q 1038 3666 1038 3163 
Q 1038 2656 1286 2365 
Q 1534 2075 1959 2075 
z
" transform="scale(0.015625)"/>
      <path id="DejaVuSans-25" d="M 4653 2053 
Q 4381 2053 4226 1822 
Q 4072 1591 4072 1178 
Q 4072 772 4226 539 
Q 4381 306 4653 306 
Q 4919 306 5073 539 
Q 5228 772 5228 1178 
Q 5228 1588 5073 1820 
Q 4919 2053 4653 2053 
z
M 4653 2450 
Q 5147 2450 5437 2106 
Q 5728 1763 5728 1178 
Q 5728 594 5436 251 
Q 5144 -91 4653 -91 
Q 4153 -91 3862 251 
Q 3572 594 3572 1178 
Q 3572 1766 3864 2108 
Q 4156 2450 4653 2450 
z
M 1428 4353 
Q 1159 4353 1004 4120 
Q 850 3888 850 3481 
Q 850 3069 1003 2837 
Q 1156 2606 1428 2606 
Q 1700 2606 1854 2837 
Q 2009 3069 2009 3481 
Q 2009 3884 1853 4118 
Q 1697 4353 1428 4353 
z
M 4250 4750 
L 4750 4750 
L 1831 -91 
L 1331 -91 
L 4250 4750 
z
M 1428 4750 
Q 1922 4750 2215 4408 
Q 2509 4066 2509 3481 
Q 2509 2891 2217 2550 
Q 1925 2209 1428 2209 
Q 931 2209 642 2551 
Q 353 2894 353 3481 
Q 353 4063 643 4406 
Q 934 4750 1428 4750 
z
" transform="scale(0.015625)"/>
      <path id="DejaVuSans-43" d="M 4122 4306 
L 4122 3641 
Q 3803 3938 3442 4084 
Q 3081 4231 2675 4231 
Q 1875 4231 1450 3742 
Q 1025 3253 1025 2328 
Q 1025 1406 1450 917 
Q 1875 428 2675 428 
Q 3081 428 3442 575 
Q 3803 722 4122 1019 
L 4122 359 
Q 3791 134 3420 21 
Q 3050 -91 2638 -91 
Q 1578 -91 968 557 
Q 359 1206 359 2328 
Q 359 3453 968 4101 
Q 1578 4750 2638 4750 
Q 3056 4750 3426 4639 
Q 3797 4528 4122 4306 
z
" transform="scale(0.015625)"/>
      <path id="DejaVuSans-49" d="M 628 4666 
L 1259 4666 
L 1259 0 
L 628 0 
L 628 4666 
z
" transform="scale(0.015625)"/>
      <path id="DejaVuSans-66" d="M 2375 4863 
L 2375 4384 
L 1825 4384 
Q 1516 4384 1395 4259 
Q 1275 4134 1275 3809 
L 1275 3500 
L 2222 3500 
L 2222 3053 
L 1275 3053 
L 1275 0 
L 697 0 
L 697 3053 
L 147 3053 
L 147 3500 
L 697 3500 
L 697 3744 
Q 697 4328 969 4595 
Q 1241 4863 1831 4863 
L 2375 4863 
z
" transform="scale(0.015625)"/>
     </defs>
     <use xlink:href="#DejaVuSans-50" transform="translate(0 0.765625)"/>
     <use xlink:href="#DejaVuSans-61" transform="translate(60.302734 0.765625)"/>
     <use xlink:href="#DejaVuSans-72" transform="translate(121.582031 0.765625)"/>
     <use xlink:href="#DejaVuSans-61" transform="translate(162.695312 0.765625)"/>
     <use xlink:href="#DejaVuSans-6d" transform="translate(223.974609 0.765625)"/>
     <use xlink:href="#DejaVuSans-65" transform="translate(321.386719 0.765625)"/>
     <use xlink:href="#DejaVuSans-74" transform="translate(382.910156 0.765625)"/>
     <use xlink:href="#DejaVuSans-72" transform="translate(422.119141 0.765625)"/>
     <use xlink:href="#DejaVuSans-69" transform="translate(463.232422 0.765625)"/>
     <use xlink:href="#DejaVuSans-63" transform="translate(491.015625 0.765625)"/>
     <use xlink:href="#DejaVuSans-20" transform="translate(545.996094 0.765625)"/>
     <use xlink:href="#DejaVuSans-42" transform="translate(577.783203 0.765625)"/>
     <use xlink:href="#DejaVuSans-6f" transform="translate(646.386719 0.765625)"/>
     <use xlink:href="#DejaVuSans-6f" transform="translate(707.568359 0.765625)"/>
     <use xlink:href="#DejaVuSans-74" transform="translate(768.75 0.765625)"/>
     <use xlink:href="#DejaVuSans-73" transform="translate(807.958984 0.765625)"/>
     <use xlink:href="#DejaVuSans-74" transform="translate(860.058594 0.765625)"/>
     <use xlink:href="#DejaVuSans-72" transform="translate(899.267578 0.765625)"/>
     <use xlink:href="#DejaVuSans-61" transform="translate(940.380859 0.765625)"/>
     <use xlink:href="#DejaVuSans-70" transform="translate(1001.660156 0.765625)"/>
     <use xlink:href="#DejaVuSans-20" transform="translate(1065.136719 0.765625)"/>
     <use xlink:href="#DejaVuSans-39" transform="translate(1096.923828 0.765625)"/>
     <use xlink:href="#DejaVuSans-35" transform="translate(1160.546875 0.765625)"/>
     <use xlink:href="#DejaVuSans-25" transform="translate(1224.169922 0.765625)"/>
     <use xlink:href="#DejaVuSans-20" transform="translate(1319.189453 0.765625)"/>
     <use xlink:href="#DejaVuSans-43" transform="translate(1350.976562 0.765625)"/>
     <use xlink:href="#DejaVuSans-49" transform="translate(1420.800781 0.765625)"/>
     <use xlink:href="#DejaVuSans-20" transform="translate(1450.292969 0.765625)"/>
     <use xlink:href="#DejaVuSans-66" transform="translate(1482.080078 0.765625)"/>
     <use xlink:href="#DejaVuSans-6f" transform="translate(1517.285156 0.765625)"/>
     <use xlink:href="#DejaVuSans-72" transform="translate(1578.466797 0.765625)"/>
     <use xlink:href="#DejaVuSans-20" transform="translate(1619.580078 0.765625)"/>
     <use xlink:href="#DejaVuSans-Oblique-53" transform="translate(1651.367188 0.765625)"/>
     <use xlink:href="#DejaVuSans-32" transform="translate(1722.044271 39.046875)scale(0.7)"/>
    </g>
    <!-- Sample mean and variance used to generate bootstrap samples -->
    <g transform="translate(58.877813 35.472)scale(0.11 -0.11)">
     <defs>
      <path id="DejaVuSans-53" d="M 3425 4513 
L 3425 3897 
Q 3066 4069 2747 4153 
Q 2428 4238 2131 4238 
Q 1616 4238 1336 4038 
Q 1056 3838 1056 3469 
Q 1056 3159 1242 3001 
Q 1428 2844 1947 2747 
L 2328 2669 
Q 3034 2534 3370 2195 
Q 3706 1856 3706 1288 
Q 3706 609 3251 259 
Q 2797 -91 1919 -91 
Q 1588 -91 1214 -16 
Q 841 59 441 206 
L 441 856 
Q 825 641 1194 531 
Q 1563 422 1919 422 
Q 2459 422 2753 634 
Q 3047 847 3047 1241 
Q 3047 1584 2836 1778 
Q 2625 1972 2144 2069 
L 1759 2144 
Q 1053 2284 737 2584 
Q 422 2884 422 3419 
Q 422 4038 858 4394 
Q 1294 4750 2059 4750 
Q 2388 4750 2728 4690 
Q 3069 4631 3425 4513 
z
" transform="scale(0.015625)"/>
      <path id="DejaVuSans-6e" d="M 3513 2113 
L 3513 0 
L 2938 0 
L 2938 2094 
Q 2938 2591 2744 2837 
Q 2550 3084 2163 3084 
Q 1697 3084 1428 2787 
Q 1159 2491 1159 1978 
L 1159 0 
L 581 0 
L 581 3500 
L 1159 3500 
L 1159 2956 
Q 1366 3272 1645 3428 
Q 1925 3584 2291 3584 
Q 2894 3584 3203 3211 
Q 3513 2838 3513 2113 
z
" transform="scale(0.015625)"/>
      <path id="DejaVuSans-64" d="M 2906 2969 
L 2906 4863 
L 3481 4863 
L 3481 0 
L 2906 0 
L 2906 525 
Q 2725 213 2448 61 
Q 2172 -91 1784 -91 
Q 1150 -91 751 415 
Q 353 922 353 1747 
Q 353 2572 751 3078 
Q 1150 3584 1784 3584 
Q 2172 3584 2448 3432 
Q 2725 3281 2906 2969 
z
M 947 1747 
Q 947 1113 1208 752 
Q 1469 391 1925 391 
Q 2381 391 2643 752 
Q 2906 1113 2906 1747 
Q 2906 2381 2643 2742 
Q 2381 3103 1925 3103 
Q 1469 3103 1208 2742 
Q 947 2381 947 1747 
z
" transform="scale(0.015625)"/>
      <path id="DejaVuSans-76" d="M 191 3500 
L 800 3500 
L 1894 563 
L 2988 3500 
L 3597 3500 
L 2284 0 
L 1503 0 
L 191 3500 
z
" transform="scale(0.015625)"/>
      <path id="DejaVuSans-75" d="M 544 1381 
L 544 3500 
L 1119 3500 
L 1119 1403 
Q 1119 906 1312 657 
Q 1506 409 1894 409 
Q 2359 409 2629 706 
Q 2900 1003 2900 1516 
L 2900 3500 
L 3475 3500 
L 3475 0 
L 2900 0 
L 2900 538 
Q 2691 219 2414 64 
Q 2138 -91 1772 -91 
Q 1169 -91 856 284 
Q 544 659 544 1381 
z
M 1991 3584 
L 1991 3584 
z
" transform="scale(0.015625)"/>
      <path id="DejaVuSans-67" d="M 2906 1791 
Q 2906 2416 2648 2759 
Q 2391 3103 1925 3103 
Q 1463 3103 1205 2759 
Q 947 2416 947 1791 
Q 947 1169 1205 825 
Q 1463 481 1925 481 
Q 2391 481 2648 825 
Q 2906 1169 2906 1791 
z
M 3481 434 
Q 3481 -459 3084 -895 
Q 2688 -1331 1869 -1331 
Q 1566 -1331 1297 -1286 
Q 1028 -1241 775 -1147 
L 775 -588 
Q 1028 -725 1275 -790 
Q 1522 -856 1778 -856 
Q 2344 -856 2625 -561 
Q 2906 -266 2906 331 
L 2906 616 
Q 2728 306 2450 153 
Q 2172 0 1784 0 
Q 1141 0 747 490 
Q 353 981 353 1791 
Q 353 2603 747 3093 
Q 1141 3584 1784 3584 
Q 2172 3584 2450 3431 
Q 2728 3278 2906 2969 
L 2906 3500 
L 3481 3500 
L 3481 434 
z
" transform="scale(0.015625)"/>
     </defs>
     <use xlink:href="#DejaVuSans-53"/>
     <use xlink:href="#DejaVuSans-61" x="63.476562"/>
     <use xlink:href="#DejaVuSans-6d" x="124.755859"/>
     <use xlink:href="#DejaVuSans-70" x="222.167969"/>
     <use xlink:href="#DejaVuSans-6c" x="285.644531"/>
     <use xlink:href="#DejaVuSans-65" x="313.427734"/>
     <use xlink:href="#DejaVuSans-20" x="374.951172"/>
     <use xlink:href="#DejaVuSans-6d" x="406.738281"/>
     <use xlink:href="#DejaVuSans-65" x="504.150391"/>
     <use xlink:href="#DejaVuSans-61" x="565.673828"/>
     <use xlink:href="#DejaVuSans-6e" x="626.953125"/>
     <use xlink:href="#DejaVuSans-20" x="690.332031"/>
     <use xlink:href="#DejaVuSans-61" x="722.119141"/>
     <use xlink:href="#DejaVuSans-6e" x="783.398438"/>
     <use xlink:href="#DejaVuSans-64" x="846.777344"/>
     <use xlink:href="#DejaVuSans-20" x="910.253906"/>
     <use xlink:href="#DejaVuSans-76" x="942.041016"/>
     <use xlink:href="#DejaVuSans-61" x="1001.220703"/>
     <use xlink:href="#DejaVuSans-72" x="1062.5"/>
     <use xlink:href="#DejaVuSans-69" x="1103.613281"/>
     <use xlink:href="#DejaVuSans-61" x="1131.396484"/>
     <use xlink:href="#DejaVuSans-6e" x="1192.675781"/>
     <use xlink:href="#DejaVuSans-63" x="1256.054688"/>
     <use xlink:href="#DejaVuSans-65" x="1311.035156"/>
     <use xlink:href="#DejaVuSans-20" x="1372.558594"/>
     <use xlink:href="#DejaVuSans-75" x="1404.345703"/>
     <use xlink:href="#DejaVuSans-73" x="1467.724609"/>
     <use xlink:href="#DejaVuSans-65" x="1519.824219"/>
     <use xlink:href="#DejaVuSans-64" x="1581.347656"/>
     <use xlink:href="#DejaVuSans-20" x="1644.824219"/>
     <use xlink:href="#DejaVuSans-74" x="1676.611328"/>
     <use xlink:href="#DejaVuSans-6f" x="1715.820312"/>
     <use xlink:href="#DejaVuSans-20" x="1777.001953"/>
     <use xlink:href="#DejaVuSans-67" x="1808.789062"/>
     <use xlink:href="#DejaVuSans-65" x="1872.265625"/>
     <use xlink:href="#DejaVuSans-6e" x="1933.789062"/>
     <use xlink:href="#DejaVuSans-65" x="1997.167969"/>
     <use xlink:href="#DejaVuSans-72" x="2058.691406"/>
     <use xlink:href="#DejaVuSans-61" x="2099.804688"/>
     <use xlink:href="#DejaVuSans-74" x="2161.083984"/>
     <use xlink:href="#DejaVuSans-65" x="2200.292969"/>
     <use xlink:href="#DejaVuSans-20" x="2261.816406"/>
     <use xlink:href="#DejaVuSans-62" x="2293.603516"/>
     <use xlink:href="#DejaVuSans-6f" x="2357.080078"/>
     <use xlink:href="#DejaVuSans-6f" x="2418.261719"/>
     <use xlink:href="#DejaVuSans-74" x="2479.443359"/>
     <use xlink:href="#DejaVuSans-73" x="2518.652344"/>
     <use xlink:href="#DejaVuSans-74" x="2570.751953"/>
     <use xlink:href="#DejaVuSans-72" x="2609.960938"/>
     <use xlink:href="#DejaVuSans-61" x="2651.074219"/>
     <use xlink:href="#DejaVuSans-70" x="2712.353516"/>
     <use xlink:href="#DejaVuSans-20" x="2775.830078"/>
     <use xlink:href="#DejaVuSans-73" x="2807.617188"/>
     <use xlink:href="#DejaVuSans-61" x="2859.716797"/>
     <use xlink:href="#DejaVuSans-6d" x="2920.996094"/>
     <use xlink:href="#DejaVuSans-70" x="3018.408203"/>
     <use xlink:href="#DejaVuSans-6c" x="3081.884766"/>
     <use xlink:href="#DejaVuSans-65" x="3109.667969"/>
     <use xlink:href="#DejaVuSans-73" x="3171.191406"/>
    </g>
   </g>
   <g id="legend_1">
    <g id="patch_27">
     <path d="M 167.72 113.572 
L 407.72 113.572 
Q 409.72 113.572 409.72 111.572 
L 409.72 48.472 
Q 409.72 46.472 407.72 46.472 
L 167.72 46.472 
Q 165.72 46.472 165.72 48.472 
L 165.72 111.572 
Q 165.72 113.572 167.72 113.572 
z
" style="fill: #ffffff; opacity: 0.8; stroke: #cccccc; stroke-linejoin: miter"/>
    </g>
    <g id="line2d_26">
     <path d="M 169.72 56.072 
L 179.72 56.072 
L 189.72 56.072 
" style="fill: none; stroke: #008000; stroke-width: 1.5; stroke-linecap: square"/>
    </g>
    <g id="text_17">
     <!-- Sample $S^2$ = 129908 $[\mathtt{V}^2]$ -->
     <g transform="translate(197.72 59.572)scale(0.1 -0.1)">
      <defs>
       <path id="DejaVuSans-3d" d="M 678 2906 
L 4684 2906 
L 4684 2381 
L 678 2381 
L 678 2906 
z
M 678 1631 
L 4684 1631 
L 4684 1100 
L 678 1100 
L 678 1631 
z
" transform="scale(0.015625)"/>
       <path id="DejaVuSans-38" d="M 2034 2216 
Q 1584 2216 1326 1975 
Q 1069 1734 1069 1313 
Q 1069 891 1326 650 
Q 1584 409 2034 409 
Q 2484 409 2743 651 
Q 3003 894 3003 1313 
Q 3003 1734 2745 1975 
Q 2488 2216 2034 2216 
z
M 1403 2484 
Q 997 2584 770 2862 
Q 544 3141 544 3541 
Q 544 4100 942 4425 
Q 1341 4750 2034 4750 
Q 2731 4750 3128 4425 
Q 3525 4100 3525 3541 
Q 3525 3141 3298 2862 
Q 3072 2584 2669 2484 
Q 3125 2378 3379 2068 
Q 3634 1759 3634 1313 
Q 3634 634 3220 271 
Q 2806 -91 2034 -91 
Q 1263 -91 848 271 
Q 434 634 434 1313 
Q 434 1759 690 2068 
Q 947 2378 1403 2484 
z
M 1172 3481 
Q 1172 3119 1398 2916 
Q 1625 2713 2034 2713 
Q 2441 2713 2670 2916 
Q 2900 3119 2900 3481 
Q 2900 3844 2670 4047 
Q 2441 4250 2034 4250 
Q 1625 4250 1398 4047 
Q 1172 3844 1172 3481 
z
" transform="scale(0.015625)"/>
      </defs>
      <use xlink:href="#DejaVuSans-53" transform="translate(0 0.765625)"/>
      <use xlink:href="#DejaVuSans-61" transform="translate(63.476562 0.765625)"/>
      <use xlink:href="#DejaVuSans-6d" transform="translate(124.755859 0.765625)"/>
      <use xlink:href="#DejaVuSans-70" transform="translate(222.167969 0.765625)"/>
      <use xlink:href="#DejaVuSans-6c" transform="translate(285.644531 0.765625)"/>
      <use xlink:href="#DejaVuSans-65" transform="translate(313.427734 0.765625)"/>
      <use xlink:href="#DejaVuSans-20" transform="translate(374.951172 0.765625)"/>
      <use xlink:href="#DejaVuSans-Oblique-53" transform="translate(406.738281 0.765625)"/>
      <use xlink:href="#DejaVuSans-32" transform="translate(477.415365 39.046875)scale(0.7)"/>
      <use xlink:href="#DejaVuSans-20" transform="translate(524.685872 0.765625)"/>
      <use xlink:href="#DejaVuSans-3d" transform="translate(556.472982 0.765625)"/>
      <use xlink:href="#DejaVuSans-20" transform="translate(640.262044 0.765625)"/>
      <use xlink:href="#DejaVuSans-31" transform="translate(672.049154 0.765625)"/>
      <use xlink:href="#DejaVuSans-32" transform="translate(735.672201 0.765625)"/>
      <use xlink:href="#DejaVuSans-39" transform="translate(797.545247 0.765625)"/>
      <use xlink:href="#DejaVuSans-39" transform="translate(861.168294 0.765625)"/>
      <use xlink:href="#DejaVuSans-30" transform="translate(924.791341 0.765625)"/>
      <use xlink:href="#DejaVuSans-38" transform="translate(988.414388 0.765625)"/>
      <use xlink:href="#DejaVuSans-20" transform="translate(1052.037435 0.765625)"/>
      <use xlink:href="#DejaVuSans-5b" transform="translate(1083.824544 0.765625)"/>
      <use xlink:href="#DejaVuSansMono-56" transform="translate(1122.838216 0.765625)"/>
      <use xlink:href="#DejaVuSans-32" transform="translate(1184.000326 39.046875)scale(0.7)"/>
      <use xlink:href="#DejaVuSans-5d" transform="translate(1231.270833 0.765625)"/>
     </g>
    </g>
    <g id="line2d_27">
     <path d="M 169.72 72.272 
L 179.72 72.272 
L 189.72 72.272 
" style="fill: none; stroke-dasharray: 9.6,2.4,1.5,2.4; stroke-dashoffset: 0; stroke: #008000; stroke-width: 1.5"/>
    </g>
    <g id="text_18">
     <!-- Bootstrap $&lt;S^2&gt;$ = 129901 $[\mathtt{V}^2]$ -->
     <g transform="translate(197.72 75.772)scale(0.1 -0.1)">
      <defs>
       <path id="DejaVuSans-3c" d="M 4684 3150 
L 1459 2003 
L 4684 863 
L 4684 294 
L 678 1747 
L 678 2266 
L 4684 3719 
L 4684 3150 
z
" transform="scale(0.015625)"/>
       <path id="DejaVuSans-3e" d="M 678 3150 
L 678 3719 
L 4684 2266 
L 4684 1747 
L 678 294 
L 678 863 
L 3897 2003 
L 678 3150 
z
" transform="scale(0.015625)"/>
      </defs>
      <use xlink:href="#DejaVuSans-42" transform="translate(0 0.765625)"/>
      <use xlink:href="#DejaVuSans-6f" transform="translate(68.603516 0.765625)"/>
      <use xlink:href="#DejaVuSans-6f" transform="translate(129.785156 0.765625)"/>
      <use xlink:href="#DejaVuSans-74" transform="translate(190.966797 0.765625)"/>
      <use xlink:href="#DejaVuSans-73" transform="translate(230.175781 0.765625)"/>
      <use xlink:href="#DejaVuSans-74" transform="translate(282.275391 0.765625)"/>
      <use xlink:href="#DejaVuSans-72" transform="translate(321.484375 0.765625)"/>
      <use xlink:href="#DejaVuSans-61" transform="translate(362.597656 0.765625)"/>
      <use xlink:href="#DejaVuSans-70" transform="translate(423.876953 0.765625)"/>
      <use xlink:href="#DejaVuSans-20" transform="translate(487.353516 0.765625)"/>
      <use xlink:href="#DejaVuSans-3c" transform="translate(538.623047 0.765625)"/>
      <use xlink:href="#DejaVuSans-Oblique-53" transform="translate(641.894531 0.765625)"/>
      <use xlink:href="#DejaVuSans-32" transform="translate(712.571615 39.046875)scale(0.7)"/>
      <use xlink:href="#DejaVuSans-3e" transform="translate(779.324544 0.765625)"/>
      <use xlink:href="#DejaVuSans-20" transform="translate(882.596029 0.765625)"/>
      <use xlink:href="#DejaVuSans-3d" transform="translate(914.383138 0.765625)"/>
      <use xlink:href="#DejaVuSans-20" transform="translate(998.172201 0.765625)"/>
      <use xlink:href="#DejaVuSans-31" transform="translate(1029.95931 0.765625)"/>
      <use xlink:href="#DejaVuSans-32" transform="translate(1093.582357 0.765625)"/>
      <use xlink:href="#DejaVuSans-39" transform="translate(1155.455404 0.765625)"/>
      <use xlink:href="#DejaVuSans-39" transform="translate(1219.078451 0.765625)"/>
      <use xlink:href="#DejaVuSans-30" transform="translate(1282.701497 0.765625)"/>
      <use xlink:href="#DejaVuSans-31" transform="translate(1346.324544 0.765625)"/>
      <use xlink:href="#DejaVuSans-20" transform="translate(1409.947591 0.765625)"/>
      <use xlink:href="#DejaVuSans-5b" transform="translate(1441.734701 0.765625)"/>
      <use xlink:href="#DejaVuSansMono-56" transform="translate(1480.748372 0.765625)"/>
      <use xlink:href="#DejaVuSans-32" transform="translate(1541.910482 39.046875)scale(0.7)"/>
      <use xlink:href="#DejaVuSans-5d" transform="translate(1589.18099 0.765625)"/>
     </g>
    </g>
    <g id="line2d_28">
     <path d="M 169.72 87.792313 
L 179.72 87.792313 
L 189.72 87.792313 
" style="fill: none; stroke: #ff0000; stroke-width: 1.5; stroke-linecap: square"/>
    </g>
    <g id="text_19">
     <!-- Devore 95% CI = [72058, 300902] $[\mathtt{V}^2]$ -->
     <g transform="translate(197.72 91.292313)scale(0.1 -0.1)">
      <defs>
       <path id="DejaVuSans-44" d="M 1259 4147 
L 1259 519 
L 2022 519 
Q 2988 519 3436 956 
Q 3884 1394 3884 2338 
Q 3884 3275 3436 3711 
Q 2988 4147 2022 4147 
L 1259 4147 
z
M 628 4666 
L 1925 4666 
Q 3281 4666 3915 4102 
Q 4550 3538 4550 2338 
Q 4550 1131 3912 565 
Q 3275 0 1925 0 
L 628 0 
L 628 4666 
z
" transform="scale(0.015625)"/>
       <path id="DejaVuSans-37" d="M 525 4666 
L 3525 4666 
L 3525 4397 
L 1831 0 
L 1172 0 
L 2766 4134 
L 525 4134 
L 525 4666 
z
" transform="scale(0.015625)"/>
       <path id="DejaVuSans-2c" d="M 750 794 
L 1409 794 
L 1409 256 
L 897 -744 
L 494 -744 
L 750 256 
L 750 794 
z
" transform="scale(0.015625)"/>
      </defs>
      <use xlink:href="#DejaVuSans-44" transform="translate(0 0.765625)"/>
      <use xlink:href="#DejaVuSans-65" transform="translate(77.001953 0.765625)"/>
      <use xlink:href="#DejaVuSans-76" transform="translate(138.525391 0.765625)"/>
      <use xlink:href="#DejaVuSans-6f" transform="translate(197.705078 0.765625)"/>
      <use xlink:href="#DejaVuSans-72" transform="translate(258.886719 0.765625)"/>
      <use xlink:href="#DejaVuSans-65" transform="translate(300 0.765625)"/>
      <use xlink:href="#DejaVuSans-20" transform="translate(361.523438 0.765625)"/>
      <use xlink:href="#DejaVuSans-39" transform="translate(393.310547 0.765625)"/>
      <use xlink:href="#DejaVuSans-35" transform="translate(456.933594 0.765625)"/>
      <use xlink:href="#DejaVuSans-25" transform="translate(520.556641 0.765625)"/>
      <use xlink:href="#DejaVuSans-20" transform="translate(615.576172 0.765625)"/>
      <use xlink:href="#DejaVuSans-43" transform="translate(647.363281 0.765625)"/>
      <use xlink:href="#DejaVuSans-49" transform="translate(717.1875 0.765625)"/>
      <use xlink:href="#DejaVuSans-20" transform="translate(746.679688 0.765625)"/>
      <use xlink:href="#DejaVuSans-3d" transform="translate(778.466797 0.765625)"/>
      <use xlink:href="#DejaVuSans-20" transform="translate(862.255859 0.765625)"/>
      <use xlink:href="#DejaVuSans-5b" transform="translate(894.042969 0.765625)"/>
      <use xlink:href="#DejaVuSans-37" transform="translate(933.056641 0.765625)"/>
      <use xlink:href="#DejaVuSans-32" transform="translate(996.679688 0.765625)"/>
      <use xlink:href="#DejaVuSans-30" transform="translate(1060.302734 0.765625)"/>
      <use xlink:href="#DejaVuSans-35" transform="translate(1123.925781 0.765625)"/>
      <use xlink:href="#DejaVuSans-38" transform="translate(1187.548828 0.765625)"/>
      <use xlink:href="#DejaVuSans-2c" transform="translate(1251.171875 0.765625)"/>
      <use xlink:href="#DejaVuSans-20" transform="translate(1282.958984 0.765625)"/>
      <use xlink:href="#DejaVuSans-33" transform="translate(1314.746094 0.765625)"/>
      <use xlink:href="#DejaVuSans-30" transform="translate(1378.369141 0.765625)"/>
      <use xlink:href="#DejaVuSans-30" transform="translate(1441.992188 0.765625)"/>
      <use xlink:href="#DejaVuSans-39" transform="translate(1505.615234 0.765625)"/>
      <use xlink:href="#DejaVuSans-30" transform="translate(1569.238281 0.765625)"/>
      <use xlink:href="#DejaVuSans-32" transform="translate(1632.861328 0.765625)"/>
      <use xlink:href="#DejaVuSans-5d" transform="translate(1696.484375 0.765625)"/>
      <use xlink:href="#DejaVuSans-20" transform="translate(1735.498047 0.765625)"/>
      <use xlink:href="#DejaVuSans-5b" transform="translate(1767.285156 0.765625)"/>
      <use xlink:href="#DejaVuSansMono-56" transform="translate(1806.298828 0.765625)"/>
      <use xlink:href="#DejaVuSans-32" transform="translate(1867.460938 39.046875)scale(0.7)"/>
      <use xlink:href="#DejaVuSans-5d" transform="translate(1914.731445 0.765625)"/>
     </g>
    </g>
    <g id="line2d_29">
     <path d="M 169.72 103.972 
L 179.72 103.972 
L 189.72 103.972 
" style="fill: none; stroke: #0000ff; stroke-width: 1.5; stroke-linecap: square"/>
    </g>
    <g id="text_20">
     <!-- Bootstrap 95% CI = [66048, 201127] $[\mathtt{V}^2]$ -->
     <g transform="translate(197.72 107.472)scale(0.1 -0.1)">
      <defs>
       <path id="DejaVuSans-36" d="M 2113 2584 
Q 1688 2584 1439 2293 
Q 1191 2003 1191 1497 
Q 1191 994 1439 701 
Q 1688 409 2113 409 
Q 2538 409 2786 701 
Q 3034 994 3034 1497 
Q 3034 2003 2786 2293 
Q 2538 2584 2113 2584 
z
M 3366 4563 
L 3366 3988 
Q 3128 4100 2886 4159 
Q 2644 4219 2406 4219 
Q 1781 4219 1451 3797 
Q 1122 3375 1075 2522 
Q 1259 2794 1537 2939 
Q 1816 3084 2150 3084 
Q 2853 3084 3261 2657 
Q 3669 2231 3669 1497 
Q 3669 778 3244 343 
Q 2819 -91 2113 -91 
Q 1303 -91 875 529 
Q 447 1150 447 2328 
Q 447 3434 972 4092 
Q 1497 4750 2381 4750 
Q 2619 4750 2861 4703 
Q 3103 4656 3366 4563 
z
" transform="scale(0.015625)"/>
       <path id="DejaVuSans-34" d="M 2419 4116 
L 825 1625 
L 2419 1625 
L 2419 4116 
z
M 2253 4666 
L 3047 4666 
L 3047 1625 
L 3713 1625 
L 3713 1100 
L 3047 1100 
L 3047 0 
L 2419 0 
L 2419 1100 
L 313 1100 
L 313 1709 
L 2253 4666 
z
" transform="scale(0.015625)"/>
      </defs>
      <use xlink:href="#DejaVuSans-42" transform="translate(0 0.765625)"/>
      <use xlink:href="#DejaVuSans-6f" transform="translate(68.603516 0.765625)"/>
      <use xlink:href="#DejaVuSans-6f" transform="translate(129.785156 0.765625)"/>
      <use xlink:href="#DejaVuSans-74" transform="translate(190.966797 0.765625)"/>
      <use xlink:href="#DejaVuSans-73" transform="translate(230.175781 0.765625)"/>
      <use xlink:href="#DejaVuSans-74" transform="translate(282.275391 0.765625)"/>
      <use xlink:href="#DejaVuSans-72" transform="translate(321.484375 0.765625)"/>
      <use xlink:href="#DejaVuSans-61" transform="translate(362.597656 0.765625)"/>
      <use xlink:href="#DejaVuSans-70" transform="translate(423.876953 0.765625)"/>
      <use xlink:href="#DejaVuSans-20" transform="translate(487.353516 0.765625)"/>
      <use xlink:href="#DejaVuSans-39" transform="translate(519.140625 0.765625)"/>
      <use xlink:href="#DejaVuSans-35" transform="translate(582.763672 0.765625)"/>
      <use xlink:href="#DejaVuSans-25" transform="translate(646.386719 0.765625)"/>
      <use xlink:href="#DejaVuSans-20" transform="translate(741.40625 0.765625)"/>
      <use xlink:href="#DejaVuSans-43" transform="translate(773.193359 0.765625)"/>
      <use xlink:href="#DejaVuSans-49" transform="translate(843.017578 0.765625)"/>
      <use xlink:href="#DejaVuSans-20" transform="translate(872.509766 0.765625)"/>
      <use xlink:href="#DejaVuSans-3d" transform="translate(904.296875 0.765625)"/>
      <use xlink:href="#DejaVuSans-20" transform="translate(988.085938 0.765625)"/>
      <use xlink:href="#DejaVuSans-5b" transform="translate(1019.873047 0.765625)"/>
      <use xlink:href="#DejaVuSans-36" transform="translate(1058.886719 0.765625)"/>
      <use xlink:href="#DejaVuSans-36" transform="translate(1122.509766 0.765625)"/>
      <use xlink:href="#DejaVuSans-30" transform="translate(1186.132812 0.765625)"/>
      <use xlink:href="#DejaVuSans-34" transform="translate(1249.755859 0.765625)"/>
      <use xlink:href="#DejaVuSans-38" transform="translate(1313.378906 0.765625)"/>
      <use xlink:href="#DejaVuSans-2c" transform="translate(1377.001953 0.765625)"/>
      <use xlink:href="#DejaVuSans-20" transform="translate(1408.789062 0.765625)"/>
      <use xlink:href="#DejaVuSans-32" transform="translate(1440.576172 0.765625)"/>
      <use xlink:href="#DejaVuSans-30" transform="translate(1504.199219 0.765625)"/>
      <use xlink:href="#DejaVuSans-31" transform="translate(1567.822266 0.765625)"/>
      <use xlink:href="#DejaVuSans-31" transform="translate(1631.445312 0.765625)"/>
      <use xlink:href="#DejaVuSans-32" transform="translate(1695.068359 0.765625)"/>
      <use xlink:href="#DejaVuSans-37" transform="translate(1758.691406 0.765625)"/>
      <use xlink:href="#DejaVuSans-5d" transform="translate(1822.314453 0.765625)"/>
      <use xlink:href="#DejaVuSans-20" transform="translate(1861.328125 0.765625)"/>
      <use xlink:href="#DejaVuSans-5b" transform="translate(1893.115234 0.765625)"/>
      <use xlink:href="#DejaVuSansMono-56" transform="translate(1932.128906 0.765625)"/>
      <use xlink:href="#DejaVuSans-32" transform="translate(1993.291016 39.046875)scale(0.7)"/>
      <use xlink:href="#DejaVuSans-5d" transform="translate(2040.561523 0.765625)"/>
     </g>
    </g>
   </g>
  </g>
 </g>
 <defs>
  <clipPath id="pafd800b799">
   <rect x="57.6" y="41.472" width="357.12" height="266.112"/>
  </clipPath>
 </defs>
</svg>
