<?xml version="1.0" encoding="utf-8" standalone="no"?>
<!DOCTYPE svg PUBLIC "-//W3C//DTD SVG 1.1//EN"
  "http://www.w3.org/Graphics/SVG/1.1/DTD/svg11.dtd">
<svg xmlns:xlink="http://www.w3.org/1999/xlink" width="460.8pt" height="345.6pt" viewBox="0 0 460.8 345.6" xmlns="http://www.w3.org/2000/svg" version="1.1">
 <metadata>
  <rdf:RDF xmlns:dc="http://purl.org/dc/elements/1.1/" xmlns:cc="http://creativecommons.org/ns#" xmlns:rdf="http://www.w3.org/1999/02/22-rdf-syntax-ns#">
   <cc:Work>
    <dc:type rdf:resource="http://purl.org/dc/dcmitype/StillImage"/>
    <dc:date>2025-03-08T09:02:50.692464</dc:date>
    <dc:format>image/svg+xml</dc:format>
    <dc:creator>
     <cc:Agent>
      <dc:title>Matplotlib v3.8.4, https://matplotlib.org/</dc:title>
     </cc:Agent>
    </dc:creator>
   </cc:Work>
  </rdf:RDF>
 </metadata>
 <defs>
  <style type="text/css">*{stroke-linejoin: round; stroke-linecap: butt}</style>
 </defs>
 <g id="figure_1">
  <g id="patch_1">
   <path d="M 0 345.6 
L 460.8 345.6 
L 460.8 0 
L 0 0 
L 0 345.6 
z
" style="fill: none"/>
  </g>
  <g id="axes_1">
   <g id="patch_2">
    <path d="M 57.6 307.584 
L 414.72 307.584 
L 414.72 41.472 
L 57.6 41.472 
L 57.6 307.584 
z
" style="fill: none"/>
   </g>
   <g id="PolyCollection_1">
    <defs>
     <path id="m913a4dd9de" d="M 34.142421 -38.016 
L 34.142421 -38.099943 
L 34.546861 -38.102672 
L 34.9513 -38.105485 
L 35.35574 -38.108383 
L 35.760179 -38.111368 
L 36.164619 -38.114444 
L 36.569059 -38.117613 
L 36.973498 -38.120877 
L 37.377938 -38.124239 
L 37.782377 -38.127701 
L 38.186817 -38.131267 
L 38.591257 -38.134938 
L 38.995696 -38.138719 
L 39.400136 -38.142612 
L 39.804575 -38.146621 
L 40.209015 -38.150747 
L 40.613455 -38.154995 
L 41.017894 -38.159367 
L 41.422334 -38.163868 
L 41.826773 -38.1685 
L 42.231213 -38.173268 
L 42.635653 -38.178173 
L 43.040092 -38.183221 
L 43.444532 -38.188416 
L 43.848971 -38.19376 
L 44.253411 -38.199258 
L 44.657851 -38.204914 
L 45.06229 -38.210732 
L 45.46673 -38.216716 
L 45.871169 -38.222871 
L 46.275609 -38.229201 
L 46.680049 -38.235711 
L 47.084488 -38.242405 
L 47.488928 -38.249288 
L 47.893367 -38.256364 
L 48.297807 -38.26364 
L 48.702247 -38.271119 
L 49.106686 -38.278808 
L 49.511126 -38.28671 
L 49.915565 -38.294833 
L 50.320005 -38.303181 
L 50.724445 -38.31176 
L 51.128884 -38.320575 
L 51.533324 -38.329633 
L 51.937763 -38.33894 
L 52.342203 -38.348502 
L 52.746643 -38.358324 
L 53.151082 -38.368415 
L 53.555522 -38.378779 
L 53.959961 -38.389425 
L 54.364401 -38.400358 
L 54.768841 -38.411586 
L 55.17328 -38.423116 
L 55.57772 -38.434955 
L 55.982159 -38.44711 
L 56.386599 -38.45959 
L 56.791039 -38.472402 
L 57.195478 -38.485554 
L 57.599918 -38.499054 
L 58.004357 -38.51291 
L 58.408797 -38.52713 
L 58.813236 -38.541724 
L 59.217676 -38.5567 
L 59.622116 -38.572067 
L 60.026555 -38.587834 
L 60.430995 -38.60401 
L 60.835434 -38.620605 
L 61.239874 -38.637629 
L 61.644314 -38.655091 
L 62.048753 -38.673001 
L 62.453193 -38.69137 
L 62.857632 -38.710209 
L 63.262072 -38.729526 
L 63.666512 -38.749335 
L 64.070951 -38.769644 
L 64.475391 -38.790467 
L 64.87983 -38.811814 
L 65.28427 -38.833697 
L 65.68871 -38.856128 
L 66.093149 -38.879118 
L 66.497589 -38.902681 
L 66.902028 -38.926829 
L 67.306468 -38.951575 
L 67.710908 -38.976931 
L 68.115347 -39.002911 
L 68.519787 -39.029528 
L 68.924226 -39.056797 
L 69.328666 -39.084731 
L 69.733106 -39.113344 
L 70.137545 -39.142651 
L 70.541985 -39.172666 
L 70.946424 -39.203405 
L 71.350864 -39.234882 
L 71.755304 -39.267114 
L 72.159743 -39.300116 
L 72.564183 -39.333904 
L 72.968622 -39.368494 
L 73.373062 -39.403903 
L 73.777502 -39.440148 
L 74.181941 -39.477245 
L 74.586381 -39.515213 
L 74.99082 -39.554068 
L 75.39526 -39.59383 
L 75.7997 -39.634515 
L 76.204139 -39.676143 
L 76.608579 -39.718733 
L 77.013018 -39.762303 
L 77.417458 -39.806874 
L 77.821898 -39.852464 
L 78.226337 -39.899094 
L 78.630777 -39.946784 
L 79.035216 -39.995554 
L 79.439656 -40.045427 
L 79.844096 -40.096423 
L 80.248535 -40.148563 
L 80.652975 -40.20187 
L 81.057414 -40.256366 
L 81.461854 -40.312073 
L 81.866294 -40.369014 
L 82.270733 -40.427213 
L 82.675173 -40.486693 
L 83.079612 -40.547478 
L 83.484052 -40.609592 
L 83.888492 -40.67306 
L 84.292931 -40.737906 
L 84.697371 -40.804156 
L 85.10181 -40.871835 
L 85.50625 -40.94097 
L 85.91069 -41.011586 
L 86.315129 -41.08371 
L 86.719569 -41.15737 
L 87.124008 -41.232591 
L 87.528448 -41.309403 
L 87.932888 -41.387833 
L 88.337327 -41.467909 
L 88.741767 -41.54966 
L 89.146206 -41.633115 
L 89.550646 -41.718304 
L 89.955085 -41.805256 
L 90.359525 -41.894002 
L 90.763965 -41.984571 
L 91.168404 -42.076996 
L 91.572844 -42.171306 
L 91.977283 -42.267534 
L 92.381723 -42.365711 
L 92.786163 -42.46587 
L 93.190602 -42.568044 
L 93.190602 -38.016 
L 93.190602 -38.016 
L 92.786163 -38.016 
L 92.381723 -38.016 
L 91.977283 -38.016 
L 91.572844 -38.016 
L 91.168404 -38.016 
L 90.763965 -38.016 
L 90.359525 -38.016 
L 89.955085 -38.016 
L 89.550646 -38.016 
L 89.146206 -38.016 
L 88.741767 -38.016 
L 88.337327 -38.016 
L 87.932888 -38.016 
L 87.528448 -38.016 
L 87.124008 -38.016 
L 86.719569 -38.016 
L 86.315129 -38.016 
L 85.91069 -38.016 
L 85.50625 -38.016 
L 85.10181 -38.016 
L 84.697371 -38.016 
L 84.292931 -38.016 
L 83.888492 -38.016 
L 83.484052 -38.016 
L 83.079612 -38.016 
L 82.675173 -38.016 
L 82.270733 -38.016 
L 81.866294 -38.016 
L 81.461854 -38.016 
L 81.057414 -38.016 
L 80.652975 -38.016 
L 80.248535 -38.016 
L 79.844096 -38.016 
L 79.439656 -38.016 
L 79.035216 -38.016 
L 78.630777 -38.016 
L 78.226337 -38.016 
L 77.821898 -38.016 
L 77.417458 -38.016 
L 77.013018 -38.016 
L 76.608579 -38.016 
L 76.204139 -38.016 
L 75.7997 -38.016 
L 75.39526 -38.016 
L 74.99082 -38.016 
L 74.586381 -38.016 
L 74.181941 -38.016 
L 73.777502 -38.016 
L 73.373062 -38.016 
L 72.968622 -38.016 
L 72.564183 -38.016 
L 72.159743 -38.016 
L 71.755304 -38.016 
L 71.350864 -38.016 
L 70.946424 -38.016 
L 70.541985 -38.016 
L 70.137545 -38.016 
L 69.733106 -38.016 
L 69.328666 -38.016 
L 68.924226 -38.016 
L 68.519787 -38.016 
L 68.115347 -38.016 
L 67.710908 -38.016 
L 67.306468 -38.016 
L 66.902028 -38.016 
L 66.497589 -38.016 
L 66.093149 -38.016 
L 65.68871 -38.016 
L 65.28427 -38.016 
L 64.87983 -38.016 
L 64.475391 -38.016 
L 64.070951 -38.016 
L 63.666512 -38.016 
L 63.262072 -38.016 
L 62.857632 -38.016 
L 62.453193 -38.016 
L 62.048753 -38.016 
L 61.644314 -38.016 
L 61.239874 -38.016 
L 60.835434 -38.016 
L 60.430995 -38.016 
L 60.026555 -38.016 
L 59.622116 -38.016 
L 59.217676 -38.016 
L 58.813236 -38.016 
L 58.408797 -38.016 
L 58.004357 -38.016 
L 57.599918 -38.016 
L 57.195478 -38.016 
L 56.791039 -38.016 
L 56.386599 -38.016 
L 55.982159 -38.016 
L 55.57772 -38.016 
L 55.17328 -38.016 
L 54.768841 -38.016 
L 54.364401 -38.016 
L 53.959961 -38.016 
L 53.555522 -38.016 
L 53.151082 -38.016 
L 52.746643 -38.016 
L 52.342203 -38.016 
L 51.937763 -38.016 
L 51.533324 -38.016 
L 51.128884 -38.016 
L 50.724445 -38.016 
L 50.320005 -38.016 
L 49.915565 -38.016 
L 49.511126 -38.016 
L 49.106686 -38.016 
L 48.702247 -38.016 
L 48.297807 -38.016 
L 47.893367 -38.016 
L 47.488928 -38.016 
L 47.084488 -38.016 
L 46.680049 -38.016 
L 46.275609 -38.016 
L 45.871169 -38.016 
L 45.46673 -38.016 
L 45.06229 -38.016 
L 44.657851 -38.016 
L 44.253411 -38.016 
L 43.848971 -38.016 
L 43.444532 -38.016 
L 43.040092 -38.016 
L 42.635653 -38.016 
L 42.231213 -38.016 
L 41.826773 -38.016 
L 41.422334 -38.016 
L 41.017894 -38.016 
L 40.613455 -38.016 
L 40.209015 -38.016 
L 39.804575 -38.016 
L 39.400136 -38.016 
L 38.995696 -38.016 
L 38.591257 -38.016 
L 38.186817 -38.016 
L 37.782377 -38.016 
L 37.377938 -38.016 
L 36.973498 -38.016 
L 36.569059 -38.016 
L 36.164619 -38.016 
L 35.760179 -38.016 
L 35.35574 -38.016 
L 34.9513 -38.016 
L 34.546861 -38.016 
L 34.142421 -38.016 
z
" style="stroke: #ff0000"/>
    </defs>
    <g clip-path="url(#pcc03a76e76)">
     <use xlink:href="#m913a4dd9de" x="0" y="345.6" style="fill: #ff0000; stroke: #ff0000"/>
    </g>
   </g>
   <g id="PolyCollection_2">
    <defs>
     <path id="mf47c54e821" d="M 379.129398 -38.016 
L 379.129398 -42.568044 
L 379.533837 -42.46587 
L 379.938277 -42.365711 
L 380.342717 -42.267534 
L 380.747156 -42.171306 
L 381.151596 -42.076996 
L 381.556035 -41.984571 
L 381.960475 -41.894002 
L 382.364915 -41.805256 
L 382.769354 -41.718304 
L 383.173794 -41.633115 
L 383.578233 -41.54966 
L 383.982673 -41.467909 
L 384.387112 -41.387833 
L 384.791552 -41.309403 
L 385.195992 -41.232591 
L 385.600431 -41.15737 
L 386.004871 -41.08371 
L 386.40931 -41.011586 
L 386.81375 -40.94097 
L 387.21819 -40.871835 
L 387.622629 -40.804156 
L 388.027069 -40.737906 
L 388.431508 -40.67306 
L 388.835948 -40.609592 
L 389.240388 -40.547478 
L 389.644827 -40.486693 
L 390.049267 -40.427213 
L 390.453706 -40.369014 
L 390.858146 -40.312073 
L 391.262586 -40.256366 
L 391.667025 -40.20187 
L 392.071465 -40.148563 
L 392.475904 -40.096423 
L 392.880344 -40.045427 
L 393.284784 -39.995554 
L 393.689223 -39.946784 
L 394.093663 -39.899094 
L 394.498102 -39.852464 
L 394.902542 -39.806874 
L 395.306982 -39.762303 
L 395.711421 -39.718733 
L 396.115861 -39.676143 
L 396.5203 -39.634515 
L 396.92474 -39.59383 
L 397.32918 -39.554068 
L 397.733619 -39.515213 
L 398.138059 -39.477245 
L 398.542498 -39.440148 
L 398.946938 -39.403903 
L 399.351378 -39.368494 
L 399.755817 -39.333904 
L 400.160257 -39.300116 
L 400.564696 -39.267114 
L 400.969136 -39.234882 
L 401.373576 -39.203405 
L 401.778015 -39.172666 
L 402.182455 -39.142651 
L 402.586894 -39.113344 
L 402.991334 -39.084731 
L 403.395774 -39.056797 
L 403.800213 -39.029528 
L 404.204653 -39.002911 
L 404.609092 -38.976931 
L 405.013532 -38.951575 
L 405.417972 -38.926829 
L 405.822411 -38.902681 
L 406.226851 -38.879118 
L 406.63129 -38.856128 
L 407.03573 -38.833697 
L 407.44017 -38.811814 
L 407.844609 -38.790467 
L 408.249049 -38.769644 
L 408.653488 -38.749335 
L 409.057928 -38.729526 
L 409.462368 -38.710209 
L 409.866807 -38.69137 
L 410.271247 -38.673001 
L 410.675686 -38.655091 
L 411.080126 -38.637629 
L 411.484566 -38.620605 
L 411.889005 -38.60401 
L 412.293445 -38.587834 
L 412.697884 -38.572067 
L 413.102324 -38.5567 
L 413.506764 -38.541724 
L 413.911203 -38.52713 
L 414.315643 -38.51291 
L 414.720082 -38.499054 
L 415.124522 -38.485554 
L 415.528961 -38.472402 
L 415.933401 -38.45959 
L 416.337841 -38.44711 
L 416.74228 -38.434955 
L 417.14672 -38.423116 
L 417.551159 -38.411586 
L 417.955599 -38.400358 
L 418.360039 -38.389425 
L 418.764478 -38.378779 
L 419.168918 -38.368415 
L 419.573357 -38.358324 
L 419.977797 -38.348502 
L 420.382237 -38.33894 
L 420.786676 -38.329633 
L 421.191116 -38.320575 
L 421.595555 -38.31176 
L 421.999995 -38.303181 
L 422.404435 -38.294833 
L 422.808874 -38.28671 
L 423.213314 -38.278808 
L 423.617753 -38.271119 
L 424.022193 -38.26364 
L 424.426633 -38.256364 
L 424.831072 -38.249288 
L 425.235512 -38.242405 
L 425.639951 -38.235711 
L 426.044391 -38.229201 
L 426.448831 -38.222871 
L 426.85327 -38.216716 
L 427.25771 -38.210732 
L 427.662149 -38.204914 
L 428.066589 -38.199258 
L 428.471029 -38.19376 
L 428.875468 -38.188416 
L 429.279908 -38.183221 
L 429.684347 -38.178173 
L 430.088787 -38.173268 
L 430.493227 -38.1685 
L 430.897666 -38.163868 
L 431.302106 -38.159367 
L 431.706545 -38.154995 
L 432.110985 -38.150747 
L 432.515425 -38.146621 
L 432.919864 -38.142612 
L 433.324304 -38.138719 
L 433.728743 -38.134938 
L 434.133183 -38.131267 
L 434.537623 -38.127701 
L 434.942062 -38.124239 
L 435.346502 -38.120877 
L 435.750941 -38.117613 
L 436.155381 -38.114444 
L 436.559821 -38.111368 
L 436.96426 -38.108383 
L 437.3687 -38.105485 
L 437.773139 -38.102672 
L 438.177579 -38.099943 
L 438.177579 -38.016 
L 438.177579 -38.016 
L 437.773139 -38.016 
L 437.3687 -38.016 
L 436.96426 -38.016 
L 436.559821 -38.016 
L 436.155381 -38.016 
L 435.750941 -38.016 
L 435.346502 -38.016 
L 434.942062 -38.016 
L 434.537623 -38.016 
L 434.133183 -38.016 
L 433.728743 -38.016 
L 433.324304 -38.016 
L 432.919864 -38.016 
L 432.515425 -38.016 
L 432.110985 -38.016 
L 431.706545 -38.016 
L 431.302106 -38.016 
L 430.897666 -38.016 
L 430.493227 -38.016 
L 430.088787 -38.016 
L 429.684347 -38.016 
L 429.279908 -38.016 
L 428.875468 -38.016 
L 428.471029 -38.016 
L 428.066589 -38.016 
L 427.662149 -38.016 
L 427.25771 -38.016 
L 426.85327 -38.016 
L 426.448831 -38.016 
L 426.044391 -38.016 
L 425.639951 -38.016 
L 425.235512 -38.016 
L 424.831072 -38.016 
L 424.426633 -38.016 
L 424.022193 -38.016 
L 423.617753 -38.016 
L 423.213314 -38.016 
L 422.808874 -38.016 
L 422.404435 -38.016 
L 421.999995 -38.016 
L 421.595555 -38.016 
L 421.191116 -38.016 
L 420.786676 -38.016 
L 420.382237 -38.016 
L 419.977797 -38.016 
L 419.573357 -38.016 
L 419.168918 -38.016 
L 418.764478 -38.016 
L 418.360039 -38.016 
L 417.955599 -38.016 
L 417.551159 -38.016 
L 417.14672 -38.016 
L 416.74228 -38.016 
L 416.337841 -38.016 
L 415.933401 -38.016 
L 415.528961 -38.016 
L 415.124522 -38.016 
L 414.720082 -38.016 
L 414.315643 -38.016 
L 413.911203 -38.016 
L 413.506764 -38.016 
L 413.102324 -38.016 
L 412.697884 -38.016 
L 412.293445 -38.016 
L 411.889005 -38.016 
L 411.484566 -38.016 
L 411.080126 -38.016 
L 410.675686 -38.016 
L 410.271247 -38.016 
L 409.866807 -38.016 
L 409.462368 -38.016 
L 409.057928 -38.016 
L 408.653488 -38.016 
L 408.249049 -38.016 
L 407.844609 -38.016 
L 407.44017 -38.016 
L 407.03573 -38.016 
L 406.63129 -38.016 
L 406.226851 -38.016 
L 405.822411 -38.016 
L 405.417972 -38.016 
L 405.013532 -38.016 
L 404.609092 -38.016 
L 404.204653 -38.016 
L 403.800213 -38.016 
L 403.395774 -38.016 
L 402.991334 -38.016 
L 402.586894 -38.016 
L 402.182455 -38.016 
L 401.778015 -38.016 
L 401.373576 -38.016 
L 400.969136 -38.016 
L 400.564696 -38.016 
L 400.160257 -38.016 
L 399.755817 -38.016 
L 399.351378 -38.016 
L 398.946938 -38.016 
L 398.542498 -38.016 
L 398.138059 -38.016 
L 397.733619 -38.016 
L 397.32918 -38.016 
L 396.92474 -38.016 
L 396.5203 -38.016 
L 396.115861 -38.016 
L 395.711421 -38.016 
L 395.306982 -38.016 
L 394.902542 -38.016 
L 394.498102 -38.016 
L 394.093663 -38.016 
L 393.689223 -38.016 
L 393.284784 -38.016 
L 392.880344 -38.016 
L 392.475904 -38.016 
L 392.071465 -38.016 
L 391.667025 -38.016 
L 391.262586 -38.016 
L 390.858146 -38.016 
L 390.453706 -38.016 
L 390.049267 -38.016 
L 389.644827 -38.016 
L 389.240388 -38.016 
L 388.835948 -38.016 
L 388.431508 -38.016 
L 388.027069 -38.016 
L 387.622629 -38.016 
L 387.21819 -38.016 
L 386.81375 -38.016 
L 386.40931 -38.016 
L 386.004871 -38.016 
L 385.600431 -38.016 
L 385.195992 -38.016 
L 384.791552 -38.016 
L 384.387112 -38.016 
L 383.982673 -38.016 
L 383.578233 -38.016 
L 383.173794 -38.016 
L 382.769354 -38.016 
L 382.364915 -38.016 
L 381.960475 -38.016 
L 381.556035 -38.016 
L 381.151596 -38.016 
L 380.747156 -38.016 
L 380.342717 -38.016 
L 379.938277 -38.016 
L 379.533837 -38.016 
L 379.129398 -38.016 
z
" style="stroke: #ff0000"/>
    </defs>
    <g clip-path="url(#pcc03a76e76)">
     <use xlink:href="#mf47c54e821" x="0" y="345.6" style="fill: #ff0000; stroke: #ff0000"/>
    </g>
   </g>
   <g id="PolyCollection_3">
    <defs>
     <path id="mc077239900" d="M 93.595042 -38.016 
L 93.595042 -42.672265 
L 93.999481 -42.778567 
L 94.403921 -42.886983 
L 94.808361 -42.997548 
L 95.2128 -43.110295 
L 95.61724 -43.225261 
L 96.021679 -43.342479 
L 96.426119 -43.461986 
L 96.830559 -43.583817 
L 97.234998 -43.708008 
L 97.639438 -43.834596 
L 98.043877 -43.963619 
L 98.448317 -44.095112 
L 98.852757 -44.229114 
L 99.257196 -44.365663 
L 99.661636 -44.504796 
L 100.066075 -44.646553 
L 100.470515 -44.790972 
L 100.874955 -44.938093 
L 101.279394 -45.087956 
L 101.683834 -45.240599 
L 102.088273 -45.396064 
L 102.492713 -45.554391 
L 102.897153 -45.71562 
L 103.301592 -45.879794 
L 103.706032 -46.046953 
L 104.110471 -46.21714 
L 104.514911 -46.390396 
L 104.919351 -46.566764 
L 105.32379 -46.746286 
L 105.72823 -46.929006 
L 106.132669 -47.114966 
L 106.537109 -47.304211 
L 106.941549 -47.496784 
L 107.345988 -47.692729 
L 107.750428 -47.89209 
L 108.154867 -48.094912 
L 108.559307 -48.301239 
L 108.963747 -48.511118 
L 109.368186 -48.724592 
L 109.772626 -48.941708 
L 110.177065 -49.162511 
L 110.581505 -49.387047 
L 110.985945 -49.615363 
L 111.390384 -49.847504 
L 111.794824 -50.083517 
L 112.199263 -50.323448 
L 112.603703 -50.567345 
L 113.008143 -50.815255 
L 113.412582 -51.067224 
L 113.817022 -51.3233 
L 114.221461 -51.58353 
L 114.625901 -51.847963 
L 115.030341 -52.116645 
L 115.43478 -52.389624 
L 115.83922 -52.666948 
L 116.243659 -52.948665 
L 116.648099 -53.234824 
L 117.052539 -53.525471 
L 117.456978 -53.820656 
L 117.861418 -54.120426 
L 118.265857 -54.424829 
L 118.670297 -54.733914 
L 119.074737 -55.047729 
L 119.479176 -55.366322 
L 119.883616 -55.689742 
L 120.288055 -56.018035 
L 120.692495 -56.35125 
L 121.096935 -56.689436 
L 121.501374 -57.03264 
L 121.905814 -57.38091 
L 122.310253 -57.734294 
L 122.714693 -58.092839 
L 123.119132 -58.456592 
L 123.523572 -58.825602 
L 123.928012 -59.199915 
L 124.332451 -59.579577 
L 124.736891 -59.964637 
L 125.14133 -60.35514 
L 125.54577 -60.751133 
L 125.95021 -61.152661 
L 126.354649 -61.559771 
L 126.759089 -61.972508 
L 127.163528 -62.390918 
L 127.567968 -62.815044 
L 127.972408 -63.244933 
L 128.376847 -63.680628 
L 128.781287 -64.122173 
L 129.185726 -64.569612 
L 129.590166 -65.022987 
L 129.994606 -65.482342 
L 130.399045 -65.947719 
L 130.803485 -66.419159 
L 131.207924 -66.896704 
L 131.612364 -67.380396 
L 132.016804 -67.870273 
L 132.421243 -68.366377 
L 132.825683 -68.868746 
L 133.230122 -69.377419 
L 133.634562 -69.892434 
L 134.039002 -70.413829 
L 134.443441 -70.941641 
L 134.847881 -71.475907 
L 135.25232 -72.016661 
L 135.65676 -72.563938 
L 136.0612 -73.117774 
L 136.465639 -73.678201 
L 136.870079 -74.245252 
L 137.274518 -74.81896 
L 137.678958 -75.399355 
L 138.083398 -75.986468 
L 138.487837 -76.580329 
L 138.892277 -77.180966 
L 139.296716 -77.788407 
L 139.701156 -78.40268 
L 140.105596 -79.02381 
L 140.510035 -79.651822 
L 140.914475 -80.286742 
L 141.318914 -80.928592 
L 141.723354 -81.577394 
L 142.127794 -82.233169 
L 142.532233 -82.895939 
L 142.936673 -83.565722 
L 143.341112 -84.242535 
L 143.745552 -84.926398 
L 144.149992 -85.617324 
L 144.554431 -86.315329 
L 144.958871 -87.020427 
L 145.36331 -87.73263 
L 145.76775 -88.45195 
L 146.17219 -89.178395 
L 146.576629 -89.911976 
L 146.981069 -90.652699 
L 147.385508 -91.400572 
L 147.789948 -92.155598 
L 148.194388 -92.917782 
L 148.598827 -93.687126 
L 149.003267 -94.46363 
L 149.407706 -95.247296 
L 149.812146 -96.038119 
L 150.216586 -96.836099 
L 150.621025 -97.641229 
L 151.025465 -98.453504 
L 151.429904 -99.272916 
L 151.834344 -100.099456 
L 152.238784 -100.933114 
L 152.643223 -101.773878 
L 153.047663 -102.621733 
L 153.452102 -103.476666 
L 153.856542 -104.338658 
L 154.260982 -105.207692 
L 154.665421 -106.083748 
L 155.069861 -106.966805 
L 155.4743 -107.856838 
L 155.87874 -108.753824 
L 156.283179 -109.657736 
L 156.687619 -110.568545 
L 157.092059 -111.486222 
L 157.496498 -112.410736 
L 157.900938 -113.342052 
L 158.305377 -114.280136 
L 158.709817 -115.224952 
L 159.114257 -116.17646 
L 159.518696 -117.13462 
L 159.923136 -118.099391 
L 160.327575 -119.070727 
L 160.732015 -120.048585 
L 161.136455 -121.032916 
L 161.540894 -122.02367 
L 161.945334 -123.020797 
L 162.349773 -124.024244 
L 162.754213 -125.033956 
L 163.158653 -126.049875 
L 163.563092 -127.071944 
L 163.967532 -128.100103 
L 164.371971 -129.134287 
L 164.776411 -130.174435 
L 165.180851 -131.220479 
L 165.58529 -132.272351 
L 165.98973 -133.329982 
L 166.394169 -134.3933 
L 166.798609 -135.46223 
L 167.203049 -136.536699 
L 167.607488 -137.616627 
L 168.011928 -138.701935 
L 168.416367 -139.792543 
L 168.820807 -140.888367 
L 169.225247 -141.989322 
L 169.629686 -143.09532 
L 170.034126 -144.206274 
L 170.438565 -145.322091 
L 170.843005 -146.44268 
L 171.247445 -147.567945 
L 171.651884 -148.697791 
L 172.056324 -149.832118 
L 172.460763 -150.970826 
L 172.865203 -152.113814 
L 173.269643 -153.260977 
L 173.674082 -154.412209 
L 174.078522 -155.567402 
L 174.482961 -156.726448 
L 174.887401 -157.889234 
L 175.291841 -159.055648 
L 175.69628 -160.225574 
L 176.10072 -161.398895 
L 176.505159 -162.575494 
L 176.909599 -163.755249 
L 177.314039 -164.938038 
L 177.718478 -166.123738 
L 178.122918 -167.312222 
L 178.527357 -168.503365 
L 178.931797 -169.697036 
L 179.336237 -170.893105 
L 179.740676 -172.09144 
L 180.145116 -173.291907 
L 180.549555 -174.494369 
L 180.953995 -175.698691 
L 181.358435 -176.904733 
L 181.762874 -178.112355 
L 182.167314 -179.321416 
L 182.571753 -180.531771 
L 182.976193 -181.743276 
L 183.380633 -182.955785 
L 183.785072 -184.16915 
L 184.189512 -185.383222 
L 184.593951 -186.597851 
L 184.998391 -187.812884 
L 185.402831 -189.028169 
L 185.80727 -190.243551 
L 186.21171 -191.458874 
L 186.616149 -192.673982 
L 187.020589 -193.888716 
L 187.425028 -195.102917 
L 187.829468 -196.316424 
L 188.233908 -197.529076 
L 188.638347 -198.74071 
L 189.042787 -199.951163 
L 189.447226 -201.160269 
L 189.851666 -202.367863 
L 190.256106 -203.573779 
L 190.660545 -204.777848 
L 191.064985 -205.979903 
L 191.469424 -207.179774 
L 191.873864 -208.377291 
L 192.278304 -209.572284 
L 192.682743 -210.76458 
L 193.087183 -211.954008 
L 193.491622 -213.140395 
L 193.896062 -214.323567 
L 194.300502 -215.50335 
L 194.704941 -216.679571 
L 195.109381 -217.852053 
L 195.51382 -219.020622 
L 195.91826 -220.185102 
L 196.3227 -221.345316 
L 196.727139 -222.501089 
L 197.131579 -223.652243 
L 197.536018 -224.798601 
L 197.940458 -225.939987 
L 198.344898 -227.076224 
L 198.749337 -228.207133 
L 199.153777 -229.332538 
L 199.558216 -230.452262 
L 199.962656 -231.566126 
L 200.367096 -232.673954 
L 200.771535 -233.775569 
L 201.175975 -234.870794 
L 201.580414 -235.959452 
L 201.984854 -237.041367 
L 202.389294 -238.116364 
L 202.793733 -239.184265 
L 203.198173 -240.244897 
L 203.602612 -241.298085 
L 204.007052 -242.343654 
L 204.411492 -243.38143 
L 204.815931 -244.411241 
L 205.220371 -245.432914 
L 205.62481 -246.446279 
L 206.02925 -247.451162 
L 206.43369 -248.447396 
L 206.838129 -249.43481 
L 207.242569 -250.413236 
L 207.647008 -251.382508 
L 208.051448 -252.342457 
L 208.455888 -253.29292 
L 208.860327 -254.233731 
L 209.264767 -255.164729 
L 209.669206 -256.08575 
L 210.073646 -256.996634 
L 210.478086 -257.897222 
L 210.882525 -258.787356 
L 211.286965 -259.666879 
L 211.691404 -260.535635 
L 212.095844 -261.393471 
L 212.500284 -262.240235 
L 212.904723 -263.075776 
L 213.309163 -263.899943 
L 213.713602 -264.712591 
L 214.118042 -265.513573 
L 214.522482 -266.302746 
L 214.926921 -267.079965 
L 215.331361 -267.845092 
L 215.7358 -268.597987 
L 216.14024 -269.338514 
L 216.54468 -270.066538 
L 216.949119 -270.781925 
L 217.353559 -271.484546 
L 217.757998 -272.174271 
L 218.162438 -272.850974 
L 218.566878 -273.514529 
L 218.971317 -274.164815 
L 219.375757 -274.801712 
L 219.780196 -275.425102 
L 220.184636 -276.034868 
L 220.589075 -276.630898 
L 220.993515 -277.213081 
L 221.397955 -277.781308 
L 221.802394 -278.335473 
L 222.206834 -278.875473 
L 222.611273 -279.401206 
L 223.015713 -279.912573 
L 223.420153 -280.40948 
L 223.824592 -280.891831 
L 224.229032 -281.359536 
L 224.633471 -281.812507 
L 225.037911 -282.250659 
L 225.442351 -282.673908 
L 225.84679 -283.082175 
L 226.25123 -283.475381 
L 226.655669 -283.853453 
L 227.060109 -284.216318 
L 227.464549 -284.563907 
L 227.868988 -284.896155 
L 228.273428 -285.212998 
L 228.677867 -285.514375 
L 229.082307 -285.800229 
L 229.486747 -286.070506 
L 229.891186 -286.325153 
L 230.295626 -286.564122 
L 230.700065 -286.787368 
L 231.104505 -286.994846 
L 231.508945 -287.186519 
L 231.913384 -287.362348 
L 232.317824 -287.522301 
L 232.722263 -287.666346 
L 233.126703 -287.794456 
L 233.531143 -287.906606 
L 233.935582 -288.002775 
L 234.340022 -288.082943 
L 234.744461 -288.147097 
L 235.148901 -288.195223 
L 235.553341 -288.227312 
L 235.95778 -288.243358 
L 236.36222 -288.243358 
L 236.766659 -288.227312 
L 237.171099 -288.195223 
L 237.575539 -288.147097 
L 237.979978 -288.082943 
L 238.384418 -288.002775 
L 238.788857 -287.906606 
L 239.193297 -287.794456 
L 239.597737 -287.666346 
L 240.002176 -287.522301 
L 240.406616 -287.362348 
L 240.811055 -287.186519 
L 241.215495 -286.994846 
L 241.619935 -286.787368 
L 242.024374 -286.564122 
L 242.428814 -286.325153 
L 242.833253 -286.070506 
L 243.237693 -285.800229 
L 243.642133 -285.514375 
L 244.046572 -285.212998 
L 244.451012 -284.896155 
L 244.855451 -284.563907 
L 245.259891 -284.216318 
L 245.664331 -283.853453 
L 246.06877 -283.475381 
L 246.47321 -283.082175 
L 246.877649 -282.673908 
L 247.282089 -282.250659 
L 247.686529 -281.812507 
L 248.090968 -281.359536 
L 248.495408 -280.891831 
L 248.899847 -280.40948 
L 249.304287 -279.912573 
L 249.708727 -279.401206 
L 250.113166 -278.875473 
L 250.517606 -278.335473 
L 250.922045 -277.781308 
L 251.326485 -277.213081 
L 251.730925 -276.630898 
L 252.135364 -276.034868 
L 252.539804 -275.425102 
L 252.944243 -274.801712 
L 253.348683 -274.164815 
L 253.753122 -273.514529 
L 254.157562 -272.850974 
L 254.562002 -272.174271 
L 254.966441 -271.484546 
L 255.370881 -270.781925 
L 255.77532 -270.066538 
L 256.17976 -269.338514 
L 256.5842 -268.597987 
L 256.988639 -267.845092 
L 257.393079 -267.079965 
L 257.797518 -266.302746 
L 258.201958 -265.513573 
L 258.606398 -264.712591 
L 259.010837 -263.899943 
L 259.415277 -263.075776 
L 259.819716 -262.240235 
L 260.224156 -261.393471 
L 260.628596 -260.535635 
L 261.033035 -259.666879 
L 261.437475 -258.787356 
L 261.841914 -257.897222 
L 262.246354 -256.996634 
L 262.650794 -256.08575 
L 263.055233 -255.164729 
L 263.459673 -254.233731 
L 263.864112 -253.29292 
L 264.268552 -252.342457 
L 264.672992 -251.382508 
L 265.077431 -250.413236 
L 265.481871 -249.43481 
L 265.88631 -248.447396 
L 266.29075 -247.451162 
L 266.69519 -246.446279 
L 267.099629 -245.432914 
L 267.504069 -244.411241 
L 267.908508 -243.38143 
L 268.312948 -242.343654 
L 268.717388 -241.298085 
L 269.121827 -240.244897 
L 269.526267 -239.184265 
L 269.930706 -238.116364 
L 270.335146 -237.041367 
L 270.739586 -235.959452 
L 271.144025 -234.870794 
L 271.548465 -233.775569 
L 271.952904 -232.673954 
L 272.357344 -231.566126 
L 272.761784 -230.452262 
L 273.166223 -229.332538 
L 273.570663 -228.207133 
L 273.975102 -227.076224 
L 274.379542 -225.939987 
L 274.783982 -224.798601 
L 275.188421 -223.652243 
L 275.592861 -222.501089 
L 275.9973 -221.345316 
L 276.40174 -220.185102 
L 276.80618 -219.020622 
L 277.210619 -217.852053 
L 277.615059 -216.679571 
L 278.019498 -215.50335 
L 278.423938 -214.323567 
L 278.828378 -213.140395 
L 279.232817 -211.954008 
L 279.637257 -210.76458 
L 280.041696 -209.572284 
L 280.446136 -208.377291 
L 280.850576 -207.179774 
L 281.255015 -205.979903 
L 281.659455 -204.777848 
L 282.063894 -203.573779 
L 282.468334 -202.367863 
L 282.872774 -201.160269 
L 283.277213 -199.951163 
L 283.681653 -198.74071 
L 284.086092 -197.529076 
L 284.490532 -196.316424 
L 284.894972 -195.102917 
L 285.299411 -193.888716 
L 285.703851 -192.673982 
L 286.10829 -191.458874 
L 286.51273 -190.243551 
L 286.917169 -189.028169 
L 287.321609 -187.812884 
L 287.726049 -186.597851 
L 288.130488 -185.383222 
L 288.534928 -184.16915 
L 288.939367 -182.955785 
L 289.343807 -181.743276 
L 289.748247 -180.531771 
L 290.152686 -179.321416 
L 290.557126 -178.112355 
L 290.961565 -176.904733 
L 291.366005 -175.698691 
L 291.770445 -174.494369 
L 292.174884 -173.291907 
L 292.579324 -172.09144 
L 292.983763 -170.893105 
L 293.388203 -169.697036 
L 293.792643 -168.503365 
L 294.197082 -167.312222 
L 294.601522 -166.123738 
L 295.005961 -164.938038 
L 295.410401 -163.755249 
L 295.814841 -162.575494 
L 296.21928 -161.398895 
L 296.62372 -160.225574 
L 297.028159 -159.055648 
L 297.432599 -157.889234 
L 297.837039 -156.726448 
L 298.241478 -155.567402 
L 298.645918 -154.412209 
L 299.050357 -153.260977 
L 299.454797 -152.113814 
L 299.859237 -150.970826 
L 300.263676 -149.832118 
L 300.668116 -148.697791 
L 301.072555 -147.567945 
L 301.476995 -146.44268 
L 301.881435 -145.322091 
L 302.285874 -144.206274 
L 302.690314 -143.09532 
L 303.094753 -141.989322 
L 303.499193 -140.888367 
L 303.903633 -139.792543 
L 304.308072 -138.701935 
L 304.712512 -137.616627 
L 305.116951 -136.536699 
L 305.521391 -135.46223 
L 305.925831 -134.3933 
L 306.33027 -133.329982 
L 306.73471 -132.272351 
L 307.139149 -131.220479 
L 307.543589 -130.174435 
L 307.948029 -129.134287 
L 308.352468 -128.100103 
L 308.756908 -127.071944 
L 309.161347 -126.049875 
L 309.565787 -125.033956 
L 309.970227 -124.024244 
L 310.374666 -123.020797 
L 310.779106 -122.02367 
L 311.183545 -121.032916 
L 311.587985 -120.048585 
L 311.992425 -119.070727 
L 312.396864 -118.099391 
L 312.801304 -117.13462 
L 313.205743 -116.17646 
L 313.610183 -115.224952 
L 314.014623 -114.280136 
L 314.419062 -113.342052 
L 314.823502 -112.410736 
L 315.227941 -111.486222 
L 315.632381 -110.568545 
L 316.036821 -109.657736 
L 316.44126 -108.753824 
L 316.8457 -107.856838 
L 317.250139 -106.966805 
L 317.654579 -106.083748 
L 318.059018 -105.207692 
L 318.463458 -104.338658 
L 318.867898 -103.476666 
L 319.272337 -102.621733 
L 319.676777 -101.773878 
L 320.081216 -100.933114 
L 320.485656 -100.099456 
L 320.890096 -99.272916 
L 321.294535 -98.453504 
L 321.698975 -97.641229 
L 322.103414 -96.836099 
L 322.507854 -96.038119 
L 322.912294 -95.247296 
L 323.316733 -94.46363 
L 323.721173 -93.687126 
L 324.125612 -92.917782 
L 324.530052 -92.155598 
L 324.934492 -91.400572 
L 325.338931 -90.652699 
L 325.743371 -89.911976 
L 326.14781 -89.178395 
L 326.55225 -88.45195 
L 326.95669 -87.73263 
L 327.361129 -87.020427 
L 327.765569 -86.315329 
L 328.170008 -85.617324 
L 328.574448 -84.926398 
L 328.978888 -84.242535 
L 329.383327 -83.565722 
L 329.787767 -82.895939 
L 330.192206 -82.233169 
L 330.596646 -81.577394 
L 331.001086 -80.928592 
L 331.405525 -80.286742 
L 331.809965 -79.651822 
L 332.214404 -79.02381 
L 332.618844 -78.40268 
L 333.023284 -77.788407 
L 333.427723 -77.180966 
L 333.832163 -76.580329 
L 334.236602 -75.986468 
L 334.641042 -75.399355 
L 335.045482 -74.81896 
L 335.449921 -74.245252 
L 335.854361 -73.678201 
L 336.2588 -73.117774 
L 336.66324 -72.563938 
L 337.06768 -72.016661 
L 337.472119 -71.475907 
L 337.876559 -70.941641 
L 338.280998 -70.413829 
L 338.685438 -69.892434 
L 339.089878 -69.377419 
L 339.494317 -68.868746 
L 339.898757 -68.366377 
L 340.303196 -67.870273 
L 340.707636 -67.380396 
L 341.112076 -66.896704 
L 341.516515 -66.419159 
L 341.920955 -65.947719 
L 342.325394 -65.482342 
L 342.729834 -65.022987 
L 343.134274 -64.569612 
L 343.538713 -64.122173 
L 343.943153 -63.680628 
L 344.347592 -63.244933 
L 344.752032 -62.815044 
L 345.156472 -62.390918 
L 345.560911 -61.972508 
L 345.965351 -61.559771 
L 346.36979 -61.152661 
L 346.77423 -60.751133 
L 347.17867 -60.35514 
L 347.583109 -59.964637 
L 347.987549 -59.579577 
L 348.391988 -59.199915 
L 348.796428 -58.825602 
L 349.200868 -58.456592 
L 349.605307 -58.092839 
L 350.009747 -57.734294 
L 350.414186 -57.38091 
L 350.818626 -57.03264 
L 351.223065 -56.689436 
L 351.627505 -56.35125 
L 352.031945 -56.018035 
L 352.436384 -55.689742 
L 352.840824 -55.366322 
L 353.245263 -55.047729 
L 353.649703 -54.733914 
L 354.054143 -54.424829 
L 354.458582 -54.120426 
L 354.863022 -53.820656 
L 355.267461 -53.525471 
L 355.671901 -53.234824 
L 356.076341 -52.948665 
L 356.48078 -52.666948 
L 356.88522 -52.389624 
L 357.289659 -52.116645 
L 357.694099 -51.847963 
L 358.098539 -51.58353 
L 358.502978 -51.3233 
L 358.907418 -51.067224 
L 359.311857 -50.815255 
L 359.716297 -50.567345 
L 360.120737 -50.323448 
L 360.525176 -50.083517 
L 360.929616 -49.847504 
L 361.334055 -49.615363 
L 361.738495 -49.387047 
L 362.142935 -49.162511 
L 362.547374 -48.941708 
L 362.951814 -48.724592 
L 363.356253 -48.511118 
L 363.760693 -48.301239 
L 364.165133 -48.094912 
L 364.569572 -47.89209 
L 364.974012 -47.692729 
L 365.378451 -47.496784 
L 365.782891 -47.304211 
L 366.187331 -47.114966 
L 366.59177 -46.929006 
L 366.99621 -46.746286 
L 367.400649 -46.566764 
L 367.805089 -46.390396 
L 368.209529 -46.21714 
L 368.613968 -46.046953 
L 369.018408 -45.879794 
L 369.422847 -45.71562 
L 369.827287 -45.554391 
L 370.231727 -45.396064 
L 370.636166 -45.240599 
L 371.040606 -45.087956 
L 371.445045 -44.938093 
L 371.849485 -44.790972 
L 372.253925 -44.646553 
L 372.658364 -44.504796 
L 373.062804 -44.365663 
L 373.467243 -44.229114 
L 373.871683 -44.095112 
L 374.276123 -43.963619 
L 374.680562 -43.834596 
L 375.085002 -43.708008 
L 375.489441 -43.583817 
L 375.893881 -43.461986 
L 376.298321 -43.342479 
L 376.70276 -43.225261 
L 377.1072 -43.110295 
L 377.511639 -42.997548 
L 377.916079 -42.886983 
L 378.320519 -42.778567 
L 378.724958 -42.672265 
L 378.724958 -38.016 
L 378.724958 -38.016 
L 378.320519 -38.016 
L 377.916079 -38.016 
L 377.511639 -38.016 
L 377.1072 -38.016 
L 376.70276 -38.016 
L 376.298321 -38.016 
L 375.893881 -38.016 
L 375.489441 -38.016 
L 375.085002 -38.016 
L 374.680562 -38.016 
L 374.276123 -38.016 
L 373.871683 -38.016 
L 373.467243 -38.016 
L 373.062804 -38.016 
L 372.658364 -38.016 
L 372.253925 -38.016 
L 371.849485 -38.016 
L 371.445045 -38.016 
L 371.040606 -38.016 
L 370.636166 -38.016 
L 370.231727 -38.016 
L 369.827287 -38.016 
L 369.422847 -38.016 
L 369.018408 -38.016 
L 368.613968 -38.016 
L 368.209529 -38.016 
L 367.805089 -38.016 
L 367.400649 -38.016 
L 366.99621 -38.016 
L 366.59177 -38.016 
L 366.187331 -38.016 
L 365.782891 -38.016 
L 365.378451 -38.016 
L 364.974012 -38.016 
L 364.569572 -38.016 
L 364.165133 -38.016 
L 363.760693 -38.016 
L 363.356253 -38.016 
L 362.951814 -38.016 
L 362.547374 -38.016 
L 362.142935 -38.016 
L 361.738495 -38.016 
L 361.334055 -38.016 
L 360.929616 -38.016 
L 360.525176 -38.016 
L 360.120737 -38.016 
L 359.716297 -38.016 
L 359.311857 -38.016 
L 358.907418 -38.016 
L 358.502978 -38.016 
L 358.098539 -38.016 
L 357.694099 -38.016 
L 357.289659 -38.016 
L 356.88522 -38.016 
L 356.48078 -38.016 
L 356.076341 -38.016 
L 355.671901 -38.016 
L 355.267461 -38.016 
L 354.863022 -38.016 
L 354.458582 -38.016 
L 354.054143 -38.016 
L 353.649703 -38.016 
L 353.245263 -38.016 
L 352.840824 -38.016 
L 352.436384 -38.016 
L 352.031945 -38.016 
L 351.627505 -38.016 
L 351.223065 -38.016 
L 350.818626 -38.016 
L 350.414186 -38.016 
L 350.009747 -38.016 
L 349.605307 -38.016 
L 349.200868 -38.016 
L 348.796428 -38.016 
L 348.391988 -38.016 
L 347.987549 -38.016 
L 347.583109 -38.016 
L 347.17867 -38.016 
L 346.77423 -38.016 
L 346.36979 -38.016 
L 345.965351 -38.016 
L 345.560911 -38.016 
L 345.156472 -38.016 
L 344.752032 -38.016 
L 344.347592 -38.016 
L 343.943153 -38.016 
L 343.538713 -38.016 
L 343.134274 -38.016 
L 342.729834 -38.016 
L 342.325394 -38.016 
L 341.920955 -38.016 
L 341.516515 -38.016 
L 341.112076 -38.016 
L 340.707636 -38.016 
L 340.303196 -38.016 
L 339.898757 -38.016 
L 339.494317 -38.016 
L 339.089878 -38.016 
L 338.685438 -38.016 
L 338.280998 -38.016 
L 337.876559 -38.016 
L 337.472119 -38.016 
L 337.06768 -38.016 
L 336.66324 -38.016 
L 336.2588 -38.016 
L 335.854361 -38.016 
L 335.449921 -38.016 
L 335.045482 -38.016 
L 334.641042 -38.016 
L 334.236602 -38.016 
L 333.832163 -38.016 
L 333.427723 -38.016 
L 333.023284 -38.016 
L 332.618844 -38.016 
L 332.214404 -38.016 
L 331.809965 -38.016 
L 331.405525 -38.016 
L 331.001086 -38.016 
L 330.596646 -38.016 
L 330.192206 -38.016 
L 329.787767 -38.016 
L 329.383327 -38.016 
L 328.978888 -38.016 
L 328.574448 -38.016 
L 328.170008 -38.016 
L 327.765569 -38.016 
L 327.361129 -38.016 
L 326.95669 -38.016 
L 326.55225 -38.016 
L 326.14781 -38.016 
L 325.743371 -38.016 
L 325.338931 -38.016 
L 324.934492 -38.016 
L 324.530052 -38.016 
L 324.125612 -38.016 
L 323.721173 -38.016 
L 323.316733 -38.016 
L 322.912294 -38.016 
L 322.507854 -38.016 
L 322.103414 -38.016 
L 321.698975 -38.016 
L 321.294535 -38.016 
L 320.890096 -38.016 
L 320.485656 -38.016 
L 320.081216 -38.016 
L 319.676777 -38.016 
L 319.272337 -38.016 
L 318.867898 -38.016 
L 318.463458 -38.016 
L 318.059018 -38.016 
L 317.654579 -38.016 
L 317.250139 -38.016 
L 316.8457 -38.016 
L 316.44126 -38.016 
L 316.036821 -38.016 
L 315.632381 -38.016 
L 315.227941 -38.016 
L 314.823502 -38.016 
L 314.419062 -38.016 
L 314.014623 -38.016 
L 313.610183 -38.016 
L 313.205743 -38.016 
L 312.801304 -38.016 
L 312.396864 -38.016 
L 311.992425 -38.016 
L 311.587985 -38.016 
L 311.183545 -38.016 
L 310.779106 -38.016 
L 310.374666 -38.016 
L 309.970227 -38.016 
L 309.565787 -38.016 
L 309.161347 -38.016 
L 308.756908 -38.016 
L 308.352468 -38.016 
L 307.948029 -38.016 
L 307.543589 -38.016 
L 307.139149 -38.016 
L 306.73471 -38.016 
L 306.33027 -38.016 
L 305.925831 -38.016 
L 305.521391 -38.016 
L 305.116951 -38.016 
L 304.712512 -38.016 
L 304.308072 -38.016 
L 303.903633 -38.016 
L 303.499193 -38.016 
L 303.094753 -38.016 
L 302.690314 -38.016 
L 302.285874 -38.016 
L 301.881435 -38.016 
L 301.476995 -38.016 
L 301.072555 -38.016 
L 300.668116 -38.016 
L 300.263676 -38.016 
L 299.859237 -38.016 
L 299.454797 -38.016 
L 299.050357 -38.016 
L 298.645918 -38.016 
L 298.241478 -38.016 
L 297.837039 -38.016 
L 297.432599 -38.016 
L 297.028159 -38.016 
L 296.62372 -38.016 
L 296.21928 -38.016 
L 295.814841 -38.016 
L 295.410401 -38.016 
L 295.005961 -38.016 
L 294.601522 -38.016 
L 294.197082 -38.016 
L 293.792643 -38.016 
L 293.388203 -38.016 
L 292.983763 -38.016 
L 292.579324 -38.016 
L 292.174884 -38.016 
L 291.770445 -38.016 
L 291.366005 -38.016 
L 290.961565 -38.016 
L 290.557126 -38.016 
L 290.152686 -38.016 
L 289.748247 -38.016 
L 289.343807 -38.016 
L 288.939367 -38.016 
L 288.534928 -38.016 
L 288.130488 -38.016 
L 287.726049 -38.016 
L 287.321609 -38.016 
L 286.917169 -38.016 
L 286.51273 -38.016 
L 286.10829 -38.016 
L 285.703851 -38.016 
L 285.299411 -38.016 
L 284.894972 -38.016 
L 284.490532 -38.016 
L 284.086092 -38.016 
L 283.681653 -38.016 
L 283.277213 -38.016 
L 282.872774 -38.016 
L 282.468334 -38.016 
L 282.063894 -38.016 
L 281.659455 -38.016 
L 281.255015 -38.016 
L 280.850576 -38.016 
L 280.446136 -38.016 
L 280.041696 -38.016 
L 279.637257 -38.016 
L 279.232817 -38.016 
L 278.828378 -38.016 
L 278.423938 -38.016 
L 278.019498 -38.016 
L 277.615059 -38.016 
L 277.210619 -38.016 
L 276.80618 -38.016 
L 276.40174 -38.016 
L 275.9973 -38.016 
L 275.592861 -38.016 
L 275.188421 -38.016 
L 274.783982 -38.016 
L 274.379542 -38.016 
L 273.975102 -38.016 
L 273.570663 -38.016 
L 273.166223 -38.016 
L 272.761784 -38.016 
L 272.357344 -38.016 
L 271.952904 -38.016 
L 271.548465 -38.016 
L 271.144025 -38.016 
L 270.739586 -38.016 
L 270.335146 -38.016 
L 269.930706 -38.016 
L 269.526267 -38.016 
L 269.121827 -38.016 
L 268.717388 -38.016 
L 268.312948 -38.016 
L 267.908508 -38.016 
L 267.504069 -38.016 
L 267.099629 -38.016 
L 266.69519 -38.016 
L 266.29075 -38.016 
L 265.88631 -38.016 
L 265.481871 -38.016 
L 265.077431 -38.016 
L 264.672992 -38.016 
L 264.268552 -38.016 
L 263.864112 -38.016 
L 263.459673 -38.016 
L 263.055233 -38.016 
L 262.650794 -38.016 
L 262.246354 -38.016 
L 261.841914 -38.016 
L 261.437475 -38.016 
L 261.033035 -38.016 
L 260.628596 -38.016 
L 260.224156 -38.016 
L 259.819716 -38.016 
L 259.415277 -38.016 
L 259.010837 -38.016 
L 258.606398 -38.016 
L 258.201958 -38.016 
L 257.797518 -38.016 
L 257.393079 -38.016 
L 256.988639 -38.016 
L 256.5842 -38.016 
L 256.17976 -38.016 
L 255.77532 -38.016 
L 255.370881 -38.016 
L 254.966441 -38.016 
L 254.562002 -38.016 
L 254.157562 -38.016 
L 253.753122 -38.016 
L 253.348683 -38.016 
L 252.944243 -38.016 
L 252.539804 -38.016 
L 252.135364 -38.016 
L 251.730925 -38.016 
L 251.326485 -38.016 
L 250.922045 -38.016 
L 250.517606 -38.016 
L 250.113166 -38.016 
L 249.708727 -38.016 
L 249.304287 -38.016 
L 248.899847 -38.016 
L 248.495408 -38.016 
L 248.090968 -38.016 
L 247.686529 -38.016 
L 247.282089 -38.016 
L 246.877649 -38.016 
L 246.47321 -38.016 
L 246.06877 -38.016 
L 245.664331 -38.016 
L 245.259891 -38.016 
L 244.855451 -38.016 
L 244.451012 -38.016 
L 244.046572 -38.016 
L 243.642133 -38.016 
L 243.237693 -38.016 
L 242.833253 -38.016 
L 242.428814 -38.016 
L 242.024374 -38.016 
L 241.619935 -38.016 
L 241.215495 -38.016 
L 240.811055 -38.016 
L 240.406616 -38.016 
L 240.002176 -38.016 
L 239.597737 -38.016 
L 239.193297 -38.016 
L 238.788857 -38.016 
L 238.384418 -38.016 
L 237.979978 -38.016 
L 237.575539 -38.016 
L 237.171099 -38.016 
L 236.766659 -38.016 
L 236.36222 -38.016 
L 235.95778 -38.016 
L 235.553341 -38.016 
L 235.148901 -38.016 
L 234.744461 -38.016 
L 234.340022 -38.016 
L 233.935582 -38.016 
L 233.531143 -38.016 
L 233.126703 -38.016 
L 232.722263 -38.016 
L 232.317824 -38.016 
L 231.913384 -38.016 
L 231.508945 -38.016 
L 231.104505 -38.016 
L 230.700065 -38.016 
L 230.295626 -38.016 
L 229.891186 -38.016 
L 229.486747 -38.016 
L 229.082307 -38.016 
L 228.677867 -38.016 
L 228.273428 -38.016 
L 227.868988 -38.016 
L 227.464549 -38.016 
L 227.060109 -38.016 
L 226.655669 -38.016 
L 226.25123 -38.016 
L 225.84679 -38.016 
L 225.442351 -38.016 
L 225.037911 -38.016 
L 224.633471 -38.016 
L 224.229032 -38.016 
L 223.824592 -38.016 
L 223.420153 -38.016 
L 223.015713 -38.016 
L 222.611273 -38.016 
L 222.206834 -38.016 
L 221.802394 -38.016 
L 221.397955 -38.016 
L 220.993515 -38.016 
L 220.589075 -38.016 
L 220.184636 -38.016 
L 219.780196 -38.016 
L 219.375757 -38.016 
L 218.971317 -38.016 
L 218.566878 -38.016 
L 218.162438 -38.016 
L 217.757998 -38.016 
L 217.353559 -38.016 
L 216.949119 -38.016 
L 216.54468 -38.016 
L 216.14024 -38.016 
L 215.7358 -38.016 
L 215.331361 -38.016 
L 214.926921 -38.016 
L 214.522482 -38.016 
L 214.118042 -38.016 
L 213.713602 -38.016 
L 213.309163 -38.016 
L 212.904723 -38.016 
L 212.500284 -38.016 
L 212.095844 -38.016 
L 211.691404 -38.016 
L 211.286965 -38.016 
L 210.882525 -38.016 
L 210.478086 -38.016 
L 210.073646 -38.016 
L 209.669206 -38.016 
L 209.264767 -38.016 
L 208.860327 -38.016 
L 208.455888 -38.016 
L 208.051448 -38.016 
L 207.647008 -38.016 
L 207.242569 -38.016 
L 206.838129 -38.016 
L 206.43369 -38.016 
L 206.02925 -38.016 
L 205.62481 -38.016 
L 205.220371 -38.016 
L 204.815931 -38.016 
L 204.411492 -38.016 
L 204.007052 -38.016 
L 203.602612 -38.016 
L 203.198173 -38.016 
L 202.793733 -38.016 
L 202.389294 -38.016 
L 201.984854 -38.016 
L 201.580414 -38.016 
L 201.175975 -38.016 
L 200.771535 -38.016 
L 200.367096 -38.016 
L 199.962656 -38.016 
L 199.558216 -38.016 
L 199.153777 -38.016 
L 198.749337 -38.016 
L 198.344898 -38.016 
L 197.940458 -38.016 
L 197.536018 -38.016 
L 197.131579 -38.016 
L 196.727139 -38.016 
L 196.3227 -38.016 
L 195.91826 -38.016 
L 195.51382 -38.016 
L 195.109381 -38.016 
L 194.704941 -38.016 
L 194.300502 -38.016 
L 193.896062 -38.016 
L 193.491622 -38.016 
L 193.087183 -38.016 
L 192.682743 -38.016 
L 192.278304 -38.016 
L 191.873864 -38.016 
L 191.469424 -38.016 
L 191.064985 -38.016 
L 190.660545 -38.016 
L 190.256106 -38.016 
L 189.851666 -38.016 
L 189.447226 -38.016 
L 189.042787 -38.016 
L 188.638347 -38.016 
L 188.233908 -38.016 
L 187.829468 -38.016 
L 187.425028 -38.016 
L 187.020589 -38.016 
L 186.616149 -38.016 
L 186.21171 -38.016 
L 185.80727 -38.016 
L 185.402831 -38.016 
L 184.998391 -38.016 
L 184.593951 -38.016 
L 184.189512 -38.016 
L 183.785072 -38.016 
L 183.380633 -38.016 
L 182.976193 -38.016 
L 182.571753 -38.016 
L 182.167314 -38.016 
L 181.762874 -38.016 
L 181.358435 -38.016 
L 180.953995 -38.016 
L 180.549555 -38.016 
L 180.145116 -38.016 
L 179.740676 -38.016 
L 179.336237 -38.016 
L 178.931797 -38.016 
L 178.527357 -38.016 
L 178.122918 -38.016 
L 177.718478 -38.016 
L 177.314039 -38.016 
L 176.909599 -38.016 
L 176.505159 -38.016 
L 176.10072 -38.016 
L 175.69628 -38.016 
L 175.291841 -38.016 
L 174.887401 -38.016 
L 174.482961 -38.016 
L 174.078522 -38.016 
L 173.674082 -38.016 
L 173.269643 -38.016 
L 172.865203 -38.016 
L 172.460763 -38.016 
L 172.056324 -38.016 
L 171.651884 -38.016 
L 171.247445 -38.016 
L 170.843005 -38.016 
L 170.438565 -38.016 
L 170.034126 -38.016 
L 169.629686 -38.016 
L 169.225247 -38.016 
L 168.820807 -38.016 
L 168.416367 -38.016 
L 168.011928 -38.016 
L 167.607488 -38.016 
L 167.203049 -38.016 
L 166.798609 -38.016 
L 166.394169 -38.016 
L 165.98973 -38.016 
L 165.58529 -38.016 
L 165.180851 -38.016 
L 164.776411 -38.016 
L 164.371971 -38.016 
L 163.967532 -38.016 
L 163.563092 -38.016 
L 163.158653 -38.016 
L 162.754213 -38.016 
L 162.349773 -38.016 
L 161.945334 -38.016 
L 161.540894 -38.016 
L 161.136455 -38.016 
L 160.732015 -38.016 
L 160.327575 -38.016 
L 159.923136 -38.016 
L 159.518696 -38.016 
L 159.114257 -38.016 
L 158.709817 -38.016 
L 158.305377 -38.016 
L 157.900938 -38.016 
L 157.496498 -38.016 
L 157.092059 -38.016 
L 156.687619 -38.016 
L 156.283179 -38.016 
L 155.87874 -38.016 
L 155.4743 -38.016 
L 155.069861 -38.016 
L 154.665421 -38.016 
L 154.260982 -38.016 
L 153.856542 -38.016 
L 153.452102 -38.016 
L 153.047663 -38.016 
L 152.643223 -38.016 
L 152.238784 -38.016 
L 151.834344 -38.016 
L 151.429904 -38.016 
L 151.025465 -38.016 
L 150.621025 -38.016 
L 150.216586 -38.016 
L 149.812146 -38.016 
L 149.407706 -38.016 
L 149.003267 -38.016 
L 148.598827 -38.016 
L 148.194388 -38.016 
L 147.789948 -38.016 
L 147.385508 -38.016 
L 146.981069 -38.016 
L 146.576629 -38.016 
L 146.17219 -38.016 
L 145.76775 -38.016 
L 145.36331 -38.016 
L 144.958871 -38.016 
L 144.554431 -38.016 
L 144.149992 -38.016 
L 143.745552 -38.016 
L 143.341112 -38.016 
L 142.936673 -38.016 
L 142.532233 -38.016 
L 142.127794 -38.016 
L 141.723354 -38.016 
L 141.318914 -38.016 
L 140.914475 -38.016 
L 140.510035 -38.016 
L 140.105596 -38.016 
L 139.701156 -38.016 
L 139.296716 -38.016 
L 138.892277 -38.016 
L 138.487837 -38.016 
L 138.083398 -38.016 
L 137.678958 -38.016 
L 137.274518 -38.016 
L 136.870079 -38.016 
L 136.465639 -38.016 
L 136.0612 -38.016 
L 135.65676 -38.016 
L 135.25232 -38.016 
L 134.847881 -38.016 
L 134.443441 -38.016 
L 134.039002 -38.016 
L 133.634562 -38.016 
L 133.230122 -38.016 
L 132.825683 -38.016 
L 132.421243 -38.016 
L 132.016804 -38.016 
L 131.612364 -38.016 
L 131.207924 -38.016 
L 130.803485 -38.016 
L 130.399045 -38.016 
L 129.994606 -38.016 
L 129.590166 -38.016 
L 129.185726 -38.016 
L 128.781287 -38.016 
L 128.376847 -38.016 
L 127.972408 -38.016 
L 127.567968 -38.016 
L 127.163528 -38.016 
L 126.759089 -38.016 
L 126.354649 -38.016 
L 125.95021 -38.016 
L 125.54577 -38.016 
L 125.14133 -38.016 
L 124.736891 -38.016 
L 124.332451 -38.016 
L 123.928012 -38.016 
L 123.523572 -38.016 
L 123.119132 -38.016 
L 122.714693 -38.016 
L 122.310253 -38.016 
L 121.905814 -38.016 
L 121.501374 -38.016 
L 121.096935 -38.016 
L 120.692495 -38.016 
L 120.288055 -38.016 
L 119.883616 -38.016 
L 119.479176 -38.016 
L 119.074737 -38.016 
L 118.670297 -38.016 
L 118.265857 -38.016 
L 117.861418 -38.016 
L 117.456978 -38.016 
L 117.052539 -38.016 
L 116.648099 -38.016 
L 116.243659 -38.016 
L 115.83922 -38.016 
L 115.43478 -38.016 
L 115.030341 -38.016 
L 114.625901 -38.016 
L 114.221461 -38.016 
L 113.817022 -38.016 
L 113.412582 -38.016 
L 113.008143 -38.016 
L 112.603703 -38.016 
L 112.199263 -38.016 
L 111.794824 -38.016 
L 111.390384 -38.016 
L 110.985945 -38.016 
L 110.581505 -38.016 
L 110.177065 -38.016 
L 109.772626 -38.016 
L 109.368186 -38.016 
L 108.963747 -38.016 
L 108.559307 -38.016 
L 108.154867 -38.016 
L 107.750428 -38.016 
L 107.345988 -38.016 
L 106.941549 -38.016 
L 106.537109 -38.016 
L 106.132669 -38.016 
L 105.72823 -38.016 
L 105.32379 -38.016 
L 104.919351 -38.016 
L 104.514911 -38.016 
L 104.110471 -38.016 
L 103.706032 -38.016 
L 103.301592 -38.016 
L 102.897153 -38.016 
L 102.492713 -38.016 
L 102.088273 -38.016 
L 101.683834 -38.016 
L 101.279394 -38.016 
L 100.874955 -38.016 
L 100.470515 -38.016 
L 100.066075 -38.016 
L 99.661636 -38.016 
L 99.257196 -38.016 
L 98.852757 -38.016 
L 98.448317 -38.016 
L 98.043877 -38.016 
L 97.639438 -38.016 
L 97.234998 -38.016 
L 96.830559 -38.016 
L 96.426119 -38.016 
L 96.021679 -38.016 
L 95.61724 -38.016 
L 95.2128 -38.016 
L 94.808361 -38.016 
L 94.403921 -38.016 
L 93.999481 -38.016 
L 93.595042 -38.016 
z
" style="stroke: #008000; stroke-opacity: 0.5"/>
    </defs>
    <g clip-path="url(#pcc03a76e76)">
     <use xlink:href="#mc077239900" x="0" y="345.6" style="fill: #008000; fill-opacity: 0.5; stroke: #008000; stroke-opacity: 0.5"/>
    </g>
   </g>
   <g id="matplotlib.axis_1">
    <g id="xtick_1">
     <g id="line2d_1">
      <path d="M 93.312 307.584 
L 93.312 41.472 
" clip-path="url(#pcc03a76e76)" style="fill: none; stroke: #b0b0b0; stroke-width: 0.8; stroke-linecap: square"/>
     </g>
     <g id="line2d_2">
      <defs>
       <path id="m7bafa6730e" d="M 0 0 
L 0 3.5 
" style="stroke: #000000; stroke-width: 0.8"/>
      </defs>
      <g>
       <use xlink:href="#m7bafa6730e" x="93.312" y="307.584" style="stroke: #000000; stroke-width: 0.8"/>
      </g>
     </g>
     <g id="text_1">
      <!-- 1.6 -->
      <g transform="translate(85.360438 322.182437) scale(0.1 -0.1)">
       <defs>
        <path id="DejaVuSans-31" d="M 794 531 
L 1825 531 
L 1825 4091 
L 703 3866 
L 703 4441 
L 1819 4666 
L 2450 4666 
L 2450 531 
L 3481 531 
L 3481 0 
L 794 0 
L 794 531 
z
" transform="scale(0.015625)"/>
        <path id="DejaVuSans-2e" d="M 684 794 
L 1344 794 
L 1344 0 
L 684 0 
L 684 794 
z
" transform="scale(0.015625)"/>
        <path id="DejaVuSans-36" d="M 2113 2584 
Q 1688 2584 1439 2293 
Q 1191 2003 1191 1497 
Q 1191 994 1439 701 
Q 1688 409 2113 409 
Q 2538 409 2786 701 
Q 3034 994 3034 1497 
Q 3034 2003 2786 2293 
Q 2538 2584 2113 2584 
z
M 3366 4563 
L 3366 3988 
Q 3128 4100 2886 4159 
Q 2644 4219 2406 4219 
Q 1781 4219 1451 3797 
Q 1122 3375 1075 2522 
Q 1259 2794 1537 2939 
Q 1816 3084 2150 3084 
Q 2853 3084 3261 2657 
Q 3669 2231 3669 1497 
Q 3669 778 3244 343 
Q 2819 -91 2113 -91 
Q 1303 -91 875 529 
Q 447 1150 447 2328 
Q 447 3434 972 4092 
Q 1497 4750 2381 4750 
Q 2619 4750 2861 4703 
Q 3103 4656 3366 4563 
z
" transform="scale(0.015625)"/>
       </defs>
       <use xlink:href="#DejaVuSans-31"/>
       <use xlink:href="#DejaVuSans-2e" x="63.623047"/>
       <use xlink:href="#DejaVuSans-36" x="95.410156"/>
      </g>
     </g>
    </g>
    <g id="xtick_2">
     <g id="line2d_3">
      <path d="M 164.736 307.584 
L 164.736 41.472 
" clip-path="url(#pcc03a76e76)" style="fill: none; stroke: #b0b0b0; stroke-width: 0.8; stroke-linecap: square"/>
     </g>
     <g id="line2d_4">
      <g>
       <use xlink:href="#m7bafa6730e" x="164.736" y="307.584" style="stroke: #000000; stroke-width: 0.8"/>
      </g>
     </g>
     <g id="text_2">
      <!-- 1.8 -->
      <g transform="translate(156.784438 322.182437) scale(0.1 -0.1)">
       <defs>
        <path id="DejaVuSans-38" d="M 2034 2216 
Q 1584 2216 1326 1975 
Q 1069 1734 1069 1313 
Q 1069 891 1326 650 
Q 1584 409 2034 409 
Q 2484 409 2743 651 
Q 3003 894 3003 1313 
Q 3003 1734 2745 1975 
Q 2488 2216 2034 2216 
z
M 1403 2484 
Q 997 2584 770 2862 
Q 544 3141 544 3541 
Q 544 4100 942 4425 
Q 1341 4750 2034 4750 
Q 2731 4750 3128 4425 
Q 3525 4100 3525 3541 
Q 3525 3141 3298 2862 
Q 3072 2584 2669 2484 
Q 3125 2378 3379 2068 
Q 3634 1759 3634 1313 
Q 3634 634 3220 271 
Q 2806 -91 2034 -91 
Q 1263 -91 848 271 
Q 434 634 434 1313 
Q 434 1759 690 2068 
Q 947 2378 1403 2484 
z
M 1172 3481 
Q 1172 3119 1398 2916 
Q 1625 2713 2034 2713 
Q 2441 2713 2670 2916 
Q 2900 3119 2900 3481 
Q 2900 3844 2670 4047 
Q 2441 4250 2034 4250 
Q 1625 4250 1398 4047 
Q 1172 3844 1172 3481 
z
" transform="scale(0.015625)"/>
       </defs>
       <use xlink:href="#DejaVuSans-31"/>
       <use xlink:href="#DejaVuSans-2e" x="63.623047"/>
       <use xlink:href="#DejaVuSans-38" x="95.410156"/>
      </g>
     </g>
    </g>
    <g id="xtick_3">
     <g id="line2d_5">
      <path d="M 236.16 307.584 
L 236.16 41.472 
" clip-path="url(#pcc03a76e76)" style="fill: none; stroke: #b0b0b0; stroke-width: 0.8; stroke-linecap: square"/>
     </g>
     <g id="line2d_6">
      <g>
       <use xlink:href="#m7bafa6730e" x="236.16" y="307.584" style="stroke: #000000; stroke-width: 0.8"/>
      </g>
     </g>
     <g id="text_3">
      <!-- 2.0 -->
      <g transform="translate(228.208437 322.182437) scale(0.1 -0.1)">
       <defs>
        <path id="DejaVuSans-32" d="M 1228 531 
L 3431 531 
L 3431 0 
L 469 0 
L 469 531 
Q 828 903 1448 1529 
Q 2069 2156 2228 2338 
Q 2531 2678 2651 2914 
Q 2772 3150 2772 3378 
Q 2772 3750 2511 3984 
Q 2250 4219 1831 4219 
Q 1534 4219 1204 4116 
Q 875 4013 500 3803 
L 500 4441 
Q 881 4594 1212 4672 
Q 1544 4750 1819 4750 
Q 2544 4750 2975 4387 
Q 3406 4025 3406 3419 
Q 3406 3131 3298 2873 
Q 3191 2616 2906 2266 
Q 2828 2175 2409 1742 
Q 1991 1309 1228 531 
z
" transform="scale(0.015625)"/>
        <path id="DejaVuSans-30" d="M 2034 4250 
Q 1547 4250 1301 3770 
Q 1056 3291 1056 2328 
Q 1056 1369 1301 889 
Q 1547 409 2034 409 
Q 2525 409 2770 889 
Q 3016 1369 3016 2328 
Q 3016 3291 2770 3770 
Q 2525 4250 2034 4250 
z
M 2034 4750 
Q 2819 4750 3233 4129 
Q 3647 3509 3647 2328 
Q 3647 1150 3233 529 
Q 2819 -91 2034 -91 
Q 1250 -91 836 529 
Q 422 1150 422 2328 
Q 422 3509 836 4129 
Q 1250 4750 2034 4750 
z
" transform="scale(0.015625)"/>
       </defs>
       <use xlink:href="#DejaVuSans-32"/>
       <use xlink:href="#DejaVuSans-2e" x="63.623047"/>
       <use xlink:href="#DejaVuSans-30" x="95.410156"/>
      </g>
     </g>
    </g>
    <g id="xtick_4">
     <g id="line2d_7">
      <path d="M 307.584 307.584 
L 307.584 41.472 
" clip-path="url(#pcc03a76e76)" style="fill: none; stroke: #b0b0b0; stroke-width: 0.8; stroke-linecap: square"/>
     </g>
     <g id="line2d_8">
      <g>
       <use xlink:href="#m7bafa6730e" x="307.584" y="307.584" style="stroke: #000000; stroke-width: 0.8"/>
      </g>
     </g>
     <g id="text_4">
      <!-- 2.2 -->
      <g transform="translate(299.632438 322.182437) scale(0.1 -0.1)">
       <use xlink:href="#DejaVuSans-32"/>
       <use xlink:href="#DejaVuSans-2e" x="63.623047"/>
       <use xlink:href="#DejaVuSans-32" x="95.410156"/>
      </g>
     </g>
    </g>
    <g id="xtick_5">
     <g id="line2d_9">
      <path d="M 379.008 307.584 
L 379.008 41.472 
" clip-path="url(#pcc03a76e76)" style="fill: none; stroke: #b0b0b0; stroke-width: 0.8; stroke-linecap: square"/>
     </g>
     <g id="line2d_10">
      <g>
       <use xlink:href="#m7bafa6730e" x="379.008" y="307.584" style="stroke: #000000; stroke-width: 0.8"/>
      </g>
     </g>
     <g id="text_5">
      <!-- 2.4 -->
      <g transform="translate(371.056438 322.182437) scale(0.1 -0.1)">
       <defs>
        <path id="DejaVuSans-34" d="M 2419 4116 
L 825 1625 
L 2419 1625 
L 2419 4116 
z
M 2253 4666 
L 3047 4666 
L 3047 1625 
L 3713 1625 
L 3713 1100 
L 3047 1100 
L 3047 0 
L 2419 0 
L 2419 1100 
L 313 1100 
L 313 1709 
L 2253 4666 
z
" transform="scale(0.015625)"/>
       </defs>
       <use xlink:href="#DejaVuSans-32"/>
       <use xlink:href="#DejaVuSans-2e" x="63.623047"/>
       <use xlink:href="#DejaVuSans-34" x="95.410156"/>
      </g>
     </g>
    </g>
    <g id="text_6">
     <!-- $\overline{x}$ -->
     <g transform="translate(233.16 335.860562) scale(0.1 -0.1)">
      <defs>
       <path id="DejaVuSans-Oblique-78" d="M 3841 3500 
L 2234 1784 
L 3219 0 
L 2559 0 
L 1819 1388 
L 531 0 
L -166 0 
L 1556 1844 
L 641 3500 
L 1300 3500 
L 1972 2234 
L 3144 3500 
L 3841 3500 
z
" transform="scale(0.015625)"/>
      </defs>
      <use xlink:href="#DejaVuSans-Oblique-78" transform="translate(0 1.0625)"/>
      <path d="M 0 67.5 
L 0 73.75 
L 59.179688 73.75 
L 59.179688 67.5 
L 0 67.5 
z
"/>
     </g>
    </g>
   </g>
   <g id="matplotlib.axis_2">
    <g id="ytick_1">
     <g id="line2d_11">
      <path d="M 57.6 307.584 
L 414.72 307.584 
" clip-path="url(#pcc03a76e76)" style="fill: none; stroke: #b0b0b0; stroke-width: 0.8; stroke-linecap: square"/>
     </g>
     <g id="line2d_12">
      <defs>
       <path id="m02576ba526" d="M 0 0 
L -3.5 0 
" style="stroke: #000000; stroke-width: 0.8"/>
      </defs>
      <g>
       <use xlink:href="#m02576ba526" x="57.6" y="307.584" style="stroke: #000000; stroke-width: 0.8"/>
      </g>
     </g>
     <g id="text_7">
      <!-- 0.0 -->
      <g transform="translate(34.696875 311.383219) scale(0.1 -0.1)">
       <use xlink:href="#DejaVuSans-30"/>
       <use xlink:href="#DejaVuSans-2e" x="63.623047"/>
       <use xlink:href="#DejaVuSans-30" x="95.410156"/>
      </g>
     </g>
    </g>
    <g id="ytick_2">
     <g id="line2d_13">
      <path d="M 57.6 263.232 
L 414.72 263.232 
" clip-path="url(#pcc03a76e76)" style="fill: none; stroke: #b0b0b0; stroke-width: 0.8; stroke-linecap: square"/>
     </g>
     <g id="line2d_14">
      <g>
       <use xlink:href="#m02576ba526" x="57.6" y="263.232" style="stroke: #000000; stroke-width: 0.8"/>
      </g>
     </g>
     <g id="text_8">
      <!-- 0.5 -->
      <g transform="translate(34.696875 267.031219) scale(0.1 -0.1)">
       <defs>
        <path id="DejaVuSans-35" d="M 691 4666 
L 3169 4666 
L 3169 4134 
L 1269 4134 
L 1269 2991 
Q 1406 3038 1543 3061 
Q 1681 3084 1819 3084 
Q 2600 3084 3056 2656 
Q 3513 2228 3513 1497 
Q 3513 744 3044 326 
Q 2575 -91 1722 -91 
Q 1428 -91 1123 -41 
Q 819 9 494 109 
L 494 744 
Q 775 591 1075 516 
Q 1375 441 1709 441 
Q 2250 441 2565 725 
Q 2881 1009 2881 1497 
Q 2881 1984 2565 2268 
Q 2250 2553 1709 2553 
Q 1456 2553 1204 2497 
Q 953 2441 691 2322 
L 691 4666 
z
" transform="scale(0.015625)"/>
       </defs>
       <use xlink:href="#DejaVuSans-30"/>
       <use xlink:href="#DejaVuSans-2e" x="63.623047"/>
       <use xlink:href="#DejaVuSans-35" x="95.410156"/>
      </g>
     </g>
    </g>
    <g id="ytick_3">
     <g id="line2d_15">
      <path d="M 57.6 218.88 
L 414.72 218.88 
" clip-path="url(#pcc03a76e76)" style="fill: none; stroke: #b0b0b0; stroke-width: 0.8; stroke-linecap: square"/>
     </g>
     <g id="line2d_16">
      <g>
       <use xlink:href="#m02576ba526" x="57.6" y="218.88" style="stroke: #000000; stroke-width: 0.8"/>
      </g>
     </g>
     <g id="text_9">
      <!-- 1.0 -->
      <g transform="translate(34.696875 222.679219) scale(0.1 -0.1)">
       <use xlink:href="#DejaVuSans-31"/>
       <use xlink:href="#DejaVuSans-2e" x="63.623047"/>
       <use xlink:href="#DejaVuSans-30" x="95.410156"/>
      </g>
     </g>
    </g>
    <g id="ytick_4">
     <g id="line2d_17">
      <path d="M 57.6 174.528 
L 414.72 174.528 
" clip-path="url(#pcc03a76e76)" style="fill: none; stroke: #b0b0b0; stroke-width: 0.8; stroke-linecap: square"/>
     </g>
     <g id="line2d_18">
      <g>
       <use xlink:href="#m02576ba526" x="57.6" y="174.528" style="stroke: #000000; stroke-width: 0.8"/>
      </g>
     </g>
     <g id="text_10">
      <!-- 1.5 -->
      <g transform="translate(34.696875 178.327219) scale(0.1 -0.1)">
       <use xlink:href="#DejaVuSans-31"/>
       <use xlink:href="#DejaVuSans-2e" x="63.623047"/>
       <use xlink:href="#DejaVuSans-35" x="95.410156"/>
      </g>
     </g>
    </g>
    <g id="ytick_5">
     <g id="line2d_19">
      <path d="M 57.6 130.176 
L 414.72 130.176 
" clip-path="url(#pcc03a76e76)" style="fill: none; stroke: #b0b0b0; stroke-width: 0.8; stroke-linecap: square"/>
     </g>
     <g id="line2d_20">
      <g>
       <use xlink:href="#m02576ba526" x="57.6" y="130.176" style="stroke: #000000; stroke-width: 0.8"/>
      </g>
     </g>
     <g id="text_11">
      <!-- 2.0 -->
      <g transform="translate(34.696875 133.975219) scale(0.1 -0.1)">
       <use xlink:href="#DejaVuSans-32"/>
       <use xlink:href="#DejaVuSans-2e" x="63.623047"/>
       <use xlink:href="#DejaVuSans-30" x="95.410156"/>
      </g>
     </g>
    </g>
    <g id="ytick_6">
     <g id="line2d_21">
      <path d="M 57.6 85.824 
L 414.72 85.824 
" clip-path="url(#pcc03a76e76)" style="fill: none; stroke: #b0b0b0; stroke-width: 0.8; stroke-linecap: square"/>
     </g>
     <g id="line2d_22">
      <g>
       <use xlink:href="#m02576ba526" x="57.6" y="85.824" style="stroke: #000000; stroke-width: 0.8"/>
      </g>
     </g>
     <g id="text_12">
      <!-- 2.5 -->
      <g transform="translate(34.696875 89.623219) scale(0.1 -0.1)">
       <use xlink:href="#DejaVuSans-32"/>
       <use xlink:href="#DejaVuSans-2e" x="63.623047"/>
       <use xlink:href="#DejaVuSans-35" x="95.410156"/>
      </g>
     </g>
    </g>
    <g id="ytick_7">
     <g id="line2d_23">
      <path d="M 57.6 41.472 
L 414.72 41.472 
" clip-path="url(#pcc03a76e76)" style="fill: none; stroke: #b0b0b0; stroke-width: 0.8; stroke-linecap: square"/>
     </g>
     <g id="line2d_24">
      <g>
       <use xlink:href="#m02576ba526" x="57.6" y="41.472" style="stroke: #000000; stroke-width: 0.8"/>
      </g>
     </g>
     <g id="text_13">
      <!-- 3.0 -->
      <g transform="translate(34.696875 45.271219) scale(0.1 -0.1)">
       <defs>
        <path id="DejaVuSans-33" d="M 2597 2516 
Q 3050 2419 3304 2112 
Q 3559 1806 3559 1356 
Q 3559 666 3084 287 
Q 2609 -91 1734 -91 
Q 1441 -91 1130 -33 
Q 819 25 488 141 
L 488 750 
Q 750 597 1062 519 
Q 1375 441 1716 441 
Q 2309 441 2620 675 
Q 2931 909 2931 1356 
Q 2931 1769 2642 2001 
Q 2353 2234 1838 2234 
L 1294 2234 
L 1294 2753 
L 1863 2753 
Q 2328 2753 2575 2939 
Q 2822 3125 2822 3475 
Q 2822 3834 2567 4026 
Q 2313 4219 1838 4219 
Q 1578 4219 1281 4162 
Q 984 4106 628 3988 
L 628 4550 
Q 988 4650 1302 4700 
Q 1616 4750 1894 4750 
Q 2613 4750 3031 4423 
Q 3450 4097 3450 3541 
Q 3450 3153 3228 2886 
Q 3006 2619 2597 2516 
z
" transform="scale(0.015625)"/>
       </defs>
       <use xlink:href="#DejaVuSans-33"/>
       <use xlink:href="#DejaVuSans-2e" x="63.623047"/>
       <use xlink:href="#DejaVuSans-30" x="95.410156"/>
      </g>
     </g>
    </g>
    <g id="text_14">
     <!-- Probability density -->
     <g transform="translate(28.617187 220.878781) rotate(-90) scale(0.1 -0.1)">
      <defs>
       <path id="DejaVuSans-50" d="M 1259 4147 
L 1259 2394 
L 2053 2394 
Q 2494 2394 2734 2622 
Q 2975 2850 2975 3272 
Q 2975 3691 2734 3919 
Q 2494 4147 2053 4147 
L 1259 4147 
z
M 628 4666 
L 2053 4666 
Q 2838 4666 3239 4311 
Q 3641 3956 3641 3272 
Q 3641 2581 3239 2228 
Q 2838 1875 2053 1875 
L 1259 1875 
L 1259 0 
L 628 0 
L 628 4666 
z
" transform="scale(0.015625)"/>
       <path id="DejaVuSans-72" d="M 2631 2963 
Q 2534 3019 2420 3045 
Q 2306 3072 2169 3072 
Q 1681 3072 1420 2755 
Q 1159 2438 1159 1844 
L 1159 0 
L 581 0 
L 581 3500 
L 1159 3500 
L 1159 2956 
Q 1341 3275 1631 3429 
Q 1922 3584 2338 3584 
Q 2397 3584 2469 3576 
Q 2541 3569 2628 3553 
L 2631 2963 
z
" transform="scale(0.015625)"/>
       <path id="DejaVuSans-6f" d="M 1959 3097 
Q 1497 3097 1228 2736 
Q 959 2375 959 1747 
Q 959 1119 1226 758 
Q 1494 397 1959 397 
Q 2419 397 2687 759 
Q 2956 1122 2956 1747 
Q 2956 2369 2687 2733 
Q 2419 3097 1959 3097 
z
M 1959 3584 
Q 2709 3584 3137 3096 
Q 3566 2609 3566 1747 
Q 3566 888 3137 398 
Q 2709 -91 1959 -91 
Q 1206 -91 779 398 
Q 353 888 353 1747 
Q 353 2609 779 3096 
Q 1206 3584 1959 3584 
z
" transform="scale(0.015625)"/>
       <path id="DejaVuSans-62" d="M 3116 1747 
Q 3116 2381 2855 2742 
Q 2594 3103 2138 3103 
Q 1681 3103 1420 2742 
Q 1159 2381 1159 1747 
Q 1159 1113 1420 752 
Q 1681 391 2138 391 
Q 2594 391 2855 752 
Q 3116 1113 3116 1747 
z
M 1159 2969 
Q 1341 3281 1617 3432 
Q 1894 3584 2278 3584 
Q 2916 3584 3314 3078 
Q 3713 2572 3713 1747 
Q 3713 922 3314 415 
Q 2916 -91 2278 -91 
Q 1894 -91 1617 61 
Q 1341 213 1159 525 
L 1159 0 
L 581 0 
L 581 4863 
L 1159 4863 
L 1159 2969 
z
" transform="scale(0.015625)"/>
       <path id="DejaVuSans-61" d="M 2194 1759 
Q 1497 1759 1228 1600 
Q 959 1441 959 1056 
Q 959 750 1161 570 
Q 1363 391 1709 391 
Q 2188 391 2477 730 
Q 2766 1069 2766 1631 
L 2766 1759 
L 2194 1759 
z
M 3341 1997 
L 3341 0 
L 2766 0 
L 2766 531 
Q 2569 213 2275 61 
Q 1981 -91 1556 -91 
Q 1019 -91 701 211 
Q 384 513 384 1019 
Q 384 1609 779 1909 
Q 1175 2209 1959 2209 
L 2766 2209 
L 2766 2266 
Q 2766 2663 2505 2880 
Q 2244 3097 1772 3097 
Q 1472 3097 1187 3025 
Q 903 2953 641 2809 
L 641 3341 
Q 956 3463 1253 3523 
Q 1550 3584 1831 3584 
Q 2591 3584 2966 3190 
Q 3341 2797 3341 1997 
z
" transform="scale(0.015625)"/>
       <path id="DejaVuSans-69" d="M 603 3500 
L 1178 3500 
L 1178 0 
L 603 0 
L 603 3500 
z
M 603 4863 
L 1178 4863 
L 1178 4134 
L 603 4134 
L 603 4863 
z
" transform="scale(0.015625)"/>
       <path id="DejaVuSans-6c" d="M 603 4863 
L 1178 4863 
L 1178 0 
L 603 0 
L 603 4863 
z
" transform="scale(0.015625)"/>
       <path id="DejaVuSans-74" d="M 1172 4494 
L 1172 3500 
L 2356 3500 
L 2356 3053 
L 1172 3053 
L 1172 1153 
Q 1172 725 1289 603 
Q 1406 481 1766 481 
L 2356 481 
L 2356 0 
L 1766 0 
Q 1100 0 847 248 
Q 594 497 594 1153 
L 594 3053 
L 172 3053 
L 172 3500 
L 594 3500 
L 594 4494 
L 1172 4494 
z
" transform="scale(0.015625)"/>
       <path id="DejaVuSans-79" d="M 2059 -325 
Q 1816 -950 1584 -1140 
Q 1353 -1331 966 -1331 
L 506 -1331 
L 506 -850 
L 844 -850 
Q 1081 -850 1212 -737 
Q 1344 -625 1503 -206 
L 1606 56 
L 191 3500 
L 800 3500 
L 1894 763 
L 2988 3500 
L 3597 3500 
L 2059 -325 
z
" transform="scale(0.015625)"/>
       <path id="DejaVuSans-20" transform="scale(0.015625)"/>
       <path id="DejaVuSans-64" d="M 2906 2969 
L 2906 4863 
L 3481 4863 
L 3481 0 
L 2906 0 
L 2906 525 
Q 2725 213 2448 61 
Q 2172 -91 1784 -91 
Q 1150 -91 751 415 
Q 353 922 353 1747 
Q 353 2572 751 3078 
Q 1150 3584 1784 3584 
Q 2172 3584 2448 3432 
Q 2725 3281 2906 2969 
z
M 947 1747 
Q 947 1113 1208 752 
Q 1469 391 1925 391 
Q 2381 391 2643 752 
Q 2906 1113 2906 1747 
Q 2906 2381 2643 2742 
Q 2381 3103 1925 3103 
Q 1469 3103 1208 2742 
Q 947 2381 947 1747 
z
" transform="scale(0.015625)"/>
       <path id="DejaVuSans-65" d="M 3597 1894 
L 3597 1613 
L 953 1613 
Q 991 1019 1311 708 
Q 1631 397 2203 397 
Q 2534 397 2845 478 
Q 3156 559 3463 722 
L 3463 178 
Q 3153 47 2828 -22 
Q 2503 -91 2169 -91 
Q 1331 -91 842 396 
Q 353 884 353 1716 
Q 353 2575 817 3079 
Q 1281 3584 2069 3584 
Q 2775 3584 3186 3129 
Q 3597 2675 3597 1894 
z
M 3022 2063 
Q 3016 2534 2758 2815 
Q 2500 3097 2075 3097 
Q 1594 3097 1305 2825 
Q 1016 2553 972 2059 
L 3022 2063 
z
" transform="scale(0.015625)"/>
       <path id="DejaVuSans-6e" d="M 3513 2113 
L 3513 0 
L 2938 0 
L 2938 2094 
Q 2938 2591 2744 2837 
Q 2550 3084 2163 3084 
Q 1697 3084 1428 2787 
Q 1159 2491 1159 1978 
L 1159 0 
L 581 0 
L 581 3500 
L 1159 3500 
L 1159 2956 
Q 1366 3272 1645 3428 
Q 1925 3584 2291 3584 
Q 2894 3584 3203 3211 
Q 3513 2838 3513 2113 
z
" transform="scale(0.015625)"/>
       <path id="DejaVuSans-73" d="M 2834 3397 
L 2834 2853 
Q 2591 2978 2328 3040 
Q 2066 3103 1784 3103 
Q 1356 3103 1142 2972 
Q 928 2841 928 2578 
Q 928 2378 1081 2264 
Q 1234 2150 1697 2047 
L 1894 2003 
Q 2506 1872 2764 1633 
Q 3022 1394 3022 966 
Q 3022 478 2636 193 
Q 2250 -91 1575 -91 
Q 1294 -91 989 -36 
Q 684 19 347 128 
L 347 722 
Q 666 556 975 473 
Q 1284 391 1588 391 
Q 1994 391 2212 530 
Q 2431 669 2431 922 
Q 2431 1156 2273 1281 
Q 2116 1406 1581 1522 
L 1381 1569 
Q 847 1681 609 1914 
Q 372 2147 372 2553 
Q 372 3047 722 3315 
Q 1072 3584 1716 3584 
Q 2034 3584 2315 3537 
Q 2597 3491 2834 3397 
z
" transform="scale(0.015625)"/>
      </defs>
      <use xlink:href="#DejaVuSans-50"/>
      <use xlink:href="#DejaVuSans-72" x="58.552734"/>
      <use xlink:href="#DejaVuSans-6f" x="97.416016"/>
      <use xlink:href="#DejaVuSans-62" x="158.597656"/>
      <use xlink:href="#DejaVuSans-61" x="222.074219"/>
      <use xlink:href="#DejaVuSans-62" x="283.353516"/>
      <use xlink:href="#DejaVuSans-69" x="346.830078"/>
      <use xlink:href="#DejaVuSans-6c" x="374.613281"/>
      <use xlink:href="#DejaVuSans-69" x="402.396484"/>
      <use xlink:href="#DejaVuSans-74" x="430.179688"/>
      <use xlink:href="#DejaVuSans-79" x="469.388672"/>
      <use xlink:href="#DejaVuSans-20" x="528.568359"/>
      <use xlink:href="#DejaVuSans-64" x="560.355469"/>
      <use xlink:href="#DejaVuSans-65" x="623.832031"/>
      <use xlink:href="#DejaVuSans-6e" x="685.355469"/>
      <use xlink:href="#DejaVuSans-73" x="748.734375"/>
      <use xlink:href="#DejaVuSans-69" x="800.833984"/>
      <use xlink:href="#DejaVuSans-74" x="828.617188"/>
      <use xlink:href="#DejaVuSans-79" x="867.826172"/>
     </g>
    </g>
   </g>
   <g id="line2d_25">
    <path d="M 34.142421 307.500057 
L 51.128884 307.279425 
L 62.048753 306.926999 
L 70.137545 306.457349 
L 77.013018 305.837697 
L 82.675173 305.113307 
L 87.932888 304.212167 
L 92.381723 303.234289 
L 96.426119 302.138014 
L 100.470515 300.809028 
L 104.110471 299.38286 
L 107.750428 297.70791 
L 110.985945 295.984637 
L 114.221461 294.01647 
L 117.456978 291.779344 
L 120.692495 289.24875 
L 123.928012 286.400085 
L 126.759089 283.627492 
L 129.590166 280.577013 
L 132.421243 277.233623 
L 135.25232 273.583339 
L 138.487837 269.019671 
L 141.723354 264.022606 
L 144.958871 258.579573 
L 148.194388 252.682218 
L 151.429904 246.327084 
L 154.665421 239.516252 
L 158.305377 231.319864 
L 161.945334 222.579203 
L 165.98973 212.270018 
L 170.438565 200.277909 
L 175.291841 186.544352 
L 181.762874 167.487645 
L 196.727139 123.098911 
L 201.175975 110.729206 
L 204.815931 101.188759 
L 208.051448 93.257543 
L 211.286965 85.933121 
L 214.118042 80.086427 
L 216.54468 75.533462 
L 218.971317 71.435185 
L 221.397955 67.818692 
L 223.420153 65.19052 
L 225.442351 62.926092 
L 227.464549 61.036093 
L 229.082307 59.799771 
L 230.700065 58.812632 
L 232.317824 58.077699 
L 233.935582 57.597225 
L 235.553341 57.372688 
L 237.171099 57.404777 
L 238.788857 57.693394 
L 240.406616 58.237652 
L 242.024374 59.035878 
L 243.642133 60.085625 
L 245.259891 61.383682 
L 246.877649 62.926092 
L 248.899847 65.19052 
L 250.922045 67.818692 
L 252.944243 70.798288 
L 255.370881 74.818075 
L 257.797518 79.297254 
L 260.628596 85.064365 
L 263.459673 91.366269 
L 266.69519 99.153721 
L 270.335146 108.558633 
L 274.379542 119.660013 
L 279.232817 133.645992 
L 286.917169 156.571831 
L 296.21928 184.201105 
L 301.476995 199.15732 
L 305.925831 211.2067 
L 309.970227 221.575756 
L 314.014623 231.319864 
L 317.654579 239.516252 
L 321.294535 247.146496 
L 324.530052 253.444402 
L 327.765569 259.284671 
L 331.001086 264.671408 
L 334.236602 269.613532 
L 337.472119 274.124093 
L 340.707636 278.219604 
L 343.943153 281.919372 
L 347.17867 285.24486 
L 350.414186 288.21909 
L 353.649703 290.866086 
L 356.88522 293.210376 
L 360.120737 295.276552 
L 363.356253 297.088882 
L 366.99621 298.853714 
L 370.636166 300.359401 
L 374.276123 301.636381 
L 378.320519 302.821433 
L 382.769354 303.881696 
L 387.622629 304.795844 
L 392.880344 305.554573 
L 398.946938 306.196097 
L 405.822411 306.697319 
L 414.315643 307.08709 
L 425.639951 307.364289 
L 438.177579 307.500057 
L 438.177579 307.500057 
" clip-path="url(#pcc03a76e76)" style="fill: none; stroke: #000000; stroke-linecap: square"/>
   </g>
   <g id="line2d_26">
    <path d="M 236.16 307.584 
L 236.16 41.472 
" clip-path="url(#pcc03a76e76)" style="fill: none; stroke: #000000; stroke-width: 3; stroke-linecap: square"/>
   </g>
   <g id="patch_3">
    <path d="M 57.6 307.584 
L 57.6 41.472 
" style="fill: none; stroke: #000000; stroke-width: 0.8; stroke-linejoin: miter; stroke-linecap: square"/>
   </g>
   <g id="patch_4">
    <path d="M 414.72 307.584 
L 414.72 41.472 
" style="fill: none; stroke: #000000; stroke-width: 0.8; stroke-linejoin: miter; stroke-linecap: square"/>
   </g>
   <g id="patch_5">
    <path d="M 57.6 307.584 
L 414.72 307.584 
" style="fill: none; stroke: #000000; stroke-width: 0.8; stroke-linejoin: miter; stroke-linecap: square"/>
   </g>
   <g id="patch_6">
    <path d="M 57.6 41.472 
L 414.72 41.472 
" style="fill: none; stroke: #000000; stroke-width: 0.8; stroke-linejoin: miter; stroke-linecap: square"/>
   </g>
   <g id="patch_7">
    <path d="M 142.097918 100.186067 
Q 166.837567 114.674917 190.612457 128.598753 
" style="fill: none; stroke: #000000; stroke-linecap: round"/>
    <path d="M 188.171559 124.851485 
L 190.612457 128.598753 
L 186.150104 128.303111 
" style="fill: none; stroke: #000000; stroke-linecap: round"/>
   </g>
   <g id="text_15">
    <!-- Sampling dist. of -->
    <g transform="translate(75.456 82.073375) scale(0.1 -0.1)">
     <defs>
      <path id="DejaVuSans-53" d="M 3425 4513 
L 3425 3897 
Q 3066 4069 2747 4153 
Q 2428 4238 2131 4238 
Q 1616 4238 1336 4038 
Q 1056 3838 1056 3469 
Q 1056 3159 1242 3001 
Q 1428 2844 1947 2747 
L 2328 2669 
Q 3034 2534 3370 2195 
Q 3706 1856 3706 1288 
Q 3706 609 3251 259 
Q 2797 -91 1919 -91 
Q 1588 -91 1214 -16 
Q 841 59 441 206 
L 441 856 
Q 825 641 1194 531 
Q 1563 422 1919 422 
Q 2459 422 2753 634 
Q 3047 847 3047 1241 
Q 3047 1584 2836 1778 
Q 2625 1972 2144 2069 
L 1759 2144 
Q 1053 2284 737 2584 
Q 422 2884 422 3419 
Q 422 4038 858 4394 
Q 1294 4750 2059 4750 
Q 2388 4750 2728 4690 
Q 3069 4631 3425 4513 
z
" transform="scale(0.015625)"/>
      <path id="DejaVuSans-6d" d="M 3328 2828 
Q 3544 3216 3844 3400 
Q 4144 3584 4550 3584 
Q 5097 3584 5394 3201 
Q 5691 2819 5691 2113 
L 5691 0 
L 5113 0 
L 5113 2094 
Q 5113 2597 4934 2840 
Q 4756 3084 4391 3084 
Q 3944 3084 3684 2787 
Q 3425 2491 3425 1978 
L 3425 0 
L 2847 0 
L 2847 2094 
Q 2847 2600 2669 2842 
Q 2491 3084 2119 3084 
Q 1678 3084 1418 2786 
Q 1159 2488 1159 1978 
L 1159 0 
L 581 0 
L 581 3500 
L 1159 3500 
L 1159 2956 
Q 1356 3278 1631 3431 
Q 1906 3584 2284 3584 
Q 2666 3584 2933 3390 
Q 3200 3197 3328 2828 
z
" transform="scale(0.015625)"/>
      <path id="DejaVuSans-70" d="M 1159 525 
L 1159 -1331 
L 581 -1331 
L 581 3500 
L 1159 3500 
L 1159 2969 
Q 1341 3281 1617 3432 
Q 1894 3584 2278 3584 
Q 2916 3584 3314 3078 
Q 3713 2572 3713 1747 
Q 3713 922 3314 415 
Q 2916 -91 2278 -91 
Q 1894 -91 1617 61 
Q 1341 213 1159 525 
z
M 3116 1747 
Q 3116 2381 2855 2742 
Q 2594 3103 2138 3103 
Q 1681 3103 1420 2742 
Q 1159 2381 1159 1747 
Q 1159 1113 1420 752 
Q 1681 391 2138 391 
Q 2594 391 2855 752 
Q 3116 1113 3116 1747 
z
" transform="scale(0.015625)"/>
      <path id="DejaVuSans-67" d="M 2906 1791 
Q 2906 2416 2648 2759 
Q 2391 3103 1925 3103 
Q 1463 3103 1205 2759 
Q 947 2416 947 1791 
Q 947 1169 1205 825 
Q 1463 481 1925 481 
Q 2391 481 2648 825 
Q 2906 1169 2906 1791 
z
M 3481 434 
Q 3481 -459 3084 -895 
Q 2688 -1331 1869 -1331 
Q 1566 -1331 1297 -1286 
Q 1028 -1241 775 -1147 
L 775 -588 
Q 1028 -725 1275 -790 
Q 1522 -856 1778 -856 
Q 2344 -856 2625 -561 
Q 2906 -266 2906 331 
L 2906 616 
Q 2728 306 2450 153 
Q 2172 0 1784 0 
Q 1141 0 747 490 
Q 353 981 353 1791 
Q 353 2603 747 3093 
Q 1141 3584 1784 3584 
Q 2172 3584 2450 3431 
Q 2728 3278 2906 2969 
L 2906 3500 
L 3481 3500 
L 3481 434 
z
" transform="scale(0.015625)"/>
      <path id="DejaVuSans-66" d="M 2375 4863 
L 2375 4384 
L 1825 4384 
Q 1516 4384 1395 4259 
Q 1275 4134 1275 3809 
L 1275 3500 
L 2222 3500 
L 2222 3053 
L 1275 3053 
L 1275 0 
L 697 0 
L 697 3053 
L 147 3053 
L 147 3500 
L 697 3500 
L 697 3744 
Q 697 4328 969 4595 
Q 1241 4863 1831 4863 
L 2375 4863 
z
" transform="scale(0.015625)"/>
     </defs>
     <use xlink:href="#DejaVuSans-53"/>
     <use xlink:href="#DejaVuSans-61" x="63.476562"/>
     <use xlink:href="#DejaVuSans-6d" x="124.755859"/>
     <use xlink:href="#DejaVuSans-70" x="222.167969"/>
     <use xlink:href="#DejaVuSans-6c" x="285.644531"/>
     <use xlink:href="#DejaVuSans-69" x="313.427734"/>
     <use xlink:href="#DejaVuSans-6e" x="341.210938"/>
     <use xlink:href="#DejaVuSans-67" x="404.589844"/>
     <use xlink:href="#DejaVuSans-20" x="468.066406"/>
     <use xlink:href="#DejaVuSans-64" x="499.853516"/>
     <use xlink:href="#DejaVuSans-69" x="563.330078"/>
     <use xlink:href="#DejaVuSans-73" x="591.113281"/>
     <use xlink:href="#DejaVuSans-74" x="643.212891"/>
     <use xlink:href="#DejaVuSans-2e" x="682.421875"/>
     <use xlink:href="#DejaVuSans-20" x="714.208984"/>
     <use xlink:href="#DejaVuSans-6f" x="745.996094"/>
     <use xlink:href="#DejaVuSans-66" x="807.177734"/>
    </g>
    <!-- $\overline{x}$ = $N(\mu, \sigma^2/n)$ -->
    <g transform="translate(75.456 95.073063) scale(0.1 -0.1)">
     <defs>
      <path id="DejaVuSans-3d" d="M 678 2906 
L 4684 2906 
L 4684 2381 
L 678 2381 
L 678 2906 
z
M 678 1631 
L 4684 1631 
L 4684 1100 
L 678 1100 
L 678 1631 
z
" transform="scale(0.015625)"/>
      <path id="DejaVuSans-Oblique-4e" d="M 1081 4666 
L 1931 4666 
L 3219 666 
L 4000 4666 
L 4616 4666 
L 3706 0 
L 2853 0 
L 1569 4025 
L 788 0 
L 172 0 
L 1081 4666 
z
" transform="scale(0.015625)"/>
      <path id="DejaVuSans-28" d="M 1984 4856 
Q 1566 4138 1362 3434 
Q 1159 2731 1159 2009 
Q 1159 1288 1364 580 
Q 1569 -128 1984 -844 
L 1484 -844 
Q 1016 -109 783 600 
Q 550 1309 550 2009 
Q 550 2706 781 3412 
Q 1013 4119 1484 4856 
L 1984 4856 
z
" transform="scale(0.015625)"/>
      <path id="DejaVuSans-Oblique-3bc" d="M -84 -1331 
L 856 3500 
L 1434 3500 
L 1009 1322 
Q 997 1256 987 1175 
Q 978 1094 978 1013 
Q 978 722 1161 565 
Q 1344 409 1684 409 
Q 2147 409 2431 671 
Q 2716 934 2816 1459 
L 3213 3500 
L 3788 3500 
L 3266 809 
Q 3253 750 3248 706 
Q 3244 663 3244 628 
Q 3244 531 3283 486 
Q 3322 441 3406 441 
Q 3438 441 3492 456 
Q 3547 472 3647 513 
L 3559 50 
Q 3422 -19 3297 -55 
Q 3172 -91 3053 -91 
Q 2847 -91 2730 40 
Q 2613 172 2613 403 
Q 2438 153 2195 31 
Q 1953 -91 1625 -91 
Q 1334 -91 1117 43 
Q 900 178 831 397 
L 494 -1331 
L -84 -1331 
z
" transform="scale(0.015625)"/>
      <path id="DejaVuSans-2c" d="M 750 794 
L 1409 794 
L 1409 256 
L 897 -744 
L 494 -744 
L 750 256 
L 750 794 
z
" transform="scale(0.015625)"/>
      <path id="DejaVuSans-Oblique-3c3" d="M 2219 3044 
Q 1744 3044 1422 2700 
Q 1081 2341 969 1747 
Q 844 1119 1044 756 
Q 1241 397 1706 397 
Q 2166 397 2503 759 
Q 2844 1122 2966 1747 
Q 3075 2319 2881 2700 
Q 2700 3044 2219 3044 
z
M 2309 3503 
L 4219 3500 
L 4106 2925 
L 3463 2925 
Q 3706 2438 3575 1747 
Q 3406 888 2884 400 
Q 2359 -91 1609 -91 
Q 856 -91 525 400 
Q 194 888 363 1747 
Q 528 2609 1050 3097 
Q 1484 3503 2309 3503 
z
" transform="scale(0.015625)"/>
      <path id="DejaVuSans-2f" d="M 1625 4666 
L 2156 4666 
L 531 -594 
L 0 -594 
L 1625 4666 
z
" transform="scale(0.015625)"/>
      <path id="DejaVuSans-Oblique-6e" d="M 3566 2113 
L 3156 0 
L 2578 0 
L 2988 2091 
Q 3016 2238 3031 2350 
Q 3047 2463 3047 2528 
Q 3047 2791 2881 2937 
Q 2716 3084 2419 3084 
Q 1956 3084 1622 2776 
Q 1288 2469 1184 1941 
L 800 0 
L 225 0 
L 903 3500 
L 1478 3500 
L 1363 2950 
Q 1603 3253 1940 3418 
Q 2278 3584 2650 3584 
Q 3113 3584 3367 3334 
Q 3622 3084 3622 2631 
Q 3622 2519 3608 2391 
Q 3594 2263 3566 2113 
z
" transform="scale(0.015625)"/>
      <path id="DejaVuSans-29" d="M 513 4856 
L 1013 4856 
Q 1481 4119 1714 3412 
Q 1947 2706 1947 2009 
Q 1947 1309 1714 600 
Q 1481 -109 1013 -844 
L 513 -844 
Q 928 -128 1133 580 
Q 1338 1288 1338 2009 
Q 1338 2731 1133 3434 
Q 928 4138 513 4856 
z
" transform="scale(0.015625)"/>
     </defs>
     <use xlink:href="#DejaVuSans-Oblique-78" transform="translate(0 1.265625)"/>
     <use xlink:href="#DejaVuSans-20" transform="translate(59.179688 0.765625)"/>
     <use xlink:href="#DejaVuSans-3d" transform="translate(90.966797 0.765625)"/>
     <use xlink:href="#DejaVuSans-20" transform="translate(174.755859 0.765625)"/>
     <use xlink:href="#DejaVuSans-Oblique-4e" transform="translate(206.542969 0.765625)"/>
     <use xlink:href="#DejaVuSans-28" transform="translate(281.347656 0.765625)"/>
     <use xlink:href="#DejaVuSans-Oblique-3bc" transform="translate(320.361328 0.765625)"/>
     <use xlink:href="#DejaVuSans-2c" transform="translate(383.984375 0.765625)"/>
     <use xlink:href="#DejaVuSans-Oblique-3c3" transform="translate(435.253906 0.765625)"/>
     <use xlink:href="#DejaVuSans-32" transform="translate(503.105521 39.046875) scale(0.7)"/>
     <use xlink:href="#DejaVuSans-2f" transform="translate(550.376029 0.765625)"/>
     <use xlink:href="#DejaVuSans-Oblique-6e" transform="translate(584.067435 0.765625)"/>
     <use xlink:href="#DejaVuSans-29" transform="translate(647.446341 0.765625)"/>
     <path d="M 0 67.703125 
L 0 73.953125 
L 59.179688 73.953125 
L 59.179688 67.703125 
L 0 67.703125 
z
"/>
    </g>
   </g>
   <g id="text_16">
    <!--  $\mu=2$ -->
    <g transform="translate(236.16 50.3424) scale(0.1 -0.1)">
     <use xlink:href="#DejaVuSans-20" transform="translate(0 0.78125)"/>
     <use xlink:href="#DejaVuSans-Oblique-3bc" transform="translate(31.787109 0.78125)"/>
     <use xlink:href="#DejaVuSans-3d" transform="translate(114.892578 0.78125)"/>
     <use xlink:href="#DejaVuSans-32" transform="translate(218.164062 0.78125)"/>
    </g>
   </g>
   <g id="legend_1">
    <g id="patch_8">
     <path d="M 373.91 384.9008 
Q 375.91 384.9008 375.91 382.9008 
Q 375.91 352.5008 373.91 352.5008 
Q 96.41 352.5008 96.41 354.5008 
Q 96.41 384.9008 98.41 384.9008 
" style="fill: none; opacity: 0"/>
    </g>
    <g id="patch_9">
     <path d="M 100.41 364.1008 
L 120.41 364.1008 
L 120.41 357.1008 
L 100.41 357.1008 
z
" style="fill: #ff0000; stroke: #ff0000; stroke-linejoin: miter"/>
    </g>
    <g id="text_17">
     <!-- rejection region for $H_0$: $\mu=2$. Area = $\alpha$ = 0.0047 -->
     <g transform="translate(128.41 364.1008) scale(0.1 -0.1)">
      <defs>
       <path id="DejaVuSans-6a" d="M 603 3500 
L 1178 3500 
L 1178 -63 
Q 1178 -731 923 -1031 
Q 669 -1331 103 -1331 
L -116 -1331 
L -116 -844 
L 38 -844 
Q 366 -844 484 -692 
Q 603 -541 603 -63 
L 603 3500 
z
M 603 4863 
L 1178 4863 
L 1178 4134 
L 603 4134 
L 603 4863 
z
" transform="scale(0.015625)"/>
       <path id="DejaVuSans-63" d="M 3122 3366 
L 3122 2828 
Q 2878 2963 2633 3030 
Q 2388 3097 2138 3097 
Q 1578 3097 1268 2742 
Q 959 2388 959 1747 
Q 959 1106 1268 751 
Q 1578 397 2138 397 
Q 2388 397 2633 464 
Q 2878 531 3122 666 
L 3122 134 
Q 2881 22 2623 -34 
Q 2366 -91 2075 -91 
Q 1284 -91 818 406 
Q 353 903 353 1747 
Q 353 2603 823 3093 
Q 1294 3584 2113 3584 
Q 2378 3584 2631 3529 
Q 2884 3475 3122 3366 
z
" transform="scale(0.015625)"/>
       <path id="DejaVuSans-Oblique-48" d="M 1081 4666 
L 1716 4666 
L 1344 2753 
L 3634 2753 
L 4006 4666 
L 4641 4666 
L 3731 0 
L 3097 0 
L 3531 2222 
L 1241 2222 
L 806 0 
L 172 0 
L 1081 4666 
z
" transform="scale(0.015625)"/>
       <path id="DejaVuSans-3a" d="M 750 794 
L 1409 794 
L 1409 0 
L 750 0 
L 750 794 
z
M 750 3309 
L 1409 3309 
L 1409 2516 
L 750 2516 
L 750 3309 
z
" transform="scale(0.015625)"/>
       <path id="DejaVuSans-41" d="M 2188 4044 
L 1331 1722 
L 3047 1722 
L 2188 4044 
z
M 1831 4666 
L 2547 4666 
L 4325 0 
L 3669 0 
L 3244 1197 
L 1141 1197 
L 716 0 
L 50 0 
L 1831 4666 
z
" transform="scale(0.015625)"/>
       <path id="DejaVuSans-Oblique-3b1" d="M 2619 1628 
L 2622 2350 
Q 2625 3088 2069 3091 
Q 1653 3094 1394 2747 
Q 1069 2319 959 1747 
Q 825 1059 994 731 
Q 1169 397 1547 397 
Q 1966 397 2319 1063 
L 2619 1628 
z
M 2166 3578 
Q 3141 3594 3128 2584 
Q 3128 2584 3616 3500 
L 4128 3500 
L 3119 1603 
L 3109 919 
Q 3109 766 3194 638 
Q 3291 488 3391 488 
L 3669 488 
L 3575 0 
L 3228 0 
Q 2934 0 2722 263 
Q 2622 394 2619 669 
Q 2416 334 2066 50 
Q 1900 -81 1453 -78 
Q 722 -72 456 397 
Q 184 884 353 1747 
Q 534 2675 1009 3097 
Q 1544 3569 2166 3578 
z
" transform="scale(0.015625)"/>
       <path id="DejaVuSans-37" d="M 525 4666 
L 3525 4666 
L 3525 4397 
L 1831 0 
L 1172 0 
L 2766 4134 
L 525 4134 
L 525 4666 
z
" transform="scale(0.015625)"/>
      </defs>
      <use xlink:href="#DejaVuSans-72" transform="translate(0 0.015625)"/>
      <use xlink:href="#DejaVuSans-65" transform="translate(41.113281 0.015625)"/>
      <use xlink:href="#DejaVuSans-6a" transform="translate(102.636719 0.015625)"/>
      <use xlink:href="#DejaVuSans-65" transform="translate(130.419922 0.015625)"/>
      <use xlink:href="#DejaVuSans-63" transform="translate(191.943359 0.015625)"/>
      <use xlink:href="#DejaVuSans-74" transform="translate(246.923828 0.015625)"/>
      <use xlink:href="#DejaVuSans-69" transform="translate(286.132812 0.015625)"/>
      <use xlink:href="#DejaVuSans-6f" transform="translate(313.916016 0.015625)"/>
      <use xlink:href="#DejaVuSans-6e" transform="translate(375.097656 0.015625)"/>
      <use xlink:href="#DejaVuSans-20" transform="translate(438.476562 0.015625)"/>
      <use xlink:href="#DejaVuSans-72" transform="translate(470.263672 0.015625)"/>
      <use xlink:href="#DejaVuSans-65" transform="translate(511.376953 0.015625)"/>
      <use xlink:href="#DejaVuSans-67" transform="translate(572.900391 0.015625)"/>
      <use xlink:href="#DejaVuSans-69" transform="translate(636.376953 0.015625)"/>
      <use xlink:href="#DejaVuSans-6f" transform="translate(664.160156 0.015625)"/>
      <use xlink:href="#DejaVuSans-6e" transform="translate(725.341797 0.015625)"/>
      <use xlink:href="#DejaVuSans-20" transform="translate(788.720703 0.015625)"/>
      <use xlink:href="#DejaVuSans-66" transform="translate(820.507812 0.015625)"/>
      <use xlink:href="#DejaVuSans-6f" transform="translate(855.712891 0.015625)"/>
      <use xlink:href="#DejaVuSans-72" transform="translate(916.894531 0.015625)"/>
      <use xlink:href="#DejaVuSans-20" transform="translate(958.007812 0.015625)"/>
      <use xlink:href="#DejaVuSans-Oblique-48" transform="translate(989.794922 0.015625)"/>
      <use xlink:href="#DejaVuSans-30" transform="translate(1064.990234 -16.390625) scale(0.7)"/>
      <use xlink:href="#DejaVuSans-3a" transform="translate(1112.260742 0.015625)"/>
      <use xlink:href="#DejaVuSans-20" transform="translate(1145.952148 0.015625)"/>
      <use xlink:href="#DejaVuSans-Oblique-3bc" transform="translate(1177.739258 0.015625)"/>
      <use xlink:href="#DejaVuSans-3d" transform="translate(1260.844727 0.015625)"/>
      <use xlink:href="#DejaVuSans-32" transform="translate(1364.116211 0.015625)"/>
      <use xlink:href="#DejaVuSans-2e" transform="translate(1427.739258 0.015625)"/>
      <use xlink:href="#DejaVuSans-20" transform="translate(1459.526367 0.015625)"/>
      <use xlink:href="#DejaVuSans-41" transform="translate(1491.313477 0.015625)"/>
      <use xlink:href="#DejaVuSans-72" transform="translate(1559.72168 0.015625)"/>
      <use xlink:href="#DejaVuSans-65" transform="translate(1600.834961 0.015625)"/>
      <use xlink:href="#DejaVuSans-61" transform="translate(1662.358398 0.015625)"/>
      <use xlink:href="#DejaVuSans-20" transform="translate(1723.637695 0.015625)"/>
      <use xlink:href="#DejaVuSans-3d" transform="translate(1755.424805 0.015625)"/>
      <use xlink:href="#DejaVuSans-20" transform="translate(1839.213867 0.015625)"/>
      <use xlink:href="#DejaVuSans-Oblique-3b1" transform="translate(1871.000977 0.015625)"/>
      <use xlink:href="#DejaVuSans-20" transform="translate(1936.918945 0.015625)"/>
      <use xlink:href="#DejaVuSans-3d" transform="translate(1968.706055 0.015625)"/>
      <use xlink:href="#DejaVuSans-20" transform="translate(2052.495117 0.015625)"/>
      <use xlink:href="#DejaVuSans-30" transform="translate(2084.282227 0.015625)"/>
      <use xlink:href="#DejaVuSans-2e" transform="translate(2147.905273 0.015625)"/>
      <use xlink:href="#DejaVuSans-30" transform="translate(2179.692383 0.015625)"/>
      <use xlink:href="#DejaVuSans-30" transform="translate(2243.31543 0.015625)"/>
      <use xlink:href="#DejaVuSans-34" transform="translate(2306.938477 0.015625)"/>
      <use xlink:href="#DejaVuSans-37" transform="translate(2370.561523 0.015625)"/>
     </g>
    </g>
    <g id="patch_10">
     <path d="M 100.41 378.8008 
L 120.41 378.8008 
L 120.41 371.8008 
L 100.41 371.8008 
z
" style="fill: #008000; fill-opacity: 0.5; stroke: #008000; stroke-opacity: 0.5; stroke-linejoin: miter"/>
    </g>
    <g id="text_18">
     <!-- non-rejection region for $H_0$. Area = $1-\alpha$ -->
     <g transform="translate(128.41 378.8008) scale(0.1 -0.1)">
      <defs>
       <path id="DejaVuSans-2d" d="M 313 2009 
L 1997 2009 
L 1997 1497 
L 313 1497 
L 313 2009 
z
" transform="scale(0.015625)"/>
       <path id="DejaVuSans-2212" d="M 678 2272 
L 4684 2272 
L 4684 1741 
L 678 1741 
L 678 2272 
z
" transform="scale(0.015625)"/>
      </defs>
      <use xlink:href="#DejaVuSans-6e" transform="translate(0 0.015625)"/>
      <use xlink:href="#DejaVuSans-6f" transform="translate(63.378906 0.015625)"/>
      <use xlink:href="#DejaVuSans-6e" transform="translate(124.560547 0.015625)"/>
      <use xlink:href="#DejaVuSans-2d" transform="translate(187.939453 0.015625)"/>
      <use xlink:href="#DejaVuSans-72" transform="translate(224.023438 0.015625)"/>
      <use xlink:href="#DejaVuSans-65" transform="translate(265.136719 0.015625)"/>
      <use xlink:href="#DejaVuSans-6a" transform="translate(326.660156 0.015625)"/>
      <use xlink:href="#DejaVuSans-65" transform="translate(354.443359 0.015625)"/>
      <use xlink:href="#DejaVuSans-63" transform="translate(415.966797 0.015625)"/>
      <use xlink:href="#DejaVuSans-74" transform="translate(470.947266 0.015625)"/>
      <use xlink:href="#DejaVuSans-69" transform="translate(510.15625 0.015625)"/>
      <use xlink:href="#DejaVuSans-6f" transform="translate(537.939453 0.015625)"/>
      <use xlink:href="#DejaVuSans-6e" transform="translate(599.121094 0.015625)"/>
      <use xlink:href="#DejaVuSans-20" transform="translate(662.5 0.015625)"/>
      <use xlink:href="#DejaVuSans-72" transform="translate(694.287109 0.015625)"/>
      <use xlink:href="#DejaVuSans-65" transform="translate(735.400391 0.015625)"/>
      <use xlink:href="#DejaVuSans-67" transform="translate(796.923828 0.015625)"/>
      <use xlink:href="#DejaVuSans-69" transform="translate(860.400391 0.015625)"/>
      <use xlink:href="#DejaVuSans-6f" transform="translate(888.183594 0.015625)"/>
      <use xlink:href="#DejaVuSans-6e" transform="translate(949.365234 0.015625)"/>
      <use xlink:href="#DejaVuSans-20" transform="translate(1012.744141 0.015625)"/>
      <use xlink:href="#DejaVuSans-66" transform="translate(1044.53125 0.015625)"/>
      <use xlink:href="#DejaVuSans-6f" transform="translate(1079.736328 0.015625)"/>
      <use xlink:href="#DejaVuSans-72" transform="translate(1140.917969 0.015625)"/>
      <use xlink:href="#DejaVuSans-20" transform="translate(1182.03125 0.015625)"/>
      <use xlink:href="#DejaVuSans-Oblique-48" transform="translate(1213.818359 0.015625)"/>
      <use xlink:href="#DejaVuSans-30" transform="translate(1289.013672 -16.390625) scale(0.7)"/>
      <use xlink:href="#DejaVuSans-2e" transform="translate(1336.28418 0.015625)"/>
      <use xlink:href="#DejaVuSans-20" transform="translate(1368.071289 0.015625)"/>
      <use xlink:href="#DejaVuSans-41" transform="translate(1399.858398 0.015625)"/>
      <use xlink:href="#DejaVuSans-72" transform="translate(1468.266602 0.015625)"/>
      <use xlink:href="#DejaVuSans-65" transform="translate(1509.379883 0.015625)"/>
      <use xlink:href="#DejaVuSans-61" transform="translate(1570.90332 0.015625)"/>
      <use xlink:href="#DejaVuSans-20" transform="translate(1632.182617 0.015625)"/>
      <use xlink:href="#DejaVuSans-3d" transform="translate(1663.969727 0.015625)"/>
      <use xlink:href="#DejaVuSans-20" transform="translate(1747.758789 0.015625)"/>
      <use xlink:href="#DejaVuSans-31" transform="translate(1779.545898 0.015625)"/>
      <use xlink:href="#DejaVuSans-2212" transform="translate(1862.651367 0.015625)"/>
      <use xlink:href="#DejaVuSans-Oblique-3b1" transform="translate(1965.922852 0.015625)"/>
     </g>
    </g>
   </g>
  </g>
 </g>
 <defs>
  <clipPath id="pcc03a76e76">
   <rect x="57.6" y="41.472" width="357.12" height="266.112"/>
  </clipPath>
 </defs>
</svg>
