<?xml version="1.0" encoding="utf-8" standalone="no"?>
<!DOCTYPE svg PUBLIC "-//W3C//DTD SVG 1.1//EN"
  "http://www.w3.org/Graphics/SVG/1.1/DTD/svg11.dtd">
<svg xmlns:xlink="http://www.w3.org/1999/xlink" width="460.8pt" height="345.6pt" viewBox="0 0 460.8 345.6" xmlns="http://www.w3.org/2000/svg" version="1.1">
 <metadata>
  <rdf:RDF xmlns:dc="http://purl.org/dc/elements/1.1/" xmlns:cc="http://creativecommons.org/ns#" xmlns:rdf="http://www.w3.org/1999/02/22-rdf-syntax-ns#">
   <cc:Work>
    <dc:type rdf:resource="http://purl.org/dc/dcmitype/StillImage"/>
    <dc:date>2025-03-08T20:49:18.109876</dc:date>
    <dc:format>image/svg+xml</dc:format>
    <dc:creator>
     <cc:Agent>
      <dc:title>Matplotlib v3.5.2, https://matplotlib.org/</dc:title>
     </cc:Agent>
    </dc:creator>
   </cc:Work>
  </rdf:RDF>
 </metadata>
 <defs>
  <style type="text/css">*{stroke-linejoin: round; stroke-linecap: butt}</style>
 </defs>
 <g id="figure_1">
  <g id="patch_1">
   <path d="M 0 345.6 
L 460.8 345.6 
L 460.8 0 
L 0 0 
L 0 345.6 
z
" style="fill: none"/>
  </g>
  <g id="axes_1">
   <g id="patch_2">
    <path d="M 57.6 307.584 
L 414.72 307.584 
L 414.72 41.472 
L 57.6 41.472 
L 57.6 307.584 
z
" style="fill: none"/>
   </g>
   <g id="PolyCollection_1">
    <defs>
     <path id="m4617d1f2db" d="M 34.142421 -38.016 
L 34.142421 -38.094696 
L 34.546861 -38.097255 
L 34.9513 -38.099892 
L 35.35574 -38.102609 
L 35.760179 -38.105408 
L 36.164619 -38.108292 
L 36.569059 -38.111262 
L 36.973498 -38.114322 
L 37.377938 -38.117474 
L 37.782377 -38.12072 
L 38.186817 -38.124062 
L 38.591257 -38.127505 
L 38.995696 -38.131049 
L 39.400136 -38.134699 
L 39.804575 -38.138457 
L 40.209015 -38.142325 
L 40.613455 -38.146308 
L 41.017894 -38.150407 
L 41.422334 -38.154626 
L 41.826773 -38.158969 
L 42.231213 -38.163438 
L 42.635653 -38.168037 
L 43.040092 -38.17277 
L 43.444532 -38.17764 
L 43.848971 -38.18265 
L 44.253411 -38.187804 
L 44.657851 -38.193107 
L 45.06229 -38.198561 
L 45.46673 -38.204171 
L 45.871169 -38.209942 
L 46.275609 -38.215876 
L 46.680049 -38.221979 
L 47.084488 -38.228255 
L 47.488928 -38.234707 
L 47.893367 -38.241342 
L 48.297807 -38.248162 
L 48.702247 -38.255174 
L 49.106686 -38.262382 
L 49.511126 -38.269791 
L 49.915565 -38.277406 
L 50.320005 -38.285232 
L 50.724445 -38.293275 
L 51.128884 -38.301539 
L 51.533324 -38.310031 
L 51.937763 -38.318756 
L 52.342203 -38.32772 
L 52.746643 -38.336929 
L 53.151082 -38.346389 
L 53.555522 -38.356106 
L 53.959961 -38.366086 
L 54.364401 -38.376336 
L 54.768841 -38.386862 
L 55.17328 -38.397671 
L 55.57772 -38.40877 
L 55.982159 -38.420166 
L 56.386599 -38.431866 
L 56.791039 -38.443877 
L 57.195478 -38.456207 
L 57.599918 -38.468863 
L 58.004357 -38.481853 
L 58.408797 -38.495185 
L 58.813236 -38.508866 
L 59.217676 -38.522906 
L 59.622116 -38.537313 
L 60.026555 -38.552094 
L 60.430995 -38.56726 
L 60.835434 -38.582818 
L 61.239874 -38.598777 
L 61.644314 -38.615148 
L 62.048753 -38.631939 
L 62.453193 -38.64916 
L 62.857632 -38.666821 
L 63.262072 -38.684931 
L 63.666512 -38.703501 
L 64.070951 -38.722542 
L 64.475391 -38.742063 
L 64.87983 -38.762076 
L 65.28427 -38.782591 
L 65.68871 -38.80362 
L 66.093149 -38.825173 
L 66.497589 -38.847264 
L 66.902028 -38.869902 
L 67.306468 -38.893101 
L 67.710908 -38.916873 
L 68.115347 -38.941229 
L 68.519787 -38.966183 
L 68.924226 -38.991747 
L 69.328666 -39.017935 
L 69.733106 -39.04476 
L 70.137545 -39.072235 
L 70.541985 -39.100374 
L 70.946424 -39.129192 
L 71.350864 -39.158702 
L 71.755304 -39.18892 
L 72.159743 -39.219859 
L 72.564183 -39.251535 
L 72.968622 -39.283963 
L 73.373062 -39.317159 
L 73.777502 -39.351138 
L 74.181941 -39.385917 
L 74.586381 -39.421512 
L 74.99082 -39.457939 
L 75.39526 -39.495215 
L 75.7997 -39.533358 
L 76.204139 -39.572384 
L 76.608579 -39.612312 
L 77.013018 -39.653159 
L 77.417458 -39.694944 
L 77.821898 -39.737685 
L 78.226337 -39.7814 
L 78.630777 -39.82611 
L 79.035216 -39.871832 
L 79.439656 -39.918588 
L 79.844096 -39.966396 
L 80.248535 -40.015278 
L 80.652975 -40.065253 
L 81.057414 -40.116343 
L 81.461854 -40.168568 
L 81.866294 -40.221951 
L 82.270733 -40.276513 
L 82.675173 -40.332275 
L 83.079612 -40.389261 
L 83.484052 -40.447493 
L 83.888492 -40.506994 
L 84.292931 -40.567787 
L 84.697371 -40.629896 
L 85.10181 -40.693346 
L 85.50625 -40.758159 
L 85.91069 -40.824362 
L 86.315129 -40.891978 
L 86.719569 -40.961034 
L 87.124008 -41.031554 
L 87.528448 -41.103565 
L 87.932888 -41.177093 
L 88.337327 -41.252164 
L 88.741767 -41.328806 
L 89.146206 -41.407045 
L 89.550646 -41.48691 
L 89.955085 -41.568428 
L 90.359525 -41.651627 
L 90.763965 -41.736536 
L 91.168404 -41.823183 
L 91.572844 -41.911599 
L 91.977283 -42.001813 
L 92.381723 -42.093854 
L 92.786163 -42.187754 
L 93.190602 -42.283541 
L 93.190602 -38.016 
L 93.190602 -38.016 
L 92.786163 -38.016 
L 92.381723 -38.016 
L 91.977283 -38.016 
L 91.572844 -38.016 
L 91.168404 -38.016 
L 90.763965 -38.016 
L 90.359525 -38.016 
L 89.955085 -38.016 
L 89.550646 -38.016 
L 89.146206 -38.016 
L 88.741767 -38.016 
L 88.337327 -38.016 
L 87.932888 -38.016 
L 87.528448 -38.016 
L 87.124008 -38.016 
L 86.719569 -38.016 
L 86.315129 -38.016 
L 85.91069 -38.016 
L 85.50625 -38.016 
L 85.10181 -38.016 
L 84.697371 -38.016 
L 84.292931 -38.016 
L 83.888492 -38.016 
L 83.484052 -38.016 
L 83.079612 -38.016 
L 82.675173 -38.016 
L 82.270733 -38.016 
L 81.866294 -38.016 
L 81.461854 -38.016 
L 81.057414 -38.016 
L 80.652975 -38.016 
L 80.248535 -38.016 
L 79.844096 -38.016 
L 79.439656 -38.016 
L 79.035216 -38.016 
L 78.630777 -38.016 
L 78.226337 -38.016 
L 77.821898 -38.016 
L 77.417458 -38.016 
L 77.013018 -38.016 
L 76.608579 -38.016 
L 76.204139 -38.016 
L 75.7997 -38.016 
L 75.39526 -38.016 
L 74.99082 -38.016 
L 74.586381 -38.016 
L 74.181941 -38.016 
L 73.777502 -38.016 
L 73.373062 -38.016 
L 72.968622 -38.016 
L 72.564183 -38.016 
L 72.159743 -38.016 
L 71.755304 -38.016 
L 71.350864 -38.016 
L 70.946424 -38.016 
L 70.541985 -38.016 
L 70.137545 -38.016 
L 69.733106 -38.016 
L 69.328666 -38.016 
L 68.924226 -38.016 
L 68.519787 -38.016 
L 68.115347 -38.016 
L 67.710908 -38.016 
L 67.306468 -38.016 
L 66.902028 -38.016 
L 66.497589 -38.016 
L 66.093149 -38.016 
L 65.68871 -38.016 
L 65.28427 -38.016 
L 64.87983 -38.016 
L 64.475391 -38.016 
L 64.070951 -38.016 
L 63.666512 -38.016 
L 63.262072 -38.016 
L 62.857632 -38.016 
L 62.453193 -38.016 
L 62.048753 -38.016 
L 61.644314 -38.016 
L 61.239874 -38.016 
L 60.835434 -38.016 
L 60.430995 -38.016 
L 60.026555 -38.016 
L 59.622116 -38.016 
L 59.217676 -38.016 
L 58.813236 -38.016 
L 58.408797 -38.016 
L 58.004357 -38.016 
L 57.599918 -38.016 
L 57.195478 -38.016 
L 56.791039 -38.016 
L 56.386599 -38.016 
L 55.982159 -38.016 
L 55.57772 -38.016 
L 55.17328 -38.016 
L 54.768841 -38.016 
L 54.364401 -38.016 
L 53.959961 -38.016 
L 53.555522 -38.016 
L 53.151082 -38.016 
L 52.746643 -38.016 
L 52.342203 -38.016 
L 51.937763 -38.016 
L 51.533324 -38.016 
L 51.128884 -38.016 
L 50.724445 -38.016 
L 50.320005 -38.016 
L 49.915565 -38.016 
L 49.511126 -38.016 
L 49.106686 -38.016 
L 48.702247 -38.016 
L 48.297807 -38.016 
L 47.893367 -38.016 
L 47.488928 -38.016 
L 47.084488 -38.016 
L 46.680049 -38.016 
L 46.275609 -38.016 
L 45.871169 -38.016 
L 45.46673 -38.016 
L 45.06229 -38.016 
L 44.657851 -38.016 
L 44.253411 -38.016 
L 43.848971 -38.016 
L 43.444532 -38.016 
L 43.040092 -38.016 
L 42.635653 -38.016 
L 42.231213 -38.016 
L 41.826773 -38.016 
L 41.422334 -38.016 
L 41.017894 -38.016 
L 40.613455 -38.016 
L 40.209015 -38.016 
L 39.804575 -38.016 
L 39.400136 -38.016 
L 38.995696 -38.016 
L 38.591257 -38.016 
L 38.186817 -38.016 
L 37.782377 -38.016 
L 37.377938 -38.016 
L 36.973498 -38.016 
L 36.569059 -38.016 
L 36.164619 -38.016 
L 35.760179 -38.016 
L 35.35574 -38.016 
L 34.9513 -38.016 
L 34.546861 -38.016 
L 34.142421 -38.016 
z
" style="stroke: #ff0000"/>
    </defs>
    <g clip-path="url(#pd8ff85276e)">
     <use xlink:href="#m4617d1f2db" x="0" y="345.6" style="fill: #ff0000; stroke: #ff0000"/>
    </g>
   </g>
   <g id="PolyCollection_2">
    <defs>
     <path id="m955ad2fdae" d="M 379.129398 -38.016 
L 379.129398 -42.283541 
L 379.533837 -42.187754 
L 379.938277 -42.093854 
L 380.342717 -42.001813 
L 380.747156 -41.911599 
L 381.151596 -41.823183 
L 381.556035 -41.736536 
L 381.960475 -41.651627 
L 382.364915 -41.568428 
L 382.769354 -41.48691 
L 383.173794 -41.407045 
L 383.578233 -41.328806 
L 383.982673 -41.252164 
L 384.387112 -41.177093 
L 384.791552 -41.103565 
L 385.195992 -41.031554 
L 385.600431 -40.961034 
L 386.004871 -40.891978 
L 386.40931 -40.824362 
L 386.81375 -40.758159 
L 387.21819 -40.693346 
L 387.622629 -40.629896 
L 388.027069 -40.567787 
L 388.431508 -40.506994 
L 388.835948 -40.447493 
L 389.240388 -40.389261 
L 389.644827 -40.332275 
L 390.049267 -40.276513 
L 390.453706 -40.221951 
L 390.858146 -40.168568 
L 391.262586 -40.116343 
L 391.667025 -40.065253 
L 392.071465 -40.015278 
L 392.475904 -39.966396 
L 392.880344 -39.918588 
L 393.284784 -39.871832 
L 393.689223 -39.82611 
L 394.093663 -39.7814 
L 394.498102 -39.737685 
L 394.902542 -39.694944 
L 395.306982 -39.653159 
L 395.711421 -39.612312 
L 396.115861 -39.572384 
L 396.5203 -39.533358 
L 396.92474 -39.495215 
L 397.32918 -39.457939 
L 397.733619 -39.421512 
L 398.138059 -39.385917 
L 398.542498 -39.351138 
L 398.946938 -39.317159 
L 399.351378 -39.283963 
L 399.755817 -39.251535 
L 400.160257 -39.219859 
L 400.564696 -39.18892 
L 400.969136 -39.158702 
L 401.373576 -39.129192 
L 401.778015 -39.100374 
L 402.182455 -39.072235 
L 402.586894 -39.04476 
L 402.991334 -39.017935 
L 403.395774 -38.991747 
L 403.800213 -38.966183 
L 404.204653 -38.941229 
L 404.609092 -38.916873 
L 405.013532 -38.893101 
L 405.417972 -38.869902 
L 405.822411 -38.847264 
L 406.226851 -38.825173 
L 406.63129 -38.80362 
L 407.03573 -38.782591 
L 407.44017 -38.762076 
L 407.844609 -38.742063 
L 408.249049 -38.722542 
L 408.653488 -38.703501 
L 409.057928 -38.684931 
L 409.462368 -38.666821 
L 409.866807 -38.64916 
L 410.271247 -38.631939 
L 410.675686 -38.615148 
L 411.080126 -38.598777 
L 411.484566 -38.582818 
L 411.889005 -38.56726 
L 412.293445 -38.552094 
L 412.697884 -38.537313 
L 413.102324 -38.522906 
L 413.506764 -38.508866 
L 413.911203 -38.495185 
L 414.315643 -38.481853 
L 414.720082 -38.468863 
L 415.124522 -38.456207 
L 415.528961 -38.443877 
L 415.933401 -38.431866 
L 416.337841 -38.420166 
L 416.74228 -38.40877 
L 417.14672 -38.397671 
L 417.551159 -38.386862 
L 417.955599 -38.376336 
L 418.360039 -38.366086 
L 418.764478 -38.356106 
L 419.168918 -38.346389 
L 419.573357 -38.336929 
L 419.977797 -38.32772 
L 420.382237 -38.318756 
L 420.786676 -38.310031 
L 421.191116 -38.301539 
L 421.595555 -38.293275 
L 421.999995 -38.285232 
L 422.404435 -38.277406 
L 422.808874 -38.269791 
L 423.213314 -38.262382 
L 423.617753 -38.255174 
L 424.022193 -38.248162 
L 424.426633 -38.241342 
L 424.831072 -38.234707 
L 425.235512 -38.228255 
L 425.639951 -38.221979 
L 426.044391 -38.215876 
L 426.448831 -38.209942 
L 426.85327 -38.204171 
L 427.25771 -38.198561 
L 427.662149 -38.193107 
L 428.066589 -38.187804 
L 428.471029 -38.18265 
L 428.875468 -38.17764 
L 429.279908 -38.17277 
L 429.684347 -38.168037 
L 430.088787 -38.163438 
L 430.493227 -38.158969 
L 430.897666 -38.154626 
L 431.302106 -38.150407 
L 431.706545 -38.146308 
L 432.110985 -38.142325 
L 432.515425 -38.138457 
L 432.919864 -38.134699 
L 433.324304 -38.131049 
L 433.728743 -38.127505 
L 434.133183 -38.124062 
L 434.537623 -38.12072 
L 434.942062 -38.117474 
L 435.346502 -38.114322 
L 435.750941 -38.111262 
L 436.155381 -38.108292 
L 436.559821 -38.105408 
L 436.96426 -38.102609 
L 437.3687 -38.099892 
L 437.773139 -38.097255 
L 438.177579 -38.094696 
L 438.177579 -38.016 
L 438.177579 -38.016 
L 437.773139 -38.016 
L 437.3687 -38.016 
L 436.96426 -38.016 
L 436.559821 -38.016 
L 436.155381 -38.016 
L 435.750941 -38.016 
L 435.346502 -38.016 
L 434.942062 -38.016 
L 434.537623 -38.016 
L 434.133183 -38.016 
L 433.728743 -38.016 
L 433.324304 -38.016 
L 432.919864 -38.016 
L 432.515425 -38.016 
L 432.110985 -38.016 
L 431.706545 -38.016 
L 431.302106 -38.016 
L 430.897666 -38.016 
L 430.493227 -38.016 
L 430.088787 -38.016 
L 429.684347 -38.016 
L 429.279908 -38.016 
L 428.875468 -38.016 
L 428.471029 -38.016 
L 428.066589 -38.016 
L 427.662149 -38.016 
L 427.25771 -38.016 
L 426.85327 -38.016 
L 426.448831 -38.016 
L 426.044391 -38.016 
L 425.639951 -38.016 
L 425.235512 -38.016 
L 424.831072 -38.016 
L 424.426633 -38.016 
L 424.022193 -38.016 
L 423.617753 -38.016 
L 423.213314 -38.016 
L 422.808874 -38.016 
L 422.404435 -38.016 
L 421.999995 -38.016 
L 421.595555 -38.016 
L 421.191116 -38.016 
L 420.786676 -38.016 
L 420.382237 -38.016 
L 419.977797 -38.016 
L 419.573357 -38.016 
L 419.168918 -38.016 
L 418.764478 -38.016 
L 418.360039 -38.016 
L 417.955599 -38.016 
L 417.551159 -38.016 
L 417.14672 -38.016 
L 416.74228 -38.016 
L 416.337841 -38.016 
L 415.933401 -38.016 
L 415.528961 -38.016 
L 415.124522 -38.016 
L 414.720082 -38.016 
L 414.315643 -38.016 
L 413.911203 -38.016 
L 413.506764 -38.016 
L 413.102324 -38.016 
L 412.697884 -38.016 
L 412.293445 -38.016 
L 411.889005 -38.016 
L 411.484566 -38.016 
L 411.080126 -38.016 
L 410.675686 -38.016 
L 410.271247 -38.016 
L 409.866807 -38.016 
L 409.462368 -38.016 
L 409.057928 -38.016 
L 408.653488 -38.016 
L 408.249049 -38.016 
L 407.844609 -38.016 
L 407.44017 -38.016 
L 407.03573 -38.016 
L 406.63129 -38.016 
L 406.226851 -38.016 
L 405.822411 -38.016 
L 405.417972 -38.016 
L 405.013532 -38.016 
L 404.609092 -38.016 
L 404.204653 -38.016 
L 403.800213 -38.016 
L 403.395774 -38.016 
L 402.991334 -38.016 
L 402.586894 -38.016 
L 402.182455 -38.016 
L 401.778015 -38.016 
L 401.373576 -38.016 
L 400.969136 -38.016 
L 400.564696 -38.016 
L 400.160257 -38.016 
L 399.755817 -38.016 
L 399.351378 -38.016 
L 398.946938 -38.016 
L 398.542498 -38.016 
L 398.138059 -38.016 
L 397.733619 -38.016 
L 397.32918 -38.016 
L 396.92474 -38.016 
L 396.5203 -38.016 
L 396.115861 -38.016 
L 395.711421 -38.016 
L 395.306982 -38.016 
L 394.902542 -38.016 
L 394.498102 -38.016 
L 394.093663 -38.016 
L 393.689223 -38.016 
L 393.284784 -38.016 
L 392.880344 -38.016 
L 392.475904 -38.016 
L 392.071465 -38.016 
L 391.667025 -38.016 
L 391.262586 -38.016 
L 390.858146 -38.016 
L 390.453706 -38.016 
L 390.049267 -38.016 
L 389.644827 -38.016 
L 389.240388 -38.016 
L 388.835948 -38.016 
L 388.431508 -38.016 
L 388.027069 -38.016 
L 387.622629 -38.016 
L 387.21819 -38.016 
L 386.81375 -38.016 
L 386.40931 -38.016 
L 386.004871 -38.016 
L 385.600431 -38.016 
L 385.195992 -38.016 
L 384.791552 -38.016 
L 384.387112 -38.016 
L 383.982673 -38.016 
L 383.578233 -38.016 
L 383.173794 -38.016 
L 382.769354 -38.016 
L 382.364915 -38.016 
L 381.960475 -38.016 
L 381.556035 -38.016 
L 381.151596 -38.016 
L 380.747156 -38.016 
L 380.342717 -38.016 
L 379.938277 -38.016 
L 379.533837 -38.016 
L 379.129398 -38.016 
z
" style="stroke: #ff0000"/>
    </defs>
    <g clip-path="url(#pd8ff85276e)">
     <use xlink:href="#m955ad2fdae" x="0" y="345.6" style="fill: #ff0000; stroke: #ff0000"/>
    </g>
   </g>
   <g id="PolyCollection_3">
    <defs>
     <path id="m25bda56cf7" d="M 93.595042 -38.016 
L 93.595042 -42.381248 
L 93.999481 -42.480906 
L 94.403921 -42.582546 
L 94.808361 -42.686201 
L 95.2128 -42.791902 
L 95.61724 -42.899682 
L 96.021679 -43.009574 
L 96.426119 -43.121612 
L 96.830559 -43.235828 
L 97.234998 -43.352258 
L 97.639438 -43.470934 
L 98.043877 -43.591893 
L 98.448317 -43.715167 
L 98.852757 -43.840794 
L 99.257196 -43.968809 
L 99.661636 -44.099246 
L 100.066075 -44.232143 
L 100.470515 -44.367537 
L 100.874955 -44.505462 
L 101.279394 -44.645958 
L 101.683834 -44.789062 
L 102.088273 -44.93481 
L 102.492713 -45.083241 
L 102.897153 -45.234394 
L 103.301592 -45.388307 
L 103.706032 -45.545019 
L 104.110471 -45.704569 
L 104.514911 -45.866996 
L 104.919351 -46.032341 
L 105.32379 -46.200643 
L 105.72823 -46.371943 
L 106.132669 -46.546281 
L 106.537109 -46.723698 
L 106.941549 -46.904235 
L 107.345988 -47.087933 
L 107.750428 -47.274834 
L 108.154867 -47.46498 
L 108.559307 -47.658412 
L 108.963747 -47.855173 
L 109.368186 -48.055305 
L 109.772626 -48.258851 
L 110.177065 -48.465854 
L 110.581505 -48.676357 
L 110.985945 -48.890403 
L 111.390384 -49.108035 
L 111.794824 -49.329297 
L 112.199263 -49.554233 
L 112.603703 -49.782886 
L 113.008143 -50.015301 
L 113.412582 -50.251522 
L 113.817022 -50.491594 
L 114.221461 -50.73556 
L 114.625901 -50.983465 
L 115.030341 -51.235354 
L 115.43478 -51.491272 
L 115.83922 -51.751264 
L 116.243659 -52.015374 
L 116.648099 -52.283647 
L 117.052539 -52.556129 
L 117.456978 -52.832865 
L 117.861418 -53.113899 
L 118.265857 -53.399277 
L 118.670297 -53.689045 
L 119.074737 -53.983246 
L 119.479176 -54.281927 
L 119.883616 -54.585133 
L 120.288055 -54.892908 
L 120.692495 -55.205297 
L 121.096935 -55.522347 
L 121.501374 -55.8441 
L 121.905814 -56.170603 
L 122.310253 -56.501901 
L 122.714693 -56.838036 
L 123.119132 -57.179055 
L 123.523572 -57.525002 
L 123.928012 -57.87592 
L 124.332451 -58.231854 
L 124.736891 -58.592847 
L 125.14133 -58.958944 
L 125.54577 -59.330187 
L 125.95021 -59.70662 
L 126.354649 -60.088285 
L 126.759089 -60.475226 
L 127.163528 -60.867485 
L 127.567968 -61.265104 
L 127.972408 -61.668125 
L 128.376847 -62.076589 
L 128.781287 -62.490537 
L 129.185726 -62.910011 
L 129.590166 -63.33505 
L 129.994606 -63.765696 
L 130.399045 -64.201986 
L 130.803485 -64.643962 
L 131.207924 -65.09166 
L 131.612364 -65.545121 
L 132.016804 -66.004381 
L 132.421243 -66.469478 
L 132.825683 -66.940449 
L 133.230122 -67.41733 
L 133.634562 -67.900157 
L 134.039002 -68.388965 
L 134.443441 -68.883789 
L 134.847881 -69.384662 
L 135.25232 -69.891619 
L 135.65676 -70.404692 
L 136.0612 -70.923913 
L 136.465639 -71.449313 
L 136.870079 -71.980924 
L 137.274518 -72.518775 
L 137.678958 -73.062895 
L 138.083398 -73.613314 
L 138.487837 -74.170058 
L 138.892277 -74.733155 
L 139.296716 -75.302632 
L 139.701156 -75.878512 
L 140.105596 -76.460822 
L 140.510035 -77.049584 
L 140.914475 -77.644821 
L 141.318914 -78.246555 
L 141.723354 -78.854806 
L 142.127794 -79.469596 
L 142.532233 -80.090943 
L 142.936673 -80.718864 
L 143.341112 -81.353377 
L 143.745552 -81.994498 
L 144.149992 -82.642241 
L 144.554431 -83.296621 
L 144.958871 -83.957651 
L 145.36331 -84.625341 
L 145.76775 -85.299703 
L 146.17219 -85.980746 
L 146.576629 -86.668477 
L 146.981069 -87.362906 
L 147.385508 -88.064036 
L 147.789948 -88.771873 
L 148.194388 -89.486421 
L 148.598827 -90.20768 
L 149.003267 -90.935654 
L 149.407706 -91.67034 
L 149.812146 -92.411737 
L 150.216586 -93.159843 
L 150.621025 -93.914652 
L 151.025465 -94.67616 
L 151.429904 -95.444359 
L 151.834344 -96.21924 
L 152.238784 -97.000795 
L 152.643223 -97.78901 
L 153.047663 -98.583875 
L 153.452102 -99.385374 
L 153.856542 -100.193492 
L 154.260982 -101.008211 
L 154.665421 -101.829514 
L 155.069861 -102.657379 
L 155.4743 -103.491786 
L 155.87874 -104.33271 
L 156.283179 -105.180127 
L 156.687619 -106.034011 
L 157.092059 -106.894333 
L 157.496498 -107.761065 
L 157.900938 -108.634174 
L 158.305377 -109.513628 
L 158.709817 -110.399392 
L 159.114257 -111.291431 
L 159.518696 -112.189706 
L 159.923136 -113.094179 
L 160.327575 -114.004807 
L 160.732015 -114.921548 
L 161.136455 -115.844358 
L 161.540894 -116.773191 
L 161.945334 -117.707997 
L 162.349773 -118.648729 
L 162.754213 -119.595333 
L 163.158653 -120.547758 
L 163.563092 -121.505948 
L 163.967532 -122.469846 
L 164.371971 -123.439395 
L 164.776411 -124.414533 
L 165.180851 -125.395199 
L 165.58529 -126.381329 
L 165.98973 -127.372858 
L 166.394169 -128.369718 
L 166.798609 -129.371841 
L 167.203049 -130.379155 
L 167.607488 -131.391587 
L 168.011928 -132.409064 
L 168.416367 -133.431509 
L 168.820807 -134.458844 
L 169.225247 -135.490989 
L 169.629686 -136.527863 
L 170.034126 -137.569382 
L 170.438565 -138.61546 
L 170.843005 -139.666012 
L 171.247445 -140.720949 
L 171.651884 -141.780179 
L 172.056324 -142.84361 
L 172.460763 -143.911149 
L 172.865203 -144.9827 
L 173.269643 -146.058165 
L 173.674082 -147.137446 
L 174.078522 -148.22044 
L 174.482961 -149.307045 
L 174.887401 -150.397157 
L 175.291841 -151.49067 
L 175.69628 -152.587475 
L 176.10072 -153.687464 
L 176.505159 -154.790525 
L 176.909599 -155.896545 
L 177.314039 -157.00541 
L 177.718478 -158.117004 
L 178.122918 -159.231209 
L 178.527357 -160.347905 
L 178.931797 -161.466971 
L 179.336237 -162.588286 
L 179.740676 -163.711725 
L 180.145116 -164.837162 
L 180.549555 -165.964471 
L 180.953995 -167.093523 
L 181.358435 -168.224187 
L 181.762874 -169.356333 
L 182.167314 -170.489827 
L 182.571753 -171.624535 
L 182.976193 -172.760321 
L 183.380633 -173.897048 
L 183.785072 -175.034578 
L 184.189512 -176.172771 
L 184.593951 -177.311485 
L 184.998391 -178.450579 
L 185.402831 -179.589909 
L 185.80727 -180.729329 
L 186.21171 -181.868695 
L 186.616149 -183.007858 
L 187.020589 -184.146671 
L 187.425028 -185.284984 
L 187.829468 -186.422647 
L 188.233908 -187.559509 
L 188.638347 -188.695416 
L 189.042787 -189.830215 
L 189.447226 -190.963752 
L 189.851666 -192.095872 
L 190.256106 -193.226418 
L 190.660545 -194.355233 
L 191.064985 -195.482159 
L 191.469424 -196.607038 
L 191.873864 -197.729711 
L 192.278304 -198.850016 
L 192.682743 -199.967794 
L 193.087183 -201.082882 
L 193.491622 -202.19512 
L 193.896062 -203.304344 
L 194.300502 -204.410391 
L 194.704941 -205.513097 
L 195.109381 -206.6123 
L 195.51382 -207.707833 
L 195.91826 -208.799533 
L 196.3227 -209.887234 
L 196.727139 -210.970771 
L 197.131579 -212.049978 
L 197.536018 -213.124689 
L 197.940458 -214.194738 
L 198.344898 -215.25996 
L 198.749337 -216.320187 
L 199.153777 -217.375255 
L 199.558216 -218.424995 
L 199.962656 -219.469243 
L 200.367096 -220.507832 
L 200.771535 -221.540596 
L 201.175975 -222.567369 
L 201.580414 -223.587986 
L 201.984854 -224.602282 
L 202.389294 -225.610091 
L 202.793733 -226.611249 
L 203.198173 -227.605591 
L 203.602612 -228.592954 
L 204.007052 -229.573175 
L 204.411492 -230.546091 
L 204.815931 -231.511538 
L 205.220371 -232.469357 
L 205.62481 -233.419386 
L 206.02925 -234.361465 
L 206.43369 -235.295434 
L 206.838129 -236.221135 
L 207.242569 -237.138409 
L 207.647008 -238.047101 
L 208.051448 -238.947054 
L 208.455888 -239.838112 
L 208.860327 -240.720123 
L 209.264767 -241.592933 
L 209.669206 -242.456391 
L 210.073646 -243.310345 
L 210.478086 -244.154646 
L 210.882525 -244.989146 
L 211.286965 -245.813699 
L 211.691404 -246.628158 
L 212.095844 -247.432379 
L 212.500284 -248.22622 
L 212.904723 -249.00954 
L 213.309163 -249.782197 
L 213.713602 -250.544054 
L 214.118042 -251.294975 
L 214.522482 -252.034824 
L 214.926921 -252.763467 
L 215.331361 -253.480774 
L 215.7358 -254.186613 
L 216.14024 -254.880857 
L 216.54468 -255.563379 
L 216.949119 -256.234055 
L 217.353559 -256.892762 
L 217.757998 -257.539379 
L 218.162438 -258.173788 
L 218.566878 -258.795871 
L 218.971317 -259.405514 
L 219.375757 -260.002605 
L 219.780196 -260.587033 
L 220.184636 -261.158689 
L 220.589075 -261.717467 
L 220.993515 -262.263263 
L 221.397955 -262.795976 
L 221.802394 -263.315506 
L 222.206834 -263.821756 
L 222.611273 -264.31463 
L 223.015713 -264.794038 
L 223.420153 -265.259887 
L 223.824592 -265.712091 
L 224.229032 -266.150565 
L 224.633471 -266.575226 
L 225.037911 -266.985993 
L 225.442351 -267.382789 
L 225.84679 -267.765539 
L 226.25123 -268.13417 
L 226.655669 -268.488612 
L 227.060109 -268.828798 
L 227.464549 -269.154663 
L 227.868988 -269.466145 
L 228.273428 -269.763186 
L 228.677867 -270.045727 
L 229.082307 -270.313715 
L 229.486747 -270.567099 
L 229.891186 -270.805831 
L 230.295626 -271.029865 
L 230.700065 -271.239157 
L 231.104505 -271.433668 
L 231.508945 -271.613361 
L 231.913384 -271.778202 
L 232.317824 -271.928157 
L 232.722263 -272.063199 
L 233.126703 -272.183302 
L 233.531143 -272.288443 
L 233.935582 -272.378601 
L 234.340022 -272.453759 
L 234.744461 -272.513903 
L 235.148901 -272.559022 
L 235.553341 -272.589105 
L 235.95778 -272.604148 
L 236.36222 -272.604148 
L 236.766659 -272.589105 
L 237.171099 -272.559022 
L 237.575539 -272.513903 
L 237.979978 -272.453759 
L 238.384418 -272.378601 
L 238.788857 -272.288443 
L 239.193297 -272.183302 
L 239.597737 -272.063199 
L 240.002176 -271.928157 
L 240.406616 -271.778202 
L 240.811055 -271.613361 
L 241.215495 -271.433668 
L 241.619935 -271.239157 
L 242.024374 -271.029865 
L 242.428814 -270.805831 
L 242.833253 -270.567099 
L 243.237693 -270.313715 
L 243.642133 -270.045727 
L 244.046572 -269.763186 
L 244.451012 -269.466145 
L 244.855451 -269.154663 
L 245.259891 -268.828798 
L 245.664331 -268.488612 
L 246.06877 -268.13417 
L 246.47321 -267.765539 
L 246.877649 -267.382789 
L 247.282089 -266.985993 
L 247.686529 -266.575226 
L 248.090968 -266.150565 
L 248.495408 -265.712091 
L 248.899847 -265.259887 
L 249.304287 -264.794038 
L 249.708727 -264.31463 
L 250.113166 -263.821756 
L 250.517606 -263.315506 
L 250.922045 -262.795976 
L 251.326485 -262.263263 
L 251.730925 -261.717467 
L 252.135364 -261.158689 
L 252.539804 -260.587033 
L 252.944243 -260.002605 
L 253.348683 -259.405514 
L 253.753122 -258.795871 
L 254.157562 -258.173788 
L 254.562002 -257.539379 
L 254.966441 -256.892762 
L 255.370881 -256.234055 
L 255.77532 -255.563379 
L 256.17976 -254.880857 
L 256.5842 -254.186613 
L 256.988639 -253.480774 
L 257.393079 -252.763467 
L 257.797518 -252.034824 
L 258.201958 -251.294975 
L 258.606398 -250.544054 
L 259.010837 -249.782197 
L 259.415277 -249.00954 
L 259.819716 -248.22622 
L 260.224156 -247.432379 
L 260.628596 -246.628158 
L 261.033035 -245.813699 
L 261.437475 -244.989146 
L 261.841914 -244.154646 
L 262.246354 -243.310345 
L 262.650794 -242.456391 
L 263.055233 -241.592933 
L 263.459673 -240.720123 
L 263.864112 -239.838112 
L 264.268552 -238.947054 
L 264.672992 -238.047101 
L 265.077431 -237.138409 
L 265.481871 -236.221135 
L 265.88631 -235.295434 
L 266.29075 -234.361465 
L 266.69519 -233.419386 
L 267.099629 -232.469357 
L 267.504069 -231.511538 
L 267.908508 -230.546091 
L 268.312948 -229.573175 
L 268.717388 -228.592954 
L 269.121827 -227.605591 
L 269.526267 -226.611249 
L 269.930706 -225.610091 
L 270.335146 -224.602282 
L 270.739586 -223.587986 
L 271.144025 -222.567369 
L 271.548465 -221.540596 
L 271.952904 -220.507832 
L 272.357344 -219.469243 
L 272.761784 -218.424995 
L 273.166223 -217.375255 
L 273.570663 -216.320187 
L 273.975102 -215.25996 
L 274.379542 -214.194738 
L 274.783982 -213.124689 
L 275.188421 -212.049978 
L 275.592861 -210.970771 
L 275.9973 -209.887234 
L 276.40174 -208.799533 
L 276.80618 -207.707833 
L 277.210619 -206.6123 
L 277.615059 -205.513097 
L 278.019498 -204.410391 
L 278.423938 -203.304344 
L 278.828378 -202.19512 
L 279.232817 -201.082882 
L 279.637257 -199.967794 
L 280.041696 -198.850016 
L 280.446136 -197.729711 
L 280.850576 -196.607038 
L 281.255015 -195.482159 
L 281.659455 -194.355233 
L 282.063894 -193.226418 
L 282.468334 -192.095872 
L 282.872774 -190.963752 
L 283.277213 -189.830215 
L 283.681653 -188.695416 
L 284.086092 -187.559509 
L 284.490532 -186.422647 
L 284.894972 -185.284984 
L 285.299411 -184.146671 
L 285.703851 -183.007858 
L 286.10829 -181.868695 
L 286.51273 -180.729329 
L 286.917169 -179.589909 
L 287.321609 -178.450579 
L 287.726049 -177.311485 
L 288.130488 -176.172771 
L 288.534928 -175.034578 
L 288.939367 -173.897048 
L 289.343807 -172.760321 
L 289.748247 -171.624535 
L 290.152686 -170.489827 
L 290.557126 -169.356333 
L 290.961565 -168.224187 
L 291.366005 -167.093523 
L 291.770445 -165.964471 
L 292.174884 -164.837162 
L 292.579324 -163.711725 
L 292.983763 -162.588286 
L 293.388203 -161.466971 
L 293.792643 -160.347905 
L 294.197082 -159.231209 
L 294.601522 -158.117004 
L 295.005961 -157.00541 
L 295.410401 -155.896545 
L 295.814841 -154.790525 
L 296.21928 -153.687464 
L 296.62372 -152.587475 
L 297.028159 -151.49067 
L 297.432599 -150.397157 
L 297.837039 -149.307045 
L 298.241478 -148.22044 
L 298.645918 -147.137446 
L 299.050357 -146.058165 
L 299.454797 -144.9827 
L 299.859237 -143.911149 
L 300.263676 -142.84361 
L 300.668116 -141.780179 
L 301.072555 -140.720949 
L 301.476995 -139.666012 
L 301.881435 -138.61546 
L 302.285874 -137.569382 
L 302.690314 -136.527863 
L 303.094753 -135.490989 
L 303.499193 -134.458844 
L 303.903633 -133.431509 
L 304.308072 -132.409064 
L 304.712512 -131.391587 
L 305.116951 -130.379155 
L 305.521391 -129.371841 
L 305.925831 -128.369718 
L 306.33027 -127.372858 
L 306.73471 -126.381329 
L 307.139149 -125.395199 
L 307.543589 -124.414533 
L 307.948029 -123.439395 
L 308.352468 -122.469846 
L 308.756908 -121.505948 
L 309.161347 -120.547758 
L 309.565787 -119.595333 
L 309.970227 -118.648729 
L 310.374666 -117.707997 
L 310.779106 -116.773191 
L 311.183545 -115.844358 
L 311.587985 -114.921548 
L 311.992425 -114.004807 
L 312.396864 -113.094179 
L 312.801304 -112.189706 
L 313.205743 -111.291431 
L 313.610183 -110.399392 
L 314.014623 -109.513628 
L 314.419062 -108.634174 
L 314.823502 -107.761065 
L 315.227941 -106.894333 
L 315.632381 -106.034011 
L 316.036821 -105.180127 
L 316.44126 -104.33271 
L 316.8457 -103.491786 
L 317.250139 -102.657379 
L 317.654579 -101.829514 
L 318.059018 -101.008211 
L 318.463458 -100.193492 
L 318.867898 -99.385374 
L 319.272337 -98.583875 
L 319.676777 -97.78901 
L 320.081216 -97.000795 
L 320.485656 -96.21924 
L 320.890096 -95.444359 
L 321.294535 -94.67616 
L 321.698975 -93.914652 
L 322.103414 -93.159843 
L 322.507854 -92.411737 
L 322.912294 -91.67034 
L 323.316733 -90.935654 
L 323.721173 -90.20768 
L 324.125612 -89.486421 
L 324.530052 -88.771873 
L 324.934492 -88.064036 
L 325.338931 -87.362906 
L 325.743371 -86.668477 
L 326.14781 -85.980746 
L 326.55225 -85.299703 
L 326.95669 -84.625341 
L 327.361129 -83.957651 
L 327.765569 -83.296621 
L 328.170008 -82.642241 
L 328.574448 -81.994498 
L 328.978888 -81.353377 
L 329.383327 -80.718864 
L 329.787767 -80.090943 
L 330.192206 -79.469596 
L 330.596646 -78.854806 
L 331.001086 -78.246555 
L 331.405525 -77.644821 
L 331.809965 -77.049584 
L 332.214404 -76.460822 
L 332.618844 -75.878512 
L 333.023284 -75.302632 
L 333.427723 -74.733155 
L 333.832163 -74.170058 
L 334.236602 -73.613314 
L 334.641042 -73.062895 
L 335.045482 -72.518775 
L 335.449921 -71.980924 
L 335.854361 -71.449313 
L 336.2588 -70.923913 
L 336.66324 -70.404692 
L 337.06768 -69.891619 
L 337.472119 -69.384662 
L 337.876559 -68.883789 
L 338.280998 -68.388965 
L 338.685438 -67.900157 
L 339.089878 -67.41733 
L 339.494317 -66.940449 
L 339.898757 -66.469478 
L 340.303196 -66.004381 
L 340.707636 -65.545121 
L 341.112076 -65.09166 
L 341.516515 -64.643962 
L 341.920955 -64.201986 
L 342.325394 -63.765696 
L 342.729834 -63.33505 
L 343.134274 -62.910011 
L 343.538713 -62.490537 
L 343.943153 -62.076589 
L 344.347592 -61.668125 
L 344.752032 -61.265104 
L 345.156472 -60.867485 
L 345.560911 -60.475226 
L 345.965351 -60.088285 
L 346.36979 -59.70662 
L 346.77423 -59.330187 
L 347.17867 -58.958944 
L 347.583109 -58.592847 
L 347.987549 -58.231854 
L 348.391988 -57.87592 
L 348.796428 -57.525002 
L 349.200868 -57.179055 
L 349.605307 -56.838036 
L 350.009747 -56.501901 
L 350.414186 -56.170603 
L 350.818626 -55.8441 
L 351.223065 -55.522347 
L 351.627505 -55.205297 
L 352.031945 -54.892908 
L 352.436384 -54.585133 
L 352.840824 -54.281927 
L 353.245263 -53.983246 
L 353.649703 -53.689045 
L 354.054143 -53.399277 
L 354.458582 -53.113899 
L 354.863022 -52.832865 
L 355.267461 -52.556129 
L 355.671901 -52.283647 
L 356.076341 -52.015374 
L 356.48078 -51.751264 
L 356.88522 -51.491272 
L 357.289659 -51.235354 
L 357.694099 -50.983465 
L 358.098539 -50.73556 
L 358.502978 -50.491594 
L 358.907418 -50.251522 
L 359.311857 -50.015301 
L 359.716297 -49.782886 
L 360.120737 -49.554233 
L 360.525176 -49.329297 
L 360.929616 -49.108035 
L 361.334055 -48.890403 
L 361.738495 -48.676357 
L 362.142935 -48.465854 
L 362.547374 -48.258851 
L 362.951814 -48.055305 
L 363.356253 -47.855173 
L 363.760693 -47.658412 
L 364.165133 -47.46498 
L 364.569572 -47.274834 
L 364.974012 -47.087933 
L 365.378451 -46.904235 
L 365.782891 -46.723698 
L 366.187331 -46.546281 
L 366.59177 -46.371943 
L 366.99621 -46.200643 
L 367.400649 -46.032341 
L 367.805089 -45.866996 
L 368.209529 -45.704569 
L 368.613968 -45.545019 
L 369.018408 -45.388307 
L 369.422847 -45.234394 
L 369.827287 -45.083241 
L 370.231727 -44.93481 
L 370.636166 -44.789062 
L 371.040606 -44.645958 
L 371.445045 -44.505462 
L 371.849485 -44.367537 
L 372.253925 -44.232143 
L 372.658364 -44.099246 
L 373.062804 -43.968809 
L 373.467243 -43.840794 
L 373.871683 -43.715167 
L 374.276123 -43.591893 
L 374.680562 -43.470934 
L 375.085002 -43.352258 
L 375.489441 -43.235828 
L 375.893881 -43.121612 
L 376.298321 -43.009574 
L 376.70276 -42.899682 
L 377.1072 -42.791902 
L 377.511639 -42.686201 
L 377.916079 -42.582546 
L 378.320519 -42.480906 
L 378.724958 -42.381248 
L 378.724958 -38.016 
L 378.724958 -38.016 
L 378.320519 -38.016 
L 377.916079 -38.016 
L 377.511639 -38.016 
L 377.1072 -38.016 
L 376.70276 -38.016 
L 376.298321 -38.016 
L 375.893881 -38.016 
L 375.489441 -38.016 
L 375.085002 -38.016 
L 374.680562 -38.016 
L 374.276123 -38.016 
L 373.871683 -38.016 
L 373.467243 -38.016 
L 373.062804 -38.016 
L 372.658364 -38.016 
L 372.253925 -38.016 
L 371.849485 -38.016 
L 371.445045 -38.016 
L 371.040606 -38.016 
L 370.636166 -38.016 
L 370.231727 -38.016 
L 369.827287 -38.016 
L 369.422847 -38.016 
L 369.018408 -38.016 
L 368.613968 -38.016 
L 368.209529 -38.016 
L 367.805089 -38.016 
L 367.400649 -38.016 
L 366.99621 -38.016 
L 366.59177 -38.016 
L 366.187331 -38.016 
L 365.782891 -38.016 
L 365.378451 -38.016 
L 364.974012 -38.016 
L 364.569572 -38.016 
L 364.165133 -38.016 
L 363.760693 -38.016 
L 363.356253 -38.016 
L 362.951814 -38.016 
L 362.547374 -38.016 
L 362.142935 -38.016 
L 361.738495 -38.016 
L 361.334055 -38.016 
L 360.929616 -38.016 
L 360.525176 -38.016 
L 360.120737 -38.016 
L 359.716297 -38.016 
L 359.311857 -38.016 
L 358.907418 -38.016 
L 358.502978 -38.016 
L 358.098539 -38.016 
L 357.694099 -38.016 
L 357.289659 -38.016 
L 356.88522 -38.016 
L 356.48078 -38.016 
L 356.076341 -38.016 
L 355.671901 -38.016 
L 355.267461 -38.016 
L 354.863022 -38.016 
L 354.458582 -38.016 
L 354.054143 -38.016 
L 353.649703 -38.016 
L 353.245263 -38.016 
L 352.840824 -38.016 
L 352.436384 -38.016 
L 352.031945 -38.016 
L 351.627505 -38.016 
L 351.223065 -38.016 
L 350.818626 -38.016 
L 350.414186 -38.016 
L 350.009747 -38.016 
L 349.605307 -38.016 
L 349.200868 -38.016 
L 348.796428 -38.016 
L 348.391988 -38.016 
L 347.987549 -38.016 
L 347.583109 -38.016 
L 347.17867 -38.016 
L 346.77423 -38.016 
L 346.36979 -38.016 
L 345.965351 -38.016 
L 345.560911 -38.016 
L 345.156472 -38.016 
L 344.752032 -38.016 
L 344.347592 -38.016 
L 343.943153 -38.016 
L 343.538713 -38.016 
L 343.134274 -38.016 
L 342.729834 -38.016 
L 342.325394 -38.016 
L 341.920955 -38.016 
L 341.516515 -38.016 
L 341.112076 -38.016 
L 340.707636 -38.016 
L 340.303196 -38.016 
L 339.898757 -38.016 
L 339.494317 -38.016 
L 339.089878 -38.016 
L 338.685438 -38.016 
L 338.280998 -38.016 
L 337.876559 -38.016 
L 337.472119 -38.016 
L 337.06768 -38.016 
L 336.66324 -38.016 
L 336.2588 -38.016 
L 335.854361 -38.016 
L 335.449921 -38.016 
L 335.045482 -38.016 
L 334.641042 -38.016 
L 334.236602 -38.016 
L 333.832163 -38.016 
L 333.427723 -38.016 
L 333.023284 -38.016 
L 332.618844 -38.016 
L 332.214404 -38.016 
L 331.809965 -38.016 
L 331.405525 -38.016 
L 331.001086 -38.016 
L 330.596646 -38.016 
L 330.192206 -38.016 
L 329.787767 -38.016 
L 329.383327 -38.016 
L 328.978888 -38.016 
L 328.574448 -38.016 
L 328.170008 -38.016 
L 327.765569 -38.016 
L 327.361129 -38.016 
L 326.95669 -38.016 
L 326.55225 -38.016 
L 326.14781 -38.016 
L 325.743371 -38.016 
L 325.338931 -38.016 
L 324.934492 -38.016 
L 324.530052 -38.016 
L 324.125612 -38.016 
L 323.721173 -38.016 
L 323.316733 -38.016 
L 322.912294 -38.016 
L 322.507854 -38.016 
L 322.103414 -38.016 
L 321.698975 -38.016 
L 321.294535 -38.016 
L 320.890096 -38.016 
L 320.485656 -38.016 
L 320.081216 -38.016 
L 319.676777 -38.016 
L 319.272337 -38.016 
L 318.867898 -38.016 
L 318.463458 -38.016 
L 318.059018 -38.016 
L 317.654579 -38.016 
L 317.250139 -38.016 
L 316.8457 -38.016 
L 316.44126 -38.016 
L 316.036821 -38.016 
L 315.632381 -38.016 
L 315.227941 -38.016 
L 314.823502 -38.016 
L 314.419062 -38.016 
L 314.014623 -38.016 
L 313.610183 -38.016 
L 313.205743 -38.016 
L 312.801304 -38.016 
L 312.396864 -38.016 
L 311.992425 -38.016 
L 311.587985 -38.016 
L 311.183545 -38.016 
L 310.779106 -38.016 
L 310.374666 -38.016 
L 309.970227 -38.016 
L 309.565787 -38.016 
L 309.161347 -38.016 
L 308.756908 -38.016 
L 308.352468 -38.016 
L 307.948029 -38.016 
L 307.543589 -38.016 
L 307.139149 -38.016 
L 306.73471 -38.016 
L 306.33027 -38.016 
L 305.925831 -38.016 
L 305.521391 -38.016 
L 305.116951 -38.016 
L 304.712512 -38.016 
L 304.308072 -38.016 
L 303.903633 -38.016 
L 303.499193 -38.016 
L 303.094753 -38.016 
L 302.690314 -38.016 
L 302.285874 -38.016 
L 301.881435 -38.016 
L 301.476995 -38.016 
L 301.072555 -38.016 
L 300.668116 -38.016 
L 300.263676 -38.016 
L 299.859237 -38.016 
L 299.454797 -38.016 
L 299.050357 -38.016 
L 298.645918 -38.016 
L 298.241478 -38.016 
L 297.837039 -38.016 
L 297.432599 -38.016 
L 297.028159 -38.016 
L 296.62372 -38.016 
L 296.21928 -38.016 
L 295.814841 -38.016 
L 295.410401 -38.016 
L 295.005961 -38.016 
L 294.601522 -38.016 
L 294.197082 -38.016 
L 293.792643 -38.016 
L 293.388203 -38.016 
L 292.983763 -38.016 
L 292.579324 -38.016 
L 292.174884 -38.016 
L 291.770445 -38.016 
L 291.366005 -38.016 
L 290.961565 -38.016 
L 290.557126 -38.016 
L 290.152686 -38.016 
L 289.748247 -38.016 
L 289.343807 -38.016 
L 288.939367 -38.016 
L 288.534928 -38.016 
L 288.130488 -38.016 
L 287.726049 -38.016 
L 287.321609 -38.016 
L 286.917169 -38.016 
L 286.51273 -38.016 
L 286.10829 -38.016 
L 285.703851 -38.016 
L 285.299411 -38.016 
L 284.894972 -38.016 
L 284.490532 -38.016 
L 284.086092 -38.016 
L 283.681653 -38.016 
L 283.277213 -38.016 
L 282.872774 -38.016 
L 282.468334 -38.016 
L 282.063894 -38.016 
L 281.659455 -38.016 
L 281.255015 -38.016 
L 280.850576 -38.016 
L 280.446136 -38.016 
L 280.041696 -38.016 
L 279.637257 -38.016 
L 279.232817 -38.016 
L 278.828378 -38.016 
L 278.423938 -38.016 
L 278.019498 -38.016 
L 277.615059 -38.016 
L 277.210619 -38.016 
L 276.80618 -38.016 
L 276.40174 -38.016 
L 275.9973 -38.016 
L 275.592861 -38.016 
L 275.188421 -38.016 
L 274.783982 -38.016 
L 274.379542 -38.016 
L 273.975102 -38.016 
L 273.570663 -38.016 
L 273.166223 -38.016 
L 272.761784 -38.016 
L 272.357344 -38.016 
L 271.952904 -38.016 
L 271.548465 -38.016 
L 271.144025 -38.016 
L 270.739586 -38.016 
L 270.335146 -38.016 
L 269.930706 -38.016 
L 269.526267 -38.016 
L 269.121827 -38.016 
L 268.717388 -38.016 
L 268.312948 -38.016 
L 267.908508 -38.016 
L 267.504069 -38.016 
L 267.099629 -38.016 
L 266.69519 -38.016 
L 266.29075 -38.016 
L 265.88631 -38.016 
L 265.481871 -38.016 
L 265.077431 -38.016 
L 264.672992 -38.016 
L 264.268552 -38.016 
L 263.864112 -38.016 
L 263.459673 -38.016 
L 263.055233 -38.016 
L 262.650794 -38.016 
L 262.246354 -38.016 
L 261.841914 -38.016 
L 261.437475 -38.016 
L 261.033035 -38.016 
L 260.628596 -38.016 
L 260.224156 -38.016 
L 259.819716 -38.016 
L 259.415277 -38.016 
L 259.010837 -38.016 
L 258.606398 -38.016 
L 258.201958 -38.016 
L 257.797518 -38.016 
L 257.393079 -38.016 
L 256.988639 -38.016 
L 256.5842 -38.016 
L 256.17976 -38.016 
L 255.77532 -38.016 
L 255.370881 -38.016 
L 254.966441 -38.016 
L 254.562002 -38.016 
L 254.157562 -38.016 
L 253.753122 -38.016 
L 253.348683 -38.016 
L 252.944243 -38.016 
L 252.539804 -38.016 
L 252.135364 -38.016 
L 251.730925 -38.016 
L 251.326485 -38.016 
L 250.922045 -38.016 
L 250.517606 -38.016 
L 250.113166 -38.016 
L 249.708727 -38.016 
L 249.304287 -38.016 
L 248.899847 -38.016 
L 248.495408 -38.016 
L 248.090968 -38.016 
L 247.686529 -38.016 
L 247.282089 -38.016 
L 246.877649 -38.016 
L 246.47321 -38.016 
L 246.06877 -38.016 
L 245.664331 -38.016 
L 245.259891 -38.016 
L 244.855451 -38.016 
L 244.451012 -38.016 
L 244.046572 -38.016 
L 243.642133 -38.016 
L 243.237693 -38.016 
L 242.833253 -38.016 
L 242.428814 -38.016 
L 242.024374 -38.016 
L 241.619935 -38.016 
L 241.215495 -38.016 
L 240.811055 -38.016 
L 240.406616 -38.016 
L 240.002176 -38.016 
L 239.597737 -38.016 
L 239.193297 -38.016 
L 238.788857 -38.016 
L 238.384418 -38.016 
L 237.979978 -38.016 
L 237.575539 -38.016 
L 237.171099 -38.016 
L 236.766659 -38.016 
L 236.36222 -38.016 
L 235.95778 -38.016 
L 235.553341 -38.016 
L 235.148901 -38.016 
L 234.744461 -38.016 
L 234.340022 -38.016 
L 233.935582 -38.016 
L 233.531143 -38.016 
L 233.126703 -38.016 
L 232.722263 -38.016 
L 232.317824 -38.016 
L 231.913384 -38.016 
L 231.508945 -38.016 
L 231.104505 -38.016 
L 230.700065 -38.016 
L 230.295626 -38.016 
L 229.891186 -38.016 
L 229.486747 -38.016 
L 229.082307 -38.016 
L 228.677867 -38.016 
L 228.273428 -38.016 
L 227.868988 -38.016 
L 227.464549 -38.016 
L 227.060109 -38.016 
L 226.655669 -38.016 
L 226.25123 -38.016 
L 225.84679 -38.016 
L 225.442351 -38.016 
L 225.037911 -38.016 
L 224.633471 -38.016 
L 224.229032 -38.016 
L 223.824592 -38.016 
L 223.420153 -38.016 
L 223.015713 -38.016 
L 222.611273 -38.016 
L 222.206834 -38.016 
L 221.802394 -38.016 
L 221.397955 -38.016 
L 220.993515 -38.016 
L 220.589075 -38.016 
L 220.184636 -38.016 
L 219.780196 -38.016 
L 219.375757 -38.016 
L 218.971317 -38.016 
L 218.566878 -38.016 
L 218.162438 -38.016 
L 217.757998 -38.016 
L 217.353559 -38.016 
L 216.949119 -38.016 
L 216.54468 -38.016 
L 216.14024 -38.016 
L 215.7358 -38.016 
L 215.331361 -38.016 
L 214.926921 -38.016 
L 214.522482 -38.016 
L 214.118042 -38.016 
L 213.713602 -38.016 
L 213.309163 -38.016 
L 212.904723 -38.016 
L 212.500284 -38.016 
L 212.095844 -38.016 
L 211.691404 -38.016 
L 211.286965 -38.016 
L 210.882525 -38.016 
L 210.478086 -38.016 
L 210.073646 -38.016 
L 209.669206 -38.016 
L 209.264767 -38.016 
L 208.860327 -38.016 
L 208.455888 -38.016 
L 208.051448 -38.016 
L 207.647008 -38.016 
L 207.242569 -38.016 
L 206.838129 -38.016 
L 206.43369 -38.016 
L 206.02925 -38.016 
L 205.62481 -38.016 
L 205.220371 -38.016 
L 204.815931 -38.016 
L 204.411492 -38.016 
L 204.007052 -38.016 
L 203.602612 -38.016 
L 203.198173 -38.016 
L 202.793733 -38.016 
L 202.389294 -38.016 
L 201.984854 -38.016 
L 201.580414 -38.016 
L 201.175975 -38.016 
L 200.771535 -38.016 
L 200.367096 -38.016 
L 199.962656 -38.016 
L 199.558216 -38.016 
L 199.153777 -38.016 
L 198.749337 -38.016 
L 198.344898 -38.016 
L 197.940458 -38.016 
L 197.536018 -38.016 
L 197.131579 -38.016 
L 196.727139 -38.016 
L 196.3227 -38.016 
L 195.91826 -38.016 
L 195.51382 -38.016 
L 195.109381 -38.016 
L 194.704941 -38.016 
L 194.300502 -38.016 
L 193.896062 -38.016 
L 193.491622 -38.016 
L 193.087183 -38.016 
L 192.682743 -38.016 
L 192.278304 -38.016 
L 191.873864 -38.016 
L 191.469424 -38.016 
L 191.064985 -38.016 
L 190.660545 -38.016 
L 190.256106 -38.016 
L 189.851666 -38.016 
L 189.447226 -38.016 
L 189.042787 -38.016 
L 188.638347 -38.016 
L 188.233908 -38.016 
L 187.829468 -38.016 
L 187.425028 -38.016 
L 187.020589 -38.016 
L 186.616149 -38.016 
L 186.21171 -38.016 
L 185.80727 -38.016 
L 185.402831 -38.016 
L 184.998391 -38.016 
L 184.593951 -38.016 
L 184.189512 -38.016 
L 183.785072 -38.016 
L 183.380633 -38.016 
L 182.976193 -38.016 
L 182.571753 -38.016 
L 182.167314 -38.016 
L 181.762874 -38.016 
L 181.358435 -38.016 
L 180.953995 -38.016 
L 180.549555 -38.016 
L 180.145116 -38.016 
L 179.740676 -38.016 
L 179.336237 -38.016 
L 178.931797 -38.016 
L 178.527357 -38.016 
L 178.122918 -38.016 
L 177.718478 -38.016 
L 177.314039 -38.016 
L 176.909599 -38.016 
L 176.505159 -38.016 
L 176.10072 -38.016 
L 175.69628 -38.016 
L 175.291841 -38.016 
L 174.887401 -38.016 
L 174.482961 -38.016 
L 174.078522 -38.016 
L 173.674082 -38.016 
L 173.269643 -38.016 
L 172.865203 -38.016 
L 172.460763 -38.016 
L 172.056324 -38.016 
L 171.651884 -38.016 
L 171.247445 -38.016 
L 170.843005 -38.016 
L 170.438565 -38.016 
L 170.034126 -38.016 
L 169.629686 -38.016 
L 169.225247 -38.016 
L 168.820807 -38.016 
L 168.416367 -38.016 
L 168.011928 -38.016 
L 167.607488 -38.016 
L 167.203049 -38.016 
L 166.798609 -38.016 
L 166.394169 -38.016 
L 165.98973 -38.016 
L 165.58529 -38.016 
L 165.180851 -38.016 
L 164.776411 -38.016 
L 164.371971 -38.016 
L 163.967532 -38.016 
L 163.563092 -38.016 
L 163.158653 -38.016 
L 162.754213 -38.016 
L 162.349773 -38.016 
L 161.945334 -38.016 
L 161.540894 -38.016 
L 161.136455 -38.016 
L 160.732015 -38.016 
L 160.327575 -38.016 
L 159.923136 -38.016 
L 159.518696 -38.016 
L 159.114257 -38.016 
L 158.709817 -38.016 
L 158.305377 -38.016 
L 157.900938 -38.016 
L 157.496498 -38.016 
L 157.092059 -38.016 
L 156.687619 -38.016 
L 156.283179 -38.016 
L 155.87874 -38.016 
L 155.4743 -38.016 
L 155.069861 -38.016 
L 154.665421 -38.016 
L 154.260982 -38.016 
L 153.856542 -38.016 
L 153.452102 -38.016 
L 153.047663 -38.016 
L 152.643223 -38.016 
L 152.238784 -38.016 
L 151.834344 -38.016 
L 151.429904 -38.016 
L 151.025465 -38.016 
L 150.621025 -38.016 
L 150.216586 -38.016 
L 149.812146 -38.016 
L 149.407706 -38.016 
L 149.003267 -38.016 
L 148.598827 -38.016 
L 148.194388 -38.016 
L 147.789948 -38.016 
L 147.385508 -38.016 
L 146.981069 -38.016 
L 146.576629 -38.016 
L 146.17219 -38.016 
L 145.76775 -38.016 
L 145.36331 -38.016 
L 144.958871 -38.016 
L 144.554431 -38.016 
L 144.149992 -38.016 
L 143.745552 -38.016 
L 143.341112 -38.016 
L 142.936673 -38.016 
L 142.532233 -38.016 
L 142.127794 -38.016 
L 141.723354 -38.016 
L 141.318914 -38.016 
L 140.914475 -38.016 
L 140.510035 -38.016 
L 140.105596 -38.016 
L 139.701156 -38.016 
L 139.296716 -38.016 
L 138.892277 -38.016 
L 138.487837 -38.016 
L 138.083398 -38.016 
L 137.678958 -38.016 
L 137.274518 -38.016 
L 136.870079 -38.016 
L 136.465639 -38.016 
L 136.0612 -38.016 
L 135.65676 -38.016 
L 135.25232 -38.016 
L 134.847881 -38.016 
L 134.443441 -38.016 
L 134.039002 -38.016 
L 133.634562 -38.016 
L 133.230122 -38.016 
L 132.825683 -38.016 
L 132.421243 -38.016 
L 132.016804 -38.016 
L 131.612364 -38.016 
L 131.207924 -38.016 
L 130.803485 -38.016 
L 130.399045 -38.016 
L 129.994606 -38.016 
L 129.590166 -38.016 
L 129.185726 -38.016 
L 128.781287 -38.016 
L 128.376847 -38.016 
L 127.972408 -38.016 
L 127.567968 -38.016 
L 127.163528 -38.016 
L 126.759089 -38.016 
L 126.354649 -38.016 
L 125.95021 -38.016 
L 125.54577 -38.016 
L 125.14133 -38.016 
L 124.736891 -38.016 
L 124.332451 -38.016 
L 123.928012 -38.016 
L 123.523572 -38.016 
L 123.119132 -38.016 
L 122.714693 -38.016 
L 122.310253 -38.016 
L 121.905814 -38.016 
L 121.501374 -38.016 
L 121.096935 -38.016 
L 120.692495 -38.016 
L 120.288055 -38.016 
L 119.883616 -38.016 
L 119.479176 -38.016 
L 119.074737 -38.016 
L 118.670297 -38.016 
L 118.265857 -38.016 
L 117.861418 -38.016 
L 117.456978 -38.016 
L 117.052539 -38.016 
L 116.648099 -38.016 
L 116.243659 -38.016 
L 115.83922 -38.016 
L 115.43478 -38.016 
L 115.030341 -38.016 
L 114.625901 -38.016 
L 114.221461 -38.016 
L 113.817022 -38.016 
L 113.412582 -38.016 
L 113.008143 -38.016 
L 112.603703 -38.016 
L 112.199263 -38.016 
L 111.794824 -38.016 
L 111.390384 -38.016 
L 110.985945 -38.016 
L 110.581505 -38.016 
L 110.177065 -38.016 
L 109.772626 -38.016 
L 109.368186 -38.016 
L 108.963747 -38.016 
L 108.559307 -38.016 
L 108.154867 -38.016 
L 107.750428 -38.016 
L 107.345988 -38.016 
L 106.941549 -38.016 
L 106.537109 -38.016 
L 106.132669 -38.016 
L 105.72823 -38.016 
L 105.32379 -38.016 
L 104.919351 -38.016 
L 104.514911 -38.016 
L 104.110471 -38.016 
L 103.706032 -38.016 
L 103.301592 -38.016 
L 102.897153 -38.016 
L 102.492713 -38.016 
L 102.088273 -38.016 
L 101.683834 -38.016 
L 101.279394 -38.016 
L 100.874955 -38.016 
L 100.470515 -38.016 
L 100.066075 -38.016 
L 99.661636 -38.016 
L 99.257196 -38.016 
L 98.852757 -38.016 
L 98.448317 -38.016 
L 98.043877 -38.016 
L 97.639438 -38.016 
L 97.234998 -38.016 
L 96.830559 -38.016 
L 96.426119 -38.016 
L 96.021679 -38.016 
L 95.61724 -38.016 
L 95.2128 -38.016 
L 94.808361 -38.016 
L 94.403921 -38.016 
L 93.999481 -38.016 
L 93.595042 -38.016 
z
" style="stroke: #008000; stroke-opacity: 0.5"/>
    </defs>
    <g clip-path="url(#pd8ff85276e)">
     <use xlink:href="#m25bda56cf7" x="0" y="345.6" style="fill: #008000; fill-opacity: 0.5; stroke: #008000; stroke-opacity: 0.5"/>
    </g>
   </g>
   <g id="matplotlib.axis_1">
    <g id="xtick_1">
     <g id="line2d_1">
      <path d="M 93.312 307.584 
L 93.312 41.472 
" clip-path="url(#pd8ff85276e)" style="fill: none; stroke: #b0b0b0; stroke-width: 0.8; stroke-linecap: square"/>
     </g>
     <g id="line2d_2">
      <defs>
       <path id="m19ed7b1220" d="M 0 0 
L 0 3.5 
" style="stroke: #000000; stroke-width: 0.8"/>
      </defs>
      <g>
       <use xlink:href="#m19ed7b1220" x="93.312" y="307.584" style="stroke: #000000; stroke-width: 0.8"/>
      </g>
     </g>
     <g id="text_1">
      <!-- 1.6 -->
      <g transform="translate(85.360438 322.182437)scale(0.1 -0.1)">
       <defs>
        <path id="DejaVuSans-31" d="M 794 531 
L 1825 531 
L 1825 4091 
L 703 3866 
L 703 4441 
L 1819 4666 
L 2450 4666 
L 2450 531 
L 3481 531 
L 3481 0 
L 794 0 
L 794 531 
z
" transform="scale(0.015625)"/>
        <path id="DejaVuSans-2e" d="M 684 794 
L 1344 794 
L 1344 0 
L 684 0 
L 684 794 
z
" transform="scale(0.015625)"/>
        <path id="DejaVuSans-36" d="M 2113 2584 
Q 1688 2584 1439 2293 
Q 1191 2003 1191 1497 
Q 1191 994 1439 701 
Q 1688 409 2113 409 
Q 2538 409 2786 701 
Q 3034 994 3034 1497 
Q 3034 2003 2786 2293 
Q 2538 2584 2113 2584 
z
M 3366 4563 
L 3366 3988 
Q 3128 4100 2886 4159 
Q 2644 4219 2406 4219 
Q 1781 4219 1451 3797 
Q 1122 3375 1075 2522 
Q 1259 2794 1537 2939 
Q 1816 3084 2150 3084 
Q 2853 3084 3261 2657 
Q 3669 2231 3669 1497 
Q 3669 778 3244 343 
Q 2819 -91 2113 -91 
Q 1303 -91 875 529 
Q 447 1150 447 2328 
Q 447 3434 972 4092 
Q 1497 4750 2381 4750 
Q 2619 4750 2861 4703 
Q 3103 4656 3366 4563 
z
" transform="scale(0.015625)"/>
       </defs>
       <use xlink:href="#DejaVuSans-31"/>
       <use xlink:href="#DejaVuSans-2e" x="63.623047"/>
       <use xlink:href="#DejaVuSans-36" x="95.410156"/>
      </g>
     </g>
    </g>
    <g id="xtick_2">
     <g id="line2d_3">
      <path d="M 164.736 307.584 
L 164.736 41.472 
" clip-path="url(#pd8ff85276e)" style="fill: none; stroke: #b0b0b0; stroke-width: 0.8; stroke-linecap: square"/>
     </g>
     <g id="line2d_4">
      <g>
       <use xlink:href="#m19ed7b1220" x="164.736" y="307.584" style="stroke: #000000; stroke-width: 0.8"/>
      </g>
     </g>
     <g id="text_2">
      <!-- 1.8 -->
      <g transform="translate(156.784438 322.182437)scale(0.1 -0.1)">
       <defs>
        <path id="DejaVuSans-38" d="M 2034 2216 
Q 1584 2216 1326 1975 
Q 1069 1734 1069 1313 
Q 1069 891 1326 650 
Q 1584 409 2034 409 
Q 2484 409 2743 651 
Q 3003 894 3003 1313 
Q 3003 1734 2745 1975 
Q 2488 2216 2034 2216 
z
M 1403 2484 
Q 997 2584 770 2862 
Q 544 3141 544 3541 
Q 544 4100 942 4425 
Q 1341 4750 2034 4750 
Q 2731 4750 3128 4425 
Q 3525 4100 3525 3541 
Q 3525 3141 3298 2862 
Q 3072 2584 2669 2484 
Q 3125 2378 3379 2068 
Q 3634 1759 3634 1313 
Q 3634 634 3220 271 
Q 2806 -91 2034 -91 
Q 1263 -91 848 271 
Q 434 634 434 1313 
Q 434 1759 690 2068 
Q 947 2378 1403 2484 
z
M 1172 3481 
Q 1172 3119 1398 2916 
Q 1625 2713 2034 2713 
Q 2441 2713 2670 2916 
Q 2900 3119 2900 3481 
Q 2900 3844 2670 4047 
Q 2441 4250 2034 4250 
Q 1625 4250 1398 4047 
Q 1172 3844 1172 3481 
z
" transform="scale(0.015625)"/>
       </defs>
       <use xlink:href="#DejaVuSans-31"/>
       <use xlink:href="#DejaVuSans-2e" x="63.623047"/>
       <use xlink:href="#DejaVuSans-38" x="95.410156"/>
      </g>
     </g>
    </g>
    <g id="xtick_3">
     <g id="line2d_5">
      <path d="M 236.16 307.584 
L 236.16 41.472 
" clip-path="url(#pd8ff85276e)" style="fill: none; stroke: #b0b0b0; stroke-width: 0.8; stroke-linecap: square"/>
     </g>
     <g id="line2d_6">
      <g>
       <use xlink:href="#m19ed7b1220" x="236.16" y="307.584" style="stroke: #000000; stroke-width: 0.8"/>
      </g>
     </g>
     <g id="text_3">
      <!-- 2.0 -->
      <g transform="translate(228.208437 322.182437)scale(0.1 -0.1)">
       <defs>
        <path id="DejaVuSans-32" d="M 1228 531 
L 3431 531 
L 3431 0 
L 469 0 
L 469 531 
Q 828 903 1448 1529 
Q 2069 2156 2228 2338 
Q 2531 2678 2651 2914 
Q 2772 3150 2772 3378 
Q 2772 3750 2511 3984 
Q 2250 4219 1831 4219 
Q 1534 4219 1204 4116 
Q 875 4013 500 3803 
L 500 4441 
Q 881 4594 1212 4672 
Q 1544 4750 1819 4750 
Q 2544 4750 2975 4387 
Q 3406 4025 3406 3419 
Q 3406 3131 3298 2873 
Q 3191 2616 2906 2266 
Q 2828 2175 2409 1742 
Q 1991 1309 1228 531 
z
" transform="scale(0.015625)"/>
        <path id="DejaVuSans-30" d="M 2034 4250 
Q 1547 4250 1301 3770 
Q 1056 3291 1056 2328 
Q 1056 1369 1301 889 
Q 1547 409 2034 409 
Q 2525 409 2770 889 
Q 3016 1369 3016 2328 
Q 3016 3291 2770 3770 
Q 2525 4250 2034 4250 
z
M 2034 4750 
Q 2819 4750 3233 4129 
Q 3647 3509 3647 2328 
Q 3647 1150 3233 529 
Q 2819 -91 2034 -91 
Q 1250 -91 836 529 
Q 422 1150 422 2328 
Q 422 3509 836 4129 
Q 1250 4750 2034 4750 
z
" transform="scale(0.015625)"/>
       </defs>
       <use xlink:href="#DejaVuSans-32"/>
       <use xlink:href="#DejaVuSans-2e" x="63.623047"/>
       <use xlink:href="#DejaVuSans-30" x="95.410156"/>
      </g>
     </g>
    </g>
    <g id="xtick_4">
     <g id="line2d_7">
      <path d="M 307.584 307.584 
L 307.584 41.472 
" clip-path="url(#pd8ff85276e)" style="fill: none; stroke: #b0b0b0; stroke-width: 0.8; stroke-linecap: square"/>
     </g>
     <g id="line2d_8">
      <g>
       <use xlink:href="#m19ed7b1220" x="307.584" y="307.584" style="stroke: #000000; stroke-width: 0.8"/>
      </g>
     </g>
     <g id="text_4">
      <!-- 2.2 -->
      <g transform="translate(299.632438 322.182437)scale(0.1 -0.1)">
       <use xlink:href="#DejaVuSans-32"/>
       <use xlink:href="#DejaVuSans-2e" x="63.623047"/>
       <use xlink:href="#DejaVuSans-32" x="95.410156"/>
      </g>
     </g>
    </g>
    <g id="xtick_5">
     <g id="line2d_9">
      <path d="M 379.008 307.584 
L 379.008 41.472 
" clip-path="url(#pd8ff85276e)" style="fill: none; stroke: #b0b0b0; stroke-width: 0.8; stroke-linecap: square"/>
     </g>
     <g id="line2d_10">
      <g>
       <use xlink:href="#m19ed7b1220" x="379.008" y="307.584" style="stroke: #000000; stroke-width: 0.8"/>
      </g>
     </g>
     <g id="text_5">
      <!-- 2.4 -->
      <g transform="translate(371.056438 322.182437)scale(0.1 -0.1)">
       <defs>
        <path id="DejaVuSans-34" d="M 2419 4116 
L 825 1625 
L 2419 1625 
L 2419 4116 
z
M 2253 4666 
L 3047 4666 
L 3047 1625 
L 3713 1625 
L 3713 1100 
L 3047 1100 
L 3047 0 
L 2419 0 
L 2419 1100 
L 313 1100 
L 313 1709 
L 2253 4666 
z
" transform="scale(0.015625)"/>
       </defs>
       <use xlink:href="#DejaVuSans-32"/>
       <use xlink:href="#DejaVuSans-2e" x="63.623047"/>
       <use xlink:href="#DejaVuSans-34" x="95.410156"/>
      </g>
     </g>
    </g>
    <g id="text_6">
     <!-- $\overline{x}$ -->
     <g transform="translate(233.16 335.860562)scale(0.1 -0.1)">
      <defs>
       <path id="DejaVuSans-Oblique-78" d="M 3841 3500 
L 2234 1784 
L 3219 0 
L 2559 0 
L 1819 1388 
L 531 0 
L -166 0 
L 1556 1844 
L 641 3500 
L 1300 3500 
L 1972 2234 
L 3144 3500 
L 3841 3500 
z
" transform="scale(0.015625)"/>
      </defs>
      <use xlink:href="#DejaVuSans-Oblique-78" transform="translate(0 1.0625)"/>
      <path d="M 0 67.5 
L 0 73.75 
L 59.179688 73.75 
L 59.179688 67.5 
L 0 67.5 
z
"/>
     </g>
    </g>
   </g>
   <g id="matplotlib.axis_2">
    <g id="ytick_1">
     <g id="line2d_11">
      <path d="M 57.6 307.584 
L 414.72 307.584 
" clip-path="url(#pd8ff85276e)" style="fill: none; stroke: #b0b0b0; stroke-width: 0.8; stroke-linecap: square"/>
     </g>
     <g id="line2d_12">
      <defs>
       <path id="mac4a79255a" d="M 0 0 
L -3.5 0 
" style="stroke: #000000; stroke-width: 0.8"/>
      </defs>
      <g>
       <use xlink:href="#mac4a79255a" x="57.6" y="307.584" style="stroke: #000000; stroke-width: 0.8"/>
      </g>
     </g>
     <g id="text_7">
      <!-- 0.0 -->
      <g transform="translate(34.696875 311.383219)scale(0.1 -0.1)">
       <use xlink:href="#DejaVuSans-30"/>
       <use xlink:href="#DejaVuSans-2e" x="63.623047"/>
       <use xlink:href="#DejaVuSans-30" x="95.410156"/>
      </g>
     </g>
    </g>
    <g id="ytick_2">
     <g id="line2d_13">
      <path d="M 57.6 266.004 
L 414.72 266.004 
" clip-path="url(#pd8ff85276e)" style="fill: none; stroke: #b0b0b0; stroke-width: 0.8; stroke-linecap: square"/>
     </g>
     <g id="line2d_14">
      <g>
       <use xlink:href="#mac4a79255a" x="57.6" y="266.004" style="stroke: #000000; stroke-width: 0.8"/>
      </g>
     </g>
     <g id="text_8">
      <!-- 0.5 -->
      <g transform="translate(34.696875 269.803219)scale(0.1 -0.1)">
       <defs>
        <path id="DejaVuSans-35" d="M 691 4666 
L 3169 4666 
L 3169 4134 
L 1269 4134 
L 1269 2991 
Q 1406 3038 1543 3061 
Q 1681 3084 1819 3084 
Q 2600 3084 3056 2656 
Q 3513 2228 3513 1497 
Q 3513 744 3044 326 
Q 2575 -91 1722 -91 
Q 1428 -91 1123 -41 
Q 819 9 494 109 
L 494 744 
Q 775 591 1075 516 
Q 1375 441 1709 441 
Q 2250 441 2565 725 
Q 2881 1009 2881 1497 
Q 2881 1984 2565 2268 
Q 2250 2553 1709 2553 
Q 1456 2553 1204 2497 
Q 953 2441 691 2322 
L 691 4666 
z
" transform="scale(0.015625)"/>
       </defs>
       <use xlink:href="#DejaVuSans-30"/>
       <use xlink:href="#DejaVuSans-2e" x="63.623047"/>
       <use xlink:href="#DejaVuSans-35" x="95.410156"/>
      </g>
     </g>
    </g>
    <g id="ytick_3">
     <g id="line2d_15">
      <path d="M 57.6 224.424 
L 414.72 224.424 
" clip-path="url(#pd8ff85276e)" style="fill: none; stroke: #b0b0b0; stroke-width: 0.8; stroke-linecap: square"/>
     </g>
     <g id="line2d_16">
      <g>
       <use xlink:href="#mac4a79255a" x="57.6" y="224.424" style="stroke: #000000; stroke-width: 0.8"/>
      </g>
     </g>
     <g id="text_9">
      <!-- 1.0 -->
      <g transform="translate(34.696875 228.223219)scale(0.1 -0.1)">
       <use xlink:href="#DejaVuSans-31"/>
       <use xlink:href="#DejaVuSans-2e" x="63.623047"/>
       <use xlink:href="#DejaVuSans-30" x="95.410156"/>
      </g>
     </g>
    </g>
    <g id="ytick_4">
     <g id="line2d_17">
      <path d="M 57.6 182.844 
L 414.72 182.844 
" clip-path="url(#pd8ff85276e)" style="fill: none; stroke: #b0b0b0; stroke-width: 0.8; stroke-linecap: square"/>
     </g>
     <g id="line2d_18">
      <g>
       <use xlink:href="#mac4a79255a" x="57.6" y="182.844" style="stroke: #000000; stroke-width: 0.8"/>
      </g>
     </g>
     <g id="text_10">
      <!-- 1.5 -->
      <g transform="translate(34.696875 186.643219)scale(0.1 -0.1)">
       <use xlink:href="#DejaVuSans-31"/>
       <use xlink:href="#DejaVuSans-2e" x="63.623047"/>
       <use xlink:href="#DejaVuSans-35" x="95.410156"/>
      </g>
     </g>
    </g>
    <g id="ytick_5">
     <g id="line2d_19">
      <path d="M 57.6 141.264 
L 414.72 141.264 
" clip-path="url(#pd8ff85276e)" style="fill: none; stroke: #b0b0b0; stroke-width: 0.8; stroke-linecap: square"/>
     </g>
     <g id="line2d_20">
      <g>
       <use xlink:href="#mac4a79255a" x="57.6" y="141.264" style="stroke: #000000; stroke-width: 0.8"/>
      </g>
     </g>
     <g id="text_11">
      <!-- 2.0 -->
      <g transform="translate(34.696875 145.063219)scale(0.1 -0.1)">
       <use xlink:href="#DejaVuSans-32"/>
       <use xlink:href="#DejaVuSans-2e" x="63.623047"/>
       <use xlink:href="#DejaVuSans-30" x="95.410156"/>
      </g>
     </g>
    </g>
    <g id="ytick_6">
     <g id="line2d_21">
      <path d="M 57.6 99.684 
L 414.72 99.684 
" clip-path="url(#pd8ff85276e)" style="fill: none; stroke: #b0b0b0; stroke-width: 0.8; stroke-linecap: square"/>
     </g>
     <g id="line2d_22">
      <g>
       <use xlink:href="#mac4a79255a" x="57.6" y="99.684" style="stroke: #000000; stroke-width: 0.8"/>
      </g>
     </g>
     <g id="text_12">
      <!-- 2.5 -->
      <g transform="translate(34.696875 103.483219)scale(0.1 -0.1)">
       <use xlink:href="#DejaVuSans-32"/>
       <use xlink:href="#DejaVuSans-2e" x="63.623047"/>
       <use xlink:href="#DejaVuSans-35" x="95.410156"/>
      </g>
     </g>
    </g>
    <g id="ytick_7">
     <g id="line2d_23">
      <path d="M 57.6 58.104 
L 414.72 58.104 
" clip-path="url(#pd8ff85276e)" style="fill: none; stroke: #b0b0b0; stroke-width: 0.8; stroke-linecap: square"/>
     </g>
     <g id="line2d_24">
      <g>
       <use xlink:href="#mac4a79255a" x="57.6" y="58.104" style="stroke: #000000; stroke-width: 0.8"/>
      </g>
     </g>
     <g id="text_13">
      <!-- 3.0 -->
      <g transform="translate(34.696875 61.903219)scale(0.1 -0.1)">
       <defs>
        <path id="DejaVuSans-33" d="M 2597 2516 
Q 3050 2419 3304 2112 
Q 3559 1806 3559 1356 
Q 3559 666 3084 287 
Q 2609 -91 1734 -91 
Q 1441 -91 1130 -33 
Q 819 25 488 141 
L 488 750 
Q 750 597 1062 519 
Q 1375 441 1716 441 
Q 2309 441 2620 675 
Q 2931 909 2931 1356 
Q 2931 1769 2642 2001 
Q 2353 2234 1838 2234 
L 1294 2234 
L 1294 2753 
L 1863 2753 
Q 2328 2753 2575 2939 
Q 2822 3125 2822 3475 
Q 2822 3834 2567 4026 
Q 2313 4219 1838 4219 
Q 1578 4219 1281 4162 
Q 984 4106 628 3988 
L 628 4550 
Q 988 4650 1302 4700 
Q 1616 4750 1894 4750 
Q 2613 4750 3031 4423 
Q 3450 4097 3450 3541 
Q 3450 3153 3228 2886 
Q 3006 2619 2597 2516 
z
" transform="scale(0.015625)"/>
       </defs>
       <use xlink:href="#DejaVuSans-33"/>
       <use xlink:href="#DejaVuSans-2e" x="63.623047"/>
       <use xlink:href="#DejaVuSans-30" x="95.410156"/>
      </g>
     </g>
    </g>
    <g id="text_14">
     <!-- Probability density -->
     <g transform="translate(28.617187 220.878781)rotate(-90)scale(0.1 -0.1)">
      <defs>
       <path id="DejaVuSans-50" d="M 1259 4147 
L 1259 2394 
L 2053 2394 
Q 2494 2394 2734 2622 
Q 2975 2850 2975 3272 
Q 2975 3691 2734 3919 
Q 2494 4147 2053 4147 
L 1259 4147 
z
M 628 4666 
L 2053 4666 
Q 2838 4666 3239 4311 
Q 3641 3956 3641 3272 
Q 3641 2581 3239 2228 
Q 2838 1875 2053 1875 
L 1259 1875 
L 1259 0 
L 628 0 
L 628 4666 
z
" transform="scale(0.015625)"/>
       <path id="DejaVuSans-72" d="M 2631 2963 
Q 2534 3019 2420 3045 
Q 2306 3072 2169 3072 
Q 1681 3072 1420 2755 
Q 1159 2438 1159 1844 
L 1159 0 
L 581 0 
L 581 3500 
L 1159 3500 
L 1159 2956 
Q 1341 3275 1631 3429 
Q 1922 3584 2338 3584 
Q 2397 3584 2469 3576 
Q 2541 3569 2628 3553 
L 2631 2963 
z
" transform="scale(0.015625)"/>
       <path id="DejaVuSans-6f" d="M 1959 3097 
Q 1497 3097 1228 2736 
Q 959 2375 959 1747 
Q 959 1119 1226 758 
Q 1494 397 1959 397 
Q 2419 397 2687 759 
Q 2956 1122 2956 1747 
Q 2956 2369 2687 2733 
Q 2419 3097 1959 3097 
z
M 1959 3584 
Q 2709 3584 3137 3096 
Q 3566 2609 3566 1747 
Q 3566 888 3137 398 
Q 2709 -91 1959 -91 
Q 1206 -91 779 398 
Q 353 888 353 1747 
Q 353 2609 779 3096 
Q 1206 3584 1959 3584 
z
" transform="scale(0.015625)"/>
       <path id="DejaVuSans-62" d="M 3116 1747 
Q 3116 2381 2855 2742 
Q 2594 3103 2138 3103 
Q 1681 3103 1420 2742 
Q 1159 2381 1159 1747 
Q 1159 1113 1420 752 
Q 1681 391 2138 391 
Q 2594 391 2855 752 
Q 3116 1113 3116 1747 
z
M 1159 2969 
Q 1341 3281 1617 3432 
Q 1894 3584 2278 3584 
Q 2916 3584 3314 3078 
Q 3713 2572 3713 1747 
Q 3713 922 3314 415 
Q 2916 -91 2278 -91 
Q 1894 -91 1617 61 
Q 1341 213 1159 525 
L 1159 0 
L 581 0 
L 581 4863 
L 1159 4863 
L 1159 2969 
z
" transform="scale(0.015625)"/>
       <path id="DejaVuSans-61" d="M 2194 1759 
Q 1497 1759 1228 1600 
Q 959 1441 959 1056 
Q 959 750 1161 570 
Q 1363 391 1709 391 
Q 2188 391 2477 730 
Q 2766 1069 2766 1631 
L 2766 1759 
L 2194 1759 
z
M 3341 1997 
L 3341 0 
L 2766 0 
L 2766 531 
Q 2569 213 2275 61 
Q 1981 -91 1556 -91 
Q 1019 -91 701 211 
Q 384 513 384 1019 
Q 384 1609 779 1909 
Q 1175 2209 1959 2209 
L 2766 2209 
L 2766 2266 
Q 2766 2663 2505 2880 
Q 2244 3097 1772 3097 
Q 1472 3097 1187 3025 
Q 903 2953 641 2809 
L 641 3341 
Q 956 3463 1253 3523 
Q 1550 3584 1831 3584 
Q 2591 3584 2966 3190 
Q 3341 2797 3341 1997 
z
" transform="scale(0.015625)"/>
       <path id="DejaVuSans-69" d="M 603 3500 
L 1178 3500 
L 1178 0 
L 603 0 
L 603 3500 
z
M 603 4863 
L 1178 4863 
L 1178 4134 
L 603 4134 
L 603 4863 
z
" transform="scale(0.015625)"/>
       <path id="DejaVuSans-6c" d="M 603 4863 
L 1178 4863 
L 1178 0 
L 603 0 
L 603 4863 
z
" transform="scale(0.015625)"/>
       <path id="DejaVuSans-74" d="M 1172 4494 
L 1172 3500 
L 2356 3500 
L 2356 3053 
L 1172 3053 
L 1172 1153 
Q 1172 725 1289 603 
Q 1406 481 1766 481 
L 2356 481 
L 2356 0 
L 1766 0 
Q 1100 0 847 248 
Q 594 497 594 1153 
L 594 3053 
L 172 3053 
L 172 3500 
L 594 3500 
L 594 4494 
L 1172 4494 
z
" transform="scale(0.015625)"/>
       <path id="DejaVuSans-79" d="M 2059 -325 
Q 1816 -950 1584 -1140 
Q 1353 -1331 966 -1331 
L 506 -1331 
L 506 -850 
L 844 -850 
Q 1081 -850 1212 -737 
Q 1344 -625 1503 -206 
L 1606 56 
L 191 3500 
L 800 3500 
L 1894 763 
L 2988 3500 
L 3597 3500 
L 2059 -325 
z
" transform="scale(0.015625)"/>
       <path id="DejaVuSans-20" transform="scale(0.015625)"/>
       <path id="DejaVuSans-64" d="M 2906 2969 
L 2906 4863 
L 3481 4863 
L 3481 0 
L 2906 0 
L 2906 525 
Q 2725 213 2448 61 
Q 2172 -91 1784 -91 
Q 1150 -91 751 415 
Q 353 922 353 1747 
Q 353 2572 751 3078 
Q 1150 3584 1784 3584 
Q 2172 3584 2448 3432 
Q 2725 3281 2906 2969 
z
M 947 1747 
Q 947 1113 1208 752 
Q 1469 391 1925 391 
Q 2381 391 2643 752 
Q 2906 1113 2906 1747 
Q 2906 2381 2643 2742 
Q 2381 3103 1925 3103 
Q 1469 3103 1208 2742 
Q 947 2381 947 1747 
z
" transform="scale(0.015625)"/>
       <path id="DejaVuSans-65" d="M 3597 1894 
L 3597 1613 
L 953 1613 
Q 991 1019 1311 708 
Q 1631 397 2203 397 
Q 2534 397 2845 478 
Q 3156 559 3463 722 
L 3463 178 
Q 3153 47 2828 -22 
Q 2503 -91 2169 -91 
Q 1331 -91 842 396 
Q 353 884 353 1716 
Q 353 2575 817 3079 
Q 1281 3584 2069 3584 
Q 2775 3584 3186 3129 
Q 3597 2675 3597 1894 
z
M 3022 2063 
Q 3016 2534 2758 2815 
Q 2500 3097 2075 3097 
Q 1594 3097 1305 2825 
Q 1016 2553 972 2059 
L 3022 2063 
z
" transform="scale(0.015625)"/>
       <path id="DejaVuSans-6e" d="M 3513 2113 
L 3513 0 
L 2938 0 
L 2938 2094 
Q 2938 2591 2744 2837 
Q 2550 3084 2163 3084 
Q 1697 3084 1428 2787 
Q 1159 2491 1159 1978 
L 1159 0 
L 581 0 
L 581 3500 
L 1159 3500 
L 1159 2956 
Q 1366 3272 1645 3428 
Q 1925 3584 2291 3584 
Q 2894 3584 3203 3211 
Q 3513 2838 3513 2113 
z
" transform="scale(0.015625)"/>
       <path id="DejaVuSans-73" d="M 2834 3397 
L 2834 2853 
Q 2591 2978 2328 3040 
Q 2066 3103 1784 3103 
Q 1356 3103 1142 2972 
Q 928 2841 928 2578 
Q 928 2378 1081 2264 
Q 1234 2150 1697 2047 
L 1894 2003 
Q 2506 1872 2764 1633 
Q 3022 1394 3022 966 
Q 3022 478 2636 193 
Q 2250 -91 1575 -91 
Q 1294 -91 989 -36 
Q 684 19 347 128 
L 347 722 
Q 666 556 975 473 
Q 1284 391 1588 391 
Q 1994 391 2212 530 
Q 2431 669 2431 922 
Q 2431 1156 2273 1281 
Q 2116 1406 1581 1522 
L 1381 1569 
Q 847 1681 609 1914 
Q 372 2147 372 2553 
Q 372 3047 722 3315 
Q 1072 3584 1716 3584 
Q 2034 3584 2315 3537 
Q 2597 3491 2834 3397 
z
" transform="scale(0.015625)"/>
      </defs>
      <use xlink:href="#DejaVuSans-50"/>
      <use xlink:href="#DejaVuSans-72" x="58.552734"/>
      <use xlink:href="#DejaVuSans-6f" x="97.416016"/>
      <use xlink:href="#DejaVuSans-62" x="158.597656"/>
      <use xlink:href="#DejaVuSans-61" x="222.074219"/>
      <use xlink:href="#DejaVuSans-62" x="283.353516"/>
      <use xlink:href="#DejaVuSans-69" x="346.830078"/>
      <use xlink:href="#DejaVuSans-6c" x="374.613281"/>
      <use xlink:href="#DejaVuSans-69" x="402.396484"/>
      <use xlink:href="#DejaVuSans-74" x="430.179688"/>
      <use xlink:href="#DejaVuSans-79" x="469.388672"/>
      <use xlink:href="#DejaVuSans-20" x="528.568359"/>
      <use xlink:href="#DejaVuSans-64" x="560.355469"/>
      <use xlink:href="#DejaVuSans-65" x="623.832031"/>
      <use xlink:href="#DejaVuSans-6e" x="685.355469"/>
      <use xlink:href="#DejaVuSans-73" x="748.734375"/>
      <use xlink:href="#DejaVuSans-69" x="800.833984"/>
      <use xlink:href="#DejaVuSans-74" x="828.617188"/>
      <use xlink:href="#DejaVuSans-79" x="867.826172"/>
     </g>
    </g>
   </g>
   <g id="line2d_25">
    <path d="M 34.142421 307.505304 
L 51.533324 307.289969 
L 62.453193 306.95084 
L 70.946424 306.470808 
L 77.821898 305.862315 
L 83.484052 305.152507 
L 88.741767 304.271194 
L 93.190602 303.316459 
L 97.639438 302.129066 
L 101.683834 300.810938 
L 105.32379 299.399357 
L 108.963747 297.744827 
L 112.199263 296.045767 
L 115.43478 294.108728 
L 118.670297 291.910955 
L 121.905814 289.429397 
L 125.14133 286.641056 
L 128.376847 283.523411 
L 131.612364 280.054879 
L 134.847881 276.215338 
L 138.083398 271.986686 
L 141.318914 267.353445 
L 144.554431 262.303379 
L 147.789948 256.828127 
L 151.025465 250.92384 
L 154.260982 244.591789 
L 157.900938 236.965826 
L 161.540894 228.826809 
L 165.58529 219.218671 
L 170.034126 208.030618 
L 174.887401 195.202843 
L 180.953995 178.506477 
L 197.536018 132.475311 
L 201.984854 120.997718 
L 205.62481 112.180614 
L 208.860327 104.879877 
L 211.691404 98.971842 
L 214.522482 93.565176 
L 216.949119 89.365945 
L 219.375757 85.597395 
L 221.802394 82.284494 
L 223.824592 79.887909 
L 225.84679 77.834461 
L 227.868988 76.133855 
L 229.486747 75.032901 
L 231.104505 74.166332 
L 232.722263 73.536801 
L 234.340022 73.146241 
L 235.95778 72.995852 
L 237.575539 73.086097 
L 239.193297 73.416698 
L 240.811055 73.986639 
L 242.428814 74.794169 
L 244.046572 75.836814 
L 245.664331 77.111388 
L 247.686529 79.024774 
L 249.708727 81.28537 
L 251.730925 83.882533 
L 253.753122 86.804129 
L 256.17976 90.719143 
L 258.606398 95.055946 
L 261.437475 100.610854 
L 264.268552 106.652946 
L 267.504069 114.088462 
L 271.144025 123.032631 
L 275.592861 134.629229 
L 280.850576 148.992962 
L 300.668116 203.819821 
L 305.521391 216.228159 
L 309.565787 226.004667 
L 313.610183 235.200608 
L 317.250139 242.942621 
L 320.890096 250.155641 
L 324.125612 256.113579 
L 327.361129 261.642349 
L 330.596646 266.745194 
L 333.832163 271.429942 
L 337.06768 275.708381 
L 340.303196 279.595619 
L 343.538713 283.109463 
L 346.77423 286.269813 
L 350.009747 289.098099 
L 353.245263 291.616754 
L 356.48078 293.848736 
L 359.716297 295.817114 
L 362.951814 297.544695 
L 366.59177 299.228057 
L 370.231727 300.66519 
L 374.276123 302.008107 
L 378.320519 303.119094 
L 382.769354 304.11309 
L 387.622629 304.970104 
L 393.284784 305.728168 
L 399.755817 306.348465 
L 407.03573 306.817409 
L 416.337841 307.179834 
L 428.875468 307.42236 
L 438.177579 307.505304 
L 438.177579 307.505304 
" clip-path="url(#pd8ff85276e)" style="fill: none; stroke: #000000; stroke-linecap: square"/>
   </g>
   <g id="line2d_26">
    <path d="M 236.16 307.584 
L 236.16 58.104 
" clip-path="url(#pd8ff85276e)" style="fill: none; stroke: #000000; stroke-width: 3; stroke-linecap: square"/>
   </g>
   <g id="patch_3">
    <path d="M 57.6 307.584 
L 57.6 41.472 
" style="fill: none; stroke: #000000; stroke-width: 0.8; stroke-linejoin: miter; stroke-linecap: square"/>
   </g>
   <g id="patch_4">
    <path d="M 57.6 307.584 
L 414.72 307.584 
" style="fill: none; stroke: #000000; stroke-width: 0.8; stroke-linejoin: miter; stroke-linecap: square"/>
   </g>
   <g id="patch_5">
    <path d="M 143.644295 113.997476 
Q 167.597448 127.148947 190.570569 139.762332 
" style="fill: none; stroke: #000000; stroke-linecap: round"/>
    <path d="M 188.026858 136.084081 
L 190.570569 139.762332 
L 186.101741 139.590351 
" style="fill: none; stroke: #000000; stroke-linecap: round"/>
   </g>
   <g id="text_15">
    <!-- Sampling dist. of -->
    <g transform="translate(75.456 95.933375)scale(0.1 -0.1)">
     <defs>
      <path id="DejaVuSans-53" d="M 3425 4513 
L 3425 3897 
Q 3066 4069 2747 4153 
Q 2428 4238 2131 4238 
Q 1616 4238 1336 4038 
Q 1056 3838 1056 3469 
Q 1056 3159 1242 3001 
Q 1428 2844 1947 2747 
L 2328 2669 
Q 3034 2534 3370 2195 
Q 3706 1856 3706 1288 
Q 3706 609 3251 259 
Q 2797 -91 1919 -91 
Q 1588 -91 1214 -16 
Q 841 59 441 206 
L 441 856 
Q 825 641 1194 531 
Q 1563 422 1919 422 
Q 2459 422 2753 634 
Q 3047 847 3047 1241 
Q 3047 1584 2836 1778 
Q 2625 1972 2144 2069 
L 1759 2144 
Q 1053 2284 737 2584 
Q 422 2884 422 3419 
Q 422 4038 858 4394 
Q 1294 4750 2059 4750 
Q 2388 4750 2728 4690 
Q 3069 4631 3425 4513 
z
" transform="scale(0.015625)"/>
      <path id="DejaVuSans-6d" d="M 3328 2828 
Q 3544 3216 3844 3400 
Q 4144 3584 4550 3584 
Q 5097 3584 5394 3201 
Q 5691 2819 5691 2113 
L 5691 0 
L 5113 0 
L 5113 2094 
Q 5113 2597 4934 2840 
Q 4756 3084 4391 3084 
Q 3944 3084 3684 2787 
Q 3425 2491 3425 1978 
L 3425 0 
L 2847 0 
L 2847 2094 
Q 2847 2600 2669 2842 
Q 2491 3084 2119 3084 
Q 1678 3084 1418 2786 
Q 1159 2488 1159 1978 
L 1159 0 
L 581 0 
L 581 3500 
L 1159 3500 
L 1159 2956 
Q 1356 3278 1631 3431 
Q 1906 3584 2284 3584 
Q 2666 3584 2933 3390 
Q 3200 3197 3328 2828 
z
" transform="scale(0.015625)"/>
      <path id="DejaVuSans-70" d="M 1159 525 
L 1159 -1331 
L 581 -1331 
L 581 3500 
L 1159 3500 
L 1159 2969 
Q 1341 3281 1617 3432 
Q 1894 3584 2278 3584 
Q 2916 3584 3314 3078 
Q 3713 2572 3713 1747 
Q 3713 922 3314 415 
Q 2916 -91 2278 -91 
Q 1894 -91 1617 61 
Q 1341 213 1159 525 
z
M 3116 1747 
Q 3116 2381 2855 2742 
Q 2594 3103 2138 3103 
Q 1681 3103 1420 2742 
Q 1159 2381 1159 1747 
Q 1159 1113 1420 752 
Q 1681 391 2138 391 
Q 2594 391 2855 752 
Q 3116 1113 3116 1747 
z
" transform="scale(0.015625)"/>
      <path id="DejaVuSans-67" d="M 2906 1791 
Q 2906 2416 2648 2759 
Q 2391 3103 1925 3103 
Q 1463 3103 1205 2759 
Q 947 2416 947 1791 
Q 947 1169 1205 825 
Q 1463 481 1925 481 
Q 2391 481 2648 825 
Q 2906 1169 2906 1791 
z
M 3481 434 
Q 3481 -459 3084 -895 
Q 2688 -1331 1869 -1331 
Q 1566 -1331 1297 -1286 
Q 1028 -1241 775 -1147 
L 775 -588 
Q 1028 -725 1275 -790 
Q 1522 -856 1778 -856 
Q 2344 -856 2625 -561 
Q 2906 -266 2906 331 
L 2906 616 
Q 2728 306 2450 153 
Q 2172 0 1784 0 
Q 1141 0 747 490 
Q 353 981 353 1791 
Q 353 2603 747 3093 
Q 1141 3584 1784 3584 
Q 2172 3584 2450 3431 
Q 2728 3278 2906 2969 
L 2906 3500 
L 3481 3500 
L 3481 434 
z
" transform="scale(0.015625)"/>
      <path id="DejaVuSans-66" d="M 2375 4863 
L 2375 4384 
L 1825 4384 
Q 1516 4384 1395 4259 
Q 1275 4134 1275 3809 
L 1275 3500 
L 2222 3500 
L 2222 3053 
L 1275 3053 
L 1275 0 
L 697 0 
L 697 3053 
L 147 3053 
L 147 3500 
L 697 3500 
L 697 3744 
Q 697 4328 969 4595 
Q 1241 4863 1831 4863 
L 2375 4863 
z
" transform="scale(0.015625)"/>
     </defs>
     <use xlink:href="#DejaVuSans-53"/>
     <use xlink:href="#DejaVuSans-61" x="63.476562"/>
     <use xlink:href="#DejaVuSans-6d" x="124.755859"/>
     <use xlink:href="#DejaVuSans-70" x="222.167969"/>
     <use xlink:href="#DejaVuSans-6c" x="285.644531"/>
     <use xlink:href="#DejaVuSans-69" x="313.427734"/>
     <use xlink:href="#DejaVuSans-6e" x="341.210938"/>
     <use xlink:href="#DejaVuSans-67" x="404.589844"/>
     <use xlink:href="#DejaVuSans-20" x="468.066406"/>
     <use xlink:href="#DejaVuSans-64" x="499.853516"/>
     <use xlink:href="#DejaVuSans-69" x="563.330078"/>
     <use xlink:href="#DejaVuSans-73" x="591.113281"/>
     <use xlink:href="#DejaVuSans-74" x="643.212891"/>
     <use xlink:href="#DejaVuSans-2e" x="682.421875"/>
     <use xlink:href="#DejaVuSans-20" x="714.208984"/>
     <use xlink:href="#DejaVuSans-6f" x="745.996094"/>
     <use xlink:href="#DejaVuSans-66" x="807.177734"/>
    </g>
    <!-- $\overline{x}$ = $N(\mu, \sigma^2/n)$ -->
    <g transform="translate(75.456 108.933063)scale(0.1 -0.1)">
     <defs>
      <path id="DejaVuSans-3d" d="M 678 2906 
L 4684 2906 
L 4684 2381 
L 678 2381 
L 678 2906 
z
M 678 1631 
L 4684 1631 
L 4684 1100 
L 678 1100 
L 678 1631 
z
" transform="scale(0.015625)"/>
      <path id="DejaVuSans-Oblique-4e" d="M 1081 4666 
L 1931 4666 
L 3219 666 
L 4000 4666 
L 4616 4666 
L 3706 0 
L 2853 0 
L 1569 4025 
L 788 0 
L 172 0 
L 1081 4666 
z
" transform="scale(0.015625)"/>
      <path id="DejaVuSans-28" d="M 1984 4856 
Q 1566 4138 1362 3434 
Q 1159 2731 1159 2009 
Q 1159 1288 1364 580 
Q 1569 -128 1984 -844 
L 1484 -844 
Q 1016 -109 783 600 
Q 550 1309 550 2009 
Q 550 2706 781 3412 
Q 1013 4119 1484 4856 
L 1984 4856 
z
" transform="scale(0.015625)"/>
      <path id="DejaVuSans-Oblique-3bc" d="M -84 -1331 
L 856 3500 
L 1434 3500 
L 1009 1322 
Q 997 1256 987 1175 
Q 978 1094 978 1013 
Q 978 722 1161 565 
Q 1344 409 1684 409 
Q 2147 409 2431 671 
Q 2716 934 2816 1459 
L 3213 3500 
L 3788 3500 
L 3266 809 
Q 3253 750 3248 706 
Q 3244 663 3244 628 
Q 3244 531 3283 486 
Q 3322 441 3406 441 
Q 3438 441 3492 456 
Q 3547 472 3647 513 
L 3559 50 
Q 3422 -19 3297 -55 
Q 3172 -91 3053 -91 
Q 2847 -91 2730 40 
Q 2613 172 2613 403 
Q 2438 153 2195 31 
Q 1953 -91 1625 -91 
Q 1334 -91 1117 43 
Q 900 178 831 397 
L 494 -1331 
L -84 -1331 
z
" transform="scale(0.015625)"/>
      <path id="DejaVuSans-2c" d="M 750 794 
L 1409 794 
L 1409 256 
L 897 -744 
L 494 -744 
L 750 256 
L 750 794 
z
" transform="scale(0.015625)"/>
      <path id="DejaVuSans-Oblique-3c3" d="M 2219 3044 
Q 1744 3044 1422 2700 
Q 1081 2341 969 1747 
Q 844 1119 1044 756 
Q 1241 397 1706 397 
Q 2166 397 2503 759 
Q 2844 1122 2966 1747 
Q 3075 2319 2881 2700 
Q 2700 3044 2219 3044 
z
M 2309 3503 
L 4219 3500 
L 4106 2925 
L 3463 2925 
Q 3706 2438 3575 1747 
Q 3406 888 2884 400 
Q 2359 -91 1609 -91 
Q 856 -91 525 400 
Q 194 888 363 1747 
Q 528 2609 1050 3097 
Q 1484 3503 2309 3503 
z
" transform="scale(0.015625)"/>
      <path id="DejaVuSans-2f" d="M 1625 4666 
L 2156 4666 
L 531 -594 
L 0 -594 
L 1625 4666 
z
" transform="scale(0.015625)"/>
      <path id="DejaVuSans-Oblique-6e" d="M 3566 2113 
L 3156 0 
L 2578 0 
L 2988 2091 
Q 3016 2238 3031 2350 
Q 3047 2463 3047 2528 
Q 3047 2791 2881 2937 
Q 2716 3084 2419 3084 
Q 1956 3084 1622 2776 
Q 1288 2469 1184 1941 
L 800 0 
L 225 0 
L 903 3500 
L 1478 3500 
L 1363 2950 
Q 1603 3253 1940 3418 
Q 2278 3584 2650 3584 
Q 3113 3584 3367 3334 
Q 3622 3084 3622 2631 
Q 3622 2519 3608 2391 
Q 3594 2263 3566 2113 
z
" transform="scale(0.015625)"/>
      <path id="DejaVuSans-29" d="M 513 4856 
L 1013 4856 
Q 1481 4119 1714 3412 
Q 1947 2706 1947 2009 
Q 1947 1309 1714 600 
Q 1481 -109 1013 -844 
L 513 -844 
Q 928 -128 1133 580 
Q 1338 1288 1338 2009 
Q 1338 2731 1133 3434 
Q 928 4138 513 4856 
z
" transform="scale(0.015625)"/>
     </defs>
     <use xlink:href="#DejaVuSans-Oblique-78" transform="translate(0 1.265625)"/>
     <use xlink:href="#DejaVuSans-20" transform="translate(59.179688 0.765625)"/>
     <use xlink:href="#DejaVuSans-3d" transform="translate(90.966797 0.765625)"/>
     <use xlink:href="#DejaVuSans-20" transform="translate(174.755859 0.765625)"/>
     <use xlink:href="#DejaVuSans-Oblique-4e" transform="translate(206.542969 0.765625)"/>
     <use xlink:href="#DejaVuSans-28" transform="translate(281.347656 0.765625)"/>
     <use xlink:href="#DejaVuSans-Oblique-3bc" transform="translate(320.361328 0.765625)"/>
     <use xlink:href="#DejaVuSans-2c" transform="translate(383.984375 0.765625)"/>
     <use xlink:href="#DejaVuSans-Oblique-3c3" transform="translate(435.253906 0.765625)"/>
     <use xlink:href="#DejaVuSans-32" transform="translate(503.105521 39.046875)scale(0.7)"/>
     <use xlink:href="#DejaVuSans-2f" transform="translate(550.376029 0.765625)"/>
     <use xlink:href="#DejaVuSans-Oblique-6e" transform="translate(584.067435 0.765625)"/>
     <use xlink:href="#DejaVuSans-29" transform="translate(647.446341 0.765625)"/>
     <path d="M 0 67.703125 
L 0 73.953125 
L 59.179688 73.953125 
L 59.179688 67.703125 
L 0 67.703125 
z
"/>
    </g>
   </g>
   <g id="text_16">
    <g id="patch_6">
     <path d="M 232.16 56.2828 
L 249.76 56.2828 
L 249.76 38.604675 
L 232.16 38.604675 
L 232.16 56.2828 
z
" style="fill: none; opacity: 0"/>
    </g>
    <!--  $\mu$ -->
    <g transform="translate(236.16 50.1828)scale(0.1 -0.1)">
     <use xlink:href="#DejaVuSans-20" transform="translate(0 0.3125)"/>
     <use xlink:href="#DejaVuSans-Oblique-3bc" transform="translate(31.787109 0.3125)"/>
    </g>
   </g>
   <g id="legend_1">
    <g id="patch_7">
     <path d="M 373.91 384.9008 
Q 375.91 384.9008 375.91 382.9008 
Q 375.91 352.5008 373.91 352.5008 
Q 96.41 352.5008 96.41 354.5008 
Q 96.41 384.9008 98.41 384.9008 
" style="fill: none; opacity: 0"/>
    </g>
    <g id="patch_8">
     <path d="M 100.41 364.1008 
L 120.41 364.1008 
L 120.41 357.1008 
L 100.41 357.1008 
z
" style="fill: #ff0000; stroke: #ff0000; stroke-linejoin: miter"/>
    </g>
    <g id="text_17">
     <!-- rejection region for $H_0$: $\mu=2$. Area = $\alpha$ = 0.0047 -->
     <g transform="translate(128.41 364.1008)scale(0.1 -0.1)">
      <defs>
       <path id="DejaVuSans-6a" d="M 603 3500 
L 1178 3500 
L 1178 -63 
Q 1178 -731 923 -1031 
Q 669 -1331 103 -1331 
L -116 -1331 
L -116 -844 
L 38 -844 
Q 366 -844 484 -692 
Q 603 -541 603 -63 
L 603 3500 
z
M 603 4863 
L 1178 4863 
L 1178 4134 
L 603 4134 
L 603 4863 
z
" transform="scale(0.015625)"/>
       <path id="DejaVuSans-63" d="M 3122 3366 
L 3122 2828 
Q 2878 2963 2633 3030 
Q 2388 3097 2138 3097 
Q 1578 3097 1268 2742 
Q 959 2388 959 1747 
Q 959 1106 1268 751 
Q 1578 397 2138 397 
Q 2388 397 2633 464 
Q 2878 531 3122 666 
L 3122 134 
Q 2881 22 2623 -34 
Q 2366 -91 2075 -91 
Q 1284 -91 818 406 
Q 353 903 353 1747 
Q 353 2603 823 3093 
Q 1294 3584 2113 3584 
Q 2378 3584 2631 3529 
Q 2884 3475 3122 3366 
z
" transform="scale(0.015625)"/>
       <path id="DejaVuSans-Oblique-48" d="M 1081 4666 
L 1716 4666 
L 1344 2753 
L 3634 2753 
L 4006 4666 
L 4641 4666 
L 3731 0 
L 3097 0 
L 3531 2222 
L 1241 2222 
L 806 0 
L 172 0 
L 1081 4666 
z
" transform="scale(0.015625)"/>
       <path id="DejaVuSans-3a" d="M 750 794 
L 1409 794 
L 1409 0 
L 750 0 
L 750 794 
z
M 750 3309 
L 1409 3309 
L 1409 2516 
L 750 2516 
L 750 3309 
z
" transform="scale(0.015625)"/>
       <path id="DejaVuSans-41" d="M 2188 4044 
L 1331 1722 
L 3047 1722 
L 2188 4044 
z
M 1831 4666 
L 2547 4666 
L 4325 0 
L 3669 0 
L 3244 1197 
L 1141 1197 
L 716 0 
L 50 0 
L 1831 4666 
z
" transform="scale(0.015625)"/>
       <path id="DejaVuSans-Oblique-3b1" d="M 2619 1628 
L 2622 2350 
Q 2625 3088 2069 3091 
Q 1653 3094 1394 2747 
Q 1069 2319 959 1747 
Q 825 1059 994 731 
Q 1169 397 1547 397 
Q 1966 397 2319 1063 
L 2619 1628 
z
M 2166 3578 
Q 3141 3594 3128 2584 
Q 3128 2584 3616 3500 
L 4128 3500 
L 3119 1603 
L 3109 919 
Q 3109 766 3194 638 
Q 3291 488 3391 488 
L 3669 488 
L 3575 0 
L 3228 0 
Q 2934 0 2722 263 
Q 2622 394 2619 669 
Q 2416 334 2066 50 
Q 1900 -81 1453 -78 
Q 722 -72 456 397 
Q 184 884 353 1747 
Q 534 2675 1009 3097 
Q 1544 3569 2166 3578 
z
" transform="scale(0.015625)"/>
       <path id="DejaVuSans-37" d="M 525 4666 
L 3525 4666 
L 3525 4397 
L 1831 0 
L 1172 0 
L 2766 4134 
L 525 4134 
L 525 4666 
z
" transform="scale(0.015625)"/>
      </defs>
      <use xlink:href="#DejaVuSans-72" transform="translate(0 0.015625)"/>
      <use xlink:href="#DejaVuSans-65" transform="translate(41.113281 0.015625)"/>
      <use xlink:href="#DejaVuSans-6a" transform="translate(102.636719 0.015625)"/>
      <use xlink:href="#DejaVuSans-65" transform="translate(130.419922 0.015625)"/>
      <use xlink:href="#DejaVuSans-63" transform="translate(191.943359 0.015625)"/>
      <use xlink:href="#DejaVuSans-74" transform="translate(246.923828 0.015625)"/>
      <use xlink:href="#DejaVuSans-69" transform="translate(286.132812 0.015625)"/>
      <use xlink:href="#DejaVuSans-6f" transform="translate(313.916016 0.015625)"/>
      <use xlink:href="#DejaVuSans-6e" transform="translate(375.097656 0.015625)"/>
      <use xlink:href="#DejaVuSans-20" transform="translate(438.476562 0.015625)"/>
      <use xlink:href="#DejaVuSans-72" transform="translate(470.263672 0.015625)"/>
      <use xlink:href="#DejaVuSans-65" transform="translate(511.376953 0.015625)"/>
      <use xlink:href="#DejaVuSans-67" transform="translate(572.900391 0.015625)"/>
      <use xlink:href="#DejaVuSans-69" transform="translate(636.376953 0.015625)"/>
      <use xlink:href="#DejaVuSans-6f" transform="translate(664.160156 0.015625)"/>
      <use xlink:href="#DejaVuSans-6e" transform="translate(725.341797 0.015625)"/>
      <use xlink:href="#DejaVuSans-20" transform="translate(788.720703 0.015625)"/>
      <use xlink:href="#DejaVuSans-66" transform="translate(820.507812 0.015625)"/>
      <use xlink:href="#DejaVuSans-6f" transform="translate(855.712891 0.015625)"/>
      <use xlink:href="#DejaVuSans-72" transform="translate(916.894531 0.015625)"/>
      <use xlink:href="#DejaVuSans-20" transform="translate(958.007812 0.015625)"/>
      <use xlink:href="#DejaVuSans-Oblique-48" transform="translate(989.794922 0.015625)"/>
      <use xlink:href="#DejaVuSans-30" transform="translate(1064.990234 -16.390625)scale(0.7)"/>
      <use xlink:href="#DejaVuSans-3a" transform="translate(1112.260742 0.015625)"/>
      <use xlink:href="#DejaVuSans-20" transform="translate(1145.952148 0.015625)"/>
      <use xlink:href="#DejaVuSans-Oblique-3bc" transform="translate(1177.739258 0.015625)"/>
      <use xlink:href="#DejaVuSans-3d" transform="translate(1260.844727 0.015625)"/>
      <use xlink:href="#DejaVuSans-32" transform="translate(1364.116211 0.015625)"/>
      <use xlink:href="#DejaVuSans-2e" transform="translate(1427.739258 0.015625)"/>
      <use xlink:href="#DejaVuSans-20" transform="translate(1459.526367 0.015625)"/>
      <use xlink:href="#DejaVuSans-41" transform="translate(1491.313477 0.015625)"/>
      <use xlink:href="#DejaVuSans-72" transform="translate(1559.72168 0.015625)"/>
      <use xlink:href="#DejaVuSans-65" transform="translate(1600.834961 0.015625)"/>
      <use xlink:href="#DejaVuSans-61" transform="translate(1662.358398 0.015625)"/>
      <use xlink:href="#DejaVuSans-20" transform="translate(1723.637695 0.015625)"/>
      <use xlink:href="#DejaVuSans-3d" transform="translate(1755.424805 0.015625)"/>
      <use xlink:href="#DejaVuSans-20" transform="translate(1839.213867 0.015625)"/>
      <use xlink:href="#DejaVuSans-Oblique-3b1" transform="translate(1871.000977 0.015625)"/>
      <use xlink:href="#DejaVuSans-20" transform="translate(1936.918945 0.015625)"/>
      <use xlink:href="#DejaVuSans-3d" transform="translate(1968.706055 0.015625)"/>
      <use xlink:href="#DejaVuSans-20" transform="translate(2052.495117 0.015625)"/>
      <use xlink:href="#DejaVuSans-30" transform="translate(2084.282227 0.015625)"/>
      <use xlink:href="#DejaVuSans-2e" transform="translate(2147.905273 0.015625)"/>
      <use xlink:href="#DejaVuSans-30" transform="translate(2179.692383 0.015625)"/>
      <use xlink:href="#DejaVuSans-30" transform="translate(2243.31543 0.015625)"/>
      <use xlink:href="#DejaVuSans-34" transform="translate(2306.938477 0.015625)"/>
      <use xlink:href="#DejaVuSans-37" transform="translate(2370.561523 0.015625)"/>
     </g>
    </g>
    <g id="patch_9">
     <path d="M 100.41 378.8008 
L 120.41 378.8008 
L 120.41 371.8008 
L 100.41 371.8008 
z
" style="fill: #008000; fill-opacity: 0.5; stroke: #008000; stroke-opacity: 0.5; stroke-linejoin: miter"/>
    </g>
    <g id="text_18">
     <!-- non-rejection region for $H_0$. Area = $1-\alpha$ -->
     <g transform="translate(128.41 378.8008)scale(0.1 -0.1)">
      <defs>
       <path id="DejaVuSans-2d" d="M 313 2009 
L 1997 2009 
L 1997 1497 
L 313 1497 
L 313 2009 
z
" transform="scale(0.015625)"/>
       <path id="DejaVuSans-2212" d="M 678 2272 
L 4684 2272 
L 4684 1741 
L 678 1741 
L 678 2272 
z
" transform="scale(0.015625)"/>
      </defs>
      <use xlink:href="#DejaVuSans-6e" transform="translate(0 0.015625)"/>
      <use xlink:href="#DejaVuSans-6f" transform="translate(63.378906 0.015625)"/>
      <use xlink:href="#DejaVuSans-6e" transform="translate(124.560547 0.015625)"/>
      <use xlink:href="#DejaVuSans-2d" transform="translate(187.939453 0.015625)"/>
      <use xlink:href="#DejaVuSans-72" transform="translate(224.023438 0.015625)"/>
      <use xlink:href="#DejaVuSans-65" transform="translate(265.136719 0.015625)"/>
      <use xlink:href="#DejaVuSans-6a" transform="translate(326.660156 0.015625)"/>
      <use xlink:href="#DejaVuSans-65" transform="translate(354.443359 0.015625)"/>
      <use xlink:href="#DejaVuSans-63" transform="translate(415.966797 0.015625)"/>
      <use xlink:href="#DejaVuSans-74" transform="translate(470.947266 0.015625)"/>
      <use xlink:href="#DejaVuSans-69" transform="translate(510.15625 0.015625)"/>
      <use xlink:href="#DejaVuSans-6f" transform="translate(537.939453 0.015625)"/>
      <use xlink:href="#DejaVuSans-6e" transform="translate(599.121094 0.015625)"/>
      <use xlink:href="#DejaVuSans-20" transform="translate(662.5 0.015625)"/>
      <use xlink:href="#DejaVuSans-72" transform="translate(694.287109 0.015625)"/>
      <use xlink:href="#DejaVuSans-65" transform="translate(735.400391 0.015625)"/>
      <use xlink:href="#DejaVuSans-67" transform="translate(796.923828 0.015625)"/>
      <use xlink:href="#DejaVuSans-69" transform="translate(860.400391 0.015625)"/>
      <use xlink:href="#DejaVuSans-6f" transform="translate(888.183594 0.015625)"/>
      <use xlink:href="#DejaVuSans-6e" transform="translate(949.365234 0.015625)"/>
      <use xlink:href="#DejaVuSans-20" transform="translate(1012.744141 0.015625)"/>
      <use xlink:href="#DejaVuSans-66" transform="translate(1044.53125 0.015625)"/>
      <use xlink:href="#DejaVuSans-6f" transform="translate(1079.736328 0.015625)"/>
      <use xlink:href="#DejaVuSans-72" transform="translate(1140.917969 0.015625)"/>
      <use xlink:href="#DejaVuSans-20" transform="translate(1182.03125 0.015625)"/>
      <use xlink:href="#DejaVuSans-Oblique-48" transform="translate(1213.818359 0.015625)"/>
      <use xlink:href="#DejaVuSans-30" transform="translate(1289.013672 -16.390625)scale(0.7)"/>
      <use xlink:href="#DejaVuSans-2e" transform="translate(1336.28418 0.015625)"/>
      <use xlink:href="#DejaVuSans-20" transform="translate(1368.071289 0.015625)"/>
      <use xlink:href="#DejaVuSans-41" transform="translate(1399.858398 0.015625)"/>
      <use xlink:href="#DejaVuSans-72" transform="translate(1468.266602 0.015625)"/>
      <use xlink:href="#DejaVuSans-65" transform="translate(1509.379883 0.015625)"/>
      <use xlink:href="#DejaVuSans-61" transform="translate(1570.90332 0.015625)"/>
      <use xlink:href="#DejaVuSans-20" transform="translate(1632.182617 0.015625)"/>
      <use xlink:href="#DejaVuSans-3d" transform="translate(1663.969727 0.015625)"/>
      <use xlink:href="#DejaVuSans-20" transform="translate(1747.758789 0.015625)"/>
      <use xlink:href="#DejaVuSans-31" transform="translate(1779.545898 0.015625)"/>
      <use xlink:href="#DejaVuSans-2212" transform="translate(1862.651367 0.015625)"/>
      <use xlink:href="#DejaVuSans-Oblique-3b1" transform="translate(1965.922852 0.015625)"/>
     </g>
    </g>
   </g>
  </g>
 </g>
 <defs>
  <clipPath id="pd8ff85276e">
   <rect x="57.6" y="41.472" width="357.12" height="266.112"/>
  </clipPath>
 </defs>
</svg>
