<?xml version="1.0" encoding="utf-8" standalone="no"?>
<!DOCTYPE svg PUBLIC "-//W3C//DTD SVG 1.1//EN"
  "http://www.w3.org/Graphics/SVG/1.1/DTD/svg11.dtd">
<svg xmlns:xlink="http://www.w3.org/1999/xlink" width="400.785625pt" height="312.30825pt" viewBox="0 0 400.785625 312.30825" xmlns="http://www.w3.org/2000/svg" version="1.1">
 <metadata>
  <rdf:RDF xmlns:dc="http://purl.org/dc/elements/1.1/" xmlns:cc="http://creativecommons.org/ns#" xmlns:rdf="http://www.w3.org/1999/02/22-rdf-syntax-ns#">
   <cc:Work>
    <dc:type rdf:resource="http://purl.org/dc/dcmitype/StillImage"/>
    <dc:date>2025-04-04T21:44:12.421912</dc:date>
    <dc:format>image/svg+xml</dc:format>
    <dc:creator>
     <cc:Agent>
      <dc:title>Matplotlib v3.5.2, https://matplotlib.org/</dc:title>
     </cc:Agent>
    </dc:creator>
   </cc:Work>
  </rdf:RDF>
 </metadata>
 <defs>
  <style type="text/css">*{stroke-linejoin: round; stroke-linecap: butt}</style>
 </defs>
 <g id="figure_1">
  <g id="patch_1">
   <path d="M 0 312.30825 
L 400.785625 312.30825 
L 400.785625 0 
L 0 0 
L 0 312.30825 
z
" style="fill: none"/>
  </g>
  <g id="axes_1">
   <g id="patch_2">
    <path d="M 36.465625 288.430125 
L 393.585625 288.430125 
L 393.585625 22.318125 
L 36.465625 22.318125 
L 36.465625 288.430125 
z
" style="fill: none"/>
   </g>
   <g id="matplotlib.axis_1">
    <g id="xtick_1">
     <g id="line2d_1">
      <path d="M 52.698352 288.430125 
L 52.698352 22.318125 
" clip-path="url(#pfe597788f1)" style="fill: none; stroke: #b0b0b0; stroke-width: 0.8; stroke-linecap: square"/>
     </g>
     <g id="line2d_2">
      <defs>
       <path id="m85e52cd65e" d="M 0 0 
L 0 3.5 
" style="stroke: #000000; stroke-width: 0.8"/>
      </defs>
      <g>
       <use xlink:href="#m85e52cd65e" x="52.698352" y="288.430125" style="stroke: #000000; stroke-width: 0.8"/>
      </g>
     </g>
     <g id="text_1">
      <!-- 0.0 -->
      <g transform="translate(44.74679 303.028562)scale(0.1 -0.1)">
       <defs>
        <path id="DejaVuSans-30" d="M 2034 4250 
Q 1547 4250 1301 3770 
Q 1056 3291 1056 2328 
Q 1056 1369 1301 889 
Q 1547 409 2034 409 
Q 2525 409 2770 889 
Q 3016 1369 3016 2328 
Q 3016 3291 2770 3770 
Q 2525 4250 2034 4250 
z
M 2034 4750 
Q 2819 4750 3233 4129 
Q 3647 3509 3647 2328 
Q 3647 1150 3233 529 
Q 2819 -91 2034 -91 
Q 1250 -91 836 529 
Q 422 1150 422 2328 
Q 422 3509 836 4129 
Q 1250 4750 2034 4750 
z
" transform="scale(0.015625)"/>
        <path id="DejaVuSans-2e" d="M 684 794 
L 1344 794 
L 1344 0 
L 684 0 
L 684 794 
z
" transform="scale(0.015625)"/>
       </defs>
       <use xlink:href="#DejaVuSans-30"/>
       <use xlink:href="#DejaVuSans-2e" x="63.623047"/>
       <use xlink:href="#DejaVuSans-30" x="95.410156"/>
      </g>
     </g>
    </g>
    <g id="xtick_2">
     <g id="line2d_3">
      <path d="M 117.759383 288.430125 
L 117.759383 22.318125 
" clip-path="url(#pfe597788f1)" style="fill: none; stroke: #b0b0b0; stroke-width: 0.8; stroke-linecap: square"/>
     </g>
     <g id="line2d_4">
      <g>
       <use xlink:href="#m85e52cd65e" x="117.759383" y="288.430125" style="stroke: #000000; stroke-width: 0.8"/>
      </g>
     </g>
     <g id="text_2">
      <!-- 0.1 -->
      <g transform="translate(109.807821 303.028562)scale(0.1 -0.1)">
       <defs>
        <path id="DejaVuSans-31" d="M 794 531 
L 1825 531 
L 1825 4091 
L 703 3866 
L 703 4441 
L 1819 4666 
L 2450 4666 
L 2450 531 
L 3481 531 
L 3481 0 
L 794 0 
L 794 531 
z
" transform="scale(0.015625)"/>
       </defs>
       <use xlink:href="#DejaVuSans-30"/>
       <use xlink:href="#DejaVuSans-2e" x="63.623047"/>
       <use xlink:href="#DejaVuSans-31" x="95.410156"/>
      </g>
     </g>
    </g>
    <g id="xtick_3">
     <g id="line2d_5">
      <path d="M 182.820415 288.430125 
L 182.820415 22.318125 
" clip-path="url(#pfe597788f1)" style="fill: none; stroke: #b0b0b0; stroke-width: 0.8; stroke-linecap: square"/>
     </g>
     <g id="line2d_6">
      <g>
       <use xlink:href="#m85e52cd65e" x="182.820415" y="288.430125" style="stroke: #000000; stroke-width: 0.8"/>
      </g>
     </g>
     <g id="text_3">
      <!-- 0.2 -->
      <g transform="translate(174.868852 303.028562)scale(0.1 -0.1)">
       <defs>
        <path id="DejaVuSans-32" d="M 1228 531 
L 3431 531 
L 3431 0 
L 469 0 
L 469 531 
Q 828 903 1448 1529 
Q 2069 2156 2228 2338 
Q 2531 2678 2651 2914 
Q 2772 3150 2772 3378 
Q 2772 3750 2511 3984 
Q 2250 4219 1831 4219 
Q 1534 4219 1204 4116 
Q 875 4013 500 3803 
L 500 4441 
Q 881 4594 1212 4672 
Q 1544 4750 1819 4750 
Q 2544 4750 2975 4387 
Q 3406 4025 3406 3419 
Q 3406 3131 3298 2873 
Q 3191 2616 2906 2266 
Q 2828 2175 2409 1742 
Q 1991 1309 1228 531 
z
" transform="scale(0.015625)"/>
       </defs>
       <use xlink:href="#DejaVuSans-30"/>
       <use xlink:href="#DejaVuSans-2e" x="63.623047"/>
       <use xlink:href="#DejaVuSans-32" x="95.410156"/>
      </g>
     </g>
    </g>
    <g id="xtick_4">
     <g id="line2d_7">
      <path d="M 247.881446 288.430125 
L 247.881446 22.318125 
" clip-path="url(#pfe597788f1)" style="fill: none; stroke: #b0b0b0; stroke-width: 0.8; stroke-linecap: square"/>
     </g>
     <g id="line2d_8">
      <g>
       <use xlink:href="#m85e52cd65e" x="247.881446" y="288.430125" style="stroke: #000000; stroke-width: 0.8"/>
      </g>
     </g>
     <g id="text_4">
      <!-- 0.3 -->
      <g transform="translate(239.929883 303.028562)scale(0.1 -0.1)">
       <defs>
        <path id="DejaVuSans-33" d="M 2597 2516 
Q 3050 2419 3304 2112 
Q 3559 1806 3559 1356 
Q 3559 666 3084 287 
Q 2609 -91 1734 -91 
Q 1441 -91 1130 -33 
Q 819 25 488 141 
L 488 750 
Q 750 597 1062 519 
Q 1375 441 1716 441 
Q 2309 441 2620 675 
Q 2931 909 2931 1356 
Q 2931 1769 2642 2001 
Q 2353 2234 1838 2234 
L 1294 2234 
L 1294 2753 
L 1863 2753 
Q 2328 2753 2575 2939 
Q 2822 3125 2822 3475 
Q 2822 3834 2567 4026 
Q 2313 4219 1838 4219 
Q 1578 4219 1281 4162 
Q 984 4106 628 3988 
L 628 4550 
Q 988 4650 1302 4700 
Q 1616 4750 1894 4750 
Q 2613 4750 3031 4423 
Q 3450 4097 3450 3541 
Q 3450 3153 3228 2886 
Q 3006 2619 2597 2516 
z
" transform="scale(0.015625)"/>
       </defs>
       <use xlink:href="#DejaVuSans-30"/>
       <use xlink:href="#DejaVuSans-2e" x="63.623047"/>
       <use xlink:href="#DejaVuSans-33" x="95.410156"/>
      </g>
     </g>
    </g>
    <g id="xtick_5">
     <g id="line2d_9">
      <path d="M 312.942477 288.430125 
L 312.942477 22.318125 
" clip-path="url(#pfe597788f1)" style="fill: none; stroke: #b0b0b0; stroke-width: 0.8; stroke-linecap: square"/>
     </g>
     <g id="line2d_10">
      <g>
       <use xlink:href="#m85e52cd65e" x="312.942477" y="288.430125" style="stroke: #000000; stroke-width: 0.8"/>
      </g>
     </g>
     <g id="text_5">
      <!-- 0.4 -->
      <g transform="translate(304.990914 303.028562)scale(0.1 -0.1)">
       <defs>
        <path id="DejaVuSans-34" d="M 2419 4116 
L 825 1625 
L 2419 1625 
L 2419 4116 
z
M 2253 4666 
L 3047 4666 
L 3047 1625 
L 3713 1625 
L 3713 1100 
L 3047 1100 
L 3047 0 
L 2419 0 
L 2419 1100 
L 313 1100 
L 313 1709 
L 2253 4666 
z
" transform="scale(0.015625)"/>
       </defs>
       <use xlink:href="#DejaVuSans-30"/>
       <use xlink:href="#DejaVuSans-2e" x="63.623047"/>
       <use xlink:href="#DejaVuSans-34" x="95.410156"/>
      </g>
     </g>
    </g>
    <g id="xtick_6">
     <g id="line2d_11">
      <path d="M 378.003508 288.430125 
L 378.003508 22.318125 
" clip-path="url(#pfe597788f1)" style="fill: none; stroke: #b0b0b0; stroke-width: 0.8; stroke-linecap: square"/>
     </g>
     <g id="line2d_12">
      <g>
       <use xlink:href="#m85e52cd65e" x="378.003508" y="288.430125" style="stroke: #000000; stroke-width: 0.8"/>
      </g>
     </g>
     <g id="text_6">
      <!-- 0.5 -->
      <g transform="translate(370.051946 303.028562)scale(0.1 -0.1)">
       <defs>
        <path id="DejaVuSans-35" d="M 691 4666 
L 3169 4666 
L 3169 4134 
L 1269 4134 
L 1269 2991 
Q 1406 3038 1543 3061 
Q 1681 3084 1819 3084 
Q 2600 3084 3056 2656 
Q 3513 2228 3513 1497 
Q 3513 744 3044 326 
Q 2575 -91 1722 -91 
Q 1428 -91 1123 -41 
Q 819 9 494 109 
L 494 744 
Q 775 591 1075 516 
Q 1375 441 1709 441 
Q 2250 441 2565 725 
Q 2881 1009 2881 1497 
Q 2881 1984 2565 2268 
Q 2250 2553 1709 2553 
Q 1456 2553 1204 2497 
Q 953 2441 691 2322 
L 691 4666 
z
" transform="scale(0.015625)"/>
       </defs>
       <use xlink:href="#DejaVuSans-30"/>
       <use xlink:href="#DejaVuSans-2e" x="63.623047"/>
       <use xlink:href="#DejaVuSans-35" x="95.410156"/>
      </g>
     </g>
    </g>
   </g>
   <g id="matplotlib.axis_2">
    <g id="ytick_1">
     <g id="line2d_13">
      <path d="M 36.465625 276.357756 
L 393.585625 276.357756 
" clip-path="url(#pfe597788f1)" style="fill: none; stroke: #b0b0b0; stroke-width: 0.8; stroke-linecap: square"/>
     </g>
     <g id="line2d_14">
      <defs>
       <path id="md7c3fbf4be" d="M 0 0 
L -3.5 0 
" style="stroke: #000000; stroke-width: 0.8"/>
      </defs>
      <g>
       <use xlink:href="#md7c3fbf4be" x="36.465625" y="276.357756" style="stroke: #000000; stroke-width: 0.8"/>
      </g>
     </g>
     <g id="text_7">
      <!-- 0.0 -->
      <g transform="translate(13.5625 280.156974)scale(0.1 -0.1)">
       <use xlink:href="#DejaVuSans-30"/>
       <use xlink:href="#DejaVuSans-2e" x="63.623047"/>
       <use xlink:href="#DejaVuSans-30" x="95.410156"/>
      </g>
     </g>
    </g>
    <g id="ytick_2">
     <g id="line2d_15">
      <path d="M 36.465625 246.114802 
L 393.585625 246.114802 
" clip-path="url(#pfe597788f1)" style="fill: none; stroke: #b0b0b0; stroke-width: 0.8; stroke-linecap: square"/>
     </g>
     <g id="line2d_16">
      <g>
       <use xlink:href="#md7c3fbf4be" x="36.465625" y="246.114802" style="stroke: #000000; stroke-width: 0.8"/>
      </g>
     </g>
     <g id="text_8">
      <!-- 2.5 -->
      <g transform="translate(13.5625 249.91402)scale(0.1 -0.1)">
       <use xlink:href="#DejaVuSans-32"/>
       <use xlink:href="#DejaVuSans-2e" x="63.623047"/>
       <use xlink:href="#DejaVuSans-35" x="95.410156"/>
      </g>
     </g>
    </g>
    <g id="ytick_3">
     <g id="line2d_17">
      <path d="M 36.465625 215.871848 
L 393.585625 215.871848 
" clip-path="url(#pfe597788f1)" style="fill: none; stroke: #b0b0b0; stroke-width: 0.8; stroke-linecap: square"/>
     </g>
     <g id="line2d_18">
      <g>
       <use xlink:href="#md7c3fbf4be" x="36.465625" y="215.871848" style="stroke: #000000; stroke-width: 0.8"/>
      </g>
     </g>
     <g id="text_9">
      <!-- 5.0 -->
      <g transform="translate(13.5625 219.671067)scale(0.1 -0.1)">
       <use xlink:href="#DejaVuSans-35"/>
       <use xlink:href="#DejaVuSans-2e" x="63.623047"/>
       <use xlink:href="#DejaVuSans-30" x="95.410156"/>
      </g>
     </g>
    </g>
    <g id="ytick_4">
     <g id="line2d_19">
      <path d="M 36.465625 185.628894 
L 393.585625 185.628894 
" clip-path="url(#pfe597788f1)" style="fill: none; stroke: #b0b0b0; stroke-width: 0.8; stroke-linecap: square"/>
     </g>
     <g id="line2d_20">
      <g>
       <use xlink:href="#md7c3fbf4be" x="36.465625" y="185.628894" style="stroke: #000000; stroke-width: 0.8"/>
      </g>
     </g>
     <g id="text_10">
      <!-- 7.5 -->
      <g transform="translate(13.5625 189.428113)scale(0.1 -0.1)">
       <defs>
        <path id="DejaVuSans-37" d="M 525 4666 
L 3525 4666 
L 3525 4397 
L 1831 0 
L 1172 0 
L 2766 4134 
L 525 4134 
L 525 4666 
z
" transform="scale(0.015625)"/>
       </defs>
       <use xlink:href="#DejaVuSans-37"/>
       <use xlink:href="#DejaVuSans-2e" x="63.623047"/>
       <use xlink:href="#DejaVuSans-35" x="95.410156"/>
      </g>
     </g>
    </g>
    <g id="ytick_5">
     <g id="line2d_21">
      <path d="M 36.465625 155.38594 
L 393.585625 155.38594 
" clip-path="url(#pfe597788f1)" style="fill: none; stroke: #b0b0b0; stroke-width: 0.8; stroke-linecap: square"/>
     </g>
     <g id="line2d_22">
      <g>
       <use xlink:href="#md7c3fbf4be" x="36.465625" y="155.38594" style="stroke: #000000; stroke-width: 0.8"/>
      </g>
     </g>
     <g id="text_11">
      <!-- 10.0 -->
      <g transform="translate(7.2 159.185159)scale(0.1 -0.1)">
       <use xlink:href="#DejaVuSans-31"/>
       <use xlink:href="#DejaVuSans-30" x="63.623047"/>
       <use xlink:href="#DejaVuSans-2e" x="127.246094"/>
       <use xlink:href="#DejaVuSans-30" x="159.033203"/>
      </g>
     </g>
    </g>
    <g id="ytick_6">
     <g id="line2d_23">
      <path d="M 36.465625 125.142986 
L 393.585625 125.142986 
" clip-path="url(#pfe597788f1)" style="fill: none; stroke: #b0b0b0; stroke-width: 0.8; stroke-linecap: square"/>
     </g>
     <g id="line2d_24">
      <g>
       <use xlink:href="#md7c3fbf4be" x="36.465625" y="125.142986" style="stroke: #000000; stroke-width: 0.8"/>
      </g>
     </g>
     <g id="text_12">
      <!-- 12.5 -->
      <g transform="translate(7.2 128.942205)scale(0.1 -0.1)">
       <use xlink:href="#DejaVuSans-31"/>
       <use xlink:href="#DejaVuSans-32" x="63.623047"/>
       <use xlink:href="#DejaVuSans-2e" x="127.246094"/>
       <use xlink:href="#DejaVuSans-35" x="159.033203"/>
      </g>
     </g>
    </g>
    <g id="ytick_7">
     <g id="line2d_25">
      <path d="M 36.465625 94.900033 
L 393.585625 94.900033 
" clip-path="url(#pfe597788f1)" style="fill: none; stroke: #b0b0b0; stroke-width: 0.8; stroke-linecap: square"/>
     </g>
     <g id="line2d_26">
      <g>
       <use xlink:href="#md7c3fbf4be" x="36.465625" y="94.900033" style="stroke: #000000; stroke-width: 0.8"/>
      </g>
     </g>
     <g id="text_13">
      <!-- 15.0 -->
      <g transform="translate(7.2 98.699251)scale(0.1 -0.1)">
       <use xlink:href="#DejaVuSans-31"/>
       <use xlink:href="#DejaVuSans-35" x="63.623047"/>
       <use xlink:href="#DejaVuSans-2e" x="127.246094"/>
       <use xlink:href="#DejaVuSans-30" x="159.033203"/>
      </g>
     </g>
    </g>
    <g id="ytick_8">
     <g id="line2d_27">
      <path d="M 36.465625 64.657079 
L 393.585625 64.657079 
" clip-path="url(#pfe597788f1)" style="fill: none; stroke: #b0b0b0; stroke-width: 0.8; stroke-linecap: square"/>
     </g>
     <g id="line2d_28">
      <g>
       <use xlink:href="#md7c3fbf4be" x="36.465625" y="64.657079" style="stroke: #000000; stroke-width: 0.8"/>
      </g>
     </g>
     <g id="text_14">
      <!-- 17.5 -->
      <g transform="translate(7.2 68.456298)scale(0.1 -0.1)">
       <use xlink:href="#DejaVuSans-31"/>
       <use xlink:href="#DejaVuSans-37" x="63.623047"/>
       <use xlink:href="#DejaVuSans-2e" x="127.246094"/>
       <use xlink:href="#DejaVuSans-35" x="159.033203"/>
      </g>
     </g>
    </g>
    <g id="ytick_9">
     <g id="line2d_29">
      <path d="M 36.465625 34.414125 
L 393.585625 34.414125 
" clip-path="url(#pfe597788f1)" style="fill: none; stroke: #b0b0b0; stroke-width: 0.8; stroke-linecap: square"/>
     </g>
     <g id="line2d_30">
      <g>
       <use xlink:href="#md7c3fbf4be" x="36.465625" y="34.414125" style="stroke: #000000; stroke-width: 0.8"/>
      </g>
     </g>
     <g id="text_15">
      <!-- 20.0 -->
      <g transform="translate(7.2 38.213344)scale(0.1 -0.1)">
       <use xlink:href="#DejaVuSans-32"/>
       <use xlink:href="#DejaVuSans-30" x="63.623047"/>
       <use xlink:href="#DejaVuSans-2e" x="127.246094"/>
       <use xlink:href="#DejaVuSans-30" x="159.033203"/>
      </g>
     </g>
    </g>
   </g>
   <g id="line2d_31">
    <path d="M 52.698352 218.588391 
L 53.348963 276.12612 
L 53.999573 250.014443 
L 54.650183 195.951682 
L 55.300794 209.278218 
L 55.951404 272.377292 
L 56.602014 254.361197 
L 57.252624 254.646601 
L 57.903235 268.157764 
L 58.553845 57.977145 
L 59.855066 258.358296 
L 60.505676 195.433326 
L 61.156286 111.387062 
L 61.806897 255.002577 
L 62.457507 242.181665 
L 63.108117 272.749605 
L 63.758728 259.689113 
L 64.409338 261.677954 
L 65.059948 271.512292 
L 65.710559 265.145034 
L 66.361169 243.119467 
L 67.011779 263.389717 
L 67.662389 263.333911 
L 68.313 267.740242 
L 68.96361 246.279164 
L 69.61422 269.055141 
L 70.264831 267.583108 
L 70.915441 264.393929 
L 71.566051 206.612887 
L 72.216662 269.293658 
L 72.867272 199.475521 
L 73.517882 207.858727 
L 74.168493 253.625031 
L 74.819103 263.79373 
L 75.469713 165.516228 
L 76.120323 214.592884 
L 76.770934 252.668922 
L 77.421544 272.407793 
L 78.072154 232.355897 
L 78.722765 258.876996 
L 79.373375 233.930066 
L 80.023985 263.740471 
L 80.674596 233.69738 
L 81.325206 256.390829 
L 81.975816 265.431881 
L 82.626427 266.314315 
L 83.277037 241.476424 
L 83.927647 275.651703 
L 84.578258 250.505557 
L 85.228868 269.526058 
L 85.879478 232.339886 
L 86.530088 261.489933 
L 87.180699 267.336597 
L 87.831309 254.560045 
L 88.481919 268.578536 
L 89.13253 217.10645 
L 89.78314 212.961879 
L 90.43375 237.02105 
L 91.084361 266.181845 
L 91.734971 261.48023 
L 92.385581 264.611407 
L 93.036192 271.569385 
L 93.686802 271.868357 
L 94.337412 184.006612 
L 94.988023 211.00319 
L 95.638633 228.156331 
L 96.289243 262.530016 
L 96.939853 271.790819 
L 97.590464 228.429854 
L 98.241074 273.81684 
L 98.891684 250.800584 
L 100.192905 273.932949 
L 100.843515 259.463413 
L 101.494126 216.390952 
L 102.144736 271.931336 
L 102.795346 276.231412 
L 103.445957 274.470511 
L 104.096567 253.095573 
L 104.747177 241.6722 
L 105.397788 264.891254 
L 106.048398 259.150991 
L 106.699008 273.65644 
L 108.000229 213.61862 
L 109.301449 238.435326 
L 109.95206 269.602023 
L 110.60267 253.868564 
L 111.25328 271.833864 
L 111.903891 211.106245 
L 112.554501 270.355676 
L 113.205111 222.746088 
L 113.855722 249.550331 
L 114.506332 236.433281 
L 115.156942 253.409399 
L 115.807552 251.916356 
L 116.458163 257.848434 
L 117.108773 265.545056 
L 117.759383 260.483885 
L 118.409994 251.986488 
L 119.060604 276.148257 
L 119.711214 261.942403 
L 120.361825 275.543463 
L 122.313656 229.031738 
L 122.964266 263.279816 
L 123.614876 247.924537 
L 124.265487 247.976485 
L 124.916097 272.134877 
L 125.566707 257.396659 
L 126.217317 251.287749 
L 126.867928 269.400803 
L 128.169148 264.587504 
L 128.819759 222.873829 
L 129.470369 272.921548 
L 130.120979 251.917427 
L 130.77159 262.240156 
L 131.4222 250.210144 
L 132.07281 272.241992 
L 132.723421 210.864281 
L 133.374031 257.700575 
L 134.024641 260.233252 
L 134.675252 244.509038 
L 135.325862 273.744883 
L 135.976472 214.56501 
L 136.627082 183.233988 
L 137.277693 218.851224 
L 137.928303 237.224498 
L 138.578913 275.157687 
L 139.229524 235.520481 
L 139.880134 215.135542 
L 140.530744 268.868089 
L 141.181355 274.23873 
L 141.831965 138.858888 
L 142.482575 212.249947 
L 143.133186 261.387881 
L 143.783796 268.429423 
L 144.434406 257.799228 
L 145.085017 262.439666 
L 145.735627 268.958688 
L 146.386237 211.416899 
L 147.036847 266.486529 
L 147.687458 240.245268 
L 148.338068 261.027617 
L 148.988678 261.905396 
L 149.639289 232.834796 
L 150.289899 271.293019 
L 150.940509 236.851868 
L 151.59112 267.010456 
L 152.24173 266.276937 
L 152.89234 259.635551 
L 153.542951 226.138862 
L 154.193561 271.085986 
L 154.844171 245.888395 
L 155.494781 265.062667 
L 156.145392 266.484906 
L 156.796002 250.600612 
L 157.446612 260.98236 
L 158.097223 222.244945 
L 158.747833 270.226315 
L 159.398443 241.579962 
L 160.049054 204.013036 
L 161.350274 269.939699 
L 162.000885 272.267907 
L 162.651495 268.418594 
L 163.302105 274.625037 
L 163.952716 252.84112 
L 164.603326 236.714742 
L 165.253936 264.297049 
L 165.904546 265.76626 
L 166.555157 265.402633 
L 167.205767 264.488059 
L 167.856377 247.174777 
L 168.506988 212.954829 
L 169.157598 272.459411 
L 169.808208 260.398441 
L 170.458819 269.242257 
L 171.109429 269.78017 
L 171.760039 256.438322 
L 172.41065 265.193686 
L 173.06126 266.016499 
L 173.71187 257.830774 
L 174.362481 255.293779 
L 175.013091 240.221421 
L 175.663701 259.610992 
L 176.314311 263.68129 
L 176.964922 265.2789 
L 177.615532 243.949305 
L 178.266142 236.695153 
L 178.916753 255.903795 
L 179.567363 180.218254 
L 180.217973 264.410306 
L 180.868584 219.387413 
L 181.519194 188.729928 
L 182.169804 262.112565 
L 182.820415 240.334133 
L 183.471025 232.776803 
L 184.121635 244.800519 
L 184.772246 183.374564 
L 185.422856 264.987432 
L 186.073466 250.037347 
L 186.724076 269.679729 
L 187.374687 230.222632 
L 188.025297 275.741796 
L 188.675907 265.401251 
L 189.326518 273.251435 
L 189.977128 265.408438 
L 190.627738 236.914836 
L 191.278349 249.081367 
L 191.928959 258.323663 
L 192.579569 189.031462 
L 193.23018 274.019918 
L 193.88079 260.54175 
L 194.5314 259.386579 
L 195.18201 260.965162 
L 195.832621 275.25189 
L 196.483231 258.54224 
L 197.133841 263.956549 
L 197.784452 275.568038 
L 198.435062 255.377306 
L 199.085672 273.115118 
L 199.736283 266.911018 
L 200.386893 246.510299 
L 201.037503 243.012771 
L 201.688114 275.053416 
L 202.338724 225.008065 
L 202.989334 275.49825 
L 203.639945 238.949056 
L 204.290555 251.516685 
L 205.591775 216.375795 
L 206.242386 249.046586 
L 206.892996 198.680038 
L 207.543606 271.511845 
L 208.194217 269.761525 
L 208.844827 230.748893 
L 209.495437 243.513224 
L 210.146048 263.716523 
L 210.796658 272.008502 
L 211.447268 257.929846 
L 212.097879 270.276805 
L 212.748489 272.0053 
L 213.399099 273.296524 
L 214.04971 229.942917 
L 214.70032 209.004493 
L 215.35093 275.221157 
L 216.00154 270.610974 
L 216.652151 238.748487 
L 217.302761 250.716914 
L 217.953371 250.947432 
L 218.603982 273.491717 
L 219.254592 265.948693 
L 219.905202 251.55918 
L 220.555813 265.230742 
L 221.206423 267.651186 
L 221.857033 230.4296 
L 222.507644 223.670369 
L 223.158254 275.854168 
L 223.808864 263.593501 
L 224.459475 275.608904 
L 225.110085 265.582916 
L 225.760695 252.648288 
L 226.411305 270.715823 
L 227.061916 256.932407 
L 227.712526 240.696458 
L 228.363136 275.112081 
L 229.013747 266.621563 
L 229.664357 87.39721 
L 230.314967 262.71172 
L 230.965578 255.539585 
L 231.616188 244.861834 
L 232.266798 241.896236 
L 232.917409 220.618336 
L 233.568019 225.692819 
L 234.218629 252.063183 
L 234.86924 266.056393 
L 235.51985 210.307642 
L 236.17046 264.160601 
L 236.82107 217.519802 
L 237.471681 206.101304 
L 238.122291 210.958961 
L 238.772901 270.248004 
L 239.423512 271.256322 
L 240.074122 274.14655 
L 240.724732 252.867681 
L 241.375343 271.796633 
L 242.025953 236.340819 
L 242.676563 261.051683 
L 243.327174 273.651797 
L 243.977784 194.538709 
L 244.628394 243.099128 
L 245.279004 265.287618 
L 245.929615 233.509836 
L 246.580225 268.923855 
L 247.230835 271.425615 
L 247.881446 235.09627 
L 248.532056 253.529943 
L 249.182666 238.390948 
L 249.833277 249.165457 
L 250.483887 268.108696 
L 251.134497 262.521002 
L 251.785108 235.836081 
L 252.435718 275.343977 
L 253.086328 244.996494 
L 253.736939 263.071249 
L 255.038159 226.949791 
L 255.688769 275.725384 
L 256.33938 228.996728 
L 256.98999 264.489723 
L 257.6406 261.82267 
L 258.291211 266.789233 
L 258.941821 250.898615 
L 259.592431 257.22296 
L 260.243042 270.300138 
L 260.893652 267.759275 
L 261.544262 211.179353 
L 262.194873 252.21344 
L 262.845483 262.808481 
L 263.496093 210.576356 
L 264.146704 275.991465 
L 264.797314 266.005979 
L 265.447924 264.120143 
L 266.098534 265.860791 
L 266.749145 275.297597 
L 267.399755 264.348817 
L 268.050365 258.547634 
L 268.700976 271.067626 
L 269.351586 266.424943 
L 270.002196 258.415687 
L 270.652807 243.585458 
L 271.303417 223.404185 
L 271.954027 275.410957 
L 272.604638 263.480435 
L 273.255248 246.095315 
L 273.905858 243.561486 
L 274.556469 226.306108 
L 275.207079 261.483564 
L 275.857689 275.623099 
L 276.508299 215.785367 
L 277.15891 245.575513 
L 277.80952 263.890221 
L 278.46013 257.165686 
L 279.110741 228.702727 
L 279.761351 258.422687 
L 280.411961 273.6371 
L 281.062572 270.313332 
L 281.713182 196.482293 
L 282.363792 229.137283 
L 283.014403 275.500004 
L 283.665013 266.195549 
L 284.315623 263.608958 
L 284.966233 253.763603 
L 285.616844 263.695698 
L 286.267454 271.396079 
L 286.918064 238.504579 
L 287.568675 273.396782 
L 288.219285 275.0831 
L 288.869895 273.537773 
L 289.520506 224.363878 
L 290.171116 262.827204 
L 290.821726 265.491479 
L 291.472337 229.700328 
L 292.122947 271.733373 
L 292.773557 257.048322 
L 293.424168 268.763229 
L 294.074778 264.31435 
L 294.725388 253.089574 
L 295.375998 274.441532 
L 296.026609 190.732904 
L 296.677219 272.097067 
L 297.327829 245.460732 
L 297.97844 270.3701 
L 298.62905 260.943971 
L 299.27966 271.266776 
L 299.930271 269.588159 
L 300.580881 227.855459 
L 301.231491 264.725809 
L 301.882102 259.616501 
L 302.532712 255.983139 
L 303.183322 256.948721 
L 304.484543 261.580917 
L 305.135153 271.885219 
L 305.785763 254.502891 
L 306.436374 217.828651 
L 307.086984 271.968891 
L 307.737594 238.161863 
L 308.388205 264.26235 
L 309.038815 235.46281 
L 309.689425 270.630557 
L 310.340036 217.554567 
L 310.990646 250.188286 
L 311.641256 249.992646 
L 312.942477 275.04851 
L 313.593087 214.71172 
L 314.243698 256.862553 
L 314.894308 249.084405 
L 315.544918 251.83648 
L 316.195528 269.881354 
L 316.846139 272.11366 
L 317.496749 256.97036 
L 318.147359 261.248443 
L 318.79797 257.127779 
L 319.44858 249.90543 
L 320.09919 217.110958 
L 320.749801 259.895643 
L 322.051021 273.227282 
L 322.701632 212.443141 
L 323.352242 220.403424 
L 324.002852 275.919984 
L 324.653462 262.893827 
L 325.304073 207.068066 
L 325.954683 269.859835 
L 326.605293 266.438169 
L 327.255904 272.350603 
L 327.906514 272.120347 
L 328.557124 217.706739 
L 329.207735 249.158943 
L 329.858345 273.558762 
L 330.508955 256.427114 
L 331.159566 262.359665 
L 331.810176 231.192276 
L 332.460786 233.291317 
L 333.111397 263.523382 
L 333.762007 258.501237 
L 334.412617 245.479713 
L 335.063227 243.835963 
L 335.713838 266.689291 
L 336.364448 261.069418 
L 337.015058 250.059257 
L 337.665669 268.244665 
L 338.316279 269.975776 
L 338.966889 268.75869 
L 339.6175 252.083693 
L 340.26811 244.910004 
L 340.91872 246.668838 
L 341.569331 274.55786 
L 342.219941 272.498109 
L 342.870551 228.902523 
L 343.521162 263.921433 
L 344.171772 245.344405 
L 344.822382 256.45339 
L 345.472992 195.715982 
L 346.123603 230.345639 
L 346.774213 252.218569 
L 347.424823 260.814758 
L 348.075434 240.926506 
L 348.726044 245.89016 
L 349.376654 268.090297 
L 350.027265 240.275516 
L 350.677875 262.746459 
L 351.328485 244.295581 
L 351.979096 240.958776 
L 352.629706 244.52387 
L 353.280316 262.453635 
L 353.930927 274.003824 
L 354.581537 232.164944 
L 355.232147 265.215634 
L 355.882757 268.070903 
L 356.533368 275.316005 
L 357.183978 263.89796 
L 357.834588 260.385044 
L 358.485199 224.700852 
L 359.135809 266.524403 
L 359.786419 252.154332 
L 360.43703 269.893719 
L 361.08764 257.922782 
L 361.73825 199.72147 
L 362.388861 274.187586 
L 363.039471 254.319085 
L 363.690081 252.815611 
L 364.340691 259.884891 
L 364.991302 255.181777 
L 365.641912 274.309426 
L 366.292522 264.605719 
L 366.943133 245.499032 
L 367.593743 141.263595 
L 368.244353 258.258369 
L 368.894964 221.382633 
L 369.545574 270.576056 
L 370.196184 224.31242 
L 370.846795 250.303936 
L 371.497405 218.22473 
L 372.148015 270.492019 
L 372.798626 276.076905 
L 373.449236 265.527752 
L 374.099846 240.922256 
L 374.750456 190.747204 
L 375.401067 272.293375 
L 376.051677 269.095094 
L 376.702287 260.928808 
L 377.352898 276.329981 
L 377.352898 276.329981 
" clip-path="url(#pfe597788f1)" style="fill: none; stroke: #000000; stroke-width: 1.5; stroke-linecap: square"/>
   </g>
   <g id="line2d_32">
    <path d="M 52.698352 259.786534 
L 53.348963 257.547813 
L 53.999573 246.939062 
L 54.650183 263.549463 
L 55.300794 235.907837 
L 55.951404 255.863742 
L 56.602014 268.30298 
L 57.252624 245.304222 
L 57.903235 238.403734 
L 58.553845 275.807421 
L 59.204455 247.138946 
L 59.855066 241.612799 
L 60.505676 263.169021 
L 61.156286 274.572672 
L 61.806897 275.979169 
L 62.457507 229.876628 
L 63.108117 261.261497 
L 63.758728 272.56786 
L 64.409338 254.515317 
L 65.059948 229.806687 
L 65.710559 267.168349 
L 66.361169 252.702375 
L 67.011779 241.888218 
L 67.662389 267.943752 
L 68.313 269.572144 
L 69.61422 244.992498 
L 70.264831 137.728117 
L 70.915441 260.631876 
L 71.566051 244.719295 
L 72.216662 274.967841 
L 72.867272 264.195291 
L 73.517882 259.455522 
L 74.168493 263.457023 
L 74.819103 273.472061 
L 75.469713 221.118993 
L 76.120323 234.573624 
L 76.770934 272.916068 
L 77.421544 236.263409 
L 78.072154 272.951508 
L 78.722765 261.051706 
L 79.373375 263.708703 
L 80.023985 272.31697 
L 80.674596 274.203479 
L 81.325206 270.98866 
L 81.975816 251.654605 
L 82.626427 272.810941 
L 83.277037 205.875974 
L 84.578258 253.432189 
L 85.228868 257.812194 
L 85.879478 251.840541 
L 86.530088 198.694894 
L 87.180699 275.75011 
L 87.831309 275.957278 
L 88.481919 266.008715 
L 89.13253 237.073912 
L 89.78314 238.933746 
L 90.43375 262.102033 
L 91.084361 248.55735 
L 92.385581 269.889939 
L 93.036192 245.333615 
L 93.686802 258.251612 
L 94.337412 263.036802 
L 94.988023 245.316523 
L 95.638633 234.012493 
L 96.289243 253.845828 
L 96.939853 267.901397 
L 97.590464 242.901437 
L 98.241074 247.325905 
L 98.891684 229.369274 
L 99.542295 272.299691 
L 100.192905 272.665184 
L 100.843515 267.302742 
L 101.494126 259.700351 
L 102.144736 264.512442 
L 102.795346 254.185512 
L 104.096567 275.046626 
L 104.747177 217.897575 
L 105.397788 234.816134 
L 106.048398 264.089232 
L 106.699008 246.32286 
L 107.349618 231.768701 
L 108.000229 276.212185 
L 108.650839 256.031123 
L 109.301449 172.72231 
L 109.95206 243.885913 
L 110.60267 259.961169 
L 111.25328 243.123894 
L 111.903891 270.929672 
L 112.554501 237.044067 
L 113.205111 250.623821 
L 113.855722 238.267184 
L 114.506332 260.178539 
L 115.156942 237.47604 
L 115.807552 268.505212 
L 116.458163 263.321225 
L 117.108773 261.048032 
L 117.759383 240.151021 
L 118.409994 274.959223 
L 119.060604 255.411927 
L 119.711214 268.704199 
L 120.361825 243.664614 
L 121.012435 269.533958 
L 121.663045 246.323788 
L 122.313656 270.669447 
L 122.964266 244.465194 
L 123.614876 261.691643 
L 124.265487 269.841313 
L 124.916097 276.041982 
L 125.566707 266.250255 
L 126.217317 218.251232 
L 126.867928 232.447414 
L 127.518538 264.85811 
L 128.169148 263.452534 
L 128.819759 255.132161 
L 129.470369 249.186367 
L 130.120979 247.289153 
L 130.77159 272.620461 
L 132.07281 237.655628 
L 132.723421 262.791829 
L 133.374031 259.287405 
L 134.024641 237.326951 
L 134.675252 236.571437 
L 135.325862 262.047123 
L 135.976472 274.729981 
L 136.627082 265.686216 
L 137.277693 249.344656 
L 137.928303 264.662289 
L 138.578913 252.192046 
L 139.229524 268.794472 
L 139.880134 242.878259 
L 140.530744 269.433663 
L 141.181355 258.93102 
L 141.831965 276.07617 
L 142.482575 273.231362 
L 143.133186 251.176605 
L 143.783796 271.096908 
L 144.434406 229.813708 
L 145.085017 258.368119 
L 145.735627 269.220981 
L 146.386237 238.703578 
L 147.036847 269.493587 
L 147.687458 250.00434 
L 148.338068 243.489171 
L 148.988678 249.50821 
L 149.639289 244.063333 
L 150.289899 271.720749 
L 150.940509 257.585506 
L 151.59112 233.998688 
L 152.24173 271.359419 
L 152.89234 247.240086 
L 153.542951 268.236271 
L 154.193561 260.025677 
L 154.844171 193.284504 
L 155.494781 258.088756 
L 156.145392 267.569175 
L 156.796002 259.776238 
L 157.446612 249.825763 
L 158.097223 269.483914 
L 158.747833 219.785319 
L 159.398443 275.921244 
L 160.049054 275.027811 
L 160.699664 259.938906 
L 161.350274 249.985539 
L 162.000885 236.250263 
L 162.651495 274.506374 
L 163.302105 266.026724 
L 163.952716 269.413564 
L 164.603326 226.089851 
L 165.253936 239.131374 
L 165.904546 258.125536 
L 166.555157 256.629242 
L 167.205767 243.128006 
L 167.856377 243.854501 
L 168.506988 217.513839 
L 169.157598 269.266791 
L 169.808208 273.722983 
L 170.458819 269.637241 
L 171.109429 269.218353 
L 171.760039 272.811677 
L 172.41065 253.555607 
L 173.06126 248.864318 
L 173.71187 232.431539 
L 174.362481 270.412098 
L 175.013091 268.013854 
L 175.663701 262.157351 
L 176.314311 269.219809 
L 176.964922 271.268234 
L 177.615532 263.01724 
L 178.266142 205.166895 
L 178.916753 274.770873 
L 179.567363 276.231374 
L 180.217973 224.374001 
L 180.868584 269.775499 
L 181.519194 267.48749 
L 182.169804 246.702567 
L 182.820415 243.608791 
L 183.471025 234.266137 
L 184.121635 254.301909 
L 184.772246 233.909197 
L 185.422856 273.517965 
L 186.073466 239.048512 
L 186.724076 175.573157 
L 187.374687 252.684342 
L 188.025297 273.405075 
L 188.675907 253.108911 
L 189.326518 252.102044 
L 189.977128 262.068705 
L 190.627738 274.406533 
L 191.278349 263.060728 
L 191.928959 275.082093 
L 192.579569 274.708778 
L 193.23018 250.532205 
L 193.88079 261.896814 
L 194.5314 259.0996 
L 195.18201 247.592636 
L 195.832621 222.633127 
L 196.483231 272.454346 
L 197.784452 271.621517 
L 198.435062 231.606139 
L 199.085672 274.736203 
L 200.386893 237.569484 
L 201.037503 259.2197 
L 201.688114 271.15642 
L 202.338724 270.78346 
L 202.989334 262.839426 
L 203.639945 269.785753 
L 204.290555 235.28862 
L 204.941165 266.13951 
L 205.591775 271.118895 
L 206.242386 273.62982 
L 206.892996 267.242195 
L 207.543606 271.926662 
L 208.194217 235.044474 
L 208.844827 270.437149 
L 209.495437 144.468081 
L 210.146048 195.541576 
L 210.796658 274.859043 
L 211.447268 208.264077 
L 212.097879 274.183284 
L 212.748489 267.039987 
L 213.399099 230.375727 
L 214.70032 275.970521 
L 215.35093 270.336326 
L 216.00154 260.104358 
L 216.652151 264.657085 
L 217.302761 274.30272 
L 217.953371 239.96715 
L 218.603982 248.897096 
L 219.254592 243.491344 
L 219.905202 234.665344 
L 220.555813 258.985201 
L 221.206423 208.094461 
L 221.857033 173.327037 
L 222.507644 232.397934 
L 223.158254 269.848103 
L 223.808864 260.57586 
L 224.459475 258.288047 
L 225.110085 196.657676 
L 225.760695 259.147792 
L 226.411305 236.789561 
L 227.061916 249.44334 
L 227.712526 252.172609 
L 228.363136 263.926113 
L 229.013747 265.917212 
L 229.664357 254.767566 
L 230.314967 228.964223 
L 230.965578 261.371963 
L 231.616188 254.769359 
L 232.266798 246.343971 
L 232.917409 268.670792 
L 233.568019 260.434749 
L 234.218629 270.467047 
L 235.51985 250.319185 
L 236.17046 253.655127 
L 236.82107 263.095986 
L 237.471681 275.998679 
L 238.122291 252.34956 
L 238.772901 214.004767 
L 239.423512 262.785719 
L 240.074122 224.804088 
L 240.724732 235.372024 
L 242.025953 267.783092 
L 242.676563 265.04415 
L 243.327174 249.446321 
L 243.977784 271.788314 
L 244.628394 264.606515 
L 245.279004 246.333333 
L 245.929615 263.151006 
L 246.580225 275.420429 
L 247.230835 230.187267 
L 247.881446 262.322728 
L 248.532056 275.435605 
L 249.182666 260.411077 
L 249.833277 267.214582 
L 250.483887 248.282781 
L 251.134497 267.892732 
L 251.785108 259.73105 
L 252.435718 270.429692 
L 253.086328 263.604602 
L 253.736939 274.059193 
L 254.387549 267.481385 
L 255.038159 262.263814 
L 255.688769 252.65922 
L 256.33938 264.981668 
L 256.98999 262.469386 
L 257.6406 248.306609 
L 258.291211 262.361348 
L 258.941821 264.897849 
L 259.592431 254.606402 
L 260.243042 272.310167 
L 260.893652 274.843749 
L 261.544262 247.655908 
L 262.194873 261.560871 
L 262.845483 179.955892 
L 263.496093 257.62628 
L 264.146704 268.569057 
L 264.797314 276.185028 
L 265.447924 243.267577 
L 266.098534 221.294733 
L 266.749145 274.06661 
L 267.399755 235.382916 
L 268.050365 271.009134 
L 268.700976 258.747763 
L 269.351586 275.837056 
L 270.002196 227.817946 
L 270.652807 258.188726 
L 271.303417 190.35278 
L 271.954027 269.860368 
L 272.604638 265.490846 
L 273.255248 268.061419 
L 273.905858 266.173447 
L 274.556469 269.768025 
L 275.207079 269.124753 
L 275.857689 273.226741 
L 276.508299 254.308736 
L 277.15891 211.176456 
L 277.80952 275.605666 
L 278.46013 274.685042 
L 279.110741 206.870129 
L 279.761351 263.886044 
L 281.062572 243.946452 
L 281.713182 264.780538 
L 282.363792 275.49374 
L 283.014403 226.141331 
L 283.665013 237.750705 
L 284.315623 251.57128 
L 284.966233 257.091939 
L 286.267454 264.517762 
L 286.918064 234.119362 
L 287.568675 256.383984 
L 288.219285 260.205089 
L 288.869895 198.244418 
L 289.520506 241.898561 
L 290.171116 245.821612 
L 290.821726 272.50118 
L 291.472337 273.057724 
L 292.122947 273.342239 
L 292.773557 233.523724 
L 293.424168 259.952163 
L 294.074778 263.842373 
L 294.725388 267.016077 
L 295.375998 266.893822 
L 296.026609 246.561069 
L 296.677219 274.068584 
L 297.327829 274.689522 
L 297.97844 275.842093 
L 298.62905 274.215058 
L 299.27966 263.128642 
L 299.930271 258.579054 
L 300.580881 255.434469 
L 301.231491 275.506496 
L 301.882102 256.904533 
L 302.532712 223.62016 
L 303.183322 252.432046 
L 303.833933 264.64028 
L 304.484543 222.535451 
L 305.135153 252.456149 
L 305.785763 217.370522 
L 306.436374 274.554153 
L 307.086984 274.78718 
L 307.737594 258.632718 
L 308.388205 271.579847 
L 309.038815 259.496107 
L 309.689425 272.282252 
L 310.340036 258.955303 
L 310.990646 255.26582 
L 311.641256 214.773429 
L 312.291867 269.920192 
L 312.942477 211.25872 
L 313.593087 260.380307 
L 314.243698 259.709516 
L 314.894308 266.306491 
L 315.544918 195.204194 
L 316.195528 248.624932 
L 316.846139 263.528207 
L 318.147359 253.753612 
L 318.79797 233.19789 
L 319.44858 260.114287 
L 320.09919 246.244923 
L 320.749801 227.158901 
L 321.400411 269.656221 
L 322.051021 253.996979 
L 322.701632 243.40121 
L 323.352242 269.603392 
L 324.002852 258.575908 
L 324.653462 275.940274 
L 325.304073 241.784887 
L 325.954683 271.63202 
L 326.605293 275.792043 
L 327.255904 274.814796 
L 327.906514 221.735418 
L 328.557124 256.876857 
L 329.207735 268.645988 
L 329.858345 259.106356 
L 330.508955 261.923689 
L 331.159566 276.099311 
L 331.810176 246.195777 
L 332.460786 258.970761 
L 333.111397 224.611399 
L 333.762007 244.930252 
L 334.412617 274.971307 
L 335.063227 274.154042 
L 335.713838 192.830862 
L 336.364448 181.572205 
L 337.015058 273.138826 
L 337.665669 219.303819 
L 338.316279 272.826747 
L 338.966889 245.300255 
L 339.6175 212.799081 
L 340.26811 265.186971 
L 340.91872 226.505763 
L 341.569331 274.035142 
L 342.219941 233.530293 
L 342.870551 248.711711 
L 343.521162 251.818837 
L 344.171772 274.20075 
L 344.822382 274.414781 
L 345.472992 258.197829 
L 346.123603 270.480359 
L 346.774213 275.905028 
L 347.424823 273.233982 
L 348.075434 276.20112 
L 348.726044 256.854161 
L 349.376654 276.334125 
L 350.027265 264.423292 
L 350.677875 250.370556 
L 351.979096 273.881986 
L 352.629706 254.03905 
L 353.280316 229.339626 
L 353.930927 230.760738 
L 354.581537 225.763057 
L 355.232147 270.173465 
L 355.882757 271.00381 
L 356.533368 250.665413 
L 357.183978 253.050829 
L 357.834588 262.871984 
L 358.485199 275.743631 
L 359.786419 243.321925 
L 360.43703 209.857741 
L 361.08764 274.506727 
L 361.73825 272.181401 
L 363.039471 222.860418 
L 363.690081 260.033671 
L 364.340691 220.477539 
L 364.991302 275.451486 
L 365.641912 231.72311 
L 366.292522 268.761145 
L 366.943133 273.156729 
L 367.593743 266.741182 
L 368.894964 271.552862 
L 369.545574 254.730823 
L 370.196184 243.99849 
L 370.846795 275.561407 
L 371.497405 248.31117 
L 372.148015 254.487703 
L 372.798626 261.832252 
L 373.449236 274.819935 
L 374.099846 252.174294 
L 374.750456 254.689395 
L 375.401067 238.957507 
L 376.051677 271.006078 
L 376.702287 235.716755 
L 377.352898 251.366628 
L 377.352898 251.366628 
" clip-path="url(#pfe597788f1)" style="fill: none; stroke: #808080; stroke-linecap: square"/>
   </g>
   <g id="line2d_33">
    <defs>
     <path id="m7b5b9bb647" d="M -3 3 
L 3 -3 
M -3 -3 
L 3 3 
" style="stroke: #ff0000"/>
    </defs>
    <g clip-path="url(#pfe597788f1)">
     <use xlink:href="#m7b5b9bb647" x="59.204455" y="34.414125" style="fill: #ff0000; stroke: #ff0000"/>
    </g>
   </g>
   <g id="patch_3">
    <path d="M 36.465625 288.430125 
L 36.465625 22.318125 
" style="fill: none; stroke: #000000; stroke-width: 0.8; stroke-linejoin: miter; stroke-linecap: square"/>
   </g>
   <g id="patch_4">
    <path d="M 393.585625 288.430125 
L 393.585625 22.318125 
" style="fill: none; stroke: #000000; stroke-width: 0.8; stroke-linejoin: miter; stroke-linecap: square"/>
   </g>
   <g id="patch_5">
    <path d="M 36.465625 288.430125 
L 393.585625 288.430125 
" style="fill: none; stroke: #000000; stroke-width: 0.8; stroke-linejoin: miter; stroke-linecap: square"/>
   </g>
   <g id="patch_6">
    <path d="M 36.465625 22.318125 
L 393.585625 22.318125 
" style="fill: none; stroke: #000000; stroke-width: 0.8; stroke-linejoin: miter; stroke-linecap: square"/>
   </g>
   <g id="text_16">
    <!-- A = 0.2, $f_o$ = 0.01 -->
    <g transform="translate(161.985625 16.318125)scale(0.12 -0.12)">
     <defs>
      <path id="DejaVuSans-41" d="M 2188 4044 
L 1331 1722 
L 3047 1722 
L 2188 4044 
z
M 1831 4666 
L 2547 4666 
L 4325 0 
L 3669 0 
L 3244 1197 
L 1141 1197 
L 716 0 
L 50 0 
L 1831 4666 
z
" transform="scale(0.015625)"/>
      <path id="DejaVuSans-20" transform="scale(0.015625)"/>
      <path id="DejaVuSans-3d" d="M 678 2906 
L 4684 2906 
L 4684 2381 
L 678 2381 
L 678 2906 
z
M 678 1631 
L 4684 1631 
L 4684 1100 
L 678 1100 
L 678 1631 
z
" transform="scale(0.015625)"/>
      <path id="DejaVuSans-2c" d="M 750 794 
L 1409 794 
L 1409 256 
L 897 -744 
L 494 -744 
L 750 256 
L 750 794 
z
" transform="scale(0.015625)"/>
      <path id="DejaVuSans-Oblique-66" d="M 3059 4863 
L 2969 4384 
L 2419 4384 
Q 2106 4384 1964 4261 
Q 1822 4138 1753 3809 
L 1691 3500 
L 2638 3500 
L 2553 3053 
L 1606 3053 
L 1013 0 
L 434 0 
L 1031 3053 
L 481 3053 
L 563 3500 
L 1113 3500 
L 1159 3744 
Q 1278 4363 1576 4613 
Q 1875 4863 2516 4863 
L 3059 4863 
z
" transform="scale(0.015625)"/>
      <path id="DejaVuSans-Oblique-6f" d="M 1625 -91 
Q 1009 -91 651 289 
Q 294 669 294 1325 
Q 294 1706 417 2101 
Q 541 2497 738 2766 
Q 1047 3184 1428 3384 
Q 1809 3584 2291 3584 
Q 2888 3584 3255 3212 
Q 3622 2841 3622 2241 
Q 3622 1825 3500 1412 
Q 3378 1000 3181 728 
Q 2875 309 2494 109 
Q 2113 -91 1625 -91 
z
M 891 1344 
Q 891 869 1089 633 
Q 1288 397 1691 397 
Q 2269 397 2648 901 
Q 3028 1406 3028 2181 
Q 3028 2634 2825 2865 
Q 2622 3097 2228 3097 
Q 1903 3097 1650 2945 
Q 1397 2794 1197 2484 
Q 1050 2253 970 1956 
Q 891 1659 891 1344 
z
" transform="scale(0.015625)"/>
     </defs>
     <use xlink:href="#DejaVuSans-41" transform="translate(0 0.015625)"/>
     <use xlink:href="#DejaVuSans-20" transform="translate(68.408203 0.015625)"/>
     <use xlink:href="#DejaVuSans-3d" transform="translate(100.195312 0.015625)"/>
     <use xlink:href="#DejaVuSans-20" transform="translate(183.984375 0.015625)"/>
     <use xlink:href="#DejaVuSans-30" transform="translate(215.771484 0.015625)"/>
     <use xlink:href="#DejaVuSans-2e" transform="translate(279.394531 0.015625)"/>
     <use xlink:href="#DejaVuSans-32" transform="translate(305.681641 0.015625)"/>
     <use xlink:href="#DejaVuSans-2c" transform="translate(369.304688 0.015625)"/>
     <use xlink:href="#DejaVuSans-20" transform="translate(401.091797 0.015625)"/>
     <use xlink:href="#DejaVuSans-Oblique-66" transform="translate(432.878906 0.015625)"/>
     <use xlink:href="#DejaVuSans-Oblique-6f" transform="translate(468.083984 -16.390625)scale(0.7)"/>
     <use xlink:href="#DejaVuSans-20" transform="translate(513.645508 0.015625)"/>
     <use xlink:href="#DejaVuSans-3d" transform="translate(545.432617 0.015625)"/>
     <use xlink:href="#DejaVuSans-20" transform="translate(629.22168 0.015625)"/>
     <use xlink:href="#DejaVuSans-30" transform="translate(661.008789 0.015625)"/>
     <use xlink:href="#DejaVuSans-2e" transform="translate(724.631836 0.015625)"/>
     <use xlink:href="#DejaVuSans-30" transform="translate(756.418945 0.015625)"/>
     <use xlink:href="#DejaVuSans-31" transform="translate(820.041992 0.015625)"/>
    </g>
   </g>
   <g id="legend_1">
    <g id="patch_7">
     <path d="M 207.185625 77.39625 
L 386.585625 77.39625 
Q 388.585625 77.39625 388.585625 75.39625 
L 388.585625 29.318125 
Q 388.585625 27.318125 386.585625 27.318125 
L 207.185625 27.318125 
Q 205.185625 27.318125 205.185625 29.318125 
L 205.185625 75.39625 
Q 205.185625 77.39625 207.185625 77.39625 
z
" style="fill: #ffffff; opacity: 0.8; stroke: #cccccc; stroke-linejoin: miter"/>
    </g>
    <g id="line2d_34">
     <path d="M 209.185625 35.416562 
L 219.185625 35.416562 
L 229.185625 35.416562 
" style="fill: none; stroke: #000000; stroke-width: 1.5; stroke-linecap: square"/>
    </g>
    <g id="text_17">
     <!-- $I$ for 1000 values from $\mathcal{N}$(0,1) -->
     <g transform="translate(237.185625 38.916562)scale(0.1 -0.1)">
      <defs>
       <path id="DejaVuSans-Oblique-49" d="M 1081 4666 
L 1716 4666 
L 806 0 
L 172 0 
L 1081 4666 
z
" transform="scale(0.015625)"/>
       <path id="DejaVuSans-66" d="M 2375 4863 
L 2375 4384 
L 1825 4384 
Q 1516 4384 1395 4259 
Q 1275 4134 1275 3809 
L 1275 3500 
L 2222 3500 
L 2222 3053 
L 1275 3053 
L 1275 0 
L 697 0 
L 697 3053 
L 147 3053 
L 147 3500 
L 697 3500 
L 697 3744 
Q 697 4328 969 4595 
Q 1241 4863 1831 4863 
L 2375 4863 
z
" transform="scale(0.015625)"/>
       <path id="DejaVuSans-6f" d="M 1959 3097 
Q 1497 3097 1228 2736 
Q 959 2375 959 1747 
Q 959 1119 1226 758 
Q 1494 397 1959 397 
Q 2419 397 2687 759 
Q 2956 1122 2956 1747 
Q 2956 2369 2687 2733 
Q 2419 3097 1959 3097 
z
M 1959 3584 
Q 2709 3584 3137 3096 
Q 3566 2609 3566 1747 
Q 3566 888 3137 398 
Q 2709 -91 1959 -91 
Q 1206 -91 779 398 
Q 353 888 353 1747 
Q 353 2609 779 3096 
Q 1206 3584 1959 3584 
z
" transform="scale(0.015625)"/>
       <path id="DejaVuSans-72" d="M 2631 2963 
Q 2534 3019 2420 3045 
Q 2306 3072 2169 3072 
Q 1681 3072 1420 2755 
Q 1159 2438 1159 1844 
L 1159 0 
L 581 0 
L 581 3500 
L 1159 3500 
L 1159 2956 
Q 1341 3275 1631 3429 
Q 1922 3584 2338 3584 
Q 2397 3584 2469 3576 
Q 2541 3569 2628 3553 
L 2631 2963 
z
" transform="scale(0.015625)"/>
       <path id="DejaVuSans-76" d="M 191 3500 
L 800 3500 
L 1894 563 
L 2988 3500 
L 3597 3500 
L 2284 0 
L 1503 0 
L 191 3500 
z
" transform="scale(0.015625)"/>
       <path id="DejaVuSans-61" d="M 2194 1759 
Q 1497 1759 1228 1600 
Q 959 1441 959 1056 
Q 959 750 1161 570 
Q 1363 391 1709 391 
Q 2188 391 2477 730 
Q 2766 1069 2766 1631 
L 2766 1759 
L 2194 1759 
z
M 3341 1997 
L 3341 0 
L 2766 0 
L 2766 531 
Q 2569 213 2275 61 
Q 1981 -91 1556 -91 
Q 1019 -91 701 211 
Q 384 513 384 1019 
Q 384 1609 779 1909 
Q 1175 2209 1959 2209 
L 2766 2209 
L 2766 2266 
Q 2766 2663 2505 2880 
Q 2244 3097 1772 3097 
Q 1472 3097 1187 3025 
Q 903 2953 641 2809 
L 641 3341 
Q 956 3463 1253 3523 
Q 1550 3584 1831 3584 
Q 2591 3584 2966 3190 
Q 3341 2797 3341 1997 
z
" transform="scale(0.015625)"/>
       <path id="DejaVuSans-6c" d="M 603 4863 
L 1178 4863 
L 1178 0 
L 603 0 
L 603 4863 
z
" transform="scale(0.015625)"/>
       <path id="DejaVuSans-75" d="M 544 1381 
L 544 3500 
L 1119 3500 
L 1119 1403 
Q 1119 906 1312 657 
Q 1506 409 1894 409 
Q 2359 409 2629 706 
Q 2900 1003 2900 1516 
L 2900 3500 
L 3475 3500 
L 3475 0 
L 2900 0 
L 2900 538 
Q 2691 219 2414 64 
Q 2138 -91 1772 -91 
Q 1169 -91 856 284 
Q 544 659 544 1381 
z
M 1991 3584 
L 1991 3584 
z
" transform="scale(0.015625)"/>
       <path id="DejaVuSans-65" d="M 3597 1894 
L 3597 1613 
L 953 1613 
Q 991 1019 1311 708 
Q 1631 397 2203 397 
Q 2534 397 2845 478 
Q 3156 559 3463 722 
L 3463 178 
Q 3153 47 2828 -22 
Q 2503 -91 2169 -91 
Q 1331 -91 842 396 
Q 353 884 353 1716 
Q 353 2575 817 3079 
Q 1281 3584 2069 3584 
Q 2775 3584 3186 3129 
Q 3597 2675 3597 1894 
z
M 3022 2063 
Q 3016 2534 2758 2815 
Q 2500 3097 2075 3097 
Q 1594 3097 1305 2825 
Q 1016 2553 972 2059 
L 3022 2063 
z
" transform="scale(0.015625)"/>
       <path id="DejaVuSans-73" d="M 2834 3397 
L 2834 2853 
Q 2591 2978 2328 3040 
Q 2066 3103 1784 3103 
Q 1356 3103 1142 2972 
Q 928 2841 928 2578 
Q 928 2378 1081 2264 
Q 1234 2150 1697 2047 
L 1894 2003 
Q 2506 1872 2764 1633 
Q 3022 1394 3022 966 
Q 3022 478 2636 193 
Q 2250 -91 1575 -91 
Q 1294 -91 989 -36 
Q 684 19 347 128 
L 347 722 
Q 666 556 975 473 
Q 1284 391 1588 391 
Q 1994 391 2212 530 
Q 2431 669 2431 922 
Q 2431 1156 2273 1281 
Q 2116 1406 1581 1522 
L 1381 1569 
Q 847 1681 609 1914 
Q 372 2147 372 2553 
Q 372 3047 722 3315 
Q 1072 3584 1716 3584 
Q 2034 3584 2315 3537 
Q 2597 3491 2834 3397 
z
" transform="scale(0.015625)"/>
       <path id="DejaVuSans-6d" d="M 3328 2828 
Q 3544 3216 3844 3400 
Q 4144 3584 4550 3584 
Q 5097 3584 5394 3201 
Q 5691 2819 5691 2113 
L 5691 0 
L 5113 0 
L 5113 2094 
Q 5113 2597 4934 2840 
Q 4756 3084 4391 3084 
Q 3944 3084 3684 2787 
Q 3425 2491 3425 1978 
L 3425 0 
L 2847 0 
L 2847 2094 
Q 2847 2600 2669 2842 
Q 2491 3084 2119 3084 
Q 1678 3084 1418 2786 
Q 1159 2488 1159 1978 
L 1159 0 
L 581 0 
L 581 3500 
L 1159 3500 
L 1159 2956 
Q 1356 3278 1631 3431 
Q 1906 3584 2284 3584 
Q 2666 3584 2933 3390 
Q 3200 3197 3328 2828 
z
" transform="scale(0.015625)"/>
       <path id="STIXNonUnicode-Italic-e23a" d="M 4294 800 
L 4301 800 
Q 5293 4070 5408 4378 
Q 5472 4538 5523 4614 
Q 5830 5088 6253 5088 
Q 6490 5088 6650 4931 
Q 6810 4774 6810 4550 
Q 6810 4378 6720 4272 
Q 6630 4166 6470 4166 
Q 6368 4166 6297 4224 
Q 6227 4282 6198 4349 
Q 6170 4416 6118 4473 
Q 6067 4531 6003 4531 
Q 5939 4531 5881 4508 
Q 5824 4486 5785 4457 
Q 5747 4429 5705 4371 
Q 5664 4314 5638 4275 
Q 5613 4237 5584 4163 
Q 5555 4090 5545 4058 
Q 5536 4026 5510 3952 
Q 5485 3878 5485 3866 
L 4262 -154 
L 4134 -154 
Q 3078 1280 2483 2893 
L 2470 2893 
Q 2406 2579 2358 2361 
Q 2310 2144 2214 1792 
Q 2118 1440 2028 1190 
Q 1939 941 1804 653 
Q 1670 365 1529 185 
Q 1389 6 1203 -115 
Q 1018 -237 813 -237 
Q 576 -237 416 -80 
Q 256 77 256 301 
Q 256 474 345 579 
Q 435 685 595 685 
Q 698 685 768 627 
Q 838 570 867 502 
Q 896 435 947 377 
Q 998 320 1062 320 
Q 1222 320 1369 480 
Q 1517 640 1638 928 
Q 1760 1216 1862 1542 
Q 1965 1869 2057 2288 
Q 2150 2707 2214 3033 
Q 2278 3360 2348 3741 
Q 2419 4122 2458 4294 
L 2630 4294 
Q 2682 4166 2874 3680 
Q 3066 3194 3142 3008 
Q 3219 2822 3392 2422 
Q 3565 2022 3683 1798 
Q 3802 1574 3968 1292 
Q 4134 1011 4294 800 
z
" transform="scale(0.015625)"/>
       <path id="DejaVuSans-28" d="M 1984 4856 
Q 1566 4138 1362 3434 
Q 1159 2731 1159 2009 
Q 1159 1288 1364 580 
Q 1569 -128 1984 -844 
L 1484 -844 
Q 1016 -109 783 600 
Q 550 1309 550 2009 
Q 550 2706 781 3412 
Q 1013 4119 1484 4856 
L 1984 4856 
z
" transform="scale(0.015625)"/>
       <path id="DejaVuSans-29" d="M 513 4856 
L 1013 4856 
Q 1481 4119 1714 3412 
Q 1947 2706 1947 2009 
Q 1947 1309 1714 600 
Q 1481 -109 1013 -844 
L 513 -844 
Q 928 -128 1133 580 
Q 1338 1288 1338 2009 
Q 1338 2731 1133 3434 
Q 928 4138 513 4856 
z
" transform="scale(0.015625)"/>
      </defs>
      <use xlink:href="#DejaVuSans-Oblique-49" transform="translate(0 0.5)"/>
      <use xlink:href="#DejaVuSans-20" transform="translate(29.492188 0.5)"/>
      <use xlink:href="#DejaVuSans-66" transform="translate(61.279297 0.5)"/>
      <use xlink:href="#DejaVuSans-6f" transform="translate(96.484375 0.5)"/>
      <use xlink:href="#DejaVuSans-72" transform="translate(157.666016 0.5)"/>
      <use xlink:href="#DejaVuSans-20" transform="translate(198.779297 0.5)"/>
      <use xlink:href="#DejaVuSans-31" transform="translate(230.566406 0.5)"/>
      <use xlink:href="#DejaVuSans-30" transform="translate(294.189453 0.5)"/>
      <use xlink:href="#DejaVuSans-30" transform="translate(357.8125 0.5)"/>
      <use xlink:href="#DejaVuSans-30" transform="translate(421.435547 0.5)"/>
      <use xlink:href="#DejaVuSans-20" transform="translate(485.058594 0.5)"/>
      <use xlink:href="#DejaVuSans-76" transform="translate(516.845703 0.5)"/>
      <use xlink:href="#DejaVuSans-61" transform="translate(576.025391 0.5)"/>
      <use xlink:href="#DejaVuSans-6c" transform="translate(637.304688 0.5)"/>
      <use xlink:href="#DejaVuSans-75" transform="translate(665.087891 0.5)"/>
      <use xlink:href="#DejaVuSans-65" transform="translate(728.466797 0.5)"/>
      <use xlink:href="#DejaVuSans-73" transform="translate(789.990234 0.5)"/>
      <use xlink:href="#DejaVuSans-20" transform="translate(842.089844 0.5)"/>
      <use xlink:href="#DejaVuSans-66" transform="translate(873.876953 0.5)"/>
      <use xlink:href="#DejaVuSans-72" transform="translate(909.082031 0.5)"/>
      <use xlink:href="#DejaVuSans-6f" transform="translate(950.195312 0.5)"/>
      <use xlink:href="#DejaVuSans-6d" transform="translate(1011.376953 0.5)"/>
      <use xlink:href="#DejaVuSans-20" transform="translate(1108.789062 0.5)"/>
      <use xlink:href="#STIXNonUnicode-Italic-e23a" transform="translate(1140.576172 0.5)"/>
      <use xlink:href="#DejaVuSans-28" transform="translate(1236.276154 0.5)"/>
      <use xlink:href="#DejaVuSans-30" transform="translate(1275.289825 0.5)"/>
      <use xlink:href="#DejaVuSans-2c" transform="translate(1338.912872 0.5)"/>
      <use xlink:href="#DejaVuSans-31" transform="translate(1370.699982 0.5)"/>
      <use xlink:href="#DejaVuSans-29" transform="translate(1434.323029 0.5)"/>
     </g>
    </g>
    <g id="line2d_35">
     <path d="M 209.185625 51.59625 
L 219.185625 51.59625 
L 229.185625 51.59625 
" style="fill: none; stroke: #808080; stroke-linecap: square"/>
    </g>
    <g id="text_18">
     <!-- Values from $\chi_2^2$ -->
     <g transform="translate(237.185625 55.09625)scale(0.1 -0.1)">
      <defs>
       <path id="DejaVuSans-56" d="M 1831 0 
L 50 4666 
L 709 4666 
L 2188 738 
L 3669 4666 
L 4325 4666 
L 2547 0 
L 1831 0 
z
" transform="scale(0.015625)"/>
       <path id="DejaVuSans-Oblique-3c7" d="M 1922 -781 
L 1691 416 
L 394 -1334 
L -284 -1334 
L 1553 1141 
L 1269 2613 
Q 1194 3006 713 3006 
L 559 3006 
L 653 3500 
L 872 3494 
Q 1675 3472 1775 2950 
L 2006 1753 
L 3303 3503 
L 3981 3503 
L 2144 1028 
L 2428 -444 
Q 2503 -838 2984 -838 
L 3138 -838 
L 3044 -1331 
L 2825 -1325 
Q 2022 -1303 1922 -781 
z
" transform="scale(0.015625)"/>
      </defs>
      <use xlink:href="#DejaVuSans-56" transform="translate(0 0.765625)"/>
      <use xlink:href="#DejaVuSans-61" transform="translate(68.408203 0.765625)"/>
      <use xlink:href="#DejaVuSans-6c" transform="translate(129.6875 0.765625)"/>
      <use xlink:href="#DejaVuSans-75" transform="translate(157.470703 0.765625)"/>
      <use xlink:href="#DejaVuSans-65" transform="translate(220.849609 0.765625)"/>
      <use xlink:href="#DejaVuSans-73" transform="translate(282.373047 0.765625)"/>
      <use xlink:href="#DejaVuSans-20" transform="translate(334.472656 0.765625)"/>
      <use xlink:href="#DejaVuSans-66" transform="translate(366.259766 0.765625)"/>
      <use xlink:href="#DejaVuSans-72" transform="translate(401.464844 0.765625)"/>
      <use xlink:href="#DejaVuSans-6f" transform="translate(442.578125 0.765625)"/>
      <use xlink:href="#DejaVuSans-6d" transform="translate(503.759766 0.765625)"/>
      <use xlink:href="#DejaVuSans-20" transform="translate(601.171875 0.765625)"/>
      <use xlink:href="#DejaVuSans-Oblique-3c7" transform="translate(632.958984 0.765625)"/>
      <use xlink:href="#DejaVuSans-32" transform="translate(696.61138 39.046875)scale(0.7)"/>
      <use xlink:href="#DejaVuSans-32" transform="translate(692.138672 -26.578125)scale(0.7)"/>
     </g>
    </g>
    <g id="line2d_36">
     <g>
      <use xlink:href="#m7b5b9bb647" x="219.185625" y="67.816562" style="fill: #ff0000; stroke: #ff0000"/>
     </g>
    </g>
    <g id="text_19">
     <!-- $(N/2)A^2$ -->
     <g transform="translate(237.185625 71.316562)scale(0.1 -0.1)">
      <defs>
       <path id="DejaVuSans-Oblique-4e" d="M 1081 4666 
L 1931 4666 
L 3219 666 
L 4000 4666 
L 4616 4666 
L 3706 0 
L 2853 0 
L 1569 4025 
L 788 0 
L 172 0 
L 1081 4666 
z
" transform="scale(0.015625)"/>
       <path id="DejaVuSans-2f" d="M 1625 4666 
L 2156 4666 
L 531 -594 
L 0 -594 
L 1625 4666 
z
" transform="scale(0.015625)"/>
       <path id="DejaVuSans-Oblique-41" d="M 2356 4666 
L 3072 4666 
L 3938 0 
L 3278 0 
L 3084 1197 
L 984 1197 
L 325 0 
L -341 0 
L 2356 4666 
z
M 2584 4044 
L 1275 1722 
L 2988 1722 
L 2584 4044 
z
" transform="scale(0.015625)"/>
      </defs>
      <use xlink:href="#DejaVuSans-28" transform="translate(0 0.765625)"/>
      <use xlink:href="#DejaVuSans-Oblique-4e" transform="translate(39.013672 0.765625)"/>
      <use xlink:href="#DejaVuSans-2f" transform="translate(113.818359 0.765625)"/>
      <use xlink:href="#DejaVuSans-32" transform="translate(143.884766 0.765625)"/>
      <use xlink:href="#DejaVuSans-29" transform="translate(207.507812 0.765625)"/>
      <use xlink:href="#DejaVuSans-Oblique-41" transform="translate(246.521484 0.765625)"/>
      <use xlink:href="#DejaVuSans-32" transform="translate(321.946458 39.046875)scale(0.7)"/>
     </g>
    </g>
   </g>
  </g>
 </g>
 <defs>
  <clipPath id="pfe597788f1">
   <rect x="36.465625" y="22.318125" width="357.12" height="266.112"/>
  </clipPath>
 </defs>
</svg>
