<?xml version="1.0" encoding="utf-8" standalone="no"?>
<!DOCTYPE svg PUBLIC "-//W3C//DTD SVG 1.1//EN"
  "http://www.w3.org/Graphics/SVG/1.1/DTD/svg11.dtd">
<svg xmlns:xlink="http://www.w3.org/1999/xlink" width="396.02pt" height="324.387937pt" viewBox="0 0 396.02 324.387937" xmlns="http://www.w3.org/2000/svg" version="1.1">
 <metadata>
  <rdf:RDF xmlns:dc="http://purl.org/dc/elements/1.1/" xmlns:cc="http://creativecommons.org/ns#" xmlns:rdf="http://www.w3.org/1999/02/22-rdf-syntax-ns#">
   <cc:Work>
    <dc:type rdf:resource="http://purl.org/dc/dcmitype/StillImage"/>
    <dc:date>2025-04-05T16:43:58.660459</dc:date>
    <dc:format>image/svg+xml</dc:format>
    <dc:creator>
     <cc:Agent>
      <dc:title>Matplotlib v3.8.4, https://matplotlib.org/</dc:title>
     </cc:Agent>
    </dc:creator>
   </cc:Work>
  </rdf:RDF>
 </metadata>
 <defs>
  <style type="text/css">*{stroke-linejoin: round; stroke-linecap: butt}</style>
 </defs>
 <g id="figure_1">
  <g id="patch_1">
   <path d="M 0 324.387937 
L 396.02 324.387937 
L 396.02 0 
L 0 0 
L 0 324.387937 
z
" style="fill: none"/>
  </g>
  <g id="axes_1">
   <g id="patch_2">
    <path d="M 31.7 287.905125 
L 388.82 287.905125 
L 388.82 21.793125 
L 31.7 21.793125 
L 31.7 287.905125 
z
" style="fill: none"/>
   </g>
   <g id="matplotlib.axis_1">
    <g id="xtick_1">
     <g id="line2d_1">
      <path d="M 47.932727 287.905125 
L 47.932727 21.793125 
" clip-path="url(#p4202affc1e)" style="fill: none; stroke: #b0b0b0; stroke-width: 0.8; stroke-linecap: square"/>
     </g>
     <g id="line2d_2">
      <defs>
       <path id="mac54dd5d30" d="M 0 0 
L 0 3.5 
" style="stroke: #000000; stroke-width: 0.8"/>
      </defs>
      <g>
       <use xlink:href="#mac54dd5d30" x="47.932727" y="287.905125" style="stroke: #000000; stroke-width: 0.8"/>
      </g>
     </g>
     <g id="text_1">
      <!-- 0.0 -->
      <g transform="translate(41.682727 301.848875) scale(0.1 -0.1)">
       <defs>
        <path id="TimesNewRomanPSMT-30" d="M 231 2094 
Q 231 2819 450 3342 
Q 669 3866 1031 4122 
Q 1313 4325 1613 4325 
Q 2100 4325 2488 3828 
Q 2972 3213 2972 2159 
Q 2972 1422 2759 906 
Q 2547 391 2217 158 
Q 1888 -75 1581 -75 
Q 975 -75 572 641 
Q 231 1244 231 2094 
z
M 844 2016 
Q 844 1141 1059 588 
Q 1238 122 1591 122 
Q 1759 122 1940 273 
Q 2122 425 2216 781 
Q 2359 1319 2359 2297 
Q 2359 3022 2209 3506 
Q 2097 3866 1919 4016 
Q 1791 4119 1609 4119 
Q 1397 4119 1231 3928 
Q 1006 3669 925 3112 
Q 844 2556 844 2016 
z
" transform="scale(0.015625)"/>
        <path id="TimesNewRomanPSMT-2e" d="M 800 606 
Q 947 606 1047 504 
Q 1147 403 1147 259 
Q 1147 116 1045 14 
Q 944 -88 800 -88 
Q 656 -88 554 14 
Q 453 116 453 259 
Q 453 406 554 506 
Q 656 606 800 606 
z
" transform="scale(0.015625)"/>
       </defs>
       <use xlink:href="#TimesNewRomanPSMT-30"/>
       <use xlink:href="#TimesNewRomanPSMT-2e" x="50"/>
       <use xlink:href="#TimesNewRomanPSMT-30" x="75"/>
      </g>
     </g>
    </g>
    <g id="xtick_2">
     <g id="line2d_3">
      <path d="M 112.993758 287.905125 
L 112.993758 21.793125 
" clip-path="url(#p4202affc1e)" style="fill: none; stroke: #b0b0b0; stroke-width: 0.8; stroke-linecap: square"/>
     </g>
     <g id="line2d_4">
      <g>
       <use xlink:href="#mac54dd5d30" x="112.993758" y="287.905125" style="stroke: #000000; stroke-width: 0.8"/>
      </g>
     </g>
     <g id="text_2">
      <!-- 0.1 -->
      <g transform="translate(106.743758 301.848875) scale(0.1 -0.1)">
       <defs>
        <path id="TimesNewRomanPSMT-31" d="M 750 3822 
L 1781 4325 
L 1884 4325 
L 1884 747 
Q 1884 391 1914 303 
Q 1944 216 2037 169 
Q 2131 122 2419 116 
L 2419 0 
L 825 0 
L 825 116 
Q 1125 122 1212 167 
Q 1300 213 1334 289 
Q 1369 366 1369 747 
L 1369 3034 
Q 1369 3497 1338 3628 
Q 1316 3728 1258 3775 
Q 1200 3822 1119 3822 
Q 1003 3822 797 3725 
L 750 3822 
z
" transform="scale(0.015625)"/>
       </defs>
       <use xlink:href="#TimesNewRomanPSMT-30"/>
       <use xlink:href="#TimesNewRomanPSMT-2e" x="50"/>
       <use xlink:href="#TimesNewRomanPSMT-31" x="75"/>
      </g>
     </g>
    </g>
    <g id="xtick_3">
     <g id="line2d_5">
      <path d="M 178.05479 287.905125 
L 178.05479 21.793125 
" clip-path="url(#p4202affc1e)" style="fill: none; stroke: #b0b0b0; stroke-width: 0.8; stroke-linecap: square"/>
     </g>
     <g id="line2d_6">
      <g>
       <use xlink:href="#mac54dd5d30" x="178.05479" y="287.905125" style="stroke: #000000; stroke-width: 0.8"/>
      </g>
     </g>
     <g id="text_3">
      <!-- 0.2 -->
      <g transform="translate(171.80479 301.848875) scale(0.1 -0.1)">
       <defs>
        <path id="TimesNewRomanPSMT-32" d="M 2934 816 
L 2638 0 
L 138 0 
L 138 116 
Q 1241 1122 1691 1759 
Q 2141 2397 2141 2925 
Q 2141 3328 1894 3587 
Q 1647 3847 1303 3847 
Q 991 3847 742 3664 
Q 494 3481 375 3128 
L 259 3128 
Q 338 3706 661 4015 
Q 984 4325 1469 4325 
Q 1984 4325 2329 3994 
Q 2675 3663 2675 3213 
Q 2675 2891 2525 2569 
Q 2294 2063 1775 1497 
Q 997 647 803 472 
L 1909 472 
Q 2247 472 2383 497 
Q 2519 522 2628 598 
Q 2738 675 2819 816 
L 2934 816 
z
" transform="scale(0.015625)"/>
       </defs>
       <use xlink:href="#TimesNewRomanPSMT-30"/>
       <use xlink:href="#TimesNewRomanPSMT-2e" x="50"/>
       <use xlink:href="#TimesNewRomanPSMT-32" x="75"/>
      </g>
     </g>
    </g>
    <g id="xtick_4">
     <g id="line2d_7">
      <path d="M 243.115821 287.905125 
L 243.115821 21.793125 
" clip-path="url(#p4202affc1e)" style="fill: none; stroke: #b0b0b0; stroke-width: 0.8; stroke-linecap: square"/>
     </g>
     <g id="line2d_8">
      <g>
       <use xlink:href="#mac54dd5d30" x="243.115821" y="287.905125" style="stroke: #000000; stroke-width: 0.8"/>
      </g>
     </g>
     <g id="text_4">
      <!-- 0.3 -->
      <g transform="translate(236.865821 301.848875) scale(0.1 -0.1)">
       <defs>
        <path id="TimesNewRomanPSMT-33" d="M 325 3431 
Q 506 3859 782 4092 
Q 1059 4325 1472 4325 
Q 1981 4325 2253 3994 
Q 2459 3747 2459 3466 
Q 2459 3003 1878 2509 
Q 2269 2356 2469 2072 
Q 2669 1788 2669 1403 
Q 2669 853 2319 450 
Q 1863 -75 997 -75 
Q 569 -75 414 31 
Q 259 138 259 259 
Q 259 350 332 419 
Q 406 488 509 488 
Q 588 488 669 463 
Q 722 447 909 348 
Q 1097 250 1169 231 
Q 1284 197 1416 197 
Q 1734 197 1970 444 
Q 2206 691 2206 1028 
Q 2206 1275 2097 1509 
Q 2016 1684 1919 1775 
Q 1784 1900 1550 2001 
Q 1316 2103 1072 2103 
L 972 2103 
L 972 2197 
Q 1219 2228 1467 2375 
Q 1716 2522 1828 2728 
Q 1941 2934 1941 3181 
Q 1941 3503 1739 3701 
Q 1538 3900 1238 3900 
Q 753 3900 428 3381 
L 325 3431 
z
" transform="scale(0.015625)"/>
       </defs>
       <use xlink:href="#TimesNewRomanPSMT-30"/>
       <use xlink:href="#TimesNewRomanPSMT-2e" x="50"/>
       <use xlink:href="#TimesNewRomanPSMT-33" x="75"/>
      </g>
     </g>
    </g>
    <g id="xtick_5">
     <g id="line2d_9">
      <path d="M 308.176852 287.905125 
L 308.176852 21.793125 
" clip-path="url(#p4202affc1e)" style="fill: none; stroke: #b0b0b0; stroke-width: 0.8; stroke-linecap: square"/>
     </g>
     <g id="line2d_10">
      <g>
       <use xlink:href="#mac54dd5d30" x="308.176852" y="287.905125" style="stroke: #000000; stroke-width: 0.8"/>
      </g>
     </g>
     <g id="text_5">
      <!-- 0.4 -->
      <g transform="translate(301.926852 301.848875) scale(0.1 -0.1)">
       <defs>
        <path id="TimesNewRomanPSMT-34" d="M 2978 1563 
L 2978 1119 
L 2409 1119 
L 2409 0 
L 1894 0 
L 1894 1119 
L 100 1119 
L 100 1519 
L 2066 4325 
L 2409 4325 
L 2409 1563 
L 2978 1563 
z
M 1894 1563 
L 1894 3666 
L 406 1563 
L 1894 1563 
z
" transform="scale(0.015625)"/>
       </defs>
       <use xlink:href="#TimesNewRomanPSMT-30"/>
       <use xlink:href="#TimesNewRomanPSMT-2e" x="50"/>
       <use xlink:href="#TimesNewRomanPSMT-34" x="75"/>
      </g>
     </g>
    </g>
    <g id="xtick_6">
     <g id="line2d_11">
      <path d="M 373.237883 287.905125 
L 373.237883 21.793125 
" clip-path="url(#p4202affc1e)" style="fill: none; stroke: #b0b0b0; stroke-width: 0.8; stroke-linecap: square"/>
     </g>
     <g id="line2d_12">
      <g>
       <use xlink:href="#mac54dd5d30" x="373.237883" y="287.905125" style="stroke: #000000; stroke-width: 0.8"/>
      </g>
     </g>
     <g id="text_6">
      <!-- 0.5 -->
      <g transform="translate(366.987883 301.848875) scale(0.1 -0.1)">
       <defs>
        <path id="TimesNewRomanPSMT-35" d="M 2778 4238 
L 2534 3706 
L 1259 3706 
L 981 3138 
Q 1809 3016 2294 2522 
Q 2709 2097 2709 1522 
Q 2709 1188 2573 903 
Q 2438 619 2231 419 
Q 2025 219 1772 97 
Q 1413 -75 1034 -75 
Q 653 -75 479 54 
Q 306 184 306 341 
Q 306 428 378 495 
Q 450 563 559 563 
Q 641 563 702 538 
Q 763 513 909 409 
Q 1144 247 1384 247 
Q 1750 247 2026 523 
Q 2303 800 2303 1197 
Q 2303 1581 2056 1914 
Q 1809 2247 1375 2428 
Q 1034 2569 447 2591 
L 1259 4238 
L 2778 4238 
z
" transform="scale(0.015625)"/>
       </defs>
       <use xlink:href="#TimesNewRomanPSMT-30"/>
       <use xlink:href="#TimesNewRomanPSMT-2e" x="50"/>
       <use xlink:href="#TimesNewRomanPSMT-35" x="75"/>
      </g>
     </g>
    </g>
    <g id="text_7">
     <!-- $f$ -->
     <g transform="translate(207.81 315.048875) scale(0.1 -0.1)">
      <defs>
       <path id="Cmmi10-66" d="M 622 -1056 
Q 741 -1147 909 -1147 
Q 1138 -1147 1281 -641 
Q 1341 -397 1606 966 
L 1900 2534 
L 1350 2534 
Q 1288 2534 1288 2619 
Q 1313 2759 1369 2759 
L 1941 2759 
L 2016 3175 
Q 2053 3369 2084 3508 
Q 2116 3647 2152 3765 
Q 2188 3884 2259 4031 
Q 2369 4241 2555 4377 
Q 2741 4513 2956 4513 
Q 3097 4513 3230 4461 
Q 3363 4409 3447 4306 
Q 3531 4203 3531 4063 
Q 3531 3900 3423 3779 
Q 3316 3659 3163 3659 
Q 3059 3659 2986 3723 
Q 2913 3788 2913 3891 
Q 2913 4031 3008 4136 
Q 3103 4241 3244 4256 
Q 3125 4347 2950 4347 
Q 2853 4347 2767 4256 
Q 2681 4166 2656 4063 
Q 2616 3900 2478 3181 
L 2400 2759 
L 3059 2759 
Q 3122 2759 3122 2675 
Q 3119 2659 3109 2620 
Q 3100 2581 3083 2557 
Q 3066 2534 3041 2534 
L 2356 2534 
L 2059 972 
Q 2003 631 1929 279 
Q 1856 -72 1723 -442 
Q 1591 -813 1384 -1063 
Q 1178 -1313 897 -1313 
Q 681 -1313 511 -1189 
Q 341 -1066 341 -863 
Q 341 -700 445 -579 
Q 550 -459 709 -459 
Q 816 -459 887 -523 
Q 959 -588 959 -691 
Q 959 -828 857 -942 
Q 756 -1056 622 -1056 
z
" transform="scale(0.015625)"/>
      </defs>
      <use xlink:href="#Cmmi10-66" transform="translate(0 0.484375)"/>
     </g>
    </g>
   </g>
   <g id="matplotlib.axis_2">
    <g id="ytick_1">
     <g id="line2d_13">
      <path d="M 31.7 275.8174 
L 388.82 275.8174 
" clip-path="url(#p4202affc1e)" style="fill: none; stroke: #b0b0b0; stroke-width: 0.8; stroke-linecap: square"/>
     </g>
     <g id="line2d_14">
      <defs>
       <path id="m0f1b428798" d="M 0 0 
L -3.5 0 
" style="stroke: #000000; stroke-width: 0.8"/>
      </defs>
      <g>
       <use xlink:href="#m0f1b428798" x="31.7" y="275.8174" style="stroke: #000000; stroke-width: 0.8"/>
      </g>
     </g>
     <g id="text_8">
      <!-- 0.0 -->
      <g transform="translate(12.2 279.289275) scale(0.1 -0.1)">
       <use xlink:href="#TimesNewRomanPSMT-30"/>
       <use xlink:href="#TimesNewRomanPSMT-2e" x="50"/>
       <use xlink:href="#TimesNewRomanPSMT-30" x="75"/>
      </g>
     </g>
    </g>
    <g id="ytick_2">
     <g id="line2d_15">
      <path d="M 31.7 245.576366 
L 388.82 245.576366 
" clip-path="url(#p4202affc1e)" style="fill: none; stroke: #b0b0b0; stroke-width: 0.8; stroke-linecap: square"/>
     </g>
     <g id="line2d_16">
      <g>
       <use xlink:href="#m0f1b428798" x="31.7" y="245.576366" style="stroke: #000000; stroke-width: 0.8"/>
      </g>
     </g>
     <g id="text_9">
      <!-- 2.5 -->
      <g transform="translate(12.2 249.048241) scale(0.1 -0.1)">
       <use xlink:href="#TimesNewRomanPSMT-32"/>
       <use xlink:href="#TimesNewRomanPSMT-2e" x="50"/>
       <use xlink:href="#TimesNewRomanPSMT-35" x="75"/>
      </g>
     </g>
    </g>
    <g id="ytick_3">
     <g id="line2d_17">
      <path d="M 31.7 215.335331 
L 388.82 215.335331 
" clip-path="url(#p4202affc1e)" style="fill: none; stroke: #b0b0b0; stroke-width: 0.8; stroke-linecap: square"/>
     </g>
     <g id="line2d_18">
      <g>
       <use xlink:href="#m0f1b428798" x="31.7" y="215.335331" style="stroke: #000000; stroke-width: 0.8"/>
      </g>
     </g>
     <g id="text_10">
      <!-- 5.0 -->
      <g transform="translate(12.2 218.807206) scale(0.1 -0.1)">
       <use xlink:href="#TimesNewRomanPSMT-35"/>
       <use xlink:href="#TimesNewRomanPSMT-2e" x="50"/>
       <use xlink:href="#TimesNewRomanPSMT-30" x="75"/>
      </g>
     </g>
    </g>
    <g id="ytick_4">
     <g id="line2d_19">
      <path d="M 31.7 185.094297 
L 388.82 185.094297 
" clip-path="url(#p4202affc1e)" style="fill: none; stroke: #b0b0b0; stroke-width: 0.8; stroke-linecap: square"/>
     </g>
     <g id="line2d_20">
      <g>
       <use xlink:href="#m0f1b428798" x="31.7" y="185.094297" style="stroke: #000000; stroke-width: 0.8"/>
      </g>
     </g>
     <g id="text_11">
      <!-- 7.5 -->
      <g transform="translate(12.2 188.566172) scale(0.1 -0.1)">
       <defs>
        <path id="TimesNewRomanPSMT-37" d="M 644 4238 
L 2916 4238 
L 2916 4119 
L 1503 -88 
L 1153 -88 
L 2419 3728 
L 1253 3728 
Q 900 3728 750 3644 
Q 488 3500 328 3200 
L 238 3234 
L 644 4238 
z
" transform="scale(0.015625)"/>
       </defs>
       <use xlink:href="#TimesNewRomanPSMT-37"/>
       <use xlink:href="#TimesNewRomanPSMT-2e" x="50"/>
       <use xlink:href="#TimesNewRomanPSMT-35" x="75"/>
      </g>
     </g>
    </g>
    <g id="ytick_5">
     <g id="line2d_21">
      <path d="M 31.7 154.853263 
L 388.82 154.853263 
" clip-path="url(#p4202affc1e)" style="fill: none; stroke: #b0b0b0; stroke-width: 0.8; stroke-linecap: square"/>
     </g>
     <g id="line2d_22">
      <g>
       <use xlink:href="#m0f1b428798" x="31.7" y="154.853263" style="stroke: #000000; stroke-width: 0.8"/>
      </g>
     </g>
     <g id="text_12">
      <!-- 10.0 -->
      <g transform="translate(7.2 158.325138) scale(0.1 -0.1)">
       <use xlink:href="#TimesNewRomanPSMT-31"/>
       <use xlink:href="#TimesNewRomanPSMT-30" x="50"/>
       <use xlink:href="#TimesNewRomanPSMT-2e" x="100"/>
       <use xlink:href="#TimesNewRomanPSMT-30" x="125"/>
      </g>
     </g>
    </g>
    <g id="ytick_6">
     <g id="line2d_23">
      <path d="M 31.7 124.612228 
L 388.82 124.612228 
" clip-path="url(#p4202affc1e)" style="fill: none; stroke: #b0b0b0; stroke-width: 0.8; stroke-linecap: square"/>
     </g>
     <g id="line2d_24">
      <g>
       <use xlink:href="#m0f1b428798" x="31.7" y="124.612228" style="stroke: #000000; stroke-width: 0.8"/>
      </g>
     </g>
     <g id="text_13">
      <!-- 12.5 -->
      <g transform="translate(7.2 128.084103) scale(0.1 -0.1)">
       <use xlink:href="#TimesNewRomanPSMT-31"/>
       <use xlink:href="#TimesNewRomanPSMT-32" x="50"/>
       <use xlink:href="#TimesNewRomanPSMT-2e" x="100"/>
       <use xlink:href="#TimesNewRomanPSMT-35" x="125"/>
      </g>
     </g>
    </g>
    <g id="ytick_7">
     <g id="line2d_25">
      <path d="M 31.7 94.371194 
L 388.82 94.371194 
" clip-path="url(#p4202affc1e)" style="fill: none; stroke: #b0b0b0; stroke-width: 0.8; stroke-linecap: square"/>
     </g>
     <g id="line2d_26">
      <g>
       <use xlink:href="#m0f1b428798" x="31.7" y="94.371194" style="stroke: #000000; stroke-width: 0.8"/>
      </g>
     </g>
     <g id="text_14">
      <!-- 15.0 -->
      <g transform="translate(7.2 97.843069) scale(0.1 -0.1)">
       <use xlink:href="#TimesNewRomanPSMT-31"/>
       <use xlink:href="#TimesNewRomanPSMT-35" x="50"/>
       <use xlink:href="#TimesNewRomanPSMT-2e" x="100"/>
       <use xlink:href="#TimesNewRomanPSMT-30" x="125"/>
      </g>
     </g>
    </g>
    <g id="ytick_8">
     <g id="line2d_27">
      <path d="M 31.7 64.130159 
L 388.82 64.130159 
" clip-path="url(#p4202affc1e)" style="fill: none; stroke: #b0b0b0; stroke-width: 0.8; stroke-linecap: square"/>
     </g>
     <g id="line2d_28">
      <g>
       <use xlink:href="#m0f1b428798" x="31.7" y="64.130159" style="stroke: #000000; stroke-width: 0.8"/>
      </g>
     </g>
     <g id="text_15">
      <!-- 17.5 -->
      <g transform="translate(7.2 67.602034) scale(0.1 -0.1)">
       <use xlink:href="#TimesNewRomanPSMT-31"/>
       <use xlink:href="#TimesNewRomanPSMT-37" x="50"/>
       <use xlink:href="#TimesNewRomanPSMT-2e" x="100"/>
       <use xlink:href="#TimesNewRomanPSMT-35" x="125"/>
      </g>
     </g>
    </g>
    <g id="ytick_9">
     <g id="line2d_29">
      <path d="M 31.7 33.889125 
L 388.82 33.889125 
" clip-path="url(#p4202affc1e)" style="fill: none; stroke: #b0b0b0; stroke-width: 0.8; stroke-linecap: square"/>
     </g>
     <g id="line2d_30">
      <g>
       <use xlink:href="#m0f1b428798" x="31.7" y="33.889125" style="stroke: #000000; stroke-width: 0.8"/>
      </g>
     </g>
     <g id="text_16">
      <!-- 20.0 -->
      <g transform="translate(7.2 37.361) scale(0.1 -0.1)">
       <use xlink:href="#TimesNewRomanPSMT-32"/>
       <use xlink:href="#TimesNewRomanPSMT-30" x="50"/>
       <use xlink:href="#TimesNewRomanPSMT-2e" x="100"/>
       <use xlink:href="#TimesNewRomanPSMT-30" x="125"/>
      </g>
     </g>
    </g>
   </g>
   <g id="line2d_31">
    <path d="M 47.932727 273.221824 
L 48.583338 274.266351 
L 49.233948 263.120576 
L 49.884558 274.705553 
L 50.535169 267.786253 
L 51.185779 240.922 
L 51.836389 267.253164 
L 52.486999 263.347729 
L 53.13761 257.158369 
L 53.78822 178.835243 
L 54.43883 273.336593 
L 55.089441 270.590319 
L 55.740051 271.007529 
L 56.390661 268.069139 
L 57.041272 213.967057 
L 57.691882 241.853871 
L 58.342492 177.967957 
L 58.993103 239.333859 
L 59.643713 265.884645 
L 60.294323 261.263016 
L 60.944934 119.982681 
L 61.595544 259.2975 
L 62.246154 253.785265 
L 62.896764 267.858728 
L 63.547375 274.494094 
L 64.197985 268.971706 
L 64.848595 256.473696 
L 65.499206 267.326316 
L 66.149816 271.889046 
L 66.800426 215.23328 
L 67.451037 232.687678 
L 68.101647 254.792621 
L 68.752257 197.375691 
L 69.402868 263.815565 
L 70.053478 255.981669 
L 70.704088 241.015497 
L 71.354698 215.987733 
L 72.005309 208.483054 
L 72.655919 274.923278 
L 73.306529 237.348933 
L 73.95714 250.116599 
L 74.60775 269.103387 
L 75.25836 265.119738 
L 75.908971 267.164144 
L 76.559581 270.071966 
L 77.210191 252.574768 
L 77.860802 251.78398 
L 78.511412 273.35858 
L 79.162022 250.371027 
L 79.812633 257.238374 
L 80.463243 260.443361 
L 81.113853 256.339005 
L 81.764463 275.489402 
L 82.415074 204.806259 
L 83.716294 233.178917 
L 84.366905 184.109465 
L 85.017515 269.284241 
L 85.668125 268.767456 
L 86.318736 241.133831 
L 87.619956 271.13481 
L 88.270567 263.046126 
L 88.921177 273.771801 
L 89.571787 197.234823 
L 90.222398 267.370302 
L 90.873008 275.596388 
L 91.523618 252.970321 
L 92.174228 254.268129 
L 92.824839 187.983538 
L 93.475449 261.509758 
L 94.126059 246.028773 
L 94.77667 208.356909 
L 95.42728 255.160612 
L 96.07789 270.30003 
L 96.728501 237.554485 
L 97.379111 141.63698 
L 98.029721 274.492958 
L 98.680332 267.592866 
L 99.330942 252.43473 
L 99.981552 255.057362 
L 100.632163 206.952604 
L 101.282773 237.046344 
L 101.933383 274.141392 
L 102.583993 258.476675 
L 103.234604 255.875867 
L 103.885214 273.541652 
L 104.535824 274.738224 
L 105.186435 270.801068 
L 105.837045 253.85724 
L 106.487655 250.066331 
L 107.138266 231.92565 
L 107.788876 247.538725 
L 108.439486 220.312204 
L 109.090097 230.696255 
L 109.740707 271.488925 
L 110.391317 224.380567 
L 111.041927 256.472481 
L 111.692538 272.017693 
L 112.343148 273.903955 
L 112.993758 212.503851 
L 113.644369 259.546114 
L 114.294979 273.374483 
L 114.945589 272.398106 
L 115.5962 182.637553 
L 116.24681 236.186978 
L 116.89742 243.662415 
L 117.548031 240.3183 
L 118.198641 231.501052 
L 118.849251 209.490412 
L 119.499862 246.799755 
L 120.150472 274.726051 
L 120.801082 261.433693 
L 121.451692 256.973967 
L 122.752913 238.251535 
L 123.403523 274.555839 
L 124.054134 258.632918 
L 124.704744 274.558584 
L 125.355354 274.144916 
L 126.005965 263.108875 
L 126.656575 272.748571 
L 127.307185 247.919387 
L 127.957796 172.383297 
L 128.608406 261.207015 
L 129.259016 270.866875 
L 129.909627 274.393461 
L 130.560237 175.003955 
L 131.210847 239.097677 
L 131.861457 273.128704 
L 132.512068 246.243022 
L 133.162678 207.478278 
L 133.813288 255.407309 
L 134.463899 258.582383 
L 135.114509 254.868968 
L 135.765119 240.144191 
L 136.41573 258.035267 
L 137.06634 256.127245 
L 137.71695 250.496703 
L 138.367561 211.878021 
L 139.018171 267.898477 
L 139.668781 257.416842 
L 140.319392 255.893107 
L 140.970002 239.565855 
L 142.271222 263.469041 
L 142.921833 265.166749 
L 143.572443 271.341335 
L 144.223053 262.622488 
L 144.873664 244.071864 
L 145.524274 245.322801 
L 146.174884 252.756092 
L 146.825495 241.333753 
L 147.476105 272.356575 
L 148.126715 273.230178 
L 148.777326 223.461055 
L 149.427936 272.029421 
L 150.078546 243.96157 
L 150.729156 275.108837 
L 151.379767 235.917755 
L 152.030377 259.691826 
L 152.680987 197.147288 
L 153.331598 229.627763 
L 153.982208 253.476634 
L 154.632818 267.614949 
L 155.283429 237.849182 
L 155.934039 267.592461 
L 156.584649 273.325304 
L 157.23526 268.320113 
L 158.53648 268.941727 
L 159.187091 254.076789 
L 159.837701 269.740731 
L 160.488311 227.623605 
L 161.138921 269.094299 
L 162.440142 236.293962 
L 163.090752 246.106199 
L 163.741363 269.627395 
L 164.391973 264.43606 
L 165.042583 275.672444 
L 165.693194 269.06519 
L 166.343804 254.435848 
L 166.994414 273.118094 
L 167.645025 271.445238 
L 168.295635 238.237491 
L 168.946245 271.811474 
L 169.596856 238.795291 
L 170.247466 273.210099 
L 170.898076 257.929586 
L 171.548686 237.98961 
L 172.199297 260.987949 
L 172.849907 255.036271 
L 173.500517 272.51598 
L 174.151128 272.094972 
L 174.801738 249.561809 
L 175.452348 264.447019 
L 176.102959 239.26925 
L 176.753569 272.305708 
L 177.404179 266.326501 
L 178.05479 271.326309 
L 178.7054 226.438971 
L 179.35601 211.318827 
L 180.006621 264.035487 
L 180.657231 260.024125 
L 181.307841 264.160543 
L 181.958451 265.994966 
L 182.609062 253.415409 
L 183.259672 267.295548 
L 183.910282 217.869094 
L 184.560893 268.681482 
L 185.211503 269.33318 
L 185.862113 257.448493 
L 186.512724 260.109348 
L 187.163334 274.037081 
L 187.813944 275.044523 
L 189.115165 252.799752 
L 189.765775 258.986162 
L 190.416385 133.436673 
L 191.066996 228.605151 
L 191.717606 246.658585 
L 192.368216 274.412644 
L 193.018827 267.662188 
L 193.669437 240.604541 
L 194.320047 252.384068 
L 194.970658 273.961913 
L 195.621268 230.445059 
L 196.271878 274.153608 
L 196.922489 268.525387 
L 197.573099 275.809125 
L 198.223709 270.034276 
L 198.87432 275.413615 
L 199.52493 271.959532 
L 200.17554 274.076505 
L 200.82615 274.58044 
L 201.476761 251.738024 
L 202.127371 267.931163 
L 202.777981 241.43237 
L 203.428592 199.900064 
L 204.079202 213.691189 
L 204.729812 240.053789 
L 205.380423 261.861367 
L 206.031033 268.587849 
L 206.681643 248.902845 
L 207.332254 270.544445 
L 207.982864 264.128216 
L 208.633474 239.245318 
L 209.284085 239.288802 
L 209.934695 211.439793 
L 210.585305 254.526234 
L 211.235915 268.273758 
L 211.886526 182.401156 
L 212.537136 251.304235 
L 213.187746 253.533828 
L 213.838357 271.39492 
L 214.488967 269.869685 
L 215.139577 263.199882 
L 215.790188 179.542903 
L 216.440798 268.962502 
L 217.091408 214.733206 
L 217.742019 272.99155 
L 218.392629 249.435044 
L 219.043239 258.495067 
L 219.69385 275.285857 
L 220.34446 267.934442 
L 220.99507 263.258523 
L 221.64568 188.225008 
L 222.296291 258.001873 
L 222.946901 241.189745 
L 223.597511 265.01705 
L 224.248122 253.366529 
L 225.549342 235.821782 
L 226.199953 242.439996 
L 227.501173 258.820125 
L 228.151784 265.569366 
L 228.802394 266.963793 
L 229.453004 267.490317 
L 230.103615 220.268375 
L 230.754225 245.57741 
L 231.404835 233.952413 
L 232.055445 255.507956 
L 232.706056 268.780416 
L 233.356666 238.647478 
L 234.007276 272.403466 
L 234.657887 266.662558 
L 235.308497 251.352383 
L 235.959107 267.443821 
L 236.609718 258.418913 
L 237.260328 252.740201 
L 237.910938 220.262629 
L 238.561549 266.157406 
L 239.212159 250.592919 
L 239.862769 269.927071 
L 241.16399 241.575582 
L 241.8146 275.632574 
L 242.46521 235.236831 
L 243.766431 268.316335 
L 244.417041 268.70422 
L 245.718262 251.378832 
L 246.368872 255.725121 
L 247.019483 269.237157 
L 247.670093 273.929529 
L 248.320703 240.161366 
L 248.971314 269.195862 
L 249.621924 260.353213 
L 250.272534 273.002125 
L 250.923144 231.734004 
L 251.573755 263.636989 
L 252.224365 234.579113 
L 252.874975 273.128851 
L 253.525586 254.300615 
L 254.176196 262.866916 
L 254.826806 220.938633 
L 255.477417 272.229148 
L 256.128027 189.333653 
L 256.778637 261.577877 
L 257.429248 259.134163 
L 258.079858 201.034079 
L 258.730468 260.764583 
L 259.381079 262.428139 
L 260.031689 207.332986 
L 260.682299 270.861285 
L 261.332909 231.576159 
L 261.98352 274.980636 
L 262.63413 244.223548 
L 263.28474 266.736038 
L 263.935351 252.944359 
L 264.585961 272.76979 
L 265.236571 235.052228 
L 265.887182 257.464678 
L 266.537792 260.932287 
L 267.188402 271.362397 
L 267.839013 244.152644 
L 268.489623 269.595296 
L 269.140233 244.905428 
L 269.790844 269.414151 
L 270.441454 250.853334 
L 271.092064 247.133358 
L 271.742674 258.787724 
L 272.393285 268.091987 
L 273.043895 252.566385 
L 273.694505 258.515181 
L 274.345116 215.071114 
L 274.995726 273.184267 
L 275.646336 258.111116 
L 276.296947 255.377065 
L 276.947557 247.167341 
L 277.598167 271.902346 
L 278.248778 146.088437 
L 278.899388 275.320523 
L 279.549998 261.441966 
L 280.200608 270.056706 
L 280.851219 271.931698 
L 281.501829 201.380046 
L 282.152439 274.195278 
L 282.80305 272.38354 
L 283.45366 246.465617 
L 284.10427 253.699288 
L 284.754881 262.389531 
L 285.405491 252.485099 
L 286.056101 268.39857 
L 286.706712 252.765856 
L 287.357322 264.144593 
L 288.007932 233.843722 
L 288.658543 220.020396 
L 289.309153 259.61844 
L 289.959763 261.157172 
L 290.610373 267.531656 
L 291.260984 248.189856 
L 291.911594 270.771575 
L 292.562204 245.378387 
L 293.212815 268.45001 
L 293.863425 263.066164 
L 294.514035 268.600144 
L 295.164646 241.426704 
L 295.815256 260.74916 
L 296.465866 267.226476 
L 297.116477 235.787346 
L 297.767087 264.699942 
L 298.417697 256.592037 
L 299.068308 272.670999 
L 299.718918 261.984992 
L 300.369528 274.453697 
L 301.020138 273.31289 
L 301.670749 231.905312 
L 302.321359 241.962344 
L 302.971969 272.718416 
L 303.62258 264.309945 
L 304.27319 177.195001 
L 304.9238 268.080044 
L 305.574411 233.933998 
L 306.225021 249.94698 
L 306.875631 223.403621 
L 307.526242 244.742425 
L 308.176852 249.899318 
L 308.827462 258.711211 
L 309.478073 250.688439 
L 310.128683 247.236289 
L 310.779293 260.357074 
L 311.429903 263.712738 
L 312.080514 251.649739 
L 312.731124 259.595832 
L 313.381734 261.136568 
L 314.032345 239.187281 
L 314.682955 265.44458 
L 315.333565 272.273794 
L 315.984176 275.208453 
L 316.634786 265.458705 
L 317.285396 266.266293 
L 317.936007 213.611442 
L 318.586617 232.078152 
L 319.237227 254.822176 
L 319.887837 268.257692 
L 320.538448 139.010653 
L 321.189058 197.328896 
L 321.839668 274.796778 
L 323.140889 261.205222 
L 323.791499 264.511174 
L 324.44211 258.076026 
L 325.09272 274.85009 
L 325.74333 218.399459 
L 326.393941 269.109714 
L 327.044551 261.829846 
L 327.695161 230.66456 
L 328.345772 251.229063 
L 328.996382 252.23941 
L 329.646992 255.884172 
L 330.297602 273.418654 
L 330.948213 267.749776 
L 331.598823 271.609778 
L 332.249433 269.694727 
L 332.900044 222.620412 
L 333.550654 268.511569 
L 334.201264 260.177517 
L 334.851875 274.104787 
L 335.502485 257.302832 
L 336.153095 174.602934 
L 336.803706 261.849528 
L 337.454316 264.611354 
L 338.104926 244.738406 
L 338.755537 255.24692 
L 339.406147 201.502073 
L 340.056757 208.682201 
L 340.707367 275.73588 
L 341.357978 185.661474 
L 342.008588 241.481279 
L 342.659198 224.919771 
L 343.309809 224.288632 
L 344.611029 263.839761 
L 345.26164 249.11658 
L 345.91225 272.933336 
L 347.213471 252.588656 
L 347.864081 250.765713 
L 348.514691 250.163822 
L 349.165302 252.858377 
L 349.815912 273.992042 
L 350.466522 259.419645 
L 351.117132 267.293533 
L 351.767743 243.516045 
L 352.418353 235.517909 
L 353.068963 265.176347 
L 353.719574 266.906928 
L 354.370184 266.921533 
L 355.020794 221.369431 
L 355.671405 273.043439 
L 356.322015 275.101888 
L 356.972625 261.003355 
L 357.623236 263.493372 
L 358.273846 256.542652 
L 358.924456 265.422438 
L 359.575066 270.842588 
L 360.225677 259.062016 
L 360.876287 244.131513 
L 361.526897 233.639245 
L 362.177508 238.002954 
L 362.828118 239.691148 
L 363.478728 267.944992 
L 364.129339 275.674769 
L 364.779949 273.657142 
L 365.430559 254.823462 
L 366.08117 274.700617 
L 366.73178 270.982683 
L 367.38239 275.67091 
L 368.033001 268.991846 
L 368.683611 247.075515 
L 369.334221 265.870215 
L 369.984831 261.807456 
L 370.635442 256.905304 
L 371.286052 275.369607 
L 371.936662 253.641281 
L 372.587273 270.540026 
L 372.587273 270.540026 
" clip-path="url(#p4202affc1e)" style="fill: none; stroke: #000000; stroke-width: 1.5; stroke-linecap: square"/>
   </g>
   <g id="line2d_32">
    <path d="M 47.932727 227.411441 
L 48.583338 258.28959 
L 49.233948 265.256318 
L 49.884558 265.465556 
L 50.535169 270.63192 
L 51.185779 222.405689 
L 51.836389 268.935502 
L 52.486999 254.721699 
L 53.13761 237.083383 
L 54.43883 275.212212 
L 55.089441 275.198905 
L 56.390661 268.679436 
L 57.041272 271.302365 
L 57.691882 241.342509 
L 58.342492 246.134333 
L 58.993103 257.480068 
L 59.643713 251.930348 
L 60.294323 201.365396 
L 60.944934 260.465852 
L 61.595544 251.073021 
L 62.246154 263.214477 
L 62.896764 263.384515 
L 63.547375 273.710436 
L 64.197985 242.212436 
L 64.848595 275.288842 
L 65.499206 242.773324 
L 66.149816 268.477152 
L 66.800426 263.43194 
L 67.451037 271.613387 
L 68.101647 275.249698 
L 68.752257 194.721702 
L 69.402868 245.429907 
L 70.053478 275.21363 
L 70.704088 271.670689 
L 71.354698 226.074833 
L 72.005309 272.330441 
L 72.655919 251.449533 
L 73.306529 255.579379 
L 73.95714 206.803514 
L 75.25836 274.052735 
L 75.908971 270.039546 
L 76.559581 273.817146 
L 77.210191 247.004121 
L 77.860802 147.268278 
L 78.511412 223.904521 
L 79.162022 270.797154 
L 79.812633 230.367752 
L 80.463243 263.835766 
L 81.113853 271.00617 
L 82.415074 213.849819 
L 83.065684 272.478227 
L 83.716294 274.982758 
L 85.017515 267.137872 
L 85.668125 203.946062 
L 86.318736 265.928761 
L 86.969346 265.757992 
L 87.619956 200.593634 
L 88.270567 262.511084 
L 88.921177 247.74647 
L 89.571787 243.795098 
L 90.222398 252.48544 
L 90.873008 186.408527 
L 91.523618 243.674232 
L 92.174228 264.665444 
L 92.824839 247.072808 
L 93.475449 254.761679 
L 94.126059 232.042001 
L 95.42728 275.298172 
L 96.07789 270.959576 
L 96.728501 245.738859 
L 97.379111 247.887561 
L 98.029721 255.912384 
L 98.680332 274.572086 
L 99.330942 248.321398 
L 99.981552 249.4158 
L 100.632163 250.204625 
L 101.282773 262.837978 
L 101.933383 236.949163 
L 102.583993 272.85535 
L 103.234604 258.575034 
L 103.885214 273.682241 
L 105.186435 169.319081 
L 105.837045 251.990647 
L 106.487655 270.097453 
L 107.138266 265.597423 
L 107.788876 243.088354 
L 108.439486 269.207861 
L 109.090097 266.501357 
L 109.740707 261.995566 
L 110.391317 172.935264 
L 111.041927 270.893752 
L 111.692538 269.656211 
L 112.343148 258.170828 
L 112.993758 255.977371 
L 113.644369 261.731481 
L 114.294979 205.795484 
L 114.945589 273.309733 
L 115.5962 233.351456 
L 116.24681 268.196266 
L 116.89742 229.426215 
L 117.548031 248.399817 
L 118.849251 255.081156 
L 119.499862 197.06748 
L 120.150472 244.112983 
L 120.801082 269.064291 
L 121.451692 274.198171 
L 122.102303 243.664187 
L 122.752913 233.085445 
L 123.403523 250.935358 
L 124.054134 251.737231 
L 124.704744 261.010877 
L 125.355354 272.120335 
L 126.005965 260.646726 
L 126.656575 273.183592 
L 127.307185 264.475888 
L 127.957796 196.360949 
L 128.608406 269.46214 
L 129.259016 251.988832 
L 129.909627 275.583633 
L 130.560237 258.960749 
L 131.210847 251.443955 
L 131.861457 233.93566 
L 132.512068 265.823935 
L 133.162678 273.556051 
L 133.813288 259.443622 
L 134.463899 257.556352 
L 135.114509 261.959706 
L 135.765119 233.49171 
L 136.41573 235.364461 
L 137.06634 235.817521 
L 137.71695 274.390375 
L 138.367561 263.597465 
L 139.018171 261.905229 
L 139.668781 189.852322 
L 140.319392 257.40273 
L 140.970002 217.868582 
L 141.620612 233.870543 
L 142.271222 267.499238 
L 142.921833 239.772588 
L 143.572443 261.613375 
L 144.223053 254.622489 
L 144.873664 274.284302 
L 145.524274 260.549259 
L 146.174884 264.634884 
L 146.825495 271.432784 
L 147.476105 268.729795 
L 148.126715 258.522614 
L 148.777326 251.650628 
L 149.427936 272.903047 
L 150.078546 271.78084 
L 150.729156 263.034494 
L 151.379767 264.816539 
L 152.030377 257.432866 
L 152.680987 270.000596 
L 153.331598 268.213741 
L 153.982208 259.924845 
L 154.632818 220.987575 
L 155.283429 235.571836 
L 155.934039 272.168822 
L 156.584649 271.75944 
L 157.23526 275.55274 
L 157.88587 272.755087 
L 158.53648 271.37646 
L 159.187091 246.106137 
L 159.837701 215.514849 
L 160.488311 229.082458 
L 161.138921 225.640837 
L 161.789532 273.317817 
L 162.440142 201.495316 
L 163.090752 190.15275 
L 163.741363 261.421961 
L 164.391973 268.627058 
L 165.042583 261.887003 
L 165.693194 236.276403 
L 166.343804 269.740509 
L 166.994414 245.524776 
L 167.645025 242.11941 
L 168.295635 260.117771 
L 168.946245 229.236751 
L 169.596856 258.365101 
L 170.247466 274.05865 
L 170.898076 271.978127 
L 171.548686 228.898015 
L 172.199297 255.345935 
L 172.849907 261.330211 
L 173.500517 269.511701 
L 174.151128 274.196289 
L 174.801738 274.717092 
L 175.452348 271.858854 
L 176.753569 221.459099 
L 177.404179 270.230351 
L 178.05479 252.360851 
L 178.7054 266.310965 
L 179.35601 266.89656 
L 180.006621 270.872615 
L 180.657231 269.138192 
L 181.307841 253.858302 
L 181.958451 271.41484 
L 182.609062 217.325162 
L 183.259672 260.371799 
L 183.910282 273.177247 
L 184.560893 242.516144 
L 185.211503 201.174201 
L 185.862113 269.350563 
L 186.512724 256.982032 
L 187.163334 267.037426 
L 187.813944 246.292059 
L 188.464555 264.237654 
L 189.115165 243.984348 
L 189.765775 251.630629 
L 190.416385 262.48666 
L 191.066996 249.422595 
L 191.717606 268.768035 
L 192.368216 271.492833 
L 193.018827 270.880101 
L 193.669437 272.247283 
L 194.320047 259.307221 
L 194.970658 267.174514 
L 195.621268 239.598952 
L 196.271878 263.210928 
L 196.922489 215.791339 
L 197.573099 271.389849 
L 198.87432 254.545605 
L 199.52493 270.778282 
L 200.17554 239.036171 
L 200.82615 260.402006 
L 201.476761 275.732922 
L 202.127371 273.258775 
L 202.777981 265.193014 
L 203.428592 267.079101 
L 204.079202 275.499358 
L 204.729812 242.050061 
L 205.380423 267.102049 
L 206.031033 253.4552 
L 206.681643 250.559134 
L 207.332254 237.923722 
L 207.982864 275.470115 
L 208.633474 254.505142 
L 209.284085 271.079782 
L 209.934695 273.504878 
L 210.585305 210.171644 
L 211.235915 271.269443 
L 212.537136 223.327299 
L 213.187746 264.591704 
L 213.838357 259.309633 
L 214.488967 215.541485 
L 215.139577 268.105956 
L 215.790188 275.049256 
L 216.440798 264.310637 
L 217.091408 260.266023 
L 217.742019 263.011177 
L 218.392629 267.008134 
L 219.043239 250.536499 
L 219.69385 266.378517 
L 220.34446 258.075482 
L 220.99507 269.320046 
L 221.64568 257.903369 
L 222.296291 274.801063 
L 222.946901 271.612192 
L 223.597511 269.4435 
L 224.248122 256.894535 
L 224.898732 269.758161 
L 225.549342 215.488147 
L 226.199953 241.449152 
L 226.850563 262.13397 
L 227.501173 238.685033 
L 228.151784 259.038154 
L 228.802394 242.759006 
L 229.453004 237.999469 
L 230.103615 264.056405 
L 230.754225 256.487833 
L 231.404835 254.334775 
L 232.055445 253.070036 
L 232.706056 259.291233 
L 233.356666 258.604367 
L 234.007276 250.111662 
L 234.657887 217.522488 
L 235.308497 271.261325 
L 235.959107 263.150432 
L 236.609718 270.634816 
L 237.260328 249.273218 
L 237.910938 258.246006 
L 238.561549 274.718495 
L 239.212159 196.585177 
L 239.862769 219.669371 
L 240.513379 272.123314 
L 241.16399 237.30628 
L 241.8146 267.075108 
L 242.46521 238.556514 
L 243.115821 247.672891 
L 243.766431 272.55053 
L 244.417041 208.776644 
L 245.067652 272.008788 
L 245.718262 261.094666 
L 246.368872 273.483399 
L 247.019483 267.328589 
L 247.670093 265.980977 
L 248.320703 258.798488 
L 248.971314 267.712124 
L 249.621924 274.811039 
L 250.272534 226.133071 
L 250.923144 270.98716 
L 251.573755 257.34233 
L 252.224365 237.486206 
L 252.874975 252.920366 
L 253.525586 248.495428 
L 254.176196 266.587235 
L 254.826806 253.013689 
L 255.477417 272.590453 
L 256.128027 193.688697 
L 256.778637 262.687549 
L 257.429248 218.589153 
L 258.079858 271.309929 
L 258.730468 238.194619 
L 259.381079 275.062391 
L 260.031689 271.129379 
L 260.682299 178.654447 
L 261.332909 255.29035 
L 261.98352 272.644538 
L 262.63413 253.278976 
L 263.28474 243.962829 
L 263.935351 263.976549 
L 264.585961 246.53771 
L 265.236571 198.624833 
L 265.887182 194.899043 
L 266.537792 254.719999 
L 267.188402 257.161739 
L 267.839013 183.696758 
L 268.489623 273.848277 
L 269.140233 273.914856 
L 269.790844 253.641632 
L 270.441454 262.941234 
L 271.092064 261.296929 
L 271.742674 267.315999 
L 272.393285 229.685692 
L 273.043895 274.215246 
L 273.694505 254.687478 
L 274.345116 267.599115 
L 274.995726 248.382975 
L 275.646336 266.382665 
L 276.296947 258.404594 
L 276.947557 274.233758 
L 277.598167 272.273417 
L 278.248778 258.44891 
L 278.899388 260.080341 
L 279.549998 262.937789 
L 280.200608 262.359002 
L 280.851219 266.191807 
L 281.501829 255.043993 
L 282.152439 256.397486 
L 282.80305 273.883173 
L 283.45366 264.84967 
L 284.754881 269.524545 
L 285.405491 274.485237 
L 286.706712 232.415819 
L 287.357322 231.149711 
L 288.007932 225.597865 
L 289.309153 199.772722 
L 289.959763 261.785228 
L 290.610373 235.141275 
L 291.260984 268.104101 
L 291.911594 261.369297 
L 292.562204 269.148741 
L 293.212815 274.565624 
L 293.863425 266.099969 
L 294.514035 227.558555 
L 295.164646 257.048705 
L 295.815256 238.129433 
L 296.465866 275.487334 
L 297.116477 187.984882 
L 297.767087 273.07625 
L 298.417697 246.461827 
L 299.068308 266.934863 
L 299.718918 262.872387 
L 300.369528 270.940926 
L 301.020138 254.378245 
L 301.670749 271.58441 
L 302.321359 175.349751 
L 302.971969 262.712414 
L 303.62258 251.904492 
L 304.27319 235.783744 
L 304.9238 265.943353 
L 305.574411 272.33354 
L 306.225021 178.45743 
L 306.875631 249.342361 
L 307.526242 255.9939 
L 308.176852 273.839198 
L 308.827462 274.032479 
L 310.128683 228.308016 
L 310.779293 270.396441 
L 311.429903 272.525698 
L 312.080514 242.634063 
L 312.731124 267.760939 
L 313.381734 275.076719 
L 314.032345 275.767255 
L 315.333565 258.908104 
L 315.984176 265.48295 
L 316.634786 254.673026 
L 317.285396 185.068468 
L 317.936007 241.910472 
L 318.586617 274.189886 
L 319.237227 247.390396 
L 319.887837 267.88202 
L 320.538448 274.436955 
L 321.189058 268.067449 
L 321.839668 215.384496 
L 322.490279 247.086098 
L 323.140889 271.351848 
L 323.791499 262.976872 
L 324.44211 271.203149 
L 325.09272 272.113625 
L 325.74333 243.046867 
L 326.393941 261.573612 
L 327.044551 254.372508 
L 327.695161 251.718888 
L 328.345772 268.441973 
L 328.996382 273.564659 
L 329.646992 262.682382 
L 330.297602 227.088026 
L 330.948213 262.538308 
L 331.598823 269.722441 
L 332.249433 274.461414 
L 332.900044 190.164651 
L 333.550654 264.175273 
L 334.201264 275.02541 
L 334.851875 267.237215 
L 335.502485 275.806783 
L 336.803706 241.880044 
L 337.454316 273.843348 
L 338.104926 225.916923 
L 338.755537 253.711005 
L 339.406147 212.47373 
L 340.056757 258.4274 
L 340.707367 267.069828 
L 341.357978 258.046047 
L 342.008588 266.516114 
L 342.659198 259.36479 
L 343.309809 275.168781 
L 343.960419 222.714036 
L 344.611029 253.623655 
L 345.26164 271.625727 
L 345.91225 270.159678 
L 346.56286 248.261595 
L 347.213471 247.347671 
L 347.864081 187.819974 
L 348.514691 250.264844 
L 349.165302 270.472824 
L 349.815912 225.20307 
L 350.466522 263.859521 
L 351.117132 229.762832 
L 351.767743 243.261171 
L 352.418353 267.947965 
L 353.068963 261.829005 
L 353.719574 260.74586 
L 354.370184 255.491304 
L 355.020794 244.111881 
L 355.671405 249.593792 
L 356.322015 229.174368 
L 356.972625 269.357564 
L 357.623236 267.6189 
L 358.273846 232.903172 
L 359.575066 275.107961 
L 360.876287 254.188453 
L 361.526897 249.208332 
L 362.177508 259.186513 
L 362.828118 266.754817 
L 363.478728 264.884333 
L 364.129339 247.193272 
L 364.779949 263.606521 
L 365.430559 260.823474 
L 366.08117 262.818705 
L 366.73178 200.13443 
L 367.38239 274.420366 
L 368.033001 244.879074 
L 368.683611 234.142127 
L 369.334221 252.232124 
L 369.984831 266.847807 
L 370.635442 273.770616 
L 371.286052 240.678098 
L 371.936662 245.968509 
L 372.587273 271.449433 
L 372.587273 271.449433 
" clip-path="url(#p4202affc1e)" style="fill: none; stroke: #808080; stroke-linecap: square"/>
   </g>
   <g id="line2d_33">
    <defs>
     <path id="mb49d4e57e0" d="M -3 3 
L 3 -3 
M -3 -3 
L 3 3 
" style="stroke: #ff0000"/>
    </defs>
    <g clip-path="url(#p4202affc1e)">
     <use xlink:href="#mb49d4e57e0" x="54.43883" y="33.889125" style="fill: #ff0000; stroke: #ff0000"/>
    </g>
   </g>
   <g id="patch_3">
    <path d="M 31.7 287.905125 
L 31.7 21.793125 
" style="fill: none; stroke: #000000; stroke-width: 0.8; stroke-linejoin: miter; stroke-linecap: square"/>
   </g>
   <g id="patch_4">
    <path d="M 388.82 287.905125 
L 388.82 21.793125 
" style="fill: none; stroke: #000000; stroke-width: 0.8; stroke-linejoin: miter; stroke-linecap: square"/>
   </g>
   <g id="patch_5">
    <path d="M 31.7 287.905125 
L 388.82 287.905125 
" style="fill: none; stroke: #000000; stroke-width: 0.8; stroke-linejoin: miter; stroke-linecap: square"/>
   </g>
   <g id="patch_6">
    <path d="M 31.7 21.793125 
L 388.82 21.793125 
" style="fill: none; stroke: #000000; stroke-width: 0.8; stroke-linejoin: miter; stroke-linecap: square"/>
   </g>
   <g id="text_17">
    <!-- $A$ = 0.2, $f_o$ = 0.01 -->
    <g transform="translate(166.64 15.793125) scale(0.12 -0.12)">
     <defs>
      <path id="Cmmi10-41" d="M 288 0 
Q 225 0 225 84 
Q 250 225 306 225 
Q 566 225 755 328 
Q 944 431 1081 647 
Q 1094 659 1094 659 
L 3378 4513 
Q 3428 4581 3500 4581 
L 3584 4581 
Q 3603 4581 3622 4573 
Q 3641 4566 3655 4548 
Q 3669 4531 3669 4513 
L 4056 378 
Q 4056 350 4084 294 
Q 4147 225 4563 225 
Q 4628 225 4628 141 
Q 4606 56 4592 28 
Q 4578 0 4519 0 
L 2919 0 
Q 2859 0 2859 84 
Q 2894 225 2944 225 
Q 3450 225 3481 397 
L 3384 1453 
L 1806 1453 
L 1294 594 
Q 1247 525 1247 434 
Q 1247 322 1355 273 
Q 1463 225 1594 225 
Q 1656 225 1656 141 
Q 1634 50 1621 25 
Q 1609 0 1550 0 
L 288 0 
z
M 1931 1678 
L 3359 1678 
L 3169 3750 
L 1931 1678 
z
" transform="scale(0.015625)"/>
      <path id="TimesNewRomanPSMT-20" transform="scale(0.015625)"/>
      <path id="TimesNewRomanPSMT-3d" d="M 116 2759 
L 3488 2759 
L 3488 2503 
L 116 2503 
L 116 2759 
z
M 116 1741 
L 3488 1741 
L 3488 1484 
L 116 1484 
L 116 1741 
z
" transform="scale(0.015625)"/>
      <path id="TimesNewRomanPSMT-2c" d="M 344 -1066 
L 344 -928 
Q 666 -822 842 -598 
Q 1019 -375 1019 -125 
Q 1019 -66 991 -25 
Q 969 3 947 3 
Q 913 3 797 -59 
Q 741 -88 678 -88 
Q 525 -88 434 3 
Q 344 94 344 253 
Q 344 406 461 515 
Q 578 625 747 625 
Q 953 625 1114 445 
Q 1275 266 1275 -31 
Q 1275 -353 1051 -629 
Q 828 -906 344 -1066 
z
" transform="scale(0.015625)"/>
      <path id="Cmmi10-6f" d="M 1288 -72 
Q 984 -72 748 72 
Q 513 216 384 459 
Q 256 703 256 1013 
Q 256 1447 498 1872 
Q 741 2297 1142 2562 
Q 1544 2828 1984 2828 
Q 2222 2828 2408 2747 
Q 2594 2666 2731 2519 
Q 2869 2372 2942 2175 
Q 3016 1978 3016 1747 
Q 3016 1413 2875 1089 
Q 2734 766 2489 502 
Q 2244 238 1928 83 
Q 1613 -72 1288 -72 
z
M 1300 97 
Q 1584 97 1820 290 
Q 2056 484 2207 779 
Q 2359 1075 2440 1403 
Q 2522 1731 2522 1997 
Q 2522 2275 2383 2469 
Q 2244 2663 1972 2663 
Q 1597 2663 1315 2342 
Q 1034 2022 892 1576 
Q 750 1131 750 763 
Q 750 484 892 290 
Q 1034 97 1300 97 
z
" transform="scale(0.015625)"/>
     </defs>
     <use xlink:href="#Cmmi10-41" transform="translate(0 0.421875)"/>
     <use xlink:href="#TimesNewRomanPSMT-20" transform="translate(75 0.421875)"/>
     <use xlink:href="#TimesNewRomanPSMT-3d" transform="translate(100 0.421875)"/>
     <use xlink:href="#TimesNewRomanPSMT-20" transform="translate(156.396484 0.421875)"/>
     <use xlink:href="#TimesNewRomanPSMT-30" transform="translate(181.396484 0.421875)"/>
     <use xlink:href="#TimesNewRomanPSMT-2e" transform="translate(231.396484 0.421875)"/>
     <use xlink:href="#TimesNewRomanPSMT-32" transform="translate(256.396484 0.421875)"/>
     <use xlink:href="#TimesNewRomanPSMT-2c" transform="translate(306.396484 0.421875)"/>
     <use xlink:href="#TimesNewRomanPSMT-20" transform="translate(331.396484 0.421875)"/>
     <use xlink:href="#Cmmi10-66" transform="translate(356.396484 0.421875)"/>
     <use xlink:href="#Cmmi10-6f" transform="translate(405.273438 -16.584375) scale(0.7)"/>
     <use xlink:href="#TimesNewRomanPSMT-20" transform="translate(445.522852 0.421875)"/>
     <use xlink:href="#TimesNewRomanPSMT-3d" transform="translate(470.522852 0.421875)"/>
     <use xlink:href="#TimesNewRomanPSMT-20" transform="translate(526.919336 0.421875)"/>
     <use xlink:href="#TimesNewRomanPSMT-30" transform="translate(551.919336 0.421875)"/>
     <use xlink:href="#TimesNewRomanPSMT-2e" transform="translate(601.919336 0.421875)"/>
     <use xlink:href="#TimesNewRomanPSMT-30" transform="translate(626.919336 0.421875)"/>
     <use xlink:href="#TimesNewRomanPSMT-31" transform="translate(676.919336 0.421875)"/>
    </g>
   </g>
   <g id="legend_1">
    <g id="patch_7">
     <path d="M 232.22 76.893125 
L 381.82 76.893125 
Q 383.82 76.893125 383.82 74.893125 
L 383.82 28.793125 
Q 383.82 26.793125 381.82 26.793125 
L 232.22 26.793125 
Q 230.22 26.793125 230.22 28.793125 
L 230.22 74.893125 
Q 230.22 76.893125 232.22 76.893125 
z
" style="fill: #ffffff; opacity: 0.8; stroke: #cccccc; stroke-linejoin: miter"/>
    </g>
    <g id="line2d_34">
     <path d="M 234.22 35.093125 
L 244.22 35.093125 
L 254.22 35.093125 
" style="fill: none; stroke: #000000; stroke-width: 1.5; stroke-linecap: square"/>
    </g>
    <g id="text_18">
     <!-- $I$ of 1000 values from $\mathcal{N}$(0,1) -->
     <g transform="translate(262.22 38.593125) scale(0.1 -0.1)">
      <defs>
       <path id="Cmmi10-49" d="M 269 0 
Q 206 0 206 84 
Q 231 225 288 225 
Q 666 225 800 250 
Q 947 284 984 441 
L 1863 3956 
Q 1875 4019 1875 4038 
Q 1875 4078 1854 4095 
Q 1834 4113 1791 4122 
Q 1663 4147 1306 4147 
Q 1241 4147 1241 4231 
Q 1263 4313 1275 4342 
Q 1288 4372 1350 4372 
L 3138 4372 
Q 3200 4372 3200 4288 
Q 3197 4272 3187 4234 
Q 3178 4197 3162 4172 
Q 3147 4147 3116 4147 
Q 2741 4147 2597 4122 
Q 2456 4088 2419 3928 
L 1544 416 
Q 1528 338 1528 331 
Q 1528 316 1533 302 
Q 1538 288 1552 277 
Q 1566 266 1580 261 
Q 1594 256 1613 250 
Q 1734 225 2100 225 
Q 2163 225 2163 141 
Q 2141 50 2128 25 
Q 2116 0 2053 0 
L 269 0 
z
" transform="scale(0.015625)"/>
       <path id="TimesNewRomanPSMT-6f" d="M 1600 2947 
Q 2250 2947 2644 2453 
Q 2978 2031 2978 1484 
Q 2978 1100 2793 706 
Q 2609 313 2286 112 
Q 1963 -88 1566 -88 
Q 919 -88 538 428 
Q 216 863 216 1403 
Q 216 1797 411 2186 
Q 606 2575 925 2761 
Q 1244 2947 1600 2947 
z
M 1503 2744 
Q 1338 2744 1170 2645 
Q 1003 2547 900 2300 
Q 797 2053 797 1666 
Q 797 1041 1045 587 
Q 1294 134 1700 134 
Q 2003 134 2200 384 
Q 2397 634 2397 1244 
Q 2397 2006 2069 2444 
Q 1847 2744 1503 2744 
z
" transform="scale(0.015625)"/>
       <path id="TimesNewRomanPSMT-66" d="M 1319 2638 
L 1319 756 
Q 1319 356 1406 250 
Q 1522 113 1716 113 
L 1975 113 
L 1975 0 
L 266 0 
L 266 113 
L 394 113 
Q 519 113 622 175 
Q 725 238 764 344 
Q 803 450 803 756 
L 803 2638 
L 247 2638 
L 247 2863 
L 803 2863 
L 803 3050 
Q 803 3478 940 3775 
Q 1078 4072 1361 4255 
Q 1644 4438 1997 4438 
Q 2325 4438 2600 4225 
Q 2781 4084 2781 3909 
Q 2781 3816 2700 3733 
Q 2619 3650 2525 3650 
Q 2453 3650 2373 3701 
Q 2294 3753 2178 3923 
Q 2063 4094 1966 4153 
Q 1869 4213 1750 4213 
Q 1606 4213 1506 4136 
Q 1406 4059 1362 3898 
Q 1319 3738 1319 3069 
L 1319 2863 
L 2056 2863 
L 2056 2638 
L 1319 2638 
z
" transform="scale(0.015625)"/>
       <path id="TimesNewRomanPSMT-76" d="M 53 2863 
L 1400 2863 
L 1400 2747 
L 1313 2747 
Q 1191 2747 1127 2687 
Q 1063 2628 1063 2528 
Q 1063 2419 1128 2269 
L 1794 688 
L 2463 2328 
Q 2534 2503 2534 2594 
Q 2534 2638 2509 2666 
Q 2475 2713 2422 2730 
Q 2369 2747 2206 2747 
L 2206 2863 
L 3141 2863 
L 3141 2747 
Q 2978 2734 2916 2681 
Q 2806 2588 2719 2369 
L 1703 -88 
L 1575 -88 
L 553 2328 
Q 484 2497 421 2570 
Q 359 2644 263 2694 
Q 209 2722 53 2747 
L 53 2863 
z
" transform="scale(0.015625)"/>
       <path id="TimesNewRomanPSMT-61" d="M 1822 413 
Q 1381 72 1269 19 
Q 1100 -59 909 -59 
Q 613 -59 420 144 
Q 228 347 228 678 
Q 228 888 322 1041 
Q 450 1253 767 1440 
Q 1084 1628 1822 1897 
L 1822 2009 
Q 1822 2438 1686 2597 
Q 1550 2756 1291 2756 
Q 1094 2756 978 2650 
Q 859 2544 859 2406 
L 866 2225 
Q 866 2081 792 2003 
Q 719 1925 600 1925 
Q 484 1925 411 2006 
Q 338 2088 338 2228 
Q 338 2497 613 2722 
Q 888 2947 1384 2947 
Q 1766 2947 2009 2819 
Q 2194 2722 2281 2516 
Q 2338 2381 2338 1966 
L 2338 994 
Q 2338 584 2353 492 
Q 2369 400 2405 369 
Q 2441 338 2488 338 
Q 2538 338 2575 359 
Q 2641 400 2828 588 
L 2828 413 
Q 2478 -56 2159 -56 
Q 2006 -56 1915 50 
Q 1825 156 1822 413 
z
M 1822 616 
L 1822 1706 
Q 1350 1519 1213 1441 
Q 966 1303 859 1153 
Q 753 1003 753 825 
Q 753 600 887 451 
Q 1022 303 1197 303 
Q 1434 303 1822 616 
z
" transform="scale(0.015625)"/>
       <path id="TimesNewRomanPSMT-6c" d="M 1184 4444 
L 1184 647 
Q 1184 378 1223 290 
Q 1263 203 1344 158 
Q 1425 113 1647 113 
L 1647 0 
L 244 0 
L 244 113 
Q 441 113 512 153 
Q 584 194 625 287 
Q 666 381 666 647 
L 666 3247 
Q 666 3731 644 3842 
Q 622 3953 573 3993 
Q 525 4034 450 4034 
Q 369 4034 244 3984 
L 191 4094 
L 1044 4444 
L 1184 4444 
z
" transform="scale(0.015625)"/>
       <path id="TimesNewRomanPSMT-75" d="M 2709 2863 
L 2709 1128 
Q 2709 631 2732 520 
Q 2756 409 2807 365 
Q 2859 322 2928 322 
Q 3025 322 3147 375 
L 3191 266 
L 2334 -88 
L 2194 -88 
L 2194 519 
Q 1825 119 1631 15 
Q 1438 -88 1222 -88 
Q 981 -88 804 51 
Q 628 191 559 409 
Q 491 628 491 1028 
L 491 2306 
Q 491 2509 447 2587 
Q 403 2666 317 2708 
Q 231 2750 6 2747 
L 6 2863 
L 1009 2863 
L 1009 947 
Q 1009 547 1148 422 
Q 1288 297 1484 297 
Q 1619 297 1789 381 
Q 1959 466 2194 703 
L 2194 2325 
Q 2194 2569 2105 2655 
Q 2016 2741 1734 2747 
L 1734 2863 
L 2709 2863 
z
" transform="scale(0.015625)"/>
       <path id="TimesNewRomanPSMT-65" d="M 681 1784 
Q 678 1147 991 784 
Q 1303 422 1725 422 
Q 2006 422 2214 576 
Q 2422 731 2563 1106 
L 2659 1044 
Q 2594 616 2278 264 
Q 1963 -88 1488 -88 
Q 972 -88 605 314 
Q 238 716 238 1394 
Q 238 2128 614 2539 
Q 991 2950 1559 2950 
Q 2041 2950 2350 2633 
Q 2659 2316 2659 1784 
L 681 1784 
z
M 681 1966 
L 2006 1966 
Q 1991 2241 1941 2353 
Q 1863 2528 1708 2628 
Q 1553 2728 1384 2728 
Q 1125 2728 920 2526 
Q 716 2325 681 1966 
z
" transform="scale(0.015625)"/>
       <path id="TimesNewRomanPSMT-73" d="M 2050 2947 
L 2050 1972 
L 1947 1972 
Q 1828 2431 1642 2597 
Q 1456 2763 1169 2763 
Q 950 2763 815 2647 
Q 681 2531 681 2391 
Q 681 2216 781 2091 
Q 878 1963 1175 1819 
L 1631 1597 
Q 2266 1288 2266 781 
Q 2266 391 1970 151 
Q 1675 -88 1309 -88 
Q 1047 -88 709 6 
Q 606 38 541 38 
Q 469 38 428 -44 
L 325 -44 
L 325 978 
L 428 978 
Q 516 541 762 319 
Q 1009 97 1316 97 
Q 1531 97 1667 223 
Q 1803 350 1803 528 
Q 1803 744 1651 891 
Q 1500 1038 1047 1263 
Q 594 1488 453 1669 
Q 313 1847 313 2119 
Q 313 2472 555 2709 
Q 797 2947 1181 2947 
Q 1350 2947 1591 2875 
Q 1750 2828 1803 2828 
Q 1853 2828 1881 2850 
Q 1909 2872 1947 2947 
L 2050 2947 
z
" transform="scale(0.015625)"/>
       <path id="TimesNewRomanPSMT-72" d="M 1038 2947 
L 1038 2303 
Q 1397 2947 1775 2947 
Q 1947 2947 2059 2842 
Q 2172 2738 2172 2600 
Q 2172 2478 2090 2393 
Q 2009 2309 1897 2309 
Q 1788 2309 1652 2417 
Q 1516 2525 1450 2525 
Q 1394 2525 1328 2463 
Q 1188 2334 1038 2041 
L 1038 669 
Q 1038 431 1097 309 
Q 1138 225 1241 169 
Q 1344 113 1538 113 
L 1538 0 
L 72 0 
L 72 113 
Q 291 113 397 181 
Q 475 231 506 341 
Q 522 394 522 644 
L 522 1753 
Q 522 2253 501 2348 
Q 481 2444 426 2487 
Q 372 2531 291 2531 
Q 194 2531 72 2484 
L 41 2597 
L 906 2947 
L 1038 2947 
z
" transform="scale(0.015625)"/>
       <path id="TimesNewRomanPSMT-6d" d="M 1050 2338 
Q 1363 2650 1419 2697 
Q 1559 2816 1721 2881 
Q 1884 2947 2044 2947 
Q 2313 2947 2506 2790 
Q 2700 2634 2766 2338 
Q 3088 2713 3309 2830 
Q 3531 2947 3766 2947 
Q 3994 2947 4170 2830 
Q 4347 2713 4450 2447 
Q 4519 2266 4519 1878 
L 4519 647 
Q 4519 378 4559 278 
Q 4591 209 4675 161 
Q 4759 113 4950 113 
L 4950 0 
L 3538 0 
L 3538 113 
L 3597 113 
Q 3781 113 3884 184 
Q 3956 234 3988 344 
Q 4000 397 4000 647 
L 4000 1878 
Q 4000 2228 3916 2372 
Q 3794 2572 3525 2572 
Q 3359 2572 3192 2489 
Q 3025 2406 2788 2181 
L 2781 2147 
L 2788 2013 
L 2788 647 
Q 2788 353 2820 281 
Q 2853 209 2943 161 
Q 3034 113 3253 113 
L 3253 0 
L 1806 0 
L 1806 113 
Q 2044 113 2133 169 
Q 2222 225 2256 338 
Q 2272 391 2272 647 
L 2272 1878 
Q 2272 2228 2169 2381 
Q 2031 2581 1784 2581 
Q 1616 2581 1450 2491 
Q 1191 2353 1050 2181 
L 1050 647 
Q 1050 366 1089 281 
Q 1128 197 1204 155 
Q 1281 113 1516 113 
L 1516 0 
L 100 0 
L 100 113 
Q 297 113 375 155 
Q 453 197 493 289 
Q 534 381 534 647 
L 534 1741 
Q 534 2213 506 2350 
Q 484 2453 437 2492 
Q 391 2531 309 2531 
Q 222 2531 100 2484 
L 53 2597 
L 916 2947 
L 1050 2947 
L 1050 2338 
z
" transform="scale(0.015625)"/>
       <path id="Cmsy10-4e" d="M -184 13 
Q -184 131 -103 322 
Q -22 513 72 513 
Q 84 513 91 506 
Q 294 294 594 294 
Q 763 294 892 598 
Q 1022 903 1147 1306 
Q 1213 1509 1308 1837 
Q 1403 2166 1453 2369 
Q 1497 2538 1558 2827 
Q 1619 3116 1658 3331 
Q 1697 3547 1728 3772 
Q 1759 3997 1784 4244 
Q 1784 4278 1831 4325 
Q 1900 4397 1997 4453 
Q 2088 4494 2181 4513 
L 2234 4513 
Q 2272 4494 2278 4469 
Q 2438 3909 2675 3200 
Q 2891 2544 3044 2125 
Q 3197 1706 3405 1242 
Q 3613 778 3859 384 
Q 4194 1819 4525 2988 
L 4609 3284 
Q 4747 3769 4836 4039 
Q 4925 4309 5063 4525 
Q 5175 4700 5356 4800 
Q 5538 4900 5753 4942 
Q 5969 4984 6203 4984 
Q 6259 4984 6259 4878 
Q 6259 4803 6226 4686 
Q 6194 4569 6137 4478 
Q 6081 4388 6009 4372 
Q 5756 4372 5557 4331 
Q 5359 4291 5197 4184 
Q 5116 4125 5102 4094 
Q 5088 4063 5038 3909 
Q 4956 3684 4872 3366 
L 4788 3078 
Q 4625 2491 4498 2006 
Q 4372 1522 4256 1045 
Q 4141 569 4031 84 
Q 4034 84 4029 92 
Q 4025 100 4025 103 
Q 4025 47 3951 -15 
Q 3878 -78 3783 -120 
Q 3688 -163 3628 -172 
L 3584 -172 
Q 3478 -119 3222 368 
Q 2966 856 2834 1172 
Q 2359 2347 1966 3628 
Q 1916 3319 1759 2648 
Q 1603 1978 1387 1297 
Q 1172 616 914 148 
Q 656 -319 397 -319 
Q 231 -319 23 -225 
Q -184 -131 -184 13 
z
" transform="scale(0.015625)"/>
       <path id="TimesNewRomanPSMT-28" d="M 1988 -1253 
L 1988 -1369 
Q 1516 -1131 1200 -813 
Q 750 -359 506 256 
Q 263 872 263 1534 
Q 263 2503 741 3301 
Q 1219 4100 1988 4444 
L 1988 4313 
Q 1603 4100 1356 3731 
Q 1109 3363 987 2797 
Q 866 2231 866 1616 
Q 866 947 969 400 
Q 1050 -31 1165 -292 
Q 1281 -553 1476 -793 
Q 1672 -1034 1988 -1253 
z
" transform="scale(0.015625)"/>
       <path id="TimesNewRomanPSMT-29" d="M 144 4313 
L 144 4444 
Q 619 4209 934 3891 
Q 1381 3434 1625 2820 
Q 1869 2206 1869 1541 
Q 1869 572 1392 -226 
Q 916 -1025 144 -1369 
L 144 -1253 
Q 528 -1038 776 -670 
Q 1025 -303 1145 264 
Q 1266 831 1266 1447 
Q 1266 2113 1163 2663 
Q 1084 3094 967 3353 
Q 850 3613 656 3853 
Q 463 4094 144 4313 
z
" transform="scale(0.015625)"/>
      </defs>
      <use xlink:href="#Cmmi10-49" transform="translate(0 0.125)"/>
      <use xlink:href="#TimesNewRomanPSMT-20" transform="translate(43.896484 0.125)"/>
      <use xlink:href="#TimesNewRomanPSMT-6f" transform="translate(68.896484 0.125)"/>
      <use xlink:href="#TimesNewRomanPSMT-66" transform="translate(118.896484 0.125)"/>
      <use xlink:href="#TimesNewRomanPSMT-20" transform="translate(152.197266 0.125)"/>
      <use xlink:href="#TimesNewRomanPSMT-31" transform="translate(177.197266 0.125)"/>
      <use xlink:href="#TimesNewRomanPSMT-30" transform="translate(227.197266 0.125)"/>
      <use xlink:href="#TimesNewRomanPSMT-30" transform="translate(277.197266 0.125)"/>
      <use xlink:href="#TimesNewRomanPSMT-30" transform="translate(327.197266 0.125)"/>
      <use xlink:href="#TimesNewRomanPSMT-20" transform="translate(377.197266 0.125)"/>
      <use xlink:href="#TimesNewRomanPSMT-76" transform="translate(402.197266 0.125)"/>
      <use xlink:href="#TimesNewRomanPSMT-61" transform="translate(452.197266 0.125)"/>
      <use xlink:href="#TimesNewRomanPSMT-6c" transform="translate(496.582031 0.125)"/>
      <use xlink:href="#TimesNewRomanPSMT-75" transform="translate(524.365234 0.125)"/>
      <use xlink:href="#TimesNewRomanPSMT-65" transform="translate(574.365234 0.125)"/>
      <use xlink:href="#TimesNewRomanPSMT-73" transform="translate(618.75 0.125)"/>
      <use xlink:href="#TimesNewRomanPSMT-20" transform="translate(657.666016 0.125)"/>
      <use xlink:href="#TimesNewRomanPSMT-66" transform="translate(682.666016 0.125)"/>
      <use xlink:href="#TimesNewRomanPSMT-72" transform="translate(715.966797 0.125)"/>
      <use xlink:href="#TimesNewRomanPSMT-6f" transform="translate(749.267578 0.125)"/>
      <use xlink:href="#TimesNewRomanPSMT-6d" transform="translate(799.267578 0.125)"/>
      <use xlink:href="#TimesNewRomanPSMT-20" transform="translate(877.050781 0.125)"/>
      <use xlink:href="#Cmsy10-4e" transform="translate(902.050781 0.125)"/>
      <use xlink:href="#TimesNewRomanPSMT-28" transform="translate(984.033203 0.125)"/>
      <use xlink:href="#TimesNewRomanPSMT-30" transform="translate(1017.333984 0.125)"/>
      <use xlink:href="#TimesNewRomanPSMT-2c" transform="translate(1067.333984 0.125)"/>
      <use xlink:href="#TimesNewRomanPSMT-31" transform="translate(1092.333984 0.125)"/>
      <use xlink:href="#TimesNewRomanPSMT-29" transform="translate(1142.333984 0.125)"/>
     </g>
    </g>
    <g id="line2d_35">
     <path d="M 234.22 50.793125 
L 244.22 50.793125 
L 254.22 50.793125 
" style="fill: none; stroke: #808080; stroke-linecap: square"/>
    </g>
    <g id="text_19">
     <!-- 1000 values from $\chi_2^2$ -->
     <g transform="translate(262.22 54.293125) scale(0.1 -0.1)">
      <defs>
       <path id="Cmmi10-c2" d="M 275 -1241 
Q 244 -1241 214 -1214 
Q 184 -1188 184 -1159 
Q 184 -1116 213 -1094 
L 1778 647 
Q 1672 1034 1539 1454 
Q 1406 1875 1220 2269 
Q 1034 2663 891 2663 
Q 766 2663 694 2594 
Q 622 2525 567 2423 
Q 513 2322 494 2316 
L 416 2316 
Q 397 2316 381 2337 
Q 366 2359 366 2381 
Q 366 2484 455 2589 
Q 544 2694 673 2761 
Q 803 2828 916 2828 
Q 1169 2828 1375 2737 
Q 1581 2647 1684 2444 
Q 1775 2250 1859 2026 
Q 1944 1803 2020 1550 
Q 2097 1297 2163 1069 
L 3647 2719 
Q 3678 2759 3725 2759 
Q 3763 2759 3789 2736 
Q 3816 2713 3816 2675 
Q 3816 2634 3788 2613 
L 2222 872 
Q 2297 588 2447 114 
Q 2597 -359 2780 -753 
Q 2963 -1147 3109 -1147 
Q 3228 -1147 3303 -1076 
Q 3378 -1006 3434 -906 
Q 3491 -806 3506 -800 
L 3584 -800 
Q 3634 -800 3634 -863 
Q 3634 -1022 3445 -1167 
Q 3256 -1313 3084 -1313 
Q 2834 -1313 2628 -1222 
Q 2422 -1131 2322 -928 
Q 2084 -422 1838 447 
L 353 -1203 
Q 322 -1241 275 -1241 
z
" transform="scale(0.015625)"/>
       <path id="Cmr10-32" d="M 319 0 
L 319 172 
Q 319 188 331 206 
L 1325 1306 
Q 1550 1550 1690 1715 
Q 1831 1881 1968 2097 
Q 2106 2313 2186 2536 
Q 2266 2759 2266 3009 
Q 2266 3272 2169 3511 
Q 2072 3750 1880 3894 
Q 1688 4038 1416 4038 
Q 1138 4038 916 3870 
Q 694 3703 603 3438 
Q 628 3444 672 3444 
Q 816 3444 917 3347 
Q 1019 3250 1019 3097 
Q 1019 2950 917 2848 
Q 816 2747 672 2747 
Q 522 2747 420 2851 
Q 319 2956 319 3097 
Q 319 3338 409 3548 
Q 500 3759 670 3923 
Q 841 4088 1055 4175 
Q 1269 4263 1509 4263 
Q 1875 4263 2190 4108 
Q 2506 3953 2690 3670 
Q 2875 3388 2875 3009 
Q 2875 2731 2753 2481 
Q 2631 2231 2440 2026 
Q 2250 1822 1953 1562 
Q 1656 1303 1563 1216 
L 838 519 
L 1453 519 
Q 1906 519 2211 526 
Q 2516 534 2534 550 
Q 2609 631 2688 1141 
L 2875 1141 
L 2694 0 
L 319 0 
z
" transform="scale(0.015625)"/>
      </defs>
      <use xlink:href="#TimesNewRomanPSMT-31" transform="translate(0 0.109375)"/>
      <use xlink:href="#TimesNewRomanPSMT-30" transform="translate(50 0.109375)"/>
      <use xlink:href="#TimesNewRomanPSMT-30" transform="translate(100 0.109375)"/>
      <use xlink:href="#TimesNewRomanPSMT-30" transform="translate(150 0.109375)"/>
      <use xlink:href="#TimesNewRomanPSMT-20" transform="translate(200 0.109375)"/>
      <use xlink:href="#TimesNewRomanPSMT-76" transform="translate(225 0.109375)"/>
      <use xlink:href="#TimesNewRomanPSMT-61" transform="translate(275 0.109375)"/>
      <use xlink:href="#TimesNewRomanPSMT-6c" transform="translate(319.384766 0.109375)"/>
      <use xlink:href="#TimesNewRomanPSMT-75" transform="translate(347.167969 0.109375)"/>
      <use xlink:href="#TimesNewRomanPSMT-65" transform="translate(397.167969 0.109375)"/>
      <use xlink:href="#TimesNewRomanPSMT-73" transform="translate(441.552734 0.109375)"/>
      <use xlink:href="#TimesNewRomanPSMT-20" transform="translate(480.46875 0.109375)"/>
      <use xlink:href="#TimesNewRomanPSMT-66" transform="translate(505.46875 0.109375)"/>
      <use xlink:href="#TimesNewRomanPSMT-72" transform="translate(538.769531 0.109375)"/>
      <use xlink:href="#TimesNewRomanPSMT-6f" transform="translate(572.070312 0.109375)"/>
      <use xlink:href="#TimesNewRomanPSMT-6d" transform="translate(622.070312 0.109375)"/>
      <use xlink:href="#TimesNewRomanPSMT-20" transform="translate(699.853516 0.109375)"/>
      <use xlink:href="#Cmmi10-c2" transform="translate(724.853516 0.109375)"/>
      <use xlink:href="#Cmr10-32" transform="translate(793.656797 38.373438) scale(0.7)"/>
      <use xlink:href="#Cmr10-32" transform="translate(787.353516 -25.4) scale(0.7)"/>
     </g>
    </g>
    <g id="line2d_36">
     <g>
      <use xlink:href="#mb49d4e57e0" x="244.22" y="66.893125" style="fill: #ff0000; stroke: #ff0000"/>
     </g>
    </g>
    <g id="text_20">
     <!-- $(N/2)A^2$ -->
     <g transform="translate(262.22 70.393125) scale(0.1 -0.1)">
      <defs>
       <path id="Cmr10-28" d="M 1984 -1588 
Q 1628 -1306 1370 -942 
Q 1113 -578 948 -165 
Q 784 247 703 697 
Q 622 1147 622 1600 
Q 622 2059 703 2509 
Q 784 2959 951 3375 
Q 1119 3791 1378 4153 
Q 1638 4516 1984 4788 
Q 1984 4800 2016 4800 
L 2075 4800 
Q 2094 4800 2109 4783 
Q 2125 4766 2125 4744 
Q 2125 4716 2113 4703 
Q 1800 4397 1592 4047 
Q 1384 3697 1257 3301 
Q 1131 2906 1075 2482 
Q 1019 2059 1019 1600 
Q 1019 -434 2106 -1491 
Q 2125 -1509 2125 -1544 
Q 2125 -1559 2108 -1579 
Q 2091 -1600 2075 -1600 
L 2016 -1600 
Q 1984 -1600 1984 -1588 
z
" transform="scale(0.015625)"/>
       <path id="Cmmi10-4e" d="M 300 0 
Q 238 0 238 84 
Q 241 100 250 139 
Q 259 178 276 201 
Q 294 225 319 225 
Q 931 225 1031 616 
L 1900 4116 
Q 1722 4147 1338 4147 
Q 1275 4147 1275 4231 
Q 1278 4247 1287 4286 
Q 1297 4325 1314 4348 
Q 1331 4372 1356 4372 
L 2463 4372 
Q 2509 4372 2522 4331 
L 3944 947 
L 4653 3781 
Q 4666 3850 4666 3878 
Q 4666 4147 4172 4147 
Q 4109 4147 4109 4231 
Q 4131 4313 4143 4342 
Q 4156 4372 4219 4372 
L 5588 4372 
Q 5650 4372 5650 4288 
Q 5647 4272 5637 4233 
Q 5628 4194 5611 4170 
Q 5594 4147 5569 4147 
Q 4956 4147 4856 3756 
L 3938 56 
Q 3916 0 3872 0 
L 3794 0 
Q 3750 0 3738 44 
L 2106 3916 
L 2094 3956 
Q 2081 3969 2081 3975 
L 1234 588 
Q 1228 572 1225 548 
Q 1222 525 1216 494 
Q 1216 328 1359 276 
Q 1503 225 1716 225 
Q 1778 225 1778 141 
Q 1756 53 1740 26 
Q 1725 0 1672 0 
L 300 0 
z
" transform="scale(0.015625)"/>
       <path id="Cmmi10-3d" d="M 359 -1472 
Q 359 -1453 366 -1447 
L 2591 4722 
Q 2603 4759 2634 4779 
Q 2666 4800 2706 4800 
Q 2763 4800 2798 4765 
Q 2834 4731 2834 4672 
L 2834 4647 
L 609 -1522 
Q 572 -1600 488 -1600 
Q 434 -1600 396 -1562 
Q 359 -1525 359 -1472 
z
" transform="scale(0.015625)"/>
       <path id="Cmr10-29" d="M 416 -1600 
Q 359 -1600 359 -1544 
Q 359 -1516 372 -1503 
Q 1466 -434 1466 1600 
Q 1466 3634 384 4691 
Q 359 4706 359 4744 
Q 359 4766 376 4783 
Q 394 4800 416 4800 
L 475 4800 
Q 494 4800 506 4788 
Q 966 4425 1272 3906 
Q 1578 3388 1720 2800 
Q 1863 2213 1863 1600 
Q 1863 1147 1786 708 
Q 1709 269 1542 -157 
Q 1375 -584 1119 -945 
Q 863 -1306 506 -1588 
Q 494 -1600 475 -1600 
L 416 -1600 
z
" transform="scale(0.015625)"/>
      </defs>
      <use xlink:href="#Cmr10-28" transform="translate(0 0.109375)"/>
      <use xlink:href="#Cmmi10-4e" transform="translate(38.818359 0.109375)"/>
      <use xlink:href="#Cmmi10-3d" transform="translate(119.140625 0.109375)"/>
      <use xlink:href="#Cmr10-32" transform="translate(169.140625 0.109375)"/>
      <use xlink:href="#Cmr10-29" transform="translate(219.140625 0.109375)"/>
      <use xlink:href="#Cmmi10-41" transform="translate(257.958984 0.109375)"/>
      <use xlink:href="#Cmr10-32" transform="translate(345.014297 38.373438) scale(0.7)"/>
     </g>
    </g>
   </g>
  </g>
 </g>
 <defs>
  <clipPath id="p4202affc1e">
   <rect x="31.7" y="21.793125" width="357.12" height="266.112"/>
  </clipPath>
 </defs>
</svg>
