<?xml version="1.0" encoding="utf-8" standalone="no"?>
<!DOCTYPE svg PUBLIC "-//W3C//DTD SVG 1.1//EN"
  "http://www.w3.org/Graphics/SVG/1.1/DTD/svg11.dtd">
<svg xmlns:xlink="http://www.w3.org/1999/xlink" width="402.241875pt" height="325.037625pt" viewBox="0 0 402.241875 325.037625" xmlns="http://www.w3.org/2000/svg" version="1.1">
 <metadata>
  <rdf:RDF xmlns:dc="http://purl.org/dc/elements/1.1/" xmlns:cc="http://creativecommons.org/ns#" xmlns:rdf="http://www.w3.org/1999/02/22-rdf-syntax-ns#">
   <cc:Work>
    <dc:type rdf:resource="http://purl.org/dc/dcmitype/StillImage"/>
    <dc:date>2025-04-08T15:15:53.613321</dc:date>
    <dc:format>image/svg+xml</dc:format>
    <dc:creator>
     <cc:Agent>
      <dc:title>Matplotlib v3.8.4, https://matplotlib.org/</dc:title>
     </cc:Agent>
    </dc:creator>
   </cc:Work>
  </rdf:RDF>
 </metadata>
 <defs>
  <style type="text/css">*{stroke-linejoin: round; stroke-linecap: butt}</style>
 </defs>
 <g id="figure_1">
  <g id="patch_1">
   <path d="M 0 325.037625 
L 402.241875 325.037625 
L 402.241875 0 
L 0 0 
L 0 325.037625 
z
" style="fill: none"/>
  </g>
  <g id="axes_1">
   <g id="patch_2">
    <path d="M 37.921875 288.672 
L 395.041875 288.672 
L 395.041875 22.56 
L 37.921875 22.56 
L 37.921875 288.672 
z
" style="fill: none"/>
   </g>
   <g id="matplotlib.axis_1">
    <g id="xtick_1">
     <g id="line2d_1">
      <path d="M 54.154602 288.672 
L 54.154602 22.56 
" clip-path="url(#pb8dd13a163)" style="fill: none; stroke: #b0b0b0; stroke-width: 0.8; stroke-linecap: square"/>
     </g>
     <g id="line2d_2">
      <defs>
       <path id="m541c303f08" d="M 0 0 
L 0 3.5 
" style="stroke: #000000; stroke-width: 0.8"/>
      </defs>
      <g>
       <use xlink:href="#m541c303f08" x="54.154602" y="288.672" style="stroke: #000000; stroke-width: 0.8"/>
      </g>
     </g>
     <g id="text_1">
      <!-- 0 -->
      <g transform="translate(51.654602 302.61575) scale(0.1 -0.1)">
       <defs>
        <path id="TimesNewRomanPSMT-30" d="M 231 2094 
Q 231 2819 450 3342 
Q 669 3866 1031 4122 
Q 1313 4325 1613 4325 
Q 2100 4325 2488 3828 
Q 2972 3213 2972 2159 
Q 2972 1422 2759 906 
Q 2547 391 2217 158 
Q 1888 -75 1581 -75 
Q 975 -75 572 641 
Q 231 1244 231 2094 
z
M 844 2016 
Q 844 1141 1059 588 
Q 1238 122 1591 122 
Q 1759 122 1940 273 
Q 2122 425 2216 781 
Q 2359 1319 2359 2297 
Q 2359 3022 2209 3506 
Q 2097 3866 1919 4016 
Q 1791 4119 1609 4119 
Q 1397 4119 1231 3928 
Q 1006 3669 925 3112 
Q 844 2556 844 2016 
z
" transform="scale(0.015625)"/>
       </defs>
       <use xlink:href="#TimesNewRomanPSMT-30"/>
      </g>
     </g>
    </g>
    <g id="xtick_2">
     <g id="line2d_3">
      <path d="M 119.150507 288.672 
L 119.150507 22.56 
" clip-path="url(#pb8dd13a163)" style="fill: none; stroke: #b0b0b0; stroke-width: 0.8; stroke-linecap: square"/>
     </g>
     <g id="line2d_4">
      <g>
       <use xlink:href="#m541c303f08" x="119.150507" y="288.672" style="stroke: #000000; stroke-width: 0.8"/>
      </g>
     </g>
     <g id="text_2">
      <!-- 200 -->
      <g transform="translate(111.650507 302.61575) scale(0.1 -0.1)">
       <defs>
        <path id="TimesNewRomanPSMT-32" d="M 2934 816 
L 2638 0 
L 138 0 
L 138 116 
Q 1241 1122 1691 1759 
Q 2141 2397 2141 2925 
Q 2141 3328 1894 3587 
Q 1647 3847 1303 3847 
Q 991 3847 742 3664 
Q 494 3481 375 3128 
L 259 3128 
Q 338 3706 661 4015 
Q 984 4325 1469 4325 
Q 1984 4325 2329 3994 
Q 2675 3663 2675 3213 
Q 2675 2891 2525 2569 
Q 2294 2063 1775 1497 
Q 997 647 803 472 
L 1909 472 
Q 2247 472 2383 497 
Q 2519 522 2628 598 
Q 2738 675 2819 816 
L 2934 816 
z
" transform="scale(0.015625)"/>
       </defs>
       <use xlink:href="#TimesNewRomanPSMT-32"/>
       <use xlink:href="#TimesNewRomanPSMT-30" x="50"/>
       <use xlink:href="#TimesNewRomanPSMT-30" x="100"/>
      </g>
     </g>
    </g>
    <g id="xtick_3">
     <g id="line2d_5">
      <path d="M 184.146412 288.672 
L 184.146412 22.56 
" clip-path="url(#pb8dd13a163)" style="fill: none; stroke: #b0b0b0; stroke-width: 0.8; stroke-linecap: square"/>
     </g>
     <g id="line2d_6">
      <g>
       <use xlink:href="#m541c303f08" x="184.146412" y="288.672" style="stroke: #000000; stroke-width: 0.8"/>
      </g>
     </g>
     <g id="text_3">
      <!-- 400 -->
      <g transform="translate(176.646412 302.61575) scale(0.1 -0.1)">
       <defs>
        <path id="TimesNewRomanPSMT-34" d="M 2978 1563 
L 2978 1119 
L 2409 1119 
L 2409 0 
L 1894 0 
L 1894 1119 
L 100 1119 
L 100 1519 
L 2066 4325 
L 2409 4325 
L 2409 1563 
L 2978 1563 
z
M 1894 1563 
L 1894 3666 
L 406 1563 
L 1894 1563 
z
" transform="scale(0.015625)"/>
       </defs>
       <use xlink:href="#TimesNewRomanPSMT-34"/>
       <use xlink:href="#TimesNewRomanPSMT-30" x="50"/>
       <use xlink:href="#TimesNewRomanPSMT-30" x="100"/>
      </g>
     </g>
    </g>
    <g id="xtick_4">
     <g id="line2d_7">
      <path d="M 249.142317 288.672 
L 249.142317 22.56 
" clip-path="url(#pb8dd13a163)" style="fill: none; stroke: #b0b0b0; stroke-width: 0.8; stroke-linecap: square"/>
     </g>
     <g id="line2d_8">
      <g>
       <use xlink:href="#m541c303f08" x="249.142317" y="288.672" style="stroke: #000000; stroke-width: 0.8"/>
      </g>
     </g>
     <g id="text_4">
      <!-- 600 -->
      <g transform="translate(241.642317 302.61575) scale(0.1 -0.1)">
       <defs>
        <path id="TimesNewRomanPSMT-36" d="M 2869 4325 
L 2869 4209 
Q 2456 4169 2195 4045 
Q 1934 3922 1679 3669 
Q 1425 3416 1258 3105 
Q 1091 2794 978 2366 
Q 1428 2675 1881 2675 
Q 2316 2675 2634 2325 
Q 2953 1975 2953 1425 
Q 2953 894 2631 456 
Q 2244 -75 1606 -75 
Q 1172 -75 869 213 
Q 275 772 275 1663 
Q 275 2231 503 2743 
Q 731 3256 1154 3653 
Q 1578 4050 1965 4187 
Q 2353 4325 2688 4325 
L 2869 4325 
z
M 925 2138 
Q 869 1716 869 1456 
Q 869 1156 980 804 
Q 1091 453 1309 247 
Q 1469 100 1697 100 
Q 1969 100 2183 356 
Q 2397 613 2397 1088 
Q 2397 1622 2184 2012 
Q 1972 2403 1581 2403 
Q 1463 2403 1327 2353 
Q 1191 2303 925 2138 
z
" transform="scale(0.015625)"/>
       </defs>
       <use xlink:href="#TimesNewRomanPSMT-36"/>
       <use xlink:href="#TimesNewRomanPSMT-30" x="50"/>
       <use xlink:href="#TimesNewRomanPSMT-30" x="100"/>
      </g>
     </g>
    </g>
    <g id="xtick_5">
     <g id="line2d_9">
      <path d="M 314.138222 288.672 
L 314.138222 22.56 
" clip-path="url(#pb8dd13a163)" style="fill: none; stroke: #b0b0b0; stroke-width: 0.8; stroke-linecap: square"/>
     </g>
     <g id="line2d_10">
      <g>
       <use xlink:href="#m541c303f08" x="314.138222" y="288.672" style="stroke: #000000; stroke-width: 0.8"/>
      </g>
     </g>
     <g id="text_5">
      <!-- 800 -->
      <g transform="translate(306.638222 302.61575) scale(0.1 -0.1)">
       <defs>
        <path id="TimesNewRomanPSMT-38" d="M 1228 2134 
Q 725 2547 579 2797 
Q 434 3047 434 3316 
Q 434 3728 753 4026 
Q 1072 4325 1600 4325 
Q 2113 4325 2425 4047 
Q 2738 3769 2738 3413 
Q 2738 3175 2569 2928 
Q 2400 2681 1866 2347 
Q 2416 1922 2594 1678 
Q 2831 1359 2831 1006 
Q 2831 559 2490 242 
Q 2150 -75 1597 -75 
Q 994 -75 656 303 
Q 388 606 388 966 
Q 388 1247 577 1523 
Q 766 1800 1228 2134 
z
M 1719 2469 
Q 2094 2806 2194 3001 
Q 2294 3197 2294 3444 
Q 2294 3772 2109 3958 
Q 1925 4144 1606 4144 
Q 1288 4144 1088 3959 
Q 888 3775 888 3528 
Q 888 3366 970 3203 
Q 1053 3041 1206 2894 
L 1719 2469 
z
M 1375 2016 
Q 1116 1797 991 1539 
Q 866 1281 866 981 
Q 866 578 1086 336 
Q 1306 94 1647 94 
Q 1984 94 2187 284 
Q 2391 475 2391 747 
Q 2391 972 2272 1150 
Q 2050 1481 1375 2016 
z
" transform="scale(0.015625)"/>
       </defs>
       <use xlink:href="#TimesNewRomanPSMT-38"/>
       <use xlink:href="#TimesNewRomanPSMT-30" x="50"/>
       <use xlink:href="#TimesNewRomanPSMT-30" x="100"/>
      </g>
     </g>
    </g>
    <g id="xtick_6">
     <g id="line2d_11">
      <path d="M 379.134127 288.672 
L 379.134127 22.56 
" clip-path="url(#pb8dd13a163)" style="fill: none; stroke: #b0b0b0; stroke-width: 0.8; stroke-linecap: square"/>
     </g>
     <g id="line2d_12">
      <g>
       <use xlink:href="#m541c303f08" x="379.134127" y="288.672" style="stroke: #000000; stroke-width: 0.8"/>
      </g>
     </g>
     <g id="text_6">
      <!-- 1000 -->
      <g transform="translate(369.134127 302.61575) scale(0.1 -0.1)">
       <defs>
        <path id="TimesNewRomanPSMT-31" d="M 750 3822 
L 1781 4325 
L 1884 4325 
L 1884 747 
Q 1884 391 1914 303 
Q 1944 216 2037 169 
Q 2131 122 2419 116 
L 2419 0 
L 825 0 
L 825 116 
Q 1125 122 1212 167 
Q 1300 213 1334 289 
Q 1369 366 1369 747 
L 1369 3034 
Q 1369 3497 1338 3628 
Q 1316 3728 1258 3775 
Q 1200 3822 1119 3822 
Q 1003 3822 797 3725 
L 750 3822 
z
" transform="scale(0.015625)"/>
       </defs>
       <use xlink:href="#TimesNewRomanPSMT-31"/>
       <use xlink:href="#TimesNewRomanPSMT-30" x="50"/>
       <use xlink:href="#TimesNewRomanPSMT-30" x="100"/>
       <use xlink:href="#TimesNewRomanPSMT-30" x="150"/>
      </g>
     </g>
    </g>
    <g id="text_7">
     <!-- $t$ -->
     <g transform="translate(214.631875 315.698562) scale(0.1 -0.1)">
      <defs>
       <path id="Cmmi10-74" d="M 397 519 
Q 397 613 416 697 
L 878 2534 
L 206 2534 
Q 141 2534 141 2619 
Q 166 2759 225 2759 
L 934 2759 
L 1191 3803 
Q 1216 3888 1291 3947 
Q 1366 4006 1459 4006 
Q 1541 4006 1595 3957 
Q 1650 3909 1650 3828 
Q 1650 3809 1648 3798 
Q 1647 3788 1644 3775 
L 1388 2759 
L 2047 2759 
Q 2113 2759 2113 2675 
Q 2109 2659 2100 2621 
Q 2091 2584 2075 2559 
Q 2059 2534 2028 2534 
L 1331 2534 
L 872 684 
Q 825 503 825 372 
Q 825 97 1013 97 
Q 1294 97 1511 361 
Q 1728 625 1844 941 
Q 1869 978 1894 978 
L 1972 978 
Q 1997 978 2012 961 
Q 2028 944 2028 922 
Q 2028 909 2022 903 
Q 1881 516 1612 222 
Q 1344 -72 997 -72 
Q 744 -72 570 93 
Q 397 259 397 519 
z
" transform="scale(0.015625)"/>
      </defs>
      <use xlink:href="#Cmmi10-74" transform="translate(0 0.40625)"/>
     </g>
    </g>
   </g>
   <g id="matplotlib.axis_2">
    <g id="ytick_1">
     <g id="line2d_13">
      <path d="M 37.921875 272.112704 
L 395.041875 272.112704 
" clip-path="url(#pb8dd13a163)" style="fill: none; stroke: #b0b0b0; stroke-width: 0.8; stroke-linecap: square"/>
     </g>
     <g id="line2d_14">
      <defs>
       <path id="m23397a5c60" d="M 0 0 
L -3.5 0 
" style="stroke: #000000; stroke-width: 0.8"/>
      </defs>
      <g>
       <use xlink:href="#m23397a5c60" x="37.921875" y="272.112704" style="stroke: #000000; stroke-width: 0.8"/>
      </g>
     </g>
     <g id="text_8">
      <!-- −3 -->
      <g transform="translate(20.282813 275.584579) scale(0.1 -0.1)">
       <defs>
        <path id="TimesNewRomanPSMT-2212" d="M 3484 2000 
L 116 2000 
L 116 2256 
L 3484 2256 
L 3484 2000 
z
" transform="scale(0.015625)"/>
        <path id="TimesNewRomanPSMT-33" d="M 325 3431 
Q 506 3859 782 4092 
Q 1059 4325 1472 4325 
Q 1981 4325 2253 3994 
Q 2459 3747 2459 3466 
Q 2459 3003 1878 2509 
Q 2269 2356 2469 2072 
Q 2669 1788 2669 1403 
Q 2669 853 2319 450 
Q 1863 -75 997 -75 
Q 569 -75 414 31 
Q 259 138 259 259 
Q 259 350 332 419 
Q 406 488 509 488 
Q 588 488 669 463 
Q 722 447 909 348 
Q 1097 250 1169 231 
Q 1284 197 1416 197 
Q 1734 197 1970 444 
Q 2206 691 2206 1028 
Q 2206 1275 2097 1509 
Q 2016 1684 1919 1775 
Q 1784 1900 1550 2001 
Q 1316 2103 1072 2103 
L 972 2103 
L 972 2197 
Q 1219 2228 1467 2375 
Q 1716 2522 1828 2728 
Q 1941 2934 1941 3181 
Q 1941 3503 1739 3701 
Q 1538 3900 1238 3900 
Q 753 3900 428 3381 
L 325 3431 
z
" transform="scale(0.015625)"/>
       </defs>
       <use xlink:href="#TimesNewRomanPSMT-2212"/>
       <use xlink:href="#TimesNewRomanPSMT-33" x="56.396484"/>
      </g>
     </g>
    </g>
    <g id="ytick_2">
     <g id="line2d_15">
      <path d="M 37.921875 236.120541 
L 395.041875 236.120541 
" clip-path="url(#pb8dd13a163)" style="fill: none; stroke: #b0b0b0; stroke-width: 0.8; stroke-linecap: square"/>
     </g>
     <g id="line2d_16">
      <g>
       <use xlink:href="#m23397a5c60" x="37.921875" y="236.120541" style="stroke: #000000; stroke-width: 0.8"/>
      </g>
     </g>
     <g id="text_9">
      <!-- −2 -->
      <g transform="translate(20.282813 239.592416) scale(0.1 -0.1)">
       <use xlink:href="#TimesNewRomanPSMT-2212"/>
       <use xlink:href="#TimesNewRomanPSMT-32" x="56.396484"/>
      </g>
     </g>
    </g>
    <g id="ytick_3">
     <g id="line2d_17">
      <path d="M 37.921875 200.128377 
L 395.041875 200.128377 
" clip-path="url(#pb8dd13a163)" style="fill: none; stroke: #b0b0b0; stroke-width: 0.8; stroke-linecap: square"/>
     </g>
     <g id="line2d_18">
      <g>
       <use xlink:href="#m23397a5c60" x="37.921875" y="200.128377" style="stroke: #000000; stroke-width: 0.8"/>
      </g>
     </g>
     <g id="text_10">
      <!-- −1 -->
      <g transform="translate(20.282813 203.600252) scale(0.1 -0.1)">
       <use xlink:href="#TimesNewRomanPSMT-2212"/>
       <use xlink:href="#TimesNewRomanPSMT-31" x="56.396484"/>
      </g>
     </g>
    </g>
    <g id="ytick_4">
     <g id="line2d_19">
      <path d="M 37.921875 164.136214 
L 395.041875 164.136214 
" clip-path="url(#pb8dd13a163)" style="fill: none; stroke: #b0b0b0; stroke-width: 0.8; stroke-linecap: square"/>
     </g>
     <g id="line2d_20">
      <g>
       <use xlink:href="#m23397a5c60" x="37.921875" y="164.136214" style="stroke: #000000; stroke-width: 0.8"/>
      </g>
     </g>
     <g id="text_11">
      <!-- 0 -->
      <g transform="translate(25.921875 167.608089) scale(0.1 -0.1)">
       <use xlink:href="#TimesNewRomanPSMT-30"/>
      </g>
     </g>
    </g>
    <g id="ytick_5">
     <g id="line2d_21">
      <path d="M 37.921875 128.14405 
L 395.041875 128.14405 
" clip-path="url(#pb8dd13a163)" style="fill: none; stroke: #b0b0b0; stroke-width: 0.8; stroke-linecap: square"/>
     </g>
     <g id="line2d_22">
      <g>
       <use xlink:href="#m23397a5c60" x="37.921875" y="128.14405" style="stroke: #000000; stroke-width: 0.8"/>
      </g>
     </g>
     <g id="text_12">
      <!-- 1 -->
      <g transform="translate(25.921875 131.615925) scale(0.1 -0.1)">
       <use xlink:href="#TimesNewRomanPSMT-31"/>
      </g>
     </g>
    </g>
    <g id="ytick_6">
     <g id="line2d_23">
      <path d="M 37.921875 92.151887 
L 395.041875 92.151887 
" clip-path="url(#pb8dd13a163)" style="fill: none; stroke: #b0b0b0; stroke-width: 0.8; stroke-linecap: square"/>
     </g>
     <g id="line2d_24">
      <g>
       <use xlink:href="#m23397a5c60" x="37.921875" y="92.151887" style="stroke: #000000; stroke-width: 0.8"/>
      </g>
     </g>
     <g id="text_13">
      <!-- 2 -->
      <g transform="translate(25.921875 95.623762) scale(0.1 -0.1)">
       <use xlink:href="#TimesNewRomanPSMT-32"/>
      </g>
     </g>
    </g>
    <g id="ytick_7">
     <g id="line2d_25">
      <path d="M 37.921875 56.159724 
L 395.041875 56.159724 
" clip-path="url(#pb8dd13a163)" style="fill: none; stroke: #b0b0b0; stroke-width: 0.8; stroke-linecap: square"/>
     </g>
     <g id="line2d_26">
      <g>
       <use xlink:href="#m23397a5c60" x="37.921875" y="56.159724" style="stroke: #000000; stroke-width: 0.8"/>
      </g>
     </g>
     <g id="text_14">
      <!-- 3 -->
      <g transform="translate(25.921875 59.631599) scale(0.1 -0.1)">
       <use xlink:href="#TimesNewRomanPSMT-33"/>
      </g>
     </g>
    </g>
    <g id="text_15">
     <!-- $y$ -->
     <g transform="translate(14.14375 158.116) rotate(-90) scale(0.1 -0.1)">
      <defs>
       <path id="Cmmi10-79" d="M 538 -916 
Q 672 -1147 1006 -1147 
Q 1309 -1147 1531 -934 
Q 1753 -722 1889 -420 
Q 2025 -119 2100 197 
Q 1816 -72 1484 -72 
Q 1231 -72 1053 15 
Q 875 103 776 276 
Q 678 450 678 697 
Q 678 906 734 1126 
Q 791 1347 892 1617 
Q 994 1888 1069 2088 
Q 1153 2322 1153 2472 
Q 1153 2663 1013 2663 
Q 759 2663 595 2402 
Q 431 2141 353 1819 
Q 341 1778 300 1778 
L 225 1778 
Q 172 1778 172 1838 
L 172 1856 
Q 275 2238 487 2533 
Q 700 2828 1025 2828 
Q 1253 2828 1411 2678 
Q 1569 2528 1569 2297 
Q 1569 2178 1516 2047 
Q 1488 1969 1388 1706 
Q 1288 1444 1234 1272 
Q 1181 1100 1147 934 
Q 1113 769 1113 603 
Q 1113 391 1203 244 
Q 1294 97 1491 97 
Q 1888 97 2203 581 
L 2688 2553 
Q 2709 2638 2787 2698 
Q 2866 2759 2956 2759 
Q 3034 2759 3092 2709 
Q 3150 2659 3150 2578 
Q 3150 2541 3144 2528 
L 2509 -19 
Q 2425 -347 2200 -647 
Q 1975 -947 1658 -1130 
Q 1341 -1313 997 -1313 
Q 831 -1313 668 -1248 
Q 506 -1184 406 -1056 
Q 306 -928 306 -756 
Q 306 -581 409 -453 
Q 513 -325 684 -325 
Q 788 -325 858 -389 
Q 928 -453 928 -556 
Q 928 -703 818 -812 
Q 709 -922 563 -922 
Q 556 -919 550 -917 
Q 544 -916 538 -916 
z
" transform="scale(0.015625)"/>
      </defs>
      <use xlink:href="#Cmmi10-79" transform="translate(0 0.8125)"/>
     </g>
    </g>
   </g>
   <g id="line2d_27">
    <path d="M 54.154602 124.97755 
L 54.479582 153.906604 
L 54.804561 211.325455 
L 55.129541 119.252101 
L 55.45452 166.232098 
L 55.7795 178.484022 
L 56.104479 153.613078 
L 56.429459 214.314688 
L 57.079418 124.323396 
L 57.404398 126.925267 
L 57.729377 140.705677 
L 58.054357 149.020866 
L 58.379336 176.241854 
L 58.704316 102.926306 
L 59.029295 168.696862 
L 59.354275 112.715519 
L 59.679254 151.52247 
L 60.329213 173.390084 
L 60.654193 131.480914 
L 61.304152 176.545036 
L 61.629131 186.750306 
L 61.954111 164.84115 
L 62.27909 196.970856 
L 62.60407 71.848411 
L 62.929049 220.294548 
L 63.254029 215.74638 
L 63.579008 116.916422 
L 63.903988 196.300143 
L 64.228968 158.549086 
L 64.553947 156.565552 
L 64.878927 170.477784 
L 65.203906 129.833723 
L 65.528886 154.2507 
L 65.853865 206.195095 
L 66.178845 151.874836 
L 66.503824 146.998111 
L 66.828804 205.452245 
L 67.153783 140.167928 
L 67.478763 127.495078 
L 69.10366 245.746529 
L 69.42864 197.643331 
L 69.753619 181.155833 
L 70.728558 147.197053 
L 71.378517 186.393359 
L 72.028476 163.910692 
L 72.353456 193.017552 
L 72.678435 155.98443 
L 73.003415 188.161901 
L 73.328394 78.665766 
L 73.653374 168.704129 
L 73.978353 182.709578 
L 74.303333 121.458974 
L 74.628312 201.478348 
L 74.953292 126.775639 
L 75.278271 145.462604 
L 75.603251 197.182389 
L 75.92823 149.477634 
L 76.25321 135.331402 
L 76.578189 201.435103 
L 76.903169 196.674117 
L 77.228149 154.104933 
L 77.553128 274.541337 
L 77.878108 191.015844 
L 78.203087 165.020505 
L 78.853046 159.110058 
L 79.178026 194.857004 
L 79.503005 148.253301 
L 79.827985 139.809172 
L 80.152964 146.888947 
L 80.477944 149.338769 
L 80.802923 176.125381 
L 81.127903 138.567984 
L 81.452882 198.293813 
L 81.777862 182.440218 
L 82.102841 127.841084 
L 82.427821 179.608056 
L 82.7528 143.658965 
L 83.07778 155.094123 
L 83.727739 118.009182 
L 84.052719 160.515115 
L 84.377698 136.487143 
L 84.702678 180.880875 
L 85.027657 145.660211 
L 85.352637 234.097761 
L 85.677616 187.336235 
L 86.002596 203.52902 
L 86.327575 146.272654 
L 86.652555 175.76464 
L 86.977534 239.071116 
L 87.302514 188.791456 
L 87.627493 183.023099 
L 87.952473 149.114179 
L 88.277452 244.759791 
L 88.602432 137.735632 
L 88.927411 121.075393 
L 89.252391 161.713012 
L 89.57737 131.372184 
L 89.90235 124.074494 
L 90.22733 163.170409 
L 90.552309 131.641242 
L 90.877289 219.345016 
L 91.202268 126.636345 
L 91.527248 135.839268 
L 91.852227 131.998698 
L 92.177207 174.034452 
L 92.502186 184.431176 
L 92.827166 159.533165 
L 93.152145 95.217492 
L 93.477125 129.502232 
L 93.802104 133.627205 
L 94.452063 151.24338 
L 95.102022 204.484195 
L 95.427002 137.140732 
L 95.751981 169.460869 
L 96.401941 198.195941 
L 97.0519 143.967041 
L 97.376879 175.967789 
L 97.701859 190.390107 
L 98.351818 145.920567 
L 98.676797 200.767537 
L 99.001777 77.071052 
L 99.326756 188.331827 
L 99.651736 103.556321 
L 99.976715 259.308396 
L 100.301695 157.323424 
L 100.626674 172.221513 
L 100.951654 125.373798 
L 101.276633 171.225501 
L 101.601613 112.161325 
L 101.926592 175.341436 
L 102.251572 116.242994 
L 102.576551 208.145819 
L 102.901531 157.130177 
L 103.226511 157.477462 
L 103.55149 130.334581 
L 103.87647 189.201204 
L 104.201449 196.163808 
L 104.526429 132.485065 
L 104.851408 264.963345 
L 105.826347 124.154432 
L 106.476306 157.769479 
L 106.801285 190.131917 
L 107.126265 161.364319 
L 107.451244 111.491404 
L 107.776224 89.180285 
L 108.101203 161.21914 
L 108.426183 198.59698 
L 108.751162 139.879829 
L 109.076142 136.847557 
L 109.401122 175.139539 
L 109.726101 170.665707 
L 110.051081 143.387612 
L 110.37606 103.021555 
L 110.70104 161.309594 
L 111.026019 165.436235 
L 111.675978 34.656 
L 112.000958 177.272364 
L 112.325937 159.42564 
L 112.650917 183.01978 
L 112.975896 219.41845 
L 113.300876 194.417689 
L 113.625855 178.757486 
L 113.950835 171.689645 
L 114.275814 116.197339 
L 114.600794 193.028295 
L 114.925773 165.439193 
L 115.250753 109.783998 
L 115.575732 172.999688 
L 115.900712 177.848078 
L 116.225692 196.740033 
L 116.550671 151.978305 
L 116.875651 163.068392 
L 117.20063 231.62791 
L 117.52561 150.762851 
L 117.850589 182.541232 
L 118.175569 82.58821 
L 118.500548 204.059015 
L 118.825528 151.712635 
L 119.150507 150.613982 
L 119.800466 188.316327 
L 120.450425 109.455965 
L 120.775405 157.998084 
L 121.100384 118.723857 
L 121.425364 155.164726 
L 121.750343 212.715251 
L 122.075323 165.821727 
L 122.400303 158.101818 
L 122.725282 131.2632 
L 123.050262 178.971822 
L 123.375241 160.745033 
L 123.700221 134.561165 
L 124.35018 209.017826 
L 124.675159 219.214108 
L 125.000139 116.616994 
L 125.325118 194.990034 
L 125.650098 139.490589 
L 125.975077 180.139312 
L 126.300057 125.51941 
L 126.950016 223.035154 
L 127.274995 193.653192 
L 127.599975 126.563819 
L 127.924954 148.70877 
L 128.249934 122.455894 
L 128.574913 162.858251 
L 128.899893 103.590232 
L 129.224873 132.6329 
L 129.549852 139.611408 
L 129.874832 107.000596 
L 130.199811 122.792138 
L 130.524791 122.422781 
L 130.84977 235.180284 
L 131.17475 205.207444 
L 131.499729 130.380593 
L 131.824709 144.985493 
L 132.149688 128.108783 
L 132.474668 181.028356 
L 132.799647 139.08612 
L 133.124627 177.353623 
L 133.449606 162.08249 
L 133.774586 155.175376 
L 134.099565 243.582154 
L 134.424545 159.025494 
L 134.749524 172.491336 
L 135.074504 158.908555 
L 135.724463 120.580947 
L 136.049443 188.979303 
L 136.374422 213.052584 
L 136.699402 193.272399 
L 137.024381 237.064734 
L 137.349361 171.321557 
L 137.67434 164.703485 
L 137.99932 146.25126 
L 138.324299 175.800776 
L 138.649279 181.500121 
L 138.974258 208.660861 
L 139.299238 165.072823 
L 139.624217 161.717252 
L 139.949197 198.905706 
L 140.274176 148.62108 
L 140.599156 129.058501 
L 140.924135 197.386553 
L 141.249115 177.95764 
L 141.574094 186.805255 
L 141.899074 207.132158 
L 142.224054 136.784034 
L 142.549033 214.326864 
L 142.874013 235.688229 
L 143.198992 120.209901 
L 143.523972 136.488603 
L 143.848951 167.718216 
L 144.173931 213.918853 
L 144.49891 181.572593 
L 144.82389 119.06812 
L 145.148869 178.217272 
L 145.473849 209.421025 
L 145.798828 176.350595 
L 146.123808 184.557934 
L 146.448787 161.037642 
L 146.773767 157.257929 
L 147.098746 160.277795 
L 147.423726 139.308071 
L 147.748705 229.617783 
L 148.073685 175.861324 
L 148.398665 212.618103 
L 148.723644 199.339209 
L 149.048624 173.93109 
L 149.373603 182.286106 
L 149.698583 185.978307 
L 150.023562 185.412939 
L 150.348542 122.732927 
L 150.673521 208.860606 
L 150.998501 183.254748 
L 151.32348 127.814187 
L 151.64846 137.387836 
L 151.973439 205.913466 
L 152.298419 184.92099 
L 152.623398 233.96985 
L 152.948378 176.186938 
L 153.273357 168.212233 
L 153.598337 147.913895 
L 153.923316 188.192234 
L 154.248296 201.508945 
L 154.573275 180.325432 
L 154.898255 209.266656 
L 155.223235 159.354312 
L 155.548214 195.480027 
L 155.873194 152.090433 
L 156.198173 162.153659 
L 156.523153 133.386547 
L 156.848132 140.785976 
L 157.173112 120.205217 
L 157.498091 139.950859 
L 157.823071 190.680965 
L 158.14805 82.058383 
L 158.47303 206.853491 
L 159.122989 143.724222 
L 159.772948 168.826203 
L 160.097927 140.762909 
L 160.422907 138.923104 
L 160.747886 217.596804 
L 161.072866 170.884801 
L 161.397846 146.626116 
L 161.722825 229.108703 
L 162.047805 151.068047 
L 162.372784 155.297943 
L 162.697764 184.564203 
L 163.022743 184.953753 
L 163.347723 180.850849 
L 163.672702 83.632168 
L 163.997682 65.492676 
L 164.647641 162.737697 
L 164.97262 132.441628 
L 165.2976 223.645687 
L 165.947559 111.046316 
L 166.272538 168.440578 
L 166.597518 109.57222 
L 166.922497 75.765209 
L 167.247477 170.744656 
L 167.572456 121.52631 
L 167.897436 163.030888 
L 168.222416 152.721357 
L 168.547395 157.664062 
L 168.872375 261.883532 
L 169.197354 174.087512 
L 169.522334 197.10303 
L 169.847313 204.413855 
L 170.172293 135.653087 
L 170.497272 137.743136 
L 170.822252 97.022591 
L 171.147231 215.054426 
L 171.472211 196.423253 
L 171.79719 124.302965 
L 172.447149 211.697167 
L 172.772129 148.548807 
L 173.097108 143.032642 
L 173.422088 153.343354 
L 173.747067 157.982499 
L 174.072047 149.578797 
L 174.397027 160.712127 
L 174.722006 190.377539 
L 175.046986 158.111419 
L 175.371965 145.250665 
L 176.021924 194.640433 
L 176.346904 133.434329 
L 176.671883 209.152038 
L 176.996863 180.247225 
L 177.321842 138.873688 
L 177.646822 180.818632 
L 177.971801 131.89198 
L 178.296781 202.814161 
L 178.62176 161.177538 
L 178.94674 150.59618 
L 179.271719 196.994197 
L 179.921678 153.608827 
L 180.246658 143.964277 
L 180.571637 181.847538 
L 180.896617 155.758661 
L 181.221597 195.136688 
L 181.546576 182.190083 
L 181.871556 196.873364 
L 182.196535 169.785662 
L 182.521515 185.220122 
L 182.846494 213.582476 
L 183.171474 136.863102 
L 183.496453 139.473535 
L 183.821433 114.57167 
L 184.146412 71.87854 
L 184.471392 207.078268 
L 184.796371 158.533232 
L 185.121351 135.490412 
L 185.44633 130.371244 
L 185.77131 119.792022 
L 186.096289 170.810795 
L 186.421269 137.410294 
L 187.071228 219.519048 
L 187.396208 135.257495 
L 187.721187 157.224097 
L 188.046167 195.011415 
L 188.371146 213.177727 
L 188.696126 219.3565 
L 189.021105 198.770664 
L 189.346085 169.454761 
L 189.671064 175.314253 
L 189.996044 154.635778 
L 190.321023 166.778253 
L 190.646003 202.916663 
L 190.970982 146.763559 
L 191.295962 166.548547 
L 191.620941 126.561299 
L 191.945921 154.269021 
L 192.59588 96.81196 
L 193.245839 210.210828 
L 193.570818 130.518591 
L 193.895798 160.054556 
L 194.220778 117.186858 
L 194.545757 154.818701 
L 194.870737 104.88465 
L 195.195716 160.915458 
L 195.520696 188.834341 
L 195.845675 198.660605 
L 196.170655 127.92186 
L 196.495634 188.479335 
L 196.820614 193.486008 
L 197.145593 159.284807 
L 197.470573 138.081235 
L 197.795552 191.888624 
L 198.120532 156.227785 
L 198.445511 176.718669 
L 198.770491 171.688067 
L 199.09547 220.675936 
L 199.42045 162.477108 
L 199.745429 211.664876 
L 200.070409 157.63253 
L 200.395389 224.154341 
L 201.045348 153.767187 
L 201.695307 186.905672 
L 202.020286 200.312658 
L 202.345266 208.97786 
L 202.670245 136.420538 
L 202.995225 134.018795 
L 203.320204 182.692511 
L 203.645184 187.4049 
L 203.970163 175.275118 
L 204.295143 122.714423 
L 204.620122 177.947717 
L 204.945102 139.39022 
L 205.270081 130.21222 
L 205.595061 221.984147 
L 205.92004 216.120107 
L 206.24502 122.942193 
L 206.569999 176.770433 
L 206.894979 179.987036 
L 207.219959 141.151948 
L 207.544938 150.621861 
L 207.869918 109.426967 
L 208.194897 145.463886 
L 208.519877 147.124468 
L 208.844856 202.529061 
L 209.169836 180.280198 
L 209.494815 188.076122 
L 209.819795 118.051185 
L 210.144774 170.266898 
L 210.469754 160.133198 
L 210.794733 199.924006 
L 211.119713 184.763182 
L 211.444692 182.88133 
L 211.769672 172.362531 
L 212.094651 126.700427 
L 212.419631 187.270434 
L 212.74461 107.336454 
L 213.06959 124.759629 
L 213.39457 168.84514 
L 213.719549 100.330787 
L 214.044529 209.434438 
L 214.369508 166.404319 
L 214.694488 152.789352 
L 215.019467 178.093617 
L 215.344447 87.461783 
L 215.669426 191.767138 
L 215.994406 121.526898 
L 216.319385 195.538855 
L 216.644365 195.842748 
L 216.969344 206.261861 
L 217.294324 138.313929 
L 217.619303 135.313808 
L 217.944283 190.233088 
L 218.269262 149.967794 
L 218.594242 181.253522 
L 218.919221 232.874023 
L 219.244201 172.846009 
L 219.56918 164.28754 
L 219.89416 117.725991 
L 220.21914 170.561635 
L 220.544119 171.282148 
L 220.869099 137.021547 
L 221.194078 173.959449 
L 221.519058 150.911587 
L 221.844037 142.068669 
L 222.169017 184.909674 
L 222.493996 198.21491 
L 222.818976 96.340578 
L 223.143955 143.473428 
L 223.468935 128.563524 
L 223.793914 185.279257 
L 224.118894 220.493504 
L 224.443873 179.679579 
L 224.768853 258.389084 
L 225.093832 186.024736 
L 225.418812 146.577041 
L 225.743791 205.873142 
L 226.068771 193.180759 
L 226.393751 129.09444 
L 226.71873 225.779144 
L 227.04371 214.72878 
L 227.368689 178.098109 
L 227.693669 171.076866 
L 228.018648 150.726262 
L 228.343628 152.403214 
L 228.668607 195.584808 
L 228.993587 155.556577 
L 229.318566 132.119321 
L 229.643546 191.057521 
L 229.968525 158.26461 
L 230.293505 167.403859 
L 230.618484 204.055837 
L 231.268443 116.342896 
L 231.593423 149.117301 
L 231.918402 140.570581 
L 232.243382 165.8801 
L 232.568361 161.687541 
L 232.893341 164.761076 
L 233.218321 152.169493 
L 233.5433 146.805987 
L 233.86828 157.298513 
L 234.193259 183.081834 
L 234.518239 104.305641 
L 234.843218 196.053449 
L 235.168198 151.202027 
L 235.493177 191.599564 
L 235.818157 268.361841 
L 236.143136 140.93098 
L 236.468116 176.45849 
L 236.793095 110.114728 
L 237.118075 143.436797 
L 237.443054 118.382092 
L 237.768034 164.320324 
L 238.093013 234.857525 
L 238.417993 166.670487 
L 238.742972 263.334515 
L 239.392932 121.765784 
L 239.717911 185.213766 
L 240.042891 145.970295 
L 240.69285 192.493084 
L 241.017829 115.395346 
L 241.342809 186.342506 
L 241.667788 188.844449 
L 241.992768 149.243757 
L 242.317747 154.48458 
L 242.967706 187.126031 
L 243.292686 190.980644 
L 243.617665 115.754875 
L 244.267624 244.357852 
L 244.592604 185.801939 
L 244.917583 188.494982 
L 245.242563 178.13342 
L 245.567542 186.285758 
L 246.217502 154.670451 
L 246.867461 216.226023 
L 247.19244 163.60041 
L 247.51742 204.769899 
L 247.842399 128.943368 
L 248.167379 131.844137 
L 248.492358 189.267283 
L 248.817338 149.896122 
L 249.142317 178.998526 
L 249.467297 85.900035 
L 249.792276 177.325684 
L 250.117256 124.765694 
L 250.442235 208.069078 
L 250.767215 222.634466 
L 251.092194 139.740217 
L 251.742153 108.484395 
L 252.392113 202.178126 
L 252.717092 165.075549 
L 253.042072 212.254982 
L 253.367051 205.686221 
L 253.692031 121.734331 
L 254.01701 157.648884 
L 254.34199 176.256319 
L 254.666969 131.704813 
L 254.991949 138.306125 
L 255.316928 174.140225 
L 255.641908 127.935954 
L 255.966887 123.050759 
L 256.291867 162.866243 
L 256.616846 164.357984 
L 256.941826 124.937734 
L 257.266805 137.726643 
L 257.591785 143.862216 
L 257.916764 187.965189 
L 258.241744 108.271629 
L 258.566723 132.256502 
L 258.891703 134.738611 
L 259.216683 101.220854 
L 259.541662 132.758782 
L 259.866642 129.878473 
L 260.191621 111.370077 
L 260.516601 145.132449 
L 260.84158 245.406986 
L 261.16656 232.556889 
L 261.491539 141.862745 
L 261.816519 173.884186 
L 262.141498 86.092433 
L 262.466478 99.821676 
L 262.791457 170.859442 
L 263.116437 112.627504 
L 263.441416 175.470355 
L 263.766396 142.054196 
L 264.091375 168.315935 
L 264.416355 155.931365 
L 264.741334 159.18457 
L 265.066314 166.779512 
L 265.391294 222.055443 
L 265.716273 232.8955 
L 266.041253 130.092637 
L 266.691212 216.334744 
L 267.016191 177.669382 
L 267.341171 92.168004 
L 267.66615 174.016141 
L 267.99113 129.791767 
L 268.316109 143.289752 
L 268.641089 148.55144 
L 268.966068 133.396141 
L 269.291048 61.218418 
L 269.616027 166.912343 
L 269.941007 135.135674 
L 270.265986 215.876511 
L 270.590966 174.801105 
L 270.915945 106.217901 
L 271.240925 152.896443 
L 271.565904 232.80614 
L 271.890884 122.682465 
L 272.215864 185.233472 
L 272.540843 192.018328 
L 273.190802 228.958899 
L 273.515782 184.813512 
L 273.840761 193.905294 
L 274.165741 159.423473 
L 274.49072 145.501937 
L 274.8157 174.250659 
L 275.140679 182.738166 
L 275.465659 136.603326 
L 275.790638 167.910493 
L 276.115618 179.305091 
L 276.440597 163.883389 
L 276.765577 142.767455 
L 277.090556 158.712693 
L 277.415536 232.01908 
L 277.740515 192.155698 
L 278.065495 176.694968 
L 278.390475 235.499936 
L 278.715454 138.284358 
L 279.040434 123.10717 
L 279.365413 174.914486 
L 279.690393 276.576 
L 280.015372 165.339331 
L 280.340352 217.296956 
L 280.665331 243.976118 
L 280.990311 141.417643 
L 281.31529 195.902278 
L 281.64027 152.331846 
L 281.965249 220.781093 
L 282.290229 108.709195 
L 282.615208 169.629389 
L 282.940188 166.344255 
L 283.265167 105.459398 
L 283.590147 188.417366 
L 283.915126 139.975207 
L 284.240106 140.389967 
L 284.565085 169.061273 
L 284.890065 144.567436 
L 285.540024 121.703818 
L 285.865004 179.440755 
L 286.189983 168.723383 
L 286.514963 123.559458 
L 286.839942 180.376522 
L 287.814881 105.685102 
L 288.13986 112.015078 
L 288.46484 160.585733 
L 288.789819 170.194144 
L 289.114799 165.259219 
L 289.439778 150.306048 
L 289.764758 106.6369 
L 290.089737 196.362874 
L 290.739696 112.675357 
L 291.064676 110.88617 
L 291.389656 129.325144 
L 292.039615 179.258448 
L 292.364594 194.904969 
L 292.689574 172.188188 
L 293.014553 178.071235 
L 293.339533 129.953657 
L 293.664512 126.892657 
L 293.989492 56.000881 
L 294.314471 213.457728 
L 294.639451 115.823215 
L 294.96443 188.923355 
L 295.28941 218.466791 
L 295.614389 144.868492 
L 295.939369 181.539177 
L 296.264348 106.144431 
L 296.589328 158.010125 
L 296.914307 164.187832 
L 297.239287 165.641972 
L 297.564266 196.183824 
L 297.889246 182.480469 
L 298.214226 122.96372 
L 298.539205 147.59731 
L 298.864185 130.01105 
L 299.189164 182.186409 
L 299.514144 211.410636 
L 299.839123 205.665948 
L 300.164103 57.838335 
L 300.489082 189.967159 
L 300.814062 155.94616 
L 301.139041 189.227584 
L 301.464021 123.897289 
L 301.789 136.808528 
L 302.11398 186.718265 
L 302.763939 127.670791 
L 303.088918 195.681916 
L 303.413898 145.149912 
L 303.738877 230.340434 
L 304.063857 158.275043 
L 304.388837 129.448974 
L 304.713816 150.168689 
L 305.038796 159.650107 
L 305.363775 100.575195 
L 305.688755 231.212721 
L 306.013734 174.534743 
L 306.338714 155.993463 
L 306.663693 166.908001 
L 306.988673 151.010437 
L 307.313652 183.77385 
L 307.638632 143.217009 
L 307.963611 132.663619 
L 308.288591 86.234261 
L 308.61357 145.286418 
L 308.93855 141.946525 
L 309.263529 111.98108 
L 309.588509 168.969138 
L 309.913488 115.153914 
L 310.238468 128.735508 
L 310.563447 166.233579 
L 310.888427 92.252547 
L 311.213407 140.158871 
L 311.538386 141.361805 
L 311.863366 175.350151 
L 312.188345 147.430835 
L 312.513325 143.339415 
L 312.838304 154.412927 
L 313.163284 190.347271 
L 313.813243 115.36725 
L 314.138222 152.01464 
L 314.463202 107.982833 
L 314.788181 134.561764 
L 315.113161 113.370331 
L 315.43814 171.714686 
L 315.76312 184.223653 
L 316.088099 168.442349 
L 316.413079 199.792939 
L 316.738058 187.157047 
L 317.063038 158.585228 
L 317.388018 161.881307 
L 317.712997 206.705997 
L 318.037977 89.53349 
L 318.362956 131.662641 
L 318.687936 118.313025 
L 319.012915 201.561939 
L 319.337895 144.359024 
L 319.662874 129.894091 
L 319.987854 166.69284 
L 320.312833 178.093849 
L 320.637813 137.902557 
L 320.962792 184.65593 
L 321.287772 133.352701 
L 321.612751 183.270677 
L 321.937731 163.770283 
L 322.26271 104.214868 
L 322.58769 168.405653 
L 322.912669 130.068895 
L 323.237649 207.174939 
L 323.562628 128.061377 
L 323.887608 157.358736 
L 324.212588 90.614877 
L 324.537567 223.974879 
L 325.187526 150.403921 
L 325.512506 100.250783 
L 325.837485 200.308459 
L 326.162465 167.042551 
L 326.487444 146.478989 
L 326.812424 214.481097 
L 327.137403 223.754927 
L 327.462383 160.892306 
L 327.787362 179.499031 
L 328.112342 167.945515 
L 328.437321 104.843701 
L 328.762301 193.903808 
L 329.08728 159.904245 
L 329.41226 160.088882 
L 329.737239 160.472702 
L 330.062219 161.662985 
L 330.387199 132.790255 
L 331.037158 212.591696 
L 331.687117 170.211599 
L 332.012096 122.765586 
L 332.337076 170.463679 
L 332.662055 177.257719 
L 332.987035 193.999419 
L 333.312014 198.476757 
L 333.636994 233.414406 
L 333.961973 161.688774 
L 334.286953 125.69308 
L 334.611932 249.939778 
L 335.261891 166.51845 
L 335.586871 194.509102 
L 335.91185 235.858508 
L 336.23683 175.609428 
L 336.561809 157.976092 
L 337.211769 83.726293 
L 337.536748 185.334697 
L 337.861728 185.875929 
L 338.186707 168.888284 
L 338.511687 209.644041 
L 338.836666 131.016018 
L 339.161646 196.010662 
L 339.486625 157.302975 
L 339.811605 168.386328 
L 340.136584 210.063123 
L 340.461564 185.043874 
L 340.786543 201.558142 
L 341.111523 166.146154 
L 341.436502 152.897096 
L 341.761482 174.825058 
L 342.086461 132.53108 
L 342.411441 147.547757 
L 342.73642 134.639556 
L 343.0614 183.186073 
L 343.711359 129.790269 
L 344.036339 237.81482 
L 344.361318 169.936801 
L 344.686298 145.038648 
L 345.011277 161.665579 
L 345.336257 188.139795 
L 345.661236 95.817133 
L 345.986216 221.283153 
L 346.311195 164.84599 
L 346.636175 187.982761 
L 346.961154 175.417527 
L 347.286134 158.373107 
L 347.611113 153.674507 
L 347.936093 179.065161 
L 348.261072 139.315871 
L 348.586052 130.878405 
L 348.911031 170.860223 
L 349.236011 159.051751 
L 349.56099 76.48369 
L 349.88597 171.671648 
L 350.21095 189.655047 
L 350.535929 214.085541 
L 350.860909 193.83758 
L 351.185888 205.118969 
L 351.510868 122.861647 
L 351.835847 164.0958 
L 352.160827 171.030795 
L 352.485806 87.293659 
L 352.810786 168.158854 
L 353.135765 169.380681 
L 353.460745 126.916086 
L 354.110704 152.325842 
L 354.435683 130.661249 
L 354.760663 188.29366 
L 355.085642 133.6655 
L 355.410622 159.7078 
L 355.735601 152.785781 
L 356.060581 173.664101 
L 356.385561 131.432101 
L 356.71054 128.150131 
L 357.360499 193.985908 
L 357.685479 122.157411 
L 358.335438 206.343282 
L 358.660417 190.108781 
L 358.985397 234.256895 
L 359.310376 178.409525 
L 359.635356 151.317918 
L 359.960335 175.462414 
L 360.285315 132.916283 
L 360.610294 191.694035 
L 360.935274 143.839673 
L 361.260253 200.386552 
L 361.585233 196.332695 
L 361.910212 236.299 
L 362.560171 147.055084 
L 362.885151 143.316341 
L 363.210131 155.104475 
L 363.53511 141.225847 
L 363.86009 144.851011 
L 364.185069 202.910126 
L 364.510049 219.510744 
L 364.835028 175.853363 
L 365.160008 151.66958 
L 365.484987 142.506009 
L 365.809967 152.682354 
L 366.134946 181.556647 
L 366.459926 66.892452 
L 366.784905 187.722557 
L 367.109885 176.130038 
L 367.434864 154.392148 
L 367.759844 180.869657 
L 368.084823 120.128155 
L 368.734782 217.383895 
L 369.059762 150.53038 
L 369.709721 121.457626 
L 370.034701 165.817108 
L 370.35968 180.962065 
L 371.009639 227.047642 
L 371.334619 214.974729 
L 371.659598 93.979552 
L 371.984578 217.974859 
L 372.309557 164.337466 
L 372.634537 191.130243 
L 372.959516 157.714422 
L 373.284496 154.490143 
L 373.609475 146.719595 
L 373.934455 145.747554 
L 374.259434 162.486885 
L 374.909393 230.930354 
L 375.234373 146.872742 
L 375.559352 130.143652 
L 375.884332 186.83354 
L 376.209312 138.465722 
L 376.534291 182.357137 
L 376.859271 159.79961 
L 377.18425 223.934639 
L 377.50923 241.254141 
L 377.834209 199.138432 
L 378.159189 200.982463 
L 378.484168 180.623372 
L 378.809148 173.455122 
L 378.809148 173.455122 
" clip-path="url(#pb8dd13a163)" style="fill: none; stroke: #000000; stroke-width: 1.5; stroke-linecap: square"/>
   </g>
   <g id="patch_3">
    <path d="M 37.921875 288.672 
L 37.921875 22.56 
" style="fill: none; stroke: #000000; stroke-width: 0.8; stroke-linejoin: miter; stroke-linecap: square"/>
   </g>
   <g id="patch_4">
    <path d="M 395.041875 288.672 
L 395.041875 22.56 
" style="fill: none; stroke: #000000; stroke-width: 0.8; stroke-linejoin: miter; stroke-linecap: square"/>
   </g>
   <g id="patch_5">
    <path d="M 37.921875 288.672 
L 395.041875 288.672 
" style="fill: none; stroke: #000000; stroke-width: 0.8; stroke-linejoin: miter; stroke-linecap: square"/>
   </g>
   <g id="patch_6">
    <path d="M 37.921875 22.56 
L 395.041875 22.56 
" style="fill: none; stroke: #000000; stroke-width: 0.8; stroke-linejoin: miter; stroke-linecap: square"/>
   </g>
   <g id="text_16">
    <!-- $N =1000$ values from $\mathcal{N}$(0,1) -->
    <g transform="translate(144.961875 16.56) scale(0.12 -0.12)">
     <defs>
      <path id="Cmmi10-4e" d="M 300 0 
Q 238 0 238 84 
Q 241 100 250 139 
Q 259 178 276 201 
Q 294 225 319 225 
Q 931 225 1031 616 
L 1900 4116 
Q 1722 4147 1338 4147 
Q 1275 4147 1275 4231 
Q 1278 4247 1287 4286 
Q 1297 4325 1314 4348 
Q 1331 4372 1356 4372 
L 2463 4372 
Q 2509 4372 2522 4331 
L 3944 947 
L 4653 3781 
Q 4666 3850 4666 3878 
Q 4666 4147 4172 4147 
Q 4109 4147 4109 4231 
Q 4131 4313 4143 4342 
Q 4156 4372 4219 4372 
L 5588 4372 
Q 5650 4372 5650 4288 
Q 5647 4272 5637 4233 
Q 5628 4194 5611 4170 
Q 5594 4147 5569 4147 
Q 4956 4147 4856 3756 
L 3938 56 
Q 3916 0 3872 0 
L 3794 0 
Q 3750 0 3738 44 
L 2106 3916 
L 2094 3956 
Q 2081 3969 2081 3975 
L 1234 588 
Q 1228 572 1225 548 
Q 1222 525 1216 494 
Q 1216 328 1359 276 
Q 1503 225 1716 225 
Q 1778 225 1778 141 
Q 1756 53 1740 26 
Q 1725 0 1672 0 
L 300 0 
z
" transform="scale(0.015625)"/>
      <path id="Cmr10-3d" d="M 481 850 
Q 428 850 393 890 
Q 359 931 359 978 
Q 359 1031 393 1068 
Q 428 1106 481 1106 
L 4500 1106 
Q 4547 1106 4581 1068 
Q 4616 1031 4616 978 
Q 4616 931 4581 890 
Q 4547 850 4500 850 
L 481 850 
z
M 481 2094 
Q 428 2094 393 2131 
Q 359 2169 359 2222 
Q 359 2269 393 2309 
Q 428 2350 481 2350 
L 4500 2350 
Q 4547 2350 4581 2309 
Q 4616 2269 4616 2222 
Q 4616 2169 4581 2131 
Q 4547 2094 4500 2094 
L 481 2094 
z
" transform="scale(0.015625)"/>
      <path id="Cmr10-31" d="M 594 0 
L 594 225 
Q 1394 225 1394 428 
L 1394 3788 
Q 1063 3628 556 3628 
L 556 3853 
Q 1341 3853 1741 4263 
L 1831 4263 
Q 1853 4263 1873 4245 
Q 1894 4228 1894 4206 
L 1894 428 
Q 1894 225 2694 225 
L 2694 0 
L 594 0 
z
" transform="scale(0.015625)"/>
      <path id="Cmr10-30" d="M 1600 -141 
Q 816 -141 533 504 
Q 250 1150 250 2041 
Q 250 2597 351 3087 
Q 453 3578 754 3920 
Q 1056 4263 1600 4263 
Q 2022 4263 2290 4056 
Q 2559 3850 2700 3523 
Q 2841 3197 2892 2823 
Q 2944 2450 2944 2041 
Q 2944 1491 2842 1011 
Q 2741 531 2444 195 
Q 2147 -141 1600 -141 
z
M 1600 25 
Q 1956 25 2131 390 
Q 2306 756 2347 1200 
Q 2388 1644 2388 2144 
Q 2388 2625 2347 3031 
Q 2306 3438 2132 3767 
Q 1959 4097 1600 4097 
Q 1238 4097 1063 3765 
Q 888 3434 847 3029 
Q 806 2625 806 2144 
Q 806 1788 823 1472 
Q 841 1156 916 820 
Q 991 484 1158 254 
Q 1325 25 1600 25 
z
" transform="scale(0.015625)"/>
      <path id="TimesNewRomanPSMT-20" transform="scale(0.015625)"/>
      <path id="TimesNewRomanPSMT-76" d="M 53 2863 
L 1400 2863 
L 1400 2747 
L 1313 2747 
Q 1191 2747 1127 2687 
Q 1063 2628 1063 2528 
Q 1063 2419 1128 2269 
L 1794 688 
L 2463 2328 
Q 2534 2503 2534 2594 
Q 2534 2638 2509 2666 
Q 2475 2713 2422 2730 
Q 2369 2747 2206 2747 
L 2206 2863 
L 3141 2863 
L 3141 2747 
Q 2978 2734 2916 2681 
Q 2806 2588 2719 2369 
L 1703 -88 
L 1575 -88 
L 553 2328 
Q 484 2497 421 2570 
Q 359 2644 263 2694 
Q 209 2722 53 2747 
L 53 2863 
z
" transform="scale(0.015625)"/>
      <path id="TimesNewRomanPSMT-61" d="M 1822 413 
Q 1381 72 1269 19 
Q 1100 -59 909 -59 
Q 613 -59 420 144 
Q 228 347 228 678 
Q 228 888 322 1041 
Q 450 1253 767 1440 
Q 1084 1628 1822 1897 
L 1822 2009 
Q 1822 2438 1686 2597 
Q 1550 2756 1291 2756 
Q 1094 2756 978 2650 
Q 859 2544 859 2406 
L 866 2225 
Q 866 2081 792 2003 
Q 719 1925 600 1925 
Q 484 1925 411 2006 
Q 338 2088 338 2228 
Q 338 2497 613 2722 
Q 888 2947 1384 2947 
Q 1766 2947 2009 2819 
Q 2194 2722 2281 2516 
Q 2338 2381 2338 1966 
L 2338 994 
Q 2338 584 2353 492 
Q 2369 400 2405 369 
Q 2441 338 2488 338 
Q 2538 338 2575 359 
Q 2641 400 2828 588 
L 2828 413 
Q 2478 -56 2159 -56 
Q 2006 -56 1915 50 
Q 1825 156 1822 413 
z
M 1822 616 
L 1822 1706 
Q 1350 1519 1213 1441 
Q 966 1303 859 1153 
Q 753 1003 753 825 
Q 753 600 887 451 
Q 1022 303 1197 303 
Q 1434 303 1822 616 
z
" transform="scale(0.015625)"/>
      <path id="TimesNewRomanPSMT-6c" d="M 1184 4444 
L 1184 647 
Q 1184 378 1223 290 
Q 1263 203 1344 158 
Q 1425 113 1647 113 
L 1647 0 
L 244 0 
L 244 113 
Q 441 113 512 153 
Q 584 194 625 287 
Q 666 381 666 647 
L 666 3247 
Q 666 3731 644 3842 
Q 622 3953 573 3993 
Q 525 4034 450 4034 
Q 369 4034 244 3984 
L 191 4094 
L 1044 4444 
L 1184 4444 
z
" transform="scale(0.015625)"/>
      <path id="TimesNewRomanPSMT-75" d="M 2709 2863 
L 2709 1128 
Q 2709 631 2732 520 
Q 2756 409 2807 365 
Q 2859 322 2928 322 
Q 3025 322 3147 375 
L 3191 266 
L 2334 -88 
L 2194 -88 
L 2194 519 
Q 1825 119 1631 15 
Q 1438 -88 1222 -88 
Q 981 -88 804 51 
Q 628 191 559 409 
Q 491 628 491 1028 
L 491 2306 
Q 491 2509 447 2587 
Q 403 2666 317 2708 
Q 231 2750 6 2747 
L 6 2863 
L 1009 2863 
L 1009 947 
Q 1009 547 1148 422 
Q 1288 297 1484 297 
Q 1619 297 1789 381 
Q 1959 466 2194 703 
L 2194 2325 
Q 2194 2569 2105 2655 
Q 2016 2741 1734 2747 
L 1734 2863 
L 2709 2863 
z
" transform="scale(0.015625)"/>
      <path id="TimesNewRomanPSMT-65" d="M 681 1784 
Q 678 1147 991 784 
Q 1303 422 1725 422 
Q 2006 422 2214 576 
Q 2422 731 2563 1106 
L 2659 1044 
Q 2594 616 2278 264 
Q 1963 -88 1488 -88 
Q 972 -88 605 314 
Q 238 716 238 1394 
Q 238 2128 614 2539 
Q 991 2950 1559 2950 
Q 2041 2950 2350 2633 
Q 2659 2316 2659 1784 
L 681 1784 
z
M 681 1966 
L 2006 1966 
Q 1991 2241 1941 2353 
Q 1863 2528 1708 2628 
Q 1553 2728 1384 2728 
Q 1125 2728 920 2526 
Q 716 2325 681 1966 
z
" transform="scale(0.015625)"/>
      <path id="TimesNewRomanPSMT-73" d="M 2050 2947 
L 2050 1972 
L 1947 1972 
Q 1828 2431 1642 2597 
Q 1456 2763 1169 2763 
Q 950 2763 815 2647 
Q 681 2531 681 2391 
Q 681 2216 781 2091 
Q 878 1963 1175 1819 
L 1631 1597 
Q 2266 1288 2266 781 
Q 2266 391 1970 151 
Q 1675 -88 1309 -88 
Q 1047 -88 709 6 
Q 606 38 541 38 
Q 469 38 428 -44 
L 325 -44 
L 325 978 
L 428 978 
Q 516 541 762 319 
Q 1009 97 1316 97 
Q 1531 97 1667 223 
Q 1803 350 1803 528 
Q 1803 744 1651 891 
Q 1500 1038 1047 1263 
Q 594 1488 453 1669 
Q 313 1847 313 2119 
Q 313 2472 555 2709 
Q 797 2947 1181 2947 
Q 1350 2947 1591 2875 
Q 1750 2828 1803 2828 
Q 1853 2828 1881 2850 
Q 1909 2872 1947 2947 
L 2050 2947 
z
" transform="scale(0.015625)"/>
      <path id="TimesNewRomanPSMT-66" d="M 1319 2638 
L 1319 756 
Q 1319 356 1406 250 
Q 1522 113 1716 113 
L 1975 113 
L 1975 0 
L 266 0 
L 266 113 
L 394 113 
Q 519 113 622 175 
Q 725 238 764 344 
Q 803 450 803 756 
L 803 2638 
L 247 2638 
L 247 2863 
L 803 2863 
L 803 3050 
Q 803 3478 940 3775 
Q 1078 4072 1361 4255 
Q 1644 4438 1997 4438 
Q 2325 4438 2600 4225 
Q 2781 4084 2781 3909 
Q 2781 3816 2700 3733 
Q 2619 3650 2525 3650 
Q 2453 3650 2373 3701 
Q 2294 3753 2178 3923 
Q 2063 4094 1966 4153 
Q 1869 4213 1750 4213 
Q 1606 4213 1506 4136 
Q 1406 4059 1362 3898 
Q 1319 3738 1319 3069 
L 1319 2863 
L 2056 2863 
L 2056 2638 
L 1319 2638 
z
" transform="scale(0.015625)"/>
      <path id="TimesNewRomanPSMT-72" d="M 1038 2947 
L 1038 2303 
Q 1397 2947 1775 2947 
Q 1947 2947 2059 2842 
Q 2172 2738 2172 2600 
Q 2172 2478 2090 2393 
Q 2009 2309 1897 2309 
Q 1788 2309 1652 2417 
Q 1516 2525 1450 2525 
Q 1394 2525 1328 2463 
Q 1188 2334 1038 2041 
L 1038 669 
Q 1038 431 1097 309 
Q 1138 225 1241 169 
Q 1344 113 1538 113 
L 1538 0 
L 72 0 
L 72 113 
Q 291 113 397 181 
Q 475 231 506 341 
Q 522 394 522 644 
L 522 1753 
Q 522 2253 501 2348 
Q 481 2444 426 2487 
Q 372 2531 291 2531 
Q 194 2531 72 2484 
L 41 2597 
L 906 2947 
L 1038 2947 
z
" transform="scale(0.015625)"/>
      <path id="TimesNewRomanPSMT-6f" d="M 1600 2947 
Q 2250 2947 2644 2453 
Q 2978 2031 2978 1484 
Q 2978 1100 2793 706 
Q 2609 313 2286 112 
Q 1963 -88 1566 -88 
Q 919 -88 538 428 
Q 216 863 216 1403 
Q 216 1797 411 2186 
Q 606 2575 925 2761 
Q 1244 2947 1600 2947 
z
M 1503 2744 
Q 1338 2744 1170 2645 
Q 1003 2547 900 2300 
Q 797 2053 797 1666 
Q 797 1041 1045 587 
Q 1294 134 1700 134 
Q 2003 134 2200 384 
Q 2397 634 2397 1244 
Q 2397 2006 2069 2444 
Q 1847 2744 1503 2744 
z
" transform="scale(0.015625)"/>
      <path id="TimesNewRomanPSMT-6d" d="M 1050 2338 
Q 1363 2650 1419 2697 
Q 1559 2816 1721 2881 
Q 1884 2947 2044 2947 
Q 2313 2947 2506 2790 
Q 2700 2634 2766 2338 
Q 3088 2713 3309 2830 
Q 3531 2947 3766 2947 
Q 3994 2947 4170 2830 
Q 4347 2713 4450 2447 
Q 4519 2266 4519 1878 
L 4519 647 
Q 4519 378 4559 278 
Q 4591 209 4675 161 
Q 4759 113 4950 113 
L 4950 0 
L 3538 0 
L 3538 113 
L 3597 113 
Q 3781 113 3884 184 
Q 3956 234 3988 344 
Q 4000 397 4000 647 
L 4000 1878 
Q 4000 2228 3916 2372 
Q 3794 2572 3525 2572 
Q 3359 2572 3192 2489 
Q 3025 2406 2788 2181 
L 2781 2147 
L 2788 2013 
L 2788 647 
Q 2788 353 2820 281 
Q 2853 209 2943 161 
Q 3034 113 3253 113 
L 3253 0 
L 1806 0 
L 1806 113 
Q 2044 113 2133 169 
Q 2222 225 2256 338 
Q 2272 391 2272 647 
L 2272 1878 
Q 2272 2228 2169 2381 
Q 2031 2581 1784 2581 
Q 1616 2581 1450 2491 
Q 1191 2353 1050 2181 
L 1050 647 
Q 1050 366 1089 281 
Q 1128 197 1204 155 
Q 1281 113 1516 113 
L 1516 0 
L 100 0 
L 100 113 
Q 297 113 375 155 
Q 453 197 493 289 
Q 534 381 534 647 
L 534 1741 
Q 534 2213 506 2350 
Q 484 2453 437 2492 
Q 391 2531 309 2531 
Q 222 2531 100 2484 
L 53 2597 
L 916 2947 
L 1050 2947 
L 1050 2338 
z
" transform="scale(0.015625)"/>
      <path id="Cmsy10-4e" d="M -184 13 
Q -184 131 -103 322 
Q -22 513 72 513 
Q 84 513 91 506 
Q 294 294 594 294 
Q 763 294 892 598 
Q 1022 903 1147 1306 
Q 1213 1509 1308 1837 
Q 1403 2166 1453 2369 
Q 1497 2538 1558 2827 
Q 1619 3116 1658 3331 
Q 1697 3547 1728 3772 
Q 1759 3997 1784 4244 
Q 1784 4278 1831 4325 
Q 1900 4397 1997 4453 
Q 2088 4494 2181 4513 
L 2234 4513 
Q 2272 4494 2278 4469 
Q 2438 3909 2675 3200 
Q 2891 2544 3044 2125 
Q 3197 1706 3405 1242 
Q 3613 778 3859 384 
Q 4194 1819 4525 2988 
L 4609 3284 
Q 4747 3769 4836 4039 
Q 4925 4309 5063 4525 
Q 5175 4700 5356 4800 
Q 5538 4900 5753 4942 
Q 5969 4984 6203 4984 
Q 6259 4984 6259 4878 
Q 6259 4803 6226 4686 
Q 6194 4569 6137 4478 
Q 6081 4388 6009 4372 
Q 5756 4372 5557 4331 
Q 5359 4291 5197 4184 
Q 5116 4125 5102 4094 
Q 5088 4063 5038 3909 
Q 4956 3684 4872 3366 
L 4788 3078 
Q 4625 2491 4498 2006 
Q 4372 1522 4256 1045 
Q 4141 569 4031 84 
Q 4034 84 4029 92 
Q 4025 100 4025 103 
Q 4025 47 3951 -15 
Q 3878 -78 3783 -120 
Q 3688 -163 3628 -172 
L 3584 -172 
Q 3478 -119 3222 368 
Q 2966 856 2834 1172 
Q 2359 2347 1966 3628 
Q 1916 3319 1759 2648 
Q 1603 1978 1387 1297 
Q 1172 616 914 148 
Q 656 -319 397 -319 
Q 231 -319 23 -225 
Q -184 -131 -184 13 
z
" transform="scale(0.015625)"/>
      <path id="TimesNewRomanPSMT-28" d="M 1988 -1253 
L 1988 -1369 
Q 1516 -1131 1200 -813 
Q 750 -359 506 256 
Q 263 872 263 1534 
Q 263 2503 741 3301 
Q 1219 4100 1988 4444 
L 1988 4313 
Q 1603 4100 1356 3731 
Q 1109 3363 987 2797 
Q 866 2231 866 1616 
Q 866 947 969 400 
Q 1050 -31 1165 -292 
Q 1281 -553 1476 -793 
Q 1672 -1034 1988 -1253 
z
" transform="scale(0.015625)"/>
      <path id="TimesNewRomanPSMT-2c" d="M 344 -1066 
L 344 -928 
Q 666 -822 842 -598 
Q 1019 -375 1019 -125 
Q 1019 -66 991 -25 
Q 969 3 947 3 
Q 913 3 797 -59 
Q 741 -88 678 -88 
Q 525 -88 434 3 
Q 344 94 344 253 
Q 344 406 461 515 
Q 578 625 747 625 
Q 953 625 1114 445 
Q 1275 266 1275 -31 
Q 1275 -353 1051 -629 
Q 828 -906 344 -1066 
z
" transform="scale(0.015625)"/>
      <path id="TimesNewRomanPSMT-29" d="M 144 4313 
L 144 4444 
Q 619 4209 934 3891 
Q 1381 3434 1625 2820 
Q 1869 2206 1869 1541 
Q 1869 572 1392 -226 
Q 916 -1025 144 -1369 
L 144 -1253 
Q 528 -1038 776 -670 
Q 1025 -303 1145 264 
Q 1266 831 1266 1447 
Q 1266 2113 1163 2663 
Q 1084 3094 967 3353 
Q 850 3613 656 3853 
Q 463 4094 144 4313 
z
" transform="scale(0.015625)"/>
     </defs>
     <use xlink:href="#Cmmi10-4e" transform="translate(0 0.125)"/>
     <use xlink:href="#Cmr10-3d" transform="translate(97.880859 0.125)"/>
     <use xlink:href="#Cmr10-31" transform="translate(193.125 0.125)"/>
     <use xlink:href="#Cmr10-30" transform="translate(243.125 0.125)"/>
     <use xlink:href="#Cmr10-30" transform="translate(293.125 0.125)"/>
     <use xlink:href="#Cmr10-30" transform="translate(343.125 0.125)"/>
     <use xlink:href="#TimesNewRomanPSMT-20" transform="translate(393.125 0.125)"/>
     <use xlink:href="#TimesNewRomanPSMT-76" transform="translate(418.125 0.125)"/>
     <use xlink:href="#TimesNewRomanPSMT-61" transform="translate(468.125 0.125)"/>
     <use xlink:href="#TimesNewRomanPSMT-6c" transform="translate(512.509766 0.125)"/>
     <use xlink:href="#TimesNewRomanPSMT-75" transform="translate(540.292969 0.125)"/>
     <use xlink:href="#TimesNewRomanPSMT-65" transform="translate(590.292969 0.125)"/>
     <use xlink:href="#TimesNewRomanPSMT-73" transform="translate(634.677734 0.125)"/>
     <use xlink:href="#TimesNewRomanPSMT-20" transform="translate(673.59375 0.125)"/>
     <use xlink:href="#TimesNewRomanPSMT-66" transform="translate(698.59375 0.125)"/>
     <use xlink:href="#TimesNewRomanPSMT-72" transform="translate(731.894531 0.125)"/>
     <use xlink:href="#TimesNewRomanPSMT-6f" transform="translate(765.195312 0.125)"/>
     <use xlink:href="#TimesNewRomanPSMT-6d" transform="translate(815.195312 0.125)"/>
     <use xlink:href="#TimesNewRomanPSMT-20" transform="translate(892.978516 0.125)"/>
     <use xlink:href="#Cmsy10-4e" transform="translate(917.978516 0.125)"/>
     <use xlink:href="#TimesNewRomanPSMT-28" transform="translate(999.960938 0.125)"/>
     <use xlink:href="#TimesNewRomanPSMT-30" transform="translate(1033.261719 0.125)"/>
     <use xlink:href="#TimesNewRomanPSMT-2c" transform="translate(1083.261719 0.125)"/>
     <use xlink:href="#TimesNewRomanPSMT-31" transform="translate(1108.261719 0.125)"/>
     <use xlink:href="#TimesNewRomanPSMT-29" transform="translate(1158.261719 0.125)"/>
    </g>
   </g>
  </g>
 </g>
 <defs>
  <clipPath id="pb8dd13a163">
   <rect x="37.921875" y="22.56" width="357.12" height="266.112"/>
  </clipPath>
 </defs>
</svg>
