<?xml version="1.0" encoding="utf-8" standalone="no"?>
<!DOCTYPE svg PUBLIC "-//W3C//DTD SVG 1.1//EN"
  "http://www.w3.org/Graphics/SVG/1.1/DTD/svg11.dtd">
<svg xmlns:xlink="http://www.w3.org/1999/xlink" width="401.602812pt" height="325.154812pt" viewBox="0 0 401.602812 325.154812" xmlns="http://www.w3.org/2000/svg" version="1.1">
 <metadata>
  <rdf:RDF xmlns:dc="http://purl.org/dc/elements/1.1/" xmlns:cc="http://creativecommons.org/ns#" xmlns:rdf="http://www.w3.org/1999/02/22-rdf-syntax-ns#">
   <cc:Work>
    <dc:type rdf:resource="http://purl.org/dc/dcmitype/StillImage"/>
    <dc:date>2025-04-08T15:15:53.831361</dc:date>
    <dc:format>image/svg+xml</dc:format>
    <dc:creator>
     <cc:Agent>
      <dc:title>Matplotlib v3.8.4, https://matplotlib.org/</dc:title>
     </cc:Agent>
    </dc:creator>
   </cc:Work>
  </rdf:RDF>
 </metadata>
 <defs>
  <style type="text/css">*{stroke-linejoin: round; stroke-linecap: butt}</style>
 </defs>
 <g id="figure_1">
  <g id="patch_1">
   <path d="M 0 325.154812 
L 401.602812 325.154812 
L 401.602812 0 
L 0 0 
L 0 325.154812 
z
" style="fill: none"/>
  </g>
  <g id="axes_1">
   <g id="patch_2">
    <path d="M 37.282813 288.672 
L 394.402812 288.672 
L 394.402812 22.56 
L 37.282813 22.56 
L 37.282813 288.672 
z
" style="fill: none"/>
   </g>
   <g id="matplotlib.axis_1">
    <g id="xtick_1">
     <g id="line2d_1">
      <path d="M 53.51554 288.672 
L 53.51554 22.56 
" clip-path="url(#pe5af69d8a2)" style="fill: none; stroke: #b0b0b0; stroke-width: 0.8; stroke-linecap: square"/>
     </g>
     <g id="line2d_2">
      <defs>
       <path id="m94cbedb540" d="M 0 0 
L 0 3.5 
" style="stroke: #000000; stroke-width: 0.8"/>
      </defs>
      <g>
       <use xlink:href="#m94cbedb540" x="53.51554" y="288.672" style="stroke: #000000; stroke-width: 0.8"/>
      </g>
     </g>
     <g id="text_1">
      <!-- 0.0 -->
      <g transform="translate(47.26554 302.61575) scale(0.1 -0.1)">
       <defs>
        <path id="TimesNewRomanPSMT-30" d="M 231 2094 
Q 231 2819 450 3342 
Q 669 3866 1031 4122 
Q 1313 4325 1613 4325 
Q 2100 4325 2488 3828 
Q 2972 3213 2972 2159 
Q 2972 1422 2759 906 
Q 2547 391 2217 158 
Q 1888 -75 1581 -75 
Q 975 -75 572 641 
Q 231 1244 231 2094 
z
M 844 2016 
Q 844 1141 1059 588 
Q 1238 122 1591 122 
Q 1759 122 1940 273 
Q 2122 425 2216 781 
Q 2359 1319 2359 2297 
Q 2359 3022 2209 3506 
Q 2097 3866 1919 4016 
Q 1791 4119 1609 4119 
Q 1397 4119 1231 3928 
Q 1006 3669 925 3112 
Q 844 2556 844 2016 
z
" transform="scale(0.015625)"/>
        <path id="TimesNewRomanPSMT-2e" d="M 800 606 
Q 947 606 1047 504 
Q 1147 403 1147 259 
Q 1147 116 1045 14 
Q 944 -88 800 -88 
Q 656 -88 554 14 
Q 453 116 453 259 
Q 453 406 554 506 
Q 656 606 800 606 
z
" transform="scale(0.015625)"/>
       </defs>
       <use xlink:href="#TimesNewRomanPSMT-30"/>
       <use xlink:href="#TimesNewRomanPSMT-2e" x="50"/>
       <use xlink:href="#TimesNewRomanPSMT-30" x="75"/>
      </g>
     </g>
    </g>
    <g id="xtick_2">
     <g id="line2d_3">
      <path d="M 118.576571 288.672 
L 118.576571 22.56 
" clip-path="url(#pe5af69d8a2)" style="fill: none; stroke: #b0b0b0; stroke-width: 0.8; stroke-linecap: square"/>
     </g>
     <g id="line2d_4">
      <g>
       <use xlink:href="#m94cbedb540" x="118.576571" y="288.672" style="stroke: #000000; stroke-width: 0.8"/>
      </g>
     </g>
     <g id="text_2">
      <!-- 0.1 -->
      <g transform="translate(112.326571 302.61575) scale(0.1 -0.1)">
       <defs>
        <path id="TimesNewRomanPSMT-31" d="M 750 3822 
L 1781 4325 
L 1884 4325 
L 1884 747 
Q 1884 391 1914 303 
Q 1944 216 2037 169 
Q 2131 122 2419 116 
L 2419 0 
L 825 0 
L 825 116 
Q 1125 122 1212 167 
Q 1300 213 1334 289 
Q 1369 366 1369 747 
L 1369 3034 
Q 1369 3497 1338 3628 
Q 1316 3728 1258 3775 
Q 1200 3822 1119 3822 
Q 1003 3822 797 3725 
L 750 3822 
z
" transform="scale(0.015625)"/>
       </defs>
       <use xlink:href="#TimesNewRomanPSMT-30"/>
       <use xlink:href="#TimesNewRomanPSMT-2e" x="50"/>
       <use xlink:href="#TimesNewRomanPSMT-31" x="75"/>
      </g>
     </g>
    </g>
    <g id="xtick_3">
     <g id="line2d_5">
      <path d="M 183.637602 288.672 
L 183.637602 22.56 
" clip-path="url(#pe5af69d8a2)" style="fill: none; stroke: #b0b0b0; stroke-width: 0.8; stroke-linecap: square"/>
     </g>
     <g id="line2d_6">
      <g>
       <use xlink:href="#m94cbedb540" x="183.637602" y="288.672" style="stroke: #000000; stroke-width: 0.8"/>
      </g>
     </g>
     <g id="text_3">
      <!-- 0.2 -->
      <g transform="translate(177.387602 302.61575) scale(0.1 -0.1)">
       <defs>
        <path id="TimesNewRomanPSMT-32" d="M 2934 816 
L 2638 0 
L 138 0 
L 138 116 
Q 1241 1122 1691 1759 
Q 2141 2397 2141 2925 
Q 2141 3328 1894 3587 
Q 1647 3847 1303 3847 
Q 991 3847 742 3664 
Q 494 3481 375 3128 
L 259 3128 
Q 338 3706 661 4015 
Q 984 4325 1469 4325 
Q 1984 4325 2329 3994 
Q 2675 3663 2675 3213 
Q 2675 2891 2525 2569 
Q 2294 2063 1775 1497 
Q 997 647 803 472 
L 1909 472 
Q 2247 472 2383 497 
Q 2519 522 2628 598 
Q 2738 675 2819 816 
L 2934 816 
z
" transform="scale(0.015625)"/>
       </defs>
       <use xlink:href="#TimesNewRomanPSMT-30"/>
       <use xlink:href="#TimesNewRomanPSMT-2e" x="50"/>
       <use xlink:href="#TimesNewRomanPSMT-32" x="75"/>
      </g>
     </g>
    </g>
    <g id="xtick_4">
     <g id="line2d_7">
      <path d="M 248.698633 288.672 
L 248.698633 22.56 
" clip-path="url(#pe5af69d8a2)" style="fill: none; stroke: #b0b0b0; stroke-width: 0.8; stroke-linecap: square"/>
     </g>
     <g id="line2d_8">
      <g>
       <use xlink:href="#m94cbedb540" x="248.698633" y="288.672" style="stroke: #000000; stroke-width: 0.8"/>
      </g>
     </g>
     <g id="text_4">
      <!-- 0.3 -->
      <g transform="translate(242.448633 302.61575) scale(0.1 -0.1)">
       <defs>
        <path id="TimesNewRomanPSMT-33" d="M 325 3431 
Q 506 3859 782 4092 
Q 1059 4325 1472 4325 
Q 1981 4325 2253 3994 
Q 2459 3747 2459 3466 
Q 2459 3003 1878 2509 
Q 2269 2356 2469 2072 
Q 2669 1788 2669 1403 
Q 2669 853 2319 450 
Q 1863 -75 997 -75 
Q 569 -75 414 31 
Q 259 138 259 259 
Q 259 350 332 419 
Q 406 488 509 488 
Q 588 488 669 463 
Q 722 447 909 348 
Q 1097 250 1169 231 
Q 1284 197 1416 197 
Q 1734 197 1970 444 
Q 2206 691 2206 1028 
Q 2206 1275 2097 1509 
Q 2016 1684 1919 1775 
Q 1784 1900 1550 2001 
Q 1316 2103 1072 2103 
L 972 2103 
L 972 2197 
Q 1219 2228 1467 2375 
Q 1716 2522 1828 2728 
Q 1941 2934 1941 3181 
Q 1941 3503 1739 3701 
Q 1538 3900 1238 3900 
Q 753 3900 428 3381 
L 325 3431 
z
" transform="scale(0.015625)"/>
       </defs>
       <use xlink:href="#TimesNewRomanPSMT-30"/>
       <use xlink:href="#TimesNewRomanPSMT-2e" x="50"/>
       <use xlink:href="#TimesNewRomanPSMT-33" x="75"/>
      </g>
     </g>
    </g>
    <g id="xtick_5">
     <g id="line2d_9">
      <path d="M 313.759664 288.672 
L 313.759664 22.56 
" clip-path="url(#pe5af69d8a2)" style="fill: none; stroke: #b0b0b0; stroke-width: 0.8; stroke-linecap: square"/>
     </g>
     <g id="line2d_10">
      <g>
       <use xlink:href="#m94cbedb540" x="313.759664" y="288.672" style="stroke: #000000; stroke-width: 0.8"/>
      </g>
     </g>
     <g id="text_5">
      <!-- 0.4 -->
      <g transform="translate(307.509664 302.61575) scale(0.1 -0.1)">
       <defs>
        <path id="TimesNewRomanPSMT-34" d="M 2978 1563 
L 2978 1119 
L 2409 1119 
L 2409 0 
L 1894 0 
L 1894 1119 
L 100 1119 
L 100 1519 
L 2066 4325 
L 2409 4325 
L 2409 1563 
L 2978 1563 
z
M 1894 1563 
L 1894 3666 
L 406 1563 
L 1894 1563 
z
" transform="scale(0.015625)"/>
       </defs>
       <use xlink:href="#TimesNewRomanPSMT-30"/>
       <use xlink:href="#TimesNewRomanPSMT-2e" x="50"/>
       <use xlink:href="#TimesNewRomanPSMT-34" x="75"/>
      </g>
     </g>
    </g>
    <g id="xtick_6">
     <g id="line2d_11">
      <path d="M 378.820696 288.672 
L 378.820696 22.56 
" clip-path="url(#pe5af69d8a2)" style="fill: none; stroke: #b0b0b0; stroke-width: 0.8; stroke-linecap: square"/>
     </g>
     <g id="line2d_12">
      <g>
       <use xlink:href="#m94cbedb540" x="378.820696" y="288.672" style="stroke: #000000; stroke-width: 0.8"/>
      </g>
     </g>
     <g id="text_6">
      <!-- 0.5 -->
      <g transform="translate(372.570696 302.61575) scale(0.1 -0.1)">
       <defs>
        <path id="TimesNewRomanPSMT-35" d="M 2778 4238 
L 2534 3706 
L 1259 3706 
L 981 3138 
Q 1809 3016 2294 2522 
Q 2709 2097 2709 1522 
Q 2709 1188 2573 903 
Q 2438 619 2231 419 
Q 2025 219 1772 97 
Q 1413 -75 1034 -75 
Q 653 -75 479 54 
Q 306 184 306 341 
Q 306 428 378 495 
Q 450 563 559 563 
Q 641 563 702 538 
Q 763 513 909 409 
Q 1144 247 1384 247 
Q 1750 247 2026 523 
Q 2303 800 2303 1197 
Q 2303 1581 2056 1914 
Q 1809 2247 1375 2428 
Q 1034 2569 447 2591 
L 1259 4238 
L 2778 4238 
z
" transform="scale(0.015625)"/>
       </defs>
       <use xlink:href="#TimesNewRomanPSMT-30"/>
       <use xlink:href="#TimesNewRomanPSMT-2e" x="50"/>
       <use xlink:href="#TimesNewRomanPSMT-35" x="75"/>
      </g>
     </g>
    </g>
    <g id="text_7">
     <!-- $f$ -->
     <g transform="translate(213.392813 315.81575) scale(0.1 -0.1)">
      <defs>
       <path id="Cmmi10-66" d="M 622 -1056 
Q 741 -1147 909 -1147 
Q 1138 -1147 1281 -641 
Q 1341 -397 1606 966 
L 1900 2534 
L 1350 2534 
Q 1288 2534 1288 2619 
Q 1313 2759 1369 2759 
L 1941 2759 
L 2016 3175 
Q 2053 3369 2084 3508 
Q 2116 3647 2152 3765 
Q 2188 3884 2259 4031 
Q 2369 4241 2555 4377 
Q 2741 4513 2956 4513 
Q 3097 4513 3230 4461 
Q 3363 4409 3447 4306 
Q 3531 4203 3531 4063 
Q 3531 3900 3423 3779 
Q 3316 3659 3163 3659 
Q 3059 3659 2986 3723 
Q 2913 3788 2913 3891 
Q 2913 4031 3008 4136 
Q 3103 4241 3244 4256 
Q 3125 4347 2950 4347 
Q 2853 4347 2767 4256 
Q 2681 4166 2656 4063 
Q 2616 3900 2478 3181 
L 2400 2759 
L 3059 2759 
Q 3122 2759 3122 2675 
Q 3119 2659 3109 2620 
Q 3100 2581 3083 2557 
Q 3066 2534 3041 2534 
L 2356 2534 
L 2059 972 
Q 2003 631 1929 279 
Q 1856 -72 1723 -442 
Q 1591 -813 1384 -1063 
Q 1178 -1313 897 -1313 
Q 681 -1313 511 -1189 
Q 341 -1066 341 -863 
Q 341 -700 445 -579 
Q 550 -459 709 -459 
Q 816 -459 887 -523 
Q 959 -588 959 -691 
Q 959 -828 857 -942 
Q 756 -1056 622 -1056 
z
" transform="scale(0.015625)"/>
      </defs>
      <use xlink:href="#Cmmi10-66" transform="translate(0 0.484375)"/>
     </g>
    </g>
   </g>
   <g id="matplotlib.axis_2">
    <g id="ytick_1">
     <g id="line2d_13">
      <path d="M 37.282813 276.600447 
L 394.402812 276.600447 
" clip-path="url(#pe5af69d8a2)" style="fill: none; stroke: #b0b0b0; stroke-width: 0.8; stroke-linecap: square"/>
     </g>
     <g id="line2d_14">
      <defs>
       <path id="m99cbad039b" d="M 0 0 
L -3.5 0 
" style="stroke: #000000; stroke-width: 0.8"/>
      </defs>
      <g>
       <use xlink:href="#m99cbad039b" x="37.282813" y="276.600447" style="stroke: #000000; stroke-width: 0.8"/>
      </g>
     </g>
     <g id="text_8">
      <!-- 0 -->
      <g transform="translate(25.282813 280.072322) scale(0.1 -0.1)">
       <use xlink:href="#TimesNewRomanPSMT-30"/>
      </g>
     </g>
    </g>
    <g id="ytick_2">
     <g id="line2d_15">
      <path d="M 37.282813 237.609198 
L 394.402812 237.609198 
" clip-path="url(#pe5af69d8a2)" style="fill: none; stroke: #b0b0b0; stroke-width: 0.8; stroke-linecap: square"/>
     </g>
     <g id="line2d_16">
      <g>
       <use xlink:href="#m99cbad039b" x="37.282813" y="237.609198" style="stroke: #000000; stroke-width: 0.8"/>
      </g>
     </g>
     <g id="text_9">
      <!-- 2 -->
      <g transform="translate(25.282813 241.081073) scale(0.1 -0.1)">
       <use xlink:href="#TimesNewRomanPSMT-32"/>
      </g>
     </g>
    </g>
    <g id="ytick_3">
     <g id="line2d_17">
      <path d="M 37.282813 198.617949 
L 394.402812 198.617949 
" clip-path="url(#pe5af69d8a2)" style="fill: none; stroke: #b0b0b0; stroke-width: 0.8; stroke-linecap: square"/>
     </g>
     <g id="line2d_18">
      <g>
       <use xlink:href="#m99cbad039b" x="37.282813" y="198.617949" style="stroke: #000000; stroke-width: 0.8"/>
      </g>
     </g>
     <g id="text_10">
      <!-- 4 -->
      <g transform="translate(25.282813 202.089824) scale(0.1 -0.1)">
       <use xlink:href="#TimesNewRomanPSMT-34"/>
      </g>
     </g>
    </g>
    <g id="ytick_4">
     <g id="line2d_19">
      <path d="M 37.282813 159.626699 
L 394.402812 159.626699 
" clip-path="url(#pe5af69d8a2)" style="fill: none; stroke: #b0b0b0; stroke-width: 0.8; stroke-linecap: square"/>
     </g>
     <g id="line2d_20">
      <g>
       <use xlink:href="#m99cbad039b" x="37.282813" y="159.626699" style="stroke: #000000; stroke-width: 0.8"/>
      </g>
     </g>
     <g id="text_11">
      <!-- 6 -->
      <g transform="translate(25.282813 163.098574) scale(0.1 -0.1)">
       <defs>
        <path id="TimesNewRomanPSMT-36" d="M 2869 4325 
L 2869 4209 
Q 2456 4169 2195 4045 
Q 1934 3922 1679 3669 
Q 1425 3416 1258 3105 
Q 1091 2794 978 2366 
Q 1428 2675 1881 2675 
Q 2316 2675 2634 2325 
Q 2953 1975 2953 1425 
Q 2953 894 2631 456 
Q 2244 -75 1606 -75 
Q 1172 -75 869 213 
Q 275 772 275 1663 
Q 275 2231 503 2743 
Q 731 3256 1154 3653 
Q 1578 4050 1965 4187 
Q 2353 4325 2688 4325 
L 2869 4325 
z
M 925 2138 
Q 869 1716 869 1456 
Q 869 1156 980 804 
Q 1091 453 1309 247 
Q 1469 100 1697 100 
Q 1969 100 2183 356 
Q 2397 613 2397 1088 
Q 2397 1622 2184 2012 
Q 1972 2403 1581 2403 
Q 1463 2403 1327 2353 
Q 1191 2303 925 2138 
z
" transform="scale(0.015625)"/>
       </defs>
       <use xlink:href="#TimesNewRomanPSMT-36"/>
      </g>
     </g>
    </g>
    <g id="ytick_5">
     <g id="line2d_21">
      <path d="M 37.282813 120.63545 
L 394.402812 120.63545 
" clip-path="url(#pe5af69d8a2)" style="fill: none; stroke: #b0b0b0; stroke-width: 0.8; stroke-linecap: square"/>
     </g>
     <g id="line2d_22">
      <g>
       <use xlink:href="#m99cbad039b" x="37.282813" y="120.63545" style="stroke: #000000; stroke-width: 0.8"/>
      </g>
     </g>
     <g id="text_12">
      <!-- 8 -->
      <g transform="translate(25.282813 124.107325) scale(0.1 -0.1)">
       <defs>
        <path id="TimesNewRomanPSMT-38" d="M 1228 2134 
Q 725 2547 579 2797 
Q 434 3047 434 3316 
Q 434 3728 753 4026 
Q 1072 4325 1600 4325 
Q 2113 4325 2425 4047 
Q 2738 3769 2738 3413 
Q 2738 3175 2569 2928 
Q 2400 2681 1866 2347 
Q 2416 1922 2594 1678 
Q 2831 1359 2831 1006 
Q 2831 559 2490 242 
Q 2150 -75 1597 -75 
Q 994 -75 656 303 
Q 388 606 388 966 
Q 388 1247 577 1523 
Q 766 1800 1228 2134 
z
M 1719 2469 
Q 2094 2806 2194 3001 
Q 2294 3197 2294 3444 
Q 2294 3772 2109 3958 
Q 1925 4144 1606 4144 
Q 1288 4144 1088 3959 
Q 888 3775 888 3528 
Q 888 3366 970 3203 
Q 1053 3041 1206 2894 
L 1719 2469 
z
M 1375 2016 
Q 1116 1797 991 1539 
Q 866 1281 866 981 
Q 866 578 1086 336 
Q 1306 94 1647 94 
Q 1984 94 2187 284 
Q 2391 475 2391 747 
Q 2391 972 2272 1150 
Q 2050 1481 1375 2016 
z
" transform="scale(0.015625)"/>
       </defs>
       <use xlink:href="#TimesNewRomanPSMT-38"/>
      </g>
     </g>
    </g>
    <g id="ytick_6">
     <g id="line2d_23">
      <path d="M 37.282813 81.644201 
L 394.402812 81.644201 
" clip-path="url(#pe5af69d8a2)" style="fill: none; stroke: #b0b0b0; stroke-width: 0.8; stroke-linecap: square"/>
     </g>
     <g id="line2d_24">
      <g>
       <use xlink:href="#m99cbad039b" x="37.282813" y="81.644201" style="stroke: #000000; stroke-width: 0.8"/>
      </g>
     </g>
     <g id="text_13">
      <!-- 10 -->
      <g transform="translate(20.282813 85.116076) scale(0.1 -0.1)">
       <use xlink:href="#TimesNewRomanPSMT-31"/>
       <use xlink:href="#TimesNewRomanPSMT-30" x="50"/>
      </g>
     </g>
    </g>
    <g id="ytick_7">
     <g id="line2d_25">
      <path d="M 37.282813 42.652951 
L 394.402812 42.652951 
" clip-path="url(#pe5af69d8a2)" style="fill: none; stroke: #b0b0b0; stroke-width: 0.8; stroke-linecap: square"/>
     </g>
     <g id="line2d_26">
      <g>
       <use xlink:href="#m99cbad039b" x="37.282813" y="42.652951" style="stroke: #000000; stroke-width: 0.8"/>
      </g>
     </g>
     <g id="text_14">
      <!-- 12 -->
      <g transform="translate(20.282813 46.124826) scale(0.1 -0.1)">
       <use xlink:href="#TimesNewRomanPSMT-31"/>
       <use xlink:href="#TimesNewRomanPSMT-32" x="50"/>
      </g>
     </g>
    </g>
    <g id="text_15">
     <!-- $I$ -->
     <g transform="translate(14.14375 157.816) rotate(-90) scale(0.1 -0.1)">
      <defs>
       <path id="Cmmi10-49" d="M 269 0 
Q 206 0 206 84 
Q 231 225 288 225 
Q 666 225 800 250 
Q 947 284 984 441 
L 1863 3956 
Q 1875 4019 1875 4038 
Q 1875 4078 1854 4095 
Q 1834 4113 1791 4122 
Q 1663 4147 1306 4147 
Q 1241 4147 1241 4231 
Q 1263 4313 1275 4342 
Q 1288 4372 1350 4372 
L 3138 4372 
Q 3200 4372 3200 4288 
Q 3197 4272 3187 4234 
Q 3178 4197 3162 4172 
Q 3147 4147 3116 4147 
Q 2741 4147 2597 4122 
Q 2456 4088 2419 3928 
L 1544 416 
Q 1528 338 1528 331 
Q 1528 316 1533 302 
Q 1538 288 1552 277 
Q 1566 266 1580 261 
Q 1594 256 1613 250 
Q 1734 225 2100 225 
Q 2163 225 2163 141 
Q 2141 50 2128 25 
Q 2116 0 2053 0 
L 269 0 
z
" transform="scale(0.015625)"/>
      </defs>
      <use xlink:href="#Cmmi10-49" transform="translate(0 0.6875)"/>
     </g>
    </g>
   </g>
   <g id="line2d_27">
    <path d="M 53.51554 246.743345 
L 54.16615 198.448894 
L 54.81676 216.100323 
L 55.467371 265.397396 
L 56.117981 175.363091 
L 56.768591 259.065638 
L 57.419202 103.008094 
L 58.069812 263.485587 
L 58.720422 269.780844 
L 59.371033 103.428325 
L 60.021643 229.639244 
L 60.672253 223.690878 
L 61.322864 143.698607 
L 61.973474 264.285914 
L 62.624084 268.556291 
L 63.274694 239.791432 
L 63.925305 230.8326 
L 64.575915 206.045433 
L 65.226525 235.352221 
L 65.877136 202.712789 
L 66.527746 272.0937 
L 67.178356 258.031004 
L 67.828967 263.424543 
L 68.479577 235.950392 
L 69.130187 236.982372 
L 69.780798 207.68505 
L 70.431408 275.477274 
L 71.082018 274.443817 
L 71.732628 255.299858 
L 72.383239 276.138332 
L 73.033849 198.28355 
L 73.684459 256.548194 
L 74.33507 261.888793 
L 74.98568 193.196789 
L 75.63629 34.656 
L 76.286901 128.437007 
L 76.937511 173.298093 
L 77.588121 249.588963 
L 78.238732 218.86431 
L 78.889342 260.359237 
L 79.539952 271.24115 
L 80.190563 227.074185 
L 80.841173 236.417102 
L 81.491783 276.052366 
L 82.142393 261.392187 
L 82.793004 168.850905 
L 83.443614 176.047521 
L 84.094224 253.385691 
L 84.744835 234.036118 
L 85.395445 218.332083 
L 86.046055 265.837246 
L 86.696666 276.558309 
L 87.347276 202.129648 
L 88.648497 273.293675 
L 89.299107 255.313042 
L 89.949717 266.112148 
L 90.600328 187.27738 
L 91.250938 271.984577 
L 91.901548 272.5663 
L 92.552158 269.398325 
L 93.202769 268.493328 
L 93.853379 265.988501 
L 94.503989 230.45371 
L 95.1546 230.398543 
L 95.80521 274.224906 
L 96.45582 272.928709 
L 97.106431 243.625777 
L 97.757041 266.476019 
L 98.407651 201.178272 
L 99.058262 223.341255 
L 99.708872 225.142381 
L 100.359482 239.731733 
L 101.010093 244.587639 
L 101.660703 190.269624 
L 102.311313 261.906337 
L 102.961923 266.749774 
L 103.612534 266.573693 
L 104.263144 265.548178 
L 104.913754 265.010486 
L 105.564365 220.445812 
L 106.214975 248.309525 
L 106.865585 214.701856 
L 107.516196 199.351079 
L 108.166806 260.657919 
L 108.817416 269.018717 
L 109.468027 245.463139 
L 110.118637 243.670332 
L 110.769247 271.519667 
L 111.419857 259.88289 
L 112.070468 260.559025 
L 112.721078 233.956908 
L 113.371688 137.22202 
L 114.022299 214.909288 
L 114.672909 211.145989 
L 115.323519 220.329902 
L 115.97413 232.483443 
L 116.62474 227.081435 
L 117.27535 245.663089 
L 117.925961 150.640524 
L 118.576571 209.836801 
L 119.227181 233.246497 
L 120.528402 247.807103 
L 121.179012 230.927053 
L 121.829622 263.306732 
L 122.480233 261.673241 
L 123.130843 206.237551 
L 124.432064 270.797494 
L 125.082674 144.575286 
L 125.733284 241.862684 
L 126.383895 244.767652 
L 127.034505 187.061245 
L 127.685115 154.429683 
L 128.335726 238.49709 
L 128.986336 137.331677 
L 129.636946 270.278198 
L 130.287557 268.061349 
L 130.938167 275.53401 
L 131.588777 122.823016 
L 132.239387 271.579515 
L 132.889998 155.210208 
L 133.540608 274.199047 
L 134.191218 226.612363 
L 134.841829 194.440085 
L 135.492439 276.288672 
L 136.143049 246.778839 
L 136.79366 269.272634 
L 137.44427 275.580027 
L 138.09488 223.416586 
L 138.745491 212.352981 
L 139.396101 211.612687 
L 140.046711 187.829635 
L 140.697322 198.535223 
L 141.347932 258.10003 
L 141.998542 252.580824 
L 142.649152 252.811656 
L 143.299763 249.807788 
L 143.950373 263.035592 
L 144.600983 271.299109 
L 145.251594 273.988886 
L 145.902204 229.927748 
L 146.552814 274.583104 
L 147.854035 227.174924 
L 149.155256 271.813 
L 149.805866 196.166556 
L 150.456476 189.030956 
L 151.107087 232.793855 
L 151.757697 138.610942 
L 152.408307 203.990259 
L 153.058917 217.967824 
L 153.709528 236.513401 
L 154.360138 249.795685 
L 155.010748 234.121808 
L 155.661359 252.030785 
L 156.311969 266.708538 
L 156.962579 210.684768 
L 157.61319 271.699942 
L 158.2638 169.524442 
L 158.91441 226.644776 
L 159.565021 236.467103 
L 160.215631 207.832741 
L 160.866241 275.124765 
L 161.516851 263.559369 
L 162.167462 268.083047 
L 162.818072 248.197161 
L 163.468682 246.589834 
L 164.119293 206.117909 
L 164.769903 273.153765 
L 165.420513 272.524457 
L 166.071124 261.806227 
L 166.721734 247.456911 
L 167.372344 269.653246 
L 168.022955 250.989046 
L 168.673565 275.680805 
L 169.324175 165.150785 
L 169.974786 273.705056 
L 170.625396 211.825788 
L 171.276006 254.057272 
L 171.926616 256.726527 
L 172.577227 271.528606 
L 173.227837 261.865793 
L 173.878447 260.540863 
L 174.529058 204.225189 
L 175.179668 254.95615 
L 175.830278 224.220469 
L 176.480889 260.092651 
L 177.131499 164.174775 
L 177.782109 239.601025 
L 178.43272 262.092021 
L 179.08333 270.105703 
L 179.73394 258.285463 
L 180.384551 258.418288 
L 181.035161 244.768195 
L 181.685771 276.258853 
L 182.336381 272.737191 
L 182.986992 255.323535 
L 183.637602 207.235883 
L 184.288212 260.001336 
L 184.938823 272.916812 
L 185.589433 256.091275 
L 186.240043 266.168713 
L 186.890654 272.029006 
L 187.541264 250.654437 
L 188.191874 274.97559 
L 188.842485 271.293834 
L 189.493095 241.776729 
L 190.143705 259.00298 
L 190.794316 221.228862 
L 191.444926 243.887584 
L 192.095536 244.38168 
L 192.746146 262.906797 
L 193.396757 273.723995 
L 194.047367 241.57549 
L 194.697977 260.178738 
L 195.348588 231.708359 
L 195.999198 209.576466 
L 196.649808 271.794022 
L 197.300419 261.935144 
L 197.951029 273.470765 
L 198.601639 272.081988 
L 199.25225 238.545746 
L 199.90286 272.750758 
L 200.55347 113.663731 
L 201.20408 256.347431 
L 201.854691 270.927911 
L 202.505301 232.402469 
L 203.155911 260.386336 
L 203.806522 269.308455 
L 204.457132 238.749025 
L 205.107742 226.009615 
L 205.758353 267.186116 
L 206.408963 216.597335 
L 207.059573 272.624612 
L 207.710184 269.524021 
L 208.360794 269.718291 
L 209.011404 270.852156 
L 209.662015 220.729865 
L 210.312625 258.714323 
L 210.963235 142.36279 
L 211.613845 205.591178 
L 212.915066 135.454196 
L 213.565676 258.718346 
L 214.216287 229.1023 
L 215.517507 253.823374 
L 216.168118 253.405303 
L 216.818728 189.394105 
L 217.469338 261.885272 
L 218.119949 252.054051 
L 218.770559 268.271117 
L 219.421169 242.423754 
L 220.72239 272.694789 
L 221.373 269.903168 
L 222.02361 218.188643 
L 222.674221 243.762894 
L 223.324831 262.147388 
L 223.975441 273.254688 
L 224.626052 220.899378 
L 225.276662 154.614097 
L 225.927272 199.177694 
L 226.577883 259.452106 
L 227.228493 276.576 
L 227.879103 238.185994 
L 228.529714 253.826759 
L 229.180324 266.40597 
L 229.830934 234.282265 
L 230.481545 112.304598 
L 231.132155 270.529689 
L 231.782765 276.040826 
L 232.433375 273.853315 
L 233.083986 264.795275 
L 233.734596 219.772056 
L 234.385206 230.538851 
L 235.035817 253.45024 
L 235.686427 255.40375 
L 236.337037 204.360559 
L 236.987648 260.518759 
L 237.638258 256.145017 
L 238.288868 245.666588 
L 238.939479 95.695163 
L 239.590089 232.07316 
L 240.240699 267.991537 
L 240.891309 261.697137 
L 241.54192 133.703547 
L 242.19253 241.247501 
L 243.493751 273.133426 
L 244.144361 267.882853 
L 244.794971 159.571648 
L 245.445582 236.424761 
L 246.096192 276.17217 
L 246.746802 260.463343 
L 247.397413 260.49968 
L 248.048023 260.702676 
L 248.698633 237.306544 
L 249.349244 259.672725 
L 249.999854 269.951957 
L 250.650464 273.66994 
L 251.301074 264.592669 
L 251.951685 235.668315 
L 252.602295 262.785207 
L 253.252905 249.905093 
L 253.903516 179.678842 
L 254.554126 259.723335 
L 255.204736 274.6155 
L 255.855347 237.127849 
L 256.505957 244.602525 
L 257.156567 275.91531 
L 257.807178 271.915684 
L 258.457788 259.799728 
L 259.108398 276.151267 
L 259.759009 260.593462 
L 260.409619 255.645849 
L 261.060229 270.027437 
L 261.710839 271.588956 
L 262.36145 213.329571 
L 263.01206 263.154424 
L 263.66267 213.885633 
L 264.313281 110.899455 
L 264.963891 235.150339 
L 265.614501 267.090062 
L 266.265112 231.83727 
L 266.915722 224.943418 
L 267.566332 265.233527 
L 268.216943 261.673228 
L 268.867553 274.210471 
L 269.518163 160.083707 
L 270.168774 182.667053 
L 270.819384 189.147308 
L 271.469994 253.300966 
L 272.120604 261.670091 
L 272.771215 257.343721 
L 273.421825 189.579181 
L 274.072435 42.879036 
L 274.723046 267.146648 
L 275.373656 273.261821 
L 276.024266 240.372746 
L 276.674877 249.458931 
L 277.325487 275.211659 
L 277.976097 270.542128 
L 278.626708 247.721583 
L 279.277318 265.001129 
L 279.927928 242.933999 
L 280.578538 266.722199 
L 281.229149 248.696256 
L 281.879759 267.258995 
L 282.530369 234.491766 
L 283.18098 235.340779 
L 283.83159 194.699568 
L 284.4822 276.48123 
L 285.132811 175.518577 
L 285.783421 204.701972 
L 286.434031 155.551043 
L 287.084642 244.69662 
L 287.735252 275.36913 
L 288.385862 275.25189 
L 289.036473 269.416354 
L 289.687083 270.559136 
L 290.337693 267.060373 
L 290.988303 256.241279 
L 291.638914 170.894014 
L 292.289524 249.306838 
L 292.940134 270.410353 
L 293.590745 233.378738 
L 294.241355 171.139261 
L 294.891965 240.297651 
L 295.542576 257.054861 
L 296.193186 218.339866 
L 296.843796 269.312277 
L 297.494407 132.312129 
L 298.145017 264.992553 
L 298.795627 206.515895 
L 299.446238 276.409522 
L 300.096848 247.020806 
L 300.747458 166.02754 
L 301.398068 230.655157 
L 302.048679 264.3875 
L 302.699289 269.09187 
L 303.349899 229.570406 
L 304.00051 200.838655 
L 304.65112 242.515341 
L 305.30173 127.889772 
L 305.952341 258.139347 
L 306.602951 263.404729 
L 307.253561 263.700818 
L 307.904172 225.986183 
L 308.554782 260.081558 
L 309.205392 264.384968 
L 309.856003 252.960445 
L 310.506613 251.558241 
L 311.157223 232.805212 
L 311.807833 223.382279 
L 312.458444 233.315296 
L 313.109054 274.539055 
L 313.759664 271.153186 
L 314.410275 100.94454 
L 315.060885 255.255648 
L 315.711495 252.033587 
L 316.362106 239.073694 
L 317.012716 260.320676 
L 317.663326 271.03442 
L 318.313937 196.104453 
L 318.964547 251.629715 
L 319.615157 224.842075 
L 320.265768 273.041778 
L 320.916378 245.046133 
L 321.566988 201.030747 
L 322.217598 270.812018 
L 322.868209 233.846991 
L 323.518819 253.174364 
L 324.169429 186.456226 
L 324.82004 269.386775 
L 325.47065 247.111394 
L 326.12126 194.521585 
L 326.771871 169.771725 
L 328.073091 210.710872 
L 328.723702 254.739859 
L 329.374312 276.31683 
L 330.024922 76.226408 
L 330.675532 230.391605 
L 331.326143 242.571353 
L 331.976753 229.158496 
L 332.627363 275.618211 
L 333.277974 275.249886 
L 333.928584 267.542366 
L 334.579194 275.41267 
L 335.229805 264.203713 
L 335.880415 239.599342 
L 336.531025 191.700073 
L 337.832246 263.420252 
L 338.482856 269.622371 
L 339.133467 255.708889 
L 339.784077 247.604423 
L 340.434687 264.273015 
L 341.085297 263.498416 
L 341.735908 266.862175 
L 342.386518 250.38075 
L 343.037128 245.308991 
L 343.687739 267.426228 
L 344.338349 231.675728 
L 344.988959 245.627514 
L 345.63957 229.302662 
L 346.29018 254.603935 
L 346.94079 261.335594 
L 347.591401 259.529977 
L 348.242011 269.843952 
L 348.892621 223.163582 
L 349.543232 272.036822 
L 350.193842 247.874773 
L 350.844452 254.884062 
L 351.495062 275.287161 
L 352.145673 224.165993 
L 352.796283 230.722035 
L 353.446893 252.878861 
L 354.097504 227.478498 
L 354.748114 272.865369 
L 355.398724 255.282405 
L 356.049335 224.216972 
L 356.699945 256.064799 
L 357.350555 275.57918 
L 358.001166 182.24462 
L 358.651776 273.974156 
L 359.302386 198.354867 
L 359.952997 247.489406 
L 360.603607 162.674009 
L 361.254217 260.831708 
L 361.904827 146.373672 
L 362.555438 274.917741 
L 363.206048 242.479231 
L 363.856658 272.944468 
L 364.507269 270.85225 
L 365.157879 271.570249 
L 365.808489 271.486006 
L 366.4591 275.315157 
L 367.10971 263.600181 
L 367.76032 275.431392 
L 368.410931 183.497543 
L 369.061541 170.506023 
L 369.712151 242.763628 
L 370.362761 249.386986 
L 371.013372 202.503551 
L 372.314592 228.707983 
L 372.965203 229.420267 
L 373.615813 239.559579 
L 374.266423 253.157395 
L 374.917034 258.31832 
L 375.567644 267.531098 
L 376.218254 272.296219 
L 376.868865 244.090677 
L 377.519475 266.382438 
L 378.170085 276.114668 
L 378.170085 276.114668 
" clip-path="url(#pe5af69d8a2)" style="fill: none; stroke: #000000; stroke-width: 1.5; stroke-linecap: square"/>
   </g>
   <g id="patch_3">
    <path d="M 37.282813 288.672 
L 37.282813 22.56 
" style="fill: none; stroke: #000000; stroke-width: 0.8; stroke-linejoin: miter; stroke-linecap: square"/>
   </g>
   <g id="patch_4">
    <path d="M 394.402812 288.672 
L 394.402812 22.56 
" style="fill: none; stroke: #000000; stroke-width: 0.8; stroke-linejoin: miter; stroke-linecap: square"/>
   </g>
   <g id="patch_5">
    <path d="M 37.282813 288.672 
L 394.402812 288.672 
" style="fill: none; stroke: #000000; stroke-width: 0.8; stroke-linejoin: miter; stroke-linecap: square"/>
   </g>
   <g id="patch_6">
    <path d="M 37.282813 22.56 
L 394.402812 22.56 
" style="fill: none; stroke: #000000; stroke-width: 0.8; stroke-linejoin: miter; stroke-linecap: square"/>
   </g>
   <g id="text_16">
    <!-- $I$ of 1000 values from $\mathcal{N}$(0,1) -->
    <g transform="translate(145.282813 16.56) scale(0.12 -0.12)">
     <defs>
      <path id="TimesNewRomanPSMT-20" transform="scale(0.015625)"/>
      <path id="TimesNewRomanPSMT-6f" d="M 1600 2947 
Q 2250 2947 2644 2453 
Q 2978 2031 2978 1484 
Q 2978 1100 2793 706 
Q 2609 313 2286 112 
Q 1963 -88 1566 -88 
Q 919 -88 538 428 
Q 216 863 216 1403 
Q 216 1797 411 2186 
Q 606 2575 925 2761 
Q 1244 2947 1600 2947 
z
M 1503 2744 
Q 1338 2744 1170 2645 
Q 1003 2547 900 2300 
Q 797 2053 797 1666 
Q 797 1041 1045 587 
Q 1294 134 1700 134 
Q 2003 134 2200 384 
Q 2397 634 2397 1244 
Q 2397 2006 2069 2444 
Q 1847 2744 1503 2744 
z
" transform="scale(0.015625)"/>
      <path id="TimesNewRomanPSMT-66" d="M 1319 2638 
L 1319 756 
Q 1319 356 1406 250 
Q 1522 113 1716 113 
L 1975 113 
L 1975 0 
L 266 0 
L 266 113 
L 394 113 
Q 519 113 622 175 
Q 725 238 764 344 
Q 803 450 803 756 
L 803 2638 
L 247 2638 
L 247 2863 
L 803 2863 
L 803 3050 
Q 803 3478 940 3775 
Q 1078 4072 1361 4255 
Q 1644 4438 1997 4438 
Q 2325 4438 2600 4225 
Q 2781 4084 2781 3909 
Q 2781 3816 2700 3733 
Q 2619 3650 2525 3650 
Q 2453 3650 2373 3701 
Q 2294 3753 2178 3923 
Q 2063 4094 1966 4153 
Q 1869 4213 1750 4213 
Q 1606 4213 1506 4136 
Q 1406 4059 1362 3898 
Q 1319 3738 1319 3069 
L 1319 2863 
L 2056 2863 
L 2056 2638 
L 1319 2638 
z
" transform="scale(0.015625)"/>
      <path id="TimesNewRomanPSMT-76" d="M 53 2863 
L 1400 2863 
L 1400 2747 
L 1313 2747 
Q 1191 2747 1127 2687 
Q 1063 2628 1063 2528 
Q 1063 2419 1128 2269 
L 1794 688 
L 2463 2328 
Q 2534 2503 2534 2594 
Q 2534 2638 2509 2666 
Q 2475 2713 2422 2730 
Q 2369 2747 2206 2747 
L 2206 2863 
L 3141 2863 
L 3141 2747 
Q 2978 2734 2916 2681 
Q 2806 2588 2719 2369 
L 1703 -88 
L 1575 -88 
L 553 2328 
Q 484 2497 421 2570 
Q 359 2644 263 2694 
Q 209 2722 53 2747 
L 53 2863 
z
" transform="scale(0.015625)"/>
      <path id="TimesNewRomanPSMT-61" d="M 1822 413 
Q 1381 72 1269 19 
Q 1100 -59 909 -59 
Q 613 -59 420 144 
Q 228 347 228 678 
Q 228 888 322 1041 
Q 450 1253 767 1440 
Q 1084 1628 1822 1897 
L 1822 2009 
Q 1822 2438 1686 2597 
Q 1550 2756 1291 2756 
Q 1094 2756 978 2650 
Q 859 2544 859 2406 
L 866 2225 
Q 866 2081 792 2003 
Q 719 1925 600 1925 
Q 484 1925 411 2006 
Q 338 2088 338 2228 
Q 338 2497 613 2722 
Q 888 2947 1384 2947 
Q 1766 2947 2009 2819 
Q 2194 2722 2281 2516 
Q 2338 2381 2338 1966 
L 2338 994 
Q 2338 584 2353 492 
Q 2369 400 2405 369 
Q 2441 338 2488 338 
Q 2538 338 2575 359 
Q 2641 400 2828 588 
L 2828 413 
Q 2478 -56 2159 -56 
Q 2006 -56 1915 50 
Q 1825 156 1822 413 
z
M 1822 616 
L 1822 1706 
Q 1350 1519 1213 1441 
Q 966 1303 859 1153 
Q 753 1003 753 825 
Q 753 600 887 451 
Q 1022 303 1197 303 
Q 1434 303 1822 616 
z
" transform="scale(0.015625)"/>
      <path id="TimesNewRomanPSMT-6c" d="M 1184 4444 
L 1184 647 
Q 1184 378 1223 290 
Q 1263 203 1344 158 
Q 1425 113 1647 113 
L 1647 0 
L 244 0 
L 244 113 
Q 441 113 512 153 
Q 584 194 625 287 
Q 666 381 666 647 
L 666 3247 
Q 666 3731 644 3842 
Q 622 3953 573 3993 
Q 525 4034 450 4034 
Q 369 4034 244 3984 
L 191 4094 
L 1044 4444 
L 1184 4444 
z
" transform="scale(0.015625)"/>
      <path id="TimesNewRomanPSMT-75" d="M 2709 2863 
L 2709 1128 
Q 2709 631 2732 520 
Q 2756 409 2807 365 
Q 2859 322 2928 322 
Q 3025 322 3147 375 
L 3191 266 
L 2334 -88 
L 2194 -88 
L 2194 519 
Q 1825 119 1631 15 
Q 1438 -88 1222 -88 
Q 981 -88 804 51 
Q 628 191 559 409 
Q 491 628 491 1028 
L 491 2306 
Q 491 2509 447 2587 
Q 403 2666 317 2708 
Q 231 2750 6 2747 
L 6 2863 
L 1009 2863 
L 1009 947 
Q 1009 547 1148 422 
Q 1288 297 1484 297 
Q 1619 297 1789 381 
Q 1959 466 2194 703 
L 2194 2325 
Q 2194 2569 2105 2655 
Q 2016 2741 1734 2747 
L 1734 2863 
L 2709 2863 
z
" transform="scale(0.015625)"/>
      <path id="TimesNewRomanPSMT-65" d="M 681 1784 
Q 678 1147 991 784 
Q 1303 422 1725 422 
Q 2006 422 2214 576 
Q 2422 731 2563 1106 
L 2659 1044 
Q 2594 616 2278 264 
Q 1963 -88 1488 -88 
Q 972 -88 605 314 
Q 238 716 238 1394 
Q 238 2128 614 2539 
Q 991 2950 1559 2950 
Q 2041 2950 2350 2633 
Q 2659 2316 2659 1784 
L 681 1784 
z
M 681 1966 
L 2006 1966 
Q 1991 2241 1941 2353 
Q 1863 2528 1708 2628 
Q 1553 2728 1384 2728 
Q 1125 2728 920 2526 
Q 716 2325 681 1966 
z
" transform="scale(0.015625)"/>
      <path id="TimesNewRomanPSMT-73" d="M 2050 2947 
L 2050 1972 
L 1947 1972 
Q 1828 2431 1642 2597 
Q 1456 2763 1169 2763 
Q 950 2763 815 2647 
Q 681 2531 681 2391 
Q 681 2216 781 2091 
Q 878 1963 1175 1819 
L 1631 1597 
Q 2266 1288 2266 781 
Q 2266 391 1970 151 
Q 1675 -88 1309 -88 
Q 1047 -88 709 6 
Q 606 38 541 38 
Q 469 38 428 -44 
L 325 -44 
L 325 978 
L 428 978 
Q 516 541 762 319 
Q 1009 97 1316 97 
Q 1531 97 1667 223 
Q 1803 350 1803 528 
Q 1803 744 1651 891 
Q 1500 1038 1047 1263 
Q 594 1488 453 1669 
Q 313 1847 313 2119 
Q 313 2472 555 2709 
Q 797 2947 1181 2947 
Q 1350 2947 1591 2875 
Q 1750 2828 1803 2828 
Q 1853 2828 1881 2850 
Q 1909 2872 1947 2947 
L 2050 2947 
z
" transform="scale(0.015625)"/>
      <path id="TimesNewRomanPSMT-72" d="M 1038 2947 
L 1038 2303 
Q 1397 2947 1775 2947 
Q 1947 2947 2059 2842 
Q 2172 2738 2172 2600 
Q 2172 2478 2090 2393 
Q 2009 2309 1897 2309 
Q 1788 2309 1652 2417 
Q 1516 2525 1450 2525 
Q 1394 2525 1328 2463 
Q 1188 2334 1038 2041 
L 1038 669 
Q 1038 431 1097 309 
Q 1138 225 1241 169 
Q 1344 113 1538 113 
L 1538 0 
L 72 0 
L 72 113 
Q 291 113 397 181 
Q 475 231 506 341 
Q 522 394 522 644 
L 522 1753 
Q 522 2253 501 2348 
Q 481 2444 426 2487 
Q 372 2531 291 2531 
Q 194 2531 72 2484 
L 41 2597 
L 906 2947 
L 1038 2947 
z
" transform="scale(0.015625)"/>
      <path id="TimesNewRomanPSMT-6d" d="M 1050 2338 
Q 1363 2650 1419 2697 
Q 1559 2816 1721 2881 
Q 1884 2947 2044 2947 
Q 2313 2947 2506 2790 
Q 2700 2634 2766 2338 
Q 3088 2713 3309 2830 
Q 3531 2947 3766 2947 
Q 3994 2947 4170 2830 
Q 4347 2713 4450 2447 
Q 4519 2266 4519 1878 
L 4519 647 
Q 4519 378 4559 278 
Q 4591 209 4675 161 
Q 4759 113 4950 113 
L 4950 0 
L 3538 0 
L 3538 113 
L 3597 113 
Q 3781 113 3884 184 
Q 3956 234 3988 344 
Q 4000 397 4000 647 
L 4000 1878 
Q 4000 2228 3916 2372 
Q 3794 2572 3525 2572 
Q 3359 2572 3192 2489 
Q 3025 2406 2788 2181 
L 2781 2147 
L 2788 2013 
L 2788 647 
Q 2788 353 2820 281 
Q 2853 209 2943 161 
Q 3034 113 3253 113 
L 3253 0 
L 1806 0 
L 1806 113 
Q 2044 113 2133 169 
Q 2222 225 2256 338 
Q 2272 391 2272 647 
L 2272 1878 
Q 2272 2228 2169 2381 
Q 2031 2581 1784 2581 
Q 1616 2581 1450 2491 
Q 1191 2353 1050 2181 
L 1050 647 
Q 1050 366 1089 281 
Q 1128 197 1204 155 
Q 1281 113 1516 113 
L 1516 0 
L 100 0 
L 100 113 
Q 297 113 375 155 
Q 453 197 493 289 
Q 534 381 534 647 
L 534 1741 
Q 534 2213 506 2350 
Q 484 2453 437 2492 
Q 391 2531 309 2531 
Q 222 2531 100 2484 
L 53 2597 
L 916 2947 
L 1050 2947 
L 1050 2338 
z
" transform="scale(0.015625)"/>
      <path id="Cmsy10-4e" d="M -184 13 
Q -184 131 -103 322 
Q -22 513 72 513 
Q 84 513 91 506 
Q 294 294 594 294 
Q 763 294 892 598 
Q 1022 903 1147 1306 
Q 1213 1509 1308 1837 
Q 1403 2166 1453 2369 
Q 1497 2538 1558 2827 
Q 1619 3116 1658 3331 
Q 1697 3547 1728 3772 
Q 1759 3997 1784 4244 
Q 1784 4278 1831 4325 
Q 1900 4397 1997 4453 
Q 2088 4494 2181 4513 
L 2234 4513 
Q 2272 4494 2278 4469 
Q 2438 3909 2675 3200 
Q 2891 2544 3044 2125 
Q 3197 1706 3405 1242 
Q 3613 778 3859 384 
Q 4194 1819 4525 2988 
L 4609 3284 
Q 4747 3769 4836 4039 
Q 4925 4309 5063 4525 
Q 5175 4700 5356 4800 
Q 5538 4900 5753 4942 
Q 5969 4984 6203 4984 
Q 6259 4984 6259 4878 
Q 6259 4803 6226 4686 
Q 6194 4569 6137 4478 
Q 6081 4388 6009 4372 
Q 5756 4372 5557 4331 
Q 5359 4291 5197 4184 
Q 5116 4125 5102 4094 
Q 5088 4063 5038 3909 
Q 4956 3684 4872 3366 
L 4788 3078 
Q 4625 2491 4498 2006 
Q 4372 1522 4256 1045 
Q 4141 569 4031 84 
Q 4034 84 4029 92 
Q 4025 100 4025 103 
Q 4025 47 3951 -15 
Q 3878 -78 3783 -120 
Q 3688 -163 3628 -172 
L 3584 -172 
Q 3478 -119 3222 368 
Q 2966 856 2834 1172 
Q 2359 2347 1966 3628 
Q 1916 3319 1759 2648 
Q 1603 1978 1387 1297 
Q 1172 616 914 148 
Q 656 -319 397 -319 
Q 231 -319 23 -225 
Q -184 -131 -184 13 
z
" transform="scale(0.015625)"/>
      <path id="TimesNewRomanPSMT-28" d="M 1988 -1253 
L 1988 -1369 
Q 1516 -1131 1200 -813 
Q 750 -359 506 256 
Q 263 872 263 1534 
Q 263 2503 741 3301 
Q 1219 4100 1988 4444 
L 1988 4313 
Q 1603 4100 1356 3731 
Q 1109 3363 987 2797 
Q 866 2231 866 1616 
Q 866 947 969 400 
Q 1050 -31 1165 -292 
Q 1281 -553 1476 -793 
Q 1672 -1034 1988 -1253 
z
" transform="scale(0.015625)"/>
      <path id="TimesNewRomanPSMT-2c" d="M 344 -1066 
L 344 -928 
Q 666 -822 842 -598 
Q 1019 -375 1019 -125 
Q 1019 -66 991 -25 
Q 969 3 947 3 
Q 913 3 797 -59 
Q 741 -88 678 -88 
Q 525 -88 434 3 
Q 344 94 344 253 
Q 344 406 461 515 
Q 578 625 747 625 
Q 953 625 1114 445 
Q 1275 266 1275 -31 
Q 1275 -353 1051 -629 
Q 828 -906 344 -1066 
z
" transform="scale(0.015625)"/>
      <path id="TimesNewRomanPSMT-29" d="M 144 4313 
L 144 4444 
Q 619 4209 934 3891 
Q 1381 3434 1625 2820 
Q 1869 2206 1869 1541 
Q 1869 572 1392 -226 
Q 916 -1025 144 -1369 
L 144 -1253 
Q 528 -1038 776 -670 
Q 1025 -303 1145 264 
Q 1266 831 1266 1447 
Q 1266 2113 1163 2663 
Q 1084 3094 967 3353 
Q 850 3613 656 3853 
Q 463 4094 144 4313 
z
" transform="scale(0.015625)"/>
     </defs>
     <use xlink:href="#Cmmi10-49" transform="translate(0 0.125)"/>
     <use xlink:href="#TimesNewRomanPSMT-20" transform="translate(43.896484 0.125)"/>
     <use xlink:href="#TimesNewRomanPSMT-6f" transform="translate(68.896484 0.125)"/>
     <use xlink:href="#TimesNewRomanPSMT-66" transform="translate(118.896484 0.125)"/>
     <use xlink:href="#TimesNewRomanPSMT-20" transform="translate(152.197266 0.125)"/>
     <use xlink:href="#TimesNewRomanPSMT-31" transform="translate(177.197266 0.125)"/>
     <use xlink:href="#TimesNewRomanPSMT-30" transform="translate(227.197266 0.125)"/>
     <use xlink:href="#TimesNewRomanPSMT-30" transform="translate(277.197266 0.125)"/>
     <use xlink:href="#TimesNewRomanPSMT-30" transform="translate(327.197266 0.125)"/>
     <use xlink:href="#TimesNewRomanPSMT-20" transform="translate(377.197266 0.125)"/>
     <use xlink:href="#TimesNewRomanPSMT-76" transform="translate(402.197266 0.125)"/>
     <use xlink:href="#TimesNewRomanPSMT-61" transform="translate(452.197266 0.125)"/>
     <use xlink:href="#TimesNewRomanPSMT-6c" transform="translate(496.582031 0.125)"/>
     <use xlink:href="#TimesNewRomanPSMT-75" transform="translate(524.365234 0.125)"/>
     <use xlink:href="#TimesNewRomanPSMT-65" transform="translate(574.365234 0.125)"/>
     <use xlink:href="#TimesNewRomanPSMT-73" transform="translate(618.75 0.125)"/>
     <use xlink:href="#TimesNewRomanPSMT-20" transform="translate(657.666016 0.125)"/>
     <use xlink:href="#TimesNewRomanPSMT-66" transform="translate(682.666016 0.125)"/>
     <use xlink:href="#TimesNewRomanPSMT-72" transform="translate(715.966797 0.125)"/>
     <use xlink:href="#TimesNewRomanPSMT-6f" transform="translate(749.267578 0.125)"/>
     <use xlink:href="#TimesNewRomanPSMT-6d" transform="translate(799.267578 0.125)"/>
     <use xlink:href="#TimesNewRomanPSMT-20" transform="translate(877.050781 0.125)"/>
     <use xlink:href="#Cmsy10-4e" transform="translate(902.050781 0.125)"/>
     <use xlink:href="#TimesNewRomanPSMT-28" transform="translate(984.033203 0.125)"/>
     <use xlink:href="#TimesNewRomanPSMT-30" transform="translate(1017.333984 0.125)"/>
     <use xlink:href="#TimesNewRomanPSMT-2c" transform="translate(1067.333984 0.125)"/>
     <use xlink:href="#TimesNewRomanPSMT-31" transform="translate(1092.333984 0.125)"/>
     <use xlink:href="#TimesNewRomanPSMT-29" transform="translate(1142.333984 0.125)"/>
    </g>
   </g>
  </g>
 </g>
 <defs>
  <clipPath id="pe5af69d8a2">
   <rect x="37.282813" y="22.56" width="357.12" height="266.112"/>
  </clipPath>
 </defs>
</svg>
