<?xml version="1.0" encoding="utf-8" standalone="no"?>
<!DOCTYPE svg PUBLIC "-//W3C//DTD SVG 1.1//EN"
  "http://www.w3.org/Graphics/SVG/1.1/DTD/svg11.dtd">
<svg xmlns:xlink="http://www.w3.org/1999/xlink" width="402.241875pt" height="309.677625pt" viewBox="0 0 402.241875 309.677625" xmlns="http://www.w3.org/2000/svg" version="1.1">
 <metadata>
  <rdf:RDF xmlns:dc="http://purl.org/dc/elements/1.1/" xmlns:cc="http://creativecommons.org/ns#" xmlns:rdf="http://www.w3.org/1999/02/22-rdf-syntax-ns#">
   <cc:Work>
    <dc:type rdf:resource="http://purl.org/dc/dcmitype/StillImage"/>
    <dc:date>2025-04-05T16:43:57.816725</dc:date>
    <dc:format>image/svg+xml</dc:format>
    <dc:creator>
     <cc:Agent>
      <dc:title>Matplotlib v3.8.4, https://matplotlib.org/</dc:title>
     </cc:Agent>
    </dc:creator>
   </cc:Work>
  </rdf:RDF>
 </metadata>
 <defs>
  <style type="text/css">*{stroke-linejoin: round; stroke-linecap: butt}</style>
 </defs>
 <g id="figure_1">
  <g id="patch_1">
   <path d="M 0 309.677625 
L 402.241875 309.677625 
L 402.241875 0 
L 0 0 
L 0 309.677625 
z
" style="fill: none"/>
  </g>
  <g id="axes_1">
   <g id="patch_2">
    <path d="M 37.921875 273.312 
L 395.041875 273.312 
L 395.041875 7.2 
L 37.921875 7.2 
L 37.921875 273.312 
z
" style="fill: none"/>
   </g>
   <g id="matplotlib.axis_1">
    <g id="xtick_1">
     <g id="line2d_1">
      <path d="M 54.154602 273.312 
L 54.154602 7.2 
" clip-path="url(#p84e66d9dde)" style="fill: none; stroke: #b0b0b0; stroke-width: 0.8; stroke-linecap: square"/>
     </g>
     <g id="line2d_2">
      <defs>
       <path id="md3715f50fa" d="M 0 0 
L 0 3.5 
" style="stroke: #000000; stroke-width: 0.8"/>
      </defs>
      <g>
       <use xlink:href="#md3715f50fa" x="54.154602" y="273.312" style="stroke: #000000; stroke-width: 0.8"/>
      </g>
     </g>
     <g id="text_1">
      <!-- 0 -->
      <g transform="translate(51.654602 287.25575) scale(0.1 -0.1)">
       <defs>
        <path id="TimesNewRomanPSMT-30" d="M 231 2094 
Q 231 2819 450 3342 
Q 669 3866 1031 4122 
Q 1313 4325 1613 4325 
Q 2100 4325 2488 3828 
Q 2972 3213 2972 2159 
Q 2972 1422 2759 906 
Q 2547 391 2217 158 
Q 1888 -75 1581 -75 
Q 975 -75 572 641 
Q 231 1244 231 2094 
z
M 844 2016 
Q 844 1141 1059 588 
Q 1238 122 1591 122 
Q 1759 122 1940 273 
Q 2122 425 2216 781 
Q 2359 1319 2359 2297 
Q 2359 3022 2209 3506 
Q 2097 3866 1919 4016 
Q 1791 4119 1609 4119 
Q 1397 4119 1231 3928 
Q 1006 3669 925 3112 
Q 844 2556 844 2016 
z
" transform="scale(0.015625)"/>
       </defs>
       <use xlink:href="#TimesNewRomanPSMT-30"/>
      </g>
     </g>
    </g>
    <g id="xtick_2">
     <g id="line2d_3">
      <path d="M 119.150507 273.312 
L 119.150507 7.2 
" clip-path="url(#p84e66d9dde)" style="fill: none; stroke: #b0b0b0; stroke-width: 0.8; stroke-linecap: square"/>
     </g>
     <g id="line2d_4">
      <g>
       <use xlink:href="#md3715f50fa" x="119.150507" y="273.312" style="stroke: #000000; stroke-width: 0.8"/>
      </g>
     </g>
     <g id="text_2">
      <!-- 200 -->
      <g transform="translate(111.650507 287.25575) scale(0.1 -0.1)">
       <defs>
        <path id="TimesNewRomanPSMT-32" d="M 2934 816 
L 2638 0 
L 138 0 
L 138 116 
Q 1241 1122 1691 1759 
Q 2141 2397 2141 2925 
Q 2141 3328 1894 3587 
Q 1647 3847 1303 3847 
Q 991 3847 742 3664 
Q 494 3481 375 3128 
L 259 3128 
Q 338 3706 661 4015 
Q 984 4325 1469 4325 
Q 1984 4325 2329 3994 
Q 2675 3663 2675 3213 
Q 2675 2891 2525 2569 
Q 2294 2063 1775 1497 
Q 997 647 803 472 
L 1909 472 
Q 2247 472 2383 497 
Q 2519 522 2628 598 
Q 2738 675 2819 816 
L 2934 816 
z
" transform="scale(0.015625)"/>
       </defs>
       <use xlink:href="#TimesNewRomanPSMT-32"/>
       <use xlink:href="#TimesNewRomanPSMT-30" x="50"/>
       <use xlink:href="#TimesNewRomanPSMT-30" x="100"/>
      </g>
     </g>
    </g>
    <g id="xtick_3">
     <g id="line2d_5">
      <path d="M 184.146412 273.312 
L 184.146412 7.2 
" clip-path="url(#p84e66d9dde)" style="fill: none; stroke: #b0b0b0; stroke-width: 0.8; stroke-linecap: square"/>
     </g>
     <g id="line2d_6">
      <g>
       <use xlink:href="#md3715f50fa" x="184.146412" y="273.312" style="stroke: #000000; stroke-width: 0.8"/>
      </g>
     </g>
     <g id="text_3">
      <!-- 400 -->
      <g transform="translate(176.646412 287.25575) scale(0.1 -0.1)">
       <defs>
        <path id="TimesNewRomanPSMT-34" d="M 2978 1563 
L 2978 1119 
L 2409 1119 
L 2409 0 
L 1894 0 
L 1894 1119 
L 100 1119 
L 100 1519 
L 2066 4325 
L 2409 4325 
L 2409 1563 
L 2978 1563 
z
M 1894 1563 
L 1894 3666 
L 406 1563 
L 1894 1563 
z
" transform="scale(0.015625)"/>
       </defs>
       <use xlink:href="#TimesNewRomanPSMT-34"/>
       <use xlink:href="#TimesNewRomanPSMT-30" x="50"/>
       <use xlink:href="#TimesNewRomanPSMT-30" x="100"/>
      </g>
     </g>
    </g>
    <g id="xtick_4">
     <g id="line2d_7">
      <path d="M 249.142317 273.312 
L 249.142317 7.2 
" clip-path="url(#p84e66d9dde)" style="fill: none; stroke: #b0b0b0; stroke-width: 0.8; stroke-linecap: square"/>
     </g>
     <g id="line2d_8">
      <g>
       <use xlink:href="#md3715f50fa" x="249.142317" y="273.312" style="stroke: #000000; stroke-width: 0.8"/>
      </g>
     </g>
     <g id="text_4">
      <!-- 600 -->
      <g transform="translate(241.642317 287.25575) scale(0.1 -0.1)">
       <defs>
        <path id="TimesNewRomanPSMT-36" d="M 2869 4325 
L 2869 4209 
Q 2456 4169 2195 4045 
Q 1934 3922 1679 3669 
Q 1425 3416 1258 3105 
Q 1091 2794 978 2366 
Q 1428 2675 1881 2675 
Q 2316 2675 2634 2325 
Q 2953 1975 2953 1425 
Q 2953 894 2631 456 
Q 2244 -75 1606 -75 
Q 1172 -75 869 213 
Q 275 772 275 1663 
Q 275 2231 503 2743 
Q 731 3256 1154 3653 
Q 1578 4050 1965 4187 
Q 2353 4325 2688 4325 
L 2869 4325 
z
M 925 2138 
Q 869 1716 869 1456 
Q 869 1156 980 804 
Q 1091 453 1309 247 
Q 1469 100 1697 100 
Q 1969 100 2183 356 
Q 2397 613 2397 1088 
Q 2397 1622 2184 2012 
Q 1972 2403 1581 2403 
Q 1463 2403 1327 2353 
Q 1191 2303 925 2138 
z
" transform="scale(0.015625)"/>
       </defs>
       <use xlink:href="#TimesNewRomanPSMT-36"/>
       <use xlink:href="#TimesNewRomanPSMT-30" x="50"/>
       <use xlink:href="#TimesNewRomanPSMT-30" x="100"/>
      </g>
     </g>
    </g>
    <g id="xtick_5">
     <g id="line2d_9">
      <path d="M 314.138222 273.312 
L 314.138222 7.2 
" clip-path="url(#p84e66d9dde)" style="fill: none; stroke: #b0b0b0; stroke-width: 0.8; stroke-linecap: square"/>
     </g>
     <g id="line2d_10">
      <g>
       <use xlink:href="#md3715f50fa" x="314.138222" y="273.312" style="stroke: #000000; stroke-width: 0.8"/>
      </g>
     </g>
     <g id="text_5">
      <!-- 800 -->
      <g transform="translate(306.638222 287.25575) scale(0.1 -0.1)">
       <defs>
        <path id="TimesNewRomanPSMT-38" d="M 1228 2134 
Q 725 2547 579 2797 
Q 434 3047 434 3316 
Q 434 3728 753 4026 
Q 1072 4325 1600 4325 
Q 2113 4325 2425 4047 
Q 2738 3769 2738 3413 
Q 2738 3175 2569 2928 
Q 2400 2681 1866 2347 
Q 2416 1922 2594 1678 
Q 2831 1359 2831 1006 
Q 2831 559 2490 242 
Q 2150 -75 1597 -75 
Q 994 -75 656 303 
Q 388 606 388 966 
Q 388 1247 577 1523 
Q 766 1800 1228 2134 
z
M 1719 2469 
Q 2094 2806 2194 3001 
Q 2294 3197 2294 3444 
Q 2294 3772 2109 3958 
Q 1925 4144 1606 4144 
Q 1288 4144 1088 3959 
Q 888 3775 888 3528 
Q 888 3366 970 3203 
Q 1053 3041 1206 2894 
L 1719 2469 
z
M 1375 2016 
Q 1116 1797 991 1539 
Q 866 1281 866 981 
Q 866 578 1086 336 
Q 1306 94 1647 94 
Q 1984 94 2187 284 
Q 2391 475 2391 747 
Q 2391 972 2272 1150 
Q 2050 1481 1375 2016 
z
" transform="scale(0.015625)"/>
       </defs>
       <use xlink:href="#TimesNewRomanPSMT-38"/>
       <use xlink:href="#TimesNewRomanPSMT-30" x="50"/>
       <use xlink:href="#TimesNewRomanPSMT-30" x="100"/>
      </g>
     </g>
    </g>
    <g id="xtick_6">
     <g id="line2d_11">
      <path d="M 379.134127 273.312 
L 379.134127 7.2 
" clip-path="url(#p84e66d9dde)" style="fill: none; stroke: #b0b0b0; stroke-width: 0.8; stroke-linecap: square"/>
     </g>
     <g id="line2d_12">
      <g>
       <use xlink:href="#md3715f50fa" x="379.134127" y="273.312" style="stroke: #000000; stroke-width: 0.8"/>
      </g>
     </g>
     <g id="text_6">
      <!-- 1000 -->
      <g transform="translate(369.134127 287.25575) scale(0.1 -0.1)">
       <defs>
        <path id="TimesNewRomanPSMT-31" d="M 750 3822 
L 1781 4325 
L 1884 4325 
L 1884 747 
Q 1884 391 1914 303 
Q 1944 216 2037 169 
Q 2131 122 2419 116 
L 2419 0 
L 825 0 
L 825 116 
Q 1125 122 1212 167 
Q 1300 213 1334 289 
Q 1369 366 1369 747 
L 1369 3034 
Q 1369 3497 1338 3628 
Q 1316 3728 1258 3775 
Q 1200 3822 1119 3822 
Q 1003 3822 797 3725 
L 750 3822 
z
" transform="scale(0.015625)"/>
       </defs>
       <use xlink:href="#TimesNewRomanPSMT-31"/>
       <use xlink:href="#TimesNewRomanPSMT-30" x="50"/>
       <use xlink:href="#TimesNewRomanPSMT-30" x="100"/>
       <use xlink:href="#TimesNewRomanPSMT-30" x="150"/>
      </g>
     </g>
    </g>
    <g id="text_7">
     <!-- $t$ -->
     <g transform="translate(214.631875 300.338562) scale(0.1 -0.1)">
      <defs>
       <path id="Cmmi10-74" d="M 397 519 
Q 397 613 416 697 
L 878 2534 
L 206 2534 
Q 141 2534 141 2619 
Q 166 2759 225 2759 
L 934 2759 
L 1191 3803 
Q 1216 3888 1291 3947 
Q 1366 4006 1459 4006 
Q 1541 4006 1595 3957 
Q 1650 3909 1650 3828 
Q 1650 3809 1648 3798 
Q 1647 3788 1644 3775 
L 1388 2759 
L 2047 2759 
Q 2113 2759 2113 2675 
Q 2109 2659 2100 2621 
Q 2091 2584 2075 2559 
Q 2059 2534 2028 2534 
L 1331 2534 
L 872 684 
Q 825 503 825 372 
Q 825 97 1013 97 
Q 1294 97 1511 361 
Q 1728 625 1844 941 
Q 1869 978 1894 978 
L 1972 978 
Q 1997 978 2012 961 
Q 2028 944 2028 922 
Q 2028 909 2022 903 
Q 1881 516 1612 222 
Q 1344 -72 997 -72 
Q 744 -72 570 93 
Q 397 259 397 519 
z
" transform="scale(0.015625)"/>
      </defs>
      <use xlink:href="#Cmmi10-74" transform="translate(0 0.40625)"/>
     </g>
    </g>
   </g>
   <g id="matplotlib.axis_2">
    <g id="ytick_1">
     <g id="line2d_13">
      <path d="M 37.921875 255.440834 
L 395.041875 255.440834 
" clip-path="url(#p84e66d9dde)" style="fill: none; stroke: #b0b0b0; stroke-width: 0.8; stroke-linecap: square"/>
     </g>
     <g id="line2d_14">
      <defs>
       <path id="m2513d9fc8b" d="M 0 0 
L -3.5 0 
" style="stroke: #000000; stroke-width: 0.8"/>
      </defs>
      <g>
       <use xlink:href="#m2513d9fc8b" x="37.921875" y="255.440834" style="stroke: #000000; stroke-width: 0.8"/>
      </g>
     </g>
     <g id="text_8">
      <!-- −3 -->
      <g transform="translate(20.282813 258.912709) scale(0.1 -0.1)">
       <defs>
        <path id="TimesNewRomanPSMT-2212" d="M 3484 2000 
L 116 2000 
L 116 2256 
L 3484 2256 
L 3484 2000 
z
" transform="scale(0.015625)"/>
        <path id="TimesNewRomanPSMT-33" d="M 325 3431 
Q 506 3859 782 4092 
Q 1059 4325 1472 4325 
Q 1981 4325 2253 3994 
Q 2459 3747 2459 3466 
Q 2459 3003 1878 2509 
Q 2269 2356 2469 2072 
Q 2669 1788 2669 1403 
Q 2669 853 2319 450 
Q 1863 -75 997 -75 
Q 569 -75 414 31 
Q 259 138 259 259 
Q 259 350 332 419 
Q 406 488 509 488 
Q 588 488 669 463 
Q 722 447 909 348 
Q 1097 250 1169 231 
Q 1284 197 1416 197 
Q 1734 197 1970 444 
Q 2206 691 2206 1028 
Q 2206 1275 2097 1509 
Q 2016 1684 1919 1775 
Q 1784 1900 1550 2001 
Q 1316 2103 1072 2103 
L 972 2103 
L 972 2197 
Q 1219 2228 1467 2375 
Q 1716 2522 1828 2728 
Q 1941 2934 1941 3181 
Q 1941 3503 1739 3701 
Q 1538 3900 1238 3900 
Q 753 3900 428 3381 
L 325 3431 
z
" transform="scale(0.015625)"/>
       </defs>
       <use xlink:href="#TimesNewRomanPSMT-2212"/>
       <use xlink:href="#TimesNewRomanPSMT-33" x="56.396484"/>
      </g>
     </g>
    </g>
    <g id="ytick_2">
     <g id="line2d_15">
      <path d="M 37.921875 217.464438 
L 395.041875 217.464438 
" clip-path="url(#p84e66d9dde)" style="fill: none; stroke: #b0b0b0; stroke-width: 0.8; stroke-linecap: square"/>
     </g>
     <g id="line2d_16">
      <g>
       <use xlink:href="#m2513d9fc8b" x="37.921875" y="217.464438" style="stroke: #000000; stroke-width: 0.8"/>
      </g>
     </g>
     <g id="text_9">
      <!-- −2 -->
      <g transform="translate(20.282813 220.936313) scale(0.1 -0.1)">
       <use xlink:href="#TimesNewRomanPSMT-2212"/>
       <use xlink:href="#TimesNewRomanPSMT-32" x="56.396484"/>
      </g>
     </g>
    </g>
    <g id="ytick_3">
     <g id="line2d_17">
      <path d="M 37.921875 179.488043 
L 395.041875 179.488043 
" clip-path="url(#p84e66d9dde)" style="fill: none; stroke: #b0b0b0; stroke-width: 0.8; stroke-linecap: square"/>
     </g>
     <g id="line2d_18">
      <g>
       <use xlink:href="#m2513d9fc8b" x="37.921875" y="179.488043" style="stroke: #000000; stroke-width: 0.8"/>
      </g>
     </g>
     <g id="text_10">
      <!-- −1 -->
      <g transform="translate(20.282813 182.959918) scale(0.1 -0.1)">
       <use xlink:href="#TimesNewRomanPSMT-2212"/>
       <use xlink:href="#TimesNewRomanPSMT-31" x="56.396484"/>
      </g>
     </g>
    </g>
    <g id="ytick_4">
     <g id="line2d_19">
      <path d="M 37.921875 141.511647 
L 395.041875 141.511647 
" clip-path="url(#p84e66d9dde)" style="fill: none; stroke: #b0b0b0; stroke-width: 0.8; stroke-linecap: square"/>
     </g>
     <g id="line2d_20">
      <g>
       <use xlink:href="#m2513d9fc8b" x="37.921875" y="141.511647" style="stroke: #000000; stroke-width: 0.8"/>
      </g>
     </g>
     <g id="text_11">
      <!-- 0 -->
      <g transform="translate(25.921875 144.983522) scale(0.1 -0.1)">
       <use xlink:href="#TimesNewRomanPSMT-30"/>
      </g>
     </g>
    </g>
    <g id="ytick_5">
     <g id="line2d_21">
      <path d="M 37.921875 103.535251 
L 395.041875 103.535251 
" clip-path="url(#p84e66d9dde)" style="fill: none; stroke: #b0b0b0; stroke-width: 0.8; stroke-linecap: square"/>
     </g>
     <g id="line2d_22">
      <g>
       <use xlink:href="#m2513d9fc8b" x="37.921875" y="103.535251" style="stroke: #000000; stroke-width: 0.8"/>
      </g>
     </g>
     <g id="text_12">
      <!-- 1 -->
      <g transform="translate(25.921875 107.007126) scale(0.1 -0.1)">
       <use xlink:href="#TimesNewRomanPSMT-31"/>
      </g>
     </g>
    </g>
    <g id="ytick_6">
     <g id="line2d_23">
      <path d="M 37.921875 65.558856 
L 395.041875 65.558856 
" clip-path="url(#p84e66d9dde)" style="fill: none; stroke: #b0b0b0; stroke-width: 0.8; stroke-linecap: square"/>
     </g>
     <g id="line2d_24">
      <g>
       <use xlink:href="#m2513d9fc8b" x="37.921875" y="65.558856" style="stroke: #000000; stroke-width: 0.8"/>
      </g>
     </g>
     <g id="text_13">
      <!-- 2 -->
      <g transform="translate(25.921875 69.030731) scale(0.1 -0.1)">
       <use xlink:href="#TimesNewRomanPSMT-32"/>
      </g>
     </g>
    </g>
    <g id="ytick_7">
     <g id="line2d_25">
      <path d="M 37.921875 27.58246 
L 395.041875 27.58246 
" clip-path="url(#p84e66d9dde)" style="fill: none; stroke: #b0b0b0; stroke-width: 0.8; stroke-linecap: square"/>
     </g>
     <g id="line2d_26">
      <g>
       <use xlink:href="#m2513d9fc8b" x="37.921875" y="27.58246" style="stroke: #000000; stroke-width: 0.8"/>
      </g>
     </g>
     <g id="text_14">
      <!-- 3 -->
      <g transform="translate(25.921875 31.054335) scale(0.1 -0.1)">
       <use xlink:href="#TimesNewRomanPSMT-33"/>
      </g>
     </g>
    </g>
    <g id="text_15">
     <!-- $y$ -->
     <g transform="translate(14.14375 142.756) rotate(-90) scale(0.1 -0.1)">
      <defs>
       <path id="Cmmi10-79" d="M 538 -916 
Q 672 -1147 1006 -1147 
Q 1309 -1147 1531 -934 
Q 1753 -722 1889 -420 
Q 2025 -119 2100 197 
Q 1816 -72 1484 -72 
Q 1231 -72 1053 15 
Q 875 103 776 276 
Q 678 450 678 697 
Q 678 906 734 1126 
Q 791 1347 892 1617 
Q 994 1888 1069 2088 
Q 1153 2322 1153 2472 
Q 1153 2663 1013 2663 
Q 759 2663 595 2402 
Q 431 2141 353 1819 
Q 341 1778 300 1778 
L 225 1778 
Q 172 1778 172 1838 
L 172 1856 
Q 275 2238 487 2533 
Q 700 2828 1025 2828 
Q 1253 2828 1411 2678 
Q 1569 2528 1569 2297 
Q 1569 2178 1516 2047 
Q 1488 1969 1388 1706 
Q 1288 1444 1234 1272 
Q 1181 1100 1147 934 
Q 1113 769 1113 603 
Q 1113 391 1203 244 
Q 1294 97 1491 97 
Q 1888 97 2203 581 
L 2688 2553 
Q 2709 2638 2787 2698 
Q 2866 2759 2956 2759 
Q 3034 2759 3092 2709 
Q 3150 2659 3150 2578 
Q 3150 2541 3144 2528 
L 2509 -19 
Q 2425 -347 2200 -647 
Q 1975 -947 1658 -1130 
Q 1341 -1313 997 -1313 
Q 831 -1313 668 -1248 
Q 506 -1184 406 -1056 
Q 306 -928 306 -756 
Q 306 -581 409 -453 
Q 513 -325 684 -325 
Q 788 -325 858 -389 
Q 928 -453 928 -556 
Q 928 -703 818 -812 
Q 709 -922 563 -922 
Q 556 -919 550 -917 
Q 544 -916 538 -916 
z
" transform="scale(0.015625)"/>
      </defs>
      <use xlink:href="#Cmmi10-79" transform="translate(0 0.8125)"/>
     </g>
    </g>
   </g>
   <g id="line2d_27">
    <path d="M 54.154602 188.502961 
L 54.479582 143.146364 
L 55.129541 178.726656 
L 55.45452 142.557776 
L 55.7795 168.016981 
L 56.104479 148.70604 
L 56.429459 191.069984 
L 56.754438 170.972086 
L 57.079418 172.574688 
L 57.729377 144.031582 
L 58.054357 88.091775 
L 58.379336 175.959364 
L 58.704316 122.065302 
L 59.029295 183.124749 
L 59.354275 189.362774 
L 59.679254 130.027282 
L 60.004234 160.766341 
L 60.329213 57.593616 
L 61.304152 195.915333 
L 61.629131 115.507327 
L 61.954111 165.350164 
L 62.27909 160.872734 
L 62.60407 168.539006 
L 62.929049 116.747101 
L 63.254029 128.018208 
L 63.579008 173.194957 
L 63.903988 131.735429 
L 64.228968 112.86185 
L 64.553947 117.298156 
L 65.203906 201.317753 
L 65.528886 215.858798 
L 65.853865 187.66882 
L 66.178845 122.730803 
L 66.503824 159.483479 
L 66.828804 159.321653 
L 67.153783 117.913023 
L 67.478763 153.610162 
L 67.803742 113.35716 
L 68.128722 138.9112 
L 68.453701 108.507398 
L 68.778681 89.354674 
L 69.10366 193.95931 
L 69.42864 106.077277 
L 69.753619 177.741463 
L 70.078599 111.784587 
L 70.403579 142.535886 
L 70.728558 143.071692 
L 71.053538 140.142932 
L 71.378517 197.480003 
L 71.703497 132.310386 
L 72.028476 194.329568 
L 72.353456 147.02721 
L 72.678435 127.885446 
L 73.003415 101.235322 
L 73.328394 162.490905 
L 73.653374 63.16998 
L 73.978353 171.489879 
L 74.303333 220.127709 
L 74.628312 147.767549 
L 74.953292 174.980281 
L 75.278271 120.910823 
L 75.603251 182.360438 
L 75.92823 126.860893 
L 76.25321 19.296 
L 76.578189 108.855454 
L 76.903169 116.227385 
L 77.228149 137.896551 
L 77.553128 98.416532 
L 77.878108 168.474228 
L 78.203087 125.594584 
L 78.528067 161.435513 
L 78.853046 153.946509 
L 79.178026 117.214001 
L 79.503005 121.53349 
L 80.152964 165.477851 
L 80.477944 219.427391 
L 80.802923 130.66838 
L 81.127903 145.928845 
L 81.452882 155.868144 
L 81.777862 131.560063 
L 82.102841 124.016488 
L 82.427821 156.462213 
L 82.7528 133.152763 
L 83.07778 198.820491 
L 83.40276 186.428099 
L 83.727739 161.462533 
L 84.052719 80.606995 
L 84.377698 111.690447 
L 84.702678 172.704056 
L 85.027657 202.65893 
L 85.352637 105.159468 
L 85.677616 92.508985 
L 86.002596 154.610366 
L 86.327575 109.696316 
L 86.652555 167.152305 
L 86.977534 126.670834 
L 87.302514 147.641959 
L 87.627493 125.140023 
L 87.952473 167.23219 
L 88.277452 121.662541 
L 88.602432 154.358227 
L 88.927411 151.51398 
L 89.252391 111.835877 
L 89.57737 106.376822 
L 89.90235 150.882903 
L 90.22733 100.042046 
L 90.552309 125.397459 
L 90.877289 125.64718 
L 91.202268 117.265798 
L 91.527248 186.531155 
L 91.852227 127.193152 
L 92.177207 162.561315 
L 92.827166 93.352179 
L 93.152145 176.577421 
L 93.477125 85.616494 
L 93.802104 98.332042 
L 94.127084 102.250694 
L 94.777043 140.232684 
L 95.102022 123.10999 
L 95.427002 156.067024 
L 95.751981 67.420437 
L 96.076961 181.622956 
L 96.401941 156.959643 
L 96.72692 194.007035 
L 97.0519 140.400092 
L 97.376879 118.31122 
L 98.026838 126.060054 
L 98.351818 219.149321 
L 98.676797 110.888069 
L 99.001777 194.876574 
L 99.326756 170.153886 
L 99.651736 184.962692 
L 99.976715 162.952573 
L 100.301695 126.682075 
L 100.626674 223.938244 
L 101.276633 101.207778 
L 101.601613 125.092017 
L 101.926592 219.725753 
L 102.576551 70.66989 
L 102.901531 146.013524 
L 103.226511 172.326524 
L 103.55149 121.974858 
L 103.87647 119.884195 
L 104.201449 178.392569 
L 104.526429 132.204695 
L 104.851408 126.45308 
L 105.176388 126.252102 
L 105.501367 157.957305 
L 105.826347 168.295234 
L 106.151326 128.923205 
L 106.476306 118.279122 
L 106.801285 160.930231 
L 107.126265 91.555401 
L 107.451244 72.10005 
L 108.426183 176.866012 
L 108.751162 99.479117 
L 109.076142 156.691763 
L 110.051081 87.847421 
L 110.37606 35.137548 
L 110.70104 127.992551 
L 111.026019 121.282534 
L 111.350999 124.735837 
L 111.675978 47.129658 
L 112.000958 146.206157 
L 112.325937 107.246915 
L 112.650917 195.683015 
L 112.975896 128.029684 
L 113.300876 154.169164 
L 113.625855 118.911085 
L 113.950835 108.35337 
L 114.275814 147.613795 
L 114.600794 161.329219 
L 114.925773 117.673438 
L 115.250753 176.060375 
L 115.575732 103.788843 
L 115.900712 183.935501 
L 116.225692 185.227517 
L 116.550671 119.299263 
L 116.875651 98.851374 
L 117.20063 178.468164 
L 117.52561 172.963454 
L 117.850589 134.04372 
L 118.175569 125.996439 
L 118.500548 193.583635 
L 118.825528 137.413543 
L 119.150507 164.310626 
L 119.475487 174.289846 
L 119.800466 175.417832 
L 120.125446 173.008134 
L 120.450425 153.707796 
L 120.775405 167.51031 
L 121.100384 85.724533 
L 121.425364 152.468982 
L 121.750343 155.183284 
L 122.075323 112.504197 
L 122.400303 152.76322 
L 122.725282 132.503815 
L 123.050262 202.77185 
L 123.700221 119.238987 
L 124.0252 146.813711 
L 124.35018 108.657532 
L 124.675159 149.290693 
L 125.000139 121.668817 
L 125.325118 167.201969 
L 125.650098 126.794978 
L 125.975077 105.385956 
L 126.300057 165.515565 
L 126.950016 118.172906 
L 127.274995 106.103919 
L 127.599975 182.490577 
L 127.924954 128.822608 
L 128.249934 145.064246 
L 128.574913 109.786439 
L 128.899893 135.17664 
L 129.224873 173.107544 
L 129.549852 138.857501 
L 129.874832 148.872996 
L 130.199811 200.766952 
L 130.524791 206.456175 
L 130.84977 96.113671 
L 131.17475 85.374821 
L 131.499729 135.555991 
L 131.824709 124.242639 
L 132.149688 130.495903 
L 132.474668 154.09222 
L 132.799647 104.516405 
L 133.124627 170.39197 
L 133.449606 169.023428 
L 133.774586 155.375552 
L 134.099565 149.110865 
L 134.424545 158.384182 
L 134.749524 185.06452 
L 135.074504 86.875291 
L 135.399484 149.133479 
L 135.724463 134.568679 
L 136.049443 95.666046 
L 136.374422 195.300062 
L 136.699402 121.399745 
L 137.024381 165.63478 
L 137.349361 46.157718 
L 137.67434 126.899607 
L 137.99932 145.773723 
L 138.324299 150.091619 
L 138.649279 158.421258 
L 138.974258 163.44856 
L 139.299238 147.88925 
L 139.624217 154.48336 
L 139.949197 112.638268 
L 140.274176 109.618261 
L 140.599156 193.187255 
L 140.924135 150.314187 
L 141.249115 130.62116 
L 141.574094 121.38892 
L 142.224054 181.984293 
L 142.549033 78.588806 
L 142.874013 162.263437 
L 143.198992 155.655662 
L 143.523972 159.241897 
L 143.848951 112.430191 
L 144.49891 170.169881 
L 144.82389 190.93777 
L 145.148869 65.151926 
L 145.473849 160.280449 
L 145.798828 162.748913 
L 146.123808 132.689707 
L 146.448787 209.440624 
L 146.773767 102.122762 
L 147.098746 102.691203 
L 147.423726 74.102519 
L 147.748705 135.101577 
L 148.073685 157.647889 
L 149.048624 76.825231 
L 149.373603 238.445368 
L 149.698583 85.584567 
L 150.023562 110.02785 
L 150.673521 204.456935 
L 150.998501 236.019242 
L 151.32348 146.142164 
L 151.64846 127.842041 
L 151.973439 173.76699 
L 152.298419 94.233845 
L 152.623398 110.945778 
L 152.948378 157.863605 
L 153.273357 171.004501 
L 153.598337 85.177981 
L 153.923316 172.603517 
L 154.573275 106.572339 
L 154.898255 186.746638 
L 155.873194 97.623745 
L 156.198173 149.32114 
L 156.523153 143.417748 
L 156.848132 80.427716 
L 157.173112 190.825173 
L 157.498091 134.982847 
L 157.823071 52.943761 
L 158.14805 99.577532 
L 158.47303 127.097792 
L 158.798009 210.03325 
L 159.122989 217.03982 
L 159.772948 163.28117 
L 160.097927 111.805662 
L 160.422907 106.164924 
L 160.747886 126.318749 
L 161.072866 190.691737 
L 161.397846 192.07506 
L 161.722825 123.083768 
L 162.047805 157.153847 
L 162.372784 109.177313 
L 162.697764 150.604039 
L 163.347723 95.560695 
L 163.672702 205.440387 
L 163.997682 138.61471 
L 164.322661 233.901412 
L 164.647641 125.954531 
L 164.97262 149.722684 
L 165.2976 152.411723 
L 165.622579 123.390055 
L 165.947559 141.13762 
L 166.597518 36.805146 
L 166.922497 144.000007 
L 167.247477 105.958029 
L 167.572456 166.869975 
L 167.897436 165.415684 
L 168.222416 198.388951 
L 168.547395 161.944915 
L 168.872375 182.672513 
L 169.197354 160.147768 
L 169.522334 99.396496 
L 170.172293 154.247014 
L 170.497272 102.887087 
L 170.822252 206.412174 
L 171.147231 204.351918 
L 171.472211 119.862325 
L 171.79719 148.5615 
L 172.12217 114.727986 
L 172.447149 66.390008 
L 172.772129 168.914202 
L 173.422088 60.245852 
L 173.747067 177.064925 
L 174.072047 100.450358 
L 174.397027 76.773447 
L 174.722006 204.540257 
L 175.046986 155.743431 
L 175.371965 85.35992 
L 175.696945 168.945379 
L 176.021924 160.84759 
L 176.346904 149.010278 
L 176.671883 124.040475 
L 176.996863 144.09468 
L 177.321842 202.777977 
L 177.646822 188.611856 
L 177.971801 94.565501 
L 178.296781 172.56919 
L 178.62176 121.442405 
L 178.94674 134.95521 
L 179.271719 161.904152 
L 179.596699 111.453251 
L 180.246658 116.362718 
L 180.571637 130.523782 
L 180.896617 150.690938 
L 181.221597 85.368684 
L 181.546576 112.005575 
L 181.871556 110.762094 
L 182.196535 91.123274 
L 182.521515 116.523217 
L 182.846494 128.5657 
L 183.171474 110.380577 
L 183.496453 107.358661 
L 183.821433 182.007015 
L 184.146412 116.210677 
L 184.471392 198.490405 
L 184.796371 104.46513 
L 185.121351 211.216528 
L 185.44633 160.416263 
L 185.77131 137.886984 
L 186.096289 169.461214 
L 186.746248 111.138927 
L 187.071228 118.065086 
L 187.396208 174.391942 
L 187.721187 161.246643 
L 188.046167 171.009006 
L 188.371146 175.990956 
L 188.696126 146.735676 
L 189.021105 132.552738 
L 189.671064 190.50971 
L 189.996044 126.639831 
L 190.321023 142.680352 
L 190.646003 94.30901 
L 190.970982 164.619472 
L 191.295962 154.519586 
L 191.620941 105.36885 
L 191.945921 116.396562 
L 192.2709 188.231495 
L 192.59588 135.423241 
L 192.920859 193.918362 
L 193.245839 186.853448 
L 193.570818 152.303459 
L 193.895798 152.296815 
L 194.220778 141.99443 
L 194.545757 73.641147 
L 194.870737 141.486922 
L 195.195716 165.386754 
L 195.520696 129.842589 
L 195.845675 193.518465 
L 196.170655 151.687956 
L 196.495634 177.015594 
L 196.820614 109.558207 
L 197.145593 156.728041 
L 197.470573 115.25536 
L 197.795552 169.243343 
L 198.120532 134.577034 
L 198.445511 176.154276 
L 198.770491 161.958475 
L 199.09547 81.469022 
L 199.745429 156.382294 
L 200.070409 117.704354 
L 200.395389 178.229923 
L 200.720368 145.819183 
L 201.045348 83.832236 
L 201.370327 99.280778 
L 201.695307 141.819441 
L 202.020286 112.458748 
L 202.345266 170.049667 
L 202.670245 179.45695 
L 202.995225 155.721322 
L 203.320204 96.913197 
L 203.645184 106.032394 
L 203.970163 180.186089 
L 204.620122 94.151134 
L 204.945102 127.309703 
L 205.270081 117.472572 
L 205.595061 159.531592 
L 205.92004 143.014426 
L 206.24502 94.696972 
L 206.569999 188.992973 
L 206.894979 121.953715 
L 207.219959 207.345928 
L 207.544938 142.805481 
L 207.869918 114.243741 
L 208.194897 114.363266 
L 208.519877 120.020207 
L 208.844856 118.562977 
L 209.169836 91.606766 
L 209.494815 178.321654 
L 209.819795 191.712507 
L 210.144774 178.644715 
L 210.794733 107.633175 
L 211.119713 111.169586 
L 211.444692 176.90617 
L 211.769672 206.634508 
L 212.094651 153.540972 
L 212.419631 126.352517 
L 212.74461 191.783016 
L 213.06959 133.682851 
L 213.39457 126.858507 
L 213.719549 150.578369 
L 214.044529 98.93697 
L 214.369508 125.573258 
L 214.694488 185.275068 
L 215.344447 128.632594 
L 215.669426 116.77177 
L 215.994406 85.344946 
L 216.319385 177.839454 
L 216.644365 92.062775 
L 216.969344 98.842206 
L 217.294324 125.631695 
L 217.619303 199.091966 
L 217.944283 84.665189 
L 218.269262 29.821469 
L 218.594242 121.248075 
L 218.919221 171.242806 
L 219.244201 101.10252 
L 219.56918 153.93798 
L 219.89416 229.794936 
L 220.21914 88.041182 
L 220.544119 166.976971 
L 220.869099 131.318916 
L 221.194078 167.491418 
L 221.519058 141.331118 
L 221.844037 87.30408 
L 222.169017 148.312407 
L 222.493996 114.731709 
L 222.818976 101.51645 
L 223.143955 108.452337 
L 223.468935 120.354673 
L 223.793914 89.611304 
L 224.118894 134.638888 
L 224.443873 160.59016 
L 224.768853 137.527351 
L 225.093832 145.644659 
L 225.418812 143.4771 
L 225.743791 140.464599 
L 226.068771 187.566697 
L 226.393751 151.56128 
L 226.71873 200.91492 
L 227.04371 83.035333 
L 227.368689 133.240295 
L 227.693669 162.825503 
L 228.018648 97.86989 
L 228.343628 121.265903 
L 228.668607 188.494833 
L 228.993587 98.278105 
L 229.318566 144.012044 
L 229.643546 261.216 
L 229.968525 195.137333 
L 230.293505 181.44826 
L 230.618484 161.861836 
L 231.268443 97.594888 
L 231.593423 159.953934 
L 231.918402 162.200846 
L 232.243382 177.943049 
L 232.568361 171.310445 
L 232.893341 118.910996 
L 233.218321 131.791183 
L 233.5433 197.975713 
L 233.86828 145.099291 
L 234.193259 133.348274 
L 234.518239 163.291027 
L 234.843218 97.418468 
L 235.168198 178.618415 
L 235.818157 147.170445 
L 236.143136 120.912943 
L 236.468116 125.149622 
L 236.793095 49.396423 
L 237.118075 181.785723 
L 237.443054 107.410604 
L 237.768034 173.968728 
L 238.093013 150.243439 
L 238.417993 151.779625 
L 238.742972 145.879644 
L 239.067952 98.106611 
L 239.392932 192.633283 
L 239.717911 186.180026 
L 240.042891 168.877474 
L 240.36787 133.697243 
L 240.69285 161.637435 
L 241.017829 88.12637 
L 241.342809 104.651867 
L 241.667788 158.081844 
L 241.992768 121.636275 
L 242.317747 141.247518 
L 242.642727 226.088041 
L 242.967706 142.32609 
L 243.292686 113.147305 
L 243.617665 146.136242 
L 243.942645 122.826329 
L 244.267624 189.393606 
L 244.592604 114.858034 
L 244.917583 152.594472 
L 245.242563 112.040705 
L 245.567542 157.500617 
L 245.892522 132.733658 
L 246.217502 51.554218 
L 246.542481 109.948875 
L 246.867461 142.575712 
L 247.19244 154.887911 
L 247.51742 214.32106 
L 247.842399 171.036138 
L 248.167379 104.349251 
L 248.492358 135.143479 
L 248.817338 128.812797 
L 249.142317 92.14517 
L 249.792276 162.197018 
L 250.117256 224.394943 
L 250.442235 122.072992 
L 250.767215 151.628046 
L 251.092194 107.049257 
L 251.417174 108.523361 
L 251.742153 125.898283 
L 252.067133 97.301869 
L 252.392113 128.388534 
L 252.717092 171.430524 
L 253.042072 129.409185 
L 253.367051 175.133621 
L 253.692031 106.152186 
L 254.01701 234.202283 
L 254.34199 107.038085 
L 254.666969 182.728584 
L 254.991949 211.725685 
L 255.316928 76.464458 
L 255.641908 128.974045 
L 256.291867 175.358033 
L 256.616846 100.214719 
L 256.941826 76.225611 
L 257.266805 160.036132 
L 257.591785 203.288321 
L 257.916764 182.210813 
L 258.241744 80.546863 
L 258.566723 135.762498 
L 258.891703 116.807972 
L 259.216683 127.083674 
L 259.541662 147.550519 
L 259.866642 159.44454 
L 260.191621 147.796081 
L 260.516601 117.54896 
L 260.84158 152.305177 
L 261.16656 159.8092 
L 261.491539 170.314226 
L 261.816519 163.298458 
L 262.466478 98.173193 
L 262.791457 165.72447 
L 263.116437 100.845828 
L 263.441416 136.77278 
L 263.766396 98.125468 
L 264.091375 169.35442 
L 265.066314 110.938499 
L 265.391294 105.834 
L 265.716273 208.646592 
L 266.041253 144.661316 
L 266.366232 138.01361 
L 266.691212 56.700643 
L 267.016191 147.353159 
L 267.341171 148.626364 
L 267.66615 196.924734 
L 267.99113 155.444684 
L 268.316109 139.03713 
L 268.641089 194.74585 
L 268.966068 139.813378 
L 269.291048 151.765519 
L 269.616027 140.914158 
L 270.265986 179.873033 
L 270.590966 174.212439 
L 270.915945 188.750923 
L 271.240925 146.935708 
L 271.565904 165.202313 
L 271.890884 190.67332 
L 272.540843 53.746407 
L 272.865823 176.02313 
L 273.190802 162.061319 
L 273.515782 129.38462 
L 273.840761 192.661061 
L 274.165741 191.261765 
L 274.49072 96.984997 
L 274.8157 151.502355 
L 275.140679 108.031411 
L 275.465659 105.67908 
L 275.790638 111.691165 
L 276.115618 89.458487 
L 276.440597 147.691856 
L 276.765577 156.516464 
L 277.090556 137.354422 
L 277.415536 100.769434 
L 277.740515 160.322594 
L 278.065495 159.24029 
L 278.390475 132.139985 
L 278.715454 79.132009 
L 279.365413 146.181803 
L 279.690393 124.945384 
L 280.015372 187.431421 
L 280.340352 138.449808 
L 280.665331 138.767439 
L 280.990311 80.441607 
L 281.31529 164.80124 
L 281.64027 134.575195 
L 281.965249 197.022173 
L 282.290229 220.330787 
L 282.615208 151.489533 
L 282.940188 156.740077 
L 283.265167 128.772858 
L 283.590147 213.329884 
L 283.915126 85.192309 
L 284.240106 85.289311 
L 284.565085 115.727822 
L 284.890065 169.445338 
L 285.215045 158.64679 
L 285.540024 135.085456 
L 285.865004 172.222848 
L 286.189983 248.226695 
L 286.514963 237.706624 
L 286.839942 103.291521 
L 287.164922 221.828054 
L 287.489901 102.549863 
L 287.814881 116.256307 
L 288.13986 114.38183 
L 288.46484 151.887919 
L 288.789819 156.182063 
L 289.114799 189.024459 
L 289.439778 190.958847 
L 289.764758 143.136217 
L 290.089737 162.89073 
L 290.414717 164.644238 
L 290.739696 118.407383 
L 291.064676 103.846854 
L 291.389656 174.115901 
L 291.714635 157.974097 
L 292.039615 113.535119 
L 292.364594 120.075732 
L 292.689574 158.681797 
L 293.014553 136.565637 
L 293.339533 137.749192 
L 293.664512 172.108414 
L 293.989492 89.073381 
L 294.314471 123.228345 
L 294.639451 110.410285 
L 294.96443 115.087245 
L 295.28941 155.972042 
L 295.614389 109.736467 
L 295.939369 162.668261 
L 296.264348 103.462904 
L 296.589328 106.300185 
L 296.914307 120.80425 
L 297.239287 180.963497 
L 297.564266 187.637876 
L 297.889246 122.606637 
L 298.539205 201.385176 
L 298.864185 187.368417 
L 299.189164 94.081916 
L 299.514144 162.244573 
L 299.839123 142.125122 
L 300.164103 204.519045 
L 300.489082 123.257415 
L 300.814062 107.665896 
L 301.139041 157.449864 
L 301.464021 112.071595 
L 301.789 97.089632 
L 302.11398 109.362649 
L 302.438959 173.065858 
L 303.088918 78.838047 
L 303.413898 133.869682 
L 303.738877 227.171837 
L 304.063857 124.409547 
L 304.388837 147.983131 
L 304.713816 160.173311 
L 305.038796 161.764304 
L 305.363775 152.662326 
L 305.688755 176.941781 
L 306.013734 171.290838 
L 306.338714 128.924241 
L 306.663693 208.075478 
L 306.988673 86.540768 
L 307.313652 165.533631 
L 307.638632 112.352616 
L 307.963611 163.874595 
L 308.288591 114.953227 
L 308.61357 124.034045 
L 308.93855 172.08968 
L 309.263529 110.561597 
L 309.588509 101.902543 
L 309.913488 125.950044 
L 310.238468 195.519897 
L 310.563447 133.910332 
L 310.888427 148.808894 
L 311.213407 137.603504 
L 311.538386 28.624596 
L 311.863366 146.08012 
L 312.188345 43.504741 
L 312.513325 38.480109 
L 313.163284 153.213688 
L 313.488263 146.788542 
L 313.813243 168.566513 
L 314.138222 177.169205 
L 314.463202 120.016368 
L 314.788181 96.533782 
L 315.113161 150.145187 
L 315.43814 121.677579 
L 316.088099 211.414398 
L 316.413079 100.184799 
L 316.738058 167.013791 
L 317.063038 123.41018 
L 317.388018 221.995059 
L 317.712997 115.818272 
L 318.037977 147.819745 
L 318.362956 130.858274 
L 318.687936 176.698607 
L 319.012915 172.66389 
L 319.337895 172.268598 
L 319.662874 93.026038 
L 319.987854 172.383142 
L 320.312833 99.059996 
L 320.637813 71.005399 
L 320.962792 116.363007 
L 321.287772 123.000339 
L 321.612751 163.828029 
L 321.937731 145.884648 
L 322.26271 166.191002 
L 322.58769 95.828913 
L 322.912669 157.302976 
L 323.237649 144.270445 
L 323.562628 136.79814 
L 323.887608 167.104273 
L 324.212588 125.803158 
L 324.537567 69.084668 
L 324.862547 131.760661 
L 325.187526 122.422258 
L 325.512506 200.860091 
L 325.837485 151.610856 
L 326.162465 151.58834 
L 326.487444 150.589549 
L 326.812424 101.175727 
L 327.137403 116.240909 
L 327.462383 151.530952 
L 327.787362 124.675533 
L 328.112342 163.675544 
L 328.437321 157.287254 
L 328.762301 108.30405 
L 329.08728 156.865088 
L 329.41226 107.151353 
L 329.737239 150.389962 
L 330.062219 116.86273 
L 330.387199 66.164655 
L 331.037158 182.201873 
L 331.362137 128.497072 
L 331.687117 125.684163 
L 332.012096 151.404751 
L 332.337076 95.900639 
L 332.662055 75.799238 
L 332.987035 159.954924 
L 333.312014 133.578583 
L 333.636994 197.654465 
L 333.961973 144.350809 
L 334.286953 151.680126 
L 334.611932 79.194518 
L 334.936912 155.815303 
L 335.261891 156.177492 
L 335.586871 112.856208 
L 335.91185 203.694088 
L 336.23683 185.555168 
L 336.561809 83.398125 
L 336.886789 219.444694 
L 337.211769 70.569828 
L 337.861728 199.70676 
L 338.186707 133.674651 
L 338.511687 158.355207 
L 339.161646 125.275947 
L 339.486625 118.778433 
L 339.811605 176.861446 
L 340.136584 160.240427 
L 340.461564 157.986016 
L 340.786543 133.001156 
L 341.111523 174.154305 
L 341.436502 112.700489 
L 341.761482 97.76105 
L 342.086461 137.508919 
L 342.411441 108.972012 
L 342.73642 135.198303 
L 343.0614 77.136562 
L 343.38638 110.323524 
L 343.711359 95.457384 
L 344.036339 113.257459 
L 344.361318 217.889713 
L 344.686298 178.558927 
L 345.011277 182.842354 
L 345.336257 194.308677 
L 345.661236 182.136179 
L 345.986216 230.757815 
L 346.311195 171.320811 
L 346.636175 80.402016 
L 346.961154 186.274194 
L 347.286134 114.480891 
L 347.611113 139.12231 
L 348.261072 97.814089 
L 348.586052 140.198391 
L 348.911031 94.398926 
L 349.56099 246.12447 
L 349.88597 179.18886 
L 350.21095 196.391421 
L 350.535929 183.539128 
L 350.860909 161.164164 
L 351.185888 156.358537 
L 351.510868 165.273202 
L 351.835847 117.426734 
L 352.160827 159.748438 
L 352.485806 167.838881 
L 352.810786 85.887557 
L 353.135765 115.992918 
L 353.460745 92.931843 
L 353.785724 153.027905 
L 354.110704 140.356786 
L 354.435683 112.238585 
L 354.760663 24.079671 
L 355.085642 125.872126 
L 355.410622 84.709869 
L 355.735601 151.500273 
L 356.060581 148.769949 
L 356.385561 137.322615 
L 357.03552 219.781573 
L 357.360499 189.119236 
L 358.010458 179.363595 
L 358.335438 101.472074 
L 358.660417 122.410013 
L 358.985397 166.136035 
L 359.310376 141.427601 
L 359.635356 84.7469 
L 359.960335 175.157878 
L 360.285315 103.079636 
L 360.610294 194.495289 
L 360.935274 129.253808 
L 361.260253 102.319971 
L 361.585233 161.240191 
L 361.910212 78.346065 
L 362.235192 81.886485 
L 362.560171 144.689174 
L 362.885151 164.664626 
L 363.210131 197.847668 
L 363.53511 94.996384 
L 363.86009 176.612471 
L 364.185069 144.22205 
L 364.510049 140.664724 
L 364.835028 154.20828 
L 365.160008 144.011361 
L 365.484987 125.762126 
L 365.809967 86.024904 
L 366.134946 176.463395 
L 366.459926 174.718646 
L 367.109885 134.479209 
L 367.434864 120.704516 
L 367.759844 129.429437 
L 368.409803 201.788338 
L 368.734782 178.692733 
L 369.059762 214.388706 
L 369.384742 120.693347 
L 369.709721 186.675425 
L 370.034701 134.658367 
L 370.35968 141.72612 
L 370.68466 94.533271 
L 371.009639 92.784942 
L 371.334619 98.040097 
L 371.659598 109.132001 
L 371.984578 110.498719 
L 372.309557 57.292792 
L 372.634537 108.78679 
L 372.959516 100.915617 
L 373.284496 150.830885 
L 373.609475 94.896191 
L 373.934455 143.848389 
L 374.259434 137.065915 
L 374.584414 149.145721 
L 374.909393 58.068585 
L 375.234373 120.594733 
L 375.559352 130.905094 
L 375.884332 130.915315 
L 376.209312 89.478972 
L 376.534291 99.685273 
L 376.859271 191.083366 
L 377.18425 103.001161 
L 377.50923 92.25836 
L 377.834209 190.576743 
L 378.159189 102.126417 
L 378.484168 182.11255 
L 378.809148 102.880501 
L 378.809148 102.880501 
" clip-path="url(#p84e66d9dde)" style="fill: none; stroke: #1f77b4; stroke-width: 1.5; stroke-linecap: square"/>
   </g>
   <g id="patch_3">
    <path d="M 37.921875 273.312 
L 37.921875 7.2 
" style="fill: none; stroke: #000000; stroke-width: 0.8; stroke-linejoin: miter; stroke-linecap: square"/>
   </g>
   <g id="patch_4">
    <path d="M 395.041875 273.312 
L 395.041875 7.2 
" style="fill: none; stroke: #000000; stroke-width: 0.8; stroke-linejoin: miter; stroke-linecap: square"/>
   </g>
   <g id="patch_5">
    <path d="M 37.921875 273.312 
L 395.041875 273.312 
" style="fill: none; stroke: #000000; stroke-width: 0.8; stroke-linejoin: miter; stroke-linecap: square"/>
   </g>
   <g id="patch_6">
    <path d="M 37.921875 7.2 
L 395.041875 7.2 
" style="fill: none; stroke: #000000; stroke-width: 0.8; stroke-linejoin: miter; stroke-linecap: square"/>
   </g>
  </g>
 </g>
 <defs>
  <clipPath id="p84e66d9dde">
   <rect x="37.921875" y="7.2" width="357.12" height="266.112"/>
  </clipPath>
 </defs>
</svg>
