<?xml version="1.0" encoding="utf-8" standalone="no"?>
<!DOCTYPE svg PUBLIC "-//W3C//DTD SVG 1.1//EN"
  "http://www.w3.org/Graphics/SVG/1.1/DTD/svg11.dtd">
<svg xmlns:xlink="http://www.w3.org/1999/xlink" width="460.8pt" height="345.6pt" viewBox="0 0 460.8 345.6" xmlns="http://www.w3.org/2000/svg" version="1.1">
 <metadata>
  <rdf:RDF xmlns:dc="http://purl.org/dc/elements/1.1/" xmlns:cc="http://creativecommons.org/ns#" xmlns:rdf="http://www.w3.org/1999/02/22-rdf-syntax-ns#">
   <cc:Work>
    <dc:type rdf:resource="http://purl.org/dc/dcmitype/StillImage"/>
    <dc:date>2025-03-08T09:36:00.224574</dc:date>
    <dc:format>image/svg+xml</dc:format>
    <dc:creator>
     <cc:Agent>
      <dc:title>Matplotlib v3.8.4, https://matplotlib.org/</dc:title>
     </cc:Agent>
    </dc:creator>
   </cc:Work>
  </rdf:RDF>
 </metadata>
 <defs>
  <style type="text/css">*{stroke-linejoin: round; stroke-linecap: butt}</style>
 </defs>
 <g id="figure_1">
  <g id="patch_1">
   <path d="M 0 345.6 
L 460.8 345.6 
L 460.8 0 
L 0 0 
L 0 345.6 
z
" style="fill: none"/>
  </g>
  <g id="axes_1">
   <g id="patch_2">
    <path d="M 57.6 307.584 
L 414.72 307.584 
L 414.72 41.472 
L 57.6 41.472 
L 57.6 307.584 
z
" style="fill: none"/>
   </g>
   <g id="patch_3">
    <path d="M 73.832727 307.584 
L 80.45833 307.584 
L 80.45833 307.584 
L 73.832727 307.584 
z
" clip-path="url(#pb34ad6f333)"/>
   </g>
   <g id="patch_4">
    <path d="M 80.45833 307.584 
L 87.083933 307.584 
L 87.083933 307.584 
L 80.45833 307.584 
z
" clip-path="url(#pb34ad6f333)"/>
   </g>
   <g id="patch_5">
    <path d="M 87.083933 307.584 
L 93.709536 307.584 
L 93.709536 307.584 
L 87.083933 307.584 
z
" clip-path="url(#pb34ad6f333)"/>
   </g>
   <g id="patch_6">
    <path d="M 93.709536 307.584 
L 100.335139 307.584 
L 100.335139 307.584 
L 93.709536 307.584 
z
" clip-path="url(#pb34ad6f333)"/>
   </g>
   <g id="patch_7">
    <path d="M 100.335139 307.584 
L 106.960742 307.584 
L 106.960742 307.584 
L 100.335139 307.584 
z
" clip-path="url(#pb34ad6f333)"/>
   </g>
   <g id="patch_8">
    <path d="M 106.960742 307.584 
L 113.586345 307.584 
L 113.586345 307.584 
L 106.960742 307.584 
z
" clip-path="url(#pb34ad6f333)"/>
   </g>
   <g id="patch_9">
    <path d="M 113.586345 307.584 
L 120.211948 307.584 
L 120.211948 307.584 
L 113.586345 307.584 
z
" clip-path="url(#pb34ad6f333)"/>
   </g>
   <g id="patch_10">
    <path d="M 120.211948 307.584 
L 126.837551 307.584 
L 126.837551 307.584 
L 120.211948 307.584 
z
" clip-path="url(#pb34ad6f333)"/>
   </g>
   <g id="patch_11">
    <path d="M 126.837551 307.584 
L 133.463154 307.584 
L 133.463154 307.584 
L 126.837551 307.584 
z
" clip-path="url(#pb34ad6f333)"/>
   </g>
   <g id="patch_12">
    <path d="M 133.463154 307.584 
L 140.088757 307.584 
L 140.088757 307.584 
L 133.463154 307.584 
z
" clip-path="url(#pb34ad6f333)"/>
   </g>
   <g id="patch_13">
    <path d="M 140.088757 307.584 
L 146.71436 307.584 
L 146.71436 305.123417 
L 140.088757 305.123417 
z
" clip-path="url(#pb34ad6f333)"/>
   </g>
   <g id="patch_14">
    <path d="M 146.71436 307.584 
L 153.339963 307.584 
L 153.339963 307.584 
L 146.71436 307.584 
z
" clip-path="url(#pb34ad6f333)"/>
   </g>
   <g id="patch_15">
    <path d="M 153.339963 307.584 
L 159.965566 307.584 
L 159.965566 305.123417 
L 153.339963 305.123417 
z
" clip-path="url(#pb34ad6f333)"/>
   </g>
   <g id="patch_16">
    <path d="M 159.965566 307.584 
L 166.591169 307.584 
L 166.591169 302.662835 
L 159.965566 302.662835 
z
" clip-path="url(#pb34ad6f333)"/>
   </g>
   <g id="patch_17">
    <path d="M 166.591169 307.584 
L 173.216772 307.584 
L 173.216772 290.359922 
L 166.591169 290.359922 
z
" clip-path="url(#pb34ad6f333)"/>
   </g>
   <g id="patch_18">
    <path d="M 173.216772 307.584 
L 179.842375 307.584 
L 179.842375 285.438757 
L 173.216772 285.438757 
z
" clip-path="url(#pb34ad6f333)"/>
   </g>
   <g id="patch_19">
    <path d="M 179.842375 307.584 
L 186.467978 307.584 
L 186.467978 260.832932 
L 179.842375 260.832932 
z
" clip-path="url(#pb34ad6f333)"/>
   </g>
   <g id="patch_20">
    <path d="M 186.467978 307.584 
L 193.093581 307.584 
L 193.093581 260.832932 
L 186.467978 260.832932 
z
" clip-path="url(#pb34ad6f333)"/>
   </g>
   <g id="patch_21">
    <path d="M 193.093581 307.584 
L 199.719184 307.584 
L 199.719184 209.160699 
L 193.093581 209.160699 
z
" clip-path="url(#pb34ad6f333)"/>
   </g>
   <g id="patch_22">
    <path d="M 199.719184 307.584 
L 206.344787 307.584 
L 206.344787 216.542447 
L 199.719184 216.542447 
z
" clip-path="url(#pb34ad6f333)"/>
   </g>
   <g id="patch_23">
    <path d="M 206.344787 307.584 
L 212.97039 307.584 
L 212.97039 120.579728 
L 206.344787 120.579728 
z
" clip-path="url(#pb34ad6f333)"/>
   </g>
   <g id="patch_24">
    <path d="M 212.97039 307.584 
L 219.595993 307.584 
L 219.595993 93.51332 
L 212.97039 93.51332 
z
" clip-path="url(#pb34ad6f333)"/>
   </g>
   <g id="patch_25">
    <path d="M 219.595993 307.584 
L 226.221596 307.584 
L 226.221596 76.289243 
L 219.595993 76.289243 
z
" clip-path="url(#pb34ad6f333)"/>
   </g>
   <g id="patch_26">
    <path d="M 226.221596 307.584 
L 232.847199 307.584 
L 232.847199 54.144 
L 226.221596 54.144 
z
" clip-path="url(#pb34ad6f333)"/>
   </g>
   <g id="patch_27">
    <path d="M 232.847199 307.584 
L 239.472801 307.584 
L 239.472801 68.907495 
L 232.847199 68.907495 
z
" clip-path="url(#pb34ad6f333)"/>
   </g>
   <g id="patch_28">
    <path d="M 239.472801 307.584 
L 246.098404 307.584 
L 246.098404 95.973903 
L 239.472801 95.973903 
z
" clip-path="url(#pb34ad6f333)"/>
   </g>
   <g id="patch_29">
    <path d="M 246.098404 307.584 
L 252.724007 307.584 
L 252.724007 115.658563 
L 246.098404 115.658563 
z
" clip-path="url(#pb34ad6f333)"/>
   </g>
   <g id="patch_30">
    <path d="M 252.724007 307.584 
L 259.34961 307.584 
L 259.34961 132.882641 
L 252.724007 132.882641 
z
" clip-path="url(#pb34ad6f333)"/>
   </g>
   <g id="patch_31">
    <path d="M 259.34961 307.584 
L 265.975213 307.584 
L 265.975213 169.791379 
L 259.34961 169.791379 
z
" clip-path="url(#pb34ad6f333)"/>
   </g>
   <g id="patch_32">
    <path d="M 265.975213 307.584 
L 272.600816 307.584 
L 272.600816 201.778951 
L 265.975213 201.778951 
z
" clip-path="url(#pb34ad6f333)"/>
   </g>
   <g id="patch_33">
    <path d="M 272.600816 307.584 
L 279.226419 307.584 
L 279.226419 228.845359 
L 272.600816 228.845359 
z
" clip-path="url(#pb34ad6f333)"/>
   </g>
   <g id="patch_34">
    <path d="M 279.226419 307.584 
L 285.852022 307.584 
L 285.852022 265.754097 
L 279.226419 265.754097 
z
" clip-path="url(#pb34ad6f333)"/>
   </g>
   <g id="patch_35">
    <path d="M 285.852022 307.584 
L 292.477625 307.584 
L 292.477625 278.05701 
L 285.852022 278.05701 
z
" clip-path="url(#pb34ad6f333)"/>
   </g>
   <g id="patch_36">
    <path d="M 292.477625 307.584 
L 299.103228 307.584 
L 299.103228 290.359922 
L 292.477625 290.359922 
z
" clip-path="url(#pb34ad6f333)"/>
   </g>
   <g id="patch_37">
    <path d="M 299.103228 307.584 
L 305.728831 307.584 
L 305.728831 302.662835 
L 299.103228 302.662835 
z
" clip-path="url(#pb34ad6f333)"/>
   </g>
   <g id="patch_38">
    <path d="M 305.728831 307.584 
L 312.354434 307.584 
L 312.354434 300.202252 
L 305.728831 300.202252 
z
" clip-path="url(#pb34ad6f333)"/>
   </g>
   <g id="patch_39">
    <path d="M 312.354434 307.584 
L 318.980037 307.584 
L 318.980037 307.584 
L 312.354434 307.584 
z
" clip-path="url(#pb34ad6f333)"/>
   </g>
   <g id="patch_40">
    <path d="M 318.980037 307.584 
L 325.60564 307.584 
L 325.60564 307.584 
L 318.980037 307.584 
z
" clip-path="url(#pb34ad6f333)"/>
   </g>
   <g id="patch_41">
    <path d="M 325.60564 307.584 
L 332.231243 307.584 
L 332.231243 307.584 
L 325.60564 307.584 
z
" clip-path="url(#pb34ad6f333)"/>
   </g>
   <g id="patch_42">
    <path d="M 332.231243 307.584 
L 338.856846 307.584 
L 338.856846 305.123417 
L 332.231243 305.123417 
z
" clip-path="url(#pb34ad6f333)"/>
   </g>
   <g id="patch_43">
    <path d="M 338.856846 307.584 
L 345.482449 307.584 
L 345.482449 307.584 
L 338.856846 307.584 
z
" clip-path="url(#pb34ad6f333)"/>
   </g>
   <g id="patch_44">
    <path d="M 345.482449 307.584 
L 352.108052 307.584 
L 352.108052 307.584 
L 345.482449 307.584 
z
" clip-path="url(#pb34ad6f333)"/>
   </g>
   <g id="patch_45">
    <path d="M 352.108052 307.584 
L 358.733655 307.584 
L 358.733655 307.584 
L 352.108052 307.584 
z
" clip-path="url(#pb34ad6f333)"/>
   </g>
   <g id="patch_46">
    <path d="M 358.733655 307.584 
L 365.359258 307.584 
L 365.359258 307.584 
L 358.733655 307.584 
z
" clip-path="url(#pb34ad6f333)"/>
   </g>
   <g id="patch_47">
    <path d="M 365.359258 307.584 
L 371.984861 307.584 
L 371.984861 307.584 
L 365.359258 307.584 
z
" clip-path="url(#pb34ad6f333)"/>
   </g>
   <g id="patch_48">
    <path d="M 371.984861 307.584 
L 378.610464 307.584 
L 378.610464 307.584 
L 371.984861 307.584 
z
" clip-path="url(#pb34ad6f333)"/>
   </g>
   <g id="patch_49">
    <path d="M 378.610464 307.584 
L 385.236067 307.584 
L 385.236067 307.584 
L 378.610464 307.584 
z
" clip-path="url(#pb34ad6f333)"/>
   </g>
   <g id="patch_50">
    <path d="M 385.236067 307.584 
L 391.86167 307.584 
L 391.86167 307.584 
L 385.236067 307.584 
z
" clip-path="url(#pb34ad6f333)"/>
   </g>
   <g id="patch_51">
    <path d="M 391.86167 307.584 
L 398.487273 307.584 
L 398.487273 307.584 
L 391.86167 307.584 
z
" clip-path="url(#pb34ad6f333)"/>
   </g>
   <g id="matplotlib.axis_1">
    <g id="xtick_1">
     <g id="line2d_1">
      <path d="M 73.832727 307.584 
L 73.832727 41.472 
" clip-path="url(#pb34ad6f333)" style="fill: none; stroke: #b0b0b0; stroke-width: 0.8; stroke-linecap: square"/>
     </g>
     <g id="line2d_2">
      <defs>
       <path id="m3970563a6a" d="M 0 0 
L 0 3.5 
" style="stroke: #000000; stroke-width: 0.8"/>
      </defs>
      <g>
       <use xlink:href="#m3970563a6a" x="73.832727" y="307.584" style="stroke: #000000; stroke-width: 0.8"/>
      </g>
     </g>
     <g id="text_1">
      <!-- 0.4 -->
      <g transform="translate(65.881165 322.182437) scale(0.1 -0.1)">
       <defs>
        <path id="DejaVuSans-30" d="M 2034 4250 
Q 1547 4250 1301 3770 
Q 1056 3291 1056 2328 
Q 1056 1369 1301 889 
Q 1547 409 2034 409 
Q 2525 409 2770 889 
Q 3016 1369 3016 2328 
Q 3016 3291 2770 3770 
Q 2525 4250 2034 4250 
z
M 2034 4750 
Q 2819 4750 3233 4129 
Q 3647 3509 3647 2328 
Q 3647 1150 3233 529 
Q 2819 -91 2034 -91 
Q 1250 -91 836 529 
Q 422 1150 422 2328 
Q 422 3509 836 4129 
Q 1250 4750 2034 4750 
z
" transform="scale(0.015625)"/>
        <path id="DejaVuSans-2e" d="M 684 794 
L 1344 794 
L 1344 0 
L 684 0 
L 684 794 
z
" transform="scale(0.015625)"/>
        <path id="DejaVuSans-34" d="M 2419 4116 
L 825 1625 
L 2419 1625 
L 2419 4116 
z
M 2253 4666 
L 3047 4666 
L 3047 1625 
L 3713 1625 
L 3713 1100 
L 3047 1100 
L 3047 0 
L 2419 0 
L 2419 1100 
L 313 1100 
L 313 1709 
L 2253 4666 
z
" transform="scale(0.015625)"/>
       </defs>
       <use xlink:href="#DejaVuSans-30"/>
       <use xlink:href="#DejaVuSans-2e" x="63.623047"/>
       <use xlink:href="#DejaVuSans-34" x="95.410156"/>
      </g>
     </g>
    </g>
    <g id="xtick_2">
     <g id="line2d_3">
      <path d="M 127.941818 307.584 
L 127.941818 41.472 
" clip-path="url(#pb34ad6f333)" style="fill: none; stroke: #b0b0b0; stroke-width: 0.8; stroke-linecap: square"/>
     </g>
     <g id="line2d_4">
      <g>
       <use xlink:href="#m3970563a6a" x="127.941818" y="307.584" style="stroke: #000000; stroke-width: 0.8"/>
      </g>
     </g>
     <g id="text_2">
      <!-- 0.6 -->
      <g transform="translate(119.990256 322.182437) scale(0.1 -0.1)">
       <defs>
        <path id="DejaVuSans-36" d="M 2113 2584 
Q 1688 2584 1439 2293 
Q 1191 2003 1191 1497 
Q 1191 994 1439 701 
Q 1688 409 2113 409 
Q 2538 409 2786 701 
Q 3034 994 3034 1497 
Q 3034 2003 2786 2293 
Q 2538 2584 2113 2584 
z
M 3366 4563 
L 3366 3988 
Q 3128 4100 2886 4159 
Q 2644 4219 2406 4219 
Q 1781 4219 1451 3797 
Q 1122 3375 1075 2522 
Q 1259 2794 1537 2939 
Q 1816 3084 2150 3084 
Q 2853 3084 3261 2657 
Q 3669 2231 3669 1497 
Q 3669 778 3244 343 
Q 2819 -91 2113 -91 
Q 1303 -91 875 529 
Q 447 1150 447 2328 
Q 447 3434 972 4092 
Q 1497 4750 2381 4750 
Q 2619 4750 2861 4703 
Q 3103 4656 3366 4563 
z
" transform="scale(0.015625)"/>
       </defs>
       <use xlink:href="#DejaVuSans-30"/>
       <use xlink:href="#DejaVuSans-2e" x="63.623047"/>
       <use xlink:href="#DejaVuSans-36" x="95.410156"/>
      </g>
     </g>
    </g>
    <g id="xtick_3">
     <g id="line2d_5">
      <path d="M 182.050909 307.584 
L 182.050909 41.472 
" clip-path="url(#pb34ad6f333)" style="fill: none; stroke: #b0b0b0; stroke-width: 0.8; stroke-linecap: square"/>
     </g>
     <g id="line2d_6">
      <g>
       <use xlink:href="#m3970563a6a" x="182.050909" y="307.584" style="stroke: #000000; stroke-width: 0.8"/>
      </g>
     </g>
     <g id="text_3">
      <!-- 0.8 -->
      <g transform="translate(174.099347 322.182437) scale(0.1 -0.1)">
       <defs>
        <path id="DejaVuSans-38" d="M 2034 2216 
Q 1584 2216 1326 1975 
Q 1069 1734 1069 1313 
Q 1069 891 1326 650 
Q 1584 409 2034 409 
Q 2484 409 2743 651 
Q 3003 894 3003 1313 
Q 3003 1734 2745 1975 
Q 2488 2216 2034 2216 
z
M 1403 2484 
Q 997 2584 770 2862 
Q 544 3141 544 3541 
Q 544 4100 942 4425 
Q 1341 4750 2034 4750 
Q 2731 4750 3128 4425 
Q 3525 4100 3525 3541 
Q 3525 3141 3298 2862 
Q 3072 2584 2669 2484 
Q 3125 2378 3379 2068 
Q 3634 1759 3634 1313 
Q 3634 634 3220 271 
Q 2806 -91 2034 -91 
Q 1263 -91 848 271 
Q 434 634 434 1313 
Q 434 1759 690 2068 
Q 947 2378 1403 2484 
z
M 1172 3481 
Q 1172 3119 1398 2916 
Q 1625 2713 2034 2713 
Q 2441 2713 2670 2916 
Q 2900 3119 2900 3481 
Q 2900 3844 2670 4047 
Q 2441 4250 2034 4250 
Q 1625 4250 1398 4047 
Q 1172 3844 1172 3481 
z
" transform="scale(0.015625)"/>
       </defs>
       <use xlink:href="#DejaVuSans-30"/>
       <use xlink:href="#DejaVuSans-2e" x="63.623047"/>
       <use xlink:href="#DejaVuSans-38" x="95.410156"/>
      </g>
     </g>
    </g>
    <g id="xtick_4">
     <g id="line2d_7">
      <path d="M 236.16 307.584 
L 236.16 41.472 
" clip-path="url(#pb34ad6f333)" style="fill: none; stroke: #b0b0b0; stroke-width: 0.8; stroke-linecap: square"/>
     </g>
     <g id="line2d_8">
      <g>
       <use xlink:href="#m3970563a6a" x="236.16" y="307.584" style="stroke: #000000; stroke-width: 0.8"/>
      </g>
     </g>
     <g id="text_4">
      <!-- 1.0 -->
      <g transform="translate(228.208438 322.182437) scale(0.1 -0.1)">
       <defs>
        <path id="DejaVuSans-31" d="M 794 531 
L 1825 531 
L 1825 4091 
L 703 3866 
L 703 4441 
L 1819 4666 
L 2450 4666 
L 2450 531 
L 3481 531 
L 3481 0 
L 794 0 
L 794 531 
z
" transform="scale(0.015625)"/>
       </defs>
       <use xlink:href="#DejaVuSans-31"/>
       <use xlink:href="#DejaVuSans-2e" x="63.623047"/>
       <use xlink:href="#DejaVuSans-30" x="95.410156"/>
      </g>
     </g>
    </g>
    <g id="xtick_5">
     <g id="line2d_9">
      <path d="M 290.269091 307.584 
L 290.269091 41.472 
" clip-path="url(#pb34ad6f333)" style="fill: none; stroke: #b0b0b0; stroke-width: 0.8; stroke-linecap: square"/>
     </g>
     <g id="line2d_10">
      <g>
       <use xlink:href="#m3970563a6a" x="290.269091" y="307.584" style="stroke: #000000; stroke-width: 0.8"/>
      </g>
     </g>
     <g id="text_5">
      <!-- 1.2 -->
      <g transform="translate(282.317528 322.182437) scale(0.1 -0.1)">
       <defs>
        <path id="DejaVuSans-32" d="M 1228 531 
L 3431 531 
L 3431 0 
L 469 0 
L 469 531 
Q 828 903 1448 1529 
Q 2069 2156 2228 2338 
Q 2531 2678 2651 2914 
Q 2772 3150 2772 3378 
Q 2772 3750 2511 3984 
Q 2250 4219 1831 4219 
Q 1534 4219 1204 4116 
Q 875 4013 500 3803 
L 500 4441 
Q 881 4594 1212 4672 
Q 1544 4750 1819 4750 
Q 2544 4750 2975 4387 
Q 3406 4025 3406 3419 
Q 3406 3131 3298 2873 
Q 3191 2616 2906 2266 
Q 2828 2175 2409 1742 
Q 1991 1309 1228 531 
z
" transform="scale(0.015625)"/>
       </defs>
       <use xlink:href="#DejaVuSans-31"/>
       <use xlink:href="#DejaVuSans-2e" x="63.623047"/>
       <use xlink:href="#DejaVuSans-32" x="95.410156"/>
      </g>
     </g>
    </g>
    <g id="xtick_6">
     <g id="line2d_11">
      <path d="M 344.378182 307.584 
L 344.378182 41.472 
" clip-path="url(#pb34ad6f333)" style="fill: none; stroke: #b0b0b0; stroke-width: 0.8; stroke-linecap: square"/>
     </g>
     <g id="line2d_12">
      <g>
       <use xlink:href="#m3970563a6a" x="344.378182" y="307.584" style="stroke: #000000; stroke-width: 0.8"/>
      </g>
     </g>
     <g id="text_6">
      <!-- 1.4 -->
      <g transform="translate(336.426619 322.182437) scale(0.1 -0.1)">
       <use xlink:href="#DejaVuSans-31"/>
       <use xlink:href="#DejaVuSans-2e" x="63.623047"/>
       <use xlink:href="#DejaVuSans-34" x="95.410156"/>
      </g>
     </g>
    </g>
    <g id="xtick_7">
     <g id="line2d_13">
      <path d="M 398.487273 307.584 
L 398.487273 41.472 
" clip-path="url(#pb34ad6f333)" style="fill: none; stroke: #b0b0b0; stroke-width: 0.8; stroke-linecap: square"/>
     </g>
     <g id="line2d_14">
      <g>
       <use xlink:href="#m3970563a6a" x="398.487273" y="307.584" style="stroke: #000000; stroke-width: 0.8"/>
      </g>
     </g>
     <g id="text_7">
      <!-- 1.6 -->
      <g transform="translate(390.53571 322.182437) scale(0.1 -0.1)">
       <use xlink:href="#DejaVuSans-31"/>
       <use xlink:href="#DejaVuSans-2e" x="63.623047"/>
       <use xlink:href="#DejaVuSans-36" x="95.410156"/>
      </g>
     </g>
    </g>
    <g id="text_8">
     <!-- $a$ -->
     <g transform="translate(233.06 335.860562) scale(0.1 -0.1)">
      <defs>
       <path id="DejaVuSans-Oblique-61" d="M 3438 1997 
L 3047 0 
L 2472 0 
L 2578 531 
Q 2325 219 2001 64 
Q 1678 -91 1281 -91 
Q 834 -91 548 182 
Q 263 456 263 884 
Q 263 1497 752 1853 
Q 1241 2209 2100 2209 
L 2900 2209 
L 2931 2363 
Q 2938 2388 2941 2417 
Q 2944 2447 2944 2509 
Q 2944 2788 2717 2942 
Q 2491 3097 2081 3097 
Q 1800 3097 1504 3025 
Q 1209 2953 897 2809 
L 997 3341 
Q 1322 3463 1633 3523 
Q 1944 3584 2234 3584 
Q 2853 3584 3176 3315 
Q 3500 3047 3500 2534 
Q 3500 2431 3484 2292 
Q 3469 2153 3438 1997 
z
M 2816 1759 
L 2241 1759 
Q 1534 1759 1195 1570 
Q 856 1381 856 984 
Q 856 709 1029 553 
Q 1203 397 1509 397 
Q 1978 397 2328 733 
Q 2678 1069 2791 1631 
L 2816 1759 
z
" transform="scale(0.015625)"/>
      </defs>
      <use xlink:href="#DejaVuSans-Oblique-61"/>
     </g>
    </g>
   </g>
   <g id="matplotlib.axis_2">
    <g id="ytick_1">
     <g id="line2d_15">
      <path d="M 57.6 307.584 
L 414.72 307.584 
" clip-path="url(#pb34ad6f333)" style="fill: none; stroke: #b0b0b0; stroke-width: 0.8; stroke-linecap: square"/>
     </g>
     <g id="line2d_16">
      <defs>
       <path id="maf59cc8bec" d="M 0 0 
L -3.5 0 
" style="stroke: #000000; stroke-width: 0.8"/>
      </defs>
      <g>
       <use xlink:href="#maf59cc8bec" x="57.6" y="307.584" style="stroke: #000000; stroke-width: 0.8"/>
      </g>
     </g>
     <g id="text_9">
      <!-- 0.0 -->
      <g transform="translate(34.696875 311.383219) scale(0.1 -0.1)">
       <use xlink:href="#DejaVuSans-30"/>
       <use xlink:href="#DejaVuSans-2e" x="63.623047"/>
       <use xlink:href="#DejaVuSans-30" x="95.410156"/>
      </g>
     </g>
    </g>
    <g id="ytick_2">
     <g id="line2d_17">
      <path d="M 57.6 277.454418 
L 414.72 277.454418 
" clip-path="url(#pb34ad6f333)" style="fill: none; stroke: #b0b0b0; stroke-width: 0.8; stroke-linecap: square"/>
     </g>
     <g id="line2d_18">
      <g>
       <use xlink:href="#maf59cc8bec" x="57.6" y="277.454418" style="stroke: #000000; stroke-width: 0.8"/>
      </g>
     </g>
     <g id="text_10">
      <!-- 0.5 -->
      <g transform="translate(34.696875 281.253637) scale(0.1 -0.1)">
       <defs>
        <path id="DejaVuSans-35" d="M 691 4666 
L 3169 4666 
L 3169 4134 
L 1269 4134 
L 1269 2991 
Q 1406 3038 1543 3061 
Q 1681 3084 1819 3084 
Q 2600 3084 3056 2656 
Q 3513 2228 3513 1497 
Q 3513 744 3044 326 
Q 2575 -91 1722 -91 
Q 1428 -91 1123 -41 
Q 819 9 494 109 
L 494 744 
Q 775 591 1075 516 
Q 1375 441 1709 441 
Q 2250 441 2565 725 
Q 2881 1009 2881 1497 
Q 2881 1984 2565 2268 
Q 2250 2553 1709 2553 
Q 1456 2553 1204 2497 
Q 953 2441 691 2322 
L 691 4666 
z
" transform="scale(0.015625)"/>
       </defs>
       <use xlink:href="#DejaVuSans-30"/>
       <use xlink:href="#DejaVuSans-2e" x="63.623047"/>
       <use xlink:href="#DejaVuSans-35" x="95.410156"/>
      </g>
     </g>
    </g>
    <g id="ytick_3">
     <g id="line2d_19">
      <path d="M 57.6 247.324836 
L 414.72 247.324836 
" clip-path="url(#pb34ad6f333)" style="fill: none; stroke: #b0b0b0; stroke-width: 0.8; stroke-linecap: square"/>
     </g>
     <g id="line2d_20">
      <g>
       <use xlink:href="#maf59cc8bec" x="57.6" y="247.324836" style="stroke: #000000; stroke-width: 0.8"/>
      </g>
     </g>
     <g id="text_11">
      <!-- 1.0 -->
      <g transform="translate(34.696875 251.124055) scale(0.1 -0.1)">
       <use xlink:href="#DejaVuSans-31"/>
       <use xlink:href="#DejaVuSans-2e" x="63.623047"/>
       <use xlink:href="#DejaVuSans-30" x="95.410156"/>
      </g>
     </g>
    </g>
    <g id="ytick_4">
     <g id="line2d_21">
      <path d="M 57.6 217.195254 
L 414.72 217.195254 
" clip-path="url(#pb34ad6f333)" style="fill: none; stroke: #b0b0b0; stroke-width: 0.8; stroke-linecap: square"/>
     </g>
     <g id="line2d_22">
      <g>
       <use xlink:href="#maf59cc8bec" x="57.6" y="217.195254" style="stroke: #000000; stroke-width: 0.8"/>
      </g>
     </g>
     <g id="text_12">
      <!-- 1.5 -->
      <g transform="translate(34.696875 220.994473) scale(0.1 -0.1)">
       <use xlink:href="#DejaVuSans-31"/>
       <use xlink:href="#DejaVuSans-2e" x="63.623047"/>
       <use xlink:href="#DejaVuSans-35" x="95.410156"/>
      </g>
     </g>
    </g>
    <g id="ytick_5">
     <g id="line2d_23">
      <path d="M 57.6 187.065672 
L 414.72 187.065672 
" clip-path="url(#pb34ad6f333)" style="fill: none; stroke: #b0b0b0; stroke-width: 0.8; stroke-linecap: square"/>
     </g>
     <g id="line2d_24">
      <g>
       <use xlink:href="#maf59cc8bec" x="57.6" y="187.065672" style="stroke: #000000; stroke-width: 0.8"/>
      </g>
     </g>
     <g id="text_13">
      <!-- 2.0 -->
      <g transform="translate(34.696875 190.864891) scale(0.1 -0.1)">
       <use xlink:href="#DejaVuSans-32"/>
       <use xlink:href="#DejaVuSans-2e" x="63.623047"/>
       <use xlink:href="#DejaVuSans-30" x="95.410156"/>
      </g>
     </g>
    </g>
    <g id="ytick_6">
     <g id="line2d_25">
      <path d="M 57.6 156.93609 
L 414.72 156.93609 
" clip-path="url(#pb34ad6f333)" style="fill: none; stroke: #b0b0b0; stroke-width: 0.8; stroke-linecap: square"/>
     </g>
     <g id="line2d_26">
      <g>
       <use xlink:href="#maf59cc8bec" x="57.6" y="156.93609" style="stroke: #000000; stroke-width: 0.8"/>
      </g>
     </g>
     <g id="text_14">
      <!-- 2.5 -->
      <g transform="translate(34.696875 160.735309) scale(0.1 -0.1)">
       <use xlink:href="#DejaVuSans-32"/>
       <use xlink:href="#DejaVuSans-2e" x="63.623047"/>
       <use xlink:href="#DejaVuSans-35" x="95.410156"/>
      </g>
     </g>
    </g>
    <g id="ytick_7">
     <g id="line2d_27">
      <path d="M 57.6 126.806508 
L 414.72 126.806508 
" clip-path="url(#pb34ad6f333)" style="fill: none; stroke: #b0b0b0; stroke-width: 0.8; stroke-linecap: square"/>
     </g>
     <g id="line2d_28">
      <g>
       <use xlink:href="#maf59cc8bec" x="57.6" y="126.806508" style="stroke: #000000; stroke-width: 0.8"/>
      </g>
     </g>
     <g id="text_15">
      <!-- 3.0 -->
      <g transform="translate(34.696875 130.605727) scale(0.1 -0.1)">
       <defs>
        <path id="DejaVuSans-33" d="M 2597 2516 
Q 3050 2419 3304 2112 
Q 3559 1806 3559 1356 
Q 3559 666 3084 287 
Q 2609 -91 1734 -91 
Q 1441 -91 1130 -33 
Q 819 25 488 141 
L 488 750 
Q 750 597 1062 519 
Q 1375 441 1716 441 
Q 2309 441 2620 675 
Q 2931 909 2931 1356 
Q 2931 1769 2642 2001 
Q 2353 2234 1838 2234 
L 1294 2234 
L 1294 2753 
L 1863 2753 
Q 2328 2753 2575 2939 
Q 2822 3125 2822 3475 
Q 2822 3834 2567 4026 
Q 2313 4219 1838 4219 
Q 1578 4219 1281 4162 
Q 984 4106 628 3988 
L 628 4550 
Q 988 4650 1302 4700 
Q 1616 4750 1894 4750 
Q 2613 4750 3031 4423 
Q 3450 4097 3450 3541 
Q 3450 3153 3228 2886 
Q 3006 2619 2597 2516 
z
" transform="scale(0.015625)"/>
       </defs>
       <use xlink:href="#DejaVuSans-33"/>
       <use xlink:href="#DejaVuSans-2e" x="63.623047"/>
       <use xlink:href="#DejaVuSans-30" x="95.410156"/>
      </g>
     </g>
    </g>
    <g id="ytick_8">
     <g id="line2d_29">
      <path d="M 57.6 96.676926 
L 414.72 96.676926 
" clip-path="url(#pb34ad6f333)" style="fill: none; stroke: #b0b0b0; stroke-width: 0.8; stroke-linecap: square"/>
     </g>
     <g id="line2d_30">
      <g>
       <use xlink:href="#maf59cc8bec" x="57.6" y="96.676926" style="stroke: #000000; stroke-width: 0.8"/>
      </g>
     </g>
     <g id="text_16">
      <!-- 3.5 -->
      <g transform="translate(34.696875 100.476145) scale(0.1 -0.1)">
       <use xlink:href="#DejaVuSans-33"/>
       <use xlink:href="#DejaVuSans-2e" x="63.623047"/>
       <use xlink:href="#DejaVuSans-35" x="95.410156"/>
      </g>
     </g>
    </g>
    <g id="ytick_9">
     <g id="line2d_31">
      <path d="M 57.6 66.547345 
L 414.72 66.547345 
" clip-path="url(#pb34ad6f333)" style="fill: none; stroke: #b0b0b0; stroke-width: 0.8; stroke-linecap: square"/>
     </g>
     <g id="line2d_32">
      <g>
       <use xlink:href="#maf59cc8bec" x="57.6" y="66.547345" style="stroke: #000000; stroke-width: 0.8"/>
      </g>
     </g>
     <g id="text_17">
      <!-- 4.0 -->
      <g transform="translate(34.696875 70.346563) scale(0.1 -0.1)">
       <use xlink:href="#DejaVuSans-34"/>
       <use xlink:href="#DejaVuSans-2e" x="63.623047"/>
       <use xlink:href="#DejaVuSans-30" x="95.410156"/>
      </g>
     </g>
    </g>
    <g id="text_18">
     <!-- pdf($a$) -->
     <g transform="translate(28.596875 189.628) rotate(-90) scale(0.1 -0.1)">
      <defs>
       <path id="DejaVuSans-70" d="M 1159 525 
L 1159 -1331 
L 581 -1331 
L 581 3500 
L 1159 3500 
L 1159 2969 
Q 1341 3281 1617 3432 
Q 1894 3584 2278 3584 
Q 2916 3584 3314 3078 
Q 3713 2572 3713 1747 
Q 3713 922 3314 415 
Q 2916 -91 2278 -91 
Q 1894 -91 1617 61 
Q 1341 213 1159 525 
z
M 3116 1747 
Q 3116 2381 2855 2742 
Q 2594 3103 2138 3103 
Q 1681 3103 1420 2742 
Q 1159 2381 1159 1747 
Q 1159 1113 1420 752 
Q 1681 391 2138 391 
Q 2594 391 2855 752 
Q 3116 1113 3116 1747 
z
" transform="scale(0.015625)"/>
       <path id="DejaVuSans-64" d="M 2906 2969 
L 2906 4863 
L 3481 4863 
L 3481 0 
L 2906 0 
L 2906 525 
Q 2725 213 2448 61 
Q 2172 -91 1784 -91 
Q 1150 -91 751 415 
Q 353 922 353 1747 
Q 353 2572 751 3078 
Q 1150 3584 1784 3584 
Q 2172 3584 2448 3432 
Q 2725 3281 2906 2969 
z
M 947 1747 
Q 947 1113 1208 752 
Q 1469 391 1925 391 
Q 2381 391 2643 752 
Q 2906 1113 2906 1747 
Q 2906 2381 2643 2742 
Q 2381 3103 1925 3103 
Q 1469 3103 1208 2742 
Q 947 2381 947 1747 
z
" transform="scale(0.015625)"/>
       <path id="DejaVuSans-66" d="M 2375 4863 
L 2375 4384 
L 1825 4384 
Q 1516 4384 1395 4259 
Q 1275 4134 1275 3809 
L 1275 3500 
L 2222 3500 
L 2222 3053 
L 1275 3053 
L 1275 0 
L 697 0 
L 697 3053 
L 147 3053 
L 147 3500 
L 697 3500 
L 697 3744 
Q 697 4328 969 4595 
Q 1241 4863 1831 4863 
L 2375 4863 
z
" transform="scale(0.015625)"/>
       <path id="DejaVuSans-28" d="M 1984 4856 
Q 1566 4138 1362 3434 
Q 1159 2731 1159 2009 
Q 1159 1288 1364 580 
Q 1569 -128 1984 -844 
L 1484 -844 
Q 1016 -109 783 600 
Q 550 1309 550 2009 
Q 550 2706 781 3412 
Q 1013 4119 1484 4856 
L 1984 4856 
z
" transform="scale(0.015625)"/>
       <path id="DejaVuSans-29" d="M 513 4856 
L 1013 4856 
Q 1481 4119 1714 3412 
Q 1947 2706 1947 2009 
Q 1947 1309 1714 600 
Q 1481 -109 1013 -844 
L 513 -844 
Q 928 -128 1133 580 
Q 1338 1288 1338 2009 
Q 1338 2731 1133 3434 
Q 928 4138 513 4856 
z
" transform="scale(0.015625)"/>
      </defs>
      <use xlink:href="#DejaVuSans-70" transform="translate(0 0.015625)"/>
      <use xlink:href="#DejaVuSans-64" transform="translate(63.476562 0.015625)"/>
      <use xlink:href="#DejaVuSans-66" transform="translate(126.953125 0.015625)"/>
      <use xlink:href="#DejaVuSans-28" transform="translate(162.158203 0.015625)"/>
      <use xlink:href="#DejaVuSans-Oblique-61" transform="translate(201.171875 0.015625)"/>
      <use xlink:href="#DejaVuSans-29" transform="translate(262.451172 0.015625)"/>
     </g>
    </g>
   </g>
   <g id="patch_52">
    <path d="M 57.6 307.584 
L 57.6 41.472 
" style="fill: none; stroke: #000000; stroke-width: 0.8; stroke-linejoin: miter; stroke-linecap: square"/>
   </g>
   <g id="patch_53">
    <path d="M 414.72 307.584 
L 414.72 41.472 
" style="fill: none; stroke: #000000; stroke-width: 0.8; stroke-linejoin: miter; stroke-linecap: square"/>
   </g>
   <g id="patch_54">
    <path d="M 57.6 307.584 
L 414.72 307.584 
" style="fill: none; stroke: #000000; stroke-width: 0.8; stroke-linejoin: miter; stroke-linecap: square"/>
   </g>
   <g id="patch_55">
    <path d="M 57.6 41.472 
L 414.72 41.472 
" style="fill: none; stroke: #000000; stroke-width: 0.8; stroke-linejoin: miter; stroke-linecap: square"/>
   </g>
   <g id="text_19">
    <!-- $\overline{a}$=0.99; 95% CI: [0.80, 1.18] -->
    <g transform="translate(149.94 35.472) scale(0.12 -0.12)">
     <defs>
      <path id="DejaVuSans-3d" d="M 678 2906 
L 4684 2906 
L 4684 2381 
L 678 2381 
L 678 2906 
z
M 678 1631 
L 4684 1631 
L 4684 1100 
L 678 1100 
L 678 1631 
z
" transform="scale(0.015625)"/>
      <path id="DejaVuSans-39" d="M 703 97 
L 703 672 
Q 941 559 1184 500 
Q 1428 441 1663 441 
Q 2288 441 2617 861 
Q 2947 1281 2994 2138 
Q 2813 1869 2534 1725 
Q 2256 1581 1919 1581 
Q 1219 1581 811 2004 
Q 403 2428 403 3163 
Q 403 3881 828 4315 
Q 1253 4750 1959 4750 
Q 2769 4750 3195 4129 
Q 3622 3509 3622 2328 
Q 3622 1225 3098 567 
Q 2575 -91 1691 -91 
Q 1453 -91 1209 -44 
Q 966 3 703 97 
z
M 1959 2075 
Q 2384 2075 2632 2365 
Q 2881 2656 2881 3163 
Q 2881 3666 2632 3958 
Q 2384 4250 1959 4250 
Q 1534 4250 1286 3958 
Q 1038 3666 1038 3163 
Q 1038 2656 1286 2365 
Q 1534 2075 1959 2075 
z
" transform="scale(0.015625)"/>
      <path id="DejaVuSans-3b" d="M 750 3309 
L 1409 3309 
L 1409 2516 
L 750 2516 
L 750 3309 
z
M 750 794 
L 1409 794 
L 1409 256 
L 897 -744 
L 494 -744 
L 750 256 
L 750 794 
z
" transform="scale(0.015625)"/>
      <path id="DejaVuSans-20" transform="scale(0.015625)"/>
      <path id="DejaVuSans-25" d="M 4653 2053 
Q 4381 2053 4226 1822 
Q 4072 1591 4072 1178 
Q 4072 772 4226 539 
Q 4381 306 4653 306 
Q 4919 306 5073 539 
Q 5228 772 5228 1178 
Q 5228 1588 5073 1820 
Q 4919 2053 4653 2053 
z
M 4653 2450 
Q 5147 2450 5437 2106 
Q 5728 1763 5728 1178 
Q 5728 594 5436 251 
Q 5144 -91 4653 -91 
Q 4153 -91 3862 251 
Q 3572 594 3572 1178 
Q 3572 1766 3864 2108 
Q 4156 2450 4653 2450 
z
M 1428 4353 
Q 1159 4353 1004 4120 
Q 850 3888 850 3481 
Q 850 3069 1003 2837 
Q 1156 2606 1428 2606 
Q 1700 2606 1854 2837 
Q 2009 3069 2009 3481 
Q 2009 3884 1853 4118 
Q 1697 4353 1428 4353 
z
M 4250 4750 
L 4750 4750 
L 1831 -91 
L 1331 -91 
L 4250 4750 
z
M 1428 4750 
Q 1922 4750 2215 4408 
Q 2509 4066 2509 3481 
Q 2509 2891 2217 2550 
Q 1925 2209 1428 2209 
Q 931 2209 642 2551 
Q 353 2894 353 3481 
Q 353 4063 643 4406 
Q 934 4750 1428 4750 
z
" transform="scale(0.015625)"/>
      <path id="DejaVuSans-43" d="M 4122 4306 
L 4122 3641 
Q 3803 3938 3442 4084 
Q 3081 4231 2675 4231 
Q 1875 4231 1450 3742 
Q 1025 3253 1025 2328 
Q 1025 1406 1450 917 
Q 1875 428 2675 428 
Q 3081 428 3442 575 
Q 3803 722 4122 1019 
L 4122 359 
Q 3791 134 3420 21 
Q 3050 -91 2638 -91 
Q 1578 -91 968 557 
Q 359 1206 359 2328 
Q 359 3453 968 4101 
Q 1578 4750 2638 4750 
Q 3056 4750 3426 4639 
Q 3797 4528 4122 4306 
z
" transform="scale(0.015625)"/>
      <path id="DejaVuSans-49" d="M 628 4666 
L 1259 4666 
L 1259 0 
L 628 0 
L 628 4666 
z
" transform="scale(0.015625)"/>
      <path id="DejaVuSans-3a" d="M 750 794 
L 1409 794 
L 1409 0 
L 750 0 
L 750 794 
z
M 750 3309 
L 1409 3309 
L 1409 2516 
L 750 2516 
L 750 3309 
z
" transform="scale(0.015625)"/>
      <path id="DejaVuSans-5b" d="M 550 4863 
L 1875 4863 
L 1875 4416 
L 1125 4416 
L 1125 -397 
L 1875 -397 
L 1875 -844 
L 550 -844 
L 550 4863 
z
" transform="scale(0.015625)"/>
      <path id="DejaVuSans-2c" d="M 750 794 
L 1409 794 
L 1409 256 
L 897 -744 
L 494 -744 
L 750 256 
L 750 794 
z
" transform="scale(0.015625)"/>
      <path id="DejaVuSans-5d" d="M 1947 4863 
L 1947 -844 
L 622 -844 
L 622 -397 
L 1369 -397 
L 1369 4416 
L 622 4416 
L 622 4863 
L 1947 4863 
z
" transform="scale(0.015625)"/>
     </defs>
     <use xlink:href="#DejaVuSans-Oblique-61" transform="translate(0 0.75)"/>
     <use xlink:href="#DejaVuSans-3d" transform="translate(61.279297 0.25)"/>
     <use xlink:href="#DejaVuSans-30" transform="translate(145.068359 0.25)"/>
     <use xlink:href="#DejaVuSans-2e" transform="translate(208.691406 0.25)"/>
     <use xlink:href="#DejaVuSans-39" transform="translate(240.478516 0.25)"/>
     <use xlink:href="#DejaVuSans-39" transform="translate(304.101562 0.25)"/>
     <use xlink:href="#DejaVuSans-3b" transform="translate(367.724609 0.25)"/>
     <use xlink:href="#DejaVuSans-20" transform="translate(401.416016 0.25)"/>
     <use xlink:href="#DejaVuSans-39" transform="translate(433.203125 0.25)"/>
     <use xlink:href="#DejaVuSans-35" transform="translate(496.826172 0.25)"/>
     <use xlink:href="#DejaVuSans-25" transform="translate(560.449219 0.25)"/>
     <use xlink:href="#DejaVuSans-20" transform="translate(655.46875 0.25)"/>
     <use xlink:href="#DejaVuSans-43" transform="translate(687.255859 0.25)"/>
     <use xlink:href="#DejaVuSans-49" transform="translate(757.080078 0.25)"/>
     <use xlink:href="#DejaVuSans-3a" transform="translate(786.572266 0.25)"/>
     <use xlink:href="#DejaVuSans-20" transform="translate(820.263672 0.25)"/>
     <use xlink:href="#DejaVuSans-5b" transform="translate(852.050781 0.25)"/>
     <use xlink:href="#DejaVuSans-30" transform="translate(891.064453 0.25)"/>
     <use xlink:href="#DejaVuSans-2e" transform="translate(954.6875 0.25)"/>
     <use xlink:href="#DejaVuSans-38" transform="translate(983.849609 0.25)"/>
     <use xlink:href="#DejaVuSans-30" transform="translate(1047.472656 0.25)"/>
     <use xlink:href="#DejaVuSans-2c" transform="translate(1111.095703 0.25)"/>
     <use xlink:href="#DejaVuSans-20" transform="translate(1142.882812 0.25)"/>
     <use xlink:href="#DejaVuSans-31" transform="translate(1174.669922 0.25)"/>
     <use xlink:href="#DejaVuSans-2e" transform="translate(1238.292969 0.25)"/>
     <use xlink:href="#DejaVuSans-31" transform="translate(1270.080078 0.25)"/>
     <use xlink:href="#DejaVuSans-38" transform="translate(1333.703125 0.25)"/>
     <use xlink:href="#DejaVuSans-5d" transform="translate(1397.326172 0.25)"/>
     <path d="M 0 68.5 
L 0 74.75 
L 61.279297 74.75 
L 61.279297 68.5 
L 0 68.5 
z
"/>
    </g>
   </g>
  </g>
 </g>
 <defs>
  <clipPath id="pb34ad6f333">
   <rect x="57.6" y="41.472" width="357.12" height="266.112"/>
  </clipPath>
 </defs>
</svg>
