<?xml version="1.0" encoding="utf-8" standalone="no"?>
<!DOCTYPE svg PUBLIC "-//W3C//DTD SVG 1.1//EN"
  "http://www.w3.org/Graphics/SVG/1.1/DTD/svg11.dtd">
<svg xmlns:xlink="http://www.w3.org/1999/xlink" width="402.241875pt" height="325.037625pt" viewBox="0 0 402.241875 325.037625" xmlns="http://www.w3.org/2000/svg" version="1.1">
 <metadata>
  <rdf:RDF xmlns:dc="http://purl.org/dc/elements/1.1/" xmlns:cc="http://creativecommons.org/ns#" xmlns:rdf="http://www.w3.org/1999/02/22-rdf-syntax-ns#">
   <cc:Work>
    <dc:type rdf:resource="http://purl.org/dc/dcmitype/StillImage"/>
    <dc:date>2025-04-07T10:23:59.571303</dc:date>
    <dc:format>image/svg+xml</dc:format>
    <dc:creator>
     <cc:Agent>
      <dc:title>Matplotlib v3.8.4, https://matplotlib.org/</dc:title>
     </cc:Agent>
    </dc:creator>
   </cc:Work>
  </rdf:RDF>
 </metadata>
 <defs>
  <style type="text/css">*{stroke-linejoin: round; stroke-linecap: butt}</style>
 </defs>
 <g id="figure_1">
  <g id="patch_1">
   <path d="M 0 325.037625 
L 402.241875 325.037625 
L 402.241875 0 
L 0 0 
L 0 325.037625 
z
" style="fill: none"/>
  </g>
  <g id="axes_1">
   <g id="patch_2">
    <path d="M 37.921875 288.672 
L 395.041875 288.672 
L 395.041875 22.56 
L 37.921875 22.56 
L 37.921875 288.672 
z
" style="fill: none"/>
   </g>
   <g id="matplotlib.axis_1">
    <g id="xtick_1">
     <g id="line2d_1">
      <path d="M 54.154602 288.672 
L 54.154602 22.56 
" clip-path="url(#p7bdbc9438a)" style="fill: none; stroke: #b0b0b0; stroke-width: 0.8; stroke-linecap: square"/>
     </g>
     <g id="line2d_2">
      <defs>
       <path id="mbe6ec879d7" d="M 0 0 
L 0 3.5 
" style="stroke: #000000; stroke-width: 0.8"/>
      </defs>
      <g>
       <use xlink:href="#mbe6ec879d7" x="54.154602" y="288.672" style="stroke: #000000; stroke-width: 0.8"/>
      </g>
     </g>
     <g id="text_1">
      <!-- 0 -->
      <g transform="translate(51.654602 302.61575) scale(0.1 -0.1)">
       <defs>
        <path id="TimesNewRomanPSMT-30" d="M 231 2094 
Q 231 2819 450 3342 
Q 669 3866 1031 4122 
Q 1313 4325 1613 4325 
Q 2100 4325 2488 3828 
Q 2972 3213 2972 2159 
Q 2972 1422 2759 906 
Q 2547 391 2217 158 
Q 1888 -75 1581 -75 
Q 975 -75 572 641 
Q 231 1244 231 2094 
z
M 844 2016 
Q 844 1141 1059 588 
Q 1238 122 1591 122 
Q 1759 122 1940 273 
Q 2122 425 2216 781 
Q 2359 1319 2359 2297 
Q 2359 3022 2209 3506 
Q 2097 3866 1919 4016 
Q 1791 4119 1609 4119 
Q 1397 4119 1231 3928 
Q 1006 3669 925 3112 
Q 844 2556 844 2016 
z
" transform="scale(0.015625)"/>
       </defs>
       <use xlink:href="#TimesNewRomanPSMT-30"/>
      </g>
     </g>
    </g>
    <g id="xtick_2">
     <g id="line2d_3">
      <path d="M 119.150507 288.672 
L 119.150507 22.56 
" clip-path="url(#p7bdbc9438a)" style="fill: none; stroke: #b0b0b0; stroke-width: 0.8; stroke-linecap: square"/>
     </g>
     <g id="line2d_4">
      <g>
       <use xlink:href="#mbe6ec879d7" x="119.150507" y="288.672" style="stroke: #000000; stroke-width: 0.8"/>
      </g>
     </g>
     <g id="text_2">
      <!-- 200 -->
      <g transform="translate(111.650507 302.61575) scale(0.1 -0.1)">
       <defs>
        <path id="TimesNewRomanPSMT-32" d="M 2934 816 
L 2638 0 
L 138 0 
L 138 116 
Q 1241 1122 1691 1759 
Q 2141 2397 2141 2925 
Q 2141 3328 1894 3587 
Q 1647 3847 1303 3847 
Q 991 3847 742 3664 
Q 494 3481 375 3128 
L 259 3128 
Q 338 3706 661 4015 
Q 984 4325 1469 4325 
Q 1984 4325 2329 3994 
Q 2675 3663 2675 3213 
Q 2675 2891 2525 2569 
Q 2294 2063 1775 1497 
Q 997 647 803 472 
L 1909 472 
Q 2247 472 2383 497 
Q 2519 522 2628 598 
Q 2738 675 2819 816 
L 2934 816 
z
" transform="scale(0.015625)"/>
       </defs>
       <use xlink:href="#TimesNewRomanPSMT-32"/>
       <use xlink:href="#TimesNewRomanPSMT-30" x="50"/>
       <use xlink:href="#TimesNewRomanPSMT-30" x="100"/>
      </g>
     </g>
    </g>
    <g id="xtick_3">
     <g id="line2d_5">
      <path d="M 184.146412 288.672 
L 184.146412 22.56 
" clip-path="url(#p7bdbc9438a)" style="fill: none; stroke: #b0b0b0; stroke-width: 0.8; stroke-linecap: square"/>
     </g>
     <g id="line2d_6">
      <g>
       <use xlink:href="#mbe6ec879d7" x="184.146412" y="288.672" style="stroke: #000000; stroke-width: 0.8"/>
      </g>
     </g>
     <g id="text_3">
      <!-- 400 -->
      <g transform="translate(176.646412 302.61575) scale(0.1 -0.1)">
       <defs>
        <path id="TimesNewRomanPSMT-34" d="M 2978 1563 
L 2978 1119 
L 2409 1119 
L 2409 0 
L 1894 0 
L 1894 1119 
L 100 1119 
L 100 1519 
L 2066 4325 
L 2409 4325 
L 2409 1563 
L 2978 1563 
z
M 1894 1563 
L 1894 3666 
L 406 1563 
L 1894 1563 
z
" transform="scale(0.015625)"/>
       </defs>
       <use xlink:href="#TimesNewRomanPSMT-34"/>
       <use xlink:href="#TimesNewRomanPSMT-30" x="50"/>
       <use xlink:href="#TimesNewRomanPSMT-30" x="100"/>
      </g>
     </g>
    </g>
    <g id="xtick_4">
     <g id="line2d_7">
      <path d="M 249.142317 288.672 
L 249.142317 22.56 
" clip-path="url(#p7bdbc9438a)" style="fill: none; stroke: #b0b0b0; stroke-width: 0.8; stroke-linecap: square"/>
     </g>
     <g id="line2d_8">
      <g>
       <use xlink:href="#mbe6ec879d7" x="249.142317" y="288.672" style="stroke: #000000; stroke-width: 0.8"/>
      </g>
     </g>
     <g id="text_4">
      <!-- 600 -->
      <g transform="translate(241.642317 302.61575) scale(0.1 -0.1)">
       <defs>
        <path id="TimesNewRomanPSMT-36" d="M 2869 4325 
L 2869 4209 
Q 2456 4169 2195 4045 
Q 1934 3922 1679 3669 
Q 1425 3416 1258 3105 
Q 1091 2794 978 2366 
Q 1428 2675 1881 2675 
Q 2316 2675 2634 2325 
Q 2953 1975 2953 1425 
Q 2953 894 2631 456 
Q 2244 -75 1606 -75 
Q 1172 -75 869 213 
Q 275 772 275 1663 
Q 275 2231 503 2743 
Q 731 3256 1154 3653 
Q 1578 4050 1965 4187 
Q 2353 4325 2688 4325 
L 2869 4325 
z
M 925 2138 
Q 869 1716 869 1456 
Q 869 1156 980 804 
Q 1091 453 1309 247 
Q 1469 100 1697 100 
Q 1969 100 2183 356 
Q 2397 613 2397 1088 
Q 2397 1622 2184 2012 
Q 1972 2403 1581 2403 
Q 1463 2403 1327 2353 
Q 1191 2303 925 2138 
z
" transform="scale(0.015625)"/>
       </defs>
       <use xlink:href="#TimesNewRomanPSMT-36"/>
       <use xlink:href="#TimesNewRomanPSMT-30" x="50"/>
       <use xlink:href="#TimesNewRomanPSMT-30" x="100"/>
      </g>
     </g>
    </g>
    <g id="xtick_5">
     <g id="line2d_9">
      <path d="M 314.138222 288.672 
L 314.138222 22.56 
" clip-path="url(#p7bdbc9438a)" style="fill: none; stroke: #b0b0b0; stroke-width: 0.8; stroke-linecap: square"/>
     </g>
     <g id="line2d_10">
      <g>
       <use xlink:href="#mbe6ec879d7" x="314.138222" y="288.672" style="stroke: #000000; stroke-width: 0.8"/>
      </g>
     </g>
     <g id="text_5">
      <!-- 800 -->
      <g transform="translate(306.638222 302.61575) scale(0.1 -0.1)">
       <defs>
        <path id="TimesNewRomanPSMT-38" d="M 1228 2134 
Q 725 2547 579 2797 
Q 434 3047 434 3316 
Q 434 3728 753 4026 
Q 1072 4325 1600 4325 
Q 2113 4325 2425 4047 
Q 2738 3769 2738 3413 
Q 2738 3175 2569 2928 
Q 2400 2681 1866 2347 
Q 2416 1922 2594 1678 
Q 2831 1359 2831 1006 
Q 2831 559 2490 242 
Q 2150 -75 1597 -75 
Q 994 -75 656 303 
Q 388 606 388 966 
Q 388 1247 577 1523 
Q 766 1800 1228 2134 
z
M 1719 2469 
Q 2094 2806 2194 3001 
Q 2294 3197 2294 3444 
Q 2294 3772 2109 3958 
Q 1925 4144 1606 4144 
Q 1288 4144 1088 3959 
Q 888 3775 888 3528 
Q 888 3366 970 3203 
Q 1053 3041 1206 2894 
L 1719 2469 
z
M 1375 2016 
Q 1116 1797 991 1539 
Q 866 1281 866 981 
Q 866 578 1086 336 
Q 1306 94 1647 94 
Q 1984 94 2187 284 
Q 2391 475 2391 747 
Q 2391 972 2272 1150 
Q 2050 1481 1375 2016 
z
" transform="scale(0.015625)"/>
       </defs>
       <use xlink:href="#TimesNewRomanPSMT-38"/>
       <use xlink:href="#TimesNewRomanPSMT-30" x="50"/>
       <use xlink:href="#TimesNewRomanPSMT-30" x="100"/>
      </g>
     </g>
    </g>
    <g id="xtick_6">
     <g id="line2d_11">
      <path d="M 379.134127 288.672 
L 379.134127 22.56 
" clip-path="url(#p7bdbc9438a)" style="fill: none; stroke: #b0b0b0; stroke-width: 0.8; stroke-linecap: square"/>
     </g>
     <g id="line2d_12">
      <g>
       <use xlink:href="#mbe6ec879d7" x="379.134127" y="288.672" style="stroke: #000000; stroke-width: 0.8"/>
      </g>
     </g>
     <g id="text_6">
      <!-- 1000 -->
      <g transform="translate(369.134127 302.61575) scale(0.1 -0.1)">
       <defs>
        <path id="TimesNewRomanPSMT-31" d="M 750 3822 
L 1781 4325 
L 1884 4325 
L 1884 747 
Q 1884 391 1914 303 
Q 1944 216 2037 169 
Q 2131 122 2419 116 
L 2419 0 
L 825 0 
L 825 116 
Q 1125 122 1212 167 
Q 1300 213 1334 289 
Q 1369 366 1369 747 
L 1369 3034 
Q 1369 3497 1338 3628 
Q 1316 3728 1258 3775 
Q 1200 3822 1119 3822 
Q 1003 3822 797 3725 
L 750 3822 
z
" transform="scale(0.015625)"/>
       </defs>
       <use xlink:href="#TimesNewRomanPSMT-31"/>
       <use xlink:href="#TimesNewRomanPSMT-30" x="50"/>
       <use xlink:href="#TimesNewRomanPSMT-30" x="100"/>
       <use xlink:href="#TimesNewRomanPSMT-30" x="150"/>
      </g>
     </g>
    </g>
    <g id="text_7">
     <!-- $t$ -->
     <g transform="translate(214.631875 315.698562) scale(0.1 -0.1)">
      <defs>
       <path id="Cmmi10-74" d="M 397 519 
Q 397 613 416 697 
L 878 2534 
L 206 2534 
Q 141 2534 141 2619 
Q 166 2759 225 2759 
L 934 2759 
L 1191 3803 
Q 1216 3888 1291 3947 
Q 1366 4006 1459 4006 
Q 1541 4006 1595 3957 
Q 1650 3909 1650 3828 
Q 1650 3809 1648 3798 
Q 1647 3788 1644 3775 
L 1388 2759 
L 2047 2759 
Q 2113 2759 2113 2675 
Q 2109 2659 2100 2621 
Q 2091 2584 2075 2559 
Q 2059 2534 2028 2534 
L 1331 2534 
L 872 684 
Q 825 503 825 372 
Q 825 97 1013 97 
Q 1294 97 1511 361 
Q 1728 625 1844 941 
Q 1869 978 1894 978 
L 1972 978 
Q 1997 978 2012 961 
Q 2028 944 2028 922 
Q 2028 909 2022 903 
Q 1881 516 1612 222 
Q 1344 -72 997 -72 
Q 744 -72 570 93 
Q 397 259 397 519 
z
" transform="scale(0.015625)"/>
      </defs>
      <use xlink:href="#Cmmi10-74" transform="translate(0 0.40625)"/>
     </g>
    </g>
   </g>
   <g id="matplotlib.axis_2">
    <g id="ytick_1">
     <g id="line2d_13">
      <path d="M 37.921875 280.628171 
L 395.041875 280.628171 
" clip-path="url(#p7bdbc9438a)" style="fill: none; stroke: #b0b0b0; stroke-width: 0.8; stroke-linecap: square"/>
     </g>
     <g id="line2d_14">
      <defs>
       <path id="mc7ebf40d35" d="M 0 0 
L -3.5 0 
" style="stroke: #000000; stroke-width: 0.8"/>
      </defs>
      <g>
       <use xlink:href="#mc7ebf40d35" x="37.921875" y="280.628171" style="stroke: #000000; stroke-width: 0.8"/>
      </g>
     </g>
     <g id="text_8">
      <!-- −4 -->
      <g transform="translate(20.282813 284.100046) scale(0.1 -0.1)">
       <defs>
        <path id="TimesNewRomanPSMT-2212" d="M 3484 2000 
L 116 2000 
L 116 2256 
L 3484 2256 
L 3484 2000 
z
" transform="scale(0.015625)"/>
       </defs>
       <use xlink:href="#TimesNewRomanPSMT-2212"/>
       <use xlink:href="#TimesNewRomanPSMT-34" x="56.396484"/>
      </g>
     </g>
    </g>
    <g id="ytick_2">
     <g id="line2d_15">
      <path d="M 37.921875 246.61997 
L 395.041875 246.61997 
" clip-path="url(#p7bdbc9438a)" style="fill: none; stroke: #b0b0b0; stroke-width: 0.8; stroke-linecap: square"/>
     </g>
     <g id="line2d_16">
      <g>
       <use xlink:href="#mc7ebf40d35" x="37.921875" y="246.61997" style="stroke: #000000; stroke-width: 0.8"/>
      </g>
     </g>
     <g id="text_9">
      <!-- −3 -->
      <g transform="translate(20.282813 250.091845) scale(0.1 -0.1)">
       <defs>
        <path id="TimesNewRomanPSMT-33" d="M 325 3431 
Q 506 3859 782 4092 
Q 1059 4325 1472 4325 
Q 1981 4325 2253 3994 
Q 2459 3747 2459 3466 
Q 2459 3003 1878 2509 
Q 2269 2356 2469 2072 
Q 2669 1788 2669 1403 
Q 2669 853 2319 450 
Q 1863 -75 997 -75 
Q 569 -75 414 31 
Q 259 138 259 259 
Q 259 350 332 419 
Q 406 488 509 488 
Q 588 488 669 463 
Q 722 447 909 348 
Q 1097 250 1169 231 
Q 1284 197 1416 197 
Q 1734 197 1970 444 
Q 2206 691 2206 1028 
Q 2206 1275 2097 1509 
Q 2016 1684 1919 1775 
Q 1784 1900 1550 2001 
Q 1316 2103 1072 2103 
L 972 2103 
L 972 2197 
Q 1219 2228 1467 2375 
Q 1716 2522 1828 2728 
Q 1941 2934 1941 3181 
Q 1941 3503 1739 3701 
Q 1538 3900 1238 3900 
Q 753 3900 428 3381 
L 325 3431 
z
" transform="scale(0.015625)"/>
       </defs>
       <use xlink:href="#TimesNewRomanPSMT-2212"/>
       <use xlink:href="#TimesNewRomanPSMT-33" x="56.396484"/>
      </g>
     </g>
    </g>
    <g id="ytick_3">
     <g id="line2d_17">
      <path d="M 37.921875 212.611769 
L 395.041875 212.611769 
" clip-path="url(#p7bdbc9438a)" style="fill: none; stroke: #b0b0b0; stroke-width: 0.8; stroke-linecap: square"/>
     </g>
     <g id="line2d_18">
      <g>
       <use xlink:href="#mc7ebf40d35" x="37.921875" y="212.611769" style="stroke: #000000; stroke-width: 0.8"/>
      </g>
     </g>
     <g id="text_10">
      <!-- −2 -->
      <g transform="translate(20.282813 216.083644) scale(0.1 -0.1)">
       <use xlink:href="#TimesNewRomanPSMT-2212"/>
       <use xlink:href="#TimesNewRomanPSMT-32" x="56.396484"/>
      </g>
     </g>
    </g>
    <g id="ytick_4">
     <g id="line2d_19">
      <path d="M 37.921875 178.603568 
L 395.041875 178.603568 
" clip-path="url(#p7bdbc9438a)" style="fill: none; stroke: #b0b0b0; stroke-width: 0.8; stroke-linecap: square"/>
     </g>
     <g id="line2d_20">
      <g>
       <use xlink:href="#mc7ebf40d35" x="37.921875" y="178.603568" style="stroke: #000000; stroke-width: 0.8"/>
      </g>
     </g>
     <g id="text_11">
      <!-- −1 -->
      <g transform="translate(20.282813 182.075443) scale(0.1 -0.1)">
       <use xlink:href="#TimesNewRomanPSMT-2212"/>
       <use xlink:href="#TimesNewRomanPSMT-31" x="56.396484"/>
      </g>
     </g>
    </g>
    <g id="ytick_5">
     <g id="line2d_21">
      <path d="M 37.921875 144.595367 
L 395.041875 144.595367 
" clip-path="url(#p7bdbc9438a)" style="fill: none; stroke: #b0b0b0; stroke-width: 0.8; stroke-linecap: square"/>
     </g>
     <g id="line2d_22">
      <g>
       <use xlink:href="#mc7ebf40d35" x="37.921875" y="144.595367" style="stroke: #000000; stroke-width: 0.8"/>
      </g>
     </g>
     <g id="text_12">
      <!-- 0 -->
      <g transform="translate(25.921875 148.067242) scale(0.1 -0.1)">
       <use xlink:href="#TimesNewRomanPSMT-30"/>
      </g>
     </g>
    </g>
    <g id="ytick_6">
     <g id="line2d_23">
      <path d="M 37.921875 110.587166 
L 395.041875 110.587166 
" clip-path="url(#p7bdbc9438a)" style="fill: none; stroke: #b0b0b0; stroke-width: 0.8; stroke-linecap: square"/>
     </g>
     <g id="line2d_24">
      <g>
       <use xlink:href="#mc7ebf40d35" x="37.921875" y="110.587166" style="stroke: #000000; stroke-width: 0.8"/>
      </g>
     </g>
     <g id="text_13">
      <!-- 1 -->
      <g transform="translate(25.921875 114.059041) scale(0.1 -0.1)">
       <use xlink:href="#TimesNewRomanPSMT-31"/>
      </g>
     </g>
    </g>
    <g id="ytick_7">
     <g id="line2d_25">
      <path d="M 37.921875 76.578965 
L 395.041875 76.578965 
" clip-path="url(#p7bdbc9438a)" style="fill: none; stroke: #b0b0b0; stroke-width: 0.8; stroke-linecap: square"/>
     </g>
     <g id="line2d_26">
      <g>
       <use xlink:href="#mc7ebf40d35" x="37.921875" y="76.578965" style="stroke: #000000; stroke-width: 0.8"/>
      </g>
     </g>
     <g id="text_14">
      <!-- 2 -->
      <g transform="translate(25.921875 80.05084) scale(0.1 -0.1)">
       <use xlink:href="#TimesNewRomanPSMT-32"/>
      </g>
     </g>
    </g>
    <g id="ytick_8">
     <g id="line2d_27">
      <path d="M 37.921875 42.570764 
L 395.041875 42.570764 
" clip-path="url(#p7bdbc9438a)" style="fill: none; stroke: #b0b0b0; stroke-width: 0.8; stroke-linecap: square"/>
     </g>
     <g id="line2d_28">
      <g>
       <use xlink:href="#mc7ebf40d35" x="37.921875" y="42.570764" style="stroke: #000000; stroke-width: 0.8"/>
      </g>
     </g>
     <g id="text_15">
      <!-- 3 -->
      <g transform="translate(25.921875 46.042639) scale(0.1 -0.1)">
       <use xlink:href="#TimesNewRomanPSMT-33"/>
      </g>
     </g>
    </g>
    <g id="text_16">
     <!-- $y$ -->
     <g transform="translate(14.14375 158.116) rotate(-90) scale(0.1 -0.1)">
      <defs>
       <path id="Cmmi10-79" d="M 538 -916 
Q 672 -1147 1006 -1147 
Q 1309 -1147 1531 -934 
Q 1753 -722 1889 -420 
Q 2025 -119 2100 197 
Q 1816 -72 1484 -72 
Q 1231 -72 1053 15 
Q 875 103 776 276 
Q 678 450 678 697 
Q 678 906 734 1126 
Q 791 1347 892 1617 
Q 994 1888 1069 2088 
Q 1153 2322 1153 2472 
Q 1153 2663 1013 2663 
Q 759 2663 595 2402 
Q 431 2141 353 1819 
Q 341 1778 300 1778 
L 225 1778 
Q 172 1778 172 1838 
L 172 1856 
Q 275 2238 487 2533 
Q 700 2828 1025 2828 
Q 1253 2828 1411 2678 
Q 1569 2528 1569 2297 
Q 1569 2178 1516 2047 
Q 1488 1969 1388 1706 
Q 1288 1444 1234 1272 
Q 1181 1100 1147 934 
Q 1113 769 1113 603 
Q 1113 391 1203 244 
Q 1294 97 1491 97 
Q 1888 97 2203 581 
L 2688 2553 
Q 2709 2638 2787 2698 
Q 2866 2759 2956 2759 
Q 3034 2759 3092 2709 
Q 3150 2659 3150 2578 
Q 3150 2541 3144 2528 
L 2509 -19 
Q 2425 -347 2200 -647 
Q 1975 -947 1658 -1130 
Q 1341 -1313 997 -1313 
Q 831 -1313 668 -1248 
Q 506 -1184 406 -1056 
Q 306 -928 306 -756 
Q 306 -581 409 -453 
Q 513 -325 684 -325 
Q 788 -325 858 -389 
Q 928 -453 928 -556 
Q 928 -703 818 -812 
Q 709 -922 563 -922 
Q 556 -919 550 -917 
Q 544 -916 538 -916 
z
" transform="scale(0.015625)"/>
      </defs>
      <use xlink:href="#Cmmi10-79" transform="translate(0 0.8125)"/>
     </g>
    </g>
   </g>
   <g id="line2d_29">
    <path d="M 54.154602 146.909247 
L 54.479582 183.114861 
L 54.804561 78.759591 
L 55.129541 132.986955 
L 55.7795 168.568576 
L 56.104479 145.708099 
L 56.429459 138.003897 
L 56.754438 60.563528 
L 57.079418 166.079372 
L 57.404398 150.998511 
L 57.729377 145.373946 
L 58.054357 186.662669 
L 58.379336 110.500247 
L 58.704316 123.219872 
L 59.029295 153.964338 
L 59.354275 140.206079 
L 59.679254 160.716899 
L 60.004234 162.719695 
L 60.329213 126.573455 
L 60.654193 149.473208 
L 60.979172 132.821135 
L 61.304152 178.988592 
L 61.629131 170.448851 
L 61.954111 205.861645 
L 62.60407 135.556494 
L 62.929049 99.387523 
L 63.254029 175.854819 
L 63.579008 143.541403 
L 64.228968 199.104605 
L 64.553947 149.40095 
L 64.878927 153.014213 
L 65.203906 144.162406 
L 65.528886 78.939092 
L 65.853865 67.628266 
L 66.178845 78.412115 
L 66.503824 217.61854 
L 66.828804 191.723782 
L 67.153783 126.922838 
L 67.478763 97.099513 
L 67.803742 155.468998 
L 68.128722 126.957015 
L 68.453701 141.122646 
L 69.10366 194.115727 
L 69.42864 148.004693 
L 69.753619 119.478597 
L 70.078599 109.92775 
L 70.403579 88.388495 
L 70.728558 85.489627 
L 71.053538 74.38959 
L 71.378517 128.952861 
L 71.703497 141.294969 
L 72.028476 160.559481 
L 72.353456 104.582231 
L 73.003415 200.195447 
L 73.328394 151.213057 
L 73.653374 142.281588 
L 73.978353 111.589851 
L 74.628312 216.562022 
L 74.953292 140.376206 
L 75.278271 115.068604 
L 75.92823 167.785437 
L 76.25321 166.676404 
L 76.578189 163.017263 
L 77.228149 98.459157 
L 77.553128 198.151682 
L 77.878108 112.345544 
L 78.203087 151.754482 
L 78.528067 123.839584 
L 78.853046 145.850656 
L 79.178026 150.254084 
L 79.503005 143.173031 
L 79.827985 114.787676 
L 80.152964 126.081162 
L 80.477944 127.574552 
L 80.802923 168.248602 
L 81.127903 149.850286 
L 81.452882 169.208186 
L 81.777862 151.813438 
L 82.102841 102.58296 
L 82.427821 130.690653 
L 82.7528 107.582773 
L 83.07778 141.060418 
L 83.727739 163.814017 
L 84.052719 147.736502 
L 84.377698 187.515688 
L 84.702678 103.568953 
L 85.027657 83.429275 
L 85.352637 181.213084 
L 85.677616 123.911561 
L 86.002596 90.652458 
L 86.327575 173.483716 
L 86.652555 153.791058 
L 86.977534 144.19205 
L 87.302514 122.686861 
L 87.627493 131.336459 
L 87.952473 170.188419 
L 88.277452 147.09598 
L 88.602432 185.869386 
L 88.927411 111.887901 
L 89.252391 88.264817 
L 89.57737 165.464662 
L 89.90235 132.945388 
L 90.22733 157.958532 
L 90.552309 157.226333 
L 91.202268 112.263034 
L 91.527248 138.849286 
L 91.852227 114.346978 
L 92.177207 130.085777 
L 92.502186 101.443879 
L 92.827166 91.416823 
L 93.152145 226.658177 
L 93.477125 143.077988 
L 93.802104 152.056014 
L 94.127084 168.819559 
L 94.452063 123.177269 
L 94.777043 122.641793 
L 95.102022 188.197284 
L 95.427002 116.557643 
L 95.751981 121.954818 
L 96.076961 175.435109 
L 96.401941 88.325855 
L 96.72692 84.050613 
L 97.0519 143.916024 
L 97.376879 144.325178 
L 97.701859 101.107776 
L 98.026838 150.690751 
L 98.351818 178.944713 
L 98.676797 125.484426 
L 99.001777 157.1706 
L 99.326756 129.618957 
L 99.651736 184.402618 
L 99.976715 112.499014 
L 100.301695 129.628292 
L 100.626674 120.945281 
L 100.951654 108.227243 
L 101.276633 165.034528 
L 101.601613 142.368435 
L 101.926592 184.446597 
L 102.251572 200.601436 
L 102.576551 154.457206 
L 102.901531 215.401827 
L 103.226511 189.633702 
L 103.55149 120.290322 
L 103.87647 200.823534 
L 104.201449 160.975148 
L 104.526429 148.796226 
L 104.851408 182.019028 
L 105.176388 116.70357 
L 105.501367 92.485953 
L 105.826347 113.788563 
L 106.151326 192.381805 
L 106.476306 121.321641 
L 107.451244 196.174417 
L 107.776224 165.038551 
L 108.101203 144.59167 
L 108.426183 196.986377 
L 108.751162 142.550601 
L 109.401122 152.070475 
L 109.726101 197.312442 
L 110.051081 129.297693 
L 110.37606 161.458709 
L 110.70104 145.062309 
L 111.026019 201.530823 
L 111.350999 165.515039 
L 111.675978 44.357376 
L 112.000958 207.088648 
L 112.325937 163.556516 
L 112.650917 156.974531 
L 112.975896 117.254186 
L 113.300876 177.300288 
L 113.950835 141.878679 
L 114.275814 144.785714 
L 114.600794 137.002488 
L 114.925773 126.135772 
L 115.250753 126.93973 
L 115.575732 197.1378 
L 115.900712 154.042848 
L 116.225692 129.430875 
L 116.550671 161.600958 
L 117.20063 122.285952 
L 117.52561 175.535772 
L 117.850589 110.607464 
L 118.175569 101.002306 
L 118.500548 143.891593 
L 118.825528 156.951957 
L 119.150507 151.859792 
L 119.475487 128.621693 
L 119.800466 136.076857 
L 120.125446 226.172283 
L 120.450425 105.400855 
L 120.775405 105.421884 
L 121.100384 161.62004 
L 121.425364 171.475839 
L 121.750343 191.718289 
L 122.075323 176.095494 
L 122.400303 138.518444 
L 122.725282 192.201867 
L 123.050262 192.288264 
L 123.375241 134.253042 
L 123.700221 222.148242 
L 124.675159 83.389399 
L 125.000139 153.58628 
L 125.325118 148.863759 
L 125.650098 113.435028 
L 125.975077 200.230906 
L 126.300057 109.805321 
L 126.625036 142.499699 
L 126.950016 113.507869 
L 127.274995 60.145505 
L 127.599975 210.805883 
L 127.924954 149.193087 
L 128.249934 185.400689 
L 128.574913 170.435739 
L 128.899893 99.550557 
L 129.224873 164.171654 
L 129.874832 84.929816 
L 130.199811 100.510794 
L 130.524791 128.377099 
L 130.84977 120.00759 
L 131.17475 87.740201 
L 131.499729 186.072639 
L 131.824709 144.128357 
L 132.149688 153.760991 
L 132.474668 156.054005 
L 132.799647 165.312805 
L 133.124627 145.291428 
L 133.449606 147.423637 
L 133.774586 193.99539 
L 134.099565 127.135004 
L 134.424545 95.824406 
L 134.749524 103.810048 
L 135.074504 179.237418 
L 135.399484 109.812522 
L 135.724463 136.727012 
L 136.049443 111.357122 
L 136.374422 103.432851 
L 136.699402 137.652522 
L 137.024381 144.004992 
L 137.349361 118.85462 
L 137.67434 163.919028 
L 137.99932 144.718694 
L 138.324299 60.062274 
L 138.974258 145.152591 
L 139.299238 116.992064 
L 139.624217 184.454698 
L 139.949197 117.736599 
L 140.274176 99.809208 
L 140.599156 53.240217 
L 140.924135 152.288259 
L 141.249115 160.754848 
L 141.574094 178.711125 
L 141.899074 188.344015 
L 142.224054 180.167313 
L 142.549033 114.649485 
L 142.874013 110.928274 
L 143.198992 219.486657 
L 143.523972 142.315345 
L 143.848951 114.139945 
L 144.173931 145.631085 
L 144.49891 216.064762 
L 144.82389 147.504438 
L 145.148869 132.72184 
L 145.473849 161.719178 
L 145.798828 164.360617 
L 146.448787 212.493171 
L 146.773767 108.07626 
L 147.098746 118.869701 
L 147.423726 119.45185 
L 147.748705 195.595643 
L 148.073685 188.861309 
L 148.398665 131.301952 
L 148.723644 136.090179 
L 149.048624 160.050131 
L 149.373603 163.036575 
L 149.698583 152.113798 
L 150.023562 146.473112 
L 150.348542 190.327576 
L 150.673521 142.48622 
L 151.64846 205.536956 
L 152.298419 106.187559 
L 152.623398 103.46531 
L 152.948378 170.519381 
L 153.273357 129.622189 
L 153.598337 192.207784 
L 154.248296 132.654183 
L 154.573275 131.084776 
L 154.898255 143.876852 
L 155.223235 119.098667 
L 155.548214 179.247114 
L 155.873194 133.37646 
L 156.198173 109.689531 
L 156.523153 151.157775 
L 156.848132 147.521444 
L 157.173112 169.169129 
L 157.498091 156.416304 
L 157.823071 170.227187 
L 158.14805 132.191494 
L 158.47303 155.492784 
L 158.798009 115.316241 
L 159.122989 170.581317 
L 159.447968 157.446787 
L 159.772948 167.713124 
L 160.097927 162.827384 
L 160.422907 175.953586 
L 160.747886 178.169686 
L 161.072866 114.079324 
L 161.397846 137.081376 
L 161.722825 127.250117 
L 162.047805 77.23667 
L 162.372784 95.532449 
L 163.022743 178.206637 
L 163.672702 129.472207 
L 163.997682 148.502978 
L 164.322661 139.787269 
L 164.647641 181.647783 
L 164.97262 197.429966 
L 165.2976 68.617738 
L 165.622579 124.537185 
L 165.947559 125.517754 
L 166.272538 110.81854 
L 166.922497 145.849776 
L 167.247477 143.246273 
L 167.572456 125.09218 
L 167.897436 139.7939 
L 168.222416 141.287325 
L 168.547395 179.200389 
L 168.872375 176.155909 
L 169.197354 153.999563 
L 169.522334 142.9668 
L 169.847313 119.363023 
L 170.172293 121.559027 
L 170.497272 135.647971 
L 170.822252 119.186657 
L 171.472211 107.371557 
L 171.79719 167.644558 
L 172.12217 132.250381 
L 172.447149 115.634001 
L 172.772129 177.423003 
L 173.097108 192.410695 
L 173.422088 148.31772 
L 173.747067 159.13883 
L 174.072047 191.324545 
L 174.397027 98.598292 
L 174.722006 145.397868 
L 175.046986 166.792391 
L 175.371965 153.880695 
L 175.696945 180.274772 
L 176.021924 90.891139 
L 176.346904 106.046642 
L 176.671883 141.314261 
L 176.996863 119.864143 
L 177.321842 123.452482 
L 177.646822 156.87032 
L 177.971801 164.182021 
L 178.296781 156.223983 
L 178.62176 103.84437 
L 178.94674 92.922298 
L 179.271719 155.857254 
L 179.596699 169.759115 
L 179.921678 120.71634 
L 180.246658 156.676296 
L 180.571637 154.683214 
L 180.896617 162.010381 
L 181.221597 164.694031 
L 181.546576 151.149816 
L 181.871556 173.416638 
L 182.196535 116.700516 
L 182.521515 104.454217 
L 182.846494 174.035659 
L 183.171474 178.830572 
L 183.496453 276.576 
L 183.821433 185.897644 
L 184.146412 189.603996 
L 184.471392 128.333956 
L 184.796371 139.993844 
L 185.121351 164.961049 
L 185.44633 178.262359 
L 186.421269 82.191811 
L 186.746248 162.558548 
L 187.071228 107.184457 
L 187.396208 147.050816 
L 187.721187 107.431107 
L 188.046167 94.752317 
L 188.371146 187.493641 
L 188.696126 156.177488 
L 189.021105 93.478875 
L 189.346085 161.586204 
L 189.671064 131.294425 
L 189.996044 131.683142 
L 190.321023 98.433787 
L 190.646003 78.199081 
L 190.970982 188.605656 
L 191.620941 112.83199 
L 191.945921 164.467075 
L 192.2709 137.541955 
L 192.59588 184.062823 
L 192.920859 153.711967 
L 193.245839 90.469253 
L 193.570818 139.615803 
L 193.895798 38.392762 
L 194.220778 138.473699 
L 194.545757 153.965557 
L 194.870737 67.413114 
L 195.195716 130.421954 
L 195.845675 148.030246 
L 196.170655 239.641469 
L 196.495634 125.87281 
L 196.820614 163.405978 
L 197.145593 144.977331 
L 197.470573 210.270102 
L 197.795552 111.719287 
L 198.120532 111.820636 
L 198.445511 112.460266 
L 198.770491 146.884801 
L 199.09547 84.498899 
L 199.42045 189.900435 
L 199.745429 106.582113 
L 200.070409 82.670543 
L 200.395389 171.504115 
L 200.720368 103.342032 
L 201.045348 151.220601 
L 201.370327 156.11352 
L 201.695307 93.177469 
L 202.020286 115.981789 
L 202.345266 155.949128 
L 202.670245 130.960679 
L 202.995225 68.476664 
L 203.320204 154.842794 
L 203.645184 193.014674 
L 203.970163 107.789623 
L 204.295143 169.980904 
L 204.620122 115.140875 
L 204.945102 135.086784 
L 205.270081 144.192097 
L 205.595061 107.00358 
L 205.92004 211.034417 
L 206.24502 143.525336 
L 206.569999 166.399479 
L 206.894979 179.337412 
L 207.219959 160.382511 
L 207.869918 172.13283 
L 208.194897 148.945095 
L 208.519877 83.345316 
L 208.844856 107.428792 
L 209.494815 178.217189 
L 209.819795 133.873133 
L 210.144774 108.987323 
L 210.469754 109.140442 
L 210.794733 138.61319 
L 211.119713 145.270622 
L 211.444692 159.938284 
L 212.094651 91.491234 
L 212.419631 153.728149 
L 212.74461 152.9392 
L 213.06959 126.591108 
L 213.39457 113.950277 
L 213.719549 120.903088 
L 214.044529 106.462967 
L 214.369508 151.772542 
L 214.694488 172.204926 
L 215.019467 159.461881 
L 215.344447 173.361577 
L 215.669426 156.53445 
L 215.994406 183.476385 
L 216.319385 146.789489 
L 216.644365 170.899699 
L 216.969344 179.24893 
L 217.294324 153.916057 
L 217.619303 145.020551 
L 217.944283 131.087936 
L 218.269262 106.90689 
L 218.594242 179.332035 
L 218.919221 211.686117 
L 219.244201 130.960954 
L 219.56918 131.635322 
L 219.89416 139.372145 
L 220.21914 143.061996 
L 220.544119 112.290469 
L 220.869099 139.577263 
L 221.194078 212.139435 
L 221.519058 193.720178 
L 221.844037 159.104611 
L 222.169017 147.044412 
L 222.493996 155.599806 
L 222.818976 127.071256 
L 223.143955 129.116466 
L 223.468935 127.922382 
L 223.793914 134.382881 
L 224.118894 127.868084 
L 224.768853 81.021847 
L 225.093832 131.920374 
L 225.418812 121.351656 
L 225.743791 203.18719 
L 226.068771 136.840298 
L 226.393751 104.688309 
L 226.71873 109.374875 
L 227.04371 135.259847 
L 227.693669 156.60148 
L 228.018648 154.811617 
L 228.668607 140.944678 
L 228.993587 118.835186 
L 229.318566 163.640011 
L 229.643546 176.749248 
L 229.968525 138.936864 
L 230.293505 117.994883 
L 230.618484 175.511345 
L 231.268443 116.128123 
L 231.593423 152.674143 
L 231.918402 172.543205 
L 232.568361 134.968035 
L 232.893341 96.630858 
L 233.218321 124.14359 
L 233.5433 182.966458 
L 233.86828 152.660964 
L 234.193259 152.48288 
L 234.518239 195.47848 
L 234.843218 168.201445 
L 235.168198 85.388141 
L 235.493177 102.898728 
L 235.818157 151.923172 
L 236.143136 161.663067 
L 236.468116 146.577482 
L 236.793095 106.655703 
L 237.118075 98.149062 
L 237.443054 164.272664 
L 237.768034 120.419995 
L 238.093013 103.331573 
L 238.417993 219.266912 
L 238.742972 126.672648 
L 239.067952 222.764067 
L 239.392932 102.178406 
L 240.36787 211.830204 
L 240.69285 164.545764 
L 241.017829 92.464394 
L 241.342809 181.649489 
L 241.667788 192.545214 
L 241.992768 87.077063 
L 242.317747 119.239937 
L 242.642727 132.839616 
L 242.967706 106.48643 
L 243.292686 141.000751 
L 243.617665 108.342914 
L 243.942645 214.527121 
L 244.267624 151.648544 
L 244.592604 161.688848 
L 244.917583 164.924589 
L 245.242563 128.78031 
L 245.567542 161.792154 
L 245.892522 151.151669 
L 246.217502 194.444573 
L 246.542481 34.656 
L 246.867461 109.607616 
L 247.19244 142.027697 
L 247.51742 89.533335 
L 247.842399 182.140491 
L 248.167379 154.671923 
L 248.492358 116.076532 
L 249.142317 148.505281 
L 249.467297 144.822071 
L 249.792276 116.986248 
L 250.117256 123.495685 
L 250.442235 154.99333 
L 250.767215 131.286568 
L 251.092194 146.483655 
L 251.417174 128.079581 
L 251.742153 121.437389 
L 252.067133 141.763561 
L 252.392113 142.542205 
L 252.717092 125.394837 
L 253.042072 127.73859 
L 253.367051 158.841853 
L 253.692031 175.570279 
L 254.01701 72.749791 
L 254.34199 230.888321 
L 254.666969 110.484769 
L 254.991949 127.991767 
L 255.316928 93.632469 
L 256.291867 213.610538 
L 256.941826 80.761822 
L 257.266805 170.004381 
L 257.591785 124.333441 
L 257.916764 187.35267 
L 258.241744 182.065436 
L 258.566723 88.854265 
L 258.891703 207.413808 
L 259.216683 133.820137 
L 259.541662 137.681418 
L 259.866642 122.992995 
L 260.191621 158.018464 
L 260.84158 119.680105 
L 261.16656 91.529806 
L 261.491539 157.357826 
L 261.816519 142.043275 
L 262.141498 134.242343 
L 262.466478 161.501918 
L 262.791457 139.952422 
L 263.116437 186.877242 
L 263.441416 147.25323 
L 263.766396 190.652664 
L 264.091375 109.604776 
L 264.416355 143.138835 
L 264.741334 154.359088 
L 265.391294 112.205084 
L 265.716273 139.376837 
L 266.041253 197.596076 
L 266.366232 123.917078 
L 266.691212 92.756549 
L 267.016191 156.988368 
L 267.341171 128.261521 
L 267.66615 166.034 
L 267.99113 174.207523 
L 268.316109 191.307943 
L 268.641089 192.01397 
L 268.966068 212.082764 
L 269.291048 192.746997 
L 269.616027 95.624994 
L 269.941007 157.148661 
L 270.265986 120.760563 
L 270.590966 102.362392 
L 270.915945 178.715085 
L 271.240925 153.906362 
L 271.565904 119.643821 
L 271.890884 169.957625 
L 272.215864 171.391975 
L 272.540843 64.643237 
L 272.865823 182.878821 
L 273.190802 205.728888 
L 273.515782 120.852182 
L 273.840761 91.717055 
L 274.165741 134.414171 
L 274.49072 141.611924 
L 274.8157 183.322258 
L 275.140679 106.412531 
L 275.465659 184.641686 
L 275.790638 122.763407 
L 276.115618 107.920106 
L 276.440597 196.175037 
L 276.765577 170.884224 
L 277.090556 134.538622 
L 277.415536 135.308838 
L 277.740515 128.445171 
L 278.065495 125.545064 
L 278.390475 158.320738 
L 278.715454 149.456155 
L 279.040434 104.325585 
L 279.365413 140.307141 
L 279.690393 94.618866 
L 280.015372 183.895283 
L 280.340352 127.031969 
L 280.665331 190.39049 
L 280.990311 147.128435 
L 281.31529 168.40849 
L 281.64027 134.514996 
L 281.965249 78.910481 
L 282.290229 164.870258 
L 282.615208 112.539044 
L 282.940188 153.956332 
L 283.590147 81.715486 
L 283.915126 173.465604 
L 284.240106 98.323465 
L 284.565085 138.138839 
L 284.890065 122.724212 
L 285.215045 167.232251 
L 285.540024 127.176149 
L 285.865004 109.566809 
L 286.189983 139.342048 
L 286.514963 94.030143 
L 286.839942 96.471164 
L 287.164922 217.910084 
L 287.489901 142.85095 
L 287.814881 99.700047 
L 288.46484 157.936443 
L 288.789819 134.404033 
L 289.114799 154.371218 
L 289.439778 136.64416 
L 289.764758 136.91841 
L 290.089737 173.499923 
L 290.414717 142.441737 
L 290.739696 64.858102 
L 291.389656 179.343851 
L 291.714635 150.974189 
L 292.039615 95.173906 
L 292.364594 186.836903 
L 292.689574 114.824307 
L 293.014553 134.339463 
L 293.339533 133.519861 
L 293.664512 138.271621 
L 293.989492 118.549631 
L 294.314471 197.498972 
L 294.639451 85.299009 
L 294.96443 130.222959 
L 295.614389 155.613971 
L 295.939369 215.940504 
L 296.264348 99.479133 
L 296.589328 87.628868 
L 296.914307 92.883029 
L 297.239287 164.972318 
L 297.564266 171.159598 
L 297.889246 128.266271 
L 298.214226 199.354178 
L 298.539205 177.002239 
L 298.864185 179.491461 
L 299.189164 147.445131 
L 299.514144 214.108009 
L 299.839123 140.189903 
L 300.164103 144.769498 
L 300.489082 168.21621 
L 301.139041 151.057227 
L 301.464021 134.115034 
L 301.789 183.219028 
L 302.11398 130.648657 
L 302.438959 169.814779 
L 302.763939 125.721519 
L 303.088918 185.629181 
L 303.413898 86.997008 
L 303.738877 165.349344 
L 304.063857 99.249355 
L 304.388837 211.028677 
L 305.038796 47.403253 
L 305.363775 131.725175 
L 305.688755 182.74077 
L 306.013734 73.837007 
L 306.338714 119.661347 
L 306.663693 216.064232 
L 306.988673 113.413885 
L 307.313652 141.061112 
L 307.638632 128.912697 
L 307.963611 173.216477 
L 308.288591 155.941164 
L 308.61357 149.730061 
L 308.93855 156.658978 
L 309.263529 176.379064 
L 309.588509 117.638249 
L 309.913488 120.884052 
L 310.238468 142.519947 
L 310.563447 147.470787 
L 310.888427 72.200838 
L 311.213407 142.119455 
L 311.538386 91.989373 
L 311.863366 117.476795 
L 312.188345 169.627391 
L 312.513325 152.186831 
L 312.838304 72.299454 
L 313.163284 96.666392 
L 313.488263 174.541008 
L 313.813243 159.185586 
L 314.138222 189.884075 
L 314.463202 100.911207 
L 314.788181 153.871587 
L 315.113161 111.224118 
L 315.43814 124.377075 
L 315.76312 126.201988 
L 316.088099 143.49253 
L 316.413079 177.452713 
L 316.738058 125.542583 
L 317.063038 179.730861 
L 317.388018 207.702468 
L 317.712997 137.49993 
L 318.037977 166.911002 
L 318.362956 115.712112 
L 318.687936 181.226601 
L 319.012915 76.770308 
L 319.337895 143.504369 
L 319.662874 155.471781 
L 319.987854 205.261226 
L 320.312833 154.181562 
L 320.637813 161.078207 
L 320.962792 129.435244 
L 321.287772 156.986617 
L 321.612751 168.317262 
L 321.937731 172.459914 
L 322.26271 205.822996 
L 322.58769 200.108261 
L 322.912669 141.675759 
L 323.237649 142.9953 
L 323.887608 231.336206 
L 324.212588 140.947488 
L 324.537567 122.476829 
L 324.862547 156.436149 
L 325.187526 172.915878 
L 325.512506 124.75722 
L 326.162465 163.516014 
L 326.487444 112.865004 
L 326.812424 120.841203 
L 327.137403 176.815277 
L 327.462383 131.93208 
L 327.787362 112.452487 
L 328.112342 146.66649 
L 328.437321 137.820678 
L 328.762301 181.539177 
L 329.08728 160.424316 
L 329.41226 162.844774 
L 329.737239 193.636423 
L 330.062219 97.258742 
L 330.387199 143.523196 
L 330.712178 105.329797 
L 331.037158 95.794171 
L 331.687117 204.148725 
L 332.012096 115.359016 
L 332.337076 129.511859 
L 332.662055 113.247311 
L 332.987035 159.08402 
L 333.312014 82.143554 
L 333.636994 208.312032 
L 334.286953 133.655887 
L 334.611932 168.127712 
L 334.936912 106.244977 
L 335.261891 171.030234 
L 335.586871 191.027451 
L 335.91185 172.013959 
L 336.23683 110.874677 
L 336.561809 146.277719 
L 336.886789 145.76503 
L 337.211769 138.54886 
L 337.536748 144.795693 
L 337.861728 143.516848 
L 338.186707 109.974792 
L 338.511687 188.580113 
L 338.836666 94.762051 
L 339.161646 155.618025 
L 339.486625 125.094952 
L 339.811605 113.785727 
L 340.136584 121.262204 
L 340.461564 212.647045 
L 340.786543 133.437276 
L 341.111523 165.124185 
L 341.436502 161.95182 
L 341.761482 143.454015 
L 342.086461 151.669094 
L 342.411441 66.488121 
L 342.73642 119.957943 
L 343.0614 98.058887 
L 343.38638 120.786214 
L 343.711359 162.565507 
L 344.036339 123.595122 
L 344.361318 108.170864 
L 345.011277 165.470319 
L 345.336257 144.583258 
L 345.661236 163.908293 
L 346.311195 139.892405 
L 346.636175 93.865597 
L 346.961154 154.273905 
L 347.286134 114.731859 
L 347.611113 153.387408 
L 347.936093 234.680833 
L 348.261072 53.538887 
L 348.911031 141.022303 
L 349.236011 106.634615 
L 349.56099 110.691402 
L 349.88597 103.731515 
L 350.21095 135.484321 
L 350.535929 153.351218 
L 350.860909 196.317463 
L 351.185888 116.18626 
L 351.510868 183.514854 
L 351.835847 179.272493 
L 352.160827 149.379111 
L 352.485806 156.855811 
L 352.810786 76.851172 
L 353.135765 83.86044 
L 353.460745 99.552955 
L 353.785724 156.114495 
L 354.110704 163.093847 
L 354.760663 133.146928 
L 355.085642 188.340764 
L 355.410622 174.715256 
L 355.735601 111.752108 
L 356.060581 116.567642 
L 356.385561 119.587209 
L 356.71054 142.394594 
L 357.03552 141.53701 
L 357.360499 151.545208 
L 357.685479 134.600817 
L 358.010458 82.623784 
L 358.660417 130.502765 
L 358.985397 121.384873 
L 359.310376 189.597601 
L 359.635356 213.076735 
L 359.960335 136.880024 
L 360.285315 198.524829 
L 360.935274 117.182781 
L 361.260253 156.674544 
L 361.585233 123.573608 
L 361.910212 191.804801 
L 362.235192 180.877923 
L 362.560171 150.327538 
L 362.885151 107.035425 
L 363.53511 139.94871 
L 363.86009 132.895043 
L 364.185069 133.306009 
L 364.510049 129.710081 
L 364.835028 131.51953 
L 365.160008 164.765081 
L 365.484987 131.362492 
L 365.809967 171.241727 
L 366.134946 180.319162 
L 366.459926 109.744263 
L 367.434864 191.889893 
L 368.084823 135.368004 
L 368.409803 128.498008 
L 369.059762 204.115716 
L 369.384742 175.264278 
L 369.709721 169.476507 
L 370.034701 174.929442 
L 370.35968 105.243466 
L 370.68466 117.023919 
L 371.009639 111.796674 
L 371.334619 143.672114 
L 371.659598 153.117077 
L 371.984578 155.96437 
L 372.309557 93.85068 
L 372.634537 115.360429 
L 372.959516 177.504368 
L 373.284496 109.10553 
L 373.609475 193.699787 
L 373.934455 176.0915 
L 374.259434 242.951389 
L 374.584414 143.300917 
L 374.909393 182.14141 
L 375.234373 105.683741 
L 375.559352 189.337046 
L 375.884332 150.363019 
L 376.209312 180.486216 
L 376.534291 115.590238 
L 376.859271 105.394228 
L 377.18425 140.659426 
L 377.50923 146.300364 
L 377.834209 158.748649 
L 378.159189 112.951963 
L 378.484168 223.429972 
L 378.809148 177.115558 
L 378.809148 177.115558 
" clip-path="url(#p7bdbc9438a)" style="fill: none; stroke: #000000; stroke-width: 1.5; stroke-linecap: square"/>
   </g>
   <g id="patch_3">
    <path d="M 37.921875 288.672 
L 37.921875 22.56 
" style="fill: none; stroke: #000000; stroke-width: 0.8; stroke-linejoin: miter; stroke-linecap: square"/>
   </g>
   <g id="patch_4">
    <path d="M 395.041875 288.672 
L 395.041875 22.56 
" style="fill: none; stroke: #000000; stroke-width: 0.8; stroke-linejoin: miter; stroke-linecap: square"/>
   </g>
   <g id="patch_5">
    <path d="M 37.921875 288.672 
L 395.041875 288.672 
" style="fill: none; stroke: #000000; stroke-width: 0.8; stroke-linejoin: miter; stroke-linecap: square"/>
   </g>
   <g id="patch_6">
    <path d="M 37.921875 22.56 
L 395.041875 22.56 
" style="fill: none; stroke: #000000; stroke-width: 0.8; stroke-linejoin: miter; stroke-linecap: square"/>
   </g>
   <g id="text_17">
    <!-- $N =1000$ values from $\mathcal{N}$(0,1) -->
    <g transform="translate(144.961875 16.56) scale(0.12 -0.12)">
     <defs>
      <path id="Cmmi10-4e" d="M 300 0 
Q 238 0 238 84 
Q 241 100 250 139 
Q 259 178 276 201 
Q 294 225 319 225 
Q 931 225 1031 616 
L 1900 4116 
Q 1722 4147 1338 4147 
Q 1275 4147 1275 4231 
Q 1278 4247 1287 4286 
Q 1297 4325 1314 4348 
Q 1331 4372 1356 4372 
L 2463 4372 
Q 2509 4372 2522 4331 
L 3944 947 
L 4653 3781 
Q 4666 3850 4666 3878 
Q 4666 4147 4172 4147 
Q 4109 4147 4109 4231 
Q 4131 4313 4143 4342 
Q 4156 4372 4219 4372 
L 5588 4372 
Q 5650 4372 5650 4288 
Q 5647 4272 5637 4233 
Q 5628 4194 5611 4170 
Q 5594 4147 5569 4147 
Q 4956 4147 4856 3756 
L 3938 56 
Q 3916 0 3872 0 
L 3794 0 
Q 3750 0 3738 44 
L 2106 3916 
L 2094 3956 
Q 2081 3969 2081 3975 
L 1234 588 
Q 1228 572 1225 548 
Q 1222 525 1216 494 
Q 1216 328 1359 276 
Q 1503 225 1716 225 
Q 1778 225 1778 141 
Q 1756 53 1740 26 
Q 1725 0 1672 0 
L 300 0 
z
" transform="scale(0.015625)"/>
      <path id="Cmr10-3d" d="M 481 850 
Q 428 850 393 890 
Q 359 931 359 978 
Q 359 1031 393 1068 
Q 428 1106 481 1106 
L 4500 1106 
Q 4547 1106 4581 1068 
Q 4616 1031 4616 978 
Q 4616 931 4581 890 
Q 4547 850 4500 850 
L 481 850 
z
M 481 2094 
Q 428 2094 393 2131 
Q 359 2169 359 2222 
Q 359 2269 393 2309 
Q 428 2350 481 2350 
L 4500 2350 
Q 4547 2350 4581 2309 
Q 4616 2269 4616 2222 
Q 4616 2169 4581 2131 
Q 4547 2094 4500 2094 
L 481 2094 
z
" transform="scale(0.015625)"/>
      <path id="Cmr10-31" d="M 594 0 
L 594 225 
Q 1394 225 1394 428 
L 1394 3788 
Q 1063 3628 556 3628 
L 556 3853 
Q 1341 3853 1741 4263 
L 1831 4263 
Q 1853 4263 1873 4245 
Q 1894 4228 1894 4206 
L 1894 428 
Q 1894 225 2694 225 
L 2694 0 
L 594 0 
z
" transform="scale(0.015625)"/>
      <path id="Cmr10-30" d="M 1600 -141 
Q 816 -141 533 504 
Q 250 1150 250 2041 
Q 250 2597 351 3087 
Q 453 3578 754 3920 
Q 1056 4263 1600 4263 
Q 2022 4263 2290 4056 
Q 2559 3850 2700 3523 
Q 2841 3197 2892 2823 
Q 2944 2450 2944 2041 
Q 2944 1491 2842 1011 
Q 2741 531 2444 195 
Q 2147 -141 1600 -141 
z
M 1600 25 
Q 1956 25 2131 390 
Q 2306 756 2347 1200 
Q 2388 1644 2388 2144 
Q 2388 2625 2347 3031 
Q 2306 3438 2132 3767 
Q 1959 4097 1600 4097 
Q 1238 4097 1063 3765 
Q 888 3434 847 3029 
Q 806 2625 806 2144 
Q 806 1788 823 1472 
Q 841 1156 916 820 
Q 991 484 1158 254 
Q 1325 25 1600 25 
z
" transform="scale(0.015625)"/>
      <path id="TimesNewRomanPSMT-20" transform="scale(0.015625)"/>
      <path id="TimesNewRomanPSMT-76" d="M 53 2863 
L 1400 2863 
L 1400 2747 
L 1313 2747 
Q 1191 2747 1127 2687 
Q 1063 2628 1063 2528 
Q 1063 2419 1128 2269 
L 1794 688 
L 2463 2328 
Q 2534 2503 2534 2594 
Q 2534 2638 2509 2666 
Q 2475 2713 2422 2730 
Q 2369 2747 2206 2747 
L 2206 2863 
L 3141 2863 
L 3141 2747 
Q 2978 2734 2916 2681 
Q 2806 2588 2719 2369 
L 1703 -88 
L 1575 -88 
L 553 2328 
Q 484 2497 421 2570 
Q 359 2644 263 2694 
Q 209 2722 53 2747 
L 53 2863 
z
" transform="scale(0.015625)"/>
      <path id="TimesNewRomanPSMT-61" d="M 1822 413 
Q 1381 72 1269 19 
Q 1100 -59 909 -59 
Q 613 -59 420 144 
Q 228 347 228 678 
Q 228 888 322 1041 
Q 450 1253 767 1440 
Q 1084 1628 1822 1897 
L 1822 2009 
Q 1822 2438 1686 2597 
Q 1550 2756 1291 2756 
Q 1094 2756 978 2650 
Q 859 2544 859 2406 
L 866 2225 
Q 866 2081 792 2003 
Q 719 1925 600 1925 
Q 484 1925 411 2006 
Q 338 2088 338 2228 
Q 338 2497 613 2722 
Q 888 2947 1384 2947 
Q 1766 2947 2009 2819 
Q 2194 2722 2281 2516 
Q 2338 2381 2338 1966 
L 2338 994 
Q 2338 584 2353 492 
Q 2369 400 2405 369 
Q 2441 338 2488 338 
Q 2538 338 2575 359 
Q 2641 400 2828 588 
L 2828 413 
Q 2478 -56 2159 -56 
Q 2006 -56 1915 50 
Q 1825 156 1822 413 
z
M 1822 616 
L 1822 1706 
Q 1350 1519 1213 1441 
Q 966 1303 859 1153 
Q 753 1003 753 825 
Q 753 600 887 451 
Q 1022 303 1197 303 
Q 1434 303 1822 616 
z
" transform="scale(0.015625)"/>
      <path id="TimesNewRomanPSMT-6c" d="M 1184 4444 
L 1184 647 
Q 1184 378 1223 290 
Q 1263 203 1344 158 
Q 1425 113 1647 113 
L 1647 0 
L 244 0 
L 244 113 
Q 441 113 512 153 
Q 584 194 625 287 
Q 666 381 666 647 
L 666 3247 
Q 666 3731 644 3842 
Q 622 3953 573 3993 
Q 525 4034 450 4034 
Q 369 4034 244 3984 
L 191 4094 
L 1044 4444 
L 1184 4444 
z
" transform="scale(0.015625)"/>
      <path id="TimesNewRomanPSMT-75" d="M 2709 2863 
L 2709 1128 
Q 2709 631 2732 520 
Q 2756 409 2807 365 
Q 2859 322 2928 322 
Q 3025 322 3147 375 
L 3191 266 
L 2334 -88 
L 2194 -88 
L 2194 519 
Q 1825 119 1631 15 
Q 1438 -88 1222 -88 
Q 981 -88 804 51 
Q 628 191 559 409 
Q 491 628 491 1028 
L 491 2306 
Q 491 2509 447 2587 
Q 403 2666 317 2708 
Q 231 2750 6 2747 
L 6 2863 
L 1009 2863 
L 1009 947 
Q 1009 547 1148 422 
Q 1288 297 1484 297 
Q 1619 297 1789 381 
Q 1959 466 2194 703 
L 2194 2325 
Q 2194 2569 2105 2655 
Q 2016 2741 1734 2747 
L 1734 2863 
L 2709 2863 
z
" transform="scale(0.015625)"/>
      <path id="TimesNewRomanPSMT-65" d="M 681 1784 
Q 678 1147 991 784 
Q 1303 422 1725 422 
Q 2006 422 2214 576 
Q 2422 731 2563 1106 
L 2659 1044 
Q 2594 616 2278 264 
Q 1963 -88 1488 -88 
Q 972 -88 605 314 
Q 238 716 238 1394 
Q 238 2128 614 2539 
Q 991 2950 1559 2950 
Q 2041 2950 2350 2633 
Q 2659 2316 2659 1784 
L 681 1784 
z
M 681 1966 
L 2006 1966 
Q 1991 2241 1941 2353 
Q 1863 2528 1708 2628 
Q 1553 2728 1384 2728 
Q 1125 2728 920 2526 
Q 716 2325 681 1966 
z
" transform="scale(0.015625)"/>
      <path id="TimesNewRomanPSMT-73" d="M 2050 2947 
L 2050 1972 
L 1947 1972 
Q 1828 2431 1642 2597 
Q 1456 2763 1169 2763 
Q 950 2763 815 2647 
Q 681 2531 681 2391 
Q 681 2216 781 2091 
Q 878 1963 1175 1819 
L 1631 1597 
Q 2266 1288 2266 781 
Q 2266 391 1970 151 
Q 1675 -88 1309 -88 
Q 1047 -88 709 6 
Q 606 38 541 38 
Q 469 38 428 -44 
L 325 -44 
L 325 978 
L 428 978 
Q 516 541 762 319 
Q 1009 97 1316 97 
Q 1531 97 1667 223 
Q 1803 350 1803 528 
Q 1803 744 1651 891 
Q 1500 1038 1047 1263 
Q 594 1488 453 1669 
Q 313 1847 313 2119 
Q 313 2472 555 2709 
Q 797 2947 1181 2947 
Q 1350 2947 1591 2875 
Q 1750 2828 1803 2828 
Q 1853 2828 1881 2850 
Q 1909 2872 1947 2947 
L 2050 2947 
z
" transform="scale(0.015625)"/>
      <path id="TimesNewRomanPSMT-66" d="M 1319 2638 
L 1319 756 
Q 1319 356 1406 250 
Q 1522 113 1716 113 
L 1975 113 
L 1975 0 
L 266 0 
L 266 113 
L 394 113 
Q 519 113 622 175 
Q 725 238 764 344 
Q 803 450 803 756 
L 803 2638 
L 247 2638 
L 247 2863 
L 803 2863 
L 803 3050 
Q 803 3478 940 3775 
Q 1078 4072 1361 4255 
Q 1644 4438 1997 4438 
Q 2325 4438 2600 4225 
Q 2781 4084 2781 3909 
Q 2781 3816 2700 3733 
Q 2619 3650 2525 3650 
Q 2453 3650 2373 3701 
Q 2294 3753 2178 3923 
Q 2063 4094 1966 4153 
Q 1869 4213 1750 4213 
Q 1606 4213 1506 4136 
Q 1406 4059 1362 3898 
Q 1319 3738 1319 3069 
L 1319 2863 
L 2056 2863 
L 2056 2638 
L 1319 2638 
z
" transform="scale(0.015625)"/>
      <path id="TimesNewRomanPSMT-72" d="M 1038 2947 
L 1038 2303 
Q 1397 2947 1775 2947 
Q 1947 2947 2059 2842 
Q 2172 2738 2172 2600 
Q 2172 2478 2090 2393 
Q 2009 2309 1897 2309 
Q 1788 2309 1652 2417 
Q 1516 2525 1450 2525 
Q 1394 2525 1328 2463 
Q 1188 2334 1038 2041 
L 1038 669 
Q 1038 431 1097 309 
Q 1138 225 1241 169 
Q 1344 113 1538 113 
L 1538 0 
L 72 0 
L 72 113 
Q 291 113 397 181 
Q 475 231 506 341 
Q 522 394 522 644 
L 522 1753 
Q 522 2253 501 2348 
Q 481 2444 426 2487 
Q 372 2531 291 2531 
Q 194 2531 72 2484 
L 41 2597 
L 906 2947 
L 1038 2947 
z
" transform="scale(0.015625)"/>
      <path id="TimesNewRomanPSMT-6f" d="M 1600 2947 
Q 2250 2947 2644 2453 
Q 2978 2031 2978 1484 
Q 2978 1100 2793 706 
Q 2609 313 2286 112 
Q 1963 -88 1566 -88 
Q 919 -88 538 428 
Q 216 863 216 1403 
Q 216 1797 411 2186 
Q 606 2575 925 2761 
Q 1244 2947 1600 2947 
z
M 1503 2744 
Q 1338 2744 1170 2645 
Q 1003 2547 900 2300 
Q 797 2053 797 1666 
Q 797 1041 1045 587 
Q 1294 134 1700 134 
Q 2003 134 2200 384 
Q 2397 634 2397 1244 
Q 2397 2006 2069 2444 
Q 1847 2744 1503 2744 
z
" transform="scale(0.015625)"/>
      <path id="TimesNewRomanPSMT-6d" d="M 1050 2338 
Q 1363 2650 1419 2697 
Q 1559 2816 1721 2881 
Q 1884 2947 2044 2947 
Q 2313 2947 2506 2790 
Q 2700 2634 2766 2338 
Q 3088 2713 3309 2830 
Q 3531 2947 3766 2947 
Q 3994 2947 4170 2830 
Q 4347 2713 4450 2447 
Q 4519 2266 4519 1878 
L 4519 647 
Q 4519 378 4559 278 
Q 4591 209 4675 161 
Q 4759 113 4950 113 
L 4950 0 
L 3538 0 
L 3538 113 
L 3597 113 
Q 3781 113 3884 184 
Q 3956 234 3988 344 
Q 4000 397 4000 647 
L 4000 1878 
Q 4000 2228 3916 2372 
Q 3794 2572 3525 2572 
Q 3359 2572 3192 2489 
Q 3025 2406 2788 2181 
L 2781 2147 
L 2788 2013 
L 2788 647 
Q 2788 353 2820 281 
Q 2853 209 2943 161 
Q 3034 113 3253 113 
L 3253 0 
L 1806 0 
L 1806 113 
Q 2044 113 2133 169 
Q 2222 225 2256 338 
Q 2272 391 2272 647 
L 2272 1878 
Q 2272 2228 2169 2381 
Q 2031 2581 1784 2581 
Q 1616 2581 1450 2491 
Q 1191 2353 1050 2181 
L 1050 647 
Q 1050 366 1089 281 
Q 1128 197 1204 155 
Q 1281 113 1516 113 
L 1516 0 
L 100 0 
L 100 113 
Q 297 113 375 155 
Q 453 197 493 289 
Q 534 381 534 647 
L 534 1741 
Q 534 2213 506 2350 
Q 484 2453 437 2492 
Q 391 2531 309 2531 
Q 222 2531 100 2484 
L 53 2597 
L 916 2947 
L 1050 2947 
L 1050 2338 
z
" transform="scale(0.015625)"/>
      <path id="Cmsy10-4e" d="M -184 13 
Q -184 131 -103 322 
Q -22 513 72 513 
Q 84 513 91 506 
Q 294 294 594 294 
Q 763 294 892 598 
Q 1022 903 1147 1306 
Q 1213 1509 1308 1837 
Q 1403 2166 1453 2369 
Q 1497 2538 1558 2827 
Q 1619 3116 1658 3331 
Q 1697 3547 1728 3772 
Q 1759 3997 1784 4244 
Q 1784 4278 1831 4325 
Q 1900 4397 1997 4453 
Q 2088 4494 2181 4513 
L 2234 4513 
Q 2272 4494 2278 4469 
Q 2438 3909 2675 3200 
Q 2891 2544 3044 2125 
Q 3197 1706 3405 1242 
Q 3613 778 3859 384 
Q 4194 1819 4525 2988 
L 4609 3284 
Q 4747 3769 4836 4039 
Q 4925 4309 5063 4525 
Q 5175 4700 5356 4800 
Q 5538 4900 5753 4942 
Q 5969 4984 6203 4984 
Q 6259 4984 6259 4878 
Q 6259 4803 6226 4686 
Q 6194 4569 6137 4478 
Q 6081 4388 6009 4372 
Q 5756 4372 5557 4331 
Q 5359 4291 5197 4184 
Q 5116 4125 5102 4094 
Q 5088 4063 5038 3909 
Q 4956 3684 4872 3366 
L 4788 3078 
Q 4625 2491 4498 2006 
Q 4372 1522 4256 1045 
Q 4141 569 4031 84 
Q 4034 84 4029 92 
Q 4025 100 4025 103 
Q 4025 47 3951 -15 
Q 3878 -78 3783 -120 
Q 3688 -163 3628 -172 
L 3584 -172 
Q 3478 -119 3222 368 
Q 2966 856 2834 1172 
Q 2359 2347 1966 3628 
Q 1916 3319 1759 2648 
Q 1603 1978 1387 1297 
Q 1172 616 914 148 
Q 656 -319 397 -319 
Q 231 -319 23 -225 
Q -184 -131 -184 13 
z
" transform="scale(0.015625)"/>
      <path id="TimesNewRomanPSMT-28" d="M 1988 -1253 
L 1988 -1369 
Q 1516 -1131 1200 -813 
Q 750 -359 506 256 
Q 263 872 263 1534 
Q 263 2503 741 3301 
Q 1219 4100 1988 4444 
L 1988 4313 
Q 1603 4100 1356 3731 
Q 1109 3363 987 2797 
Q 866 2231 866 1616 
Q 866 947 969 400 
Q 1050 -31 1165 -292 
Q 1281 -553 1476 -793 
Q 1672 -1034 1988 -1253 
z
" transform="scale(0.015625)"/>
      <path id="TimesNewRomanPSMT-2c" d="M 344 -1066 
L 344 -928 
Q 666 -822 842 -598 
Q 1019 -375 1019 -125 
Q 1019 -66 991 -25 
Q 969 3 947 3 
Q 913 3 797 -59 
Q 741 -88 678 -88 
Q 525 -88 434 3 
Q 344 94 344 253 
Q 344 406 461 515 
Q 578 625 747 625 
Q 953 625 1114 445 
Q 1275 266 1275 -31 
Q 1275 -353 1051 -629 
Q 828 -906 344 -1066 
z
" transform="scale(0.015625)"/>
      <path id="TimesNewRomanPSMT-29" d="M 144 4313 
L 144 4444 
Q 619 4209 934 3891 
Q 1381 3434 1625 2820 
Q 1869 2206 1869 1541 
Q 1869 572 1392 -226 
Q 916 -1025 144 -1369 
L 144 -1253 
Q 528 -1038 776 -670 
Q 1025 -303 1145 264 
Q 1266 831 1266 1447 
Q 1266 2113 1163 2663 
Q 1084 3094 967 3353 
Q 850 3613 656 3853 
Q 463 4094 144 4313 
z
" transform="scale(0.015625)"/>
     </defs>
     <use xlink:href="#Cmmi10-4e" transform="translate(0 0.125)"/>
     <use xlink:href="#Cmr10-3d" transform="translate(97.880859 0.125)"/>
     <use xlink:href="#Cmr10-31" transform="translate(193.125 0.125)"/>
     <use xlink:href="#Cmr10-30" transform="translate(243.125 0.125)"/>
     <use xlink:href="#Cmr10-30" transform="translate(293.125 0.125)"/>
     <use xlink:href="#Cmr10-30" transform="translate(343.125 0.125)"/>
     <use xlink:href="#TimesNewRomanPSMT-20" transform="translate(393.125 0.125)"/>
     <use xlink:href="#TimesNewRomanPSMT-76" transform="translate(418.125 0.125)"/>
     <use xlink:href="#TimesNewRomanPSMT-61" transform="translate(468.125 0.125)"/>
     <use xlink:href="#TimesNewRomanPSMT-6c" transform="translate(512.509766 0.125)"/>
     <use xlink:href="#TimesNewRomanPSMT-75" transform="translate(540.292969 0.125)"/>
     <use xlink:href="#TimesNewRomanPSMT-65" transform="translate(590.292969 0.125)"/>
     <use xlink:href="#TimesNewRomanPSMT-73" transform="translate(634.677734 0.125)"/>
     <use xlink:href="#TimesNewRomanPSMT-20" transform="translate(673.59375 0.125)"/>
     <use xlink:href="#TimesNewRomanPSMT-66" transform="translate(698.59375 0.125)"/>
     <use xlink:href="#TimesNewRomanPSMT-72" transform="translate(731.894531 0.125)"/>
     <use xlink:href="#TimesNewRomanPSMT-6f" transform="translate(765.195312 0.125)"/>
     <use xlink:href="#TimesNewRomanPSMT-6d" transform="translate(815.195312 0.125)"/>
     <use xlink:href="#TimesNewRomanPSMT-20" transform="translate(892.978516 0.125)"/>
     <use xlink:href="#Cmsy10-4e" transform="translate(917.978516 0.125)"/>
     <use xlink:href="#TimesNewRomanPSMT-28" transform="translate(999.960938 0.125)"/>
     <use xlink:href="#TimesNewRomanPSMT-30" transform="translate(1033.261719 0.125)"/>
     <use xlink:href="#TimesNewRomanPSMT-2c" transform="translate(1083.261719 0.125)"/>
     <use xlink:href="#TimesNewRomanPSMT-31" transform="translate(1108.261719 0.125)"/>
     <use xlink:href="#TimesNewRomanPSMT-29" transform="translate(1158.261719 0.125)"/>
    </g>
   </g>
  </g>
 </g>
 <defs>
  <clipPath id="p7bdbc9438a">
   <rect x="37.921875" y="22.56" width="357.12" height="266.112"/>
  </clipPath>
 </defs>
</svg>
