<?xml version="1.0" encoding="utf-8" standalone="no"?>
<!DOCTYPE svg PUBLIC "-//W3C//DTD SVG 1.1//EN"
  "http://www.w3.org/Graphics/SVG/1.1/DTD/svg11.dtd">
<svg xmlns:xlink="http://www.w3.org/1999/xlink" width="406.940312pt" height="325.986375pt" viewBox="0 0 406.940312 325.986375" xmlns="http://www.w3.org/2000/svg" version="1.1">
 <metadata>
  <rdf:RDF xmlns:dc="http://purl.org/dc/elements/1.1/" xmlns:cc="http://creativecommons.org/ns#" xmlns:rdf="http://www.w3.org/1999/02/22-rdf-syntax-ns#">
   <cc:Work>
    <dc:type rdf:resource="http://purl.org/dc/dcmitype/StillImage"/>
    <dc:date>2025-04-04T21:44:12.147350</dc:date>
    <dc:format>image/svg+xml</dc:format>
    <dc:creator>
     <cc:Agent>
      <dc:title>Matplotlib v3.5.2, https://matplotlib.org/</dc:title>
     </cc:Agent>
    </dc:creator>
   </cc:Work>
  </rdf:RDF>
 </metadata>
 <defs>
  <style type="text/css">*{stroke-linejoin: round; stroke-linecap: butt}</style>
 </defs>
 <g id="figure_1">
  <g id="patch_1">
   <path d="M 0 325.986375 
L 406.940312 325.986375 
L 406.940312 0 
L 0 0 
L 0 325.986375 
z
" style="fill: none"/>
  </g>
  <g id="axes_1">
   <g id="patch_2">
    <path d="M 42.620313 288.430125 
L 399.740313 288.430125 
L 399.740313 22.318125 
L 42.620313 22.318125 
L 42.620313 288.430125 
z
" style="fill: none"/>
   </g>
   <g id="matplotlib.axis_1">
    <g id="xtick_1">
     <g id="line2d_1">
      <path d="M 58.85304 288.430125 
L 58.85304 22.318125 
" clip-path="url(#p318442c991)" style="fill: none; stroke: #b0b0b0; stroke-width: 0.8; stroke-linecap: square"/>
     </g>
     <g id="line2d_2">
      <defs>
       <path id="m875716bddd" d="M 0 0 
L 0 3.5 
" style="stroke: #000000; stroke-width: 0.8"/>
      </defs>
      <g>
       <use xlink:href="#m875716bddd" x="58.85304" y="288.430125" style="stroke: #000000; stroke-width: 0.8"/>
      </g>
     </g>
     <g id="text_1">
      <!-- 0 -->
      <g transform="translate(55.67179 303.028562)scale(0.1 -0.1)">
       <defs>
        <path id="DejaVuSans-30" d="M 2034 4250 
Q 1547 4250 1301 3770 
Q 1056 3291 1056 2328 
Q 1056 1369 1301 889 
Q 1547 409 2034 409 
Q 2525 409 2770 889 
Q 3016 1369 3016 2328 
Q 3016 3291 2770 3770 
Q 2525 4250 2034 4250 
z
M 2034 4750 
Q 2819 4750 3233 4129 
Q 3647 3509 3647 2328 
Q 3647 1150 3233 529 
Q 2819 -91 2034 -91 
Q 1250 -91 836 529 
Q 422 1150 422 2328 
Q 422 3509 836 4129 
Q 1250 4750 2034 4750 
z
" transform="scale(0.015625)"/>
       </defs>
       <use xlink:href="#DejaVuSans-30"/>
      </g>
     </g>
    </g>
    <g id="xtick_2">
     <g id="line2d_3">
      <path d="M 123.848945 288.430125 
L 123.848945 22.318125 
" clip-path="url(#p318442c991)" style="fill: none; stroke: #b0b0b0; stroke-width: 0.8; stroke-linecap: square"/>
     </g>
     <g id="line2d_4">
      <g>
       <use xlink:href="#m875716bddd" x="123.848945" y="288.430125" style="stroke: #000000; stroke-width: 0.8"/>
      </g>
     </g>
     <g id="text_2">
      <!-- 200 -->
      <g transform="translate(114.305195 303.028562)scale(0.1 -0.1)">
       <defs>
        <path id="DejaVuSans-32" d="M 1228 531 
L 3431 531 
L 3431 0 
L 469 0 
L 469 531 
Q 828 903 1448 1529 
Q 2069 2156 2228 2338 
Q 2531 2678 2651 2914 
Q 2772 3150 2772 3378 
Q 2772 3750 2511 3984 
Q 2250 4219 1831 4219 
Q 1534 4219 1204 4116 
Q 875 4013 500 3803 
L 500 4441 
Q 881 4594 1212 4672 
Q 1544 4750 1819 4750 
Q 2544 4750 2975 4387 
Q 3406 4025 3406 3419 
Q 3406 3131 3298 2873 
Q 3191 2616 2906 2266 
Q 2828 2175 2409 1742 
Q 1991 1309 1228 531 
z
" transform="scale(0.015625)"/>
       </defs>
       <use xlink:href="#DejaVuSans-32"/>
       <use xlink:href="#DejaVuSans-30" x="63.623047"/>
       <use xlink:href="#DejaVuSans-30" x="127.246094"/>
      </g>
     </g>
    </g>
    <g id="xtick_3">
     <g id="line2d_5">
      <path d="M 188.84485 288.430125 
L 188.84485 22.318125 
" clip-path="url(#p318442c991)" style="fill: none; stroke: #b0b0b0; stroke-width: 0.8; stroke-linecap: square"/>
     </g>
     <g id="line2d_6">
      <g>
       <use xlink:href="#m875716bddd" x="188.84485" y="288.430125" style="stroke: #000000; stroke-width: 0.8"/>
      </g>
     </g>
     <g id="text_3">
      <!-- 400 -->
      <g transform="translate(179.3011 303.028562)scale(0.1 -0.1)">
       <defs>
        <path id="DejaVuSans-34" d="M 2419 4116 
L 825 1625 
L 2419 1625 
L 2419 4116 
z
M 2253 4666 
L 3047 4666 
L 3047 1625 
L 3713 1625 
L 3713 1100 
L 3047 1100 
L 3047 0 
L 2419 0 
L 2419 1100 
L 313 1100 
L 313 1709 
L 2253 4666 
z
" transform="scale(0.015625)"/>
       </defs>
       <use xlink:href="#DejaVuSans-34"/>
       <use xlink:href="#DejaVuSans-30" x="63.623047"/>
       <use xlink:href="#DejaVuSans-30" x="127.246094"/>
      </g>
     </g>
    </g>
    <g id="xtick_4">
     <g id="line2d_7">
      <path d="M 253.840755 288.430125 
L 253.840755 22.318125 
" clip-path="url(#p318442c991)" style="fill: none; stroke: #b0b0b0; stroke-width: 0.8; stroke-linecap: square"/>
     </g>
     <g id="line2d_8">
      <g>
       <use xlink:href="#m875716bddd" x="253.840755" y="288.430125" style="stroke: #000000; stroke-width: 0.8"/>
      </g>
     </g>
     <g id="text_4">
      <!-- 600 -->
      <g transform="translate(244.297005 303.028562)scale(0.1 -0.1)">
       <defs>
        <path id="DejaVuSans-36" d="M 2113 2584 
Q 1688 2584 1439 2293 
Q 1191 2003 1191 1497 
Q 1191 994 1439 701 
Q 1688 409 2113 409 
Q 2538 409 2786 701 
Q 3034 994 3034 1497 
Q 3034 2003 2786 2293 
Q 2538 2584 2113 2584 
z
M 3366 4563 
L 3366 3988 
Q 3128 4100 2886 4159 
Q 2644 4219 2406 4219 
Q 1781 4219 1451 3797 
Q 1122 3375 1075 2522 
Q 1259 2794 1537 2939 
Q 1816 3084 2150 3084 
Q 2853 3084 3261 2657 
Q 3669 2231 3669 1497 
Q 3669 778 3244 343 
Q 2819 -91 2113 -91 
Q 1303 -91 875 529 
Q 447 1150 447 2328 
Q 447 3434 972 4092 
Q 1497 4750 2381 4750 
Q 2619 4750 2861 4703 
Q 3103 4656 3366 4563 
z
" transform="scale(0.015625)"/>
       </defs>
       <use xlink:href="#DejaVuSans-36"/>
       <use xlink:href="#DejaVuSans-30" x="63.623047"/>
       <use xlink:href="#DejaVuSans-30" x="127.246094"/>
      </g>
     </g>
    </g>
    <g id="xtick_5">
     <g id="line2d_9">
      <path d="M 318.83666 288.430125 
L 318.83666 22.318125 
" clip-path="url(#p318442c991)" style="fill: none; stroke: #b0b0b0; stroke-width: 0.8; stroke-linecap: square"/>
     </g>
     <g id="line2d_10">
      <g>
       <use xlink:href="#m875716bddd" x="318.83666" y="288.430125" style="stroke: #000000; stroke-width: 0.8"/>
      </g>
     </g>
     <g id="text_5">
      <!-- 800 -->
      <g transform="translate(309.29291 303.028562)scale(0.1 -0.1)">
       <defs>
        <path id="DejaVuSans-38" d="M 2034 2216 
Q 1584 2216 1326 1975 
Q 1069 1734 1069 1313 
Q 1069 891 1326 650 
Q 1584 409 2034 409 
Q 2484 409 2743 651 
Q 3003 894 3003 1313 
Q 3003 1734 2745 1975 
Q 2488 2216 2034 2216 
z
M 1403 2484 
Q 997 2584 770 2862 
Q 544 3141 544 3541 
Q 544 4100 942 4425 
Q 1341 4750 2034 4750 
Q 2731 4750 3128 4425 
Q 3525 4100 3525 3541 
Q 3525 3141 3298 2862 
Q 3072 2584 2669 2484 
Q 3125 2378 3379 2068 
Q 3634 1759 3634 1313 
Q 3634 634 3220 271 
Q 2806 -91 2034 -91 
Q 1263 -91 848 271 
Q 434 634 434 1313 
Q 434 1759 690 2068 
Q 947 2378 1403 2484 
z
M 1172 3481 
Q 1172 3119 1398 2916 
Q 1625 2713 2034 2713 
Q 2441 2713 2670 2916 
Q 2900 3119 2900 3481 
Q 2900 3844 2670 4047 
Q 2441 4250 2034 4250 
Q 1625 4250 1398 4047 
Q 1172 3844 1172 3481 
z
" transform="scale(0.015625)"/>
       </defs>
       <use xlink:href="#DejaVuSans-38"/>
       <use xlink:href="#DejaVuSans-30" x="63.623047"/>
       <use xlink:href="#DejaVuSans-30" x="127.246094"/>
      </g>
     </g>
    </g>
    <g id="xtick_6">
     <g id="line2d_11">
      <path d="M 383.832565 288.430125 
L 383.832565 22.318125 
" clip-path="url(#p318442c991)" style="fill: none; stroke: #b0b0b0; stroke-width: 0.8; stroke-linecap: square"/>
     </g>
     <g id="line2d_12">
      <g>
       <use xlink:href="#m875716bddd" x="383.832565" y="288.430125" style="stroke: #000000; stroke-width: 0.8"/>
      </g>
     </g>
     <g id="text_6">
      <!-- 1000 -->
      <g transform="translate(371.107565 303.028562)scale(0.1 -0.1)">
       <defs>
        <path id="DejaVuSans-31" d="M 794 531 
L 1825 531 
L 1825 4091 
L 703 3866 
L 703 4441 
L 1819 4666 
L 2450 4666 
L 2450 531 
L 3481 531 
L 3481 0 
L 794 0 
L 794 531 
z
" transform="scale(0.015625)"/>
       </defs>
       <use xlink:href="#DejaVuSans-31"/>
       <use xlink:href="#DejaVuSans-30" x="63.623047"/>
       <use xlink:href="#DejaVuSans-30" x="127.246094"/>
       <use xlink:href="#DejaVuSans-30" x="190.869141"/>
      </g>
     </g>
    </g>
    <g id="text_7">
     <!-- $t$ -->
     <g transform="translate(219.180313 316.706687)scale(0.1 -0.1)">
      <defs>
       <path id="DejaVuSans-Oblique-74" d="M 2706 3500 
L 2619 3053 
L 1472 3053 
L 1100 1153 
Q 1081 1047 1072 975 
Q 1063 903 1063 863 
Q 1063 663 1183 572 
Q 1303 481 1569 481 
L 2150 481 
L 2053 0 
L 1503 0 
Q 991 0 739 200 
Q 488 400 488 806 
Q 488 878 497 964 
Q 506 1050 525 1153 
L 897 3053 
L 409 3053 
L 500 3500 
L 978 3500 
L 1172 4494 
L 1747 4494 
L 1556 3500 
L 2706 3500 
z
" transform="scale(0.015625)"/>
      </defs>
      <use xlink:href="#DejaVuSans-Oblique-74" transform="translate(0 0.78125)"/>
     </g>
    </g>
   </g>
   <g id="matplotlib.axis_2">
    <g id="ytick_1">
     <g id="line2d_13">
      <path d="M 42.620313 256.06616 
L 399.740313 256.06616 
" clip-path="url(#p318442c991)" style="fill: none; stroke: #b0b0b0; stroke-width: 0.8; stroke-linecap: square"/>
     </g>
     <g id="line2d_14">
      <defs>
       <path id="mdb267bef37" d="M 0 0 
L -3.5 0 
" style="stroke: #000000; stroke-width: 0.8"/>
      </defs>
      <g>
       <use xlink:href="#mdb267bef37" x="42.620313" y="256.06616" style="stroke: #000000; stroke-width: 0.8"/>
      </g>
     </g>
     <g id="text_8">
      <!-- −3 -->
      <g transform="translate(20.878125 259.865379)scale(0.1 -0.1)">
       <defs>
        <path id="DejaVuSans-2212" d="M 678 2272 
L 4684 2272 
L 4684 1741 
L 678 1741 
L 678 2272 
z
" transform="scale(0.015625)"/>
        <path id="DejaVuSans-33" d="M 2597 2516 
Q 3050 2419 3304 2112 
Q 3559 1806 3559 1356 
Q 3559 666 3084 287 
Q 2609 -91 1734 -91 
Q 1441 -91 1130 -33 
Q 819 25 488 141 
L 488 750 
Q 750 597 1062 519 
Q 1375 441 1716 441 
Q 2309 441 2620 675 
Q 2931 909 2931 1356 
Q 2931 1769 2642 2001 
Q 2353 2234 1838 2234 
L 1294 2234 
L 1294 2753 
L 1863 2753 
Q 2328 2753 2575 2939 
Q 2822 3125 2822 3475 
Q 2822 3834 2567 4026 
Q 2313 4219 1838 4219 
Q 1578 4219 1281 4162 
Q 984 4106 628 3988 
L 628 4550 
Q 988 4650 1302 4700 
Q 1616 4750 1894 4750 
Q 2613 4750 3031 4423 
Q 3450 4097 3450 3541 
Q 3450 3153 3228 2886 
Q 3006 2619 2597 2516 
z
" transform="scale(0.015625)"/>
       </defs>
       <use xlink:href="#DejaVuSans-2212"/>
       <use xlink:href="#DejaVuSans-33" x="83.789062"/>
      </g>
     </g>
    </g>
    <g id="ytick_2">
     <g id="line2d_15">
      <path d="M 42.620313 220.145438 
L 399.740313 220.145438 
" clip-path="url(#p318442c991)" style="fill: none; stroke: #b0b0b0; stroke-width: 0.8; stroke-linecap: square"/>
     </g>
     <g id="line2d_16">
      <g>
       <use xlink:href="#mdb267bef37" x="42.620313" y="220.145438" style="stroke: #000000; stroke-width: 0.8"/>
      </g>
     </g>
     <g id="text_9">
      <!-- −2 -->
      <g transform="translate(20.878125 223.944657)scale(0.1 -0.1)">
       <use xlink:href="#DejaVuSans-2212"/>
       <use xlink:href="#DejaVuSans-32" x="83.789062"/>
      </g>
     </g>
    </g>
    <g id="ytick_3">
     <g id="line2d_17">
      <path d="M 42.620313 184.224716 
L 399.740313 184.224716 
" clip-path="url(#p318442c991)" style="fill: none; stroke: #b0b0b0; stroke-width: 0.8; stroke-linecap: square"/>
     </g>
     <g id="line2d_18">
      <g>
       <use xlink:href="#mdb267bef37" x="42.620313" y="184.224716" style="stroke: #000000; stroke-width: 0.8"/>
      </g>
     </g>
     <g id="text_10">
      <!-- −1 -->
      <g transform="translate(20.878125 188.023935)scale(0.1 -0.1)">
       <use xlink:href="#DejaVuSans-2212"/>
       <use xlink:href="#DejaVuSans-31" x="83.789062"/>
      </g>
     </g>
    </g>
    <g id="ytick_4">
     <g id="line2d_19">
      <path d="M 42.620313 148.303994 
L 399.740313 148.303994 
" clip-path="url(#p318442c991)" style="fill: none; stroke: #b0b0b0; stroke-width: 0.8; stroke-linecap: square"/>
     </g>
     <g id="line2d_20">
      <g>
       <use xlink:href="#mdb267bef37" x="42.620313" y="148.303994" style="stroke: #000000; stroke-width: 0.8"/>
      </g>
     </g>
     <g id="text_11">
      <!-- 0 -->
      <g transform="translate(29.257813 152.103212)scale(0.1 -0.1)">
       <use xlink:href="#DejaVuSans-30"/>
      </g>
     </g>
    </g>
    <g id="ytick_5">
     <g id="line2d_21">
      <path d="M 42.620313 112.383271 
L 399.740313 112.383271 
" clip-path="url(#p318442c991)" style="fill: none; stroke: #b0b0b0; stroke-width: 0.8; stroke-linecap: square"/>
     </g>
     <g id="line2d_22">
      <g>
       <use xlink:href="#mdb267bef37" x="42.620313" y="112.383271" style="stroke: #000000; stroke-width: 0.8"/>
      </g>
     </g>
     <g id="text_12">
      <!-- 1 -->
      <g transform="translate(29.257813 116.18249)scale(0.1 -0.1)">
       <use xlink:href="#DejaVuSans-31"/>
      </g>
     </g>
    </g>
    <g id="ytick_6">
     <g id="line2d_23">
      <path d="M 42.620313 76.462549 
L 399.740313 76.462549 
" clip-path="url(#p318442c991)" style="fill: none; stroke: #b0b0b0; stroke-width: 0.8; stroke-linecap: square"/>
     </g>
     <g id="line2d_24">
      <g>
       <use xlink:href="#mdb267bef37" x="42.620313" y="76.462549" style="stroke: #000000; stroke-width: 0.8"/>
      </g>
     </g>
     <g id="text_13">
      <!-- 2 -->
      <g transform="translate(29.257813 80.261768)scale(0.1 -0.1)">
       <use xlink:href="#DejaVuSans-32"/>
      </g>
     </g>
    </g>
    <g id="ytick_7">
     <g id="line2d_25">
      <path d="M 42.620313 40.541827 
L 399.740313 40.541827 
" clip-path="url(#p318442c991)" style="fill: none; stroke: #b0b0b0; stroke-width: 0.8; stroke-linecap: square"/>
     </g>
     <g id="line2d_26">
      <g>
       <use xlink:href="#mdb267bef37" x="42.620313" y="40.541827" style="stroke: #000000; stroke-width: 0.8"/>
      </g>
     </g>
     <g id="text_14">
      <!-- 3 -->
      <g transform="translate(29.257813 44.341045)scale(0.1 -0.1)">
       <use xlink:href="#DejaVuSans-33"/>
      </g>
     </g>
    </g>
    <g id="text_15">
     <!-- $y$ -->
     <g transform="translate(14.778125 158.374125)rotate(-90)scale(0.1 -0.1)">
      <defs>
       <path id="DejaVuSans-Oblique-79" d="M 1588 -325 
Q 1188 -997 936 -1164 
Q 684 -1331 294 -1331 
L -159 -1331 
L -63 -850 
L 269 -850 
Q 509 -850 678 -719 
Q 847 -588 1056 -206 
L 1234 128 
L 459 3500 
L 1069 3500 
L 1650 819 
L 3256 3500 
L 3859 3500 
L 1588 -325 
z
" transform="scale(0.015625)"/>
      </defs>
      <use xlink:href="#DejaVuSans-Oblique-79" transform="translate(0 0.3125)"/>
     </g>
    </g>
   </g>
   <g id="line2d_27">
    <path d="M 58.85304 142.816097 
L 59.178019 43.693842 
L 59.502999 246.783239 
L 59.827978 98.388417 
L 60.152958 200.891059 
L 60.477937 107.969656 
L 60.802917 181.268671 
L 61.127896 134.639015 
L 61.452876 120.114773 
L 61.777855 215.870801 
L 62.102835 107.638545 
L 62.427815 85.144312 
L 62.752794 124.899124 
L 63.077774 82.255862 
L 63.402753 82.155574 
L 63.727733 200.690607 
L 64.052712 112.158134 
L 64.377692 107.377777 
L 64.702671 175.263395 
L 65.027651 159.964225 
L 65.35263 135.213078 
L 65.67761 66.722786 
L 66.002589 122.990332 
L 66.327569 80.303926 
L 66.652548 133.563934 
L 66.977528 147.415085 
L 67.302507 199.326205 
L 67.627487 162.079464 
L 67.952466 63.194709 
L 68.602426 154.613777 
L 68.927405 133.043144 
L 69.252385 89.735759 
L 69.577364 122.966389 
L 69.902344 119.537519 
L 70.227323 147.19041 
L 70.552303 97.880203 
L 70.877282 117.068972 
L 71.202262 74.795171 
L 71.527241 205.411732 
L 71.852221 82.360911 
L 72.1772 117.048399 
L 72.50218 100.213288 
L 72.827159 199.850115 
L 73.477118 139.276943 
L 73.802098 172.815271 
L 74.127077 186.453865 
L 74.452057 104.100658 
L 74.777036 202.081865 
L 75.102016 231.516644 
L 75.426996 151.678906 
L 75.751975 151.321856 
L 76.076955 149.212607 
L 76.401934 137.612548 
L 76.726914 160.938252 
L 77.051893 143.431261 
L 77.376873 165.929094 
L 77.701852 149.566902 
L 78.026832 189.018019 
L 78.351811 174.394336 
L 78.676791 223.078609 
L 79.00177 102.580752 
L 79.32675 154.417627 
L 79.651729 149.067502 
L 79.976709 221.520674 
L 80.626668 101.75746 
L 80.951647 108.61643 
L 81.276627 96.955321 
L 81.601607 186.357668 
L 81.926586 177.144021 
L 82.251566 188.556512 
L 82.576545 144.493042 
L 82.901525 183.71637 
L 83.226504 206.491416 
L 83.551484 184.850751 
L 83.876463 174.214873 
L 84.201443 174.011327 
L 84.526422 179.176939 
L 84.851402 188.312258 
L 85.176381 174.922431 
L 85.501361 168.765857 
L 85.82634 153.003658 
L 86.15132 158.493211 
L 86.476299 182.35121 
L 86.801279 197.411613 
L 87.126258 192.187319 
L 87.451238 79.83915 
L 87.776217 114.771506 
L 88.101197 184.556049 
L 88.426177 87.903632 
L 88.751156 145.341435 
L 89.076136 141.440602 
L 89.401115 116.700623 
L 89.726095 180.924632 
L 90.051074 196.63803 
L 90.376054 141.354277 
L 90.701033 197.930911 
L 91.026013 145.986981 
L 91.350992 138.120681 
L 91.675972 158.376802 
L 92.000951 101.77954 
L 92.325931 116.699498 
L 92.65091 143.715871 
L 92.97589 149.19567 
L 93.300869 207.915061 
L 93.625849 215.84341 
L 93.950828 123.371614 
L 94.275808 82.646924 
L 94.925767 219.573138 
L 95.575726 121.422597 
L 95.900706 143.565133 
L 96.225685 206.62605 
L 96.550665 120.077993 
L 96.875644 161.056031 
L 97.200624 125.307358 
L 97.525603 139.306571 
L 97.850583 136.411632 
L 98.175562 176.456476 
L 98.500542 180.716549 
L 98.825521 159.05742 
L 99.150501 109.021057 
L 99.47548 204.93923 
L 100.125439 96.226024 
L 100.450419 147.864529 
L 100.775398 135.986508 
L 101.100378 180.008051 
L 101.425358 183.236057 
L 101.750337 198.25989 
L 102.075317 162.661036 
L 102.400296 167.290709 
L 102.725276 276.334125 
L 103.050255 168.961834 
L 103.375235 183.418261 
L 103.700214 118.258567 
L 104.025194 162.761753 
L 104.350173 132.441949 
L 104.675153 214.11597 
L 105.000132 146.043739 
L 105.325112 193.198809 
L 105.650091 173.774226 
L 105.975071 187.135939 
L 106.30005 180.601009 
L 106.62503 137.242523 
L 106.950009 170.586064 
L 107.274989 151.295546 
L 107.599969 146.986501 
L 107.924948 155.272051 
L 108.249928 86.149851 
L 108.574907 248.507944 
L 108.899887 125.34028 
L 109.224866 161.273807 
L 109.549846 162.938654 
L 109.874825 169.3779 
L 110.199805 128.358008 
L 110.524784 119.295984 
L 110.849764 165.691282 
L 111.174743 120.036276 
L 111.499723 136.802533 
L 111.824702 208.388096 
L 112.149682 214.21449 
L 112.799641 170.682556 
L 113.12462 217.50947 
L 113.4496 145.217184 
L 113.774579 177.2063 
L 114.099559 181.017771 
L 114.424539 157.878167 
L 114.749518 115.312159 
L 115.074498 142.006767 
L 115.399477 132.988908 
L 115.724457 103.02084 
L 116.049436 146.846503 
L 116.374416 163.239551 
L 116.699395 154.867483 
L 117.024375 171.498922 
L 117.349354 147.832875 
L 117.674334 161.540486 
L 117.999313 120.577176 
L 118.324293 130.219824 
L 118.649272 149.221613 
L 119.299231 113.271401 
L 119.94919 223.60678 
L 120.27417 113.561269 
L 120.59915 126.767019 
L 120.924129 96.117481 
L 121.249109 120.564186 
L 121.574088 161.845939 
L 121.899068 142.335753 
L 122.224047 142.627238 
L 122.549027 174.201105 
L 123.198986 99.502 
L 123.523965 208.662596 
L 123.848945 221.843011 
L 124.173924 100.615652 
L 124.498904 204.154485 
L 124.823883 125.315783 
L 125.148863 158.940781 
L 126.123801 101.80691 
L 126.448781 170.370302 
L 126.77376 207.948484 
L 127.09874 178.003301 
L 127.42372 167.578782 
L 127.748699 112.542526 
L 128.073679 118.099717 
L 128.398658 136.309723 
L 128.723638 93.188107 
L 129.373597 156.91085 
L 129.698576 161.509634 
L 130.023556 154.843135 
L 130.348535 107.903598 
L 130.673515 119.168763 
L 130.998494 147.17766 
L 131.323474 188.278979 
L 131.648453 119.663451 
L 131.973433 122.430988 
L 132.298412 128.207191 
L 132.623392 186.706767 
L 132.948371 145.233665 
L 133.273351 147.257383 
L 133.598331 111.689586 
L 133.92331 164.163096 
L 134.24829 196.363071 
L 134.573269 84.07418 
L 134.898249 189.940772 
L 135.223228 156.974693 
L 135.548208 105.748207 
L 135.873187 172.591352 
L 136.198167 117.719828 
L 136.523146 217.173376 
L 136.848126 113.56595 
L 137.498085 136.300453 
L 137.823064 180.95724 
L 138.148044 136.377878 
L 138.473023 113.730251 
L 138.798003 148.98595 
L 139.122982 139.367572 
L 139.447962 101.486638 
L 139.772941 148.233805 
L 140.097921 165.343572 
L 140.422901 157.726057 
L 141.07286 121.740529 
L 141.397839 201.460771 
L 141.722819 164.55236 
L 142.047798 174.686019 
L 142.372778 160.418287 
L 142.697757 128.179844 
L 143.022737 123.779294 
L 143.347716 57.582456 
L 143.672696 76.747654 
L 143.997675 127.176906 
L 144.322655 126.62698 
L 144.972614 184.278816 
L 145.622573 112.622642 
L 145.947552 195.789034 
L 146.272532 146.376289 
L 146.597512 232.331508 
L 147.57245 145.126564 
L 147.89743 171.480319 
L 148.222409 183.559735 
L 148.547389 174.100626 
L 148.872368 86.411125 
L 149.522327 196.457222 
L 149.847307 131.571625 
L 150.172286 118.196999 
L 150.497266 147.858501 
L 150.822245 204.425343 
L 151.147225 231.553577 
L 151.797184 77.217288 
L 152.122163 137.560072 
L 152.447143 80.481119 
L 152.772122 89.654261 
L 153.097102 156.298897 
L 153.422082 150.626617 
L 153.747061 188.626916 
L 154.072041 130.228222 
L 154.39702 163.056787 
L 154.722 130.280356 
L 155.046979 196.887244 
L 155.371959 175.81626 
L 155.696938 240.868651 
L 156.021918 163.054756 
L 156.346897 147.362712 
L 156.671877 232.39772 
L 156.996856 125.35493 
L 157.646815 203.781673 
L 157.971795 204.220121 
L 158.296774 147.157537 
L 158.621754 136.043549 
L 158.946733 139.864487 
L 159.271713 108.655488 
L 159.596693 153.82707 
L 160.246652 80.092088 
L 160.571631 85.1163 
L 160.896611 95.013916 
L 161.22159 97.527515 
L 161.54657 207.487143 
L 162.196529 89.52523 
L 162.521508 105.757768 
L 162.846488 131.358324 
L 163.171467 183.925675 
L 163.496447 148.296706 
L 163.821426 173.63417 
L 164.146406 157.101395 
L 164.796365 100.296793 
L 165.121344 113.841184 
L 165.446324 172.601558 
L 165.771303 143.186045 
L 166.096283 142.1982 
L 166.421263 159.728911 
L 167.071222 67.783582 
L 167.396201 142.022305 
L 167.721181 152.900003 
L 168.04616 171.037527 
L 168.37114 62.271856 
L 168.696119 211.32787 
L 169.021099 180.685435 
L 169.346078 132.507689 
L 169.671058 157.258224 
L 169.996037 146.694667 
L 170.321017 78.422637 
L 170.645996 34.414125 
L 170.970976 159.51087 
L 171.295955 130.018693 
L 171.620935 180.877413 
L 171.945914 170.315728 
L 172.270894 205.911952 
L 172.595874 124.203343 
L 172.920853 168.766223 
L 173.245833 120.35557 
L 173.570812 135.952622 
L 173.895792 222.572441 
L 174.220771 221.976994 
L 174.545751 98.872798 
L 174.87073 181.896987 
L 175.19571 164.351766 
L 175.520689 186.209963 
L 175.845669 188.461594 
L 176.170648 186.38573 
L 176.495628 170.819268 
L 176.820607 166.317161 
L 177.145587 208.86296 
L 177.470566 149.899438 
L 177.795546 183.080493 
L 178.120525 182.070699 
L 178.770484 132.686994 
L 179.095464 118.26587 
L 179.420444 159.405646 
L 179.745423 146.790267 
L 180.070403 91.874184 
L 180.395382 139.370863 
L 180.720362 157.352949 
L 181.045341 168.937117 
L 181.370321 107.17175 
L 181.6953 198.893425 
L 182.345259 123.39938 
L 182.670239 130.075864 
L 182.995218 112.085702 
L 183.320198 214.341945 
L 183.645177 185.275802 
L 183.970157 145.110679 
L 184.295136 131.080083 
L 184.620116 110.109178 
L 184.945095 160.906888 
L 185.270075 175.787482 
L 185.595055 140.218548 
L 185.920034 191.758317 
L 186.245014 195.822325 
L 186.569993 122.045802 
L 186.894973 81.283691 
L 187.219952 155.101943 
L 187.544932 153.996175 
L 187.869911 96.209913 
L 188.194891 106.699641 
L 188.51987 137.848033 
L 188.84485 142.521696 
L 189.169829 157.78262 
L 189.494809 135.177545 
L 189.819788 148.94588 
L 190.144768 102.007442 
L 190.469747 155.491336 
L 190.794727 166.690808 
L 191.119706 167.799789 
L 191.444686 191.240571 
L 191.769665 140.522504 
L 192.094645 222.133763 
L 192.419625 89.371864 
L 192.744604 199.121386 
L 193.394563 144.079896 
L 193.719543 127.422303 
L 194.044522 161.566453 
L 194.369502 156.735703 
L 194.694481 196.525366 
L 195.019461 146.649501 
L 195.34444 148.17338 
L 195.66942 165.012509 
L 195.994399 207.36944 
L 196.319379 226.452775 
L 196.644358 124.161951 
L 196.969338 168.609511 
L 197.294317 184.46603 
L 197.619297 138.155191 
L 197.944276 191.013634 
L 198.269256 151.070527 
L 198.594236 144.545376 
L 198.919215 157.119183 
L 199.244195 138.205151 
L 199.569174 136.015166 
L 199.894154 118.452649 
L 200.219133 129.602154 
L 200.544113 90.867145 
L 200.869092 182.795563 
L 201.194072 170.198789 
L 201.519051 233.961555 
L 201.844031 144.242609 
L 202.16901 201.707676 
L 202.818969 127.040301 
L 203.143949 116.737618 
L 203.468928 115.541741 
L 203.793908 119.524578 
L 204.118887 152.328547 
L 204.443867 131.012117 
L 204.768846 98.045369 
L 205.093826 108.360107 
L 205.418806 133.190176 
L 205.743785 170.850415 
L 206.068765 80.035025 
L 206.393744 117.783496 
L 207.368683 190.366281 
L 207.693662 98.959268 
L 208.018642 108.815874 
L 208.343621 179.431894 
L 208.668601 193.172209 
L 208.99358 138.811265 
L 209.31856 186.697092 
L 209.643539 126.155959 
L 209.968519 109.668982 
L 210.293498 117.797912 
L 210.618478 167.037879 
L 210.943457 123.612969 
L 211.268437 132.447148 
L 211.593417 161.654502 
L 211.918396 144.34387 
L 212.243376 136.76863 
L 212.568355 125.881275 
L 212.893335 128.346108 
L 213.218314 85.630858 
L 213.543294 145.039738 
L 213.868273 229.91253 
L 214.518232 105.774897 
L 214.843212 151.419406 
L 215.168191 71.976908 
L 215.493171 155.683097 
L 215.81815 124.656771 
L 216.14313 128.697417 
L 216.468109 143.278993 
L 216.793089 189.322538 
L 217.118068 170.163941 
L 217.443048 76.869731 
L 217.768027 115.329748 
L 218.093007 199.314701 
L 218.417987 181.549692 
L 218.742966 190.69562 
L 219.067946 104.694192 
L 219.392925 157.267148 
L 219.717905 133.514296 
L 220.042884 124.932193 
L 220.367864 148.413183 
L 220.692843 213.788415 
L 221.017823 182.693144 
L 221.342802 211.583827 
L 221.667782 160.780285 
L 221.992761 162.207825 
L 222.317741 216.524345 
L 222.64272 112.96601 
L 222.9677 172.853452 
L 223.292679 196.337564 
L 223.617659 163.939152 
L 223.942638 213.047817 
L 224.267618 110.27714 
L 224.592598 173.960563 
L 224.917577 207.131526 
L 225.242557 126.878966 
L 225.567536 121.91279 
L 226.217495 183.988753 
L 226.542475 122.127684 
L 226.867454 124.837002 
L 227.192434 148.376482 
L 227.517413 114.048161 
L 227.842393 154.585085 
L 228.167372 123.767693 
L 228.492352 178.428424 
L 229.142311 54.130081 
L 229.46729 199.354221 
L 229.79227 131.791416 
L 230.117249 123.613458 
L 230.442229 118.53332 
L 230.767208 110.970183 
L 231.092188 87.361821 
L 231.417168 107.002702 
L 231.742147 191.151009 
L 232.067127 178.878028 
L 232.392106 157.553982 
L 232.717086 101.036898 
L 233.042065 214.715743 
L 233.367045 145.606228 
L 233.692024 103.195845 
L 234.017004 110.090457 
L 234.341983 148.468005 
L 234.666963 144.023905 
L 234.991942 143.782499 
L 235.316922 94.34734 
L 235.641901 164.656944 
L 235.966881 146.744209 
L 236.29186 136.481272 
L 236.61684 170.127321 
L 237.266799 115.863068 
L 237.591779 117.789867 
L 237.916758 143.485607 
L 238.241738 155.078355 
L 238.566717 117.134076 
L 238.891697 168.177157 
L 239.216676 131.753975 
L 239.541656 162.732652 
L 239.866635 123.394469 
L 240.191615 195.936598 
L 240.516594 144.297864 
L 240.841574 58.793396 
L 241.166553 179.549133 
L 241.491533 165.771635 
L 241.816512 125.196689 
L 242.141492 188.522595 
L 242.466471 212.560817 
L 242.791451 127.742824 
L 243.11643 112.378182 
L 243.44141 148.951111 
L 244.091369 185.648229 
L 244.416349 92.85498 
L 244.741328 202.992599 
L 245.066308 113.329144 
L 245.391287 109.389022 
L 245.716267 155.064665 
L 246.041246 114.138175 
L 246.366226 156.251102 
L 246.691205 161.018675 
L 247.016185 171.913798 
L 247.341164 173.975302 
L 247.666144 129.056102 
L 247.991123 121.036699 
L 248.316103 145.828199 
L 248.641082 150.713655 
L 248.966062 171.966907 
L 249.291041 172.996121 
L 249.616021 184.085954 
L 249.941 167.536827 
L 250.26598 88.627828 
L 250.59096 103.747278 
L 250.915939 172.425033 
L 251.240919 128.00919 
L 251.565898 117.00965 
L 251.890878 173.152621 
L 252.215857 184.666806 
L 252.540837 139.24173 
L 252.865816 149.462626 
L 253.190796 105.755888 
L 253.515775 184.666656 
L 253.840755 125.56957 
L 254.165734 115.860169 
L 254.490714 132.86731 
L 254.815693 50.823419 
L 255.140673 114.929436 
L 255.465652 143.492949 
L 255.790632 196.029021 
L 256.440591 91.663498 
L 256.76557 196.430768 
L 257.09055 75.768498 
L 257.740509 186.437089 
L 258.065489 101.063678 
L 258.390468 86.023395 
L 259.040427 145.564461 
L 259.365407 142.38893 
L 259.690386 164.661945 
L 260.015366 45.046603 
L 260.340345 134.55372 
L 260.665325 158.798578 
L 260.990304 146.271036 
L 261.315284 150.455149 
L 261.640263 183.464437 
L 261.965243 109.46183 
L 262.290222 103.190665 
L 262.615202 160.163686 
L 262.940181 146.546842 
L 263.265161 169.238975 
L 263.590141 161.91733 
L 263.91512 170.927906 
L 264.2401 163.245393 
L 264.565079 73.869944 
L 264.890059 128.049083 
L 265.215038 201.709142 
L 265.540018 170.807982 
L 265.864997 215.190639 
L 266.189977 177.03844 
L 266.514956 152.63283 
L 266.839936 100.18786 
L 267.164915 114.703044 
L 267.489895 71.76229 
L 267.814874 128.036905 
L 268.464833 162.381006 
L 268.789813 107.243111 
L 269.114792 120.223293 
L 269.439772 91.498954 
L 269.764751 144.614717 
L 270.089731 170.899117 
L 270.414711 69.153171 
L 270.73969 184.29034 
L 271.389649 161.627114 
L 271.714629 204.478652 
L 272.364588 145.222832 
L 272.689567 130.943001 
L 273.014547 138.551769 
L 273.339526 127.907752 
L 273.664506 104.26291 
L 274.314465 164.147491 
L 274.639444 152.300957 
L 274.964424 113.7118 
L 275.289403 112.607175 
L 275.614383 235.190308 
L 275.939362 109.43222 
L 276.264342 136.362583 
L 276.589322 192.478989 
L 276.914301 151.254317 
L 277.239281 228.360394 
L 277.56426 170.081595 
L 277.88924 166.960121 
L 278.214219 129.9688 
L 278.539199 139.016389 
L 278.864178 210.191752 
L 279.189158 168.245425 
L 279.514137 191.974854 
L 279.839117 139.550253 
L 280.164096 137.799637 
L 280.489076 129.333706 
L 280.814055 153.431808 
L 281.139035 164.121308 
L 281.464014 124.032754 
L 281.788994 142.612049 
L 282.113973 237.323185 
L 282.438953 150.07767 
L 282.763932 185.679504 
L 283.088912 143.076979 
L 283.413892 141.327565 
L 283.738871 136.309509 
L 284.063851 108.253225 
L 284.38883 104.557773 
L 284.71381 164.397157 
L 285.038789 72.359675 
L 285.363769 156.45139 
L 285.688748 211.382328 
L 286.338707 151.962957 
L 286.663687 231.003566 
L 287.638625 85.073283 
L 287.963605 139.210436 
L 288.288584 107.087994 
L 288.613564 183.187231 
L 288.938543 214.155074 
L 289.263523 115.752805 
L 289.588503 126.925064 
L 289.913482 180.249246 
L 290.238462 133.451345 
L 290.563441 145.833196 
L 291.2134 83.219252 
L 291.53838 104.464573 
L 291.863359 175.495244 
L 292.188339 178.727005 
L 292.513318 98.826681 
L 292.838298 151.980766 
L 293.163277 114.362475 
L 293.488257 125.017454 
L 294.138216 196.851697 
L 294.463195 122.433087 
L 294.788175 98.337878 
L 295.113154 157.214343 
L 295.438134 185.70325 
L 295.763113 124.543924 
L 296.088093 172.538051 
L 296.413073 127.221652 
L 296.738052 200.387565 
L 297.063032 182.205902 
L 297.388011 176.376124 
L 297.712991 98.23427 
L 298.03797 134.994276 
L 298.36295 148.524284 
L 298.687929 175.384629 
L 299.012909 116.598193 
L 299.337888 124.304798 
L 299.662868 102.099677 
L 299.987847 140.481715 
L 300.312827 118.035373 
L 300.637806 188.318272 
L 300.962786 83.985128 
L 301.287765 196.692766 
L 301.612745 126.566308 
L 301.937724 140.011957 
L 302.262704 92.253511 
L 302.587684 163.429761 
L 302.912663 123.537795 
L 303.237643 140.97575 
L 303.562622 175.191582 
L 304.212581 131.136601 
L 304.537561 125.156252 
L 304.86254 110.273397 
L 305.18752 130.785874 
L 305.512499 114.283767 
L 305.837479 173.267851 
L 306.162458 113.49592 
L 306.487438 93.414159 
L 306.812417 159.521984 
L 307.137397 153.243449 
L 307.462376 166.016204 
L 307.787356 142.082874 
L 308.112335 141.740346 
L 308.437315 139.932089 
L 308.762294 120.857942 
L 309.087274 202.928556 
L 309.737233 135.245399 
L 310.062213 198.374712 
L 310.387192 213.097964 
L 310.712172 127.89645 
L 311.037151 110.723843 
L 311.362131 221.864063 
L 311.68711 186.493048 
L 312.01209 198.258288 
L 312.337069 122.262914 
L 312.662049 174.692617 
L 312.987028 188.912031 
L 313.312008 123.944441 
L 313.961967 167.049353 
L 314.611926 132.25071 
L 314.936905 154.537579 
L 315.261885 95.149189 
L 315.586865 106.797315 
L 315.911844 111.674013 
L 316.236824 181.401331 
L 316.561803 144.4024 
L 316.886783 169.026623 
L 317.211762 158.299506 
L 317.536742 163.463075 
L 317.861721 128.207998 
L 318.186701 140.896511 
L 318.51168 102.614748 
L 318.83666 162.427896 
L 319.161639 153.918228 
L 319.486619 180.39771 
L 319.811598 193.128232 
L 320.136578 91.266824 
L 320.461557 127.93724 
L 320.786537 202.974331 
L 321.111516 209.004475 
L 321.436496 198.660672 
L 321.761475 168.436961 
L 322.086455 179.920298 
L 322.411435 107.564589 
L 322.736414 68.324024 
L 323.061394 97.669288 
L 323.386373 97.982383 
L 323.711353 120.559586 
L 324.036332 169.593025 
L 324.361312 114.33824 
L 324.686291 101.439066 
L 325.011271 74.396181 
L 325.33625 171.351049 
L 325.66123 131.590744 
L 325.986209 129.672503 
L 326.311189 172.02518 
L 326.636168 173.200189 
L 326.961148 175.694402 
L 327.286127 97.835728 
L 327.611107 103.842133 
L 327.936086 133.212391 
L 328.261066 108.2898 
L 328.586046 160.224381 
L 328.911025 113.480004 
L 329.236005 136.814081 
L 329.560984 181.409066 
L 329.885964 132.300689 
L 330.210943 157.885041 
L 330.535923 68.792146 
L 330.860902 164.147523 
L 331.185882 151.211613 
L 331.510861 185.309791 
L 331.835841 111.471479 
L 332.16082 171.378506 
L 332.4858 169.642153 
L 332.810779 143.869561 
L 333.135759 71.50754 
L 333.460738 161.825584 
L 333.785718 156.123169 
L 334.110697 146.99535 
L 334.435677 71.961823 
L 334.760656 160.062423 
L 335.085636 105.349439 
L 335.410616 189.722299 
L 335.735595 93.982057 
L 336.060575 136.102719 
L 336.385554 126.038202 
L 336.710534 144.356267 
L 337.035513 179.906537 
L 337.360493 84.78939 
L 337.685472 227.618011 
L 338.010452 163.052703 
L 338.335431 140.958216 
L 338.660411 195.22492 
L 338.98539 194.652217 
L 339.31037 195.428699 
L 339.635349 193.461671 
L 339.960329 126.449324 
L 340.285308 233.005319 
L 340.610288 151.776528 
L 340.935267 137.204923 
L 341.260247 208.612041 
L 341.585227 174.688262 
L 341.910206 178.851165 
L 342.235186 90.4581 
L 342.560165 152.285927 
L 342.885145 127.301028 
L 343.210124 136.811525 
L 343.535104 223.781036 
L 343.860083 75.974288 
L 344.185063 104.843172 
L 344.510042 163.595533 
L 344.835022 141.360104 
L 345.160001 236.301503 
L 345.484981 231.59916 
L 345.80996 138.232001 
L 346.13494 207.228409 
L 346.459919 221.325949 
L 346.784899 88.494193 
L 347.109878 170.99691 
L 347.434858 136.646858 
L 347.759837 177.909389 
L 348.084817 147.650284 
L 348.409797 169.838617 
L 348.734776 113.104922 
L 349.059756 160.033984 
L 349.384735 126.215747 
L 349.709715 164.622143 
L 350.034694 169.947679 
L 350.359674 170.053162 
L 350.684653 246.150027 
L 351.009633 175.00618 
L 351.334612 198.329956 
L 351.659592 108.893439 
L 351.984571 133.148957 
L 352.309551 175.301623 
L 352.63453 181.489961 
L 352.95951 162.781748 
L 353.284489 118.096487 
L 353.609469 147.93384 
L 353.934448 121.094849 
L 354.259428 152.503061 
L 354.584408 171.089223 
L 354.909387 178.244894 
L 355.234367 124.452195 
L 355.559346 221.950903 
L 355.884326 150.750477 
L 356.209305 161.800692 
L 356.859264 115.575095 
L 357.184244 181.350382 
L 357.509223 171.443707 
L 357.834203 147.48123 
L 358.159182 107.185985 
L 358.484162 130.612447 
L 358.809141 188.457394 
L 359.134121 141.688312 
L 359.4591 202.972895 
L 359.78408 109.990386 
L 360.109059 142.565657 
L 360.434039 124.893979 
L 360.759018 141.973746 
L 361.083998 126.428713 
L 361.733957 152.032334 
L 362.058937 118.496628 
L 362.383916 133.642869 
L 362.708896 165.320699 
L 363.358855 125.455622 
L 363.683834 126.382936 
L 364.008814 105.709867 
L 364.658773 138.670709 
L 364.983752 200.206075 
L 365.308732 104.981212 
L 365.633711 167.112281 
L 365.958691 90.159045 
L 366.28367 177.502404 
L 367.258609 135.389438 
L 367.583589 148.301886 
L 367.908568 121.77277 
L 368.233548 106.37598 
L 368.558527 142.566052 
L 368.883507 130.832176 
L 369.208486 147.224175 
L 369.533466 206.262687 
L 369.858445 132.627453 
L 370.183425 156.498712 
L 370.508404 122.74534 
L 370.833384 194.237726 
L 371.158363 140.916422 
L 371.483343 156.516295 
L 371.808322 140.432959 
L 372.133302 165.717617 
L 372.458281 167.70094 
L 372.783261 156.246034 
L 373.10824 159.098256 
L 373.43322 155.508696 
L 373.758199 155.449649 
L 374.083179 143.305718 
L 374.408159 148.208506 
L 374.733138 181.706677 
L 375.058118 191.803877 
L 375.383097 161.140768 
L 375.708077 169.557852 
L 376.033056 168.196113 
L 376.358036 145.194027 
L 376.683015 139.959574 
L 377.007995 196.993466 
L 377.332974 168.774905 
L 377.657954 173.708713 
L 377.982933 174.471253 
L 378.307913 208.838844 
L 378.632892 86.757661 
L 378.957872 184.209048 
L 379.282851 133.357399 
L 379.607831 160.866367 
L 379.93281 171.897903 
L 380.25779 122.576891 
L 380.58277 130.197421 
L 380.907749 222.336697 
L 381.232729 165.151773 
L 381.557708 150.493369 
L 381.882688 173.355953 
L 382.207667 113.630916 
L 382.532647 171.733589 
L 382.857626 102.773458 
L 383.182606 184.193602 
L 383.507585 89.032005 
L 383.507585 89.032005 
" clip-path="url(#p318442c991)" style="fill: none; stroke: #1f77b4; stroke-width: 1.5; stroke-linecap: square"/>
   </g>
   <g id="patch_3">
    <path d="M 42.620313 288.430125 
L 42.620313 22.318125 
" style="fill: none; stroke: #000000; stroke-width: 0.8; stroke-linejoin: miter; stroke-linecap: square"/>
   </g>
   <g id="patch_4">
    <path d="M 399.740313 288.430125 
L 399.740313 22.318125 
" style="fill: none; stroke: #000000; stroke-width: 0.8; stroke-linejoin: miter; stroke-linecap: square"/>
   </g>
   <g id="patch_5">
    <path d="M 42.620313 288.430125 
L 399.740312 288.430125 
" style="fill: none; stroke: #000000; stroke-width: 0.8; stroke-linejoin: miter; stroke-linecap: square"/>
   </g>
   <g id="patch_6">
    <path d="M 42.620313 22.318125 
L 399.740312 22.318125 
" style="fill: none; stroke: #000000; stroke-width: 0.8; stroke-linejoin: miter; stroke-linecap: square"/>
   </g>
   <g id="text_16">
    <!-- A = 0.2, $f_o$ = 0.01 -->
    <g transform="translate(168.140313 16.318125)scale(0.12 -0.12)">
     <defs>
      <path id="DejaVuSans-41" d="M 2188 4044 
L 1331 1722 
L 3047 1722 
L 2188 4044 
z
M 1831 4666 
L 2547 4666 
L 4325 0 
L 3669 0 
L 3244 1197 
L 1141 1197 
L 716 0 
L 50 0 
L 1831 4666 
z
" transform="scale(0.015625)"/>
      <path id="DejaVuSans-20" transform="scale(0.015625)"/>
      <path id="DejaVuSans-3d" d="M 678 2906 
L 4684 2906 
L 4684 2381 
L 678 2381 
L 678 2906 
z
M 678 1631 
L 4684 1631 
L 4684 1100 
L 678 1100 
L 678 1631 
z
" transform="scale(0.015625)"/>
      <path id="DejaVuSans-2e" d="M 684 794 
L 1344 794 
L 1344 0 
L 684 0 
L 684 794 
z
" transform="scale(0.015625)"/>
      <path id="DejaVuSans-2c" d="M 750 794 
L 1409 794 
L 1409 256 
L 897 -744 
L 494 -744 
L 750 256 
L 750 794 
z
" transform="scale(0.015625)"/>
      <path id="DejaVuSans-Oblique-66" d="M 3059 4863 
L 2969 4384 
L 2419 4384 
Q 2106 4384 1964 4261 
Q 1822 4138 1753 3809 
L 1691 3500 
L 2638 3500 
L 2553 3053 
L 1606 3053 
L 1013 0 
L 434 0 
L 1031 3053 
L 481 3053 
L 563 3500 
L 1113 3500 
L 1159 3744 
Q 1278 4363 1576 4613 
Q 1875 4863 2516 4863 
L 3059 4863 
z
" transform="scale(0.015625)"/>
      <path id="DejaVuSans-Oblique-6f" d="M 1625 -91 
Q 1009 -91 651 289 
Q 294 669 294 1325 
Q 294 1706 417 2101 
Q 541 2497 738 2766 
Q 1047 3184 1428 3384 
Q 1809 3584 2291 3584 
Q 2888 3584 3255 3212 
Q 3622 2841 3622 2241 
Q 3622 1825 3500 1412 
Q 3378 1000 3181 728 
Q 2875 309 2494 109 
Q 2113 -91 1625 -91 
z
M 891 1344 
Q 891 869 1089 633 
Q 1288 397 1691 397 
Q 2269 397 2648 901 
Q 3028 1406 3028 2181 
Q 3028 2634 2825 2865 
Q 2622 3097 2228 3097 
Q 1903 3097 1650 2945 
Q 1397 2794 1197 2484 
Q 1050 2253 970 1956 
Q 891 1659 891 1344 
z
" transform="scale(0.015625)"/>
     </defs>
     <use xlink:href="#DejaVuSans-41" transform="translate(0 0.015625)"/>
     <use xlink:href="#DejaVuSans-20" transform="translate(68.408203 0.015625)"/>
     <use xlink:href="#DejaVuSans-3d" transform="translate(100.195312 0.015625)"/>
     <use xlink:href="#DejaVuSans-20" transform="translate(183.984375 0.015625)"/>
     <use xlink:href="#DejaVuSans-30" transform="translate(215.771484 0.015625)"/>
     <use xlink:href="#DejaVuSans-2e" transform="translate(279.394531 0.015625)"/>
     <use xlink:href="#DejaVuSans-32" transform="translate(305.681641 0.015625)"/>
     <use xlink:href="#DejaVuSans-2c" transform="translate(369.304688 0.015625)"/>
     <use xlink:href="#DejaVuSans-20" transform="translate(401.091797 0.015625)"/>
     <use xlink:href="#DejaVuSans-Oblique-66" transform="translate(432.878906 0.015625)"/>
     <use xlink:href="#DejaVuSans-Oblique-6f" transform="translate(468.083984 -16.390625)scale(0.7)"/>
     <use xlink:href="#DejaVuSans-20" transform="translate(513.645508 0.015625)"/>
     <use xlink:href="#DejaVuSans-3d" transform="translate(545.432617 0.015625)"/>
     <use xlink:href="#DejaVuSans-20" transform="translate(629.22168 0.015625)"/>
     <use xlink:href="#DejaVuSans-30" transform="translate(661.008789 0.015625)"/>
     <use xlink:href="#DejaVuSans-2e" transform="translate(724.631836 0.015625)"/>
     <use xlink:href="#DejaVuSans-30" transform="translate(756.418945 0.015625)"/>
     <use xlink:href="#DejaVuSans-31" transform="translate(820.041992 0.015625)"/>
    </g>
   </g>
  </g>
 </g>
 <defs>
  <clipPath id="p318442c991">
   <rect x="42.620313" y="22.318125" width="357.12" height="266.112"/>
  </clipPath>
 </defs>
</svg>
