<?xml version="1.0" encoding="utf-8" standalone="no"?>
<!DOCTYPE svg PUBLIC "-//W3C//DTD SVG 1.1//EN"
  "http://www.w3.org/Graphics/SVG/1.1/DTD/svg11.dtd">
<svg xmlns:xlink="http://www.w3.org/1999/xlink" width="388.52pt" height="324.387937pt" viewBox="0 0 388.52 324.387937" xmlns="http://www.w3.org/2000/svg" version="1.1">
 <metadata>
  <rdf:RDF xmlns:dc="http://purl.org/dc/elements/1.1/" xmlns:cc="http://creativecommons.org/ns#" xmlns:rdf="http://www.w3.org/1999/02/22-rdf-syntax-ns#">
   <cc:Work>
    <dc:type rdf:resource="http://purl.org/dc/dcmitype/StillImage"/>
    <dc:date>2025-04-07T10:24:00.391832</dc:date>
    <dc:format>image/svg+xml</dc:format>
    <dc:creator>
     <cc:Agent>
      <dc:title>Matplotlib v3.8.4, https://matplotlib.org/</dc:title>
     </cc:Agent>
    </dc:creator>
   </cc:Work>
  </rdf:RDF>
 </metadata>
 <defs>
  <style type="text/css">*{stroke-linejoin: round; stroke-linecap: butt}</style>
 </defs>
 <g id="figure_1">
  <g id="patch_1">
   <path d="M 0 324.387937 
L 388.52 324.387937 
L 388.52 0 
L 0 0 
L 0 324.387937 
z
" style="fill: none"/>
  </g>
  <g id="axes_1">
   <g id="patch_2">
    <path d="M 24.2 287.905125 
L 381.32 287.905125 
L 381.32 21.793125 
L 24.2 21.793125 
L 24.2 287.905125 
z
" style="fill: none"/>
   </g>
   <g id="matplotlib.axis_1">
    <g id="xtick_1">
     <g id="line2d_1">
      <path d="M 40.432727 287.905125 
L 40.432727 21.793125 
" clip-path="url(#pe50cd781e4)" style="fill: none; stroke: #b0b0b0; stroke-width: 0.8; stroke-linecap: square"/>
     </g>
     <g id="line2d_2">
      <defs>
       <path id="m69037c42f2" d="M 0 0 
L 0 3.5 
" style="stroke: #000000; stroke-width: 0.8"/>
      </defs>
      <g>
       <use xlink:href="#m69037c42f2" x="40.432727" y="287.905125" style="stroke: #000000; stroke-width: 0.8"/>
      </g>
     </g>
     <g id="text_1">
      <!-- 0.0 -->
      <g transform="translate(34.182727 301.848875) scale(0.1 -0.1)">
       <defs>
        <path id="TimesNewRomanPSMT-30" d="M 231 2094 
Q 231 2819 450 3342 
Q 669 3866 1031 4122 
Q 1313 4325 1613 4325 
Q 2100 4325 2488 3828 
Q 2972 3213 2972 2159 
Q 2972 1422 2759 906 
Q 2547 391 2217 158 
Q 1888 -75 1581 -75 
Q 975 -75 572 641 
Q 231 1244 231 2094 
z
M 844 2016 
Q 844 1141 1059 588 
Q 1238 122 1591 122 
Q 1759 122 1940 273 
Q 2122 425 2216 781 
Q 2359 1319 2359 2297 
Q 2359 3022 2209 3506 
Q 2097 3866 1919 4016 
Q 1791 4119 1609 4119 
Q 1397 4119 1231 3928 
Q 1006 3669 925 3112 
Q 844 2556 844 2016 
z
" transform="scale(0.015625)"/>
        <path id="TimesNewRomanPSMT-2e" d="M 800 606 
Q 947 606 1047 504 
Q 1147 403 1147 259 
Q 1147 116 1045 14 
Q 944 -88 800 -88 
Q 656 -88 554 14 
Q 453 116 453 259 
Q 453 406 554 506 
Q 656 606 800 606 
z
" transform="scale(0.015625)"/>
       </defs>
       <use xlink:href="#TimesNewRomanPSMT-30"/>
       <use xlink:href="#TimesNewRomanPSMT-2e" x="50"/>
       <use xlink:href="#TimesNewRomanPSMT-30" x="75"/>
      </g>
     </g>
    </g>
    <g id="xtick_2">
     <g id="line2d_3">
      <path d="M 105.493758 287.905125 
L 105.493758 21.793125 
" clip-path="url(#pe50cd781e4)" style="fill: none; stroke: #b0b0b0; stroke-width: 0.8; stroke-linecap: square"/>
     </g>
     <g id="line2d_4">
      <g>
       <use xlink:href="#m69037c42f2" x="105.493758" y="287.905125" style="stroke: #000000; stroke-width: 0.8"/>
      </g>
     </g>
     <g id="text_2">
      <!-- 0.1 -->
      <g transform="translate(99.243758 301.848875) scale(0.1 -0.1)">
       <defs>
        <path id="TimesNewRomanPSMT-31" d="M 750 3822 
L 1781 4325 
L 1884 4325 
L 1884 747 
Q 1884 391 1914 303 
Q 1944 216 2037 169 
Q 2131 122 2419 116 
L 2419 0 
L 825 0 
L 825 116 
Q 1125 122 1212 167 
Q 1300 213 1334 289 
Q 1369 366 1369 747 
L 1369 3034 
Q 1369 3497 1338 3628 
Q 1316 3728 1258 3775 
Q 1200 3822 1119 3822 
Q 1003 3822 797 3725 
L 750 3822 
z
" transform="scale(0.015625)"/>
       </defs>
       <use xlink:href="#TimesNewRomanPSMT-30"/>
       <use xlink:href="#TimesNewRomanPSMT-2e" x="50"/>
       <use xlink:href="#TimesNewRomanPSMT-31" x="75"/>
      </g>
     </g>
    </g>
    <g id="xtick_3">
     <g id="line2d_5">
      <path d="M 170.55479 287.905125 
L 170.55479 21.793125 
" clip-path="url(#pe50cd781e4)" style="fill: none; stroke: #b0b0b0; stroke-width: 0.8; stroke-linecap: square"/>
     </g>
     <g id="line2d_6">
      <g>
       <use xlink:href="#m69037c42f2" x="170.55479" y="287.905125" style="stroke: #000000; stroke-width: 0.8"/>
      </g>
     </g>
     <g id="text_3">
      <!-- 0.2 -->
      <g transform="translate(164.30479 301.848875) scale(0.1 -0.1)">
       <defs>
        <path id="TimesNewRomanPSMT-32" d="M 2934 816 
L 2638 0 
L 138 0 
L 138 116 
Q 1241 1122 1691 1759 
Q 2141 2397 2141 2925 
Q 2141 3328 1894 3587 
Q 1647 3847 1303 3847 
Q 991 3847 742 3664 
Q 494 3481 375 3128 
L 259 3128 
Q 338 3706 661 4015 
Q 984 4325 1469 4325 
Q 1984 4325 2329 3994 
Q 2675 3663 2675 3213 
Q 2675 2891 2525 2569 
Q 2294 2063 1775 1497 
Q 997 647 803 472 
L 1909 472 
Q 2247 472 2383 497 
Q 2519 522 2628 598 
Q 2738 675 2819 816 
L 2934 816 
z
" transform="scale(0.015625)"/>
       </defs>
       <use xlink:href="#TimesNewRomanPSMT-30"/>
       <use xlink:href="#TimesNewRomanPSMT-2e" x="50"/>
       <use xlink:href="#TimesNewRomanPSMT-32" x="75"/>
      </g>
     </g>
    </g>
    <g id="xtick_4">
     <g id="line2d_7">
      <path d="M 235.615821 287.905125 
L 235.615821 21.793125 
" clip-path="url(#pe50cd781e4)" style="fill: none; stroke: #b0b0b0; stroke-width: 0.8; stroke-linecap: square"/>
     </g>
     <g id="line2d_8">
      <g>
       <use xlink:href="#m69037c42f2" x="235.615821" y="287.905125" style="stroke: #000000; stroke-width: 0.8"/>
      </g>
     </g>
     <g id="text_4">
      <!-- 0.3 -->
      <g transform="translate(229.365821 301.848875) scale(0.1 -0.1)">
       <defs>
        <path id="TimesNewRomanPSMT-33" d="M 325 3431 
Q 506 3859 782 4092 
Q 1059 4325 1472 4325 
Q 1981 4325 2253 3994 
Q 2459 3747 2459 3466 
Q 2459 3003 1878 2509 
Q 2269 2356 2469 2072 
Q 2669 1788 2669 1403 
Q 2669 853 2319 450 
Q 1863 -75 997 -75 
Q 569 -75 414 31 
Q 259 138 259 259 
Q 259 350 332 419 
Q 406 488 509 488 
Q 588 488 669 463 
Q 722 447 909 348 
Q 1097 250 1169 231 
Q 1284 197 1416 197 
Q 1734 197 1970 444 
Q 2206 691 2206 1028 
Q 2206 1275 2097 1509 
Q 2016 1684 1919 1775 
Q 1784 1900 1550 2001 
Q 1316 2103 1072 2103 
L 972 2103 
L 972 2197 
Q 1219 2228 1467 2375 
Q 1716 2522 1828 2728 
Q 1941 2934 1941 3181 
Q 1941 3503 1739 3701 
Q 1538 3900 1238 3900 
Q 753 3900 428 3381 
L 325 3431 
z
" transform="scale(0.015625)"/>
       </defs>
       <use xlink:href="#TimesNewRomanPSMT-30"/>
       <use xlink:href="#TimesNewRomanPSMT-2e" x="50"/>
       <use xlink:href="#TimesNewRomanPSMT-33" x="75"/>
      </g>
     </g>
    </g>
    <g id="xtick_5">
     <g id="line2d_9">
      <path d="M 300.676852 287.905125 
L 300.676852 21.793125 
" clip-path="url(#pe50cd781e4)" style="fill: none; stroke: #b0b0b0; stroke-width: 0.8; stroke-linecap: square"/>
     </g>
     <g id="line2d_10">
      <g>
       <use xlink:href="#m69037c42f2" x="300.676852" y="287.905125" style="stroke: #000000; stroke-width: 0.8"/>
      </g>
     </g>
     <g id="text_5">
      <!-- 0.4 -->
      <g transform="translate(294.426852 301.848875) scale(0.1 -0.1)">
       <defs>
        <path id="TimesNewRomanPSMT-34" d="M 2978 1563 
L 2978 1119 
L 2409 1119 
L 2409 0 
L 1894 0 
L 1894 1119 
L 100 1119 
L 100 1519 
L 2066 4325 
L 2409 4325 
L 2409 1563 
L 2978 1563 
z
M 1894 1563 
L 1894 3666 
L 406 1563 
L 1894 1563 
z
" transform="scale(0.015625)"/>
       </defs>
       <use xlink:href="#TimesNewRomanPSMT-30"/>
       <use xlink:href="#TimesNewRomanPSMT-2e" x="50"/>
       <use xlink:href="#TimesNewRomanPSMT-34" x="75"/>
      </g>
     </g>
    </g>
    <g id="xtick_6">
     <g id="line2d_11">
      <path d="M 365.737883 287.905125 
L 365.737883 21.793125 
" clip-path="url(#pe50cd781e4)" style="fill: none; stroke: #b0b0b0; stroke-width: 0.8; stroke-linecap: square"/>
     </g>
     <g id="line2d_12">
      <g>
       <use xlink:href="#m69037c42f2" x="365.737883" y="287.905125" style="stroke: #000000; stroke-width: 0.8"/>
      </g>
     </g>
     <g id="text_6">
      <!-- 0.5 -->
      <g transform="translate(359.487883 301.848875) scale(0.1 -0.1)">
       <defs>
        <path id="TimesNewRomanPSMT-35" d="M 2778 4238 
L 2534 3706 
L 1259 3706 
L 981 3138 
Q 1809 3016 2294 2522 
Q 2709 2097 2709 1522 
Q 2709 1188 2573 903 
Q 2438 619 2231 419 
Q 2025 219 1772 97 
Q 1413 -75 1034 -75 
Q 653 -75 479 54 
Q 306 184 306 341 
Q 306 428 378 495 
Q 450 563 559 563 
Q 641 563 702 538 
Q 763 513 909 409 
Q 1144 247 1384 247 
Q 1750 247 2026 523 
Q 2303 800 2303 1197 
Q 2303 1581 2056 1914 
Q 1809 2247 1375 2428 
Q 1034 2569 447 2591 
L 1259 4238 
L 2778 4238 
z
" transform="scale(0.015625)"/>
       </defs>
       <use xlink:href="#TimesNewRomanPSMT-30"/>
       <use xlink:href="#TimesNewRomanPSMT-2e" x="50"/>
       <use xlink:href="#TimesNewRomanPSMT-35" x="75"/>
      </g>
     </g>
    </g>
    <g id="text_7">
     <!-- $f$ -->
     <g transform="translate(200.31 315.048875) scale(0.1 -0.1)">
      <defs>
       <path id="Cmmi10-66" d="M 622 -1056 
Q 741 -1147 909 -1147 
Q 1138 -1147 1281 -641 
Q 1341 -397 1606 966 
L 1900 2534 
L 1350 2534 
Q 1288 2534 1288 2619 
Q 1313 2759 1369 2759 
L 1941 2759 
L 2016 3175 
Q 2053 3369 2084 3508 
Q 2116 3647 2152 3765 
Q 2188 3884 2259 4031 
Q 2369 4241 2555 4377 
Q 2741 4513 2956 4513 
Q 3097 4513 3230 4461 
Q 3363 4409 3447 4306 
Q 3531 4203 3531 4063 
Q 3531 3900 3423 3779 
Q 3316 3659 3163 3659 
Q 3059 3659 2986 3723 
Q 2913 3788 2913 3891 
Q 2913 4031 3008 4136 
Q 3103 4241 3244 4256 
Q 3125 4347 2950 4347 
Q 2853 4347 2767 4256 
Q 2681 4166 2656 4063 
Q 2616 3900 2478 3181 
L 2400 2759 
L 3059 2759 
Q 3122 2759 3122 2675 
Q 3119 2659 3109 2620 
Q 3100 2581 3083 2557 
Q 3066 2534 3041 2534 
L 2356 2534 
L 2059 972 
Q 2003 631 1929 279 
Q 1856 -72 1723 -442 
Q 1591 -813 1384 -1063 
Q 1178 -1313 897 -1313 
Q 681 -1313 511 -1189 
Q 341 -1066 341 -863 
Q 341 -700 445 -579 
Q 550 -459 709 -459 
Q 816 -459 887 -523 
Q 959 -588 959 -691 
Q 959 -828 857 -942 
Q 756 -1056 622 -1056 
z
" transform="scale(0.015625)"/>
      </defs>
      <use xlink:href="#Cmmi10-66" transform="translate(0 0.484375)"/>
     </g>
    </g>
   </g>
   <g id="matplotlib.axis_2">
    <g id="ytick_1">
     <g id="line2d_13">
      <path d="M 24.2 275.821926 
L 381.32 275.821926 
" clip-path="url(#pe50cd781e4)" style="fill: none; stroke: #b0b0b0; stroke-width: 0.8; stroke-linecap: square"/>
     </g>
     <g id="line2d_14">
      <defs>
       <path id="m0d8fd90ba1" d="M 0 0 
L -3.5 0 
" style="stroke: #000000; stroke-width: 0.8"/>
      </defs>
      <g>
       <use xlink:href="#m0d8fd90ba1" x="24.2" y="275.821926" style="stroke: #000000; stroke-width: 0.8"/>
      </g>
     </g>
     <g id="text_8">
      <!-- 0 -->
      <g transform="translate(12.2 279.293801) scale(0.1 -0.1)">
       <use xlink:href="#TimesNewRomanPSMT-30"/>
      </g>
     </g>
    </g>
    <g id="ytick_2">
     <g id="line2d_15">
      <path d="M 24.2 238.718299 
L 381.32 238.718299 
" clip-path="url(#pe50cd781e4)" style="fill: none; stroke: #b0b0b0; stroke-width: 0.8; stroke-linecap: square"/>
     </g>
     <g id="line2d_16">
      <g>
       <use xlink:href="#m0d8fd90ba1" x="24.2" y="238.718299" style="stroke: #000000; stroke-width: 0.8"/>
      </g>
     </g>
     <g id="text_9">
      <!-- 5 -->
      <g transform="translate(12.2 242.190174) scale(0.1 -0.1)">
       <use xlink:href="#TimesNewRomanPSMT-35"/>
      </g>
     </g>
    </g>
    <g id="ytick_3">
     <g id="line2d_17">
      <path d="M 24.2 201.614671 
L 381.32 201.614671 
" clip-path="url(#pe50cd781e4)" style="fill: none; stroke: #b0b0b0; stroke-width: 0.8; stroke-linecap: square"/>
     </g>
     <g id="line2d_18">
      <g>
       <use xlink:href="#m0d8fd90ba1" x="24.2" y="201.614671" style="stroke: #000000; stroke-width: 0.8"/>
      </g>
     </g>
     <g id="text_10">
      <!-- 10 -->
      <g transform="translate(7.2 205.086546) scale(0.1 -0.1)">
       <use xlink:href="#TimesNewRomanPSMT-31"/>
       <use xlink:href="#TimesNewRomanPSMT-30" x="50"/>
      </g>
     </g>
    </g>
    <g id="ytick_4">
     <g id="line2d_19">
      <path d="M 24.2 164.511043 
L 381.32 164.511043 
" clip-path="url(#pe50cd781e4)" style="fill: none; stroke: #b0b0b0; stroke-width: 0.8; stroke-linecap: square"/>
     </g>
     <g id="line2d_20">
      <g>
       <use xlink:href="#m0d8fd90ba1" x="24.2" y="164.511043" style="stroke: #000000; stroke-width: 0.8"/>
      </g>
     </g>
     <g id="text_11">
      <!-- 15 -->
      <g transform="translate(7.2 167.982918) scale(0.1 -0.1)">
       <use xlink:href="#TimesNewRomanPSMT-31"/>
       <use xlink:href="#TimesNewRomanPSMT-35" x="50"/>
      </g>
     </g>
    </g>
    <g id="ytick_5">
     <g id="line2d_21">
      <path d="M 24.2 127.407415 
L 381.32 127.407415 
" clip-path="url(#pe50cd781e4)" style="fill: none; stroke: #b0b0b0; stroke-width: 0.8; stroke-linecap: square"/>
     </g>
     <g id="line2d_22">
      <g>
       <use xlink:href="#m0d8fd90ba1" x="24.2" y="127.407415" style="stroke: #000000; stroke-width: 0.8"/>
      </g>
     </g>
     <g id="text_12">
      <!-- 20 -->
      <g transform="translate(7.2 130.87929) scale(0.1 -0.1)">
       <use xlink:href="#TimesNewRomanPSMT-32"/>
       <use xlink:href="#TimesNewRomanPSMT-30" x="50"/>
      </g>
     </g>
    </g>
    <g id="ytick_6">
     <g id="line2d_23">
      <path d="M 24.2 90.303787 
L 381.32 90.303787 
" clip-path="url(#pe50cd781e4)" style="fill: none; stroke: #b0b0b0; stroke-width: 0.8; stroke-linecap: square"/>
     </g>
     <g id="line2d_24">
      <g>
       <use xlink:href="#m0d8fd90ba1" x="24.2" y="90.303787" style="stroke: #000000; stroke-width: 0.8"/>
      </g>
     </g>
     <g id="text_13">
      <!-- 25 -->
      <g transform="translate(7.2 93.775662) scale(0.1 -0.1)">
       <use xlink:href="#TimesNewRomanPSMT-32"/>
       <use xlink:href="#TimesNewRomanPSMT-35" x="50"/>
      </g>
     </g>
    </g>
    <g id="ytick_7">
     <g id="line2d_25">
      <path d="M 24.2 53.200159 
L 381.32 53.200159 
" clip-path="url(#pe50cd781e4)" style="fill: none; stroke: #b0b0b0; stroke-width: 0.8; stroke-linecap: square"/>
     </g>
     <g id="line2d_26">
      <g>
       <use xlink:href="#m0d8fd90ba1" x="24.2" y="53.200159" style="stroke: #000000; stroke-width: 0.8"/>
      </g>
     </g>
     <g id="text_14">
      <!-- 30 -->
      <g transform="translate(7.2 56.672034) scale(0.1 -0.1)">
       <use xlink:href="#TimesNewRomanPSMT-33"/>
       <use xlink:href="#TimesNewRomanPSMT-30" x="50"/>
      </g>
     </g>
    </g>
   </g>
   <g id="line2d_27">
    <path d="M 40.432727 269.1475 
L 41.083338 273.38846 
L 41.733948 271.041745 
L 42.384558 274.140308 
L 43.035169 256.822858 
L 43.685779 208.826178 
L 44.336389 273.177921 
L 44.986999 269.246846 
L 45.63761 231.505764 
L 46.28822 33.889125 
L 46.93883 231.13043 
L 47.589441 258.169928 
L 48.890661 272.294396 
L 49.541272 247.983437 
L 50.191882 265.392071 
L 50.842492 253.951721 
L 51.493103 272.160982 
L 52.143713 263.960237 
L 54.095544 275.01552 
L 54.746154 271.884251 
L 55.396764 264.41068 
L 56.047375 260.167751 
L 56.697985 265.542873 
L 57.348595 218.57012 
L 57.999206 245.999308 
L 58.649816 268.502097 
L 59.300426 272.844871 
L 59.951037 251.765734 
L 60.601647 262.573592 
L 61.252257 255.793116 
L 61.902868 274.883481 
L 62.553478 269.983586 
L 63.204088 275.537035 
L 63.854698 270.779053 
L 64.505309 268.636759 
L 65.155919 258.919384 
L 65.806529 253.783592 
L 66.45714 266.341425 
L 67.10775 241.70645 
L 67.75836 273.802882 
L 68.408971 255.509359 
L 69.059581 275.361048 
L 69.710191 274.448884 
L 70.360802 269.140595 
L 71.011412 268.716234 
L 71.662022 233.127228 
L 72.963243 267.892628 
L 73.613853 272.25369 
L 74.264463 253.827986 
L 74.915074 271.40183 
L 75.565684 215.662428 
L 76.216294 275.570772 
L 76.866905 275.507936 
L 77.517515 258.153647 
L 78.168125 264.42416 
L 78.818736 273.311471 
L 79.469346 245.421374 
L 80.119956 274.303865 
L 80.770567 259.369379 
L 81.421177 274.164503 
L 82.071787 243.535837 
L 82.722398 255.344127 
L 83.373008 242.466298 
L 84.023618 216.655233 
L 84.674228 260.954088 
L 85.324839 160.065528 
L 85.975449 272.073884 
L 86.626059 273.945575 
L 87.27667 232.455342 
L 87.92728 271.986749 
L 89.228501 253.710312 
L 89.879111 267.528585 
L 90.529721 273.826021 
L 91.180332 268.715761 
L 91.830942 266.041412 
L 92.481552 253.494788 
L 93.132163 267.040413 
L 93.782773 275.156887 
L 95.083993 235.735571 
L 95.734604 247.188964 
L 96.385214 265.348112 
L 97.035824 272.318651 
L 97.686435 263.615689 
L 98.337045 271.077073 
L 98.987655 274.456107 
L 99.638266 262.414253 
L 100.288876 273.739601 
L 101.590097 263.645494 
L 102.240707 275.773717 
L 102.891317 270.241587 
L 103.541927 270.944992 
L 104.192538 274.095683 
L 104.843148 273.203492 
L 105.493758 258.33551 
L 106.144369 258.133964 
L 106.794979 273.577869 
L 107.445589 252.147014 
L 108.0962 271.390822 
L 108.74681 251.737316 
L 109.39742 255.799273 
L 110.048031 271.733233 
L 110.698641 271.07863 
L 111.349251 271.981714 
L 111.999862 212.89017 
L 112.650472 246.341649 
L 113.301082 268.295395 
L 113.951692 262.481624 
L 114.602303 274.759091 
L 115.252913 273.051307 
L 115.903523 268.011759 
L 116.554134 271.992624 
L 117.204744 273.025494 
L 117.855354 266.408666 
L 118.505965 248.705104 
L 119.156575 250.331206 
L 119.807185 273.807223 
L 120.457796 273.138907 
L 121.108406 266.219056 
L 122.409627 275.641101 
L 123.060237 275.268088 
L 123.710847 261.867649 
L 124.361457 239.686438 
L 125.012068 257.146502 
L 125.662678 244.604041 
L 126.313288 275.226326 
L 126.963899 230.256362 
L 127.614509 265.060188 
L 128.265119 273.223291 
L 128.91573 275.625276 
L 129.56634 268.390983 
L 130.21695 222.587806 
L 130.867561 229.116828 
L 131.518171 275.761194 
L 132.168781 269.818126 
L 132.819392 260.68784 
L 133.470002 259.454422 
L 134.120612 275.219668 
L 134.771222 265.88441 
L 135.421833 194.542265 
L 136.072443 262.779307 
L 136.723053 243.986365 
L 137.373664 274.931201 
L 138.024274 249.639688 
L 138.674884 271.965396 
L 139.325495 246.61537 
L 139.976105 260.655773 
L 140.626715 268.494493 
L 141.277326 253.610951 
L 141.927936 253.178473 
L 142.578546 262.531697 
L 143.229156 259.853567 
L 143.879767 259.540385 
L 144.530377 271.322644 
L 145.180987 224.124498 
L 145.831598 262.628894 
L 146.482208 201.37577 
L 147.132818 273.406876 
L 147.783429 255.756978 
L 148.434039 258.175871 
L 149.084649 265.564992 
L 149.73526 275.423155 
L 150.38587 274.802433 
L 151.03648 254.051154 
L 151.687091 261.497713 
L 152.337701 261.692372 
L 152.988311 234.456064 
L 153.638921 264.514039 
L 154.289532 245.235855 
L 154.940142 260.286664 
L 155.590752 259.542723 
L 156.241363 273.161979 
L 156.891973 250.635751 
L 157.542583 273.144393 
L 158.193194 270.640174 
L 158.843804 272.515805 
L 159.494414 263.805496 
L 160.145025 262.933096 
L 160.795635 275.368855 
L 161.446245 271.478001 
L 162.096856 262.25073 
L 162.747466 259.294019 
L 164.048686 252.109341 
L 164.699297 259.769748 
L 165.349907 242.55013 
L 166.000517 267.480308 
L 166.651128 269.779931 
L 167.301738 221.434258 
L 167.952348 274.926965 
L 168.602959 266.64136 
L 169.253569 271.525011 
L 169.904179 264.838771 
L 170.55479 263.895279 
L 171.2054 260.548961 
L 171.85601 275.219147 
L 172.506621 264.5782 
L 173.157231 267.03022 
L 173.807841 239.728753 
L 174.458451 264.270275 
L 175.109062 250.039206 
L 175.759672 252.662702 
L 176.410282 265.059433 
L 177.060893 270.916696 
L 177.711503 271.335852 
L 178.362113 269.656009 
L 179.012724 212.28758 
L 179.663334 265.503908 
L 180.313944 271.665797 
L 180.964555 271.50011 
L 181.615165 233.483573 
L 182.265775 261.325117 
L 182.916385 255.556557 
L 183.566996 265.006644 
L 184.217606 271.9808 
L 184.868216 268.031061 
L 185.518827 254.948639 
L 186.169437 266.980892 
L 186.820047 269.736442 
L 187.470658 270.133812 
L 188.121268 254.645297 
L 188.771878 268.234612 
L 189.422489 243.53602 
L 190.073099 223.153533 
L 190.723709 258.83529 
L 191.37432 265.252326 
L 192.02493 269.203197 
L 192.67554 258.079728 
L 193.32615 274.452336 
L 193.976761 274.45364 
L 194.627371 266.883184 
L 195.277981 262.825147 
L 195.928592 260.571252 
L 196.579202 242.310787 
L 197.229812 244.704569 
L 197.880423 263.4672 
L 198.531033 259.763185 
L 199.181643 236.324715 
L 199.832254 265.711449 
L 200.482864 251.62457 
L 201.133474 275.394595 
L 201.784085 246.941505 
L 202.434695 274.829119 
L 203.085305 274.742355 
L 203.735915 233.421973 
L 204.386526 264.957967 
L 205.037136 248.787741 
L 205.687746 258.945808 
L 206.338357 249.627189 
L 206.988967 222.743228 
L 207.639577 272.493312 
L 208.290188 264.584629 
L 208.940798 275.710768 
L 209.591408 274.433674 
L 210.242019 274.272157 
L 210.892629 273.711931 
L 211.543239 272.492205 
L 212.19385 275.436434 
L 212.84446 271.1431 
L 213.49507 257.135239 
L 214.14568 271.051395 
L 214.796291 257.988423 
L 215.446901 223.70482 
L 216.097511 254.663094 
L 216.748122 245.703937 
L 217.398732 266.936238 
L 218.049342 254.970573 
L 218.699953 248.915445 
L 219.350563 275.002406 
L 220.001173 259.721468 
L 220.651784 272.898941 
L 221.302394 254.11534 
L 221.953004 247.497506 
L 222.603615 238.536098 
L 223.254225 260.918133 
L 223.904835 264.65643 
L 224.555445 235.36587 
L 225.206056 271.161203 
L 225.856666 272.552366 
L 226.507276 272.080841 
L 227.157887 265.167113 
L 227.808497 251.044799 
L 228.459107 272.633508 
L 229.109718 272.702704 
L 229.760328 252.931478 
L 230.410938 260.661684 
L 231.061549 257.322435 
L 231.712159 273.661524 
L 232.362769 266.07728 
L 233.013379 255.414238 
L 233.66399 270.678174 
L 234.3146 249.075158 
L 234.96521 246.167751 
L 235.615821 241.257161 
L 236.266431 257.112802 
L 236.917041 263.375562 
L 237.567652 256.68565 
L 238.218262 231.850338 
L 238.868872 272.289521 
L 240.170093 254.694849 
L 240.820703 254.108675 
L 241.471314 262.561357 
L 242.121924 265.245115 
L 242.772534 256.947516 
L 243.423144 269.700714 
L 244.073755 270.586443 
L 244.724365 272.832151 
L 245.374975 246.537864 
L 246.025586 266.328757 
L 246.676196 250.589204 
L 247.326806 273.103016 
L 247.977417 272.780356 
L 248.628027 246.817229 
L 249.278637 233.718042 
L 249.929248 258.708222 
L 250.579858 272.007265 
L 251.230468 270.081785 
L 251.881079 265.670145 
L 252.531689 245.780598 
L 253.182299 268.998729 
L 254.48352 275.093531 
L 255.13413 203.843575 
L 255.78474 266.532786 
L 256.435351 266.051091 
L 257.085961 266.860258 
L 257.736571 263.588365 
L 258.387182 270.237568 
L 259.037792 258.249213 
L 259.688402 205.826334 
L 260.339013 257.178745 
L 260.989623 273.709184 
L 261.640233 245.410358 
L 262.290844 265.430674 
L 262.941454 248.033924 
L 263.592064 266.405654 
L 264.242674 269.73628 
L 264.893285 273.860754 
L 265.543895 254.52547 
L 266.194505 262.568292 
L 266.845116 223.272009 
L 267.495726 272.539647 
L 268.146336 243.34912 
L 268.796947 271.453252 
L 269.447557 274.242699 
L 270.098167 254.849679 
L 270.748778 267.461852 
L 271.399388 251.972203 
L 272.049998 267.097749 
L 272.700608 271.73168 
L 273.351219 254.335472 
L 274.001829 257.810104 
L 274.652439 269.110819 
L 275.30305 267.948456 
L 275.95366 258.46866 
L 276.60427 256.137807 
L 277.254881 270.209454 
L 277.905491 238.327283 
L 278.556101 249.042645 
L 279.206712 267.226624 
L 279.857322 259.381711 
L 280.507932 254.652437 
L 281.158543 273.379604 
L 281.809153 242.252258 
L 282.459763 266.097576 
L 283.110373 269.208774 
L 283.760984 263.696269 
L 284.411594 273.409411 
L 285.062204 265.830485 
L 285.712815 260.760381 
L 287.014035 274.922352 
L 287.664646 265.838485 
L 288.315256 271.883993 
L 288.965866 270.562064 
L 289.616477 224.490895 
L 290.917697 263.932592 
L 291.568308 266.627958 
L 292.218918 259.545794 
L 292.869528 268.403868 
L 293.520138 266.33545 
L 294.170749 239.575635 
L 294.821359 249.382967 
L 295.471969 274.509807 
L 296.12258 212.657066 
L 296.77319 273.890285 
L 297.4238 273.163911 
L 298.074411 261.876607 
L 298.725021 272.273765 
L 299.375631 244.863093 
L 300.026242 268.127863 
L 300.676852 272.321358 
L 301.327462 268.029778 
L 301.978073 274.173096 
L 302.628683 261.589567 
L 303.929903 269.531823 
L 304.580514 271.331012 
L 305.231124 238.042822 
L 305.881734 273.963962 
L 306.532345 227.869419 
L 307.182955 259.823964 
L 307.833565 269.078953 
L 308.484176 243.836096 
L 309.134786 252.253092 
L 309.785396 272.184971 
L 310.436007 255.375575 
L 311.086617 266.992344 
L 311.737227 262.45615 
L 312.387837 271.197906 
L 313.038448 246.527517 
L 313.689058 266.912056 
L 314.339668 271.946554 
L 314.990279 273.178255 
L 315.640889 269.128276 
L 316.291499 274.796835 
L 316.94211 265.492338 
L 317.59272 275.26575 
L 318.893941 255.002727 
L 319.544551 264.739792 
L 320.195161 264.904592 
L 320.845772 266.337453 
L 321.496382 274.889961 
L 322.146992 244.206482 
L 323.448213 266.34562 
L 324.098823 272.615098 
L 324.749433 275.569765 
L 325.400044 261.747727 
L 326.050654 270.548433 
L 326.701264 211.24209 
L 327.351875 264.020887 
L 328.002485 274.668265 
L 328.653095 250.640794 
L 329.303706 204.446777 
L 329.954316 274.483783 
L 330.604926 255.629195 
L 331.255537 273.323107 
L 331.906147 259.28873 
L 332.556757 247.756773 
L 333.207367 272.323453 
L 333.857978 244.043413 
L 334.508588 274.504552 
L 335.159198 272.896401 
L 335.809809 265.405107 
L 336.460419 262.387858 
L 337.111029 262.084779 
L 337.76164 267.409144 
L 338.41225 261.154589 
L 339.06286 268.366843 
L 339.713471 247.279797 
L 340.364081 267.264325 
L 341.014691 257.991313 
L 341.665302 252.250639 
L 342.315912 275.186092 
L 342.966522 273.342325 
L 343.617132 258.064685 
L 344.267743 268.238823 
L 344.918353 275.731034 
L 345.568963 274.731515 
L 346.219574 260.249246 
L 346.870184 274.46918 
L 347.520794 264.654144 
L 348.171405 260.338163 
L 348.822015 269.703352 
L 349.472625 272.214199 
L 350.123236 262.667865 
L 350.773846 258.137493 
L 351.424456 269.70476 
L 352.075066 258.411593 
L 352.725677 254.406574 
L 353.376287 259.351653 
L 354.026897 269.915429 
L 354.677508 267.343191 
L 355.328118 261.661248 
L 355.978728 269.849007 
L 356.629339 264.586195 
L 357.279949 273.256088 
L 357.930559 261.81936 
L 358.58117 266.144097 
L 359.23178 239.264524 
L 359.88239 266.051798 
L 360.533001 266.088356 
L 361.183611 271.634097 
L 361.834221 266.826697 
L 362.484831 246.330983 
L 363.135442 270.406596 
L 363.786052 275.530608 
L 364.436662 272.566345 
L 365.087273 275.767424 
L 365.087273 275.767424 
" clip-path="url(#pe50cd781e4)" style="fill: none; stroke: #000000; stroke-width: 1.5; stroke-linecap: square"/>
   </g>
   <g id="line2d_28">
    <path d="M 40.432727 261.967008 
L 41.083338 226.932932 
L 41.733948 255.430343 
L 42.384558 273.504205 
L 43.035169 248.718477 
L 43.685779 272.732102 
L 44.336389 263.392893 
L 44.986999 265.19984 
L 45.63761 271.598754 
L 46.28822 274.401813 
L 46.93883 246.466257 
L 48.240051 274.870767 
L 48.890661 264.506093 
L 49.541272 270.839579 
L 50.191882 268.721201 
L 50.842492 252.661229 
L 51.493103 251.135094 
L 52.143713 263.604017 
L 52.794323 257.275798 
L 53.444934 269.170537 
L 54.095544 235.45533 
L 55.396764 267.617739 
L 56.047375 260.442848 
L 56.697985 269.803536 
L 57.348595 269.005155 
L 57.999206 247.544579 
L 58.649816 264.341494 
L 59.300426 243.794994 
L 59.951037 270.735844 
L 60.601647 254.968351 
L 61.252257 242.238777 
L 61.902868 261.772589 
L 62.553478 250.660292 
L 63.204088 269.790215 
L 63.854698 273.374024 
L 65.155919 244.004376 
L 66.45714 271.739606 
L 67.10775 270.420206 
L 67.75836 262.772082 
L 68.408971 219.7974 
L 69.059581 263.706734 
L 69.710191 258.229255 
L 70.360802 253.74789 
L 71.011412 273.835872 
L 71.662022 272.872887 
L 72.312633 268.425384 
L 72.963243 262.184852 
L 73.613853 247.919836 
L 74.264463 251.573217 
L 74.915074 248.24312 
L 76.216294 271.947208 
L 76.866905 260.331688 
L 77.517515 271.232628 
L 78.168125 269.704256 
L 78.818736 246.02385 
L 79.469346 273.610588 
L 80.119956 267.143738 
L 80.770567 262.858223 
L 82.071787 274.212008 
L 82.722398 271.99611 
L 83.373008 255.76757 
L 84.023618 236.393265 
L 84.674228 268.465291 
L 85.324839 219.07313 
L 85.975449 235.833472 
L 86.626059 202.380224 
L 87.27667 272.62338 
L 87.92728 236.441082 
L 88.57789 265.603943 
L 89.228501 259.814877 
L 89.879111 273.811997 
L 90.529721 270.389092 
L 91.180332 265.85226 
L 91.830942 274.064432 
L 92.481552 264.635529 
L 93.132163 267.123455 
L 93.782773 270.744081 
L 94.433383 259.626358 
L 95.083993 267.581354 
L 95.734604 243.15365 
L 96.385214 265.830289 
L 97.035824 255.569367 
L 97.686435 274.765259 
L 98.337045 251.839437 
L 98.987655 275.496278 
L 99.638266 270.477463 
L 100.288876 264.3645 
L 100.939486 268.650519 
L 101.590097 242.342041 
L 102.240707 264.61757 
L 102.891317 266.302632 
L 103.541927 275.688947 
L 104.192538 215.775164 
L 104.843148 272.657945 
L 106.144369 236.254218 
L 106.794979 247.342509 
L 107.445589 273.844504 
L 108.0962 269.503701 
L 108.74681 256.068457 
L 109.39742 272.299319 
L 110.048031 274.216805 
L 110.698641 251.786102 
L 111.349251 266.421751 
L 111.999862 275.721244 
L 112.650472 263.42631 
L 113.301082 264.21263 
L 113.951692 234.485883 
L 115.252913 271.501755 
L 115.903523 260.715355 
L 116.554134 275.056576 
L 117.204744 261.000691 
L 117.855354 263.536274 
L 118.505965 269.418847 
L 119.156575 270.797952 
L 119.807185 273.131335 
L 120.457796 266.712691 
L 121.108406 273.586472 
L 121.759016 272.062436 
L 122.409627 272.42784 
L 123.060237 274.93483 
L 123.710847 266.682132 
L 124.361457 260.969513 
L 125.012068 207.214074 
L 125.662678 254.305361 
L 126.313288 270.428844 
L 126.963899 251.889271 
L 127.614509 265.756811 
L 128.265119 271.055072 
L 128.91573 266.98865 
L 129.56634 269.91201 
L 130.21695 274.13283 
L 130.867561 266.895993 
L 131.518171 274.982763 
L 132.168781 263.511864 
L 132.819392 272.244806 
L 133.470002 258.169155 
L 134.120612 271.529918 
L 134.771222 275.782727 
L 135.421833 253.537817 
L 136.072443 274.728957 
L 136.723053 224.338549 
L 137.373664 261.755329 
L 138.024274 254.462394 
L 138.674884 264.959395 
L 139.325495 243.443579 
L 139.976105 266.936967 
L 140.626715 255.190108 
L 141.277326 250.246448 
L 141.927936 266.914826 
L 142.578546 262.71208 
L 143.229156 266.314485 
L 143.879767 265.338316 
L 144.530377 263.267746 
L 145.180987 243.264851 
L 145.831598 263.696461 
L 146.482208 272.891947 
L 147.132818 225.755619 
L 147.783429 272.428273 
L 148.434039 242.999882 
L 149.084649 186.168233 
L 149.73526 253.899807 
L 150.38587 272.789553 
L 151.03648 274.481021 
L 151.687091 243.297237 
L 152.337701 255.102043 
L 152.988311 270.334953 
L 153.638921 262.338759 
L 154.289532 224.867165 
L 154.940142 272.825508 
L 155.590752 247.920954 
L 156.241363 268.896307 
L 156.891973 261.749968 
L 157.542583 243.723556 
L 158.193194 257.546762 
L 158.843804 267.010979 
L 159.494414 262.154944 
L 160.145025 253.19708 
L 160.795635 239.209544 
L 161.446245 246.951585 
L 162.096856 274.56874 
L 162.747466 272.795686 
L 163.398076 267.018713 
L 164.048686 264.250841 
L 164.699297 275.792805 
L 165.349907 260.483382 
L 166.000517 253.754164 
L 166.651128 271.212453 
L 167.301738 227.291579 
L 167.952348 264.407802 
L 168.602959 271.313385 
L 169.253569 258.921124 
L 169.904179 273.058588 
L 170.55479 240.261234 
L 171.2054 248.300302 
L 171.85601 274.987738 
L 172.506621 272.189322 
L 173.157231 271.001154 
L 173.807841 266.023215 
L 174.458451 246.326157 
L 175.109062 231.692631 
L 175.759672 249.377319 
L 176.410282 260.316855 
L 177.060893 273.963203 
L 177.711503 258.460719 
L 178.362113 271.54007 
L 179.012724 248.602988 
L 179.663334 247.358378 
L 180.313944 259.618743 
L 180.964555 269.000551 
L 181.615165 263.751501 
L 182.265775 267.735561 
L 182.916385 273.495668 
L 183.566996 262.770455 
L 184.217606 262.740357 
L 184.868216 255.42013 
L 185.518827 269.802835 
L 186.169437 275.663561 
L 186.820047 265.038847 
L 187.470658 257.240667 
L 188.121268 267.587864 
L 188.771878 274.592348 
L 189.422489 257.364008 
L 190.723709 244.263987 
L 191.37432 275.804094 
L 192.02493 271.977071 
L 192.67554 260.998894 
L 193.32615 265.744589 
L 193.976761 245.100493 
L 194.627371 265.315772 
L 195.277981 261.013044 
L 195.928592 238.58321 
L 197.229812 272.709576 
L 197.880423 275.34078 
L 198.531033 258.085489 
L 199.181643 271.604536 
L 199.832254 269.8801 
L 200.482864 256.231704 
L 201.133474 260.855453 
L 201.784085 261.064239 
L 202.434695 274.393452 
L 203.085305 272.237137 
L 203.735915 268.549339 
L 204.386526 268.836963 
L 205.037136 270.705834 
L 205.687746 254.858097 
L 206.338357 253.711499 
L 206.988967 264.365284 
L 207.639577 272.219751 
L 208.290188 275.106603 
L 209.591408 250.737808 
L 210.242019 256.939188 
L 210.892629 265.907033 
L 211.543239 268.853788 
L 212.19385 275.285032 
L 212.84446 241.996248 
L 213.49507 270.992978 
L 214.14568 248.831753 
L 214.796291 267.014001 
L 215.446901 272.01988 
L 216.097511 249.482458 
L 216.748122 267.413461 
L 217.398732 246.29193 
L 218.049342 268.604259 
L 218.699953 271.931354 
L 219.350563 267.793948 
L 220.001173 250.367932 
L 220.651784 246.980546 
L 221.302394 267.911733 
L 221.953004 255.969703 
L 222.603615 274.409509 
L 223.254225 251.912917 
L 223.904835 253.349562 
L 224.555445 272.272623 
L 225.206056 257.809096 
L 225.856666 268.646352 
L 226.507276 265.015024 
L 227.157887 272.22271 
L 227.808497 275.299291 
L 228.459107 258.868063 
L 229.109718 275.809125 
L 229.760328 258.850688 
L 230.410938 261.319476 
L 231.061549 235.06902 
L 231.712159 253.994427 
L 233.013379 269.588699 
L 233.66399 267.204149 
L 234.3146 250.449513 
L 234.96521 275.528233 
L 235.615821 230.47701 
L 236.266431 271.602074 
L 236.917041 260.80376 
L 237.567652 235.625101 
L 238.218262 263.199882 
L 238.868872 248.911119 
L 239.519483 272.459797 
L 240.170093 270.969943 
L 240.820703 245.911282 
L 241.471314 275.397667 
L 242.121924 254.275951 
L 242.772534 270.156817 
L 243.423144 264.488697 
L 244.073755 275.433349 
L 244.724365 270.583059 
L 245.374975 252.271525 
L 246.025586 273.708782 
L 246.676196 236.696942 
L 247.326806 242.798992 
L 247.977417 253.239706 
L 248.628027 231.045001 
L 249.278637 272.492679 
L 249.929248 274.473997 
L 250.579858 269.99267 
L 251.230468 267.049993 
L 251.881079 267.846626 
L 252.531689 269.869183 
L 253.182299 268.179845 
L 253.832909 240.587343 
L 254.48352 272.802166 
L 255.13413 275.173213 
L 255.78474 274.639694 
L 256.435351 269.916638 
L 257.085961 272.981438 
L 257.736571 263.821226 
L 258.387182 248.687117 
L 259.037792 257.048698 
L 259.688402 270.089165 
L 260.339013 272.85225 
L 260.989623 270.671746 
L 261.640233 272.92566 
L 262.290844 256.845053 
L 262.941454 275.476743 
L 263.592064 273.777367 
L 264.242674 226.288534 
L 264.893285 270.110632 
L 265.543895 264.180826 
L 266.194505 272.75608 
L 266.845116 274.589634 
L 267.495726 257.081115 
L 268.146336 248.799898 
L 268.796947 267.399981 
L 269.447557 268.3388 
L 270.098167 275.341347 
L 270.748778 271.352448 
L 271.399388 263.965748 
L 272.049998 253.530998 
L 272.700608 274.976635 
L 273.351219 264.0731 
L 274.001829 258.423909 
L 274.652439 260.022211 
L 275.30305 267.871122 
L 275.95366 260.565491 
L 276.60427 250.750923 
L 277.905491 273.732635 
L 278.556101 270.383385 
L 279.206712 259.421562 
L 279.857322 269.161168 
L 280.507932 272.883398 
L 281.158543 267.015784 
L 281.809153 273.283577 
L 282.459763 260.435662 
L 283.110373 275.689496 
L 283.760984 274.508849 
L 284.411594 275.356532 
L 285.062204 271.061307 
L 285.712815 240.016587 
L 286.363425 256.766252 
L 287.014035 263.369806 
L 287.664646 263.013867 
L 288.315256 257.754029 
L 289.616477 274.385315 
L 290.267087 260.260877 
L 290.917697 268.06567 
L 291.568308 264.576687 
L 292.218918 264.139239 
L 292.869528 273.564542 
L 293.520138 238.042281 
L 294.170749 264.113397 
L 294.821359 247.305689 
L 295.471969 272.977877 
L 296.12258 261.257108 
L 296.77319 270.939997 
L 297.4238 274.687244 
L 298.074411 274.899167 
L 298.725021 249.164654 
L 299.375631 231.91167 
L 300.026242 267.743126 
L 300.676852 268.912975 
L 301.327462 251.761524 
L 301.978073 265.189644 
L 302.628683 271.239352 
L 303.279293 273.798788 
L 303.929903 240.507763 
L 304.580514 273.022738 
L 305.231124 275.336508 
L 305.881734 264.916051 
L 306.532345 271.25373 
L 307.182955 263.357514 
L 307.833565 266.258815 
L 308.484176 273.000303 
L 309.134786 272.400685 
L 309.785396 236.619133 
L 310.436007 261.034081 
L 311.086617 265.29869 
L 311.737227 242.621538 
L 312.387837 274.631207 
L 313.038448 270.316633 
L 313.689058 272.655444 
L 314.339668 247.131172 
L 314.990279 269.534194 
L 315.640889 272.271353 
L 316.291499 262.755152 
L 316.94211 262.695309 
L 317.59272 275.341049 
L 318.24333 258.552105 
L 318.893941 270.137279 
L 319.544551 257.755483 
L 320.195161 258.95557 
L 320.845772 247.233845 
L 321.496382 241.782399 
L 322.146992 271.752422 
L 322.797602 275.183378 
L 324.098823 253.763641 
L 324.749433 267.207666 
L 325.400044 274.07308 
L 326.050654 250.468346 
L 326.701264 274.945836 
L 327.351875 273.478261 
L 328.002485 262.248855 
L 328.653095 270.271201 
L 329.303706 253.33507 
L 329.954316 239.515407 
L 330.604926 275.359386 
L 331.255537 274.447262 
L 331.906147 274.518986 
L 332.556757 274.27238 
L 333.207367 270.201206 
L 333.857978 257.054236 
L 334.508588 259.612577 
L 335.159198 267.355552 
L 335.809809 252.441149 
L 336.460419 250.318255 
L 337.111029 273.179989 
L 337.76164 244.406364 
L 338.41225 257.485019 
L 339.06286 262.327031 
L 339.713471 272.745154 
L 340.364081 260.486336 
L 341.014691 252.978211 
L 341.665302 275.472589 
L 342.315912 272.764311 
L 342.966522 264.626363 
L 343.617132 259.51113 
L 344.267743 270.705805 
L 345.568963 272.552838 
L 346.219574 268.271351 
L 346.870184 269.483738 
L 347.520794 264.204513 
L 348.171405 249.005426 
L 348.822015 252.935694 
L 349.472625 271.727779 
L 350.123236 262.103329 
L 350.773846 271.244901 
L 351.424456 224.263812 
L 352.075066 265.376544 
L 352.725677 265.737935 
L 353.376287 256.153779 
L 354.026897 249.648479 
L 354.677508 274.886625 
L 355.328118 269.849891 
L 355.978728 261.193137 
L 356.629339 274.004485 
L 357.279949 271.688038 
L 357.930559 234.786531 
L 358.58117 272.229511 
L 359.23178 271.853077 
L 359.88239 272.356097 
L 360.533001 264.497853 
L 361.183611 213.038383 
L 361.834221 263.465073 
L 362.484831 268.846918 
L 363.135442 270.729368 
L 363.786052 242.718559 
L 364.436662 266.128529 
L 365.087273 241.397325 
L 365.087273 241.397325 
" clip-path="url(#pe50cd781e4)" style="fill: none; stroke: #808080; stroke-linecap: square"/>
   </g>
   <g id="line2d_29">
    <defs>
     <path id="mf6d651b8a3" d="M -3 3 
L 3 -3 
M -3 -3 
L 3 3 
" style="stroke: #ff0000"/>
    </defs>
    <g clip-path="url(#pe50cd781e4)">
     <use xlink:href="#mf6d651b8a3" x="46.93883" y="127.407415" style="fill: #ff0000; stroke: #ff0000"/>
    </g>
   </g>
   <g id="patch_3">
    <path d="M 24.2 287.905125 
L 24.2 21.793125 
" style="fill: none; stroke: #000000; stroke-width: 0.8; stroke-linejoin: miter; stroke-linecap: square"/>
   </g>
   <g id="patch_4">
    <path d="M 381.32 287.905125 
L 381.32 21.793125 
" style="fill: none; stroke: #000000; stroke-width: 0.8; stroke-linejoin: miter; stroke-linecap: square"/>
   </g>
   <g id="patch_5">
    <path d="M 24.2 287.905125 
L 381.32 287.905125 
" style="fill: none; stroke: #000000; stroke-width: 0.8; stroke-linejoin: miter; stroke-linecap: square"/>
   </g>
   <g id="patch_6">
    <path d="M 24.2 21.793125 
L 381.32 21.793125 
" style="fill: none; stroke: #000000; stroke-width: 0.8; stroke-linejoin: miter; stroke-linecap: square"/>
   </g>
   <g id="text_15">
    <!-- $A$ = 0.2, $f_o$ = 0.01 -->
    <g transform="translate(159.14 15.793125) scale(0.12 -0.12)">
     <defs>
      <path id="Cmmi10-41" d="M 288 0 
Q 225 0 225 84 
Q 250 225 306 225 
Q 566 225 755 328 
Q 944 431 1081 647 
Q 1094 659 1094 659 
L 3378 4513 
Q 3428 4581 3500 4581 
L 3584 4581 
Q 3603 4581 3622 4573 
Q 3641 4566 3655 4548 
Q 3669 4531 3669 4513 
L 4056 378 
Q 4056 350 4084 294 
Q 4147 225 4563 225 
Q 4628 225 4628 141 
Q 4606 56 4592 28 
Q 4578 0 4519 0 
L 2919 0 
Q 2859 0 2859 84 
Q 2894 225 2944 225 
Q 3450 225 3481 397 
L 3384 1453 
L 1806 1453 
L 1294 594 
Q 1247 525 1247 434 
Q 1247 322 1355 273 
Q 1463 225 1594 225 
Q 1656 225 1656 141 
Q 1634 50 1621 25 
Q 1609 0 1550 0 
L 288 0 
z
M 1931 1678 
L 3359 1678 
L 3169 3750 
L 1931 1678 
z
" transform="scale(0.015625)"/>
      <path id="TimesNewRomanPSMT-20" transform="scale(0.015625)"/>
      <path id="TimesNewRomanPSMT-3d" d="M 116 2759 
L 3488 2759 
L 3488 2503 
L 116 2503 
L 116 2759 
z
M 116 1741 
L 3488 1741 
L 3488 1484 
L 116 1484 
L 116 1741 
z
" transform="scale(0.015625)"/>
      <path id="TimesNewRomanPSMT-2c" d="M 344 -1066 
L 344 -928 
Q 666 -822 842 -598 
Q 1019 -375 1019 -125 
Q 1019 -66 991 -25 
Q 969 3 947 3 
Q 913 3 797 -59 
Q 741 -88 678 -88 
Q 525 -88 434 3 
Q 344 94 344 253 
Q 344 406 461 515 
Q 578 625 747 625 
Q 953 625 1114 445 
Q 1275 266 1275 -31 
Q 1275 -353 1051 -629 
Q 828 -906 344 -1066 
z
" transform="scale(0.015625)"/>
      <path id="Cmmi10-6f" d="M 1288 -72 
Q 984 -72 748 72 
Q 513 216 384 459 
Q 256 703 256 1013 
Q 256 1447 498 1872 
Q 741 2297 1142 2562 
Q 1544 2828 1984 2828 
Q 2222 2828 2408 2747 
Q 2594 2666 2731 2519 
Q 2869 2372 2942 2175 
Q 3016 1978 3016 1747 
Q 3016 1413 2875 1089 
Q 2734 766 2489 502 
Q 2244 238 1928 83 
Q 1613 -72 1288 -72 
z
M 1300 97 
Q 1584 97 1820 290 
Q 2056 484 2207 779 
Q 2359 1075 2440 1403 
Q 2522 1731 2522 1997 
Q 2522 2275 2383 2469 
Q 2244 2663 1972 2663 
Q 1597 2663 1315 2342 
Q 1034 2022 892 1576 
Q 750 1131 750 763 
Q 750 484 892 290 
Q 1034 97 1300 97 
z
" transform="scale(0.015625)"/>
     </defs>
     <use xlink:href="#Cmmi10-41" transform="translate(0 0.421875)"/>
     <use xlink:href="#TimesNewRomanPSMT-20" transform="translate(75 0.421875)"/>
     <use xlink:href="#TimesNewRomanPSMT-3d" transform="translate(100 0.421875)"/>
     <use xlink:href="#TimesNewRomanPSMT-20" transform="translate(156.396484 0.421875)"/>
     <use xlink:href="#TimesNewRomanPSMT-30" transform="translate(181.396484 0.421875)"/>
     <use xlink:href="#TimesNewRomanPSMT-2e" transform="translate(231.396484 0.421875)"/>
     <use xlink:href="#TimesNewRomanPSMT-32" transform="translate(256.396484 0.421875)"/>
     <use xlink:href="#TimesNewRomanPSMT-2c" transform="translate(306.396484 0.421875)"/>
     <use xlink:href="#TimesNewRomanPSMT-20" transform="translate(331.396484 0.421875)"/>
     <use xlink:href="#Cmmi10-66" transform="translate(356.396484 0.421875)"/>
     <use xlink:href="#Cmmi10-6f" transform="translate(405.273438 -16.584375) scale(0.7)"/>
     <use xlink:href="#TimesNewRomanPSMT-20" transform="translate(445.522852 0.421875)"/>
     <use xlink:href="#TimesNewRomanPSMT-3d" transform="translate(470.522852 0.421875)"/>
     <use xlink:href="#TimesNewRomanPSMT-20" transform="translate(526.919336 0.421875)"/>
     <use xlink:href="#TimesNewRomanPSMT-30" transform="translate(551.919336 0.421875)"/>
     <use xlink:href="#TimesNewRomanPSMT-2e" transform="translate(601.919336 0.421875)"/>
     <use xlink:href="#TimesNewRomanPSMT-30" transform="translate(626.919336 0.421875)"/>
     <use xlink:href="#TimesNewRomanPSMT-31" transform="translate(676.919336 0.421875)"/>
    </g>
   </g>
   <g id="legend_1">
    <g id="patch_7">
     <path d="M 224.72 76.893125 
L 374.32 76.893125 
Q 376.32 76.893125 376.32 74.893125 
L 376.32 28.793125 
Q 376.32 26.793125 374.32 26.793125 
L 224.72 26.793125 
Q 222.72 26.793125 222.72 28.793125 
L 222.72 74.893125 
Q 222.72 76.893125 224.72 76.893125 
z
" style="fill: #ffffff; opacity: 0.8; stroke: #cccccc; stroke-linejoin: miter"/>
    </g>
    <g id="line2d_30">
     <path d="M 226.72 35.093125 
L 236.72 35.093125 
L 246.72 35.093125 
" style="fill: none; stroke: #000000; stroke-width: 1.5; stroke-linecap: square"/>
    </g>
    <g id="text_16">
     <!-- $I$ of 1000 values from $\mathcal{N}$(0,1) -->
     <g transform="translate(254.72 38.593125) scale(0.1 -0.1)">
      <defs>
       <path id="Cmmi10-49" d="M 269 0 
Q 206 0 206 84 
Q 231 225 288 225 
Q 666 225 800 250 
Q 947 284 984 441 
L 1863 3956 
Q 1875 4019 1875 4038 
Q 1875 4078 1854 4095 
Q 1834 4113 1791 4122 
Q 1663 4147 1306 4147 
Q 1241 4147 1241 4231 
Q 1263 4313 1275 4342 
Q 1288 4372 1350 4372 
L 3138 4372 
Q 3200 4372 3200 4288 
Q 3197 4272 3187 4234 
Q 3178 4197 3162 4172 
Q 3147 4147 3116 4147 
Q 2741 4147 2597 4122 
Q 2456 4088 2419 3928 
L 1544 416 
Q 1528 338 1528 331 
Q 1528 316 1533 302 
Q 1538 288 1552 277 
Q 1566 266 1580 261 
Q 1594 256 1613 250 
Q 1734 225 2100 225 
Q 2163 225 2163 141 
Q 2141 50 2128 25 
Q 2116 0 2053 0 
L 269 0 
z
" transform="scale(0.015625)"/>
       <path id="TimesNewRomanPSMT-6f" d="M 1600 2947 
Q 2250 2947 2644 2453 
Q 2978 2031 2978 1484 
Q 2978 1100 2793 706 
Q 2609 313 2286 112 
Q 1963 -88 1566 -88 
Q 919 -88 538 428 
Q 216 863 216 1403 
Q 216 1797 411 2186 
Q 606 2575 925 2761 
Q 1244 2947 1600 2947 
z
M 1503 2744 
Q 1338 2744 1170 2645 
Q 1003 2547 900 2300 
Q 797 2053 797 1666 
Q 797 1041 1045 587 
Q 1294 134 1700 134 
Q 2003 134 2200 384 
Q 2397 634 2397 1244 
Q 2397 2006 2069 2444 
Q 1847 2744 1503 2744 
z
" transform="scale(0.015625)"/>
       <path id="TimesNewRomanPSMT-66" d="M 1319 2638 
L 1319 756 
Q 1319 356 1406 250 
Q 1522 113 1716 113 
L 1975 113 
L 1975 0 
L 266 0 
L 266 113 
L 394 113 
Q 519 113 622 175 
Q 725 238 764 344 
Q 803 450 803 756 
L 803 2638 
L 247 2638 
L 247 2863 
L 803 2863 
L 803 3050 
Q 803 3478 940 3775 
Q 1078 4072 1361 4255 
Q 1644 4438 1997 4438 
Q 2325 4438 2600 4225 
Q 2781 4084 2781 3909 
Q 2781 3816 2700 3733 
Q 2619 3650 2525 3650 
Q 2453 3650 2373 3701 
Q 2294 3753 2178 3923 
Q 2063 4094 1966 4153 
Q 1869 4213 1750 4213 
Q 1606 4213 1506 4136 
Q 1406 4059 1362 3898 
Q 1319 3738 1319 3069 
L 1319 2863 
L 2056 2863 
L 2056 2638 
L 1319 2638 
z
" transform="scale(0.015625)"/>
       <path id="TimesNewRomanPSMT-76" d="M 53 2863 
L 1400 2863 
L 1400 2747 
L 1313 2747 
Q 1191 2747 1127 2687 
Q 1063 2628 1063 2528 
Q 1063 2419 1128 2269 
L 1794 688 
L 2463 2328 
Q 2534 2503 2534 2594 
Q 2534 2638 2509 2666 
Q 2475 2713 2422 2730 
Q 2369 2747 2206 2747 
L 2206 2863 
L 3141 2863 
L 3141 2747 
Q 2978 2734 2916 2681 
Q 2806 2588 2719 2369 
L 1703 -88 
L 1575 -88 
L 553 2328 
Q 484 2497 421 2570 
Q 359 2644 263 2694 
Q 209 2722 53 2747 
L 53 2863 
z
" transform="scale(0.015625)"/>
       <path id="TimesNewRomanPSMT-61" d="M 1822 413 
Q 1381 72 1269 19 
Q 1100 -59 909 -59 
Q 613 -59 420 144 
Q 228 347 228 678 
Q 228 888 322 1041 
Q 450 1253 767 1440 
Q 1084 1628 1822 1897 
L 1822 2009 
Q 1822 2438 1686 2597 
Q 1550 2756 1291 2756 
Q 1094 2756 978 2650 
Q 859 2544 859 2406 
L 866 2225 
Q 866 2081 792 2003 
Q 719 1925 600 1925 
Q 484 1925 411 2006 
Q 338 2088 338 2228 
Q 338 2497 613 2722 
Q 888 2947 1384 2947 
Q 1766 2947 2009 2819 
Q 2194 2722 2281 2516 
Q 2338 2381 2338 1966 
L 2338 994 
Q 2338 584 2353 492 
Q 2369 400 2405 369 
Q 2441 338 2488 338 
Q 2538 338 2575 359 
Q 2641 400 2828 588 
L 2828 413 
Q 2478 -56 2159 -56 
Q 2006 -56 1915 50 
Q 1825 156 1822 413 
z
M 1822 616 
L 1822 1706 
Q 1350 1519 1213 1441 
Q 966 1303 859 1153 
Q 753 1003 753 825 
Q 753 600 887 451 
Q 1022 303 1197 303 
Q 1434 303 1822 616 
z
" transform="scale(0.015625)"/>
       <path id="TimesNewRomanPSMT-6c" d="M 1184 4444 
L 1184 647 
Q 1184 378 1223 290 
Q 1263 203 1344 158 
Q 1425 113 1647 113 
L 1647 0 
L 244 0 
L 244 113 
Q 441 113 512 153 
Q 584 194 625 287 
Q 666 381 666 647 
L 666 3247 
Q 666 3731 644 3842 
Q 622 3953 573 3993 
Q 525 4034 450 4034 
Q 369 4034 244 3984 
L 191 4094 
L 1044 4444 
L 1184 4444 
z
" transform="scale(0.015625)"/>
       <path id="TimesNewRomanPSMT-75" d="M 2709 2863 
L 2709 1128 
Q 2709 631 2732 520 
Q 2756 409 2807 365 
Q 2859 322 2928 322 
Q 3025 322 3147 375 
L 3191 266 
L 2334 -88 
L 2194 -88 
L 2194 519 
Q 1825 119 1631 15 
Q 1438 -88 1222 -88 
Q 981 -88 804 51 
Q 628 191 559 409 
Q 491 628 491 1028 
L 491 2306 
Q 491 2509 447 2587 
Q 403 2666 317 2708 
Q 231 2750 6 2747 
L 6 2863 
L 1009 2863 
L 1009 947 
Q 1009 547 1148 422 
Q 1288 297 1484 297 
Q 1619 297 1789 381 
Q 1959 466 2194 703 
L 2194 2325 
Q 2194 2569 2105 2655 
Q 2016 2741 1734 2747 
L 1734 2863 
L 2709 2863 
z
" transform="scale(0.015625)"/>
       <path id="TimesNewRomanPSMT-65" d="M 681 1784 
Q 678 1147 991 784 
Q 1303 422 1725 422 
Q 2006 422 2214 576 
Q 2422 731 2563 1106 
L 2659 1044 
Q 2594 616 2278 264 
Q 1963 -88 1488 -88 
Q 972 -88 605 314 
Q 238 716 238 1394 
Q 238 2128 614 2539 
Q 991 2950 1559 2950 
Q 2041 2950 2350 2633 
Q 2659 2316 2659 1784 
L 681 1784 
z
M 681 1966 
L 2006 1966 
Q 1991 2241 1941 2353 
Q 1863 2528 1708 2628 
Q 1553 2728 1384 2728 
Q 1125 2728 920 2526 
Q 716 2325 681 1966 
z
" transform="scale(0.015625)"/>
       <path id="TimesNewRomanPSMT-73" d="M 2050 2947 
L 2050 1972 
L 1947 1972 
Q 1828 2431 1642 2597 
Q 1456 2763 1169 2763 
Q 950 2763 815 2647 
Q 681 2531 681 2391 
Q 681 2216 781 2091 
Q 878 1963 1175 1819 
L 1631 1597 
Q 2266 1288 2266 781 
Q 2266 391 1970 151 
Q 1675 -88 1309 -88 
Q 1047 -88 709 6 
Q 606 38 541 38 
Q 469 38 428 -44 
L 325 -44 
L 325 978 
L 428 978 
Q 516 541 762 319 
Q 1009 97 1316 97 
Q 1531 97 1667 223 
Q 1803 350 1803 528 
Q 1803 744 1651 891 
Q 1500 1038 1047 1263 
Q 594 1488 453 1669 
Q 313 1847 313 2119 
Q 313 2472 555 2709 
Q 797 2947 1181 2947 
Q 1350 2947 1591 2875 
Q 1750 2828 1803 2828 
Q 1853 2828 1881 2850 
Q 1909 2872 1947 2947 
L 2050 2947 
z
" transform="scale(0.015625)"/>
       <path id="TimesNewRomanPSMT-72" d="M 1038 2947 
L 1038 2303 
Q 1397 2947 1775 2947 
Q 1947 2947 2059 2842 
Q 2172 2738 2172 2600 
Q 2172 2478 2090 2393 
Q 2009 2309 1897 2309 
Q 1788 2309 1652 2417 
Q 1516 2525 1450 2525 
Q 1394 2525 1328 2463 
Q 1188 2334 1038 2041 
L 1038 669 
Q 1038 431 1097 309 
Q 1138 225 1241 169 
Q 1344 113 1538 113 
L 1538 0 
L 72 0 
L 72 113 
Q 291 113 397 181 
Q 475 231 506 341 
Q 522 394 522 644 
L 522 1753 
Q 522 2253 501 2348 
Q 481 2444 426 2487 
Q 372 2531 291 2531 
Q 194 2531 72 2484 
L 41 2597 
L 906 2947 
L 1038 2947 
z
" transform="scale(0.015625)"/>
       <path id="TimesNewRomanPSMT-6d" d="M 1050 2338 
Q 1363 2650 1419 2697 
Q 1559 2816 1721 2881 
Q 1884 2947 2044 2947 
Q 2313 2947 2506 2790 
Q 2700 2634 2766 2338 
Q 3088 2713 3309 2830 
Q 3531 2947 3766 2947 
Q 3994 2947 4170 2830 
Q 4347 2713 4450 2447 
Q 4519 2266 4519 1878 
L 4519 647 
Q 4519 378 4559 278 
Q 4591 209 4675 161 
Q 4759 113 4950 113 
L 4950 0 
L 3538 0 
L 3538 113 
L 3597 113 
Q 3781 113 3884 184 
Q 3956 234 3988 344 
Q 4000 397 4000 647 
L 4000 1878 
Q 4000 2228 3916 2372 
Q 3794 2572 3525 2572 
Q 3359 2572 3192 2489 
Q 3025 2406 2788 2181 
L 2781 2147 
L 2788 2013 
L 2788 647 
Q 2788 353 2820 281 
Q 2853 209 2943 161 
Q 3034 113 3253 113 
L 3253 0 
L 1806 0 
L 1806 113 
Q 2044 113 2133 169 
Q 2222 225 2256 338 
Q 2272 391 2272 647 
L 2272 1878 
Q 2272 2228 2169 2381 
Q 2031 2581 1784 2581 
Q 1616 2581 1450 2491 
Q 1191 2353 1050 2181 
L 1050 647 
Q 1050 366 1089 281 
Q 1128 197 1204 155 
Q 1281 113 1516 113 
L 1516 0 
L 100 0 
L 100 113 
Q 297 113 375 155 
Q 453 197 493 289 
Q 534 381 534 647 
L 534 1741 
Q 534 2213 506 2350 
Q 484 2453 437 2492 
Q 391 2531 309 2531 
Q 222 2531 100 2484 
L 53 2597 
L 916 2947 
L 1050 2947 
L 1050 2338 
z
" transform="scale(0.015625)"/>
       <path id="Cmsy10-4e" d="M -184 13 
Q -184 131 -103 322 
Q -22 513 72 513 
Q 84 513 91 506 
Q 294 294 594 294 
Q 763 294 892 598 
Q 1022 903 1147 1306 
Q 1213 1509 1308 1837 
Q 1403 2166 1453 2369 
Q 1497 2538 1558 2827 
Q 1619 3116 1658 3331 
Q 1697 3547 1728 3772 
Q 1759 3997 1784 4244 
Q 1784 4278 1831 4325 
Q 1900 4397 1997 4453 
Q 2088 4494 2181 4513 
L 2234 4513 
Q 2272 4494 2278 4469 
Q 2438 3909 2675 3200 
Q 2891 2544 3044 2125 
Q 3197 1706 3405 1242 
Q 3613 778 3859 384 
Q 4194 1819 4525 2988 
L 4609 3284 
Q 4747 3769 4836 4039 
Q 4925 4309 5063 4525 
Q 5175 4700 5356 4800 
Q 5538 4900 5753 4942 
Q 5969 4984 6203 4984 
Q 6259 4984 6259 4878 
Q 6259 4803 6226 4686 
Q 6194 4569 6137 4478 
Q 6081 4388 6009 4372 
Q 5756 4372 5557 4331 
Q 5359 4291 5197 4184 
Q 5116 4125 5102 4094 
Q 5088 4063 5038 3909 
Q 4956 3684 4872 3366 
L 4788 3078 
Q 4625 2491 4498 2006 
Q 4372 1522 4256 1045 
Q 4141 569 4031 84 
Q 4034 84 4029 92 
Q 4025 100 4025 103 
Q 4025 47 3951 -15 
Q 3878 -78 3783 -120 
Q 3688 -163 3628 -172 
L 3584 -172 
Q 3478 -119 3222 368 
Q 2966 856 2834 1172 
Q 2359 2347 1966 3628 
Q 1916 3319 1759 2648 
Q 1603 1978 1387 1297 
Q 1172 616 914 148 
Q 656 -319 397 -319 
Q 231 -319 23 -225 
Q -184 -131 -184 13 
z
" transform="scale(0.015625)"/>
       <path id="TimesNewRomanPSMT-28" d="M 1988 -1253 
L 1988 -1369 
Q 1516 -1131 1200 -813 
Q 750 -359 506 256 
Q 263 872 263 1534 
Q 263 2503 741 3301 
Q 1219 4100 1988 4444 
L 1988 4313 
Q 1603 4100 1356 3731 
Q 1109 3363 987 2797 
Q 866 2231 866 1616 
Q 866 947 969 400 
Q 1050 -31 1165 -292 
Q 1281 -553 1476 -793 
Q 1672 -1034 1988 -1253 
z
" transform="scale(0.015625)"/>
       <path id="TimesNewRomanPSMT-29" d="M 144 4313 
L 144 4444 
Q 619 4209 934 3891 
Q 1381 3434 1625 2820 
Q 1869 2206 1869 1541 
Q 1869 572 1392 -226 
Q 916 -1025 144 -1369 
L 144 -1253 
Q 528 -1038 776 -670 
Q 1025 -303 1145 264 
Q 1266 831 1266 1447 
Q 1266 2113 1163 2663 
Q 1084 3094 967 3353 
Q 850 3613 656 3853 
Q 463 4094 144 4313 
z
" transform="scale(0.015625)"/>
      </defs>
      <use xlink:href="#Cmmi10-49" transform="translate(0 0.125)"/>
      <use xlink:href="#TimesNewRomanPSMT-20" transform="translate(43.896484 0.125)"/>
      <use xlink:href="#TimesNewRomanPSMT-6f" transform="translate(68.896484 0.125)"/>
      <use xlink:href="#TimesNewRomanPSMT-66" transform="translate(118.896484 0.125)"/>
      <use xlink:href="#TimesNewRomanPSMT-20" transform="translate(152.197266 0.125)"/>
      <use xlink:href="#TimesNewRomanPSMT-31" transform="translate(177.197266 0.125)"/>
      <use xlink:href="#TimesNewRomanPSMT-30" transform="translate(227.197266 0.125)"/>
      <use xlink:href="#TimesNewRomanPSMT-30" transform="translate(277.197266 0.125)"/>
      <use xlink:href="#TimesNewRomanPSMT-30" transform="translate(327.197266 0.125)"/>
      <use xlink:href="#TimesNewRomanPSMT-20" transform="translate(377.197266 0.125)"/>
      <use xlink:href="#TimesNewRomanPSMT-76" transform="translate(402.197266 0.125)"/>
      <use xlink:href="#TimesNewRomanPSMT-61" transform="translate(452.197266 0.125)"/>
      <use xlink:href="#TimesNewRomanPSMT-6c" transform="translate(496.582031 0.125)"/>
      <use xlink:href="#TimesNewRomanPSMT-75" transform="translate(524.365234 0.125)"/>
      <use xlink:href="#TimesNewRomanPSMT-65" transform="translate(574.365234 0.125)"/>
      <use xlink:href="#TimesNewRomanPSMT-73" transform="translate(618.75 0.125)"/>
      <use xlink:href="#TimesNewRomanPSMT-20" transform="translate(657.666016 0.125)"/>
      <use xlink:href="#TimesNewRomanPSMT-66" transform="translate(682.666016 0.125)"/>
      <use xlink:href="#TimesNewRomanPSMT-72" transform="translate(715.966797 0.125)"/>
      <use xlink:href="#TimesNewRomanPSMT-6f" transform="translate(749.267578 0.125)"/>
      <use xlink:href="#TimesNewRomanPSMT-6d" transform="translate(799.267578 0.125)"/>
      <use xlink:href="#TimesNewRomanPSMT-20" transform="translate(877.050781 0.125)"/>
      <use xlink:href="#Cmsy10-4e" transform="translate(902.050781 0.125)"/>
      <use xlink:href="#TimesNewRomanPSMT-28" transform="translate(984.033203 0.125)"/>
      <use xlink:href="#TimesNewRomanPSMT-30" transform="translate(1017.333984 0.125)"/>
      <use xlink:href="#TimesNewRomanPSMT-2c" transform="translate(1067.333984 0.125)"/>
      <use xlink:href="#TimesNewRomanPSMT-31" transform="translate(1092.333984 0.125)"/>
      <use xlink:href="#TimesNewRomanPSMT-29" transform="translate(1142.333984 0.125)"/>
     </g>
    </g>
    <g id="line2d_31">
     <path d="M 226.72 50.793125 
L 236.72 50.793125 
L 246.72 50.793125 
" style="fill: none; stroke: #808080; stroke-linecap: square"/>
    </g>
    <g id="text_17">
     <!-- 1000 values from $\chi_2^2$ -->
     <g transform="translate(254.72 54.293125) scale(0.1 -0.1)">
      <defs>
       <path id="Cmmi10-c2" d="M 275 -1241 
Q 244 -1241 214 -1214 
Q 184 -1188 184 -1159 
Q 184 -1116 213 -1094 
L 1778 647 
Q 1672 1034 1539 1454 
Q 1406 1875 1220 2269 
Q 1034 2663 891 2663 
Q 766 2663 694 2594 
Q 622 2525 567 2423 
Q 513 2322 494 2316 
L 416 2316 
Q 397 2316 381 2337 
Q 366 2359 366 2381 
Q 366 2484 455 2589 
Q 544 2694 673 2761 
Q 803 2828 916 2828 
Q 1169 2828 1375 2737 
Q 1581 2647 1684 2444 
Q 1775 2250 1859 2026 
Q 1944 1803 2020 1550 
Q 2097 1297 2163 1069 
L 3647 2719 
Q 3678 2759 3725 2759 
Q 3763 2759 3789 2736 
Q 3816 2713 3816 2675 
Q 3816 2634 3788 2613 
L 2222 872 
Q 2297 588 2447 114 
Q 2597 -359 2780 -753 
Q 2963 -1147 3109 -1147 
Q 3228 -1147 3303 -1076 
Q 3378 -1006 3434 -906 
Q 3491 -806 3506 -800 
L 3584 -800 
Q 3634 -800 3634 -863 
Q 3634 -1022 3445 -1167 
Q 3256 -1313 3084 -1313 
Q 2834 -1313 2628 -1222 
Q 2422 -1131 2322 -928 
Q 2084 -422 1838 447 
L 353 -1203 
Q 322 -1241 275 -1241 
z
" transform="scale(0.015625)"/>
       <path id="Cmr10-32" d="M 319 0 
L 319 172 
Q 319 188 331 206 
L 1325 1306 
Q 1550 1550 1690 1715 
Q 1831 1881 1968 2097 
Q 2106 2313 2186 2536 
Q 2266 2759 2266 3009 
Q 2266 3272 2169 3511 
Q 2072 3750 1880 3894 
Q 1688 4038 1416 4038 
Q 1138 4038 916 3870 
Q 694 3703 603 3438 
Q 628 3444 672 3444 
Q 816 3444 917 3347 
Q 1019 3250 1019 3097 
Q 1019 2950 917 2848 
Q 816 2747 672 2747 
Q 522 2747 420 2851 
Q 319 2956 319 3097 
Q 319 3338 409 3548 
Q 500 3759 670 3923 
Q 841 4088 1055 4175 
Q 1269 4263 1509 4263 
Q 1875 4263 2190 4108 
Q 2506 3953 2690 3670 
Q 2875 3388 2875 3009 
Q 2875 2731 2753 2481 
Q 2631 2231 2440 2026 
Q 2250 1822 1953 1562 
Q 1656 1303 1563 1216 
L 838 519 
L 1453 519 
Q 1906 519 2211 526 
Q 2516 534 2534 550 
Q 2609 631 2688 1141 
L 2875 1141 
L 2694 0 
L 319 0 
z
" transform="scale(0.015625)"/>
      </defs>
      <use xlink:href="#TimesNewRomanPSMT-31" transform="translate(0 0.109375)"/>
      <use xlink:href="#TimesNewRomanPSMT-30" transform="translate(50 0.109375)"/>
      <use xlink:href="#TimesNewRomanPSMT-30" transform="translate(100 0.109375)"/>
      <use xlink:href="#TimesNewRomanPSMT-30" transform="translate(150 0.109375)"/>
      <use xlink:href="#TimesNewRomanPSMT-20" transform="translate(200 0.109375)"/>
      <use xlink:href="#TimesNewRomanPSMT-76" transform="translate(225 0.109375)"/>
      <use xlink:href="#TimesNewRomanPSMT-61" transform="translate(275 0.109375)"/>
      <use xlink:href="#TimesNewRomanPSMT-6c" transform="translate(319.384766 0.109375)"/>
      <use xlink:href="#TimesNewRomanPSMT-75" transform="translate(347.167969 0.109375)"/>
      <use xlink:href="#TimesNewRomanPSMT-65" transform="translate(397.167969 0.109375)"/>
      <use xlink:href="#TimesNewRomanPSMT-73" transform="translate(441.552734 0.109375)"/>
      <use xlink:href="#TimesNewRomanPSMT-20" transform="translate(480.46875 0.109375)"/>
      <use xlink:href="#TimesNewRomanPSMT-66" transform="translate(505.46875 0.109375)"/>
      <use xlink:href="#TimesNewRomanPSMT-72" transform="translate(538.769531 0.109375)"/>
      <use xlink:href="#TimesNewRomanPSMT-6f" transform="translate(572.070312 0.109375)"/>
      <use xlink:href="#TimesNewRomanPSMT-6d" transform="translate(622.070312 0.109375)"/>
      <use xlink:href="#TimesNewRomanPSMT-20" transform="translate(699.853516 0.109375)"/>
      <use xlink:href="#Cmmi10-c2" transform="translate(724.853516 0.109375)"/>
      <use xlink:href="#Cmr10-32" transform="translate(793.656797 38.373438) scale(0.7)"/>
      <use xlink:href="#Cmr10-32" transform="translate(787.353516 -25.4) scale(0.7)"/>
     </g>
    </g>
    <g id="line2d_32">
     <g>
      <use xlink:href="#mf6d651b8a3" x="236.72" y="66.893125" style="fill: #ff0000; stroke: #ff0000"/>
     </g>
    </g>
    <g id="text_18">
     <!-- $(N/2)A^2$ -->
     <g transform="translate(254.72 70.393125) scale(0.1 -0.1)">
      <defs>
       <path id="Cmr10-28" d="M 1984 -1588 
Q 1628 -1306 1370 -942 
Q 1113 -578 948 -165 
Q 784 247 703 697 
Q 622 1147 622 1600 
Q 622 2059 703 2509 
Q 784 2959 951 3375 
Q 1119 3791 1378 4153 
Q 1638 4516 1984 4788 
Q 1984 4800 2016 4800 
L 2075 4800 
Q 2094 4800 2109 4783 
Q 2125 4766 2125 4744 
Q 2125 4716 2113 4703 
Q 1800 4397 1592 4047 
Q 1384 3697 1257 3301 
Q 1131 2906 1075 2482 
Q 1019 2059 1019 1600 
Q 1019 -434 2106 -1491 
Q 2125 -1509 2125 -1544 
Q 2125 -1559 2108 -1579 
Q 2091 -1600 2075 -1600 
L 2016 -1600 
Q 1984 -1600 1984 -1588 
z
" transform="scale(0.015625)"/>
       <path id="Cmmi10-4e" d="M 300 0 
Q 238 0 238 84 
Q 241 100 250 139 
Q 259 178 276 201 
Q 294 225 319 225 
Q 931 225 1031 616 
L 1900 4116 
Q 1722 4147 1338 4147 
Q 1275 4147 1275 4231 
Q 1278 4247 1287 4286 
Q 1297 4325 1314 4348 
Q 1331 4372 1356 4372 
L 2463 4372 
Q 2509 4372 2522 4331 
L 3944 947 
L 4653 3781 
Q 4666 3850 4666 3878 
Q 4666 4147 4172 4147 
Q 4109 4147 4109 4231 
Q 4131 4313 4143 4342 
Q 4156 4372 4219 4372 
L 5588 4372 
Q 5650 4372 5650 4288 
Q 5647 4272 5637 4233 
Q 5628 4194 5611 4170 
Q 5594 4147 5569 4147 
Q 4956 4147 4856 3756 
L 3938 56 
Q 3916 0 3872 0 
L 3794 0 
Q 3750 0 3738 44 
L 2106 3916 
L 2094 3956 
Q 2081 3969 2081 3975 
L 1234 588 
Q 1228 572 1225 548 
Q 1222 525 1216 494 
Q 1216 328 1359 276 
Q 1503 225 1716 225 
Q 1778 225 1778 141 
Q 1756 53 1740 26 
Q 1725 0 1672 0 
L 300 0 
z
" transform="scale(0.015625)"/>
       <path id="Cmmi10-3d" d="M 359 -1472 
Q 359 -1453 366 -1447 
L 2591 4722 
Q 2603 4759 2634 4779 
Q 2666 4800 2706 4800 
Q 2763 4800 2798 4765 
Q 2834 4731 2834 4672 
L 2834 4647 
L 609 -1522 
Q 572 -1600 488 -1600 
Q 434 -1600 396 -1562 
Q 359 -1525 359 -1472 
z
" transform="scale(0.015625)"/>
       <path id="Cmr10-29" d="M 416 -1600 
Q 359 -1600 359 -1544 
Q 359 -1516 372 -1503 
Q 1466 -434 1466 1600 
Q 1466 3634 384 4691 
Q 359 4706 359 4744 
Q 359 4766 376 4783 
Q 394 4800 416 4800 
L 475 4800 
Q 494 4800 506 4788 
Q 966 4425 1272 3906 
Q 1578 3388 1720 2800 
Q 1863 2213 1863 1600 
Q 1863 1147 1786 708 
Q 1709 269 1542 -157 
Q 1375 -584 1119 -945 
Q 863 -1306 506 -1588 
Q 494 -1600 475 -1600 
L 416 -1600 
z
" transform="scale(0.015625)"/>
      </defs>
      <use xlink:href="#Cmr10-28" transform="translate(0 0.109375)"/>
      <use xlink:href="#Cmmi10-4e" transform="translate(38.818359 0.109375)"/>
      <use xlink:href="#Cmmi10-3d" transform="translate(119.140625 0.109375)"/>
      <use xlink:href="#Cmr10-32" transform="translate(169.140625 0.109375)"/>
      <use xlink:href="#Cmr10-29" transform="translate(219.140625 0.109375)"/>
      <use xlink:href="#Cmmi10-41" transform="translate(257.958984 0.109375)"/>
      <use xlink:href="#Cmr10-32" transform="translate(345.014297 38.373438) scale(0.7)"/>
     </g>
    </g>
   </g>
  </g>
 </g>
 <defs>
  <clipPath id="pe50cd781e4">
   <rect x="24.2" y="21.793125" width="357.12" height="266.112"/>
  </clipPath>
 </defs>
</svg>
