<?xml version="1.0" encoding="utf-8" standalone="no"?>
<!DOCTYPE svg PUBLIC "-//W3C//DTD SVG 1.1//EN"
  "http://www.w3.org/Graphics/SVG/1.1/DTD/svg11.dtd">
<svg xmlns:xlink="http://www.w3.org/1999/xlink" width="460.8pt" height="345.6pt" viewBox="0 0 460.8 345.6" xmlns="http://www.w3.org/2000/svg" version="1.1">
 <metadata>
  <rdf:RDF xmlns:dc="http://purl.org/dc/elements/1.1/" xmlns:cc="http://creativecommons.org/ns#" xmlns:rdf="http://www.w3.org/1999/02/22-rdf-syntax-ns#">
   <cc:Work>
    <dc:type rdf:resource="http://purl.org/dc/dcmitype/StillImage"/>
    <dc:date>2025-04-08T12:03:29.746381</dc:date>
    <dc:format>image/svg+xml</dc:format>
    <dc:creator>
     <cc:Agent>
      <dc:title>Matplotlib v3.8.4, https://matplotlib.org/</dc:title>
     </cc:Agent>
    </dc:creator>
   </cc:Work>
  </rdf:RDF>
 </metadata>
 <defs>
  <style type="text/css">*{stroke-linejoin: round; stroke-linecap: butt}</style>
 </defs>
 <g id="figure_1">
  <g id="patch_1">
   <path d="M 0 345.6 
L 460.8 345.6 
L 460.8 0 
L 0 0 
L 0 345.6 
z
" style="fill: none"/>
  </g>
  <g id="axes_1">
   <g id="patch_2">
    <path d="M 57.6 307.584 
L 414.72 307.584 
L 414.72 41.472 
L 57.6 41.472 
L 57.6 307.584 
z
" style="fill: none"/>
   </g>
   <g id="patch_3">
    <path d="M 73.832727 307.584 
L 85.427532 307.584 
L 85.427532 307.584 
L 73.832727 307.584 
z
" clip-path="url(#pbc61f00b3c)" style="fill: #1f77b4; opacity: 0.5"/>
   </g>
   <g id="patch_4">
    <path d="M 85.427532 307.584 
L 97.022338 307.584 
L 97.022338 304.803384 
L 85.427532 304.803384 
z
" clip-path="url(#pbc61f00b3c)" style="fill: #1f77b4; opacity: 0.5"/>
   </g>
   <g id="patch_5">
    <path d="M 97.022338 307.584 
L 108.617143 307.584 
L 108.617143 307.584 
L 97.022338 307.584 
z
" clip-path="url(#pbc61f00b3c)" style="fill: #1f77b4; opacity: 0.5"/>
   </g>
   <g id="patch_6">
    <path d="M 108.617143 307.584 
L 120.211948 307.584 
L 120.211948 304.803384 
L 108.617143 304.803384 
z
" clip-path="url(#pbc61f00b3c)" style="fill: #1f77b4; opacity: 0.5"/>
   </g>
   <g id="patch_7">
    <path d="M 120.211948 307.584 
L 131.806753 307.584 
L 131.806753 302.022769 
L 120.211948 302.022769 
z
" clip-path="url(#pbc61f00b3c)" style="fill: #1f77b4; opacity: 0.5"/>
   </g>
   <g id="patch_8">
    <path d="M 131.806753 307.584 
L 143.401558 307.584 
L 143.401558 293.680922 
L 131.806753 293.680922 
z
" clip-path="url(#pbc61f00b3c)" style="fill: #1f77b4; opacity: 0.5"/>
   </g>
   <g id="patch_9">
    <path d="M 143.401558 307.584 
L 154.996364 307.584 
L 154.996364 268.655381 
L 143.401558 268.655381 
z
" clip-path="url(#pbc61f00b3c)" style="fill: #1f77b4; opacity: 0.5"/>
   </g>
   <g id="patch_10">
    <path d="M 154.996364 307.584 
L 166.591169 307.584 
L 166.591169 285.339075 
L 154.996364 285.339075 
z
" clip-path="url(#pbc61f00b3c)" style="fill: #1f77b4; opacity: 0.5"/>
   </g>
   <g id="patch_11">
    <path d="M 166.591169 307.584 
L 178.185974 307.584 
L 178.185974 238.068609 
L 166.591169 238.068609 
z
" clip-path="url(#pbc61f00b3c)" style="fill: #1f77b4; opacity: 0.5"/>
   </g>
   <g id="patch_12">
    <path d="M 178.185974 307.584 
L 189.780779 307.584 
L 189.780779 193.578759 
L 178.185974 193.578759 
z
" clip-path="url(#pbc61f00b3c)" style="fill: #1f77b4; opacity: 0.5"/>
   </g>
   <g id="patch_13">
    <path d="M 189.780779 307.584 
L 201.375584 307.584 
L 201.375584 96.257211 
L 189.780779 96.257211 
z
" clip-path="url(#pbc61f00b3c)" style="fill: #1f77b4; opacity: 0.5"/>
   </g>
   <g id="patch_14">
    <path d="M 201.375584 307.584 
L 212.97039 307.584 
L 212.97039 99.037827 
L 201.375584 99.037827 
z
" clip-path="url(#pbc61f00b3c)" style="fill: #1f77b4; opacity: 0.5"/>
   </g>
   <g id="patch_15">
    <path d="M 212.97039 307.584 
L 224.565195 307.584 
L 224.565195 68.451054 
L 212.97039 68.451054 
z
" clip-path="url(#pbc61f00b3c)" style="fill: #1f77b4; opacity: 0.5"/>
   </g>
   <g id="patch_16">
    <path d="M 224.565195 307.584 
L 236.16 307.584 
L 236.16 126.843983 
L 224.565195 126.843983 
z
" clip-path="url(#pbc61f00b3c)" style="fill: #1f77b4; opacity: 0.5"/>
   </g>
   <g id="patch_17">
    <path d="M 236.16 307.584 
L 247.754805 307.584 
L 247.754805 204.701221 
L 236.16 204.701221 
z
" clip-path="url(#pbc61f00b3c)" style="fill: #1f77b4; opacity: 0.5"/>
   </g>
   <g id="patch_18">
    <path d="M 247.754805 307.584 
L 259.34961 307.584 
L 259.34961 251.971687 
L 247.754805 251.971687 
z
" clip-path="url(#pbc61f00b3c)" style="fill: #1f77b4; opacity: 0.5"/>
   </g>
   <g id="patch_19">
    <path d="M 259.34961 307.584 
L 270.944416 307.584 
L 270.944416 279.777844 
L 259.34961 279.777844 
z
" clip-path="url(#pbc61f00b3c)" style="fill: #1f77b4; opacity: 0.5"/>
   </g>
   <g id="patch_20">
    <path d="M 270.944416 307.584 
L 282.539221 307.584 
L 282.539221 299.242153 
L 270.944416 299.242153 
z
" clip-path="url(#pbc61f00b3c)" style="fill: #1f77b4; opacity: 0.5"/>
   </g>
   <g id="patch_21">
    <path d="M 282.539221 307.584 
L 294.134026 307.584 
L 294.134026 307.584 
L 282.539221 307.584 
z
" clip-path="url(#pbc61f00b3c)" style="fill: #1f77b4; opacity: 0.5"/>
   </g>
   <g id="patch_22">
    <path d="M 294.134026 307.584 
L 305.728831 307.584 
L 305.728831 307.584 
L 294.134026 307.584 
z
" clip-path="url(#pbc61f00b3c)" style="fill: #1f77b4; opacity: 0.5"/>
   </g>
   <g id="patch_23">
    <path d="M 305.728831 307.584 
L 317.323636 307.584 
L 317.323636 307.584 
L 305.728831 307.584 
z
" clip-path="url(#pbc61f00b3c)" style="fill: #1f77b4; opacity: 0.5"/>
   </g>
   <g id="patch_24">
    <path d="M 317.323636 307.584 
L 328.918442 307.584 
L 328.918442 307.584 
L 317.323636 307.584 
z
" clip-path="url(#pbc61f00b3c)" style="fill: #1f77b4; opacity: 0.5"/>
   </g>
   <g id="patch_25">
    <path d="M 328.918442 307.584 
L 340.513247 307.584 
L 340.513247 307.584 
L 328.918442 307.584 
z
" clip-path="url(#pbc61f00b3c)" style="fill: #1f77b4; opacity: 0.5"/>
   </g>
   <g id="patch_26">
    <path d="M 340.513247 307.584 
L 352.108052 307.584 
L 352.108052 307.584 
L 340.513247 307.584 
z
" clip-path="url(#pbc61f00b3c)" style="fill: #1f77b4; opacity: 0.5"/>
   </g>
   <g id="patch_27">
    <path d="M 352.108052 307.584 
L 363.702857 307.584 
L 363.702857 307.584 
L 352.108052 307.584 
z
" clip-path="url(#pbc61f00b3c)" style="fill: #1f77b4; opacity: 0.5"/>
   </g>
   <g id="patch_28">
    <path d="M 363.702857 307.584 
L 375.297662 307.584 
L 375.297662 307.584 
L 363.702857 307.584 
z
" clip-path="url(#pbc61f00b3c)" style="fill: #1f77b4; opacity: 0.5"/>
   </g>
   <g id="patch_29">
    <path d="M 375.297662 307.584 
L 386.892468 307.584 
L 386.892468 307.584 
L 375.297662 307.584 
z
" clip-path="url(#pbc61f00b3c)" style="fill: #1f77b4; opacity: 0.5"/>
   </g>
   <g id="patch_30">
    <path d="M 386.892468 307.584 
L 398.487273 307.584 
L 398.487273 307.584 
L 386.892468 307.584 
z
" clip-path="url(#pbc61f00b3c)" style="fill: #1f77b4; opacity: 0.5"/>
   </g>
   <g id="patch_31">
    <path d="M 73.832727 307.584 
L 85.427532 307.584 
L 85.427532 307.584 
L 73.832727 307.584 
z
" clip-path="url(#pbc61f00b3c)" style="fill: #ff7f0e; opacity: 0.5"/>
   </g>
   <g id="patch_32">
    <path d="M 85.427532 307.584 
L 97.022338 307.584 
L 97.022338 307.584 
L 85.427532 307.584 
z
" clip-path="url(#pbc61f00b3c)" style="fill: #ff7f0e; opacity: 0.5"/>
   </g>
   <g id="patch_33">
    <path d="M 97.022338 307.584 
L 108.617143 307.584 
L 108.617143 307.584 
L 97.022338 307.584 
z
" clip-path="url(#pbc61f00b3c)" style="fill: #ff7f0e; opacity: 0.5"/>
   </g>
   <g id="patch_34">
    <path d="M 108.617143 307.584 
L 120.211948 307.584 
L 120.211948 307.584 
L 108.617143 307.584 
z
" clip-path="url(#pbc61f00b3c)" style="fill: #ff7f0e; opacity: 0.5"/>
   </g>
   <g id="patch_35">
    <path d="M 120.211948 307.584 
L 131.806753 307.584 
L 131.806753 307.584 
L 120.211948 307.584 
z
" clip-path="url(#pbc61f00b3c)" style="fill: #ff7f0e; opacity: 0.5"/>
   </g>
   <g id="patch_36">
    <path d="M 131.806753 307.584 
L 143.401558 307.584 
L 143.401558 307.584 
L 131.806753 307.584 
z
" clip-path="url(#pbc61f00b3c)" style="fill: #ff7f0e; opacity: 0.5"/>
   </g>
   <g id="patch_37">
    <path d="M 143.401558 307.584 
L 154.996364 307.584 
L 154.996364 307.584 
L 143.401558 307.584 
z
" clip-path="url(#pbc61f00b3c)" style="fill: #ff7f0e; opacity: 0.5"/>
   </g>
   <g id="patch_38">
    <path d="M 154.996364 307.584 
L 166.591169 307.584 
L 166.591169 305.123417 
L 154.996364 305.123417 
z
" clip-path="url(#pbc61f00b3c)" style="fill: #ff7f0e; opacity: 0.5"/>
   </g>
   <g id="patch_39">
    <path d="M 166.591169 307.584 
L 178.185974 307.584 
L 178.185974 307.584 
L 166.591169 307.584 
z
" clip-path="url(#pbc61f00b3c)" style="fill: #ff7f0e; opacity: 0.5"/>
   </g>
   <g id="patch_40">
    <path d="M 178.185974 307.584 
L 189.780779 307.584 
L 189.780779 307.584 
L 178.185974 307.584 
z
" clip-path="url(#pbc61f00b3c)" style="fill: #ff7f0e; opacity: 0.5"/>
   </g>
   <g id="patch_41">
    <path d="M 189.780779 307.584 
L 201.375584 307.584 
L 201.375584 292.820505 
L 189.780779 292.820505 
z
" clip-path="url(#pbc61f00b3c)" style="fill: #ff7f0e; opacity: 0.5"/>
   </g>
   <g id="patch_42">
    <path d="M 201.375584 307.584 
L 212.97039 307.584 
L 212.97039 295.281087 
L 201.375584 295.281087 
z
" clip-path="url(#pbc61f00b3c)" style="fill: #ff7f0e; opacity: 0.5"/>
   </g>
   <g id="patch_43">
    <path d="M 212.97039 307.584 
L 224.565195 307.584 
L 224.565195 223.924194 
L 212.97039 223.924194 
z
" clip-path="url(#pbc61f00b3c)" style="fill: #ff7f0e; opacity: 0.5"/>
   </g>
   <g id="patch_44">
    <path d="M 224.565195 307.584 
L 236.16 307.584 
L 236.16 196.857786 
L 224.565195 196.857786 
z
" clip-path="url(#pbc61f00b3c)" style="fill: #ff7f0e; opacity: 0.5"/>
   </g>
   <g id="patch_45">
    <path d="M 236.16 307.584 
L 247.754805 307.584 
L 247.754805 123.040311 
L 236.16 123.040311 
z
" clip-path="url(#pbc61f00b3c)" style="fill: #ff7f0e; opacity: 0.5"/>
   </g>
   <g id="patch_46">
    <path d="M 247.754805 307.584 
L 259.34961 307.584 
L 259.34961 113.197981 
L 247.754805 113.197981 
z
" clip-path="url(#pbc61f00b3c)" style="fill: #ff7f0e; opacity: 0.5"/>
   </g>
   <g id="patch_47">
    <path d="M 259.34961 307.584 
L 270.944416 307.584 
L 270.944416 54.144 
L 259.34961 54.144 
z
" clip-path="url(#pbc61f00b3c)" style="fill: #ff7f0e; opacity: 0.5"/>
   </g>
   <g id="patch_48">
    <path d="M 270.944416 307.584 
L 282.539221 307.584 
L 282.539221 164.870214 
L 270.944416 164.870214 
z
" clip-path="url(#pbc61f00b3c)" style="fill: #ff7f0e; opacity: 0.5"/>
   </g>
   <g id="patch_49">
    <path d="M 282.539221 307.584 
L 294.134026 307.584 
L 294.134026 194.397204 
L 282.539221 194.397204 
z
" clip-path="url(#pbc61f00b3c)" style="fill: #ff7f0e; opacity: 0.5"/>
   </g>
   <g id="patch_50">
    <path d="M 294.134026 307.584 
L 305.728831 307.584 
L 305.728831 214.081864 
L 294.134026 214.081864 
z
" clip-path="url(#pbc61f00b3c)" style="fill: #ff7f0e; opacity: 0.5"/>
   </g>
   <g id="patch_51">
    <path d="M 305.728831 307.584 
L 317.323636 307.584 
L 317.323636 260.832932 
L 305.728831 260.832932 
z
" clip-path="url(#pbc61f00b3c)" style="fill: #ff7f0e; opacity: 0.5"/>
   </g>
   <g id="patch_52">
    <path d="M 317.323636 307.584 
L 328.918442 307.584 
L 328.918442 287.89934 
L 317.323636 287.89934 
z
" clip-path="url(#pbc61f00b3c)" style="fill: #ff7f0e; opacity: 0.5"/>
   </g>
   <g id="patch_53">
    <path d="M 328.918442 307.584 
L 340.513247 307.584 
L 340.513247 282.978175 
L 328.918442 282.978175 
z
" clip-path="url(#pbc61f00b3c)" style="fill: #ff7f0e; opacity: 0.5"/>
   </g>
   <g id="patch_54">
    <path d="M 340.513247 307.584 
L 352.108052 307.584 
L 352.108052 305.123417 
L 340.513247 305.123417 
z
" clip-path="url(#pbc61f00b3c)" style="fill: #ff7f0e; opacity: 0.5"/>
   </g>
   <g id="patch_55">
    <path d="M 352.108052 307.584 
L 363.702857 307.584 
L 363.702857 302.662835 
L 352.108052 302.662835 
z
" clip-path="url(#pbc61f00b3c)" style="fill: #ff7f0e; opacity: 0.5"/>
   </g>
   <g id="patch_56">
    <path d="M 363.702857 307.584 
L 375.297662 307.584 
L 375.297662 307.584 
L 363.702857 307.584 
z
" clip-path="url(#pbc61f00b3c)" style="fill: #ff7f0e; opacity: 0.5"/>
   </g>
   <g id="patch_57">
    <path d="M 375.297662 307.584 
L 386.892468 307.584 
L 386.892468 307.584 
L 375.297662 307.584 
z
" clip-path="url(#pbc61f00b3c)" style="fill: #ff7f0e; opacity: 0.5"/>
   </g>
   <g id="patch_58">
    <path d="M 386.892468 307.584 
L 398.487273 307.584 
L 398.487273 307.584 
L 386.892468 307.584 
z
" clip-path="url(#pbc61f00b3c)" style="fill: #ff7f0e; opacity: 0.5"/>
   </g>
   <g id="matplotlib.axis_1">
    <g id="xtick_1">
     <g id="line2d_1">
      <path d="M 97.022338 307.584 
L 97.022338 41.472 
" clip-path="url(#pbc61f00b3c)" style="fill: none; stroke: #b0b0b0; stroke-width: 0.8; stroke-linecap: square"/>
     </g>
     <g id="line2d_2">
      <defs>
       <path id="md9f8a99409" d="M 0 0 
L 0 3.5 
" style="stroke: #000000; stroke-width: 0.8"/>
      </defs>
      <g>
       <use xlink:href="#md9f8a99409" x="97.022338" y="307.584" style="stroke: #000000; stroke-width: 0.8"/>
      </g>
     </g>
     <g id="text_1">
      <!-- −0.6 -->
      <g transform="translate(84.880931 322.182437) scale(0.1 -0.1)">
       <defs>
        <path id="DejaVuSans-2212" d="M 678 2272 
L 4684 2272 
L 4684 1741 
L 678 1741 
L 678 2272 
z
" transform="scale(0.015625)"/>
        <path id="DejaVuSans-30" d="M 2034 4250 
Q 1547 4250 1301 3770 
Q 1056 3291 1056 2328 
Q 1056 1369 1301 889 
Q 1547 409 2034 409 
Q 2525 409 2770 889 
Q 3016 1369 3016 2328 
Q 3016 3291 2770 3770 
Q 2525 4250 2034 4250 
z
M 2034 4750 
Q 2819 4750 3233 4129 
Q 3647 3509 3647 2328 
Q 3647 1150 3233 529 
Q 2819 -91 2034 -91 
Q 1250 -91 836 529 
Q 422 1150 422 2328 
Q 422 3509 836 4129 
Q 1250 4750 2034 4750 
z
" transform="scale(0.015625)"/>
        <path id="DejaVuSans-2e" d="M 684 794 
L 1344 794 
L 1344 0 
L 684 0 
L 684 794 
z
" transform="scale(0.015625)"/>
        <path id="DejaVuSans-36" d="M 2113 2584 
Q 1688 2584 1439 2293 
Q 1191 2003 1191 1497 
Q 1191 994 1439 701 
Q 1688 409 2113 409 
Q 2538 409 2786 701 
Q 3034 994 3034 1497 
Q 3034 2003 2786 2293 
Q 2538 2584 2113 2584 
z
M 3366 4563 
L 3366 3988 
Q 3128 4100 2886 4159 
Q 2644 4219 2406 4219 
Q 1781 4219 1451 3797 
Q 1122 3375 1075 2522 
Q 1259 2794 1537 2939 
Q 1816 3084 2150 3084 
Q 2853 3084 3261 2657 
Q 3669 2231 3669 1497 
Q 3669 778 3244 343 
Q 2819 -91 2113 -91 
Q 1303 -91 875 529 
Q 447 1150 447 2328 
Q 447 3434 972 4092 
Q 1497 4750 2381 4750 
Q 2619 4750 2861 4703 
Q 3103 4656 3366 4563 
z
" transform="scale(0.015625)"/>
       </defs>
       <use xlink:href="#DejaVuSans-2212"/>
       <use xlink:href="#DejaVuSans-30" x="83.789062"/>
       <use xlink:href="#DejaVuSans-2e" x="147.412109"/>
       <use xlink:href="#DejaVuSans-36" x="179.199219"/>
      </g>
     </g>
    </g>
    <g id="xtick_2">
     <g id="line2d_3">
      <path d="M 143.401558 307.584 
L 143.401558 41.472 
" clip-path="url(#pbc61f00b3c)" style="fill: none; stroke: #b0b0b0; stroke-width: 0.8; stroke-linecap: square"/>
     </g>
     <g id="line2d_4">
      <g>
       <use xlink:href="#md9f8a99409" x="143.401558" y="307.584" style="stroke: #000000; stroke-width: 0.8"/>
      </g>
     </g>
     <g id="text_2">
      <!-- −0.4 -->
      <g transform="translate(131.260152 322.182437) scale(0.1 -0.1)">
       <defs>
        <path id="DejaVuSans-34" d="M 2419 4116 
L 825 1625 
L 2419 1625 
L 2419 4116 
z
M 2253 4666 
L 3047 4666 
L 3047 1625 
L 3713 1625 
L 3713 1100 
L 3047 1100 
L 3047 0 
L 2419 0 
L 2419 1100 
L 313 1100 
L 313 1709 
L 2253 4666 
z
" transform="scale(0.015625)"/>
       </defs>
       <use xlink:href="#DejaVuSans-2212"/>
       <use xlink:href="#DejaVuSans-30" x="83.789062"/>
       <use xlink:href="#DejaVuSans-2e" x="147.412109"/>
       <use xlink:href="#DejaVuSans-34" x="179.199219"/>
      </g>
     </g>
    </g>
    <g id="xtick_3">
     <g id="line2d_5">
      <path d="M 189.780779 307.584 
L 189.780779 41.472 
" clip-path="url(#pbc61f00b3c)" style="fill: none; stroke: #b0b0b0; stroke-width: 0.8; stroke-linecap: square"/>
     </g>
     <g id="line2d_6">
      <g>
       <use xlink:href="#md9f8a99409" x="189.780779" y="307.584" style="stroke: #000000; stroke-width: 0.8"/>
      </g>
     </g>
     <g id="text_3">
      <!-- −0.2 -->
      <g transform="translate(177.639373 322.182437) scale(0.1 -0.1)">
       <defs>
        <path id="DejaVuSans-32" d="M 1228 531 
L 3431 531 
L 3431 0 
L 469 0 
L 469 531 
Q 828 903 1448 1529 
Q 2069 2156 2228 2338 
Q 2531 2678 2651 2914 
Q 2772 3150 2772 3378 
Q 2772 3750 2511 3984 
Q 2250 4219 1831 4219 
Q 1534 4219 1204 4116 
Q 875 4013 500 3803 
L 500 4441 
Q 881 4594 1212 4672 
Q 1544 4750 1819 4750 
Q 2544 4750 2975 4387 
Q 3406 4025 3406 3419 
Q 3406 3131 3298 2873 
Q 3191 2616 2906 2266 
Q 2828 2175 2409 1742 
Q 1991 1309 1228 531 
z
" transform="scale(0.015625)"/>
       </defs>
       <use xlink:href="#DejaVuSans-2212"/>
       <use xlink:href="#DejaVuSans-30" x="83.789062"/>
       <use xlink:href="#DejaVuSans-2e" x="147.412109"/>
       <use xlink:href="#DejaVuSans-32" x="179.199219"/>
      </g>
     </g>
    </g>
    <g id="xtick_4">
     <g id="line2d_7">
      <path d="M 236.16 307.584 
L 236.16 41.472 
" clip-path="url(#pbc61f00b3c)" style="fill: none; stroke: #b0b0b0; stroke-width: 0.8; stroke-linecap: square"/>
     </g>
     <g id="line2d_8">
      <g>
       <use xlink:href="#md9f8a99409" x="236.16" y="307.584" style="stroke: #000000; stroke-width: 0.8"/>
      </g>
     </g>
     <g id="text_4">
      <!-- 0.0 -->
      <g transform="translate(228.208437 322.182437) scale(0.1 -0.1)">
       <use xlink:href="#DejaVuSans-30"/>
       <use xlink:href="#DejaVuSans-2e" x="63.623047"/>
       <use xlink:href="#DejaVuSans-30" x="95.410156"/>
      </g>
     </g>
    </g>
    <g id="xtick_5">
     <g id="line2d_9">
      <path d="M 282.539221 307.584 
L 282.539221 41.472 
" clip-path="url(#pbc61f00b3c)" style="fill: none; stroke: #b0b0b0; stroke-width: 0.8; stroke-linecap: square"/>
     </g>
     <g id="line2d_10">
      <g>
       <use xlink:href="#md9f8a99409" x="282.539221" y="307.584" style="stroke: #000000; stroke-width: 0.8"/>
      </g>
     </g>
     <g id="text_5">
      <!-- 0.2 -->
      <g transform="translate(274.587658 322.182437) scale(0.1 -0.1)">
       <use xlink:href="#DejaVuSans-30"/>
       <use xlink:href="#DejaVuSans-2e" x="63.623047"/>
       <use xlink:href="#DejaVuSans-32" x="95.410156"/>
      </g>
     </g>
    </g>
    <g id="xtick_6">
     <g id="line2d_11">
      <path d="M 328.918442 307.584 
L 328.918442 41.472 
" clip-path="url(#pbc61f00b3c)" style="fill: none; stroke: #b0b0b0; stroke-width: 0.8; stroke-linecap: square"/>
     </g>
     <g id="line2d_12">
      <g>
       <use xlink:href="#md9f8a99409" x="328.918442" y="307.584" style="stroke: #000000; stroke-width: 0.8"/>
      </g>
     </g>
     <g id="text_6">
      <!-- 0.4 -->
      <g transform="translate(320.966879 322.182437) scale(0.1 -0.1)">
       <use xlink:href="#DejaVuSans-30"/>
       <use xlink:href="#DejaVuSans-2e" x="63.623047"/>
       <use xlink:href="#DejaVuSans-34" x="95.410156"/>
      </g>
     </g>
    </g>
    <g id="xtick_7">
     <g id="line2d_13">
      <path d="M 375.297662 307.584 
L 375.297662 41.472 
" clip-path="url(#pbc61f00b3c)" style="fill: none; stroke: #b0b0b0; stroke-width: 0.8; stroke-linecap: square"/>
     </g>
     <g id="line2d_14">
      <g>
       <use xlink:href="#md9f8a99409" x="375.297662" y="307.584" style="stroke: #000000; stroke-width: 0.8"/>
      </g>
     </g>
     <g id="text_7">
      <!-- 0.6 -->
      <g transform="translate(367.3461 322.182437) scale(0.1 -0.1)">
       <use xlink:href="#DejaVuSans-30"/>
       <use xlink:href="#DejaVuSans-2e" x="63.623047"/>
       <use xlink:href="#DejaVuSans-36" x="95.410156"/>
      </g>
     </g>
    </g>
   </g>
   <g id="matplotlib.axis_2">
    <g id="ytick_1">
     <g id="line2d_15">
      <path d="M 57.6 307.584 
L 414.72 307.584 
" clip-path="url(#pbc61f00b3c)" style="fill: none; stroke: #b0b0b0; stroke-width: 0.8; stroke-linecap: square"/>
     </g>
     <g id="line2d_16">
      <defs>
       <path id="m3ca2e4d0a4" d="M 0 0 
L -3.5 0 
" style="stroke: #000000; stroke-width: 0.8"/>
      </defs>
      <g>
       <use xlink:href="#m3ca2e4d0a4" x="57.6" y="307.584" style="stroke: #000000; stroke-width: 0.8"/>
      </g>
     </g>
     <g id="text_8">
      <!-- 0.0 -->
      <g transform="translate(34.696875 311.383219) scale(0.1 -0.1)">
       <use xlink:href="#DejaVuSans-30"/>
       <use xlink:href="#DejaVuSans-2e" x="63.623047"/>
       <use xlink:href="#DejaVuSans-30" x="95.410156"/>
      </g>
     </g>
    </g>
    <g id="ytick_2">
     <g id="line2d_17">
      <path d="M 57.6 274.981282 
L 414.72 274.981282 
" clip-path="url(#pbc61f00b3c)" style="fill: none; stroke: #b0b0b0; stroke-width: 0.8; stroke-linecap: square"/>
     </g>
     <g id="line2d_18">
      <g>
       <use xlink:href="#m3ca2e4d0a4" x="57.6" y="274.981282" style="stroke: #000000; stroke-width: 0.8"/>
      </g>
     </g>
     <g id="text_9">
      <!-- 0.5 -->
      <g transform="translate(34.696875 278.7805) scale(0.1 -0.1)">
       <defs>
        <path id="DejaVuSans-35" d="M 691 4666 
L 3169 4666 
L 3169 4134 
L 1269 4134 
L 1269 2991 
Q 1406 3038 1543 3061 
Q 1681 3084 1819 3084 
Q 2600 3084 3056 2656 
Q 3513 2228 3513 1497 
Q 3513 744 3044 326 
Q 2575 -91 1722 -91 
Q 1428 -91 1123 -41 
Q 819 9 494 109 
L 494 744 
Q 775 591 1075 516 
Q 1375 441 1709 441 
Q 2250 441 2565 725 
Q 2881 1009 2881 1497 
Q 2881 1984 2565 2268 
Q 2250 2553 1709 2553 
Q 1456 2553 1204 2497 
Q 953 2441 691 2322 
L 691 4666 
z
" transform="scale(0.015625)"/>
       </defs>
       <use xlink:href="#DejaVuSans-30"/>
       <use xlink:href="#DejaVuSans-2e" x="63.623047"/>
       <use xlink:href="#DejaVuSans-35" x="95.410156"/>
      </g>
     </g>
    </g>
    <g id="ytick_3">
     <g id="line2d_19">
      <path d="M 57.6 242.378563 
L 414.72 242.378563 
" clip-path="url(#pbc61f00b3c)" style="fill: none; stroke: #b0b0b0; stroke-width: 0.8; stroke-linecap: square"/>
     </g>
     <g id="line2d_20">
      <g>
       <use xlink:href="#m3ca2e4d0a4" x="57.6" y="242.378563" style="stroke: #000000; stroke-width: 0.8"/>
      </g>
     </g>
     <g id="text_10">
      <!-- 1.0 -->
      <g transform="translate(34.696875 246.177782) scale(0.1 -0.1)">
       <defs>
        <path id="DejaVuSans-31" d="M 794 531 
L 1825 531 
L 1825 4091 
L 703 3866 
L 703 4441 
L 1819 4666 
L 2450 4666 
L 2450 531 
L 3481 531 
L 3481 0 
L 794 0 
L 794 531 
z
" transform="scale(0.015625)"/>
       </defs>
       <use xlink:href="#DejaVuSans-31"/>
       <use xlink:href="#DejaVuSans-2e" x="63.623047"/>
       <use xlink:href="#DejaVuSans-30" x="95.410156"/>
      </g>
     </g>
    </g>
    <g id="ytick_4">
     <g id="line2d_21">
      <path d="M 57.6 209.775845 
L 414.72 209.775845 
" clip-path="url(#pbc61f00b3c)" style="fill: none; stroke: #b0b0b0; stroke-width: 0.8; stroke-linecap: square"/>
     </g>
     <g id="line2d_22">
      <g>
       <use xlink:href="#m3ca2e4d0a4" x="57.6" y="209.775845" style="stroke: #000000; stroke-width: 0.8"/>
      </g>
     </g>
     <g id="text_11">
      <!-- 1.5 -->
      <g transform="translate(34.696875 213.575063) scale(0.1 -0.1)">
       <use xlink:href="#DejaVuSans-31"/>
       <use xlink:href="#DejaVuSans-2e" x="63.623047"/>
       <use xlink:href="#DejaVuSans-35" x="95.410156"/>
      </g>
     </g>
    </g>
    <g id="ytick_5">
     <g id="line2d_23">
      <path d="M 57.6 177.173126 
L 414.72 177.173126 
" clip-path="url(#pbc61f00b3c)" style="fill: none; stroke: #b0b0b0; stroke-width: 0.8; stroke-linecap: square"/>
     </g>
     <g id="line2d_24">
      <g>
       <use xlink:href="#m3ca2e4d0a4" x="57.6" y="177.173126" style="stroke: #000000; stroke-width: 0.8"/>
      </g>
     </g>
     <g id="text_12">
      <!-- 2.0 -->
      <g transform="translate(34.696875 180.972345) scale(0.1 -0.1)">
       <use xlink:href="#DejaVuSans-32"/>
       <use xlink:href="#DejaVuSans-2e" x="63.623047"/>
       <use xlink:href="#DejaVuSans-30" x="95.410156"/>
      </g>
     </g>
    </g>
    <g id="ytick_6">
     <g id="line2d_25">
      <path d="M 57.6 144.570408 
L 414.72 144.570408 
" clip-path="url(#pbc61f00b3c)" style="fill: none; stroke: #b0b0b0; stroke-width: 0.8; stroke-linecap: square"/>
     </g>
     <g id="line2d_26">
      <g>
       <use xlink:href="#m3ca2e4d0a4" x="57.6" y="144.570408" style="stroke: #000000; stroke-width: 0.8"/>
      </g>
     </g>
     <g id="text_13">
      <!-- 2.5 -->
      <g transform="translate(34.696875 148.369627) scale(0.1 -0.1)">
       <use xlink:href="#DejaVuSans-32"/>
       <use xlink:href="#DejaVuSans-2e" x="63.623047"/>
       <use xlink:href="#DejaVuSans-35" x="95.410156"/>
      </g>
     </g>
    </g>
    <g id="ytick_7">
     <g id="line2d_27">
      <path d="M 57.6 111.967689 
L 414.72 111.967689 
" clip-path="url(#pbc61f00b3c)" style="fill: none; stroke: #b0b0b0; stroke-width: 0.8; stroke-linecap: square"/>
     </g>
     <g id="line2d_28">
      <g>
       <use xlink:href="#m3ca2e4d0a4" x="57.6" y="111.967689" style="stroke: #000000; stroke-width: 0.8"/>
      </g>
     </g>
     <g id="text_14">
      <!-- 3.0 -->
      <g transform="translate(34.696875 115.766908) scale(0.1 -0.1)">
       <defs>
        <path id="DejaVuSans-33" d="M 2597 2516 
Q 3050 2419 3304 2112 
Q 3559 1806 3559 1356 
Q 3559 666 3084 287 
Q 2609 -91 1734 -91 
Q 1441 -91 1130 -33 
Q 819 25 488 141 
L 488 750 
Q 750 597 1062 519 
Q 1375 441 1716 441 
Q 2309 441 2620 675 
Q 2931 909 2931 1356 
Q 2931 1769 2642 2001 
Q 2353 2234 1838 2234 
L 1294 2234 
L 1294 2753 
L 1863 2753 
Q 2328 2753 2575 2939 
Q 2822 3125 2822 3475 
Q 2822 3834 2567 4026 
Q 2313 4219 1838 4219 
Q 1578 4219 1281 4162 
Q 984 4106 628 3988 
L 628 4550 
Q 988 4650 1302 4700 
Q 1616 4750 1894 4750 
Q 2613 4750 3031 4423 
Q 3450 4097 3450 3541 
Q 3450 3153 3228 2886 
Q 3006 2619 2597 2516 
z
" transform="scale(0.015625)"/>
       </defs>
       <use xlink:href="#DejaVuSans-33"/>
       <use xlink:href="#DejaVuSans-2e" x="63.623047"/>
       <use xlink:href="#DejaVuSans-30" x="95.410156"/>
      </g>
     </g>
    </g>
    <g id="ytick_8">
     <g id="line2d_29">
      <path d="M 57.6 79.364971 
L 414.72 79.364971 
" clip-path="url(#pbc61f00b3c)" style="fill: none; stroke: #b0b0b0; stroke-width: 0.8; stroke-linecap: square"/>
     </g>
     <g id="line2d_30">
      <g>
       <use xlink:href="#m3ca2e4d0a4" x="57.6" y="79.364971" style="stroke: #000000; stroke-width: 0.8"/>
      </g>
     </g>
     <g id="text_15">
      <!-- 3.5 -->
      <g transform="translate(34.696875 83.16419) scale(0.1 -0.1)">
       <use xlink:href="#DejaVuSans-33"/>
       <use xlink:href="#DejaVuSans-2e" x="63.623047"/>
       <use xlink:href="#DejaVuSans-35" x="95.410156"/>
      </g>
     </g>
    </g>
    <g id="ytick_9">
     <g id="line2d_31">
      <path d="M 57.6 46.762252 
L 414.72 46.762252 
" clip-path="url(#pbc61f00b3c)" style="fill: none; stroke: #b0b0b0; stroke-width: 0.8; stroke-linecap: square"/>
     </g>
     <g id="line2d_32">
      <g>
       <use xlink:href="#m3ca2e4d0a4" x="57.6" y="46.762252" style="stroke: #000000; stroke-width: 0.8"/>
      </g>
     </g>
     <g id="text_16">
      <!-- 4.0 -->
      <g transform="translate(34.696875 50.561471) scale(0.1 -0.1)">
       <use xlink:href="#DejaVuSans-34"/>
       <use xlink:href="#DejaVuSans-2e" x="63.623047"/>
       <use xlink:href="#DejaVuSans-30" x="95.410156"/>
      </g>
     </g>
    </g>
   </g>
   <g id="patch_59">
    <path d="M 57.6 307.584 
L 57.6 41.472 
" style="fill: none; stroke: #000000; stroke-width: 0.8; stroke-linejoin: miter; stroke-linecap: square"/>
   </g>
   <g id="patch_60">
    <path d="M 414.72 307.584 
L 414.72 41.472 
" style="fill: none; stroke: #000000; stroke-width: 0.8; stroke-linejoin: miter; stroke-linecap: square"/>
   </g>
   <g id="patch_61">
    <path d="M 57.6 307.584 
L 414.72 307.584 
" style="fill: none; stroke: #000000; stroke-width: 0.8; stroke-linejoin: miter; stroke-linecap: square"/>
   </g>
   <g id="patch_62">
    <path d="M 57.6 41.472 
L 414.72 41.472 
" style="fill: none; stroke: #000000; stroke-width: 0.8; stroke-linejoin: miter; stroke-linecap: square"/>
   </g>
   <g id="text_17">
    <!-- Reject hyp. that means are same -->
    <g transform="translate(136.590937 22.034625) scale(0.12 -0.12)">
     <defs>
      <path id="DejaVuSans-52" d="M 2841 2188 
Q 3044 2119 3236 1894 
Q 3428 1669 3622 1275 
L 4263 0 
L 3584 0 
L 2988 1197 
Q 2756 1666 2539 1819 
Q 2322 1972 1947 1972 
L 1259 1972 
L 1259 0 
L 628 0 
L 628 4666 
L 2053 4666 
Q 2853 4666 3247 4331 
Q 3641 3997 3641 3322 
Q 3641 2881 3436 2590 
Q 3231 2300 2841 2188 
z
M 1259 4147 
L 1259 2491 
L 2053 2491 
Q 2509 2491 2742 2702 
Q 2975 2913 2975 3322 
Q 2975 3731 2742 3939 
Q 2509 4147 2053 4147 
L 1259 4147 
z
" transform="scale(0.015625)"/>
      <path id="DejaVuSans-65" d="M 3597 1894 
L 3597 1613 
L 953 1613 
Q 991 1019 1311 708 
Q 1631 397 2203 397 
Q 2534 397 2845 478 
Q 3156 559 3463 722 
L 3463 178 
Q 3153 47 2828 -22 
Q 2503 -91 2169 -91 
Q 1331 -91 842 396 
Q 353 884 353 1716 
Q 353 2575 817 3079 
Q 1281 3584 2069 3584 
Q 2775 3584 3186 3129 
Q 3597 2675 3597 1894 
z
M 3022 2063 
Q 3016 2534 2758 2815 
Q 2500 3097 2075 3097 
Q 1594 3097 1305 2825 
Q 1016 2553 972 2059 
L 3022 2063 
z
" transform="scale(0.015625)"/>
      <path id="DejaVuSans-6a" d="M 603 3500 
L 1178 3500 
L 1178 -63 
Q 1178 -731 923 -1031 
Q 669 -1331 103 -1331 
L -116 -1331 
L -116 -844 
L 38 -844 
Q 366 -844 484 -692 
Q 603 -541 603 -63 
L 603 3500 
z
M 603 4863 
L 1178 4863 
L 1178 4134 
L 603 4134 
L 603 4863 
z
" transform="scale(0.015625)"/>
      <path id="DejaVuSans-63" d="M 3122 3366 
L 3122 2828 
Q 2878 2963 2633 3030 
Q 2388 3097 2138 3097 
Q 1578 3097 1268 2742 
Q 959 2388 959 1747 
Q 959 1106 1268 751 
Q 1578 397 2138 397 
Q 2388 397 2633 464 
Q 2878 531 3122 666 
L 3122 134 
Q 2881 22 2623 -34 
Q 2366 -91 2075 -91 
Q 1284 -91 818 406 
Q 353 903 353 1747 
Q 353 2603 823 3093 
Q 1294 3584 2113 3584 
Q 2378 3584 2631 3529 
Q 2884 3475 3122 3366 
z
" transform="scale(0.015625)"/>
      <path id="DejaVuSans-74" d="M 1172 4494 
L 1172 3500 
L 2356 3500 
L 2356 3053 
L 1172 3053 
L 1172 1153 
Q 1172 725 1289 603 
Q 1406 481 1766 481 
L 2356 481 
L 2356 0 
L 1766 0 
Q 1100 0 847 248 
Q 594 497 594 1153 
L 594 3053 
L 172 3053 
L 172 3500 
L 594 3500 
L 594 4494 
L 1172 4494 
z
" transform="scale(0.015625)"/>
      <path id="DejaVuSans-20" transform="scale(0.015625)"/>
      <path id="DejaVuSans-68" d="M 3513 2113 
L 3513 0 
L 2938 0 
L 2938 2094 
Q 2938 2591 2744 2837 
Q 2550 3084 2163 3084 
Q 1697 3084 1428 2787 
Q 1159 2491 1159 1978 
L 1159 0 
L 581 0 
L 581 4863 
L 1159 4863 
L 1159 2956 
Q 1366 3272 1645 3428 
Q 1925 3584 2291 3584 
Q 2894 3584 3203 3211 
Q 3513 2838 3513 2113 
z
" transform="scale(0.015625)"/>
      <path id="DejaVuSans-79" d="M 2059 -325 
Q 1816 -950 1584 -1140 
Q 1353 -1331 966 -1331 
L 506 -1331 
L 506 -850 
L 844 -850 
Q 1081 -850 1212 -737 
Q 1344 -625 1503 -206 
L 1606 56 
L 191 3500 
L 800 3500 
L 1894 763 
L 2988 3500 
L 3597 3500 
L 2059 -325 
z
" transform="scale(0.015625)"/>
      <path id="DejaVuSans-70" d="M 1159 525 
L 1159 -1331 
L 581 -1331 
L 581 3500 
L 1159 3500 
L 1159 2969 
Q 1341 3281 1617 3432 
Q 1894 3584 2278 3584 
Q 2916 3584 3314 3078 
Q 3713 2572 3713 1747 
Q 3713 922 3314 415 
Q 2916 -91 2278 -91 
Q 1894 -91 1617 61 
Q 1341 213 1159 525 
z
M 3116 1747 
Q 3116 2381 2855 2742 
Q 2594 3103 2138 3103 
Q 1681 3103 1420 2742 
Q 1159 2381 1159 1747 
Q 1159 1113 1420 752 
Q 1681 391 2138 391 
Q 2594 391 2855 752 
Q 3116 1113 3116 1747 
z
" transform="scale(0.015625)"/>
      <path id="DejaVuSans-61" d="M 2194 1759 
Q 1497 1759 1228 1600 
Q 959 1441 959 1056 
Q 959 750 1161 570 
Q 1363 391 1709 391 
Q 2188 391 2477 730 
Q 2766 1069 2766 1631 
L 2766 1759 
L 2194 1759 
z
M 3341 1997 
L 3341 0 
L 2766 0 
L 2766 531 
Q 2569 213 2275 61 
Q 1981 -91 1556 -91 
Q 1019 -91 701 211 
Q 384 513 384 1019 
Q 384 1609 779 1909 
Q 1175 2209 1959 2209 
L 2766 2209 
L 2766 2266 
Q 2766 2663 2505 2880 
Q 2244 3097 1772 3097 
Q 1472 3097 1187 3025 
Q 903 2953 641 2809 
L 641 3341 
Q 956 3463 1253 3523 
Q 1550 3584 1831 3584 
Q 2591 3584 2966 3190 
Q 3341 2797 3341 1997 
z
" transform="scale(0.015625)"/>
      <path id="DejaVuSans-6d" d="M 3328 2828 
Q 3544 3216 3844 3400 
Q 4144 3584 4550 3584 
Q 5097 3584 5394 3201 
Q 5691 2819 5691 2113 
L 5691 0 
L 5113 0 
L 5113 2094 
Q 5113 2597 4934 2840 
Q 4756 3084 4391 3084 
Q 3944 3084 3684 2787 
Q 3425 2491 3425 1978 
L 3425 0 
L 2847 0 
L 2847 2094 
Q 2847 2600 2669 2842 
Q 2491 3084 2119 3084 
Q 1678 3084 1418 2786 
Q 1159 2488 1159 1978 
L 1159 0 
L 581 0 
L 581 3500 
L 1159 3500 
L 1159 2956 
Q 1356 3278 1631 3431 
Q 1906 3584 2284 3584 
Q 2666 3584 2933 3390 
Q 3200 3197 3328 2828 
z
" transform="scale(0.015625)"/>
      <path id="DejaVuSans-6e" d="M 3513 2113 
L 3513 0 
L 2938 0 
L 2938 2094 
Q 2938 2591 2744 2837 
Q 2550 3084 2163 3084 
Q 1697 3084 1428 2787 
Q 1159 2491 1159 1978 
L 1159 0 
L 581 0 
L 581 3500 
L 1159 3500 
L 1159 2956 
Q 1366 3272 1645 3428 
Q 1925 3584 2291 3584 
Q 2894 3584 3203 3211 
Q 3513 2838 3513 2113 
z
" transform="scale(0.015625)"/>
      <path id="DejaVuSans-73" d="M 2834 3397 
L 2834 2853 
Q 2591 2978 2328 3040 
Q 2066 3103 1784 3103 
Q 1356 3103 1142 2972 
Q 928 2841 928 2578 
Q 928 2378 1081 2264 
Q 1234 2150 1697 2047 
L 1894 2003 
Q 2506 1872 2764 1633 
Q 3022 1394 3022 966 
Q 3022 478 2636 193 
Q 2250 -91 1575 -91 
Q 1294 -91 989 -36 
Q 684 19 347 128 
L 347 722 
Q 666 556 975 473 
Q 1284 391 1588 391 
Q 1994 391 2212 530 
Q 2431 669 2431 922 
Q 2431 1156 2273 1281 
Q 2116 1406 1581 1522 
L 1381 1569 
Q 847 1681 609 1914 
Q 372 2147 372 2553 
Q 372 3047 722 3315 
Q 1072 3584 1716 3584 
Q 2034 3584 2315 3537 
Q 2597 3491 2834 3397 
z
" transform="scale(0.015625)"/>
      <path id="DejaVuSans-72" d="M 2631 2963 
Q 2534 3019 2420 3045 
Q 2306 3072 2169 3072 
Q 1681 3072 1420 2755 
Q 1159 2438 1159 1844 
L 1159 0 
L 581 0 
L 581 3500 
L 1159 3500 
L 1159 2956 
Q 1341 3275 1631 3429 
Q 1922 3584 2338 3584 
Q 2397 3584 2469 3576 
Q 2541 3569 2628 3553 
L 2631 2963 
z
" transform="scale(0.015625)"/>
     </defs>
     <use xlink:href="#DejaVuSans-52"/>
     <use xlink:href="#DejaVuSans-65" x="64.982422"/>
     <use xlink:href="#DejaVuSans-6a" x="126.505859"/>
     <use xlink:href="#DejaVuSans-65" x="154.289062"/>
     <use xlink:href="#DejaVuSans-63" x="215.8125"/>
     <use xlink:href="#DejaVuSans-74" x="270.792969"/>
     <use xlink:href="#DejaVuSans-20" x="310.001953"/>
     <use xlink:href="#DejaVuSans-68" x="341.789062"/>
     <use xlink:href="#DejaVuSans-79" x="405.167969"/>
     <use xlink:href="#DejaVuSans-70" x="464.347656"/>
     <use xlink:href="#DejaVuSans-2e" x="527.824219"/>
     <use xlink:href="#DejaVuSans-20" x="559.611328"/>
     <use xlink:href="#DejaVuSans-74" x="591.398438"/>
     <use xlink:href="#DejaVuSans-68" x="630.607422"/>
     <use xlink:href="#DejaVuSans-61" x="693.986328"/>
     <use xlink:href="#DejaVuSans-74" x="755.265625"/>
     <use xlink:href="#DejaVuSans-20" x="794.474609"/>
     <use xlink:href="#DejaVuSans-6d" x="826.261719"/>
     <use xlink:href="#DejaVuSans-65" x="923.673828"/>
     <use xlink:href="#DejaVuSans-61" x="985.197266"/>
     <use xlink:href="#DejaVuSans-6e" x="1046.476562"/>
     <use xlink:href="#DejaVuSans-73" x="1109.855469"/>
     <use xlink:href="#DejaVuSans-20" x="1161.955078"/>
     <use xlink:href="#DejaVuSans-61" x="1193.742188"/>
     <use xlink:href="#DejaVuSans-72" x="1255.021484"/>
     <use xlink:href="#DejaVuSans-65" x="1293.884766"/>
     <use xlink:href="#DejaVuSans-20" x="1355.408203"/>
     <use xlink:href="#DejaVuSans-73" x="1387.195312"/>
     <use xlink:href="#DejaVuSans-61" x="1439.294922"/>
     <use xlink:href="#DejaVuSans-6d" x="1500.574219"/>
     <use xlink:href="#DejaVuSans-65" x="1597.986328"/>
    </g>
    <!-- with significance level p = 3.5e-139 -->
    <g transform="translate(128.32125 35.472) scale(0.12 -0.12)">
     <defs>
      <path id="DejaVuSans-77" d="M 269 3500 
L 844 3500 
L 1563 769 
L 2278 3500 
L 2956 3500 
L 3675 769 
L 4391 3500 
L 4966 3500 
L 4050 0 
L 3372 0 
L 2619 2869 
L 1863 0 
L 1184 0 
L 269 3500 
z
" transform="scale(0.015625)"/>
      <path id="DejaVuSans-69" d="M 603 3500 
L 1178 3500 
L 1178 0 
L 603 0 
L 603 3500 
z
M 603 4863 
L 1178 4863 
L 1178 4134 
L 603 4134 
L 603 4863 
z
" transform="scale(0.015625)"/>
      <path id="DejaVuSans-67" d="M 2906 1791 
Q 2906 2416 2648 2759 
Q 2391 3103 1925 3103 
Q 1463 3103 1205 2759 
Q 947 2416 947 1791 
Q 947 1169 1205 825 
Q 1463 481 1925 481 
Q 2391 481 2648 825 
Q 2906 1169 2906 1791 
z
M 3481 434 
Q 3481 -459 3084 -895 
Q 2688 -1331 1869 -1331 
Q 1566 -1331 1297 -1286 
Q 1028 -1241 775 -1147 
L 775 -588 
Q 1028 -725 1275 -790 
Q 1522 -856 1778 -856 
Q 2344 -856 2625 -561 
Q 2906 -266 2906 331 
L 2906 616 
Q 2728 306 2450 153 
Q 2172 0 1784 0 
Q 1141 0 747 490 
Q 353 981 353 1791 
Q 353 2603 747 3093 
Q 1141 3584 1784 3584 
Q 2172 3584 2450 3431 
Q 2728 3278 2906 2969 
L 2906 3500 
L 3481 3500 
L 3481 434 
z
" transform="scale(0.015625)"/>
      <path id="DejaVuSans-66" d="M 2375 4863 
L 2375 4384 
L 1825 4384 
Q 1516 4384 1395 4259 
Q 1275 4134 1275 3809 
L 1275 3500 
L 2222 3500 
L 2222 3053 
L 1275 3053 
L 1275 0 
L 697 0 
L 697 3053 
L 147 3053 
L 147 3500 
L 697 3500 
L 697 3744 
Q 697 4328 969 4595 
Q 1241 4863 1831 4863 
L 2375 4863 
z
" transform="scale(0.015625)"/>
      <path id="DejaVuSans-6c" d="M 603 4863 
L 1178 4863 
L 1178 0 
L 603 0 
L 603 4863 
z
" transform="scale(0.015625)"/>
      <path id="DejaVuSans-76" d="M 191 3500 
L 800 3500 
L 1894 563 
L 2988 3500 
L 3597 3500 
L 2284 0 
L 1503 0 
L 191 3500 
z
" transform="scale(0.015625)"/>
      <path id="DejaVuSans-3d" d="M 678 2906 
L 4684 2906 
L 4684 2381 
L 678 2381 
L 678 2906 
z
M 678 1631 
L 4684 1631 
L 4684 1100 
L 678 1100 
L 678 1631 
z
" transform="scale(0.015625)"/>
      <path id="DejaVuSans-2d" d="M 313 2009 
L 1997 2009 
L 1997 1497 
L 313 1497 
L 313 2009 
z
" transform="scale(0.015625)"/>
      <path id="DejaVuSans-39" d="M 703 97 
L 703 672 
Q 941 559 1184 500 
Q 1428 441 1663 441 
Q 2288 441 2617 861 
Q 2947 1281 2994 2138 
Q 2813 1869 2534 1725 
Q 2256 1581 1919 1581 
Q 1219 1581 811 2004 
Q 403 2428 403 3163 
Q 403 3881 828 4315 
Q 1253 4750 1959 4750 
Q 2769 4750 3195 4129 
Q 3622 3509 3622 2328 
Q 3622 1225 3098 567 
Q 2575 -91 1691 -91 
Q 1453 -91 1209 -44 
Q 966 3 703 97 
z
M 1959 2075 
Q 2384 2075 2632 2365 
Q 2881 2656 2881 3163 
Q 2881 3666 2632 3958 
Q 2384 4250 1959 4250 
Q 1534 4250 1286 3958 
Q 1038 3666 1038 3163 
Q 1038 2656 1286 2365 
Q 1534 2075 1959 2075 
z
" transform="scale(0.015625)"/>
     </defs>
     <use xlink:href="#DejaVuSans-77"/>
     <use xlink:href="#DejaVuSans-69" x="81.787109"/>
     <use xlink:href="#DejaVuSans-74" x="109.570312"/>
     <use xlink:href="#DejaVuSans-68" x="148.779297"/>
     <use xlink:href="#DejaVuSans-20" x="212.158203"/>
     <use xlink:href="#DejaVuSans-73" x="243.945312"/>
     <use xlink:href="#DejaVuSans-69" x="296.044922"/>
     <use xlink:href="#DejaVuSans-67" x="323.828125"/>
     <use xlink:href="#DejaVuSans-6e" x="387.304688"/>
     <use xlink:href="#DejaVuSans-69" x="450.683594"/>
     <use xlink:href="#DejaVuSans-66" x="478.466797"/>
     <use xlink:href="#DejaVuSans-69" x="513.671875"/>
     <use xlink:href="#DejaVuSans-63" x="541.455078"/>
     <use xlink:href="#DejaVuSans-61" x="596.435547"/>
     <use xlink:href="#DejaVuSans-6e" x="657.714844"/>
     <use xlink:href="#DejaVuSans-63" x="721.09375"/>
     <use xlink:href="#DejaVuSans-65" x="776.074219"/>
     <use xlink:href="#DejaVuSans-20" x="837.597656"/>
     <use xlink:href="#DejaVuSans-6c" x="869.384766"/>
     <use xlink:href="#DejaVuSans-65" x="897.167969"/>
     <use xlink:href="#DejaVuSans-76" x="958.691406"/>
     <use xlink:href="#DejaVuSans-65" x="1017.871094"/>
     <use xlink:href="#DejaVuSans-6c" x="1079.394531"/>
     <use xlink:href="#DejaVuSans-20" x="1107.177734"/>
     <use xlink:href="#DejaVuSans-70" x="1138.964844"/>
     <use xlink:href="#DejaVuSans-20" x="1202.441406"/>
     <use xlink:href="#DejaVuSans-3d" x="1234.228516"/>
     <use xlink:href="#DejaVuSans-20" x="1318.017578"/>
     <use xlink:href="#DejaVuSans-33" x="1349.804688"/>
     <use xlink:href="#DejaVuSans-2e" x="1413.427734"/>
     <use xlink:href="#DejaVuSans-35" x="1445.214844"/>
     <use xlink:href="#DejaVuSans-65" x="1508.837891"/>
     <use xlink:href="#DejaVuSans-2d" x="1570.361328"/>
     <use xlink:href="#DejaVuSans-31" x="1606.445312"/>
     <use xlink:href="#DejaVuSans-33" x="1670.068359"/>
     <use xlink:href="#DejaVuSans-39" x="1733.691406"/>
    </g>
   </g>
   <g id="legend_1">
    <g id="patch_63">
     <path d="M 281.82 79.072 
L 407.72 79.072 
Q 409.72 79.072 409.72 77.072 
L 409.72 48.472 
Q 409.72 46.472 407.72 46.472 
L 281.82 46.472 
Q 279.82 46.472 279.82 48.472 
L 279.82 77.072 
Q 279.82 79.072 281.82 79.072 
z
" style="fill: #ffffff; opacity: 0.8; stroke: #cccccc; stroke-linejoin: miter"/>
    </g>
    <g id="patch_64">
     <path d="M 283.82 58.172 
L 303.82 58.172 
L 303.82 51.172 
L 283.82 51.172 
z
" style="fill: #1f77b4; opacity: 0.5"/>
    </g>
    <g id="text_18">
     <!-- pdf($b-\beta$) for $a&gt;0$ -->
     <g transform="translate(311.82 58.172) scale(0.1 -0.1)">
      <defs>
       <path id="DejaVuSans-64" d="M 2906 2969 
L 2906 4863 
L 3481 4863 
L 3481 0 
L 2906 0 
L 2906 525 
Q 2725 213 2448 61 
Q 2172 -91 1784 -91 
Q 1150 -91 751 415 
Q 353 922 353 1747 
Q 353 2572 751 3078 
Q 1150 3584 1784 3584 
Q 2172 3584 2448 3432 
Q 2725 3281 2906 2969 
z
M 947 1747 
Q 947 1113 1208 752 
Q 1469 391 1925 391 
Q 2381 391 2643 752 
Q 2906 1113 2906 1747 
Q 2906 2381 2643 2742 
Q 2381 3103 1925 3103 
Q 1469 3103 1208 2742 
Q 947 2381 947 1747 
z
" transform="scale(0.015625)"/>
       <path id="DejaVuSans-28" d="M 1984 4856 
Q 1566 4138 1362 3434 
Q 1159 2731 1159 2009 
Q 1159 1288 1364 580 
Q 1569 -128 1984 -844 
L 1484 -844 
Q 1016 -109 783 600 
Q 550 1309 550 2009 
Q 550 2706 781 3412 
Q 1013 4119 1484 4856 
L 1984 4856 
z
" transform="scale(0.015625)"/>
       <path id="DejaVuSans-Oblique-62" d="M 3169 2138 
Q 3169 2591 2961 2847 
Q 2753 3103 2388 3103 
Q 2122 3103 1889 2973 
Q 1656 2844 1484 2597 
Q 1303 2338 1198 1995 
Q 1094 1653 1094 1313 
Q 1094 881 1298 636 
Q 1503 391 1863 391 
Q 2134 391 2365 517 
Q 2597 644 2772 891 
Q 2950 1147 3059 1487 
Q 3169 1828 3169 2138 
z
M 1381 2969 
Q 1594 3256 1914 3420 
Q 2234 3584 2584 3584 
Q 3122 3584 3439 3221 
Q 3756 2859 3756 2241 
Q 3756 1734 3570 1259 
Q 3384 784 3041 416 
Q 2816 172 2522 40 
Q 2228 -91 1906 -91 
Q 1566 -91 1316 65 
Q 1066 222 909 531 
L 806 0 
L 231 0 
L 1178 4863 
L 1753 4863 
L 1381 2969 
z
" transform="scale(0.015625)"/>
       <path id="DejaVuSans-Oblique-3b2" d="M 872 216 
L 572 -1331 
L -6 -1331 
L 928 3478 
Q 1206 4903 2538 4903 
Q 3888 4903 3659 3700 
Q 3503 2844 2894 2531 
Q 3713 2250 3553 1416 
Q 3272 -69 1759 -66 
Q 1097 -63 872 216 
z
M 1019 966 
Q 1259 422 1875 425 
Q 2775 425 2966 1406 
Q 3138 2288 1675 2219 
L 1778 2750 
Q 2909 2731 3106 3750 
Q 3241 4438 2509 4434 
Q 1691 4434 1503 3459 
L 1019 966 
z
" transform="scale(0.015625)"/>
       <path id="DejaVuSans-29" d="M 513 4856 
L 1013 4856 
Q 1481 4119 1714 3412 
Q 1947 2706 1947 2009 
Q 1947 1309 1714 600 
Q 1481 -109 1013 -844 
L 513 -844 
Q 928 -128 1133 580 
Q 1338 1288 1338 2009 
Q 1338 2731 1133 3434 
Q 928 4138 513 4856 
z
" transform="scale(0.015625)"/>
       <path id="DejaVuSans-6f" d="M 1959 3097 
Q 1497 3097 1228 2736 
Q 959 2375 959 1747 
Q 959 1119 1226 758 
Q 1494 397 1959 397 
Q 2419 397 2687 759 
Q 2956 1122 2956 1747 
Q 2956 2369 2687 2733 
Q 2419 3097 1959 3097 
z
M 1959 3584 
Q 2709 3584 3137 3096 
Q 3566 2609 3566 1747 
Q 3566 888 3137 398 
Q 2709 -91 1959 -91 
Q 1206 -91 779 398 
Q 353 888 353 1747 
Q 353 2609 779 3096 
Q 1206 3584 1959 3584 
z
" transform="scale(0.015625)"/>
       <path id="DejaVuSans-Oblique-61" d="M 3438 1997 
L 3047 0 
L 2472 0 
L 2578 531 
Q 2325 219 2001 64 
Q 1678 -91 1281 -91 
Q 834 -91 548 182 
Q 263 456 263 884 
Q 263 1497 752 1853 
Q 1241 2209 2100 2209 
L 2900 2209 
L 2931 2363 
Q 2938 2388 2941 2417 
Q 2944 2447 2944 2509 
Q 2944 2788 2717 2942 
Q 2491 3097 2081 3097 
Q 1800 3097 1504 3025 
Q 1209 2953 897 2809 
L 997 3341 
Q 1322 3463 1633 3523 
Q 1944 3584 2234 3584 
Q 2853 3584 3176 3315 
Q 3500 3047 3500 2534 
Q 3500 2431 3484 2292 
Q 3469 2153 3438 1997 
z
M 2816 1759 
L 2241 1759 
Q 1534 1759 1195 1570 
Q 856 1381 856 984 
Q 856 709 1029 553 
Q 1203 397 1509 397 
Q 1978 397 2328 733 
Q 2678 1069 2791 1631 
L 2816 1759 
z
" transform="scale(0.015625)"/>
       <path id="DejaVuSans-3e" d="M 678 3150 
L 678 3719 
L 4684 2266 
L 4684 1747 
L 678 294 
L 678 863 
L 3897 2003 
L 678 3150 
z
" transform="scale(0.015625)"/>
      </defs>
      <use xlink:href="#DejaVuSans-70" transform="translate(0 0.390625)"/>
      <use xlink:href="#DejaVuSans-64" transform="translate(63.476562 0.390625)"/>
      <use xlink:href="#DejaVuSans-66" transform="translate(126.953125 0.390625)"/>
      <use xlink:href="#DejaVuSans-28" transform="translate(162.158203 0.390625)"/>
      <use xlink:href="#DejaVuSans-Oblique-62" transform="translate(201.171875 0.390625)"/>
      <use xlink:href="#DejaVuSans-2212" transform="translate(284.130859 0.390625)"/>
      <use xlink:href="#DejaVuSans-Oblique-3b2" transform="translate(387.402344 0.390625)"/>
      <use xlink:href="#DejaVuSans-29" transform="translate(451.220703 0.390625)"/>
      <use xlink:href="#DejaVuSans-20" transform="translate(490.234375 0.390625)"/>
      <use xlink:href="#DejaVuSans-66" transform="translate(522.021484 0.390625)"/>
      <use xlink:href="#DejaVuSans-6f" transform="translate(557.226562 0.390625)"/>
      <use xlink:href="#DejaVuSans-72" transform="translate(618.408203 0.390625)"/>
      <use xlink:href="#DejaVuSans-20" transform="translate(659.521484 0.390625)"/>
      <use xlink:href="#DejaVuSans-Oblique-61" transform="translate(691.308594 0.390625)"/>
      <use xlink:href="#DejaVuSans-3e" transform="translate(772.070312 0.390625)"/>
      <use xlink:href="#DejaVuSans-30" transform="translate(875.341797 0.390625)"/>
     </g>
    </g>
    <g id="patch_65">
     <path d="M 283.82 72.972 
L 303.82 72.972 
L 303.82 65.972 
L 283.82 65.972 
z
" style="fill: #ff7f0e; opacity: 0.5"/>
    </g>
    <g id="text_19">
     <!-- pdf($b-\beta$) for $a&lt;0$ -->
     <g transform="translate(311.82 72.972) scale(0.1 -0.1)">
      <defs>
       <path id="DejaVuSans-3c" d="M 4684 3150 
L 1459 2003 
L 4684 863 
L 4684 294 
L 678 1747 
L 678 2266 
L 4684 3719 
L 4684 3150 
z
" transform="scale(0.015625)"/>
      </defs>
      <use xlink:href="#DejaVuSans-70" transform="translate(0 0.390625)"/>
      <use xlink:href="#DejaVuSans-64" transform="translate(63.476562 0.390625)"/>
      <use xlink:href="#DejaVuSans-66" transform="translate(126.953125 0.390625)"/>
      <use xlink:href="#DejaVuSans-28" transform="translate(162.158203 0.390625)"/>
      <use xlink:href="#DejaVuSans-Oblique-62" transform="translate(201.171875 0.390625)"/>
      <use xlink:href="#DejaVuSans-2212" transform="translate(284.130859 0.390625)"/>
      <use xlink:href="#DejaVuSans-Oblique-3b2" transform="translate(387.402344 0.390625)"/>
      <use xlink:href="#DejaVuSans-29" transform="translate(451.220703 0.390625)"/>
      <use xlink:href="#DejaVuSans-20" transform="translate(490.234375 0.390625)"/>
      <use xlink:href="#DejaVuSans-66" transform="translate(522.021484 0.390625)"/>
      <use xlink:href="#DejaVuSans-6f" transform="translate(557.226562 0.390625)"/>
      <use xlink:href="#DejaVuSans-72" transform="translate(618.408203 0.390625)"/>
      <use xlink:href="#DejaVuSans-20" transform="translate(659.521484 0.390625)"/>
      <use xlink:href="#DejaVuSans-Oblique-61" transform="translate(691.308594 0.390625)"/>
      <use xlink:href="#DejaVuSans-3c" transform="translate(772.070312 0.390625)"/>
      <use xlink:href="#DejaVuSans-30" transform="translate(875.341797 0.390625)"/>
     </g>
    </g>
   </g>
  </g>
 </g>
 <defs>
  <clipPath id="pbc61f00b3c">
   <rect x="57.6" y="41.472" width="357.12" height="266.112"/>
  </clipPath>
 </defs>
</svg>
