<?xml version="1.0" encoding="utf-8" standalone="no"?>
<!DOCTYPE svg PUBLIC "-//W3C//DTD SVG 1.1//EN"
  "http://www.w3.org/Graphics/SVG/1.1/DTD/svg11.dtd">
<svg xmlns:xlink="http://www.w3.org/1999/xlink" width="391.245pt" height="312.30825pt" viewBox="0 0 391.245 312.30825" xmlns="http://www.w3.org/2000/svg" version="1.1">
 <metadata>
  <rdf:RDF xmlns:dc="http://purl.org/dc/elements/1.1/" xmlns:cc="http://creativecommons.org/ns#" xmlns:rdf="http://www.w3.org/1999/02/22-rdf-syntax-ns#">
   <cc:Work>
    <dc:type rdf:resource="http://purl.org/dc/dcmitype/StillImage"/>
    <dc:date>2025-04-04T21:28:41.618671</dc:date>
    <dc:format>image/svg+xml</dc:format>
    <dc:creator>
     <cc:Agent>
      <dc:title>Matplotlib v3.5.2, https://matplotlib.org/</dc:title>
     </cc:Agent>
    </dc:creator>
   </cc:Work>
  </rdf:RDF>
 </metadata>
 <defs>
  <style type="text/css">*{stroke-linejoin: round; stroke-linecap: butt}</style>
 </defs>
 <g id="figure_1">
  <g id="patch_1">
   <path d="M 0 312.30825 
L 391.245 312.30825 
L 391.245 0 
L 0 0 
L 0 312.30825 
z
" style="fill: none"/>
  </g>
  <g id="axes_1">
   <g id="patch_2">
    <path d="M 26.925 288.430125 
L 384.045 288.430125 
L 384.045 22.318125 
L 26.925 22.318125 
L 26.925 288.430125 
z
" style="fill: none"/>
   </g>
   <g id="matplotlib.axis_1">
    <g id="xtick_1">
     <g id="line2d_1">
      <defs>
       <path id="mff35bdc609" d="M 0 0 
L 0 3.5 
" style="stroke: #000000; stroke-width: 0.8"/>
      </defs>
      <g>
       <use xlink:href="#mff35bdc609" x="43.157727" y="288.430125" style="stroke: #000000; stroke-width: 0.8"/>
      </g>
     </g>
     <g id="text_1">
      <!-- 0.0 -->
      <g transform="translate(35.206165 303.028562)scale(0.1 -0.1)">
       <defs>
        <path id="DejaVuSans-30" d="M 2034 4250 
Q 1547 4250 1301 3770 
Q 1056 3291 1056 2328 
Q 1056 1369 1301 889 
Q 1547 409 2034 409 
Q 2525 409 2770 889 
Q 3016 1369 3016 2328 
Q 3016 3291 2770 3770 
Q 2525 4250 2034 4250 
z
M 2034 4750 
Q 2819 4750 3233 4129 
Q 3647 3509 3647 2328 
Q 3647 1150 3233 529 
Q 2819 -91 2034 -91 
Q 1250 -91 836 529 
Q 422 1150 422 2328 
Q 422 3509 836 4129 
Q 1250 4750 2034 4750 
z
" transform="scale(0.015625)"/>
        <path id="DejaVuSans-2e" d="M 684 794 
L 1344 794 
L 1344 0 
L 684 0 
L 684 794 
z
" transform="scale(0.015625)"/>
       </defs>
       <use xlink:href="#DejaVuSans-30"/>
       <use xlink:href="#DejaVuSans-2e" x="63.623047"/>
       <use xlink:href="#DejaVuSans-30" x="95.410156"/>
      </g>
     </g>
    </g>
    <g id="xtick_2">
     <g id="line2d_2">
      <g>
       <use xlink:href="#mff35bdc609" x="108.218758" y="288.430125" style="stroke: #000000; stroke-width: 0.8"/>
      </g>
     </g>
     <g id="text_2">
      <!-- 0.1 -->
      <g transform="translate(100.267196 303.028562)scale(0.1 -0.1)">
       <defs>
        <path id="DejaVuSans-31" d="M 794 531 
L 1825 531 
L 1825 4091 
L 703 3866 
L 703 4441 
L 1819 4666 
L 2450 4666 
L 2450 531 
L 3481 531 
L 3481 0 
L 794 0 
L 794 531 
z
" transform="scale(0.015625)"/>
       </defs>
       <use xlink:href="#DejaVuSans-30"/>
       <use xlink:href="#DejaVuSans-2e" x="63.623047"/>
       <use xlink:href="#DejaVuSans-31" x="95.410156"/>
      </g>
     </g>
    </g>
    <g id="xtick_3">
     <g id="line2d_3">
      <g>
       <use xlink:href="#mff35bdc609" x="173.27979" y="288.430125" style="stroke: #000000; stroke-width: 0.8"/>
      </g>
     </g>
     <g id="text_3">
      <!-- 0.2 -->
      <g transform="translate(165.328227 303.028562)scale(0.1 -0.1)">
       <defs>
        <path id="DejaVuSans-32" d="M 1228 531 
L 3431 531 
L 3431 0 
L 469 0 
L 469 531 
Q 828 903 1448 1529 
Q 2069 2156 2228 2338 
Q 2531 2678 2651 2914 
Q 2772 3150 2772 3378 
Q 2772 3750 2511 3984 
Q 2250 4219 1831 4219 
Q 1534 4219 1204 4116 
Q 875 4013 500 3803 
L 500 4441 
Q 881 4594 1212 4672 
Q 1544 4750 1819 4750 
Q 2544 4750 2975 4387 
Q 3406 4025 3406 3419 
Q 3406 3131 3298 2873 
Q 3191 2616 2906 2266 
Q 2828 2175 2409 1742 
Q 1991 1309 1228 531 
z
" transform="scale(0.015625)"/>
       </defs>
       <use xlink:href="#DejaVuSans-30"/>
       <use xlink:href="#DejaVuSans-2e" x="63.623047"/>
       <use xlink:href="#DejaVuSans-32" x="95.410156"/>
      </g>
     </g>
    </g>
    <g id="xtick_4">
     <g id="line2d_4">
      <g>
       <use xlink:href="#mff35bdc609" x="238.340821" y="288.430125" style="stroke: #000000; stroke-width: 0.8"/>
      </g>
     </g>
     <g id="text_4">
      <!-- 0.3 -->
      <g transform="translate(230.389258 303.028562)scale(0.1 -0.1)">
       <defs>
        <path id="DejaVuSans-33" d="M 2597 2516 
Q 3050 2419 3304 2112 
Q 3559 1806 3559 1356 
Q 3559 666 3084 287 
Q 2609 -91 1734 -91 
Q 1441 -91 1130 -33 
Q 819 25 488 141 
L 488 750 
Q 750 597 1062 519 
Q 1375 441 1716 441 
Q 2309 441 2620 675 
Q 2931 909 2931 1356 
Q 2931 1769 2642 2001 
Q 2353 2234 1838 2234 
L 1294 2234 
L 1294 2753 
L 1863 2753 
Q 2328 2753 2575 2939 
Q 2822 3125 2822 3475 
Q 2822 3834 2567 4026 
Q 2313 4219 1838 4219 
Q 1578 4219 1281 4162 
Q 984 4106 628 3988 
L 628 4550 
Q 988 4650 1302 4700 
Q 1616 4750 1894 4750 
Q 2613 4750 3031 4423 
Q 3450 4097 3450 3541 
Q 3450 3153 3228 2886 
Q 3006 2619 2597 2516 
z
" transform="scale(0.015625)"/>
       </defs>
       <use xlink:href="#DejaVuSans-30"/>
       <use xlink:href="#DejaVuSans-2e" x="63.623047"/>
       <use xlink:href="#DejaVuSans-33" x="95.410156"/>
      </g>
     </g>
    </g>
    <g id="xtick_5">
     <g id="line2d_5">
      <g>
       <use xlink:href="#mff35bdc609" x="303.401852" y="288.430125" style="stroke: #000000; stroke-width: 0.8"/>
      </g>
     </g>
     <g id="text_5">
      <!-- 0.4 -->
      <g transform="translate(295.450289 303.028562)scale(0.1 -0.1)">
       <defs>
        <path id="DejaVuSans-34" d="M 2419 4116 
L 825 1625 
L 2419 1625 
L 2419 4116 
z
M 2253 4666 
L 3047 4666 
L 3047 1625 
L 3713 1625 
L 3713 1100 
L 3047 1100 
L 3047 0 
L 2419 0 
L 2419 1100 
L 313 1100 
L 313 1709 
L 2253 4666 
z
" transform="scale(0.015625)"/>
       </defs>
       <use xlink:href="#DejaVuSans-30"/>
       <use xlink:href="#DejaVuSans-2e" x="63.623047"/>
       <use xlink:href="#DejaVuSans-34" x="95.410156"/>
      </g>
     </g>
    </g>
    <g id="xtick_6">
     <g id="line2d_6">
      <g>
       <use xlink:href="#mff35bdc609" x="368.462883" y="288.430125" style="stroke: #000000; stroke-width: 0.8"/>
      </g>
     </g>
     <g id="text_6">
      <!-- 0.5 -->
      <g transform="translate(360.511321 303.028562)scale(0.1 -0.1)">
       <defs>
        <path id="DejaVuSans-35" d="M 691 4666 
L 3169 4666 
L 3169 4134 
L 1269 4134 
L 1269 2991 
Q 1406 3038 1543 3061 
Q 1681 3084 1819 3084 
Q 2600 3084 3056 2656 
Q 3513 2228 3513 1497 
Q 3513 744 3044 326 
Q 2575 -91 1722 -91 
Q 1428 -91 1123 -41 
Q 819 9 494 109 
L 494 744 
Q 775 591 1075 516 
Q 1375 441 1709 441 
Q 2250 441 2565 725 
Q 2881 1009 2881 1497 
Q 2881 1984 2565 2268 
Q 2250 2553 1709 2553 
Q 1456 2553 1204 2497 
Q 953 2441 691 2322 
L 691 4666 
z
" transform="scale(0.015625)"/>
       </defs>
       <use xlink:href="#DejaVuSans-30"/>
       <use xlink:href="#DejaVuSans-2e" x="63.623047"/>
       <use xlink:href="#DejaVuSans-35" x="95.410156"/>
      </g>
     </g>
    </g>
   </g>
   <g id="matplotlib.axis_2">
    <g id="ytick_1">
     <g id="line2d_7">
      <defs>
       <path id="m102a5cc3f2" d="M 0 0 
L -3.5 0 
" style="stroke: #000000; stroke-width: 0.8"/>
      </defs>
      <g>
       <use xlink:href="#m102a5cc3f2" x="26.925" y="276.351287" style="stroke: #000000; stroke-width: 0.8"/>
      </g>
     </g>
     <g id="text_7">
      <!-- 0 -->
      <g transform="translate(13.5625 280.150506)scale(0.1 -0.1)">
       <use xlink:href="#DejaVuSans-30"/>
      </g>
     </g>
    </g>
    <g id="ytick_2">
     <g id="line2d_8">
      <g>
       <use xlink:href="#m102a5cc3f2" x="26.925" y="245.048943" style="stroke: #000000; stroke-width: 0.8"/>
      </g>
     </g>
     <g id="text_8">
      <!-- 2 -->
      <g transform="translate(13.5625 248.848162)scale(0.1 -0.1)">
       <use xlink:href="#DejaVuSans-32"/>
      </g>
     </g>
    </g>
    <g id="ytick_3">
     <g id="line2d_9">
      <g>
       <use xlink:href="#m102a5cc3f2" x="26.925" y="213.7466" style="stroke: #000000; stroke-width: 0.8"/>
      </g>
     </g>
     <g id="text_9">
      <!-- 4 -->
      <g transform="translate(13.5625 217.545819)scale(0.1 -0.1)">
       <use xlink:href="#DejaVuSans-34"/>
      </g>
     </g>
    </g>
    <g id="ytick_4">
     <g id="line2d_10">
      <g>
       <use xlink:href="#m102a5cc3f2" x="26.925" y="182.444256" style="stroke: #000000; stroke-width: 0.8"/>
      </g>
     </g>
     <g id="text_10">
      <!-- 6 -->
      <g transform="translate(13.5625 186.243475)scale(0.1 -0.1)">
       <defs>
        <path id="DejaVuSans-36" d="M 2113 2584 
Q 1688 2584 1439 2293 
Q 1191 2003 1191 1497 
Q 1191 994 1439 701 
Q 1688 409 2113 409 
Q 2538 409 2786 701 
Q 3034 994 3034 1497 
Q 3034 2003 2786 2293 
Q 2538 2584 2113 2584 
z
M 3366 4563 
L 3366 3988 
Q 3128 4100 2886 4159 
Q 2644 4219 2406 4219 
Q 1781 4219 1451 3797 
Q 1122 3375 1075 2522 
Q 1259 2794 1537 2939 
Q 1816 3084 2150 3084 
Q 2853 3084 3261 2657 
Q 3669 2231 3669 1497 
Q 3669 778 3244 343 
Q 2819 -91 2113 -91 
Q 1303 -91 875 529 
Q 447 1150 447 2328 
Q 447 3434 972 4092 
Q 1497 4750 2381 4750 
Q 2619 4750 2861 4703 
Q 3103 4656 3366 4563 
z
" transform="scale(0.015625)"/>
       </defs>
       <use xlink:href="#DejaVuSans-36"/>
      </g>
     </g>
    </g>
    <g id="ytick_5">
     <g id="line2d_11">
      <g>
       <use xlink:href="#m102a5cc3f2" x="26.925" y="151.141913" style="stroke: #000000; stroke-width: 0.8"/>
      </g>
     </g>
     <g id="text_11">
      <!-- 8 -->
      <g transform="translate(13.5625 154.941132)scale(0.1 -0.1)">
       <defs>
        <path id="DejaVuSans-38" d="M 2034 2216 
Q 1584 2216 1326 1975 
Q 1069 1734 1069 1313 
Q 1069 891 1326 650 
Q 1584 409 2034 409 
Q 2484 409 2743 651 
Q 3003 894 3003 1313 
Q 3003 1734 2745 1975 
Q 2488 2216 2034 2216 
z
M 1403 2484 
Q 997 2584 770 2862 
Q 544 3141 544 3541 
Q 544 4100 942 4425 
Q 1341 4750 2034 4750 
Q 2731 4750 3128 4425 
Q 3525 4100 3525 3541 
Q 3525 3141 3298 2862 
Q 3072 2584 2669 2484 
Q 3125 2378 3379 2068 
Q 3634 1759 3634 1313 
Q 3634 634 3220 271 
Q 2806 -91 2034 -91 
Q 1263 -91 848 271 
Q 434 634 434 1313 
Q 434 1759 690 2068 
Q 947 2378 1403 2484 
z
M 1172 3481 
Q 1172 3119 1398 2916 
Q 1625 2713 2034 2713 
Q 2441 2713 2670 2916 
Q 2900 3119 2900 3481 
Q 2900 3844 2670 4047 
Q 2441 4250 2034 4250 
Q 1625 4250 1398 4047 
Q 1172 3844 1172 3481 
z
" transform="scale(0.015625)"/>
       </defs>
       <use xlink:href="#DejaVuSans-38"/>
      </g>
     </g>
    </g>
    <g id="ytick_6">
     <g id="line2d_12">
      <g>
       <use xlink:href="#m102a5cc3f2" x="26.925" y="119.83957" style="stroke: #000000; stroke-width: 0.8"/>
      </g>
     </g>
     <g id="text_12">
      <!-- 10 -->
      <g transform="translate(7.2 123.638788)scale(0.1 -0.1)">
       <use xlink:href="#DejaVuSans-31"/>
       <use xlink:href="#DejaVuSans-30" x="63.623047"/>
      </g>
     </g>
    </g>
    <g id="ytick_7">
     <g id="line2d_13">
      <g>
       <use xlink:href="#m102a5cc3f2" x="26.925" y="88.537226" style="stroke: #000000; stroke-width: 0.8"/>
      </g>
     </g>
     <g id="text_13">
      <!-- 12 -->
      <g transform="translate(7.2 92.336445)scale(0.1 -0.1)">
       <use xlink:href="#DejaVuSans-31"/>
       <use xlink:href="#DejaVuSans-32" x="63.623047"/>
      </g>
     </g>
    </g>
    <g id="ytick_8">
     <g id="line2d_14">
      <g>
       <use xlink:href="#m102a5cc3f2" x="26.925" y="57.234883" style="stroke: #000000; stroke-width: 0.8"/>
      </g>
     </g>
     <g id="text_14">
      <!-- 14 -->
      <g transform="translate(7.2 61.034101)scale(0.1 -0.1)">
       <use xlink:href="#DejaVuSans-31"/>
       <use xlink:href="#DejaVuSans-34" x="63.623047"/>
      </g>
     </g>
    </g>
    <g id="ytick_9">
     <g id="line2d_15">
      <g>
       <use xlink:href="#m102a5cc3f2" x="26.925" y="25.932539" style="stroke: #000000; stroke-width: 0.8"/>
      </g>
     </g>
     <g id="text_15">
      <!-- 16 -->
      <g transform="translate(7.2 29.731758)scale(0.1 -0.1)">
       <use xlink:href="#DejaVuSans-31"/>
       <use xlink:href="#DejaVuSans-36" x="63.623047"/>
      </g>
     </g>
    </g>
   </g>
   <g id="line2d_16">
    <path d="M 43.157727 254.982528 
L 43.808338 251.997718 
L 44.458948 240.145459 
L 45.109558 182.061963 
L 45.760169 232.746598 
L 46.410779 263.672898 
L 47.061389 257.444176 
L 48.36261 196.513675 
L 49.01322 262.010533 
L 49.66383 274.628259 
L 50.314441 272.130287 
L 50.965051 273.744866 
L 51.615661 269.330359 
L 52.266272 237.136403 
L 52.916882 273.005064 
L 53.567492 246.534876 
L 54.218103 245.639147 
L 54.868713 238.730572 
L 55.519323 233.42626 
L 56.169934 275.271928 
L 56.820544 261.202618 
L 57.471154 236.17137 
L 58.121764 250.673097 
L 58.772375 249.714837 
L 59.422985 266.549442 
L 60.073595 275.801002 
L 60.724206 259.802951 
L 61.374816 228.249156 
L 62.025426 272.968084 
L 62.676037 274.750403 
L 63.326647 244.273786 
L 63.977257 262.448386 
L 64.627868 257.616593 
L 65.278478 271.362662 
L 65.929088 275.643008 
L 66.579698 203.6742 
L 67.230309 223.813487 
L 67.880919 253.601425 
L 68.531529 223.992011 
L 69.18214 223.439251 
L 69.83275 256.338912 
L 70.48336 130.863951 
L 71.133971 257.942584 
L 71.784581 268.097717 
L 72.435191 254.554885 
L 73.085802 273.795302 
L 73.736412 247.571315 
L 74.387022 272.164085 
L 75.037633 161.836573 
L 75.688243 190.70504 
L 76.989463 275.355082 
L 77.640074 198.871814 
L 78.290684 276.153907 
L 78.941294 255.584455 
L 79.591905 242.268308 
L 80.242515 216.622513 
L 80.893125 265.621794 
L 81.543736 205.488461 
L 82.194346 246.41978 
L 82.844956 272.774724 
L 83.495567 191.096019 
L 84.146177 189.625851 
L 84.796787 258.6924 
L 85.447398 254.25179 
L 86.098008 255.50742 
L 86.748618 259.705363 
L 87.399228 254.954412 
L 88.049839 225.55195 
L 88.700449 237.91945 
L 89.351059 227.923685 
L 90.00167 271.043321 
L 91.30289 183.76317 
L 91.953501 275.940926 
L 92.604111 218.613076 
L 93.254721 236.651352 
L 93.905332 105.048699 
L 94.555942 265.600604 
L 95.206552 269.797378 
L 95.857163 256.167379 
L 96.507773 222.009628 
L 97.158383 231.183339 
L 97.808993 261.348695 
L 98.459604 256.660212 
L 99.110214 271.51503 
L 99.760824 242.175241 
L 100.411435 256.455202 
L 101.062045 274.88815 
L 101.712655 155.75182 
L 102.363266 238.957795 
L 103.013876 195.234938 
L 103.664486 258.987463 
L 104.315097 192.373728 
L 104.965707 217.507344 
L 105.616317 274.238257 
L 106.266927 209.064776 
L 106.917538 267.479335 
L 107.568148 267.865815 
L 108.218758 272.218451 
L 108.869369 208.956977 
L 109.519979 253.094797 
L 110.170589 247.158043 
L 110.8212 270.690488 
L 111.47181 211.046264 
L 112.12242 265.294591 
L 112.773031 200.908023 
L 113.423641 275.991426 
L 114.074251 269.508129 
L 114.724862 168.455896 
L 115.375472 177.08003 
L 116.026082 249.94018 
L 116.676692 214.835596 
L 117.327303 261.797078 
L 117.977913 265.757873 
L 118.628523 254.846936 
L 119.279134 254.174208 
L 119.929744 276.334125 
L 120.580354 209.474758 
L 121.230965 268.947066 
L 121.881575 271.25535 
L 122.532185 233.482877 
L 123.182796 252.558377 
L 123.833406 263.900125 
L 124.484016 215.098827 
L 125.134627 193.230999 
L 125.785237 254.348154 
L 126.435847 223.787277 
L 127.086457 246.580211 
L 127.737068 229.627734 
L 128.387678 222.369887 
L 129.038288 227.069807 
L 129.688899 275.201927 
L 130.339509 266.781341 
L 130.990119 254.563308 
L 131.64073 261.395735 
L 132.29134 259.636577 
L 132.94195 217.365579 
L 133.592561 273.015589 
L 134.893781 178.875103 
L 135.544392 250.271718 
L 136.195002 256.782251 
L 136.845612 233.832446 
L 137.496222 247.69045 
L 138.146833 237.594099 
L 138.797443 236.786379 
L 139.448053 275.861846 
L 140.098664 252.148645 
L 140.749274 259.301142 
L 141.399884 259.134429 
L 142.050495 275.794227 
L 142.701105 273.799957 
L 143.351715 264.283102 
L 144.002326 243.700156 
L 144.652936 273.683766 
L 145.303546 271.935369 
L 145.954156 274.092261 
L 146.604767 261.222707 
L 147.255377 261.382305 
L 147.905987 273.719464 
L 148.556598 267.080995 
L 149.207208 246.405223 
L 149.857818 256.168096 
L 150.508429 274.699424 
L 151.159039 240.076054 
L 151.809649 181.9499 
L 152.46026 247.780632 
L 153.11087 102.786741 
L 153.76148 238.779227 
L 154.412091 240.616561 
L 155.062701 259.37219 
L 155.713311 257.902295 
L 156.363921 271.747505 
L 157.014532 230.116354 
L 157.665142 177.236022 
L 158.315752 258.787683 
L 158.966363 233.24659 
L 159.616973 274.879253 
L 160.267583 263.455608 
L 160.918194 276.180286 
L 161.568804 267.17784 
L 162.219414 256.198854 
L 162.870025 276.14149 
L 163.520635 267.212568 
L 164.171245 270.872791 
L 164.821856 192.60409 
L 165.472466 246.397263 
L 166.123076 247.567223 
L 166.773686 228.324668 
L 167.424297 262.062403 
L 168.074907 252.777518 
L 168.725517 259.689358 
L 169.376128 273.590098 
L 170.026738 268.770995 
L 170.677348 273.317626 
L 171.327959 268.759123 
L 171.978569 276.093483 
L 172.629179 250.365479 
L 173.27979 266.850066 
L 173.9304 232.167041 
L 174.58101 253.100755 
L 175.231621 261.562111 
L 175.882231 272.49655 
L 176.532841 264.763949 
L 177.183451 268.490899 
L 177.834062 268.617358 
L 178.484672 217.57475 
L 179.785893 274.944088 
L 180.436503 229.355107 
L 181.087113 261.033871 
L 181.737724 272.278482 
L 182.388334 247.930284 
L 183.038944 253.818363 
L 183.689555 269.678179 
L 184.340165 251.322958 
L 184.990775 276.029634 
L 185.641385 233.173803 
L 186.291996 265.936804 
L 186.942606 276.170067 
L 187.593216 209.493849 
L 188.243827 270.303679 
L 188.894437 244.961383 
L 189.545047 235.78901 
L 190.195658 270.288952 
L 190.846268 243.193681 
L 191.496878 259.368441 
L 192.147489 259.156198 
L 192.798099 250.954392 
L 193.448709 276.316291 
L 194.09932 257.07004 
L 194.74993 274.748648 
L 195.40054 252.954622 
L 196.05115 256.031211 
L 196.701761 275.721913 
L 197.352371 266.936591 
L 198.002981 238.117028 
L 198.653592 237.665054 
L 199.304202 273.144504 
L 199.954812 125.914269 
L 200.605423 256.459753 
L 201.256033 267.989213 
L 201.906643 194.522791 
L 202.557254 245.860657 
L 203.207864 264.585393 
L 203.858474 269.710807 
L 204.509085 253.804004 
L 205.159695 257.969641 
L 205.810305 266.275967 
L 206.460915 276.30753 
L 207.111526 270.583056 
L 207.762136 242.610846 
L 208.412746 272.684767 
L 209.063357 275.011491 
L 210.364577 259.117736 
L 211.015188 202.057632 
L 211.665798 249.514966 
L 212.316408 274.540085 
L 212.967019 264.526285 
L 213.617629 226.952783 
L 214.268239 261.476782 
L 214.91885 273.854501 
L 215.56946 240.08924 
L 216.22007 231.90718 
L 216.87068 256.286205 
L 217.521291 246.877906 
L 218.171901 271.309181 
L 218.822511 246.580381 
L 219.473122 272.620921 
L 220.123732 248.380317 
L 220.774342 268.603788 
L 221.424953 233.403446 
L 222.075563 163.626241 
L 222.726173 270.545899 
L 223.376784 188.785348 
L 224.027394 260.228204 
L 224.678004 247.542014 
L 225.328615 246.556466 
L 225.979225 236.4756 
L 226.629835 232.596783 
L 227.280445 262.429809 
L 227.931056 249.648959 
L 228.581666 267.77627 
L 229.232276 255.49864 
L 229.882887 267.134432 
L 230.533497 272.206993 
L 231.184107 250.410487 
L 231.834718 248.536534 
L 232.485328 254.736106 
L 233.135938 252.836021 
L 233.786549 269.560156 
L 234.437159 244.558286 
L 235.087769 253.985181 
L 235.738379 258.817001 
L 236.38899 260.748799 
L 237.0396 258.045602 
L 237.69021 268.476134 
L 238.340821 274.230876 
L 238.991431 220.276425 
L 239.642041 250.642533 
L 240.292652 248.654083 
L 240.943262 223.963796 
L 241.593872 275.090577 
L 242.244483 256.424235 
L 242.895093 273.201276 
L 243.545703 237.222497 
L 244.196314 275.869207 
L 244.846924 254.153617 
L 245.497534 260.983955 
L 246.148144 263.284043 
L 246.798755 258.701139 
L 247.449365 240.366143 
L 248.099975 137.055931 
L 248.750586 273.091825 
L 249.401196 169.874115 
L 250.051806 234.162849 
L 250.702417 263.830879 
L 251.353027 259.592026 
L 252.003637 274.767297 
L 252.654248 260.135302 
L 253.304858 273.32167 
L 253.955468 252.771658 
L 254.606079 276.160146 
L 255.256689 267.314069 
L 255.907299 252.664704 
L 256.557909 271.299485 
L 257.20852 142.512598 
L 257.85913 251.677454 
L 258.50974 270.917164 
L 259.160351 230.213623 
L 259.810961 264.138972 
L 260.461571 264.724862 
L 261.112182 241.605772 
L 261.762792 269.870748 
L 262.413402 248.231193 
L 263.064013 250.253386 
L 263.714623 257.827676 
L 264.365233 260.276937 
L 265.015844 266.062024 
L 265.666454 264.172815 
L 266.317064 271.938868 
L 266.967674 229.531983 
L 267.618285 269.61123 
L 268.268895 267.29817 
L 268.919505 275.517201 
L 269.570116 273.393708 
L 270.220726 226.35367 
L 270.871336 261.578338 
L 271.521947 269.96715 
L 272.172557 276.172262 
L 272.823167 200.415213 
L 273.473778 270.208007 
L 274.124388 262.823859 
L 274.774998 273.91532 
L 275.425608 261.53107 
L 276.076219 253.207562 
L 276.726829 240.810368 
L 277.377439 253.325452 
L 278.02805 254.9315 
L 278.67866 206.504863 
L 279.32927 265.931033 
L 279.979881 264.681627 
L 280.630491 246.139068 
L 281.281101 244.551313 
L 281.931712 114.254274 
L 282.582322 269.351984 
L 283.232932 262.379041 
L 283.883543 256.763186 
L 284.534153 270.259174 
L 285.184763 270.802678 
L 285.835373 274.70514 
L 286.485984 269.738557 
L 287.136594 253.11385 
L 287.787204 269.680219 
L 288.437815 225.435943 
L 289.088425 264.746913 
L 289.739035 206.489151 
L 290.389646 268.869493 
L 291.040256 217.002946 
L 291.690866 272.529633 
L 292.341477 202.232983 
L 292.992087 226.553803 
L 293.642697 208.035423 
L 294.293308 256.012847 
L 294.943918 270.045732 
L 295.594528 270.648009 
L 296.245138 250.683837 
L 297.546359 263.075862 
L 298.196969 248.106149 
L 299.49819 266.395563 
L 300.1488 249.91222 
L 300.799411 267.846667 
L 301.450021 272.358064 
L 302.100631 263.894888 
L 302.751242 273.09984 
L 303.401852 255.208672 
L 304.052462 252.336457 
L 304.703073 214.494768 
L 305.353683 218.950376 
L 306.004293 270.417569 
L 306.654903 221.760101 
L 307.305514 256.215313 
L 307.956124 260.724642 
L 308.606734 139.55187 
L 309.257345 244.518618 
L 309.907955 269.654236 
L 310.558565 262.156783 
L 311.859786 212.260546 
L 312.510396 275.386517 
L 313.161007 228.23944 
L 313.811617 265.714586 
L 314.462227 216.034644 
L 315.112837 266.015063 
L 315.763448 262.886678 
L 316.414058 195.920196 
L 317.064668 239.762303 
L 317.715279 231.515062 
L 318.365889 275.965005 
L 319.016499 197.461832 
L 319.66711 256.932775 
L 320.31772 275.422638 
L 320.96833 264.902415 
L 321.618941 273.280172 
L 322.269551 259.494958 
L 322.920161 273.290502 
L 323.570772 243.941604 
L 324.221382 227.237586 
L 324.871992 236.227911 
L 325.522602 217.005931 
L 326.173213 242.370935 
L 326.823823 216.814207 
L 327.474433 166.072626 
L 328.125044 236.032297 
L 328.775654 151.577873 
L 329.426264 218.302825 
L 330.076875 267.497311 
L 330.727485 212.849732 
L 331.378095 247.812225 
L 332.028706 235.018381 
L 332.679316 273.989882 
L 333.329926 248.551816 
L 333.980537 250.455894 
L 334.631147 230.686096 
L 335.281757 239.529065 
L 335.932367 262.371324 
L 336.582978 268.21876 
L 337.233588 258.48336 
L 337.884198 276.045985 
L 338.534809 263.656626 
L 339.185419 243.874351 
L 339.836029 270.233851 
L 340.48664 200.88017 
L 341.13725 258.508759 
L 341.78786 244.875025 
L 342.438471 266.747294 
L 343.089081 271.417466 
L 343.739691 213.212258 
L 344.390302 268.502632 
L 345.040912 275.863888 
L 345.691522 246.902024 
L 346.342132 230.639009 
L 346.992743 199.650863 
L 347.643353 270.58515 
L 348.293963 249.318465 
L 348.944574 267.566645 
L 349.595184 258.180993 
L 350.245794 174.186388 
L 350.896405 253.360376 
L 351.547015 267.71613 
L 352.197625 259.177921 
L 352.848236 225.426128 
L 353.498846 251.098155 
L 354.149456 257.365058 
L 354.800066 256.752128 
L 355.450677 267.725343 
L 356.101287 241.305681 
L 356.751897 181.77876 
L 357.402508 253.357117 
L 358.053118 265.59826 
L 358.703728 248.395884 
L 359.354339 221.880835 
L 360.004949 235.883332 
L 360.655559 274.149494 
L 361.30617 267.028103 
L 361.95678 254.536846 
L 362.60739 225.773059 
L 363.258001 218.919741 
L 363.908611 139.032423 
L 364.559221 254.069812 
L 365.209831 250.200634 
L 365.860442 148.746893 
L 366.511052 274.704253 
L 367.161662 273.937862 
L 367.812273 263.905582 
L 367.812273 263.905582 
" clip-path="url(#p14898b4d38)" style="fill: none; stroke: #000000; stroke-width: 1.5; stroke-linecap: square"/>
   </g>
   <g id="line2d_17">
    <path d="M 43.157727 235.584176 
L 43.808338 274.799487 
L 44.458948 204.949329 
L 45.109558 272.171839 
L 45.760169 258.798793 
L 46.410779 239.222192 
L 47.061389 247.68864 
L 47.711999 273.275889 
L 48.36261 258.648931 
L 49.01322 174.499434 
L 49.66383 274.095752 
L 50.314441 253.520291 
L 50.965051 272.552501 
L 51.615661 237.904411 
L 52.266272 266.616504 
L 52.916882 248.475827 
L 53.567492 251.797778 
L 54.218103 273.890157 
L 54.868713 215.709089 
L 55.519323 268.873894 
L 56.169934 217.909928 
L 56.820544 196.223461 
L 57.471154 120.53752 
L 58.121764 228.081001 
L 58.772375 250.05476 
L 59.422985 229.549131 
L 60.073595 263.671786 
L 60.724206 186.339063 
L 61.374816 274.236714 
L 62.025426 259.664724 
L 62.676037 267.053742 
L 63.326647 238.694755 
L 63.977257 244.641899 
L 64.627868 265.278704 
L 65.278478 236.698328 
L 65.929088 224.987063 
L 66.579698 152.686371 
L 67.230309 273.844257 
L 67.880919 262.8081 
L 68.531529 173.208284 
L 69.18214 254.565341 
L 69.83275 238.43497 
L 70.48336 250.773069 
L 71.133971 134.173603 
L 71.784581 246.476872 
L 72.435191 113.343536 
L 73.085802 270.4856 
L 73.736412 271.677417 
L 74.387022 265.869803 
L 75.037633 269.606541 
L 75.688243 268.874753 
L 76.338853 258.209639 
L 76.989463 270.692397 
L 77.640074 254.06335 
L 78.290684 276.164752 
L 78.941294 239.239157 
L 79.591905 210.447408 
L 80.242515 271.832115 
L 81.543736 256.246517 
L 82.194346 184.974678 
L 82.844956 232.929037 
L 83.495567 256.278197 
L 84.146177 268.875611 
L 84.796787 259.117978 
L 85.447398 273.5536 
L 86.098008 147.383552 
L 86.748618 267.974586 
L 87.399228 274.776768 
L 88.049839 211.604423 
L 88.700449 273.854067 
L 89.351059 212.338416 
L 90.00167 262.782946 
L 90.65228 233.018434 
L 91.30289 227.84502 
L 91.953501 168.327913 
L 92.604111 207.546516 
L 93.254721 272.980402 
L 93.905332 206.270417 
L 95.206552 231.881521 
L 95.857163 231.558449 
L 96.507773 265.970992 
L 97.158383 256.729718 
L 97.808993 208.291856 
L 98.459604 217.250584 
L 99.110214 231.56397 
L 99.760824 187.544279 
L 100.411435 239.627048 
L 101.712655 259.701983 
L 102.363266 249.211136 
L 103.013876 229.158406 
L 103.664486 269.299028 
L 104.315097 205.890808 
L 104.965707 258.924513 
L 105.616317 264.738719 
L 106.266927 172.083332 
L 106.917538 272.260655 
L 107.568148 253.418231 
L 108.218758 260.908463 
L 108.869369 274.486948 
L 109.519979 275.994608 
L 110.170589 212.106717 
L 110.8212 250.895867 
L 111.47181 258.321003 
L 112.12242 224.266874 
L 112.773031 263.720845 
L 113.423641 271.398308 
L 114.074251 200.232621 
L 114.724862 271.826204 
L 115.375472 268.327974 
L 116.026082 272.426566 
L 116.676692 265.039992 
L 117.327303 182.884719 
L 117.977913 256.364657 
L 118.628523 272.007041 
L 119.279134 275.915275 
L 119.929744 249.222647 
L 120.580354 256.511774 
L 121.230965 272.644233 
L 121.881575 275.201345 
L 122.532185 275.726139 
L 123.182796 244.521232 
L 123.833406 224.119937 
L 124.484016 219.862683 
L 125.134627 268.485061 
L 125.785237 183.070792 
L 126.435847 198.716583 
L 127.086457 269.618412 
L 127.737068 167.229489 
L 128.387678 261.783576 
L 129.038288 256.325472 
L 130.339509 263.730989 
L 130.990119 245.168684 
L 131.64073 272.761921 
L 132.29134 266.014282 
L 132.94195 231.667714 
L 133.592561 121.213609 
L 134.243171 220.921853 
L 134.893781 276.304337 
L 135.544392 226.968852 
L 136.195002 243.921354 
L 136.845612 275.53521 
L 137.496222 263.356558 
L 138.146833 272.306831 
L 138.797443 274.177369 
L 139.448053 263.202537 
L 140.098664 274.179114 
L 140.749274 171.595741 
L 141.399884 262.850376 
L 142.050495 270.382842 
L 142.701105 274.032542 
L 143.351715 234.324849 
L 144.002326 256.423191 
L 144.652936 271.97574 
L 145.303546 261.328417 
L 145.954156 237.09314 
L 146.604767 193.145933 
L 147.255377 252.781073 
L 147.905987 227.217797 
L 148.556598 272.23629 
L 149.207208 275.868605 
L 149.857818 175.912861 
L 150.508429 245.926324 
L 151.159039 270.027885 
L 151.809649 246.516065 
L 152.46026 269.836768 
L 153.11087 258.57018 
L 153.76148 257.366459 
L 154.412091 272.234656 
L 155.062701 275.704224 
L 155.713311 247.119976 
L 156.363921 240.358322 
L 157.014532 268.40929 
L 157.665142 225.684246 
L 158.315752 266.75302 
L 158.966363 264.001348 
L 159.616973 247.377173 
L 160.267583 178.848913 
L 160.918194 235.285187 
L 161.568804 274.19752 
L 162.219414 251.096342 
L 162.870025 241.069932 
L 163.520635 221.805262 
L 164.171245 108.802445 
L 164.821856 245.538691 
L 165.472466 255.923616 
L 166.123076 275.41326 
L 166.773686 268.803958 
L 167.424297 267.392689 
L 168.074907 203.940635 
L 168.725517 242.531515 
L 169.376128 234.972697 
L 170.026738 237.17574 
L 170.677348 274.626713 
L 171.327959 240.798859 
L 171.978569 250.296731 
L 172.629179 257.664377 
L 173.27979 269.671595 
L 173.9304 235.231075 
L 174.58101 265.851928 
L 175.231621 259.722182 
L 175.882231 241.779162 
L 176.532841 233.360519 
L 177.183451 261.767718 
L 177.834062 261.914643 
L 178.484672 275.640984 
L 179.135282 241.974861 
L 180.436503 129.802826 
L 181.087113 257.216002 
L 181.737724 207.783013 
L 182.388334 257.316146 
L 183.038944 264.210867 
L 183.689555 199.909027 
L 184.340165 226.390903 
L 184.990775 242.569955 
L 185.641385 251.1211 
L 186.291996 174.580954 
L 186.942606 274.542697 
L 187.593216 171.989192 
L 188.243827 150.198597 
L 188.894437 270.404824 
L 189.545047 268.022816 
L 190.195658 269.348881 
L 190.846268 34.414125 
L 191.496878 252.88022 
L 192.147489 273.596658 
L 192.798099 202.163806 
L 193.448709 257.545719 
L 194.09932 252.090248 
L 194.74993 187.871443 
L 196.05115 275.243363 
L 196.701761 130.07693 
L 197.352371 250.124276 
L 198.002981 269.362755 
L 198.653592 226.023801 
L 199.304202 233.786746 
L 199.954812 228.472941 
L 200.605423 267.523298 
L 201.256033 271.768382 
L 201.906643 274.630896 
L 202.557254 246.837179 
L 203.207864 224.334771 
L 203.858474 245.211709 
L 204.509085 224.327432 
L 205.159695 249.265242 
L 205.810305 239.685237 
L 206.460915 221.834741 
L 207.111526 269.776848 
L 207.762136 226.117076 
L 208.412746 273.102849 
L 209.063357 159.943706 
L 209.713967 199.66247 
L 210.364577 265.972683 
L 211.015188 273.788131 
L 211.665798 234.250429 
L 212.316408 253.016461 
L 212.967019 251.854794 
L 213.617629 235.170778 
L 214.268239 250.40055 
L 214.91885 274.287156 
L 215.56946 246.861261 
L 216.22007 255.516069 
L 216.87068 232.143339 
L 217.521291 248.128846 
L 218.171901 268.259066 
L 218.822511 250.62907 
L 219.473122 255.443574 
L 220.123732 275.167216 
L 220.774342 249.71092 
L 221.424953 179.644771 
L 222.075563 274.637168 
L 222.726173 233.333624 
L 223.376784 249.021596 
L 224.027394 231.05619 
L 224.678004 245.327741 
L 225.328615 137.559961 
L 225.979225 253.255178 
L 226.629835 147.184056 
L 227.280445 258.460993 
L 227.931056 261.613598 
L 228.581666 268.303938 
L 229.232276 208.949561 
L 229.882887 266.164803 
L 230.533497 181.902142 
L 231.184107 254.553353 
L 231.834718 260.736869 
L 232.485328 256.289402 
L 233.135938 255.79513 
L 233.786549 247.12581 
L 234.437159 245.027847 
L 235.087769 271.538078 
L 235.738379 247.26092 
L 236.38899 272.282867 
L 237.0396 254.559704 
L 237.69021 191.59038 
L 238.340821 265.441688 
L 238.991431 270.647209 
L 239.642041 268.90362 
L 240.292652 258.319883 
L 240.943262 267.050363 
L 242.244483 230.723763 
L 243.545703 262.167374 
L 244.196314 213.288293 
L 244.846924 221.72825 
L 245.497534 265.504146 
L 246.148144 264.895483 
L 246.798755 228.009096 
L 247.449365 269.983008 
L 248.099975 247.214795 
L 248.750586 243.299774 
L 249.401196 263.469862 
L 250.051806 263.695276 
L 250.702417 266.995344 
L 251.353027 236.065802 
L 252.003637 246.053833 
L 252.654248 253.389688 
L 253.304858 264.512256 
L 253.955468 213.483812 
L 254.606079 211.867141 
L 255.256689 232.273812 
L 255.907299 257.324775 
L 256.557909 271.925047 
L 257.20852 260.435855 
L 257.85913 262.572581 
L 258.50974 270.824558 
L 259.160351 237.425364 
L 259.810961 264.505734 
L 260.461571 190.425542 
L 261.112182 255.227381 
L 261.762792 236.46429 
L 262.413402 251.049204 
L 263.064013 271.110123 
L 263.714623 233.946472 
L 264.365233 274.325848 
L 265.015844 259.704744 
L 265.666454 179.311624 
L 266.317064 248.202077 
L 266.967674 256.321198 
L 267.618285 275.819199 
L 268.268895 125.680494 
L 268.919505 221.004279 
L 269.570116 268.327126 
L 270.220726 199.370749 
L 270.871336 244.638001 
L 271.521947 257.428729 
L 272.172557 212.954067 
L 272.823167 71.164051 
L 273.473778 271.516683 
L 274.124388 266.669349 
L 274.774998 258.794498 
L 275.425608 223.107637 
L 276.076219 220.950625 
L 276.726829 246.909894 
L 277.377439 246.804141 
L 278.02805 231.269595 
L 278.67866 116.244844 
L 279.32927 273.014142 
L 279.979881 266.230205 
L 280.630491 268.448173 
L 281.281101 244.663692 
L 281.931712 262.453527 
L 282.582322 263.061313 
L 283.232932 231.957304 
L 283.883543 275.105666 
L 284.534153 267.896206 
L 285.184763 216.49213 
L 285.835373 237.890163 
L 286.485984 212.520131 
L 287.136594 181.113542 
L 287.787204 205.297977 
L 288.437815 257.282601 
L 289.088425 224.204183 
L 289.739035 229.797619 
L 290.389646 255.408765 
L 291.040256 275.176248 
L 291.690866 164.977589 
L 292.341477 271.384266 
L 292.992087 271.683712 
L 293.642697 268.025415 
L 294.293308 224.586852 
L 294.943918 250.684416 
L 295.594528 247.324304 
L 296.245138 275.045716 
L 296.895749 265.722787 
L 297.546359 254.347812 
L 298.196969 209.328188 
L 298.84758 275.719627 
L 300.1488 243.581897 
L 301.450021 270.186658 
L 302.100631 271.22843 
L 302.751242 270.534127 
L 303.401852 270.109405 
L 304.052462 275.61072 
L 304.703073 264.777992 
L 305.353683 261.166052 
L 306.004293 267.499023 
L 306.654903 254.69386 
L 307.305514 83.734421 
L 307.956124 274.067783 
L 309.257345 229.745105 
L 309.907955 245.277752 
L 310.558565 206.051147 
L 311.209176 200.38275 
L 311.859786 237.096477 
L 312.510396 163.057993 
L 313.161007 275.103552 
L 313.811617 235.928074 
L 314.462227 274.998554 
L 315.763448 260.640082 
L 316.414058 238.65995 
L 317.064668 258.045381 
L 317.715279 270.849805 
L 318.365889 276.191265 
L 319.016499 274.292946 
L 319.66711 250.774585 
L 320.31772 250.509829 
L 320.96833 229.29211 
L 321.618941 269.429094 
L 322.920161 179.740778 
L 323.570772 157.613624 
L 324.221382 244.955603 
L 324.871992 274.693311 
L 325.522602 252.243887 
L 326.173213 254.919868 
L 326.823823 264.352111 
L 327.474433 224.536859 
L 328.125044 268.832901 
L 328.775654 273.861672 
L 329.426264 275.64539 
L 330.076875 264.912696 
L 330.727485 259.487391 
L 331.378095 265.118171 
L 332.679316 226.070198 
L 333.329926 275.622739 
L 333.980537 268.344556 
L 334.631147 167.326982 
L 335.281757 193.206131 
L 335.932367 276.331186 
L 336.582978 257.312944 
L 337.233588 169.182552 
L 337.884198 265.627733 
L 338.534809 265.73665 
L 339.185419 274.841061 
L 339.836029 270.578935 
L 340.48664 258.365541 
L 341.13725 274.282185 
L 341.78786 226.862973 
L 342.438471 269.931832 
L 343.089081 267.941876 
L 343.739691 224.965806 
L 344.390302 256.552458 
L 345.040912 233.548801 
L 345.691522 90.589438 
L 346.342132 271.414852 
L 346.992743 261.413358 
L 347.643353 262.222277 
L 348.293963 215.158581 
L 348.944574 275.280723 
L 349.595184 260.776672 
L 350.245794 265.633217 
L 350.896405 234.504216 
L 351.547015 274.223871 
L 352.197625 113.562103 
L 352.848236 250.639099 
L 353.498846 259.246434 
L 354.149456 269.74368 
L 354.800066 270.481123 
L 355.450677 269.467434 
L 356.101287 264.931598 
L 356.751897 229.258672 
L 357.402508 264.217765 
L 358.053118 219.376896 
L 358.703728 272.207254 
L 359.354339 236.281319 
L 360.004949 272.723774 
L 360.655559 224.514584 
L 361.30617 257.1768 
L 361.95678 148.266276 
L 362.60739 257.522934 
L 363.258001 240.664435 
L 363.908611 202.789157 
L 364.559221 268.639417 
L 365.209831 268.774555 
L 365.860442 256.813151 
L 366.511052 242.439975 
L 367.161662 235.539214 
L 367.812273 237.677977 
L 367.812273 237.677977 
" clip-path="url(#p14898b4d38)" style="fill: none; stroke: #808080; stroke-linecap: square"/>
   </g>
   <g id="patch_3">
    <path d="M 26.925 288.430125 
L 26.925 22.318125 
" style="fill: none; stroke: #000000; stroke-width: 0.8; stroke-linejoin: miter; stroke-linecap: square"/>
   </g>
   <g id="patch_4">
    <path d="M 384.045 288.430125 
L 384.045 22.318125 
" style="fill: none; stroke: #000000; stroke-width: 0.8; stroke-linejoin: miter; stroke-linecap: square"/>
   </g>
   <g id="patch_5">
    <path d="M 26.925 288.430125 
L 384.045 288.430125 
" style="fill: none; stroke: #000000; stroke-width: 0.8; stroke-linejoin: miter; stroke-linecap: square"/>
   </g>
   <g id="patch_6">
    <path d="M 26.925 22.318125 
L 384.045 22.318125 
" style="fill: none; stroke: #000000; stroke-width: 0.8; stroke-linejoin: miter; stroke-linecap: square"/>
   </g>
   <g id="text_16">
    <!-- A = 1, $f_o$ = 0.01 -->
    <g transform="translate(157.845 16.318125)scale(0.12 -0.12)">
     <defs>
      <path id="DejaVuSans-41" d="M 2188 4044 
L 1331 1722 
L 3047 1722 
L 2188 4044 
z
M 1831 4666 
L 2547 4666 
L 4325 0 
L 3669 0 
L 3244 1197 
L 1141 1197 
L 716 0 
L 50 0 
L 1831 4666 
z
" transform="scale(0.015625)"/>
      <path id="DejaVuSans-20" transform="scale(0.015625)"/>
      <path id="DejaVuSans-3d" d="M 678 2906 
L 4684 2906 
L 4684 2381 
L 678 2381 
L 678 2906 
z
M 678 1631 
L 4684 1631 
L 4684 1100 
L 678 1100 
L 678 1631 
z
" transform="scale(0.015625)"/>
      <path id="DejaVuSans-2c" d="M 750 794 
L 1409 794 
L 1409 256 
L 897 -744 
L 494 -744 
L 750 256 
L 750 794 
z
" transform="scale(0.015625)"/>
      <path id="DejaVuSans-Oblique-66" d="M 3059 4863 
L 2969 4384 
L 2419 4384 
Q 2106 4384 1964 4261 
Q 1822 4138 1753 3809 
L 1691 3500 
L 2638 3500 
L 2553 3053 
L 1606 3053 
L 1013 0 
L 434 0 
L 1031 3053 
L 481 3053 
L 563 3500 
L 1113 3500 
L 1159 3744 
Q 1278 4363 1576 4613 
Q 1875 4863 2516 4863 
L 3059 4863 
z
" transform="scale(0.015625)"/>
      <path id="DejaVuSans-Oblique-6f" d="M 1625 -91 
Q 1009 -91 651 289 
Q 294 669 294 1325 
Q 294 1706 417 2101 
Q 541 2497 738 2766 
Q 1047 3184 1428 3384 
Q 1809 3584 2291 3584 
Q 2888 3584 3255 3212 
Q 3622 2841 3622 2241 
Q 3622 1825 3500 1412 
Q 3378 1000 3181 728 
Q 2875 309 2494 109 
Q 2113 -91 1625 -91 
z
M 891 1344 
Q 891 869 1089 633 
Q 1288 397 1691 397 
Q 2269 397 2648 901 
Q 3028 1406 3028 2181 
Q 3028 2634 2825 2865 
Q 2622 3097 2228 3097 
Q 1903 3097 1650 2945 
Q 1397 2794 1197 2484 
Q 1050 2253 970 1956 
Q 891 1659 891 1344 
z
" transform="scale(0.015625)"/>
     </defs>
     <use xlink:href="#DejaVuSans-41" transform="translate(0 0.015625)"/>
     <use xlink:href="#DejaVuSans-20" transform="translate(68.408203 0.015625)"/>
     <use xlink:href="#DejaVuSans-3d" transform="translate(100.195312 0.015625)"/>
     <use xlink:href="#DejaVuSans-20" transform="translate(183.984375 0.015625)"/>
     <use xlink:href="#DejaVuSans-31" transform="translate(215.771484 0.015625)"/>
     <use xlink:href="#DejaVuSans-2c" transform="translate(279.394531 0.015625)"/>
     <use xlink:href="#DejaVuSans-20" transform="translate(311.181641 0.015625)"/>
     <use xlink:href="#DejaVuSans-Oblique-66" transform="translate(342.96875 0.015625)"/>
     <use xlink:href="#DejaVuSans-Oblique-6f" transform="translate(378.173828 -16.390625)scale(0.7)"/>
     <use xlink:href="#DejaVuSans-20" transform="translate(423.735352 0.015625)"/>
     <use xlink:href="#DejaVuSans-3d" transform="translate(455.522461 0.015625)"/>
     <use xlink:href="#DejaVuSans-20" transform="translate(539.311523 0.015625)"/>
     <use xlink:href="#DejaVuSans-30" transform="translate(571.098633 0.015625)"/>
     <use xlink:href="#DejaVuSans-2e" transform="translate(634.72168 0.015625)"/>
     <use xlink:href="#DejaVuSans-30" transform="translate(666.508789 0.015625)"/>
     <use xlink:href="#DejaVuSans-31" transform="translate(730.131836 0.015625)"/>
    </g>
   </g>
   <g id="legend_1">
    <g id="patch_7">
     <path d="M 197.645 61.89625 
L 377.045 61.89625 
Q 379.045 61.89625 379.045 59.89625 
L 379.045 29.318125 
Q 379.045 27.318125 377.045 27.318125 
L 197.645 27.318125 
Q 195.645 27.318125 195.645 29.318125 
L 195.645 59.89625 
Q 195.645 61.89625 197.645 61.89625 
z
" style="fill: #ffffff; opacity: 0.8; stroke: #cccccc; stroke-linejoin: miter"/>
    </g>
    <g id="line2d_18">
     <path d="M 199.645 35.416562 
L 209.645 35.416562 
L 219.645 35.416562 
" style="fill: none; stroke: #000000; stroke-width: 1.5; stroke-linecap: square"/>
    </g>
    <g id="text_17">
     <!-- $I$ for 1000 values from $\mathcal{N}$(0,1) -->
     <g transform="translate(227.645 38.916562)scale(0.1 -0.1)">
      <defs>
       <path id="DejaVuSans-Oblique-49" d="M 1081 4666 
L 1716 4666 
L 806 0 
L 172 0 
L 1081 4666 
z
" transform="scale(0.015625)"/>
       <path id="DejaVuSans-66" d="M 2375 4863 
L 2375 4384 
L 1825 4384 
Q 1516 4384 1395 4259 
Q 1275 4134 1275 3809 
L 1275 3500 
L 2222 3500 
L 2222 3053 
L 1275 3053 
L 1275 0 
L 697 0 
L 697 3053 
L 147 3053 
L 147 3500 
L 697 3500 
L 697 3744 
Q 697 4328 969 4595 
Q 1241 4863 1831 4863 
L 2375 4863 
z
" transform="scale(0.015625)"/>
       <path id="DejaVuSans-6f" d="M 1959 3097 
Q 1497 3097 1228 2736 
Q 959 2375 959 1747 
Q 959 1119 1226 758 
Q 1494 397 1959 397 
Q 2419 397 2687 759 
Q 2956 1122 2956 1747 
Q 2956 2369 2687 2733 
Q 2419 3097 1959 3097 
z
M 1959 3584 
Q 2709 3584 3137 3096 
Q 3566 2609 3566 1747 
Q 3566 888 3137 398 
Q 2709 -91 1959 -91 
Q 1206 -91 779 398 
Q 353 888 353 1747 
Q 353 2609 779 3096 
Q 1206 3584 1959 3584 
z
" transform="scale(0.015625)"/>
       <path id="DejaVuSans-72" d="M 2631 2963 
Q 2534 3019 2420 3045 
Q 2306 3072 2169 3072 
Q 1681 3072 1420 2755 
Q 1159 2438 1159 1844 
L 1159 0 
L 581 0 
L 581 3500 
L 1159 3500 
L 1159 2956 
Q 1341 3275 1631 3429 
Q 1922 3584 2338 3584 
Q 2397 3584 2469 3576 
Q 2541 3569 2628 3553 
L 2631 2963 
z
" transform="scale(0.015625)"/>
       <path id="DejaVuSans-76" d="M 191 3500 
L 800 3500 
L 1894 563 
L 2988 3500 
L 3597 3500 
L 2284 0 
L 1503 0 
L 191 3500 
z
" transform="scale(0.015625)"/>
       <path id="DejaVuSans-61" d="M 2194 1759 
Q 1497 1759 1228 1600 
Q 959 1441 959 1056 
Q 959 750 1161 570 
Q 1363 391 1709 391 
Q 2188 391 2477 730 
Q 2766 1069 2766 1631 
L 2766 1759 
L 2194 1759 
z
M 3341 1997 
L 3341 0 
L 2766 0 
L 2766 531 
Q 2569 213 2275 61 
Q 1981 -91 1556 -91 
Q 1019 -91 701 211 
Q 384 513 384 1019 
Q 384 1609 779 1909 
Q 1175 2209 1959 2209 
L 2766 2209 
L 2766 2266 
Q 2766 2663 2505 2880 
Q 2244 3097 1772 3097 
Q 1472 3097 1187 3025 
Q 903 2953 641 2809 
L 641 3341 
Q 956 3463 1253 3523 
Q 1550 3584 1831 3584 
Q 2591 3584 2966 3190 
Q 3341 2797 3341 1997 
z
" transform="scale(0.015625)"/>
       <path id="DejaVuSans-6c" d="M 603 4863 
L 1178 4863 
L 1178 0 
L 603 0 
L 603 4863 
z
" transform="scale(0.015625)"/>
       <path id="DejaVuSans-75" d="M 544 1381 
L 544 3500 
L 1119 3500 
L 1119 1403 
Q 1119 906 1312 657 
Q 1506 409 1894 409 
Q 2359 409 2629 706 
Q 2900 1003 2900 1516 
L 2900 3500 
L 3475 3500 
L 3475 0 
L 2900 0 
L 2900 538 
Q 2691 219 2414 64 
Q 2138 -91 1772 -91 
Q 1169 -91 856 284 
Q 544 659 544 1381 
z
M 1991 3584 
L 1991 3584 
z
" transform="scale(0.015625)"/>
       <path id="DejaVuSans-65" d="M 3597 1894 
L 3597 1613 
L 953 1613 
Q 991 1019 1311 708 
Q 1631 397 2203 397 
Q 2534 397 2845 478 
Q 3156 559 3463 722 
L 3463 178 
Q 3153 47 2828 -22 
Q 2503 -91 2169 -91 
Q 1331 -91 842 396 
Q 353 884 353 1716 
Q 353 2575 817 3079 
Q 1281 3584 2069 3584 
Q 2775 3584 3186 3129 
Q 3597 2675 3597 1894 
z
M 3022 2063 
Q 3016 2534 2758 2815 
Q 2500 3097 2075 3097 
Q 1594 3097 1305 2825 
Q 1016 2553 972 2059 
L 3022 2063 
z
" transform="scale(0.015625)"/>
       <path id="DejaVuSans-73" d="M 2834 3397 
L 2834 2853 
Q 2591 2978 2328 3040 
Q 2066 3103 1784 3103 
Q 1356 3103 1142 2972 
Q 928 2841 928 2578 
Q 928 2378 1081 2264 
Q 1234 2150 1697 2047 
L 1894 2003 
Q 2506 1872 2764 1633 
Q 3022 1394 3022 966 
Q 3022 478 2636 193 
Q 2250 -91 1575 -91 
Q 1294 -91 989 -36 
Q 684 19 347 128 
L 347 722 
Q 666 556 975 473 
Q 1284 391 1588 391 
Q 1994 391 2212 530 
Q 2431 669 2431 922 
Q 2431 1156 2273 1281 
Q 2116 1406 1581 1522 
L 1381 1569 
Q 847 1681 609 1914 
Q 372 2147 372 2553 
Q 372 3047 722 3315 
Q 1072 3584 1716 3584 
Q 2034 3584 2315 3537 
Q 2597 3491 2834 3397 
z
" transform="scale(0.015625)"/>
       <path id="DejaVuSans-6d" d="M 3328 2828 
Q 3544 3216 3844 3400 
Q 4144 3584 4550 3584 
Q 5097 3584 5394 3201 
Q 5691 2819 5691 2113 
L 5691 0 
L 5113 0 
L 5113 2094 
Q 5113 2597 4934 2840 
Q 4756 3084 4391 3084 
Q 3944 3084 3684 2787 
Q 3425 2491 3425 1978 
L 3425 0 
L 2847 0 
L 2847 2094 
Q 2847 2600 2669 2842 
Q 2491 3084 2119 3084 
Q 1678 3084 1418 2786 
Q 1159 2488 1159 1978 
L 1159 0 
L 581 0 
L 581 3500 
L 1159 3500 
L 1159 2956 
Q 1356 3278 1631 3431 
Q 1906 3584 2284 3584 
Q 2666 3584 2933 3390 
Q 3200 3197 3328 2828 
z
" transform="scale(0.015625)"/>
       <path id="STIXNonUnicode-Italic-e23a" d="M 4294 800 
L 4301 800 
Q 5293 4070 5408 4378 
Q 5472 4538 5523 4614 
Q 5830 5088 6253 5088 
Q 6490 5088 6650 4931 
Q 6810 4774 6810 4550 
Q 6810 4378 6720 4272 
Q 6630 4166 6470 4166 
Q 6368 4166 6297 4224 
Q 6227 4282 6198 4349 
Q 6170 4416 6118 4473 
Q 6067 4531 6003 4531 
Q 5939 4531 5881 4508 
Q 5824 4486 5785 4457 
Q 5747 4429 5705 4371 
Q 5664 4314 5638 4275 
Q 5613 4237 5584 4163 
Q 5555 4090 5545 4058 
Q 5536 4026 5510 3952 
Q 5485 3878 5485 3866 
L 4262 -154 
L 4134 -154 
Q 3078 1280 2483 2893 
L 2470 2893 
Q 2406 2579 2358 2361 
Q 2310 2144 2214 1792 
Q 2118 1440 2028 1190 
Q 1939 941 1804 653 
Q 1670 365 1529 185 
Q 1389 6 1203 -115 
Q 1018 -237 813 -237 
Q 576 -237 416 -80 
Q 256 77 256 301 
Q 256 474 345 579 
Q 435 685 595 685 
Q 698 685 768 627 
Q 838 570 867 502 
Q 896 435 947 377 
Q 998 320 1062 320 
Q 1222 320 1369 480 
Q 1517 640 1638 928 
Q 1760 1216 1862 1542 
Q 1965 1869 2057 2288 
Q 2150 2707 2214 3033 
Q 2278 3360 2348 3741 
Q 2419 4122 2458 4294 
L 2630 4294 
Q 2682 4166 2874 3680 
Q 3066 3194 3142 3008 
Q 3219 2822 3392 2422 
Q 3565 2022 3683 1798 
Q 3802 1574 3968 1292 
Q 4134 1011 4294 800 
z
" transform="scale(0.015625)"/>
       <path id="DejaVuSans-28" d="M 1984 4856 
Q 1566 4138 1362 3434 
Q 1159 2731 1159 2009 
Q 1159 1288 1364 580 
Q 1569 -128 1984 -844 
L 1484 -844 
Q 1016 -109 783 600 
Q 550 1309 550 2009 
Q 550 2706 781 3412 
Q 1013 4119 1484 4856 
L 1984 4856 
z
" transform="scale(0.015625)"/>
       <path id="DejaVuSans-29" d="M 513 4856 
L 1013 4856 
Q 1481 4119 1714 3412 
Q 1947 2706 1947 2009 
Q 1947 1309 1714 600 
Q 1481 -109 1013 -844 
L 513 -844 
Q 928 -128 1133 580 
Q 1338 1288 1338 2009 
Q 1338 2731 1133 3434 
Q 928 4138 513 4856 
z
" transform="scale(0.015625)"/>
      </defs>
      <use xlink:href="#DejaVuSans-Oblique-49" transform="translate(0 0.5)"/>
      <use xlink:href="#DejaVuSans-20" transform="translate(29.492188 0.5)"/>
      <use xlink:href="#DejaVuSans-66" transform="translate(61.279297 0.5)"/>
      <use xlink:href="#DejaVuSans-6f" transform="translate(96.484375 0.5)"/>
      <use xlink:href="#DejaVuSans-72" transform="translate(157.666016 0.5)"/>
      <use xlink:href="#DejaVuSans-20" transform="translate(198.779297 0.5)"/>
      <use xlink:href="#DejaVuSans-31" transform="translate(230.566406 0.5)"/>
      <use xlink:href="#DejaVuSans-30" transform="translate(294.189453 0.5)"/>
      <use xlink:href="#DejaVuSans-30" transform="translate(357.8125 0.5)"/>
      <use xlink:href="#DejaVuSans-30" transform="translate(421.435547 0.5)"/>
      <use xlink:href="#DejaVuSans-20" transform="translate(485.058594 0.5)"/>
      <use xlink:href="#DejaVuSans-76" transform="translate(516.845703 0.5)"/>
      <use xlink:href="#DejaVuSans-61" transform="translate(576.025391 0.5)"/>
      <use xlink:href="#DejaVuSans-6c" transform="translate(637.304688 0.5)"/>
      <use xlink:href="#DejaVuSans-75" transform="translate(665.087891 0.5)"/>
      <use xlink:href="#DejaVuSans-65" transform="translate(728.466797 0.5)"/>
      <use xlink:href="#DejaVuSans-73" transform="translate(789.990234 0.5)"/>
      <use xlink:href="#DejaVuSans-20" transform="translate(842.089844 0.5)"/>
      <use xlink:href="#DejaVuSans-66" transform="translate(873.876953 0.5)"/>
      <use xlink:href="#DejaVuSans-72" transform="translate(909.082031 0.5)"/>
      <use xlink:href="#DejaVuSans-6f" transform="translate(950.195312 0.5)"/>
      <use xlink:href="#DejaVuSans-6d" transform="translate(1011.376953 0.5)"/>
      <use xlink:href="#DejaVuSans-20" transform="translate(1108.789062 0.5)"/>
      <use xlink:href="#STIXNonUnicode-Italic-e23a" transform="translate(1140.576172 0.5)"/>
      <use xlink:href="#DejaVuSans-28" transform="translate(1236.276154 0.5)"/>
      <use xlink:href="#DejaVuSans-30" transform="translate(1275.289825 0.5)"/>
      <use xlink:href="#DejaVuSans-2c" transform="translate(1338.912872 0.5)"/>
      <use xlink:href="#DejaVuSans-31" transform="translate(1370.699982 0.5)"/>
      <use xlink:href="#DejaVuSans-29" transform="translate(1434.323029 0.5)"/>
     </g>
    </g>
    <g id="line2d_19">
     <path d="M 199.645 51.59625 
L 209.645 51.59625 
L 219.645 51.59625 
" style="fill: none; stroke: #808080; stroke-linecap: square"/>
    </g>
    <g id="text_18">
     <!-- Values from $\chi_2^2$ -->
     <g transform="translate(227.645 55.09625)scale(0.1 -0.1)">
      <defs>
       <path id="DejaVuSans-56" d="M 1831 0 
L 50 4666 
L 709 4666 
L 2188 738 
L 3669 4666 
L 4325 4666 
L 2547 0 
L 1831 0 
z
" transform="scale(0.015625)"/>
       <path id="DejaVuSans-Oblique-3c7" d="M 1922 -781 
L 1691 416 
L 394 -1334 
L -284 -1334 
L 1553 1141 
L 1269 2613 
Q 1194 3006 713 3006 
L 559 3006 
L 653 3500 
L 872 3494 
Q 1675 3472 1775 2950 
L 2006 1753 
L 3303 3503 
L 3981 3503 
L 2144 1028 
L 2428 -444 
Q 2503 -838 2984 -838 
L 3138 -838 
L 3044 -1331 
L 2825 -1325 
Q 2022 -1303 1922 -781 
z
" transform="scale(0.015625)"/>
      </defs>
      <use xlink:href="#DejaVuSans-56" transform="translate(0 0.765625)"/>
      <use xlink:href="#DejaVuSans-61" transform="translate(68.408203 0.765625)"/>
      <use xlink:href="#DejaVuSans-6c" transform="translate(129.6875 0.765625)"/>
      <use xlink:href="#DejaVuSans-75" transform="translate(157.470703 0.765625)"/>
      <use xlink:href="#DejaVuSans-65" transform="translate(220.849609 0.765625)"/>
      <use xlink:href="#DejaVuSans-73" transform="translate(282.373047 0.765625)"/>
      <use xlink:href="#DejaVuSans-20" transform="translate(334.472656 0.765625)"/>
      <use xlink:href="#DejaVuSans-66" transform="translate(366.259766 0.765625)"/>
      <use xlink:href="#DejaVuSans-72" transform="translate(401.464844 0.765625)"/>
      <use xlink:href="#DejaVuSans-6f" transform="translate(442.578125 0.765625)"/>
      <use xlink:href="#DejaVuSans-6d" transform="translate(503.759766 0.765625)"/>
      <use xlink:href="#DejaVuSans-20" transform="translate(601.171875 0.765625)"/>
      <use xlink:href="#DejaVuSans-Oblique-3c7" transform="translate(632.958984 0.765625)"/>
      <use xlink:href="#DejaVuSans-32" transform="translate(696.61138 39.046875)scale(0.7)"/>
      <use xlink:href="#DejaVuSans-32" transform="translate(692.138672 -26.578125)scale(0.7)"/>
     </g>
    </g>
   </g>
  </g>
 </g>
 <defs>
  <clipPath id="p14898b4d38">
   <rect x="26.925" y="22.318125" width="357.12" height="266.112"/>
  </clipPath>
 </defs>
</svg>
