<?xml version="1.0" encoding="utf-8" standalone="no"?>
<!DOCTYPE svg PUBLIC "-//W3C//DTD SVG 1.1//EN"
  "http://www.w3.org/Graphics/SVG/1.1/DTD/svg11.dtd">
<svg xmlns:xlink="http://www.w3.org/1999/xlink" width="388.52pt" height="311.954812pt" viewBox="0 0 388.52 311.954812" xmlns="http://www.w3.org/2000/svg" version="1.1">
 <metadata>
  <rdf:RDF xmlns:dc="http://purl.org/dc/elements/1.1/" xmlns:cc="http://creativecommons.org/ns#" xmlns:rdf="http://www.w3.org/1999/02/22-rdf-syntax-ns#">
   <cc:Work>
    <dc:type rdf:resource="http://purl.org/dc/dcmitype/StillImage"/>
    <dc:date>2025-04-07T10:23:59.765649</dc:date>
    <dc:format>image/svg+xml</dc:format>
    <dc:creator>
     <cc:Agent>
      <dc:title>Matplotlib v3.8.4, https://matplotlib.org/</dc:title>
     </cc:Agent>
    </dc:creator>
   </cc:Work>
  </rdf:RDF>
 </metadata>
 <defs>
  <style type="text/css">*{stroke-linejoin: round; stroke-linecap: butt}</style>
 </defs>
 <g id="figure_1">
  <g id="patch_1">
   <path d="M 0 311.954812 
L 388.52 311.954812 
L 388.52 0 
L 0 0 
L 0 311.954812 
z
" style="fill: none"/>
  </g>
  <g id="axes_1">
   <g id="patch_2">
    <path d="M 24.2 288.672 
L 381.32 288.672 
L 381.32 22.56 
L 24.2 22.56 
L 24.2 288.672 
z
" style="fill: none"/>
   </g>
   <g id="matplotlib.axis_1">
    <g id="xtick_1">
     <g id="line2d_1">
      <path d="M 40.432727 288.672 
L 40.432727 22.56 
" clip-path="url(#p9269ca3bac)" style="fill: none; stroke: #b0b0b0; stroke-width: 0.8; stroke-linecap: square"/>
     </g>
     <g id="line2d_2">
      <defs>
       <path id="ma08356071c" d="M 0 0 
L 0 3.5 
" style="stroke: #000000; stroke-width: 0.8"/>
      </defs>
      <g>
       <use xlink:href="#ma08356071c" x="40.432727" y="288.672" style="stroke: #000000; stroke-width: 0.8"/>
      </g>
     </g>
     <g id="text_1">
      <!-- 0.0 -->
      <g transform="translate(34.182727 302.61575) scale(0.1 -0.1)">
       <defs>
        <path id="TimesNewRomanPSMT-30" d="M 231 2094 
Q 231 2819 450 3342 
Q 669 3866 1031 4122 
Q 1313 4325 1613 4325 
Q 2100 4325 2488 3828 
Q 2972 3213 2972 2159 
Q 2972 1422 2759 906 
Q 2547 391 2217 158 
Q 1888 -75 1581 -75 
Q 975 -75 572 641 
Q 231 1244 231 2094 
z
M 844 2016 
Q 844 1141 1059 588 
Q 1238 122 1591 122 
Q 1759 122 1940 273 
Q 2122 425 2216 781 
Q 2359 1319 2359 2297 
Q 2359 3022 2209 3506 
Q 2097 3866 1919 4016 
Q 1791 4119 1609 4119 
Q 1397 4119 1231 3928 
Q 1006 3669 925 3112 
Q 844 2556 844 2016 
z
" transform="scale(0.015625)"/>
        <path id="TimesNewRomanPSMT-2e" d="M 800 606 
Q 947 606 1047 504 
Q 1147 403 1147 259 
Q 1147 116 1045 14 
Q 944 -88 800 -88 
Q 656 -88 554 14 
Q 453 116 453 259 
Q 453 406 554 506 
Q 656 606 800 606 
z
" transform="scale(0.015625)"/>
       </defs>
       <use xlink:href="#TimesNewRomanPSMT-30"/>
       <use xlink:href="#TimesNewRomanPSMT-2e" x="50"/>
       <use xlink:href="#TimesNewRomanPSMT-30" x="75"/>
      </g>
     </g>
    </g>
    <g id="xtick_2">
     <g id="line2d_3">
      <path d="M 105.493758 288.672 
L 105.493758 22.56 
" clip-path="url(#p9269ca3bac)" style="fill: none; stroke: #b0b0b0; stroke-width: 0.8; stroke-linecap: square"/>
     </g>
     <g id="line2d_4">
      <g>
       <use xlink:href="#ma08356071c" x="105.493758" y="288.672" style="stroke: #000000; stroke-width: 0.8"/>
      </g>
     </g>
     <g id="text_2">
      <!-- 0.1 -->
      <g transform="translate(99.243758 302.61575) scale(0.1 -0.1)">
       <defs>
        <path id="TimesNewRomanPSMT-31" d="M 750 3822 
L 1781 4325 
L 1884 4325 
L 1884 747 
Q 1884 391 1914 303 
Q 1944 216 2037 169 
Q 2131 122 2419 116 
L 2419 0 
L 825 0 
L 825 116 
Q 1125 122 1212 167 
Q 1300 213 1334 289 
Q 1369 366 1369 747 
L 1369 3034 
Q 1369 3497 1338 3628 
Q 1316 3728 1258 3775 
Q 1200 3822 1119 3822 
Q 1003 3822 797 3725 
L 750 3822 
z
" transform="scale(0.015625)"/>
       </defs>
       <use xlink:href="#TimesNewRomanPSMT-30"/>
       <use xlink:href="#TimesNewRomanPSMT-2e" x="50"/>
       <use xlink:href="#TimesNewRomanPSMT-31" x="75"/>
      </g>
     </g>
    </g>
    <g id="xtick_3">
     <g id="line2d_5">
      <path d="M 170.55479 288.672 
L 170.55479 22.56 
" clip-path="url(#p9269ca3bac)" style="fill: none; stroke: #b0b0b0; stroke-width: 0.8; stroke-linecap: square"/>
     </g>
     <g id="line2d_6">
      <g>
       <use xlink:href="#ma08356071c" x="170.55479" y="288.672" style="stroke: #000000; stroke-width: 0.8"/>
      </g>
     </g>
     <g id="text_3">
      <!-- 0.2 -->
      <g transform="translate(164.30479 302.61575) scale(0.1 -0.1)">
       <defs>
        <path id="TimesNewRomanPSMT-32" d="M 2934 816 
L 2638 0 
L 138 0 
L 138 116 
Q 1241 1122 1691 1759 
Q 2141 2397 2141 2925 
Q 2141 3328 1894 3587 
Q 1647 3847 1303 3847 
Q 991 3847 742 3664 
Q 494 3481 375 3128 
L 259 3128 
Q 338 3706 661 4015 
Q 984 4325 1469 4325 
Q 1984 4325 2329 3994 
Q 2675 3663 2675 3213 
Q 2675 2891 2525 2569 
Q 2294 2063 1775 1497 
Q 997 647 803 472 
L 1909 472 
Q 2247 472 2383 497 
Q 2519 522 2628 598 
Q 2738 675 2819 816 
L 2934 816 
z
" transform="scale(0.015625)"/>
       </defs>
       <use xlink:href="#TimesNewRomanPSMT-30"/>
       <use xlink:href="#TimesNewRomanPSMT-2e" x="50"/>
       <use xlink:href="#TimesNewRomanPSMT-32" x="75"/>
      </g>
     </g>
    </g>
    <g id="xtick_4">
     <g id="line2d_7">
      <path d="M 235.615821 288.672 
L 235.615821 22.56 
" clip-path="url(#p9269ca3bac)" style="fill: none; stroke: #b0b0b0; stroke-width: 0.8; stroke-linecap: square"/>
     </g>
     <g id="line2d_8">
      <g>
       <use xlink:href="#ma08356071c" x="235.615821" y="288.672" style="stroke: #000000; stroke-width: 0.8"/>
      </g>
     </g>
     <g id="text_4">
      <!-- 0.3 -->
      <g transform="translate(229.365821 302.61575) scale(0.1 -0.1)">
       <defs>
        <path id="TimesNewRomanPSMT-33" d="M 325 3431 
Q 506 3859 782 4092 
Q 1059 4325 1472 4325 
Q 1981 4325 2253 3994 
Q 2459 3747 2459 3466 
Q 2459 3003 1878 2509 
Q 2269 2356 2469 2072 
Q 2669 1788 2669 1403 
Q 2669 853 2319 450 
Q 1863 -75 997 -75 
Q 569 -75 414 31 
Q 259 138 259 259 
Q 259 350 332 419 
Q 406 488 509 488 
Q 588 488 669 463 
Q 722 447 909 348 
Q 1097 250 1169 231 
Q 1284 197 1416 197 
Q 1734 197 1970 444 
Q 2206 691 2206 1028 
Q 2206 1275 2097 1509 
Q 2016 1684 1919 1775 
Q 1784 1900 1550 2001 
Q 1316 2103 1072 2103 
L 972 2103 
L 972 2197 
Q 1219 2228 1467 2375 
Q 1716 2522 1828 2728 
Q 1941 2934 1941 3181 
Q 1941 3503 1739 3701 
Q 1538 3900 1238 3900 
Q 753 3900 428 3381 
L 325 3431 
z
" transform="scale(0.015625)"/>
       </defs>
       <use xlink:href="#TimesNewRomanPSMT-30"/>
       <use xlink:href="#TimesNewRomanPSMT-2e" x="50"/>
       <use xlink:href="#TimesNewRomanPSMT-33" x="75"/>
      </g>
     </g>
    </g>
    <g id="xtick_5">
     <g id="line2d_9">
      <path d="M 300.676852 288.672 
L 300.676852 22.56 
" clip-path="url(#p9269ca3bac)" style="fill: none; stroke: #b0b0b0; stroke-width: 0.8; stroke-linecap: square"/>
     </g>
     <g id="line2d_10">
      <g>
       <use xlink:href="#ma08356071c" x="300.676852" y="288.672" style="stroke: #000000; stroke-width: 0.8"/>
      </g>
     </g>
     <g id="text_5">
      <!-- 0.4 -->
      <g transform="translate(294.426852 302.61575) scale(0.1 -0.1)">
       <defs>
        <path id="TimesNewRomanPSMT-34" d="M 2978 1563 
L 2978 1119 
L 2409 1119 
L 2409 0 
L 1894 0 
L 1894 1119 
L 100 1119 
L 100 1519 
L 2066 4325 
L 2409 4325 
L 2409 1563 
L 2978 1563 
z
M 1894 1563 
L 1894 3666 
L 406 1563 
L 1894 1563 
z
" transform="scale(0.015625)"/>
       </defs>
       <use xlink:href="#TimesNewRomanPSMT-30"/>
       <use xlink:href="#TimesNewRomanPSMT-2e" x="50"/>
       <use xlink:href="#TimesNewRomanPSMT-34" x="75"/>
      </g>
     </g>
    </g>
    <g id="xtick_6">
     <g id="line2d_11">
      <path d="M 365.737883 288.672 
L 365.737883 22.56 
" clip-path="url(#p9269ca3bac)" style="fill: none; stroke: #b0b0b0; stroke-width: 0.8; stroke-linecap: square"/>
     </g>
     <g id="line2d_12">
      <g>
       <use xlink:href="#ma08356071c" x="365.737883" y="288.672" style="stroke: #000000; stroke-width: 0.8"/>
      </g>
     </g>
     <g id="text_6">
      <!-- 0.5 -->
      <g transform="translate(359.487883 302.61575) scale(0.1 -0.1)">
       <defs>
        <path id="TimesNewRomanPSMT-35" d="M 2778 4238 
L 2534 3706 
L 1259 3706 
L 981 3138 
Q 1809 3016 2294 2522 
Q 2709 2097 2709 1522 
Q 2709 1188 2573 903 
Q 2438 619 2231 419 
Q 2025 219 1772 97 
Q 1413 -75 1034 -75 
Q 653 -75 479 54 
Q 306 184 306 341 
Q 306 428 378 495 
Q 450 563 559 563 
Q 641 563 702 538 
Q 763 513 909 409 
Q 1144 247 1384 247 
Q 1750 247 2026 523 
Q 2303 800 2303 1197 
Q 2303 1581 2056 1914 
Q 1809 2247 1375 2428 
Q 1034 2569 447 2591 
L 1259 4238 
L 2778 4238 
z
" transform="scale(0.015625)"/>
       </defs>
       <use xlink:href="#TimesNewRomanPSMT-30"/>
       <use xlink:href="#TimesNewRomanPSMT-2e" x="50"/>
       <use xlink:href="#TimesNewRomanPSMT-35" x="75"/>
      </g>
     </g>
    </g>
   </g>
   <g id="matplotlib.axis_2">
    <g id="ytick_1">
     <g id="line2d_13">
      <path d="M 24.2 276.676795 
L 381.32 276.676795 
" clip-path="url(#p9269ca3bac)" style="fill: none; stroke: #b0b0b0; stroke-width: 0.8; stroke-linecap: square"/>
     </g>
     <g id="line2d_14">
      <defs>
       <path id="me2e13a75f0" d="M 0 0 
L -3.5 0 
" style="stroke: #000000; stroke-width: 0.8"/>
      </defs>
      <g>
       <use xlink:href="#me2e13a75f0" x="24.2" y="276.676795" style="stroke: #000000; stroke-width: 0.8"/>
      </g>
     </g>
     <g id="text_7">
      <!-- 0 -->
      <g transform="translate(12.2 280.14867) scale(0.1 -0.1)">
       <use xlink:href="#TimesNewRomanPSMT-30"/>
      </g>
     </g>
    </g>
    <g id="ytick_2">
     <g id="line2d_15">
      <path d="M 24.2 245.646633 
L 381.32 245.646633 
" clip-path="url(#p9269ca3bac)" style="fill: none; stroke: #b0b0b0; stroke-width: 0.8; stroke-linecap: square"/>
     </g>
     <g id="line2d_16">
      <g>
       <use xlink:href="#me2e13a75f0" x="24.2" y="245.646633" style="stroke: #000000; stroke-width: 0.8"/>
      </g>
     </g>
     <g id="text_8">
      <!-- 2 -->
      <g transform="translate(12.2 249.118508) scale(0.1 -0.1)">
       <use xlink:href="#TimesNewRomanPSMT-32"/>
      </g>
     </g>
    </g>
    <g id="ytick_3">
     <g id="line2d_17">
      <path d="M 24.2 214.616471 
L 381.32 214.616471 
" clip-path="url(#p9269ca3bac)" style="fill: none; stroke: #b0b0b0; stroke-width: 0.8; stroke-linecap: square"/>
     </g>
     <g id="line2d_18">
      <g>
       <use xlink:href="#me2e13a75f0" x="24.2" y="214.616471" style="stroke: #000000; stroke-width: 0.8"/>
      </g>
     </g>
     <g id="text_9">
      <!-- 4 -->
      <g transform="translate(12.2 218.088346) scale(0.1 -0.1)">
       <use xlink:href="#TimesNewRomanPSMT-34"/>
      </g>
     </g>
    </g>
    <g id="ytick_4">
     <g id="line2d_19">
      <path d="M 24.2 183.586309 
L 381.32 183.586309 
" clip-path="url(#p9269ca3bac)" style="fill: none; stroke: #b0b0b0; stroke-width: 0.8; stroke-linecap: square"/>
     </g>
     <g id="line2d_20">
      <g>
       <use xlink:href="#me2e13a75f0" x="24.2" y="183.586309" style="stroke: #000000; stroke-width: 0.8"/>
      </g>
     </g>
     <g id="text_10">
      <!-- 6 -->
      <g transform="translate(12.2 187.058184) scale(0.1 -0.1)">
       <defs>
        <path id="TimesNewRomanPSMT-36" d="M 2869 4325 
L 2869 4209 
Q 2456 4169 2195 4045 
Q 1934 3922 1679 3669 
Q 1425 3416 1258 3105 
Q 1091 2794 978 2366 
Q 1428 2675 1881 2675 
Q 2316 2675 2634 2325 
Q 2953 1975 2953 1425 
Q 2953 894 2631 456 
Q 2244 -75 1606 -75 
Q 1172 -75 869 213 
Q 275 772 275 1663 
Q 275 2231 503 2743 
Q 731 3256 1154 3653 
Q 1578 4050 1965 4187 
Q 2353 4325 2688 4325 
L 2869 4325 
z
M 925 2138 
Q 869 1716 869 1456 
Q 869 1156 980 804 
Q 1091 453 1309 247 
Q 1469 100 1697 100 
Q 1969 100 2183 356 
Q 2397 613 2397 1088 
Q 2397 1622 2184 2012 
Q 1972 2403 1581 2403 
Q 1463 2403 1327 2353 
Q 1191 2303 925 2138 
z
" transform="scale(0.015625)"/>
       </defs>
       <use xlink:href="#TimesNewRomanPSMT-36"/>
      </g>
     </g>
    </g>
    <g id="ytick_5">
     <g id="line2d_21">
      <path d="M 24.2 152.556147 
L 381.32 152.556147 
" clip-path="url(#p9269ca3bac)" style="fill: none; stroke: #b0b0b0; stroke-width: 0.8; stroke-linecap: square"/>
     </g>
     <g id="line2d_22">
      <g>
       <use xlink:href="#me2e13a75f0" x="24.2" y="152.556147" style="stroke: #000000; stroke-width: 0.8"/>
      </g>
     </g>
     <g id="text_11">
      <!-- 8 -->
      <g transform="translate(12.2 156.028022) scale(0.1 -0.1)">
       <defs>
        <path id="TimesNewRomanPSMT-38" d="M 1228 2134 
Q 725 2547 579 2797 
Q 434 3047 434 3316 
Q 434 3728 753 4026 
Q 1072 4325 1600 4325 
Q 2113 4325 2425 4047 
Q 2738 3769 2738 3413 
Q 2738 3175 2569 2928 
Q 2400 2681 1866 2347 
Q 2416 1922 2594 1678 
Q 2831 1359 2831 1006 
Q 2831 559 2490 242 
Q 2150 -75 1597 -75 
Q 994 -75 656 303 
Q 388 606 388 966 
Q 388 1247 577 1523 
Q 766 1800 1228 2134 
z
M 1719 2469 
Q 2094 2806 2194 3001 
Q 2294 3197 2294 3444 
Q 2294 3772 2109 3958 
Q 1925 4144 1606 4144 
Q 1288 4144 1088 3959 
Q 888 3775 888 3528 
Q 888 3366 970 3203 
Q 1053 3041 1206 2894 
L 1719 2469 
z
M 1375 2016 
Q 1116 1797 991 1539 
Q 866 1281 866 981 
Q 866 578 1086 336 
Q 1306 94 1647 94 
Q 1984 94 2187 284 
Q 2391 475 2391 747 
Q 2391 972 2272 1150 
Q 2050 1481 1375 2016 
z
" transform="scale(0.015625)"/>
       </defs>
       <use xlink:href="#TimesNewRomanPSMT-38"/>
      </g>
     </g>
    </g>
    <g id="ytick_6">
     <g id="line2d_23">
      <path d="M 24.2 121.525984 
L 381.32 121.525984 
" clip-path="url(#p9269ca3bac)" style="fill: none; stroke: #b0b0b0; stroke-width: 0.8; stroke-linecap: square"/>
     </g>
     <g id="line2d_24">
      <g>
       <use xlink:href="#me2e13a75f0" x="24.2" y="121.525984" style="stroke: #000000; stroke-width: 0.8"/>
      </g>
     </g>
     <g id="text_12">
      <!-- 10 -->
      <g transform="translate(7.2 124.997859) scale(0.1 -0.1)">
       <use xlink:href="#TimesNewRomanPSMT-31"/>
       <use xlink:href="#TimesNewRomanPSMT-30" x="50"/>
      </g>
     </g>
    </g>
    <g id="ytick_7">
     <g id="line2d_25">
      <path d="M 24.2 90.495822 
L 381.32 90.495822 
" clip-path="url(#p9269ca3bac)" style="fill: none; stroke: #b0b0b0; stroke-width: 0.8; stroke-linecap: square"/>
     </g>
     <g id="line2d_26">
      <g>
       <use xlink:href="#me2e13a75f0" x="24.2" y="90.495822" style="stroke: #000000; stroke-width: 0.8"/>
      </g>
     </g>
     <g id="text_13">
      <!-- 12 -->
      <g transform="translate(7.2 93.967697) scale(0.1 -0.1)">
       <use xlink:href="#TimesNewRomanPSMT-31"/>
       <use xlink:href="#TimesNewRomanPSMT-32" x="50"/>
      </g>
     </g>
    </g>
    <g id="ytick_8">
     <g id="line2d_27">
      <path d="M 24.2 59.46566 
L 381.32 59.46566 
" clip-path="url(#p9269ca3bac)" style="fill: none; stroke: #b0b0b0; stroke-width: 0.8; stroke-linecap: square"/>
     </g>
     <g id="line2d_28">
      <g>
       <use xlink:href="#me2e13a75f0" x="24.2" y="59.46566" style="stroke: #000000; stroke-width: 0.8"/>
      </g>
     </g>
     <g id="text_14">
      <!-- 14 -->
      <g transform="translate(7.2 62.937535) scale(0.1 -0.1)">
       <use xlink:href="#TimesNewRomanPSMT-31"/>
       <use xlink:href="#TimesNewRomanPSMT-34" x="50"/>
      </g>
     </g>
    </g>
    <g id="ytick_9">
     <g id="line2d_29">
      <path d="M 24.2 28.435498 
L 381.32 28.435498 
" clip-path="url(#p9269ca3bac)" style="fill: none; stroke: #b0b0b0; stroke-width: 0.8; stroke-linecap: square"/>
     </g>
     <g id="line2d_30">
      <g>
       <use xlink:href="#me2e13a75f0" x="24.2" y="28.435498" style="stroke: #000000; stroke-width: 0.8"/>
      </g>
     </g>
     <g id="text_15">
      <!-- 16 -->
      <g transform="translate(7.2 31.907373) scale(0.1 -0.1)">
       <use xlink:href="#TimesNewRomanPSMT-31"/>
       <use xlink:href="#TimesNewRomanPSMT-36" x="50"/>
      </g>
     </g>
    </g>
   </g>
   <g id="line2d_31">
    <path d="M 40.432727 262.722059 
L 41.083338 271.58896 
L 41.733948 266.682502 
L 42.384558 273.160907 
L 43.035169 236.953983 
L 43.685779 136.603636 
L 44.336389 271.148771 
L 44.986999 262.929769 
L 45.63761 184.021589 
L 46.28822 252.563121 
L 46.93883 183.23685 
L 47.589441 239.770405 
L 48.890661 269.301516 
L 49.541272 218.472726 
L 50.191882 254.870296 
L 50.842492 230.951076 
L 51.493103 269.022578 
L 52.143713 251.876651 
L 54.095544 274.990779 
L 54.746154 268.443996 
L 55.396764 252.818426 
L 56.047375 243.947408 
L 56.697985 255.185588 
L 57.348595 156.976045 
L 57.999206 214.324355 
L 58.649816 261.372666 
L 59.300426 270.452437 
L 59.951037 226.380666 
L 60.601647 248.977485 
L 61.252257 234.801022 
L 61.902868 274.714715 
L 62.553478 264.470128 
L 63.204088 276.08115 
L 63.854698 266.133273 
L 64.505309 261.654214 
L 65.155919 241.337351 
L 65.806529 230.599556 
L 66.45714 256.855183 
L 67.10775 205.348949 
L 67.75836 272.455423 
L 68.408971 234.20775 
L 69.059581 275.713202 
L 69.710191 273.806071 
L 70.360802 262.707623 
L 71.011412 261.820379 
L 71.662022 187.411708 
L 72.963243 260.098402 
L 73.613853 269.21641 
L 74.264463 230.692375 
L 74.915074 267.43536 
L 75.565684 150.89671 
L 76.216294 276.151688 
L 76.866905 276.020311 
L 77.517515 239.736367 
L 78.168125 252.846609 
L 78.818736 271.427994 
L 79.469346 213.116026 
L 80.119956 273.502867 
L 80.770567 242.27819 
L 81.421177 273.211492 
L 82.071787 209.173787 
L 82.722398 233.862286 
L 83.373008 206.93762 
L 84.023618 152.972443 
L 84.674228 245.591464 
L 85.324839 34.656 
L 85.975449 268.840474 
L 86.626059 272.753763 
L 87.27667 186.006945 
L 87.92728 268.658295 
L 89.228501 230.446343 
L 89.879111 259.33727 
L 90.529721 272.503801 
L 91.180332 261.819389 
L 91.830942 256.227923 
L 92.481552 229.995731 
L 93.132163 258.316611 
L 93.782773 275.286346 
L 95.083993 192.865172 
L 95.734604 216.811661 
L 96.385214 254.778387 
L 97.035824 269.352229 
L 97.686435 251.156277 
L 98.337045 266.756365 
L 98.987655 273.821171 
L 99.638266 248.644343 
L 100.288876 272.323117 
L 101.590097 251.218593 
L 102.240707 276.576 
L 102.891317 265.009551 
L 103.541927 266.480213 
L 104.192538 273.067606 
L 104.843148 271.202233 
L 105.493758 240.116601 
L 106.144369 239.695213 
L 106.794979 271.984971 
L 107.445589 227.177837 
L 108.0962 267.412346 
L 108.74681 226.32125 
L 109.39742 234.813896 
L 110.048031 268.128249 
L 110.698641 266.759621 
L 111.349251 268.647767 
L 111.999862 145.100537 
L 112.650472 215.040114 
L 113.301082 260.940497 
L 113.951692 248.785201 
L 114.602303 274.454644 
L 115.252913 270.884048 
L 115.903523 260.347478 
L 116.554134 268.670579 
L 117.204744 270.83008 
L 117.855354 256.995768 
L 118.505965 219.981572 
L 119.156575 223.381388 
L 119.807185 272.464499 
L 120.457796 271.0672 
L 121.108406 256.599336 
L 122.409627 276.29873 
L 123.060237 275.518842 
L 123.710847 247.501516 
L 124.361457 201.125553 
L 125.012068 237.630651 
L 125.662678 211.407165 
L 126.313288 275.431528 
L 126.963899 181.409368 
L 127.614509 254.176401 
L 128.265119 271.243629 
L 128.91573 276.265644 
L 129.56634 261.14035 
L 130.21695 165.376131 
L 130.867561 179.026858 
L 131.518171 276.549818 
L 132.168781 264.124189 
L 132.819392 245.034797 
L 133.470002 242.455996 
L 134.120612 275.417607 
L 134.771222 255.899666 
L 135.421833 106.739163 
L 136.072443 249.407589 
L 136.723053 210.11574 
L 137.373664 274.814487 
L 138.024274 221.935579 
L 138.674884 268.61365 
L 139.325495 215.612404 
L 139.976105 244.967753 
L 140.626715 261.356767 
L 141.277326 230.238603 
L 141.927936 229.334387 
L 142.578546 248.889892 
L 143.229156 243.290519 
L 143.879767 242.635726 
L 144.530377 267.2698 
L 145.180987 168.589011 
L 145.831598 249.093109 
L 146.482208 121.026495 
L 147.132818 271.627465 
L 147.783429 234.725465 
L 148.434039 239.782832 
L 149.084649 255.231834 
L 149.73526 275.843053 
L 150.38587 274.545263 
L 151.03648 231.158968 
L 151.687091 246.728063 
L 152.337701 247.13505 
L 152.988311 190.190009 
L 153.638921 253.034525 
L 154.289532 212.728146 
L 154.940142 244.196029 
L 155.590752 242.640614 
L 156.241363 271.115439 
L 156.891973 224.018123 
L 157.542583 271.07867 
L 158.193194 265.842907 
L 158.843804 269.764432 
L 159.494414 251.553122 
L 160.145025 249.729127 
L 160.795635 275.729523 
L 161.446245 267.594616 
L 162.096856 248.302453 
L 162.747466 242.120629 
L 164.048686 227.099072 
L 164.699297 243.115274 
L 165.349907 207.112895 
L 166.000517 259.236333 
L 166.651128 264.044331 
L 167.301738 162.964319 
L 167.952348 274.80563 
L 168.602959 257.48228 
L 169.253569 267.692903 
L 169.904179 253.713469 
L 170.55479 251.740837 
L 171.2054 244.744434 
L 171.85601 275.416517 
L 172.506621 253.168673 
L 173.157231 258.295298 
L 173.807841 201.214025 
L 174.458451 252.524869 
L 175.109062 222.770881 
L 175.759672 228.256025 
L 176.410282 254.174824 
L 177.060893 266.421053 
L 177.711503 267.297415 
L 178.362113 263.785237 
L 179.012724 143.840656 
L 179.663334 255.104121 
L 180.313944 267.987256 
L 180.964555 267.640841 
L 181.615165 188.156747 
L 182.265775 246.367202 
L 182.916385 234.306431 
L 183.566996 254.064453 
L 184.217606 268.645857 
L 184.868216 260.387835 
L 185.518827 233.03541 
L 186.169437 258.192165 
L 186.820047 263.953405 
L 187.470658 264.784218 
L 188.121268 232.40119 
L 188.771878 260.813414 
L 189.422489 209.174171 
L 190.073099 166.558938 
L 190.723709 241.16153 
L 191.37432 254.57812 
L 192.02493 262.83851 
L 192.67554 239.581818 
L 193.32615 273.813287 
L 193.976761 273.816014 
L 194.627371 257.98788 
L 195.277981 249.503431 
L 195.928592 244.791038 
L 196.579202 206.612482 
L 197.229812 211.617346 
L 197.880423 250.845821 
L 198.531033 243.10155 
L 199.181643 194.096941 
L 199.832254 255.538043 
L 200.482864 226.085523 
L 201.133474 275.783341 
L 201.784085 216.29428 
L 202.434695 274.601056 
L 203.085305 274.419652 
L 203.735915 188.027955 
L 204.386526 253.96268 
L 205.037136 220.154347 
L 205.687746 241.392598 
L 206.338357 221.909444 
L 206.988967 165.701082 
L 207.639577 269.717405 
L 208.290188 253.182114 
L 208.940798 276.444389 
L 209.591408 273.774269 
L 210.242019 273.436572 
L 210.892629 272.265266 
L 211.543239 269.71509 
L 212.19385 275.870816 
L 212.84446 266.894413 
L 213.49507 237.607103 
L 214.14568 266.702679 
L 214.796291 239.39092 
L 215.446901 167.711556 
L 216.097511 232.4384 
L 216.748122 213.7068 
L 217.398732 258.098805 
L 218.049342 233.081269 
L 218.699953 220.421347 
L 219.350563 274.963361 
L 220.001173 243.014331 
L 220.651784 270.565485 
L 221.302394 231.293168 
L 221.953004 217.456753 
L 222.603615 198.72045 
L 223.254225 245.516289 
L 223.904835 253.332234 
L 224.555445 192.09221 
L 225.206056 266.932264 
L 225.856666 269.840874 
L 226.507276 268.85502 
L 227.157887 254.399957 
L 227.808497 224.873351 
L 228.459107 270.010523 
L 229.109718 270.155198 
L 229.760328 228.817977 
L 230.410938 244.980111 
L 231.061549 237.998488 
L 231.712159 272.159877 
L 232.362769 256.302915 
L 233.013379 234.008872 
L 233.66399 265.922357 
L 234.3146 220.755272 
L 234.96521 214.676532 
L 235.615821 204.409585 
L 236.266431 237.560191 
L 236.917041 250.654225 
L 237.567652 236.667112 
L 238.218262 184.742017 
L 238.868872 269.291323 
L 240.170093 232.504791 
L 240.820703 231.279233 
L 241.471314 248.951905 
L 242.121924 254.563043 
L 242.772534 237.214616 
L 243.423144 263.878707 
L 244.073755 265.730568 
L 244.724365 270.425841 
L 245.374975 215.450357 
L 246.025586 256.828696 
L 246.676196 223.920803 
L 247.326806 270.992161 
L 247.977417 270.317551 
L 248.628027 216.034446 
L 249.278637 188.64697 
L 249.929248 240.895859 
L 250.579858 268.701191 
L 251.230468 264.675441 
L 251.881079 255.451687 
L 252.531689 213.867081 
L 253.182299 262.411011 
L 254.48352 275.153882 
L 255.13413 126.186125 
L 255.78474 257.255276 
L 256.435351 256.248159 
L 257.085961 257.939947 
L 257.736571 251.099148 
L 258.387182 265.001149 
L 259.037792 239.936173 
L 259.688402 130.331633 
L 260.339013 237.698063 
L 260.989623 272.259522 
L 261.640233 213.092992 
L 262.290844 254.951005 
L 262.941454 218.578284 
L 263.592064 256.989471 
L 264.242674 263.953067 
L 264.893285 272.576421 
L 265.543895 232.150659 
L 266.194505 248.966403 
L 266.845116 166.806645 
L 267.495726 269.814282 
L 268.146336 208.783404 
L 268.796947 267.542871 
L 269.447557 273.374984 
L 270.098167 232.828507 
L 270.748778 259.197746 
L 271.399388 226.812346 
L 272.049998 258.436487 
L 272.700608 268.125003 
L 273.351219 231.753415 
L 274.001829 239.018095 
L 274.652439 262.645368 
L 275.30305 260.215127 
L 275.95366 240.394987 
L 276.60427 235.521695 
L 277.254881 264.942368 
L 277.905491 198.283863 
L 278.556101 220.687295 
L 279.206712 258.705936 
L 279.857322 242.303973 
L 280.507932 232.416118 
L 281.158543 271.570444 
L 281.809153 206.490109 
L 282.459763 256.34535 
L 283.110373 262.85017 
L 283.760984 251.324752 
L 284.411594 271.632764 
L 285.062204 255.786922 
L 285.712815 245.186465 
L 287.014035 274.795986 
L 287.664646 255.803647 
L 288.315256 268.443456 
L 288.965866 265.679598 
L 289.616477 169.355064 
L 290.917697 251.818851 
L 291.568308 257.454259 
L 292.218918 242.647034 
L 292.869528 261.16729 
L 293.520138 256.842691 
L 294.170749 200.89389 
L 294.821359 221.398831 
L 295.471969 273.933447 
L 296.12258 144.613169 
L 296.77319 272.638164 
L 297.4238 271.119479 
L 298.074411 247.520245 
L 298.725021 269.258382 
L 299.375631 211.948783 
L 300.026242 260.590226 
L 300.676852 269.357889 
L 301.327462 260.385151 
L 301.978073 273.229458 
L 302.628683 246.920108 
L 303.929903 263.525592 
L 304.580514 267.287295 
L 305.231124 197.689118 
L 305.881734 272.792207 
L 306.532345 176.418805 
L 307.182955 243.228625 
L 307.833565 262.578742 
L 308.484176 209.801563 
L 309.134786 227.399622 
L 309.785396 269.072734 
L 310.436007 233.928038 
L 311.086617 258.216109 
L 311.737227 248.731939 
L 312.387837 267.009001 
L 313.038448 215.428723 
L 313.689058 258.048244 
L 314.339668 268.574256 
L 314.990279 271.149468 
L 315.640889 262.681866 
L 316.291499 274.533559 
L 316.94211 255.079932 
L 317.59272 275.513954 
L 318.893941 233.148495 
L 319.544551 253.506526 
L 320.195161 253.851085 
L 320.845772 256.846878 
L 321.496382 274.728264 
L 322.146992 210.575956 
L 323.448213 256.863953 
L 324.098823 269.972034 
L 324.749433 276.149583 
L 325.400044 247.250784 
L 326.050654 265.651097 
L 326.701264 141.65477 
L 327.351875 252.003456 
L 328.002485 274.264747 
L 328.653095 224.028666 
L 329.303706 127.447288 
L 329.954316 273.879037 
L 330.604926 234.458301 
L 331.255537 271.452322 
L 331.906147 242.109571 
L 332.556757 217.998823 
L 333.207367 269.362268 
L 333.857978 210.235016 
L 334.508588 273.922459 
L 335.159198 270.560174 
L 335.809809 254.89755 
L 336.460419 248.589156 
L 337.111029 247.955485 
L 337.76164 259.087545 
L 338.41225 246.010666 
L 339.06286 261.089881 
L 339.713471 217.001571 
L 340.364081 258.78476 
L 341.014691 239.396962 
L 341.665302 227.394494 
L 342.315912 275.347407 
L 342.966522 271.492503 
L 343.617132 239.550367 
L 344.267743 260.822218 
L 344.918353 276.48676 
L 345.568963 274.396988 
L 346.219574 244.117796 
L 346.870184 273.848505 
L 347.520794 253.327454 
L 348.171405 244.303701 
L 348.822015 263.884222 
L 349.472625 269.133842 
L 350.123236 249.174589 
L 350.773846 239.702591 
L 351.424456 263.887165 
L 352.075066 240.275675 
L 352.725677 231.902073 
L 353.376287 242.24113 
L 354.026897 264.327628 
L 354.677508 258.949651 
L 355.328118 247.069978 
L 355.978728 264.188754 
L 356.629339 253.185388 
L 357.279949 271.3122 
L 357.930559 247.400554 
L 358.58117 256.442614 
L 359.23178 200.243425 
L 359.88239 256.249637 
L 360.533001 256.326071 
L 361.183611 267.920979 
L 361.834221 257.869777 
L 362.484831 215.017813 
L 363.135442 265.354549 
L 363.786052 276.067713 
L 364.436662 269.870102 
L 365.087273 276.562842 
L 365.087273 276.562842 
" clip-path="url(#p9269ca3bac)" style="fill: none; stroke: #000000; stroke-width: 1.5; stroke-linecap: square"/>
   </g>
   <g id="patch_3">
    <path d="M 24.2 288.672 
L 24.2 22.56 
" style="fill: none; stroke: #000000; stroke-width: 0.8; stroke-linejoin: miter; stroke-linecap: square"/>
   </g>
   <g id="patch_4">
    <path d="M 381.32 288.672 
L 381.32 22.56 
" style="fill: none; stroke: #000000; stroke-width: 0.8; stroke-linejoin: miter; stroke-linecap: square"/>
   </g>
   <g id="patch_5">
    <path d="M 24.2 288.672 
L 381.32 288.672 
" style="fill: none; stroke: #000000; stroke-width: 0.8; stroke-linejoin: miter; stroke-linecap: square"/>
   </g>
   <g id="patch_6">
    <path d="M 24.2 22.56 
L 381.32 22.56 
" style="fill: none; stroke: #000000; stroke-width: 0.8; stroke-linejoin: miter; stroke-linecap: square"/>
   </g>
   <g id="text_16">
    <!-- $I$ of 1000 values from $\mathcal{N}$(0,1) -->
    <g transform="translate(132.2 16.56) scale(0.12 -0.12)">
     <defs>
      <path id="Cmmi10-49" d="M 269 0 
Q 206 0 206 84 
Q 231 225 288 225 
Q 666 225 800 250 
Q 947 284 984 441 
L 1863 3956 
Q 1875 4019 1875 4038 
Q 1875 4078 1854 4095 
Q 1834 4113 1791 4122 
Q 1663 4147 1306 4147 
Q 1241 4147 1241 4231 
Q 1263 4313 1275 4342 
Q 1288 4372 1350 4372 
L 3138 4372 
Q 3200 4372 3200 4288 
Q 3197 4272 3187 4234 
Q 3178 4197 3162 4172 
Q 3147 4147 3116 4147 
Q 2741 4147 2597 4122 
Q 2456 4088 2419 3928 
L 1544 416 
Q 1528 338 1528 331 
Q 1528 316 1533 302 
Q 1538 288 1552 277 
Q 1566 266 1580 261 
Q 1594 256 1613 250 
Q 1734 225 2100 225 
Q 2163 225 2163 141 
Q 2141 50 2128 25 
Q 2116 0 2053 0 
L 269 0 
z
" transform="scale(0.015625)"/>
      <path id="TimesNewRomanPSMT-20" transform="scale(0.015625)"/>
      <path id="TimesNewRomanPSMT-6f" d="M 1600 2947 
Q 2250 2947 2644 2453 
Q 2978 2031 2978 1484 
Q 2978 1100 2793 706 
Q 2609 313 2286 112 
Q 1963 -88 1566 -88 
Q 919 -88 538 428 
Q 216 863 216 1403 
Q 216 1797 411 2186 
Q 606 2575 925 2761 
Q 1244 2947 1600 2947 
z
M 1503 2744 
Q 1338 2744 1170 2645 
Q 1003 2547 900 2300 
Q 797 2053 797 1666 
Q 797 1041 1045 587 
Q 1294 134 1700 134 
Q 2003 134 2200 384 
Q 2397 634 2397 1244 
Q 2397 2006 2069 2444 
Q 1847 2744 1503 2744 
z
" transform="scale(0.015625)"/>
      <path id="TimesNewRomanPSMT-66" d="M 1319 2638 
L 1319 756 
Q 1319 356 1406 250 
Q 1522 113 1716 113 
L 1975 113 
L 1975 0 
L 266 0 
L 266 113 
L 394 113 
Q 519 113 622 175 
Q 725 238 764 344 
Q 803 450 803 756 
L 803 2638 
L 247 2638 
L 247 2863 
L 803 2863 
L 803 3050 
Q 803 3478 940 3775 
Q 1078 4072 1361 4255 
Q 1644 4438 1997 4438 
Q 2325 4438 2600 4225 
Q 2781 4084 2781 3909 
Q 2781 3816 2700 3733 
Q 2619 3650 2525 3650 
Q 2453 3650 2373 3701 
Q 2294 3753 2178 3923 
Q 2063 4094 1966 4153 
Q 1869 4213 1750 4213 
Q 1606 4213 1506 4136 
Q 1406 4059 1362 3898 
Q 1319 3738 1319 3069 
L 1319 2863 
L 2056 2863 
L 2056 2638 
L 1319 2638 
z
" transform="scale(0.015625)"/>
      <path id="TimesNewRomanPSMT-76" d="M 53 2863 
L 1400 2863 
L 1400 2747 
L 1313 2747 
Q 1191 2747 1127 2687 
Q 1063 2628 1063 2528 
Q 1063 2419 1128 2269 
L 1794 688 
L 2463 2328 
Q 2534 2503 2534 2594 
Q 2534 2638 2509 2666 
Q 2475 2713 2422 2730 
Q 2369 2747 2206 2747 
L 2206 2863 
L 3141 2863 
L 3141 2747 
Q 2978 2734 2916 2681 
Q 2806 2588 2719 2369 
L 1703 -88 
L 1575 -88 
L 553 2328 
Q 484 2497 421 2570 
Q 359 2644 263 2694 
Q 209 2722 53 2747 
L 53 2863 
z
" transform="scale(0.015625)"/>
      <path id="TimesNewRomanPSMT-61" d="M 1822 413 
Q 1381 72 1269 19 
Q 1100 -59 909 -59 
Q 613 -59 420 144 
Q 228 347 228 678 
Q 228 888 322 1041 
Q 450 1253 767 1440 
Q 1084 1628 1822 1897 
L 1822 2009 
Q 1822 2438 1686 2597 
Q 1550 2756 1291 2756 
Q 1094 2756 978 2650 
Q 859 2544 859 2406 
L 866 2225 
Q 866 2081 792 2003 
Q 719 1925 600 1925 
Q 484 1925 411 2006 
Q 338 2088 338 2228 
Q 338 2497 613 2722 
Q 888 2947 1384 2947 
Q 1766 2947 2009 2819 
Q 2194 2722 2281 2516 
Q 2338 2381 2338 1966 
L 2338 994 
Q 2338 584 2353 492 
Q 2369 400 2405 369 
Q 2441 338 2488 338 
Q 2538 338 2575 359 
Q 2641 400 2828 588 
L 2828 413 
Q 2478 -56 2159 -56 
Q 2006 -56 1915 50 
Q 1825 156 1822 413 
z
M 1822 616 
L 1822 1706 
Q 1350 1519 1213 1441 
Q 966 1303 859 1153 
Q 753 1003 753 825 
Q 753 600 887 451 
Q 1022 303 1197 303 
Q 1434 303 1822 616 
z
" transform="scale(0.015625)"/>
      <path id="TimesNewRomanPSMT-6c" d="M 1184 4444 
L 1184 647 
Q 1184 378 1223 290 
Q 1263 203 1344 158 
Q 1425 113 1647 113 
L 1647 0 
L 244 0 
L 244 113 
Q 441 113 512 153 
Q 584 194 625 287 
Q 666 381 666 647 
L 666 3247 
Q 666 3731 644 3842 
Q 622 3953 573 3993 
Q 525 4034 450 4034 
Q 369 4034 244 3984 
L 191 4094 
L 1044 4444 
L 1184 4444 
z
" transform="scale(0.015625)"/>
      <path id="TimesNewRomanPSMT-75" d="M 2709 2863 
L 2709 1128 
Q 2709 631 2732 520 
Q 2756 409 2807 365 
Q 2859 322 2928 322 
Q 3025 322 3147 375 
L 3191 266 
L 2334 -88 
L 2194 -88 
L 2194 519 
Q 1825 119 1631 15 
Q 1438 -88 1222 -88 
Q 981 -88 804 51 
Q 628 191 559 409 
Q 491 628 491 1028 
L 491 2306 
Q 491 2509 447 2587 
Q 403 2666 317 2708 
Q 231 2750 6 2747 
L 6 2863 
L 1009 2863 
L 1009 947 
Q 1009 547 1148 422 
Q 1288 297 1484 297 
Q 1619 297 1789 381 
Q 1959 466 2194 703 
L 2194 2325 
Q 2194 2569 2105 2655 
Q 2016 2741 1734 2747 
L 1734 2863 
L 2709 2863 
z
" transform="scale(0.015625)"/>
      <path id="TimesNewRomanPSMT-65" d="M 681 1784 
Q 678 1147 991 784 
Q 1303 422 1725 422 
Q 2006 422 2214 576 
Q 2422 731 2563 1106 
L 2659 1044 
Q 2594 616 2278 264 
Q 1963 -88 1488 -88 
Q 972 -88 605 314 
Q 238 716 238 1394 
Q 238 2128 614 2539 
Q 991 2950 1559 2950 
Q 2041 2950 2350 2633 
Q 2659 2316 2659 1784 
L 681 1784 
z
M 681 1966 
L 2006 1966 
Q 1991 2241 1941 2353 
Q 1863 2528 1708 2628 
Q 1553 2728 1384 2728 
Q 1125 2728 920 2526 
Q 716 2325 681 1966 
z
" transform="scale(0.015625)"/>
      <path id="TimesNewRomanPSMT-73" d="M 2050 2947 
L 2050 1972 
L 1947 1972 
Q 1828 2431 1642 2597 
Q 1456 2763 1169 2763 
Q 950 2763 815 2647 
Q 681 2531 681 2391 
Q 681 2216 781 2091 
Q 878 1963 1175 1819 
L 1631 1597 
Q 2266 1288 2266 781 
Q 2266 391 1970 151 
Q 1675 -88 1309 -88 
Q 1047 -88 709 6 
Q 606 38 541 38 
Q 469 38 428 -44 
L 325 -44 
L 325 978 
L 428 978 
Q 516 541 762 319 
Q 1009 97 1316 97 
Q 1531 97 1667 223 
Q 1803 350 1803 528 
Q 1803 744 1651 891 
Q 1500 1038 1047 1263 
Q 594 1488 453 1669 
Q 313 1847 313 2119 
Q 313 2472 555 2709 
Q 797 2947 1181 2947 
Q 1350 2947 1591 2875 
Q 1750 2828 1803 2828 
Q 1853 2828 1881 2850 
Q 1909 2872 1947 2947 
L 2050 2947 
z
" transform="scale(0.015625)"/>
      <path id="TimesNewRomanPSMT-72" d="M 1038 2947 
L 1038 2303 
Q 1397 2947 1775 2947 
Q 1947 2947 2059 2842 
Q 2172 2738 2172 2600 
Q 2172 2478 2090 2393 
Q 2009 2309 1897 2309 
Q 1788 2309 1652 2417 
Q 1516 2525 1450 2525 
Q 1394 2525 1328 2463 
Q 1188 2334 1038 2041 
L 1038 669 
Q 1038 431 1097 309 
Q 1138 225 1241 169 
Q 1344 113 1538 113 
L 1538 0 
L 72 0 
L 72 113 
Q 291 113 397 181 
Q 475 231 506 341 
Q 522 394 522 644 
L 522 1753 
Q 522 2253 501 2348 
Q 481 2444 426 2487 
Q 372 2531 291 2531 
Q 194 2531 72 2484 
L 41 2597 
L 906 2947 
L 1038 2947 
z
" transform="scale(0.015625)"/>
      <path id="TimesNewRomanPSMT-6d" d="M 1050 2338 
Q 1363 2650 1419 2697 
Q 1559 2816 1721 2881 
Q 1884 2947 2044 2947 
Q 2313 2947 2506 2790 
Q 2700 2634 2766 2338 
Q 3088 2713 3309 2830 
Q 3531 2947 3766 2947 
Q 3994 2947 4170 2830 
Q 4347 2713 4450 2447 
Q 4519 2266 4519 1878 
L 4519 647 
Q 4519 378 4559 278 
Q 4591 209 4675 161 
Q 4759 113 4950 113 
L 4950 0 
L 3538 0 
L 3538 113 
L 3597 113 
Q 3781 113 3884 184 
Q 3956 234 3988 344 
Q 4000 397 4000 647 
L 4000 1878 
Q 4000 2228 3916 2372 
Q 3794 2572 3525 2572 
Q 3359 2572 3192 2489 
Q 3025 2406 2788 2181 
L 2781 2147 
L 2788 2013 
L 2788 647 
Q 2788 353 2820 281 
Q 2853 209 2943 161 
Q 3034 113 3253 113 
L 3253 0 
L 1806 0 
L 1806 113 
Q 2044 113 2133 169 
Q 2222 225 2256 338 
Q 2272 391 2272 647 
L 2272 1878 
Q 2272 2228 2169 2381 
Q 2031 2581 1784 2581 
Q 1616 2581 1450 2491 
Q 1191 2353 1050 2181 
L 1050 647 
Q 1050 366 1089 281 
Q 1128 197 1204 155 
Q 1281 113 1516 113 
L 1516 0 
L 100 0 
L 100 113 
Q 297 113 375 155 
Q 453 197 493 289 
Q 534 381 534 647 
L 534 1741 
Q 534 2213 506 2350 
Q 484 2453 437 2492 
Q 391 2531 309 2531 
Q 222 2531 100 2484 
L 53 2597 
L 916 2947 
L 1050 2947 
L 1050 2338 
z
" transform="scale(0.015625)"/>
      <path id="Cmsy10-4e" d="M -184 13 
Q -184 131 -103 322 
Q -22 513 72 513 
Q 84 513 91 506 
Q 294 294 594 294 
Q 763 294 892 598 
Q 1022 903 1147 1306 
Q 1213 1509 1308 1837 
Q 1403 2166 1453 2369 
Q 1497 2538 1558 2827 
Q 1619 3116 1658 3331 
Q 1697 3547 1728 3772 
Q 1759 3997 1784 4244 
Q 1784 4278 1831 4325 
Q 1900 4397 1997 4453 
Q 2088 4494 2181 4513 
L 2234 4513 
Q 2272 4494 2278 4469 
Q 2438 3909 2675 3200 
Q 2891 2544 3044 2125 
Q 3197 1706 3405 1242 
Q 3613 778 3859 384 
Q 4194 1819 4525 2988 
L 4609 3284 
Q 4747 3769 4836 4039 
Q 4925 4309 5063 4525 
Q 5175 4700 5356 4800 
Q 5538 4900 5753 4942 
Q 5969 4984 6203 4984 
Q 6259 4984 6259 4878 
Q 6259 4803 6226 4686 
Q 6194 4569 6137 4478 
Q 6081 4388 6009 4372 
Q 5756 4372 5557 4331 
Q 5359 4291 5197 4184 
Q 5116 4125 5102 4094 
Q 5088 4063 5038 3909 
Q 4956 3684 4872 3366 
L 4788 3078 
Q 4625 2491 4498 2006 
Q 4372 1522 4256 1045 
Q 4141 569 4031 84 
Q 4034 84 4029 92 
Q 4025 100 4025 103 
Q 4025 47 3951 -15 
Q 3878 -78 3783 -120 
Q 3688 -163 3628 -172 
L 3584 -172 
Q 3478 -119 3222 368 
Q 2966 856 2834 1172 
Q 2359 2347 1966 3628 
Q 1916 3319 1759 2648 
Q 1603 1978 1387 1297 
Q 1172 616 914 148 
Q 656 -319 397 -319 
Q 231 -319 23 -225 
Q -184 -131 -184 13 
z
" transform="scale(0.015625)"/>
      <path id="TimesNewRomanPSMT-28" d="M 1988 -1253 
L 1988 -1369 
Q 1516 -1131 1200 -813 
Q 750 -359 506 256 
Q 263 872 263 1534 
Q 263 2503 741 3301 
Q 1219 4100 1988 4444 
L 1988 4313 
Q 1603 4100 1356 3731 
Q 1109 3363 987 2797 
Q 866 2231 866 1616 
Q 866 947 969 400 
Q 1050 -31 1165 -292 
Q 1281 -553 1476 -793 
Q 1672 -1034 1988 -1253 
z
" transform="scale(0.015625)"/>
      <path id="TimesNewRomanPSMT-2c" d="M 344 -1066 
L 344 -928 
Q 666 -822 842 -598 
Q 1019 -375 1019 -125 
Q 1019 -66 991 -25 
Q 969 3 947 3 
Q 913 3 797 -59 
Q 741 -88 678 -88 
Q 525 -88 434 3 
Q 344 94 344 253 
Q 344 406 461 515 
Q 578 625 747 625 
Q 953 625 1114 445 
Q 1275 266 1275 -31 
Q 1275 -353 1051 -629 
Q 828 -906 344 -1066 
z
" transform="scale(0.015625)"/>
      <path id="TimesNewRomanPSMT-29" d="M 144 4313 
L 144 4444 
Q 619 4209 934 3891 
Q 1381 3434 1625 2820 
Q 1869 2206 1869 1541 
Q 1869 572 1392 -226 
Q 916 -1025 144 -1369 
L 144 -1253 
Q 528 -1038 776 -670 
Q 1025 -303 1145 264 
Q 1266 831 1266 1447 
Q 1266 2113 1163 2663 
Q 1084 3094 967 3353 
Q 850 3613 656 3853 
Q 463 4094 144 4313 
z
" transform="scale(0.015625)"/>
     </defs>
     <use xlink:href="#Cmmi10-49" transform="translate(0 0.125)"/>
     <use xlink:href="#TimesNewRomanPSMT-20" transform="translate(43.896484 0.125)"/>
     <use xlink:href="#TimesNewRomanPSMT-6f" transform="translate(68.896484 0.125)"/>
     <use xlink:href="#TimesNewRomanPSMT-66" transform="translate(118.896484 0.125)"/>
     <use xlink:href="#TimesNewRomanPSMT-20" transform="translate(152.197266 0.125)"/>
     <use xlink:href="#TimesNewRomanPSMT-31" transform="translate(177.197266 0.125)"/>
     <use xlink:href="#TimesNewRomanPSMT-30" transform="translate(227.197266 0.125)"/>
     <use xlink:href="#TimesNewRomanPSMT-30" transform="translate(277.197266 0.125)"/>
     <use xlink:href="#TimesNewRomanPSMT-30" transform="translate(327.197266 0.125)"/>
     <use xlink:href="#TimesNewRomanPSMT-20" transform="translate(377.197266 0.125)"/>
     <use xlink:href="#TimesNewRomanPSMT-76" transform="translate(402.197266 0.125)"/>
     <use xlink:href="#TimesNewRomanPSMT-61" transform="translate(452.197266 0.125)"/>
     <use xlink:href="#TimesNewRomanPSMT-6c" transform="translate(496.582031 0.125)"/>
     <use xlink:href="#TimesNewRomanPSMT-75" transform="translate(524.365234 0.125)"/>
     <use xlink:href="#TimesNewRomanPSMT-65" transform="translate(574.365234 0.125)"/>
     <use xlink:href="#TimesNewRomanPSMT-73" transform="translate(618.75 0.125)"/>
     <use xlink:href="#TimesNewRomanPSMT-20" transform="translate(657.666016 0.125)"/>
     <use xlink:href="#TimesNewRomanPSMT-66" transform="translate(682.666016 0.125)"/>
     <use xlink:href="#TimesNewRomanPSMT-72" transform="translate(715.966797 0.125)"/>
     <use xlink:href="#TimesNewRomanPSMT-6f" transform="translate(749.267578 0.125)"/>
     <use xlink:href="#TimesNewRomanPSMT-6d" transform="translate(799.267578 0.125)"/>
     <use xlink:href="#TimesNewRomanPSMT-20" transform="translate(877.050781 0.125)"/>
     <use xlink:href="#Cmsy10-4e" transform="translate(902.050781 0.125)"/>
     <use xlink:href="#TimesNewRomanPSMT-28" transform="translate(984.033203 0.125)"/>
     <use xlink:href="#TimesNewRomanPSMT-30" transform="translate(1017.333984 0.125)"/>
     <use xlink:href="#TimesNewRomanPSMT-2c" transform="translate(1067.333984 0.125)"/>
     <use xlink:href="#TimesNewRomanPSMT-31" transform="translate(1092.333984 0.125)"/>
     <use xlink:href="#TimesNewRomanPSMT-29" transform="translate(1142.333984 0.125)"/>
    </g>
   </g>
  </g>
 </g>
 <defs>
  <clipPath id="p9269ca3bac">
   <rect x="24.2" y="22.56" width="357.12" height="266.112"/>
  </clipPath>
 </defs>
</svg>
