<?xml version="1.0" encoding="utf-8" standalone="no"?>
<!DOCTYPE svg PUBLIC "-//W3C//DTD SVG 1.1//EN"
  "http://www.w3.org/Graphics/SVG/1.1/DTD/svg11.dtd">
<svg xmlns:xlink="http://www.w3.org/1999/xlink" width="388.52pt" height="324.387937pt" viewBox="0 0 388.52 324.387937" xmlns="http://www.w3.org/2000/svg" version="1.1">
 <metadata>
  <rdf:RDF xmlns:dc="http://purl.org/dc/elements/1.1/" xmlns:cc="http://creativecommons.org/ns#" xmlns:rdf="http://www.w3.org/1999/02/22-rdf-syntax-ns#">
   <cc:Work>
    <dc:type rdf:resource="http://purl.org/dc/dcmitype/StillImage"/>
    <dc:date>2025-04-08T15:15:54.450368</dc:date>
    <dc:format>image/svg+xml</dc:format>
    <dc:creator>
     <cc:Agent>
      <dc:title>Matplotlib v3.8.4, https://matplotlib.org/</dc:title>
     </cc:Agent>
    </dc:creator>
   </cc:Work>
  </rdf:RDF>
 </metadata>
 <defs>
  <style type="text/css">*{stroke-linejoin: round; stroke-linecap: butt}</style>
 </defs>
 <g id="figure_1">
  <g id="patch_1">
   <path d="M 0 324.387937 
L 388.52 324.387937 
L 388.52 0 
L 0 0 
L 0 324.387937 
z
" style="fill: none"/>
  </g>
  <g id="axes_1">
   <g id="patch_2">
    <path d="M 24.2 287.905125 
L 381.32 287.905125 
L 381.32 21.793125 
L 24.2 21.793125 
L 24.2 287.905125 
z
" style="fill: none"/>
   </g>
   <g id="matplotlib.axis_1">
    <g id="xtick_1">
     <g id="line2d_1">
      <path d="M 40.432727 287.905125 
L 40.432727 21.793125 
" clip-path="url(#pb41437e828)" style="fill: none; stroke: #b0b0b0; stroke-width: 0.8; stroke-linecap: square"/>
     </g>
     <g id="line2d_2">
      <defs>
       <path id="mcd98d144b6" d="M 0 0 
L 0 3.5 
" style="stroke: #000000; stroke-width: 0.8"/>
      </defs>
      <g>
       <use xlink:href="#mcd98d144b6" x="40.432727" y="287.905125" style="stroke: #000000; stroke-width: 0.8"/>
      </g>
     </g>
     <g id="text_1">
      <!-- 0.0 -->
      <g transform="translate(34.182727 301.848875) scale(0.1 -0.1)">
       <defs>
        <path id="TimesNewRomanPSMT-30" d="M 231 2094 
Q 231 2819 450 3342 
Q 669 3866 1031 4122 
Q 1313 4325 1613 4325 
Q 2100 4325 2488 3828 
Q 2972 3213 2972 2159 
Q 2972 1422 2759 906 
Q 2547 391 2217 158 
Q 1888 -75 1581 -75 
Q 975 -75 572 641 
Q 231 1244 231 2094 
z
M 844 2016 
Q 844 1141 1059 588 
Q 1238 122 1591 122 
Q 1759 122 1940 273 
Q 2122 425 2216 781 
Q 2359 1319 2359 2297 
Q 2359 3022 2209 3506 
Q 2097 3866 1919 4016 
Q 1791 4119 1609 4119 
Q 1397 4119 1231 3928 
Q 1006 3669 925 3112 
Q 844 2556 844 2016 
z
" transform="scale(0.015625)"/>
        <path id="TimesNewRomanPSMT-2e" d="M 800 606 
Q 947 606 1047 504 
Q 1147 403 1147 259 
Q 1147 116 1045 14 
Q 944 -88 800 -88 
Q 656 -88 554 14 
Q 453 116 453 259 
Q 453 406 554 506 
Q 656 606 800 606 
z
" transform="scale(0.015625)"/>
       </defs>
       <use xlink:href="#TimesNewRomanPSMT-30"/>
       <use xlink:href="#TimesNewRomanPSMT-2e" x="50"/>
       <use xlink:href="#TimesNewRomanPSMT-30" x="75"/>
      </g>
     </g>
    </g>
    <g id="xtick_2">
     <g id="line2d_3">
      <path d="M 105.493758 287.905125 
L 105.493758 21.793125 
" clip-path="url(#pb41437e828)" style="fill: none; stroke: #b0b0b0; stroke-width: 0.8; stroke-linecap: square"/>
     </g>
     <g id="line2d_4">
      <g>
       <use xlink:href="#mcd98d144b6" x="105.493758" y="287.905125" style="stroke: #000000; stroke-width: 0.8"/>
      </g>
     </g>
     <g id="text_2">
      <!-- 0.1 -->
      <g transform="translate(99.243758 301.848875) scale(0.1 -0.1)">
       <defs>
        <path id="TimesNewRomanPSMT-31" d="M 750 3822 
L 1781 4325 
L 1884 4325 
L 1884 747 
Q 1884 391 1914 303 
Q 1944 216 2037 169 
Q 2131 122 2419 116 
L 2419 0 
L 825 0 
L 825 116 
Q 1125 122 1212 167 
Q 1300 213 1334 289 
Q 1369 366 1369 747 
L 1369 3034 
Q 1369 3497 1338 3628 
Q 1316 3728 1258 3775 
Q 1200 3822 1119 3822 
Q 1003 3822 797 3725 
L 750 3822 
z
" transform="scale(0.015625)"/>
       </defs>
       <use xlink:href="#TimesNewRomanPSMT-30"/>
       <use xlink:href="#TimesNewRomanPSMT-2e" x="50"/>
       <use xlink:href="#TimesNewRomanPSMT-31" x="75"/>
      </g>
     </g>
    </g>
    <g id="xtick_3">
     <g id="line2d_5">
      <path d="M 170.55479 287.905125 
L 170.55479 21.793125 
" clip-path="url(#pb41437e828)" style="fill: none; stroke: #b0b0b0; stroke-width: 0.8; stroke-linecap: square"/>
     </g>
     <g id="line2d_6">
      <g>
       <use xlink:href="#mcd98d144b6" x="170.55479" y="287.905125" style="stroke: #000000; stroke-width: 0.8"/>
      </g>
     </g>
     <g id="text_3">
      <!-- 0.2 -->
      <g transform="translate(164.30479 301.848875) scale(0.1 -0.1)">
       <defs>
        <path id="TimesNewRomanPSMT-32" d="M 2934 816 
L 2638 0 
L 138 0 
L 138 116 
Q 1241 1122 1691 1759 
Q 2141 2397 2141 2925 
Q 2141 3328 1894 3587 
Q 1647 3847 1303 3847 
Q 991 3847 742 3664 
Q 494 3481 375 3128 
L 259 3128 
Q 338 3706 661 4015 
Q 984 4325 1469 4325 
Q 1984 4325 2329 3994 
Q 2675 3663 2675 3213 
Q 2675 2891 2525 2569 
Q 2294 2063 1775 1497 
Q 997 647 803 472 
L 1909 472 
Q 2247 472 2383 497 
Q 2519 522 2628 598 
Q 2738 675 2819 816 
L 2934 816 
z
" transform="scale(0.015625)"/>
       </defs>
       <use xlink:href="#TimesNewRomanPSMT-30"/>
       <use xlink:href="#TimesNewRomanPSMT-2e" x="50"/>
       <use xlink:href="#TimesNewRomanPSMT-32" x="75"/>
      </g>
     </g>
    </g>
    <g id="xtick_4">
     <g id="line2d_7">
      <path d="M 235.615821 287.905125 
L 235.615821 21.793125 
" clip-path="url(#pb41437e828)" style="fill: none; stroke: #b0b0b0; stroke-width: 0.8; stroke-linecap: square"/>
     </g>
     <g id="line2d_8">
      <g>
       <use xlink:href="#mcd98d144b6" x="235.615821" y="287.905125" style="stroke: #000000; stroke-width: 0.8"/>
      </g>
     </g>
     <g id="text_4">
      <!-- 0.3 -->
      <g transform="translate(229.365821 301.848875) scale(0.1 -0.1)">
       <defs>
        <path id="TimesNewRomanPSMT-33" d="M 325 3431 
Q 506 3859 782 4092 
Q 1059 4325 1472 4325 
Q 1981 4325 2253 3994 
Q 2459 3747 2459 3466 
Q 2459 3003 1878 2509 
Q 2269 2356 2469 2072 
Q 2669 1788 2669 1403 
Q 2669 853 2319 450 
Q 1863 -75 997 -75 
Q 569 -75 414 31 
Q 259 138 259 259 
Q 259 350 332 419 
Q 406 488 509 488 
Q 588 488 669 463 
Q 722 447 909 348 
Q 1097 250 1169 231 
Q 1284 197 1416 197 
Q 1734 197 1970 444 
Q 2206 691 2206 1028 
Q 2206 1275 2097 1509 
Q 2016 1684 1919 1775 
Q 1784 1900 1550 2001 
Q 1316 2103 1072 2103 
L 972 2103 
L 972 2197 
Q 1219 2228 1467 2375 
Q 1716 2522 1828 2728 
Q 1941 2934 1941 3181 
Q 1941 3503 1739 3701 
Q 1538 3900 1238 3900 
Q 753 3900 428 3381 
L 325 3431 
z
" transform="scale(0.015625)"/>
       </defs>
       <use xlink:href="#TimesNewRomanPSMT-30"/>
       <use xlink:href="#TimesNewRomanPSMT-2e" x="50"/>
       <use xlink:href="#TimesNewRomanPSMT-33" x="75"/>
      </g>
     </g>
    </g>
    <g id="xtick_5">
     <g id="line2d_9">
      <path d="M 300.676852 287.905125 
L 300.676852 21.793125 
" clip-path="url(#pb41437e828)" style="fill: none; stroke: #b0b0b0; stroke-width: 0.8; stroke-linecap: square"/>
     </g>
     <g id="line2d_10">
      <g>
       <use xlink:href="#mcd98d144b6" x="300.676852" y="287.905125" style="stroke: #000000; stroke-width: 0.8"/>
      </g>
     </g>
     <g id="text_5">
      <!-- 0.4 -->
      <g transform="translate(294.426852 301.848875) scale(0.1 -0.1)">
       <defs>
        <path id="TimesNewRomanPSMT-34" d="M 2978 1563 
L 2978 1119 
L 2409 1119 
L 2409 0 
L 1894 0 
L 1894 1119 
L 100 1119 
L 100 1519 
L 2066 4325 
L 2409 4325 
L 2409 1563 
L 2978 1563 
z
M 1894 1563 
L 1894 3666 
L 406 1563 
L 1894 1563 
z
" transform="scale(0.015625)"/>
       </defs>
       <use xlink:href="#TimesNewRomanPSMT-30"/>
       <use xlink:href="#TimesNewRomanPSMT-2e" x="50"/>
       <use xlink:href="#TimesNewRomanPSMT-34" x="75"/>
      </g>
     </g>
    </g>
    <g id="xtick_6">
     <g id="line2d_11">
      <path d="M 365.737883 287.905125 
L 365.737883 21.793125 
" clip-path="url(#pb41437e828)" style="fill: none; stroke: #b0b0b0; stroke-width: 0.8; stroke-linecap: square"/>
     </g>
     <g id="line2d_12">
      <g>
       <use xlink:href="#mcd98d144b6" x="365.737883" y="287.905125" style="stroke: #000000; stroke-width: 0.8"/>
      </g>
     </g>
     <g id="text_6">
      <!-- 0.5 -->
      <g transform="translate(359.487883 301.848875) scale(0.1 -0.1)">
       <defs>
        <path id="TimesNewRomanPSMT-35" d="M 2778 4238 
L 2534 3706 
L 1259 3706 
L 981 3138 
Q 1809 3016 2294 2522 
Q 2709 2097 2709 1522 
Q 2709 1188 2573 903 
Q 2438 619 2231 419 
Q 2025 219 1772 97 
Q 1413 -75 1034 -75 
Q 653 -75 479 54 
Q 306 184 306 341 
Q 306 428 378 495 
Q 450 563 559 563 
Q 641 563 702 538 
Q 763 513 909 409 
Q 1144 247 1384 247 
Q 1750 247 2026 523 
Q 2303 800 2303 1197 
Q 2303 1581 2056 1914 
Q 1809 2247 1375 2428 
Q 1034 2569 447 2591 
L 1259 4238 
L 2778 4238 
z
" transform="scale(0.015625)"/>
       </defs>
       <use xlink:href="#TimesNewRomanPSMT-30"/>
       <use xlink:href="#TimesNewRomanPSMT-2e" x="50"/>
       <use xlink:href="#TimesNewRomanPSMT-35" x="75"/>
      </g>
     </g>
    </g>
    <g id="text_7">
     <!-- $f$ -->
     <g transform="translate(200.31 315.048875) scale(0.1 -0.1)">
      <defs>
       <path id="Cmmi10-66" d="M 622 -1056 
Q 741 -1147 909 -1147 
Q 1138 -1147 1281 -641 
Q 1341 -397 1606 966 
L 1900 2534 
L 1350 2534 
Q 1288 2534 1288 2619 
Q 1313 2759 1369 2759 
L 1941 2759 
L 2016 3175 
Q 2053 3369 2084 3508 
Q 2116 3647 2152 3765 
Q 2188 3884 2259 4031 
Q 2369 4241 2555 4377 
Q 2741 4513 2956 4513 
Q 3097 4513 3230 4461 
Q 3363 4409 3447 4306 
Q 3531 4203 3531 4063 
Q 3531 3900 3423 3779 
Q 3316 3659 3163 3659 
Q 3059 3659 2986 3723 
Q 2913 3788 2913 3891 
Q 2913 4031 3008 4136 
Q 3103 4241 3244 4256 
Q 3125 4347 2950 4347 
Q 2853 4347 2767 4256 
Q 2681 4166 2656 4063 
Q 2616 3900 2478 3181 
L 2400 2759 
L 3059 2759 
Q 3122 2759 3122 2675 
Q 3119 2659 3109 2620 
Q 3100 2581 3083 2557 
Q 3066 2534 3041 2534 
L 2356 2534 
L 2059 972 
Q 2003 631 1929 279 
Q 1856 -72 1723 -442 
Q 1591 -813 1384 -1063 
Q 1178 -1313 897 -1313 
Q 681 -1313 511 -1189 
Q 341 -1066 341 -863 
Q 341 -700 445 -579 
Q 550 -459 709 -459 
Q 816 -459 887 -523 
Q 959 -588 959 -691 
Q 959 -828 857 -942 
Q 756 -1056 622 -1056 
z
" transform="scale(0.015625)"/>
      </defs>
      <use xlink:href="#Cmmi10-66" transform="translate(0 0.484375)"/>
     </g>
    </g>
   </g>
   <g id="matplotlib.axis_2">
    <g id="ytick_1">
     <g id="line2d_13">
      <path d="M 24.2 275.813032 
L 381.32 275.813032 
" clip-path="url(#pb41437e828)" style="fill: none; stroke: #b0b0b0; stroke-width: 0.8; stroke-linecap: square"/>
     </g>
     <g id="line2d_14">
      <defs>
       <path id="md70b4697aa" d="M 0 0 
L -3.5 0 
" style="stroke: #000000; stroke-width: 0.8"/>
      </defs>
      <g>
       <use xlink:href="#md70b4697aa" x="24.2" y="275.813032" style="stroke: #000000; stroke-width: 0.8"/>
      </g>
     </g>
     <g id="text_8">
      <!-- 0 -->
      <g transform="translate(12.2 279.284907) scale(0.1 -0.1)">
       <use xlink:href="#TimesNewRomanPSMT-30"/>
      </g>
     </g>
    </g>
    <g id="ytick_2">
     <g id="line2d_15">
      <path d="M 24.2 232.096689 
L 381.32 232.096689 
" clip-path="url(#pb41437e828)" style="fill: none; stroke: #b0b0b0; stroke-width: 0.8; stroke-linecap: square"/>
     </g>
     <g id="line2d_16">
      <g>
       <use xlink:href="#md70b4697aa" x="24.2" y="232.096689" style="stroke: #000000; stroke-width: 0.8"/>
      </g>
     </g>
     <g id="text_9">
      <!-- 10 -->
      <g transform="translate(7.2 235.568564) scale(0.1 -0.1)">
       <use xlink:href="#TimesNewRomanPSMT-31"/>
       <use xlink:href="#TimesNewRomanPSMT-30" x="50"/>
      </g>
     </g>
    </g>
    <g id="ytick_3">
     <g id="line2d_17">
      <path d="M 24.2 188.380346 
L 381.32 188.380346 
" clip-path="url(#pb41437e828)" style="fill: none; stroke: #b0b0b0; stroke-width: 0.8; stroke-linecap: square"/>
     </g>
     <g id="line2d_18">
      <g>
       <use xlink:href="#md70b4697aa" x="24.2" y="188.380346" style="stroke: #000000; stroke-width: 0.8"/>
      </g>
     </g>
     <g id="text_10">
      <!-- 20 -->
      <g transform="translate(7.2 191.852221) scale(0.1 -0.1)">
       <use xlink:href="#TimesNewRomanPSMT-32"/>
       <use xlink:href="#TimesNewRomanPSMT-30" x="50"/>
      </g>
     </g>
    </g>
    <g id="ytick_4">
     <g id="line2d_19">
      <path d="M 24.2 144.664002 
L 381.32 144.664002 
" clip-path="url(#pb41437e828)" style="fill: none; stroke: #b0b0b0; stroke-width: 0.8; stroke-linecap: square"/>
     </g>
     <g id="line2d_20">
      <g>
       <use xlink:href="#md70b4697aa" x="24.2" y="144.664002" style="stroke: #000000; stroke-width: 0.8"/>
      </g>
     </g>
     <g id="text_11">
      <!-- 30 -->
      <g transform="translate(7.2 148.135877) scale(0.1 -0.1)">
       <use xlink:href="#TimesNewRomanPSMT-33"/>
       <use xlink:href="#TimesNewRomanPSMT-30" x="50"/>
      </g>
     </g>
    </g>
    <g id="ytick_5">
     <g id="line2d_21">
      <path d="M 24.2 100.947659 
L 381.32 100.947659 
" clip-path="url(#pb41437e828)" style="fill: none; stroke: #b0b0b0; stroke-width: 0.8; stroke-linecap: square"/>
     </g>
     <g id="line2d_22">
      <g>
       <use xlink:href="#md70b4697aa" x="24.2" y="100.947659" style="stroke: #000000; stroke-width: 0.8"/>
      </g>
     </g>
     <g id="text_12">
      <!-- 40 -->
      <g transform="translate(7.2 104.419534) scale(0.1 -0.1)">
       <use xlink:href="#TimesNewRomanPSMT-34"/>
       <use xlink:href="#TimesNewRomanPSMT-30" x="50"/>
      </g>
     </g>
    </g>
    <g id="ytick_6">
     <g id="line2d_23">
      <path d="M 24.2 57.231315 
L 381.32 57.231315 
" clip-path="url(#pb41437e828)" style="fill: none; stroke: #b0b0b0; stroke-width: 0.8; stroke-linecap: square"/>
     </g>
     <g id="line2d_24">
      <g>
       <use xlink:href="#md70b4697aa" x="24.2" y="57.231315" style="stroke: #000000; stroke-width: 0.8"/>
      </g>
     </g>
     <g id="text_13">
      <!-- 50 -->
      <g transform="translate(7.2 60.70319) scale(0.1 -0.1)">
       <use xlink:href="#TimesNewRomanPSMT-35"/>
       <use xlink:href="#TimesNewRomanPSMT-30" x="50"/>
      </g>
     </g>
    </g>
   </g>
   <g id="line2d_25">
    <path d="M 40.432727 269.117975 
L 41.083338 258.288587 
L 41.733948 262.246685 
L 42.384558 273.300897 
L 43.035169 253.111903 
L 43.685779 271.881085 
L 44.336389 236.887258 
L 44.986999 272.8722 
L 45.63761 274.283827 
L 46.28822 33.889125 
L 46.93883 265.282608 
L 47.589441 263.948766 
L 48.240051 246.011564 
L 48.890661 273.051662 
L 49.541272 274.009237 
L 50.191882 267.559101 
L 50.842492 265.550202 
L 51.493103 259.99201 
L 52.143713 266.563667 
L 52.794323 259.244708 
L 53.444934 274.802454 
L 54.095544 271.649082 
L 54.746154 272.858511 
L 55.396764 266.697798 
L 56.047375 266.929206 
L 56.697985 260.359672 
L 57.348595 275.561176 
L 57.999206 275.329437 
L 58.649816 271.036659 
L 59.300426 275.709409 
L 59.951037 258.251511 
L 60.601647 271.316582 
L 61.252257 272.51414 
L 61.902868 257.110872 
L 62.553478 221.56021 
L 63.204088 242.589353 
L 63.854698 252.648854 
L 64.505309 269.756067 
L 65.155919 262.866472 
L 65.806529 272.171157 
L 66.45714 274.611281 
L 67.10775 264.707427 
L 67.75836 266.802452 
L 68.408971 275.690132 
L 69.059581 272.402782 
L 69.710191 251.651632 
L 70.360802 253.265377 
L 71.011412 270.607432 
L 71.662022 266.268548 
L 72.312633 262.747127 
L 72.963243 273.399528 
L 73.613853 275.803584 
L 74.264463 259.113947 
L 75.565684 275.071533 
L 76.216294 271.039615 
L 76.866905 273.461171 
L 77.517515 255.783523 
L 78.168125 274.777985 
L 78.818736 274.908429 
L 79.469346 274.198052 
L 80.119956 273.995119 
L 80.770567 273.433445 
L 81.421177 265.465241 
L 82.071787 265.45287 
L 82.722398 275.280349 
L 83.373008 274.989694 
L 84.023618 268.418902 
L 84.674228 273.542764 
L 85.324839 258.900613 
L 85.975449 263.870367 
L 86.626059 264.274246 
L 87.27667 267.545714 
L 87.92728 268.634586 
L 88.57789 256.454494 
L 89.228501 272.518074 
L 89.879111 273.60415 
L 90.529721 273.564666 
L 91.830942 273.214138 
L 92.481552 263.221103 
L 93.132163 269.46917 
L 93.782773 261.933097 
L 94.433383 258.49089 
L 95.083993 272.238133 
L 95.734604 274.11293 
L 96.385214 268.830905 
L 97.035824 268.428892 
L 97.686435 274.673735 
L 98.337045 272.064343 
L 98.987655 272.215957 
L 99.638266 266.250786 
L 100.288876 244.559275 
L 100.939486 261.979611 
L 101.590097 261.135741 
L 102.240707 263.195112 
L 102.891317 265.920381 
L 103.541927 264.709053 
L 104.192538 268.875742 
L 104.843148 247.568196 
L 105.493758 260.842173 
L 106.144369 266.091486 
L 107.445589 269.356508 
L 108.0962 265.571382 
L 108.74681 272.832094 
L 109.39742 272.465805 
L 110.048031 260.03509 
L 111.349251 274.511797 
L 111.999862 246.208147 
L 112.650472 268.023551 
L 113.301082 268.674952 
L 113.951692 255.735058 
L 114.602303 248.417865 
L 115.252913 267.268862 
L 115.903523 244.583864 
L 116.554134 274.395352 
L 117.204744 273.898253 
L 117.855354 275.573898 
L 118.505965 241.33049 
L 119.156575 274.687155 
L 119.807185 248.592887 
L 120.457796 275.27455 
L 121.108406 264.60387 
L 121.759016 257.389665 
L 122.409627 275.743121 
L 123.060237 269.125934 
L 123.710847 274.169868 
L 124.361457 275.584217 
L 125.012068 263.887259 
L 125.662678 261.406393 
L 126.313288 261.240392 
L 126.963899 255.907359 
L 127.614509 258.307945 
L 128.265119 271.66456 
L 128.91573 270.426952 
L 129.56634 270.478713 
L 130.21695 269.805135 
L 130.867561 272.771294 
L 131.518171 274.624278 
L 132.168781 275.227425 
L 132.819392 265.347301 
L 133.470002 275.36067 
L 134.771222 264.730017 
L 136.072443 274.739511 
L 136.723053 257.776803 
L 137.373664 256.17674 
L 138.024274 265.989987 
L 138.674884 244.870723 
L 139.325495 259.531164 
L 139.976105 262.665447 
L 140.626715 266.824046 
L 141.277326 269.802421 
L 141.927936 266.287763 
L 142.578546 270.303613 
L 143.229156 273.594904 
L 143.879767 261.032319 
L 144.530377 274.714159 
L 145.180987 251.802663 
L 145.831598 264.611138 
L 146.482208 266.813664 
L 147.132818 260.39279 
L 147.783429 275.48213 
L 148.434039 272.888744 
L 149.084649 273.903119 
L 149.73526 269.443974 
L 150.38587 269.083552 
L 151.03648 260.008261 
L 151.687091 275.04016 
L 152.337701 274.899046 
L 152.988311 272.495625 
L 153.638921 269.277982 
L 154.289532 274.255215 
L 154.940142 270.070017 
L 155.590752 275.606815 
L 156.241363 250.821929 
L 156.891973 275.16378 
L 157.542583 261.288177 
L 158.193194 270.758026 
L 158.843804 271.35657 
L 159.494414 274.67574 
L 160.145025 272.508982 
L 160.795635 272.211884 
L 161.446245 259.583844 
L 162.096856 270.959587 
L 162.747466 264.06752 
L 163.398076 272.111379 
L 164.048686 250.603072 
L 164.699297 267.516404 
L 165.349907 272.559711 
L 166.000517 274.356672 
L 166.651128 271.706141 
L 167.301738 271.735925 
L 167.952348 268.675074 
L 168.602959 275.736434 
L 169.253569 274.946749 
L 169.904179 271.041968 
L 170.55479 260.258952 
L 171.2054 272.090903 
L 171.85601 274.987026 
L 172.506621 271.214124 
L 173.157231 273.473855 
L 173.807841 274.787948 
L 174.458451 269.994985 
L 175.109062 275.44868 
L 175.759672 274.623095 
L 176.410282 268.004277 
L 177.060893 271.867035 
L 177.711503 263.396691 
L 178.362113 268.477608 
L 179.012724 268.588403 
L 179.663334 272.742414 
L 180.313944 275.168026 
L 180.964555 267.959152 
L 181.615165 272.130683 
L 182.265775 265.746579 
L 182.916385 260.783797 
L 183.566996 274.735255 
L 184.217606 272.524533 
L 184.868216 275.111243 
L 185.518827 274.799828 
L 186.169437 267.279772 
L 186.820047 274.949791 
L 187.470658 239.276642 
L 188.121268 271.271563 
L 188.771878 274.541042 
L 189.422489 265.902224 
L 190.073099 272.177234 
L 190.723709 274.1779 
L 191.37432 267.325355 
L 192.02493 264.468712 
L 192.67554 273.701994 
L 193.32615 262.358133 
L 193.976761 274.921504 
L 194.627371 274.226238 
L 195.277981 274.2698 
L 195.928592 274.524055 
L 196.579202 263.284798 
L 197.229812 271.802307 
L 197.880423 245.712024 
L 198.531033 259.890149 
L 199.832254 244.162864 
L 200.482864 271.803209 
L 201.133474 265.162205 
L 202.434695 270.705577 
L 203.085305 270.61183 
L 203.735915 256.258171 
L 204.386526 272.51335 
L 205.037136 270.30883 
L 205.687746 273.945291 
L 206.338357 268.149364 
L 207.639577 274.937241 
L 208.290188 274.311257 
L 208.940798 262.714963 
L 209.591408 268.449648 
L 210.242019 272.572126 
L 210.892629 275.06279 
L 211.543239 263.322809 
L 212.19385 248.459217 
L 212.84446 258.45201 
L 213.49507 271.967745 
L 214.14568 275.80755 
L 214.796291 267.199103 
L 215.446901 270.706336 
L 216.097511 273.527057 
L 216.748122 266.323743 
L 217.398732 238.971875 
L 218.049342 274.451746 
L 218.699953 275.687545 
L 219.350563 275.197025 
L 220.001173 273.16588 
L 220.651784 263.070022 
L 221.302394 265.484333 
L 221.953004 270.621907 
L 222.603615 271.059955 
L 223.254225 259.614199 
L 223.904835 272.206928 
L 224.555445 271.226175 
L 225.206056 268.876526 
L 225.856666 235.24743 
L 226.507276 265.828381 
L 227.157887 273.882599 
L 227.808497 272.471163 
L 228.459107 243.770305 
L 229.109718 267.885605 
L 230.410938 275.035599 
L 231.061549 273.858228 
L 231.712159 249.570882 
L 232.362769 266.804169 
L 233.013379 275.716997 
L 233.66399 272.194502 
L 234.96521 272.248169 
L 235.615821 267.001898 
L 236.266431 272.017216 
L 236.917041 274.322197 
L 237.567652 275.155905 
L 238.218262 273.120448 
L 238.868872 266.634547 
L 239.519483 272.715149 
L 240.170093 269.826954 
L 240.820703 254.079652 
L 241.471314 272.028565 
L 242.121924 275.367934 
L 242.772534 266.961828 
L 243.423144 268.637924 
L 244.073755 275.659399 
L 244.724365 274.762537 
L 245.374975 272.045695 
L 246.025586 275.71231 
L 246.676196 272.223679 
L 247.326806 271.114243 
L 247.977417 274.339122 
L 248.628027 274.689272 
L 249.278637 261.625381 
L 249.929248 272.797941 
L 250.579858 261.75007 
L 251.230468 238.65679 
L 251.881079 266.518397 
L 252.531689 273.680455 
L 253.182299 265.775486 
L 253.832909 264.229631 
L 254.48352 273.264152 
L 255.13413 272.465802 
L 255.78474 275.277112 
L 256.435351 249.685704 
L 257.085961 254.749719 
L 257.736571 256.20283 
L 258.387182 270.588434 
L 259.037792 272.465099 
L 259.688402 271.494968 
L 260.339013 256.299672 
L 260.989623 223.404117 
L 261.640233 273.693144 
L 262.290844 275.06439 
L 262.941454 267.689453 
L 263.592064 269.726909 
L 264.242674 275.501615 
L 264.893285 274.454535 
L 265.543895 269.337331 
L 266.194505 273.21204 
L 266.845116 268.26378 
L 267.495726 273.597967 
L 268.146336 269.555889 
L 268.796947 273.718336 
L 269.447557 266.370721 
L 270.098167 266.561101 
L 270.748778 257.44785 
L 271.399388 275.7863 
L 272.049998 253.146768 
L 272.700608 259.690756 
L 273.351219 248.669315 
L 274.001829 268.659024 
L 274.652439 275.536926 
L 275.30305 275.510636 
L 275.95366 274.202095 
L 276.60427 274.458349 
L 277.254881 273.673798 
L 277.905491 271.24776 
L 278.556101 252.109772 
L 279.206712 269.692804 
L 279.857322 274.424986 
L 280.507932 266.121139 
L 281.158543 252.164765 
L 281.809153 267.672613 
L 282.459763 271.430195 
L 283.110373 262.748873 
L 283.760984 274.178757 
L 284.411594 243.458298 
L 285.062204 273.210117 
L 285.712815 260.097504 
L 286.363425 275.77022 
L 287.014035 269.180192 
L 287.664646 251.01853 
L 288.315256 265.510413 
L 288.965866 273.074442 
L 289.616477 274.129334 
L 290.267087 265.267172 
L 290.917697 258.824459 
L 291.568308 268.169901 
L 292.218918 242.466643 
L 292.869528 271.673376 
L 293.520138 272.854068 
L 294.170749 272.920462 
L 294.821359 264.463457 
L 295.471969 272.108891 
L 296.12258 273.073874 
L 296.77319 270.512077 
L 297.4238 270.197651 
L 298.074411 265.992534 
L 298.725021 263.879567 
L 299.375631 266.106913 
L 300.026242 275.350793 
L 300.676852 274.591557 
L 301.327462 236.424533 
L 301.978073 271.026745 
L 302.628683 270.304241 
L 303.279293 267.398157 
L 303.929903 272.16251 
L 304.580514 274.564925 
L 305.231124 257.762877 
L 305.881734 270.213678 
L 306.532345 264.206906 
L 307.182955 275.015048 
L 307.833565 268.737397 
L 308.484176 258.867533 
L 309.134786 274.515054 
L 309.785396 266.226139 
L 310.436007 270.560045 
L 311.086617 255.599391 
L 311.737227 274.195462 
L 312.387837 269.200505 
L 313.038448 257.40794 
L 313.689058 251.858113 
L 314.990279 261.038172 
L 315.640889 270.911086 
L 316.291499 275.749435 
L 316.94211 230.881821 
L 317.59272 265.451315 
L 318.24333 268.182461 
L 318.893941 265.174806 
L 319.544551 275.592779 
L 320.195161 275.510187 
L 320.845772 273.781878 
L 321.496382 275.546689 
L 322.146992 273.03323 
L 322.797602 267.516027 
L 323.448213 256.775254 
L 324.749433 272.857549 
L 325.400044 274.248292 
L 326.050654 271.128379 
L 326.701264 269.31106 
L 327.351875 273.04877 
L 328.002485 272.875076 
L 328.653095 273.629354 
L 329.303706 269.933614 
L 329.954316 268.79634 
L 330.604926 273.755836 
L 331.255537 265.739262 
L 331.906147 268.867765 
L 332.556757 265.207134 
L 333.207367 270.880607 
L 333.857978 272.390092 
L 334.508588 271.985207 
L 335.159198 274.297978 
L 335.809809 263.830527 
L 336.460419 274.7897 
L 337.111029 269.371682 
L 337.76164 270.943422 
L 338.41225 275.518546 
L 339.06286 264.055304 
L 339.713471 265.525409 
L 340.364081 270.493782 
L 341.014691 264.798089 
L 341.665302 274.975491 
L 342.315912 271.032745 
L 342.966522 264.066735 
L 343.617132 271.208187 
L 344.267743 275.584027 
L 344.918353 254.654994 
L 345.568963 275.224122 
L 346.219574 258.267503 
L 346.870184 269.285269 
L 347.520794 250.266545 
L 348.171405 272.277103 
L 348.822015 246.611411 
L 349.472625 275.435708 
L 350.123236 268.161804 
L 350.773846 274.993228 
L 351.424456 274.524076 
L 352.075066 274.685078 
L 352.725677 274.666187 
L 353.376287 275.524823 
L 354.026897 272.897896 
L 354.677508 275.550887 
L 355.328118 254.935945 
L 355.978728 252.02277 
L 356.629339 268.225576 
L 357.279949 269.710776 
L 357.930559 259.19779 
L 359.23178 265.073785 
L 359.88239 265.233505 
L 360.533001 267.507111 
L 361.183611 270.55624 
L 361.834221 271.713509 
L 362.484831 273.779352 
L 363.135442 274.847867 
L 363.786052 268.523149 
L 364.436662 273.52178 
L 365.087273 275.704103 
L 365.087273 275.704103 
" clip-path="url(#pb41437e828)" style="fill: none; stroke: #000000; stroke-width: 1.5; stroke-linecap: square"/>
   </g>
   <g id="line2d_26">
    <path d="M 40.432727 275.166897 
L 41.083338 260.062851 
L 41.733948 272.111237 
L 42.384558 270.909452 
L 43.035169 255.919878 
L 43.685779 270.145902 
L 44.336389 273.87099 
L 44.986999 262.830523 
L 45.63761 269.854232 
L 46.28822 270.835248 
L 46.93883 268.214945 
L 48.890661 248.688846 
L 49.541272 275.8067 
L 50.191882 272.407154 
L 50.842492 272.151059 
L 51.493103 271.335891 
L 52.143713 264.528914 
L 52.794323 269.570346 
L 53.444934 269.317549 
L 54.095544 274.484536 
L 54.746154 275.368156 
L 55.396764 271.343934 
L 56.047375 254.440792 
L 56.697985 275.594504 
L 57.348595 234.206025 
L 57.999206 274.80302 
L 58.649816 274.411322 
L 59.300426 264.893234 
L 60.601647 273.738629 
L 61.252257 275.621105 
L 61.902868 254.309064 
L 62.553478 266.380154 
L 63.204088 265.019602 
L 63.854698 270.414627 
L 64.505309 269.13279 
L 65.155919 275.32985 
L 65.806529 262.635435 
L 66.45714 239.198585 
L 67.75836 274.426484 
L 68.408971 269.611597 
L 69.059581 272.481957 
L 69.710191 259.656116 
L 70.360802 272.147444 
L 71.011412 253.682187 
L 71.662022 273.643512 
L 72.312633 273.504046 
L 72.963243 272.865607 
L 73.613853 274.587936 
L 74.264463 272.390196 
L 74.915074 273.690504 
L 75.565684 274.559126 
L 76.216294 272.557238 
L 76.866905 266.090769 
L 77.517515 271.945445 
L 78.168125 253.441136 
L 78.818736 273.512699 
L 79.469346 275.243855 
L 80.119956 250.175524 
L 80.770567 266.771495 
L 81.421177 272.906605 
L 82.071787 271.677293 
L 83.373008 242.807291 
L 84.023618 266.090203 
L 84.674228 268.947501 
L 85.324839 258.396263 
L 85.975449 260.245949 
L 86.626059 264.385449 
L 87.27667 275.33371 
L 87.92728 269.759677 
L 88.57789 252.065453 
L 89.228501 260.144401 
L 89.879111 274.214439 
L 90.529721 264.58523 
L 91.180332 260.7035 
L 91.830942 275.491102 
L 92.481552 261.786549 
L 93.132163 267.530546 
L 93.782773 274.54802 
L 94.433383 271.822462 
L 95.083993 256.014151 
L 95.734604 271.209751 
L 96.385214 262.964893 
L 97.035824 269.057745 
L 97.686435 262.973094 
L 98.337045 275.012504 
L 98.987655 274.058453 
L 99.638266 272.112787 
L 100.288876 272.95714 
L 100.939486 272.751715 
L 101.590097 269.420996 
L 102.240707 275.677575 
L 102.891317 274.720538 
L 103.541927 275.497681 
L 104.192538 271.92578 
L 104.843148 271.799597 
L 105.493758 260.975108 
L 106.144369 266.876171 
L 106.794979 275.428552 
L 107.445589 268.233681 
L 108.0962 272.956408 
L 108.74681 272.327836 
L 109.39742 260.355468 
L 110.048031 275.56049 
L 110.698641 272.369368 
L 111.349251 272.910816 
L 111.999862 251.589451 
L 112.650472 273.342153 
L 113.301082 275.286009 
L 113.951692 269.408586 
L 114.602303 266.571791 
L 115.252913 273.917237 
L 115.903523 267.834068 
L 116.554134 274.507557 
L 117.204744 272.894744 
L 117.855354 269.943011 
L 118.505965 265.918509 
L 119.156575 265.621974 
L 119.807185 270.930643 
L 120.457796 267.11302 
L 121.108406 257.662602 
L 121.759016 275.541988 
L 122.409627 255.405988 
L 123.060237 270.715869 
L 123.710847 223.867427 
L 124.361457 268.776594 
L 125.012068 270.516077 
L 125.662678 252.526014 
L 126.313288 267.289627 
L 126.963899 265.127957 
L 127.614509 261.336382 
L 128.265119 244.560203 
L 128.91573 274.976955 
L 129.56634 273.770505 
L 130.21695 257.549097 
L 130.867561 263.201066 
L 131.518171 271.77852 
L 132.168781 252.611908 
L 132.819392 263.553069 
L 134.120612 274.978583 
L 134.771222 275.135881 
L 135.421833 260.393561 
L 136.072443 259.009091 
L 136.723053 268.036941 
L 137.373664 261.475396 
L 138.024274 257.674391 
L 138.674884 275.7136 
L 139.325495 268.106278 
L 139.976105 274.202555 
L 140.626715 275.809125 
L 141.277326 274.685278 
L 141.927936 267.628492 
L 143.229156 274.798795 
L 143.879767 274.619094 
L 144.530377 274.274631 
L 145.180987 266.152665 
L 145.831598 262.440018 
L 146.482208 272.707117 
L 147.132818 274.546401 
L 147.783429 271.584959 
L 148.434039 272.700191 
L 149.084649 268.93376 
L 149.73526 260.783311 
L 150.38587 260.23301 
L 151.03648 268.921787 
L 151.687091 274.284387 
L 152.337701 234.023062 
L 152.988311 262.791701 
L 153.638921 270.046578 
L 154.289532 268.613586 
L 154.940142 268.96802 
L 155.590752 259.561156 
L 156.241363 274.606008 
L 156.891973 273.99428 
L 157.542583 270.653955 
L 158.193194 266.691401 
L 158.843804 242.489051 
L 159.494414 275.069559 
L 160.145025 245.617596 
L 160.795635 272.970523 
L 161.446245 259.60002 
L 162.096856 267.190639 
L 162.747466 261.463651 
L 163.398076 265.42791 
L 164.048686 260.653466 
L 164.699297 269.461578 
L 165.349907 274.088244 
L 166.000517 275.580566 
L 166.651128 275.47767 
L 167.301738 272.54194 
L 167.952348 275.417177 
L 169.253569 267.671253 
L 169.904179 268.973004 
L 170.55479 256.362519 
L 171.2054 268.731149 
L 171.85601 272.6633 
L 172.506621 272.898442 
L 173.157231 205.865654 
L 173.807841 254.282507 
L 174.458451 258.204865 
L 175.109062 260.850928 
L 175.759672 268.244022 
L 176.410282 271.397119 
L 177.060893 256.333076 
L 177.711503 274.024094 
L 178.362113 272.188133 
L 179.012724 264.241215 
L 179.663334 266.24752 
L 180.313944 271.658455 
L 180.964555 275.675483 
L 181.615165 275.228051 
L 182.265775 232.370708 
L 182.916385 270.062083 
L 183.566996 263.447974 
L 184.217606 266.060784 
L 184.868216 267.356008 
L 185.518827 272.621833 
L 186.169437 269.283086 
L 187.470658 265.670056 
L 188.121268 265.457195 
L 188.771878 275.000039 
L 189.422489 272.627458 
L 190.073099 268.997999 
L 190.723709 266.249458 
L 191.37432 266.855712 
L 192.02493 264.973742 
L 192.67554 267.16311 
L 193.32615 272.367112 
L 193.976761 267.833762 
L 194.627371 272.99196 
L 195.277981 226.392496 
L 195.928592 272.476817 
L 196.579202 275.342289 
L 197.229812 264.560103 
L 197.880423 264.607575 
L 199.181643 274.218286 
L 199.832254 273.131119 
L 201.133474 269.048371 
L 201.784085 264.826428 
L 202.434695 269.055366 
L 203.085305 274.320823 
L 203.735915 269.633346 
L 204.386526 274.147746 
L 205.037136 260.197534 
L 205.687746 268.524638 
L 206.338357 269.036922 
L 206.988967 265.731023 
L 207.639577 253.310017 
L 208.290188 271.63551 
L 208.940798 268.068494 
L 209.591408 274.732981 
L 210.242019 270.895758 
L 210.892629 270.537999 
L 211.543239 272.426066 
L 212.19385 258.331638 
L 212.84446 258.989802 
L 213.49507 273.921067 
L 214.14568 269.740855 
L 214.796291 271.349472 
L 215.446901 275.578161 
L 216.097511 263.578992 
L 216.748122 272.562087 
L 217.398732 274.424714 
L 218.699953 273.331144 
L 219.350563 268.769908 
L 220.001173 266.38708 
L 220.651784 245.521602 
L 221.302394 272.144604 
L 221.953004 273.702075 
L 222.603615 273.992833 
L 223.254225 274.467593 
L 223.904835 255.478664 
L 224.555445 261.531711 
L 225.206056 263.267318 
L 225.856666 267.398298 
L 226.507276 269.596749 
L 227.157887 264.410866 
L 228.459107 275.679113 
L 229.109718 274.852682 
L 229.760328 272.054959 
L 230.410938 266.745912 
L 231.061549 271.234262 
L 231.712159 266.05938 
L 232.362769 274.830734 
L 233.013379 255.461411 
L 233.66399 270.562944 
L 234.3146 250.411195 
L 234.96521 268.441338 
L 235.615821 274.746383 
L 236.266431 272.672804 
L 236.917041 273.92126 
L 237.567652 273.207608 
L 238.218262 275.297967 
L 238.868872 269.446291 
L 239.519483 247.283012 
L 240.170093 261.332795 
L 240.820703 260.863543 
L 241.471314 265.000207 
L 242.772534 249.286306 
L 243.423144 269.014046 
L 244.073755 267.67511 
L 244.724365 260.262007 
L 245.374975 265.647197 
L 246.025586 273.233049 
L 246.676196 275.604246 
L 247.326806 274.78045 
L 247.977417 275.043819 
L 248.628027 275.648846 
L 249.278637 261.362405 
L 249.929248 263.126597 
L 250.579858 275.768416 
L 251.230468 267.184817 
L 251.881079 275.010135 
L 252.531689 274.672942 
L 253.182299 260.652132 
L 253.832909 239.82074 
L 254.48352 272.358772 
L 255.13413 264.172538 
L 255.78474 264.05368 
L 256.435351 265.428482 
L 257.085961 275.777247 
L 257.736571 273.965552 
L 258.387182 274.876531 
L 259.037792 258.422718 
L 260.339013 269.58171 
L 260.989623 259.085764 
L 261.640233 266.729986 
L 262.290844 250.307935 
L 262.941454 259.638431 
L 263.592064 272.519322 
L 264.242674 265.177922 
L 264.893285 270.167976 
L 265.543895 258.593311 
L 266.194505 261.27297 
L 266.845116 267.01521 
L 267.495726 275.049779 
L 268.146336 274.85409 
L 268.796947 267.569546 
L 269.447557 273.595076 
L 270.098167 262.565151 
L 270.748778 271.308578 
L 271.399388 275.631925 
L 272.049998 270.742869 
L 272.700608 271.496385 
L 273.351219 262.863022 
L 274.001829 274.956025 
L 274.652439 274.712812 
L 275.30305 274.15858 
L 275.95366 262.021352 
L 276.60427 272.25574 
L 277.254881 274.255005 
L 277.905491 262.239618 
L 278.556101 274.783288 
L 279.206712 275.226994 
L 279.857322 271.944148 
L 280.507932 258.464169 
L 281.158543 269.480721 
L 281.809153 271.053729 
L 282.459763 274.372191 
L 283.110373 270.868101 
L 283.760984 270.855908 
L 284.411594 274.869046 
L 285.062204 271.586629 
L 285.712815 267.207192 
L 286.363425 248.135097 
L 287.014035 269.07511 
L 287.664646 274.177371 
L 288.315256 271.128751 
L 289.616477 259.193079 
L 290.267087 268.784394 
L 290.917697 267.776055 
L 291.568308 275.53696 
L 292.218918 273.604776 
L 292.869528 260.825411 
L 293.520138 253.156701 
L 294.170749 273.921466 
L 294.821359 269.145404 
L 295.471969 275.462158 
L 296.12258 275.243441 
L 296.77319 274.833062 
L 297.4238 275.141447 
L 298.074411 246.275056 
L 298.725021 250.08022 
L 299.375631 273.759422 
L 300.026242 268.791387 
L 300.676852 272.570387 
L 301.327462 260.052126 
L 301.978073 271.080991 
L 302.628683 273.42018 
L 303.279293 273.510498 
L 303.929903 264.116825 
L 304.580514 274.430597 
L 305.231124 271.252922 
L 306.532345 246.359894 
L 307.182955 274.358836 
L 307.833565 245.430329 
L 308.484176 272.874916 
L 309.134786 267.973745 
L 309.785396 252.547926 
L 310.436007 261.058936 
L 311.086617 273.602151 
L 311.737227 263.629602 
L 312.387837 263.663324 
L 313.038448 274.963155 
L 313.689058 274.178577 
L 314.339668 271.486988 
L 314.990279 250.263659 
L 315.640889 273.633599 
L 316.291499 261.08273 
L 316.94211 265.357066 
L 317.59272 274.445017 
L 318.24333 266.57002 
L 318.893941 274.400803 
L 319.544551 269.985027 
L 320.845772 250.677393 
L 321.496382 271.230613 
L 322.146992 264.471521 
L 322.797602 272.993283 
L 323.448213 272.092511 
L 324.098823 269.735002 
L 324.749433 272.639239 
L 325.400044 271.74182 
L 326.050654 274.255497 
L 326.701264 246.68735 
L 327.351875 251.791842 
L 328.002485 270.263579 
L 328.653095 267.503729 
L 329.303706 268.064798 
L 329.954316 262.041169 
L 330.604926 275.35445 
L 331.255537 274.852235 
L 331.906147 257.937892 
L 332.556757 270.330508 
L 333.207367 270.213637 
L 333.857978 251.944272 
L 334.508588 266.227594 
L 335.159198 271.634689 
L 335.809809 272.726159 
L 336.460419 274.124861 
L 337.111029 273.487818 
L 337.76164 258.990414 
L 338.41225 275.436007 
L 339.06286 275.445694 
L 339.713471 275.165478 
L 340.364081 269.792805 
L 341.014691 266.422644 
L 341.665302 259.498113 
L 342.315912 263.553344 
L 342.966522 274.260432 
L 343.617132 253.775105 
L 344.267743 270.527674 
L 344.918353 264.963548 
L 345.568963 243.299244 
L 346.219574 270.647151 
L 346.870184 238.567705 
L 347.520794 268.88283 
L 348.171405 253.977846 
L 348.822015 273.258451 
L 349.472625 275.54234 
L 350.123236 272.584216 
L 350.773846 266.632228 
L 351.424456 264.991386 
L 352.725677 272.854887 
L 353.376287 271.983506 
L 354.026897 273.007989 
L 354.677508 263.825411 
L 355.328118 270.18767 
L 355.978728 272.147713 
L 356.629339 256.410479 
L 357.279949 269.34592 
L 357.930559 256.499055 
L 358.58117 260.109233 
L 359.23178 268.324597 
L 359.88239 273.421087 
L 360.533001 274.996374 
L 361.183611 268.584528 
L 361.834221 263.372179 
L 362.484831 275.345422 
L 363.135442 269.978008 
L 363.786052 259.060853 
L 364.436662 263.199001 
L 365.087273 270.865683 
L 365.087273 270.865683 
" clip-path="url(#pb41437e828)" style="fill: none; stroke: #808080; stroke-linecap: square"/>
   </g>
   <g id="line2d_27">
    <defs>
     <path id="me272cae205" d="M -3 3 
L 3 -3 
M -3 -3 
L 3 3 
" style="stroke: #ff0000"/>
    </defs>
    <g clip-path="url(#pb41437e828)">
     <use xlink:href="#me272cae205" x="46.93883" y="188.380346" style="fill: #ff0000; stroke: #ff0000"/>
    </g>
   </g>
   <g id="patch_3">
    <path d="M 24.2 287.905125 
L 24.2 21.793125 
" style="fill: none; stroke: #000000; stroke-width: 0.8; stroke-linejoin: miter; stroke-linecap: square"/>
   </g>
   <g id="patch_4">
    <path d="M 381.32 287.905125 
L 381.32 21.793125 
" style="fill: none; stroke: #000000; stroke-width: 0.8; stroke-linejoin: miter; stroke-linecap: square"/>
   </g>
   <g id="patch_5">
    <path d="M 24.2 287.905125 
L 381.32 287.905125 
" style="fill: none; stroke: #000000; stroke-width: 0.8; stroke-linejoin: miter; stroke-linecap: square"/>
   </g>
   <g id="patch_6">
    <path d="M 24.2 21.793125 
L 381.32 21.793125 
" style="fill: none; stroke: #000000; stroke-width: 0.8; stroke-linejoin: miter; stroke-linecap: square"/>
   </g>
   <g id="text_14">
    <!-- $A$ = 0.2, $f_o$ = 0.01 -->
    <g transform="translate(159.14 15.793125) scale(0.12 -0.12)">
     <defs>
      <path id="Cmmi10-41" d="M 288 0 
Q 225 0 225 84 
Q 250 225 306 225 
Q 566 225 755 328 
Q 944 431 1081 647 
Q 1094 659 1094 659 
L 3378 4513 
Q 3428 4581 3500 4581 
L 3584 4581 
Q 3603 4581 3622 4573 
Q 3641 4566 3655 4548 
Q 3669 4531 3669 4513 
L 4056 378 
Q 4056 350 4084 294 
Q 4147 225 4563 225 
Q 4628 225 4628 141 
Q 4606 56 4592 28 
Q 4578 0 4519 0 
L 2919 0 
Q 2859 0 2859 84 
Q 2894 225 2944 225 
Q 3450 225 3481 397 
L 3384 1453 
L 1806 1453 
L 1294 594 
Q 1247 525 1247 434 
Q 1247 322 1355 273 
Q 1463 225 1594 225 
Q 1656 225 1656 141 
Q 1634 50 1621 25 
Q 1609 0 1550 0 
L 288 0 
z
M 1931 1678 
L 3359 1678 
L 3169 3750 
L 1931 1678 
z
" transform="scale(0.015625)"/>
      <path id="TimesNewRomanPSMT-20" transform="scale(0.015625)"/>
      <path id="TimesNewRomanPSMT-3d" d="M 116 2759 
L 3488 2759 
L 3488 2503 
L 116 2503 
L 116 2759 
z
M 116 1741 
L 3488 1741 
L 3488 1484 
L 116 1484 
L 116 1741 
z
" transform="scale(0.015625)"/>
      <path id="TimesNewRomanPSMT-2c" d="M 344 -1066 
L 344 -928 
Q 666 -822 842 -598 
Q 1019 -375 1019 -125 
Q 1019 -66 991 -25 
Q 969 3 947 3 
Q 913 3 797 -59 
Q 741 -88 678 -88 
Q 525 -88 434 3 
Q 344 94 344 253 
Q 344 406 461 515 
Q 578 625 747 625 
Q 953 625 1114 445 
Q 1275 266 1275 -31 
Q 1275 -353 1051 -629 
Q 828 -906 344 -1066 
z
" transform="scale(0.015625)"/>
      <path id="Cmmi10-6f" d="M 1288 -72 
Q 984 -72 748 72 
Q 513 216 384 459 
Q 256 703 256 1013 
Q 256 1447 498 1872 
Q 741 2297 1142 2562 
Q 1544 2828 1984 2828 
Q 2222 2828 2408 2747 
Q 2594 2666 2731 2519 
Q 2869 2372 2942 2175 
Q 3016 1978 3016 1747 
Q 3016 1413 2875 1089 
Q 2734 766 2489 502 
Q 2244 238 1928 83 
Q 1613 -72 1288 -72 
z
M 1300 97 
Q 1584 97 1820 290 
Q 2056 484 2207 779 
Q 2359 1075 2440 1403 
Q 2522 1731 2522 1997 
Q 2522 2275 2383 2469 
Q 2244 2663 1972 2663 
Q 1597 2663 1315 2342 
Q 1034 2022 892 1576 
Q 750 1131 750 763 
Q 750 484 892 290 
Q 1034 97 1300 97 
z
" transform="scale(0.015625)"/>
     </defs>
     <use xlink:href="#Cmmi10-41" transform="translate(0 0.421875)"/>
     <use xlink:href="#TimesNewRomanPSMT-20" transform="translate(75 0.421875)"/>
     <use xlink:href="#TimesNewRomanPSMT-3d" transform="translate(100 0.421875)"/>
     <use xlink:href="#TimesNewRomanPSMT-20" transform="translate(156.396484 0.421875)"/>
     <use xlink:href="#TimesNewRomanPSMT-30" transform="translate(181.396484 0.421875)"/>
     <use xlink:href="#TimesNewRomanPSMT-2e" transform="translate(231.396484 0.421875)"/>
     <use xlink:href="#TimesNewRomanPSMT-32" transform="translate(256.396484 0.421875)"/>
     <use xlink:href="#TimesNewRomanPSMT-2c" transform="translate(306.396484 0.421875)"/>
     <use xlink:href="#TimesNewRomanPSMT-20" transform="translate(331.396484 0.421875)"/>
     <use xlink:href="#Cmmi10-66" transform="translate(356.396484 0.421875)"/>
     <use xlink:href="#Cmmi10-6f" transform="translate(405.273438 -16.584375) scale(0.7)"/>
     <use xlink:href="#TimesNewRomanPSMT-20" transform="translate(445.522852 0.421875)"/>
     <use xlink:href="#TimesNewRomanPSMT-3d" transform="translate(470.522852 0.421875)"/>
     <use xlink:href="#TimesNewRomanPSMT-20" transform="translate(526.919336 0.421875)"/>
     <use xlink:href="#TimesNewRomanPSMT-30" transform="translate(551.919336 0.421875)"/>
     <use xlink:href="#TimesNewRomanPSMT-2e" transform="translate(601.919336 0.421875)"/>
     <use xlink:href="#TimesNewRomanPSMT-30" transform="translate(626.919336 0.421875)"/>
     <use xlink:href="#TimesNewRomanPSMT-31" transform="translate(676.919336 0.421875)"/>
    </g>
   </g>
   <g id="legend_1">
    <g id="patch_7">
     <path d="M 224.72 76.893125 
L 374.32 76.893125 
Q 376.32 76.893125 376.32 74.893125 
L 376.32 28.793125 
Q 376.32 26.793125 374.32 26.793125 
L 224.72 26.793125 
Q 222.72 26.793125 222.72 28.793125 
L 222.72 74.893125 
Q 222.72 76.893125 224.72 76.893125 
z
" style="fill: #ffffff; opacity: 0.8; stroke: #cccccc; stroke-linejoin: miter"/>
    </g>
    <g id="line2d_28">
     <path d="M 226.72 35.093125 
L 236.72 35.093125 
L 246.72 35.093125 
" style="fill: none; stroke: #000000; stroke-width: 1.5; stroke-linecap: square"/>
    </g>
    <g id="text_15">
     <!-- $I$ of 1000 values from $\mathcal{N}$(0,1) -->
     <g transform="translate(254.72 38.593125) scale(0.1 -0.1)">
      <defs>
       <path id="Cmmi10-49" d="M 269 0 
Q 206 0 206 84 
Q 231 225 288 225 
Q 666 225 800 250 
Q 947 284 984 441 
L 1863 3956 
Q 1875 4019 1875 4038 
Q 1875 4078 1854 4095 
Q 1834 4113 1791 4122 
Q 1663 4147 1306 4147 
Q 1241 4147 1241 4231 
Q 1263 4313 1275 4342 
Q 1288 4372 1350 4372 
L 3138 4372 
Q 3200 4372 3200 4288 
Q 3197 4272 3187 4234 
Q 3178 4197 3162 4172 
Q 3147 4147 3116 4147 
Q 2741 4147 2597 4122 
Q 2456 4088 2419 3928 
L 1544 416 
Q 1528 338 1528 331 
Q 1528 316 1533 302 
Q 1538 288 1552 277 
Q 1566 266 1580 261 
Q 1594 256 1613 250 
Q 1734 225 2100 225 
Q 2163 225 2163 141 
Q 2141 50 2128 25 
Q 2116 0 2053 0 
L 269 0 
z
" transform="scale(0.015625)"/>
       <path id="TimesNewRomanPSMT-6f" d="M 1600 2947 
Q 2250 2947 2644 2453 
Q 2978 2031 2978 1484 
Q 2978 1100 2793 706 
Q 2609 313 2286 112 
Q 1963 -88 1566 -88 
Q 919 -88 538 428 
Q 216 863 216 1403 
Q 216 1797 411 2186 
Q 606 2575 925 2761 
Q 1244 2947 1600 2947 
z
M 1503 2744 
Q 1338 2744 1170 2645 
Q 1003 2547 900 2300 
Q 797 2053 797 1666 
Q 797 1041 1045 587 
Q 1294 134 1700 134 
Q 2003 134 2200 384 
Q 2397 634 2397 1244 
Q 2397 2006 2069 2444 
Q 1847 2744 1503 2744 
z
" transform="scale(0.015625)"/>
       <path id="TimesNewRomanPSMT-66" d="M 1319 2638 
L 1319 756 
Q 1319 356 1406 250 
Q 1522 113 1716 113 
L 1975 113 
L 1975 0 
L 266 0 
L 266 113 
L 394 113 
Q 519 113 622 175 
Q 725 238 764 344 
Q 803 450 803 756 
L 803 2638 
L 247 2638 
L 247 2863 
L 803 2863 
L 803 3050 
Q 803 3478 940 3775 
Q 1078 4072 1361 4255 
Q 1644 4438 1997 4438 
Q 2325 4438 2600 4225 
Q 2781 4084 2781 3909 
Q 2781 3816 2700 3733 
Q 2619 3650 2525 3650 
Q 2453 3650 2373 3701 
Q 2294 3753 2178 3923 
Q 2063 4094 1966 4153 
Q 1869 4213 1750 4213 
Q 1606 4213 1506 4136 
Q 1406 4059 1362 3898 
Q 1319 3738 1319 3069 
L 1319 2863 
L 2056 2863 
L 2056 2638 
L 1319 2638 
z
" transform="scale(0.015625)"/>
       <path id="TimesNewRomanPSMT-76" d="M 53 2863 
L 1400 2863 
L 1400 2747 
L 1313 2747 
Q 1191 2747 1127 2687 
Q 1063 2628 1063 2528 
Q 1063 2419 1128 2269 
L 1794 688 
L 2463 2328 
Q 2534 2503 2534 2594 
Q 2534 2638 2509 2666 
Q 2475 2713 2422 2730 
Q 2369 2747 2206 2747 
L 2206 2863 
L 3141 2863 
L 3141 2747 
Q 2978 2734 2916 2681 
Q 2806 2588 2719 2369 
L 1703 -88 
L 1575 -88 
L 553 2328 
Q 484 2497 421 2570 
Q 359 2644 263 2694 
Q 209 2722 53 2747 
L 53 2863 
z
" transform="scale(0.015625)"/>
       <path id="TimesNewRomanPSMT-61" d="M 1822 413 
Q 1381 72 1269 19 
Q 1100 -59 909 -59 
Q 613 -59 420 144 
Q 228 347 228 678 
Q 228 888 322 1041 
Q 450 1253 767 1440 
Q 1084 1628 1822 1897 
L 1822 2009 
Q 1822 2438 1686 2597 
Q 1550 2756 1291 2756 
Q 1094 2756 978 2650 
Q 859 2544 859 2406 
L 866 2225 
Q 866 2081 792 2003 
Q 719 1925 600 1925 
Q 484 1925 411 2006 
Q 338 2088 338 2228 
Q 338 2497 613 2722 
Q 888 2947 1384 2947 
Q 1766 2947 2009 2819 
Q 2194 2722 2281 2516 
Q 2338 2381 2338 1966 
L 2338 994 
Q 2338 584 2353 492 
Q 2369 400 2405 369 
Q 2441 338 2488 338 
Q 2538 338 2575 359 
Q 2641 400 2828 588 
L 2828 413 
Q 2478 -56 2159 -56 
Q 2006 -56 1915 50 
Q 1825 156 1822 413 
z
M 1822 616 
L 1822 1706 
Q 1350 1519 1213 1441 
Q 966 1303 859 1153 
Q 753 1003 753 825 
Q 753 600 887 451 
Q 1022 303 1197 303 
Q 1434 303 1822 616 
z
" transform="scale(0.015625)"/>
       <path id="TimesNewRomanPSMT-6c" d="M 1184 4444 
L 1184 647 
Q 1184 378 1223 290 
Q 1263 203 1344 158 
Q 1425 113 1647 113 
L 1647 0 
L 244 0 
L 244 113 
Q 441 113 512 153 
Q 584 194 625 287 
Q 666 381 666 647 
L 666 3247 
Q 666 3731 644 3842 
Q 622 3953 573 3993 
Q 525 4034 450 4034 
Q 369 4034 244 3984 
L 191 4094 
L 1044 4444 
L 1184 4444 
z
" transform="scale(0.015625)"/>
       <path id="TimesNewRomanPSMT-75" d="M 2709 2863 
L 2709 1128 
Q 2709 631 2732 520 
Q 2756 409 2807 365 
Q 2859 322 2928 322 
Q 3025 322 3147 375 
L 3191 266 
L 2334 -88 
L 2194 -88 
L 2194 519 
Q 1825 119 1631 15 
Q 1438 -88 1222 -88 
Q 981 -88 804 51 
Q 628 191 559 409 
Q 491 628 491 1028 
L 491 2306 
Q 491 2509 447 2587 
Q 403 2666 317 2708 
Q 231 2750 6 2747 
L 6 2863 
L 1009 2863 
L 1009 947 
Q 1009 547 1148 422 
Q 1288 297 1484 297 
Q 1619 297 1789 381 
Q 1959 466 2194 703 
L 2194 2325 
Q 2194 2569 2105 2655 
Q 2016 2741 1734 2747 
L 1734 2863 
L 2709 2863 
z
" transform="scale(0.015625)"/>
       <path id="TimesNewRomanPSMT-65" d="M 681 1784 
Q 678 1147 991 784 
Q 1303 422 1725 422 
Q 2006 422 2214 576 
Q 2422 731 2563 1106 
L 2659 1044 
Q 2594 616 2278 264 
Q 1963 -88 1488 -88 
Q 972 -88 605 314 
Q 238 716 238 1394 
Q 238 2128 614 2539 
Q 991 2950 1559 2950 
Q 2041 2950 2350 2633 
Q 2659 2316 2659 1784 
L 681 1784 
z
M 681 1966 
L 2006 1966 
Q 1991 2241 1941 2353 
Q 1863 2528 1708 2628 
Q 1553 2728 1384 2728 
Q 1125 2728 920 2526 
Q 716 2325 681 1966 
z
" transform="scale(0.015625)"/>
       <path id="TimesNewRomanPSMT-73" d="M 2050 2947 
L 2050 1972 
L 1947 1972 
Q 1828 2431 1642 2597 
Q 1456 2763 1169 2763 
Q 950 2763 815 2647 
Q 681 2531 681 2391 
Q 681 2216 781 2091 
Q 878 1963 1175 1819 
L 1631 1597 
Q 2266 1288 2266 781 
Q 2266 391 1970 151 
Q 1675 -88 1309 -88 
Q 1047 -88 709 6 
Q 606 38 541 38 
Q 469 38 428 -44 
L 325 -44 
L 325 978 
L 428 978 
Q 516 541 762 319 
Q 1009 97 1316 97 
Q 1531 97 1667 223 
Q 1803 350 1803 528 
Q 1803 744 1651 891 
Q 1500 1038 1047 1263 
Q 594 1488 453 1669 
Q 313 1847 313 2119 
Q 313 2472 555 2709 
Q 797 2947 1181 2947 
Q 1350 2947 1591 2875 
Q 1750 2828 1803 2828 
Q 1853 2828 1881 2850 
Q 1909 2872 1947 2947 
L 2050 2947 
z
" transform="scale(0.015625)"/>
       <path id="TimesNewRomanPSMT-72" d="M 1038 2947 
L 1038 2303 
Q 1397 2947 1775 2947 
Q 1947 2947 2059 2842 
Q 2172 2738 2172 2600 
Q 2172 2478 2090 2393 
Q 2009 2309 1897 2309 
Q 1788 2309 1652 2417 
Q 1516 2525 1450 2525 
Q 1394 2525 1328 2463 
Q 1188 2334 1038 2041 
L 1038 669 
Q 1038 431 1097 309 
Q 1138 225 1241 169 
Q 1344 113 1538 113 
L 1538 0 
L 72 0 
L 72 113 
Q 291 113 397 181 
Q 475 231 506 341 
Q 522 394 522 644 
L 522 1753 
Q 522 2253 501 2348 
Q 481 2444 426 2487 
Q 372 2531 291 2531 
Q 194 2531 72 2484 
L 41 2597 
L 906 2947 
L 1038 2947 
z
" transform="scale(0.015625)"/>
       <path id="TimesNewRomanPSMT-6d" d="M 1050 2338 
Q 1363 2650 1419 2697 
Q 1559 2816 1721 2881 
Q 1884 2947 2044 2947 
Q 2313 2947 2506 2790 
Q 2700 2634 2766 2338 
Q 3088 2713 3309 2830 
Q 3531 2947 3766 2947 
Q 3994 2947 4170 2830 
Q 4347 2713 4450 2447 
Q 4519 2266 4519 1878 
L 4519 647 
Q 4519 378 4559 278 
Q 4591 209 4675 161 
Q 4759 113 4950 113 
L 4950 0 
L 3538 0 
L 3538 113 
L 3597 113 
Q 3781 113 3884 184 
Q 3956 234 3988 344 
Q 4000 397 4000 647 
L 4000 1878 
Q 4000 2228 3916 2372 
Q 3794 2572 3525 2572 
Q 3359 2572 3192 2489 
Q 3025 2406 2788 2181 
L 2781 2147 
L 2788 2013 
L 2788 647 
Q 2788 353 2820 281 
Q 2853 209 2943 161 
Q 3034 113 3253 113 
L 3253 0 
L 1806 0 
L 1806 113 
Q 2044 113 2133 169 
Q 2222 225 2256 338 
Q 2272 391 2272 647 
L 2272 1878 
Q 2272 2228 2169 2381 
Q 2031 2581 1784 2581 
Q 1616 2581 1450 2491 
Q 1191 2353 1050 2181 
L 1050 647 
Q 1050 366 1089 281 
Q 1128 197 1204 155 
Q 1281 113 1516 113 
L 1516 0 
L 100 0 
L 100 113 
Q 297 113 375 155 
Q 453 197 493 289 
Q 534 381 534 647 
L 534 1741 
Q 534 2213 506 2350 
Q 484 2453 437 2492 
Q 391 2531 309 2531 
Q 222 2531 100 2484 
L 53 2597 
L 916 2947 
L 1050 2947 
L 1050 2338 
z
" transform="scale(0.015625)"/>
       <path id="Cmsy10-4e" d="M -184 13 
Q -184 131 -103 322 
Q -22 513 72 513 
Q 84 513 91 506 
Q 294 294 594 294 
Q 763 294 892 598 
Q 1022 903 1147 1306 
Q 1213 1509 1308 1837 
Q 1403 2166 1453 2369 
Q 1497 2538 1558 2827 
Q 1619 3116 1658 3331 
Q 1697 3547 1728 3772 
Q 1759 3997 1784 4244 
Q 1784 4278 1831 4325 
Q 1900 4397 1997 4453 
Q 2088 4494 2181 4513 
L 2234 4513 
Q 2272 4494 2278 4469 
Q 2438 3909 2675 3200 
Q 2891 2544 3044 2125 
Q 3197 1706 3405 1242 
Q 3613 778 3859 384 
Q 4194 1819 4525 2988 
L 4609 3284 
Q 4747 3769 4836 4039 
Q 4925 4309 5063 4525 
Q 5175 4700 5356 4800 
Q 5538 4900 5753 4942 
Q 5969 4984 6203 4984 
Q 6259 4984 6259 4878 
Q 6259 4803 6226 4686 
Q 6194 4569 6137 4478 
Q 6081 4388 6009 4372 
Q 5756 4372 5557 4331 
Q 5359 4291 5197 4184 
Q 5116 4125 5102 4094 
Q 5088 4063 5038 3909 
Q 4956 3684 4872 3366 
L 4788 3078 
Q 4625 2491 4498 2006 
Q 4372 1522 4256 1045 
Q 4141 569 4031 84 
Q 4034 84 4029 92 
Q 4025 100 4025 103 
Q 4025 47 3951 -15 
Q 3878 -78 3783 -120 
Q 3688 -163 3628 -172 
L 3584 -172 
Q 3478 -119 3222 368 
Q 2966 856 2834 1172 
Q 2359 2347 1966 3628 
Q 1916 3319 1759 2648 
Q 1603 1978 1387 1297 
Q 1172 616 914 148 
Q 656 -319 397 -319 
Q 231 -319 23 -225 
Q -184 -131 -184 13 
z
" transform="scale(0.015625)"/>
       <path id="TimesNewRomanPSMT-28" d="M 1988 -1253 
L 1988 -1369 
Q 1516 -1131 1200 -813 
Q 750 -359 506 256 
Q 263 872 263 1534 
Q 263 2503 741 3301 
Q 1219 4100 1988 4444 
L 1988 4313 
Q 1603 4100 1356 3731 
Q 1109 3363 987 2797 
Q 866 2231 866 1616 
Q 866 947 969 400 
Q 1050 -31 1165 -292 
Q 1281 -553 1476 -793 
Q 1672 -1034 1988 -1253 
z
" transform="scale(0.015625)"/>
       <path id="TimesNewRomanPSMT-29" d="M 144 4313 
L 144 4444 
Q 619 4209 934 3891 
Q 1381 3434 1625 2820 
Q 1869 2206 1869 1541 
Q 1869 572 1392 -226 
Q 916 -1025 144 -1369 
L 144 -1253 
Q 528 -1038 776 -670 
Q 1025 -303 1145 264 
Q 1266 831 1266 1447 
Q 1266 2113 1163 2663 
Q 1084 3094 967 3353 
Q 850 3613 656 3853 
Q 463 4094 144 4313 
z
" transform="scale(0.015625)"/>
      </defs>
      <use xlink:href="#Cmmi10-49" transform="translate(0 0.125)"/>
      <use xlink:href="#TimesNewRomanPSMT-20" transform="translate(43.896484 0.125)"/>
      <use xlink:href="#TimesNewRomanPSMT-6f" transform="translate(68.896484 0.125)"/>
      <use xlink:href="#TimesNewRomanPSMT-66" transform="translate(118.896484 0.125)"/>
      <use xlink:href="#TimesNewRomanPSMT-20" transform="translate(152.197266 0.125)"/>
      <use xlink:href="#TimesNewRomanPSMT-31" transform="translate(177.197266 0.125)"/>
      <use xlink:href="#TimesNewRomanPSMT-30" transform="translate(227.197266 0.125)"/>
      <use xlink:href="#TimesNewRomanPSMT-30" transform="translate(277.197266 0.125)"/>
      <use xlink:href="#TimesNewRomanPSMT-30" transform="translate(327.197266 0.125)"/>
      <use xlink:href="#TimesNewRomanPSMT-20" transform="translate(377.197266 0.125)"/>
      <use xlink:href="#TimesNewRomanPSMT-76" transform="translate(402.197266 0.125)"/>
      <use xlink:href="#TimesNewRomanPSMT-61" transform="translate(452.197266 0.125)"/>
      <use xlink:href="#TimesNewRomanPSMT-6c" transform="translate(496.582031 0.125)"/>
      <use xlink:href="#TimesNewRomanPSMT-75" transform="translate(524.365234 0.125)"/>
      <use xlink:href="#TimesNewRomanPSMT-65" transform="translate(574.365234 0.125)"/>
      <use xlink:href="#TimesNewRomanPSMT-73" transform="translate(618.75 0.125)"/>
      <use xlink:href="#TimesNewRomanPSMT-20" transform="translate(657.666016 0.125)"/>
      <use xlink:href="#TimesNewRomanPSMT-66" transform="translate(682.666016 0.125)"/>
      <use xlink:href="#TimesNewRomanPSMT-72" transform="translate(715.966797 0.125)"/>
      <use xlink:href="#TimesNewRomanPSMT-6f" transform="translate(749.267578 0.125)"/>
      <use xlink:href="#TimesNewRomanPSMT-6d" transform="translate(799.267578 0.125)"/>
      <use xlink:href="#TimesNewRomanPSMT-20" transform="translate(877.050781 0.125)"/>
      <use xlink:href="#Cmsy10-4e" transform="translate(902.050781 0.125)"/>
      <use xlink:href="#TimesNewRomanPSMT-28" transform="translate(984.033203 0.125)"/>
      <use xlink:href="#TimesNewRomanPSMT-30" transform="translate(1017.333984 0.125)"/>
      <use xlink:href="#TimesNewRomanPSMT-2c" transform="translate(1067.333984 0.125)"/>
      <use xlink:href="#TimesNewRomanPSMT-31" transform="translate(1092.333984 0.125)"/>
      <use xlink:href="#TimesNewRomanPSMT-29" transform="translate(1142.333984 0.125)"/>
     </g>
    </g>
    <g id="line2d_29">
     <path d="M 226.72 50.793125 
L 236.72 50.793125 
L 246.72 50.793125 
" style="fill: none; stroke: #808080; stroke-linecap: square"/>
    </g>
    <g id="text_16">
     <!-- 1000 values from $\chi_2^2$ -->
     <g transform="translate(254.72 54.293125) scale(0.1 -0.1)">
      <defs>
       <path id="Cmmi10-c2" d="M 275 -1241 
Q 244 -1241 214 -1214 
Q 184 -1188 184 -1159 
Q 184 -1116 213 -1094 
L 1778 647 
Q 1672 1034 1539 1454 
Q 1406 1875 1220 2269 
Q 1034 2663 891 2663 
Q 766 2663 694 2594 
Q 622 2525 567 2423 
Q 513 2322 494 2316 
L 416 2316 
Q 397 2316 381 2337 
Q 366 2359 366 2381 
Q 366 2484 455 2589 
Q 544 2694 673 2761 
Q 803 2828 916 2828 
Q 1169 2828 1375 2737 
Q 1581 2647 1684 2444 
Q 1775 2250 1859 2026 
Q 1944 1803 2020 1550 
Q 2097 1297 2163 1069 
L 3647 2719 
Q 3678 2759 3725 2759 
Q 3763 2759 3789 2736 
Q 3816 2713 3816 2675 
Q 3816 2634 3788 2613 
L 2222 872 
Q 2297 588 2447 114 
Q 2597 -359 2780 -753 
Q 2963 -1147 3109 -1147 
Q 3228 -1147 3303 -1076 
Q 3378 -1006 3434 -906 
Q 3491 -806 3506 -800 
L 3584 -800 
Q 3634 -800 3634 -863 
Q 3634 -1022 3445 -1167 
Q 3256 -1313 3084 -1313 
Q 2834 -1313 2628 -1222 
Q 2422 -1131 2322 -928 
Q 2084 -422 1838 447 
L 353 -1203 
Q 322 -1241 275 -1241 
z
" transform="scale(0.015625)"/>
       <path id="Cmr10-32" d="M 319 0 
L 319 172 
Q 319 188 331 206 
L 1325 1306 
Q 1550 1550 1690 1715 
Q 1831 1881 1968 2097 
Q 2106 2313 2186 2536 
Q 2266 2759 2266 3009 
Q 2266 3272 2169 3511 
Q 2072 3750 1880 3894 
Q 1688 4038 1416 4038 
Q 1138 4038 916 3870 
Q 694 3703 603 3438 
Q 628 3444 672 3444 
Q 816 3444 917 3347 
Q 1019 3250 1019 3097 
Q 1019 2950 917 2848 
Q 816 2747 672 2747 
Q 522 2747 420 2851 
Q 319 2956 319 3097 
Q 319 3338 409 3548 
Q 500 3759 670 3923 
Q 841 4088 1055 4175 
Q 1269 4263 1509 4263 
Q 1875 4263 2190 4108 
Q 2506 3953 2690 3670 
Q 2875 3388 2875 3009 
Q 2875 2731 2753 2481 
Q 2631 2231 2440 2026 
Q 2250 1822 1953 1562 
Q 1656 1303 1563 1216 
L 838 519 
L 1453 519 
Q 1906 519 2211 526 
Q 2516 534 2534 550 
Q 2609 631 2688 1141 
L 2875 1141 
L 2694 0 
L 319 0 
z
" transform="scale(0.015625)"/>
      </defs>
      <use xlink:href="#TimesNewRomanPSMT-31" transform="translate(0 0.109375)"/>
      <use xlink:href="#TimesNewRomanPSMT-30" transform="translate(50 0.109375)"/>
      <use xlink:href="#TimesNewRomanPSMT-30" transform="translate(100 0.109375)"/>
      <use xlink:href="#TimesNewRomanPSMT-30" transform="translate(150 0.109375)"/>
      <use xlink:href="#TimesNewRomanPSMT-20" transform="translate(200 0.109375)"/>
      <use xlink:href="#TimesNewRomanPSMT-76" transform="translate(225 0.109375)"/>
      <use xlink:href="#TimesNewRomanPSMT-61" transform="translate(275 0.109375)"/>
      <use xlink:href="#TimesNewRomanPSMT-6c" transform="translate(319.384766 0.109375)"/>
      <use xlink:href="#TimesNewRomanPSMT-75" transform="translate(347.167969 0.109375)"/>
      <use xlink:href="#TimesNewRomanPSMT-65" transform="translate(397.167969 0.109375)"/>
      <use xlink:href="#TimesNewRomanPSMT-73" transform="translate(441.552734 0.109375)"/>
      <use xlink:href="#TimesNewRomanPSMT-20" transform="translate(480.46875 0.109375)"/>
      <use xlink:href="#TimesNewRomanPSMT-66" transform="translate(505.46875 0.109375)"/>
      <use xlink:href="#TimesNewRomanPSMT-72" transform="translate(538.769531 0.109375)"/>
      <use xlink:href="#TimesNewRomanPSMT-6f" transform="translate(572.070312 0.109375)"/>
      <use xlink:href="#TimesNewRomanPSMT-6d" transform="translate(622.070312 0.109375)"/>
      <use xlink:href="#TimesNewRomanPSMT-20" transform="translate(699.853516 0.109375)"/>
      <use xlink:href="#Cmmi10-c2" transform="translate(724.853516 0.109375)"/>
      <use xlink:href="#Cmr10-32" transform="translate(793.656797 38.373438) scale(0.7)"/>
      <use xlink:href="#Cmr10-32" transform="translate(787.353516 -25.4) scale(0.7)"/>
     </g>
    </g>
    <g id="line2d_30">
     <g>
      <use xlink:href="#me272cae205" x="236.72" y="66.893125" style="fill: #ff0000; stroke: #ff0000"/>
     </g>
    </g>
    <g id="text_17">
     <!-- $(N/2)A^2$ -->
     <g transform="translate(254.72 70.393125) scale(0.1 -0.1)">
      <defs>
       <path id="Cmr10-28" d="M 1984 -1588 
Q 1628 -1306 1370 -942 
Q 1113 -578 948 -165 
Q 784 247 703 697 
Q 622 1147 622 1600 
Q 622 2059 703 2509 
Q 784 2959 951 3375 
Q 1119 3791 1378 4153 
Q 1638 4516 1984 4788 
Q 1984 4800 2016 4800 
L 2075 4800 
Q 2094 4800 2109 4783 
Q 2125 4766 2125 4744 
Q 2125 4716 2113 4703 
Q 1800 4397 1592 4047 
Q 1384 3697 1257 3301 
Q 1131 2906 1075 2482 
Q 1019 2059 1019 1600 
Q 1019 -434 2106 -1491 
Q 2125 -1509 2125 -1544 
Q 2125 -1559 2108 -1579 
Q 2091 -1600 2075 -1600 
L 2016 -1600 
Q 1984 -1600 1984 -1588 
z
" transform="scale(0.015625)"/>
       <path id="Cmmi10-4e" d="M 300 0 
Q 238 0 238 84 
Q 241 100 250 139 
Q 259 178 276 201 
Q 294 225 319 225 
Q 931 225 1031 616 
L 1900 4116 
Q 1722 4147 1338 4147 
Q 1275 4147 1275 4231 
Q 1278 4247 1287 4286 
Q 1297 4325 1314 4348 
Q 1331 4372 1356 4372 
L 2463 4372 
Q 2509 4372 2522 4331 
L 3944 947 
L 4653 3781 
Q 4666 3850 4666 3878 
Q 4666 4147 4172 4147 
Q 4109 4147 4109 4231 
Q 4131 4313 4143 4342 
Q 4156 4372 4219 4372 
L 5588 4372 
Q 5650 4372 5650 4288 
Q 5647 4272 5637 4233 
Q 5628 4194 5611 4170 
Q 5594 4147 5569 4147 
Q 4956 4147 4856 3756 
L 3938 56 
Q 3916 0 3872 0 
L 3794 0 
Q 3750 0 3738 44 
L 2106 3916 
L 2094 3956 
Q 2081 3969 2081 3975 
L 1234 588 
Q 1228 572 1225 548 
Q 1222 525 1216 494 
Q 1216 328 1359 276 
Q 1503 225 1716 225 
Q 1778 225 1778 141 
Q 1756 53 1740 26 
Q 1725 0 1672 0 
L 300 0 
z
" transform="scale(0.015625)"/>
       <path id="Cmmi10-3d" d="M 359 -1472 
Q 359 -1453 366 -1447 
L 2591 4722 
Q 2603 4759 2634 4779 
Q 2666 4800 2706 4800 
Q 2763 4800 2798 4765 
Q 2834 4731 2834 4672 
L 2834 4647 
L 609 -1522 
Q 572 -1600 488 -1600 
Q 434 -1600 396 -1562 
Q 359 -1525 359 -1472 
z
" transform="scale(0.015625)"/>
       <path id="Cmr10-29" d="M 416 -1600 
Q 359 -1600 359 -1544 
Q 359 -1516 372 -1503 
Q 1466 -434 1466 1600 
Q 1466 3634 384 4691 
Q 359 4706 359 4744 
Q 359 4766 376 4783 
Q 394 4800 416 4800 
L 475 4800 
Q 494 4800 506 4788 
Q 966 4425 1272 3906 
Q 1578 3388 1720 2800 
Q 1863 2213 1863 1600 
Q 1863 1147 1786 708 
Q 1709 269 1542 -157 
Q 1375 -584 1119 -945 
Q 863 -1306 506 -1588 
Q 494 -1600 475 -1600 
L 416 -1600 
z
" transform="scale(0.015625)"/>
      </defs>
      <use xlink:href="#Cmr10-28" transform="translate(0 0.109375)"/>
      <use xlink:href="#Cmmi10-4e" transform="translate(38.818359 0.109375)"/>
      <use xlink:href="#Cmmi10-3d" transform="translate(119.140625 0.109375)"/>
      <use xlink:href="#Cmr10-32" transform="translate(169.140625 0.109375)"/>
      <use xlink:href="#Cmr10-29" transform="translate(219.140625 0.109375)"/>
      <use xlink:href="#Cmmi10-41" transform="translate(257.958984 0.109375)"/>
      <use xlink:href="#Cmr10-32" transform="translate(345.014297 38.373438) scale(0.7)"/>
     </g>
    </g>
   </g>
  </g>
 </g>
 <defs>
  <clipPath id="pb41437e828">
   <rect x="24.2" y="21.793125" width="357.12" height="266.112"/>
  </clipPath>
 </defs>
</svg>
