<?xml version="1.0" encoding="utf-8" standalone="no"?>
<!DOCTYPE svg PUBLIC "-//W3C//DTD SVG 1.1//EN"
  "http://www.w3.org/Graphics/SVG/1.1/DTD/svg11.dtd">
<svg xmlns:xlink="http://www.w3.org/1999/xlink" width="388.52pt" height="296.594812pt" viewBox="0 0 388.52 296.594812" xmlns="http://www.w3.org/2000/svg" version="1.1">
 <metadata>
  <rdf:RDF xmlns:dc="http://purl.org/dc/elements/1.1/" xmlns:cc="http://creativecommons.org/ns#" xmlns:rdf="http://www.w3.org/1999/02/22-rdf-syntax-ns#">
   <cc:Work>
    <dc:type rdf:resource="http://purl.org/dc/dcmitype/StillImage"/>
    <dc:date>2025-04-05T16:43:58.026423</dc:date>
    <dc:format>image/svg+xml</dc:format>
    <dc:creator>
     <cc:Agent>
      <dc:title>Matplotlib v3.8.4, https://matplotlib.org/</dc:title>
     </cc:Agent>
    </dc:creator>
   </cc:Work>
  </rdf:RDF>
 </metadata>
 <defs>
  <style type="text/css">*{stroke-linejoin: round; stroke-linecap: butt}</style>
 </defs>
 <g id="figure_1">
  <g id="patch_1">
   <path d="M 0 296.594812 
L 388.52 296.594812 
L 388.52 0 
L 0 0 
L 0 296.594812 
z
" style="fill: none"/>
  </g>
  <g id="axes_1">
   <g id="patch_2">
    <path d="M 24.2 273.312 
L 381.32 273.312 
L 381.32 7.2 
L 24.2 7.2 
L 24.2 273.312 
z
" style="fill: none"/>
   </g>
   <g id="matplotlib.axis_1">
    <g id="xtick_1">
     <g id="line2d_1">
      <path d="M 40.432727 273.312 
L 40.432727 7.2 
" clip-path="url(#pa42850c700)" style="fill: none; stroke: #b0b0b0; stroke-width: 0.8; stroke-linecap: square"/>
     </g>
     <g id="line2d_2">
      <defs>
       <path id="mdab37026d5" d="M 0 0 
L 0 3.5 
" style="stroke: #000000; stroke-width: 0.8"/>
      </defs>
      <g>
       <use xlink:href="#mdab37026d5" x="40.432727" y="273.312" style="stroke: #000000; stroke-width: 0.8"/>
      </g>
     </g>
     <g id="text_1">
      <!-- 0.0 -->
      <g transform="translate(34.182727 287.25575) scale(0.1 -0.1)">
       <defs>
        <path id="TimesNewRomanPSMT-30" d="M 231 2094 
Q 231 2819 450 3342 
Q 669 3866 1031 4122 
Q 1313 4325 1613 4325 
Q 2100 4325 2488 3828 
Q 2972 3213 2972 2159 
Q 2972 1422 2759 906 
Q 2547 391 2217 158 
Q 1888 -75 1581 -75 
Q 975 -75 572 641 
Q 231 1244 231 2094 
z
M 844 2016 
Q 844 1141 1059 588 
Q 1238 122 1591 122 
Q 1759 122 1940 273 
Q 2122 425 2216 781 
Q 2359 1319 2359 2297 
Q 2359 3022 2209 3506 
Q 2097 3866 1919 4016 
Q 1791 4119 1609 4119 
Q 1397 4119 1231 3928 
Q 1006 3669 925 3112 
Q 844 2556 844 2016 
z
" transform="scale(0.015625)"/>
        <path id="TimesNewRomanPSMT-2e" d="M 800 606 
Q 947 606 1047 504 
Q 1147 403 1147 259 
Q 1147 116 1045 14 
Q 944 -88 800 -88 
Q 656 -88 554 14 
Q 453 116 453 259 
Q 453 406 554 506 
Q 656 606 800 606 
z
" transform="scale(0.015625)"/>
       </defs>
       <use xlink:href="#TimesNewRomanPSMT-30"/>
       <use xlink:href="#TimesNewRomanPSMT-2e" x="50"/>
       <use xlink:href="#TimesNewRomanPSMT-30" x="75"/>
      </g>
     </g>
    </g>
    <g id="xtick_2">
     <g id="line2d_3">
      <path d="M 105.493758 273.312 
L 105.493758 7.2 
" clip-path="url(#pa42850c700)" style="fill: none; stroke: #b0b0b0; stroke-width: 0.8; stroke-linecap: square"/>
     </g>
     <g id="line2d_4">
      <g>
       <use xlink:href="#mdab37026d5" x="105.493758" y="273.312" style="stroke: #000000; stroke-width: 0.8"/>
      </g>
     </g>
     <g id="text_2">
      <!-- 0.1 -->
      <g transform="translate(99.243758 287.25575) scale(0.1 -0.1)">
       <defs>
        <path id="TimesNewRomanPSMT-31" d="M 750 3822 
L 1781 4325 
L 1884 4325 
L 1884 747 
Q 1884 391 1914 303 
Q 1944 216 2037 169 
Q 2131 122 2419 116 
L 2419 0 
L 825 0 
L 825 116 
Q 1125 122 1212 167 
Q 1300 213 1334 289 
Q 1369 366 1369 747 
L 1369 3034 
Q 1369 3497 1338 3628 
Q 1316 3728 1258 3775 
Q 1200 3822 1119 3822 
Q 1003 3822 797 3725 
L 750 3822 
z
" transform="scale(0.015625)"/>
       </defs>
       <use xlink:href="#TimesNewRomanPSMT-30"/>
       <use xlink:href="#TimesNewRomanPSMT-2e" x="50"/>
       <use xlink:href="#TimesNewRomanPSMT-31" x="75"/>
      </g>
     </g>
    </g>
    <g id="xtick_3">
     <g id="line2d_5">
      <path d="M 170.55479 273.312 
L 170.55479 7.2 
" clip-path="url(#pa42850c700)" style="fill: none; stroke: #b0b0b0; stroke-width: 0.8; stroke-linecap: square"/>
     </g>
     <g id="line2d_6">
      <g>
       <use xlink:href="#mdab37026d5" x="170.55479" y="273.312" style="stroke: #000000; stroke-width: 0.8"/>
      </g>
     </g>
     <g id="text_3">
      <!-- 0.2 -->
      <g transform="translate(164.30479 287.25575) scale(0.1 -0.1)">
       <defs>
        <path id="TimesNewRomanPSMT-32" d="M 2934 816 
L 2638 0 
L 138 0 
L 138 116 
Q 1241 1122 1691 1759 
Q 2141 2397 2141 2925 
Q 2141 3328 1894 3587 
Q 1647 3847 1303 3847 
Q 991 3847 742 3664 
Q 494 3481 375 3128 
L 259 3128 
Q 338 3706 661 4015 
Q 984 4325 1469 4325 
Q 1984 4325 2329 3994 
Q 2675 3663 2675 3213 
Q 2675 2891 2525 2569 
Q 2294 2063 1775 1497 
Q 997 647 803 472 
L 1909 472 
Q 2247 472 2383 497 
Q 2519 522 2628 598 
Q 2738 675 2819 816 
L 2934 816 
z
" transform="scale(0.015625)"/>
       </defs>
       <use xlink:href="#TimesNewRomanPSMT-30"/>
       <use xlink:href="#TimesNewRomanPSMT-2e" x="50"/>
       <use xlink:href="#TimesNewRomanPSMT-32" x="75"/>
      </g>
     </g>
    </g>
    <g id="xtick_4">
     <g id="line2d_7">
      <path d="M 235.615821 273.312 
L 235.615821 7.2 
" clip-path="url(#pa42850c700)" style="fill: none; stroke: #b0b0b0; stroke-width: 0.8; stroke-linecap: square"/>
     </g>
     <g id="line2d_8">
      <g>
       <use xlink:href="#mdab37026d5" x="235.615821" y="273.312" style="stroke: #000000; stroke-width: 0.8"/>
      </g>
     </g>
     <g id="text_4">
      <!-- 0.3 -->
      <g transform="translate(229.365821 287.25575) scale(0.1 -0.1)">
       <defs>
        <path id="TimesNewRomanPSMT-33" d="M 325 3431 
Q 506 3859 782 4092 
Q 1059 4325 1472 4325 
Q 1981 4325 2253 3994 
Q 2459 3747 2459 3466 
Q 2459 3003 1878 2509 
Q 2269 2356 2469 2072 
Q 2669 1788 2669 1403 
Q 2669 853 2319 450 
Q 1863 -75 997 -75 
Q 569 -75 414 31 
Q 259 138 259 259 
Q 259 350 332 419 
Q 406 488 509 488 
Q 588 488 669 463 
Q 722 447 909 348 
Q 1097 250 1169 231 
Q 1284 197 1416 197 
Q 1734 197 1970 444 
Q 2206 691 2206 1028 
Q 2206 1275 2097 1509 
Q 2016 1684 1919 1775 
Q 1784 1900 1550 2001 
Q 1316 2103 1072 2103 
L 972 2103 
L 972 2197 
Q 1219 2228 1467 2375 
Q 1716 2522 1828 2728 
Q 1941 2934 1941 3181 
Q 1941 3503 1739 3701 
Q 1538 3900 1238 3900 
Q 753 3900 428 3381 
L 325 3431 
z
" transform="scale(0.015625)"/>
       </defs>
       <use xlink:href="#TimesNewRomanPSMT-30"/>
       <use xlink:href="#TimesNewRomanPSMT-2e" x="50"/>
       <use xlink:href="#TimesNewRomanPSMT-33" x="75"/>
      </g>
     </g>
    </g>
    <g id="xtick_5">
     <g id="line2d_9">
      <path d="M 300.676852 273.312 
L 300.676852 7.2 
" clip-path="url(#pa42850c700)" style="fill: none; stroke: #b0b0b0; stroke-width: 0.8; stroke-linecap: square"/>
     </g>
     <g id="line2d_10">
      <g>
       <use xlink:href="#mdab37026d5" x="300.676852" y="273.312" style="stroke: #000000; stroke-width: 0.8"/>
      </g>
     </g>
     <g id="text_5">
      <!-- 0.4 -->
      <g transform="translate(294.426852 287.25575) scale(0.1 -0.1)">
       <defs>
        <path id="TimesNewRomanPSMT-34" d="M 2978 1563 
L 2978 1119 
L 2409 1119 
L 2409 0 
L 1894 0 
L 1894 1119 
L 100 1119 
L 100 1519 
L 2066 4325 
L 2409 4325 
L 2409 1563 
L 2978 1563 
z
M 1894 1563 
L 1894 3666 
L 406 1563 
L 1894 1563 
z
" transform="scale(0.015625)"/>
       </defs>
       <use xlink:href="#TimesNewRomanPSMT-30"/>
       <use xlink:href="#TimesNewRomanPSMT-2e" x="50"/>
       <use xlink:href="#TimesNewRomanPSMT-34" x="75"/>
      </g>
     </g>
    </g>
    <g id="xtick_6">
     <g id="line2d_11">
      <path d="M 365.737883 273.312 
L 365.737883 7.2 
" clip-path="url(#pa42850c700)" style="fill: none; stroke: #b0b0b0; stroke-width: 0.8; stroke-linecap: square"/>
     </g>
     <g id="line2d_12">
      <g>
       <use xlink:href="#mdab37026d5" x="365.737883" y="273.312" style="stroke: #000000; stroke-width: 0.8"/>
      </g>
     </g>
     <g id="text_6">
      <!-- 0.5 -->
      <g transform="translate(359.487883 287.25575) scale(0.1 -0.1)">
       <defs>
        <path id="TimesNewRomanPSMT-35" d="M 2778 4238 
L 2534 3706 
L 1259 3706 
L 981 3138 
Q 1809 3016 2294 2522 
Q 2709 2097 2709 1522 
Q 2709 1188 2573 903 
Q 2438 619 2231 419 
Q 2025 219 1772 97 
Q 1413 -75 1034 -75 
Q 653 -75 479 54 
Q 306 184 306 341 
Q 306 428 378 495 
Q 450 563 559 563 
Q 641 563 702 538 
Q 763 513 909 409 
Q 1144 247 1384 247 
Q 1750 247 2026 523 
Q 2303 800 2303 1197 
Q 2303 1581 2056 1914 
Q 1809 2247 1375 2428 
Q 1034 2569 447 2591 
L 1259 4238 
L 2778 4238 
z
" transform="scale(0.015625)"/>
       </defs>
       <use xlink:href="#TimesNewRomanPSMT-30"/>
       <use xlink:href="#TimesNewRomanPSMT-2e" x="50"/>
       <use xlink:href="#TimesNewRomanPSMT-35" x="75"/>
      </g>
     </g>
    </g>
   </g>
   <g id="matplotlib.axis_2">
    <g id="ytick_1">
     <g id="line2d_13">
      <path d="M 24.2 261.228701 
L 381.32 261.228701 
" clip-path="url(#pa42850c700)" style="fill: none; stroke: #b0b0b0; stroke-width: 0.8; stroke-linecap: square"/>
     </g>
     <g id="line2d_14">
      <defs>
       <path id="m50180c5aa3" d="M 0 0 
L -3.5 0 
" style="stroke: #000000; stroke-width: 0.8"/>
      </defs>
      <g>
       <use xlink:href="#m50180c5aa3" x="24.2" y="261.228701" style="stroke: #000000; stroke-width: 0.8"/>
      </g>
     </g>
     <g id="text_7">
      <!-- 0 -->
      <g transform="translate(12.2 264.700576) scale(0.1 -0.1)">
       <use xlink:href="#TimesNewRomanPSMT-30"/>
      </g>
     </g>
    </g>
    <g id="ytick_2">
     <g id="line2d_15">
      <path d="M 24.2 224.098267 
L 381.32 224.098267 
" clip-path="url(#pa42850c700)" style="fill: none; stroke: #b0b0b0; stroke-width: 0.8; stroke-linecap: square"/>
     </g>
     <g id="line2d_16">
      <g>
       <use xlink:href="#m50180c5aa3" x="24.2" y="224.098267" style="stroke: #000000; stroke-width: 0.8"/>
      </g>
     </g>
     <g id="text_8">
      <!-- 2 -->
      <g transform="translate(12.2 227.570142) scale(0.1 -0.1)">
       <use xlink:href="#TimesNewRomanPSMT-32"/>
      </g>
     </g>
    </g>
    <g id="ytick_3">
     <g id="line2d_17">
      <path d="M 24.2 186.967833 
L 381.32 186.967833 
" clip-path="url(#pa42850c700)" style="fill: none; stroke: #b0b0b0; stroke-width: 0.8; stroke-linecap: square"/>
     </g>
     <g id="line2d_18">
      <g>
       <use xlink:href="#m50180c5aa3" x="24.2" y="186.967833" style="stroke: #000000; stroke-width: 0.8"/>
      </g>
     </g>
     <g id="text_9">
      <!-- 4 -->
      <g transform="translate(12.2 190.439708) scale(0.1 -0.1)">
       <use xlink:href="#TimesNewRomanPSMT-34"/>
      </g>
     </g>
    </g>
    <g id="ytick_4">
     <g id="line2d_19">
      <path d="M 24.2 149.8374 
L 381.32 149.8374 
" clip-path="url(#pa42850c700)" style="fill: none; stroke: #b0b0b0; stroke-width: 0.8; stroke-linecap: square"/>
     </g>
     <g id="line2d_20">
      <g>
       <use xlink:href="#m50180c5aa3" x="24.2" y="149.8374" style="stroke: #000000; stroke-width: 0.8"/>
      </g>
     </g>
     <g id="text_10">
      <!-- 6 -->
      <g transform="translate(12.2 153.309275) scale(0.1 -0.1)">
       <defs>
        <path id="TimesNewRomanPSMT-36" d="M 2869 4325 
L 2869 4209 
Q 2456 4169 2195 4045 
Q 1934 3922 1679 3669 
Q 1425 3416 1258 3105 
Q 1091 2794 978 2366 
Q 1428 2675 1881 2675 
Q 2316 2675 2634 2325 
Q 2953 1975 2953 1425 
Q 2953 894 2631 456 
Q 2244 -75 1606 -75 
Q 1172 -75 869 213 
Q 275 772 275 1663 
Q 275 2231 503 2743 
Q 731 3256 1154 3653 
Q 1578 4050 1965 4187 
Q 2353 4325 2688 4325 
L 2869 4325 
z
M 925 2138 
Q 869 1716 869 1456 
Q 869 1156 980 804 
Q 1091 453 1309 247 
Q 1469 100 1697 100 
Q 1969 100 2183 356 
Q 2397 613 2397 1088 
Q 2397 1622 2184 2012 
Q 1972 2403 1581 2403 
Q 1463 2403 1327 2353 
Q 1191 2303 925 2138 
z
" transform="scale(0.015625)"/>
       </defs>
       <use xlink:href="#TimesNewRomanPSMT-36"/>
      </g>
     </g>
    </g>
    <g id="ytick_5">
     <g id="line2d_21">
      <path d="M 24.2 112.706966 
L 381.32 112.706966 
" clip-path="url(#pa42850c700)" style="fill: none; stroke: #b0b0b0; stroke-width: 0.8; stroke-linecap: square"/>
     </g>
     <g id="line2d_22">
      <g>
       <use xlink:href="#m50180c5aa3" x="24.2" y="112.706966" style="stroke: #000000; stroke-width: 0.8"/>
      </g>
     </g>
     <g id="text_11">
      <!-- 8 -->
      <g transform="translate(12.2 116.178841) scale(0.1 -0.1)">
       <defs>
        <path id="TimesNewRomanPSMT-38" d="M 1228 2134 
Q 725 2547 579 2797 
Q 434 3047 434 3316 
Q 434 3728 753 4026 
Q 1072 4325 1600 4325 
Q 2113 4325 2425 4047 
Q 2738 3769 2738 3413 
Q 2738 3175 2569 2928 
Q 2400 2681 1866 2347 
Q 2416 1922 2594 1678 
Q 2831 1359 2831 1006 
Q 2831 559 2490 242 
Q 2150 -75 1597 -75 
Q 994 -75 656 303 
Q 388 606 388 966 
Q 388 1247 577 1523 
Q 766 1800 1228 2134 
z
M 1719 2469 
Q 2094 2806 2194 3001 
Q 2294 3197 2294 3444 
Q 2294 3772 2109 3958 
Q 1925 4144 1606 4144 
Q 1288 4144 1088 3959 
Q 888 3775 888 3528 
Q 888 3366 970 3203 
Q 1053 3041 1206 2894 
L 1719 2469 
z
M 1375 2016 
Q 1116 1797 991 1539 
Q 866 1281 866 981 
Q 866 578 1086 336 
Q 1306 94 1647 94 
Q 1984 94 2187 284 
Q 2391 475 2391 747 
Q 2391 972 2272 1150 
Q 2050 1481 1375 2016 
z
" transform="scale(0.015625)"/>
       </defs>
       <use xlink:href="#TimesNewRomanPSMT-38"/>
      </g>
     </g>
    </g>
    <g id="ytick_6">
     <g id="line2d_23">
      <path d="M 24.2 75.576533 
L 381.32 75.576533 
" clip-path="url(#pa42850c700)" style="fill: none; stroke: #b0b0b0; stroke-width: 0.8; stroke-linecap: square"/>
     </g>
     <g id="line2d_24">
      <g>
       <use xlink:href="#m50180c5aa3" x="24.2" y="75.576533" style="stroke: #000000; stroke-width: 0.8"/>
      </g>
     </g>
     <g id="text_12">
      <!-- 10 -->
      <g transform="translate(7.2 79.048408) scale(0.1 -0.1)">
       <use xlink:href="#TimesNewRomanPSMT-31"/>
       <use xlink:href="#TimesNewRomanPSMT-30" x="50"/>
      </g>
     </g>
    </g>
    <g id="ytick_7">
     <g id="line2d_25">
      <path d="M 24.2 38.446099 
L 381.32 38.446099 
" clip-path="url(#pa42850c700)" style="fill: none; stroke: #b0b0b0; stroke-width: 0.8; stroke-linecap: square"/>
     </g>
     <g id="line2d_26">
      <g>
       <use xlink:href="#m50180c5aa3" x="24.2" y="38.446099" style="stroke: #000000; stroke-width: 0.8"/>
      </g>
     </g>
     <g id="text_13">
      <!-- 12 -->
      <g transform="translate(7.2 41.917974) scale(0.1 -0.1)">
       <use xlink:href="#TimesNewRomanPSMT-31"/>
       <use xlink:href="#TimesNewRomanPSMT-32" x="50"/>
      </g>
     </g>
    </g>
   </g>
   <g id="line2d_27">
    <path d="M 40.432727 257.245087 
L 41.083338 258.848197 
L 41.733948 241.741992 
L 42.384558 259.52227 
L 43.035169 248.902734 
L 43.685779 207.672276 
L 44.336389 248.084566 
L 44.986999 242.090619 
L 45.63761 232.591373 
L 46.28822 205.736594 
L 46.93883 257.421231 
L 47.589441 253.206331 
L 48.240051 253.846654 
L 48.890661 249.3369 
L 49.541272 166.302629 
L 50.191882 209.102483 
L 50.842492 111.052279 
L 51.493103 205.234845 
L 52.143713 245.984203 
L 52.794323 238.891064 
L 53.444934 22.058198 
L 54.095544 235.874448 
L 54.746154 227.414434 
L 55.396764 249.013967 
L 56.047375 259.197729 
L 56.697985 250.722132 
L 57.348595 231.540558 
L 57.999206 248.196837 
L 58.649816 255.199579 
L 59.300426 168.245991 
L 59.951037 195.034482 
L 60.601647 228.960494 
L 61.252257 140.838693 
L 61.902868 242.808639 
L 62.553478 230.785409 
L 63.204088 207.815772 
L 63.854698 169.403902 
L 64.505309 157.885945 
L 65.155919 259.856429 
L 65.806529 202.188439 
L 66.45714 221.783873 
L 67.10775 250.924232 
L 67.75836 244.810246 
L 68.408971 247.94794 
L 69.059581 252.410778 
L 69.710191 225.556599 
L 70.360802 224.342921 
L 71.011412 257.454977 
L 71.662022 222.174362 
L 72.312633 232.714163 
L 72.963243 237.633081 
L 73.613853 231.333837 
L 74.264463 260.725298 
L 74.915074 152.242908 
L 76.216294 195.788422 
L 76.866905 120.478083 
L 77.517515 251.201802 
L 78.168125 250.408655 
L 78.818736 207.997387 
L 80.119956 254.042 
L 80.770567 241.627728 
L 81.421177 258.089176 
L 82.071787 140.622493 
L 82.722398 248.264345 
L 83.373008 260.889498 
L 84.023618 226.163682 
L 84.674228 228.155518 
L 85.324839 126.423895 
L 85.975449 239.269756 
L 86.626059 215.51 
L 87.27667 157.692341 
L 87.92728 229.525276 
L 88.57789 252.760805 
L 89.228501 202.503914 
L 89.879111 55.292574 
L 90.529721 259.195985 
L 91.180332 248.605929 
L 91.830942 225.341673 
L 92.481552 229.366811 
L 93.132163 155.537056 
L 93.782773 201.724034 
L 94.433383 258.656412 
L 95.083993 234.61467 
L 95.734604 230.623027 
L 96.385214 257.73595 
L 97.035824 259.572413 
L 97.686435 253.529783 
L 98.337045 227.524898 
L 98.987655 221.706723 
L 99.638266 193.864946 
L 100.288876 217.827429 
L 100.939486 176.040972 
L 101.590097 191.978105 
L 102.240707 254.585485 
L 102.891317 182.284976 
L 103.541927 231.538692 
L 104.192538 255.397022 
L 104.843148 258.292002 
L 105.493758 164.056945 
L 106.144369 236.256013 
L 106.794979 257.479384 
L 107.445589 255.980869 
L 108.0962 118.219036 
L 108.74681 200.405104 
L 109.39742 211.878183 
L 110.048031 206.745735 
L 110.698641 193.213285 
L 111.349251 159.432007 
L 111.999862 216.69328 
L 112.650472 259.55373 
L 113.301082 239.153013 
L 113.951692 232.308359 
L 115.252913 203.573726 
L 115.903523 259.292494 
L 116.554134 234.854468 
L 117.204744 259.296707 
L 117.855354 258.661822 
L 118.505965 241.724033 
L 119.156575 256.518753 
L 119.807185 218.411658 
L 120.457796 102.481109 
L 121.108406 238.805116 
L 121.759016 253.630781 
L 122.409627 259.04328 
L 123.060237 106.503217 
L 123.710847 204.872359 
L 124.361457 257.102169 
L 125.012068 215.838823 
L 125.662678 156.343845 
L 126.313288 229.903899 
L 126.963899 234.776907 
L 127.614509 229.077669 
L 128.265119 206.478518 
L 128.91573 233.937211 
L 129.56634 231.008835 
L 130.21695 222.367246 
L 130.867561 163.09644 
L 131.518171 249.074972 
L 132.168781 232.98807 
L 132.819392 230.649487 
L 133.470002 205.590905 
L 134.771222 242.276805 
L 135.421833 244.882397 
L 136.072443 254.358969 
L 136.723053 240.977541 
L 137.373664 212.506595 
L 138.024274 214.426494 
L 138.674884 225.834889 
L 139.325495 208.304222 
L 139.976105 255.917129 
L 140.626715 257.257909 
L 141.277326 180.873737 
L 141.927936 255.415022 
L 142.578546 212.337318 
L 143.229156 260.141219 
L 143.879767 199.99191 
L 144.530377 236.479647 
L 145.180987 140.488148 
L 145.831598 190.338216 
L 146.482208 226.940756 
L 147.132818 248.639821 
L 147.783429 202.956206 
L 148.434039 248.605308 
L 149.084649 257.403906 
L 149.73526 249.722086 
L 150.38587 250.2787 
L 151.03648 250.676122 
L 151.687091 227.861856 
L 152.337701 251.90241 
L 152.988311 187.262294 
L 153.638921 250.910284 
L 154.940142 200.569301 
L 155.590752 215.628831 
L 156.241363 251.728464 
L 156.891973 243.760957 
L 157.542583 261.006226 
L 158.193194 250.865608 
L 158.843804 228.41293 
L 159.494414 257.085886 
L 160.145025 254.518436 
L 160.795635 203.552171 
L 161.446245 255.080524 
L 162.096856 204.408266 
L 162.747466 257.227091 
L 163.398076 233.775015 
L 164.048686 203.171731 
L 164.699297 238.468899 
L 165.349907 229.33444 
L 166.000517 256.161778 
L 166.651128 255.515629 
L 167.301738 220.932398 
L 167.952348 243.777777 
L 168.602959 205.135684 
L 169.253569 255.83906 
L 169.904179 246.66235 
L 170.55479 254.335907 
L 171.2054 185.444153 
L 171.85601 162.238204 
L 172.506621 243.14617 
L 173.157231 236.98965 
L 173.807841 243.338103 
L 174.458451 246.15352 
L 175.109062 226.84679 
L 175.759672 248.149615 
L 176.410282 172.29136 
L 177.060893 250.276705 
L 177.711503 251.276912 
L 178.362113 233.036646 
L 179.012724 237.120449 
L 179.663334 258.496319 
L 180.313944 260.042512 
L 181.615165 225.901898 
L 182.265775 235.396616 
L 182.916385 42.706987 
L 183.566996 188.768742 
L 184.217606 216.476616 
L 184.868216 259.072723 
L 185.518827 248.712323 
L 186.169437 207.185049 
L 186.820047 225.263917 
L 187.470658 258.380955 
L 188.121268 191.592578 
L 188.771878 258.675161 
L 189.422489 250.037135 
L 190.073099 261.216 
L 190.723709 252.352934 
L 191.37432 260.608982 
L 192.02493 255.30776 
L 192.67554 258.556827 
L 193.32615 259.33025 
L 193.976761 224.272389 
L 194.627371 249.125138 
L 195.277981 208.455577 
L 195.928592 144.713026 
L 196.579202 165.879236 
L 197.229812 206.339772 
L 197.880423 239.809395 
L 198.531033 250.133 
L 199.181643 219.92104 
L 199.832254 253.135925 
L 200.482864 243.288488 
L 201.133474 205.098955 
L 201.784085 205.165692 
L 202.434695 162.423859 
L 203.085305 228.55165 
L 203.735915 249.650943 
L 204.386526 117.856222 
L 205.037136 223.606621 
L 205.687746 227.028535 
L 206.338357 254.44121 
L 206.988967 252.100323 
L 207.639577 241.863708 
L 208.290188 113.469459 
L 208.940798 250.708006 
L 209.591408 167.478492 
L 210.242019 256.89167 
L 210.892629 220.737843 
L 211.543239 234.642898 
L 212.19385 260.412904 
L 212.84446 249.130171 
L 213.49507 241.953709 
L 214.14568 126.794497 
L 214.796291 233.885959 
L 215.446901 208.083203 
L 216.097511 244.652643 
L 216.748122 226.77177 
L 218.049342 199.844613 
L 218.699953 210.002051 
L 220.001173 235.141788 
L 220.651784 245.500322 
L 221.302394 247.640448 
L 221.953004 248.448541 
L 222.603615 175.973706 
L 223.254225 214.817261 
L 223.904835 196.975561 
L 224.555445 230.058369 
L 225.206056 250.428546 
L 225.856666 204.181407 
L 226.507276 255.989096 
L 227.157887 247.178121 
L 227.808497 223.680519 
L 228.459107 248.37718 
L 229.109718 234.526019 
L 229.760328 225.8105 
L 230.410938 175.964886 
L 231.061549 246.402829 
L 231.712159 222.514915 
L 232.362769 252.188398 
L 233.66399 208.675374 
L 234.3146 260.945034 
L 234.96521 198.946848 
L 236.266431 249.716288 
L 236.917041 250.311603 
L 238.218262 223.721112 
L 238.868872 230.391666 
L 239.519483 251.129539 
L 240.170093 258.331252 
L 240.820703 206.504877 
L 241.471314 251.06616 
L 242.121924 237.494724 
L 242.772534 256.9079 
L 243.423144 193.570812 
L 244.073755 242.534567 
L 244.724365 197.937401 
L 245.374975 257.102395 
L 246.025586 228.205378 
L 246.676196 241.352682 
L 247.326806 177.002397 
L 247.977417 255.721558 
L 248.628027 128.496012 
L 249.278637 239.374303 
L 249.929248 235.623763 
L 250.579858 146.453478 
L 251.230468 238.126084 
L 251.881079 240.679261 
L 252.531689 156.120854 
L 253.182299 253.622202 
L 253.832909 193.328557 
L 254.48352 259.94446 
L 255.13413 212.739394 
L 255.78474 247.290895 
L 256.435351 226.123837 
L 257.085961 256.551319 
L 257.736571 198.663524 
L 258.387182 233.061487 
L 259.037792 238.38347 
L 259.688402 254.391295 
L 260.339013 212.630572 
L 260.989623 251.679199 
L 261.640233 213.785923 
L 262.290844 251.401184 
L 262.941454 222.914592 
L 263.592064 217.205284 
L 264.242674 235.092059 
L 264.893285 249.371966 
L 265.543895 225.543733 
L 266.194505 234.673769 
L 266.845116 167.997103 
L 267.495726 257.187446 
L 268.146336 234.053622 
L 268.796947 229.85748 
L 269.447557 217.257441 
L 270.098167 255.219991 
L 270.748778 62.124538 
L 271.399388 260.466108 
L 272.049998 239.165711 
L 272.700608 252.387359 
L 273.351219 255.26504 
L 274.001829 146.984459 
L 274.652439 258.739115 
L 275.30305 255.958513 
L 275.95366 216.180455 
L 276.60427 227.282479 
L 277.254881 240.620006 
L 277.905491 225.418977 
L 278.556101 249.8425 
L 279.206712 225.849875 
L 279.857322 243.313623 
L 280.507932 196.808745 
L 281.158543 175.593115 
L 281.809153 236.367017 
L 282.459763 238.728617 
L 283.110373 248.511986 
L 283.760984 218.826766 
L 284.411594 253.484518 
L 285.062204 214.511807 
L 285.712815 249.921449 
L 286.363425 241.658482 
L 287.014035 250.15187 
L 287.664646 208.446882 
L 288.315256 238.102413 
L 288.965866 248.043605 
L 289.616477 199.791761 
L 290.267087 244.165956 
L 290.917697 231.722184 
L 291.568308 256.399697 
L 292.218918 239.999132 
L 292.869528 259.135729 
L 293.520138 257.384852 
L 294.170749 193.83373 
L 294.821359 209.268965 
L 295.471969 256.472471 
L 296.12258 243.567399 
L 296.77319 109.86597 
L 297.4238 249.353636 
L 298.074411 196.947298 
L 298.725021 221.523547 
L 299.375631 180.785587 
L 300.026242 213.535752 
L 300.676852 221.450398 
L 301.327462 234.97463 
L 301.978073 222.661517 
L 302.628683 217.363259 
L 303.279293 237.50065 
L 303.929903 242.650824 
L 304.580514 224.136892 
L 305.231124 236.332319 
L 305.881734 238.696994 
L 306.532345 205.009881 
L 307.182955 245.308804 
L 307.833565 255.790078 
L 308.484176 260.294106 
L 309.134786 245.330482 
L 309.785396 246.569945 
L 310.436007 165.756842 
L 311.086617 194.099 
L 311.737227 229.005854 
L 312.387837 249.626285 
L 313.038448 51.261766 
L 313.689058 140.766874 
L 314.339668 259.66228 
L 315.640889 238.802363 
L 316.291499 243.87624 
L 316.94211 233.999767 
L 317.59272 259.744101 
L 318.24333 173.105349 
L 318.893941 250.933942 
L 319.544551 239.761018 
L 320.195161 191.929461 
L 320.845772 223.491251 
L 321.496382 225.041901 
L 322.146992 230.635773 
L 322.797602 257.547176 
L 323.448213 248.84675 
L 324.098823 254.770966 
L 324.749433 251.831804 
L 325.400044 179.583541 
L 326.050654 250.015927 
L 326.701264 237.225072 
L 327.351875 258.600233 
L 328.002485 232.813091 
L 328.653095 105.887742 
L 329.303706 239.791224 
L 329.954316 244.029993 
L 330.604926 213.529583 
L 331.255537 229.657738 
L 331.906147 147.171743 
L 332.556757 158.191589 
L 333.207367 261.103585 
L 333.857978 122.86006 
L 334.508588 208.530641 
L 335.159198 183.11253 
L 335.809809 182.143877 
L 337.111029 242.845775 
L 337.76164 220.249075 
L 338.41225 256.802325 
L 339.713471 225.577913 
L 340.364081 222.780114 
L 341.014691 221.85635 
L 341.665302 225.991874 
L 342.315912 258.427196 
L 342.966522 236.061913 
L 343.617132 248.146523 
L 344.267743 211.653539 
L 344.918353 199.378238 
L 345.568963 244.897128 
L 346.219574 247.553173 
L 346.870184 247.575587 
L 347.520794 177.663574 
L 348.171405 256.971308 
L 348.822015 260.130554 
L 349.472625 238.492543 
L 350.123236 242.314147 
L 350.773846 231.646389 
L 351.424456 245.274821 
L 352.075066 253.593506 
L 352.725677 235.513034 
L 353.376287 212.598142 
L 354.026897 196.49492 
L 354.677508 203.192211 
L 355.328118 205.783201 
L 355.978728 249.146362 
L 356.629339 261.009795 
L 357.279949 257.913201 
L 357.930559 229.007827 
L 358.58117 259.514695 
L 359.23178 253.80852 
L 359.88239 261.003871 
L 360.533001 250.753043 
L 361.183611 217.116508 
L 361.834221 245.962056 
L 362.484831 239.726653 
L 363.135442 232.202976 
L 363.786052 260.541442 
L 364.436662 227.193452 
L 365.087273 253.129143 
L 365.087273 253.129143 
" clip-path="url(#pa42850c700)" style="fill: none; stroke: #000000; stroke-width: 1.5; stroke-linecap: square"/>
   </g>
   <g id="line2d_28">
    <path d="M 40.432727 221.385008 
L 41.083338 174.242708 
L 41.733948 220.094373 
L 42.384558 239.367727 
L 43.035169 215.886746 
L 43.685779 253.490223 
L 44.336389 230.486979 
L 44.986999 197.984826 
L 45.63761 252.319856 
L 46.28822 247.263824 
L 46.93883 155.727842 
L 47.589441 189.169193 
L 48.240051 257.182445 
L 48.890661 245.074242 
L 49.541272 253.379938 
L 50.191882 234.199989 
L 50.842492 259.209384 
L 51.493103 237.653612 
L 52.143713 257.332415 
L 52.794323 249.945199 
L 53.444934 240.241468 
L 54.095544 177.646576 
L 54.746154 196.184569 
L 55.396764 248.481922 
L 56.047375 230.054893 
L 56.697985 253.902097 
L 57.348595 238.274983 
L 57.999206 250.950709 
L 58.649816 257.719636 
L 59.300426 256.118727 
L 59.951037 259.307464 
L 60.601647 246.753698 
L 61.252257 258.787999 
L 61.902868 250.236381 
L 62.553478 236.690755 
L 63.204088 161.010831 
L 63.854698 252.705175 
L 64.505309 258.033412 
L 65.155919 250.647079 
L 65.806529 185.699155 
L 66.45714 257.848163 
L 67.10775 248.325184 
L 67.75836 245.813108 
L 68.408971 163.139004 
L 69.059581 237.374518 
L 69.710191 252.997478 
L 70.360802 131.322704 
L 71.011412 244.931856 
L 71.662022 189.707261 
L 72.312633 113.886849 
L 72.963243 255.251644 
L 73.613853 208.860004 
L 74.264463 224.992266 
L 74.915074 213.704938 
L 75.565684 258.625135 
L 76.216294 231.169655 
L 76.866905 250.91686 
L 77.517515 171.827484 
L 78.168125 165.966968 
L 78.818736 243.059483 
L 79.469346 95.653164 
L 80.119956 161.188043 
L 80.770567 169.759497 
L 81.421177 250.1792 
L 82.071787 251.990356 
L 82.722398 249.124756 
L 83.373008 257.530559 
L 84.023618 248.419286 
L 84.674228 217.497183 
L 85.324839 245.744056 
L 85.975449 179.982167 
L 86.626059 237.891941 
L 87.27667 246.522272 
L 87.92728 232.790952 
L 88.57789 252.267457 
L 89.228501 238.242202 
L 89.879111 241.652627 
L 90.529721 184.468998 
L 91.180332 247.887686 
L 92.481552 220.351966 
L 93.132163 173.976111 
L 93.782773 208.71377 
L 94.433383 168.469757 
L 95.083993 244.134934 
L 95.734604 247.856884 
L 96.385214 248.081356 
L 97.035824 233.051397 
L 97.686435 191.258019 
L 98.337045 248.030411 
L 98.987655 240.424177 
L 99.638266 259.953629 
L 100.288876 243.535475 
L 100.939486 187.0713 
L 101.590097 197.659509 
L 102.240707 225.4887 
L 102.891317 206.391887 
L 103.541927 252.917134 
L 104.192538 256.608523 
L 104.843148 253.431961 
L 105.493758 219.785189 
L 106.144369 205.458942 
L 106.794979 147.884002 
L 107.445589 260.708311 
L 108.0962 258.707001 
L 108.74681 243.968651 
L 109.39742 242.95724 
L 110.048031 197.246628 
L 110.698641 226.83118 
L 111.349251 244.328644 
L 111.999862 217.252643 
L 112.650472 249.355887 
L 113.951692 237.654627 
L 114.602303 239.519253 
L 115.252913 100.280986 
L 115.903523 243.27779 
L 116.554134 216.248727 
L 117.204744 171.235644 
L 117.855354 258.838083 
L 118.505965 256.784171 
L 119.807185 185.88352 
L 120.457796 125.059184 
L 121.108406 210.21853 
L 121.759016 195.416241 
L 122.409627 204.260695 
L 123.060237 194.854107 
L 124.361457 252.075418 
L 125.012068 257.705163 
L 125.662678 194.378899 
L 126.313288 254.48064 
L 126.963899 250.018497 
L 127.614509 221.335133 
L 128.265119 237.51486 
L 128.91573 233.08022 
L 129.56634 247.324357 
L 130.21695 209.073561 
L 130.867561 240.087358 
L 131.518171 179.533578 
L 132.168781 257.662808 
L 132.819392 230.70122 
L 133.470002 247.460384 
L 134.120612 255.670348 
L 134.771222 227.689727 
L 135.421833 228.442298 
L 136.072443 243.290044 
L 136.723053 245.749545 
L 137.373664 181.966508 
L 138.024274 261.039582 
L 138.674884 245.050392 
L 139.976105 153.599582 
L 140.626715 251.63604 
L 141.277326 255.384577 
L 141.927936 189.633438 
L 142.578546 230.311392 
L 143.229156 192.211827 
L 143.879767 254.027595 
L 144.530377 261.158233 
L 145.180987 255.465187 
L 145.831598 241.989567 
L 146.482208 245.685386 
L 147.132818 236.262126 
L 147.783429 237.551141 
L 148.434039 215.562617 
L 149.084649 188.268571 
L 149.73526 243.631288 
L 150.38587 120.684629 
L 151.03648 240.390289 
L 151.687091 240.414329 
L 152.337701 224.937856 
L 152.988311 170.804746 
L 153.638921 252.8982 
L 154.289532 204.323177 
L 154.940142 232.607704 
L 155.590752 208.137342 
L 156.241363 213.945392 
L 156.891973 233.374249 
L 157.542583 242.150068 
L 158.193194 189.300374 
L 158.843804 233.704983 
L 159.494414 254.902642 
L 160.145025 129.908201 
L 160.795635 201.952038 
L 161.446245 230.164196 
L 162.096856 206.911159 
L 162.747466 250.350307 
L 163.398076 254.032272 
L 164.048686 196.156433 
L 164.699297 190.013321 
L 165.349907 240.815779 
L 166.000517 260.960058 
L 166.651128 254.697492 
L 167.301738 251.365418 
L 167.952348 185.430825 
L 168.602959 234.426789 
L 169.253569 240.750509 
L 169.904179 198.590384 
L 170.55479 174.613709 
L 171.2054 253.493611 
L 171.85601 249.568924 
L 172.506621 259.985882 
L 173.157231 204.757616 
L 173.807841 212.864129 
L 174.458451 106.854772 
L 175.109062 132.090723 
L 175.759672 260.01251 
L 176.410282 238.219431 
L 177.060893 211.574612 
L 177.711503 237.710134 
L 178.362113 253.699722 
L 179.012724 228.239282 
L 179.663334 253.85545 
L 180.313944 196.024095 
L 180.964555 207.946242 
L 181.615165 258.857547 
L 182.265775 237.18858 
L 182.916385 246.761466 
L 183.566996 251.785787 
L 184.217606 249.906256 
L 184.868216 256.473069 
L 185.518827 249.849368 
L 186.169437 251.406887 
L 186.820047 240.826746 
L 187.470658 225.752512 
L 188.121268 260.012065 
L 188.771878 259.040156 
L 189.422489 173.899032 
L 190.073099 256.142115 
L 190.723709 154.167172 
L 191.37432 160.317393 
L 192.02493 255.460016 
L 192.67554 260.076518 
L 193.32615 236.007079 
L 193.976761 141.8131 
L 194.627371 104.480683 
L 195.277981 183.206242 
L 195.928592 221.720853 
L 196.579202 222.390314 
L 197.229812 260.650934 
L 197.880423 253.816333 
L 198.531033 245.559283 
L 199.181643 243.961865 
L 199.832254 188.167235 
L 200.482864 256.893471 
L 201.133474 238.676753 
L 201.784085 241.290467 
L 202.434695 200.793823 
L 203.085305 219.617284 
L 203.735915 209.586508 
L 204.386526 89.222732 
L 205.037136 252.362452 
L 205.687746 250.695507 
L 206.338357 255.738436 
L 206.988967 256.408517 
L 207.639577 237.922262 
L 208.290188 225.58535 
L 208.940798 250.364316 
L 209.591408 239.573149 
L 210.242019 207.364855 
L 210.892629 261.163204 
L 211.543239 258.963315 
L 212.84446 243.620776 
L 213.49507 214.609842 
L 214.14568 173.01059 
L 214.796291 237.148002 
L 216.097511 258.101023 
L 216.748122 201.938788 
L 217.398732 203.968466 
L 218.049342 259.1662 
L 218.699953 228.039067 
L 219.350563 238.941743 
L 220.001173 52.580233 
L 220.651784 259.469834 
L 221.302394 242.70895 
L 222.603615 226.437058 
L 223.254225 196.672141 
L 223.904835 241.502898 
L 224.555445 225.337023 
L 225.206056 234.359156 
L 225.856666 160.396469 
L 226.507276 207.871938 
L 227.157887 233.28155 
L 227.808497 236.393936 
L 228.459107 202.923064 
L 229.109718 254.43086 
L 229.760328 252.285396 
L 230.410938 259.168306 
L 231.061549 255.515848 
L 231.712159 251.167219 
L 232.362769 119.745997 
L 233.013379 253.34437 
L 233.66399 259.28278 
L 234.3146 150.909429 
L 234.96521 143.068324 
L 236.266431 181.604468 
L 236.917041 259.171429 
L 237.567652 211.11067 
L 238.868872 257.003791 
L 239.519483 216.851966 
L 240.170093 222.864521 
L 240.820703 223.49946 
L 241.471314 259.429744 
L 242.121924 212.155114 
L 242.772534 214.598438 
L 243.423144 248.754448 
L 244.073755 175.561528 
L 244.724365 256.312036 
L 245.374975 243.84354 
L 246.025586 181.243918 
L 246.676196 260.908251 
L 247.326806 239.352928 
L 247.977417 184.918234 
L 248.628027 249.023275 
L 249.278637 259.531318 
L 249.929248 190.496506 
L 250.579858 246.44452 
L 251.230468 254.655903 
L 251.881079 223.88353 
L 252.531689 260.163972 
L 253.182299 258.977624 
L 253.832909 233.755122 
L 254.48352 219.436415 
L 255.13413 219.368853 
L 255.78474 255.215008 
L 256.435351 246.559918 
L 257.085961 256.723413 
L 257.736571 194.971879 
L 258.387182 256.835206 
L 259.037792 257.756313 
L 259.688402 169.368984 
L 260.339013 256.364409 
L 261.640233 164.319415 
L 262.290844 259.182021 
L 262.941454 221.676255 
L 263.592064 257.030521 
L 264.242674 133.305164 
L 265.543895 257.394862 
L 266.194505 260.651669 
L 266.845116 225.571606 
L 267.495726 211.372518 
L 268.146336 141.107595 
L 268.796947 235.762781 
L 269.447557 222.515039 
L 270.098167 149.957038 
L 270.748778 221.04667 
L 271.399388 241.214398 
L 272.049998 129.597113 
L 272.700608 162.055617 
L 273.351219 157.070976 
L 274.001829 255.008298 
L 274.652439 234.318106 
L 275.30305 241.182555 
L 275.95366 253.442947 
L 276.60427 130.508503 
L 277.254881 259.595396 
L 277.905491 245.872719 
L 278.556101 244.862818 
L 279.206712 221.719658 
L 279.857322 19.296 
L 280.507932 257.327283 
L 281.809153 87.683299 
L 282.459763 257.815137 
L 283.110373 246.263856 
L 283.760984 189.245567 
L 284.411594 249.302621 
L 285.062204 143.709898 
L 285.712815 254.648628 
L 286.363425 259.396649 
L 287.014035 242.94136 
L 287.664646 160.963449 
L 288.315256 232.907477 
L 289.616477 260.749719 
L 290.267087 226.687244 
L 290.917697 210.016527 
L 291.568308 205.537134 
L 292.218918 261.113339 
L 292.869528 228.358831 
L 293.520138 213.152041 
L 294.170749 240.369921 
L 294.821359 231.988242 
L 295.471969 158.112832 
L 296.12258 241.482051 
L 296.77319 203.310284 
L 297.4238 241.372201 
L 298.074411 238.083251 
L 298.725021 242.495426 
L 299.375631 244.199921 
L 300.026242 227.069452 
L 300.676852 251.294318 
L 301.327462 247.217262 
L 301.978073 226.294679 
L 302.628683 222.708575 
L 303.279293 230.357424 
L 303.929903 248.755363 
L 304.580514 255.077245 
L 305.231124 250.858883 
L 305.881734 92.522426 
L 306.532345 254.107585 
L 307.182955 256.162473 
L 307.833565 256.577823 
L 308.484176 248.186252 
L 309.134786 195.231557 
L 309.785396 260.615852 
L 310.436007 244.260299 
L 311.086617 224.262379 
L 311.737227 239.847363 
L 312.387837 190.454863 
L 313.038448 257.480996 
L 313.689058 150.172063 
L 314.339668 239.751681 
L 314.990279 129.978317 
L 315.640889 214.538311 
L 316.291499 233.876999 
L 316.94211 246.964818 
L 317.59272 252.583081 
L 318.24333 246.745763 
L 318.893941 249.003075 
L 319.544551 240.520624 
L 320.195161 168.018503 
L 320.845772 198.023717 
L 321.496382 180.191156 
L 322.146992 240.941312 
L 322.797602 249.087129 
L 323.448213 249.332242 
L 324.098823 211.58946 
L 324.749433 251.847296 
L 325.400044 226.067609 
L 326.050654 237.977044 
L 326.701264 243.428584 
L 327.351875 212.516923 
L 328.002485 253.13083 
L 328.653095 230.773509 
L 329.303706 261.042866 
L 329.954316 250.967807 
L 330.604926 196.863701 
L 331.255537 224.561013 
L 331.906147 226.270434 
L 332.556757 37.845778 
L 333.207367 255.385017 
L 333.857978 213.235825 
L 334.508588 204.937073 
L 335.159198 251.344787 
L 335.809809 222.368172 
L 336.460419 253.183516 
L 337.111029 250.453637 
L 337.76164 224.145166 
L 338.41225 210.161868 
L 339.06286 254.679481 
L 340.364081 190.100704 
L 341.014691 252.740469 
L 341.665302 251.907155 
L 342.315912 242.837332 
L 342.966522 248.585161 
L 343.617132 216.276625 
L 344.267743 250.255206 
L 344.918353 225.61832 
L 345.568963 227.468428 
L 346.219574 196.799637 
L 346.870184 172.906073 
L 347.520794 230.037265 
L 348.171405 241.026876 
L 348.822015 168.838689 
L 349.472625 241.568831 
L 350.123236 246.33256 
L 350.773846 258.238985 
L 351.424456 248.666126 
L 352.075066 248.401062 
L 352.725677 245.382072 
L 353.376287 259.538236 
L 354.026897 224.107427 
L 354.677508 244.560148 
L 355.328118 122.186748 
L 355.978728 255.357757 
L 356.629339 249.79258 
L 357.279949 141.383458 
L 357.930559 150.17712 
L 358.58117 240.857419 
L 359.23178 254.170543 
L 359.88239 261.149843 
L 360.533001 247.179953 
L 361.183611 244.702432 
L 361.834221 256.837894 
L 362.484831 78.696335 
L 363.135442 188.158245 
L 363.786052 251.524305 
L 364.436662 251.021267 
L 365.087273 239.5179 
L 365.087273 239.5179 
" clip-path="url(#pa42850c700)" style="fill: none; stroke: #808080; stroke-linecap: square"/>
   </g>
   <g id="patch_3">
    <path d="M 24.2 273.312 
L 24.2 7.2 
" style="fill: none; stroke: #000000; stroke-width: 0.8; stroke-linejoin: miter; stroke-linecap: square"/>
   </g>
   <g id="patch_4">
    <path d="M 381.32 273.312 
L 381.32 7.2 
" style="fill: none; stroke: #000000; stroke-width: 0.8; stroke-linejoin: miter; stroke-linecap: square"/>
   </g>
   <g id="patch_5">
    <path d="M 24.2 273.312 
L 381.32 273.312 
" style="fill: none; stroke: #000000; stroke-width: 0.8; stroke-linejoin: miter; stroke-linecap: square"/>
   </g>
   <g id="patch_6">
    <path d="M 24.2 7.2 
L 381.32 7.2 
" style="fill: none; stroke: #000000; stroke-width: 0.8; stroke-linejoin: miter; stroke-linecap: square"/>
   </g>
   <g id="legend_1">
    <g id="patch_7">
     <path d="M 221.42 46.3 
L 374.32 46.3 
Q 376.32 46.3 376.32 44.3 
L 376.32 14.2 
Q 376.32 12.2 374.32 12.2 
L 221.42 12.2 
Q 219.42 12.2 219.42 14.2 
L 219.42 44.3 
Q 219.42 46.3 221.42 46.3 
z
" style="fill: #ffffff; opacity: 0.8; stroke: #cccccc; stroke-linejoin: miter"/>
    </g>
    <g id="line2d_29">
     <path d="M 223.42 20.5 
L 233.42 20.5 
L 243.42 20.5 
" style="fill: none; stroke: #000000; stroke-width: 1.5; stroke-linecap: square"/>
    </g>
    <g id="text_14">
     <!-- $I$ for 1000 values from $\mathcal{N}$(0,1) -->
     <g transform="translate(251.42 24) scale(0.1 -0.1)">
      <defs>
       <path id="Cmmi10-49" d="M 269 0 
Q 206 0 206 84 
Q 231 225 288 225 
Q 666 225 800 250 
Q 947 284 984 441 
L 1863 3956 
Q 1875 4019 1875 4038 
Q 1875 4078 1854 4095 
Q 1834 4113 1791 4122 
Q 1663 4147 1306 4147 
Q 1241 4147 1241 4231 
Q 1263 4313 1275 4342 
Q 1288 4372 1350 4372 
L 3138 4372 
Q 3200 4372 3200 4288 
Q 3197 4272 3187 4234 
Q 3178 4197 3162 4172 
Q 3147 4147 3116 4147 
Q 2741 4147 2597 4122 
Q 2456 4088 2419 3928 
L 1544 416 
Q 1528 338 1528 331 
Q 1528 316 1533 302 
Q 1538 288 1552 277 
Q 1566 266 1580 261 
Q 1594 256 1613 250 
Q 1734 225 2100 225 
Q 2163 225 2163 141 
Q 2141 50 2128 25 
Q 2116 0 2053 0 
L 269 0 
z
" transform="scale(0.015625)"/>
       <path id="TimesNewRomanPSMT-20" transform="scale(0.015625)"/>
       <path id="TimesNewRomanPSMT-66" d="M 1319 2638 
L 1319 756 
Q 1319 356 1406 250 
Q 1522 113 1716 113 
L 1975 113 
L 1975 0 
L 266 0 
L 266 113 
L 394 113 
Q 519 113 622 175 
Q 725 238 764 344 
Q 803 450 803 756 
L 803 2638 
L 247 2638 
L 247 2863 
L 803 2863 
L 803 3050 
Q 803 3478 940 3775 
Q 1078 4072 1361 4255 
Q 1644 4438 1997 4438 
Q 2325 4438 2600 4225 
Q 2781 4084 2781 3909 
Q 2781 3816 2700 3733 
Q 2619 3650 2525 3650 
Q 2453 3650 2373 3701 
Q 2294 3753 2178 3923 
Q 2063 4094 1966 4153 
Q 1869 4213 1750 4213 
Q 1606 4213 1506 4136 
Q 1406 4059 1362 3898 
Q 1319 3738 1319 3069 
L 1319 2863 
L 2056 2863 
L 2056 2638 
L 1319 2638 
z
" transform="scale(0.015625)"/>
       <path id="TimesNewRomanPSMT-6f" d="M 1600 2947 
Q 2250 2947 2644 2453 
Q 2978 2031 2978 1484 
Q 2978 1100 2793 706 
Q 2609 313 2286 112 
Q 1963 -88 1566 -88 
Q 919 -88 538 428 
Q 216 863 216 1403 
Q 216 1797 411 2186 
Q 606 2575 925 2761 
Q 1244 2947 1600 2947 
z
M 1503 2744 
Q 1338 2744 1170 2645 
Q 1003 2547 900 2300 
Q 797 2053 797 1666 
Q 797 1041 1045 587 
Q 1294 134 1700 134 
Q 2003 134 2200 384 
Q 2397 634 2397 1244 
Q 2397 2006 2069 2444 
Q 1847 2744 1503 2744 
z
" transform="scale(0.015625)"/>
       <path id="TimesNewRomanPSMT-72" d="M 1038 2947 
L 1038 2303 
Q 1397 2947 1775 2947 
Q 1947 2947 2059 2842 
Q 2172 2738 2172 2600 
Q 2172 2478 2090 2393 
Q 2009 2309 1897 2309 
Q 1788 2309 1652 2417 
Q 1516 2525 1450 2525 
Q 1394 2525 1328 2463 
Q 1188 2334 1038 2041 
L 1038 669 
Q 1038 431 1097 309 
Q 1138 225 1241 169 
Q 1344 113 1538 113 
L 1538 0 
L 72 0 
L 72 113 
Q 291 113 397 181 
Q 475 231 506 341 
Q 522 394 522 644 
L 522 1753 
Q 522 2253 501 2348 
Q 481 2444 426 2487 
Q 372 2531 291 2531 
Q 194 2531 72 2484 
L 41 2597 
L 906 2947 
L 1038 2947 
z
" transform="scale(0.015625)"/>
       <path id="TimesNewRomanPSMT-76" d="M 53 2863 
L 1400 2863 
L 1400 2747 
L 1313 2747 
Q 1191 2747 1127 2687 
Q 1063 2628 1063 2528 
Q 1063 2419 1128 2269 
L 1794 688 
L 2463 2328 
Q 2534 2503 2534 2594 
Q 2534 2638 2509 2666 
Q 2475 2713 2422 2730 
Q 2369 2747 2206 2747 
L 2206 2863 
L 3141 2863 
L 3141 2747 
Q 2978 2734 2916 2681 
Q 2806 2588 2719 2369 
L 1703 -88 
L 1575 -88 
L 553 2328 
Q 484 2497 421 2570 
Q 359 2644 263 2694 
Q 209 2722 53 2747 
L 53 2863 
z
" transform="scale(0.015625)"/>
       <path id="TimesNewRomanPSMT-61" d="M 1822 413 
Q 1381 72 1269 19 
Q 1100 -59 909 -59 
Q 613 -59 420 144 
Q 228 347 228 678 
Q 228 888 322 1041 
Q 450 1253 767 1440 
Q 1084 1628 1822 1897 
L 1822 2009 
Q 1822 2438 1686 2597 
Q 1550 2756 1291 2756 
Q 1094 2756 978 2650 
Q 859 2544 859 2406 
L 866 2225 
Q 866 2081 792 2003 
Q 719 1925 600 1925 
Q 484 1925 411 2006 
Q 338 2088 338 2228 
Q 338 2497 613 2722 
Q 888 2947 1384 2947 
Q 1766 2947 2009 2819 
Q 2194 2722 2281 2516 
Q 2338 2381 2338 1966 
L 2338 994 
Q 2338 584 2353 492 
Q 2369 400 2405 369 
Q 2441 338 2488 338 
Q 2538 338 2575 359 
Q 2641 400 2828 588 
L 2828 413 
Q 2478 -56 2159 -56 
Q 2006 -56 1915 50 
Q 1825 156 1822 413 
z
M 1822 616 
L 1822 1706 
Q 1350 1519 1213 1441 
Q 966 1303 859 1153 
Q 753 1003 753 825 
Q 753 600 887 451 
Q 1022 303 1197 303 
Q 1434 303 1822 616 
z
" transform="scale(0.015625)"/>
       <path id="TimesNewRomanPSMT-6c" d="M 1184 4444 
L 1184 647 
Q 1184 378 1223 290 
Q 1263 203 1344 158 
Q 1425 113 1647 113 
L 1647 0 
L 244 0 
L 244 113 
Q 441 113 512 153 
Q 584 194 625 287 
Q 666 381 666 647 
L 666 3247 
Q 666 3731 644 3842 
Q 622 3953 573 3993 
Q 525 4034 450 4034 
Q 369 4034 244 3984 
L 191 4094 
L 1044 4444 
L 1184 4444 
z
" transform="scale(0.015625)"/>
       <path id="TimesNewRomanPSMT-75" d="M 2709 2863 
L 2709 1128 
Q 2709 631 2732 520 
Q 2756 409 2807 365 
Q 2859 322 2928 322 
Q 3025 322 3147 375 
L 3191 266 
L 2334 -88 
L 2194 -88 
L 2194 519 
Q 1825 119 1631 15 
Q 1438 -88 1222 -88 
Q 981 -88 804 51 
Q 628 191 559 409 
Q 491 628 491 1028 
L 491 2306 
Q 491 2509 447 2587 
Q 403 2666 317 2708 
Q 231 2750 6 2747 
L 6 2863 
L 1009 2863 
L 1009 947 
Q 1009 547 1148 422 
Q 1288 297 1484 297 
Q 1619 297 1789 381 
Q 1959 466 2194 703 
L 2194 2325 
Q 2194 2569 2105 2655 
Q 2016 2741 1734 2747 
L 1734 2863 
L 2709 2863 
z
" transform="scale(0.015625)"/>
       <path id="TimesNewRomanPSMT-65" d="M 681 1784 
Q 678 1147 991 784 
Q 1303 422 1725 422 
Q 2006 422 2214 576 
Q 2422 731 2563 1106 
L 2659 1044 
Q 2594 616 2278 264 
Q 1963 -88 1488 -88 
Q 972 -88 605 314 
Q 238 716 238 1394 
Q 238 2128 614 2539 
Q 991 2950 1559 2950 
Q 2041 2950 2350 2633 
Q 2659 2316 2659 1784 
L 681 1784 
z
M 681 1966 
L 2006 1966 
Q 1991 2241 1941 2353 
Q 1863 2528 1708 2628 
Q 1553 2728 1384 2728 
Q 1125 2728 920 2526 
Q 716 2325 681 1966 
z
" transform="scale(0.015625)"/>
       <path id="TimesNewRomanPSMT-73" d="M 2050 2947 
L 2050 1972 
L 1947 1972 
Q 1828 2431 1642 2597 
Q 1456 2763 1169 2763 
Q 950 2763 815 2647 
Q 681 2531 681 2391 
Q 681 2216 781 2091 
Q 878 1963 1175 1819 
L 1631 1597 
Q 2266 1288 2266 781 
Q 2266 391 1970 151 
Q 1675 -88 1309 -88 
Q 1047 -88 709 6 
Q 606 38 541 38 
Q 469 38 428 -44 
L 325 -44 
L 325 978 
L 428 978 
Q 516 541 762 319 
Q 1009 97 1316 97 
Q 1531 97 1667 223 
Q 1803 350 1803 528 
Q 1803 744 1651 891 
Q 1500 1038 1047 1263 
Q 594 1488 453 1669 
Q 313 1847 313 2119 
Q 313 2472 555 2709 
Q 797 2947 1181 2947 
Q 1350 2947 1591 2875 
Q 1750 2828 1803 2828 
Q 1853 2828 1881 2850 
Q 1909 2872 1947 2947 
L 2050 2947 
z
" transform="scale(0.015625)"/>
       <path id="TimesNewRomanPSMT-6d" d="M 1050 2338 
Q 1363 2650 1419 2697 
Q 1559 2816 1721 2881 
Q 1884 2947 2044 2947 
Q 2313 2947 2506 2790 
Q 2700 2634 2766 2338 
Q 3088 2713 3309 2830 
Q 3531 2947 3766 2947 
Q 3994 2947 4170 2830 
Q 4347 2713 4450 2447 
Q 4519 2266 4519 1878 
L 4519 647 
Q 4519 378 4559 278 
Q 4591 209 4675 161 
Q 4759 113 4950 113 
L 4950 0 
L 3538 0 
L 3538 113 
L 3597 113 
Q 3781 113 3884 184 
Q 3956 234 3988 344 
Q 4000 397 4000 647 
L 4000 1878 
Q 4000 2228 3916 2372 
Q 3794 2572 3525 2572 
Q 3359 2572 3192 2489 
Q 3025 2406 2788 2181 
L 2781 2147 
L 2788 2013 
L 2788 647 
Q 2788 353 2820 281 
Q 2853 209 2943 161 
Q 3034 113 3253 113 
L 3253 0 
L 1806 0 
L 1806 113 
Q 2044 113 2133 169 
Q 2222 225 2256 338 
Q 2272 391 2272 647 
L 2272 1878 
Q 2272 2228 2169 2381 
Q 2031 2581 1784 2581 
Q 1616 2581 1450 2491 
Q 1191 2353 1050 2181 
L 1050 647 
Q 1050 366 1089 281 
Q 1128 197 1204 155 
Q 1281 113 1516 113 
L 1516 0 
L 100 0 
L 100 113 
Q 297 113 375 155 
Q 453 197 493 289 
Q 534 381 534 647 
L 534 1741 
Q 534 2213 506 2350 
Q 484 2453 437 2492 
Q 391 2531 309 2531 
Q 222 2531 100 2484 
L 53 2597 
L 916 2947 
L 1050 2947 
L 1050 2338 
z
" transform="scale(0.015625)"/>
       <path id="Cmsy10-4e" d="M -184 13 
Q -184 131 -103 322 
Q -22 513 72 513 
Q 84 513 91 506 
Q 294 294 594 294 
Q 763 294 892 598 
Q 1022 903 1147 1306 
Q 1213 1509 1308 1837 
Q 1403 2166 1453 2369 
Q 1497 2538 1558 2827 
Q 1619 3116 1658 3331 
Q 1697 3547 1728 3772 
Q 1759 3997 1784 4244 
Q 1784 4278 1831 4325 
Q 1900 4397 1997 4453 
Q 2088 4494 2181 4513 
L 2234 4513 
Q 2272 4494 2278 4469 
Q 2438 3909 2675 3200 
Q 2891 2544 3044 2125 
Q 3197 1706 3405 1242 
Q 3613 778 3859 384 
Q 4194 1819 4525 2988 
L 4609 3284 
Q 4747 3769 4836 4039 
Q 4925 4309 5063 4525 
Q 5175 4700 5356 4800 
Q 5538 4900 5753 4942 
Q 5969 4984 6203 4984 
Q 6259 4984 6259 4878 
Q 6259 4803 6226 4686 
Q 6194 4569 6137 4478 
Q 6081 4388 6009 4372 
Q 5756 4372 5557 4331 
Q 5359 4291 5197 4184 
Q 5116 4125 5102 4094 
Q 5088 4063 5038 3909 
Q 4956 3684 4872 3366 
L 4788 3078 
Q 4625 2491 4498 2006 
Q 4372 1522 4256 1045 
Q 4141 569 4031 84 
Q 4034 84 4029 92 
Q 4025 100 4025 103 
Q 4025 47 3951 -15 
Q 3878 -78 3783 -120 
Q 3688 -163 3628 -172 
L 3584 -172 
Q 3478 -119 3222 368 
Q 2966 856 2834 1172 
Q 2359 2347 1966 3628 
Q 1916 3319 1759 2648 
Q 1603 1978 1387 1297 
Q 1172 616 914 148 
Q 656 -319 397 -319 
Q 231 -319 23 -225 
Q -184 -131 -184 13 
z
" transform="scale(0.015625)"/>
       <path id="TimesNewRomanPSMT-28" d="M 1988 -1253 
L 1988 -1369 
Q 1516 -1131 1200 -813 
Q 750 -359 506 256 
Q 263 872 263 1534 
Q 263 2503 741 3301 
Q 1219 4100 1988 4444 
L 1988 4313 
Q 1603 4100 1356 3731 
Q 1109 3363 987 2797 
Q 866 2231 866 1616 
Q 866 947 969 400 
Q 1050 -31 1165 -292 
Q 1281 -553 1476 -793 
Q 1672 -1034 1988 -1253 
z
" transform="scale(0.015625)"/>
       <path id="TimesNewRomanPSMT-2c" d="M 344 -1066 
L 344 -928 
Q 666 -822 842 -598 
Q 1019 -375 1019 -125 
Q 1019 -66 991 -25 
Q 969 3 947 3 
Q 913 3 797 -59 
Q 741 -88 678 -88 
Q 525 -88 434 3 
Q 344 94 344 253 
Q 344 406 461 515 
Q 578 625 747 625 
Q 953 625 1114 445 
Q 1275 266 1275 -31 
Q 1275 -353 1051 -629 
Q 828 -906 344 -1066 
z
" transform="scale(0.015625)"/>
       <path id="TimesNewRomanPSMT-29" d="M 144 4313 
L 144 4444 
Q 619 4209 934 3891 
Q 1381 3434 1625 2820 
Q 1869 2206 1869 1541 
Q 1869 572 1392 -226 
Q 916 -1025 144 -1369 
L 144 -1253 
Q 528 -1038 776 -670 
Q 1025 -303 1145 264 
Q 1266 831 1266 1447 
Q 1266 2113 1163 2663 
Q 1084 3094 967 3353 
Q 850 3613 656 3853 
Q 463 4094 144 4313 
z
" transform="scale(0.015625)"/>
      </defs>
      <use xlink:href="#Cmmi10-49" transform="translate(0 0.125)"/>
      <use xlink:href="#TimesNewRomanPSMT-20" transform="translate(43.896484 0.125)"/>
      <use xlink:href="#TimesNewRomanPSMT-66" transform="translate(68.896484 0.125)"/>
      <use xlink:href="#TimesNewRomanPSMT-6f" transform="translate(102.197266 0.125)"/>
      <use xlink:href="#TimesNewRomanPSMT-72" transform="translate(152.197266 0.125)"/>
      <use xlink:href="#TimesNewRomanPSMT-20" transform="translate(185.498047 0.125)"/>
      <use xlink:href="#TimesNewRomanPSMT-31" transform="translate(210.498047 0.125)"/>
      <use xlink:href="#TimesNewRomanPSMT-30" transform="translate(260.498047 0.125)"/>
      <use xlink:href="#TimesNewRomanPSMT-30" transform="translate(310.498047 0.125)"/>
      <use xlink:href="#TimesNewRomanPSMT-30" transform="translate(360.498047 0.125)"/>
      <use xlink:href="#TimesNewRomanPSMT-20" transform="translate(410.498047 0.125)"/>
      <use xlink:href="#TimesNewRomanPSMT-76" transform="translate(435.498047 0.125)"/>
      <use xlink:href="#TimesNewRomanPSMT-61" transform="translate(485.498047 0.125)"/>
      <use xlink:href="#TimesNewRomanPSMT-6c" transform="translate(529.882812 0.125)"/>
      <use xlink:href="#TimesNewRomanPSMT-75" transform="translate(557.666016 0.125)"/>
      <use xlink:href="#TimesNewRomanPSMT-65" transform="translate(607.666016 0.125)"/>
      <use xlink:href="#TimesNewRomanPSMT-73" transform="translate(652.050781 0.125)"/>
      <use xlink:href="#TimesNewRomanPSMT-20" transform="translate(690.966797 0.125)"/>
      <use xlink:href="#TimesNewRomanPSMT-66" transform="translate(715.966797 0.125)"/>
      <use xlink:href="#TimesNewRomanPSMT-72" transform="translate(749.267578 0.125)"/>
      <use xlink:href="#TimesNewRomanPSMT-6f" transform="translate(782.568359 0.125)"/>
      <use xlink:href="#TimesNewRomanPSMT-6d" transform="translate(832.568359 0.125)"/>
      <use xlink:href="#TimesNewRomanPSMT-20" transform="translate(910.351562 0.125)"/>
      <use xlink:href="#Cmsy10-4e" transform="translate(935.351562 0.125)"/>
      <use xlink:href="#TimesNewRomanPSMT-28" transform="translate(1017.333984 0.125)"/>
      <use xlink:href="#TimesNewRomanPSMT-30" transform="translate(1050.634766 0.125)"/>
      <use xlink:href="#TimesNewRomanPSMT-2c" transform="translate(1100.634766 0.125)"/>
      <use xlink:href="#TimesNewRomanPSMT-31" transform="translate(1125.634766 0.125)"/>
      <use xlink:href="#TimesNewRomanPSMT-29" transform="translate(1175.634766 0.125)"/>
     </g>
    </g>
    <g id="line2d_30">
     <path d="M 223.42 36.2 
L 233.42 36.2 
L 243.42 36.2 
" style="fill: none; stroke: #808080; stroke-linecap: square"/>
    </g>
    <g id="text_15">
     <!-- Values from $\chi_2^2$ -->
     <g transform="translate(251.42 39.7) scale(0.1 -0.1)">
      <defs>
       <path id="TimesNewRomanPSMT-56" d="M 4544 4238 
L 4544 4122 
Q 4319 4081 4203 3978 
Q 4038 3825 3909 3509 
L 2431 -97 
L 2316 -97 
L 728 3556 
Q 606 3838 556 3900 
Q 478 3997 364 4051 
Q 250 4106 56 4122 
L 56 4238 
L 1788 4238 
L 1788 4122 
Q 1494 4094 1406 4022 
Q 1319 3950 1319 3838 
Q 1319 3681 1463 3350 
L 2541 866 
L 3541 3319 
Q 3688 3681 3688 3822 
Q 3688 3913 3597 3995 
Q 3506 4078 3291 4113 
Q 3275 4116 3238 4122 
L 3238 4238 
L 4544 4238 
z
" transform="scale(0.015625)"/>
       <path id="Cmmi10-c2" d="M 275 -1241 
Q 244 -1241 214 -1214 
Q 184 -1188 184 -1159 
Q 184 -1116 213 -1094 
L 1778 647 
Q 1672 1034 1539 1454 
Q 1406 1875 1220 2269 
Q 1034 2663 891 2663 
Q 766 2663 694 2594 
Q 622 2525 567 2423 
Q 513 2322 494 2316 
L 416 2316 
Q 397 2316 381 2337 
Q 366 2359 366 2381 
Q 366 2484 455 2589 
Q 544 2694 673 2761 
Q 803 2828 916 2828 
Q 1169 2828 1375 2737 
Q 1581 2647 1684 2444 
Q 1775 2250 1859 2026 
Q 1944 1803 2020 1550 
Q 2097 1297 2163 1069 
L 3647 2719 
Q 3678 2759 3725 2759 
Q 3763 2759 3789 2736 
Q 3816 2713 3816 2675 
Q 3816 2634 3788 2613 
L 2222 872 
Q 2297 588 2447 114 
Q 2597 -359 2780 -753 
Q 2963 -1147 3109 -1147 
Q 3228 -1147 3303 -1076 
Q 3378 -1006 3434 -906 
Q 3491 -806 3506 -800 
L 3584 -800 
Q 3634 -800 3634 -863 
Q 3634 -1022 3445 -1167 
Q 3256 -1313 3084 -1313 
Q 2834 -1313 2628 -1222 
Q 2422 -1131 2322 -928 
Q 2084 -422 1838 447 
L 353 -1203 
Q 322 -1241 275 -1241 
z
" transform="scale(0.015625)"/>
       <path id="Cmr10-32" d="M 319 0 
L 319 172 
Q 319 188 331 206 
L 1325 1306 
Q 1550 1550 1690 1715 
Q 1831 1881 1968 2097 
Q 2106 2313 2186 2536 
Q 2266 2759 2266 3009 
Q 2266 3272 2169 3511 
Q 2072 3750 1880 3894 
Q 1688 4038 1416 4038 
Q 1138 4038 916 3870 
Q 694 3703 603 3438 
Q 628 3444 672 3444 
Q 816 3444 917 3347 
Q 1019 3250 1019 3097 
Q 1019 2950 917 2848 
Q 816 2747 672 2747 
Q 522 2747 420 2851 
Q 319 2956 319 3097 
Q 319 3338 409 3548 
Q 500 3759 670 3923 
Q 841 4088 1055 4175 
Q 1269 4263 1509 4263 
Q 1875 4263 2190 4108 
Q 2506 3953 2690 3670 
Q 2875 3388 2875 3009 
Q 2875 2731 2753 2481 
Q 2631 2231 2440 2026 
Q 2250 1822 1953 1562 
Q 1656 1303 1563 1216 
L 838 519 
L 1453 519 
Q 1906 519 2211 526 
Q 2516 534 2534 550 
Q 2609 631 2688 1141 
L 2875 1141 
L 2694 0 
L 319 0 
z
" transform="scale(0.015625)"/>
      </defs>
      <use xlink:href="#TimesNewRomanPSMT-56" transform="translate(0 0.109375)"/>
      <use xlink:href="#TimesNewRomanPSMT-61" transform="translate(72.216797 0.109375)"/>
      <use xlink:href="#TimesNewRomanPSMT-6c" transform="translate(116.601562 0.109375)"/>
      <use xlink:href="#TimesNewRomanPSMT-75" transform="translate(144.384766 0.109375)"/>
      <use xlink:href="#TimesNewRomanPSMT-65" transform="translate(194.384766 0.109375)"/>
      <use xlink:href="#TimesNewRomanPSMT-73" transform="translate(238.769531 0.109375)"/>
      <use xlink:href="#TimesNewRomanPSMT-20" transform="translate(277.685547 0.109375)"/>
      <use xlink:href="#TimesNewRomanPSMT-66" transform="translate(302.685547 0.109375)"/>
      <use xlink:href="#TimesNewRomanPSMT-72" transform="translate(335.986328 0.109375)"/>
      <use xlink:href="#TimesNewRomanPSMT-6f" transform="translate(369.287109 0.109375)"/>
      <use xlink:href="#TimesNewRomanPSMT-6d" transform="translate(419.287109 0.109375)"/>
      <use xlink:href="#TimesNewRomanPSMT-20" transform="translate(497.070312 0.109375)"/>
      <use xlink:href="#Cmmi10-c2" transform="translate(522.070312 0.109375)"/>
      <use xlink:href="#Cmr10-32" transform="translate(590.873594 38.373438) scale(0.7)"/>
      <use xlink:href="#Cmr10-32" transform="translate(584.570312 -25.4) scale(0.7)"/>
     </g>
    </g>
   </g>
  </g>
 </g>
 <defs>
  <clipPath id="pa42850c700">
   <rect x="24.2" y="7.2" width="357.12" height="266.112"/>
  </clipPath>
 </defs>
</svg>
