<?xml version="1.0" encoding="utf-8" standalone="no"?>
<!DOCTYPE svg PUBLIC "-//W3C//DTD SVG 1.1//EN"
  "http://www.w3.org/Graphics/SVG/1.1/DTD/svg11.dtd">
<svg xmlns:xlink="http://www.w3.org/1999/xlink" width="404.102812pt" height="324.010125pt" viewBox="0 0 404.102812 324.010125" xmlns="http://www.w3.org/2000/svg" version="1.1">
 <metadata>
  <rdf:RDF xmlns:dc="http://purl.org/dc/elements/1.1/" xmlns:cc="http://creativecommons.org/ns#" xmlns:rdf="http://www.w3.org/1999/02/22-rdf-syntax-ns#">
   <cc:Work>
    <dc:type rdf:resource="http://purl.org/dc/dcmitype/StillImage"/>
    <dc:date>2025-04-05T13:56:02.068178</dc:date>
    <dc:format>image/svg+xml</dc:format>
    <dc:creator>
     <cc:Agent>
      <dc:title>Matplotlib v3.8.4, https://matplotlib.org/</dc:title>
     </cc:Agent>
    </dc:creator>
   </cc:Work>
  </rdf:RDF>
 </metadata>
 <defs>
  <style type="text/css">*{stroke-linejoin: round; stroke-linecap: butt}</style>
 </defs>
 <g id="figure_1">
  <g id="patch_1">
   <path d="M 0 324.010125 
L 404.102812 324.010125 
L 404.102812 0 
L 0 0 
L 0 324.010125 
z
" style="fill: none"/>
  </g>
  <g id="axes_1">
   <g id="patch_2">
    <path d="M 39.782813 287.6445 
L 396.902812 287.6445 
L 396.902812 21.5325 
L 39.782813 21.5325 
L 39.782813 287.6445 
z
" style="fill: none"/>
   </g>
   <g id="PolyCollection_1">
    <defs>
     <path id="m3bdadd6da9" d="M 108.337243 -36.365625 
L 108.337243 -76.634762 
L 108.662223 -77.11159 
L 108.987202 -77.591609 
L 109.312182 -78.074817 
L 109.637161 -78.561213 
L 109.962141 -79.050797 
L 110.28712 -79.543567 
L 110.6121 -80.039522 
L 110.937079 -80.538658 
L 111.262059 -81.040975 
L 111.587039 -81.546469 
L 111.912018 -82.055138 
L 112.236998 -82.566978 
L 112.561977 -83.081987 
L 112.886957 -83.60016 
L 113.211936 -84.121494 
L 113.536916 -84.645984 
L 113.861895 -85.173627 
L 114.186875 -85.704416 
L 114.511854 -86.238348 
L 114.836834 -86.775417 
L 115.161813 -87.315616 
L 115.486793 -87.858941 
L 115.811772 -88.405385 
L 116.136752 -88.954941 
L 116.461731 -89.507602 
L 116.786711 -90.063362 
L 117.11169 -90.622213 
L 117.43667 -91.184147 
L 117.76165 -91.749156 
L 118.086629 -92.317231 
L 118.411609 -92.888365 
L 118.736588 -93.462548 
L 119.061568 -94.039771 
L 119.386547 -94.620023 
L 119.711527 -95.203297 
L 120.036506 -95.78958 
L 120.361486 -96.378863 
L 120.686465 -96.971134 
L 121.011445 -97.566383 
L 121.336424 -98.164598 
L 121.661404 -98.765767 
L 121.986383 -99.369879 
L 122.311363 -99.97692 
L 122.636342 -100.586878 
L 122.961322 -101.199739 
L 123.286301 -101.815491 
L 123.611281 -102.43412 
L 123.93626 -103.055612 
L 124.26124 -103.679952 
L 124.58622 -104.307125 
L 124.911199 -104.937117 
L 125.236179 -105.569912 
L 125.561158 -106.205494 
L 125.886138 -106.843848 
L 126.211117 -107.484958 
L 126.536097 -108.128805 
L 126.861076 -108.775374 
L 127.186056 -109.424648 
L 127.511035 -110.076607 
L 127.836015 -110.731236 
L 128.160994 -111.388514 
L 128.485974 -112.048424 
L 128.810953 -112.710947 
L 129.135933 -113.376063 
L 129.460912 -114.043752 
L 129.785892 -114.713996 
L 130.110871 -115.386772 
L 130.435851 -116.062062 
L 130.760831 -116.739843 
L 131.08581 -117.420095 
L 131.41079 -118.102795 
L 131.735769 -118.787923 
L 132.060749 -119.475455 
L 132.385728 -120.16537 
L 132.710708 -120.857643 
L 133.035687 -121.552252 
L 133.360667 -122.249174 
L 133.685646 -122.948384 
L 134.010626 -123.649858 
L 134.335605 -124.353571 
L 134.660585 -125.059499 
L 134.985564 -125.767617 
L 135.310544 -126.477898 
L 135.635523 -127.190317 
L 135.960503 -127.904848 
L 136.285482 -128.621465 
L 136.610462 -129.340139 
L 136.935441 -130.060845 
L 137.260421 -130.783555 
L 137.585401 -131.50824 
L 137.91038 -132.234874 
L 138.23536 -132.963426 
L 138.560339 -133.69387 
L 138.885319 -134.426175 
L 139.210298 -135.160312 
L 139.535278 -135.896251 
L 139.860257 -136.633963 
L 140.185237 -137.373417 
L 140.510216 -138.114583 
L 140.835196 -138.85743 
L 141.160175 -139.601925 
L 141.485155 -140.348039 
L 141.810134 -141.095738 
L 142.135114 -141.844992 
L 142.460093 -142.595767 
L 142.785073 -143.34803 
L 143.110052 -144.10175 
L 143.435032 -144.856891 
L 143.760012 -145.613422 
L 144.084991 -146.371307 
L 144.409971 -147.130513 
L 144.73495 -147.891005 
L 145.05993 -148.652748 
L 145.384909 -149.415708 
L 145.709889 -150.179849 
L 146.034868 -150.945135 
L 146.359848 -151.711531 
L 146.684827 -152.479001 
L 147.009807 -153.247507 
L 147.334786 -154.017014 
L 147.659766 -154.787484 
L 147.984745 -155.558881 
L 148.309725 -156.331166 
L 148.634704 -157.104302 
L 148.959684 -157.878251 
L 149.284663 -158.652976 
L 149.609643 -159.428436 
L 149.934622 -160.204594 
L 150.259602 -160.981411 
L 150.584582 -161.758847 
L 150.909561 -162.536862 
L 151.234541 -163.315419 
L 151.55952 -164.094475 
L 151.8845 -164.873992 
L 152.209479 -165.653928 
L 152.534459 -166.434244 
L 152.859438 -167.214898 
L 153.184418 -167.995849 
L 153.509397 -168.777056 
L 153.834377 -169.558478 
L 154.159356 -170.340073 
L 154.484336 -171.121798 
L 154.809315 -171.903613 
L 155.134295 -172.685474 
L 155.459274 -173.46734 
L 155.784254 -174.249167 
L 156.109233 -175.030912 
L 156.434213 -175.812533 
L 156.759193 -176.593986 
L 157.084172 -177.375229 
L 157.409152 -178.156216 
L 157.734131 -178.936906 
L 158.059111 -179.717253 
L 158.38409 -180.497213 
L 158.70907 -181.276743 
L 159.034049 -182.055799 
L 159.359029 -182.834334 
L 159.684008 -183.612306 
L 160.008988 -184.389668 
L 160.333967 -185.166376 
L 160.658947 -185.942385 
L 160.983926 -186.71765 
L 161.308906 -187.492126 
L 161.633885 -188.265766 
L 161.958865 -189.038525 
L 162.283844 -189.810358 
L 162.608824 -190.581218 
L 162.933803 -191.35106 
L 163.258783 -192.119838 
L 163.583763 -192.887506 
L 163.908742 -193.654017 
L 164.233722 -194.419324 
L 164.558701 -195.183383 
L 164.883681 -195.946145 
L 165.20866 -196.707566 
L 165.53364 -197.467597 
L 165.858619 -198.226192 
L 166.183599 -198.983305 
L 166.508578 -199.738889 
L 166.833558 -200.492896 
L 167.158537 -201.245281 
L 167.483517 -201.995995 
L 167.808496 -202.744992 
L 168.133476 -203.492225 
L 168.458455 -204.237647 
L 168.783435 -204.98121 
L 169.108414 -205.722868 
L 169.433394 -206.462574 
L 169.758374 -207.20028 
L 170.083353 -207.935939 
L 170.408333 -208.669504 
L 170.733312 -209.400927 
L 171.058292 -210.130163 
L 171.383271 -210.857163 
L 171.708251 -211.58188 
L 172.03323 -212.304268 
L 172.35821 -213.024278 
L 172.683189 -213.741865 
L 173.008169 -214.456982 
L 173.333148 -215.16958 
L 173.658128 -215.879614 
L 173.983107 -216.587036 
L 174.308087 -217.291799 
L 174.633066 -217.993858 
L 174.958046 -218.693164 
L 175.283025 -219.389673 
L 175.608005 -220.083336 
L 175.932984 -220.774107 
L 176.257964 -221.461941 
L 176.582944 -222.14679 
L 176.907923 -222.828609 
L 177.232903 -223.507352 
L 177.557882 -224.182972 
L 177.882862 -224.855423 
L 178.207841 -225.524661 
L 178.532821 -226.190639 
L 178.8578 -226.853311 
L 179.18278 -227.512632 
L 179.507759 -228.168558 
L 179.832739 -228.821042 
L 180.157718 -229.47004 
L 180.482698 -230.115508 
L 180.807677 -230.757399 
L 181.132657 -231.39567 
L 181.457636 -232.030277 
L 181.782616 -232.661175 
L 182.107595 -233.28832 
L 182.432575 -233.911669 
L 182.757555 -234.531177 
L 183.082534 -235.146802 
L 183.407514 -235.758499 
L 183.732493 -236.366227 
L 184.057473 -236.969941 
L 184.382452 -237.569599 
L 184.707432 -238.16516 
L 185.032411 -238.75658 
L 185.357391 -239.343818 
L 185.68237 -239.926831 
L 186.00735 -240.505578 
L 186.332329 -241.080019 
L 186.657309 -241.650111 
L 186.982288 -242.215814 
L 187.307268 -242.777087 
L 187.632247 -243.333891 
L 187.957227 -243.886184 
L 188.282206 -244.433927 
L 188.607186 -244.977081 
L 188.932165 -245.515605 
L 189.257145 -246.049462 
L 189.582125 -246.578613 
L 189.907104 -247.103018 
L 190.232084 -247.62264 
L 190.557063 -248.137442 
L 190.882043 -248.647384 
L 191.207022 -249.152431 
L 191.532002 -249.652545 
L 191.856981 -250.14769 
L 192.181961 -250.637829 
L 192.50694 -251.122926 
L 192.83192 -251.602945 
L 193.156899 -252.077852 
L 193.481879 -252.547611 
L 193.806858 -253.012188 
L 194.131838 -253.471547 
L 194.456817 -253.925656 
L 194.781797 -254.374481 
L 195.106776 -254.817987 
L 195.431756 -255.256143 
L 195.756736 -255.688916 
L 196.081715 -256.116273 
L 196.406695 -256.538183 
L 196.731674 -256.954614 
L 197.056654 -257.365535 
L 197.381633 -257.770915 
L 197.706613 -258.170725 
L 198.031592 -258.564933 
L 198.356572 -258.953512 
L 198.681551 -259.33643 
L 199.006531 -259.71366 
L 199.33151 -260.085174 
L 199.65649 -260.450942 
L 199.981469 -260.810939 
L 200.306449 -261.165136 
L 200.631428 -261.513506 
L 200.956408 -261.856025 
L 201.281387 -262.192665 
L 201.606367 -262.523401 
L 201.931346 -262.848208 
L 202.256326 -263.167062 
L 202.581306 -263.479938 
L 202.906285 -263.786813 
L 203.231265 -264.087663 
L 203.556244 -264.382465 
L 203.881224 -264.671198 
L 204.206203 -264.953838 
L 204.531183 -265.230365 
L 204.856162 -265.500758 
L 205.181142 -265.764995 
L 205.506121 -266.023057 
L 205.831101 -266.274923 
L 206.15608 -266.520576 
L 206.48106 -266.759995 
L 206.806039 -266.993163 
L 207.131019 -267.220061 
L 207.455998 -267.440673 
L 207.780978 -267.654982 
L 208.105957 -267.86297 
L 208.430937 -268.064622 
L 208.755917 -268.259923 
L 209.080896 -268.448858 
L 209.405876 -268.631412 
L 209.730855 -268.807571 
L 210.055835 -268.977321 
L 210.380814 -269.14065 
L 210.705794 -269.297544 
L 211.030773 -269.447993 
L 211.355753 -269.591983 
L 211.680732 -269.729505 
L 212.005712 -269.860548 
L 212.330691 -269.985101 
L 212.655671 -270.103154 
L 212.98065 -270.2147 
L 213.30563 -270.319728 
L 213.630609 -270.418232 
L 213.955589 -270.510203 
L 214.280568 -270.595635 
L 214.605548 -270.67452 
L 214.930527 -270.746853 
L 215.255507 -270.812628 
L 215.580487 -270.87184 
L 215.905466 -270.924484 
L 216.230446 -270.970557 
L 216.555425 -271.010055 
L 216.880405 -271.042974 
L 217.205384 -271.069312 
L 217.530364 -271.089068 
L 217.855343 -271.102239 
L 218.180323 -271.108825 
L 218.505302 -271.108825 
L 218.830282 -271.102239 
L 219.155261 -271.089068 
L 219.480241 -271.069312 
L 219.80522 -271.042974 
L 220.1302 -271.010055 
L 220.455179 -270.970557 
L 220.780159 -270.924484 
L 221.105138 -270.87184 
L 221.430118 -270.812628 
L 221.755098 -270.746853 
L 222.080077 -270.67452 
L 222.405057 -270.595635 
L 222.730036 -270.510203 
L 223.055016 -270.418232 
L 223.379995 -270.319728 
L 223.704975 -270.2147 
L 224.029954 -270.103154 
L 224.354934 -269.985101 
L 224.679913 -269.860548 
L 225.004893 -269.729505 
L 225.329872 -269.591983 
L 225.654852 -269.447993 
L 225.979831 -269.297544 
L 226.304811 -269.14065 
L 226.62979 -268.977321 
L 226.95477 -268.807571 
L 227.279749 -268.631412 
L 227.604729 -268.448858 
L 227.929708 -268.259923 
L 228.254688 -268.064622 
L 228.579668 -267.86297 
L 228.904647 -267.654982 
L 229.229627 -267.440673 
L 229.554606 -267.220061 
L 229.879586 -266.993163 
L 230.204565 -266.759995 
L 230.529545 -266.520576 
L 230.854524 -266.274923 
L 231.179504 -266.023057 
L 231.504483 -265.764995 
L 231.829463 -265.500758 
L 232.154442 -265.230365 
L 232.479422 -264.953838 
L 232.804401 -264.671198 
L 233.129381 -264.382465 
L 233.45436 -264.087663 
L 233.77934 -263.786813 
L 234.104319 -263.479938 
L 234.429299 -263.167062 
L 234.754279 -262.848208 
L 235.079258 -262.523401 
L 235.404238 -262.192665 
L 235.729217 -261.856025 
L 236.054197 -261.513506 
L 236.379176 -261.165136 
L 236.704156 -260.810939 
L 237.029135 -260.450942 
L 237.354115 -260.085174 
L 237.679094 -259.71366 
L 238.004074 -259.33643 
L 238.329053 -258.953512 
L 238.654033 -258.564933 
L 238.979012 -258.170725 
L 239.303992 -257.770915 
L 239.628971 -257.365535 
L 239.953951 -256.954614 
L 240.27893 -256.538183 
L 240.60391 -256.116273 
L 240.928889 -255.688916 
L 241.253869 -255.256143 
L 241.578849 -254.817987 
L 241.903828 -254.374481 
L 242.228808 -253.925656 
L 242.553787 -253.471547 
L 242.878767 -253.012188 
L 243.203746 -252.547611 
L 243.528726 -252.077852 
L 243.853705 -251.602945 
L 244.178685 -251.122926 
L 244.503664 -250.637829 
L 244.828644 -250.14769 
L 245.153623 -249.652545 
L 245.478603 -249.152431 
L 245.803582 -248.647384 
L 246.128562 -248.137442 
L 246.453541 -247.62264 
L 246.778521 -247.103018 
L 247.1035 -246.578613 
L 247.42848 -246.049462 
L 247.75346 -245.515605 
L 248.078439 -244.977081 
L 248.403419 -244.433927 
L 248.728398 -243.886184 
L 249.053378 -243.333891 
L 249.378357 -242.777087 
L 249.703337 -242.215814 
L 250.028316 -241.650111 
L 250.353296 -241.080019 
L 250.678275 -240.505578 
L 251.003255 -239.926831 
L 251.328234 -239.343818 
L 251.653214 -238.75658 
L 251.978193 -238.16516 
L 252.303173 -237.569599 
L 252.628152 -236.969941 
L 252.953132 -236.366227 
L 253.278111 -235.758499 
L 253.603091 -235.146802 
L 253.92807 -234.531177 
L 254.25305 -233.911669 
L 254.57803 -233.28832 
L 254.903009 -232.661175 
L 255.227989 -232.030277 
L 255.552968 -231.39567 
L 255.877948 -230.757399 
L 256.202927 -230.115508 
L 256.527907 -229.47004 
L 256.852886 -228.821042 
L 257.177866 -228.168558 
L 257.502845 -227.512632 
L 257.827825 -226.853311 
L 258.152804 -226.190639 
L 258.477784 -225.524661 
L 258.802763 -224.855423 
L 259.127743 -224.182972 
L 259.452722 -223.507352 
L 259.777702 -222.828609 
L 260.102681 -222.14679 
L 260.427661 -221.461941 
L 260.752641 -220.774107 
L 261.07762 -220.083336 
L 261.4026 -219.389673 
L 261.727579 -218.693164 
L 262.052559 -217.993858 
L 262.377538 -217.291799 
L 262.702518 -216.587036 
L 263.027497 -215.879614 
L 263.352477 -215.16958 
L 263.677456 -214.456982 
L 264.002436 -213.741865 
L 264.327415 -213.024278 
L 264.652395 -212.304268 
L 264.977374 -211.58188 
L 265.302354 -210.857163 
L 265.627333 -210.130163 
L 265.952313 -209.400927 
L 266.277292 -208.669504 
L 266.602272 -207.935939 
L 266.927251 -207.20028 
L 267.252231 -206.462574 
L 267.577211 -205.722868 
L 267.90219 -204.98121 
L 268.22717 -204.237647 
L 268.552149 -203.492225 
L 268.877129 -202.744992 
L 269.202108 -201.995995 
L 269.527088 -201.245281 
L 269.852067 -200.492896 
L 270.177047 -199.738889 
L 270.502026 -198.983305 
L 270.827006 -198.226192 
L 271.151985 -197.467597 
L 271.476965 -196.707566 
L 271.801944 -195.946145 
L 272.126924 -195.183383 
L 272.451903 -194.419324 
L 272.776883 -193.654017 
L 273.101862 -192.887506 
L 273.426842 -192.119838 
L 273.751822 -191.35106 
L 274.076801 -190.581218 
L 274.401781 -189.810358 
L 274.72676 -189.038525 
L 275.05174 -188.265766 
L 275.376719 -187.492126 
L 275.701699 -186.71765 
L 276.026678 -185.942385 
L 276.351658 -185.166376 
L 276.676637 -184.389668 
L 277.001617 -183.612306 
L 277.326596 -182.834334 
L 277.651576 -182.055799 
L 277.976555 -181.276743 
L 278.301535 -180.497213 
L 278.626514 -179.717253 
L 278.951494 -178.936906 
L 279.276473 -178.156216 
L 279.601453 -177.375229 
L 279.926432 -176.593986 
L 280.251412 -175.812533 
L 280.576392 -175.030912 
L 280.901371 -174.249167 
L 281.226351 -173.46734 
L 281.55133 -172.685474 
L 281.87631 -171.903613 
L 282.201289 -171.121798 
L 282.526269 -170.340073 
L 282.851248 -169.558478 
L 283.176228 -168.777056 
L 283.501207 -167.995849 
L 283.826187 -167.214898 
L 284.151166 -166.434244 
L 284.476146 -165.653928 
L 284.801125 -164.873992 
L 285.126105 -164.094475 
L 285.451084 -163.315419 
L 285.776064 -162.536862 
L 286.101043 -161.758847 
L 286.426023 -160.981411 
L 286.751003 -160.204594 
L 287.075982 -159.428436 
L 287.400962 -158.652976 
L 287.725941 -157.878251 
L 288.050921 -157.104302 
L 288.3759 -156.331166 
L 288.70088 -155.558881 
L 289.025859 -154.787484 
L 289.350839 -154.017014 
L 289.675818 -153.247507 
L 290.000798 -152.479001 
L 290.325777 -151.711531 
L 290.650757 -150.945135 
L 290.975736 -150.179849 
L 291.300716 -149.415708 
L 291.625695 -148.652748 
L 291.950675 -147.891005 
L 292.275654 -147.130513 
L 292.600634 -146.371307 
L 292.925613 -145.613422 
L 293.250593 -144.856891 
L 293.575573 -144.10175 
L 293.900552 -143.34803 
L 294.225532 -142.595767 
L 294.550511 -141.844992 
L 294.875491 -141.095738 
L 295.20047 -140.348039 
L 295.52545 -139.601925 
L 295.850429 -138.85743 
L 296.175409 -138.114583 
L 296.500388 -137.373417 
L 296.825368 -136.633963 
L 297.150347 -135.896251 
L 297.475327 -135.160312 
L 297.800306 -134.426175 
L 298.125286 -133.69387 
L 298.450265 -132.963426 
L 298.775245 -132.234874 
L 299.100224 -131.50824 
L 299.425204 -130.783555 
L 299.750184 -130.060845 
L 300.075163 -129.340139 
L 300.400143 -128.621465 
L 300.725122 -127.904848 
L 301.050102 -127.190317 
L 301.375081 -126.477898 
L 301.700061 -125.767617 
L 302.02504 -125.059499 
L 302.35002 -124.353571 
L 302.674999 -123.649858 
L 302.999979 -122.948384 
L 303.324958 -122.249174 
L 303.649938 -121.552252 
L 303.974917 -120.857643 
L 304.299897 -120.16537 
L 304.624876 -119.475455 
L 304.949856 -118.787923 
L 305.274835 -118.102795 
L 305.599815 -117.420095 
L 305.924794 -116.739843 
L 306.249774 -116.062062 
L 306.574754 -115.386772 
L 306.899733 -114.713996 
L 307.224713 -114.043752 
L 307.549692 -113.376063 
L 307.874672 -112.710947 
L 308.199651 -112.048424 
L 308.524631 -111.388514 
L 308.84961 -110.731236 
L 309.17459 -110.076607 
L 309.499569 -109.424648 
L 309.824549 -108.775374 
L 310.149528 -108.128805 
L 310.474508 -107.484958 
L 310.799487 -106.843848 
L 311.124467 -106.205494 
L 311.449446 -105.569912 
L 311.774426 -104.937117 
L 312.099405 -104.307125 
L 312.424385 -103.679952 
L 312.749365 -103.055612 
L 313.074344 -102.43412 
L 313.399324 -101.815491 
L 313.724303 -101.199739 
L 314.049283 -100.586878 
L 314.374262 -99.97692 
L 314.699242 -99.369879 
L 315.024221 -98.765767 
L 315.349201 -98.164598 
L 315.67418 -97.566383 
L 315.99916 -96.971134 
L 316.324139 -96.378863 
L 316.649119 -95.78958 
L 316.974098 -95.203297 
L 317.299078 -94.620023 
L 317.624057 -94.039771 
L 317.949037 -93.462548 
L 318.274016 -92.888365 
L 318.598996 -92.317231 
L 318.923975 -91.749156 
L 319.248955 -91.184147 
L 319.573935 -90.622213 
L 319.898914 -90.063362 
L 320.223894 -89.507602 
L 320.548873 -88.954941 
L 320.873853 -88.405385 
L 321.198832 -87.858941 
L 321.523812 -87.315616 
L 321.848791 -86.775417 
L 322.173771 -86.238348 
L 322.49875 -85.704416 
L 322.82373 -85.173627 
L 323.148709 -84.645984 
L 323.473689 -84.121494 
L 323.473689 -36.365625 
L 323.473689 -36.365625 
L 323.148709 -36.365625 
L 322.82373 -36.365625 
L 322.49875 -36.365625 
L 322.173771 -36.365625 
L 321.848791 -36.365625 
L 321.523812 -36.365625 
L 321.198832 -36.365625 
L 320.873853 -36.365625 
L 320.548873 -36.365625 
L 320.223894 -36.365625 
L 319.898914 -36.365625 
L 319.573935 -36.365625 
L 319.248955 -36.365625 
L 318.923975 -36.365625 
L 318.598996 -36.365625 
L 318.274016 -36.365625 
L 317.949037 -36.365625 
L 317.624057 -36.365625 
L 317.299078 -36.365625 
L 316.974098 -36.365625 
L 316.649119 -36.365625 
L 316.324139 -36.365625 
L 315.99916 -36.365625 
L 315.67418 -36.365625 
L 315.349201 -36.365625 
L 315.024221 -36.365625 
L 314.699242 -36.365625 
L 314.374262 -36.365625 
L 314.049283 -36.365625 
L 313.724303 -36.365625 
L 313.399324 -36.365625 
L 313.074344 -36.365625 
L 312.749365 -36.365625 
L 312.424385 -36.365625 
L 312.099405 -36.365625 
L 311.774426 -36.365625 
L 311.449446 -36.365625 
L 311.124467 -36.365625 
L 310.799487 -36.365625 
L 310.474508 -36.365625 
L 310.149528 -36.365625 
L 309.824549 -36.365625 
L 309.499569 -36.365625 
L 309.17459 -36.365625 
L 308.84961 -36.365625 
L 308.524631 -36.365625 
L 308.199651 -36.365625 
L 307.874672 -36.365625 
L 307.549692 -36.365625 
L 307.224713 -36.365625 
L 306.899733 -36.365625 
L 306.574754 -36.365625 
L 306.249774 -36.365625 
L 305.924794 -36.365625 
L 305.599815 -36.365625 
L 305.274835 -36.365625 
L 304.949856 -36.365625 
L 304.624876 -36.365625 
L 304.299897 -36.365625 
L 303.974917 -36.365625 
L 303.649938 -36.365625 
L 303.324958 -36.365625 
L 302.999979 -36.365625 
L 302.674999 -36.365625 
L 302.35002 -36.365625 
L 302.02504 -36.365625 
L 301.700061 -36.365625 
L 301.375081 -36.365625 
L 301.050102 -36.365625 
L 300.725122 -36.365625 
L 300.400143 -36.365625 
L 300.075163 -36.365625 
L 299.750184 -36.365625 
L 299.425204 -36.365625 
L 299.100224 -36.365625 
L 298.775245 -36.365625 
L 298.450265 -36.365625 
L 298.125286 -36.365625 
L 297.800306 -36.365625 
L 297.475327 -36.365625 
L 297.150347 -36.365625 
L 296.825368 -36.365625 
L 296.500388 -36.365625 
L 296.175409 -36.365625 
L 295.850429 -36.365625 
L 295.52545 -36.365625 
L 295.20047 -36.365625 
L 294.875491 -36.365625 
L 294.550511 -36.365625 
L 294.225532 -36.365625 
L 293.900552 -36.365625 
L 293.575573 -36.365625 
L 293.250593 -36.365625 
L 292.925613 -36.365625 
L 292.600634 -36.365625 
L 292.275654 -36.365625 
L 291.950675 -36.365625 
L 291.625695 -36.365625 
L 291.300716 -36.365625 
L 290.975736 -36.365625 
L 290.650757 -36.365625 
L 290.325777 -36.365625 
L 290.000798 -36.365625 
L 289.675818 -36.365625 
L 289.350839 -36.365625 
L 289.025859 -36.365625 
L 288.70088 -36.365625 
L 288.3759 -36.365625 
L 288.050921 -36.365625 
L 287.725941 -36.365625 
L 287.400962 -36.365625 
L 287.075982 -36.365625 
L 286.751003 -36.365625 
L 286.426023 -36.365625 
L 286.101043 -36.365625 
L 285.776064 -36.365625 
L 285.451084 -36.365625 
L 285.126105 -36.365625 
L 284.801125 -36.365625 
L 284.476146 -36.365625 
L 284.151166 -36.365625 
L 283.826187 -36.365625 
L 283.501207 -36.365625 
L 283.176228 -36.365625 
L 282.851248 -36.365625 
L 282.526269 -36.365625 
L 282.201289 -36.365625 
L 281.87631 -36.365625 
L 281.55133 -36.365625 
L 281.226351 -36.365625 
L 280.901371 -36.365625 
L 280.576392 -36.365625 
L 280.251412 -36.365625 
L 279.926432 -36.365625 
L 279.601453 -36.365625 
L 279.276473 -36.365625 
L 278.951494 -36.365625 
L 278.626514 -36.365625 
L 278.301535 -36.365625 
L 277.976555 -36.365625 
L 277.651576 -36.365625 
L 277.326596 -36.365625 
L 277.001617 -36.365625 
L 276.676637 -36.365625 
L 276.351658 -36.365625 
L 276.026678 -36.365625 
L 275.701699 -36.365625 
L 275.376719 -36.365625 
L 275.05174 -36.365625 
L 274.72676 -36.365625 
L 274.401781 -36.365625 
L 274.076801 -36.365625 
L 273.751822 -36.365625 
L 273.426842 -36.365625 
L 273.101862 -36.365625 
L 272.776883 -36.365625 
L 272.451903 -36.365625 
L 272.126924 -36.365625 
L 271.801944 -36.365625 
L 271.476965 -36.365625 
L 271.151985 -36.365625 
L 270.827006 -36.365625 
L 270.502026 -36.365625 
L 270.177047 -36.365625 
L 269.852067 -36.365625 
L 269.527088 -36.365625 
L 269.202108 -36.365625 
L 268.877129 -36.365625 
L 268.552149 -36.365625 
L 268.22717 -36.365625 
L 267.90219 -36.365625 
L 267.577211 -36.365625 
L 267.252231 -36.365625 
L 266.927251 -36.365625 
L 266.602272 -36.365625 
L 266.277292 -36.365625 
L 265.952313 -36.365625 
L 265.627333 -36.365625 
L 265.302354 -36.365625 
L 264.977374 -36.365625 
L 264.652395 -36.365625 
L 264.327415 -36.365625 
L 264.002436 -36.365625 
L 263.677456 -36.365625 
L 263.352477 -36.365625 
L 263.027497 -36.365625 
L 262.702518 -36.365625 
L 262.377538 -36.365625 
L 262.052559 -36.365625 
L 261.727579 -36.365625 
L 261.4026 -36.365625 
L 261.07762 -36.365625 
L 260.752641 -36.365625 
L 260.427661 -36.365625 
L 260.102681 -36.365625 
L 259.777702 -36.365625 
L 259.452722 -36.365625 
L 259.127743 -36.365625 
L 258.802763 -36.365625 
L 258.477784 -36.365625 
L 258.152804 -36.365625 
L 257.827825 -36.365625 
L 257.502845 -36.365625 
L 257.177866 -36.365625 
L 256.852886 -36.365625 
L 256.527907 -36.365625 
L 256.202927 -36.365625 
L 255.877948 -36.365625 
L 255.552968 -36.365625 
L 255.227989 -36.365625 
L 254.903009 -36.365625 
L 254.57803 -36.365625 
L 254.25305 -36.365625 
L 253.92807 -36.365625 
L 253.603091 -36.365625 
L 253.278111 -36.365625 
L 252.953132 -36.365625 
L 252.628152 -36.365625 
L 252.303173 -36.365625 
L 251.978193 -36.365625 
L 251.653214 -36.365625 
L 251.328234 -36.365625 
L 251.003255 -36.365625 
L 250.678275 -36.365625 
L 250.353296 -36.365625 
L 250.028316 -36.365625 
L 249.703337 -36.365625 
L 249.378357 -36.365625 
L 249.053378 -36.365625 
L 248.728398 -36.365625 
L 248.403419 -36.365625 
L 248.078439 -36.365625 
L 247.75346 -36.365625 
L 247.42848 -36.365625 
L 247.1035 -36.365625 
L 246.778521 -36.365625 
L 246.453541 -36.365625 
L 246.128562 -36.365625 
L 245.803582 -36.365625 
L 245.478603 -36.365625 
L 245.153623 -36.365625 
L 244.828644 -36.365625 
L 244.503664 -36.365625 
L 244.178685 -36.365625 
L 243.853705 -36.365625 
L 243.528726 -36.365625 
L 243.203746 -36.365625 
L 242.878767 -36.365625 
L 242.553787 -36.365625 
L 242.228808 -36.365625 
L 241.903828 -36.365625 
L 241.578849 -36.365625 
L 241.253869 -36.365625 
L 240.928889 -36.365625 
L 240.60391 -36.365625 
L 240.27893 -36.365625 
L 239.953951 -36.365625 
L 239.628971 -36.365625 
L 239.303992 -36.365625 
L 238.979012 -36.365625 
L 238.654033 -36.365625 
L 238.329053 -36.365625 
L 238.004074 -36.365625 
L 237.679094 -36.365625 
L 237.354115 -36.365625 
L 237.029135 -36.365625 
L 236.704156 -36.365625 
L 236.379176 -36.365625 
L 236.054197 -36.365625 
L 235.729217 -36.365625 
L 235.404238 -36.365625 
L 235.079258 -36.365625 
L 234.754279 -36.365625 
L 234.429299 -36.365625 
L 234.104319 -36.365625 
L 233.77934 -36.365625 
L 233.45436 -36.365625 
L 233.129381 -36.365625 
L 232.804401 -36.365625 
L 232.479422 -36.365625 
L 232.154442 -36.365625 
L 231.829463 -36.365625 
L 231.504483 -36.365625 
L 231.179504 -36.365625 
L 230.854524 -36.365625 
L 230.529545 -36.365625 
L 230.204565 -36.365625 
L 229.879586 -36.365625 
L 229.554606 -36.365625 
L 229.229627 -36.365625 
L 228.904647 -36.365625 
L 228.579668 -36.365625 
L 228.254688 -36.365625 
L 227.929708 -36.365625 
L 227.604729 -36.365625 
L 227.279749 -36.365625 
L 226.95477 -36.365625 
L 226.62979 -36.365625 
L 226.304811 -36.365625 
L 225.979831 -36.365625 
L 225.654852 -36.365625 
L 225.329872 -36.365625 
L 225.004893 -36.365625 
L 224.679913 -36.365625 
L 224.354934 -36.365625 
L 224.029954 -36.365625 
L 223.704975 -36.365625 
L 223.379995 -36.365625 
L 223.055016 -36.365625 
L 222.730036 -36.365625 
L 222.405057 -36.365625 
L 222.080077 -36.365625 
L 221.755098 -36.365625 
L 221.430118 -36.365625 
L 221.105138 -36.365625 
L 220.780159 -36.365625 
L 220.455179 -36.365625 
L 220.1302 -36.365625 
L 219.80522 -36.365625 
L 219.480241 -36.365625 
L 219.155261 -36.365625 
L 218.830282 -36.365625 
L 218.505302 -36.365625 
L 218.180323 -36.365625 
L 217.855343 -36.365625 
L 217.530364 -36.365625 
L 217.205384 -36.365625 
L 216.880405 -36.365625 
L 216.555425 -36.365625 
L 216.230446 -36.365625 
L 215.905466 -36.365625 
L 215.580487 -36.365625 
L 215.255507 -36.365625 
L 214.930527 -36.365625 
L 214.605548 -36.365625 
L 214.280568 -36.365625 
L 213.955589 -36.365625 
L 213.630609 -36.365625 
L 213.30563 -36.365625 
L 212.98065 -36.365625 
L 212.655671 -36.365625 
L 212.330691 -36.365625 
L 212.005712 -36.365625 
L 211.680732 -36.365625 
L 211.355753 -36.365625 
L 211.030773 -36.365625 
L 210.705794 -36.365625 
L 210.380814 -36.365625 
L 210.055835 -36.365625 
L 209.730855 -36.365625 
L 209.405876 -36.365625 
L 209.080896 -36.365625 
L 208.755917 -36.365625 
L 208.430937 -36.365625 
L 208.105957 -36.365625 
L 207.780978 -36.365625 
L 207.455998 -36.365625 
L 207.131019 -36.365625 
L 206.806039 -36.365625 
L 206.48106 -36.365625 
L 206.15608 -36.365625 
L 205.831101 -36.365625 
L 205.506121 -36.365625 
L 205.181142 -36.365625 
L 204.856162 -36.365625 
L 204.531183 -36.365625 
L 204.206203 -36.365625 
L 203.881224 -36.365625 
L 203.556244 -36.365625 
L 203.231265 -36.365625 
L 202.906285 -36.365625 
L 202.581306 -36.365625 
L 202.256326 -36.365625 
L 201.931346 -36.365625 
L 201.606367 -36.365625 
L 201.281387 -36.365625 
L 200.956408 -36.365625 
L 200.631428 -36.365625 
L 200.306449 -36.365625 
L 199.981469 -36.365625 
L 199.65649 -36.365625 
L 199.33151 -36.365625 
L 199.006531 -36.365625 
L 198.681551 -36.365625 
L 198.356572 -36.365625 
L 198.031592 -36.365625 
L 197.706613 -36.365625 
L 197.381633 -36.365625 
L 197.056654 -36.365625 
L 196.731674 -36.365625 
L 196.406695 -36.365625 
L 196.081715 -36.365625 
L 195.756736 -36.365625 
L 195.431756 -36.365625 
L 195.106776 -36.365625 
L 194.781797 -36.365625 
L 194.456817 -36.365625 
L 194.131838 -36.365625 
L 193.806858 -36.365625 
L 193.481879 -36.365625 
L 193.156899 -36.365625 
L 192.83192 -36.365625 
L 192.50694 -36.365625 
L 192.181961 -36.365625 
L 191.856981 -36.365625 
L 191.532002 -36.365625 
L 191.207022 -36.365625 
L 190.882043 -36.365625 
L 190.557063 -36.365625 
L 190.232084 -36.365625 
L 189.907104 -36.365625 
L 189.582125 -36.365625 
L 189.257145 -36.365625 
L 188.932165 -36.365625 
L 188.607186 -36.365625 
L 188.282206 -36.365625 
L 187.957227 -36.365625 
L 187.632247 -36.365625 
L 187.307268 -36.365625 
L 186.982288 -36.365625 
L 186.657309 -36.365625 
L 186.332329 -36.365625 
L 186.00735 -36.365625 
L 185.68237 -36.365625 
L 185.357391 -36.365625 
L 185.032411 -36.365625 
L 184.707432 -36.365625 
L 184.382452 -36.365625 
L 184.057473 -36.365625 
L 183.732493 -36.365625 
L 183.407514 -36.365625 
L 183.082534 -36.365625 
L 182.757555 -36.365625 
L 182.432575 -36.365625 
L 182.107595 -36.365625 
L 181.782616 -36.365625 
L 181.457636 -36.365625 
L 181.132657 -36.365625 
L 180.807677 -36.365625 
L 180.482698 -36.365625 
L 180.157718 -36.365625 
L 179.832739 -36.365625 
L 179.507759 -36.365625 
L 179.18278 -36.365625 
L 178.8578 -36.365625 
L 178.532821 -36.365625 
L 178.207841 -36.365625 
L 177.882862 -36.365625 
L 177.557882 -36.365625 
L 177.232903 -36.365625 
L 176.907923 -36.365625 
L 176.582944 -36.365625 
L 176.257964 -36.365625 
L 175.932984 -36.365625 
L 175.608005 -36.365625 
L 175.283025 -36.365625 
L 174.958046 -36.365625 
L 174.633066 -36.365625 
L 174.308087 -36.365625 
L 173.983107 -36.365625 
L 173.658128 -36.365625 
L 173.333148 -36.365625 
L 173.008169 -36.365625 
L 172.683189 -36.365625 
L 172.35821 -36.365625 
L 172.03323 -36.365625 
L 171.708251 -36.365625 
L 171.383271 -36.365625 
L 171.058292 -36.365625 
L 170.733312 -36.365625 
L 170.408333 -36.365625 
L 170.083353 -36.365625 
L 169.758374 -36.365625 
L 169.433394 -36.365625 
L 169.108414 -36.365625 
L 168.783435 -36.365625 
L 168.458455 -36.365625 
L 168.133476 -36.365625 
L 167.808496 -36.365625 
L 167.483517 -36.365625 
L 167.158537 -36.365625 
L 166.833558 -36.365625 
L 166.508578 -36.365625 
L 166.183599 -36.365625 
L 165.858619 -36.365625 
L 165.53364 -36.365625 
L 165.20866 -36.365625 
L 164.883681 -36.365625 
L 164.558701 -36.365625 
L 164.233722 -36.365625 
L 163.908742 -36.365625 
L 163.583763 -36.365625 
L 163.258783 -36.365625 
L 162.933803 -36.365625 
L 162.608824 -36.365625 
L 162.283844 -36.365625 
L 161.958865 -36.365625 
L 161.633885 -36.365625 
L 161.308906 -36.365625 
L 160.983926 -36.365625 
L 160.658947 -36.365625 
L 160.333967 -36.365625 
L 160.008988 -36.365625 
L 159.684008 -36.365625 
L 159.359029 -36.365625 
L 159.034049 -36.365625 
L 158.70907 -36.365625 
L 158.38409 -36.365625 
L 158.059111 -36.365625 
L 157.734131 -36.365625 
L 157.409152 -36.365625 
L 157.084172 -36.365625 
L 156.759193 -36.365625 
L 156.434213 -36.365625 
L 156.109233 -36.365625 
L 155.784254 -36.365625 
L 155.459274 -36.365625 
L 155.134295 -36.365625 
L 154.809315 -36.365625 
L 154.484336 -36.365625 
L 154.159356 -36.365625 
L 153.834377 -36.365625 
L 153.509397 -36.365625 
L 153.184418 -36.365625 
L 152.859438 -36.365625 
L 152.534459 -36.365625 
L 152.209479 -36.365625 
L 151.8845 -36.365625 
L 151.55952 -36.365625 
L 151.234541 -36.365625 
L 150.909561 -36.365625 
L 150.584582 -36.365625 
L 150.259602 -36.365625 
L 149.934622 -36.365625 
L 149.609643 -36.365625 
L 149.284663 -36.365625 
L 148.959684 -36.365625 
L 148.634704 -36.365625 
L 148.309725 -36.365625 
L 147.984745 -36.365625 
L 147.659766 -36.365625 
L 147.334786 -36.365625 
L 147.009807 -36.365625 
L 146.684827 -36.365625 
L 146.359848 -36.365625 
L 146.034868 -36.365625 
L 145.709889 -36.365625 
L 145.384909 -36.365625 
L 145.05993 -36.365625 
L 144.73495 -36.365625 
L 144.409971 -36.365625 
L 144.084991 -36.365625 
L 143.760012 -36.365625 
L 143.435032 -36.365625 
L 143.110052 -36.365625 
L 142.785073 -36.365625 
L 142.460093 -36.365625 
L 142.135114 -36.365625 
L 141.810134 -36.365625 
L 141.485155 -36.365625 
L 141.160175 -36.365625 
L 140.835196 -36.365625 
L 140.510216 -36.365625 
L 140.185237 -36.365625 
L 139.860257 -36.365625 
L 139.535278 -36.365625 
L 139.210298 -36.365625 
L 138.885319 -36.365625 
L 138.560339 -36.365625 
L 138.23536 -36.365625 
L 137.91038 -36.365625 
L 137.585401 -36.365625 
L 137.260421 -36.365625 
L 136.935441 -36.365625 
L 136.610462 -36.365625 
L 136.285482 -36.365625 
L 135.960503 -36.365625 
L 135.635523 -36.365625 
L 135.310544 -36.365625 
L 134.985564 -36.365625 
L 134.660585 -36.365625 
L 134.335605 -36.365625 
L 134.010626 -36.365625 
L 133.685646 -36.365625 
L 133.360667 -36.365625 
L 133.035687 -36.365625 
L 132.710708 -36.365625 
L 132.385728 -36.365625 
L 132.060749 -36.365625 
L 131.735769 -36.365625 
L 131.41079 -36.365625 
L 131.08581 -36.365625 
L 130.760831 -36.365625 
L 130.435851 -36.365625 
L 130.110871 -36.365625 
L 129.785892 -36.365625 
L 129.460912 -36.365625 
L 129.135933 -36.365625 
L 128.810953 -36.365625 
L 128.485974 -36.365625 
L 128.160994 -36.365625 
L 127.836015 -36.365625 
L 127.511035 -36.365625 
L 127.186056 -36.365625 
L 126.861076 -36.365625 
L 126.536097 -36.365625 
L 126.211117 -36.365625 
L 125.886138 -36.365625 
L 125.561158 -36.365625 
L 125.236179 -36.365625 
L 124.911199 -36.365625 
L 124.58622 -36.365625 
L 124.26124 -36.365625 
L 123.93626 -36.365625 
L 123.611281 -36.365625 
L 123.286301 -36.365625 
L 122.961322 -36.365625 
L 122.636342 -36.365625 
L 122.311363 -36.365625 
L 121.986383 -36.365625 
L 121.661404 -36.365625 
L 121.336424 -36.365625 
L 121.011445 -36.365625 
L 120.686465 -36.365625 
L 120.361486 -36.365625 
L 120.036506 -36.365625 
L 119.711527 -36.365625 
L 119.386547 -36.365625 
L 119.061568 -36.365625 
L 118.736588 -36.365625 
L 118.411609 -36.365625 
L 118.086629 -36.365625 
L 117.76165 -36.365625 
L 117.43667 -36.365625 
L 117.11169 -36.365625 
L 116.786711 -36.365625 
L 116.461731 -36.365625 
L 116.136752 -36.365625 
L 115.811772 -36.365625 
L 115.486793 -36.365625 
L 115.161813 -36.365625 
L 114.836834 -36.365625 
L 114.511854 -36.365625 
L 114.186875 -36.365625 
L 113.861895 -36.365625 
L 113.536916 -36.365625 
L 113.211936 -36.365625 
L 112.886957 -36.365625 
L 112.561977 -36.365625 
L 112.236998 -36.365625 
L 111.912018 -36.365625 
L 111.587039 -36.365625 
L 111.262059 -36.365625 
L 110.937079 -36.365625 
L 110.6121 -36.365625 
L 110.28712 -36.365625 
L 109.962141 -36.365625 
L 109.637161 -36.365625 
L 109.312182 -36.365625 
L 108.987202 -36.365625 
L 108.662223 -36.365625 
L 108.337243 -36.365625 
z
" style="stroke: #808080; stroke-opacity: 0.5"/>
    </defs>
    <g clip-path="url(#p71650d4508)">
     <use xlink:href="#m3bdadd6da9" x="0" y="324.010125" style="fill: #808080; fill-opacity: 0.5; stroke: #808080; stroke-opacity: 0.5"/>
    </g>
   </g>
   <g id="matplotlib.axis_1">
    <g id="xtick_1">
     <g id="line2d_1">
      <path d="M 56.01554 287.6445 
L 56.01554 21.5325 
" clip-path="url(#p71650d4508)" style="fill: none; stroke: #b0b0b0; stroke-width: 0.8; stroke-linecap: square"/>
     </g>
     <g id="line2d_2">
      <defs>
       <path id="m22ce9c3888" d="M 0 0 
L 0 3.5 
" style="stroke: #000000; stroke-width: 0.8"/>
      </defs>
      <g>
       <use xlink:href="#m22ce9c3888" x="56.01554" y="287.6445" style="stroke: #000000; stroke-width: 0.8"/>
      </g>
     </g>
     <g id="text_1">
      <!-- 0.0 -->
      <g transform="translate(49.76554 301.58825) scale(0.1 -0.1)">
       <defs>
        <path id="TimesNewRomanPSMT-30" d="M 231 2094 
Q 231 2819 450 3342 
Q 669 3866 1031 4122 
Q 1313 4325 1613 4325 
Q 2100 4325 2488 3828 
Q 2972 3213 2972 2159 
Q 2972 1422 2759 906 
Q 2547 391 2217 158 
Q 1888 -75 1581 -75 
Q 975 -75 572 641 
Q 231 1244 231 2094 
z
M 844 2016 
Q 844 1141 1059 588 
Q 1238 122 1591 122 
Q 1759 122 1940 273 
Q 2122 425 2216 781 
Q 2359 1319 2359 2297 
Q 2359 3022 2209 3506 
Q 2097 3866 1919 4016 
Q 1791 4119 1609 4119 
Q 1397 4119 1231 3928 
Q 1006 3669 925 3112 
Q 844 2556 844 2016 
z
" transform="scale(0.015625)"/>
        <path id="TimesNewRomanPSMT-2e" d="M 800 606 
Q 947 606 1047 504 
Q 1147 403 1147 259 
Q 1147 116 1045 14 
Q 944 -88 800 -88 
Q 656 -88 554 14 
Q 453 116 453 259 
Q 453 406 554 506 
Q 656 606 800 606 
z
" transform="scale(0.015625)"/>
       </defs>
       <use xlink:href="#TimesNewRomanPSMT-30"/>
       <use xlink:href="#TimesNewRomanPSMT-2e" x="50"/>
       <use xlink:href="#TimesNewRomanPSMT-30" x="75"/>
      </g>
     </g>
    </g>
    <g id="xtick_2">
     <g id="line2d_3">
      <path d="M 120.946449 287.6445 
L 120.946449 21.5325 
" clip-path="url(#p71650d4508)" style="fill: none; stroke: #b0b0b0; stroke-width: 0.8; stroke-linecap: square"/>
     </g>
     <g id="line2d_4">
      <g>
       <use xlink:href="#m22ce9c3888" x="120.946449" y="287.6445" style="stroke: #000000; stroke-width: 0.8"/>
      </g>
     </g>
     <g id="text_2">
      <!-- 0.2 -->
      <g transform="translate(114.696449 301.58825) scale(0.1 -0.1)">
       <defs>
        <path id="TimesNewRomanPSMT-32" d="M 2934 816 
L 2638 0 
L 138 0 
L 138 116 
Q 1241 1122 1691 1759 
Q 2141 2397 2141 2925 
Q 2141 3328 1894 3587 
Q 1647 3847 1303 3847 
Q 991 3847 742 3664 
Q 494 3481 375 3128 
L 259 3128 
Q 338 3706 661 4015 
Q 984 4325 1469 4325 
Q 1984 4325 2329 3994 
Q 2675 3663 2675 3213 
Q 2675 2891 2525 2569 
Q 2294 2063 1775 1497 
Q 997 647 803 472 
L 1909 472 
Q 2247 472 2383 497 
Q 2519 522 2628 598 
Q 2738 675 2819 816 
L 2934 816 
z
" transform="scale(0.015625)"/>
       </defs>
       <use xlink:href="#TimesNewRomanPSMT-30"/>
       <use xlink:href="#TimesNewRomanPSMT-2e" x="50"/>
       <use xlink:href="#TimesNewRomanPSMT-32" x="75"/>
      </g>
     </g>
    </g>
    <g id="xtick_3">
     <g id="line2d_5">
      <path d="M 185.877358 287.6445 
L 185.877358 21.5325 
" clip-path="url(#p71650d4508)" style="fill: none; stroke: #b0b0b0; stroke-width: 0.8; stroke-linecap: square"/>
     </g>
     <g id="line2d_6">
      <g>
       <use xlink:href="#m22ce9c3888" x="185.877358" y="287.6445" style="stroke: #000000; stroke-width: 0.8"/>
      </g>
     </g>
     <g id="text_3">
      <!-- 0.4 -->
      <g transform="translate(179.627358 301.58825) scale(0.1 -0.1)">
       <defs>
        <path id="TimesNewRomanPSMT-34" d="M 2978 1563 
L 2978 1119 
L 2409 1119 
L 2409 0 
L 1894 0 
L 1894 1119 
L 100 1119 
L 100 1519 
L 2066 4325 
L 2409 4325 
L 2409 1563 
L 2978 1563 
z
M 1894 1563 
L 1894 3666 
L 406 1563 
L 1894 1563 
z
" transform="scale(0.015625)"/>
       </defs>
       <use xlink:href="#TimesNewRomanPSMT-30"/>
       <use xlink:href="#TimesNewRomanPSMT-2e" x="50"/>
       <use xlink:href="#TimesNewRomanPSMT-34" x="75"/>
      </g>
     </g>
    </g>
    <g id="xtick_4">
     <g id="line2d_7">
      <path d="M 250.808267 287.6445 
L 250.808267 21.5325 
" clip-path="url(#p71650d4508)" style="fill: none; stroke: #b0b0b0; stroke-width: 0.8; stroke-linecap: square"/>
     </g>
     <g id="line2d_8">
      <g>
       <use xlink:href="#m22ce9c3888" x="250.808267" y="287.6445" style="stroke: #000000; stroke-width: 0.8"/>
      </g>
     </g>
     <g id="text_4">
      <!-- 0.6 -->
      <g transform="translate(244.558267 301.58825) scale(0.1 -0.1)">
       <defs>
        <path id="TimesNewRomanPSMT-36" d="M 2869 4325 
L 2869 4209 
Q 2456 4169 2195 4045 
Q 1934 3922 1679 3669 
Q 1425 3416 1258 3105 
Q 1091 2794 978 2366 
Q 1428 2675 1881 2675 
Q 2316 2675 2634 2325 
Q 2953 1975 2953 1425 
Q 2953 894 2631 456 
Q 2244 -75 1606 -75 
Q 1172 -75 869 213 
Q 275 772 275 1663 
Q 275 2231 503 2743 
Q 731 3256 1154 3653 
Q 1578 4050 1965 4187 
Q 2353 4325 2688 4325 
L 2869 4325 
z
M 925 2138 
Q 869 1716 869 1456 
Q 869 1156 980 804 
Q 1091 453 1309 247 
Q 1469 100 1697 100 
Q 1969 100 2183 356 
Q 2397 613 2397 1088 
Q 2397 1622 2184 2012 
Q 1972 2403 1581 2403 
Q 1463 2403 1327 2353 
Q 1191 2303 925 2138 
z
" transform="scale(0.015625)"/>
       </defs>
       <use xlink:href="#TimesNewRomanPSMT-30"/>
       <use xlink:href="#TimesNewRomanPSMT-2e" x="50"/>
       <use xlink:href="#TimesNewRomanPSMT-36" x="75"/>
      </g>
     </g>
    </g>
    <g id="xtick_5">
     <g id="line2d_9">
      <path d="M 315.739176 287.6445 
L 315.739176 21.5325 
" clip-path="url(#p71650d4508)" style="fill: none; stroke: #b0b0b0; stroke-width: 0.8; stroke-linecap: square"/>
     </g>
     <g id="line2d_10">
      <g>
       <use xlink:href="#m22ce9c3888" x="315.739176" y="287.6445" style="stroke: #000000; stroke-width: 0.8"/>
      </g>
     </g>
     <g id="text_5">
      <!-- 0.8 -->
      <g transform="translate(309.489176 301.58825) scale(0.1 -0.1)">
       <defs>
        <path id="TimesNewRomanPSMT-38" d="M 1228 2134 
Q 725 2547 579 2797 
Q 434 3047 434 3316 
Q 434 3728 753 4026 
Q 1072 4325 1600 4325 
Q 2113 4325 2425 4047 
Q 2738 3769 2738 3413 
Q 2738 3175 2569 2928 
Q 2400 2681 1866 2347 
Q 2416 1922 2594 1678 
Q 2831 1359 2831 1006 
Q 2831 559 2490 242 
Q 2150 -75 1597 -75 
Q 994 -75 656 303 
Q 388 606 388 966 
Q 388 1247 577 1523 
Q 766 1800 1228 2134 
z
M 1719 2469 
Q 2094 2806 2194 3001 
Q 2294 3197 2294 3444 
Q 2294 3772 2109 3958 
Q 1925 4144 1606 4144 
Q 1288 4144 1088 3959 
Q 888 3775 888 3528 
Q 888 3366 970 3203 
Q 1053 3041 1206 2894 
L 1719 2469 
z
M 1375 2016 
Q 1116 1797 991 1539 
Q 866 1281 866 981 
Q 866 578 1086 336 
Q 1306 94 1647 94 
Q 1984 94 2187 284 
Q 2391 475 2391 747 
Q 2391 972 2272 1150 
Q 2050 1481 1375 2016 
z
" transform="scale(0.015625)"/>
       </defs>
       <use xlink:href="#TimesNewRomanPSMT-30"/>
       <use xlink:href="#TimesNewRomanPSMT-2e" x="50"/>
       <use xlink:href="#TimesNewRomanPSMT-38" x="75"/>
      </g>
     </g>
    </g>
    <g id="xtick_6">
     <g id="line2d_11">
      <path d="M 380.670085 287.6445 
L 380.670085 21.5325 
" clip-path="url(#p71650d4508)" style="fill: none; stroke: #b0b0b0; stroke-width: 0.8; stroke-linecap: square"/>
     </g>
     <g id="line2d_12">
      <g>
       <use xlink:href="#m22ce9c3888" x="380.670085" y="287.6445" style="stroke: #000000; stroke-width: 0.8"/>
      </g>
     </g>
     <g id="text_6">
      <!-- 1.0 -->
      <g transform="translate(374.420085 301.58825) scale(0.1 -0.1)">
       <defs>
        <path id="TimesNewRomanPSMT-31" d="M 750 3822 
L 1781 4325 
L 1884 4325 
L 1884 747 
Q 1884 391 1914 303 
Q 1944 216 2037 169 
Q 2131 122 2419 116 
L 2419 0 
L 825 0 
L 825 116 
Q 1125 122 1212 167 
Q 1300 213 1334 289 
Q 1369 366 1369 747 
L 1369 3034 
Q 1369 3497 1338 3628 
Q 1316 3728 1258 3775 
Q 1200 3822 1119 3822 
Q 1003 3822 797 3725 
L 750 3822 
z
" transform="scale(0.015625)"/>
       </defs>
       <use xlink:href="#TimesNewRomanPSMT-31"/>
       <use xlink:href="#TimesNewRomanPSMT-2e" x="50"/>
       <use xlink:href="#TimesNewRomanPSMT-30" x="75"/>
      </g>
     </g>
    </g>
    <g id="text_7">
     <!-- θ -->
     <g transform="translate(215.9475 314.671062) scale(0.1 -0.1)">
      <defs>
       <path id="TimesNewRomanPSMT-3b8" d="M 1563 4438 
Q 2091 4438 2453 3820 
Q 2816 3203 2816 2213 
Q 2816 1144 2425 528 
Q 2034 -88 1522 -88 
Q 1019 -88 636 510 
Q 253 1109 253 2134 
Q 253 3163 633 3800 
Q 1013 4438 1563 4438 
z
M 2234 2281 
Q 2234 4256 1541 4256 
Q 828 4256 828 2281 
L 2234 2281 
z
M 828 2088 
Q 828 1066 1018 580 
Q 1209 94 1531 94 
Q 2228 94 2234 2088 
L 828 2088 
z
" transform="scale(0.015625)"/>
      </defs>
      <use xlink:href="#TimesNewRomanPSMT-3b8"/>
     </g>
    </g>
   </g>
   <g id="matplotlib.axis_2">
    <g id="ytick_1">
     <g id="line2d_13">
      <path d="M 39.782813 287.6445 
L 396.902812 287.6445 
" clip-path="url(#p71650d4508)" style="fill: none; stroke: #b0b0b0; stroke-width: 0.8; stroke-linecap: square"/>
     </g>
     <g id="line2d_14">
      <defs>
       <path id="mea5a1598e4" d="M 0 0 
L -3.5 0 
" style="stroke: #000000; stroke-width: 0.8"/>
      </defs>
      <g>
       <use xlink:href="#mea5a1598e4" x="39.782813" y="287.6445" style="stroke: #000000; stroke-width: 0.8"/>
      </g>
     </g>
     <g id="text_8">
      <!-- 0.0 -->
      <g transform="translate(20.282813 291.116375) scale(0.1 -0.1)">
       <use xlink:href="#TimesNewRomanPSMT-30"/>
       <use xlink:href="#TimesNewRomanPSMT-2e" x="50"/>
       <use xlink:href="#TimesNewRomanPSMT-30" x="75"/>
      </g>
     </g>
    </g>
    <g id="ytick_2">
     <g id="line2d_15">
      <path d="M 39.782813 234.4221 
L 396.902812 234.4221 
" clip-path="url(#p71650d4508)" style="fill: none; stroke: #b0b0b0; stroke-width: 0.8; stroke-linecap: square"/>
     </g>
     <g id="line2d_16">
      <g>
       <use xlink:href="#mea5a1598e4" x="39.782813" y="234.4221" style="stroke: #000000; stroke-width: 0.8"/>
      </g>
     </g>
     <g id="text_9">
      <!-- 0.5 -->
      <g transform="translate(20.282813 237.893975) scale(0.1 -0.1)">
       <defs>
        <path id="TimesNewRomanPSMT-35" d="M 2778 4238 
L 2534 3706 
L 1259 3706 
L 981 3138 
Q 1809 3016 2294 2522 
Q 2709 2097 2709 1522 
Q 2709 1188 2573 903 
Q 2438 619 2231 419 
Q 2025 219 1772 97 
Q 1413 -75 1034 -75 
Q 653 -75 479 54 
Q 306 184 306 341 
Q 306 428 378 495 
Q 450 563 559 563 
Q 641 563 702 538 
Q 763 513 909 409 
Q 1144 247 1384 247 
Q 1750 247 2026 523 
Q 2303 800 2303 1197 
Q 2303 1581 2056 1914 
Q 1809 2247 1375 2428 
Q 1034 2569 447 2591 
L 1259 4238 
L 2778 4238 
z
" transform="scale(0.015625)"/>
       </defs>
       <use xlink:href="#TimesNewRomanPSMT-30"/>
       <use xlink:href="#TimesNewRomanPSMT-2e" x="50"/>
       <use xlink:href="#TimesNewRomanPSMT-35" x="75"/>
      </g>
     </g>
    </g>
    <g id="ytick_3">
     <g id="line2d_17">
      <path d="M 39.782813 181.1997 
L 396.902812 181.1997 
" clip-path="url(#p71650d4508)" style="fill: none; stroke: #b0b0b0; stroke-width: 0.8; stroke-linecap: square"/>
     </g>
     <g id="line2d_18">
      <g>
       <use xlink:href="#mea5a1598e4" x="39.782813" y="181.1997" style="stroke: #000000; stroke-width: 0.8"/>
      </g>
     </g>
     <g id="text_10">
      <!-- 1.0 -->
      <g transform="translate(20.282813 184.671575) scale(0.1 -0.1)">
       <use xlink:href="#TimesNewRomanPSMT-31"/>
       <use xlink:href="#TimesNewRomanPSMT-2e" x="50"/>
       <use xlink:href="#TimesNewRomanPSMT-30" x="75"/>
      </g>
     </g>
    </g>
    <g id="ytick_4">
     <g id="line2d_19">
      <path d="M 39.782813 127.9773 
L 396.902812 127.9773 
" clip-path="url(#p71650d4508)" style="fill: none; stroke: #b0b0b0; stroke-width: 0.8; stroke-linecap: square"/>
     </g>
     <g id="line2d_20">
      <g>
       <use xlink:href="#mea5a1598e4" x="39.782813" y="127.9773" style="stroke: #000000; stroke-width: 0.8"/>
      </g>
     </g>
     <g id="text_11">
      <!-- 1.5 -->
      <g transform="translate(20.282813 131.449175) scale(0.1 -0.1)">
       <use xlink:href="#TimesNewRomanPSMT-31"/>
       <use xlink:href="#TimesNewRomanPSMT-2e" x="50"/>
       <use xlink:href="#TimesNewRomanPSMT-35" x="75"/>
      </g>
     </g>
    </g>
    <g id="ytick_5">
     <g id="line2d_21">
      <path d="M 39.782813 74.7549 
L 396.902812 74.7549 
" clip-path="url(#p71650d4508)" style="fill: none; stroke: #b0b0b0; stroke-width: 0.8; stroke-linecap: square"/>
     </g>
     <g id="line2d_22">
      <g>
       <use xlink:href="#mea5a1598e4" x="39.782813" y="74.7549" style="stroke: #000000; stroke-width: 0.8"/>
      </g>
     </g>
     <g id="text_12">
      <!-- 2.0 -->
      <g transform="translate(20.282813 78.226775) scale(0.1 -0.1)">
       <use xlink:href="#TimesNewRomanPSMT-32"/>
       <use xlink:href="#TimesNewRomanPSMT-2e" x="50"/>
       <use xlink:href="#TimesNewRomanPSMT-30" x="75"/>
      </g>
     </g>
    </g>
    <g id="ytick_6">
     <g id="line2d_23">
      <path d="M 39.782813 21.5325 
L 396.902812 21.5325 
" clip-path="url(#p71650d4508)" style="fill: none; stroke: #b0b0b0; stroke-width: 0.8; stroke-linecap: square"/>
     </g>
     <g id="line2d_24">
      <g>
       <use xlink:href="#mea5a1598e4" x="39.782813" y="21.5325" style="stroke: #000000; stroke-width: 0.8"/>
      </g>
     </g>
     <g id="text_13">
      <!-- 2.5 -->
      <g transform="translate(20.282813 25.004375) scale(0.1 -0.1)">
       <use xlink:href="#TimesNewRomanPSMT-32"/>
       <use xlink:href="#TimesNewRomanPSMT-2e" x="50"/>
       <use xlink:href="#TimesNewRomanPSMT-35" x="75"/>
      </g>
     </g>
    </g>
    <g id="text_14">
     <!-- pdf(θ) -->
     <g transform="translate(14.14375 166.978344) rotate(-90) scale(0.1 -0.1)">
      <defs>
       <path id="TimesNewRomanPSMT-70" d="M -6 2578 
L 875 2934 
L 994 2934 
L 994 2266 
Q 1216 2644 1439 2795 
Q 1663 2947 1909 2947 
Q 2341 2947 2628 2609 
Q 2981 2197 2981 1534 
Q 2981 794 2556 309 
Q 2206 -88 1675 -88 
Q 1444 -88 1275 -22 
Q 1150 25 994 166 
L 994 -706 
Q 994 -1000 1030 -1079 
Q 1066 -1159 1155 -1206 
Q 1244 -1253 1478 -1253 
L 1478 -1369 
L -22 -1369 
L -22 -1253 
L 56 -1253 
Q 228 -1256 350 -1188 
Q 409 -1153 442 -1076 
Q 475 -1000 475 -688 
L 475 2019 
Q 475 2297 450 2372 
Q 425 2447 370 2484 
Q 316 2522 222 2522 
Q 147 2522 31 2478 
L -6 2578 
z
M 994 2081 
L 994 1013 
Q 994 666 1022 556 
Q 1066 375 1236 237 
Q 1406 100 1666 100 
Q 1978 100 2172 344 
Q 2425 663 2425 1241 
Q 2425 1897 2138 2250 
Q 1938 2494 1663 2494 
Q 1513 2494 1366 2419 
Q 1253 2363 994 2081 
z
" transform="scale(0.015625)"/>
       <path id="TimesNewRomanPSMT-64" d="M 2222 322 
Q 2013 103 1813 7 
Q 1613 -88 1381 -88 
Q 913 -88 563 304 
Q 213 697 213 1313 
Q 213 1928 600 2439 
Q 988 2950 1597 2950 
Q 1975 2950 2222 2709 
L 2222 3238 
Q 2222 3728 2198 3840 
Q 2175 3953 2125 3993 
Q 2075 4034 2000 4034 
Q 1919 4034 1784 3984 
L 1744 4094 
L 2597 4444 
L 2738 4444 
L 2738 1134 
Q 2738 631 2761 520 
Q 2784 409 2836 365 
Q 2888 322 2956 322 
Q 3041 322 3181 375 
L 3216 266 
L 2366 -88 
L 2222 -88 
L 2222 322 
z
M 2222 541 
L 2222 2016 
Q 2203 2228 2109 2403 
Q 2016 2578 1861 2667 
Q 1706 2756 1559 2756 
Q 1284 2756 1069 2509 
Q 784 2184 784 1559 
Q 784 928 1059 592 
Q 1334 256 1672 256 
Q 1956 256 2222 541 
z
" transform="scale(0.015625)"/>
       <path id="TimesNewRomanPSMT-66" d="M 1319 2638 
L 1319 756 
Q 1319 356 1406 250 
Q 1522 113 1716 113 
L 1975 113 
L 1975 0 
L 266 0 
L 266 113 
L 394 113 
Q 519 113 622 175 
Q 725 238 764 344 
Q 803 450 803 756 
L 803 2638 
L 247 2638 
L 247 2863 
L 803 2863 
L 803 3050 
Q 803 3478 940 3775 
Q 1078 4072 1361 4255 
Q 1644 4438 1997 4438 
Q 2325 4438 2600 4225 
Q 2781 4084 2781 3909 
Q 2781 3816 2700 3733 
Q 2619 3650 2525 3650 
Q 2453 3650 2373 3701 
Q 2294 3753 2178 3923 
Q 2063 4094 1966 4153 
Q 1869 4213 1750 4213 
Q 1606 4213 1506 4136 
Q 1406 4059 1362 3898 
Q 1319 3738 1319 3069 
L 1319 2863 
L 2056 2863 
L 2056 2638 
L 1319 2638 
z
" transform="scale(0.015625)"/>
       <path id="TimesNewRomanPSMT-28" d="M 1988 -1253 
L 1988 -1369 
Q 1516 -1131 1200 -813 
Q 750 -359 506 256 
Q 263 872 263 1534 
Q 263 2503 741 3301 
Q 1219 4100 1988 4444 
L 1988 4313 
Q 1603 4100 1356 3731 
Q 1109 3363 987 2797 
Q 866 2231 866 1616 
Q 866 947 969 400 
Q 1050 -31 1165 -292 
Q 1281 -553 1476 -793 
Q 1672 -1034 1988 -1253 
z
" transform="scale(0.015625)"/>
       <path id="TimesNewRomanPSMT-29" d="M 144 4313 
L 144 4444 
Q 619 4209 934 3891 
Q 1381 3434 1625 2820 
Q 1869 2206 1869 1541 
Q 1869 572 1392 -226 
Q 916 -1025 144 -1369 
L 144 -1253 
Q 528 -1038 776 -670 
Q 1025 -303 1145 264 
Q 1266 831 1266 1447 
Q 1266 2113 1163 2663 
Q 1084 3094 967 3353 
Q 850 3613 656 3853 
Q 463 4094 144 4313 
z
" transform="scale(0.015625)"/>
      </defs>
      <use xlink:href="#TimesNewRomanPSMT-70"/>
      <use xlink:href="#TimesNewRomanPSMT-64" x="50"/>
      <use xlink:href="#TimesNewRomanPSMT-66" x="100"/>
      <use xlink:href="#TimesNewRomanPSMT-28" x="133.300781"/>
      <use xlink:href="#TimesNewRomanPSMT-3b8" x="166.601562"/>
      <use xlink:href="#TimesNewRomanPSMT-29" x="214.501953"/>
     </g>
    </g>
   </g>
   <g id="line2d_25">
    <path d="M 56.01554 287.6445 
L 60.240274 286.518892 
L 64.140028 285.244292 
L 67.714803 283.855026 
L 71.289577 282.234066 
L 74.864352 280.361522 
L 78.439127 278.217698 
L 81.688922 276.017177 
L 84.938717 273.562693 
L 88.188513 270.841125 
L 91.438308 267.840322 
L 94.688103 264.549332 
L 97.937898 260.958634 
L 101.187694 257.060372 
L 104.762469 252.409998 
L 108.337243 247.375363 
L 111.912018 241.954987 
L 115.486793 236.151184 
L 119.386547 229.390102 
L 123.286301 222.194634 
L 127.511035 213.933518 
L 132.060749 204.53467 
L 136.935441 193.94928 
L 142.460093 181.414358 
L 149.284663 165.357149 
L 169.433394 117.547551 
L 174.633066 106.016267 
L 178.8578 97.156814 
L 182.757555 89.478948 
L 186.332329 82.930106 
L 189.582125 77.431512 
L 192.50694 72.887199 
L 195.431756 68.753982 
L 198.031592 65.445192 
L 200.631428 62.496619 
L 202.906285 60.223312 
L 205.181142 58.24513 
L 207.455998 56.569452 
L 209.405876 55.378713 
L 211.355753 54.418142 
L 213.30563 53.690397 
L 215.255507 53.197497 
L 217.205384 52.940813 
L 219.155261 52.921057 
L 221.105138 53.138285 
L 223.055016 53.591893 
L 225.004893 54.28062 
L 226.95477 55.202554 
L 228.904647 56.355143 
L 231.179504 57.987068 
L 233.45436 59.922462 
L 235.729217 62.1541 
L 238.004074 64.673695 
L 240.60391 67.893852 
L 243.203746 71.462514 
L 246.128562 75.872683 
L 249.053378 80.676234 
L 252.303173 86.440526 
L 255.877948 93.252726 
L 259.777702 101.181516 
L 264.002436 110.26826 
L 269.202108 122.01413 
L 275.701699 137.292475 
L 296.500388 186.636708 
L 302.02504 198.950626 
L 306.899733 209.296129 
L 311.449446 218.440213 
L 315.67418 226.443742 
L 319.573935 233.387912 
L 323.473689 239.888631 
L 327.373443 245.935308 
L 330.948218 251.075152 
L 334.522993 255.829974 
L 338.097767 260.203807 
L 341.672542 264.203893 
L 344.922337 267.524451 
L 348.172133 270.553801 
L 351.421928 273.302764 
L 354.671723 275.78338 
L 357.921518 278.008684 
L 361.496293 280.178132 
L 365.071068 282.074529 
L 368.645843 283.717539 
L 372.220618 285.127047 
L 376.120372 286.421685 
L 380.020126 287.487395 
L 380.670085 287.6445 
L 380.670085 287.6445 
" clip-path="url(#p71650d4508)" style="fill: none; stroke: #000000; stroke-width: 1.5; stroke-linecap: square"/>
   </g>
   <g id="patch_3">
    <path d="M 39.782813 287.6445 
L 39.782813 21.5325 
" style="fill: none; stroke: #000000; stroke-width: 0.8; stroke-linejoin: miter; stroke-linecap: square"/>
   </g>
   <g id="patch_4">
    <path d="M 396.902812 287.6445 
L 396.902812 21.5325 
" style="fill: none; stroke: #000000; stroke-width: 0.8; stroke-linejoin: miter; stroke-linecap: square"/>
   </g>
   <g id="patch_5">
    <path d="M 39.782813 287.6445 
L 396.902812 287.6445 
" style="fill: none; stroke: #000000; stroke-width: 0.8; stroke-linejoin: miter; stroke-linecap: square"/>
   </g>
   <g id="patch_6">
    <path d="M 39.782813 21.5325 
L 396.902812 21.5325 
" style="fill: none; stroke: #000000; stroke-width: 0.8; stroke-linejoin: miter; stroke-linecap: square"/>
   </g>
   <g id="text_15">
    <!-- 95% Credible Interval: [0.160, 0.825] -->
    <g transform="translate(127.865625 15.5325) scale(0.12 -0.12)">
     <defs>
      <path id="TimesNewRomanPSMT-39" d="M 338 -88 
L 338 28 
Q 744 34 1094 217 
Q 1444 400 1770 856 
Q 2097 1313 2225 1859 
Q 1734 1544 1338 1544 
Q 891 1544 572 1889 
Q 253 2234 253 2806 
Q 253 3363 572 3797 
Q 956 4325 1575 4325 
Q 2097 4325 2469 3894 
Q 2925 3359 2925 2575 
Q 2925 1869 2578 1258 
Q 2231 647 1613 244 
Q 1109 -88 516 -88 
L 338 -88 
z
M 2275 2091 
Q 2331 2497 2331 2741 
Q 2331 3044 2228 3395 
Q 2125 3747 1936 3934 
Q 1747 4122 1506 4122 
Q 1228 4122 1018 3872 
Q 809 3622 809 3128 
Q 809 2469 1088 2097 
Q 1291 1828 1588 1828 
Q 1731 1828 1928 1897 
Q 2125 1966 2275 2091 
z
" transform="scale(0.015625)"/>
      <path id="TimesNewRomanPSMT-25" d="M 4350 4334 
L 1263 -175 
L 984 -175 
L 4072 4334 
L 4350 4334 
z
M 1138 4334 
Q 1559 4334 1792 3984 
Q 2025 3634 2025 3181 
Q 2025 2638 1762 2341 
Q 1500 2044 1131 2044 
Q 884 2044 678 2180 
Q 472 2316 348 2584 
Q 225 2853 225 3181 
Q 225 3509 350 3786 
Q 475 4063 692 4198 
Q 909 4334 1138 4334 
z
M 1128 4159 
Q 969 4159 845 3971 
Q 722 3784 722 3184 
Q 722 2750 791 2522 
Q 844 2350 956 2256 
Q 1022 2200 1119 2200 
Q 1269 2200 1375 2363 
Q 1531 2603 1531 3166 
Q 1531 3759 1378 4000 
Q 1278 4159 1128 4159 
z
M 4206 2103 
Q 4428 2103 4648 1962 
Q 4869 1822 4989 1553 
Q 5109 1284 5109 963 
Q 5109 409 4843 117 
Q 4578 -175 4216 -175 
Q 3988 -175 3773 -34 
Q 3559 106 3436 367 
Q 3313 628 3313 963 
Q 3313 1291 3436 1562 
Q 3559 1834 3773 1968 
Q 3988 2103 4206 2103 
z
M 4209 1938 
Q 4059 1938 3950 1769 
Q 3809 1550 3809 941 
Q 3809 381 3953 159 
Q 4059 0 4209 0 
Q 4353 0 4466 172 
Q 4616 400 4616 956 
Q 4616 1544 4466 1778 
Q 4363 1938 4209 1938 
z
" transform="scale(0.015625)"/>
      <path id="TimesNewRomanPSMT-20" transform="scale(0.015625)"/>
      <path id="TimesNewRomanPSMT-43" d="M 3853 4334 
L 3950 2894 
L 3853 2894 
Q 3659 3541 3300 3825 
Q 2941 4109 2438 4109 
Q 2016 4109 1675 3895 
Q 1334 3681 1139 3212 
Q 944 2744 944 2047 
Q 944 1472 1128 1050 
Q 1313 628 1683 403 
Q 2053 178 2528 178 
Q 2941 178 3256 354 
Q 3572 531 3950 1056 
L 4047 994 
Q 3728 428 3303 165 
Q 2878 -97 2294 -97 
Q 1241 -97 663 684 
Q 231 1266 231 2053 
Q 231 2688 515 3219 
Q 800 3750 1298 4042 
Q 1797 4334 2388 4334 
Q 2847 4334 3294 4109 
Q 3425 4041 3481 4041 
Q 3566 4041 3628 4100 
Q 3709 4184 3744 4334 
L 3853 4334 
z
" transform="scale(0.015625)"/>
      <path id="TimesNewRomanPSMT-72" d="M 1038 2947 
L 1038 2303 
Q 1397 2947 1775 2947 
Q 1947 2947 2059 2842 
Q 2172 2738 2172 2600 
Q 2172 2478 2090 2393 
Q 2009 2309 1897 2309 
Q 1788 2309 1652 2417 
Q 1516 2525 1450 2525 
Q 1394 2525 1328 2463 
Q 1188 2334 1038 2041 
L 1038 669 
Q 1038 431 1097 309 
Q 1138 225 1241 169 
Q 1344 113 1538 113 
L 1538 0 
L 72 0 
L 72 113 
Q 291 113 397 181 
Q 475 231 506 341 
Q 522 394 522 644 
L 522 1753 
Q 522 2253 501 2348 
Q 481 2444 426 2487 
Q 372 2531 291 2531 
Q 194 2531 72 2484 
L 41 2597 
L 906 2947 
L 1038 2947 
z
" transform="scale(0.015625)"/>
      <path id="TimesNewRomanPSMT-65" d="M 681 1784 
Q 678 1147 991 784 
Q 1303 422 1725 422 
Q 2006 422 2214 576 
Q 2422 731 2563 1106 
L 2659 1044 
Q 2594 616 2278 264 
Q 1963 -88 1488 -88 
Q 972 -88 605 314 
Q 238 716 238 1394 
Q 238 2128 614 2539 
Q 991 2950 1559 2950 
Q 2041 2950 2350 2633 
Q 2659 2316 2659 1784 
L 681 1784 
z
M 681 1966 
L 2006 1966 
Q 1991 2241 1941 2353 
Q 1863 2528 1708 2628 
Q 1553 2728 1384 2728 
Q 1125 2728 920 2526 
Q 716 2325 681 1966 
z
" transform="scale(0.015625)"/>
      <path id="TimesNewRomanPSMT-69" d="M 928 4444 
Q 1059 4444 1151 4351 
Q 1244 4259 1244 4128 
Q 1244 3997 1151 3903 
Q 1059 3809 928 3809 
Q 797 3809 703 3903 
Q 609 3997 609 4128 
Q 609 4259 701 4351 
Q 794 4444 928 4444 
z
M 1188 2947 
L 1188 647 
Q 1188 378 1227 289 
Q 1266 200 1342 156 
Q 1419 113 1622 113 
L 1622 0 
L 231 0 
L 231 113 
Q 441 113 512 153 
Q 584 194 626 287 
Q 669 381 669 647 
L 669 1750 
Q 669 2216 641 2353 
Q 619 2453 572 2492 
Q 525 2531 444 2531 
Q 356 2531 231 2484 
L 188 2597 
L 1050 2947 
L 1188 2947 
z
" transform="scale(0.015625)"/>
      <path id="TimesNewRomanPSMT-62" d="M 984 2369 
Q 1400 2947 1881 2947 
Q 2322 2947 2650 2570 
Q 2978 2194 2978 1541 
Q 2978 778 2472 313 
Q 2038 -88 1503 -88 
Q 1253 -88 995 3 
Q 738 94 469 275 
L 469 3241 
Q 469 3728 445 3840 
Q 422 3953 372 3993 
Q 322 4034 247 4034 
Q 159 4034 28 3984 
L -16 4094 
L 844 4444 
L 984 4444 
L 984 2369 
z
M 984 2169 
L 984 456 
Q 1144 300 1314 220 
Q 1484 141 1663 141 
Q 1947 141 2192 453 
Q 2438 766 2438 1363 
Q 2438 1913 2192 2208 
Q 1947 2503 1634 2503 
Q 1469 2503 1303 2419 
Q 1178 2356 984 2169 
z
" transform="scale(0.015625)"/>
      <path id="TimesNewRomanPSMT-6c" d="M 1184 4444 
L 1184 647 
Q 1184 378 1223 290 
Q 1263 203 1344 158 
Q 1425 113 1647 113 
L 1647 0 
L 244 0 
L 244 113 
Q 441 113 512 153 
Q 584 194 625 287 
Q 666 381 666 647 
L 666 3247 
Q 666 3731 644 3842 
Q 622 3953 573 3993 
Q 525 4034 450 4034 
Q 369 4034 244 3984 
L 191 4094 
L 1044 4444 
L 1184 4444 
z
" transform="scale(0.015625)"/>
      <path id="TimesNewRomanPSMT-49" d="M 1975 116 
L 1975 0 
L 159 0 
L 159 116 
L 309 116 
Q 572 116 691 269 
Q 766 369 766 750 
L 766 3488 
Q 766 3809 725 3913 
Q 694 3991 597 4047 
Q 459 4122 309 4122 
L 159 4122 
L 159 4238 
L 1975 4238 
L 1975 4122 
L 1822 4122 
Q 1563 4122 1444 3969 
Q 1366 3869 1366 3488 
L 1366 750 
Q 1366 428 1406 325 
Q 1438 247 1538 191 
Q 1672 116 1822 116 
L 1975 116 
z
" transform="scale(0.015625)"/>
      <path id="TimesNewRomanPSMT-6e" d="M 1034 2341 
Q 1538 2947 1994 2947 
Q 2228 2947 2397 2830 
Q 2566 2713 2666 2444 
Q 2734 2256 2734 1869 
L 2734 647 
Q 2734 375 2778 278 
Q 2813 200 2889 156 
Q 2966 113 3172 113 
L 3172 0 
L 1756 0 
L 1756 113 
L 1816 113 
Q 2016 113 2095 173 
Q 2175 234 2206 353 
Q 2219 400 2219 647 
L 2219 1819 
Q 2219 2209 2117 2386 
Q 2016 2563 1775 2563 
Q 1403 2563 1034 2156 
L 1034 647 
Q 1034 356 1069 288 
Q 1113 197 1189 155 
Q 1266 113 1500 113 
L 1500 0 
L 84 0 
L 84 113 
L 147 113 
Q 366 113 442 223 
Q 519 334 519 647 
L 519 1709 
Q 519 2225 495 2337 
Q 472 2450 423 2490 
Q 375 2531 294 2531 
Q 206 2531 84 2484 
L 38 2597 
L 900 2947 
L 1034 2947 
L 1034 2341 
z
" transform="scale(0.015625)"/>
      <path id="TimesNewRomanPSMT-74" d="M 1031 3803 
L 1031 2863 
L 1700 2863 
L 1700 2644 
L 1031 2644 
L 1031 788 
Q 1031 509 1111 412 
Q 1191 316 1316 316 
Q 1419 316 1516 380 
Q 1613 444 1666 569 
L 1788 569 
Q 1678 263 1478 108 
Q 1278 -47 1066 -47 
Q 922 -47 784 33 
Q 647 113 581 261 
Q 516 409 516 719 
L 516 2644 
L 63 2644 
L 63 2747 
Q 234 2816 414 2980 
Q 594 3144 734 3369 
Q 806 3488 934 3803 
L 1031 3803 
z
" transform="scale(0.015625)"/>
      <path id="TimesNewRomanPSMT-76" d="M 53 2863 
L 1400 2863 
L 1400 2747 
L 1313 2747 
Q 1191 2747 1127 2687 
Q 1063 2628 1063 2528 
Q 1063 2419 1128 2269 
L 1794 688 
L 2463 2328 
Q 2534 2503 2534 2594 
Q 2534 2638 2509 2666 
Q 2475 2713 2422 2730 
Q 2369 2747 2206 2747 
L 2206 2863 
L 3141 2863 
L 3141 2747 
Q 2978 2734 2916 2681 
Q 2806 2588 2719 2369 
L 1703 -88 
L 1575 -88 
L 553 2328 
Q 484 2497 421 2570 
Q 359 2644 263 2694 
Q 209 2722 53 2747 
L 53 2863 
z
" transform="scale(0.015625)"/>
      <path id="TimesNewRomanPSMT-61" d="M 1822 413 
Q 1381 72 1269 19 
Q 1100 -59 909 -59 
Q 613 -59 420 144 
Q 228 347 228 678 
Q 228 888 322 1041 
Q 450 1253 767 1440 
Q 1084 1628 1822 1897 
L 1822 2009 
Q 1822 2438 1686 2597 
Q 1550 2756 1291 2756 
Q 1094 2756 978 2650 
Q 859 2544 859 2406 
L 866 2225 
Q 866 2081 792 2003 
Q 719 1925 600 1925 
Q 484 1925 411 2006 
Q 338 2088 338 2228 
Q 338 2497 613 2722 
Q 888 2947 1384 2947 
Q 1766 2947 2009 2819 
Q 2194 2722 2281 2516 
Q 2338 2381 2338 1966 
L 2338 994 
Q 2338 584 2353 492 
Q 2369 400 2405 369 
Q 2441 338 2488 338 
Q 2538 338 2575 359 
Q 2641 400 2828 588 
L 2828 413 
Q 2478 -56 2159 -56 
Q 2006 -56 1915 50 
Q 1825 156 1822 413 
z
M 1822 616 
L 1822 1706 
Q 1350 1519 1213 1441 
Q 966 1303 859 1153 
Q 753 1003 753 825 
Q 753 600 887 451 
Q 1022 303 1197 303 
Q 1434 303 1822 616 
z
" transform="scale(0.015625)"/>
      <path id="TimesNewRomanPSMT-3a" d="M 903 2950 
Q 1047 2950 1148 2848 
Q 1250 2747 1250 2603 
Q 1250 2459 1148 2357 
Q 1047 2256 903 2256 
Q 759 2256 657 2357 
Q 556 2459 556 2603 
Q 556 2747 657 2848 
Q 759 2950 903 2950 
z
M 897 609 
Q 1044 609 1145 506 
Q 1247 403 1247 259 
Q 1247 116 1144 14 
Q 1041 -88 897 -88 
Q 753 -88 651 14 
Q 550 116 550 259 
Q 550 403 651 506 
Q 753 609 897 609 
z
" transform="scale(0.015625)"/>
      <path id="TimesNewRomanPSMT-5b" d="M 1900 -1269 
L 525 -1269 
L 525 4334 
L 1900 4334 
L 1900 4088 
L 994 4088 
L 994 -1025 
L 1900 -1025 
L 1900 -1269 
z
" transform="scale(0.015625)"/>
      <path id="TimesNewRomanPSMT-2c" d="M 344 -1066 
L 344 -928 
Q 666 -822 842 -598 
Q 1019 -375 1019 -125 
Q 1019 -66 991 -25 
Q 969 3 947 3 
Q 913 3 797 -59 
Q 741 -88 678 -88 
Q 525 -88 434 3 
Q 344 94 344 253 
Q 344 406 461 515 
Q 578 625 747 625 
Q 953 625 1114 445 
Q 1275 266 1275 -31 
Q 1275 -353 1051 -629 
Q 828 -906 344 -1066 
z
" transform="scale(0.015625)"/>
      <path id="TimesNewRomanPSMT-5d" d="M 234 4334 
L 1609 4334 
L 1609 -1272 
L 234 -1272 
L 234 -1025 
L 1141 -1025 
L 1141 4088 
L 234 4088 
L 234 4334 
z
" transform="scale(0.015625)"/>
     </defs>
     <use xlink:href="#TimesNewRomanPSMT-39"/>
     <use xlink:href="#TimesNewRomanPSMT-35" x="50"/>
     <use xlink:href="#TimesNewRomanPSMT-25" x="100"/>
     <use xlink:href="#TimesNewRomanPSMT-20" x="183.300781"/>
     <use xlink:href="#TimesNewRomanPSMT-43" x="208.300781"/>
     <use xlink:href="#TimesNewRomanPSMT-72" x="275"/>
     <use xlink:href="#TimesNewRomanPSMT-65" x="308.300781"/>
     <use xlink:href="#TimesNewRomanPSMT-64" x="352.685547"/>
     <use xlink:href="#TimesNewRomanPSMT-69" x="402.685547"/>
     <use xlink:href="#TimesNewRomanPSMT-62" x="430.46875"/>
     <use xlink:href="#TimesNewRomanPSMT-6c" x="480.46875"/>
     <use xlink:href="#TimesNewRomanPSMT-65" x="508.251953"/>
     <use xlink:href="#TimesNewRomanPSMT-20" x="552.636719"/>
     <use xlink:href="#TimesNewRomanPSMT-49" x="577.636719"/>
     <use xlink:href="#TimesNewRomanPSMT-6e" x="610.9375"/>
     <use xlink:href="#TimesNewRomanPSMT-74" x="660.9375"/>
     <use xlink:href="#TimesNewRomanPSMT-65" x="688.720703"/>
     <use xlink:href="#TimesNewRomanPSMT-72" x="733.105469"/>
     <use xlink:href="#TimesNewRomanPSMT-76" x="766.40625"/>
     <use xlink:href="#TimesNewRomanPSMT-61" x="816.40625"/>
     <use xlink:href="#TimesNewRomanPSMT-6c" x="860.791016"/>
     <use xlink:href="#TimesNewRomanPSMT-3a" x="888.574219"/>
     <use xlink:href="#TimesNewRomanPSMT-20" x="916.357422"/>
     <use xlink:href="#TimesNewRomanPSMT-5b" x="941.357422"/>
     <use xlink:href="#TimesNewRomanPSMT-30" x="974.658203"/>
     <use xlink:href="#TimesNewRomanPSMT-2e" x="1024.658203"/>
     <use xlink:href="#TimesNewRomanPSMT-31" x="1049.658203"/>
     <use xlink:href="#TimesNewRomanPSMT-36" x="1099.658203"/>
     <use xlink:href="#TimesNewRomanPSMT-30" x="1149.658203"/>
     <use xlink:href="#TimesNewRomanPSMT-2c" x="1199.658203"/>
     <use xlink:href="#TimesNewRomanPSMT-20" x="1224.658203"/>
     <use xlink:href="#TimesNewRomanPSMT-30" x="1249.658203"/>
     <use xlink:href="#TimesNewRomanPSMT-2e" x="1299.658203"/>
     <use xlink:href="#TimesNewRomanPSMT-38" x="1324.658203"/>
     <use xlink:href="#TimesNewRomanPSMT-32" x="1374.658203"/>
     <use xlink:href="#TimesNewRomanPSMT-35" x="1424.658203"/>
     <use xlink:href="#TimesNewRomanPSMT-5d" x="1474.658203"/>
    </g>
   </g>
  </g>
 </g>
 <defs>
  <clipPath id="p71650d4508">
   <rect x="39.782813" y="21.5325" width="357.12" height="266.112"/>
  </clipPath>
 </defs>
</svg>
