<?xml version="1.0" encoding="utf-8" standalone="no"?>
<!DOCTYPE svg PUBLIC "-//W3C//DTD SVG 1.1//EN"
  "http://www.w3.org/Graphics/SVG/1.1/DTD/svg11.dtd">
<svg xmlns:xlink="http://www.w3.org/1999/xlink" width="402.241875pt" height="325.037625pt" viewBox="0 0 402.241875 325.037625" xmlns="http://www.w3.org/2000/svg" version="1.1">
 <metadata>
  <rdf:RDF xmlns:dc="http://purl.org/dc/elements/1.1/" xmlns:cc="http://creativecommons.org/ns#" xmlns:rdf="http://www.w3.org/1999/02/22-rdf-syntax-ns#">
   <cc:Work>
    <dc:type rdf:resource="http://purl.org/dc/dcmitype/StillImage"/>
    <dc:date>2025-04-08T15:07:01.847225</dc:date>
    <dc:format>image/svg+xml</dc:format>
    <dc:creator>
     <cc:Agent>
      <dc:title>Matplotlib v3.8.4, https://matplotlib.org/</dc:title>
     </cc:Agent>
    </dc:creator>
   </cc:Work>
  </rdf:RDF>
 </metadata>
 <defs>
  <style type="text/css">*{stroke-linejoin: round; stroke-linecap: butt}</style>
 </defs>
 <g id="figure_1">
  <g id="patch_1">
   <path d="M 0 325.037625 
L 402.241875 325.037625 
L 402.241875 0 
L 0 0 
L 0 325.037625 
z
" style="fill: none"/>
  </g>
  <g id="axes_1">
   <g id="patch_2">
    <path d="M 37.921875 288.672 
L 395.041875 288.672 
L 395.041875 22.56 
L 37.921875 22.56 
L 37.921875 288.672 
z
" style="fill: none"/>
   </g>
   <g id="matplotlib.axis_1">
    <g id="xtick_1">
     <g id="line2d_1">
      <path d="M 54.154602 288.672 
L 54.154602 22.56 
" clip-path="url(#p735b5cbe02)" style="fill: none; stroke: #b0b0b0; stroke-width: 0.8; stroke-linecap: square"/>
     </g>
     <g id="line2d_2">
      <defs>
       <path id="m3f16b4777e" d="M 0 0 
L 0 3.5 
" style="stroke: #000000; stroke-width: 0.8"/>
      </defs>
      <g>
       <use xlink:href="#m3f16b4777e" x="54.154602" y="288.672" style="stroke: #000000; stroke-width: 0.8"/>
      </g>
     </g>
     <g id="text_1">
      <!-- 0 -->
      <g transform="translate(51.654602 302.61575) scale(0.1 -0.1)">
       <defs>
        <path id="TimesNewRomanPSMT-30" d="M 231 2094 
Q 231 2819 450 3342 
Q 669 3866 1031 4122 
Q 1313 4325 1613 4325 
Q 2100 4325 2488 3828 
Q 2972 3213 2972 2159 
Q 2972 1422 2759 906 
Q 2547 391 2217 158 
Q 1888 -75 1581 -75 
Q 975 -75 572 641 
Q 231 1244 231 2094 
z
M 844 2016 
Q 844 1141 1059 588 
Q 1238 122 1591 122 
Q 1759 122 1940 273 
Q 2122 425 2216 781 
Q 2359 1319 2359 2297 
Q 2359 3022 2209 3506 
Q 2097 3866 1919 4016 
Q 1791 4119 1609 4119 
Q 1397 4119 1231 3928 
Q 1006 3669 925 3112 
Q 844 2556 844 2016 
z
" transform="scale(0.015625)"/>
       </defs>
       <use xlink:href="#TimesNewRomanPSMT-30"/>
      </g>
     </g>
    </g>
    <g id="xtick_2">
     <g id="line2d_3">
      <path d="M 119.150507 288.672 
L 119.150507 22.56 
" clip-path="url(#p735b5cbe02)" style="fill: none; stroke: #b0b0b0; stroke-width: 0.8; stroke-linecap: square"/>
     </g>
     <g id="line2d_4">
      <g>
       <use xlink:href="#m3f16b4777e" x="119.150507" y="288.672" style="stroke: #000000; stroke-width: 0.8"/>
      </g>
     </g>
     <g id="text_2">
      <!-- 200 -->
      <g transform="translate(111.650507 302.61575) scale(0.1 -0.1)">
       <defs>
        <path id="TimesNewRomanPSMT-32" d="M 2934 816 
L 2638 0 
L 138 0 
L 138 116 
Q 1241 1122 1691 1759 
Q 2141 2397 2141 2925 
Q 2141 3328 1894 3587 
Q 1647 3847 1303 3847 
Q 991 3847 742 3664 
Q 494 3481 375 3128 
L 259 3128 
Q 338 3706 661 4015 
Q 984 4325 1469 4325 
Q 1984 4325 2329 3994 
Q 2675 3663 2675 3213 
Q 2675 2891 2525 2569 
Q 2294 2063 1775 1497 
Q 997 647 803 472 
L 1909 472 
Q 2247 472 2383 497 
Q 2519 522 2628 598 
Q 2738 675 2819 816 
L 2934 816 
z
" transform="scale(0.015625)"/>
       </defs>
       <use xlink:href="#TimesNewRomanPSMT-32"/>
       <use xlink:href="#TimesNewRomanPSMT-30" x="50"/>
       <use xlink:href="#TimesNewRomanPSMT-30" x="100"/>
      </g>
     </g>
    </g>
    <g id="xtick_3">
     <g id="line2d_5">
      <path d="M 184.146412 288.672 
L 184.146412 22.56 
" clip-path="url(#p735b5cbe02)" style="fill: none; stroke: #b0b0b0; stroke-width: 0.8; stroke-linecap: square"/>
     </g>
     <g id="line2d_6">
      <g>
       <use xlink:href="#m3f16b4777e" x="184.146412" y="288.672" style="stroke: #000000; stroke-width: 0.8"/>
      </g>
     </g>
     <g id="text_3">
      <!-- 400 -->
      <g transform="translate(176.646412 302.61575) scale(0.1 -0.1)">
       <defs>
        <path id="TimesNewRomanPSMT-34" d="M 2978 1563 
L 2978 1119 
L 2409 1119 
L 2409 0 
L 1894 0 
L 1894 1119 
L 100 1119 
L 100 1519 
L 2066 4325 
L 2409 4325 
L 2409 1563 
L 2978 1563 
z
M 1894 1563 
L 1894 3666 
L 406 1563 
L 1894 1563 
z
" transform="scale(0.015625)"/>
       </defs>
       <use xlink:href="#TimesNewRomanPSMT-34"/>
       <use xlink:href="#TimesNewRomanPSMT-30" x="50"/>
       <use xlink:href="#TimesNewRomanPSMT-30" x="100"/>
      </g>
     </g>
    </g>
    <g id="xtick_4">
     <g id="line2d_7">
      <path d="M 249.142317 288.672 
L 249.142317 22.56 
" clip-path="url(#p735b5cbe02)" style="fill: none; stroke: #b0b0b0; stroke-width: 0.8; stroke-linecap: square"/>
     </g>
     <g id="line2d_8">
      <g>
       <use xlink:href="#m3f16b4777e" x="249.142317" y="288.672" style="stroke: #000000; stroke-width: 0.8"/>
      </g>
     </g>
     <g id="text_4">
      <!-- 600 -->
      <g transform="translate(241.642317 302.61575) scale(0.1 -0.1)">
       <defs>
        <path id="TimesNewRomanPSMT-36" d="M 2869 4325 
L 2869 4209 
Q 2456 4169 2195 4045 
Q 1934 3922 1679 3669 
Q 1425 3416 1258 3105 
Q 1091 2794 978 2366 
Q 1428 2675 1881 2675 
Q 2316 2675 2634 2325 
Q 2953 1975 2953 1425 
Q 2953 894 2631 456 
Q 2244 -75 1606 -75 
Q 1172 -75 869 213 
Q 275 772 275 1663 
Q 275 2231 503 2743 
Q 731 3256 1154 3653 
Q 1578 4050 1965 4187 
Q 2353 4325 2688 4325 
L 2869 4325 
z
M 925 2138 
Q 869 1716 869 1456 
Q 869 1156 980 804 
Q 1091 453 1309 247 
Q 1469 100 1697 100 
Q 1969 100 2183 356 
Q 2397 613 2397 1088 
Q 2397 1622 2184 2012 
Q 1972 2403 1581 2403 
Q 1463 2403 1327 2353 
Q 1191 2303 925 2138 
z
" transform="scale(0.015625)"/>
       </defs>
       <use xlink:href="#TimesNewRomanPSMT-36"/>
       <use xlink:href="#TimesNewRomanPSMT-30" x="50"/>
       <use xlink:href="#TimesNewRomanPSMT-30" x="100"/>
      </g>
     </g>
    </g>
    <g id="xtick_5">
     <g id="line2d_9">
      <path d="M 314.138222 288.672 
L 314.138222 22.56 
" clip-path="url(#p735b5cbe02)" style="fill: none; stroke: #b0b0b0; stroke-width: 0.8; stroke-linecap: square"/>
     </g>
     <g id="line2d_10">
      <g>
       <use xlink:href="#m3f16b4777e" x="314.138222" y="288.672" style="stroke: #000000; stroke-width: 0.8"/>
      </g>
     </g>
     <g id="text_5">
      <!-- 800 -->
      <g transform="translate(306.638222 302.61575) scale(0.1 -0.1)">
       <defs>
        <path id="TimesNewRomanPSMT-38" d="M 1228 2134 
Q 725 2547 579 2797 
Q 434 3047 434 3316 
Q 434 3728 753 4026 
Q 1072 4325 1600 4325 
Q 2113 4325 2425 4047 
Q 2738 3769 2738 3413 
Q 2738 3175 2569 2928 
Q 2400 2681 1866 2347 
Q 2416 1922 2594 1678 
Q 2831 1359 2831 1006 
Q 2831 559 2490 242 
Q 2150 -75 1597 -75 
Q 994 -75 656 303 
Q 388 606 388 966 
Q 388 1247 577 1523 
Q 766 1800 1228 2134 
z
M 1719 2469 
Q 2094 2806 2194 3001 
Q 2294 3197 2294 3444 
Q 2294 3772 2109 3958 
Q 1925 4144 1606 4144 
Q 1288 4144 1088 3959 
Q 888 3775 888 3528 
Q 888 3366 970 3203 
Q 1053 3041 1206 2894 
L 1719 2469 
z
M 1375 2016 
Q 1116 1797 991 1539 
Q 866 1281 866 981 
Q 866 578 1086 336 
Q 1306 94 1647 94 
Q 1984 94 2187 284 
Q 2391 475 2391 747 
Q 2391 972 2272 1150 
Q 2050 1481 1375 2016 
z
" transform="scale(0.015625)"/>
       </defs>
       <use xlink:href="#TimesNewRomanPSMT-38"/>
       <use xlink:href="#TimesNewRomanPSMT-30" x="50"/>
       <use xlink:href="#TimesNewRomanPSMT-30" x="100"/>
      </g>
     </g>
    </g>
    <g id="xtick_6">
     <g id="line2d_11">
      <path d="M 379.134127 288.672 
L 379.134127 22.56 
" clip-path="url(#p735b5cbe02)" style="fill: none; stroke: #b0b0b0; stroke-width: 0.8; stroke-linecap: square"/>
     </g>
     <g id="line2d_12">
      <g>
       <use xlink:href="#m3f16b4777e" x="379.134127" y="288.672" style="stroke: #000000; stroke-width: 0.8"/>
      </g>
     </g>
     <g id="text_6">
      <!-- 1000 -->
      <g transform="translate(369.134127 302.61575) scale(0.1 -0.1)">
       <defs>
        <path id="TimesNewRomanPSMT-31" d="M 750 3822 
L 1781 4325 
L 1884 4325 
L 1884 747 
Q 1884 391 1914 303 
Q 1944 216 2037 169 
Q 2131 122 2419 116 
L 2419 0 
L 825 0 
L 825 116 
Q 1125 122 1212 167 
Q 1300 213 1334 289 
Q 1369 366 1369 747 
L 1369 3034 
Q 1369 3497 1338 3628 
Q 1316 3728 1258 3775 
Q 1200 3822 1119 3822 
Q 1003 3822 797 3725 
L 750 3822 
z
" transform="scale(0.015625)"/>
       </defs>
       <use xlink:href="#TimesNewRomanPSMT-31"/>
       <use xlink:href="#TimesNewRomanPSMT-30" x="50"/>
       <use xlink:href="#TimesNewRomanPSMT-30" x="100"/>
       <use xlink:href="#TimesNewRomanPSMT-30" x="150"/>
      </g>
     </g>
    </g>
    <g id="text_7">
     <!-- $t$ -->
     <g transform="translate(214.631875 315.698562) scale(0.1 -0.1)">
      <defs>
       <path id="Cmmi10-74" d="M 397 519 
Q 397 613 416 697 
L 878 2534 
L 206 2534 
Q 141 2534 141 2619 
Q 166 2759 225 2759 
L 934 2759 
L 1191 3803 
Q 1216 3888 1291 3947 
Q 1366 4006 1459 4006 
Q 1541 4006 1595 3957 
Q 1650 3909 1650 3828 
Q 1650 3809 1648 3798 
Q 1647 3788 1644 3775 
L 1388 2759 
L 2047 2759 
Q 2113 2759 2113 2675 
Q 2109 2659 2100 2621 
Q 2091 2584 2075 2559 
Q 2059 2534 2028 2534 
L 1331 2534 
L 872 684 
Q 825 503 825 372 
Q 825 97 1013 97 
Q 1294 97 1511 361 
Q 1728 625 1844 941 
Q 1869 978 1894 978 
L 1972 978 
Q 1997 978 2012 961 
Q 2028 944 2028 922 
Q 2028 909 2022 903 
Q 1881 516 1612 222 
Q 1344 -72 997 -72 
Q 744 -72 570 93 
Q 397 259 397 519 
z
" transform="scale(0.015625)"/>
      </defs>
      <use xlink:href="#Cmmi10-74" transform="translate(0 0.40625)"/>
     </g>
    </g>
   </g>
   <g id="matplotlib.axis_2">
    <g id="ytick_1">
     <g id="line2d_13">
      <path d="M 37.921875 288.070387 
L 395.041875 288.070387 
" clip-path="url(#p735b5cbe02)" style="fill: none; stroke: #b0b0b0; stroke-width: 0.8; stroke-linecap: square"/>
     </g>
     <g id="line2d_14">
      <defs>
       <path id="m1c67b59450" d="M 0 0 
L -3.5 0 
" style="stroke: #000000; stroke-width: 0.8"/>
      </defs>
      <g>
       <use xlink:href="#m1c67b59450" x="37.921875" y="288.070387" style="stroke: #000000; stroke-width: 0.8"/>
      </g>
     </g>
     <g id="text_8">
      <!-- −3 -->
      <g transform="translate(20.282813 291.542262) scale(0.1 -0.1)">
       <defs>
        <path id="TimesNewRomanPSMT-2212" d="M 3484 2000 
L 116 2000 
L 116 2256 
L 3484 2256 
L 3484 2000 
z
" transform="scale(0.015625)"/>
        <path id="TimesNewRomanPSMT-33" d="M 325 3431 
Q 506 3859 782 4092 
Q 1059 4325 1472 4325 
Q 1981 4325 2253 3994 
Q 2459 3747 2459 3466 
Q 2459 3003 1878 2509 
Q 2269 2356 2469 2072 
Q 2669 1788 2669 1403 
Q 2669 853 2319 450 
Q 1863 -75 997 -75 
Q 569 -75 414 31 
Q 259 138 259 259 
Q 259 350 332 419 
Q 406 488 509 488 
Q 588 488 669 463 
Q 722 447 909 348 
Q 1097 250 1169 231 
Q 1284 197 1416 197 
Q 1734 197 1970 444 
Q 2206 691 2206 1028 
Q 2206 1275 2097 1509 
Q 2016 1684 1919 1775 
Q 1784 1900 1550 2001 
Q 1316 2103 1072 2103 
L 972 2103 
L 972 2197 
Q 1219 2228 1467 2375 
Q 1716 2522 1828 2728 
Q 1941 2934 1941 3181 
Q 1941 3503 1739 3701 
Q 1538 3900 1238 3900 
Q 753 3900 428 3381 
L 325 3431 
z
" transform="scale(0.015625)"/>
       </defs>
       <use xlink:href="#TimesNewRomanPSMT-2212"/>
       <use xlink:href="#TimesNewRomanPSMT-33" x="56.396484"/>
      </g>
     </g>
    </g>
    <g id="ytick_2">
     <g id="line2d_15">
      <path d="M 37.921875 245.75387 
L 395.041875 245.75387 
" clip-path="url(#p735b5cbe02)" style="fill: none; stroke: #b0b0b0; stroke-width: 0.8; stroke-linecap: square"/>
     </g>
     <g id="line2d_16">
      <g>
       <use xlink:href="#m1c67b59450" x="37.921875" y="245.75387" style="stroke: #000000; stroke-width: 0.8"/>
      </g>
     </g>
     <g id="text_9">
      <!-- −2 -->
      <g transform="translate(20.282813 249.225745) scale(0.1 -0.1)">
       <use xlink:href="#TimesNewRomanPSMT-2212"/>
       <use xlink:href="#TimesNewRomanPSMT-32" x="56.396484"/>
      </g>
     </g>
    </g>
    <g id="ytick_3">
     <g id="line2d_17">
      <path d="M 37.921875 203.437353 
L 395.041875 203.437353 
" clip-path="url(#p735b5cbe02)" style="fill: none; stroke: #b0b0b0; stroke-width: 0.8; stroke-linecap: square"/>
     </g>
     <g id="line2d_18">
      <g>
       <use xlink:href="#m1c67b59450" x="37.921875" y="203.437353" style="stroke: #000000; stroke-width: 0.8"/>
      </g>
     </g>
     <g id="text_10">
      <!-- −1 -->
      <g transform="translate(20.282813 206.909228) scale(0.1 -0.1)">
       <use xlink:href="#TimesNewRomanPSMT-2212"/>
       <use xlink:href="#TimesNewRomanPSMT-31" x="56.396484"/>
      </g>
     </g>
    </g>
    <g id="ytick_4">
     <g id="line2d_19">
      <path d="M 37.921875 161.120835 
L 395.041875 161.120835 
" clip-path="url(#p735b5cbe02)" style="fill: none; stroke: #b0b0b0; stroke-width: 0.8; stroke-linecap: square"/>
     </g>
     <g id="line2d_20">
      <g>
       <use xlink:href="#m1c67b59450" x="37.921875" y="161.120835" style="stroke: #000000; stroke-width: 0.8"/>
      </g>
     </g>
     <g id="text_11">
      <!-- 0 -->
      <g transform="translate(25.921875 164.59271) scale(0.1 -0.1)">
       <use xlink:href="#TimesNewRomanPSMT-30"/>
      </g>
     </g>
    </g>
    <g id="ytick_5">
     <g id="line2d_21">
      <path d="M 37.921875 118.804318 
L 395.041875 118.804318 
" clip-path="url(#p735b5cbe02)" style="fill: none; stroke: #b0b0b0; stroke-width: 0.8; stroke-linecap: square"/>
     </g>
     <g id="line2d_22">
      <g>
       <use xlink:href="#m1c67b59450" x="37.921875" y="118.804318" style="stroke: #000000; stroke-width: 0.8"/>
      </g>
     </g>
     <g id="text_12">
      <!-- 1 -->
      <g transform="translate(25.921875 122.276193) scale(0.1 -0.1)">
       <use xlink:href="#TimesNewRomanPSMT-31"/>
      </g>
     </g>
    </g>
    <g id="ytick_6">
     <g id="line2d_23">
      <path d="M 37.921875 76.487801 
L 395.041875 76.487801 
" clip-path="url(#p735b5cbe02)" style="fill: none; stroke: #b0b0b0; stroke-width: 0.8; stroke-linecap: square"/>
     </g>
     <g id="line2d_24">
      <g>
       <use xlink:href="#m1c67b59450" x="37.921875" y="76.487801" style="stroke: #000000; stroke-width: 0.8"/>
      </g>
     </g>
     <g id="text_13">
      <!-- 2 -->
      <g transform="translate(25.921875 79.959676) scale(0.1 -0.1)">
       <use xlink:href="#TimesNewRomanPSMT-32"/>
      </g>
     </g>
    </g>
    <g id="ytick_7">
     <g id="line2d_25">
      <path d="M 37.921875 34.171284 
L 395.041875 34.171284 
" clip-path="url(#p735b5cbe02)" style="fill: none; stroke: #b0b0b0; stroke-width: 0.8; stroke-linecap: square"/>
     </g>
     <g id="line2d_26">
      <g>
       <use xlink:href="#m1c67b59450" x="37.921875" y="34.171284" style="stroke: #000000; stroke-width: 0.8"/>
      </g>
     </g>
     <g id="text_14">
      <!-- 3 -->
      <g transform="translate(25.921875 37.643159) scale(0.1 -0.1)">
       <use xlink:href="#TimesNewRomanPSMT-33"/>
      </g>
     </g>
    </g>
    <g id="text_15">
     <!-- $y$ -->
     <g transform="translate(14.14375 158.116) rotate(-90) scale(0.1 -0.1)">
      <defs>
       <path id="Cmmi10-79" d="M 538 -916 
Q 672 -1147 1006 -1147 
Q 1309 -1147 1531 -934 
Q 1753 -722 1889 -420 
Q 2025 -119 2100 197 
Q 1816 -72 1484 -72 
Q 1231 -72 1053 15 
Q 875 103 776 276 
Q 678 450 678 697 
Q 678 906 734 1126 
Q 791 1347 892 1617 
Q 994 1888 1069 2088 
Q 1153 2322 1153 2472 
Q 1153 2663 1013 2663 
Q 759 2663 595 2402 
Q 431 2141 353 1819 
Q 341 1778 300 1778 
L 225 1778 
Q 172 1778 172 1838 
L 172 1856 
Q 275 2238 487 2533 
Q 700 2828 1025 2828 
Q 1253 2828 1411 2678 
Q 1569 2528 1569 2297 
Q 1569 2178 1516 2047 
Q 1488 1969 1388 1706 
Q 1288 1444 1234 1272 
Q 1181 1100 1147 934 
Q 1113 769 1113 603 
Q 1113 391 1203 244 
Q 1294 97 1491 97 
Q 1888 97 2203 581 
L 2688 2553 
Q 2709 2638 2787 2698 
Q 2866 2759 2956 2759 
Q 3034 2759 3092 2709 
Q 3150 2659 3150 2578 
Q 3150 2541 3144 2528 
L 2509 -19 
Q 2425 -347 2200 -647 
Q 1975 -947 1658 -1130 
Q 1341 -1313 997 -1313 
Q 831 -1313 668 -1248 
Q 506 -1184 406 -1056 
Q 306 -928 306 -756 
Q 306 -581 409 -453 
Q 513 -325 684 -325 
Q 788 -325 858 -389 
Q 928 -453 928 -556 
Q 928 -703 818 -812 
Q 709 -922 563 -922 
Q 556 -919 550 -917 
Q 544 -916 538 -916 
z
" transform="scale(0.015625)"/>
      </defs>
      <use xlink:href="#Cmmi10-79" transform="translate(0 0.8125)"/>
     </g>
    </g>
   </g>
   <g id="line2d_27">
    <path d="M 54.154602 141.742521 
L 54.479582 159.706729 
L 54.804561 160.282355 
L 55.129541 100.310022 
L 55.45452 208.178853 
L 55.7795 105.37918 
L 56.104479 158.261367 
L 56.429459 100.014219 
L 56.754438 141.428023 
L 57.404398 143.307305 
L 57.729377 98.35209 
L 58.054357 146.413822 
L 58.379336 214.378179 
L 58.704316 127.615988 
L 59.029295 117.884126 
L 59.354275 161.660388 
L 59.679254 176.299144 
L 60.004234 213.338522 
L 60.329213 103.854139 
L 60.654193 182.909925 
L 60.979172 153.325022 
L 61.304152 135.69547 
L 61.629131 197.231041 
L 61.954111 218.735756 
L 62.27909 186.231759 
L 62.60407 200.01551 
L 62.929049 218.713293 
L 63.254029 198.647641 
L 63.579008 108.51547 
L 63.903988 154.594496 
L 64.228968 148.355047 
L 64.553947 174.907672 
L 64.878927 172.719072 
L 65.203906 151.142812 
L 65.528886 225.890309 
L 65.853865 224.380984 
L 66.178845 102.270084 
L 66.503824 147.338863 
L 66.828804 259.003546 
L 67.153783 91.662761 
L 67.478763 199.867283 
L 67.803742 100.354343 
L 68.128722 175.090689 
L 68.453701 150.845327 
L 68.778681 107.744678 
L 69.42864 196.147061 
L 69.753619 150.678356 
L 70.078599 153.811955 
L 70.728558 186.978941 
L 71.053538 86.181941 
L 71.703497 226.63962 
L 72.028476 166.069673 
L 72.353456 151.407591 
L 72.678435 146.547894 
L 73.003415 193.270843 
L 73.328394 125.687208 
L 73.653374 216.858055 
L 73.978353 144.407051 
L 74.628312 182.671608 
L 74.953292 125.246212 
L 75.278271 90.43662 
L 75.603251 213.111929 
L 76.25321 151.737518 
L 76.578189 123.761716 
L 76.903169 143.674135 
L 77.228149 89.392929 
L 77.553128 220.775234 
L 77.878108 158.248453 
L 78.203087 185.184817 
L 78.528067 245.066207 
L 78.853046 145.79258 
L 79.178026 153.309226 
L 79.503005 77.19468 
L 79.827985 126.658212 
L 80.152964 71.102241 
L 80.477944 221.35494 
L 80.802923 135.632134 
L 81.127903 102.338073 
L 81.452882 144.422426 
L 81.777862 150.172673 
L 82.102841 197.818123 
L 82.427821 148.831257 
L 82.7528 145.698672 
L 83.07778 94.374933 
L 83.40276 186.301039 
L 83.727739 124.933278 
L 84.052719 122.935266 
L 84.377698 128.698781 
L 84.702678 164.20137 
L 85.027657 236.329187 
L 85.352637 263.684812 
L 85.677616 234.457206 
L 86.327575 140.566606 
L 86.652555 168.767224 
L 86.977534 219.523853 
L 87.302514 207.931207 
L 87.627493 174.348582 
L 87.952473 210.391311 
L 88.277452 145.713995 
L 88.602432 146.094612 
L 88.927411 141.232875 
L 89.252391 130.512811 
L 89.57737 115.217512 
L 89.90235 201.391617 
L 90.22733 165.954833 
L 90.552309 143.709154 
L 90.877289 146.91082 
L 91.202268 134.545399 
L 91.527248 129.07286 
L 91.852227 185.650445 
L 92.177207 149.223117 
L 92.827166 204.126623 
L 93.152145 63.806185 
L 93.477125 232.861148 
L 93.802104 180.401369 
L 94.127084 226.415068 
L 94.452063 126.201826 
L 95.102022 218.337908 
L 95.427002 96.316553 
L 95.751981 169.273894 
L 96.076961 149.21271 
L 96.401941 242.938859 
L 97.0519 140.717818 
L 97.376879 103.977095 
L 97.701859 203.672575 
L 98.026838 162.034185 
L 98.351818 145.854425 
L 98.676797 193.652756 
L 99.001777 122.905504 
L 99.326756 188.452505 
L 99.651736 165.070494 
L 99.976715 201.308006 
L 100.301695 146.779246 
L 100.626674 153.218771 
L 100.951654 178.467974 
L 101.276633 178.686726 
L 101.601613 133.45804 
L 101.926592 227.240621 
L 102.251572 141.060598 
L 102.576551 213.172623 
L 102.901531 168.147592 
L 103.226511 151.475277 
L 103.55149 175.567641 
L 103.87647 169.058871 
L 104.201449 205.840384 
L 104.526429 140.960162 
L 104.851408 214.650986 
L 105.176388 114.889221 
L 105.501367 126.536873 
L 105.826347 203.713027 
L 106.151326 124.871968 
L 106.476306 105.702887 
L 106.801285 182.712939 
L 107.126265 140.667836 
L 107.451244 123.896846 
L 107.776224 150.700957 
L 108.101203 79.703112 
L 108.426183 177.737043 
L 108.751162 215.162955 
L 109.076142 225.538848 
L 109.401122 86.076315 
L 109.726101 73.739663 
L 110.051081 128.222944 
L 110.37606 218.171969 
L 110.70104 111.865657 
L 111.026019 111.000778 
L 111.350999 150.033968 
L 111.675978 165.671408 
L 112.000958 128.670148 
L 112.650917 226.14381 
L 112.975896 196.689475 
L 113.300876 92.446872 
L 113.625855 213.081875 
L 113.950835 129.120963 
L 114.275814 196.016334 
L 114.600794 133.392939 
L 114.925773 139.378527 
L 115.250753 233.265603 
L 115.575732 84.100257 
L 115.900712 113.100666 
L 116.225692 116.419556 
L 116.550671 206.634273 
L 116.875651 189.432629 
L 117.20063 149.954241 
L 117.52561 154.220947 
L 117.850589 193.106311 
L 118.175569 179.574898 
L 118.500548 127.53417 
L 118.825528 199.661887 
L 119.150507 204.168972 
L 119.475487 130.898773 
L 119.800466 177.701044 
L 120.125446 105.639777 
L 120.450425 234.463313 
L 120.775405 192.18987 
L 121.425364 71.687425 
L 121.750343 75.377851 
L 122.075323 168.403744 
L 122.400303 132.166407 
L 122.725282 159.554281 
L 123.050262 232.555743 
L 123.375241 184.892439 
L 123.700221 107.580413 
L 124.0252 111.174084 
L 125.000139 190.194542 
L 125.325118 92.989534 
L 125.650098 67.864515 
L 125.975077 247.063203 
L 126.300057 138.366384 
L 126.625036 90.738501 
L 126.950016 220.797322 
L 127.274995 130.14632 
L 127.599975 163.885572 
L 127.924954 220.147432 
L 128.249934 118.725791 
L 128.574913 115.430386 
L 129.224873 218.91026 
L 129.874832 141.754054 
L 130.199811 134.283141 
L 130.524791 174.904072 
L 131.17475 124.862761 
L 131.499729 139.017543 
L 131.824709 163.95783 
L 132.149688 118.668708 
L 132.474668 214.711328 
L 132.799647 224.376434 
L 133.449606 112.431575 
L 133.774586 214.689848 
L 134.099565 153.978042 
L 134.424545 217.5446 
L 134.749524 142.097023 
L 135.074504 172.483458 
L 135.399484 118.352079 
L 135.724463 144.827513 
L 136.049443 122.266392 
L 136.374422 218.508279 
L 136.699402 126.255357 
L 137.024381 80.858992 
L 137.349361 169.135833 
L 137.67434 156.334754 
L 137.99932 213.932849 
L 138.324299 188.343296 
L 138.649279 141.86137 
L 138.974258 72.31035 
L 139.299238 164.076531 
L 139.624217 142.650239 
L 139.949197 100.222273 
L 140.274176 207.17211 
L 140.599156 102.504044 
L 140.924135 109.692774 
L 141.249115 127.119926 
L 141.574094 133.542843 
L 141.899074 113.097919 
L 142.224054 166.465862 
L 142.549033 190.365839 
L 142.874013 174.221882 
L 143.198992 150.449405 
L 143.523972 70.45269 
L 143.848951 195.951901 
L 144.173931 148.411879 
L 144.49891 60.914244 
L 144.82389 139.258961 
L 145.148869 124.061529 
L 145.473849 177.855837 
L 145.798828 198.229935 
L 146.123808 118.634755 
L 146.448787 163.903107 
L 146.773767 120.325104 
L 147.098746 169.681232 
L 147.423726 251.072253 
L 147.748705 168.400542 
L 148.073685 218.597907 
L 148.398665 189.879665 
L 148.723644 121.198294 
L 149.048624 186.677753 
L 149.373603 125.801758 
L 149.698583 198.612263 
L 150.023562 217.800387 
L 150.348542 159.291116 
L 150.673521 60.623631 
L 150.998501 146.29307 
L 151.32348 147.19948 
L 151.64846 152.52627 
L 151.973439 169.670023 
L 152.298419 130.888872 
L 152.623398 140.526868 
L 152.948378 140.266675 
L 153.273357 165.381708 
L 153.598337 203.86421 
L 153.923316 212.531139 
L 154.248296 143.911602 
L 154.573275 204.374851 
L 154.898255 239.677333 
L 155.548214 158.756773 
L 155.873194 171.148302 
L 156.198173 165.980586 
L 156.523153 200.112939 
L 156.848132 189.364194 
L 157.173112 155.469131 
L 157.498091 208.094143 
L 157.823071 223.234966 
L 158.14805 107.838646 
L 158.47303 236.254645 
L 158.798009 173.643756 
L 159.122989 239.836012 
L 159.447968 184.374643 
L 159.772948 90.274342 
L 160.422907 191.894298 
L 160.747886 145.503133 
L 161.072866 205.559573 
L 161.397846 139.669585 
L 161.722825 148.076712 
L 162.047805 199.247759 
L 162.372784 101.068912 
L 162.697764 162.687357 
L 163.022743 176.003369 
L 163.347723 152.740566 
L 163.672702 147.788011 
L 163.997682 151.133619 
L 164.322661 194.556148 
L 164.647641 172.797976 
L 164.97262 142.997544 
L 165.2976 134.499376 
L 165.622579 170.378341 
L 165.947559 131.264062 
L 166.272538 142.736078 
L 166.597518 171.692059 
L 166.922497 165.594172 
L 167.247477 175.031255 
L 167.572456 135.354377 
L 167.897436 189.269939 
L 168.222416 136.450309 
L 168.547395 165.91383 
L 168.872375 230.242469 
L 169.197354 146.040025 
L 169.522334 145.807423 
L 169.847313 91.521019 
L 170.172293 152.901113 
L 170.497272 105.789928 
L 170.822252 192.227454 
L 171.147231 166.368333 
L 171.472211 168.076648 
L 171.79719 162.623527 
L 172.12217 134.345642 
L 172.772129 155.637579 
L 173.097108 166.085852 
L 173.422088 145.452253 
L 173.747067 63.643704 
L 174.072047 200.337297 
L 174.397027 169.069175 
L 174.722006 68.769516 
L 175.046986 150.444679 
L 175.371965 133.893499 
L 175.696945 205.336327 
L 176.021924 142.240825 
L 176.346904 109.981311 
L 176.996863 227.778214 
L 177.321842 163.59506 
L 177.646822 166.944948 
L 178.296781 128.62323 
L 178.62176 164.970851 
L 178.94674 159.565782 
L 179.271719 169.187559 
L 179.596699 141.313678 
L 179.921678 164.843294 
L 180.246658 264.234159 
L 180.571637 132.448499 
L 180.896617 124.039085 
L 181.221597 100.673931 
L 181.546576 177.405171 
L 181.871556 152.186498 
L 182.196535 170.577585 
L 182.521515 219.263351 
L 182.846494 196.19298 
L 183.496453 231.058122 
L 183.821433 108.405667 
L 184.146412 215.295756 
L 184.471392 136.648076 
L 184.796371 203.707179 
L 185.121351 169.348926 
L 185.44633 121.81675 
L 185.77131 219.397407 
L 186.096289 221.608561 
L 186.421269 183.40375 
L 186.746248 55.956584 
L 187.071228 199.369618 
L 187.396208 193.363504 
L 187.721187 165.467152 
L 188.046167 127.656373 
L 188.371146 126.522872 
L 188.696126 94.143731 
L 189.346085 195.422777 
L 189.671064 172.13884 
L 189.996044 124.932577 
L 190.321023 162.5347 
L 190.646003 135.415489 
L 190.970982 181.711389 
L 191.295962 177.901362 
L 191.620941 185.483638 
L 192.2709 127.09592 
L 192.59588 245.286708 
L 192.920859 168.918669 
L 193.245839 159.975906 
L 193.570818 192.099423 
L 193.895798 163.231572 
L 194.220778 83.476313 
L 194.545757 176.529718 
L 194.870737 79.362995 
L 195.195716 204.586925 
L 195.520696 92.553606 
L 195.845675 199.402507 
L 196.170655 119.418146 
L 196.495634 171.050947 
L 196.820614 161.81871 
L 197.145593 136.504341 
L 197.470573 85.035598 
L 197.795552 139.396981 
L 198.120532 150.261157 
L 198.445511 132.125956 
L 198.770491 125.960654 
L 199.09547 260.399274 
L 199.42045 198.651138 
L 199.745429 177.425803 
L 200.070409 203.305387 
L 200.395389 163.242929 
L 200.720368 173.636237 
L 201.045348 213.071921 
L 201.695307 136.177369 
L 202.020286 186.415064 
L 202.345266 173.600586 
L 202.670245 166.139153 
L 203.320204 142.207843 
L 203.645184 174.156366 
L 204.295143 134.088714 
L 204.620122 170.587835 
L 204.945102 168.668245 
L 205.270081 151.865335 
L 205.595061 179.769108 
L 205.92004 239.656914 
L 206.24502 226.087995 
L 206.569999 200.987708 
L 206.894979 222.375182 
L 207.219959 218.284258 
L 207.544938 246.003496 
L 207.869918 137.44537 
L 208.194897 162.413556 
L 208.519877 141.955582 
L 208.844856 162.168538 
L 209.169836 174.511923 
L 209.494815 172.880291 
L 209.819795 183.473313 
L 210.144774 110.229039 
L 210.469754 161.26091 
L 210.794733 166.296867 
L 211.119713 182.363048 
L 211.444692 134.519409 
L 211.769672 139.824487 
L 212.094651 155.339394 
L 212.419631 104.450414 
L 212.74461 131.145914 
L 213.06959 70.151242 
L 213.39457 217.042735 
L 213.719549 148.704218 
L 214.044529 151.913769 
L 214.369508 167.324283 
L 214.694488 146.640169 
L 215.019467 207.437865 
L 215.344447 142.641586 
L 215.994406 151.213151 
L 216.319385 155.575546 
L 216.644365 130.93001 
L 216.969344 125.825626 
L 217.294324 132.728555 
L 217.619303 187.889879 
L 217.944283 107.629499 
L 218.269262 179.224911 
L 218.594242 147.034711 
L 218.919221 201.934463 
L 219.244201 205.841738 
L 219.56918 177.171404 
L 219.89416 199.245123 
L 220.21914 203.822329 
L 220.869099 130.332753 
L 221.194078 255.294557 
L 221.519058 165.405952 
L 221.844037 110.60088 
L 222.169017 93.730453 
L 222.493996 164.089071 
L 222.818976 73.019264 
L 223.143955 134.820747 
L 223.468935 148.188844 
L 223.793914 141.277075 
L 224.118894 223.014629 
L 224.768853 123.902934 
L 225.093832 206.612507 
L 225.418812 220.055925 
L 225.743791 257.997599 
L 226.393751 166.534972 
L 226.71873 192.365499 
L 227.04371 249.942681 
L 227.368689 187.779726 
L 228.018648 166.406066 
L 228.343628 160.039186 
L 228.668607 195.47265 
L 228.993587 208.72702 
L 229.318566 199.461511 
L 229.643546 100.954525 
L 229.968525 151.321944 
L 230.293505 169.679192 
L 230.618484 203.077209 
L 230.943464 166.561719 
L 231.268443 200.448964 
L 231.593423 206.504737 
L 231.918402 186.845605 
L 232.243382 199.509468 
L 232.568361 149.839511 
L 232.893341 179.300263 
L 233.218321 226.924556 
L 233.5433 87.391357 
L 233.86828 232.736807 
L 234.193259 97.791931 
L 234.518239 178.974491 
L 234.843218 184.045502 
L 235.168198 238.614237 
L 235.493177 128.987791 
L 235.818157 128.846288 
L 236.143136 220.683457 
L 236.468116 79.958376 
L 237.118075 164.610104 
L 237.443054 240.818602 
L 237.768034 97.25246 
L 238.093013 116.314388 
L 238.417993 100.018147 
L 238.742972 160.899273 
L 239.067952 128.452051 
L 239.392932 141.957745 
L 239.717911 161.485475 
L 240.36787 117.116252 
L 240.69285 201.541407 
L 241.017829 106.844438 
L 241.342809 190.126493 
L 241.667788 134.237049 
L 241.992768 194.329444 
L 242.642727 113.839055 
L 242.967706 131.683673 
L 243.292686 222.291919 
L 243.617665 180.169203 
L 243.942645 46.816844 
L 244.267624 198.143599 
L 244.592604 175.870324 
L 244.917583 110.311382 
L 245.242563 215.530136 
L 245.567542 120.1811 
L 245.892522 241.099465 
L 246.217502 155.388111 
L 246.542481 179.584542 
L 246.867461 159.186025 
L 247.51742 180.00757 
L 247.842399 170.616488 
L 248.167379 165.905825 
L 248.492358 129.808243 
L 249.142317 205.305225 
L 249.792276 173.348186 
L 250.117256 219.414616 
L 250.442235 136.396499 
L 250.767215 198.221786 
L 251.092194 206.125894 
L 251.417174 199.437534 
L 251.742153 76.199049 
L 252.067133 185.795559 
L 252.392113 140.253099 
L 252.717092 175.191209 
L 253.042072 245.875876 
L 253.367051 162.854924 
L 253.692031 192.980993 
L 254.01701 131.350055 
L 254.34199 192.763622 
L 254.666969 183.334386 
L 254.991949 85.662368 
L 255.316928 187.065484 
L 255.641908 152.785496 
L 255.966887 158.806761 
L 256.291867 136.93438 
L 256.616846 152.509067 
L 256.941826 85.049683 
L 257.266805 107.591164 
L 257.591785 110.385659 
L 258.241744 230.182479 
L 258.566723 197.68517 
L 258.891703 144.492117 
L 259.216683 157.106812 
L 259.541662 201.159452 
L 259.866642 170.068165 
L 260.191621 170.354756 
L 260.516601 276.576 
L 260.84158 161.223649 
L 261.16656 195.974482 
L 261.491539 201.396549 
L 261.816519 171.842075 
L 262.141498 158.785794 
L 262.466478 187.857407 
L 262.791457 137.866582 
L 263.116437 111.434499 
L 263.441416 211.089916 
L 263.766396 210.573609 
L 264.091375 193.577366 
L 264.416355 207.771603 
L 264.741334 118.479734 
L 265.066314 147.823069 
L 265.391294 131.955959 
L 265.716273 174.965628 
L 266.366232 156.378289 
L 266.691212 180.17963 
L 267.016191 94.904169 
L 267.341171 180.687475 
L 267.66615 224.061279 
L 267.99113 153.047822 
L 268.316109 166.946657 
L 268.641089 155.601805 
L 268.966068 135.231229 
L 269.291048 158.083572 
L 269.616027 130.478463 
L 270.265986 174.944558 
L 270.590966 79.373103 
L 270.915945 241.003357 
L 271.240925 197.481246 
L 271.565904 72.819434 
L 271.890884 155.54755 
L 272.215864 152.12792 
L 272.540843 225.439962 
L 272.865823 98.457836 
L 273.190802 171.416017 
L 273.515782 186.751721 
L 273.840761 125.321933 
L 274.165741 199.321612 
L 274.8157 150.552467 
L 275.140679 228.90697 
L 275.465659 53.363841 
L 275.790638 218.82844 
L 276.115618 182.029367 
L 276.440597 222.794966 
L 276.765577 182.552454 
L 277.090556 197.96822 
L 277.740515 141.975455 
L 278.065495 98.488785 
L 278.390475 179.323152 
L 278.715454 119.150907 
L 279.040434 186.234754 
L 279.365413 121.327093 
L 279.690393 177.867319 
L 280.015372 114.932919 
L 280.340352 220.704387 
L 280.990311 102.474488 
L 281.31529 229.560156 
L 281.64027 158.999008 
L 281.965249 204.796297 
L 282.290229 168.330708 
L 282.615208 114.004426 
L 282.940188 157.029197 
L 283.265167 249.184201 
L 283.590147 137.006524 
L 283.915126 139.19303 
L 284.240106 112.729251 
L 284.565085 167.675795 
L 284.890065 99.794925 
L 285.215045 154.147474 
L 285.540024 148.904861 
L 285.865004 134.079162 
L 286.189983 145.722322 
L 286.514963 151.444942 
L 286.839942 115.316518 
L 287.164922 198.060974 
L 287.489901 198.749521 
L 287.814881 201.587384 
L 288.13986 162.517719 
L 288.46484 186.659796 
L 288.789819 138.155726 
L 289.114799 153.756432 
L 289.439778 52.491217 
L 289.764758 161.4601 
L 290.089737 168.105855 
L 290.414717 194.793242 
L 290.739696 189.725711 
L 291.064676 127.308015 
L 291.389656 135.040512 
L 291.714635 178.742087 
L 292.039615 95.382644 
L 292.364594 178.849038 
L 292.689574 164.796839 
L 293.339533 197.064859 
L 293.664512 111.91583 
L 293.989492 174.232781 
L 294.314471 267.410456 
L 294.96443 79.023871 
L 295.28941 187.633984 
L 295.614389 123.386155 
L 295.939369 119.54921 
L 296.264348 258.468656 
L 296.589328 137.283729 
L 296.914307 172.725119 
L 297.239287 170.276885 
L 297.564266 117.630821 
L 297.889246 212.214266 
L 298.214226 156.695694 
L 298.539205 140.036091 
L 298.864185 186.787827 
L 299.189164 148.871128 
L 299.514144 238.186299 
L 299.839123 176.243928 
L 300.164103 188.233236 
L 300.489082 147.248109 
L 300.814062 225.037233 
L 301.139041 174.681249 
L 301.464021 169.863563 
L 301.789 158.924043 
L 302.11398 254.487576 
L 302.438959 267.1251 
L 302.763939 158.55137 
L 303.088918 184.90282 
L 303.413898 168.036915 
L 303.738877 162.479869 
L 304.063857 210.634709 
L 304.388837 198.812469 
L 304.713816 121.092709 
L 305.038796 186.34098 
L 305.363775 224.918107 
L 305.688755 165.313694 
L 306.013734 169.285219 
L 306.663693 129.633012 
L 306.988673 156.396544 
L 307.313652 201.531393 
L 307.638632 123.911288 
L 307.963611 174.155175 
L 308.288591 168.686214 
L 308.61357 249.039653 
L 308.93855 171.01274 
L 309.263529 221.163644 
L 309.588509 115.882356 
L 309.913488 178.661344 
L 310.238468 175.912981 
L 310.563447 171.407201 
L 310.888427 215.429833 
L 311.213407 80.16063 
L 311.538386 130.218317 
L 311.863366 107.168017 
L 312.188345 196.301157 
L 312.513325 110.939826 
L 312.838304 189.10904 
L 313.163284 182.846437 
L 313.488263 214.225779 
L 313.813243 112.646718 
L 314.138222 178.811506 
L 314.463202 64.526196 
L 314.788181 138.698257 
L 315.113161 179.541115 
L 315.43814 131.072595 
L 315.76312 168.049209 
L 316.088099 125.531778 
L 316.413079 222.750423 
L 316.738058 176.347951 
L 317.063038 238.940194 
L 317.388018 232.683455 
L 317.712997 199.752714 
L 318.037977 221.485159 
L 318.362956 136.659446 
L 318.687936 142.83288 
L 319.012915 146.199519 
L 319.337895 59.349291 
L 319.662874 234.272459 
L 319.987854 137.146736 
L 320.312833 174.643193 
L 320.637813 173.279809 
L 320.962792 160.619108 
L 321.287772 57.658233 
L 321.612751 182.21604 
L 321.937731 193.817631 
L 322.26271 152.406029 
L 322.58769 183.445833 
L 322.912669 114.314389 
L 323.237649 106.791681 
L 323.562628 34.656 
L 323.887608 155.45086 
L 324.212588 122.191892 
L 324.537567 232.354052 
L 324.862547 87.356268 
L 325.187526 113.125962 
L 325.512506 83.990373 
L 325.837485 239.892479 
L 326.162465 160.896686 
L 326.487444 223.261283 
L 327.137403 110.312629 
L 327.462383 197.785399 
L 327.787362 172.954929 
L 328.112342 225.881421 
L 328.437321 156.58506 
L 328.762301 123.92271 
L 329.08728 125.70719 
L 329.41226 67.352118 
L 329.737239 126.819081 
L 330.387199 188.272606 
L 330.712178 167.660032 
L 331.037158 116.632489 
L 331.362137 183.22101 
L 331.687117 112.526073 
L 332.012096 105.83066 
L 332.337076 138.616031 
L 332.662055 191.884783 
L 332.987035 191.156335 
L 333.312014 132.164057 
L 333.636994 160.310881 
L 333.961973 113.07167 
L 334.286953 174.946936 
L 334.611932 140.335297 
L 335.261891 202.18997 
L 335.586871 113.802774 
L 335.91185 218.536764 
L 336.23683 137.416569 
L 336.561809 229.296748 
L 336.886789 168.250733 
L 337.211769 231.04093 
L 337.536748 169.596261 
L 337.861728 176.422917 
L 338.186707 136.845208 
L 338.511687 246.527967 
L 338.836666 177.410239 
L 339.486625 118.219086 
L 339.811605 154.076809 
L 340.136584 119.468411 
L 340.461564 128.895585 
L 340.786543 106.846601 
L 341.436502 79.899237 
L 341.761482 213.843011 
L 342.086461 129.438723 
L 342.411441 240.248566 
L 343.0614 74.696515 
L 343.38638 183.112157 
L 343.711359 236.294476 
L 344.036339 198.276369 
L 344.361318 78.749994 
L 344.686298 151.252855 
L 345.011277 169.807602 
L 345.336257 91.596293 
L 345.661236 183.705755 
L 345.986216 201.563766 
L 346.311195 95.493628 
L 346.636175 148.831066 
L 346.961154 119.438365 
L 347.286134 209.204574 
L 347.611113 146.135837 
L 347.936093 217.250985 
L 348.261072 122.392348 
L 348.586052 230.700821 
L 348.911031 142.376705 
L 349.236011 183.625145 
L 349.56099 192.435626 
L 349.88597 185.595811 
L 350.21095 132.467543 
L 350.535929 146.589266 
L 350.860909 179.940362 
L 351.185888 158.247756 
L 351.510868 175.195139 
L 351.835847 163.285684 
L 352.485806 225.763385 
L 353.135765 124.709669 
L 353.460745 162.537713 
L 353.785724 131.018698 
L 354.110704 123.405244 
L 354.435683 217.41547 
L 354.760663 213.624745 
L 355.085642 143.340731 
L 355.410622 168.848521 
L 355.735601 125.550454 
L 356.060581 130.299522 
L 356.385561 188.331959 
L 356.71054 123.447573 
L 357.03552 147.26856 
L 357.360499 88.181904 
L 357.685479 190.659624 
L 358.010458 127.351411 
L 358.335438 161.531105 
L 358.660417 276.432397 
L 358.985397 167.218951 
L 359.310376 210.445995 
L 359.635356 172.645129 
L 359.960335 74.418695 
L 360.285315 118.29489 
L 360.610294 93.546645 
L 360.935274 198.939202 
L 361.260253 211.895994 
L 361.910212 95.555161 
L 362.235192 218.570563 
L 362.560171 69.002519 
L 362.885151 188.6259 
L 363.210131 224.441391 
L 363.53511 171.872268 
L 364.185069 126.485414 
L 364.510049 203.264549 
L 364.835028 174.176165 
L 365.160008 119.030696 
L 365.484987 183.094103 
L 365.809967 167.434403 
L 366.134946 195.573883 
L 366.459926 149.96537 
L 366.784905 236.762178 
L 367.109885 174.687105 
L 367.434864 216.011284 
L 367.759844 115.236959 
L 368.084823 122.751077 
L 368.409803 126.419062 
L 368.734782 75.372072 
L 369.059762 163.320345 
L 369.384742 177.048326 
L 369.709721 160.955517 
L 370.034701 178.959055 
L 370.35968 118.59356 
L 370.68466 186.657684 
L 371.009639 203.795587 
L 371.659598 131.449857 
L 371.984578 159.983328 
L 372.309557 132.679543 
L 372.634537 174.873221 
L 372.959516 187.427319 
L 373.284496 216.061314 
L 373.609475 189.963668 
L 373.934455 247.778005 
L 374.259434 109.857479 
L 374.584414 169.269792 
L 374.909393 174.617688 
L 375.234373 195.637372 
L 375.559352 192.896605 
L 375.884332 162.791118 
L 376.209312 176.001468 
L 376.534291 172.345987 
L 376.859271 128.109484 
L 377.18425 218.905676 
L 377.50923 137.359451 
L 377.834209 95.348768 
L 378.159189 110.614714 
L 378.484168 139.597215 
L 378.809148 201.066924 
L 378.809148 201.066924 
" clip-path="url(#p735b5cbe02)" style="fill: none; stroke: #000000; stroke-width: 1.5; stroke-linecap: square"/>
   </g>
   <g id="patch_3">
    <path d="M 37.921875 288.672 
L 37.921875 22.56 
" style="fill: none; stroke: #000000; stroke-width: 0.8; stroke-linejoin: miter; stroke-linecap: square"/>
   </g>
   <g id="patch_4">
    <path d="M 395.041875 288.672 
L 395.041875 22.56 
" style="fill: none; stroke: #000000; stroke-width: 0.8; stroke-linejoin: miter; stroke-linecap: square"/>
   </g>
   <g id="patch_5">
    <path d="M 37.921875 288.672 
L 395.041875 288.672 
" style="fill: none; stroke: #000000; stroke-width: 0.8; stroke-linejoin: miter; stroke-linecap: square"/>
   </g>
   <g id="patch_6">
    <path d="M 37.921875 22.56 
L 395.041875 22.56 
" style="fill: none; stroke: #000000; stroke-width: 0.8; stroke-linejoin: miter; stroke-linecap: square"/>
   </g>
   <g id="text_16">
    <!-- $N =1000$ values from $\mathcal{N}$(0,1) -->
    <g transform="translate(144.961875 16.56) scale(0.12 -0.12)">
     <defs>
      <path id="Cmmi10-4e" d="M 300 0 
Q 238 0 238 84 
Q 241 100 250 139 
Q 259 178 276 201 
Q 294 225 319 225 
Q 931 225 1031 616 
L 1900 4116 
Q 1722 4147 1338 4147 
Q 1275 4147 1275 4231 
Q 1278 4247 1287 4286 
Q 1297 4325 1314 4348 
Q 1331 4372 1356 4372 
L 2463 4372 
Q 2509 4372 2522 4331 
L 3944 947 
L 4653 3781 
Q 4666 3850 4666 3878 
Q 4666 4147 4172 4147 
Q 4109 4147 4109 4231 
Q 4131 4313 4143 4342 
Q 4156 4372 4219 4372 
L 5588 4372 
Q 5650 4372 5650 4288 
Q 5647 4272 5637 4233 
Q 5628 4194 5611 4170 
Q 5594 4147 5569 4147 
Q 4956 4147 4856 3756 
L 3938 56 
Q 3916 0 3872 0 
L 3794 0 
Q 3750 0 3738 44 
L 2106 3916 
L 2094 3956 
Q 2081 3969 2081 3975 
L 1234 588 
Q 1228 572 1225 548 
Q 1222 525 1216 494 
Q 1216 328 1359 276 
Q 1503 225 1716 225 
Q 1778 225 1778 141 
Q 1756 53 1740 26 
Q 1725 0 1672 0 
L 300 0 
z
" transform="scale(0.015625)"/>
      <path id="Cmr10-3d" d="M 481 850 
Q 428 850 393 890 
Q 359 931 359 978 
Q 359 1031 393 1068 
Q 428 1106 481 1106 
L 4500 1106 
Q 4547 1106 4581 1068 
Q 4616 1031 4616 978 
Q 4616 931 4581 890 
Q 4547 850 4500 850 
L 481 850 
z
M 481 2094 
Q 428 2094 393 2131 
Q 359 2169 359 2222 
Q 359 2269 393 2309 
Q 428 2350 481 2350 
L 4500 2350 
Q 4547 2350 4581 2309 
Q 4616 2269 4616 2222 
Q 4616 2169 4581 2131 
Q 4547 2094 4500 2094 
L 481 2094 
z
" transform="scale(0.015625)"/>
      <path id="Cmr10-31" d="M 594 0 
L 594 225 
Q 1394 225 1394 428 
L 1394 3788 
Q 1063 3628 556 3628 
L 556 3853 
Q 1341 3853 1741 4263 
L 1831 4263 
Q 1853 4263 1873 4245 
Q 1894 4228 1894 4206 
L 1894 428 
Q 1894 225 2694 225 
L 2694 0 
L 594 0 
z
" transform="scale(0.015625)"/>
      <path id="Cmr10-30" d="M 1600 -141 
Q 816 -141 533 504 
Q 250 1150 250 2041 
Q 250 2597 351 3087 
Q 453 3578 754 3920 
Q 1056 4263 1600 4263 
Q 2022 4263 2290 4056 
Q 2559 3850 2700 3523 
Q 2841 3197 2892 2823 
Q 2944 2450 2944 2041 
Q 2944 1491 2842 1011 
Q 2741 531 2444 195 
Q 2147 -141 1600 -141 
z
M 1600 25 
Q 1956 25 2131 390 
Q 2306 756 2347 1200 
Q 2388 1644 2388 2144 
Q 2388 2625 2347 3031 
Q 2306 3438 2132 3767 
Q 1959 4097 1600 4097 
Q 1238 4097 1063 3765 
Q 888 3434 847 3029 
Q 806 2625 806 2144 
Q 806 1788 823 1472 
Q 841 1156 916 820 
Q 991 484 1158 254 
Q 1325 25 1600 25 
z
" transform="scale(0.015625)"/>
      <path id="TimesNewRomanPSMT-20" transform="scale(0.015625)"/>
      <path id="TimesNewRomanPSMT-76" d="M 53 2863 
L 1400 2863 
L 1400 2747 
L 1313 2747 
Q 1191 2747 1127 2687 
Q 1063 2628 1063 2528 
Q 1063 2419 1128 2269 
L 1794 688 
L 2463 2328 
Q 2534 2503 2534 2594 
Q 2534 2638 2509 2666 
Q 2475 2713 2422 2730 
Q 2369 2747 2206 2747 
L 2206 2863 
L 3141 2863 
L 3141 2747 
Q 2978 2734 2916 2681 
Q 2806 2588 2719 2369 
L 1703 -88 
L 1575 -88 
L 553 2328 
Q 484 2497 421 2570 
Q 359 2644 263 2694 
Q 209 2722 53 2747 
L 53 2863 
z
" transform="scale(0.015625)"/>
      <path id="TimesNewRomanPSMT-61" d="M 1822 413 
Q 1381 72 1269 19 
Q 1100 -59 909 -59 
Q 613 -59 420 144 
Q 228 347 228 678 
Q 228 888 322 1041 
Q 450 1253 767 1440 
Q 1084 1628 1822 1897 
L 1822 2009 
Q 1822 2438 1686 2597 
Q 1550 2756 1291 2756 
Q 1094 2756 978 2650 
Q 859 2544 859 2406 
L 866 2225 
Q 866 2081 792 2003 
Q 719 1925 600 1925 
Q 484 1925 411 2006 
Q 338 2088 338 2228 
Q 338 2497 613 2722 
Q 888 2947 1384 2947 
Q 1766 2947 2009 2819 
Q 2194 2722 2281 2516 
Q 2338 2381 2338 1966 
L 2338 994 
Q 2338 584 2353 492 
Q 2369 400 2405 369 
Q 2441 338 2488 338 
Q 2538 338 2575 359 
Q 2641 400 2828 588 
L 2828 413 
Q 2478 -56 2159 -56 
Q 2006 -56 1915 50 
Q 1825 156 1822 413 
z
M 1822 616 
L 1822 1706 
Q 1350 1519 1213 1441 
Q 966 1303 859 1153 
Q 753 1003 753 825 
Q 753 600 887 451 
Q 1022 303 1197 303 
Q 1434 303 1822 616 
z
" transform="scale(0.015625)"/>
      <path id="TimesNewRomanPSMT-6c" d="M 1184 4444 
L 1184 647 
Q 1184 378 1223 290 
Q 1263 203 1344 158 
Q 1425 113 1647 113 
L 1647 0 
L 244 0 
L 244 113 
Q 441 113 512 153 
Q 584 194 625 287 
Q 666 381 666 647 
L 666 3247 
Q 666 3731 644 3842 
Q 622 3953 573 3993 
Q 525 4034 450 4034 
Q 369 4034 244 3984 
L 191 4094 
L 1044 4444 
L 1184 4444 
z
" transform="scale(0.015625)"/>
      <path id="TimesNewRomanPSMT-75" d="M 2709 2863 
L 2709 1128 
Q 2709 631 2732 520 
Q 2756 409 2807 365 
Q 2859 322 2928 322 
Q 3025 322 3147 375 
L 3191 266 
L 2334 -88 
L 2194 -88 
L 2194 519 
Q 1825 119 1631 15 
Q 1438 -88 1222 -88 
Q 981 -88 804 51 
Q 628 191 559 409 
Q 491 628 491 1028 
L 491 2306 
Q 491 2509 447 2587 
Q 403 2666 317 2708 
Q 231 2750 6 2747 
L 6 2863 
L 1009 2863 
L 1009 947 
Q 1009 547 1148 422 
Q 1288 297 1484 297 
Q 1619 297 1789 381 
Q 1959 466 2194 703 
L 2194 2325 
Q 2194 2569 2105 2655 
Q 2016 2741 1734 2747 
L 1734 2863 
L 2709 2863 
z
" transform="scale(0.015625)"/>
      <path id="TimesNewRomanPSMT-65" d="M 681 1784 
Q 678 1147 991 784 
Q 1303 422 1725 422 
Q 2006 422 2214 576 
Q 2422 731 2563 1106 
L 2659 1044 
Q 2594 616 2278 264 
Q 1963 -88 1488 -88 
Q 972 -88 605 314 
Q 238 716 238 1394 
Q 238 2128 614 2539 
Q 991 2950 1559 2950 
Q 2041 2950 2350 2633 
Q 2659 2316 2659 1784 
L 681 1784 
z
M 681 1966 
L 2006 1966 
Q 1991 2241 1941 2353 
Q 1863 2528 1708 2628 
Q 1553 2728 1384 2728 
Q 1125 2728 920 2526 
Q 716 2325 681 1966 
z
" transform="scale(0.015625)"/>
      <path id="TimesNewRomanPSMT-73" d="M 2050 2947 
L 2050 1972 
L 1947 1972 
Q 1828 2431 1642 2597 
Q 1456 2763 1169 2763 
Q 950 2763 815 2647 
Q 681 2531 681 2391 
Q 681 2216 781 2091 
Q 878 1963 1175 1819 
L 1631 1597 
Q 2266 1288 2266 781 
Q 2266 391 1970 151 
Q 1675 -88 1309 -88 
Q 1047 -88 709 6 
Q 606 38 541 38 
Q 469 38 428 -44 
L 325 -44 
L 325 978 
L 428 978 
Q 516 541 762 319 
Q 1009 97 1316 97 
Q 1531 97 1667 223 
Q 1803 350 1803 528 
Q 1803 744 1651 891 
Q 1500 1038 1047 1263 
Q 594 1488 453 1669 
Q 313 1847 313 2119 
Q 313 2472 555 2709 
Q 797 2947 1181 2947 
Q 1350 2947 1591 2875 
Q 1750 2828 1803 2828 
Q 1853 2828 1881 2850 
Q 1909 2872 1947 2947 
L 2050 2947 
z
" transform="scale(0.015625)"/>
      <path id="TimesNewRomanPSMT-66" d="M 1319 2638 
L 1319 756 
Q 1319 356 1406 250 
Q 1522 113 1716 113 
L 1975 113 
L 1975 0 
L 266 0 
L 266 113 
L 394 113 
Q 519 113 622 175 
Q 725 238 764 344 
Q 803 450 803 756 
L 803 2638 
L 247 2638 
L 247 2863 
L 803 2863 
L 803 3050 
Q 803 3478 940 3775 
Q 1078 4072 1361 4255 
Q 1644 4438 1997 4438 
Q 2325 4438 2600 4225 
Q 2781 4084 2781 3909 
Q 2781 3816 2700 3733 
Q 2619 3650 2525 3650 
Q 2453 3650 2373 3701 
Q 2294 3753 2178 3923 
Q 2063 4094 1966 4153 
Q 1869 4213 1750 4213 
Q 1606 4213 1506 4136 
Q 1406 4059 1362 3898 
Q 1319 3738 1319 3069 
L 1319 2863 
L 2056 2863 
L 2056 2638 
L 1319 2638 
z
" transform="scale(0.015625)"/>
      <path id="TimesNewRomanPSMT-72" d="M 1038 2947 
L 1038 2303 
Q 1397 2947 1775 2947 
Q 1947 2947 2059 2842 
Q 2172 2738 2172 2600 
Q 2172 2478 2090 2393 
Q 2009 2309 1897 2309 
Q 1788 2309 1652 2417 
Q 1516 2525 1450 2525 
Q 1394 2525 1328 2463 
Q 1188 2334 1038 2041 
L 1038 669 
Q 1038 431 1097 309 
Q 1138 225 1241 169 
Q 1344 113 1538 113 
L 1538 0 
L 72 0 
L 72 113 
Q 291 113 397 181 
Q 475 231 506 341 
Q 522 394 522 644 
L 522 1753 
Q 522 2253 501 2348 
Q 481 2444 426 2487 
Q 372 2531 291 2531 
Q 194 2531 72 2484 
L 41 2597 
L 906 2947 
L 1038 2947 
z
" transform="scale(0.015625)"/>
      <path id="TimesNewRomanPSMT-6f" d="M 1600 2947 
Q 2250 2947 2644 2453 
Q 2978 2031 2978 1484 
Q 2978 1100 2793 706 
Q 2609 313 2286 112 
Q 1963 -88 1566 -88 
Q 919 -88 538 428 
Q 216 863 216 1403 
Q 216 1797 411 2186 
Q 606 2575 925 2761 
Q 1244 2947 1600 2947 
z
M 1503 2744 
Q 1338 2744 1170 2645 
Q 1003 2547 900 2300 
Q 797 2053 797 1666 
Q 797 1041 1045 587 
Q 1294 134 1700 134 
Q 2003 134 2200 384 
Q 2397 634 2397 1244 
Q 2397 2006 2069 2444 
Q 1847 2744 1503 2744 
z
" transform="scale(0.015625)"/>
      <path id="TimesNewRomanPSMT-6d" d="M 1050 2338 
Q 1363 2650 1419 2697 
Q 1559 2816 1721 2881 
Q 1884 2947 2044 2947 
Q 2313 2947 2506 2790 
Q 2700 2634 2766 2338 
Q 3088 2713 3309 2830 
Q 3531 2947 3766 2947 
Q 3994 2947 4170 2830 
Q 4347 2713 4450 2447 
Q 4519 2266 4519 1878 
L 4519 647 
Q 4519 378 4559 278 
Q 4591 209 4675 161 
Q 4759 113 4950 113 
L 4950 0 
L 3538 0 
L 3538 113 
L 3597 113 
Q 3781 113 3884 184 
Q 3956 234 3988 344 
Q 4000 397 4000 647 
L 4000 1878 
Q 4000 2228 3916 2372 
Q 3794 2572 3525 2572 
Q 3359 2572 3192 2489 
Q 3025 2406 2788 2181 
L 2781 2147 
L 2788 2013 
L 2788 647 
Q 2788 353 2820 281 
Q 2853 209 2943 161 
Q 3034 113 3253 113 
L 3253 0 
L 1806 0 
L 1806 113 
Q 2044 113 2133 169 
Q 2222 225 2256 338 
Q 2272 391 2272 647 
L 2272 1878 
Q 2272 2228 2169 2381 
Q 2031 2581 1784 2581 
Q 1616 2581 1450 2491 
Q 1191 2353 1050 2181 
L 1050 647 
Q 1050 366 1089 281 
Q 1128 197 1204 155 
Q 1281 113 1516 113 
L 1516 0 
L 100 0 
L 100 113 
Q 297 113 375 155 
Q 453 197 493 289 
Q 534 381 534 647 
L 534 1741 
Q 534 2213 506 2350 
Q 484 2453 437 2492 
Q 391 2531 309 2531 
Q 222 2531 100 2484 
L 53 2597 
L 916 2947 
L 1050 2947 
L 1050 2338 
z
" transform="scale(0.015625)"/>
      <path id="Cmsy10-4e" d="M -184 13 
Q -184 131 -103 322 
Q -22 513 72 513 
Q 84 513 91 506 
Q 294 294 594 294 
Q 763 294 892 598 
Q 1022 903 1147 1306 
Q 1213 1509 1308 1837 
Q 1403 2166 1453 2369 
Q 1497 2538 1558 2827 
Q 1619 3116 1658 3331 
Q 1697 3547 1728 3772 
Q 1759 3997 1784 4244 
Q 1784 4278 1831 4325 
Q 1900 4397 1997 4453 
Q 2088 4494 2181 4513 
L 2234 4513 
Q 2272 4494 2278 4469 
Q 2438 3909 2675 3200 
Q 2891 2544 3044 2125 
Q 3197 1706 3405 1242 
Q 3613 778 3859 384 
Q 4194 1819 4525 2988 
L 4609 3284 
Q 4747 3769 4836 4039 
Q 4925 4309 5063 4525 
Q 5175 4700 5356 4800 
Q 5538 4900 5753 4942 
Q 5969 4984 6203 4984 
Q 6259 4984 6259 4878 
Q 6259 4803 6226 4686 
Q 6194 4569 6137 4478 
Q 6081 4388 6009 4372 
Q 5756 4372 5557 4331 
Q 5359 4291 5197 4184 
Q 5116 4125 5102 4094 
Q 5088 4063 5038 3909 
Q 4956 3684 4872 3366 
L 4788 3078 
Q 4625 2491 4498 2006 
Q 4372 1522 4256 1045 
Q 4141 569 4031 84 
Q 4034 84 4029 92 
Q 4025 100 4025 103 
Q 4025 47 3951 -15 
Q 3878 -78 3783 -120 
Q 3688 -163 3628 -172 
L 3584 -172 
Q 3478 -119 3222 368 
Q 2966 856 2834 1172 
Q 2359 2347 1966 3628 
Q 1916 3319 1759 2648 
Q 1603 1978 1387 1297 
Q 1172 616 914 148 
Q 656 -319 397 -319 
Q 231 -319 23 -225 
Q -184 -131 -184 13 
z
" transform="scale(0.015625)"/>
      <path id="TimesNewRomanPSMT-28" d="M 1988 -1253 
L 1988 -1369 
Q 1516 -1131 1200 -813 
Q 750 -359 506 256 
Q 263 872 263 1534 
Q 263 2503 741 3301 
Q 1219 4100 1988 4444 
L 1988 4313 
Q 1603 4100 1356 3731 
Q 1109 3363 987 2797 
Q 866 2231 866 1616 
Q 866 947 969 400 
Q 1050 -31 1165 -292 
Q 1281 -553 1476 -793 
Q 1672 -1034 1988 -1253 
z
" transform="scale(0.015625)"/>
      <path id="TimesNewRomanPSMT-2c" d="M 344 -1066 
L 344 -928 
Q 666 -822 842 -598 
Q 1019 -375 1019 -125 
Q 1019 -66 991 -25 
Q 969 3 947 3 
Q 913 3 797 -59 
Q 741 -88 678 -88 
Q 525 -88 434 3 
Q 344 94 344 253 
Q 344 406 461 515 
Q 578 625 747 625 
Q 953 625 1114 445 
Q 1275 266 1275 -31 
Q 1275 -353 1051 -629 
Q 828 -906 344 -1066 
z
" transform="scale(0.015625)"/>
      <path id="TimesNewRomanPSMT-29" d="M 144 4313 
L 144 4444 
Q 619 4209 934 3891 
Q 1381 3434 1625 2820 
Q 1869 2206 1869 1541 
Q 1869 572 1392 -226 
Q 916 -1025 144 -1369 
L 144 -1253 
Q 528 -1038 776 -670 
Q 1025 -303 1145 264 
Q 1266 831 1266 1447 
Q 1266 2113 1163 2663 
Q 1084 3094 967 3353 
Q 850 3613 656 3853 
Q 463 4094 144 4313 
z
" transform="scale(0.015625)"/>
     </defs>
     <use xlink:href="#Cmmi10-4e" transform="translate(0 0.125)"/>
     <use xlink:href="#Cmr10-3d" transform="translate(97.880859 0.125)"/>
     <use xlink:href="#Cmr10-31" transform="translate(193.125 0.125)"/>
     <use xlink:href="#Cmr10-30" transform="translate(243.125 0.125)"/>
     <use xlink:href="#Cmr10-30" transform="translate(293.125 0.125)"/>
     <use xlink:href="#Cmr10-30" transform="translate(343.125 0.125)"/>
     <use xlink:href="#TimesNewRomanPSMT-20" transform="translate(393.125 0.125)"/>
     <use xlink:href="#TimesNewRomanPSMT-76" transform="translate(418.125 0.125)"/>
     <use xlink:href="#TimesNewRomanPSMT-61" transform="translate(468.125 0.125)"/>
     <use xlink:href="#TimesNewRomanPSMT-6c" transform="translate(512.509766 0.125)"/>
     <use xlink:href="#TimesNewRomanPSMT-75" transform="translate(540.292969 0.125)"/>
     <use xlink:href="#TimesNewRomanPSMT-65" transform="translate(590.292969 0.125)"/>
     <use xlink:href="#TimesNewRomanPSMT-73" transform="translate(634.677734 0.125)"/>
     <use xlink:href="#TimesNewRomanPSMT-20" transform="translate(673.59375 0.125)"/>
     <use xlink:href="#TimesNewRomanPSMT-66" transform="translate(698.59375 0.125)"/>
     <use xlink:href="#TimesNewRomanPSMT-72" transform="translate(731.894531 0.125)"/>
     <use xlink:href="#TimesNewRomanPSMT-6f" transform="translate(765.195312 0.125)"/>
     <use xlink:href="#TimesNewRomanPSMT-6d" transform="translate(815.195312 0.125)"/>
     <use xlink:href="#TimesNewRomanPSMT-20" transform="translate(892.978516 0.125)"/>
     <use xlink:href="#Cmsy10-4e" transform="translate(917.978516 0.125)"/>
     <use xlink:href="#TimesNewRomanPSMT-28" transform="translate(999.960938 0.125)"/>
     <use xlink:href="#TimesNewRomanPSMT-30" transform="translate(1033.261719 0.125)"/>
     <use xlink:href="#TimesNewRomanPSMT-2c" transform="translate(1083.261719 0.125)"/>
     <use xlink:href="#TimesNewRomanPSMT-31" transform="translate(1108.261719 0.125)"/>
     <use xlink:href="#TimesNewRomanPSMT-29" transform="translate(1158.261719 0.125)"/>
    </g>
   </g>
  </g>
 </g>
 <defs>
  <clipPath id="p735b5cbe02">
   <rect x="37.921875" y="22.56" width="357.12" height="266.112"/>
  </clipPath>
 </defs>
</svg>
