<?xml version="1.0" encoding="utf-8" standalone="no"?>
<!DOCTYPE svg PUBLIC "-//W3C//DTD SVG 1.1//EN"
  "http://www.w3.org/Graphics/SVG/1.1/DTD/svg11.dtd">
<svg xmlns:xlink="http://www.w3.org/1999/xlink" width="400.785625pt" height="297.190125pt" viewBox="0 0 400.785625 297.190125" xmlns="http://www.w3.org/2000/svg" version="1.1">
 <metadata>
  <rdf:RDF xmlns:dc="http://purl.org/dc/elements/1.1/" xmlns:cc="http://creativecommons.org/ns#" xmlns:rdf="http://www.w3.org/1999/02/22-rdf-syntax-ns#">
   <cc:Work>
    <dc:type rdf:resource="http://purl.org/dc/dcmitype/StillImage"/>
    <dc:date>2025-04-04T21:18:48.983390</dc:date>
    <dc:format>image/svg+xml</dc:format>
    <dc:creator>
     <cc:Agent>
      <dc:title>Matplotlib v3.5.2, https://matplotlib.org/</dc:title>
     </cc:Agent>
    </dc:creator>
   </cc:Work>
  </rdf:RDF>
 </metadata>
 <defs>
  <style type="text/css">*{stroke-linejoin: round; stroke-linecap: butt}</style>
 </defs>
 <g id="figure_1">
  <g id="patch_1">
   <path d="M 0 297.190125 
L 400.785625 297.190125 
L 400.785625 0 
L 0 0 
L 0 297.190125 
z
" style="fill: none"/>
  </g>
  <g id="axes_1">
   <g id="patch_2">
    <path d="M 36.465625 273.312 
L 393.585625 273.312 
L 393.585625 7.2 
L 36.465625 7.2 
L 36.465625 273.312 
z
" style="fill: none"/>
   </g>
   <g id="matplotlib.axis_1">
    <g id="xtick_1">
     <g id="line2d_1">
      <defs>
       <path id="m6dfe553990" d="M 0 0 
L 0 3.5 
" style="stroke: #000000; stroke-width: 0.8"/>
      </defs>
      <g>
       <use xlink:href="#m6dfe553990" x="52.698352" y="273.312" style="stroke: #000000; stroke-width: 0.8"/>
      </g>
     </g>
     <g id="text_1">
      <!-- 0.0 -->
      <g transform="translate(44.74679 287.910437)scale(0.1 -0.1)">
       <defs>
        <path id="DejaVuSans-30" d="M 2034 4250 
Q 1547 4250 1301 3770 
Q 1056 3291 1056 2328 
Q 1056 1369 1301 889 
Q 1547 409 2034 409 
Q 2525 409 2770 889 
Q 3016 1369 3016 2328 
Q 3016 3291 2770 3770 
Q 2525 4250 2034 4250 
z
M 2034 4750 
Q 2819 4750 3233 4129 
Q 3647 3509 3647 2328 
Q 3647 1150 3233 529 
Q 2819 -91 2034 -91 
Q 1250 -91 836 529 
Q 422 1150 422 2328 
Q 422 3509 836 4129 
Q 1250 4750 2034 4750 
z
" transform="scale(0.015625)"/>
        <path id="DejaVuSans-2e" d="M 684 794 
L 1344 794 
L 1344 0 
L 684 0 
L 684 794 
z
" transform="scale(0.015625)"/>
       </defs>
       <use xlink:href="#DejaVuSans-30"/>
       <use xlink:href="#DejaVuSans-2e" x="63.623047"/>
       <use xlink:href="#DejaVuSans-30" x="95.410156"/>
      </g>
     </g>
    </g>
    <g id="xtick_2">
     <g id="line2d_2">
      <g>
       <use xlink:href="#m6dfe553990" x="117.759383" y="273.312" style="stroke: #000000; stroke-width: 0.8"/>
      </g>
     </g>
     <g id="text_2">
      <!-- 0.1 -->
      <g transform="translate(109.807821 287.910437)scale(0.1 -0.1)">
       <defs>
        <path id="DejaVuSans-31" d="M 794 531 
L 1825 531 
L 1825 4091 
L 703 3866 
L 703 4441 
L 1819 4666 
L 2450 4666 
L 2450 531 
L 3481 531 
L 3481 0 
L 794 0 
L 794 531 
z
" transform="scale(0.015625)"/>
       </defs>
       <use xlink:href="#DejaVuSans-30"/>
       <use xlink:href="#DejaVuSans-2e" x="63.623047"/>
       <use xlink:href="#DejaVuSans-31" x="95.410156"/>
      </g>
     </g>
    </g>
    <g id="xtick_3">
     <g id="line2d_3">
      <g>
       <use xlink:href="#m6dfe553990" x="182.820415" y="273.312" style="stroke: #000000; stroke-width: 0.8"/>
      </g>
     </g>
     <g id="text_3">
      <!-- 0.2 -->
      <g transform="translate(174.868852 287.910437)scale(0.1 -0.1)">
       <defs>
        <path id="DejaVuSans-32" d="M 1228 531 
L 3431 531 
L 3431 0 
L 469 0 
L 469 531 
Q 828 903 1448 1529 
Q 2069 2156 2228 2338 
Q 2531 2678 2651 2914 
Q 2772 3150 2772 3378 
Q 2772 3750 2511 3984 
Q 2250 4219 1831 4219 
Q 1534 4219 1204 4116 
Q 875 4013 500 3803 
L 500 4441 
Q 881 4594 1212 4672 
Q 1544 4750 1819 4750 
Q 2544 4750 2975 4387 
Q 3406 4025 3406 3419 
Q 3406 3131 3298 2873 
Q 3191 2616 2906 2266 
Q 2828 2175 2409 1742 
Q 1991 1309 1228 531 
z
" transform="scale(0.015625)"/>
       </defs>
       <use xlink:href="#DejaVuSans-30"/>
       <use xlink:href="#DejaVuSans-2e" x="63.623047"/>
       <use xlink:href="#DejaVuSans-32" x="95.410156"/>
      </g>
     </g>
    </g>
    <g id="xtick_4">
     <g id="line2d_4">
      <g>
       <use xlink:href="#m6dfe553990" x="247.881446" y="273.312" style="stroke: #000000; stroke-width: 0.8"/>
      </g>
     </g>
     <g id="text_4">
      <!-- 0.3 -->
      <g transform="translate(239.929883 287.910437)scale(0.1 -0.1)">
       <defs>
        <path id="DejaVuSans-33" d="M 2597 2516 
Q 3050 2419 3304 2112 
Q 3559 1806 3559 1356 
Q 3559 666 3084 287 
Q 2609 -91 1734 -91 
Q 1441 -91 1130 -33 
Q 819 25 488 141 
L 488 750 
Q 750 597 1062 519 
Q 1375 441 1716 441 
Q 2309 441 2620 675 
Q 2931 909 2931 1356 
Q 2931 1769 2642 2001 
Q 2353 2234 1838 2234 
L 1294 2234 
L 1294 2753 
L 1863 2753 
Q 2328 2753 2575 2939 
Q 2822 3125 2822 3475 
Q 2822 3834 2567 4026 
Q 2313 4219 1838 4219 
Q 1578 4219 1281 4162 
Q 984 4106 628 3988 
L 628 4550 
Q 988 4650 1302 4700 
Q 1616 4750 1894 4750 
Q 2613 4750 3031 4423 
Q 3450 4097 3450 3541 
Q 3450 3153 3228 2886 
Q 3006 2619 2597 2516 
z
" transform="scale(0.015625)"/>
       </defs>
       <use xlink:href="#DejaVuSans-30"/>
       <use xlink:href="#DejaVuSans-2e" x="63.623047"/>
       <use xlink:href="#DejaVuSans-33" x="95.410156"/>
      </g>
     </g>
    </g>
    <g id="xtick_5">
     <g id="line2d_5">
      <g>
       <use xlink:href="#m6dfe553990" x="312.942477" y="273.312" style="stroke: #000000; stroke-width: 0.8"/>
      </g>
     </g>
     <g id="text_5">
      <!-- 0.4 -->
      <g transform="translate(304.990914 287.910437)scale(0.1 -0.1)">
       <defs>
        <path id="DejaVuSans-34" d="M 2419 4116 
L 825 1625 
L 2419 1625 
L 2419 4116 
z
M 2253 4666 
L 3047 4666 
L 3047 1625 
L 3713 1625 
L 3713 1100 
L 3047 1100 
L 3047 0 
L 2419 0 
L 2419 1100 
L 313 1100 
L 313 1709 
L 2253 4666 
z
" transform="scale(0.015625)"/>
       </defs>
       <use xlink:href="#DejaVuSans-30"/>
       <use xlink:href="#DejaVuSans-2e" x="63.623047"/>
       <use xlink:href="#DejaVuSans-34" x="95.410156"/>
      </g>
     </g>
    </g>
    <g id="xtick_6">
     <g id="line2d_6">
      <g>
       <use xlink:href="#m6dfe553990" x="378.003508" y="273.312" style="stroke: #000000; stroke-width: 0.8"/>
      </g>
     </g>
     <g id="text_6">
      <!-- 0.5 -->
      <g transform="translate(370.051946 287.910437)scale(0.1 -0.1)">
       <defs>
        <path id="DejaVuSans-35" d="M 691 4666 
L 3169 4666 
L 3169 4134 
L 1269 4134 
L 1269 2991 
Q 1406 3038 1543 3061 
Q 1681 3084 1819 3084 
Q 2600 3084 3056 2656 
Q 3513 2228 3513 1497 
Q 3513 744 3044 326 
Q 2575 -91 1722 -91 
Q 1428 -91 1123 -41 
Q 819 9 494 109 
L 494 744 
Q 775 591 1075 516 
Q 1375 441 1709 441 
Q 2250 441 2565 725 
Q 2881 1009 2881 1497 
Q 2881 1984 2565 2268 
Q 2250 2553 1709 2553 
Q 1456 2553 1204 2497 
Q 953 2441 691 2322 
L 691 4666 
z
" transform="scale(0.015625)"/>
       </defs>
       <use xlink:href="#DejaVuSans-30"/>
       <use xlink:href="#DejaVuSans-2e" x="63.623047"/>
       <use xlink:href="#DejaVuSans-35" x="95.410156"/>
      </g>
     </g>
    </g>
   </g>
   <g id="matplotlib.axis_2">
    <g id="ytick_1">
     <g id="line2d_7">
      <defs>
       <path id="me2b21cf969" d="M 0 0 
L -3.5 0 
" style="stroke: #000000; stroke-width: 0.8"/>
      </defs>
      <g>
       <use xlink:href="#me2b21cf969" x="36.465625" y="261.344937" style="stroke: #000000; stroke-width: 0.8"/>
      </g>
     </g>
     <g id="text_7">
      <!-- 0.0 -->
      <g transform="translate(13.5625 265.144155)scale(0.1 -0.1)">
       <use xlink:href="#DejaVuSans-30"/>
       <use xlink:href="#DejaVuSans-2e" x="63.623047"/>
       <use xlink:href="#DejaVuSans-30" x="95.410156"/>
      </g>
     </g>
    </g>
    <g id="ytick_2">
     <g id="line2d_8">
      <g>
       <use xlink:href="#me2b21cf969" x="36.465625" y="226.764683" style="stroke: #000000; stroke-width: 0.8"/>
      </g>
     </g>
     <g id="text_8">
      <!-- 2.5 -->
      <g transform="translate(13.5625 230.563901)scale(0.1 -0.1)">
       <use xlink:href="#DejaVuSans-32"/>
       <use xlink:href="#DejaVuSans-2e" x="63.623047"/>
       <use xlink:href="#DejaVuSans-35" x="95.410156"/>
      </g>
     </g>
    </g>
    <g id="ytick_3">
     <g id="line2d_9">
      <g>
       <use xlink:href="#me2b21cf969" x="36.465625" y="192.184429" style="stroke: #000000; stroke-width: 0.8"/>
      </g>
     </g>
     <g id="text_9">
      <!-- 5.0 -->
      <g transform="translate(13.5625 195.983647)scale(0.1 -0.1)">
       <use xlink:href="#DejaVuSans-35"/>
       <use xlink:href="#DejaVuSans-2e" x="63.623047"/>
       <use xlink:href="#DejaVuSans-30" x="95.410156"/>
      </g>
     </g>
    </g>
    <g id="ytick_4">
     <g id="line2d_10">
      <g>
       <use xlink:href="#me2b21cf969" x="36.465625" y="157.604175" style="stroke: #000000; stroke-width: 0.8"/>
      </g>
     </g>
     <g id="text_10">
      <!-- 7.5 -->
      <g transform="translate(13.5625 161.403393)scale(0.1 -0.1)">
       <defs>
        <path id="DejaVuSans-37" d="M 525 4666 
L 3525 4666 
L 3525 4397 
L 1831 0 
L 1172 0 
L 2766 4134 
L 525 4134 
L 525 4666 
z
" transform="scale(0.015625)"/>
       </defs>
       <use xlink:href="#DejaVuSans-37"/>
       <use xlink:href="#DejaVuSans-2e" x="63.623047"/>
       <use xlink:href="#DejaVuSans-35" x="95.410156"/>
      </g>
     </g>
    </g>
    <g id="ytick_5">
     <g id="line2d_11">
      <g>
       <use xlink:href="#me2b21cf969" x="36.465625" y="123.023921" style="stroke: #000000; stroke-width: 0.8"/>
      </g>
     </g>
     <g id="text_11">
      <!-- 10.0 -->
      <g transform="translate(7.2 126.823139)scale(0.1 -0.1)">
       <use xlink:href="#DejaVuSans-31"/>
       <use xlink:href="#DejaVuSans-30" x="63.623047"/>
       <use xlink:href="#DejaVuSans-2e" x="127.246094"/>
       <use xlink:href="#DejaVuSans-30" x="159.033203"/>
      </g>
     </g>
    </g>
    <g id="ytick_6">
     <g id="line2d_12">
      <g>
       <use xlink:href="#me2b21cf969" x="36.465625" y="88.443666" style="stroke: #000000; stroke-width: 0.8"/>
      </g>
     </g>
     <g id="text_12">
      <!-- 12.5 -->
      <g transform="translate(7.2 92.242885)scale(0.1 -0.1)">
       <use xlink:href="#DejaVuSans-31"/>
       <use xlink:href="#DejaVuSans-32" x="63.623047"/>
       <use xlink:href="#DejaVuSans-2e" x="127.246094"/>
       <use xlink:href="#DejaVuSans-35" x="159.033203"/>
      </g>
     </g>
    </g>
    <g id="ytick_7">
     <g id="line2d_13">
      <g>
       <use xlink:href="#me2b21cf969" x="36.465625" y="53.863412" style="stroke: #000000; stroke-width: 0.8"/>
      </g>
     </g>
     <g id="text_13">
      <!-- 15.0 -->
      <g transform="translate(7.2 57.662631)scale(0.1 -0.1)">
       <use xlink:href="#DejaVuSans-31"/>
       <use xlink:href="#DejaVuSans-35" x="63.623047"/>
       <use xlink:href="#DejaVuSans-2e" x="127.246094"/>
       <use xlink:href="#DejaVuSans-30" x="159.033203"/>
      </g>
     </g>
    </g>
    <g id="ytick_8">
     <g id="line2d_14">
      <g>
       <use xlink:href="#me2b21cf969" x="36.465625" y="19.283158" style="stroke: #000000; stroke-width: 0.8"/>
      </g>
     </g>
     <g id="text_14">
      <!-- 17.5 -->
      <g transform="translate(7.2 23.082377)scale(0.1 -0.1)">
       <use xlink:href="#DejaVuSans-31"/>
       <use xlink:href="#DejaVuSans-37" x="63.623047"/>
       <use xlink:href="#DejaVuSans-2e" x="127.246094"/>
       <use xlink:href="#DejaVuSans-35" x="159.033203"/>
      </g>
     </g>
    </g>
   </g>
   <g id="line2d_15">
    <path d="M 52.698352 241.850057 
L 53.348963 259.563289 
L 53.999573 229.797797 
L 54.650183 255.597279 
L 55.300794 247.503146 
L 55.951404 250.198544 
L 56.602014 244.757897 
L 57.252624 244.734999 
L 57.903235 174.343228 
L 58.553845 261.100864 
L 59.204455 235.386941 
L 59.855066 151.960886 
L 60.505676 243.753215 
L 61.156286 234.463672 
L 62.457507 242.590003 
L 63.108117 254.274327 
L 63.758728 212.332614 
L 64.409338 246.8962 
L 65.059948 235.376212 
L 65.710559 220.417932 
L 66.361169 216.020811 
L 67.011779 250.222065 
L 67.662389 238.884411 
L 68.313 244.610889 
L 68.96361 257.789571 
L 69.61422 194.802821 
L 70.264831 226.125289 
L 70.915441 238.682724 
L 71.566051 260.338552 
L 72.216662 252.976536 
L 72.867272 157.830033 
L 73.517882 252.148537 
L 74.168493 260.358037 
L 74.819103 242.289921 
L 75.469713 232.233065 
L 76.120323 244.636756 
L 76.770934 253.489169 
L 77.421544 175.708117 
L 78.072154 224.539703 
L 78.722765 224.117457 
L 79.373375 245.750588 
L 80.023985 198.039818 
L 80.674596 216.233041 
L 81.325206 256.847823 
L 81.975816 246.491582 
L 82.626427 219.097702 
L 83.277037 251.89064 
L 83.927647 251.602245 
L 84.578258 256.220495 
L 85.228868 231.379845 
L 85.879478 255.131344 
L 86.530088 237.732326 
L 87.180699 224.096629 
L 87.831309 252.568339 
L 88.481919 206.928374 
L 89.13253 232.609039 
L 89.78314 223.573889 
L 90.43375 253.788549 
L 91.084361 254.550539 
L 91.734971 244.297756 
L 92.385581 221.576055 
L 93.036192 175.997147 
L 93.686802 234.842914 
L 94.337412 235.103621 
L 94.988023 259.6428 
L 95.638633 258.149042 
L 96.289243 255.682387 
L 96.939853 217.861948 
L 97.590464 244.552465 
L 98.241074 252.143348 
L 98.891684 246.542507 
L 99.542295 261.189123 
L 100.192905 245.351457 
L 100.843515 212.500277 
L 101.494126 250.732789 
L 102.144736 246.684941 
L 102.795346 236.04143 
L 103.445957 189.332747 
L 104.096567 230.456374 
L 104.747177 223.397163 
L 105.397788 258.503595 
L 106.048398 178.506135 
L 106.699008 232.725888 
L 108.650839 247.776035 
L 109.301449 221.787586 
L 109.95206 254.893331 
L 110.60267 260.400206 
L 111.25328 261.216 
L 111.903891 259.656498 
L 112.554501 129.930984 
L 113.205111 256.194483 
L 113.855722 233.283331 
L 114.506332 238.069637 
L 115.156942 253.792106 
L 115.807552 202.516954 
L 116.458163 257.341797 
L 117.108773 258.57152 
L 117.759383 228.592438 
L 118.409994 255.177016 
L 119.060604 203.222669 
L 119.711214 237.494926 
L 120.361825 247.028599 
L 121.012435 259.099299 
L 121.663045 243.541064 
L 122.313656 200.571325 
L 122.964266 247.237091 
L 123.614876 254.528129 
L 124.265487 251.448694 
L 124.916097 251.232612 
L 125.566707 200.673297 
L 126.217317 256.462898 
L 126.867928 253.796418 
L 127.518538 246.98102 
L 128.169148 234.091664 
L 128.819759 190.119628 
L 129.470369 258.285996 
L 130.120979 247.655232 
L 130.77159 242.289634 
L 131.4222 239.511632 
L 132.07281 239.134119 
L 132.723421 238.494314 
L 133.374031 261.069855 
L 134.024641 193.677732 
L 134.675252 214.59668 
L 135.325862 205.629621 
L 135.976472 253.297781 
L 136.627082 185.683524 
L 137.277693 255.19421 
L 137.928303 254.850897 
L 138.578913 225.964621 
L 139.229524 232.969912 
L 139.880134 243.898462 
L 140.530744 223.644316 
L 141.181355 251.898825 
L 141.831965 193.6371 
L 142.482575 251.085029 
L 143.133186 258.901631 
L 143.783796 232.099775 
L 144.434406 256.673215 
L 145.085017 223.061846 
L 145.735627 255.71363 
L 146.386237 213.123629 
L 147.036847 203.25824 
L 147.687458 250.635469 
L 148.338068 248.402444 
L 148.988678 201.345341 
L 149.639289 251.990472 
L 150.289899 242.739783 
L 150.940509 242.196392 
L 151.59112 209.916128 
L 152.24173 227.040806 
L 152.89234 251.022033 
L 153.542951 162.785915 
L 154.193561 234.446732 
L 154.844171 254.793924 
L 155.494781 200.174419 
L 156.145392 232.449124 
L 156.796002 206.280847 
L 157.446612 256.864713 
L 158.097223 188.614583 
L 158.747833 167.469366 
L 159.398443 240.218149 
L 160.049054 207.40291 
L 160.699664 245.571416 
L 161.350274 229.476146 
L 162.000885 207.805138 
L 162.651495 252.785235 
L 163.302105 229.066286 
L 163.952716 225.999692 
L 164.603326 228.265234 
L 165.253936 228.641307 
L 165.904546 163.988445 
L 166.555157 255.431167 
L 167.205767 237.216682 
L 167.856377 252.797921 
L 168.506988 253.482631 
L 169.157598 256.939484 
L 169.808208 245.974632 
L 170.458819 185.849135 
L 171.109429 242.087849 
L 172.41065 261.033738 
L 173.06126 257.590174 
L 173.71187 259.740452 
L 174.362481 181.5695 
L 175.013091 255.074973 
L 175.663701 235.363758 
L 176.314311 239.142379 
L 176.964922 244.859026 
L 177.615532 252.573355 
L 178.266142 206.606564 
L 178.916753 257.360681 
L 179.567363 245.245119 
L 180.217973 213.837632 
L 180.868584 253.710059 
L 181.519194 201.961094 
L 182.169804 256.859289 
L 182.820415 260.896748 
L 183.471025 254.746186 
L 184.121635 214.921253 
L 184.772246 244.358705 
L 185.422856 220.949278 
L 186.073466 213.385286 
L 186.724076 255.408294 
L 187.374687 239.833634 
L 188.025297 247.088132 
L 188.675907 197.349403 
L 189.326518 260.713456 
L 189.977128 257.483237 
L 190.627738 245.206642 
L 191.278349 258.441613 
L 191.928959 248.412749 
L 192.579569 249.918246 
L 193.23018 247.357555 
L 193.88079 229.679518 
L 194.5314 235.866474 
L 195.18201 250.067233 
L 195.832621 232.596406 
L 196.483231 249.1051 
L 197.133841 236.45308 
L 197.784452 258.316753 
L 198.435062 226.768929 
L 199.085672 257.943818 
L 199.736283 242.961751 
L 200.386893 258.05386 
L 201.037503 250.080227 
L 201.688114 197.54512 
L 202.338724 218.234854 
L 202.989334 190.971315 
L 203.639945 239.805323 
L 204.290555 216.648518 
L 204.941165 257.647895 
L 205.591775 198.879738 
L 206.242386 245.382135 
L 206.892996 259.39127 
L 207.543606 253.439631 
L 208.194217 226.728373 
L 208.844827 101.536684 
L 209.495437 195.745663 
L 210.146048 258.283232 
L 210.796658 187.584345 
L 211.447268 255.959034 
L 212.097879 180.817018 
L 212.748489 192.820272 
L 213.399099 236.541489 
L 214.04971 260.330965 
L 215.35093 229.426344 
L 216.00154 259.370109 
L 216.652151 251.09663 
L 217.302761 237.679614 
L 217.953371 236.778234 
L 218.603982 258.47905 
L 219.254592 235.87673 
L 219.905202 200.100571 
L 220.555813 247.003503 
L 221.206423 210.017683 
L 221.857033 261.146645 
L 222.507644 233.405598 
L 223.158254 251.585159 
L 223.808864 244.487302 
L 224.459475 234.83279 
L 225.110085 196.903255 
L 225.760695 211.507292 
L 226.411305 254.033882 
L 227.061916 254.155241 
L 227.712526 212.677515 
L 228.363136 204.581913 
L 229.013747 242.053308 
L 229.664357 213.092148 
L 230.314967 237.665171 
L 230.965578 243.357214 
L 231.616188 183.443708 
L 232.266798 201.932013 
L 232.917409 201.180727 
L 233.568019 252.162164 
L 234.218629 255.546159 
L 234.86924 223.766241 
L 235.51985 257.31821 
L 236.17046 206.447387 
L 236.82107 235.675131 
L 237.471681 201.535487 
L 238.122291 192.036086 
L 238.772901 218.548388 
L 239.423512 204.0041 
L 240.074122 238.587972 
L 240.724732 243.205096 
L 241.375343 206.977668 
L 242.025953 228.5215 
L 242.676563 259.671218 
L 243.327174 238.600964 
L 243.977784 256.054311 
L 244.628394 245.240666 
L 245.279004 154.075539 
L 245.929615 235.727384 
L 246.580225 249.981546 
L 247.230835 259.210971 
L 247.881446 236.05741 
L 248.532056 186.679202 
L 249.182666 248.651602 
L 249.833277 196.465219 
L 250.483887 205.316756 
L 251.785108 257.074215 
L 252.435718 90.782702 
L 253.086328 225.531512 
L 253.736939 244.316362 
L 254.387549 216.379343 
L 255.038159 141.632317 
L 255.688769 238.225799 
L 256.33938 256.237446 
L 256.98999 253.89846 
L 257.6406 227.737652 
L 258.291211 259.720878 
L 258.941821 260.494153 
L 259.592431 257.737993 
L 260.243042 257.436103 
L 260.893652 240.863004 
L 261.544262 212.625692 
L 262.194873 260.09285 
L 262.845483 252.705484 
L 263.496093 179.271375 
L 264.146704 243.107627 
L 264.797314 180.276404 
L 265.447924 240.750338 
L 266.098534 241.387171 
L 266.749145 218.740144 
L 267.399755 216.809987 
L 268.050365 223.814199 
L 268.700976 258.255648 
L 269.351586 211.465333 
L 270.002196 250.775055 
L 270.652807 241.71129 
L 271.303417 214.868656 
L 271.954027 255.205934 
L 272.604638 245.481289 
L 273.255248 258.521357 
L 273.905858 258.98259 
L 274.556469 230.501391 
L 275.207079 253.971065 
L 275.857689 252.605195 
L 276.508299 239.448706 
L 277.15891 244.973769 
L 277.80952 246.574841 
L 278.46013 252.314788 
L 279.110741 231.504982 
L 279.761351 237.929934 
L 280.411961 243.16391 
L 281.062572 250.553979 
L 281.713182 239.779276 
L 282.363792 246.654662 
L 283.014403 259.286707 
L 283.665013 259.119358 
L 284.315623 172.018459 
L 284.966233 251.639954 
L 285.616844 250.359853 
L 286.267454 251.983551 
L 286.918064 249.932098 
L 287.568675 246.251066 
L 288.219285 258.543756 
L 288.869895 243.310575 
L 289.520506 181.077708 
L 290.171116 223.145345 
L 290.821726 249.930749 
L 291.472337 253.952388 
L 292.122947 245.703579 
L 292.773557 260.626699 
L 293.424168 229.202576 
L 294.074778 246.932743 
L 294.725388 242.615147 
L 295.375998 215.245489 
L 296.026609 245.237501 
L 296.677219 235.361765 
L 297.327829 243.393705 
L 297.97844 180.18489 
L 298.62905 239.835493 
L 299.27966 182.531675 
L 299.930271 248.328516 
L 300.580881 238.489688 
L 301.231491 260.778115 
L 301.882102 207.782171 
L 302.532712 258.67119 
L 303.183322 253.124906 
L 303.833933 216.565697 
L 304.484543 251.499307 
L 305.135153 187.490872 
L 305.785763 230.068522 
L 306.436374 232.970243 
L 307.086984 254.772878 
L 307.737594 248.15641 
L 308.388205 256.240581 
L 309.038815 228.52074 
L 309.689425 220.360467 
L 310.340036 261.176619 
L 310.990646 243.743729 
L 311.641256 238.70581 
L 312.291867 257.619526 
L 312.942477 251.181275 
L 313.593087 231.165052 
L 314.243698 258.205465 
L 314.894308 96.996628 
L 315.544918 230.77677 
L 316.195528 208.844192 
L 316.846139 220.838103 
L 317.496749 205.976297 
L 318.147359 184.619175 
L 318.79797 249.86611 
L 320.09919 236.957585 
L 320.749801 240.418452 
L 321.400411 253.029265 
L 322.701632 258.767849 
L 323.352242 234.875645 
L 324.002852 216.335365 
L 324.653462 216.244713 
L 325.304073 171.861134 
L 325.954683 209.241851 
L 326.605293 258.117899 
L 327.255904 259.007135 
L 327.906514 216.527256 
L 328.557124 208.458734 
L 329.858345 260.326314 
L 330.508955 249.987644 
L 331.159566 212.79576 
L 331.810176 259.833504 
L 332.460786 190.228682 
L 333.111397 217.009909 
L 333.762007 154.194654 
L 334.412617 256.261094 
L 335.063227 180.013811 
L 335.713838 256.463136 
L 336.364448 250.481311 
L 337.015058 249.380688 
L 337.665669 250.336665 
L 338.316279 202.911447 
L 338.966889 227.483503 
L 339.6175 239.407804 
L 340.26811 254.026883 
L 340.91872 230.534627 
L 341.569331 261.173161 
L 342.219941 212.151881 
L 342.870551 254.818106 
L 343.521162 256.118366 
L 344.171772 251.463451 
L 344.822382 179.232789 
L 345.472992 242.343661 
L 346.123603 199.794941 
L 346.774213 242.302945 
L 347.424823 219.990858 
L 348.075434 236.225113 
L 348.726044 233.140674 
L 349.376654 209.396748 
L 350.027265 241.465321 
L 350.677875 19.296 
L 351.328485 241.590832 
L 351.979096 210.82208 
L 352.629706 210.165755 
L 353.280316 253.987908 
L 353.930927 254.185445 
L 354.581537 242.049125 
L 355.232147 238.214161 
L 355.882757 232.089809 
L 356.533368 259.810637 
L 357.183978 231.109198 
L 357.834588 253.419719 
L 358.485199 161.978374 
L 359.135809 160.759727 
L 359.786419 201.254122 
L 360.43703 160.261483 
L 361.08764 216.703912 
L 361.73825 248.42682 
L 362.388861 254.749336 
L 363.039471 193.509514 
L 363.690081 209.064243 
L 364.340691 241.404574 
L 364.991302 236.505044 
L 365.641912 230.163881 
L 366.292522 259.775222 
L 367.593743 170.74277 
L 368.244353 248.734206 
L 368.894964 231.500416 
L 369.545574 237.741171 
L 370.846795 254.874318 
L 371.497405 259.48269 
L 372.148015 216.128252 
L 372.798626 250.683547 
L 373.449236 254.251356 
L 374.099846 218.908377 
L 374.750456 211.686757 
L 375.401067 186.275339 
L 376.051677 203.483981 
L 376.702287 208.496614 
L 377.352898 255.520906 
L 377.352898 255.520906 
" clip-path="url(#p69f2d305e3)" style="fill: none; stroke: #1f77b4; stroke-width: 1.5; stroke-linecap: square"/>
   </g>
   <g id="patch_3">
    <path d="M 36.465625 273.312 
L 36.465625 7.2 
" style="fill: none; stroke: #000000; stroke-width: 0.8; stroke-linejoin: miter; stroke-linecap: square"/>
   </g>
   <g id="patch_4">
    <path d="M 393.585625 273.312 
L 393.585625 7.2 
" style="fill: none; stroke: #000000; stroke-width: 0.8; stroke-linejoin: miter; stroke-linecap: square"/>
   </g>
   <g id="patch_5">
    <path d="M 36.465625 273.312 
L 393.585625 273.312 
" style="fill: none; stroke: #000000; stroke-width: 0.8; stroke-linejoin: miter; stroke-linecap: square"/>
   </g>
   <g id="patch_6">
    <path d="M 36.465625 7.2 
L 393.585625 7.2 
" style="fill: none; stroke: #000000; stroke-width: 0.8; stroke-linejoin: miter; stroke-linecap: square"/>
   </g>
  </g>
 </g>
 <defs>
  <clipPath id="p69f2d305e3">
   <rect x="36.465625" y="7.2" width="357.12" height="266.112"/>
  </clipPath>
 </defs>
</svg>
