<?xml version="1.0" encoding="utf-8" standalone="no"?>
<!DOCTYPE svg PUBLIC "-//W3C//DTD SVG 1.1//EN"
  "http://www.w3.org/Graphics/SVG/1.1/DTD/svg11.dtd">
<svg xmlns:xlink="http://www.w3.org/1999/xlink" width="432pt" height="288pt" viewBox="0 0 432 288" xmlns="http://www.w3.org/2000/svg" version="1.1">
 <metadata>
  <rdf:RDF xmlns:dc="http://purl.org/dc/elements/1.1/" xmlns:cc="http://creativecommons.org/ns#" xmlns:rdf="http://www.w3.org/1999/02/22-rdf-syntax-ns#">
   <cc:Work>
    <dc:type rdf:resource="http://purl.org/dc/dcmitype/StillImage"/>
    <dc:date>2023-02-23T14:33:57.938360</dc:date>
    <dc:format>image/svg+xml</dc:format>
    <dc:creator>
     <cc:Agent>
      <dc:title>Matplotlib v3.6.3, https://matplotlib.org/</dc:title>
     </cc:Agent>
    </dc:creator>
   </cc:Work>
  </rdf:RDF>
 </metadata>
 <defs>
  <style type="text/css">*{stroke-linejoin: round; stroke-linecap: butt}</style>
 </defs>
 <g id="figure_1">
  <g id="patch_1">
   <path d="M 0 288 
L 432 288 
L 432 0 
L 0 0 
L 0 288 
z
" style="fill: none"/>
  </g>
  <g id="axes_1">
   <g id="patch_2">
    <path d="M 54 252 
L 388.8 252 
L 388.8 34.56 
L 54 34.56 
L 54 252 
z
" style="fill: none"/>
   </g>
   <g id="patch_3">
    <path d="M 69.218182 252 
L 79.71348 252 
L 79.71348 251.564489 
L 69.218182 251.564489 
z
" clip-path="url(#pa35bdfddd7)" style="fill: #1f77b4"/>
   </g>
   <g id="patch_4">
    <path d="M 79.71348 252 
L 90.208777 252 
L 90.208777 243.943037 
L 79.71348 243.943037 
z
" clip-path="url(#pa35bdfddd7)" style="fill: #1f77b4"/>
   </g>
   <g id="patch_5">
    <path d="M 90.208777 252 
L 100.704075 252 
L 100.704075 216.288058 
L 90.208777 216.288058 
z
" clip-path="url(#pa35bdfddd7)" style="fill: #1f77b4"/>
   </g>
   <g id="patch_6">
    <path d="M 100.704075 252 
L 111.199373 252 
L 111.199373 177.745291 
L 100.704075 177.745291 
z
" clip-path="url(#pa35bdfddd7)" style="fill: #1f77b4"/>
   </g>
   <g id="patch_7">
    <path d="M 111.199373 252 
L 121.694671 252 
L 121.694671 126.57269 
L 111.199373 126.57269 
z
" clip-path="url(#pa35bdfddd7)" style="fill: #1f77b4"/>
   </g>
   <g id="patch_8">
    <path d="M 121.694671 252 
L 132.189969 252 
L 132.189969 93.909329 
L 121.694671 93.909329 
z
" clip-path="url(#pa35bdfddd7)" style="fill: #1f77b4"/>
   </g>
   <g id="patch_9">
    <path d="M 132.189969 252 
L 142.685266 252 
L 142.685266 60.810455 
L 132.189969 60.810455 
z
" clip-path="url(#pa35bdfddd7)" style="fill: #1f77b4"/>
   </g>
   <g id="patch_10">
    <path d="M 142.685266 252 
L 153.180564 252 
L 153.180564 46.438576 
L 142.685266 46.438576 
z
" clip-path="url(#pa35bdfddd7)" style="fill: #1f77b4"/>
   </g>
   <g id="patch_11">
    <path d="M 153.180564 252 
L 163.675862 252 
L 163.675862 44.914286 
L 153.180564 44.914286 
z
" clip-path="url(#pa35bdfddd7)" style="fill: #1f77b4"/>
   </g>
   <g id="patch_12">
    <path d="M 163.675862 252 
L 174.17116 252 
L 174.17116 50.793691 
L 163.675862 50.793691 
z
" clip-path="url(#pa35bdfddd7)" style="fill: #1f77b4"/>
   </g>
   <g id="patch_13">
    <path d="M 174.17116 252 
L 184.666458 252 
L 184.666458 69.085174 
L 174.17116 69.085174 
z
" clip-path="url(#pa35bdfddd7)" style="fill: #1f77b4"/>
   </g>
   <g id="patch_14">
    <path d="M 184.666458 252 
L 195.161755 252 
L 195.161755 89.771969 
L 184.666458 89.771969 
z
" clip-path="url(#pa35bdfddd7)" style="fill: #1f77b4"/>
   </g>
   <g id="patch_15">
    <path d="M 195.161755 252 
L 205.657053 252 
L 205.657053 116.773682 
L 195.161755 116.773682 
z
" clip-path="url(#pa35bdfddd7)" style="fill: #1f77b4"/>
   </g>
   <g id="patch_16">
    <path d="M 205.657053 252 
L 216.152351 252 
L 216.152351 136.589455 
L 205.657053 136.589455 
z
" clip-path="url(#pa35bdfddd7)" style="fill: #1f77b4"/>
   </g>
   <g id="patch_17">
    <path d="M 216.152351 252 
L 226.647649 252 
L 226.647649 166.421992 
L 216.152351 166.421992 
z
" clip-path="url(#pa35bdfddd7)" style="fill: #1f77b4"/>
   </g>
   <g id="patch_18">
    <path d="M 226.647649 252 
L 237.142947 252 
L 237.142947 183.189184 
L 226.647649 183.189184 
z
" clip-path="url(#pa35bdfddd7)" style="fill: #1f77b4"/>
   </g>
   <g id="patch_19">
    <path d="M 237.142947 252 
L 247.638245 252 
L 247.638245 193.859216 
L 237.142947 193.859216 
z
" clip-path="url(#pa35bdfddd7)" style="fill: #1f77b4"/>
   </g>
   <g id="patch_20">
    <path d="M 247.638245 252 
L 258.133542 252 
L 258.133542 205.618026 
L 247.638245 205.618026 
z
" clip-path="url(#pa35bdfddd7)" style="fill: #1f77b4"/>
   </g>
   <g id="patch_21">
    <path d="M 258.133542 252 
L 268.62884 252 
L 268.62884 222.385219 
L 258.133542 222.385219 
z
" clip-path="url(#pa35bdfddd7)" style="fill: #1f77b4"/>
   </g>
   <g id="patch_22">
    <path d="M 268.62884 252 
L 279.124138 252 
L 279.124138 226.522578 
L 268.62884 226.522578 
z
" clip-path="url(#pa35bdfddd7)" style="fill: #1f77b4"/>
   </g>
   <g id="patch_23">
    <path d="M 279.124138 252 
L 289.619436 252 
L 289.619436 234.144029 
L 279.124138 234.144029 
z
" clip-path="url(#pa35bdfddd7)" style="fill: #1f77b4"/>
   </g>
   <g id="patch_24">
    <path d="M 289.619436 252 
L 300.114734 252 
L 300.114734 240.894457 
L 289.619436 240.894457 
z
" clip-path="url(#pa35bdfddd7)" style="fill: #1f77b4"/>
   </g>
   <g id="patch_25">
    <path d="M 300.114734 252 
L 310.610031 252 
L 310.610031 244.160793 
L 300.114734 244.160793 
z
" clip-path="url(#pa35bdfddd7)" style="fill: #1f77b4"/>
   </g>
   <g id="patch_26">
    <path d="M 310.610031 252 
L 321.105329 252 
L 321.105329 244.160793 
L 310.610031 244.160793 
z
" clip-path="url(#pa35bdfddd7)" style="fill: #1f77b4"/>
   </g>
   <g id="patch_27">
    <path d="M 321.105329 252 
L 331.600627 252 
L 331.600627 248.298152 
L 321.105329 248.298152 
z
" clip-path="url(#pa35bdfddd7)" style="fill: #1f77b4"/>
   </g>
   <g id="patch_28">
    <path d="M 331.600627 252 
L 342.095925 252 
L 342.095925 249.604687 
L 331.600627 249.604687 
z
" clip-path="url(#pa35bdfddd7)" style="fill: #1f77b4"/>
   </g>
   <g id="patch_29">
    <path d="M 342.095925 252 
L 352.591223 252 
L 352.591223 249.169175 
L 342.095925 249.169175 
z
" clip-path="url(#pa35bdfddd7)" style="fill: #1f77b4"/>
   </g>
   <g id="patch_30">
    <path d="M 352.591223 252 
L 363.08652 252 
L 363.08652 249.822443 
L 352.591223 249.822443 
z
" clip-path="url(#pa35bdfddd7)" style="fill: #1f77b4"/>
   </g>
   <g id="patch_31">
    <path d="M 363.08652 252 
L 373.581818 252 
L 373.581818 250.47571 
L 363.08652 250.47571 
z
" clip-path="url(#pa35bdfddd7)" style="fill: #1f77b4"/>
   </g>
   <g id="matplotlib.axis_1">
    <g id="xtick_1">
     <g id="line2d_1">
      <defs>
       <path id="m0febe3e25b" d="M 0 0 
L 0 3.5 
" style="stroke: #000000; stroke-width: 0.8"/>
      </defs>
      <g>
       <use xlink:href="#m0febe3e25b" x="69.218182" y="252" style="stroke: #000000; stroke-width: 0.8"/>
      </g>
     </g>
     <g id="text_1">
      <!-- 0.0 -->
      <g transform="translate(61.266619 266.598437) scale(0.1 -0.1)">
       <defs>
        <path id="DejaVuSans-30" d="M 2034 4250 
Q 1547 4250 1301 3770 
Q 1056 3291 1056 2328 
Q 1056 1369 1301 889 
Q 1547 409 2034 409 
Q 2525 409 2770 889 
Q 3016 1369 3016 2328 
Q 3016 3291 2770 3770 
Q 2525 4250 2034 4250 
z
M 2034 4750 
Q 2819 4750 3233 4129 
Q 3647 3509 3647 2328 
Q 3647 1150 3233 529 
Q 2819 -91 2034 -91 
Q 1250 -91 836 529 
Q 422 1150 422 2328 
Q 422 3509 836 4129 
Q 1250 4750 2034 4750 
z
" transform="scale(0.015625)"/>
        <path id="DejaVuSans-2e" d="M 684 794 
L 1344 794 
L 1344 0 
L 684 0 
L 684 794 
z
" transform="scale(0.015625)"/>
       </defs>
       <use xlink:href="#DejaVuSans-30"/>
       <use xlink:href="#DejaVuSans-2e" x="63.623047"/>
       <use xlink:href="#DejaVuSans-30" x="95.410156"/>
      </g>
     </g>
    </g>
    <g id="xtick_2">
     <g id="line2d_2">
      <g>
       <use xlink:href="#m0febe3e25b" x="121.694671" y="252" style="stroke: #000000; stroke-width: 0.8"/>
      </g>
     </g>
     <g id="text_2">
      <!-- 0.5 -->
      <g transform="translate(113.743108 266.598437) scale(0.1 -0.1)">
       <defs>
        <path id="DejaVuSans-35" d="M 691 4666 
L 3169 4666 
L 3169 4134 
L 1269 4134 
L 1269 2991 
Q 1406 3038 1543 3061 
Q 1681 3084 1819 3084 
Q 2600 3084 3056 2656 
Q 3513 2228 3513 1497 
Q 3513 744 3044 326 
Q 2575 -91 1722 -91 
Q 1428 -91 1123 -41 
Q 819 9 494 109 
L 494 744 
Q 775 591 1075 516 
Q 1375 441 1709 441 
Q 2250 441 2565 725 
Q 2881 1009 2881 1497 
Q 2881 1984 2565 2268 
Q 2250 2553 1709 2553 
Q 1456 2553 1204 2497 
Q 953 2441 691 2322 
L 691 4666 
z
" transform="scale(0.015625)"/>
       </defs>
       <use xlink:href="#DejaVuSans-30"/>
       <use xlink:href="#DejaVuSans-2e" x="63.623047"/>
       <use xlink:href="#DejaVuSans-35" x="95.410156"/>
      </g>
     </g>
    </g>
    <g id="xtick_3">
     <g id="line2d_3">
      <g>
       <use xlink:href="#m0febe3e25b" x="174.17116" y="252" style="stroke: #000000; stroke-width: 0.8"/>
      </g>
     </g>
     <g id="text_3">
      <!-- 1.0 -->
      <g transform="translate(166.219597 266.598437) scale(0.1 -0.1)">
       <defs>
        <path id="DejaVuSans-31" d="M 794 531 
L 1825 531 
L 1825 4091 
L 703 3866 
L 703 4441 
L 1819 4666 
L 2450 4666 
L 2450 531 
L 3481 531 
L 3481 0 
L 794 0 
L 794 531 
z
" transform="scale(0.015625)"/>
       </defs>
       <use xlink:href="#DejaVuSans-31"/>
       <use xlink:href="#DejaVuSans-2e" x="63.623047"/>
       <use xlink:href="#DejaVuSans-30" x="95.410156"/>
      </g>
     </g>
    </g>
    <g id="xtick_4">
     <g id="line2d_4">
      <g>
       <use xlink:href="#m0febe3e25b" x="226.647649" y="252" style="stroke: #000000; stroke-width: 0.8"/>
      </g>
     </g>
     <g id="text_4">
      <!-- 1.5 -->
      <g transform="translate(218.696086 266.598437) scale(0.1 -0.1)">
       <use xlink:href="#DejaVuSans-31"/>
       <use xlink:href="#DejaVuSans-2e" x="63.623047"/>
       <use xlink:href="#DejaVuSans-35" x="95.410156"/>
      </g>
     </g>
    </g>
    <g id="xtick_5">
     <g id="line2d_5">
      <g>
       <use xlink:href="#m0febe3e25b" x="279.124138" y="252" style="stroke: #000000; stroke-width: 0.8"/>
      </g>
     </g>
     <g id="text_5">
      <!-- 2.0 -->
      <g transform="translate(271.172575 266.598437) scale(0.1 -0.1)">
       <defs>
        <path id="DejaVuSans-32" d="M 1228 531 
L 3431 531 
L 3431 0 
L 469 0 
L 469 531 
Q 828 903 1448 1529 
Q 2069 2156 2228 2338 
Q 2531 2678 2651 2914 
Q 2772 3150 2772 3378 
Q 2772 3750 2511 3984 
Q 2250 4219 1831 4219 
Q 1534 4219 1204 4116 
Q 875 4013 500 3803 
L 500 4441 
Q 881 4594 1212 4672 
Q 1544 4750 1819 4750 
Q 2544 4750 2975 4387 
Q 3406 4025 3406 3419 
Q 3406 3131 3298 2873 
Q 3191 2616 2906 2266 
Q 2828 2175 2409 1742 
Q 1991 1309 1228 531 
z
" transform="scale(0.015625)"/>
       </defs>
       <use xlink:href="#DejaVuSans-32"/>
       <use xlink:href="#DejaVuSans-2e" x="63.623047"/>
       <use xlink:href="#DejaVuSans-30" x="95.410156"/>
      </g>
     </g>
    </g>
    <g id="xtick_6">
     <g id="line2d_6">
      <g>
       <use xlink:href="#m0febe3e25b" x="331.600627" y="252" style="stroke: #000000; stroke-width: 0.8"/>
      </g>
     </g>
     <g id="text_6">
      <!-- 2.5 -->
      <g transform="translate(323.649064 266.598437) scale(0.1 -0.1)">
       <use xlink:href="#DejaVuSans-32"/>
       <use xlink:href="#DejaVuSans-2e" x="63.623047"/>
       <use xlink:href="#DejaVuSans-35" x="95.410156"/>
      </g>
     </g>
    </g>
    <g id="xtick_7">
     <g id="line2d_7">
      <g>
       <use xlink:href="#m0febe3e25b" x="384.077116" y="252" style="stroke: #000000; stroke-width: 0.8"/>
      </g>
     </g>
     <g id="text_7">
      <!-- 3.0 -->
      <g transform="translate(376.125553 266.598437) scale(0.1 -0.1)">
       <defs>
        <path id="DejaVuSans-33" d="M 2597 2516 
Q 3050 2419 3304 2112 
Q 3559 1806 3559 1356 
Q 3559 666 3084 287 
Q 2609 -91 1734 -91 
Q 1441 -91 1130 -33 
Q 819 25 488 141 
L 488 750 
Q 750 597 1062 519 
Q 1375 441 1716 441 
Q 2309 441 2620 675 
Q 2931 909 2931 1356 
Q 2931 1769 2642 2001 
Q 2353 2234 1838 2234 
L 1294 2234 
L 1294 2753 
L 1863 2753 
Q 2328 2753 2575 2939 
Q 2822 3125 2822 3475 
Q 2822 3834 2567 4026 
Q 2313 4219 1838 4219 
Q 1578 4219 1281 4162 
Q 984 4106 628 3988 
L 628 4550 
Q 988 4650 1302 4700 
Q 1616 4750 1894 4750 
Q 2613 4750 3031 4423 
Q 3450 4097 3450 3541 
Q 3450 3153 3228 2886 
Q 3006 2619 2597 2516 
z
" transform="scale(0.015625)"/>
       </defs>
       <use xlink:href="#DejaVuSans-33"/>
       <use xlink:href="#DejaVuSans-2e" x="63.623047"/>
       <use xlink:href="#DejaVuSans-30" x="95.410156"/>
      </g>
     </g>
    </g>
    <g id="text_8">
     <!-- $Y$ -->
     <g transform="translate(218.3 280.276563) scale(0.1 -0.1)">
      <defs>
       <path id="DejaVuSans-Oblique-59" d="M 403 4666 
L 1081 4666 
L 1953 2747 
L 3616 4666 
L 4325 4666 
L 2209 2222 
L 1778 0 
L 1147 0 
L 1575 2222 
L 403 4666 
z
" transform="scale(0.015625)"/>
      </defs>
      <use xlink:href="#DejaVuSans-Oblique-59" transform="translate(0 0.09375)"/>
     </g>
    </g>
   </g>
   <g id="matplotlib.axis_2">
    <g id="ytick_1">
     <g id="line2d_8">
      <defs>
       <path id="mc45745267c" d="M 0 0 
L -3.5 0 
" style="stroke: #000000; stroke-width: 0.8"/>
      </defs>
      <g>
       <use xlink:href="#mc45745267c" x="54" y="252" style="stroke: #000000; stroke-width: 0.8"/>
      </g>
     </g>
     <g id="text_9">
      <!-- 0.0 -->
      <g transform="translate(31.096875 255.799219) scale(0.1 -0.1)">
       <use xlink:href="#DejaVuSans-30"/>
       <use xlink:href="#DejaVuSans-2e" x="63.623047"/>
       <use xlink:href="#DejaVuSans-30" x="95.410156"/>
      </g>
     </g>
    </g>
    <g id="ytick_2">
     <g id="line2d_9">
      <g>
       <use xlink:href="#mc45745267c" x="54" y="208.518533" style="stroke: #000000; stroke-width: 0.8"/>
      </g>
     </g>
     <g id="text_10">
      <!-- 0.2 -->
      <g transform="translate(31.096875 212.317751) scale(0.1 -0.1)">
       <use xlink:href="#DejaVuSans-30"/>
       <use xlink:href="#DejaVuSans-2e" x="63.623047"/>
       <use xlink:href="#DejaVuSans-32" x="95.410156"/>
      </g>
     </g>
    </g>
    <g id="ytick_3">
     <g id="line2d_10">
      <g>
       <use xlink:href="#mc45745267c" x="54" y="165.037065" style="stroke: #000000; stroke-width: 0.8"/>
      </g>
     </g>
     <g id="text_11">
      <!-- 0.4 -->
      <g transform="translate(31.096875 168.836284) scale(0.1 -0.1)">
       <defs>
        <path id="DejaVuSans-34" d="M 2419 4116 
L 825 1625 
L 2419 1625 
L 2419 4116 
z
M 2253 4666 
L 3047 4666 
L 3047 1625 
L 3713 1625 
L 3713 1100 
L 3047 1100 
L 3047 0 
L 2419 0 
L 2419 1100 
L 313 1100 
L 313 1709 
L 2253 4666 
z
" transform="scale(0.015625)"/>
       </defs>
       <use xlink:href="#DejaVuSans-30"/>
       <use xlink:href="#DejaVuSans-2e" x="63.623047"/>
       <use xlink:href="#DejaVuSans-34" x="95.410156"/>
      </g>
     </g>
    </g>
    <g id="ytick_4">
     <g id="line2d_11">
      <g>
       <use xlink:href="#mc45745267c" x="54" y="121.555598" style="stroke: #000000; stroke-width: 0.8"/>
      </g>
     </g>
     <g id="text_12">
      <!-- 0.6 -->
      <g transform="translate(31.096875 125.354817) scale(0.1 -0.1)">
       <defs>
        <path id="DejaVuSans-36" d="M 2113 2584 
Q 1688 2584 1439 2293 
Q 1191 2003 1191 1497 
Q 1191 994 1439 701 
Q 1688 409 2113 409 
Q 2538 409 2786 701 
Q 3034 994 3034 1497 
Q 3034 2003 2786 2293 
Q 2538 2584 2113 2584 
z
M 3366 4563 
L 3366 3988 
Q 3128 4100 2886 4159 
Q 2644 4219 2406 4219 
Q 1781 4219 1451 3797 
Q 1122 3375 1075 2522 
Q 1259 2794 1537 2939 
Q 1816 3084 2150 3084 
Q 2853 3084 3261 2657 
Q 3669 2231 3669 1497 
Q 3669 778 3244 343 
Q 2819 -91 2113 -91 
Q 1303 -91 875 529 
Q 447 1150 447 2328 
Q 447 3434 972 4092 
Q 1497 4750 2381 4750 
Q 2619 4750 2861 4703 
Q 3103 4656 3366 4563 
z
" transform="scale(0.015625)"/>
       </defs>
       <use xlink:href="#DejaVuSans-30"/>
       <use xlink:href="#DejaVuSans-2e" x="63.623047"/>
       <use xlink:href="#DejaVuSans-36" x="95.410156"/>
      </g>
     </g>
    </g>
    <g id="ytick_5">
     <g id="line2d_12">
      <g>
       <use xlink:href="#mc45745267c" x="54" y="78.074131" style="stroke: #000000; stroke-width: 0.8"/>
      </g>
     </g>
     <g id="text_13">
      <!-- 0.8 -->
      <g transform="translate(31.096875 81.873349) scale(0.1 -0.1)">
       <defs>
        <path id="DejaVuSans-38" d="M 2034 2216 
Q 1584 2216 1326 1975 
Q 1069 1734 1069 1313 
Q 1069 891 1326 650 
Q 1584 409 2034 409 
Q 2484 409 2743 651 
Q 3003 894 3003 1313 
Q 3003 1734 2745 1975 
Q 2488 2216 2034 2216 
z
M 1403 2484 
Q 997 2584 770 2862 
Q 544 3141 544 3541 
Q 544 4100 942 4425 
Q 1341 4750 2034 4750 
Q 2731 4750 3128 4425 
Q 3525 4100 3525 3541 
Q 3525 3141 3298 2862 
Q 3072 2584 2669 2484 
Q 3125 2378 3379 2068 
Q 3634 1759 3634 1313 
Q 3634 634 3220 271 
Q 2806 -91 2034 -91 
Q 1263 -91 848 271 
Q 434 634 434 1313 
Q 434 1759 690 2068 
Q 947 2378 1403 2484 
z
M 1172 3481 
Q 1172 3119 1398 2916 
Q 1625 2713 2034 2713 
Q 2441 2713 2670 2916 
Q 2900 3119 2900 3481 
Q 2900 3844 2670 4047 
Q 2441 4250 2034 4250 
Q 1625 4250 1398 4047 
Q 1172 3844 1172 3481 
z
" transform="scale(0.015625)"/>
       </defs>
       <use xlink:href="#DejaVuSans-30"/>
       <use xlink:href="#DejaVuSans-2e" x="63.623047"/>
       <use xlink:href="#DejaVuSans-38" x="95.410156"/>
      </g>
     </g>
    </g>
    <g id="ytick_6">
     <g id="line2d_13">
      <g>
       <use xlink:href="#mc45745267c" x="54" y="34.592663" style="stroke: #000000; stroke-width: 0.8"/>
      </g>
     </g>
     <g id="text_14">
      <!-- 1.0 -->
      <g transform="translate(31.096875 38.391882) scale(0.1 -0.1)">
       <use xlink:href="#DejaVuSans-31"/>
       <use xlink:href="#DejaVuSans-2e" x="63.623047"/>
       <use xlink:href="#DejaVuSans-30" x="95.410156"/>
      </g>
     </g>
    </g>
    <g id="text_15">
     <!-- pdf($Y$) -->
     <g transform="translate(24.996875 158.38) rotate(-90) scale(0.1 -0.1)">
      <defs>
       <path id="DejaVuSans-70" d="M 1159 525 
L 1159 -1331 
L 581 -1331 
L 581 3500 
L 1159 3500 
L 1159 2969 
Q 1341 3281 1617 3432 
Q 1894 3584 2278 3584 
Q 2916 3584 3314 3078 
Q 3713 2572 3713 1747 
Q 3713 922 3314 415 
Q 2916 -91 2278 -91 
Q 1894 -91 1617 61 
Q 1341 213 1159 525 
z
M 3116 1747 
Q 3116 2381 2855 2742 
Q 2594 3103 2138 3103 
Q 1681 3103 1420 2742 
Q 1159 2381 1159 1747 
Q 1159 1113 1420 752 
Q 1681 391 2138 391 
Q 2594 391 2855 752 
Q 3116 1113 3116 1747 
z
" transform="scale(0.015625)"/>
       <path id="DejaVuSans-64" d="M 2906 2969 
L 2906 4863 
L 3481 4863 
L 3481 0 
L 2906 0 
L 2906 525 
Q 2725 213 2448 61 
Q 2172 -91 1784 -91 
Q 1150 -91 751 415 
Q 353 922 353 1747 
Q 353 2572 751 3078 
Q 1150 3584 1784 3584 
Q 2172 3584 2448 3432 
Q 2725 3281 2906 2969 
z
M 947 1747 
Q 947 1113 1208 752 
Q 1469 391 1925 391 
Q 2381 391 2643 752 
Q 2906 1113 2906 1747 
Q 2906 2381 2643 2742 
Q 2381 3103 1925 3103 
Q 1469 3103 1208 2742 
Q 947 2381 947 1747 
z
" transform="scale(0.015625)"/>
       <path id="DejaVuSans-66" d="M 2375 4863 
L 2375 4384 
L 1825 4384 
Q 1516 4384 1395 4259 
Q 1275 4134 1275 3809 
L 1275 3500 
L 2222 3500 
L 2222 3053 
L 1275 3053 
L 1275 0 
L 697 0 
L 697 3053 
L 147 3053 
L 147 3500 
L 697 3500 
L 697 3744 
Q 697 4328 969 4595 
Q 1241 4863 1831 4863 
L 2375 4863 
z
" transform="scale(0.015625)"/>
       <path id="DejaVuSans-28" d="M 1984 4856 
Q 1566 4138 1362 3434 
Q 1159 2731 1159 2009 
Q 1159 1288 1364 580 
Q 1569 -128 1984 -844 
L 1484 -844 
Q 1016 -109 783 600 
Q 550 1309 550 2009 
Q 550 2706 781 3412 
Q 1013 4119 1484 4856 
L 1984 4856 
z
" transform="scale(0.015625)"/>
       <path id="DejaVuSans-29" d="M 513 4856 
L 1013 4856 
Q 1481 4119 1714 3412 
Q 1947 2706 1947 2009 
Q 1947 1309 1714 600 
Q 1481 -109 1013 -844 
L 513 -844 
Q 928 -128 1133 580 
Q 1338 1288 1338 2009 
Q 1338 2731 1133 3434 
Q 928 4138 513 4856 
z
" transform="scale(0.015625)"/>
      </defs>
      <use xlink:href="#DejaVuSans-70" transform="translate(0 0.015625)"/>
      <use xlink:href="#DejaVuSans-64" transform="translate(63.476562 0.015625)"/>
      <use xlink:href="#DejaVuSans-66" transform="translate(126.953125 0.015625)"/>
      <use xlink:href="#DejaVuSans-28" transform="translate(162.158203 0.015625)"/>
      <use xlink:href="#DejaVuSans-Oblique-59" transform="translate(201.171875 0.015625)"/>
      <use xlink:href="#DejaVuSans-29" transform="translate(262.255859 0.015625)"/>
     </g>
    </g>
   </g>
   <g id="patch_32">
    <path d="M 54 252 
L 54 34.56 
" style="fill: none; stroke: #000000; stroke-width: 0.8; stroke-linejoin: miter; stroke-linecap: square"/>
   </g>
   <g id="patch_33">
    <path d="M 388.8 252 
L 388.8 34.56 
" style="fill: none; stroke: #000000; stroke-width: 0.8; stroke-linejoin: miter; stroke-linecap: square"/>
   </g>
   <g id="patch_34">
    <path d="M 54 252 
L 388.8 252 
" style="fill: none; stroke: #000000; stroke-width: 0.8; stroke-linejoin: miter; stroke-linecap: square"/>
   </g>
   <g id="patch_35">
    <path d="M 54 34.56 
L 388.8 34.56 
" style="fill: none; stroke: #000000; stroke-width: 0.8; stroke-linejoin: miter; stroke-linecap: square"/>
   </g>
   <g id="text_16">
    <!-- $Y=(1/10)\sum_{i=1}^{10} X_i^2$ ;   $X \sim{\mathcal{N}(0, 1)}$ -->
    <g transform="translate(133.56 22.56) scale(0.12 -0.12)">
     <defs>
      <path id="DejaVuSans-3d" d="M 678 2906 
L 4684 2906 
L 4684 2381 
L 678 2381 
L 678 2906 
z
M 678 1631 
L 4684 1631 
L 4684 1100 
L 678 1100 
L 678 1631 
z
" transform="scale(0.015625)"/>
      <path id="DejaVuSans-2f" d="M 1625 4666 
L 2156 4666 
L 531 -594 
L 0 -594 
L 1625 4666 
z
" transform="scale(0.015625)"/>
      <path id="DejaVuSansDisplay-2211" d="M 244 6509 
L 5803 6509 
L 5803 5656 
L 1566 5656 
L 4534 2488 
L 1469 -888 
L 5919 -888 
L 5919 -1738 
L 109 -1738 
L 109 -1078 
L 3316 2463 
L 244 5728 
L 244 6509 
z
" transform="scale(0.015625)"/>
      <path id="DejaVuSans-Oblique-69" d="M 1172 4863 
L 1747 4863 
L 1606 4134 
L 1031 4134 
L 1172 4863 
z
M 909 3500 
L 1484 3500 
L 800 0 
L 225 0 
L 909 3500 
z
" transform="scale(0.015625)"/>
      <path id="DejaVuSans-Oblique-58" d="M 878 4666 
L 1516 4666 
L 2316 2981 
L 3763 4666 
L 4500 4666 
L 2578 2438 
L 3738 0 
L 3103 0 
L 2163 1966 
L 459 0 
L -275 0 
L 1906 2509 
L 878 4666 
z
" transform="scale(0.015625)"/>
      <path id="DejaVuSans-20" transform="scale(0.015625)"/>
      <path id="DejaVuSans-3b" d="M 750 3309 
L 1409 3309 
L 1409 2516 
L 750 2516 
L 750 3309 
z
M 750 794 
L 1409 794 
L 1409 256 
L 897 -744 
L 494 -744 
L 750 256 
L 750 794 
z
" transform="scale(0.015625)"/>
      <path id="DejaVuSans-223c" d="M 4684 2556 
L 4684 1997 
Q 4356 1753 4076 1645 
Q 3797 1538 3494 1538 
Q 3150 1538 2694 1722 
Q 2663 1734 2641 1744 
Q 2622 1750 2575 1769 
Q 2091 1959 1797 1959 
Q 1522 1959 1253 1840 
Q 984 1722 678 1459 
L 678 2019 
Q 1006 2263 1286 2370 
Q 1566 2478 1869 2478 
Q 2213 2478 2672 2294 
Q 2706 2278 2722 2272 
Q 2741 2266 2788 2247 
Q 3272 2056 3566 2056 
Q 3834 2056 4098 2173 
Q 4363 2291 4684 2556 
z
" transform="scale(0.015625)"/>
      <path id="STIXNonUnicode-Italic-e23a" d="M 4294 800 
L 4301 800 
Q 5293 4070 5408 4378 
Q 5472 4538 5523 4614 
Q 5830 5088 6253 5088 
Q 6490 5088 6650 4931 
Q 6810 4774 6810 4550 
Q 6810 4378 6720 4272 
Q 6630 4166 6470 4166 
Q 6368 4166 6297 4224 
Q 6227 4282 6198 4349 
Q 6170 4416 6118 4473 
Q 6067 4531 6003 4531 
Q 5939 4531 5881 4508 
Q 5824 4486 5785 4457 
Q 5747 4429 5705 4371 
Q 5664 4314 5638 4275 
Q 5613 4237 5584 4163 
Q 5555 4090 5545 4058 
Q 5536 4026 5510 3952 
Q 5485 3878 5485 3866 
L 4262 -154 
L 4134 -154 
Q 3078 1280 2483 2893 
L 2470 2893 
Q 2406 2579 2358 2361 
Q 2310 2144 2214 1792 
Q 2118 1440 2028 1190 
Q 1939 941 1804 653 
Q 1670 365 1529 185 
Q 1389 6 1203 -115 
Q 1018 -237 813 -237 
Q 576 -237 416 -80 
Q 256 77 256 301 
Q 256 474 345 579 
Q 435 685 595 685 
Q 698 685 768 627 
Q 838 570 867 502 
Q 896 435 947 377 
Q 998 320 1062 320 
Q 1222 320 1369 480 
Q 1517 640 1638 928 
Q 1760 1216 1862 1542 
Q 1965 1869 2057 2288 
Q 2150 2707 2214 3033 
Q 2278 3360 2348 3741 
Q 2419 4122 2458 4294 
L 2630 4294 
Q 2682 4166 2874 3680 
Q 3066 3194 3142 3008 
Q 3219 2822 3392 2422 
Q 3565 2022 3683 1798 
Q 3802 1574 3968 1292 
Q 4134 1011 4294 800 
z
" transform="scale(0.015625)"/>
      <path id="DejaVuSans-2c" d="M 750 794 
L 1409 794 
L 1409 256 
L 897 -744 
L 494 -744 
L 750 256 
L 750 794 
z
" transform="scale(0.015625)"/>
     </defs>
     <use xlink:href="#DejaVuSans-Oblique-59" transform="translate(0 0.598437)"/>
     <use xlink:href="#DejaVuSans-3d" transform="translate(80.566406 0.598437)"/>
     <use xlink:href="#DejaVuSans-28" transform="translate(183.837891 0.598437)"/>
     <use xlink:href="#DejaVuSans-31" transform="translate(222.851562 0.598437)"/>
     <use xlink:href="#DejaVuSans-2f" transform="translate(286.474609 0.598437)"/>
     <use xlink:href="#DejaVuSans-31" transform="translate(320.166016 0.598437)"/>
     <use xlink:href="#DejaVuSans-30" transform="translate(383.789062 0.598437)"/>
     <use xlink:href="#DejaVuSans-29" transform="translate(447.412109 0.598437)"/>
     <use xlink:href="#DejaVuSans-31" transform="translate(516.425781 122.046875) scale(0.7)"/>
     <use xlink:href="#DejaVuSans-30" transform="translate(560.961914 122.046875) scale(0.7)"/>
     <use xlink:href="#DejaVuSansDisplay-2211" transform="translate(516.425781 0.598437)"/>
     <use xlink:href="#DejaVuSans-Oblique-69" transform="translate(486.425781 -98.496875) scale(0.7)"/>
     <use xlink:href="#DejaVuSans-3d" transform="translate(519.511719 -98.496875) scale(0.7)"/>
     <use xlink:href="#DejaVuSans-31" transform="translate(591.801758 -98.496875) scale(0.7)"/>
     <use xlink:href="#DejaVuSans-Oblique-58" transform="translate(636.337891 0.598437)"/>
     <use xlink:href="#DejaVuSans-32" transform="translate(711.860521 38.94375) scale(0.7)"/>
     <use xlink:href="#DejaVuSans-Oblique-69" transform="translate(704.84375 -26.745313) scale(0.7)"/>
     <use xlink:href="#DejaVuSans-20" transform="translate(759.131029 0.598437)"/>
     <use xlink:href="#DejaVuSans-3b" transform="translate(790.918138 0.598437)"/>
     <use xlink:href="#DejaVuSans-20" transform="translate(824.609544 0.598437)"/>
     <use xlink:href="#DejaVuSans-20" transform="translate(856.396654 0.598437)"/>
     <use xlink:href="#DejaVuSans-20" transform="translate(888.183763 0.598437)"/>
     <use xlink:href="#DejaVuSans-Oblique-58" transform="translate(919.970872 0.598437)"/>
     <use xlink:href="#DejaVuSans-223c" transform="translate(1007.959154 0.598437)"/>
     <use xlink:href="#STIXNonUnicode-Italic-e23a" transform="translate(1111.230638 0.598437)"/>
     <use xlink:href="#DejaVuSans-28" transform="translate(1206.93062 0.598437)"/>
     <use xlink:href="#DejaVuSans-30" transform="translate(1245.944292 0.598437)"/>
     <use xlink:href="#DejaVuSans-2c" transform="translate(1309.567338 0.598437)"/>
     <use xlink:href="#DejaVuSans-31" transform="translate(1360.83687 0.598437)"/>
     <use xlink:href="#DejaVuSans-29" transform="translate(1424.459917 0.598437)"/>
    </g>
   </g>
  </g>
 </g>
 <defs>
  <clipPath id="pa35bdfddd7">
   <rect x="54" y="34.56" width="334.8" height="217.44"/>
  </clipPath>
 </defs>
</svg>
