<?xml version="1.0" encoding="utf-8" standalone="no"?>
<!DOCTYPE svg PUBLIC "-//W3C//DTD SVG 1.1//EN"
  "http://www.w3.org/Graphics/SVG/1.1/DTD/svg11.dtd">
<!-- Created with matplotlib (https://matplotlib.org/) -->
<svg height="288pt" version="1.1" viewBox="0 0 432 288" width="432pt" xmlns="http://www.w3.org/2000/svg" xmlns:xlink="http://www.w3.org/1999/xlink">
 <defs>
  <style type="text/css">
*{stroke-linecap:butt;stroke-linejoin:round;}
  </style>
 </defs>
 <g id="figure_1">
  <g id="patch_1">
   <path d="M 0 288 
L 432 288 
L 432 0 
L 0 0 
z
" style="fill:none;"/>
  </g>
  <g id="axes_1">
   <g id="patch_2">
    <path d="M 54 252 
L 388.8 252 
L 388.8 34.56 
L 54 34.56 
z
" style="fill:none;"/>
   </g>
   <g id="PolyCollection_1">
    <defs>
     <path d="M 54 -36 
L 54 -36 
L 59.772414 -36 
L 59.772414 -36 
L 71.317241 -36 
L 71.317241 -36 
L 82.862069 -36 
L 82.862069 -36.43488 
L 94.406897 -36.43488 
L 94.406897 -37.84824 
L 105.951724 -37.84824 
L 105.951724 -42.5232 
L 117.496552 -42.5232 
L 117.496552 -58.39632 
L 129.041379 -58.39632 
L 129.041379 -84.924 
L 140.586207 -84.924 
L 140.586207 -125.1504 
L 152.131034 -125.1504 
L 152.131034 -175.59648 
L 163.675862 -175.59648 
L 163.675862 -212.56128 
L 175.22069 -212.56128 
L 175.22069 -212.45256 
L 186.765517 -212.45256 
L 186.765517 -194.83992 
L 198.310345 -194.83992 
L 198.310345 -155.80944 
L 209.855172 -155.80944 
L 209.855172 -110.69064 
L 221.4 -110.69064 
L 221.4 -80.14032 
L 232.944828 -80.14032 
L 232.944828 -54.37368 
L 244.489655 -54.37368 
L 244.489655 -43.6104 
L 256.034483 -43.6104 
L 256.034483 -37.30464 
L 267.57931 -37.30464 
L 267.57931 -36.5436 
L 279.124138 -36.5436 
L 279.124138 -36 
L 290.668966 -36 
L 290.668966 -36 
L 302.213793 -36 
L 302.213793 -36 
L 313.758621 -36 
L 313.758621 -36 
L 325.303448 -36 
L 325.303448 -36 
L 336.848276 -36 
L 336.848276 -36 
L 348.393103 -36 
L 348.393103 -36 
L 359.937931 -36 
L 359.937931 -36 
L 371.482759 -36 
L 371.482759 -36 
L 377.255172 -36 
L 377.255172 -36 
L 377.255172 -36 
L 371.482759 -36 
L 371.482759 -36 
L 359.937931 -36 
L 359.937931 -36 
L 348.393103 -36 
L 348.393103 -36 
L 336.848276 -36 
L 336.848276 -36 
L 325.303448 -36 
L 325.303448 -36 
L 313.758621 -36 
L 313.758621 -36 
L 302.213793 -36 
L 302.213793 -36 
L 290.668966 -36 
L 290.668966 -36 
L 279.124138 -36 
L 279.124138 -36 
L 267.57931 -36 
L 267.57931 -36 
L 256.034483 -36 
L 256.034483 -36 
L 244.489655 -36 
L 244.489655 -36 
L 232.944828 -36 
L 232.944828 -36 
L 221.4 -36 
L 221.4 -36 
L 209.855172 -36 
L 209.855172 -36 
L 198.310345 -36 
L 198.310345 -36 
L 186.765517 -36 
L 186.765517 -36 
L 175.22069 -36 
L 175.22069 -36 
L 163.675862 -36 
L 163.675862 -36 
L 152.131034 -36 
L 152.131034 -36 
L 140.586207 -36 
L 140.586207 -36 
L 129.041379 -36 
L 129.041379 -36 
L 117.496552 -36 
L 117.496552 -36 
L 105.951724 -36 
L 105.951724 -36 
L 94.406897 -36 
L 94.406897 -36 
L 82.862069 -36 
L 82.862069 -36 
L 71.317241 -36 
L 71.317241 -36 
L 59.772414 -36 
L 59.772414 -36 
L 54 -36 
z
" id="m2bddb941d7" style="stroke:#000000;stroke-opacity:0.5;"/>
    </defs>
    <g clip-path="url(#pceb3f1014f)">
     <use style="fill-opacity:0.5;stroke:#000000;stroke-opacity:0.5;" x="0" xlink:href="#m2bddb941d7" y="288"/>
    </g>
   </g>
   <g id="matplotlib.axis_1">
    <g id="xtick_1">
     <g id="line2d_1">
      <path clip-path="url(#pceb3f1014f)" d="M 54 252 
L 54 34.56 
" style="fill:none;stroke:#b0b0b0;stroke-linecap:square;stroke-width:0.8;"/>
     </g>
     <g id="line2d_2">
      <defs>
       <path d="M 0 0 
L 0 3.5 
" id="ma02009ba34" style="stroke:#000000;stroke-width:0.8;"/>
      </defs>
      <g>
       <use style="stroke:#000000;stroke-width:0.8;" x="54" xlink:href="#ma02009ba34" y="252"/>
      </g>
     </g>
     <g id="text_1">
      <!-- −1.5 -->
      <defs>
       <path d="M 2.984375 28.65625 
L 53.46875 28.65625 
L 53.46875 21.828125 
L 2.984375 21.828125 
z
" id="Times-Roman-8722"/>
       <path d="M 29.59375 67.09375 
Q 29.78125 66.84375 29.796875 66.71875 
Q 29.828125 66.609375 29.828125 66.15625 
L 29.828125 7.375 
Q 29.828125 3.609375 31.828125 2.578125 
Q 33.84375 1.5625 39.3125 1.375 
L 39.3125 0 
L 11.765625 0 
L 11.765625 1.46875 
Q 17.671875 1.765625 19.484375 3.078125 
Q 21.296875 4.390625 21.296875 8.796875 
L 21.296875 54 
Q 21.296875 56.34375 20.703125 57.5625 
Q 20.125 58.796875 18.171875 58.796875 
Q 16.890625 58.796875 14.859375 58.078125 
Q 12.84375 57.375 11.078125 56.59375 
L 11.078125 57.953125 
L 29 67.09375 
L 29.59375 67.09375 
z
" id="Times-Roman-49"/>
       <path d="M 16.3125 -1.171875 
Q 13.96875 -1.171875 12.359375 0.453125 
Q 10.75 2.09375 10.75 4.390625 
Q 10.75 6.6875 12.375 8.296875 
Q 14.015625 9.90625 16.3125 9.90625 
Q 18.609375 9.90625 20.21875 8.296875 
Q 21.828125 6.6875 21.828125 4.390625 
Q 21.828125 2.09375 20.234375 0.453125 
Q 18.65625 -1.171875 16.3125 -1.171875 
z
" id="Times-Roman-46"/>
       <path d="M 7.46875 8.9375 
Q 10.25 8.9375 14.765625 5.78125 
Q 19.28125 2.640625 21.734375 2.640625 
Q 27.34375 2.640625 31.546875 7.59375 
Q 35.75 12.546875 35.75 19.78125 
Q 35.75 32.421875 22.265625 37.984375 
Q 14.796875 41.0625 8.34375 41.0625 
Q 7.28125 41.0625 7 41.140625 
Q 6.734375 41.21875 6.34375 41.65625 
Q 6.453125 42.046875 6.515625 42.3125 
Q 6.59375 42.578125 6.6875 42.828125 
L 17.328125 66.15625 
L 38.28125 66.15625 
Q 39.84375 66.15625 40.6875 66.6875 
Q 41.546875 67.234375 42.921875 68.703125 
L 43.703125 68.015625 
L 39.890625 58.984375 
Q 39.703125 58.546875 38.8125 58.421875 
Q 37.9375 58.296875 36.921875 58.296875 
L 18.015625 58.296875 
L 13.875 49.75 
Q 21.875 48.390625 25.59375 47.171875 
Q 31.6875 45.125 35.796875 41.109375 
Q 39.3125 37.640625 41.109375 33.3125 
Q 42.921875 29 42.921875 24.171875 
Q 42.921875 13.375 35.234375 6.140625 
Q 27.546875 -1.078125 15.765625 -1.078125 
Q 10.984375 -1.078125 8.0625 -0.140625 
Q 3.171875 1.375 3.171875 5.28125 
Q 3.171875 6.734375 4.21875 7.828125 
Q 5.28125 8.9375 7.46875 8.9375 
z
" id="Times-Roman-53"/>
      </defs>
      <g transform="translate(43.116563 267.2275)scale(0.12 -0.12)">
       <use xlink:href="#Times-Roman-8722"/>
       <use x="56.396484" xlink:href="#Times-Roman-49"/>
       <use x="106.396484" xlink:href="#Times-Roman-46"/>
       <use x="131.396484" xlink:href="#Times-Roman-53"/>
      </g>
     </g>
    </g>
    <g id="xtick_2">
     <g id="line2d_3">
      <path clip-path="url(#pceb3f1014f)" d="M 109.8 252 
L 109.8 34.56 
" style="fill:none;stroke:#b0b0b0;stroke-linecap:square;stroke-width:0.8;"/>
     </g>
     <g id="line2d_4">
      <g>
       <use style="stroke:#000000;stroke-width:0.8;" x="109.8" xlink:href="#ma02009ba34" y="252"/>
      </g>
     </g>
     <g id="text_2">
      <!-- −1.0 -->
      <defs>
       <path d="M 23.921875 1.8125 
Q 31.109375 1.8125 33.78125 9.671875 
Q 36.46875 17.53125 36.46875 32.421875 
Q 36.46875 44.28125 34.859375 51.375 
Q 31.84375 64.546875 23.53125 64.546875 
Q 15.234375 64.546875 12.15625 50.984375 
Q 10.546875 43.75 10.546875 31.9375 
Q 10.546875 20.84375 12.203125 14.203125 
Q 15.328125 1.8125 23.921875 1.8125 
z
M 23.78125 67.1875 
Q 35.015625 67.1875 41.21875 55.421875 
Q 46.140625 45.90625 46.140625 33.546875 
Q 46.140625 23.828125 43.109375 15.234375 
Q 37.40625 -0.921875 23.34375 -0.921875 
Q 13.71875 -0.921875 7.515625 7.8125 
Q 0.875 17.140625 0.875 33.15625 
Q 0.875 45.75 5.328125 54.828125 
Q 11.328125 67.1875 23.78125 67.1875 
z
" id="Times-Roman-48"/>
      </defs>
      <g transform="translate(98.916563 267.2275)scale(0.12 -0.12)">
       <use xlink:href="#Times-Roman-8722"/>
       <use x="56.396484" xlink:href="#Times-Roman-49"/>
       <use x="106.396484" xlink:href="#Times-Roman-46"/>
       <use x="131.396484" xlink:href="#Times-Roman-48"/>
      </g>
     </g>
    </g>
    <g id="xtick_3">
     <g id="line2d_5">
      <path clip-path="url(#pceb3f1014f)" d="M 165.6 252 
L 165.6 34.56 
" style="fill:none;stroke:#b0b0b0;stroke-linecap:square;stroke-width:0.8;"/>
     </g>
     <g id="line2d_6">
      <g>
       <use style="stroke:#000000;stroke-width:0.8;" x="165.6" xlink:href="#ma02009ba34" y="252"/>
      </g>
     </g>
     <g id="text_3">
      <!-- −0.5 -->
      <g transform="translate(154.716563 267.2275)scale(0.12 -0.12)">
       <use xlink:href="#Times-Roman-8722"/>
       <use x="56.396484" xlink:href="#Times-Roman-48"/>
       <use x="106.396484" xlink:href="#Times-Roman-46"/>
       <use x="131.396484" xlink:href="#Times-Roman-53"/>
      </g>
     </g>
    </g>
    <g id="xtick_4">
     <g id="line2d_7">
      <path clip-path="url(#pceb3f1014f)" d="M 221.4 252 
L 221.4 34.56 
" style="fill:none;stroke:#b0b0b0;stroke-linecap:square;stroke-width:0.8;"/>
     </g>
     <g id="line2d_8">
      <g>
       <use style="stroke:#000000;stroke-width:0.8;" x="221.4" xlink:href="#ma02009ba34" y="252"/>
      </g>
     </g>
     <g id="text_4">
      <!-- 0.0 -->
      <g transform="translate(213.9 267.2275)scale(0.12 -0.12)">
       <use xlink:href="#Times-Roman-48"/>
       <use x="50" xlink:href="#Times-Roman-46"/>
       <use x="75" xlink:href="#Times-Roman-48"/>
      </g>
     </g>
    </g>
    <g id="xtick_5">
     <g id="line2d_9">
      <path clip-path="url(#pceb3f1014f)" d="M 277.2 252 
L 277.2 34.56 
" style="fill:none;stroke:#b0b0b0;stroke-linecap:square;stroke-width:0.8;"/>
     </g>
     <g id="line2d_10">
      <g>
       <use style="stroke:#000000;stroke-width:0.8;" x="277.2" xlink:href="#ma02009ba34" y="252"/>
      </g>
     </g>
     <g id="text_5">
      <!-- 0.5 -->
      <g transform="translate(269.7 267.2275)scale(0.12 -0.12)">
       <use xlink:href="#Times-Roman-48"/>
       <use x="50" xlink:href="#Times-Roman-46"/>
       <use x="75" xlink:href="#Times-Roman-53"/>
      </g>
     </g>
    </g>
    <g id="xtick_6">
     <g id="line2d_11">
      <path clip-path="url(#pceb3f1014f)" d="M 333 252 
L 333 34.56 
" style="fill:none;stroke:#b0b0b0;stroke-linecap:square;stroke-width:0.8;"/>
     </g>
     <g id="line2d_12">
      <g>
       <use style="stroke:#000000;stroke-width:0.8;" x="333" xlink:href="#ma02009ba34" y="252"/>
      </g>
     </g>
     <g id="text_6">
      <!-- 1.0 -->
      <g transform="translate(325.5 267.2275)scale(0.12 -0.12)">
       <use xlink:href="#Times-Roman-49"/>
       <use x="50" xlink:href="#Times-Roman-46"/>
       <use x="75" xlink:href="#Times-Roman-48"/>
      </g>
     </g>
    </g>
    <g id="xtick_7">
     <g id="line2d_13">
      <path clip-path="url(#pceb3f1014f)" d="M 388.8 252 
L 388.8 34.56 
" style="fill:none;stroke:#b0b0b0;stroke-linecap:square;stroke-width:0.8;"/>
     </g>
     <g id="line2d_14">
      <g>
       <use style="stroke:#000000;stroke-width:0.8;" x="388.8" xlink:href="#ma02009ba34" y="252"/>
      </g>
     </g>
     <g id="text_7">
      <!-- 1.5 -->
      <g transform="translate(381.3 267.2275)scale(0.12 -0.12)">
       <use xlink:href="#Times-Roman-49"/>
       <use x="50" xlink:href="#Times-Roman-46"/>
       <use x="75" xlink:href="#Times-Roman-53"/>
      </g>
     </g>
    </g>
    <g id="text_8">
     <!-- $\overline{X}^*$ -->
     <defs>
      <path d="M 13.71875 72.90625 
L 23.6875 72.90625 
L 36.1875 46.578125 
L 58.796875 72.90625 
L 70.3125 72.90625 
L 40.28125 38.09375 
L 58.40625 0 
L 48.484375 0 
L 33.796875 30.71875 
L 7.171875 0 
L -4.296875 0 
L 29.78125 39.203125 
z
" id="DejaVuSans-Oblique-88"/>
      <path d="M 47.015625 60.890625 
L 29.5 51.421875 
L 47.015625 41.890625 
L 44.1875 37.109375 
L 27.78125 47.015625 
L 27.78125 28.609375 
L 22.21875 28.609375 
L 22.21875 47.015625 
L 5.8125 37.109375 
L 2.984375 41.890625 
L 20.515625 51.421875 
L 2.984375 60.890625 
L 5.8125 65.71875 
L 22.21875 55.8125 
L 22.21875 74.21875 
L 27.78125 74.21875 
L 27.78125 55.8125 
L 44.1875 65.71875 
z
" id="DejaVuSans-42"/>
     </defs>
     <g transform="translate(213.3 282.9875)scale(0.12 -0.12)">
      <use transform="translate(0 0.84375)" xlink:href="#DejaVuSans-Oblique-88"/>
      <use transform="translate(83.100586 38.625)scale(0.7)" xlink:href="#DejaVuSans-42"/>
      <path d="M 0 85.5 
L 0 91.75 
L 68.505859 91.75 
L 68.505859 85.5 
L 0 85.5 
z
"/>
     </g>
    </g>
   </g>
   <g id="matplotlib.axis_2">
    <g id="ytick_1">
     <g id="line2d_15">
      <path clip-path="url(#pceb3f1014f)" d="M 54 252 
L 388.8 252 
" style="fill:none;stroke:#b0b0b0;stroke-linecap:square;stroke-width:0.8;"/>
     </g>
     <g id="line2d_16">
      <defs>
       <path d="M 0 0 
L -3.5 0 
" id="m98c4f96ae2" style="stroke:#000000;stroke-width:0.8;"/>
      </defs>
      <g>
       <use style="stroke:#000000;stroke-width:0.8;" x="54" xlink:href="#m98c4f96ae2" y="252"/>
      </g>
     </g>
     <g id="text_9">
      <!-- 0.000 -->
      <g transform="translate(20 256.11375)scale(0.12 -0.12)">
       <use xlink:href="#Times-Roman-48"/>
       <use x="50" xlink:href="#Times-Roman-46"/>
       <use x="75" xlink:href="#Times-Roman-48"/>
       <use x="125" xlink:href="#Times-Roman-48"/>
       <use x="175" xlink:href="#Times-Roman-48"/>
      </g>
     </g>
    </g>
    <g id="ytick_2">
     <g id="line2d_17">
      <path clip-path="url(#pceb3f1014f)" d="M 54 224.82 
L 388.8 224.82 
" style="fill:none;stroke:#b0b0b0;stroke-linecap:square;stroke-width:0.8;"/>
     </g>
     <g id="line2d_18">
      <g>
       <use style="stroke:#000000;stroke-width:0.8;" x="54" xlink:href="#m98c4f96ae2" y="224.82"/>
      </g>
     </g>
     <g id="text_10">
      <!-- 0.025 -->
      <defs>
       <path d="M 2.984375 1.125 
Q 20.84375 19.671875 27.234375 28.359375 
Q 33.640625 37.0625 33.640625 45.3125 
Q 33.640625 52.546875 29.734375 56.328125 
Q 25.828125 60.109375 20.40625 60.109375 
Q 13.71875 60.109375 9.578125 55.21875 
Q 7.28125 52.546875 5.171875 46.96875 
L 3.078125 47.40625 
Q 5.515625 58.640625 11.34375 63.015625 
Q 17.1875 67.390625 23.875 67.390625 
Q 32.125 67.390625 37.21875 62.1875 
Q 42.328125 56.984375 42.328125 49.46875 
Q 42.328125 41.453125 36.8125 34.03125 
Q 31.296875 26.609375 12.84375 7.625 
L 35.25 7.625 
Q 39.9375 7.625 41.84375 8.734375 
Q 43.75 9.859375 46.140625 14.203125 
L 47.40625 13.625 
L 42 0 
L 2.984375 0 
z
" id="Times-Roman-50"/>
      </defs>
      <g transform="translate(20 228.93375)scale(0.12 -0.12)">
       <use xlink:href="#Times-Roman-48"/>
       <use x="50" xlink:href="#Times-Roman-46"/>
       <use x="75" xlink:href="#Times-Roman-48"/>
       <use x="125" xlink:href="#Times-Roman-50"/>
       <use x="175" xlink:href="#Times-Roman-53"/>
      </g>
     </g>
    </g>
    <g id="ytick_3">
     <g id="line2d_19">
      <path clip-path="url(#pceb3f1014f)" d="M 54 197.64 
L 388.8 197.64 
" style="fill:none;stroke:#b0b0b0;stroke-linecap:square;stroke-width:0.8;"/>
     </g>
     <g id="line2d_20">
      <g>
       <use style="stroke:#000000;stroke-width:0.8;" x="54" xlink:href="#m98c4f96ae2" y="197.64"/>
      </g>
     </g>
     <g id="text_11">
      <!-- 0.050 -->
      <g transform="translate(20 201.75375)scale(0.12 -0.12)">
       <use xlink:href="#Times-Roman-48"/>
       <use x="50" xlink:href="#Times-Roman-46"/>
       <use x="75" xlink:href="#Times-Roman-48"/>
       <use x="125" xlink:href="#Times-Roman-53"/>
       <use x="175" xlink:href="#Times-Roman-48"/>
      </g>
     </g>
    </g>
    <g id="ytick_4">
     <g id="line2d_21">
      <path clip-path="url(#pceb3f1014f)" d="M 54 170.46 
L 388.8 170.46 
" style="fill:none;stroke:#b0b0b0;stroke-linecap:square;stroke-width:0.8;"/>
     </g>
     <g id="line2d_22">
      <g>
       <use style="stroke:#000000;stroke-width:0.8;" x="54" xlink:href="#m98c4f96ae2" y="170.46"/>
      </g>
     </g>
     <g id="text_12">
      <!-- 0.075 -->
      <defs>
       <path d="M 44.875 66.15625 
L 44.875 64.546875 
L 23.6875 -0.921875 
L 17.234375 -0.921875 
L 37.015625 58.796875 
L 15.71875 58.796875 
Q 10.984375 58.796875 8.90625 57.234375 
Q 6.84375 55.671875 3.65625 50.6875 
L 1.953125 51.46875 
Q 5.125 59.28125 5.875 61.109375 
Q 6.640625 62.9375 7.859375 66.15625 
z
" id="Times-Roman-55"/>
      </defs>
      <g transform="translate(20 174.57375)scale(0.12 -0.12)">
       <use xlink:href="#Times-Roman-48"/>
       <use x="50" xlink:href="#Times-Roman-46"/>
       <use x="75" xlink:href="#Times-Roman-48"/>
       <use x="125" xlink:href="#Times-Roman-55"/>
       <use x="175" xlink:href="#Times-Roman-53"/>
      </g>
     </g>
    </g>
    <g id="ytick_5">
     <g id="line2d_23">
      <path clip-path="url(#pceb3f1014f)" d="M 54 143.28 
L 388.8 143.28 
" style="fill:none;stroke:#b0b0b0;stroke-linecap:square;stroke-width:0.8;"/>
     </g>
     <g id="line2d_24">
      <g>
       <use style="stroke:#000000;stroke-width:0.8;" x="54" xlink:href="#m98c4f96ae2" y="143.28"/>
      </g>
     </g>
     <g id="text_13">
      <!-- 0.100 -->
      <g transform="translate(20 147.39375)scale(0.12 -0.12)">
       <use xlink:href="#Times-Roman-48"/>
       <use x="50" xlink:href="#Times-Roman-46"/>
       <use x="75" xlink:href="#Times-Roman-49"/>
       <use x="125" xlink:href="#Times-Roman-48"/>
       <use x="175" xlink:href="#Times-Roman-48"/>
      </g>
     </g>
    </g>
    <g id="ytick_6">
     <g id="line2d_25">
      <path clip-path="url(#pceb3f1014f)" d="M 54 116.1 
L 388.8 116.1 
" style="fill:none;stroke:#b0b0b0;stroke-linecap:square;stroke-width:0.8;"/>
     </g>
     <g id="line2d_26">
      <g>
       <use style="stroke:#000000;stroke-width:0.8;" x="54" xlink:href="#m98c4f96ae2" y="116.1"/>
      </g>
     </g>
     <g id="text_14">
      <!-- 0.125 -->
      <g transform="translate(20 120.21375)scale(0.12 -0.12)">
       <use xlink:href="#Times-Roman-48"/>
       <use x="50" xlink:href="#Times-Roman-46"/>
       <use x="75" xlink:href="#Times-Roman-49"/>
       <use x="125" xlink:href="#Times-Roman-50"/>
       <use x="175" xlink:href="#Times-Roman-53"/>
      </g>
     </g>
    </g>
    <g id="ytick_7">
     <g id="line2d_27">
      <path clip-path="url(#pceb3f1014f)" d="M 54 88.92 
L 388.8 88.92 
" style="fill:none;stroke:#b0b0b0;stroke-linecap:square;stroke-width:0.8;"/>
     </g>
     <g id="line2d_28">
      <g>
       <use style="stroke:#000000;stroke-width:0.8;" x="54" xlink:href="#m98c4f96ae2" y="88.92"/>
      </g>
     </g>
     <g id="text_15">
      <!-- 0.150 -->
      <g transform="translate(20 93.03375)scale(0.12 -0.12)">
       <use xlink:href="#Times-Roman-48"/>
       <use x="50" xlink:href="#Times-Roman-46"/>
       <use x="75" xlink:href="#Times-Roman-49"/>
       <use x="125" xlink:href="#Times-Roman-53"/>
       <use x="175" xlink:href="#Times-Roman-48"/>
      </g>
     </g>
    </g>
    <g id="ytick_8">
     <g id="line2d_29">
      <path clip-path="url(#pceb3f1014f)" d="M 54 61.74 
L 388.8 61.74 
" style="fill:none;stroke:#b0b0b0;stroke-linecap:square;stroke-width:0.8;"/>
     </g>
     <g id="line2d_30">
      <g>
       <use style="stroke:#000000;stroke-width:0.8;" x="54" xlink:href="#m98c4f96ae2" y="61.74"/>
      </g>
     </g>
     <g id="text_16">
      <!-- 0.175 -->
      <g transform="translate(20 65.85375)scale(0.12 -0.12)">
       <use xlink:href="#Times-Roman-48"/>
       <use x="50" xlink:href="#Times-Roman-46"/>
       <use x="75" xlink:href="#Times-Roman-49"/>
       <use x="125" xlink:href="#Times-Roman-55"/>
       <use x="175" xlink:href="#Times-Roman-53"/>
      </g>
     </g>
    </g>
    <g id="ytick_9">
     <g id="line2d_31">
      <path clip-path="url(#pceb3f1014f)" d="M 54 34.56 
L 388.8 34.56 
" style="fill:none;stroke:#b0b0b0;stroke-linecap:square;stroke-width:0.8;"/>
     </g>
     <g id="line2d_32">
      <g>
       <use style="stroke:#000000;stroke-width:0.8;" x="54" xlink:href="#m98c4f96ae2" y="34.56"/>
      </g>
     </g>
     <g id="text_17">
      <!-- 0.200 -->
      <g transform="translate(20 38.67375)scale(0.12 -0.12)">
       <use xlink:href="#Times-Roman-48"/>
       <use x="50" xlink:href="#Times-Roman-46"/>
       <use x="75" xlink:href="#Times-Roman-50"/>
       <use x="125" xlink:href="#Times-Roman-48"/>
       <use x="175" xlink:href="#Times-Roman-48"/>
      </g>
     </g>
    </g>
    <g id="text_18">
     <!-- $P(\overline{X}^*)$ -->
     <defs>
      <path d="M 16.890625 72.90625 
L 39.703125 72.90625 
Q 49.65625 72.90625 54.875 68.265625 
Q 60.109375 63.625 60.109375 54.6875 
Q 60.109375 42.671875 52.390625 35.984375 
Q 44.671875 29.296875 30.71875 29.296875 
L 18.3125 29.296875 
L 12.59375 0 
L 2.6875 0 
z
M 25.203125 64.796875 
L 19.921875 37.40625 
L 32.328125 37.40625 
Q 40.71875 37.40625 45.203125 41.703125 
Q 49.703125 46 49.703125 54 
Q 49.703125 59.125 46.65625 61.953125 
Q 43.609375 64.796875 38.09375 64.796875 
z
" id="DejaVuSans-Oblique-80"/>
      <path d="M 31 75.875 
Q 24.46875 64.65625 21.28125 53.65625 
Q 18.109375 42.671875 18.109375 31.390625 
Q 18.109375 20.125 21.3125 9.0625 
Q 24.515625 -2 31 -13.1875 
L 23.1875 -13.1875 
Q 15.875 -1.703125 12.234375 9.375 
Q 8.59375 20.453125 8.59375 31.390625 
Q 8.59375 42.28125 12.203125 53.3125 
Q 15.828125 64.359375 23.1875 75.875 
z
" id="DejaVuSans-40"/>
      <path d="M 8.015625 75.875 
L 15.828125 75.875 
Q 23.140625 64.359375 26.78125 53.3125 
Q 30.421875 42.28125 30.421875 31.390625 
Q 30.421875 20.453125 26.78125 9.375 
Q 23.140625 -1.703125 15.828125 -13.1875 
L 8.015625 -13.1875 
Q 14.5 -2 17.703125 9.0625 
Q 20.90625 20.125 20.90625 31.390625 
Q 20.90625 42.671875 17.703125 53.65625 
Q 14.5 64.65625 8.015625 75.875 
z
" id="DejaVuSans-41"/>
     </defs>
     <g transform="translate(13.38625 159.66)rotate(-90)scale(0.12 -0.12)">
      <use transform="translate(0 0.34375)" xlink:href="#DejaVuSans-Oblique-80"/>
      <use transform="translate(60.302734 0.34375)" xlink:href="#DejaVuSans-40"/>
      <use transform="translate(99.316406 0.84375)" xlink:href="#DejaVuSans-Oblique-88"/>
      <use transform="translate(182.416992 38.625)scale(0.7)" xlink:href="#DejaVuSans-42"/>
      <use transform="translate(233.789062 0.34375)" xlink:href="#DejaVuSans-41"/>
      <path d="M 99.316406 85.5 
L 99.316406 91.75 
L 167.822266 91.75 
L 167.822266 85.5 
L 99.316406 85.5 
z
"/>
     </g>
    </g>
   </g>
   <g id="line2d_33">
    <path clip-path="url(#pceb3f1014f)" d="M 133.401593 252 
L 133.401593 34.56 
" style="fill:none;stroke:#000000;stroke-dasharray:1.5,2.475;stroke-dashoffset:0;stroke-width:1.5;"/>
   </g>
   <g id="line2d_34">
    <path clip-path="url(#pceb3f1014f)" d="M 185.131357 252 
L 185.131357 34.56 
" style="fill:none;stroke:#000000;stroke-linecap:square;stroke-width:1.5;"/>
   </g>
   <g id="line2d_35">
    <path clip-path="url(#pceb3f1014f)" d="M 238.902499 252 
L 238.902499 34.56 
" style="fill:none;stroke:#000000;stroke-dasharray:1.5,2.475;stroke-dashoffset:0;stroke-width:1.5;"/>
   </g>
   <g id="patch_3">
    <path d="M 54 252 
L 54 34.56 
" style="fill:none;stroke:#000000;stroke-linecap:square;stroke-linejoin:miter;stroke-width:0.8;"/>
   </g>
   <g id="patch_4">
    <path d="M 388.8 252 
L 388.8 34.56 
" style="fill:none;stroke:#000000;stroke-linecap:square;stroke-linejoin:miter;stroke-width:0.8;"/>
   </g>
   <g id="patch_5">
    <path d="M 54 252 
L 388.8 252 
" style="fill:none;stroke:#000000;stroke-linecap:square;stroke-linejoin:miter;stroke-width:0.8;"/>
   </g>
   <g id="patch_6">
    <path d="M 54 34.56 
L 388.8 34.56 
" style="fill:none;stroke:#000000;stroke-linecap:square;stroke-linejoin:miter;stroke-width:0.8;"/>
   </g>
   <g id="text_19">
    <!-- $\overline{X}$ = -0.32; 95% CI from Eqn 7.15: [-0.90, 0.25] -->
    <defs>
     <path id="Times-Roman-32"/>
     <path d="M 53.46875 18.609375 
L 53.46875 11.765625 
L 2.984375 11.765625 
L 2.984375 18.609375 
z
M 53.46875 38.765625 
L 53.46875 31.9375 
L 2.984375 31.9375 
L 2.984375 38.765625 
z
" id="Times-Roman-61"/>
     <path d="M 3.90625 25.6875 
L 28.46875 25.6875 
L 28.46875 19.4375 
L 3.90625 19.4375 
z
" id="Times-Roman-45"/>
     <path d="M 7.765625 8.5 
Q 10.453125 8.5 14.859375 5.71875 
Q 19.28125 2.9375 22.359375 2.9375 
Q 29.203125 2.9375 32.515625 7.546875 
Q 35.84375 12.15625 35.84375 17.578125 
Q 35.84375 22.796875 33.15625 26.765625 
Q 28.609375 33.453125 17.828125 33.453125 
Q 17.1875 33.453125 16.59375 33.421875 
Q 16.015625 33.40625 15.234375 33.296875 
L 15.140625 34.578125 
Q 22.953125 37.40625 27.4375 41.0625 
Q 31.9375 44.734375 31.9375 50.734375 
Q 31.9375 56.0625 28.390625 58.84375 
Q 24.859375 61.625 20.3125 61.625 
Q 14.9375 61.625 10.84375 57.671875 
Q 8.59375 55.515625 6 51.03125 
L 4.5 51.375 
Q 6.453125 58.796875 11.765625 63.234375 
Q 17.09375 67.671875 24.078125 67.671875 
Q 31.546875 67.671875 35.625 63.5625 
Q 39.703125 59.46875 39.703125 54.109375 
Q 39.703125 49.359375 36.328125 45.40625 
Q 34.421875 43.171875 30.421875 40.375 
Q 35.109375 38.375 37.9375 35.6875 
Q 43.265625 30.5625 43.265625 22.703125 
Q 43.265625 13.421875 35.953125 6.34375 
Q 28.65625 -0.734375 15.1875 -0.734375 
Q 9.1875 -0.734375 6.765625 1.046875 
Q 4.34375 2.828125 4.34375 4.890625 
Q 4.34375 6.15625 5.140625 7.328125 
Q 5.953125 8.5 7.765625 8.5 
z
" id="Times-Roman-51"/>
     <path d="M 22.3125 1.03125 
Q 22.3125 -3.8125 18.796875 -8.078125 
Q 15.28125 -12.359375 11.078125 -14.265625 
L 10.15625 -12.3125 
Q 14.84375 -9.671875 16.625 -6.59375 
Q 18.40625 -3.515625 18.40625 -1.46875 
Q 18.40625 -0.78125 17.96875 -0.578125 
Q 17.53125 -0.390625 17.046875 -0.390625 
L 13.765625 -0.734375 
Q 11.71875 -0.734375 10 0.609375 
Q 8.296875 1.953125 8.296875 4.5 
Q 8.296875 6.453125 9.71875 8.296875 
Q 11.140625 10.15625 14.359375 10.15625 
Q 17.4375 10.15625 19.875 7.734375 
Q 22.3125 5.328125 22.3125 1.03125 
z
M 13.96875 34.8125 
Q 11.625 34.8125 10.03125 36.453125 
Q 8.453125 38.09375 8.453125 40.375 
Q 8.453125 42.671875 10.0625 44.3125 
Q 11.671875 45.953125 13.96875 45.953125 
Q 16.265625 45.953125 17.890625 44.3125 
Q 19.53125 42.671875 19.53125 40.375 
Q 19.53125 38.09375 17.921875 36.453125 
Q 16.3125 34.8125 13.96875 34.8125 
z
" id="Times-Roman-59"/>
     <path d="M 24.953125 27.984375 
Q 28.265625 27.984375 31.8125 29.828125 
Q 35.359375 31.6875 35.84375 32.953125 
Q 36.03125 33.453125 36.171875 36.59375 
Q 36.328125 39.75 36.328125 41.703125 
Q 36.328125 51.859375 32.90625 58.203125 
Q 29.5 64.546875 22.90625 64.546875 
Q 18.109375 64.546875 15.15625 60.203125 
Q 12.203125 55.859375 12.203125 47.21875 
Q 12.203125 40.09375 14.953125 34.03125 
Q 17.71875 27.984375 24.953125 27.984375 
z
M 23.578125 67.328125 
Q 34.328125 67.328125 40.1875 58.765625 
Q 46.046875 50.203125 46.046875 39.65625 
Q 46.046875 32.234375 43.265625 24.5625 
Q 40.484375 16.890625 35.15625 10.890625 
Q 28.953125 3.953125 19.4375 0.59375 
Q 14.109375 -1.3125 6 -2.34375 
L 5.515625 -0.390625 
Q 10.59375 0.78125 13.96875 2.09375 
Q 20.015625 4.5 23.6875 7.953125 
Q 28.859375 12.890625 31.953125 18.96875 
Q 35.0625 25.046875 35.84375 29.15625 
L 34.125 27.875 
Q 30.515625 25.140625 25.640625 24.125 
Q 23.09375 23.53125 21 23.53125 
Q 12.703125 23.53125 7.84375 29.40625 
Q 2.984375 35.296875 2.984375 43.453125 
Q 2.984375 53.859375 8.765625 60.59375 
Q 14.546875 67.328125 23.578125 67.328125 
z
" id="Times-Roman-57"/>
     <path d="M 27.640625 66.15625 
Q 30.671875 66.15625 32.5625 65.375 
Q 33.59375 64.984375 34.578125 64.109375 
L 36.421875 62.453125 
Q 37.546875 61.46875 39.59375 61.078125 
Q 41.65625 60.6875 43.796875 60.6875 
Q 49.421875 60.6875 54.15625 63.421875 
Q 56.6875 64.84375 59.46875 67.578125 
L 63.375 67.578125 
L 24.859375 -1.421875 
L 20.125 -1.421875 
L 54.9375 61.078125 
Q 51.265625 59.375 49.453125 58.828125 
Q 47.65625 58.296875 44.671875 58.296875 
Q 42.046875 58.296875 40.140625 58.640625 
Q 38.921875 58.84375 37.703125 59.234375 
Q 38.09375 57.90625 38.234375 57.046875 
Q 38.375 56.203125 38.375 54.390625 
Q 38.375 45.609375 32.484375 37.234375 
Q 26.609375 28.859375 18.0625 28.859375 
Q 13.53125 28.859375 9.8125 32.328125 
Q 6.109375 35.796875 6.109375 42.484375 
Q 6.109375 50.53125 12.640625 58.34375 
Q 19.1875 66.15625 27.640625 66.15625 
z
M 59.078125 2.984375 
Q 65.046875 2.984375 69.796875 10.765625 
Q 74.5625 18.5625 74.5625 25.203125 
Q 74.5625 29.296875 72.5625 31.59375 
Q 70.5625 33.890625 67.328125 33.890625 
Q 61.53125 33.890625 56.984375 25 
Q 52.4375 16.109375 52.4375 9.625 
Q 52.4375 6.390625 54.296875 4.6875 
Q 56.15625 2.984375 59.078125 2.984375 
z
M 44.875 13.625 
Q 44.875 22.078125 51.578125 29.5625 
Q 58.296875 37.0625 66.453125 37.0625 
Q 70.703125 37.0625 73.96875 34.515625 
Q 77.25 31.984375 77.25 25.09375 
Q 77.25 17.71875 71.671875 8.78125 
Q 66.109375 -0.140625 56.984375 -0.140625 
Q 52.046875 -0.140625 48.453125 3.203125 
Q 44.875 6.546875 44.875 13.625 
z
M 19.875 32.28125 
Q 25.875 32.28125 30.859375 39.546875 
Q 35.84375 46.828125 35.84375 55.421875 
Q 35.84375 58.5 35.171875 59.375 
Q 34.515625 60.25 32.859375 60.640625 
Q 31.6875 60.9375 30.09375 62.078125 
Q 28.515625 63.234375 28.171875 63.234375 
Q 23.4375 63.234375 18.53125 54.765625 
Q 13.625 46.296875 13.625 39.15625 
Q 13.625 35.9375 15.15625 34.109375 
Q 16.703125 32.28125 19.875 32.28125 
z
" id="Times-Roman-37"/>
     <path d="M 37.015625 67.328125 
Q 42.4375 67.328125 48.140625 65.71875 
Q 53.859375 64.109375 54.546875 64.109375 
Q 55.953125 64.109375 57.21875 64.890625 
Q 58.5 65.671875 58.984375 67.328125 
L 61.078125 67.328125 
L 62.015625 44.875 
L 59.71875 44.875 
Q 57.71875 51.5625 54.5 55.671875 
Q 48.34375 63.375 37.9375 63.375 
Q 27.4375 63.375 20.765625 55.078125 
Q 14.109375 46.78125 14.109375 32.234375 
Q 14.109375 18.84375 21.109375 10.859375 
Q 28.125 2.875 38.875 2.875 
Q 46.625 2.875 53.171875 6.59375 
Q 56.9375 8.6875 61.421875 12.9375 
L 63.28125 11.078125 
Q 59.96875 6.890625 55.03125 3.71875 
Q 46.625 -1.65625 36.8125 -1.65625 
Q 20.703125 -1.65625 11.234375 8.640625 
Q 2.484375 18.171875 2.484375 32.421875 
Q 2.484375 47.015625 11.71875 56.9375 
Q 21.4375 67.328125 37.015625 67.328125 
z
M 36.671875 67.328125 
z
" id="Times-Roman-67"/>
     <path d="M 1.609375 1.8125 
Q 7.71875 2.25 9.515625 3.640625 
Q 11.328125 5.03125 11.328125 10.84375 
L 11.328125 55.328125 
Q 11.328125 60.84375 9.515625 62.421875 
Q 7.71875 64.015625 1.609375 64.3125 
L 1.609375 66.15625 
L 31.203125 66.15625 
L 31.203125 64.3125 
Q 25.09375 64.015625 23.28125 62.421875 
Q 21.484375 60.84375 21.484375 55.328125 
L 21.484375 10.84375 
Q 21.484375 5.03125 23.28125 3.640625 
Q 25.09375 2.25 31.203125 1.8125 
L 31.203125 0 
L 1.609375 0 
z
M 16.40625 66.15625 
z
" id="Times-Roman-73"/>
     <path d="M 1.953125 1.375 
Q 7.125 1.609375 8.765625 3.296875 
Q 10.40625 4.984375 10.40625 10.40625 
L 10.40625 41.75 
L 2.046875 41.75 
L 2.046875 45.015625 
L 10.40625 45.015625 
Q 10.40625 52.734375 12.5 58.0625 
Q 16.5 68.265625 27.203125 68.265625 
Q 31.5 68.265625 34.890625 66.546875 
Q 38.28125 64.84375 38.28125 61.96875 
Q 38.28125 60.359375 37.109375 59.078125 
Q 35.9375 57.8125 34.28125 57.8125 
Q 32.859375 57.8125 31.828125 58.65625 
Q 30.8125 59.515625 29.390625 61.671875 
L 28.5625 62.9375 
Q 27.875 63.96875 26.953125 64.671875 
Q 26.03125 65.375 24.359375 65.375 
Q 20.65625 65.375 19.34375 61.71875 
Q 18.609375 59.765625 18.609375 56.59375 
L 18.609375 45.015625 
L 30.859375 45.015625 
L 30.859375 41.75 
L 18.703125 41.75 
L 18.703125 10.40625 
Q 18.703125 4.890625 20.1875 3.34375 
Q 21.6875 1.8125 27.984375 1.375 
L 27.984375 0 
L 1.953125 0 
z
" id="Times-Roman-102"/>
     <path d="M 0.4375 1.609375 
Q 4.9375 2 6.390625 3.1875 
Q 7.859375 4.390625 7.859375 8.296875 
L 7.859375 30.328125 
Q 7.859375 35.15625 6.953125 37.234375 
Q 6.0625 39.3125 3.65625 39.3125 
Q 3.171875 39.3125 2.359375 39.1875 
Q 1.5625 39.0625 0.6875 38.875 
L 0.6875 40.484375 
Q 3.46875 41.453125 6.390625 42.46875 
Q 9.328125 43.5 10.453125 43.953125 
Q 12.890625 44.875 15.484375 46.046875 
Q 15.828125 46.046875 15.890625 45.796875 
Q 15.96875 45.5625 15.96875 44.78125 
L 15.96875 36.765625 
Q 19.09375 41.109375 22 43.546875 
Q 24.90625 46 28.03125 46 
Q 30.515625 46 32.078125 44.5 
Q 33.640625 43.015625 33.640625 40.765625 
Q 33.640625 38.765625 32.4375 37.390625 
Q 31.25 36.03125 29.4375 36.03125 
Q 27.59375 36.03125 25.703125 37.734375 
Q 23.828125 39.453125 22.75 39.453125 
Q 21.046875 39.453125 18.546875 36.6875 
Q 16.0625 33.9375 16.0625 31 
L 16.0625 8.984375 
Q 16.0625 4.78125 18.015625 3.140625 
Q 19.96875 1.515625 24.515625 1.609375 
L 24.515625 0 
L 0.4375 0 
z
" id="Times-Roman-114"/>
     <path d="M 2.546875 22.65625 
Q 2.546875 32.375 8.71875 39.078125 
Q 14.890625 45.796875 24.609375 45.796875 
Q 34.28125 45.796875 40.625 39.453125 
Q 46.96875 33.109375 46.96875 22.5625 
Q 46.96875 12.84375 40.8125 5.65625 
Q 34.671875 -1.515625 24.90625 -1.515625 
Q 15.53125 -1.515625 9.03125 5.359375 
Q 2.546875 12.25 2.546875 22.65625 
z
M 23.25 42.875 
Q 19.390625 42.875 16.546875 40.328125 
Q 11.671875 35.890625 11.671875 25 
Q 11.671875 16.3125 15.59375 8.78125 
Q 19.53125 1.265625 26.515625 1.265625 
Q 31.984375 1.265625 34.9375 6.296875 
Q 37.890625 11.328125 37.890625 19.484375 
Q 37.890625 27.9375 34.125 35.40625 
Q 30.375 42.875 23.25 42.875 
z
M 25.046875 45.796875 
z
" id="Times-Roman-111"/>
     <path d="M 1.609375 1.265625 
Q 5.421875 1.609375 6.6875 2.546875 
Q 8.640625 3.953125 8.640625 8.203125 
L 8.640625 33.453125 
Q 8.640625 37.0625 7.6875 38.1875 
Q 6.734375 39.3125 4.546875 39.3125 
Q 3.515625 39.3125 3 39.203125 
Q 2.484375 39.109375 1.8125 38.875 
L 1.8125 40.578125 
L 5.328125 41.75 
Q 7.234375 42.390625 11.578125 44.046875 
Q 15.921875 45.703125 16.15625 45.703125 
Q 16.40625 45.703125 16.453125 45.453125 
Q 16.5 45.21875 16.5 44.53125 
L 16.5 37.9375 
Q 21.34375 42.328125 24.859375 44.015625 
Q 28.375 45.703125 32.078125 45.703125 
Q 37.109375 45.703125 40.09375 42.28125 
Q 41.65625 40.4375 42.671875 37.25 
Q 46.296875 40.921875 48.96875 42.671875 
Q 53.609375 45.703125 58.453125 45.703125 
Q 66.3125 45.703125 68.953125 39.3125 
Q 70.453125 35.6875 70.453125 27.875 
L 70.453125 7.625 
Q 70.453125 4.15625 71.984375 2.90625 
Q 73.53125 1.65625 77.546875 1.265625 
L 77.546875 0 
L 55.515625 0 
L 55.515625 1.375 
Q 59.765625 1.765625 61.109375 3.078125 
Q 62.453125 4.390625 62.453125 8.453125 
L 62.453125 29.5 
Q 62.453125 34.234375 61.421875 36.46875 
Q 59.625 40.484375 54.34375 40.484375 
Q 51.171875 40.484375 48.046875 38.375 
Q 46.234375 37.15625 43.609375 34.46875 
L 43.609375 9.46875 
Q 43.609375 5.515625 45 3.46875 
Q 46.390625 1.421875 50.875 1.265625 
L 50.875 0 
L 28.46875 0 
L 28.46875 1.265625 
Q 33.109375 1.859375 34.375 3.515625 
Q 35.640625 5.171875 35.640625 11.671875 
L 35.640625 25.34375 
Q 35.640625 32.859375 34.671875 35.6875 
Q 33.0625 40.484375 27.828125 40.484375 
Q 24.859375 40.484375 21.96875 38.84375 
Q 19.09375 37.203125 16.890625 34.578125 
L 16.890625 7.859375 
Q 16.890625 4.15625 18.1875 2.734375 
Q 19.484375 1.3125 23.828125 1.265625 
L 23.828125 0 
L 1.609375 0 
z
" id="Times-Roman-109"/>
     <path d="M 1.125 1.8125 
Q 6.640625 2.390625 8.265625 3.78125 
Q 9.90625 5.171875 9.90625 10.84375 
L 9.90625 55.328125 
Q 9.90625 60.640625 8.296875 62.28125 
Q 6.6875 63.921875 1.125 64.3125 
L 1.125 66.15625 
L 54.25 66.15625 
L 54.59375 51.8125 
L 52.046875 51.8125 
Q 50.78125 58.453125 48.234375 60.40625 
Q 45.703125 62.359375 36.921875 62.359375 
L 23.34375 62.359375 
Q 21.140625 62.359375 20.625 61.640625 
Q 20.125 60.9375 20.125 58.984375 
L 20.125 36.671875 
L 35.5 36.671875 
Q 41.890625 36.671875 43.640625 38.578125 
Q 45.40625 40.484375 46.484375 46.296875 
L 48.828125 46.296875 
L 48.828125 23.140625 
L 46.484375 23.140625 
Q 45.359375 28.953125 43.59375 30.828125 
Q 41.84375 32.71875 35.5 32.71875 
L 20.125 32.71875 
L 20.125 7.953125 
Q 20.125 4.984375 22 4.4375 
Q 23.875 3.90625 33.25 3.90625 
Q 43.40625 3.90625 48.234375 6.125 
Q 53.078125 8.34375 56.9375 16.890625 
L 59.71875 16.890625 
L 55.171875 0 
L 1.125 0 
z
M 30.609375 66.15625 
z
" id="Times-Roman-69"/>
     <path d="M 23.828125 5.21875 
Q 25 5.21875 26.96875 5.609375 
Q 28.953125 6 30.671875 6.9375 
Q 33.015625 8.203125 33.5 9.171875 
Q 33.984375 10.15625 33.984375 12.84375 
L 33.984375 33.453125 
Q 33.984375 37.3125 32.8125 39.453125 
Q 30.609375 43.359375 24.515625 43.359375 
Q 17.578125 43.359375 14.28125 37.625 
Q 10.984375 31.890625 10.984375 24.515625 
Q 10.984375 15.875 14.328125 10.546875 
Q 17.671875 5.21875 23.828125 5.21875 
z
M 24.953125 46.046875 
Q 28.265625 46.046875 30.8125 45.125 
Q 32.515625 44.53125 35.984375 42.578125 
L 41.40625 45.796875 
Q 41.84375 46 42.09375 46.046875 
Q 42.328125 45.84375 42.375 45.75 
Q 42.4375 45.65625 42.4375 45.125 
L 42.4375 -14.265625 
Q 42.4375 -16.84375 43.359375 -18.109375 
Q 44.78125 -20.015625 48.828125 -20.40625 
L 48.828125 -21.78125 
L 25.203125 -21.78125 
L 25.203125 -20.171875 
Q 29.546875 -20.125 31.671875 -18.703125 
Q 33.796875 -17.28125 33.796875 -12.40625 
L 33.796875 6.203125 
Q 30.375 2.828125 27.875 1.375 
Q 23.78125 -1.03125 18.65625 -1.03125 
Q 12.546875 -1.03125 7.46875 4.609375 
Q 2.390625 10.25 2.390625 21.1875 
Q 2.390625 31.25 8.65625 38.640625 
Q 14.9375 46.046875 24.953125 46.046875 
z
" id="Times-Roman-113"/>
     <path d="M 1.8125 1.375 
Q 5.28125 1.8125 6.671875 3.09375 
Q 8.0625 4.390625 8.0625 8.890625 
L 8.0625 33.640625 
Q 8.0625 36.765625 7.46875 38.03125 
Q 6.546875 39.890625 3.65625 39.890625 
Q 3.21875 39.890625 2.75 39.84375 
Q 2.296875 39.796875 1.609375 39.703125 
L 1.609375 41.40625 
Q 3.609375 42 11.078125 44.4375 
L 15.671875 45.953125 
Q 16.015625 45.953125 16.078125 45.703125 
Q 16.15625 45.453125 16.15625 45.015625 
L 16.15625 37.84375 
Q 20.65625 42.046875 23.1875 43.609375 
Q 27 46 31.109375 46 
Q 34.421875 46 37.15625 44.09375 
Q 42.4375 40.375 42.4375 30.859375 
L 42.4375 8.0625 
Q 42.4375 4.546875 43.84375 2.984375 
Q 45.265625 1.421875 48.578125 1.375 
L 48.578125 0 
L 27.734375 0 
L 27.734375 1.375 
Q 31.296875 1.859375 32.703125 3.34375 
Q 34.125 4.828125 34.125 9.8125 
L 34.125 30.671875 
Q 34.125 34.859375 32.5625 37.609375 
Q 31 40.375 26.8125 40.375 
Q 23.921875 40.375 20.953125 38.421875 
Q 19.28125 37.3125 16.65625 34.71875 
L 16.65625 7.375 
Q 16.65625 3.859375 18.21875 2.65625 
Q 19.78125 1.46875 23.140625 1.375 
L 23.140625 0 
L 1.8125 0 
z
M 25.046875 46 
z
" id="Times-Roman-110"/>
     <path d="M 18.953125 40.578125 
Q 18.953125 38.140625 17.265625 36.59375 
Q 15.578125 35.0625 13.421875 35.0625 
Q 11.078125 35.0625 9.5625 36.71875 
Q 8.0625 38.375 8.0625 40.53125 
Q 8.0625 42.78125 9.625 44.359375 
Q 11.1875 45.953125 13.421875 45.953125 
Q 15.578125 45.953125 17.265625 44.40625 
Q 18.953125 42.875 18.953125 40.578125 
z
M 13.28125 -0.828125 
Q 11.234375 -0.828125 9.640625 0.78125 
Q 8.0625 2.390625 8.0625 4.6875 
Q 8.0625 6.890625 9.625 8.515625 
Q 11.1875 10.15625 13.484375 10.15625 
Q 15.765625 10.15625 17.46875 8.5625 
Q 19.1875 6.984375 19.1875 4.734375 
Q 19.1875 2.59375 17.578125 0.875 
Q 15.96875 -0.828125 13.28125 -0.828125 
z
" id="Times-Roman-58"/>
     <path d="M 8.796875 66.15625 
L 29.828125 66.15625 
L 29.828125 63.765625 
L 20.953125 63.765625 
Q 18.015625 63.765625 17 61.921875 
Q 16.40625 60.9375 16.40625 59.234375 
L 16.40625 -8.015625 
Q 16.40625 -10.25 17.046875 -11.328125 
Q 18.109375 -13.234375 21.296875 -13.234375 
L 29.828125 -13.234375 
L 29.828125 -15.765625 
L 8.796875 -15.765625 
z
" id="Times-Roman-91"/>
     <path d="M 24.515625 1.03125 
Q 24.515625 -3.90625 20.953125 -8.15625 
Q 17.390625 -12.40625 13.28125 -14.265625 
L 12.359375 -12.3125 
Q 17.046875 -9.671875 18.828125 -6.59375 
Q 20.609375 -3.515625 20.609375 -1.46875 
Q 20.609375 -0.78125 20.171875 -0.578125 
Q 19.734375 -0.390625 19.234375 -0.390625 
L 15.96875 -0.734375 
Q 13.921875 -0.734375 12.203125 0.609375 
Q 10.5 1.953125 10.5 4.5 
Q 10.5 6.453125 11.90625 8.296875 
Q 13.328125 10.15625 16.546875 10.15625 
Q 19.625 10.15625 22.0625 7.734375 
Q 24.515625 5.328125 24.515625 1.03125 
z
" id="Times-Roman-44"/>
     <path d="M 24.421875 -15.765625 
L 3.328125 -15.765625 
L 3.328125 -13.328125 
L 12.25 -13.328125 
Q 15.140625 -13.328125 16.21875 -11.53125 
Q 16.75 -10.546875 16.75 -8.84375 
L 16.75 58.453125 
Q 16.75 60.84375 15.796875 62.234375 
Q 14.84375 63.625 11.921875 63.625 
L 3.328125 63.625 
L 3.328125 66.15625 
L 24.421875 66.15625 
z
" id="Times-Roman-93"/>
    </defs>
    <g transform="translate(84.384 28.56)scale(0.144 -0.144)">
     <use transform="translate(0 0.84375)" xlink:href="#DejaVuSans-Oblique-88"/>
     <use transform="translate(68.505859 0.34375)" xlink:href="#Times-Roman-32"/>
     <use transform="translate(93.505859 0.34375)" xlink:href="#Times-Roman-61"/>
     <use transform="translate(149.902344 0.34375)" xlink:href="#Times-Roman-32"/>
     <use transform="translate(174.902344 0.34375)" xlink:href="#Times-Roman-45"/>
     <use transform="translate(208.203125 0.34375)" xlink:href="#Times-Roman-48"/>
     <use transform="translate(258.203125 0.34375)" xlink:href="#Times-Roman-46"/>
     <use transform="translate(283.203125 0.34375)" xlink:href="#Times-Roman-51"/>
     <use transform="translate(333.203125 0.34375)" xlink:href="#Times-Roman-50"/>
     <use transform="translate(383.203125 0.34375)" xlink:href="#Times-Roman-59"/>
     <use transform="translate(410.986328 0.34375)" xlink:href="#Times-Roman-32"/>
     <use transform="translate(435.986328 0.34375)" xlink:href="#Times-Roman-57"/>
     <use transform="translate(485.986328 0.34375)" xlink:href="#Times-Roman-53"/>
     <use transform="translate(535.986328 0.34375)" xlink:href="#Times-Roman-37"/>
     <use transform="translate(619.287109 0.34375)" xlink:href="#Times-Roman-32"/>
     <use transform="translate(644.287109 0.34375)" xlink:href="#Times-Roman-67"/>
     <use transform="translate(710.986328 0.34375)" xlink:href="#Times-Roman-73"/>
     <use transform="translate(744.287109 0.34375)" xlink:href="#Times-Roman-32"/>
     <use transform="translate(769.287109 0.34375)" xlink:href="#Times-Roman-102"/>
     <use transform="translate(802.587891 0.34375)" xlink:href="#Times-Roman-114"/>
     <use transform="translate(835.888672 0.34375)" xlink:href="#Times-Roman-111"/>
     <use transform="translate(885.888672 0.34375)" xlink:href="#Times-Roman-109"/>
     <use transform="translate(963.671875 0.34375)" xlink:href="#Times-Roman-32"/>
     <use transform="translate(988.671875 0.34375)" xlink:href="#Times-Roman-69"/>
     <use transform="translate(1049.755859 0.34375)" xlink:href="#Times-Roman-113"/>
     <use transform="translate(1099.755859 0.34375)" xlink:href="#Times-Roman-110"/>
     <use transform="translate(1149.755859 0.34375)" xlink:href="#Times-Roman-32"/>
     <use transform="translate(1174.755859 0.34375)" xlink:href="#Times-Roman-55"/>
     <use transform="translate(1224.755859 0.34375)" xlink:href="#Times-Roman-46"/>
     <use transform="translate(1249.755859 0.34375)" xlink:href="#Times-Roman-49"/>
     <use transform="translate(1299.755859 0.34375)" xlink:href="#Times-Roman-53"/>
     <use transform="translate(1349.755859 0.34375)" xlink:href="#Times-Roman-58"/>
     <use transform="translate(1377.539062 0.34375)" xlink:href="#Times-Roman-32"/>
     <use transform="translate(1402.539062 0.34375)" xlink:href="#Times-Roman-91"/>
     <use transform="translate(1435.839844 0.34375)" xlink:href="#Times-Roman-45"/>
     <use transform="translate(1469.140625 0.34375)" xlink:href="#Times-Roman-48"/>
     <use transform="translate(1519.140625 0.34375)" xlink:href="#Times-Roman-46"/>
     <use transform="translate(1544.140625 0.34375)" xlink:href="#Times-Roman-57"/>
     <use transform="translate(1594.140625 0.34375)" xlink:href="#Times-Roman-48"/>
     <use transform="translate(1644.140625 0.34375)" xlink:href="#Times-Roman-44"/>
     <use transform="translate(1669.140625 0.34375)" xlink:href="#Times-Roman-32"/>
     <use transform="translate(1694.140625 0.34375)" xlink:href="#Times-Roman-48"/>
     <use transform="translate(1744.140625 0.34375)" xlink:href="#Times-Roman-46"/>
     <use transform="translate(1769.140625 0.34375)" xlink:href="#Times-Roman-50"/>
     <use transform="translate(1819.140625 0.34375)" xlink:href="#Times-Roman-53"/>
     <use transform="translate(1869.140625 0.34375)" xlink:href="#Times-Roman-93"/>
     <path d="M 0 85.5 
L 0 91.75 
L 68.505859 91.75 
L 68.505859 85.5 
L 0 85.5 
z
"/>
    </g>
   </g>
   <g id="legend_1">
    <g id="patch_7">
     <path d="M 224.998125 97.7475 
L 380.4 97.7475 
Q 382.8 97.7475 382.8 95.3475 
L 382.8 42.96 
Q 382.8 40.56 380.4 40.56 
L 224.998125 40.56 
Q 222.598125 40.56 222.598125 42.96 
L 222.598125 95.3475 
Q 222.598125 97.7475 224.998125 97.7475 
z
" style="fill:#ffffff;opacity:0.8;stroke:#cccccc;stroke-linejoin:miter;"/>
    </g>
    <g id="line2d_36">
     <path d="M 227.398125 49.56 
L 251.398125 49.56 
" style="fill:none;stroke:#000000;stroke-dasharray:1.5,2.475;stroke-dashoffset:0;stroke-width:1.5;"/>
    </g>
    <g id="line2d_37"/>
    <g id="text_20">
     <!-- 95% CI = [-0.79, 0.16] -->
     <defs>
      <path d="M 46.78125 22.21875 
Q 46.78125 13.28125 41.03125 6.09375 
Q 35.296875 -1.078125 26.125 -1.078125 
Q 17.53125 -1.078125 10.46875 6.984375 
Q 3.421875 15.046875 3.421875 28.421875 
Q 3.421875 45.65625 17.09375 58.015625 
Q 29.296875 68.359375 44.53125 68.359375 
L 44.78125 66.75 
Q 38.671875 65.625 34.25 63.6875 
Q 29.828125 61.765625 26.375 58.296875 
Q 22.796875 54.78125 19.671875 49.359375 
Q 16.546875 43.953125 15.375 38.625 
Q 18.40625 40.484375 20.609375 41.359375 
Q 24.515625 42.921875 28.46875 42.921875 
Q 36.234375 42.921875 41.5 37.546875 
Q 46.78125 32.171875 46.78125 22.21875 
z
M 37.84375 18.453125 
Q 37.84375 24.953125 35.796875 29.984375 
Q 32.375 38.375 24.171875 38.375 
Q 16.609375 38.375 14.109375 33.890625 
Q 12.640625 31.25 12.640625 25.09375 
Q 12.640625 17.140625 16.03125 9.515625 
Q 19.4375 1.90625 26.765625 1.90625 
Q 32.5625 1.90625 35.203125 6.859375 
Q 37.84375 11.8125 37.84375 18.453125 
z
" id="Times-Roman-54"/>
     </defs>
     <g transform="translate(260.998125 53.76)scale(0.12 -0.12)">
      <use xlink:href="#Times-Roman-57"/>
      <use x="50" xlink:href="#Times-Roman-53"/>
      <use x="100" xlink:href="#Times-Roman-37"/>
      <use x="183.300781" xlink:href="#Times-Roman-32"/>
      <use x="208.300781" xlink:href="#Times-Roman-67"/>
      <use x="275" xlink:href="#Times-Roman-73"/>
      <use x="308.300781" xlink:href="#Times-Roman-32"/>
      <use x="333.300781" xlink:href="#Times-Roman-61"/>
      <use x="389.697266" xlink:href="#Times-Roman-32"/>
      <use x="414.697266" xlink:href="#Times-Roman-91"/>
      <use x="447.998047" xlink:href="#Times-Roman-45"/>
      <use x="481.298828" xlink:href="#Times-Roman-48"/>
      <use x="531.298828" xlink:href="#Times-Roman-46"/>
      <use x="556.298828" xlink:href="#Times-Roman-55"/>
      <use x="606.298828" xlink:href="#Times-Roman-57"/>
      <use x="656.298828" xlink:href="#Times-Roman-44"/>
      <use x="681.298828" xlink:href="#Times-Roman-32"/>
      <use x="706.298828" xlink:href="#Times-Roman-48"/>
      <use x="756.298828" xlink:href="#Times-Roman-46"/>
      <use x="781.298828" xlink:href="#Times-Roman-49"/>
      <use x="831.298828" xlink:href="#Times-Roman-54"/>
      <use x="881.298828" xlink:href="#Times-Roman-93"/>
     </g>
    </g>
    <g id="line2d_38">
     <path d="M 227.398125 69.12 
L 251.398125 69.12 
" style="fill:none;stroke:#000000;stroke-linecap:square;stroke-width:1.5;"/>
    </g>
    <g id="line2d_39"/>
    <g id="text_21">
     <!-- $\hat{\mu} = -0.32$ -->
     <defs>
      <path d="M -28.609375 79.984375 
L -21.390625 79.984375 
L -9.421875 61.625 
L -16.21875 61.625 
L -25 73.578125 
L -33.796875 61.625 
L -40.578125 61.625 
z
M -25 56 
z
" id="DejaVuSans-770"/>
      <path d="M -1.3125 -20.796875 
L 13.375 54.6875 
L 22.40625 54.6875 
L 15.765625 20.65625 
Q 15.578125 19.625 15.421875 18.359375 
Q 15.28125 17.09375 15.28125 15.828125 
Q 15.28125 11.28125 18.140625 8.828125 
Q 21 6.390625 26.3125 6.390625 
Q 33.546875 6.390625 37.984375 10.484375 
Q 42.4375 14.59375 44 22.796875 
L 50.203125 54.6875 
L 59.1875 54.6875 
L 51.03125 12.640625 
Q 50.828125 11.71875 50.75 11.03125 
Q 50.6875 10.359375 50.6875 9.8125 
Q 50.6875 8.296875 51.296875 7.59375 
Q 51.90625 6.890625 53.21875 6.890625 
Q 53.71875 6.890625 54.5625 7.125 
Q 55.421875 7.375 56.984375 8.015625 
L 55.609375 0.78125 
Q 53.46875 -0.296875 51.515625 -0.859375 
Q 49.5625 -1.421875 47.703125 -1.421875 
Q 44.484375 -1.421875 42.65625 0.625 
Q 40.828125 2.6875 40.828125 6.296875 
Q 38.09375 2.390625 34.296875 0.484375 
Q 30.515625 -1.421875 25.390625 -1.421875 
Q 20.84375 -1.421875 17.453125 0.671875 
Q 14.0625 2.78125 12.984375 6.203125 
L 7.71875 -20.796875 
z
" id="DejaVuSans-Oblique-956"/>
      <path d="M 10.59375 45.40625 
L 73.1875 45.40625 
L 73.1875 37.203125 
L 10.59375 37.203125 
z
M 10.59375 25.484375 
L 73.1875 25.484375 
L 73.1875 17.1875 
L 10.59375 17.1875 
z
" id="DejaVuSans-61"/>
      <path d="M 10.59375 35.5 
L 73.1875 35.5 
L 73.1875 27.203125 
L 10.59375 27.203125 
z
" id="DejaVuSans-8722"/>
      <path d="M 31.78125 66.40625 
Q 24.171875 66.40625 20.328125 58.90625 
Q 16.5 51.421875 16.5 36.375 
Q 16.5 21.390625 20.328125 13.890625 
Q 24.171875 6.390625 31.78125 6.390625 
Q 39.453125 6.390625 43.28125 13.890625 
Q 47.125 21.390625 47.125 36.375 
Q 47.125 51.421875 43.28125 58.90625 
Q 39.453125 66.40625 31.78125 66.40625 
z
M 31.78125 74.21875 
Q 44.046875 74.21875 50.515625 64.515625 
Q 56.984375 54.828125 56.984375 36.375 
Q 56.984375 17.96875 50.515625 8.265625 
Q 44.046875 -1.421875 31.78125 -1.421875 
Q 19.53125 -1.421875 13.0625 8.265625 
Q 6.59375 17.96875 6.59375 36.375 
Q 6.59375 54.828125 13.0625 64.515625 
Q 19.53125 74.21875 31.78125 74.21875 
z
" id="DejaVuSans-48"/>
      <path d="M 10.6875 12.40625 
L 21 12.40625 
L 21 0 
L 10.6875 0 
z
" id="DejaVuSans-46"/>
      <path d="M 40.578125 39.3125 
Q 47.65625 37.796875 51.625 33 
Q 55.609375 28.21875 55.609375 21.1875 
Q 55.609375 10.40625 48.1875 4.484375 
Q 40.765625 -1.421875 27.09375 -1.421875 
Q 22.515625 -1.421875 17.65625 -0.515625 
Q 12.796875 0.390625 7.625 2.203125 
L 7.625 11.71875 
Q 11.71875 9.328125 16.59375 8.109375 
Q 21.484375 6.890625 26.8125 6.890625 
Q 36.078125 6.890625 40.9375 10.546875 
Q 45.796875 14.203125 45.796875 21.1875 
Q 45.796875 27.640625 41.28125 31.265625 
Q 36.765625 34.90625 28.71875 34.90625 
L 20.21875 34.90625 
L 20.21875 43.015625 
L 29.109375 43.015625 
Q 36.375 43.015625 40.234375 45.921875 
Q 44.09375 48.828125 44.09375 54.296875 
Q 44.09375 59.90625 40.109375 62.90625 
Q 36.140625 65.921875 28.71875 65.921875 
Q 24.65625 65.921875 20.015625 65.03125 
Q 15.375 64.15625 9.8125 62.3125 
L 9.8125 71.09375 
Q 15.4375 72.65625 20.34375 73.4375 
Q 25.25 74.21875 29.59375 74.21875 
Q 40.828125 74.21875 47.359375 69.109375 
Q 53.90625 64.015625 53.90625 55.328125 
Q 53.90625 49.265625 50.4375 45.09375 
Q 46.96875 40.921875 40.578125 39.3125 
z
" id="DejaVuSans-51"/>
      <path d="M 19.1875 8.296875 
L 53.609375 8.296875 
L 53.609375 0 
L 7.328125 0 
L 7.328125 8.296875 
Q 12.9375 14.109375 22.625 23.890625 
Q 32.328125 33.6875 34.8125 36.53125 
Q 39.546875 41.84375 41.421875 45.53125 
Q 43.3125 49.21875 43.3125 52.78125 
Q 43.3125 58.59375 39.234375 62.25 
Q 35.15625 65.921875 28.609375 65.921875 
Q 23.96875 65.921875 18.8125 64.3125 
Q 13.671875 62.703125 7.8125 59.421875 
L 7.8125 69.390625 
Q 13.765625 71.78125 18.9375 73 
Q 24.125 74.21875 28.421875 74.21875 
Q 39.75 74.21875 46.484375 68.546875 
Q 53.21875 62.890625 53.21875 53.421875 
Q 53.21875 48.921875 51.53125 44.890625 
Q 49.859375 40.875 45.40625 35.40625 
Q 44.1875 33.984375 37.640625 27.21875 
Q 31.109375 20.453125 19.1875 8.296875 
z
" id="DejaVuSans-50"/>
     </defs>
     <g transform="translate(260.998125 73.32)scale(0.12 -0.12)">
      <use transform="translate(64.483887 12.015625)" xlink:href="#DejaVuSans-770"/>
      <use transform="translate(0 0.828125)" xlink:href="#DejaVuSans-Oblique-956"/>
      <use transform="translate(83.105469 0.828125)" xlink:href="#DejaVuSans-61"/>
      <use transform="translate(205.859375 0.828125)" xlink:href="#DejaVuSans-8722"/>
      <use transform="translate(309.130859 0.828125)" xlink:href="#DejaVuSans-48"/>
      <use transform="translate(372.753906 0.828125)" xlink:href="#DejaVuSans-46"/>
      <use transform="translate(404.541016 0.828125)" xlink:href="#DejaVuSans-51"/>
      <use transform="translate(468.164062 0.828125)" xlink:href="#DejaVuSans-50"/>
     </g>
    </g>
    <g id="patch_8">
     <path d="M 227.398125 90.33375 
L 251.398125 90.33375 
L 251.398125 81.93375 
L 227.398125 81.93375 
z
" style="opacity:0.5;stroke:#000000;stroke-linejoin:miter;"/>
    </g>
    <g id="text_22">
     <!-- Bootstrap sampling dist. -->
     <defs>
      <path d="M 29.734375 3.609375 
Q 37.40625 3.609375 42.578125 6.59375 
Q 47.75 9.578125 47.75 18.015625 
Q 47.75 26.421875 41.6875 29.484375 
Q 35.640625 32.5625 26.265625 32.5625 
Q 23.96875 32.5625 23.359375 32.5625 
Q 22.75 32.5625 21.484375 32.625 
L 21.484375 7.71875 
Q 21.484375 5.125 22.953125 4.359375 
Q 24.421875 3.609375 29.734375 3.609375 
z
M 1.703125 1.8125 
Q 7.765625 2.15625 9.546875 3.6875 
Q 11.328125 5.21875 11.328125 10.84375 
L 11.328125 55.328125 
Q 11.328125 60.84375 9.546875 62.421875 
Q 7.765625 64.015625 1.703125 64.3125 
L 1.703125 66.15625 
L 29.734375 66.15625 
Q 41.75 66.15625 48.796875 62.296875 
Q 55.859375 58.453125 55.859375 49.03125 
Q 55.859375 41.9375 50.921875 38.28125 
Q 48.140625 36.1875 42.578125 34.8125 
Q 49.46875 33.15625 54.34375 29.265625 
Q 59.234375 25.390625 59.234375 18.40625 
Q 59.234375 6.6875 48.390625 2.296875 
Q 42.671875 0 34.328125 0 
L 1.703125 0 
z
M 31 36.578125 
Q 36.03125 36.671875 39.359375 38.1875 
Q 45.703125 41.109375 45.703125 48.6875 
Q 45.703125 57.625 38.375 60.75 
Q 34.328125 62.453125 26.078125 62.453125 
Q 22.953125 62.453125 22.21875 61.90625 
Q 21.484375 61.375 21.484375 58.984375 
L 21.484375 36.421875 
L 31 36.578125 
z
" id="Times-Roman-66"/>
      <path d="M 25.4375 45.015625 
L 25.4375 41.5 
L 15.484375 41.5 
L 15.375 13.375 
Q 15.375 9.671875 16.015625 7.765625 
Q 17.1875 4.390625 20.609375 4.390625 
Q 22.359375 4.390625 23.65625 5.21875 
Q 24.953125 6.0625 26.609375 7.859375 
L 27.875 6.78125 
L 26.8125 5.328125 
Q 24.265625 1.90625 21.4375 0.484375 
Q 18.609375 -0.921875 15.96875 -0.921875 
Q 10.203125 -0.921875 8.15625 4.203125 
Q 7.03125 6.984375 7.03125 11.921875 
L 7.03125 41.5 
L 1.703125 41.5 
Q 1.46875 41.65625 1.34375 41.796875 
Q 1.21875 41.9375 1.21875 42.1875 
Q 1.21875 42.671875 1.4375 42.9375 
Q 1.65625 43.21875 2.828125 44.1875 
Q 6.203125 46.96875 7.6875 48.703125 
Q 9.1875 50.4375 14.703125 57.859375 
Q 15.328125 57.859375 15.453125 57.765625 
Q 15.578125 57.671875 15.578125 57.03125 
L 15.578125 45.015625 
z
" id="Times-Roman-116"/>
      <path d="M 5.171875 15.375 
L 6.78125 15.375 
Q 7.90625 9.8125 9.8125 6.84375 
Q 13.234375 1.375 19.828125 1.375 
Q 23.484375 1.375 25.609375 3.390625 
Q 27.734375 5.421875 27.734375 8.640625 
Q 27.734375 10.6875 26.515625 12.59375 
Q 25.296875 14.5 22.21875 16.3125 
L 16.75 19.4375 
Q 10.75 22.65625 7.90625 25.921875 
Q 5.078125 29.203125 5.078125 33.640625 
Q 5.078125 39.109375 8.984375 42.625 
Q 12.890625 46.140625 18.796875 46.140625 
Q 21.390625 46.140625 24.484375 45.15625 
Q 27.59375 44.1875 27.984375 44.1875 
Q 28.859375 44.1875 29.25 44.421875 
Q 29.640625 44.671875 29.9375 45.21875 
L 31.109375 45.21875 
L 31.453125 31.59375 
L 29.9375 31.59375 
Q 28.953125 36.328125 27.296875 38.96875 
Q 24.265625 43.84375 18.5625 43.84375 
Q 15.140625 43.84375 13.1875 41.75 
Q 11.234375 39.65625 11.234375 36.8125 
Q 11.234375 32.328125 17.96875 28.8125 
L 24.421875 25.34375 
Q 34.8125 19.671875 34.8125 12.15625 
Q 34.8125 6.390625 30.484375 2.734375 
Q 26.171875 -0.921875 19.1875 -0.921875 
Q 16.265625 -0.921875 12.546875 0.046875 
Q 8.84375 1.03125 8.15625 1.03125 
Q 7.5625 1.03125 7.125 0.609375 
Q 6.6875 0.203125 6.453125 -0.390625 
L 5.171875 -0.390625 
z
M 19.484375 46.140625 
z
" id="Times-Roman-115"/>
      <path d="M 28.65625 27.046875 
Q 23.046875 25.203125 19.390625 22.953125 
Q 12.359375 18.609375 12.359375 13.09375 
Q 12.359375 8.640625 15.28125 6.546875 
Q 17.1875 5.171875 19.53125 5.171875 
Q 22.75 5.171875 25.703125 6.984375 
Q 28.65625 8.796875 28.65625 11.578125 
z
M 3.65625 9.71875 
Q 3.65625 16.796875 10.75 21.53125 
Q 15.234375 24.46875 28.65625 29.5 
L 28.65625 33.640625 
Q 28.65625 38.625 27.6875 40.578125 
Q 26.03125 43.84375 20.796875 43.84375 
Q 18.3125 43.84375 16.0625 42.578125 
Q 13.8125 41.265625 13.8125 38.96875 
Q 13.8125 38.375 14.0625 36.984375 
Q 14.3125 35.59375 14.3125 35.203125 
Q 14.3125 32.46875 12.5 31.390625 
Q 11.46875 30.765625 10.0625 30.765625 
Q 7.859375 30.765625 6.6875 32.203125 
Q 5.515625 33.640625 5.515625 35.40625 
Q 5.515625 38.8125 9.734375 42.546875 
Q 13.96875 46.296875 22.125 46.296875 
Q 31.59375 46.296875 34.96875 40.140625 
Q 36.765625 36.765625 36.765625 30.328125 
L 36.765625 10.75 
Q 36.765625 7.90625 37.15625 6.84375 
Q 37.796875 4.9375 39.796875 4.9375 
Q 40.921875 4.9375 41.65625 5.265625 
Q 42.390625 5.609375 44.1875 6.9375 
L 44.1875 4.390625 
Q 42.625 2.484375 40.828125 1.265625 
Q 38.09375 -0.59375 35.25 -0.59375 
Q 31.9375 -0.59375 30.4375 1.5625 
Q 28.953125 3.71875 28.8125 6.6875 
Q 25.09375 3.46875 22.46875 1.90625 
Q 18.015625 -0.734375 14.015625 -0.734375 
Q 9.8125 -0.734375 6.734375 2.21875 
Q 3.65625 5.171875 3.65625 9.71875 
z
M 22.265625 46.296875 
z
" id="Times-Roman-97"/>
      <path d="M 15.96875 8.984375 
Q 17.234375 5.671875 19.75 4.03125 
Q 22.265625 2.390625 25.6875 2.390625 
Q 30.953125 2.390625 34.6875 7.640625 
Q 38.421875 12.890625 38.421875 22.265625 
Q 38.421875 31.25 34.546875 35.6875 
Q 30.671875 40.140625 25.53125 40.140625 
Q 21.921875 40.140625 18.9375 37.90625 
Q 15.96875 35.6875 15.96875 33.546875 
L 15.96875 8.984375 
z
M 0.4375 -20.171875 
Q 5.03125 -19.875 6.265625 -18.203125 
Q 7.515625 -16.546875 7.515625 -12.984375 
L 7.515625 33.890625 
Q 7.515625 37.59375 6.609375 38.640625 
Q 5.71875 39.703125 3.21875 39.703125 
Q 2.6875 39.703125 2.21875 39.640625 
Q 1.765625 39.59375 0.875 39.453125 
L 0.875 41.0625 
L 5.515625 42.578125 
Q 5.765625 42.625 15.328125 45.953125 
Q 15.578125 45.953125 15.703125 45.734375 
Q 15.828125 45.515625 15.828125 45.21875 
L 15.828125 38.625 
Q 19.046875 41.84375 21.484375 43.40625 
Q 25.875 46.140625 30.515625 46.140625 
Q 37.25 46.140625 42.109375 40.40625 
Q 46.96875 34.671875 46.96875 24.703125 
Q 46.96875 14.9375 41.125 6.96875 
Q 35.296875 -0.984375 26.46875 -0.984375 
Q 23.734375 -0.984375 21.734375 -0.296875 
Q 18.609375 0.734375 15.96875 3.46875 
L 15.96875 -12.5 
Q 15.96875 -17.4375 17.578125 -18.546875 
Q 19.1875 -19.671875 24.609375 -20.0625 
L 24.609375 -21.78125 
L 0.4375 -21.78125 
z
" id="Times-Roman-112"/>
      <path d="M 2.046875 1.375 
Q 6.59375 1.8125 8.203125 3.203125 
Q 9.8125 4.59375 9.8125 8.640625 
L 9.8125 56.34375 
Q 9.8125 59.578125 9.28125 60.796875 
Q 8.296875 62.84375 5.328125 62.84375 
Q 4.640625 62.84375 3.828125 62.6875 
Q 3.03125 62.546875 1.8125 62.25 
L 1.8125 63.875 
Q 8.40625 65.625 17.671875 68.5625 
Q 18.015625 68.5625 18.09375 68.265625 
Q 18.171875 67.96875 18.171875 67 
L 18.171875 8.453125 
Q 18.171875 4.203125 19.625 2.953125 
Q 21.09375 1.703125 25.6875 1.375 
L 25.6875 0 
L 2.046875 0 
z
" id="Times-Roman-108"/>
      <path d="M 8.203125 63.03125 
Q 8.203125 65.140625 9.671875 66.65625 
Q 11.140625 68.171875 13.28125 68.171875 
Q 15.375 68.171875 16.859375 66.671875 
Q 18.359375 65.1875 18.359375 63.03125 
Q 18.359375 60.9375 16.859375 59.4375 
Q 15.375 57.953125 13.28125 57.953125 
Q 11.140625 57.953125 9.671875 59.4375 
Q 8.203125 60.9375 8.203125 63.03125 
z
M 1.953125 1.375 
Q 7.171875 1.859375 8.53125 3.140625 
Q 9.90625 4.4375 9.90625 10.15625 
L 9.90625 33.453125 
Q 9.90625 36.625 9.46875 37.84375 
Q 8.734375 39.84375 6.390625 39.84375 
Q 5.859375 39.84375 5.34375 39.75 
Q 4.828125 39.65625 2.390625 38.96875 
L 2.390625 40.484375 
L 4.5 41.15625 
Q 13.03125 43.953125 16.40625 45.359375 
Q 17.78125 45.953125 18.171875 45.953125 
Q 18.265625 45.609375 18.265625 45.21875 
L 18.265625 10.15625 
Q 18.265625 4.59375 19.609375 3.171875 
Q 20.953125 1.765625 25.6875 1.375 
L 25.6875 0 
L 1.953125 0 
z
" id="Times-Roman-105"/>
      <path d="M 9.8125 -9.03125 
Q 9.8125 -13.140625 14.421875 -14.703125 
Q 19.046875 -16.265625 25 -16.265625 
Q 33.109375 -16.265625 38.1875 -13.453125 
Q 43.265625 -10.640625 43.265625 -6.546875 
Q 43.265625 -3.265625 39.15625 -2.203125 
Q 36.625 -1.5625 29.546875 -1.46875 
Q 27.734375 -1.421875 25.734375 -1.34375 
Q 23.734375 -1.265625 22.078125 -1.171875 
Q 21 -1.125 18.609375 -0.78125 
Q 16.21875 -0.4375 15.046875 -0.203125 
Q 14.453125 -0.203125 12.15625 -3.265625 
Q 9.8125 -6.390625 9.8125 -9.03125 
z
M 16.15625 16.40625 
Q 11.71875 17.875 9.25 21.625 
Q 6.78125 25.390625 6.78125 30.078125 
Q 6.78125 35.796875 11.328125 40.921875 
Q 15.875 46.046875 24.171875 46.046875 
Q 27.734375 46.046875 32.03125 44.359375 
Q 36.328125 42.671875 40.28125 42.671875 
Q 41.3125 42.671875 43.375 42.75 
Q 45.453125 42.828125 46.390625 42.828125 
L 46.96875 42.828125 
L 46.96875 38.875 
L 38.53125 38.875 
Q 39.40625 36.8125 39.890625 35.296875 
Q 40.71875 32.46875 40.71875 29.9375 
Q 40.71875 24.359375 36.109375 19.703125 
Q 31.5 15.046875 23.6875 15.046875 
Q 22.46875 15.046875 19.28125 15.484375 
Q 17.875 15.484375 15.546875 13.078125 
Q 13.234375 10.6875 13.234375 9.1875 
Q 13.234375 7.625 16.65625 6.890625 
Q 18.890625 6.390625 21.625 6.390625 
Q 34.1875 6.390625 38.671875 4.984375 
Q 46.046875 2.6875 46.046875 -4.890625 
Q 46.046875 -12.59375 37.421875 -17.1875 
Q 28.8125 -21.78125 20.015625 -21.78125 
Q 12.015625 -21.78125 7.328125 -18.53125 
Q 2.640625 -15.28125 2.640625 -11.71875 
Q 2.640625 -9.96875 3.875 -8.28125 
Q 5.125 -6.59375 8.796875 -3.265625 
L 12.015625 -0.390625 
L 12.59375 0.203125 
Q 10.359375 1.078125 9.234375 1.90625 
Q 7.28125 3.421875 7.28125 5.375 
Q 7.28125 7.171875 8.953125 9.34375 
Q 10.640625 11.53125 16.15625 16.40625 
z
M 25.4375 17.390625 
Q 28.125 17.390625 29.9375 18.84375 
Q 32.859375 21.1875 32.859375 27 
Q 32.859375 31.640625 30.484375 37.453125 
Q 28.125 43.265625 22.609375 43.265625 
Q 17.828125 43.265625 16.015625 38.71875 
Q 15.09375 36.328125 15.09375 32.8125 
Q 15.09375 26.859375 17.96875 22.125 
Q 20.84375 17.390625 25.4375 17.390625 
z
M 25.046875 46.046875 
z
" id="Times-Roman-103"/>
      <path d="M 23.6875 46.140625 
Q 27.25 46.140625 30.21875 44.578125 
Q 32.171875 43.5625 33.984375 41.75 
L 33.984375 57.28125 
Q 33.984375 60.25 33.328125 61.375 
Q 32.671875 62.5 30.171875 62.5 
Q 29.59375 62.5 29.15625 62.453125 
Q 28.71875 62.40625 27.203125 62.25 
L 27.203125 63.875 
L 31.203125 64.890625 
Q 33.40625 65.484375 35.59375 66.109375 
Q 37.796875 66.75 39.453125 67.328125 
Q 40.234375 67.578125 42.046875 68.265625 
L 42.328125 68.171875 
L 42.234375 63.03125 
Q 42.1875 60.25 42.140625 57.296875 
Q 42.09375 54.34375 42.09375 51.46875 
L 42 11.578125 
Q 42 8.40625 42.78125 7.125 
Q 43.5625 5.859375 46.921875 5.859375 
Q 47.46875 5.859375 48 5.875 
Q 48.53125 5.90625 49.078125 6 
L 49.078125 4.390625 
Q 48.78125 4.296875 42 1.953125 
L 34.328125 -0.921875 
L 33.984375 -0.484375 
L 33.984375 5.515625 
Q 31.25 2.546875 29.25 1.265625 
Q 25.6875 -0.921875 21 -0.921875 
Q 12.703125 -0.921875 7.546875 5.5 
Q 2.390625 11.921875 2.390625 20.359375 
Q 2.390625 30.953125 8.5625 38.546875 
Q 14.75 46.140625 23.6875 46.140625 
z
M 25.484375 4.34375 
Q 29.296875 4.34375 31.640625 6.59375 
Q 33.984375 8.84375 33.984375 10.84375 
L 33.984375 31.78125 
Q 33.984375 38.140625 30.59375 40.75 
Q 27.203125 43.359375 23.96875 43.359375 
Q 17.828125 43.359375 14.40625 37.90625 
Q 10.984375 32.46875 10.984375 24.515625 
Q 10.984375 16.65625 14.625 10.5 
Q 18.265625 4.34375 25.484375 4.34375 
z
" id="Times-Roman-100"/>
     </defs>
     <g transform="translate(260.998125 90.33375)scale(0.12 -0.12)">
      <use xlink:href="#Times-Roman-66"/>
      <use x="66.699219" xlink:href="#Times-Roman-111"/>
      <use x="116.699219" xlink:href="#Times-Roman-111"/>
      <use x="166.699219" xlink:href="#Times-Roman-116"/>
      <use x="194.482422" xlink:href="#Times-Roman-115"/>
      <use x="233.398438" xlink:href="#Times-Roman-116"/>
      <use x="261.181641" xlink:href="#Times-Roman-114"/>
      <use x="294.482422" xlink:href="#Times-Roman-97"/>
      <use x="338.867188" xlink:href="#Times-Roman-112"/>
      <use x="388.867188" xlink:href="#Times-Roman-32"/>
      <use x="413.867188" xlink:href="#Times-Roman-115"/>
      <use x="452.783203" xlink:href="#Times-Roman-97"/>
      <use x="497.167969" xlink:href="#Times-Roman-109"/>
      <use x="574.951172" xlink:href="#Times-Roman-112"/>
      <use x="624.951172" xlink:href="#Times-Roman-108"/>
      <use x="652.734375" xlink:href="#Times-Roman-105"/>
      <use x="680.517578" xlink:href="#Times-Roman-110"/>
      <use x="730.517578" xlink:href="#Times-Roman-103"/>
      <use x="780.517578" xlink:href="#Times-Roman-32"/>
      <use x="805.517578" xlink:href="#Times-Roman-100"/>
      <use x="855.517578" xlink:href="#Times-Roman-105"/>
      <use x="883.300781" xlink:href="#Times-Roman-115"/>
      <use x="922.216797" xlink:href="#Times-Roman-116"/>
      <use x="950" xlink:href="#Times-Roman-46"/>
     </g>
    </g>
   </g>
  </g>
 </g>
 <defs>
  <clipPath id="pceb3f1014f">
   <rect height="217.44" width="334.8" x="54" y="34.56"/>
  </clipPath>
 </defs>
</svg>
