<svg xmlns="http://www.w3.org/2000/svg" xmlns:xlink="http://www.w3.org/1999/xlink" x="0" y="0" width="368" height="252" style="
        width:368px;
        height:252px;
        background: transparent;
        fill: none;
">
        
        
        <svg xmlns="http://www.w3.org/2000/svg" class="role-diagram-draw-area"><g class="shapes-region" style="stroke: black; fill: none;"><g class="composite-shape"><path class="real" d=" M42.5,22.75 L349,22.75 L349,227 L42.5,227 Z" style="stroke-width: 1; stroke: none; fill: none; fill-opacity: 1;"/><path class="real" d=" M42.5,22.75 L42.5,227 M144.5,22.75 L144.5,227 M246.5,22.75 L246.5,227 M348.5,22.75 L348.5,227" style="stroke-width: 1; stroke: rgb(0, 0, 0); fill: none; fill-opacity: 1;"/><path class="real" d=" M42.5,22.75 L349,22.75 M42.5,124.75 L349,124.75 M42.5,226.75 L349,226.75" style="stroke-width: 1; stroke: rgb(0, 0, 0); fill: none; fill-opacity: 1;"/><path class="real" d=" " style="stroke-width: 1; stroke: rgb(0, 0, 0); fill: none; fill-opacity: 1;"/></g><g class="composite-shape"><path class="real" d=" M61.75,153.88 C61.75,152.98 62.48,152.25 63.38,152.25 C64.27,152.25 65,152.98 65,153.88 C65,154.77 64.27,155.5 63.38,155.5 C62.48,155.5 61.75,154.77 61.75,153.88 Z" style="stroke-width: 1; stroke: rgb(0, 0, 0); fill: rgb(0, 0, 0); fill-opacity: 1;"/></g><g class="composite-shape"><path class="real" d=" M95.75,89.63 C95.75,88.73 96.48,88 97.38,88 C98.27,88 99,88.73 99,89.63 C99,90.52 98.27,91.25 97.38,91.25 C96.48,91.25 95.75,90.52 95.75,89.63 Z" style="stroke-width: 1; stroke: rgb(0, 0, 0); fill: rgb(0, 0, 0); fill-opacity: 1;"/></g><g class="composite-shape"><path class="real" d=" M74.5,67.63 C74.5,66.73 75.23,66 76.13,66 C77.02,66 77.75,66.73 77.75,67.63 C77.75,68.52 77.02,69.25 76.13,69.25 C75.23,69.25 74.5,68.52 74.5,67.63 Z" style="stroke-width: 1; stroke: rgb(0, 0, 0); fill: rgb(0, 0, 0); fill-opacity: 1;"/></g><g class="composite-shape"><path class="real" d=" M86,172.38 C86,171.48 86.73,170.75 87.63,170.75 C88.52,170.75 89.25,171.48 89.25,172.38 C89.25,173.27 88.52,174 87.63,174 C86.73,174 86,173.27 86,172.38 Z" style="stroke-width: 1; stroke: rgb(0, 0, 0); fill: rgb(0, 0, 0); fill-opacity: 1;"/></g><g class="composite-shape"><path class="real" d=" M102.75,152.88 C102.75,151.98 103.48,151.25 104.38,151.25 C105.27,151.25 106,151.98 106,152.88 C106,153.77 105.27,154.5 104.38,154.5 C103.48,154.5 102.75,153.77 102.75,152.88 Z" style="stroke-width: 1; stroke: rgb(0, 0, 0); fill: rgb(0, 0, 0); fill-opacity: 1;"/></g><g class="composite-shape"><path class="real" d=" M213.5,64.13 C213.5,63.23 214.23,62.5 215.13,62.5 C216.02,62.5 216.75,63.23 216.75,64.13 C216.75,65.02 216.02,65.75 215.13,65.75 C214.23,65.75 213.5,65.02 213.5,64.13 Z" style="stroke-width: 1; stroke: rgb(0, 0, 0); fill: rgb(0, 0, 0); fill-opacity: 1;"/></g><g class="composite-shape"><path class="real" d=" M180,66.13 C180,65.23 180.73,64.5 181.63,64.5 C182.52,64.5 183.25,65.23 183.25,66.13 C183.25,67.02 182.52,67.75 181.63,67.75 C180.73,67.75 180,67.02 180,66.13 Z" style="stroke-width: 1; stroke: rgb(0, 0, 0); fill: rgb(0, 0, 0); fill-opacity: 1;"/></g><g class="composite-shape"><path class="real" d=" M185.25,196.38 C185.25,195.48 185.98,194.75 186.88,194.75 C187.77,194.75 188.5,195.48 188.5,196.38 C188.5,197.27 187.77,198 186.88,198 C185.98,198 185.25,197.27 185.25,196.38 Z" style="stroke-width: 1; stroke: rgb(0, 0, 0); fill: rgb(0, 0, 0); fill-opacity: 1;"/></g><g class="composite-shape"><path class="real" d=" M177.75,165.13 C177.75,164.23 178.48,163.5 179.38,163.5 C180.27,163.5 181,164.23 181,165.13 C181,166.02 180.27,166.75 179.38,166.75 C178.48,166.75 177.75,166.02 177.75,165.13 Z" style="stroke-width: 1; stroke: rgb(0, 0, 0); fill: rgb(0, 0, 0); fill-opacity: 1;"/></g><g class="composite-shape"><path class="real" d=" M275.25,56.13 C275.25,55.23 275.98,54.5 276.88,54.5 C277.77,54.5 278.5,55.23 278.5,56.13 C278.5,57.02 277.77,57.75 276.88,57.75 C275.98,57.75 275.25,57.02 275.25,56.13 Z" style="stroke-width: 1; stroke: rgb(0, 0, 0); fill: rgb(0, 0, 0); fill-opacity: 1;"/></g><g class="composite-shape"><path class="real" d=" M299.5,74.63 C299.5,73.73 300.23,73 301.13,73 C302.02,73 302.75,73.73 302.75,74.63 C302.75,75.52 302.02,76.25 301.13,76.25 C300.23,76.25 299.5,75.52 299.5,74.63 Z" style="stroke-width: 1; stroke: rgb(0, 0, 0); fill: rgb(0, 0, 0); fill-opacity: 1;"/></g><g class="composite-shape"><path class="real" d=" M316.25,55.13 C316.25,54.23 316.98,53.5 317.88,53.5 C318.77,53.5 319.5,54.23 319.5,55.13 C319.5,56.02 318.77,56.75 317.88,56.75 C316.98,56.75 316.25,56.02 316.25,55.13 Z" style="stroke-width: 1; stroke: rgb(0, 0, 0); fill: rgb(0, 0, 0); fill-opacity: 1;"/></g><g class="composite-shape"><path class="real" d=" M284,158.88 C284,157.98 284.73,157.25 285.63,157.25 C286.52,157.25 287.25,157.98 287.25,158.88 C287.25,159.77 286.52,160.5 285.63,160.5 C284.73,160.5 284,159.77 284,158.88 Z" style="stroke-width: 1; stroke: rgb(0, 0, 0); fill: rgb(0, 0, 0); fill-opacity: 1;"/></g><g/></g><g/><g/><g/></svg>
        <svg xmlns="http://www.w3.org/2000/svg" xmlns:xlink="http://www.w3.org/1999/xlink" width="366" height="250" style="width:366px;height:250px;font-family:Asana-Math, Asana;background:transparent;"><g><g><g><g transform="matrix(1,0,0,1,14.5,80.5)"><path transform="matrix(0.017,0,0,-0.017,0,0)" d="M567 55C567 39 552 30 524 28L480 25L480 -3C582 0 582 0 602 0C622 0 622 0 724 -3L724 25L698 28C651 35 650 35 642 80L555 705L509 705L136 112C100 56 82 40 48 32L28 27L28 -3C120 0 120 0 140 0C159 0 161 0 247 -3L247 25L195 28C179 29 164 38 164 47C164 55 171 69 190 102L292 277L538 277L563 89L563 86C563 84 567 69 567 55ZM496 601L533 313L317 313Z" stroke="rgb(0,0,0)" stroke-opacity="1" stroke-width="8" fill="rgb(0,0,0)" fill-opacity="1"></path></g></g></g></g><g><g><g><g transform="matrix(1,0,0,1,14.25,174)"><path transform="matrix(0.017,0,0,-0.017,0,0)" d="M543 227C543 337 459 353 377 365C434 385 459 397 490 425C536 464 559 511 559 562C559 644 501 692 401 692C399 692 389 692 374 691L311 690C299 689 263 689 251 689C232 689 201 690 152 691L100 692L97 664L150 662C174 661 185 653 185 635C185 621 181 589 176 559L89 55C85 37 73 30 31 23L26 -3L63 -2C90 0 105 0 117 0C128 0 154 -1 180 -2L217 -3L237 -4C256 -5 269 -6 277 -6C392 -6 543 87 543 227ZM166 41L217 340L302 340C405 340 455 298 455 211C455 108 382 34 282 34C228 34 207 38 166 41ZM352 655C433 655 473 619 473 544C473 439 399 376 275 376L223 376L272 650C288 650 329 655 352 655Z" stroke="rgb(0,0,0)" stroke-opacity="1" stroke-width="8" fill="rgb(0,0,0)" fill-opacity="1"></path></g></g></g></g><g><g><g><g transform="matrix(1,0,0,1,82.5,17.25)"><path transform="matrix(0.017,0,0,-0.017,0,0)" d="M416 25L416 -3C464 -1 509 0 551 0C591 0 636 -1 684 -3L684 25L659 27C618 30 605 37 591 61L420 368L641 620C671 653 680 659 706 662L734 664L734 692L620 689C608 689 594 689 505 692L505 664L538 662C570 660 583 655 583 643C583 632 578 623 560 601L399 405L295 604C286 622 281 634 281 642C281 654 294 660 324 662L361 664L361 692L315 691C274 690 244 689 228 689C211 689 181 690 140 691L95 692L95 664L121 662C170 657 182 650 202 613L348 343L110 61C95 43 72 31 48 28L20 25L20 -3C69 -1 110 0 145 0C181 0 221 -1 264 -3L264 25L232 28C194 32 177 38 177 50C177 58 181 67 187 75L369 306L488 80C497 62 502 49 502 40C502 32 495 29 470 29L454 28Z" stroke="rgb(0,0,0)" stroke-opacity="1" stroke-width="8" fill="rgb(0,0,0)" fill-opacity="1"></path></g></g></g></g><g><g><g><g transform="matrix(1,0,0,1,188.5,17.25)"><path transform="matrix(0.017,0,0,-0.017,0,0)" d="M52 647L55 623C78 632 89 635 100 635C147 635 183 589 224 477C248 410 287 273 286 257C286 257 286 254 285 251L264 125C247 34 246 31 206 28L158 25L154 -3L207 -2C254 -1 277 0 293 0L390 -3L416 -3L419 25L370 28C343 30 334 37 334 57C334 63 335 73 336 78L362 246C371 301 436 419 510 512C568 586 610 616 669 626L675 697C602 678 549 636 474 536C413 452 374 384 346 310C271 616 223 704 131 705C128 702 90 672 67 658Z" stroke="rgb(0,0,0)" stroke-opacity="1" stroke-width="8" fill="rgb(0,0,0)" fill-opacity="1"></path></g></g></g></g><g><g><g><g transform="matrix(1,0,0,1,296,18.5)"><path transform="matrix(0.017,0,0,-0.017,0,0)" d="M20 -3C116 -1 174 0 261 0C339 0 456 -1 517 -2L583 -3C585 38 593 95 606 164L580 164L573 142L541 52C496 43 458 39 414 39L133 39L637 672L637 692L475 689L449 689L120 692C120 645 117 606 109 533L135 533C138 555 144 580 156 619L162 639C218 649 256 652 342 652L522 652L20 19Z" stroke="rgb(0,0,0)" stroke-opacity="1" stroke-width="8" fill="rgb(0,0,0)" fill-opacity="1"></path></g></g></g></g></svg>
</svg>
