<?xml version="1.0" encoding="utf-8" standalone="no"?>
<!DOCTYPE svg PUBLIC "-//W3C//DTD SVG 1.1//EN"
  "http://www.w3.org/Graphics/SVG/1.1/DTD/svg11.dtd">
<svg xmlns:xlink="http://www.w3.org/1999/xlink" width="460.8pt" height="345.6pt" viewBox="0 0 460.8 345.6" xmlns="http://www.w3.org/2000/svg" version="1.1">
 <metadata>
  <rdf:RDF xmlns:dc="http://purl.org/dc/elements/1.1/" xmlns:cc="http://creativecommons.org/ns#" xmlns:rdf="http://www.w3.org/1999/02/22-rdf-syntax-ns#">
   <cc:Work>
    <dc:type rdf:resource="http://purl.org/dc/dcmitype/StillImage"/>
    <dc:date>2025-02-07T17:03:59.756975</dc:date>
    <dc:format>image/svg+xml</dc:format>
    <dc:creator>
     <cc:Agent>
      <dc:title>Matplotlib v3.8.4, https://matplotlib.org/</dc:title>
     </cc:Agent>
    </dc:creator>
   </cc:Work>
  </rdf:RDF>
 </metadata>
 <defs>
  <style type="text/css">*{stroke-linejoin: round; stroke-linecap: butt}</style>
 </defs>
 <g id="figure_1">
  <g id="patch_1">
   <path d="M 0 345.6 
L 460.8 345.6 
L 460.8 0 
L 0 0 
L 0 345.6 
z
" style="fill: none"/>
  </g>
  <g id="axes_1">
   <g id="patch_2">
    <path d="M 57.6 307.584 
L 414.72 307.584 
L 414.72 41.472 
L 57.6 41.472 
L 57.6 307.584 
z
" style="fill: none"/>
   </g>
   <g id="patch_3">
    <path d="M 73.832727 307.584 
L 109.905455 307.584 
L 109.905455 307.036022 
L 73.832727 307.036022 
z
" clip-path="url(#pfbe50dc392)"/>
   </g>
   <g id="patch_4">
    <path d="M 145.978182 307.584 
L 182.050909 307.584 
L 182.050909 305.871568 
L 145.978182 305.871568 
z
" clip-path="url(#pfbe50dc392)"/>
   </g>
   <g id="patch_5">
    <path d="M 218.123636 307.584 
L 254.196364 307.584 
L 254.196364 305.0496 
L 218.123636 305.0496 
z
" clip-path="url(#pfbe50dc392)"/>
   </g>
   <g id="patch_6">
    <path d="M 290.269091 307.584 
L 326.341818 307.584 
L 326.341818 305.940065 
L 290.269091 305.940065 
z
" clip-path="url(#pfbe50dc392)"/>
   </g>
   <g id="patch_7">
    <path d="M 362.414545 307.584 
L 398.487273 307.584 
L 398.487273 307.173016 
L 362.414545 307.173016 
z
" clip-path="url(#pfbe50dc392)"/>
   </g>
   <g id="patch_8">
    <path d="M 73.832727 307.584 
L 109.905455 307.584 
L 109.905455 307.036022 
L 73.832727 307.036022 
z
" clip-path="url(#pfbe50dc392)"/>
   </g>
   <g id="patch_9">
    <path d="M 145.978182 307.584 
L 182.050909 307.584 
L 182.050909 305.871568 
L 145.978182 305.871568 
z
" clip-path="url(#pfbe50dc392)"/>
   </g>
   <g id="patch_10">
    <path d="M 218.123636 307.584 
L 254.196364 307.584 
L 254.196364 305.0496 
L 218.123636 305.0496 
z
" clip-path="url(#pfbe50dc392)"/>
   </g>
   <g id="patch_11">
    <path d="M 290.269091 307.584 
L 326.341818 307.584 
L 326.341818 305.940065 
L 290.269091 305.940065 
z
" clip-path="url(#pfbe50dc392)"/>
   </g>
   <g id="patch_12">
    <path d="M 362.414545 307.584 
L 398.487273 307.584 
L 398.487273 307.173016 
L 362.414545 307.173016 
z
" clip-path="url(#pfbe50dc392)"/>
   </g>
   <g id="patch_13">
    <path d="M 91.869091 307.584 
L 120.727273 307.584 
L 120.727273 252.786162 
L 91.869091 252.786162 
z
" clip-path="url(#pfbe50dc392)" style="fill: #1f77b4"/>
   </g>
   <g id="patch_14">
    <path d="M 120.727273 307.584 
L 149.585455 307.584 
L 149.585455 307.584 
L 120.727273 307.584 
z
" clip-path="url(#pfbe50dc392)" style="fill: #1f77b4"/>
   </g>
   <g id="patch_15">
    <path d="M 149.585455 307.584 
L 178.443636 307.584 
L 178.443636 136.340757 
L 149.585455 136.340757 
z
" clip-path="url(#pfbe50dc392)" style="fill: #1f77b4"/>
   </g>
   <g id="patch_16">
    <path d="M 178.443636 307.584 
L 207.301818 307.584 
L 207.301818 307.584 
L 178.443636 307.584 
z
" clip-path="url(#pfbe50dc392)" style="fill: #1f77b4"/>
   </g>
   <g id="patch_17">
    <path d="M 207.301818 307.584 
L 236.16 307.584 
L 236.16 307.584 
L 207.301818 307.584 
z
" clip-path="url(#pfbe50dc392)" style="fill: #1f77b4"/>
   </g>
   <g id="patch_18">
    <path d="M 236.16 307.584 
L 265.018182 307.584 
L 265.018182 54.144 
L 236.16 54.144 
z
" clip-path="url(#pfbe50dc392)" style="fill: #1f77b4"/>
   </g>
   <g id="patch_19">
    <path d="M 265.018182 307.584 
L 293.876364 307.584 
L 293.876364 307.584 
L 265.018182 307.584 
z
" clip-path="url(#pfbe50dc392)" style="fill: #1f77b4"/>
   </g>
   <g id="patch_20">
    <path d="M 293.876364 307.584 
L 322.734545 307.584 
L 322.734545 143.190486 
L 293.876364 143.190486 
z
" clip-path="url(#pfbe50dc392)" style="fill: #1f77b4"/>
   </g>
   <g id="patch_21">
    <path d="M 322.734545 307.584 
L 351.592727 307.584 
L 351.592727 307.584 
L 322.734545 307.584 
z
" clip-path="url(#pfbe50dc392)" style="fill: #1f77b4"/>
   </g>
   <g id="patch_22">
    <path d="M 351.592727 307.584 
L 380.450909 307.584 
L 380.450909 266.485622 
L 351.592727 266.485622 
z
" clip-path="url(#pfbe50dc392)" style="fill: #1f77b4"/>
   </g>
   <g id="matplotlib.axis_1">
    <g id="xtick_1">
     <g id="line2d_1">
      <defs>
       <path id="mbda419f219" d="M 0 0 
L 0 3.5 
" style="stroke: #000000; stroke-width: 0.8"/>
      </defs>
      <g>
       <use xlink:href="#mbda419f219" x="91.869091" y="307.584" style="stroke: #000000; stroke-width: 0.8"/>
      </g>
     </g>
     <g id="text_1">
      <!-- 0 -->
      <g transform="translate(88.869091 322.8115) scale(0.12 -0.12)">
       <defs>
        <path id="Times-Roman-30" d="M 1531 116 
Q 1991 116 2162 619 
Q 2334 1122 2334 2075 
Q 2334 2834 2231 3288 
Q 2038 4131 1506 4131 
Q 975 4131 778 3263 
Q 675 2800 675 2044 
Q 675 1334 781 909 
Q 981 116 1531 116 
z
M 1522 4300 
Q 2241 4300 2638 3547 
Q 2953 2938 2953 2147 
Q 2953 1525 2759 975 
Q 2394 -59 1494 -59 
Q 878 -59 481 500 
Q 56 1097 56 2122 
Q 56 2928 341 3509 
Q 725 4300 1522 4300 
z
" transform="scale(0.015625)"/>
       </defs>
       <use xlink:href="#Times-Roman-30"/>
      </g>
     </g>
    </g>
    <g id="xtick_2">
     <g id="line2d_2">
      <g>
       <use xlink:href="#mbda419f219" x="164.014545" y="307.584" style="stroke: #000000; stroke-width: 0.8"/>
      </g>
     </g>
     <g id="text_2">
      <!-- 1 -->
      <g transform="translate(161.014545 322.8115) scale(0.12 -0.12)">
       <defs>
        <path id="Times-Roman-31" d="M 1894 4294 
Q 1906 4278 1907 4270 
Q 1909 4263 1909 4234 
L 1909 472 
Q 1909 231 2037 165 
Q 2166 100 2516 88 
L 2516 0 
L 753 0 
L 753 94 
Q 1131 113 1247 197 
Q 1363 281 1363 563 
L 1363 3456 
Q 1363 3606 1325 3684 
Q 1288 3763 1163 3763 
Q 1081 3763 951 3717 
Q 822 3672 709 3622 
L 709 3709 
L 1856 4294 
L 1894 4294 
z
" transform="scale(0.015625)"/>
       </defs>
       <use xlink:href="#Times-Roman-31"/>
      </g>
     </g>
    </g>
    <g id="xtick_3">
     <g id="line2d_3">
      <g>
       <use xlink:href="#mbda419f219" x="236.16" y="307.584" style="stroke: #000000; stroke-width: 0.8"/>
      </g>
     </g>
     <g id="text_3">
      <!-- 2 -->
      <g transform="translate(233.16 322.8115) scale(0.12 -0.12)">
       <defs>
        <path id="Times-Roman-32" d="M 191 72 
Q 1334 1259 1743 1815 
Q 2153 2372 2153 2900 
Q 2153 3363 1903 3605 
Q 1653 3847 1306 3847 
Q 878 3847 613 3534 
Q 466 3363 331 3006 
L 197 3034 
Q 353 3753 726 4033 
Q 1100 4313 1528 4313 
Q 2056 4313 2382 3980 
Q 2709 3647 2709 3166 
Q 2709 2653 2356 2178 
Q 2003 1703 822 488 
L 2256 488 
Q 2556 488 2678 559 
Q 2800 631 2953 909 
L 3034 872 
L 2688 0 
L 191 0 
L 191 72 
z
" transform="scale(0.015625)"/>
       </defs>
       <use xlink:href="#Times-Roman-32"/>
      </g>
     </g>
    </g>
    <g id="xtick_4">
     <g id="line2d_4">
      <g>
       <use xlink:href="#mbda419f219" x="308.305455" y="307.584" style="stroke: #000000; stroke-width: 0.8"/>
      </g>
     </g>
     <g id="text_4">
      <!-- 3 -->
      <g transform="translate(305.305455 322.8115) scale(0.12 -0.12)">
       <defs>
        <path id="Times-Roman-33" d="M 497 544 
Q 669 544 951 366 
Q 1234 188 1431 188 
Q 1869 188 2081 483 
Q 2294 778 2294 1125 
Q 2294 1459 2122 1713 
Q 1831 2141 1141 2141 
Q 1100 2141 1062 2139 
Q 1025 2138 975 2131 
L 969 2213 
Q 1469 2394 1756 2628 
Q 2044 2863 2044 3247 
Q 2044 3588 1817 3766 
Q 1591 3944 1300 3944 
Q 956 3944 694 3691 
Q 550 3553 384 3266 
L 288 3288 
Q 413 3763 753 4047 
Q 1094 4331 1541 4331 
Q 2019 4331 2280 4068 
Q 2541 3806 2541 3463 
Q 2541 3159 2325 2906 
Q 2203 2763 1947 2584 
Q 2247 2456 2428 2284 
Q 2769 1956 2769 1453 
Q 2769 859 2301 406 
Q 1834 -47 972 -47 
Q 588 -47 433 67 
Q 278 181 278 313 
Q 278 394 329 469 
Q 381 544 497 544 
z
" transform="scale(0.015625)"/>
       </defs>
       <use xlink:href="#Times-Roman-33"/>
      </g>
     </g>
    </g>
    <g id="xtick_5">
     <g id="line2d_5">
      <g>
       <use xlink:href="#mbda419f219" x="380.450909" y="307.584" style="stroke: #000000; stroke-width: 0.8"/>
      </g>
     </g>
     <g id="text_5">
      <!-- 4 -->
      <g transform="translate(377.450909 322.8115) scale(0.12 -0.12)">
       <defs>
        <path id="Times-Roman-34" d="M 1866 3650 
L 331 1481 
L 1866 1481 
L 1866 3650 
z
M 2072 4294 
L 2369 4294 
L 2369 1481 
L 3022 1481 
L 3022 1066 
L 2369 1066 
L 2369 0 
L 1872 0 
L 1872 1066 
L 72 1066 
L 72 1481 
L 2072 4294 
z
" transform="scale(0.015625)"/>
       </defs>
       <use xlink:href="#Times-Roman-34"/>
      </g>
     </g>
    </g>
    <g id="text_6">
     <!-- # of heads in experiment -->
     <g transform="translate(176.844375 337.65275) scale(0.12 -0.12)">
      <defs>
       <path id="Times-Roman-23" d="M 1784 1575 
L 2072 2650 
L 1397 2650 
L 1109 1575 
L 1784 1575 
z
M 50 1575 
L 731 1575 
L 1028 2656 
L 347 2656 
L 397 2888 
L 1081 2888 
L 1450 4228 
L 1834 4228 
L 1466 2888 
L 2141 2888 
L 2503 4228 
L 2881 4228 
L 2509 2888 
L 3191 2888 
L 3131 2656 
L 2450 2656 
L 2163 1575 
L 2844 1575 
L 2775 1341 
L 2103 1341 
L 1741 0 
L 1353 0 
L 1725 1341 
L 1050 1341 
L 688 0 
L 309 0 
L 672 1341 
L 0 1341 
L 50 1575 
z
" transform="scale(0.015625)"/>
       <path id="Times-Roman-20" transform="scale(0.015625)"/>
       <path id="Times-Roman-6f" d="M 163 1450 
Q 163 2072 558 2501 
Q 953 2931 1575 2931 
Q 2194 2931 2600 2525 
Q 3006 2119 3006 1444 
Q 3006 822 2612 362 
Q 2219 -97 1594 -97 
Q 994 -97 578 343 
Q 163 784 163 1450 
z
M 1488 2744 
Q 1241 2744 1059 2581 
Q 747 2297 747 1600 
Q 747 1044 998 562 
Q 1250 81 1697 81 
Q 2047 81 2236 403 
Q 2425 725 2425 1247 
Q 2425 1788 2184 2266 
Q 1944 2744 1488 2744 
z
M 1603 2931 
L 1603 2931 
z
" transform="scale(0.015625)"/>
       <path id="Times-Roman-66" d="M 125 88 
Q 456 103 561 211 
Q 666 319 666 666 
L 666 2672 
L 131 2672 
L 131 2881 
L 666 2881 
Q 666 3375 800 3716 
Q 1056 4369 1741 4369 
Q 2016 4369 2233 4259 
Q 2450 4150 2450 3966 
Q 2450 3863 2375 3781 
Q 2300 3700 2194 3700 
Q 2103 3700 2037 3754 
Q 1972 3809 1881 3947 
L 1828 4028 
Q 1784 4094 1725 4139 
Q 1666 4184 1559 4184 
Q 1322 4184 1238 3950 
Q 1191 3825 1191 3622 
L 1191 2881 
L 1975 2881 
L 1975 2672 
L 1197 2672 
L 1197 666 
Q 1197 313 1292 214 
Q 1388 116 1791 88 
L 1791 0 
L 125 0 
L 125 88 
z
" transform="scale(0.015625)"/>
       <path id="Times-Roman-68" d="M 56 88 
Q 313 122 392 214 
Q 472 306 472 650 
L 472 3650 
Q 472 3825 426 3908 
Q 381 3991 206 3991 
Q 172 3991 139 3986 
Q 106 3981 66 3975 
L 66 4088 
Q 203 4128 404 4186 
Q 606 4244 684 4269 
L 984 4363 
L 991 4341 
L 991 2422 
Q 1188 2647 1341 2753 
Q 1616 2941 1934 2941 
Q 2441 2941 2625 2516 
Q 2725 2291 2725 1925 
L 2725 650 
Q 2725 319 2801 219 
Q 2878 119 3116 88 
L 3116 0 
L 1763 0 
L 1763 88 
Q 2034 125 2112 215 
Q 2191 306 2191 650 
L 2191 1916 
Q 2191 2219 2089 2406 
Q 1988 2594 1706 2594 
Q 1463 2594 1234 2419 
Q 1006 2244 1006 2191 
L 1006 650 
Q 1006 300 1087 212 
Q 1169 125 1434 88 
L 1434 0 
L 56 0 
L 56 88 
z
" transform="scale(0.015625)"/>
       <path id="Times-Roman-65" d="M 1466 2931 
Q 1906 2931 2237 2626 
Q 2569 2322 2569 1763 
L 584 1763 
Q 616 1038 912 706 
Q 1209 375 1616 375 
Q 1944 375 2169 547 
Q 2394 719 2584 1034 
L 2694 997 
Q 2566 600 2214 262 
Q 1863 -75 1353 -75 
Q 766 -75 445 369 
Q 125 813 125 1391 
Q 125 2019 497 2475 
Q 869 2931 1466 2931 
z
M 1284 2703 
Q 928 2703 741 2388 
Q 641 2219 597 1963 
L 1916 1963 
Q 1881 2275 1797 2428 
Q 1644 2703 1284 2703 
z
M 1425 2931 
L 1425 2931 
z
" transform="scale(0.015625)"/>
       <path id="Times-Roman-61" d="M 1834 1731 
Q 1475 1613 1241 1469 
Q 791 1191 791 838 
Q 791 553 978 419 
Q 1100 331 1250 331 
Q 1456 331 1645 447 
Q 1834 563 1834 741 
L 1834 1731 
z
M 234 622 
Q 234 1075 688 1378 
Q 975 1566 1834 1888 
L 1834 2153 
Q 1834 2472 1772 2597 
Q 1666 2806 1331 2806 
Q 1172 2806 1028 2725 
Q 884 2641 884 2494 
Q 884 2456 900 2367 
Q 916 2278 916 2253 
Q 916 2078 800 2009 
Q 734 1969 644 1969 
Q 503 1969 428 2061 
Q 353 2153 353 2266 
Q 353 2484 623 2723 
Q 894 2963 1416 2963 
Q 2022 2963 2238 2569 
Q 2353 2353 2353 1941 
L 2353 688 
Q 2353 506 2378 438 
Q 2419 316 2547 316 
Q 2619 316 2666 337 
Q 2713 359 2828 444 
L 2828 281 
Q 2728 159 2613 81 
Q 2438 -38 2256 -38 
Q 2044 -38 1948 100 
Q 1853 238 1844 428 
Q 1606 222 1438 122 
Q 1153 -47 897 -47 
Q 628 -47 431 142 
Q 234 331 234 622 
z
M 1425 2963 
L 1425 2963 
z
" transform="scale(0.015625)"/>
       <path id="Times-Roman-64" d="M 1516 2953 
Q 1744 2953 1934 2853 
Q 2059 2788 2175 2672 
L 2175 3666 
Q 2175 3856 2133 3928 
Q 2091 4000 1931 4000 
Q 1894 4000 1866 3997 
Q 1838 3994 1741 3984 
L 1741 4088 
L 1997 4153 
Q 2138 4191 2278 4231 
Q 2419 4272 2525 4309 
Q 2575 4325 2691 4369 
L 2709 4363 
L 2703 4034 
Q 2700 3856 2697 3667 
Q 2694 3478 2694 3294 
L 2688 741 
Q 2688 538 2738 456 
Q 2788 375 3003 375 
Q 3038 375 3072 376 
Q 3106 378 3141 384 
L 3141 281 
Q 3122 275 2688 125 
L 2197 -59 
L 2175 -31 
L 2175 353 
Q 2000 163 1872 81 
Q 1644 -59 1344 -59 
Q 813 -59 483 352 
Q 153 763 153 1303 
Q 153 1981 548 2467 
Q 944 2953 1516 2953 
z
M 1631 278 
Q 1875 278 2025 422 
Q 2175 566 2175 694 
L 2175 2034 
Q 2175 2441 1958 2608 
Q 1741 2775 1534 2775 
Q 1141 2775 922 2426 
Q 703 2078 703 1569 
Q 703 1066 936 672 
Q 1169 278 1631 278 
z
" transform="scale(0.015625)"/>
       <path id="Times-Roman-73" d="M 331 984 
L 434 984 
Q 506 628 628 438 
Q 847 88 1269 88 
Q 1503 88 1639 217 
Q 1775 347 1775 553 
Q 1775 684 1697 806 
Q 1619 928 1422 1044 
L 1072 1244 
Q 688 1450 506 1659 
Q 325 1869 325 2153 
Q 325 2503 575 2728 
Q 825 2953 1203 2953 
Q 1369 2953 1567 2890 
Q 1766 2828 1791 2828 
Q 1847 2828 1872 2843 
Q 1897 2859 1916 2894 
L 1991 2894 
L 2013 2022 
L 1916 2022 
Q 1853 2325 1747 2494 
Q 1553 2806 1188 2806 
Q 969 2806 844 2672 
Q 719 2538 719 2356 
Q 719 2069 1150 1844 
L 1563 1622 
Q 2228 1259 2228 778 
Q 2228 409 1951 175 
Q 1675 -59 1228 -59 
Q 1041 -59 803 3 
Q 566 66 522 66 
Q 484 66 456 39 
Q 428 13 413 -25 
L 331 -25 
L 331 984 
z
M 1247 2953 
L 1247 2953 
z
" transform="scale(0.015625)"/>
       <path id="Times-Roman-69" d="M 525 4034 
Q 525 4169 619 4266 
Q 713 4363 850 4363 
Q 984 4363 1079 4267 
Q 1175 4172 1175 4034 
Q 1175 3900 1079 3804 
Q 984 3709 850 3709 
Q 713 3709 619 3804 
Q 525 3900 525 4034 
z
M 125 88 
Q 459 119 546 201 
Q 634 284 634 650 
L 634 2141 
Q 634 2344 606 2422 
Q 559 2550 409 2550 
Q 375 2550 342 2544 
Q 309 2538 153 2494 
L 153 2591 
L 288 2634 
Q 834 2813 1050 2903 
Q 1138 2941 1163 2941 
Q 1169 2919 1169 2894 
L 1169 650 
Q 1169 294 1255 203 
Q 1341 113 1644 88 
L 1644 0 
L 125 0 
L 125 88 
z
" transform="scale(0.015625)"/>
       <path id="Times-Roman-6e" d="M 116 88 
Q 338 116 427 198 
Q 516 281 516 569 
L 516 2153 
Q 516 2353 478 2434 
Q 419 2553 234 2553 
Q 206 2553 176 2550 
Q 147 2547 103 2541 
L 103 2650 
Q 231 2688 709 2844 
L 1003 2941 
Q 1025 2941 1029 2925 
Q 1034 2909 1034 2881 
L 1034 2422 
Q 1322 2691 1484 2791 
Q 1728 2944 1991 2944 
Q 2203 2944 2378 2822 
Q 2716 2584 2716 1975 
L 2716 516 
Q 2716 291 2806 191 
Q 2897 91 3109 88 
L 3109 0 
L 1775 0 
L 1775 88 
Q 2003 119 2093 214 
Q 2184 309 2184 628 
L 2184 1963 
Q 2184 2231 2084 2407 
Q 1984 2584 1716 2584 
Q 1531 2584 1341 2459 
Q 1234 2388 1066 2222 
L 1066 472 
Q 1066 247 1166 170 
Q 1266 94 1481 88 
L 1481 0 
L 116 0 
L 116 88 
z
M 1603 2944 
L 1603 2944 
z
" transform="scale(0.015625)"/>
       <path id="Times-Roman-78" d="M 1481 2872 
L 1481 2784 
Q 1363 2781 1280 2751 
Q 1197 2722 1197 2628 
Q 1197 2569 1363 2294 
Q 1450 2150 1584 1941 
Q 1769 2194 1859 2338 
Q 2013 2569 2013 2638 
Q 2013 2719 1947 2747 
Q 1881 2775 1763 2784 
L 1763 2872 
L 2769 2872 
L 2769 2784 
Q 2609 2772 2471 2698 
Q 2334 2625 2250 2503 
L 1716 1731 
L 2541 481 
Q 2700 238 2811 166 
Q 2922 94 3066 88 
L 3066 0 
L 1775 0 
L 1775 88 
L 1866 94 
Q 1938 100 1986 137 
Q 2034 175 2034 231 
Q 2034 291 1916 494 
Q 1859 594 1747 766 
Q 1694 850 1589 1000 
Q 1484 1150 1413 1256 
L 909 472 
Q 819 331 797 284 
Q 775 238 775 206 
Q 775 147 823 128 
Q 872 109 1034 88 
L 1034 0 
L 109 0 
L 109 88 
Q 278 122 359 175 
Q 441 228 575 422 
L 1303 1481 
L 703 2391 
Q 522 2663 453 2713 
Q 384 2763 153 2784 
L 153 2872 
L 1481 2872 
z
" transform="scale(0.015625)"/>
       <path id="Times-Roman-70" d="M 1022 575 
Q 1103 363 1264 258 
Q 1425 153 1644 153 
Q 1981 153 2220 489 
Q 2459 825 2459 1425 
Q 2459 2000 2211 2284 
Q 1963 2569 1634 2569 
Q 1403 2569 1212 2426 
Q 1022 2284 1022 2147 
L 1022 575 
z
M 28 -1291 
Q 322 -1272 401 -1165 
Q 481 -1059 481 -831 
L 481 2169 
Q 481 2406 423 2473 
Q 366 2541 206 2541 
Q 172 2541 142 2537 
Q 113 2534 56 2525 
L 56 2628 
L 353 2725 
Q 369 2728 981 2941 
Q 997 2941 1005 2927 
Q 1013 2913 1013 2894 
L 1013 2472 
Q 1219 2678 1375 2778 
Q 1656 2953 1953 2953 
Q 2384 2953 2695 2586 
Q 3006 2219 3006 1581 
Q 3006 956 2632 446 
Q 2259 -63 1694 -63 
Q 1519 -63 1391 -19 
Q 1191 47 1022 222 
L 1022 -800 
Q 1022 -1116 1125 -1187 
Q 1228 -1259 1575 -1284 
L 1575 -1394 
L 28 -1394 
L 28 -1291 
z
" transform="scale(0.015625)"/>
       <path id="Times-Roman-72" d="M 28 103 
Q 316 128 409 204 
Q 503 281 503 531 
L 503 1941 
Q 503 2250 445 2383 
Q 388 2516 234 2516 
Q 203 2516 151 2508 
Q 100 2500 44 2488 
L 44 2591 
Q 222 2653 409 2718 
Q 597 2784 669 2813 
Q 825 2872 991 2947 
Q 1013 2947 1017 2931 
Q 1022 2916 1022 2866 
L 1022 2353 
Q 1222 2631 1408 2787 
Q 1594 2944 1794 2944 
Q 1953 2944 2053 2848 
Q 2153 2753 2153 2609 
Q 2153 2481 2076 2393 
Q 2000 2306 1884 2306 
Q 1766 2306 1645 2415 
Q 1525 2525 1456 2525 
Q 1347 2525 1187 2348 
Q 1028 2172 1028 1984 
L 1028 575 
Q 1028 306 1153 201 
Q 1278 97 1569 103 
L 1569 0 
L 28 0 
L 28 103 
z
" transform="scale(0.015625)"/>
       <path id="Times-Roman-6d" d="M 103 81 
Q 347 103 428 163 
Q 553 253 553 525 
L 553 2141 
Q 553 2372 492 2444 
Q 431 2516 291 2516 
Q 225 2516 192 2509 
Q 159 2503 116 2488 
L 116 2597 
L 341 2672 
Q 463 2713 741 2819 
Q 1019 2925 1034 2925 
Q 1050 2925 1053 2909 
Q 1056 2894 1056 2850 
L 1056 2428 
Q 1366 2709 1591 2817 
Q 1816 2925 2053 2925 
Q 2375 2925 2566 2706 
Q 2666 2588 2731 2384 
Q 2963 2619 3134 2731 
Q 3431 2925 3741 2925 
Q 4244 2925 4413 2516 
Q 4509 2284 4509 1784 
L 4509 488 
Q 4509 266 4607 186 
Q 4706 106 4963 81 
L 4963 0 
L 3553 0 
L 3553 88 
Q 3825 113 3911 197 
Q 3997 281 3997 541 
L 3997 1888 
Q 3997 2191 3931 2334 
Q 3816 2591 3478 2591 
Q 3275 2591 3075 2456 
Q 2959 2378 2791 2206 
L 2791 606 
Q 2791 353 2880 222 
Q 2969 91 3256 81 
L 3256 0 
L 1822 0 
L 1822 81 
Q 2119 119 2200 225 
Q 2281 331 2281 747 
L 2281 1622 
Q 2281 2103 2219 2284 
Q 2116 2591 1781 2591 
Q 1591 2591 1406 2486 
Q 1222 2381 1081 2213 
L 1081 503 
Q 1081 266 1164 175 
Q 1247 84 1525 81 
L 1525 0 
L 103 0 
L 103 81 
z
" transform="scale(0.015625)"/>
       <path id="Times-Roman-74" d="M 1628 2881 
L 1628 2656 
L 991 2656 
L 984 856 
Q 984 619 1025 497 
Q 1100 281 1319 281 
Q 1431 281 1514 334 
Q 1597 388 1703 503 
L 1784 434 
L 1716 341 
Q 1553 122 1372 31 
Q 1191 -59 1022 -59 
Q 653 -59 522 269 
Q 450 447 450 763 
L 450 2656 
L 109 2656 
Q 94 2666 86 2675 
Q 78 2684 78 2700 
Q 78 2731 92 2748 
Q 106 2766 181 2828 
Q 397 3006 492 3117 
Q 588 3228 941 3703 
Q 981 3703 989 3697 
Q 997 3691 997 3650 
L 997 2881 
L 1628 2881 
z
" transform="scale(0.015625)"/>
      </defs>
      <use xlink:href="#Times-Roman-23"/>
      <use xlink:href="#Times-Roman-20" x="50"/>
      <use xlink:href="#Times-Roman-6f" x="75"/>
      <use xlink:href="#Times-Roman-66" x="125"/>
      <use xlink:href="#Times-Roman-20" x="158.300781"/>
      <use xlink:href="#Times-Roman-68" x="183.300781"/>
      <use xlink:href="#Times-Roman-65" x="233.300781"/>
      <use xlink:href="#Times-Roman-61" x="277.685547"/>
      <use xlink:href="#Times-Roman-64" x="322.070312"/>
      <use xlink:href="#Times-Roman-73" x="372.070312"/>
      <use xlink:href="#Times-Roman-20" x="410.986328"/>
      <use xlink:href="#Times-Roman-69" x="435.986328"/>
      <use xlink:href="#Times-Roman-6e" x="463.769531"/>
      <use xlink:href="#Times-Roman-20" x="513.769531"/>
      <use xlink:href="#Times-Roman-65" x="538.769531"/>
      <use xlink:href="#Times-Roman-78" x="583.154297"/>
      <use xlink:href="#Times-Roman-70" x="633.154297"/>
      <use xlink:href="#Times-Roman-65" x="683.154297"/>
      <use xlink:href="#Times-Roman-72" x="727.539062"/>
      <use xlink:href="#Times-Roman-69" x="760.839844"/>
      <use xlink:href="#Times-Roman-6d" x="788.623047"/>
      <use xlink:href="#Times-Roman-65" x="866.40625"/>
      <use xlink:href="#Times-Roman-6e" x="910.791016"/>
      <use xlink:href="#Times-Roman-74" x="960.791016"/>
     </g>
    </g>
   </g>
   <g id="matplotlib.axis_2">
    <g id="ytick_1">
     <g id="line2d_6">
      <path d="M 57.6 307.584 
L 414.72 307.584 
" clip-path="url(#pfbe50dc392)" style="fill: none; stroke-dasharray: 0.8,1.32; stroke-dashoffset: 0; stroke: #808080; stroke-width: 0.8"/>
     </g>
     <g id="line2d_7">
      <defs>
       <path id="mfefad610f9" d="M 0 0 
L -3.5 0 
" style="stroke: #000000; stroke-width: 0.8"/>
      </defs>
      <g>
       <use xlink:href="#mfefad610f9" x="57.6" y="307.584" style="stroke: #000000; stroke-width: 0.8"/>
      </g>
     </g>
     <g id="text_7">
      <!-- 0 -->
      <g transform="translate(44.6 311.69775) scale(0.12 -0.12)">
       <use xlink:href="#Times-Roman-30"/>
      </g>
     </g>
    </g>
    <g id="ytick_2">
     <g id="line2d_8">
      <path d="M 57.6 273.335351 
L 414.72 273.335351 
" clip-path="url(#pfbe50dc392)" style="fill: none; stroke-dasharray: 0.8,1.32; stroke-dashoffset: 0; stroke: #808080; stroke-width: 0.8"/>
     </g>
     <g id="line2d_9">
      <g>
       <use xlink:href="#mfefad610f9" x="57.6" y="273.335351" style="stroke: #000000; stroke-width: 0.8"/>
      </g>
     </g>
     <g id="text_8">
      <!-- 5 -->
      <g transform="translate(44.6 277.449101) scale(0.12 -0.12)">
       <defs>
        <path id="Times-Roman-35" d="M 478 572 
Q 656 572 945 370 
Q 1234 169 1391 169 
Q 1750 169 2019 486 
Q 2288 803 2288 1266 
Q 2288 2075 1425 2431 
Q 947 2628 534 2628 
Q 466 2628 448 2633 
Q 431 2638 406 2666 
Q 413 2691 417 2708 
Q 422 2725 428 2741 
L 1109 4234 
L 2450 4234 
Q 2550 4234 2604 4268 
Q 2659 4303 2747 4397 
L 2797 4353 
L 2553 3775 
Q 2541 3747 2484 3739 
Q 2428 3731 2363 3731 
L 1153 3731 
L 888 3184 
Q 1400 3097 1638 3019 
Q 2028 2888 2291 2631 
Q 2516 2409 2631 2132 
Q 2747 1856 2747 1547 
Q 2747 856 2255 393 
Q 1763 -69 1009 -69 
Q 703 -69 516 -9 
Q 203 88 203 338 
Q 203 431 270 501 
Q 338 572 478 572 
z
" transform="scale(0.015625)"/>
       </defs>
       <use xlink:href="#Times-Roman-35"/>
      </g>
     </g>
    </g>
    <g id="ytick_3">
     <g id="line2d_10">
      <path d="M 57.6 239.086703 
L 414.72 239.086703 
" clip-path="url(#pfbe50dc392)" style="fill: none; stroke-dasharray: 0.8,1.32; stroke-dashoffset: 0; stroke: #808080; stroke-width: 0.8"/>
     </g>
     <g id="line2d_11">
      <g>
       <use xlink:href="#mfefad610f9" x="57.6" y="239.086703" style="stroke: #000000; stroke-width: 0.8"/>
      </g>
     </g>
     <g id="text_9">
      <!-- 10 -->
      <g transform="translate(38.6 243.200453) scale(0.12 -0.12)">
       <use xlink:href="#Times-Roman-31"/>
       <use xlink:href="#Times-Roman-30" x="50"/>
      </g>
     </g>
    </g>
    <g id="ytick_4">
     <g id="line2d_12">
      <path d="M 57.6 204.838054 
L 414.72 204.838054 
" clip-path="url(#pfbe50dc392)" style="fill: none; stroke-dasharray: 0.8,1.32; stroke-dashoffset: 0; stroke: #808080; stroke-width: 0.8"/>
     </g>
     <g id="line2d_13">
      <g>
       <use xlink:href="#mfefad610f9" x="57.6" y="204.838054" style="stroke: #000000; stroke-width: 0.8"/>
      </g>
     </g>
     <g id="text_10">
      <!-- 15 -->
      <g transform="translate(38.6 208.951804) scale(0.12 -0.12)">
       <use xlink:href="#Times-Roman-31"/>
       <use xlink:href="#Times-Roman-35" x="50"/>
      </g>
     </g>
    </g>
    <g id="ytick_5">
     <g id="line2d_14">
      <path d="M 57.6 170.589405 
L 414.72 170.589405 
" clip-path="url(#pfbe50dc392)" style="fill: none; stroke-dasharray: 0.8,1.32; stroke-dashoffset: 0; stroke: #808080; stroke-width: 0.8"/>
     </g>
     <g id="line2d_15">
      <g>
       <use xlink:href="#mfefad610f9" x="57.6" y="170.589405" style="stroke: #000000; stroke-width: 0.8"/>
      </g>
     </g>
     <g id="text_11">
      <!-- 20 -->
      <g transform="translate(38.6 174.703155) scale(0.12 -0.12)">
       <use xlink:href="#Times-Roman-32"/>
       <use xlink:href="#Times-Roman-30" x="50"/>
      </g>
     </g>
    </g>
    <g id="ytick_6">
     <g id="line2d_16">
      <path d="M 57.6 136.340757 
L 414.72 136.340757 
" clip-path="url(#pfbe50dc392)" style="fill: none; stroke-dasharray: 0.8,1.32; stroke-dashoffset: 0; stroke: #808080; stroke-width: 0.8"/>
     </g>
     <g id="line2d_17">
      <g>
       <use xlink:href="#mfefad610f9" x="57.6" y="136.340757" style="stroke: #000000; stroke-width: 0.8"/>
      </g>
     </g>
     <g id="text_12">
      <!-- 25 -->
      <g transform="translate(38.6 140.454507) scale(0.12 -0.12)">
       <use xlink:href="#Times-Roman-32"/>
       <use xlink:href="#Times-Roman-35" x="50"/>
      </g>
     </g>
    </g>
    <g id="ytick_7">
     <g id="line2d_18">
      <path d="M 57.6 102.092108 
L 414.72 102.092108 
" clip-path="url(#pfbe50dc392)" style="fill: none; stroke-dasharray: 0.8,1.32; stroke-dashoffset: 0; stroke: #808080; stroke-width: 0.8"/>
     </g>
     <g id="line2d_19">
      <g>
       <use xlink:href="#mfefad610f9" x="57.6" y="102.092108" style="stroke: #000000; stroke-width: 0.8"/>
      </g>
     </g>
     <g id="text_13">
      <!-- 30 -->
      <g transform="translate(38.6 106.205858) scale(0.12 -0.12)">
       <use xlink:href="#Times-Roman-33"/>
       <use xlink:href="#Times-Roman-30" x="50"/>
      </g>
     </g>
    </g>
    <g id="ytick_8">
     <g id="line2d_20">
      <path d="M 57.6 67.843459 
L 414.72 67.843459 
" clip-path="url(#pfbe50dc392)" style="fill: none; stroke-dasharray: 0.8,1.32; stroke-dashoffset: 0; stroke: #808080; stroke-width: 0.8"/>
     </g>
     <g id="line2d_21">
      <g>
       <use xlink:href="#mfefad610f9" x="57.6" y="67.843459" style="stroke: #000000; stroke-width: 0.8"/>
      </g>
     </g>
     <g id="text_14">
      <!-- 35 -->
      <g transform="translate(38.6 71.957209) scale(0.12 -0.12)">
       <use xlink:href="#Times-Roman-33"/>
       <use xlink:href="#Times-Roman-35" x="50"/>
      </g>
     </g>
    </g>
    <g id="text_15">
     <!-- P or pmf (= fraction of 100 experiments) -->
     <g transform="translate(31.98625 272.38425) rotate(-90) scale(0.12 -0.12)">
      <defs>
       <path id="Times-Roman-50" d="M 2769 3072 
Q 2769 3659 2263 3878 
Q 1991 3997 1575 3997 
Q 1378 3997 1333 3958 
Q 1288 3919 1288 3784 
L 1288 2116 
Q 1459 2100 1512 2097 
Q 1566 2094 1616 2094 
Q 2056 2094 2309 2219 
Q 2769 2447 2769 3072 
z
M 103 116 
Q 469 150 559 261 
Q 650 372 650 769 
L 650 3541 
Q 650 3875 548 3981 
Q 447 4088 103 4116 
L 103 4234 
L 1791 4234 
Q 2603 4234 3034 3918 
Q 3466 3603 3466 3088 
Q 3466 2434 2987 2140 
Q 2509 1847 1791 1847 
Q 1688 1847 1527 1851 
Q 1366 1856 1288 1856 
L 1288 694 
Q 1288 331 1398 237 
Q 1509 144 1894 116 
L 1894 0 
L 103 0 
L 103 116 
z
" transform="scale(0.015625)"/>
       <path id="Times-Roman-28" d="M 294 1606 
Q 294 2694 944 3516 
Q 1344 4019 1888 4325 
L 1947 4222 
Q 1444 3822 1228 3444 
Q 850 2784 850 1688 
Q 850 875 994 347 
Q 1247 -578 1947 -1038 
L 1866 -1141 
Q 1481 -956 1034 -419 
Q 294 472 294 1606 
z
" transform="scale(0.015625)"/>
       <path id="Times-Roman-3d" d="M 3422 1191 
L 3422 753 
L 191 753 
L 191 1191 
L 3422 1191 
z
M 3422 2481 
L 3422 2044 
L 191 2044 
L 191 2481 
L 3422 2481 
z
" transform="scale(0.015625)"/>
       <path id="Times-Roman-63" d="M 1591 2947 
Q 1981 2947 2264 2745 
Q 2547 2544 2547 2303 
Q 2547 2200 2475 2111 
Q 2403 2022 2253 2022 
Q 2144 2022 2061 2097 
Q 1978 2172 1941 2316 
L 1903 2466 
Q 1863 2631 1763 2700 
Q 1659 2766 1491 2766 
Q 1134 2766 889 2455 
Q 644 2144 644 1628 
Q 644 1156 914 781 
Q 1184 406 1644 406 
Q 1969 406 2222 619 
Q 2366 741 2547 1006 
L 2634 953 
Q 2456 578 2259 359 
Q 1881 -59 1384 -59 
Q 897 -59 522 325 
Q 147 709 147 1369 
Q 147 2016 556 2481 
Q 966 2947 1591 2947 
z
M 1453 2947 
L 1453 2947 
z
" transform="scale(0.015625)"/>
       <path id="Times-Roman-29" d="M 1822 1575 
Q 1822 1109 1700 693 
Q 1578 278 1344 -91 
Q 1097 -484 684 -825 
Q 413 -1050 228 -1141 
L 169 -1038 
Q 650 -672 872 -291 
Q 1266 384 1266 1494 
Q 1266 2391 1084 2959 
Q 831 3763 169 4222 
L 250 4325 
Q 744 4050 1169 3494 
Q 1822 2638 1822 1575 
z
" transform="scale(0.015625)"/>
      </defs>
      <use xlink:href="#Times-Roman-50"/>
      <use xlink:href="#Times-Roman-20" x="55.615234"/>
      <use xlink:href="#Times-Roman-6f" x="80.615234"/>
      <use xlink:href="#Times-Roman-72" x="130.615234"/>
      <use xlink:href="#Times-Roman-20" x="163.916016"/>
      <use xlink:href="#Times-Roman-70" x="188.916016"/>
      <use xlink:href="#Times-Roman-6d" x="238.916016"/>
      <use xlink:href="#Times-Roman-66" x="316.699219"/>
      <use xlink:href="#Times-Roman-20" x="350"/>
      <use xlink:href="#Times-Roman-28" x="375"/>
      <use xlink:href="#Times-Roman-3d" x="408.300781"/>
      <use xlink:href="#Times-Roman-20" x="464.697266"/>
      <use xlink:href="#Times-Roman-66" x="489.697266"/>
      <use xlink:href="#Times-Roman-72" x="522.998047"/>
      <use xlink:href="#Times-Roman-61" x="556.298828"/>
      <use xlink:href="#Times-Roman-63" x="600.683594"/>
      <use xlink:href="#Times-Roman-74" x="645.068359"/>
      <use xlink:href="#Times-Roman-69" x="672.851562"/>
      <use xlink:href="#Times-Roman-6f" x="700.634766"/>
      <use xlink:href="#Times-Roman-6e" x="750.634766"/>
      <use xlink:href="#Times-Roman-20" x="800.634766"/>
      <use xlink:href="#Times-Roman-6f" x="825.634766"/>
      <use xlink:href="#Times-Roman-66" x="875.634766"/>
      <use xlink:href="#Times-Roman-20" x="908.935547"/>
      <use xlink:href="#Times-Roman-31" x="933.935547"/>
      <use xlink:href="#Times-Roman-30" x="983.935547"/>
      <use xlink:href="#Times-Roman-30" x="1033.935547"/>
      <use xlink:href="#Times-Roman-20" x="1083.935547"/>
      <use xlink:href="#Times-Roman-65" x="1108.935547"/>
      <use xlink:href="#Times-Roman-78" x="1153.320312"/>
      <use xlink:href="#Times-Roman-70" x="1203.320312"/>
      <use xlink:href="#Times-Roman-65" x="1253.320312"/>
      <use xlink:href="#Times-Roman-72" x="1297.705078"/>
      <use xlink:href="#Times-Roman-69" x="1331.005859"/>
      <use xlink:href="#Times-Roman-6d" x="1358.789062"/>
      <use xlink:href="#Times-Roman-65" x="1436.572266"/>
      <use xlink:href="#Times-Roman-6e" x="1480.957031"/>
      <use xlink:href="#Times-Roman-74" x="1530.957031"/>
      <use xlink:href="#Times-Roman-73" x="1558.740234"/>
      <use xlink:href="#Times-Roman-29" x="1597.65625"/>
     </g>
    </g>
   </g>
   <g id="patch_23">
    <path d="M 57.6 307.584 
L 57.6 41.472 
" style="fill: none; stroke: #000000; stroke-width: 0.8; stroke-linejoin: miter; stroke-linecap: square"/>
   </g>
   <g id="patch_24">
    <path d="M 414.72 307.584 
L 414.72 41.472 
" style="fill: none; stroke: #000000; stroke-width: 0.8; stroke-linejoin: miter; stroke-linecap: square"/>
   </g>
   <g id="patch_25">
    <path d="M 57.6 307.584 
L 414.72 307.584 
" style="fill: none; stroke: #000000; stroke-width: 0.8; stroke-linejoin: miter; stroke-linecap: square"/>
   </g>
   <g id="patch_26">
    <path d="M 57.6 41.472 
L 414.72 41.472 
" style="fill: none; stroke: #000000; stroke-width: 0.8; stroke-linejoin: miter; stroke-linecap: square"/>
   </g>
   <g id="text_16">
    <!-- Example of a pmf (probability mass function) -->
    <g transform="translate(104.194125 20.4744) scale(0.144 -0.144)">
     <defs>
      <path id="Times-Roman-45" d="M 72 116 
Q 425 153 529 242 
Q 634 331 634 694 
L 634 3541 
Q 634 3881 531 3986 
Q 428 4091 72 4116 
L 72 4234 
L 3472 4234 
L 3494 3316 
L 3331 3316 
Q 3250 3741 3087 3866 
Q 2925 3991 2363 3991 
L 1494 3991 
Q 1353 3991 1320 3945 
Q 1288 3900 1288 3775 
L 1288 2347 
L 2272 2347 
Q 2681 2347 2793 2469 
Q 2906 2591 2975 2963 
L 3125 2963 
L 3125 1481 
L 2975 1481 
Q 2903 1853 2790 1973 
Q 2678 2094 2272 2094 
L 1288 2094 
L 1288 509 
Q 1288 319 1408 284 
Q 1528 250 2128 250 
Q 2778 250 3087 392 
Q 3397 534 3644 1081 
L 3822 1081 
L 3531 0 
L 72 0 
L 72 116 
z
M 1959 4234 
L 1959 4234 
z
" transform="scale(0.015625)"/>
      <path id="Times-Roman-6c" d="M 131 88 
Q 422 116 525 205 
Q 628 294 628 553 
L 628 3606 
Q 628 3813 594 3891 
Q 531 4022 341 4022 
Q 297 4022 245 4012 
Q 194 4003 116 3984 
L 116 4088 
Q 538 4200 1131 4388 
Q 1153 4388 1158 4369 
Q 1163 4350 1163 4288 
L 1163 541 
Q 1163 269 1256 189 
Q 1350 109 1644 88 
L 1644 0 
L 131 0 
L 131 88 
z
" transform="scale(0.015625)"/>
      <path id="Times-Roman-62" d="M 22 3975 
L 22 4081 
Q 378 4163 662 4263 
Q 947 4363 969 4363 
Q 975 4344 975 4325 
L 975 2422 
Q 1056 2572 1219 2706 
Q 1506 2941 1881 2941 
Q 2341 2941 2666 2553 
Q 2991 2166 2991 1547 
Q 2991 884 2569 412 
Q 2147 -59 1459 -59 
Q 1113 -59 778 78 
Q 444 216 444 353 
L 444 3656 
Q 444 3838 394 3914 
Q 344 3991 163 3991 
L 22 3975 
z
M 963 456 
Q 991 294 1206 223 
Q 1422 153 1584 153 
Q 2022 153 2233 481 
Q 2444 809 2444 1275 
Q 2444 1741 2247 2136 
Q 2050 2531 1609 2531 
Q 1388 2531 1175 2395 
Q 963 2259 963 2050 
L 963 456 
z
" transform="scale(0.015625)"/>
      <path id="Times-Roman-79" d="M 88 2872 
L 1406 2872 
L 1406 2775 
Q 1250 2772 1175 2747 
Q 1031 2706 1031 2588 
Q 1031 2544 1047 2498 
Q 1063 2453 1103 2363 
L 1834 741 
L 2422 2375 
Q 2431 2400 2451 2487 
Q 2472 2575 2472 2606 
Q 2472 2688 2415 2725 
Q 2359 2763 2272 2769 
L 2175 2775 
L 2175 2872 
L 3034 2872 
L 3034 2775 
Q 2906 2759 2842 2687 
Q 2778 2616 2731 2488 
L 1747 -119 
Q 1491 -794 1256 -1097 
Q 1022 -1400 663 -1400 
Q 488 -1400 334 -1312 
Q 181 -1225 181 -1034 
Q 181 -909 273 -829 
Q 366 -750 506 -750 
Q 588 -750 748 -809 
Q 909 -869 978 -869 
Q 1153 -869 1347 -462 
Q 1541 -56 1541 81 
Q 1541 109 1531 150 
Q 1522 191 1509 222 
L 509 2384 
Q 403 2616 323 2689 
Q 244 2763 88 2784 
L 88 2872 
z
M 1575 2931 
L 1575 2931 
z
" transform="scale(0.015625)"/>
      <path id="Times-Roman-75" d="M 991 2894 
L 991 894 
Q 991 681 1050 553 
Q 1166 316 1475 316 
Q 1688 316 1891 456 
Q 2006 534 2125 672 
L 2125 2384 
Q 2125 2625 2031 2700 
Q 1938 2775 1656 2791 
L 1656 2894 
L 2666 2894 
L 2666 694 
Q 2666 481 2742 401 
Q 2819 322 3066 331 
L 3066 244 
Q 2894 197 2812 173 
Q 2731 150 2541 88 
Q 2459 59 2184 -47 
Q 2169 -47 2166 -33 
Q 2163 -19 2163 0 
L 2163 503 
Q 1950 250 1775 128 
Q 1509 -59 1213 -59 
Q 941 -59 700 134 
Q 456 325 456 775 
L 456 2397 
Q 456 2647 350 2731 
Q 281 2784 56 2806 
L 56 2894 
L 991 2894 
z
M 1603 2931 
L 1603 2931 
z
" transform="scale(0.015625)"/>
     </defs>
     <use xlink:href="#Times-Roman-45"/>
     <use xlink:href="#Times-Roman-78" x="61.083984"/>
     <use xlink:href="#Times-Roman-61" x="111.083984"/>
     <use xlink:href="#Times-Roman-6d" x="155.46875"/>
     <use xlink:href="#Times-Roman-70" x="233.251953"/>
     <use xlink:href="#Times-Roman-6c" x="283.251953"/>
     <use xlink:href="#Times-Roman-65" x="311.035156"/>
     <use xlink:href="#Times-Roman-20" x="355.419922"/>
     <use xlink:href="#Times-Roman-6f" x="380.419922"/>
     <use xlink:href="#Times-Roman-66" x="430.419922"/>
     <use xlink:href="#Times-Roman-20" x="463.720703"/>
     <use xlink:href="#Times-Roman-61" x="488.720703"/>
     <use xlink:href="#Times-Roman-20" x="533.105469"/>
     <use xlink:href="#Times-Roman-70" x="558.105469"/>
     <use xlink:href="#Times-Roman-6d" x="608.105469"/>
     <use xlink:href="#Times-Roman-66" x="685.888672"/>
     <use xlink:href="#Times-Roman-20" x="719.189453"/>
     <use xlink:href="#Times-Roman-28" x="744.189453"/>
     <use xlink:href="#Times-Roman-70" x="777.490234"/>
     <use xlink:href="#Times-Roman-72" x="827.490234"/>
     <use xlink:href="#Times-Roman-6f" x="860.791016"/>
     <use xlink:href="#Times-Roman-62" x="910.791016"/>
     <use xlink:href="#Times-Roman-61" x="960.791016"/>
     <use xlink:href="#Times-Roman-62" x="1005.175781"/>
     <use xlink:href="#Times-Roman-69" x="1055.175781"/>
     <use xlink:href="#Times-Roman-6c" x="1082.958984"/>
     <use xlink:href="#Times-Roman-69" x="1110.742188"/>
     <use xlink:href="#Times-Roman-74" x="1138.525391"/>
     <use xlink:href="#Times-Roman-79" x="1166.308594"/>
     <use xlink:href="#Times-Roman-20" x="1216.308594"/>
     <use xlink:href="#Times-Roman-6d" x="1241.308594"/>
     <use xlink:href="#Times-Roman-61" x="1319.091797"/>
     <use xlink:href="#Times-Roman-73" x="1363.476562"/>
     <use xlink:href="#Times-Roman-73" x="1402.392578"/>
     <use xlink:href="#Times-Roman-20" x="1441.308594"/>
     <use xlink:href="#Times-Roman-66" x="1466.308594"/>
     <use xlink:href="#Times-Roman-75" x="1499.609375"/>
     <use xlink:href="#Times-Roman-6e" x="1549.609375"/>
     <use xlink:href="#Times-Roman-63" x="1599.609375"/>
     <use xlink:href="#Times-Roman-74" x="1643.994141"/>
     <use xlink:href="#Times-Roman-69" x="1671.777344"/>
     <use xlink:href="#Times-Roman-6f" x="1699.560547"/>
     <use xlink:href="#Times-Roman-6e" x="1749.560547"/>
     <use xlink:href="#Times-Roman-29" x="1799.560547"/>
    </g>
    <!-- Experiment is tossing fair coin 4x -->
    <g transform="translate(138.776625 35.472) scale(0.144 -0.144)">
     <defs>
      <path id="Times-Roman-67" d="M 628 -578 
Q 628 -841 923 -941 
Q 1219 -1041 1600 -1041 
Q 2119 -1041 2444 -861 
Q 2769 -681 2769 -419 
Q 2769 -209 2506 -141 
Q 2344 -100 1891 -94 
Q 1775 -91 1647 -86 
Q 1519 -81 1413 -75 
Q 1344 -72 1191 -50 
Q 1038 -28 963 -13 
Q 925 -13 778 -209 
Q 628 -409 628 -578 
z
M 1034 1050 
Q 750 1144 592 1384 
Q 434 1625 434 1925 
Q 434 2291 725 2619 
Q 1016 2947 1547 2947 
Q 1775 2947 2050 2839 
Q 2325 2731 2578 2731 
Q 2644 2731 2776 2736 
Q 2909 2741 2969 2741 
L 3006 2741 
L 3006 2488 
L 2466 2488 
Q 2522 2356 2553 2259 
Q 2606 2078 2606 1916 
Q 2606 1559 2311 1261 
Q 2016 963 1516 963 
Q 1438 963 1234 991 
Q 1144 991 995 837 
Q 847 684 847 588 
Q 847 488 1066 441 
Q 1209 409 1384 409 
Q 2188 409 2475 319 
Q 2947 172 2947 -313 
Q 2947 -806 2395 -1100 
Q 1844 -1394 1281 -1394 
Q 769 -1394 469 -1186 
Q 169 -978 169 -750 
Q 169 -638 248 -530 
Q 328 -422 563 -209 
L 769 -25 
L 806 13 
Q 663 69 591 122 
Q 466 219 466 344 
Q 466 459 573 598 
Q 681 738 1034 1050 
z
M 1628 1113 
Q 1800 1113 1916 1206 
Q 2103 1356 2103 1728 
Q 2103 2025 1951 2397 
Q 1800 2769 1447 2769 
Q 1141 2769 1025 2478 
Q 966 2325 966 2100 
Q 966 1719 1150 1416 
Q 1334 1113 1628 1113 
z
M 1603 2947 
L 1603 2947 
z
" transform="scale(0.015625)"/>
     </defs>
     <use xlink:href="#Times-Roman-45"/>
     <use xlink:href="#Times-Roman-78" x="61.083984"/>
     <use xlink:href="#Times-Roman-70" x="111.083984"/>
     <use xlink:href="#Times-Roman-65" x="161.083984"/>
     <use xlink:href="#Times-Roman-72" x="205.46875"/>
     <use xlink:href="#Times-Roman-69" x="238.769531"/>
     <use xlink:href="#Times-Roman-6d" x="266.552734"/>
     <use xlink:href="#Times-Roman-65" x="344.335938"/>
     <use xlink:href="#Times-Roman-6e" x="388.720703"/>
     <use xlink:href="#Times-Roman-74" x="438.720703"/>
     <use xlink:href="#Times-Roman-20" x="466.503906"/>
     <use xlink:href="#Times-Roman-69" x="491.503906"/>
     <use xlink:href="#Times-Roman-73" x="519.287109"/>
     <use xlink:href="#Times-Roman-20" x="558.203125"/>
     <use xlink:href="#Times-Roman-74" x="583.203125"/>
     <use xlink:href="#Times-Roman-6f" x="610.986328"/>
     <use xlink:href="#Times-Roman-73" x="660.986328"/>
     <use xlink:href="#Times-Roman-73" x="699.902344"/>
     <use xlink:href="#Times-Roman-69" x="738.818359"/>
     <use xlink:href="#Times-Roman-6e" x="766.601562"/>
     <use xlink:href="#Times-Roman-67" x="816.601562"/>
     <use xlink:href="#Times-Roman-20" x="866.601562"/>
     <use xlink:href="#Times-Roman-66" x="891.601562"/>
     <use xlink:href="#Times-Roman-61" x="924.902344"/>
     <use xlink:href="#Times-Roman-69" x="969.287109"/>
     <use xlink:href="#Times-Roman-72" x="997.070312"/>
     <use xlink:href="#Times-Roman-20" x="1030.371094"/>
     <use xlink:href="#Times-Roman-63" x="1055.371094"/>
     <use xlink:href="#Times-Roman-6f" x="1099.755859"/>
     <use xlink:href="#Times-Roman-69" x="1149.755859"/>
     <use xlink:href="#Times-Roman-6e" x="1177.539062"/>
     <use xlink:href="#Times-Roman-20" x="1227.539062"/>
     <use xlink:href="#Times-Roman-34" x="1252.539062"/>
     <use xlink:href="#Times-Roman-78" x="1302.539062"/>
    </g>
   </g>
  </g>
 </g>
 <defs>
  <clipPath id="pfbe50dc392">
   <rect x="57.6" y="41.472" width="357.12" height="266.112"/>
  </clipPath>
 </defs>
</svg>
